<svg xmlns="http://www.w3.org/2000/svg" width="226.4" height="270.4"><style><![CDATA[.W{stroke:#646464}.X{fill:none}.Y{fill-rule:evenodd}.Z{stroke:#000}.a{stroke-width:.444}.b{stroke-linejoin:round}.c{fill:#f5f5f5}.d{fill:#eac102}.e{fill:#ed1c24}]]></style><path d="M.6.6v113.7c.5 36.5 3.3 65 19.3 87.3 19.4 26.8 52.02 46.4 93.52 65.4L113.57.6H.6z" fill="#fff"/><g class="a"><path d="M72.4 56.4c-.6-.1-.6-.3.3-.7l.6-.3c1-.4 1.6-.8 2.6-1.3 1-.6 1.8-1.2 2.7-1.9l3.1-2.2c3.2-2 6.7-3.3 10.4-3.9 1.2-.2 2.9-.4 4-.4.2 0 3.9-.2 4-.2v.1c.1.4.1 1.1.1 1.8-.1.5-.1.9-.3 1.2 0 .1 0 .1-.1.1 0 0-.2-.1-.6-.1-.4-.1-.9 1.5-1.5 1.4-3.4-.1-4.1-1.6-7.3-1-.7.1-1.3.2-2 .4s-1.4.5-2.2.7-1.5.6-2.2.9c-1.5.7-3 1.5-4.9 2.6-1 .6-1.1.7-1.7 1-1.8.9-3.3 1.6-4.2 1.8-.2.1-.5.1-.8 0z" fill="maroon" class="Z"/><g class="W Y"><path d="M80.6 144c-.2-2.1 2.7-6.6 3.4-8.4 3.4-8.9 3.4-39.1 2.6-47.8 1.6-.4 4.2-.7 6.2-.6 1.6 7.3.8 37.1-3.7 45.8 4.5-8.1 5.4-38.1 3.7-45.8 2.6-.9 3.6-1.1 6-1.8.4 9.1.8 38.8-4.7 47.9-2.1 3.2-5.5 6.2-9.4 9.3-1.3 1.2-3.4 2.4-4.1 1.4h0z"/><path d="M61.6 150.2c-.2-2.9 4.3-9.2 5.4-11.8 5.4-12.4 7.5-28.5 7-41 2.5-1.4 5-2.3 7.5-3.2 1.8 10.4-.2 28.7-7.1 40.7 6.8-11.2 9-29.7 7.1-40.7 3.7-1.1 5.1-1.4 8.5-2.2-.1 13-.3 31-8.8 43.6-3.2 4.4-8.2 8.5-13.8 12.8-1.9 1.7-4.8 3.3-5.8 1.8h0z"/><path d="M38 150.7c.6-3.2 6.5-9.1 8.3-11.7 8.5-12.4 14.6-29.4 17.2-43.1 2.8-1 5.6-1.4 8.3-1.9-1 11.6-7.5 31.1-17.2 42.8 9.3-10.9 16-30.4 17.2-42.8 4-.5 4.2-.4 7.7-.6-1.8 14.3-6.7 33.6-18.3 45.6-4.3 4.2-10.3 7.6-17 11.1-2.3 1.2-5.6 2.4-6.2.6h0 0z"/><path d="M31.6 135.3l3.9-6.8c2.6-4.3 5.3-8.7 8.3-12.9 2.8-3.9 4.9-7.9 6-11.9.8-2.7 1.9-5.5 3.2-8.3.6-1.4 3.2-4.4 4.1-4.7.6.6 3.4.7 3.9.7-2.2 11.2-9.8 26.1-18 32.6 8.5-6.9 15.8-21.9 18-32.6 3.9-.9 4.5-1.5 7.1-1.4-3.3 10.3-7.4 22.7-15.3 31.2-5.3 5.3-11.9 10.4-19.6 15-1.5.8-2 .4-1.6-.9z"/><path d="M16.7 118.8c1.6-2.3 7.6-4.9 9.7-6.4 10.1-6.9 19.1-18 25.9-27.5 2.2.1 3.8.1 5.7.5-4.8 8.6-14.6 21.8-25.4 27.7C43 107.8 53 94.5 58.1 85.4c2.8.8 3.9.7 6.3 1.6-5.7 8.9-10.1 15.1-18.5 23.1-1.8 2.1-6.3 5.1-9.6 6.6-4.3 1.9-9.5 2.7-15.2 3.4-2 .3-4.6.2-4.4-1.3z"/><path d="M11.6 105.8c1.7-2 7.7-3.9 9.8-5.1 10.2-5.5 19.9-15.1 27.4-23.5 2 .3 3.5.5 5.2 1.1-5.6 7.7-16.3 19.3-27 23.8 10.2-4 21.1-15.6 27-23.8 2.4 1.1 3.4 1.1 5.5 2.2-6.4 7.9-11.3 13.4-20.1 20-2 1.8-6.4 4.2-9.7 5.3-4.2 1.4-9.1 1.5-14.4 1.6-1.8.2-4.2-.2-3.7-1.6z"/><path d="M7.1 86.8c2.1-1.5 8-1.7 10.2-2.2 10.7-2.6 19.9-7.7 29-14.1.7 1.3 1.6 3.8 3.4 3.8-7.7 5.8-17.6 11.5-27.8 13.3 9.9-1.7 19.8-7.4 27.8-13.3 2.3-.5 3.7-1.2 5.6-2.7.4 1.4 1 2.7 1.9 3.7-9.5 7.2-21.8 16.3-34 17-4.2.1-8.6-1.2-13.3-2.7-1.6-.4-3.6-1.5-2.8-2.8z"/><path d="M9.7 66c2.6-.7 5.1-.8 7.4-.4 10.9 1.7 22.9-.8 33.4-2.3 1 2.6 1.1 4.1 3.9 5.3-9.8 1.7-19.8 3.1-29.9 2.1 10.1 1 20.1-.3 29.9-2.1.9.3 3.6 1.7 4.7 2.3-12.7 3.6-26.2 8.5-38.2 4.5-3.8-1.5-7.1-3.7-11.2-6.3C8.3 68 8.3 67 9.7 66z"/><path d="M16.7 54c2.3-.3 4.4-.2 6.2.3 8.8 2.4 19 3.5 28.3 3.3.1.3 0 .7.2 1 .6 1 1.5 1.9 2.1 2.3-8.4.5-16.1 1.3-25.5-1.8 9.1 3.2 17.1 2.3 25.5 1.8.5.5 2.5 2.5 3.3 3.5-12.5 1.5-22.4 2.4-31.8-2-2.9-1.6-5.9-3.2-8.9-5.8-.9-1.1-.7-1.9.6-2.6z"/><path d="M21.8 43.4c1.6.8 2.9 1.3 5.4 1.9 3.5 1.1 5.9 1.6 9.6 3.2 4.3 2.1 15.3 7.7 20.1 9-.6.4-2.6 1.3-2.7 1.6-8.3-1.4-17-4.7-23.7-9.1 6.8 4.5 15.5 7.7 23.7 9.1.4.6.9.6.6 1.4-8.2-1.6-16.5-1.6-23.9-6.2-4.6-3.2-7.4-5.4-9.9-10.1-.4-.6-.1-1.2.8-.8z"/><path d="M25.2 36c1.6.9 2.8 1.5 5.2 2.2 3.4 1.3 5.8 1.9 9.3 3.7C43.9 44.3 54.3 50.5 59 52c-.6.4-2.7 1.2-2.8 1.5-8.1-1.9-16.6-5.6-22.9-10.4 6.4 4.9 14.9 8.6 22.9 10.4.4.7-.8 2.2-1.2 3-8-2-14.5-4.1-21.6-9-4.3-3.4-7-5.8-9.2-10.7-.2-.6.2-1.2 1-.8z"/><path d="M29.6 28c1.3 1.1 2.3 1.8 4.4 2.9 3 1.8 5 2.7 8 5 3.5 2.9 12.1 10.5 16.2 12.7-.6.3-2.7.8-2.9 1.1-7.2-3-14.5-7.9-19.5-13.5 5.1 5.7 12.3 10.6 19.5 13.5.2.7.7 2 .2 2.8-7.1-3.1-13.2-5-20.4-11.9-3.4-4-5.5-6.7-6.6-11.8-.1-.8.4-1.3 1.1-.8z"/><path d="M36.9 18.6c.9 1.5 1.5 2.6 3.1 4.3 2.1 2.7 3.8 4.2 5.7 7.5 2.2 4 7.6 14.3 10.6 17.8-.7.2-2.2-.7-2.5-.5-5.6-5.1-11.1-11.4-14-18.7 2.9 7.3 8.4 13.7 14.1 18.8 0 .8-.2 1.8-.9 2.4-5.5-5.3-12.1-9.1-15.3-16.9-1.8-5.1-2.7-8.6-2-14.1 0-.9.7-1.3 1.2-.6z"/><path d="M51.5 9.7c-2.8 4.7-3 10.6-1.8 15.2.9 3.4 3.1 6.3 4.9 9.2 1 1.7 2 3.4 2.9 5.2.3.7.7 3.2.3 3.7-.4.9-.7.8-1.5.9-.6.3-1.9-.3-2.4-.8-4.3-6.5-9.2-13.8-8.2-20.7-.9 6.8 3.9 14.2 8.2 20.7.6.5 1.9 1.1 2.4.8-.1.3-1.1 1.8-1.2 1.9-3.1-1.6-10.5-10.6-12.2-17.6-.8-2.9-1.4-13 8.6-18.5z"/><path d="M59.8 40.8c-2.3-1.5-4.7-3.5-6.2-5.3-1.3-1.6-4.8-7.6-.7-12.7-.2 3.3 1.5 7 3.6 9.5 1.5 1.9 3.7 3.2 5.6 4.7.3.2.6.4.8.6l-2.3 2.2h0c0 0-.8 1-.8 1z"/></g><path d="M53.5,31.5c1.8,3.6,5,5.7,7.8,7.7" class="W X"/><path d="M64.3 93.8c-2.8 9.4 5.8 13.6 11.1 7.7 1.7 9.3 12.6 7.5 13.2 1.2l-2.2-5.9c4.1-4.3 5.7-9.5 8.4-11.6l-1.7-3.8c-3.3 1.5-6.4 3.5-11 4-2.7-.2-5.7-2-7.6-5-7.5-11.9-4.6-22.1-3.2-27.8 3.1-13.5-13.8-16.3-12.3-25-.9 1.7-1.8 3.4-1.5 5.2-3.9 1.4-6.9 4.6-5.6 8.6-2.6-.3-5 0-7.3 1.9-3.2 2.8-1.8 8.6 2.7 12-1.4.2-2.8.8-4.2 1.9-3.6 3.2-.6 10.7 6.7 12.3-8.1 6.5-1.4 13.2 6.8 12.2-6.7 9.5.2 16 7.7 12.1z" class="W Y"/><g stroke-linecap="round" class="X b W"><path d="M75.4 101.5c1.7 9.3 12.6 7.5 13.2 1.2M56.7 47.2c-8.4-6.4-4.9-12.3.9-14.3-.3-1.8.6-3.5 1.5-5.2-1.5 8.7 15.4 11.5 12.3 25-1.3 5.7-4.2 15.9 3.2 27.8 5.2 8.4 11.9 4 18.4 1M64.9 42.2c6.5 6.9.4 15.6 1.1 24C67.8 85.4 79 94.5 92.8 86"/><path d="M62.4 39.9c-5.9 0-7.3 5-4.8 9.4 1.5 2.6 6.7 5.6 9.7 6.3m-9.7-6.3c-3.8 1-7.3 5.3-5 9.2 1.4 2.4 4.5 4.5 8.3 4.7"/><path d="M57.7 62.5c-3.2 2-5.3 5.3-4.2 8.2 1 2.7 4 3.5 5.5 3.8m2.3-3.2c-1.3 1.5-1.9 2.4-2.5 4.3-1.6 5 .7 10 4.7 8.4 1.6-.7 4.5-3.5 5.7-5.1"/><path d="M65.4 82.7c-1 3.3-.1 7.5 2.2 8.8 3 1.6 6.4-2.4 7-4.9"/><path d="M73 89.5c-.1 2.8.1 8.4 3.8 9.2 4 .8 5.8-3.5 5.6-5.3"/><path d="M82.3 94.4c.1.9 2.3 2.7 4.2 2.4M52 41.5c-2.6-.3-5 0-7.3 1.9-4.2 3.6-.6 12.4 7.4 14.2"/><path d="M47.4 55.4c-1.4.2-2.8.8-4.2 1.9-4.2 3.6.4 13 10.1 12.5m-3.4-.2c-8.7 7-.3 14.3 8.7 11.8m-1.9.4c-7.8 10.7 2.3 17.7 10.8 9.6m-3.2 2.4c-3.2 10.6 8.2 14.6 12.9 4.9M47.4 46c1.1 2.8 3.1 4.5 6.1 6m1.6-15.4c-.2 1.8 1.4 3.6 2.8 4.8m2.1 3.3c1.7 3.6 5.2 5.3 7.9 5.8m-12.4 4.3c2.2 2.6 5.8 5.1 11 4.8m-9.9 11.1c1.6-3.4 5.5-4.7 9.3-5.9m-4 15.8c.8-2.8 2.4-5.5 5.2-7.5m1.8 16.1c-1-2.2.3-5.6 2.1-7.1m6.2 6.1c1.4 2.5 2.4 6.5.7 8.4m-6.4-5.7c-1 2.5-1 7.4-.7 9.2m-8.5-15.9c-1.4 2.3-2.5 5-1.9 7m-2.5-16.9c-2 1.8-6.2 3.3-8.5 3.4m-4.5-17.3c3.8 3 6.9 3.3 12.9 2.1m23.4 34.4c.2 2.5 1.6 6.2 2.3 7.5"/></g><g class="Z"><g class="d b"><path d="M54 172.6c-1.4.4-3.4.2-4.7-.4-1.9-.8-3.6-4-5.5-4.8-1.4-.6-3-.3-3.5 1-.6 1.5 0 2.8 1.2 3.3.7.3 1.8-.2 2.7.2.6.3.8 1.2 1.4 1.7.5.3 1.2.7 1.8.7 2 .4 4.3-1 6.6-1.7h0z"/><path d="M45.7 177.1c-2.9.4-6 .6-7 1.9-.8 1-.5 2.6.1 3.9.5 1.1 2 2 3.3 1.3 1.6-1 2.1-4 3.9-4.6 1.9-.6 3.1.1 4.9.4 1.5.3 3.2-.1 4.9-1.5.8 0 2 .3 2.6 1.1s.7 2.4 1.9 2.9 3.1.3 3.7-1.2c.8-2 .5-4.5-1.2-5.2-1.1-.5-4.1-.2-5.6.1 4.4-2.1 11.5-3.7 16.7-6.1 1.2-.5 4.9.9 7-.3l9-6-9.1-5.2-5.8 4.5c-5.5 3.7-13.6 6.5-21.2 9.5-4 1.7-5.7 1.5-7.8 1.6-2.1-.8-4.8-2.9-6.3-2.1l-1.3 2.8c.4 1.4 1.8 3.3 4.5.9 0 0 .2-.2.4 0 .2.4 1.4 1.3 2.4 1.3h0 0z"/></g><path d="M40.2 165.8c-2.1-.8-4.7.9-3.2 3.6.3-1.5 2.2-1.8 3.3 0 .8 0 1.8-1.1 1.6-2-.3-.8-1-1.3-1.7-1.6h0zm25.8 12c-.6-.2-1.3-.3-2-.3-1.5.6-1.9 2.7-.6 3.8 2-1.1 3.9.7 3.1 2.4 2.3-1 2.7-2.8 2-4.1-.5-.8-1.4-1.4-2.5-1.8h0 0 0zm-27.7-6.3c-.2-.1-.3-.1-.5-.2-1.1-.3-2.1-.2-2.9.2-1.3.8-2 3.1-.2 4.4-.1-1.8 2.1-2.9 3.9-.9.9-.2 1.6-1.6 1.2-2.6-.5-.3-1-.7-1.5-.9zm1.1 8c-1.8-.1-3.5.8-4.2 2.2-.7 1.3-.2 3.5 1.9 4.1-.9-1.8 1-3.5 3-2.5 1.2-1.2.9-3.3-.7-3.8h0z" fill="#fc0" class="b"/><path d="M45.5 177.1c1 0 2.7-.6 4.4-1.3" class="X"/></g><g class="W"><path d="M114.7 74.3l-1.2-1.6c-.8-2.7-.2-4.5-2.5-7.1.6-.7 1.1-.3 1.7-.4-1.3-1.2-2.2-2.4-2.8-3.8 1.9 1.2 3.2.6 3.7-1.9-.6.8-1.4 1.1-2.4.9-1-.8-1.4-1.9-1.3-3.3.2-2 .1-3-.6-5 .8-.2.9-.2 1.7 0-.5-.7-2.5-1.8-3.2-2.5-.1-1.7-1-3.4-1.8-5 1.3-.1 1.4.8 2 .8-1.3-2.7-3.7-5-6.7-6.9 1.2-.5 1.8-1 2.1-1.9-.9.4-3.1 1.1-4.1 1-3.5.3-4 0-7.5-.5-3.3-.1-5.1.2-7.5 2.6l1.9 2 3.1 4.9c1.1.4 6.1 0 4.8 3.2l-1.3 1.9c5.4 0 1.9 9.8-2.7 7 1.2 2.6 2.6 3.5 4.3 2.7-.5.7-.7 1.6-.6 2.7-.8.8-1.3 1.6-1.4 2.5-.1.4-.6.5-1.5.4.9.9 1.8 1.1 2.7.7.5-.2.9-.5 1.2-.7-1.2 1.1-5.4 6.8-5 8.8.1 1 .1 1.9-.1 2.7-.1 1.5-.7 2.6-1.7 3.4 1.2.1 2.1-.1 2.8-.6.6-.5 1-1.3 1.2-2.3 0 1-.2 1.9-.7 2.9-.1.1-.1.2-.2.4-.4 1.1-2.1 2.5-1.6 3.9.4-.3.7-.6 1.1-.9.2-.3.5-.5.7-.8-.2.5-.3 1.1-.4 1.6-.2 1.7.2 3.5 1.1 5.2.2-.2.4-.4.6-.7.3-.4.4-1 .5-1.8-.1 1.3-.1 2.4.1 3.5-2.8 4.6-.5 7.2 1.1 13.4 1.5 5.8 4.5 14 5.5 24.8-5 1.7-4.3 5.9-7.2 11-3 2.3-5.5 7-7.5 9.4-1.7 2-3.2 4.1-5.3 5.8-1 .8-1.9 1.5-2.9 2.1-2.3.7-4.8 1.4-8.5-.5 1.5 2.1 3.6 3.9 6.2 3.9-.9.9-1.3 1.7-1.3 2.4 1.8 0 3.6-.7 5.4-1.8-1.7 1.2-2.5 2.6-3.6 3.8 2.3.4 4.4-.7 7.2-3-.5.9-2.2 4.9-2.1 5.9.7-.6 2.2-3.1 3.6-3.5-.8 1.8-1.2 4.7-.9 6.5 2.8-6.5 12.3-9.3 16.9-15.5-.1 1-.4 2.1-1 3.1 1.5-.9 2.6-2.2 3.5-4 2.6-.2 2.1-1 4-2.5-1.2 11.6-1.5 15.5-12 22.2-1.6-1.9-3.8-1.2-6.1-.6 1.7.1 3.3-.1 4.3 1.4l-4.6 2.6c-2.1-2.1-5.1-2.2-8.1-2.3 2.2 1 5.2 1.1 5.6 4-8.5 5.1-17.7 9.4-21.6 20.7-2.6 2.5-4.9-1.8-6.2-3.4 1.4 3.8 2.6 8 7.1 7.7 4.4 6.5 10.8 4.9 14.1-1.3 1.9-1.2 4.1-.5 6.1-.6-1.6-.7-3.2-1.2-5.3-1.1 1.9-1.4 3.2-3.3 4-5.4-2 1.2-3.4 1.9-5.4 4.1.2-1.5-1.1-2.9-1.7-4.3-.2 1.7.5 3.6.1 5.3-6.6 12.7-16.8-3.7.6-11.2l1 4.6c1.4-3.7 3-7 8.1-9.4-.4 3.1.5 5.6 2 7.7-.3-2.8-.9-6 .8-8.8l12.1-7.4c1 1.3.4 2.9-.2 4.4 1.8-1.4 3.3-3.2 3.3-5.8 1.8-1.5 2.7-1.6 3.7-3.1-.7 6.2-.4 8.9-4.7 10.7-1.6-.8-3.2-.5-4.8 0 1 .2 2.2.1 2.8 1.1-3.5 2.2-13.1 6.7-9.4 12.7 2.2 2 3.6 1 4.8.6-1.7 0-4.5-.8-3.6-3.7 1.2-2.8 4.1-4.4 6.8-5.5l7.4-1.9c-3.4 5.1-4.7 10-11 14-5.9 3.4-13.7 5.4-15.3 10.7-1.7 5.1 1.5 9.6 4.7 9.8 6.1-.5 4.7-3.3 6.7-5 1.4-1.3 3.7-1.8 5.5-2.9-2.2.2-4.3-.1-6.6 1.2.1-2.8-1-3.7-2.2-4.8.4 2 1.1 4 .3 6-.7 1.7-1.6 2.3-2.8 2-3.8-.4-3.2-5.2-3-5.5 2.2-4.9 6.9-4.4 10.4-6.9.4 2.1-.5 4-.9 5.9 2.1-2.1 3.9-4.8 4.7-7.4-.5 1.9-.1 3.6.6 5.3.4-2.6.8-6.2 3-6.5 2.4-.5 5.7-1.8 6.6-3.4l-.4 5.1c-.2 8.2-5.3 13-11.7 16.7-1.9 1-3 .4-4.2.1.3.9 1.9 2.1 3.3 1.6-.6 1.7-.7 3.5.6 4.8 1.7 2.3 6 .4 5.8-2.7-2.6 4.2-6 1.1-4.1-2.4 1.9-2 5-2 6.6-3.7 1.4 1.5.2 3.6.2 5.5 1.4-2.3 2.2-4.5 1.5-6.7 2.2-1.9 2.8-2.9 4-4.5.9 8.9-4.2 12.8-4 15.8.7-.8 3.3-3.4 5-3.4-3.6 7.5-3.3 10.9 3.2 16h0l.9-168h0z" class="Y"/><path d="M113.2 196.8c-.5 5.1-3.3 9-5.3 12.9m4.9-29.8c-.8 7.8-2.3 12-4.9 16.8m4.6-49.5c-.8 7.8-1.9 18-5.9 24.2" class="X"/><path d="M94.9 46.1c1.5.1 2.5.5 3 1.2.6.7 1 1.4 1.2 2.1.3 1 .3 1.9.1 2.7.2-.8.2-1.7-.1-2.7-.2-.7-.6-1.4-1.2-2.1-.5-.7-1.5-1.1-3-1.2zm5.9 47.2c-.9 1.1-1.2 2.3-.7 3.7-.5-1.4-.3-2.6.7-3.7zm.5-4.9c-.6.2-1.1.7-1.4 1.4.4-.7.8-1.2 1.4-1.4zm7 19c1.1.4 1.3 1.1.8 1.9.5-.8.3-1.5-.8-1.9-.3 1.1-.9 1.9-2 2.4.5-1 .6-2.1.4-3.2-.5.1-.9-.2-1.3-.9-1.4.1-2.3-.6-2.6-2.1-.3-.9-.1-1.8.4-2.5-.5.7-.7 1.6-.4 2.5.3 1.5 1.2 2.2 2.6 2.1-.3-.5-.5-1.2-.7-2.2.2 1 .4 1.7.7 2.2.3.7.8.9 1.3.9.2 1.1.1 2.2-.4 3.2 1.1-.5 1.8-1.3 2-2.4.1-.6.1-1.4 0-2.3.2.9.2 1.7 0 2.3zm-5.8 7.9c-.8 1.4-.8 2.5 0 3.3-.7-.8-.7-1.9 0-3.3zm2.4 4.6c-1.7 1.1-2.5 2.5-2.4 4.1.5-.5 1.1-.7 1.8-.6-1 1-1.4 1.9-1.3 2.9-.1-1 .3-1.9 1.3-2.9-.7-.1-1.3.1-1.8.6-.1-1.6.7-2.9 2.4-4.1zm7.1-4c.8 2.1.5 3.4-1 3.8 1.4-.4 1.7-1.7 1-3.8zm-2.7.3c1.3 2.5 1.1 3.8-.8 3.8 1.9 0 2.1-1.2.8-3.8zm-9.1 31.7c-.1 1.5-.7 2.7-1.8 3.7 1.1-1 1.7-2.2 1.8-3.7zm4.4-.2c.3.9-.3 1.8-1.6 2.9 1.3-1 1.9-2 1.6-2.9zm-.1-15.5c-.4-.4-.6-.8-.7-1.3-.1-.4-.2-.8-.1-1.3 0 .5 0 .9.1 1.3-.7 2.3-1.8 3.8-3.1 4.4 1.4-.6 2.4-2.1 3.1-4.4.1.5.3.9.7 1.3zm-.2 19.8c0 1-.2 1.9-1 2.6 1.3-.4 2.2-1.4 2.9-2.5 2.5-1 7.6-9.4.1-6.7" class="Y"/><path d="M113.4 139c-2.1-.7-1.1-6.3-2-7.6-.6-1.8 1.4-3 1.2-4.5" class="X"/><g class="Y"><path d="M109.4 132.4c-.3 2.2-.1 4 .7 5.5-.8-1.5-1-3.3-.7-5.5zM94.2 94.8c-.3 2.7-1.9 4.5-4.3 5.8 3.1.9 4.9.8 5.7-2.6-.5 1.2-.1 1.3-1.4 2.7-2.1 1.9-1.9 3.5-2.1 5.1.8-.4 1.5-1 2.6-1.2-1.2 1.7-2.2 3.5-1.4 7l2.2-2.5c-1.5 2.9-1.1 5.3 0 7.7.2-1.4 2.7-2.6 2.3-4.9m2.8 8.9c-.8.8-1.2 2-1.2 3.6-2.1-2.5-1.8-4.5-.2-6.4"/><path d="M97.7 113.4c-.2 1-1.4 3.2.8 5.2.1-.7-.2-.9 1.3-3.3"/></g><path d="M114.7 149.2v23m-4.9-24.2l3.6-6c1.1-1.8 2-.7 2.3 0m-1.2 83.9v8.1m0-36.9V214m0-35.5v8.1" class="X"/><g class="Y"><path d="M110.6 85.8c-.7-.6-1-1.3-1-2 0 .7.3 1.4 1 2 .1-.4.3-.8.7-1-.4.2-.6.6-.7 1zm-3.8 5.7c-1.7 1.1-2.5 2.5-2.4 4.1.5-.5 1.1-.7 1.8-.6-1 1-1.4 1.9-1.3 2.9-.1-1 .3-1.9 1.3-2.9-.7-.1-1.3.1-1.8.6-.1-1.6.7-3 2.4-4.1zm-4-42.1c.6.4.9.9 1.1 1.4.5-.8.6-1.6.1-2.5.4.9.4 1.7-.1 2.5-.2-.5-.5-1-1.1-1.4zm2.3 3c.8.7 1.3 1.4 1.5 2.3.6-1.1.7-2.2.4-3.3.3 1.1.2 2.2-.4 3.3-.2-.8-.7-1.6-1.5-2.3zm-2.2 4.5c.6-.6.8-1.2.8-1.9 0 .7-.2 1.3-.8 1.9-.1-.4-.3-.7-.6-.9.3.2.5.5.6.9z"/><path d="M106.6 75c1.1.5 1.8 1.1 2.1 1.9.6-1.4.4-2.8-.5-4 .9 1.3 1.1 2.6.5 4-.4-.8-1.1-1.4-2.1-1.9zm1.4 4a2.38 2.38 0 0 0-.9 1.5c-.4-.7-.5-1.4-.3-2-.2.7-.1 1.4.3 2a2.38 2.38 0 0 1 .9-1.5z" class="e"/></g><path d="M102.5 77c-.7.8-1 1.9-1 3.3-1.8-2.3-1.6-4.2-.3-5.8m1.9-6.9c-.2.9-1.2 3 .7 4.8.1-.7-.2-.8 1.1-3" class="X"/><g class="Y"><path d="M103.2 62.9c.9.3 1.2.8.9 1.7.4-.8.1-1.4-.9-1.7-.1 1-.6 1.9-1.5 2.4.3-1 .3-2 0-2.9-.4.1-.8-.1-1.2-.7-1.2.2-1.9-.3-2.4-1.6-.3-.8-.3-1.6.1-2.4-.4.7-.4 1.5-.1 2.4.4 1.3 1.2 1.9 2.4 1.6-.3-.4-.5-1.1-.8-1.9.2.9.5 1.5.8 1.9.4.6.7.8 1.2.7.3 1 .3 2 0 2.9 1-.5 1.4-1.3 1.5-2.4.1-.6 0-1.3-.2-2.1.2.8.3 1.5.2 2.1zm4 2.2c1.6.9 2.4 2 2.5 3.5-.5-.4-1-.5-1.6-.4.9.8 1.4 1.6 1.3 2.5 0-.9-.4-1.7-1.3-2.5.6-.2 1.1 0 1.6.4-.1-1.4-.9-2.6-2.5-3.5z" class="e"/><path d="M102.9 41.2c.9 1.9.7 3.1-.5 3.6 1.2-.6 1.4-1.8.5-3.6z"/><path d="M100.3 41.1c1.4 2.2 1.2 3.4-.3 3.5 1.6-.1 1.7-1.3.3-3.5zm-2.1 28.7c-1.4 1.2-1.9 2.5-1.7 4 .4-.5.9-.7 1.5-.7-.8 1-1 1.9-.8 2.8-.2-1 .1-1.9.8-2.9-.6 0-1.1.2-1.5.7-.2-1.4.3-2.7 1.7-3.9z" class="e"/></g><path d="M106.7 57.1c.4.9 1.7 2.7.3 4.9-.2-.6 0-.9-1.7-2.7m-6.7 4.8c-.2.7-.9 2.4.6 3.8.1-.5-.1-.7.9-2.4M98.8 53c-.2.7-.9 2.4.6 3.8.1-.5-.1-.7.9-2.4m5.4-10.4c.3.6 1.3 2 .2 3.6-.2-.5 0-.6-1.3-2" class="X"/></g><g class="Y"><path d="M84.8 39.6c-3.3.3-8.7 3.6-4.2 6.5 0-.6.1-1 .3-1.3.3-.5.7-.7 1.4-.8 1.2-.3 2.5.5 3.9 1.6 1.4 1.2 4 1.1 5.9 1.6 1-2-5.4-4.6-7.3-7.6h0 0z" class="Z d"/><path d="M88.9 40.6c1.3-.3 3.6.8 5.3.2-.5.9-.9 2.3-3.7 2-1.4-.1-2.3-1.1-1.6-2.2z" fill="#e6e6e6" class="W"/></g><path d="M89.1 40.6c-.5 0-1 .1-1.2.2" class="W X"/></g><g class="Y"><path d="M90.2 40.8c-.5 0-.9.4-.9.9s.4.9.9.9.9-.4.9-.9-.4-.9-.9-.9z"/><path d="M89.9 41.2a.47.47 0 0 0-.5.44v.06c0 .28.22.5.5.5s.5-.22.5-.5c-.1-.3-.3-.5-.5-.5z" fill="#e3e4e5"/></g><path d="M92.6 49.3c-1.9.1-3.2 1.4-4.7 2.1-1.3.6-2.9.7-4.1.6.2.8.6 1.5 1.3 1.9.9.3 1.8.1 2.6-.2l2.2-.8 2.5-.8 1.7-2.4c.1-.4-.1-.3-.4-.4-.5-.1-.9 0-1.1 0z" class="Z a d"/><path d="M113.3.6l-.1 266.5c.1.1-.1-.1 0 0 41.5-19 73.9-38.6 93.3-65.4 16.1-22.3 18.8-50.8 19.3-87.3V.6H113.3z" fill="#2c5aa0"/><path d="M191.5 121.4l6.6-5.8L134.3 32l-9.8-6.2 3.4 10.7 63.6 84.9z" class="Z a c"/><path d="M194.1 117.7l-67.7-89.4 68 89.1-.3.3h0z"/><g class="Z c"><path d="M193.8 117.5l6.5-4.2c.6 1.1-.3 1.6-.7 2.9-1.1 3.6 7.7 16.1 12.5 24.4 1 2.1 1.9 2.2-.4 4.1-2 2-5 1.6-6.5-.9-5.3-7.4-10.4-19.9-13.9-19.3-1.1.2-1.6 1.1-2.3.1l4.8-7.1h0z" stroke-width=".5"/><g class="a"><path d="M181 123.9c1.8-1.8 4.3-1.6 5.6.5.1.2.2.4.3.7l5.3-5.2.6-4.2 3.3.3 8.6-8.5c1.8-1.8 4.3-1.6 5.6.6 1.3 2.1.8 5.3-1.1 7.2-1.8 1.8-4.3 1.6-5.6-.5-.1-.2-.2-.4-.3-.7l-5.2 5.2-.6 4.3-3.3-.3-8.5 8.5c-1.8 1.8-4.4 1.6-5.6-.5-1.5-2.4-1-5.6.9-7.4h0z"/><path d="M207.2 107.2c.9 0 1.8.4 2.4 1.4 1 1.7.6 4.3-.9 5.8s-3.5 1.3-4.5-.4c-.1-.1-.2-.3-.2-.5-.2-.5-.6-.6-1-.4l-.1.1-5.2 5.2c-.2.2-.3.4-.3.6l-.5 3.4-2.7-.3c-.2 0-.4.1-.5.2l-8.5 8.5c-1.5 1.5-3.6 1.3-4.5-.4-1-1.7-.6-4.2.9-5.8 1.5-1.5 3.5-1.3 4.5.4.1.1.2.3.2.5.2.5.6.6 1 .4l.1-.1 5.3-5.2c.2-.2.3-.4.3-.6l.5-3.3 2.6.3c.2 0 .4-.1.5-.2l8.5-8.5h0c.4-.4.8-.6 1.2-.8.3-.2.6-.3.9-.3h0z"/></g></g><path d="M202 115.5l4-.1c1 .1 1.66.72 1.76.82 1.1 1.3 1.13 3.37 1.13 3.37l2.41 1.01s1.39 1.96.3 3.8l-.1 1.5.9.4s1.07 2.28-.98 5.26c.3.21.63.35.98.44.39.28.5 1.2.5 1.2v.5c0 .4-.2 1-.4 1.6-.1.2-.2.3-.3.5h0c-.1.2-.2.3-.3.5h0c-.2.3-.4.6-.6.8h0c-.3.4-.9.8-1.2 1.1h0c-.1.1-.8.5-.8.5-.31.87-2.16 1.64-2.83 1.05-1.05-.93-.67-2.1-.67-2.25 0-.4.5-1.9.5-1.9l-1.1.4c-.7.1-2.04 0-2.34-.5-.1-.1-.24-.37-.24-.57-.1-.2.08-.53.18-.83l.1-.4c.1-.3-.1-.4.1-.8v-.6l-.7-.7c-.1-.2-.2-.4-.2-.7 0-.4-.05-.66.15-1.26.1 0-.65-.74-.65-.74l-.3-1c0-.1-.1-1.1-.1-1.2l1.3-3.1-.55.1c-.6.2-1.74.48-2.24.48-.4 0-.82 2.21-1.02 2.71l-.86 2 1.29 3.53-.18 1.44c.5 1.2 4.66 7.93 4.58 8.08-1.7 3.14-3.58 4.31-6.53 5.55-.5.2-4.6 2.6-4.8 2.9-2 1.1-3.3 2.3-5.1-1.3-1.9-2.3-2.6-9.4.7-14.5 0 0 1.1-.4 1.4-1.4 0-3.8 2.8-7.3 3.8-9.8 0-.1.15-.8.95-1.7.3-.3 1.56-.79 1.56-.79 1.1-1.2 2.09-2.51 2.19-2.51l1.08-.02.51.05 2.72-2.92h0 0z" fill="#ec8e78"/><path d="M207.4 115.9l1.14 1.44s.54 1.39.26 2.69c-.17.78-2.15 4.89-2.15 4.89l-.89 2.11c-.31.55-1.47 2.07-1.47 2.07l-.58.45-.46-.12-.86.12-.39 1.15c.14.64.54.42 1.01.24.19-.07.49-.51.69-.51.48-.06.83.19 1.08.1.59-.21.6-.42 1.02-.63 1.1-.8 1.9-1.7 2.4-2.8 2-2 2.9-4.3 2.7-6.1l-.09-.56s.95.72 1.12 1.6c.22 1.11-.23 2.26-.23 2.26l-.9 2.4-2 2.7-3.05 1.83-.35.47-1.2.51-1.14.08-.36 1.6s.3-.4 1.45-.44c.39-.01 1.54.76 1.54.76 1.2-.2 1.41-1.02 2.21-1.62 3.2-1.5 4-4.1 4.7-5.6 0 0 .54 1.84-.98 4.19-.32.49-1.47 1.84-1.47 1.84l-2.29 2.04-1.46.94s-.44.49-.5.7c-.43 1.47-.15 2.03-.15 2.03l.45-.53c.84-.89 1.82-.69 1.82-.69 2.7-.7 4.18-3.03 4.68-5.03 0 0 .19.92 0 2.2-.26 1.72-2.2 3.35-2.2 3.35l1.1 1.72c-1.45 0-2.74 1.21-3.9 1.65-1.2.3-1.9-.2-2.5-1.2-.8-1.1-.4-1.9-.4-2.9-.8-.3-3.2.8-2.6-3-.4-1-.8-1.1-.6-2.8l-.8-1.3c-.61.44-1.38.65-2.16.62-.11 0 .66 2.63.66 2.63l-.18 3.47c-.05 1.43-1.17 3.13-1.19 3.11-.65-.55-.87-.65-1.83-.74.5-1 0-1.8-.2-2.6 2-2.1 1-4.9.9-7.4v-.6l1.3-2.8.6-2.1c.8.1 1.5-.1 2.2-.3 2-.9 3.1-2.1 4.4-3.3l1.02-.88-.42 1.58c-.31 1.26-1.9 1.86-3.4 2.76l-.92 1.44-.51 2 .13 1.01c.6.6 1.2.09 1.5.09 0 0-.05-.11.52-1.11.14-.25.57-.72.57-.72.3-.6.61-.86 1.11-1.36 1.6-3.5 3.3-6.9 2.5-9.1h0 0zm-3.97 25.59l-.43 1.11-1 1.9-2.4 2-2.5 1.1-1.1.2-2.41 2.02-3.81 1.82-1.15-2.47-.61-2.25.88-.11c2.8-.3 6.4-2 6.8-3.7 1 .1 1.9 1.4 3.3-.7 1.42-2.09 1.5-4.36 1.16-6.72-.02-.14 3.27 5.8 3.27 5.8h0z" fill-opacity=".294"/><path d="M202.1 115.4c.5-.2 1.3-.3 2.5-.3 1.2-.1 2.2.1 3.1.9 1 .8 1.3 2.1 1.3 3.5 1.2.2 2.5.8 2.9 1.9.6 1.4.1 2.6-.3 4 1.8 1.1 1.5 3.9.2 6 .8.3 1.3 1.1 1.2 2.1 0 1.8-1 3.2-1.9 4.2-.5.5-1.1.9-1.8 1.4-1.2 1.5-3.6 1.1-3.6-.2-.5-.7-.1-2 .3-2.9-.1.1-.2 0-.4 0-1 .5-2.4.2-3-.5-.3-.4-.3-1 0-1.6-.1-.4.05-1.21.25-1.51-.1 0-.25-.09-.25-.09-.9-.5-1-1.6-.6-2.7-.2-.1-.5-.3-.6-.4-1-1.4-.4-3.9.7-5.4-.7.3-1.9.6-2.5.6-.1.4-.1.7-.4 1.2-.2.5-.2 1.3-.4 1.7-.1.6-.5 1.2-.8 1.7.5.9 1 2 1.3 3 .2.7.1 1.6.1 2.3l2.3 3.8c.4.8.8 1.4 1.2 2.1.4.6.2.6.3.7.2.3.7.6.6 1-1.2 3.3-4.1 5.7-7.6 6.4-1.4 1.2-3.41 2.12-4.4 2.65l-.46-.41c1.6-.62 3.06-1.73 4.66-2.83 3.2-1.2 5.6-1.8 7.3-6.2l-3.7-6.7c0 2.1-.7 4-1.8 5.5 1-1.8 1.4-4.4 1.3-6.3-.1-.5-.1-1-.3-1.6-.2-1-.6-1.9-1-2.7-.1-.2-.3-.3-.4-.4-.4-.1-.8-.4-1.1-.7.4.2.9.2 1.3.1.4-.3.6-1 .8-1.5.1-.5.3-.9.5-1.5 1.2-2.7-.6-.7-.3-2.4.3.4.7.7 1.3.7.8 0 1.8-.3 2.7-.7.4-.2.85-.31 1.25-.61.6-.3 1.15-.73 1.55-1.23.1-.1.24-.41.34-.51.2-.4.24-.8.34-1.2-1 1-2.27.95-3.37.45-.1-.1-.1-.3-.2-.4-.2-.4-.2-.8-.2-1.3l-1.3.3h-.5c-.8 0-1.9-.4-2.6-.2-.1 0-.68.5-.88.8-.5.7-.94 1.08-1.34 1.68-.8.1-1.48.52-1.98 1.22l-.7 1.1c-.1.2-.1.5-.1.7-1 2.5-3.4 5.7-3.6 9.5 0 .5-.3.7-.6.9l-.87.53-.19-.51.86-.51c.2-.1.37-.4.4-.6.2-4.1 2.7-7.3 3.6-9.5.3-.7.6-1.3.9-1.8.6-.8 1.3-1.1 2.1-1.3.2-.3.5-.6.7-.8l.6-.9c.3-.3.6-.6.9-.7.7-.3 2-.1 3 .1.4 0 .8-.1 1.1-.2.4-.1.6-.1 1-.2.8-.4 1.7-.8 2.5-.6s1.5 1 1.3 1.7v.4c0 .3-.21.8-.31 1.1-.4 1.1-1.3 1.8-2.1 2.3-.4.2-1.05.42-1.45.72-.7.8-.99 1.68-1.29 2.38-.6 1.7.35 3.8 1.65 3.2-.3-.3-.4-.7-.5-1.1.58-2.04 2.48-3.13 3.05-1.37.01.02.41-.8.61-1.3.6-2.1 1.94-3.63 2.34-5.63.3-1.4 0-2.5-.9-3.3-.8-.8-2.04-1.03-3.04-.93-.8 0-2.66.05-3.36.45l.79-.74h0 0 0zm.78 2.99c-.1.6-.14 1.09.06 1.39 1 .6 2.24.31 3.24-.69 0-1.18-1.2-1.3-1.2-1.3-.3 0-1.29.22-2.1.6zm6.02 1.81c-.7 2-1.7 3.5-2.4 5.4-.2.6-.9 1.9-.9 1.9-.4.8-1.5 2.3-2.1 2.2-.1 0-.2-.1-.2-.2-.3.1-.5.1-.7.1-.4 1-.6 1.9.2 2.4 0-.4 0-.9.2-1.2.6-.9 2-.6 2.8.2 1.6-1 3.3-1.9 4.4-3.7.7-1 1.2-2.3 1.5-3.5.2-.8.2-1.5-.1-2.2-.7-1.2-1.8-1.4-2.7-1.4zm-6.04 8.02c.2.6.34.98.74 1.18.7-.3 1.4-1.2 1.7-2.2-.2-.7-.34-.98-.74-.98-.1-.1-1.47.87-1.7 2zm8.44-2.32h0l-.7 1.4c-1.1 2.1-3 3.3-4.9 4.2-.4.6-1.9 1-2.4.9-.4.5-.4.9-.3 1.1 1.6-.7 3.4.3 2.9 2 3.9-.7 8.8-8 5.4-9.6h0zm-7.65 4.72c-.2.1-.35.28-.45.48s-.2.6-.1 1c.8 0 1.74-.1 2.48-.89-.5-.4-1.19-.87-1.93-.59zm7.81 1.15c-.9 1.2-2.59 2.88-3.69 3.48-.6.3-.98.45-1.28 1.05-.5.7-.7 1.5-.6 2.3.4-1.1 1.6-1.3 2.3-1.3s1.2.3 1.3 1.2c1.7-1.2 3.1-2.5 3.2-4.8.01-1.3-.53-1.93-1.23-1.93zm-7.86 2.03c-.2 0-.3.1-.5.1-.2.4-.4.8-.3 1.1.2 1 2.1 1.2 2.9.7.3-1.6-.9-2.1-2.1-1.9h0 0zm4 3.8c-.2 0-.4.1-.6.2-.6.2-1.09.88-.89 1.28.89 1.42 2.89.32 3.09-.48-.1-.6-.4-1-.8-1h-.8 0z"/><g stroke-width=".5" class="Z c"><path d="M217.5 142.7c-2-3.2-6.1-3.9-9-1.6s-3.7 6.7-1.7 9.9 6.1 3.9 9 1.6c3-2.3 3.8-6.7 1.7-9.9h0z"/><path d="M214.5 145c-.9-1.4-2.6-1.7-3.8-.7s-1.6 2.8-.7 4.2 2.6 1.7 3.8.7c1.2-.9 1.5-2.8.7-4.2z"/></g><path d="M113.23 123.94c3.24 8.52 5 10.11 7.26 13.42.97 1.42 6.06 8.39 7.19 9.91 2.23 2.91 2.01 5.21 6.02 11.85 10.85 17.97 18.36 14.64 18.36 14.64s6.22-.71 16.81-7.87c6.28-4.24 12.14-8.74 14.73-10.26.74-.42 7.38-1.62 7.38-1.62-5.38-8.48-3.89-16.09-3.24-18.78.19-.74-.23-.74-.23-.74l-11.66 6.64-3.95 1.72-11.62 1.81c-1.3.49-2.82.65-3.66 1.13-1.36.78-1.68 1.75-1.68 1.75-.84-1.26-1.3-4.14-1.75-5.47-.84-2.59-1.13-2.98-1.88-4.95-.19-.49-2.14-3.37-2.36-4.02-.16-.49-3.4-8.61-3.4-8.61-.13-7.48-4.5-11.2-4.5-11.2s-4.27-13.05-11.66-23.73c-8.91-12.86-16.15-7.27-16.15-7.27l-.01 41.65h0z" class="c"/><path d="M144.68 146.71c-11.82-4.44-18.13-17.39-18.13-17.39 8.13 22.83 18.13 17.36 18.13 17.39zm44.85 4.47c-1-2.43-7.87-.65-7.87-.65-3.24 1.39-5.47 3.5-10.43 7.61-1.78 2-4.13 3.65-6.71 4.9-5.19 1.72-7.64-1.92-7.02-2.41 2.27-1.88-.58-7.8-1.33-12.37 0 0-1.23 2.53-1.88 5.76-.1.42.03 2.36 0 2.82-.45 6.26-3.26 8.44-6.03 7.81-.85-.36-1.63-.8-2.29-1.36-11.33-9.62-18.36-22.76-23.28-34.78-1.55-3.82-3.5.06-5.12-6.25l.02-1.71c.05-.26.06-.5-.01-.74-.07-4.92-.78-11.36-3.48-16.17l-.86-1.4-.03 21.43c2.1 11.07 6.52 12.99 11.18 20.22.94 1.46 1.62 1.52 1.75 1.75.16.26 1.75 4.14 1.91 4.44 2.04 3.17 2.23 4.4 5.63 9.03 3.21 4.4 5.54 8.35 8.26 10.69 0 0 1.75 4.63 3.63 5.25 3.46 1.1 10.3-.1 23.73-7.74L191.02 154s-1.33-2.4-1.49-2.82h0zm-45.17 4.99s1.75-1.42 2.98-1.94c2.6-1.1 4.13-1.98 5.33-3.07-1.84 2.56-3.78 5.61-3.64 6.89.26 2.4 2.88-.97 2.88-.97-1.49-.23 3.85-9.97 3.85-9.97-1.65-1.04-8-1.81-8-1.81 3.42 2.92 5.66 2.92 6.88 2.5-2.86 1.77-10.2 6.52-10.28 8.37h0z" fill="#c4c8c9"/><path d="M155.21 158.27c-.39 4.66-2.53 9.13-5.83 12.4-.26.29-.65.55-1 .55-.06.03-.13 0-.16 0-.06-.03-.13-.06-.16-.1-.1 0-.16-.03-.23.06 0 .03-.03.16.13.36.1.1.23.16.39.19.71.13 1.36-.42 1.81-.94 3.24-3.3 5.31-7.84 5.7-12.47.13-1.52.06-3.11-.1-4.63-.1-1.23.06-1.78.1-2.07.03-.29-.03-.32-.1-.36-.06-.03-.16-.06-.32.23s-.42 1-.29 2.27l.06 1.1c.09 1.11.09 2.31 0 3.41h0 0 0zm-13.12-12.53c1.17.62 2.46 1.3 2.59.94.03-.1.06-.16-.23-.36-6.44-3.17-12.63-8.42-16.32-14.77-.71-1.13-1.13-2.33-1.59-2.23-.06.03-.13.06-.03.39 3.12 6.64 9.11 12.5 15.58 16.03zm24.55 16.9c1.78-1.78 10.17-8.97 13.53-10.98 1.88-1 1.81-1.1 1.75-1.26-3.08-.13-14.21 10.46-14.34 10.52-.78.71-1.52 1.46-1.26 1.78.06.07.12.11.32-.06h0zm-53.39-80.15c.38-.23 1.04-.64 1.45-.76 12.56-3.69 21.63 21.14 25.55 30.08-3.14-3.82-5.34-9.16-9.65-11.82-.45-.26-.52-.19-.55-.13-.06.06-.1.16.29.49.29.26.58.49.94.81 2.4 2.01 4.37 5.15 6.15 7.84 1.85 3.17 4.92 5.54 6.51 8.84.55 1.3.74 2.69 1 4.11.55 3.24 1.62 6.64 3.08 9.58-2.36-3.04-5.31-5.63-8.32-8.06-1.42-.97-4.27-3.63-4.82-4.53-.29-.36-.36-.32-.42-.29s-.13.06.06.52c1.07 2.3 5.34 5.02 7.45 6.96 6.54 5.47 10.3 11.95 12.01 20.11-.65-.16-6.28-1.72-6.25-.94 0 .16-.03.29.84.42 2.14.29 4.27.78 6.31 1.46l-.26.26c-1.13.71-2.4 1.49-3.46 2.23-2.59 1.85-5.8 3.98-6.8 6.28-.03.23 0 .26.03.26s.06 0 .19-.16c1.88-2.66 6.12-5.34 9.26-7.42-1.98 2.36-3.4 5.15-4.6 7.97-.36.71-.78 1.55-.42 2.36.42.81 1.3.32 1.72-.19.36-.39 1-.97 1.17-1.2.32-.39.29-.45.23-.52-.23-.19-1.04.62-1.46.97-.32.16-.65.78-1.04.74-.23-.13-.1-.81-.06-1.04.87-1.94 1.72-3.98 2.85-5.8 1.13-1.88 2.62-3.56 4.02-5.25h-.03 0l.03.03c.62-.52 1.36-.97 2.17-1.13 4.5-1.07 9.2-1.85 13.79-2.36.03 0 .1-.03.1-.06 2.88-.39 2.85-.52 2.85-.65 0-.1 0-.19-1.07-.13 4.66-1.91 8.97-4.79 13.34-7.32l.03-.03h.03c-1.91 6.38-.13 13.34 3.14 18.97-8.55 5.6-17.26 10.94-26.29 15.74-5.54 2.69-11.69 6.28-18.04 5.41-2.98-1.36-3.79-5.34-5.02-7.9-.39-.81-.65-1.2-.81-1.36s-.19-.16-.23-.13c-.03.03-.06.06 0 .26.29.62.94 2.27 1.3 3.3-.84-.74-1.85-2.33-2.56-3.43-3.14-4.18-8.1-11.72-10.98-16.77-.65-1.39-1.52-3.37-1.98-4.82-.58-1.62-.87-3.59-1.26-3.53-.39.23.29 2.53.81 4.05-1.94-2.53-3.63-5.28-5.05-8.13-1.62-3.5-2.14-7.38-2.46-11.2-.19-2.85-.1-9.65-.52-11.37-.16-.81-.23-.78-.32-.78-.1 0-.16.03-.13.81.29 6.99-.32 17.78 3.69 24.48-3.43-3.43-4.7-5.63-5.83-10.36-.25-.98-.41-1.57-.54-1.91-.19-.52-1.22-3.82-1.22-3.82-.03-.17-.03 1.81-.03 1.81.19 1.02.93 3.13 1.17 4.09.74 3.08 1.88 6.15 4.05 8.52 2.17 2.27 4.14 4.57 5.8 7.25.87 1.23 1.07 1.59 1.65 1.91.1.1.23.26.26.32 2.33 5.8 5.89 11.01 9.62 16l3.95 5.6c.62.91 1.39 1.75 2.23 2.27.81 2.07 1.91 4.44 4.18 5.38 6.57.97 12.85-2.59 18.55-5.41 9.2-4.86 18.07-10.33 26.75-16.06.94-.55.74-2.01.71-2.91h0 0c0-.32-.06-.65-.16-.97-.62.16-1.49.65-2.07.91-1.2-2.46-2.07-5.15-2.43-7.87-.32-2.56-.26-5.21.45-7.71.03-.16.13-.45.16-.58.19-.52-.45-.81-.84-.65-.06 0-.1 0-.13.03l-.06.03-.03.03c-3.63 2.07-7.19 4.4-10.91 6.25l-4.14 1.81c-4.89.68-9.84 1.3-14.6 2.66-.16.03-.29.16-.42.23-.23.16-.49.26-.74.45-.06.1-.19.16-.29.26-.06.06-.1.1-.13.16l-.32.32c-.29-.13-.68-.23-1-.32-.29-4.08-2.72-9.78-5.28-13.31-.06-.68-.65-1.68-.97-2.56-1.17-2.72-2.07-5.63-2.56-8.58-.52-3.95-1.68-6.02-4.4-8.94-3.27-8.74-13.96-36.56-26.65-31.6-.33.16-.91.46-1.29.7l-.02.44h0z"/><path d="M191.54 152.19c0 .39-.03.78-.16 1.1-.1.23-.16.32-.23.39-.03-.13-.1-.32-.26-.62l-.68-1.33 1.26-.62.03.19.03.29.01.6h0z" fill="#c4c8c9"/><path d="M156.28 149.43c-.39-1.36-.26-1.39-.1-1.42.16-.06.32-.1.68 1.26l1.23 5.08.55 2.56a8.52 8.52 0 0 1 .19 1.33 3.47 3.47 0 0 1-.19 1.39c-.1.29-.26.56-.49.78-.16.16-.29.23-.39.29-.19.06-.23 0-.29-.06-.03-.06-.06-.13.03-.26s.32-.32.55-.91c.26-.71.16-1.55-.03-2.4l-.55-2.53-1.19-5.11h0 0 0z"/><path d="M.6.6v113.7c.5 36.5 3.3 65 19.3 87.3 19.4 26.8 51.8 46.4 93.3 65.4 41.5-19 73.9-38.6 93.3-65.4 16.1-22.3 18.8-50.8 19.3-87.3V.6H.6z" stroke="#540" stroke-width="1.155" stroke-miterlimit="3.2" class="X"/></svg>