<svg xmlns="http://www.w3.org/2000/svg" width="239.84749" height="307.90109">
  <path style="display:inline;fill:#006aa7;fill-opacity:1;fill-rule:evenodd;stroke:#644900;stroke-width:.99999994;stroke-linecap:butt;stroke-linejoin:miter;stroke-miterlimit:4;stroke-dasharray:none;stroke-opacity:1" d="M-237.94952 389.8078v248.12038c.80749 34.75836 12.53412 40.11317 40.63932 41.23996 26.66403 1.06905 61.2228-.87975 78.78441 17.32069 17.56166-18.20044 52.120463-16.25164 78.784484-17.32069 28.105169-1.12679 39.83175704-6.4816 40.63928011-41.23996V389.8078z" transform="translate(238.44952 -389.3078)"/>
  <path d="m-92.576762 500.24826.58501-16.96539c-1.25087 5.71528-10.132188 5.06842-10.237668 0-1.94574 7.38049-10.80876 3.8801-10.18146 0 .62729 3.8801-8.23573 7.38049-10.18147 0-.10548 5.06842-8.98679 5.71528-10.23766 0l.58501 16.96539h19.83412z" style="fill:#ffd21f;fill-opacity:1;fill-rule:evenodd;stroke:#a27600;stroke-width:.69999999;stroke-linecap:butt;stroke-linejoin:miter;stroke-miterlimit:4;stroke-dasharray:none;stroke-opacity:1" transform="matrix(1.87489 0 0 1.87489 330.681771 -712.99415)"/>
  <g style="stroke-width:1.74179101;stroke-miterlimit:4;stroke-dasharray:none">
    <path style="color:#000;font-style:normal;font-variant:normal;font-weight:400;font-stretch:normal;font-size:medium;line-height:normal;font-family:sans-serif;text-indent:0;text-align:start;text-decoration:none;text-decoration-line:none;text-decoration-style:solid;text-decoration-color:#000;letter-spacing:normal;word-spacing:normal;text-transform:none;direction:ltr;block-progression:tb;writing-mode:lr-tb;baseline-shift:baseline;text-anchor:start;white-space:normal;clip-rule:nonzero;display:inline;overflow:visible;visibility:visible;opacity:1;isolation:auto;mix-blend-mode:normal;color-interpolation:sRGB;color-interpolation-filters:linearRGB;solid-color:#000;solid-opacity:1;fill:#ffd21f;fill-opacity:1;fill-rule:evenodd;stroke:#a27600;stroke-width:1.74179101;stroke-linecap:butt;stroke-linejoin:miter;stroke-miterlimit:4;stroke-dasharray:none;stroke-dashoffset:0;stroke-opacity:1;color-rendering:auto;image-rendering:auto;shape-rendering:auto;text-rendering:auto;enable-background:accumulate" d="M-95.008252 480.68815c3.59558.23864 4.37156-5.01129 0-5.22772H-209.47318c-4.37155.21643-3.59557 5.46626 0 5.22772h60.06994z" transform="matrix(.66076 0 0 .85924 220.4551373 -186.20948461)"/>
    <path style="color:#000;font-style:normal;font-variant:normal;font-weight:400;font-stretch:normal;font-size:medium;line-height:normal;font-family:sans-serif;text-indent:0;text-align:start;text-decoration:none;text-decoration-line:none;text-decoration-style:solid;text-decoration-color:#000;letter-spacing:normal;word-spacing:normal;text-transform:none;direction:ltr;block-progression:tb;writing-mode:lr-tb;baseline-shift:baseline;text-anchor:start;white-space:normal;clip-rule:nonzero;display:inline;overflow:visible;visibility:visible;opacity:1;isolation:auto;mix-blend-mode:normal;color-interpolation:sRGB;color-interpolation-filters:linearRGB;solid-color:#000;solid-opacity:1;fill:#ffe88b;fill-opacity:1;fill-rule:evenodd;stroke:none;stroke-width:1.74179101;stroke-linecap:butt;stroke-linejoin:miter;stroke-miterlimit:4;stroke-dasharray:none;stroke-dashoffset:0;stroke-opacity:1;color-rendering:auto;image-rendering:auto;shape-rendering:auto;text-rendering:auto;enable-background:accumulate" d="M-93.359312 477.87323c.0235-.3156-.0627-.59423-.28079-.82705-.21799-.2329-.61161-.47489-1.43456-.51564H-209.40686h.00005c-.82295.0408-1.2166.28285-1.43457.51564-.21799.23289-.30417.51145-.28078.82705z" transform="matrix(.66076 0 0 .85924 220.4551373 -186.20948461)"/>
  </g>
  <g style="stroke-width:1.74179101;stroke-miterlimit:4;stroke-dasharray:none">
    <path d="M-95.008252 480.68815c3.59558.23864 4.37156-5.01129 0-5.22772H-209.47318c-4.37155.21643-3.59557 5.46626 0 5.22772h60.06994z" style="color:#000;font-style:normal;font-variant:normal;font-weight:400;font-stretch:normal;font-size:medium;line-height:normal;font-family:sans-serif;text-indent:0;text-align:start;text-decoration:none;text-decoration-line:none;text-decoration-style:solid;text-decoration-color:#000;letter-spacing:normal;word-spacing:normal;text-transform:none;direction:ltr;block-progression:tb;writing-mode:lr-tb;baseline-shift:baseline;text-anchor:start;white-space:normal;clip-rule:nonzero;display:inline;overflow:visible;visibility:visible;opacity:1;isolation:auto;mix-blend-mode:normal;color-interpolation:sRGB;color-interpolation-filters:linearRGB;solid-color:#000;solid-opacity:1;fill:#ffd21f;fill-opacity:1;fill-rule:evenodd;stroke:#a27600;stroke-width:1.74179101;stroke-linecap:butt;stroke-linejoin:miter;stroke-miterlimit:4;stroke-dasharray:none;stroke-dashoffset:0;stroke-opacity:1;color-rendering:auto;image-rendering:auto;shape-rendering:auto;text-rendering:auto;enable-background:accumulate" transform="matrix(.66076 0 0 .85924 220.5811224 -206.30474205)"/>
    <path d="M-93.359312 477.87323c.0235-.3156-.0627-.59423-.28079-.82705-.21799-.2329-.61161-.47489-1.43456-.51564H-209.40686h.00005c-.82295.0408-1.2166.28285-1.43457.51564-.21799.23289-.30417.51145-.28078.82705z" style="color:#000;font-style:normal;font-variant:normal;font-weight:400;font-stretch:normal;font-size:medium;line-height:normal;font-family:sans-serif;text-indent:0;text-align:start;text-decoration:none;text-decoration-line:none;text-decoration-style:solid;text-decoration-color:#000;letter-spacing:normal;word-spacing:normal;text-transform:none;direction:ltr;block-progression:tb;writing-mode:lr-tb;baseline-shift:baseline;text-anchor:start;white-space:normal;clip-rule:nonzero;display:inline;overflow:visible;visibility:visible;opacity:1;isolation:auto;mix-blend-mode:normal;color-interpolation:sRGB;color-interpolation-filters:linearRGB;solid-color:#000;solid-opacity:1;fill:#ffe88b;fill-opacity:1;fill-rule:evenodd;stroke:none;stroke-width:1.74179101;stroke-linecap:butt;stroke-linejoin:miter;stroke-miterlimit:4;stroke-dasharray:none;stroke-dashoffset:0;stroke-opacity:1;color-rendering:auto;image-rendering:auto;shape-rendering:auto;text-rendering:auto;enable-background:accumulate" transform="matrix(.66076 0 0 .85924 220.5811224 -206.30474205)"/>
  </g>
  <path transform="matrix(1.87489 0 0 1.87489 376.62588238 -1093.92948016)" d="M-138.15813 690.47465c-1.0956.70606-2.43676.94336-3.82227.94336-1.3855 0-2.72473-.2373-3.82031-.94336-.49856-.32129-.92905-.758-1.26953-1.28711-.34058.52953-.77264.96563-1.27149 1.28711-1.09558.70606-2.4348.94336-3.82031.94336s-2.72667-.2373-3.82227-.94336c-1.09559-.70605-1.8857-1.94268-2.0332-3.58399l-.004-.0391v-3.38867c-.11138-.43159-.13017-.89243-.4375-1.48437-.32172-.61967-.76586-1.76444-1.09375-2.38086-1.0184-1.91451-.76342-5.3112-1.35157-7.39844-.2524-.89572-1.08789-2.05664-1.08789-2.05664.44126-.1539.89741-.2277 1.35352-.2207 1.36833.0214 2.73429.77141 3.68164 2.27929 0 0 2.06929-.3778 2.57422 1.27539.52202 1.70917-1.88374 2.94758-1.5 5.25 1.60721.49473 1.99588-2.39494 3.63476-2.33594 1.5852.057 1.84766 2.34375 1.84766 2.34376 1.59732-.62209 2.14322.63925 2.33398 1.94531.19076 1.30607.0289 2.67049-1.67968 2.53125 0 0 .40108 2.26738-1.10157 2.77539-1.55356.52522-3.39331-2.6462-5.50586-1.88281l-.11328 2.64453c.11138 1.19813.56045 1.85076 1.28907 2.32031.73206.47178 1.80531.70117 3.01562.70117 1.21031 0 2.2816-.22939 3.01367-.70117.72861-.46955 1.17769-1.12219 1.28906-2.32031v-1.34571H-146.28516v1.34571c.11139 1.19813.56241 1.85076 1.29102 2.32031.73207.47178 1.80336.70117 3.01367.70117 1.21032 0 2.28356-.22939 3.01563-.70117.72861-.46955 1.17768-1.12218 1.28906-2.32031v-3.79297c-2.90889.1945-3.71083 2.54738-5.19727 2.27539-1.56028-.28551-1.49218-2.58789-1.49218-2.58789-1.67046.3847-2.02735-.9418-2.02735-2.26172s.35689-2.64642 2.02735-2.26172c0 0-.0681-2.30236 1.49218-2.58789 1.61315-.2952 2.41281 2.50892 3.93164 1.78711.047-2.33371-2.51172-3.21186-2.24218-4.97852.2607-1.70881 2.36328-1.63281 2.36328-1.63281-.35127-1.8294.69797-2.85156 1.90446-2.85156s2.25573 1.02216 1.90446 2.85156c0 0 2.10259-.076 2.36329 1.63281.26954 1.76666-2.28918 2.64481-2.24218 4.97852 1.51882.72181 2.31849-2.08231 3.93164-1.78711 1.56029.28553 1.49218 2.58789 1.49218 2.58789 1.67046-.3847 2.02734.9418 2.02734 2.26172s-.35689 2.64642-2.02734 2.26172c0 0 .0681 2.30238-1.49218 2.58789-1.48644.27199-2.28838-2.08089-5.19727-2.27539v3.79297c.11138 1.19813.56045 1.85076 1.28906 2.32031.73206.47178 1.80531.70117 3.01563.70117 1.21031 0 2.2816-.22939 3.01367-.70117.72861-.46955 1.17963-1.12218 1.29102-2.32031v-1.34571H-125.97228v1.34571c.11137 1.19812.56045 1.85076 1.28906 2.32031.73207.47178 1.80336.70117 3.01367.70117 1.21031 0 2.28356-.22939 3.01562-.70117.72862-.46955 1.17769-1.12218 1.28907-2.32031l-.11328-2.64453c-2.11255-.76339-3.9523 2.40803-5.50586 1.88281-1.50265-.50801-1.10157-2.77539-1.10157-2.77539-1.70854.13924-1.87044-1.22518-1.67968-2.53125.19076-1.30606.73666-2.5674 2.33398-1.94531 0-.00001.26246-2.28674 1.84766-2.34376 1.63888-.059 2.02755 2.83067 3.63476 2.33594.38374-2.30242-2.02202-3.54083-1.5-5.25.50493-1.65319 2.57422-1.27539 2.57422-1.27539.94735-1.50788 2.31331-2.25793 3.68164-2.27929.45611-.007.91226.0668 1.35352.2207 0 0-.83549 1.16092-1.08789 2.05664-.58815 2.08724-.33317 5.48393-1.35157 7.39844-.32789.61642-.77203 1.76119-1.09375 2.38086-.30733.59194-.32612 1.05278-.4375 1.48437v3.38867l-.004.0391c-.1475 1.64131-.93761 2.87794-2.0332 3.58399-1.0956.70606-2.43676.94336-3.82227.94336s-2.72473-.2373-3.82031-.94336c-.49885-.32148-.93091-.75758-1.27149-1.28711-.34048.52911-.77097.96582-1.26953 1.28711-1.09558.70606-2.43481.94336-3.82031.94336-1.38551 0-2.72667-.2373-3.82227-.94336-.49855-.32129-.92946-.758-1.24229-1.28711-.31282.52911-.74373.96582-1.24228 1.28711z" style="color:#000;font-style:normal;font-variant:normal;font-weight:400;font-stretch:normal;font-size:medium;line-height:normal;font-family:sans-serif;text-indent:0;text-align:start;text-decoration:none;text-decoration-line:none;text-decoration-style:solid;text-decoration-color:#000;letter-spacing:normal;word-spacing:normal;text-transform:none;direction:ltr;block-progression:tb;writing-mode:lr-tb;baseline-shift:baseline;text-anchor:start;white-space:normal;clip-rule:nonzero;display:inline;overflow:visible;visibility:visible;opacity:1;isolation:auto;mix-blend-mode:normal;color-interpolation:sRGB;color-interpolation-filters:linearRGB;solid-color:#000;solid-opacity:1;fill:#ffd21f;fill-opacity:1;fill-rule:evenodd;stroke:#a27600;stroke-width:.69999999;stroke-linecap:butt;stroke-linejoin:miter;stroke-miterlimit:4;stroke-dasharray:none;stroke-dashoffset:0;stroke-opacity:1;color-rendering:auto;image-rendering:auto;shape-rendering:auto;text-rendering:auto;enable-background:accumulate"/>
  <path d="M-112.41089 468.42412c-.35495.75652-1.12358 1.23165-1.95898 1.21094.10226.13911.16481.23378.35742.46875.44506.54294 1.0825 3.10933 1.4043 5.06836.0822-.14618.15148-.30026.19726-.46484.0455.16373.1157.31736.19727.46289.32192-1.95877.9594-4.52367 1.4043-5.06641.19261-.23497.25516-.32964.35742-.46875-.8354.0207-1.60404-.45442-1.95899-1.21094zm.19727 6.7461c-.0972.59137-.17158 1.14058-.19531 1.54492v1.09961h.002c.28521-.11077.59113-.15807.89649-.13867 2.00562.1341 3.45415 1.11102 4.27734 1.74609.0862.0665.0894.064.16406.12109 0-.0005.002-.0156.002-.0156-.0326-1.15179.86633-2.11606 2.01758-2.16406.014-.0968.01-.0358.01-.16016s.004-.0634-.01-.16016c-1.11246-.0477-1.99562-.95309-2.01562-2.0664-.30583.3001-.6685.68996-1.35157 1.03125-.72167.36053-1.95116.47327-2.87304.0351-.39583-.18913-.71328-.4974-.92383-.87304zm-.19531 1.54492-.002-2.00781-.002 2.00781c.00015.003.002.007.002.01.00015-.003.002-.007.002-.01zm-.004 0c-.0237-.40384-.0983-.95247-.19531-1.54297-.21057.37461-.5288.68234-.92383.87109-.92188.43812-2.15137.32538-2.87305-.0351-.68306-.34129-1.04573-.73115-1.35156-1.03125-.02 1.11331-.90316 2.01868-2.01562 2.0664-.014.0968-.01.0358-.01.16016 0 .12438-.004.0634.01.16016 1.15125.048 2.05021 1.01227 2.01757 2.16406 0 0 .002.0151.002.0156.0747-.0571.0779-.0546.16406-.12109.82319-.63507 2.27172-1.61199 4.27734-1.74609.30535-.0194.61128.0279.89649.13867h.002v-1.09961zm-22.58594-6.32227c.094.759.24676 1.54321.31836 2.24805.0489.48118.00066 1.48194.16602 2.42773.1619.92595.53622 1.79941.61914 2.07813.12697-1.3028.23976-4.82291.625-5.46289.15695-.26072.20405-.36514.28516-.51758-.76233.13155-1.53543-.16539-2.01368-.77344zm45.175795 0c-.47826.60805-1.25135.90499-2.01368.77344.08111.15244.12821.25686.28516.51758.38524.63998.49803 4.16009.625 5.46289.08292-.27872.45724-1.15218.61914-2.07813.16536-.94579.11712-1.94655.16602-2.42773.07161-.70484.22436-1.48905.31836-2.24805zm-38.148445 5.50586c-.25946.34093-.56159.77937-1.1875 1.21485-.66205.4606-3.57522 1.09228-4.4375 1.42578.90949.52506 3.40347.23461 4.00781.45703.80644.29682 1.40411.70809 1.89648 1.04687.16719.11504.22254.14304.36329.23828-.12878-1.09721.61208-2.10747 1.69726-2.31445-.00006-.0979.004-.0368-.0137-.16015-.0179-.12243-.005-.0629-.0332-.15626-1.10715.11357-2.11157-.65387-2.29297-1.75195zm31.121095 0c-.1814 1.09808-1.18582 1.86552-2.29297 1.75195-.0282.0934-.0153.0338-.0332.15626-.0177.12334-.01361.0623-.01367.16015 1.08519.20698 1.82604 1.21724 1.69726 2.31445.14075-.0952.19608-.12324.36328-.23828.49236-.33878 1.09005-.75005 1.89649-1.04687.60434-.22242 3.09832.068 4.00781-.45703-.86228-.3335-3.77545-.96518-4.4375-1.42578-.62591-.43548-.92804-.87392-1.1875-1.21485z" style="color:#000;font-style:normal;font-variant:normal;font-weight:400;font-stretch:normal;font-size:medium;line-height:normal;font-family:sans-serif;text-indent:0;text-align:start;text-decoration:none;text-decoration-line:none;text-decoration-style:solid;text-decoration-color:#000;letter-spacing:normal;word-spacing:normal;text-transform:none;direction:ltr;block-progression:tb;writing-mode:lr-tb;baseline-shift:baseline;text-anchor:start;white-space:normal;clip-rule:nonzero;display:inline;overflow:visible;visibility:visible;opacity:1;isolation:auto;mix-blend-mode:normal;color-interpolation:sRGB;color-interpolation-filters:linearRGB;solid-color:#000;solid-opacity:1;fill:#dcb20b;fill-opacity:1;fill-rule:evenodd;stroke:none;stroke-width:.69999999;stroke-linecap:butt;stroke-linejoin:miter;stroke-miterlimit:4;stroke-dasharray:none;stroke-dashoffset:0;stroke-opacity:1;color-rendering:auto;image-rendering:auto;shape-rendering:auto;text-rendering:auto;enable-background:accumulate" transform="matrix(1.87489 0 0 1.87489 330.681771 -712.99415)"/>
  <g transform="matrix(1.87489 0 0 1.87489 330.81310068 -712.99415)">
    <circle r="1.7252479" cy="476.75375" cx="-112.48093" style="display:inline;fill:#ececec;fill-opacity:1;stroke:#a1a19d;stroke-width:.69999999;stroke-linejoin:miter;stroke-miterlimit:4;stroke-dasharray:none;stroke-dashoffset:0;stroke-opacity:1"/>
    <circle style="display:inline;fill:#fff;fill-opacity:1;stroke:none;stroke-width:.65376556;stroke-linejoin:miter;stroke-miterlimit:4;stroke-dasharray:none;stroke-dashoffset:0;stroke-opacity:1" cx="-112.62302" cy="476.61166" r=".94350904"/>
    <g style="stroke-width:.65376556;stroke-miterlimit:4;stroke-dasharray:none" transform="translate(-13.143871 -31.826632) scale(1.07072)">
      <circle r="1.6112967" cy="476.79153" cx="-112.93032" style="display:inline;fill:#ececec;fill-opacity:1;stroke:#a1a19d;stroke-width:.65376556;stroke-linejoin:miter;stroke-miterlimit:4;stroke-dasharray:none;stroke-dashoffset:0;stroke-opacity:1"/>
      <circle style="display:inline;fill:#fff;fill-opacity:1;stroke:none;stroke-width:.65376556;stroke-linejoin:miter;stroke-miterlimit:4;stroke-dasharray:none;stroke-dashoffset:0;stroke-opacity:1" cx="-113.06303" cy="476.65884" r=".88119102"/>
    </g>
    <g transform="translate(30.015569 -31.826632) scale(1.07072)" style="stroke-width:.65376556;stroke-miterlimit:4;stroke-dasharray:none">
      <circle style="display:inline;fill:#ececec;fill-opacity:1;stroke:#a1a19d;stroke-width:.65376556;stroke-linejoin:miter;stroke-miterlimit:4;stroke-dasharray:none;stroke-dashoffset:0;stroke-opacity:1" cx="-112.93032" cy="476.79153" r="1.6112967"/>
      <circle r=".88119102" cy="476.65884" cx="-113.06303" style="display:inline;fill:#fff;fill-opacity:1;stroke:none;stroke-width:.65376556;stroke-linejoin:miter;stroke-miterlimit:4;stroke-dasharray:none;stroke-dashoffset:0;stroke-opacity:1"/>
    </g>
    <g style="stroke-width:.65376556;stroke-miterlimit:4;stroke-dasharray:none" transform="translate(-1.8443377 -27.872669) scale(1.07072)">
      <circle r="1.6112967" cy="476.79153" cx="-112.93032" style="display:inline;fill:#ececec;fill-opacity:1;stroke:#a1a19d;stroke-width:.65376556;stroke-linejoin:miter;stroke-miterlimit:4;stroke-dasharray:none;stroke-dashoffset:0;stroke-opacity:1"/>
      <circle style="display:inline;fill:#fff;fill-opacity:1;stroke:none;stroke-width:.65376556;stroke-linejoin:miter;stroke-miterlimit:4;stroke-dasharray:none;stroke-dashoffset:0;stroke-opacity:1" cx="-113.06303" cy="476.65884" r=".88119102"/>
    </g>
    <g transform="translate(18.716036 -27.872669) scale(1.07072)" style="stroke-width:.65376556;stroke-miterlimit:4;stroke-dasharray:none">
      <circle style="display:inline;fill:#ececec;fill-opacity:1;stroke:#a1a19d;stroke-width:.65376556;stroke-linejoin:miter;stroke-miterlimit:4;stroke-dasharray:none;stroke-dashoffset:0;stroke-opacity:1" cx="-112.93032" cy="476.79153" r="1.6112967"/>
      <circle r=".88119102" cy="476.65884" cx="-113.06303" style="display:inline;fill:#fff;fill-opacity:1;stroke:none;stroke-width:.65376556;stroke-linejoin:miter;stroke-miterlimit:4;stroke-dasharray:none;stroke-dashoffset:0;stroke-opacity:1"/>
    </g>
  </g>
  <path style="fill:#f00000;fill-opacity:1;fill-rule:evenodd;stroke:#a00;stroke-width:.69999999;stroke-linecap:butt;stroke-linejoin:miter;stroke-miterlimit:4;stroke-dasharray:none;stroke-opacity:1" d="m-112.41087 497.35696-2.94013-2.70894 2.94013-2.70894 2.94012 2.70894z" transform="matrix(1.87489 0 0 1.87489 330.681771 -712.99415)"/>
  <g>
    <path style="fill:#f00000;fill-opacity:1;fill-rule:evenodd;stroke:#a00;stroke-width:.69999999;stroke-linecap:butt;stroke-linejoin:miter;stroke-miterlimit:4;stroke-dasharray:none;stroke-opacity:1" d="m-132.44625 497.43288-2.28199-2.70894 2.28199-2.70894 2.94012 2.70894zM-92.241117 497.43288l2.28199-2.70894-2.28199-2.70894-2.94012 2.70894z" transform="matrix(1.87489 0 0 1.87489 330.55578496 -713.13648347)"/>
    <path d="m-132.4191 492.75121-1.07226 1.27344 1.07226 1.27344 1.38281-1.27344-1.38281-1.27344zM-92.274258 492.88012l-1.24414 1.14453 1.24414 1.14453.962891-1.14453-.962891-1.14453z" style="fill:#f55;fill-opacity:1;fill-rule:evenodd;stroke:none;stroke-width:.69999999;stroke-linecap:butt;stroke-linejoin:miter;stroke-miterlimit:4;stroke-dasharray:none;stroke-opacity:1" transform="matrix(1.87489 0 0 1.87489 330.55578496 -713.13648347)"/>
  </g>
  <g>
    <g transform="matrix(1.87489 0 0 1.87489 328.36553895 -712.99415)">
      <circle style="display:inline;fill:#ececec;fill-opacity:1;stroke:#a1a19d;stroke-width:.5902909;stroke-linejoin:miter;stroke-miterlimit:4;stroke-dasharray:none;stroke-dashoffset:0;stroke-opacity:1" cx="-121.17548" cy="492.83084" r="1.4548545"/>
      <circle r=".79563546" cy="492.711" cx="-121.2953" style="display:inline;fill:#fff;fill-opacity:1;stroke:none;stroke-width:.65376556;stroke-linejoin:miter;stroke-miterlimit:4;stroke-dasharray:none;stroke-dashoffset:0;stroke-opacity:1"/>
    </g>
    <g transform="matrix(1.87489 0 0 1.87489 328.36553895 -706.18011277)">
      <circle r="1.4548545" cy="492.83084" cx="-121.17548" style="display:inline;fill:#ececec;fill-opacity:1;stroke:#a1a19d;stroke-width:.5902909;stroke-linejoin:miter;stroke-miterlimit:4;stroke-dasharray:none;stroke-dashoffset:0;stroke-opacity:1"/>
      <circle style="display:inline;fill:#fff;fill-opacity:1;stroke:none;stroke-width:.65376556;stroke-linejoin:miter;stroke-miterlimit:4;stroke-dasharray:none;stroke-dashoffset:0;stroke-opacity:1" cx="-121.2953" cy="492.711" r=".79563546"/>
    </g>
    <g>
      <g transform="matrix(1.87489 0 0 1.87489 365.86333695 -712.99415)">
        <circle r="1.4548545" cy="492.83084" cx="-121.17548" style="display:inline;fill:#ececec;fill-opacity:1;stroke:#a1a19d;stroke-width:.5902909;stroke-linejoin:miter;stroke-miterlimit:4;stroke-dasharray:none;stroke-dashoffset:0;stroke-opacity:1"/>
        <circle style="display:inline;fill:#fff;fill-opacity:1;stroke:none;stroke-width:.65376556;stroke-linejoin:miter;stroke-miterlimit:4;stroke-dasharray:none;stroke-dashoffset:0;stroke-opacity:1" cx="-121.2953" cy="492.711" r=".79563546"/>
      </g>
      <g transform="matrix(1.87489 0 0 1.87489 365.86333695 -706.18011277)">
        <circle style="display:inline;fill:#ececec;fill-opacity:1;stroke:#a1a19d;stroke-width:.5902909;stroke-linejoin:miter;stroke-miterlimit:4;stroke-dasharray:none;stroke-dashoffset:0;stroke-opacity:1" cx="-121.17548" cy="492.83084" r="1.4548545"/>
        <circle r=".79563546" cy="492.711" cx="-121.2953" style="display:inline;fill:#fff;fill-opacity:1;stroke:none;stroke-width:.65376556;stroke-linejoin:miter;stroke-miterlimit:4;stroke-dasharray:none;stroke-dashoffset:0;stroke-opacity:1"/>
      </g>
    </g>
  </g>
  <path d="m-112.91922 493.30292-1.11523 1.02735 1.11523 1.02734 1.11328-1.02734-1.11328-1.02735z" style="fill:#f55;fill-opacity:1;fill-rule:evenodd;stroke:none;stroke-width:.69999999;stroke-linecap:butt;stroke-linejoin:miter;stroke-miterlimit:4;stroke-dasharray:none;stroke-opacity:1" transform="matrix(1.87489 0 0 1.87489 330.681771 -712.99415)"/>
  <g>
    <path style="fill:#ffd21f;fill-opacity:1;fill-rule:evenodd;stroke:#a27600;stroke-width:.69999999;stroke-linecap:butt;stroke-linejoin:miter;stroke-miterlimit:4;stroke-dasharray:none;stroke-opacity:1" d="m-92.576762 500.24826.58501-16.96539c-1.25087 5.71528-10.132188 5.06842-10.237668 0-1.94574 7.38049-10.80876 3.8801-10.18146 0 .62729 3.8801-8.23573 7.38049-10.18147 0-.10548 5.06842-8.98679 5.71528-10.23766 0l.58501 16.96539h19.83412z" transform="matrix(1.87489 0 0 1.87489 271.681768 -807.60931)"/>
    <g style="stroke-width:1.74179101;stroke-miterlimit:4;stroke-dasharray:none">
      <path d="M-95.008252 480.68815c3.59558.23864 4.37156-5.01129 0-5.22772H-209.47318c-4.37155.21643-3.59557 5.46626 0 5.22772h60.06994z" style="color:#000;font-style:normal;font-variant:normal;font-weight:400;font-stretch:normal;font-size:medium;line-height:normal;font-family:sans-serif;text-indent:0;text-align:start;text-decoration:none;text-decoration-line:none;text-decoration-style:solid;text-decoration-color:#000;letter-spacing:normal;word-spacing:normal;text-transform:none;direction:ltr;block-progression:tb;writing-mode:lr-tb;baseline-shift:baseline;text-anchor:start;white-space:normal;clip-rule:nonzero;display:inline;overflow:visible;visibility:visible;opacity:1;isolation:auto;mix-blend-mode:normal;color-interpolation:sRGB;color-interpolation-filters:linearRGB;solid-color:#000;solid-opacity:1;fill:#ffd21f;fill-opacity:1;fill-rule:evenodd;stroke:#a27600;stroke-width:1.74179101;stroke-linecap:butt;stroke-linejoin:miter;stroke-miterlimit:4;stroke-dasharray:none;stroke-dashoffset:0;stroke-opacity:1;color-rendering:auto;image-rendering:auto;shape-rendering:auto;text-rendering:auto;enable-background:accumulate" transform="matrix(.66076 0 0 .85924 161.4551343 -280.82464461)"/>
      <path d="M-93.359312 477.87323c.0235-.3156-.0627-.59423-.28079-.82705-.21799-.2329-.61161-.47489-1.43456-.51564H-209.40686h.00005c-.82295.0408-1.2166.28285-1.43457.51564-.21799.23289-.30417.51145-.28078.82705z" style="color:#000;font-style:normal;font-variant:normal;font-weight:400;font-stretch:normal;font-size:medium;line-height:normal;font-family:sans-serif;text-indent:0;text-align:start;text-decoration:none;text-decoration-line:none;text-decoration-style:solid;text-decoration-color:#000;letter-spacing:normal;word-spacing:normal;text-transform:none;direction:ltr;block-progression:tb;writing-mode:lr-tb;baseline-shift:baseline;text-anchor:start;white-space:normal;clip-rule:nonzero;display:inline;overflow:visible;visibility:visible;opacity:1;isolation:auto;mix-blend-mode:normal;color-interpolation:sRGB;color-interpolation-filters:linearRGB;solid-color:#000;solid-opacity:1;fill:#ffe88b;fill-opacity:1;fill-rule:evenodd;stroke:none;stroke-width:1.74179101;stroke-linecap:butt;stroke-linejoin:miter;stroke-miterlimit:4;stroke-dasharray:none;stroke-dashoffset:0;stroke-opacity:1;color-rendering:auto;image-rendering:auto;shape-rendering:auto;text-rendering:auto;enable-background:accumulate" transform="matrix(.66076 0 0 .85924 161.4551343 -280.82464461)"/>
    </g>
    <g style="stroke-width:1.74179101;stroke-miterlimit:4;stroke-dasharray:none">
      <path style="color:#000;font-style:normal;font-variant:normal;font-weight:400;font-stretch:normal;font-size:medium;line-height:normal;font-family:sans-serif;text-indent:0;text-align:start;text-decoration:none;text-decoration-line:none;text-decoration-style:solid;text-decoration-color:#000;letter-spacing:normal;word-spacing:normal;text-transform:none;direction:ltr;block-progression:tb;writing-mode:lr-tb;baseline-shift:baseline;text-anchor:start;white-space:normal;clip-rule:nonzero;display:inline;overflow:visible;visibility:visible;opacity:1;isolation:auto;mix-blend-mode:normal;color-interpolation:sRGB;color-interpolation-filters:linearRGB;solid-color:#000;solid-opacity:1;fill:#ffd21f;fill-opacity:1;fill-rule:evenodd;stroke:#a27600;stroke-width:1.74179101;stroke-linecap:butt;stroke-linejoin:miter;stroke-miterlimit:4;stroke-dasharray:none;stroke-dashoffset:0;stroke-opacity:1;color-rendering:auto;image-rendering:auto;shape-rendering:auto;text-rendering:auto;enable-background:accumulate" d="M-95.008252 480.68815c3.59558.23864 4.37156-5.01129 0-5.22772H-209.47318c-4.37155.21643-3.59557 5.46626 0 5.22772h60.06994z" transform="matrix(.66076 0 0 .85924 161.5811194 -300.91990205)"/>
      <path style="color:#000;font-style:normal;font-variant:normal;font-weight:400;font-stretch:normal;font-size:medium;line-height:normal;font-family:sans-serif;text-indent:0;text-align:start;text-decoration:none;text-decoration-line:none;text-decoration-style:solid;text-decoration-color:#000;letter-spacing:normal;word-spacing:normal;text-transform:none;direction:ltr;block-progression:tb;writing-mode:lr-tb;baseline-shift:baseline;text-anchor:start;white-space:normal;clip-rule:nonzero;display:inline;overflow:visible;visibility:visible;opacity:1;isolation:auto;mix-blend-mode:normal;color-interpolation:sRGB;color-interpolation-filters:linearRGB;solid-color:#000;solid-opacity:1;fill:#ffe88b;fill-opacity:1;fill-rule:evenodd;stroke:none;stroke-width:1.74179101;stroke-linecap:butt;stroke-linejoin:miter;stroke-miterlimit:4;stroke-dasharray:none;stroke-dashoffset:0;stroke-opacity:1;color-rendering:auto;image-rendering:auto;shape-rendering:auto;text-rendering:auto;enable-background:accumulate" d="M-93.359312 477.87323c.0235-.3156-.0627-.59423-.28079-.82705-.21799-.2329-.61161-.47489-1.43456-.51564H-209.40686h.00005c-.82295.0408-1.2166.28285-1.43457.51564-.21799.23289-.30417.51145-.28078.82705z" transform="matrix(.66076 0 0 .85924 161.5811194 -300.91990205)"/>
    </g>
    <path style="color:#000;font-style:normal;font-variant:normal;font-weight:400;font-stretch:normal;font-size:medium;line-height:normal;font-family:sans-serif;text-indent:0;text-align:start;text-decoration:none;text-decoration-line:none;text-decoration-style:solid;text-decoration-color:#000;letter-spacing:normal;word-spacing:normal;text-transform:none;direction:ltr;block-progression:tb;writing-mode:lr-tb;baseline-shift:baseline;text-anchor:start;white-space:normal;clip-rule:nonzero;display:inline;overflow:visible;visibility:visible;opacity:1;isolation:auto;mix-blend-mode:normal;color-interpolation:sRGB;color-interpolation-filters:linearRGB;solid-color:#000;solid-opacity:1;fill:#ffd21f;fill-opacity:1;fill-rule:evenodd;stroke:#a27600;stroke-width:.69999999;stroke-linecap:butt;stroke-linejoin:miter;stroke-miterlimit:4;stroke-dasharray:none;stroke-dashoffset:0;stroke-opacity:1;color-rendering:auto;image-rendering:auto;shape-rendering:auto;text-rendering:auto;enable-background:accumulate" d="M-138.15813 690.47465c-1.0956.70606-2.43676.94336-3.82227.94336-1.3855 0-2.72473-.2373-3.82031-.94336-.49856-.32129-.92905-.758-1.26953-1.28711-.34058.52953-.77264.96563-1.27149 1.28711-1.09558.70606-2.4348.94336-3.82031.94336s-2.72667-.2373-3.82227-.94336c-1.09559-.70605-1.8857-1.94268-2.0332-3.58399l-.004-.0391v-3.38867c-.11138-.43159-.13017-.89243-.4375-1.48437-.32172-.61967-.76586-1.76444-1.09375-2.38086-1.0184-1.91451-.76342-5.3112-1.35157-7.39844-.2524-.89572-1.08789-2.05664-1.08789-2.05664.44126-.1539.89741-.2277 1.35352-.2207 1.36833.0214 2.73429.77141 3.68164 2.27929 0 0 2.06929-.3778 2.57422 1.27539.52202 1.70917-1.88374 2.94758-1.5 5.25 1.60721.49473 1.99588-2.39494 3.63476-2.33594 1.5852.057 1.84766 2.34375 1.84766 2.34376 1.59732-.62209 2.14322.63925 2.33398 1.94531.19076 1.30607.0289 2.67049-1.67968 2.53125 0 0 .40108 2.26738-1.10157 2.77539-1.55356.52522-3.39331-2.6462-5.50586-1.88281l-.11328 2.64453c.11138 1.19813.56045 1.85076 1.28907 2.32031.73206.47178 1.80531.70117 3.01562.70117 1.21031 0 2.2816-.22939 3.01367-.70117.72861-.46955 1.17769-1.12219 1.28906-2.32031v-1.34571H-146.28516v1.34571c.11139 1.19813.56241 1.85076 1.29102 2.32031.73207.47178 1.80336.70117 3.01367.70117 1.21032 0 2.28356-.22939 3.01563-.70117.72861-.46955 1.17768-1.12218 1.28906-2.32031v-3.79297c-2.90889.1945-3.71083 2.54738-5.19727 2.27539-1.56028-.28551-1.49218-2.58789-1.49218-2.58789-1.67046.3847-2.02735-.9418-2.02735-2.26172s.35689-2.64642 2.02735-2.26172c0 0-.0681-2.30236 1.49218-2.58789 1.61315-.2952 2.41281 2.50892 3.93164 1.78711.047-2.33371-2.51172-3.21186-2.24218-4.97852.2607-1.70881 2.36328-1.63281 2.36328-1.63281-.35127-1.8294.69797-2.85156 1.90446-2.85156s2.25573 1.02216 1.90446 2.85156c0 0 2.10259-.076 2.36329 1.63281.26954 1.76666-2.28918 2.64481-2.24218 4.97852 1.51882.72181 2.31849-2.08231 3.93164-1.78711 1.56029.28553 1.49218 2.58789 1.49218 2.58789 1.67046-.3847 2.02734.9418 2.02734 2.26172s-.35689 2.64642-2.02734 2.26172c0 0 .0681 2.30238-1.49218 2.58789-1.48644.27199-2.28838-2.08089-5.19727-2.27539v3.79297c.11138 1.19813.56045 1.85076 1.28906 2.32031.73206.47178 1.80531.70117 3.01563.70117 1.21031 0 2.2816-.22939 3.01367-.70117.72861-.46955 1.17963-1.12218 1.29102-2.32031v-1.34571H-125.97228v1.34571c.11137 1.19812.56045 1.85076 1.28906 2.32031.73207.47178 1.80336.70117 3.01367.70117 1.21031 0 2.28356-.22939 3.01562-.70117.72862-.46955 1.17769-1.12218 1.28907-2.32031l-.11328-2.64453c-2.11255-.76339-3.9523 2.40803-5.50586 1.88281-1.50265-.50801-1.10157-2.77539-1.10157-2.77539-1.70854.13924-1.87044-1.22518-1.67968-2.53125.19076-1.30606.73666-2.5674 2.33398-1.94531 0-.00001.26246-2.28674 1.84766-2.34376 1.63888-.059 2.02755 2.83067 3.63476 2.33594.38374-2.30242-2.02202-3.54083-1.5-5.25.50493-1.65319 2.57422-1.27539 2.57422-1.27539.94735-1.50788 2.31331-2.25793 3.68164-2.27929.45611-.007.91226.0668 1.35352.2207 0 0-.83549 1.16092-1.08789 2.05664-.58815 2.08724-.33317 5.48393-1.35157 7.39844-.32789.61642-.77203 1.76119-1.09375 2.38086-.30733.59194-.32612 1.05278-.4375 1.48437v3.38867l-.004.0391c-.1475 1.64131-.93761 2.87794-2.0332 3.58399-1.0956.70606-2.43676.94336-3.82227.94336s-2.72473-.2373-3.82031-.94336c-.49885-.32148-.93091-.75758-1.27149-1.28711-.34048.52911-.77097.96582-1.26953 1.28711-1.09558.70606-2.43481.94336-3.82031.94336-1.38551 0-2.72667-.2373-3.82227-.94336-.49855-.32129-.92946-.758-1.24229-1.28711-.31282.52911-.74373.96582-1.24228 1.28711z" transform="matrix(1.87489 0 0 1.87489 317.62587938 -1188.54464016)"/>
    <path style="color:#000;font-style:normal;font-variant:normal;font-weight:400;font-stretch:normal;font-size:medium;line-height:normal;font-family:sans-serif;text-indent:0;text-align:start;text-decoration:none;text-decoration-line:none;text-decoration-style:solid;text-decoration-color:#000;letter-spacing:normal;word-spacing:normal;text-transform:none;direction:ltr;block-progression:tb;writing-mode:lr-tb;baseline-shift:baseline;text-anchor:start;white-space:normal;clip-rule:nonzero;display:inline;overflow:visible;visibility:visible;opacity:1;isolation:auto;mix-blend-mode:normal;color-interpolation:sRGB;color-interpolation-filters:linearRGB;solid-color:#000;solid-opacity:1;fill:#dcb20b;fill-opacity:1;fill-rule:evenodd;stroke:none;stroke-width:.69999999;stroke-linecap:butt;stroke-linejoin:miter;stroke-miterlimit:4;stroke-dasharray:none;stroke-dashoffset:0;stroke-opacity:1;color-rendering:auto;image-rendering:auto;shape-rendering:auto;text-rendering:auto;enable-background:accumulate" d="M-112.41089 468.42412c-.35495.75652-1.12358 1.23165-1.95898 1.21094.10226.13911.16481.23378.35742.46875.44506.54294 1.0825 3.10933 1.4043 5.06836.0822-.14618.15148-.30026.19726-.46484.0455.16373.1157.31736.19727.46289.32192-1.95877.9594-4.52367 1.4043-5.06641.19261-.23497.25516-.32964.35742-.46875-.8354.0207-1.60404-.45442-1.95899-1.21094zm.19727 6.7461c-.0972.59137-.17158 1.14058-.19531 1.54492v1.09961h.002c.28521-.11077.59113-.15807.89649-.13867 2.00562.1341 3.45415 1.11102 4.27734 1.74609.0862.0665.0894.064.16406.12109 0-.0005.002-.0156.002-.0156-.0326-1.15179.86633-2.11606 2.01758-2.16406.014-.0968.01-.0358.01-.16016s.004-.0634-.01-.16016c-1.11246-.0477-1.99562-.95309-2.01562-2.0664-.30583.3001-.6685.68996-1.35157 1.03125-.72167.36053-1.95116.47327-2.87304.0351-.39583-.18913-.71328-.4974-.92383-.87304zm-.19531 1.54492-.002-2.00781-.002 2.00781c.00015.003.002.007.002.01.00015-.003.002-.007.002-.01zm-.004 0c-.0237-.40384-.0983-.95247-.19531-1.54297-.21057.37461-.5288.68234-.92383.87109-.92188.43812-2.15137.32538-2.87305-.0351-.68306-.34129-1.04573-.73115-1.35156-1.03125-.02 1.11331-.90316 2.01868-2.01562 2.0664-.014.0968-.01.0358-.01.16016 0 .12438-.004.0634.01.16016 1.15125.048 2.05021 1.01227 2.01757 2.16406 0 0 .002.0151.002.0156.0747-.0571.0779-.0546.16406-.12109.82319-.63507 2.27172-1.61199 4.27734-1.74609.30535-.0194.61128.0279.89649.13867h.002v-1.09961zm-22.58594-6.32227c.094.759.24676 1.54321.31836 2.24805.0489.48118.00066 1.48194.16602 2.42773.1619.92595.53622 1.79941.61914 2.07813.12697-1.3028.23976-4.82291.625-5.46289.15695-.26072.20405-.36514.28516-.51758-.76233.13155-1.53543-.16539-2.01368-.77344zm45.175795 0c-.47826.60805-1.25135.90499-2.01368.77344.08111.15244.12821.25686.28516.51758.38524.63998.49803 4.16009.625 5.46289.08292-.27872.45724-1.15218.61914-2.07813.16536-.94579.11712-1.94655.16602-2.42773.07161-.70484.22436-1.48905.31836-2.24805zm-38.148445 5.50586c-.25946.34093-.56159.77937-1.1875 1.21485-.66205.4606-3.57522 1.09228-4.4375 1.42578.90949.52506 3.40347.23461 4.00781.45703.80644.29682 1.40411.70809 1.89648 1.04687.16719.11504.22254.14304.36329.23828-.12878-1.09721.61208-2.10747 1.69726-2.31445-.00006-.0979.004-.0368-.0137-.16015-.0179-.12243-.005-.0629-.0332-.15626-1.10715.11357-2.11157-.65387-2.29297-1.75195zm31.121095 0c-.1814 1.09808-1.18582 1.86552-2.29297 1.75195-.0282.0934-.0153.0338-.0332.15626-.0177.12334-.01361.0623-.01367.16015 1.08519.20698 1.82604 1.21724 1.69726 2.31445.14075-.0952.19608-.12324.36328-.23828.49236-.33878 1.09005-.75005 1.89649-1.04687.60434-.22242 3.09832.068 4.00781-.45703-.86228-.3335-3.77545-.96518-4.4375-1.42578-.62591-.43548-.92804-.87392-1.1875-1.21485z" transform="matrix(1.87489 0 0 1.87489 271.681768 -807.60931)"/>
    <g transform="matrix(1.87489 0 0 1.87489 271.81309768 -807.60931)">
      <circle style="display:inline;fill:#ececec;fill-opacity:1;stroke:#a1a19d;stroke-width:.69999999;stroke-linejoin:miter;stroke-miterlimit:4;stroke-dasharray:none;stroke-dashoffset:0;stroke-opacity:1" cx="-112.48093" cy="476.75375" r="1.7252479"/>
      <circle r=".94350904" cy="476.61166" cx="-112.62302" style="display:inline;fill:#fff;fill-opacity:1;stroke:none;stroke-width:.65376556;stroke-linejoin:miter;stroke-miterlimit:4;stroke-dasharray:none;stroke-dashoffset:0;stroke-opacity:1"/>
      <g transform="translate(-13.143871 -31.826632) scale(1.07072)" style="stroke-width:.65376556;stroke-miterlimit:4;stroke-dasharray:none">
        <circle style="display:inline;fill:#ececec;fill-opacity:1;stroke:#a1a19d;stroke-width:.65376556;stroke-linejoin:miter;stroke-miterlimit:4;stroke-dasharray:none;stroke-dashoffset:0;stroke-opacity:1" cx="-112.93032" cy="476.79153" r="1.6112967"/>
        <circle r=".88119102" cy="476.65884" cx="-113.06303" style="display:inline;fill:#fff;fill-opacity:1;stroke:none;stroke-width:.65376556;stroke-linejoin:miter;stroke-miterlimit:4;stroke-dasharray:none;stroke-dashoffset:0;stroke-opacity:1"/>
      </g>
      <g style="stroke-width:.65376556;stroke-miterlimit:4;stroke-dasharray:none" transform="translate(30.015569 -31.826632) scale(1.07072)">
        <circle r="1.6112967" cy="476.79153" cx="-112.93032" style="display:inline;fill:#ececec;fill-opacity:1;stroke:#a1a19d;stroke-width:.65376556;stroke-linejoin:miter;stroke-miterlimit:4;stroke-dasharray:none;stroke-dashoffset:0;stroke-opacity:1"/>
        <circle style="display:inline;fill:#fff;fill-opacity:1;stroke:none;stroke-width:.65376556;stroke-linejoin:miter;stroke-miterlimit:4;stroke-dasharray:none;stroke-dashoffset:0;stroke-opacity:1" cx="-113.06303" cy="476.65884" r=".88119102"/>
      </g>
      <g transform="translate(-1.8443377 -27.872669) scale(1.07072)" style="stroke-width:.65376556;stroke-miterlimit:4;stroke-dasharray:none">
        <circle style="display:inline;fill:#ececec;fill-opacity:1;stroke:#a1a19d;stroke-width:.65376556;stroke-linejoin:miter;stroke-miterlimit:4;stroke-dasharray:none;stroke-dashoffset:0;stroke-opacity:1" cx="-112.93032" cy="476.79153" r="1.6112967"/>
        <circle r=".88119102" cy="476.65884" cx="-113.06303" style="display:inline;fill:#fff;fill-opacity:1;stroke:none;stroke-width:.65376556;stroke-linejoin:miter;stroke-miterlimit:4;stroke-dasharray:none;stroke-dashoffset:0;stroke-opacity:1"/>
      </g>
      <g style="stroke-width:.65376556;stroke-miterlimit:4;stroke-dasharray:none" transform="translate(18.716036 -27.872669) scale(1.07072)">
        <circle r="1.6112967" cy="476.79153" cx="-112.93032" style="display:inline;fill:#ececec;fill-opacity:1;stroke:#a1a19d;stroke-width:.65376556;stroke-linejoin:miter;stroke-miterlimit:4;stroke-dasharray:none;stroke-dashoffset:0;stroke-opacity:1"/>
        <circle style="display:inline;fill:#fff;fill-opacity:1;stroke:none;stroke-width:.65376556;stroke-linejoin:miter;stroke-miterlimit:4;stroke-dasharray:none;stroke-dashoffset:0;stroke-opacity:1" cx="-113.06303" cy="476.65884" r=".88119102"/>
      </g>
    </g>
    <path d="m-112.41087 497.35696-2.94013-2.70894 2.94013-2.70894 2.94012 2.70894z" style="fill:#f00000;fill-opacity:1;fill-rule:evenodd;stroke:#a00;stroke-width:.69999999;stroke-linecap:butt;stroke-linejoin:miter;stroke-miterlimit:4;stroke-dasharray:none;stroke-opacity:1" transform="matrix(1.87489 0 0 1.87489 271.681768 -807.60931)"/>
    <g>
      <path d="m-132.44625 497.43288-2.28199-2.70894 2.28199-2.70894 2.94012 2.70894zM-92.241117 497.43288l2.28199-2.70894-2.28199-2.70894-2.94012 2.70894z" style="fill:#f00000;fill-opacity:1;fill-rule:evenodd;stroke:#a00;stroke-width:.69999999;stroke-linecap:butt;stroke-linejoin:miter;stroke-miterlimit:4;stroke-dasharray:none;stroke-opacity:1" transform="matrix(1.87489 0 0 1.87489 271.55578196 -807.75164347)"/>
      <path style="fill:#f55;fill-opacity:1;fill-rule:evenodd;stroke:none;stroke-width:.69999999;stroke-linecap:butt;stroke-linejoin:miter;stroke-miterlimit:4;stroke-dasharray:none;stroke-opacity:1" d="m-132.4191 492.75121-1.07226 1.27344 1.07226 1.27344 1.38281-1.27344-1.38281-1.27344zM-92.274258 492.88012l-1.24414 1.14453 1.24414 1.14453.962891-1.14453-.962891-1.14453z" transform="matrix(1.87489 0 0 1.87489 271.55578196 -807.75164347)"/>
    </g>
    <g>
      <g transform="matrix(1.87489 0 0 1.87489 269.36553595 -807.60931)">
        <circle r="1.4548545" cy="492.83084" cx="-121.17548" style="display:inline;fill:#ececec;fill-opacity:1;stroke:#a1a19d;stroke-width:.5902909;stroke-linejoin:miter;stroke-miterlimit:4;stroke-dasharray:none;stroke-dashoffset:0;stroke-opacity:1"/>
        <circle style="display:inline;fill:#fff;fill-opacity:1;stroke:none;stroke-width:.65376556;stroke-linejoin:miter;stroke-miterlimit:4;stroke-dasharray:none;stroke-dashoffset:0;stroke-opacity:1" cx="-121.2953" cy="492.711" r=".79563546"/>
      </g>
      <g transform="matrix(1.87489 0 0 1.87489 269.36553595 -800.79527277)">
        <circle style="display:inline;fill:#ececec;fill-opacity:1;stroke:#a1a19d;stroke-width:.5902909;stroke-linejoin:miter;stroke-miterlimit:4;stroke-dasharray:none;stroke-dashoffset:0;stroke-opacity:1" cx="-121.17548" cy="492.83084" r="1.4548545"/>
        <circle r=".79563546" cy="492.711" cx="-121.2953" style="display:inline;fill:#fff;fill-opacity:1;stroke:none;stroke-width:.65376556;stroke-linejoin:miter;stroke-miterlimit:4;stroke-dasharray:none;stroke-dashoffset:0;stroke-opacity:1"/>
      </g>
      <g>
        <g transform="matrix(1.87489 0 0 1.87489 306.86333395 -807.60931)">
          <circle style="display:inline;fill:#ececec;fill-opacity:1;stroke:#a1a19d;stroke-width:.5902909;stroke-linejoin:miter;stroke-miterlimit:4;stroke-dasharray:none;stroke-dashoffset:0;stroke-opacity:1" cx="-121.17548" cy="492.83084" r="1.4548545"/>
          <circle r=".79563546" cy="492.711" cx="-121.2953" style="display:inline;fill:#fff;fill-opacity:1;stroke:none;stroke-width:.65376556;stroke-linejoin:miter;stroke-miterlimit:4;stroke-dasharray:none;stroke-dashoffset:0;stroke-opacity:1"/>
        </g>
        <g transform="matrix(1.87489 0 0 1.87489 306.86333395 -800.79527277)">
          <circle r="1.4548545" cy="492.83084" cx="-121.17548" style="display:inline;fill:#ececec;fill-opacity:1;stroke:#a1a19d;stroke-width:.5902909;stroke-linejoin:miter;stroke-miterlimit:4;stroke-dasharray:none;stroke-dashoffset:0;stroke-opacity:1"/>
          <circle style="display:inline;fill:#fff;fill-opacity:1;stroke:none;stroke-width:.65376556;stroke-linejoin:miter;stroke-miterlimit:4;stroke-dasharray:none;stroke-dashoffset:0;stroke-opacity:1" cx="-121.2953" cy="492.711" r=".79563546"/>
        </g>
      </g>
    </g>
    <path style="fill:#f55;fill-opacity:1;fill-rule:evenodd;stroke:none;stroke-width:.69999999;stroke-linecap:butt;stroke-linejoin:miter;stroke-miterlimit:4;stroke-dasharray:none;stroke-opacity:1" d="m-112.91922 493.30292-1.11523 1.02735 1.11523 1.02734 1.11328-1.02734-1.11328-1.02735z" transform="matrix(1.87489 0 0 1.87489 271.681768 -807.60931)"/>
  </g>
  <g>
    <path d="m-92.576762 500.24826.58501-16.96539c-1.25087 5.71528-10.132188 5.06842-10.237668 0-1.94574 7.38049-10.80876 3.8801-10.18146 0 .62729 3.8801-8.23573 7.38049-10.18147 0-.10548 5.06842-8.98679 5.71528-10.23766 0l.58501 16.96539h19.83412z" style="fill:#ffd21f;fill-opacity:1;fill-rule:evenodd;stroke:#a27600;stroke-width:.69999999;stroke-linecap:butt;stroke-linejoin:miter;stroke-miterlimit:4;stroke-dasharray:none;stroke-opacity:1" transform="matrix(1.87489 0 0 1.87489 389.68177 -807.60931)"/>
    <g style="stroke-width:1.74179101;stroke-miterlimit:4;stroke-dasharray:none">
      <path style="color:#000;font-style:normal;font-variant:normal;font-weight:400;font-stretch:normal;font-size:medium;line-height:normal;font-family:sans-serif;text-indent:0;text-align:start;text-decoration:none;text-decoration-line:none;text-decoration-style:solid;text-decoration-color:#000;letter-spacing:normal;word-spacing:normal;text-transform:none;direction:ltr;block-progression:tb;writing-mode:lr-tb;baseline-shift:baseline;text-anchor:start;white-space:normal;clip-rule:nonzero;display:inline;overflow:visible;visibility:visible;opacity:1;isolation:auto;mix-blend-mode:normal;color-interpolation:sRGB;color-interpolation-filters:linearRGB;solid-color:#000;solid-opacity:1;fill:#ffd21f;fill-opacity:1;fill-rule:evenodd;stroke:#a27600;stroke-width:1.74179101;stroke-linecap:butt;stroke-linejoin:miter;stroke-miterlimit:4;stroke-dasharray:none;stroke-dashoffset:0;stroke-opacity:1;color-rendering:auto;image-rendering:auto;shape-rendering:auto;text-rendering:auto;enable-background:accumulate" d="M-95.008252 480.68815c3.59558.23864 4.37156-5.01129 0-5.22772H-209.47318c-4.37155.21643-3.59557 5.46626 0 5.22772h60.06994z" transform="matrix(.66076 0 0 .85924 279.4551363 -280.82464461)"/>
      <path style="color:#000;font-style:normal;font-variant:normal;font-weight:400;font-stretch:normal;font-size:medium;line-height:normal;font-family:sans-serif;text-indent:0;text-align:start;text-decoration:none;text-decoration-line:none;text-decoration-style:solid;text-decoration-color:#000;letter-spacing:normal;word-spacing:normal;text-transform:none;direction:ltr;block-progression:tb;writing-mode:lr-tb;baseline-shift:baseline;text-anchor:start;white-space:normal;clip-rule:nonzero;display:inline;overflow:visible;visibility:visible;opacity:1;isolation:auto;mix-blend-mode:normal;color-interpolation:sRGB;color-interpolation-filters:linearRGB;solid-color:#000;solid-opacity:1;fill:#ffe88b;fill-opacity:1;fill-rule:evenodd;stroke:none;stroke-width:1.74179101;stroke-linecap:butt;stroke-linejoin:miter;stroke-miterlimit:4;stroke-dasharray:none;stroke-dashoffset:0;stroke-opacity:1;color-rendering:auto;image-rendering:auto;shape-rendering:auto;text-rendering:auto;enable-background:accumulate" d="M-93.359312 477.87323c.0235-.3156-.0627-.59423-.28079-.82705-.21799-.2329-.61161-.47489-1.43456-.51564H-209.40686h.00005c-.82295.0408-1.2166.28285-1.43457.51564-.21799.23289-.30417.51145-.28078.82705z" transform="matrix(.66076 0 0 .85924 279.4551363 -280.82464461)"/>
    </g>
    <g style="stroke-width:1.74179101;stroke-miterlimit:4;stroke-dasharray:none">
      <path d="M-95.008252 480.68815c3.59558.23864 4.37156-5.01129 0-5.22772H-209.47318c-4.37155.21643-3.59557 5.46626 0 5.22772h60.06994z" style="color:#000;font-style:normal;font-variant:normal;font-weight:400;font-stretch:normal;font-size:medium;line-height:normal;font-family:sans-serif;text-indent:0;text-align:start;text-decoration:none;text-decoration-line:none;text-decoration-style:solid;text-decoration-color:#000;letter-spacing:normal;word-spacing:normal;text-transform:none;direction:ltr;block-progression:tb;writing-mode:lr-tb;baseline-shift:baseline;text-anchor:start;white-space:normal;clip-rule:nonzero;display:inline;overflow:visible;visibility:visible;opacity:1;isolation:auto;mix-blend-mode:normal;color-interpolation:sRGB;color-interpolation-filters:linearRGB;solid-color:#000;solid-opacity:1;fill:#ffd21f;fill-opacity:1;fill-rule:evenodd;stroke:#a27600;stroke-width:1.74179101;stroke-linecap:butt;stroke-linejoin:miter;stroke-miterlimit:4;stroke-dasharray:none;stroke-dashoffset:0;stroke-opacity:1;color-rendering:auto;image-rendering:auto;shape-rendering:auto;text-rendering:auto;enable-background:accumulate" transform="matrix(.66076 0 0 .85924 279.5811214 -300.91990205)"/>
      <path d="M-93.359312 477.87323c.0235-.3156-.0627-.59423-.28079-.82705-.21799-.2329-.61161-.47489-1.43456-.51564H-209.40686h.00005c-.82295.0408-1.2166.28285-1.43457.51564-.21799.23289-.30417.51145-.28078.82705z" style="color:#000;font-style:normal;font-variant:normal;font-weight:400;font-stretch:normal;font-size:medium;line-height:normal;font-family:sans-serif;text-indent:0;text-align:start;text-decoration:none;text-decoration-line:none;text-decoration-style:solid;text-decoration-color:#000;letter-spacing:normal;word-spacing:normal;text-transform:none;direction:ltr;block-progression:tb;writing-mode:lr-tb;baseline-shift:baseline;text-anchor:start;white-space:normal;clip-rule:nonzero;display:inline;overflow:visible;visibility:visible;opacity:1;isolation:auto;mix-blend-mode:normal;color-interpolation:sRGB;color-interpolation-filters:linearRGB;solid-color:#000;solid-opacity:1;fill:#ffe88b;fill-opacity:1;fill-rule:evenodd;stroke:none;stroke-width:1.74179101;stroke-linecap:butt;stroke-linejoin:miter;stroke-miterlimit:4;stroke-dasharray:none;stroke-dashoffset:0;stroke-opacity:1;color-rendering:auto;image-rendering:auto;shape-rendering:auto;text-rendering:auto;enable-background:accumulate" transform="matrix(.66076 0 0 .85924 279.5811214 -300.91990205)"/>
    </g>
    <path transform="matrix(1.87489 0 0 1.87489 435.62588138 -1188.54464016)" d="M-138.15813 690.47465c-1.0956.70606-2.43676.94336-3.82227.94336-1.3855 0-2.72473-.2373-3.82031-.94336-.49856-.32129-.92905-.758-1.26953-1.28711-.34058.52953-.77264.96563-1.27149 1.28711-1.09558.70606-2.4348.94336-3.82031.94336s-2.72667-.2373-3.82227-.94336c-1.09559-.70605-1.8857-1.94268-2.0332-3.58399l-.004-.0391v-3.38867c-.11138-.43159-.13017-.89243-.4375-1.48437-.32172-.61967-.76586-1.76444-1.09375-2.38086-1.0184-1.91451-.76342-5.3112-1.35157-7.39844-.2524-.89572-1.08789-2.05664-1.08789-2.05664.44126-.1539.89741-.2277 1.35352-.2207 1.36833.0214 2.73429.77141 3.68164 2.27929 0 0 2.06929-.3778 2.57422 1.27539.52202 1.70917-1.88374 2.94758-1.5 5.25 1.60721.49473 1.99588-2.39494 3.63476-2.33594 1.5852.057 1.84766 2.34375 1.84766 2.34376 1.59732-.62209 2.14322.63925 2.33398 1.94531.19076 1.30607.0289 2.67049-1.67968 2.53125 0 0 .40108 2.26738-1.10157 2.77539-1.55356.52522-3.39331-2.6462-5.50586-1.88281l-.11328 2.64453c.11138 1.19813.56045 1.85076 1.28907 2.32031.73206.47178 1.80531.70117 3.01562.70117 1.21031 0 2.2816-.22939 3.01367-.70117.72861-.46955 1.17769-1.12219 1.28906-2.32031v-1.34571H-146.28516v1.34571c.11139 1.19813.56241 1.85076 1.29102 2.32031.73207.47178 1.80336.70117 3.01367.70117 1.21032 0 2.28356-.22939 3.01563-.70117.72861-.46955 1.17768-1.12218 1.28906-2.32031v-3.79297c-2.90889.1945-3.71083 2.54738-5.19727 2.27539-1.56028-.28551-1.49218-2.58789-1.49218-2.58789-1.67046.3847-2.02735-.9418-2.02735-2.26172s.35689-2.64642 2.02735-2.26172c0 0-.0681-2.30236 1.49218-2.58789 1.61315-.2952 2.41281 2.50892 3.93164 1.78711.047-2.33371-2.51172-3.21186-2.24218-4.97852.2607-1.70881 2.36328-1.63281 2.36328-1.63281-.35127-1.8294.69797-2.85156 1.90446-2.85156s2.25573 1.02216 1.90446 2.85156c0 0 2.10259-.076 2.36329 1.63281.26954 1.76666-2.28918 2.64481-2.24218 4.97852 1.51882.72181 2.31849-2.08231 3.93164-1.78711 1.56029.28553 1.49218 2.58789 1.49218 2.58789 1.67046-.3847 2.02734.9418 2.02734 2.26172s-.35689 2.64642-2.02734 2.26172c0 0 .0681 2.30238-1.49218 2.58789-1.48644.27199-2.28838-2.08089-5.19727-2.27539v3.79297c.11138 1.19813.56045 1.85076 1.28906 2.32031.73206.47178 1.80531.70117 3.01563.70117 1.21031 0 2.2816-.22939 3.01367-.70117.72861-.46955 1.17963-1.12218 1.29102-2.32031v-1.34571H-125.97228v1.34571c.11137 1.19812.56045 1.85076 1.28906 2.32031.73207.47178 1.80336.70117 3.01367.70117 1.21031 0 2.28356-.22939 3.01562-.70117.72862-.46955 1.17769-1.12218 1.28907-2.32031l-.11328-2.64453c-2.11255-.76339-3.9523 2.40803-5.50586 1.88281-1.50265-.50801-1.10157-2.77539-1.10157-2.77539-1.70854.13924-1.87044-1.22518-1.67968-2.53125.19076-1.30606.73666-2.5674 2.33398-1.94531 0-.00001.26246-2.28674 1.84766-2.34376 1.63888-.059 2.02755 2.83067 3.63476 2.33594.38374-2.30242-2.02202-3.54083-1.5-5.25.50493-1.65319 2.57422-1.27539 2.57422-1.27539.94735-1.50788 2.31331-2.25793 3.68164-2.27929.45611-.007.91226.0668 1.35352.2207 0 0-.83549 1.16092-1.08789 2.05664-.58815 2.08724-.33317 5.48393-1.35157 7.39844-.32789.61642-.77203 1.76119-1.09375 2.38086-.30733.59194-.32612 1.05278-.4375 1.48437v3.38867l-.004.0391c-.1475 1.64131-.93761 2.87794-2.0332 3.58399-1.0956.70606-2.43676.94336-3.82227.94336s-2.72473-.2373-3.82031-.94336c-.49885-.32148-.93091-.75758-1.27149-1.28711-.34048.52911-.77097.96582-1.26953 1.28711-1.09558.70606-2.43481.94336-3.82031.94336-1.38551 0-2.72667-.2373-3.82227-.94336-.49855-.32129-.92946-.758-1.24229-1.28711-.31282.52911-.74373.96582-1.24228 1.28711z" style="color:#000;font-style:normal;font-variant:normal;font-weight:400;font-stretch:normal;font-size:medium;line-height:normal;font-family:sans-serif;text-indent:0;text-align:start;text-decoration:none;text-decoration-line:none;text-decoration-style:solid;text-decoration-color:#000;letter-spacing:normal;word-spacing:normal;text-transform:none;direction:ltr;block-progression:tb;writing-mode:lr-tb;baseline-shift:baseline;text-anchor:start;white-space:normal;clip-rule:nonzero;display:inline;overflow:visible;visibility:visible;opacity:1;isolation:auto;mix-blend-mode:normal;color-interpolation:sRGB;color-interpolation-filters:linearRGB;solid-color:#000;solid-opacity:1;fill:#ffd21f;fill-opacity:1;fill-rule:evenodd;stroke:#a27600;stroke-width:.69999999;stroke-linecap:butt;stroke-linejoin:miter;stroke-miterlimit:4;stroke-dasharray:none;stroke-dashoffset:0;stroke-opacity:1;color-rendering:auto;image-rendering:auto;shape-rendering:auto;text-rendering:auto;enable-background:accumulate"/>
    <path d="M-112.41089 468.42412c-.35495.75652-1.12358 1.23165-1.95898 1.21094.10226.13911.16481.23378.35742.46875.44506.54294 1.0825 3.10933 1.4043 5.06836.0822-.14618.15148-.30026.19726-.46484.0455.16373.1157.31736.19727.46289.32192-1.95877.9594-4.52367 1.4043-5.06641.19261-.23497.25516-.32964.35742-.46875-.8354.0207-1.60404-.45442-1.95899-1.21094zm.19727 6.7461c-.0972.59137-.17158 1.14058-.19531 1.54492v1.09961h.002c.28521-.11077.59113-.15807.89649-.13867 2.00562.1341 3.45415 1.11102 4.27734 1.74609.0862.0665.0894.064.16406.12109 0-.0005.002-.0156.002-.0156-.0326-1.15179.86633-2.11606 2.01758-2.16406.014-.0968.01-.0358.01-.16016s.004-.0634-.01-.16016c-1.11246-.0477-1.99562-.95309-2.01562-2.0664-.30583.3001-.6685.68996-1.35157 1.03125-.72167.36053-1.95116.47327-2.87304.0351-.39583-.18913-.71328-.4974-.92383-.87304zm-.19531 1.54492-.002-2.00781-.002 2.00781c.00015.003.002.007.002.01.00015-.003.002-.007.002-.01zm-.004 0c-.0237-.40384-.0983-.95247-.19531-1.54297-.21057.37461-.5288.68234-.92383.87109-.92188.43812-2.15137.32538-2.87305-.0351-.68306-.34129-1.04573-.73115-1.35156-1.03125-.02 1.11331-.90316 2.01868-2.01562 2.0664-.014.0968-.01.0358-.01.16016 0 .12438-.004.0634.01.16016 1.15125.048 2.05021 1.01227 2.01757 2.16406 0 0 .002.0151.002.0156.0747-.0571.0779-.0546.16406-.12109.82319-.63507 2.27172-1.61199 4.27734-1.74609.30535-.0194.61128.0279.89649.13867h.002v-1.09961zm-22.58594-6.32227c.094.759.24676 1.54321.31836 2.24805.0489.48118.00066 1.48194.16602 2.42773.1619.92595.53622 1.79941.61914 2.07813.12697-1.3028.23976-4.82291.625-5.46289.15695-.26072.20405-.36514.28516-.51758-.76233.13155-1.53543-.16539-2.01368-.77344zm45.175795 0c-.47826.60805-1.25135.90499-2.01368.77344.08111.15244.12821.25686.28516.51758.38524.63998.49803 4.16009.625 5.46289.08292-.27872.45724-1.15218.61914-2.07813.16536-.94579.11712-1.94655.16602-2.42773.07161-.70484.22436-1.48905.31836-2.24805zm-38.148445 5.50586c-.25946.34093-.56159.77937-1.1875 1.21485-.66205.4606-3.57522 1.09228-4.4375 1.42578.90949.52506 3.40347.23461 4.00781.45703.80644.29682 1.40411.70809 1.89648 1.04687.16719.11504.22254.14304.36329.23828-.12878-1.09721.61208-2.10747 1.69726-2.31445-.00006-.0979.004-.0368-.0137-.16015-.0179-.12243-.005-.0629-.0332-.15626-1.10715.11357-2.11157-.65387-2.29297-1.75195zm31.121095 0c-.1814 1.09808-1.18582 1.86552-2.29297 1.75195-.0282.0934-.0153.0338-.0332.15626-.0177.12334-.01361.0623-.01367.16015 1.08519.20698 1.82604 1.21724 1.69726 2.31445.14075-.0952.19608-.12324.36328-.23828.49236-.33878 1.09005-.75005 1.89649-1.04687.60434-.22242 3.09832.068 4.00781-.45703-.86228-.3335-3.77545-.96518-4.4375-1.42578-.62591-.43548-.92804-.87392-1.1875-1.21485z" style="color:#000;font-style:normal;font-variant:normal;font-weight:400;font-stretch:normal;font-size:medium;line-height:normal;font-family:sans-serif;text-indent:0;text-align:start;text-decoration:none;text-decoration-line:none;text-decoration-style:solid;text-decoration-color:#000;letter-spacing:normal;word-spacing:normal;text-transform:none;direction:ltr;block-progression:tb;writing-mode:lr-tb;baseline-shift:baseline;text-anchor:start;white-space:normal;clip-rule:nonzero;display:inline;overflow:visible;visibility:visible;opacity:1;isolation:auto;mix-blend-mode:normal;color-interpolation:sRGB;color-interpolation-filters:linearRGB;solid-color:#000;solid-opacity:1;fill:#dcb20b;fill-opacity:1;fill-rule:evenodd;stroke:none;stroke-width:.69999999;stroke-linecap:butt;stroke-linejoin:miter;stroke-miterlimit:4;stroke-dasharray:none;stroke-dashoffset:0;stroke-opacity:1;color-rendering:auto;image-rendering:auto;shape-rendering:auto;text-rendering:auto;enable-background:accumulate" transform="matrix(1.87489 0 0 1.87489 389.68177 -807.60931)"/>
    <g transform="matrix(1.87489 0 0 1.87489 389.81309968 -807.60931)">
      <circle r="1.7252479" cy="476.75375" cx="-112.48093" style="display:inline;fill:#ececec;fill-opacity:1;stroke:#a1a19d;stroke-width:.69999999;stroke-linejoin:miter;stroke-miterlimit:4;stroke-dasharray:none;stroke-dashoffset:0;stroke-opacity:1"/>
      <circle style="display:inline;fill:#fff;fill-opacity:1;stroke:none;stroke-width:.65376556;stroke-linejoin:miter;stroke-miterlimit:4;stroke-dasharray:none;stroke-dashoffset:0;stroke-opacity:1" cx="-112.62302" cy="476.61166" r=".94350904"/>
      <g style="stroke-width:.65376556;stroke-miterlimit:4;stroke-dasharray:none" transform="translate(-13.143871 -31.826632) scale(1.07072)">
        <circle r="1.6112967" cy="476.79153" cx="-112.93032" style="display:inline;fill:#ececec;fill-opacity:1;stroke:#a1a19d;stroke-width:.65376556;stroke-linejoin:miter;stroke-miterlimit:4;stroke-dasharray:none;stroke-dashoffset:0;stroke-opacity:1"/>
        <circle style="display:inline;fill:#fff;fill-opacity:1;stroke:none;stroke-width:.65376556;stroke-linejoin:miter;stroke-miterlimit:4;stroke-dasharray:none;stroke-dashoffset:0;stroke-opacity:1" cx="-113.06303" cy="476.65884" r=".88119102"/>
      </g>
      <g transform="translate(30.015569 -31.826632) scale(1.07072)" style="stroke-width:.65376556;stroke-miterlimit:4;stroke-dasharray:none">
        <circle style="display:inline;fill:#ececec;fill-opacity:1;stroke:#a1a19d;stroke-width:.65376556;stroke-linejoin:miter;stroke-miterlimit:4;stroke-dasharray:none;stroke-dashoffset:0;stroke-opacity:1" cx="-112.93032" cy="476.79153" r="1.6112967"/>
        <circle r=".88119102" cy="476.65884" cx="-113.06303" style="display:inline;fill:#fff;fill-opacity:1;stroke:none;stroke-width:.65376556;stroke-linejoin:miter;stroke-miterlimit:4;stroke-dasharray:none;stroke-dashoffset:0;stroke-opacity:1"/>
      </g>
      <g style="stroke-width:.65376556;stroke-miterlimit:4;stroke-dasharray:none" transform="translate(-1.8443377 -27.872669) scale(1.07072)">
        <circle r="1.6112967" cy="476.79153" cx="-112.93032" style="display:inline;fill:#ececec;fill-opacity:1;stroke:#a1a19d;stroke-width:.65376556;stroke-linejoin:miter;stroke-miterlimit:4;stroke-dasharray:none;stroke-dashoffset:0;stroke-opacity:1"/>
        <circle style="display:inline;fill:#fff;fill-opacity:1;stroke:none;stroke-width:.65376556;stroke-linejoin:miter;stroke-miterlimit:4;stroke-dasharray:none;stroke-dashoffset:0;stroke-opacity:1" cx="-113.06303" cy="476.65884" r=".88119102"/>
      </g>
      <g transform="translate(18.716036 -27.872669) scale(1.07072)" style="stroke-width:.65376556;stroke-miterlimit:4;stroke-dasharray:none">
        <circle style="display:inline;fill:#ececec;fill-opacity:1;stroke:#a1a19d;stroke-width:.65376556;stroke-linejoin:miter;stroke-miterlimit:4;stroke-dasharray:none;stroke-dashoffset:0;stroke-opacity:1" cx="-112.93032" cy="476.79153" r="1.6112967"/>
        <circle r=".88119102" cy="476.65884" cx="-113.06303" style="display:inline;fill:#fff;fill-opacity:1;stroke:none;stroke-width:.65376556;stroke-linejoin:miter;stroke-miterlimit:4;stroke-dasharray:none;stroke-dashoffset:0;stroke-opacity:1"/>
      </g>
    </g>
    <path style="fill:#f00000;fill-opacity:1;fill-rule:evenodd;stroke:#a00;stroke-width:.69999999;stroke-linecap:butt;stroke-linejoin:miter;stroke-miterlimit:4;stroke-dasharray:none;stroke-opacity:1" d="m-112.41087 497.35696-2.94013-2.70894 2.94013-2.70894 2.94012 2.70894z" transform="matrix(1.87489 0 0 1.87489 389.68177 -807.60931)"/>
    <g>
      <path style="fill:#f00000;fill-opacity:1;fill-rule:evenodd;stroke:#a00;stroke-width:.69999999;stroke-linecap:butt;stroke-linejoin:miter;stroke-miterlimit:4;stroke-dasharray:none;stroke-opacity:1" d="m-132.44625 497.43288-2.28199-2.70894 2.28199-2.70894 2.94012 2.70894zM-92.241117 497.43288l2.28199-2.70894-2.28199-2.70894-2.94012 2.70894z" transform="matrix(1.87489 0 0 1.87489 389.55578396 -807.75164347)"/>
      <path d="m-132.4191 492.75121-1.07226 1.27344 1.07226 1.27344 1.38281-1.27344-1.38281-1.27344zM-92.274258 492.88012l-1.24414 1.14453 1.24414 1.14453.962891-1.14453-.962891-1.14453z" style="fill:#f55;fill-opacity:1;fill-rule:evenodd;stroke:none;stroke-width:.69999999;stroke-linecap:butt;stroke-linejoin:miter;stroke-miterlimit:4;stroke-dasharray:none;stroke-opacity:1" transform="matrix(1.87489 0 0 1.87489 389.55578396 -807.75164347)"/>
    </g>
    <g>
      <g transform="matrix(1.87489 0 0 1.87489 387.36553795 -807.60931)">
        <circle style="display:inline;fill:#ececec;fill-opacity:1;stroke:#a1a19d;stroke-width:.5902909;stroke-linejoin:miter;stroke-miterlimit:4;stroke-dasharray:none;stroke-dashoffset:0;stroke-opacity:1" cx="-121.17548" cy="492.83084" r="1.4548545"/>
        <circle r=".79563546" cy="492.711" cx="-121.2953" style="display:inline;fill:#fff;fill-opacity:1;stroke:none;stroke-width:.65376556;stroke-linejoin:miter;stroke-miterlimit:4;stroke-dasharray:none;stroke-dashoffset:0;stroke-opacity:1"/>
      </g>
      <g transform="matrix(1.87489 0 0 1.87489 387.36553795 -800.79527277)">
        <circle r="1.4548545" cy="492.83084" cx="-121.17548" style="display:inline;fill:#ececec;fill-opacity:1;stroke:#a1a19d;stroke-width:.5902909;stroke-linejoin:miter;stroke-miterlimit:4;stroke-dasharray:none;stroke-dashoffset:0;stroke-opacity:1"/>
        <circle style="display:inline;fill:#fff;fill-opacity:1;stroke:none;stroke-width:.65376556;stroke-linejoin:miter;stroke-miterlimit:4;stroke-dasharray:none;stroke-dashoffset:0;stroke-opacity:1" cx="-121.2953" cy="492.711" r=".79563546"/>
      </g>
      <g>
        <g transform="matrix(1.87489 0 0 1.87489 424.86333595 -807.60931)">
          <circle r="1.4548545" cy="492.83084" cx="-121.17548" style="display:inline;fill:#ececec;fill-opacity:1;stroke:#a1a19d;stroke-width:.5902909;stroke-linejoin:miter;stroke-miterlimit:4;stroke-dasharray:none;stroke-dashoffset:0;stroke-opacity:1"/>
          <circle style="display:inline;fill:#fff;fill-opacity:1;stroke:none;stroke-width:.65376556;stroke-linejoin:miter;stroke-miterlimit:4;stroke-dasharray:none;stroke-dashoffset:0;stroke-opacity:1" cx="-121.2953" cy="492.711" r=".79563546"/>
        </g>
        <g transform="matrix(1.87489 0 0 1.87489 424.86333595 -800.79527277)">
          <circle style="display:inline;fill:#ececec;fill-opacity:1;stroke:#a1a19d;stroke-width:.5902909;stroke-linejoin:miter;stroke-miterlimit:4;stroke-dasharray:none;stroke-dashoffset:0;stroke-opacity:1" cx="-121.17548" cy="492.83084" r="1.4548545"/>
          <circle r=".79563546" cy="492.711" cx="-121.2953" style="display:inline;fill:#fff;fill-opacity:1;stroke:none;stroke-width:.65376556;stroke-linejoin:miter;stroke-miterlimit:4;stroke-dasharray:none;stroke-dashoffset:0;stroke-opacity:1"/>
        </g>
      </g>
    </g>
    <path d="m-112.91922 493.30292-1.11523 1.02735 1.11523 1.02734 1.11328-1.02734-1.11328-1.02735z" style="fill:#f55;fill-opacity:1;fill-rule:evenodd;stroke:none;stroke-width:.69999999;stroke-linecap:butt;stroke-linejoin:miter;stroke-miterlimit:4;stroke-dasharray:none;stroke-opacity:1" transform="matrix(1.87489 0 0 1.87489 389.68177 -807.60931)"/>
  </g>
</svg>
