<?xml version="1.0" encoding="UTF-8"?>
<!-- Created with Inkscape (http://www.inkscape.org/) -->
<svg width="200mm" height="200mm" version="1.1" viewBox="0 0 200 200" xmlns="http://www.w3.org/2000/svg">
 <g transform="translate(-407.11 -92.744)">
  <g>
   <path d="m507.11 97.306 95.438 95.438-95.438 95.438-95.438-95.438z" fill="#231f20" stroke="#231f20" stroke-linecap="round" stroke-width="6.4521" style="paint-order:markers stroke fill"/>
   <path d="m453.6 188.16 1.402 14.02c1.402 4.2068 3.5051 7.0109 7.0109 9.1132v7.0109h-18.928c-0.70101 1.4013-0.70101 2.103 0 3.5043l16.123 15.424c1.402 2.8033 4.9071 4.2053 8.4122 3.5043l13.32 0.70102-6.3099-4.9078-5.6074 0.7025c0.70101-1.402 0.70101-2.1038 0-3.5066h-1.4028c0 0.7025 0 2.1045-0.70101 3.5066-4.9064 0-5.6081 0-5.6081-4.9086-3.5051-2.1023-6.3091-4.9064-9.8142-7.0094-0.70175-0.70102 0-0.70102 0-1.402l21.03 2.1023c2.103 0 2.8048-1.4013 3.5051-2.8033 2.8048 4.2061 5.6088 2.103 9.8149 0.70101 6.3091-2.1038 12.618-4.2068 18.226-7.7111 2.804-1.4028 5.6088-2.8041 8.4129-4.2068 3.5043 5.6081 10.515 6.3098 23.134 4.2068 1.4013-0.70102 2.1023-1.4028 2.804-1.4028 4.2061-0.70027 9.8142 0 14.721 1.4028 3.5043 2.8033 9.8142 7.7111 10.515 8.4122 0.70176 0 9.8149 1.4013 9.8149-4.9078l6.3084-7.0101h-7.0101l-2.804 7.0101c0-1.4013 0-2.8033-0.70101-4.2053h-2.103c1.402 1.402 0.70101 3.5043 0.70101 4.9071-4.2061 1.4013-5.6081-2.103-4.2061-4.2061-4.9071 1.4013-7.0109-2.8041-9.8142-4.2068v-2.8033l-14.721-1.4028c-1.4028-8.4122-1.4028-9.8142-9.1146-12.618l-2.1023-3.5058c2.1023 0 4.2068-0.70027 5.6088-1.4013 1.4013 0 0-4.2068-0.7025-4.2068-2.804 2.1038-4.9064 2.8048-7.7104 3.5058-4.9071-1.402-11.216-0.70102-18.227 1.402-5.6081 1.4028-11.216 1.4028-17.525 0.70027l-0.70101 0.7025c-4.9071-4.2068-9.8142-2.8048-10.516-2.1038h-4.2053c-2.103-6.3091-6.3099-9.1132-10.516-14.02 4.9078 0 9.1132 1.402 12.618 0-0.70027-2.8041-4.2053-3.5058-5.6081-4.2068 7.7112-1.402 16.124-4.2061 21.732-7.0101 6.3091 2.103 10.516 3.5051 16.824 3.5051 9.1132-2.804 13.319-5.6088 15.424-9.1132 0.70027-3.5058 1.4013-7.0109 1.4013-10.516l-1.4013-0.70027c-1.4028 8.4122-2.1045 12.618-10.516 14.721 1.402-2.8033 1.402-6.3084 1.402-9.1124l-2.8041-1.4028c0.70102 13.32-2.804 14.722-14.722 11.918-0.70102-2.804 0.70101-5.6081 2.804-7.7111 3.5051-4.2068 6.3091-8.4122 9.1139-12.619l14.722-7.0101c2.804-2.804 0.70027-11.216-1.4028-15.423l-2.1038 0.70176c2.8048 7.0101 3.5066 12.618 0 14.02l-0.70027-4.9071h-1.4028v5.6081c-3.5043 1.402-6.3084 2.103-9.1124 3.5051l1.4013-18.226c0.70175-10.515-4.9071-14.721-12.618-14.721v2.1023c6.3099 1.402 11.217 2.8048 9.1132 10.516-2.1023-3.5058-6.3091-4.2068-9.1132-3.5058v2.1038c6.3099-1.4028 9.8142 2.8033 9.1132 11.917 0 5.6081-2.8033 16.825-6.3091 20.329-0.70101-6.3091-1.402-10.515-2.804-14.02l-1.402 0.70101c1.402 5.6081 2.8041 11.216 0 16.825-3.5051 6.3091-8.4122 9.1132-13.319 11.216 0.70102-4.9071 0.70102-9.8149 0-14.722h-2.103c0 4.9071 0.70101 11.917-2.1038 15.423-7.0101 2.103-14.721 4.9071-22.432 4.9071v-2.103h-1.402l-1.402 2.8041h-1.402c-0.70176-2.8041-0.70176-7.7112 1.402-9.8142h-2.804c-0.70175 1.402-0.70175 2.8041-1.402 4.2061-2.103 0.70102-2.804-2.103-2.804-3.5058l-2.1038-0.70028c0 4.9071 2.1038 5.6081 4.9078 7.0101l0.70028 3.5051c-2.1023 0.70175-4.9064 0.70175-6.3084 2.1038-4.2068 0.70027-9.1132 0.70027-13.32 0.70027l1.402 1.402c0.70101 2.103 1.4028 3.5051 3.5058 5.6088h4.2053l0.70175 1.402-4.2061 0.70101c0.70027 0.70028 0.70027 0.70028 2.1023 0.70028h4.2068c2.8041 2.1038 6.3091 3.5058 10.515 2.8048" fill="#fff"/>
   <path d="m446.59 175.54 2.103 0.70175-1.402 0.70102z" fill="#fff" stroke="#231f20" stroke-miterlimit="10" stroke-width=".74103"/>
  </g>
 </g>
</svg>
