<?xml version="1.0" encoding="UTF-8" standalone="no"?>
<!-- Created with Inkscape (http://www.inkscape.org/) -->
<svg
   xmlns:dc="http://purl.org/dc/elements/1.1/"
   xmlns:cc="http://creativecommons.org/ns#"
   xmlns:rdf="http://www.w3.org/1999/02/22-rdf-syntax-ns#"
   xmlns:svg="http://www.w3.org/2000/svg"
   xmlns="http://www.w3.org/2000/svg"
   xmlns:sodipodi="http://sodipodi.sourceforge.net/DTD/sodipodi-0.dtd"
   xmlns:inkscape="http://www.inkscape.org/namespaces/inkscape"
   version="1.0"
   width="600"
   height="660"
   id="svg2"
   sodipodi:version="0.32"
   inkscape:version="0.46"
   sodipodi:docname="Blason_département_fr_Seine-Maritime.svg"
   inkscape:output_extension="org.inkscape.output.svg.inkscape">
  <metadata
     id="metadata2471">
    <rdf:RDF>
      <cc:Work
         rdf:about="">
        <dc:format>image/svg+xml</dc:format>
        <dc:type
           rdf:resource="http://purl.org/dc/dcmitype/StillImage" />
      </cc:Work>
    </rdf:RDF>
  </metadata>
  <sodipodi:namedview
     inkscape:window-height="1044"
     inkscape:window-width="1904"
     inkscape:pageshadow="2"
     inkscape:pageopacity="0.0"
     guidetolerance="10.0"
     gridtolerance="10.0"
     objecttolerance="10.0"
     borderopacity="1.0"
     bordercolor="#666666"
     pagecolor="#ffffff"
     id="base"
     showgrid="false"
     showguides="true"
     inkscape:guide-bbox="true"
     inkscape:zoom="0.5"
     inkscape:cx="554.88614"
     inkscape:cy="133.41499"
     inkscape:window-x="0"
     inkscape:window-y="0"
     inkscape:current-layer="svg2" />
  <defs
     id="defs6" />
  <path
     id="path2855"
     style="fill:#ce0f25;fill-opacity:1;fill-rule:evenodd;stroke:#640000;stroke-width:2.99000335;stroke-linecap:butt;stroke-linejoin:miter;stroke-miterlimit:4;stroke-dasharray:none;stroke-opacity:1"
     d="M 299.99978,657.40536 C 299.99978,657.40536 597.50512,545.45933 597.50512,260.959 C 597.50512,-23.541335 597.50512,3.2688593 597.50512,3.2688593 L 2.4944485,3.2688593 L 2.4944485,260.959 C 2.4944485,545.45933 299.99978,657.40536 299.99978,657.40536 z" />
  <g
     style="stroke-width:0.90909094;stroke-miterlimit:4;stroke-dasharray:none"
     transform="matrix(1.631829,0,0,1.9025294,-3292.0202,380.7309)"
     id="g9789-3-0">
    <g
       transform="matrix(1.9487171,0,0,1.9487171,1190.944,329.39578)"
       id="g5915-3-0-8-7-6"
       style="stroke-width:0.46650738;stroke-miterlimit:4;stroke-dasharray:none">
      <g
         id="g5810-8-5-0-7-5"
         style="stroke-width:0.46650738;stroke-miterlimit:4;stroke-dasharray:none">
        <path
           sodipodi:nodetypes="cscsccsccsccsccssscscsssscsccccc"
           id="path13429-8-0-02-6-2-3-7"
           d="M 469.89172,-189.44346 C 469.89172,-189.44346 466.67842,-189.46856 465.39173,-190.2219 C 463.99244,-191.04121 462.49409,-193.93737 462.49409,-193.93737 C 462.49409,-193.93737 458.95129,-193.36217 457.32245,-193.71507 C 455.62059,-194.0838 453.18475,-196.0304 453.18475,-196.0304 C 454.81175,-196.27055 456.02681,-196.51607 457.60229,-197.79048 C 457.60229,-197.79048 454.46614,-197.95652 452.67986,-198.64418 C 451.1247,-199.24288 448.58705,-201.22687 448.58705,-201.22687 C 450.03711,-201.58681 451.60498,-201.54216 452.74712,-202.95945 C 452.74712,-202.95945 449.6755,-202.93175 448.28385,-203.44023 C 446.89461,-203.94782 444.68879,-205.90185 444.68879,-205.90185 C 446.37681,-206.04838 447.9824,-206.36146 449.06779,-207.72562 C 449.06779,-207.72562 445.95665,-207.61995 444.63855,-208.1376 C 442.81868,-208.85238 440.03437,-211.23407 440.03437,-211.23407 C 441.78521,-211.36597 443.52673,-211.51676 444.85116,-212.51019 L 443.86675,-214.50887 C 442.67851,-216.92181 440.18971,-216.07061 438.53578,-216.73568 C 436.91142,-217.38886 436.00075,-219.16976 435.91214,-220.16789 C 435.75589,-221.92859 436.65599,-224.61805 440.62934,-224.05644 C 438.6535,-227.0673 440.71064,-229.23032 442.81304,-230.09632 C 444.83263,-230.92865 446.61622,-230.70133 447.9876,-227.40588 C 447.9876,-227.40588 449.83095,-228.89668 450.82967,-229.11765 C 452.21984,-229.4252 453.78688,-228.96404 454.28101,-227.66268 C 454.48418,-227.12761 454.55826,-226.00851 454.21751,-225.34044 C 453.67854,-224.28378 452.49135,-223.5599 452.10358,-222.01435 C 451.66453,-220.26449 453.28125,-217.21133 453.28125,-217.21133 C 453.28125,-217.21133 460.91834,-211.16097 464.4316,-207.84714 C 466.30095,-206.08392 469.6959,-202.26811 469.6959,-202.26811 L 469.88352,-202.3768 L 477.4538,-202.3768 L 478.12972,-189.60401 L 469.89177,-189.44346 L 469.89172,-189.44346 z"
           style="fill:#e4c900;fill-opacity:1;stroke:#806600;stroke-width:0.46650738;stroke-linecap:butt;stroke-linejoin:miter;stroke-miterlimit:4;stroke-dasharray:none;stroke-opacity:1" />
        <path
           sodipodi:nodetypes="csccccscssssscssscssscccccccccc"
           transform="translate(-265.2681,-795.8822)"
           id="path5784-48-8-4-2-34"
           d="M 728.66998,600.08634 C 728.66998,600.08634 730.8132,603.0953 732.01359,603.66879 C 733.16292,604.21789 735.35721,603.66879 735.35721,603.66879 L 734.64072,602.11639 L 733.6854,602.11639 C 731.19276,599.12118 729.06404,595.60092 729.74471,591.60788 C 729.74471,591.60788 726.91406,588.46836 725.20694,586.9507 C 722.96234,584.95521 716.96731,580.50229 716.96731,580.50229 C 716.96731,580.50229 715.59501,577.17486 715.41491,574.88979 C 715.33521,573.87809 715.54526,572.80555 716.01199,571.90441 C 716.49112,570.97933 717.89696,570.64319 718.16146,569.63553 C 718.24476,569.31804 718.13376,568.93152 717.92263,568.68021 C 717.67044,568.38006 717.23925,568.17951 716.84789,568.20255 C 715.36908,568.28955 713.02661,570.47143 713.02661,570.47143 C 713.02661,570.47143 711.56182,567.83913 710.28007,567.24723 C 709.738,566.99691 709.04047,567.01874 708.48885,567.24723 C 707.96877,567.46265 707.45665,567.90225 707.2947,568.44138 C 706.78039,570.15348 708.36943,573.69564 708.36943,573.69564 C 708.36943,573.69564 704.92206,572.81915 703.59283,573.69564 C 703.08667,574.0294 702.82594,574.76326 702.87634,575.36745 C 702.93144,576.02765 703.41275,576.65314 703.95108,577.03926 C 705.41806,578.09147 709.20534,578.35282 709.20534,578.35282 L 713.62368,584.32357 L 708.96651,585.63713 C 710.74045,586.60274 712.13013,586.93046 716.96731,586.9507 C 715.98225,589.021 714.53761,589.73067 713.26544,590.65256 L 721.38566,591.84671 C 720.67964,593.87885 718.55726,594.06682 717.56438,594.9515 C 719.61734,596.31755 722.86063,596.79084 726.16226,597.22038 C 725.71653,598.88628 723.60851,599.30546 721.98274,600.08634 C 723.17025,600.57727 725.2542,600.23206 728.66998,600.08634 L 728.66998,600.08634 z"
           style="fill:#fee46e;fill-opacity:1;stroke:none" />
        <path
           style="fill:#ffefa7;fill-opacity:1;stroke:none"
           d="M 463.964,-201.37345 C 460.39391,-208.78959 454.20152,-212.81009 447.58346,-216.76949 C 451.55266,-209.33263 456.83827,-204.80557 463.964,-201.37345 z"
           id="path4316-0-8-3-5-8-5-30"
           sodipodi:nodetypes="ccc" />
      </g>
      <path
         sodipodi:nodetypes="csccc"
         id="path4318-6-3-4-90-3-3-6-4"
         d="M 453.42141,-228.71466 C 453.68738,-227.45268 453.15428,-226.54161 452.01106,-226.19391 C 451.44285,-226.02105 450.78589,-226.19333 450.10053,-226.90647 C 450.43019,-229.00275 450.26531,-229.82574 448.81861,-231.62015 C 452.43589,-230.84882 452.5732,-229.24707 453.42141,-228.71466 L 453.42141,-228.71466 z"
         style="fill:#377bc8;fill-opacity:1;stroke:#2c5aa0;stroke-width:0.46650738;stroke-linecap:butt;stroke-linejoin:miter;stroke-miterlimit:4;stroke-dasharray:none;stroke-opacity:1" />
      <path
         sodipodi:nodetypes="csccc"
         id="path4318-6-3-4-0-5-7-9-3-8"
         d="M 443.33752,-229.69243 C 444.10225,-228.65392 443.99434,-227.60387 443.09776,-226.81393 C 442.65216,-226.42127 441.98284,-226.306 441.06368,-226.67127 C 440.49557,-228.71585 440.00466,-229.39666 437.94471,-230.43081 C 441.55664,-231.22682 442.34498,-229.82576 443.33752,-229.69243 L 443.33752,-229.69243 z"
         style="fill:#377bc8;fill-opacity:1;stroke:#2c5aa0;stroke-width:0.46650738;stroke-linecap:butt;stroke-linejoin:miter;stroke-miterlimit:4;stroke-dasharray:none;stroke-opacity:1" />
      <path
         sodipodi:nodetypes="csccc"
         id="path4318-6-3-4-6-2-6-0-4-7"
         d="M 437.60965,-222.54844 C 438.73773,-221.92333 439.07745,-220.92392 438.59188,-219.8321 C 438.35057,-219.28941 437.79026,-218.90557 436.80251,-218.85434 C 435.43367,-220.47587 434.7036,-220.89 432.40007,-220.9711 C 435.35119,-223.20058 436.6519,-222.25579 437.60965,-222.54844 z"
         style="fill:#377bc8;fill-opacity:1;stroke:#2c5aa0;stroke-width:0.46650738;stroke-linecap:butt;stroke-linejoin:miter;stroke-miterlimit:4;stroke-dasharray:none;stroke-opacity:1" />
    </g>
    <g
       transform="matrix(1.9487171,0,0,1.9487171,1190.944,329.39578)"
       id="g5750-27-8-5-0-5"
       style="stroke-width:0.46650738;stroke-miterlimit:4;stroke-dasharray:none">
      <path
         style="fill:#e4c900;fill-opacity:1;stroke:#806600;stroke-width:0.46650738;stroke-linecap:butt;stroke-linejoin:miter;stroke-miterlimit:4;stroke-dasharray:none;stroke-opacity:1"
         d="M 513.50766,-183.58052 C 512.17339,-183.97007 510.54464,-185.72425 509.12939,-185.71625 C 507.63889,-185.70725 506.58803,-184.87583 505.83815,-183.75783 C 505.48032,-183.22436 506.04203,-181.22844 506.59957,-180.84518 L 509.16701,-179.08028 C 509.16701,-179.08028 507.55987,-177.23393 507.43808,-176.19448 C 507.33228,-175.29147 507.78583,-174.56649 508.43309,-173.85352 C 509.2771,-172.92401 509.48418,-172.5647 510.82898,-172.36884 C 511.63204,-172.25187 513.53243,-172.60261 513.53243,-172.60261 C 513.53243,-172.60261 513.48803,-171.12131 513.95753,-170.43766 C 514.80821,-169.19865 516.25263,-168.10636 517.90268,-168.28068 C 519.19127,-168.41663 519.60941,-168.61179 520.29043,-169.57086 C 520.83046,-170.33141 520.72248,-172.27544 521.59935,-173.07635 L 525.16549,-176.33352 C 526.70514,-175.40176 526.66427,-174.01277 526.47279,-172.5802 C 526.47279,-172.5802 528.76163,-174.02618 529.44259,-175.06221 C 530.15204,-176.14157 530.43254,-178.68976 530.43254,-178.68976 C 531.88168,-177.38258 532.36123,-176.21446 532.05063,-174.65275 C 532.05063,-174.65275 534.38066,-176.10768 535.13043,-177.13477 C 535.97442,-178.29091 536.70212,-180.78991 536.70212,-180.78991 C 537.7631,-179.75773 537.987,-178.28966 537.58208,-176.49413 C 537.58208,-176.49413 540.18585,-178.23863 540.88186,-179.64437 C 541.4321,-180.75572 541.76176,-182.69916 541.76176,-182.69916 C 544.92567,-182.46947 546.96889,-183.84623 547.10817,-185.27172 C 547.21616,-186.37721 545.96458,-187.88439 543.41711,-188.32195 C 543.41711,-188.32195 542.47671,-189.72623 542.12073,-190.76481 C 541.87604,-191.47869 541.85785,-192.29019 542.12073,-192.99917 C 542.6466,-194.41745 543.87215,-195.61079 545.12428,-196.63001 C 546.84659,-198.03196 550.59503,-199.79535 550.59503,-199.79535 L 549.49826,-205.28687 L 536.73319,-207.24192 L 522.62309,-203.76414 C 525.1948,-202.58414 530.95499,-198.54968 530.48471,-197.02049 C 530.30875,-196.4483 529.08337,-195.90635 528.49751,-195.14043 C 528.06602,-194.57634 528.39517,-193.67474 528.81931,-193.09226 C 529.41274,-192.27737 530.83057,-192.09012 531.28651,-191.32341 C 531.69681,-190.63344 531.88328,-190.01826 531.39381,-189.36834 C 530.42748,-188.08521 527.17757,-187.54622 525.60125,-186.85469 C 522.7286,-185.59444 517.86463,-182.84671 517.86463,-182.84671 C 516.35206,-182.64958 514.90224,-183.17336 513.50766,-183.58052 L 513.50766,-183.58052 z"
         id="path13429-0-9-3-6-2-6-9"
         sodipodi:nodetypes="ccscscscscsssccsccsccscscsssccccsssssscs" />
      <path
         style="fill:#ffe66f;fill-opacity:1;stroke:none"
         d="M 783.74369,614.99546 C 783.74369,614.99546 787.29029,613.12963 789.17367,612.19886 C 792.14323,610.7313 797.33421,610.3441 798.63904,607.29952 C 798.63904,607.29952 799.00805,606.62345 798.8873,605.68586 C 798.70654,604.28218 796.25931,603.12178 797.02538,601.58964 L 797.64602,600.34836 C 797.64602,600.34836 800.24913,601.46859 800.99747,602.33441 C 801.60548,603.03788 801.69292,604.20913 802.48701,604.69284 C 803.30281,605.18977 805.34195,604.9411 805.34195,604.9411 L 806.58323,608.5408 C 806.58323,608.5408 808.47325,608.5252 809.18991,609.4097 C 809.39991,609.66888 809.43958,610.09366 809.31404,610.40272 C 809.11462,610.89363 807.96661,611.0183 807.46661,611.19369 C 806.49052,611.53608 804.98405,610.4317 804.98405,610.4317 C 804.98405,610.4317 805.5067,612.87316 805.24947,613.66418 C 805.072,614.21091 804.38057,615.15372 804.38057,615.15372 C 803.83161,614.22091 803.47471,613.76708 800.99747,612.5129 C 800.99747,612.5129 800.69886,614.59417 800.03362,615.90096 C 799.72576,616.50572 798.79234,617.51462 798.79234,617.51462 C 798.79234,617.51462 798.22657,616.36609 797.79932,615.90096 C 796.99879,615.02944 794.66695,614.62307 794.66695,614.62307 C 794.66695,614.62307 794.20774,617.1764 793.55227,618.53682 C 793.31065,619.03831 792.89751,619.7781 792.89751,619.7781 C 792.89751,619.7781 792.45044,618.60633 792.02861,618.16443 C 791.52885,617.64088 790.16669,617.04728 790.16669,617.04728 L 785.35736,621.01937 C 785.35736,621.01937 784.62988,623.3694 783.49791,624.12505 C 782.84316,624.56213 782.49313,624.34856 781.78682,624.00092 C 781.44456,623.83246 781.13728,623.50141 781.04205,623.13202 C 780.73617,621.9455 781.50939,620.45708 781.50939,620.45708 C 781.50939,620.45708 778.92245,621.47128 777.22078,620.98773 C 776.57288,620.80362 775.76491,620.29503 775.73125,619.62232 C 775.65365,618.07115 777.90968,616.60912 777.90968,616.60912 C 777.90968,616.60912 775.36204,616.0105 774.30501,614.55977 C 773.96043,614.08685 773.71592,613.29761 774.05675,612.82198 C 774.44908,612.27448 775.38226,612.31785 776.0428,612.44959 C 777.3033,612.70099 777.87721,614.20269 779.15096,614.37482 L 783.74369,614.99546 L 783.74369,614.99546 z"
         id="path5660-79-7-2-0-5"
         transform="translate(-265.2681,-795.8822)"
         sodipodi:nodetypes="csssscssccssscsccscscscsccssscsscssssc" />
      <path
         sodipodi:nodetypes="ccc"
         id="path4316-5-02-1-7-4-3"
         d="M 535.01721,-185.57436 C 528.76682,-185.89524 523.88232,-182.87106 518.88939,-179.50233 C 525.294,-179.47293 530.20107,-181.61073 535.01721,-185.57436 z"
         style="fill:#ffefa7;fill-opacity:1;stroke:none" />
      <path
         style="fill:#377bc8;fill-opacity:1;stroke:#2c5aa0;stroke-width:0.46650738;stroke-linecap:butt;stroke-linejoin:miter;stroke-miterlimit:4;stroke-dasharray:none;stroke-opacity:1"
         d="M 506.62733,-185.27348 C 507.79791,-184.73214 508.20941,-183.76004 507.80454,-182.63579 C 507.60331,-182.077 507.07244,-181.6534 506.09104,-181.53046 C 504.60787,-183.04812 503.84961,-183.40806 501.54628,-183.32139 C 504.32738,-185.75965 505.6934,-184.91194 506.62733,-185.27348 z"
         id="path4318-6-39-8-3-0-2"
         sodipodi:nodetypes="csccc" />
      <path
         style="fill:#377bc8;fill-opacity:1;stroke:#2c5aa0;stroke-width:0.46650738;stroke-linecap:butt;stroke-linejoin:miter;stroke-miterlimit:4;stroke-dasharray:none;stroke-opacity:1"
         d="M 507.76823,-176.49253 C 509.05731,-176.53233 509.86038,-175.84726 510.00153,-174.6607 C 510.07173,-174.07094 509.78656,-173.45453 508.96397,-172.90533 C 506.95838,-173.59864 506.11921,-173.58113 504.09827,-172.47269 C 505.49392,-175.89786 507.09489,-175.75121 507.76823,-176.49253 z"
         id="path4318-6-3-9-4-7-5-7"
         sodipodi:nodetypes="csccc" />
      <path
         style="fill:#377bc8;fill-opacity:1;stroke:#2c5aa0;stroke-width:0.46650738;stroke-linecap:butt;stroke-linejoin:miter;stroke-miterlimit:4;stroke-dasharray:none;stroke-opacity:1"
         d="M 514.67552,-170.36107 C 515.75606,-171.06516 516.79823,-170.89729 517.53557,-169.95698 C 517.90206,-169.48962 517.97886,-168.81481 517.56157,-167.91807 C 515.48783,-167.46789 514.78003,-167.01675 513.6297,-165.01934 C 513.04164,-168.67089 514.48557,-169.37777 514.67548,-170.36107 L 514.67552,-170.36107 z"
         id="path4318-6-30-70-9-9-6-3"
         sodipodi:nodetypes="csccc" />
    </g>
    <path
       sodipodi:nodetypes="cssscscccc"
       id="path5636-39-7-0-8-9"
       d="M 2249.9188,-62.029605 C 2249.9188,-62.029605 2249.4442,-53.131003 2245.7275,-50.852952 C 2244.127,-49.871929 2241.8855,-49.465329 2240.1392,-50.154415 C 2238.4476,-50.821948 2237.2656,-52.635678 2236.6465,-54.345658 C 2236.2502,-55.440349 2235.5987,-58.187631 2235.5987,-58.187631 C 2235.5987,-58.187631 2229.9167,-60.787045 2226.867,-60.98178 C 2222.3776,-61.268436 2213.5947,-58.5369 2213.5947,-58.5369 C 2215.0941,-63.198523 2219.1286,-67.015144 2223.3743,-70.761358 L 2238.0436,-71.809164 L 2249.9188,-62.029605 L 2249.9188,-62.029605 z"
       style="fill:#efd300;fill-opacity:1;stroke:#806600;stroke-width:0.90909094;stroke-linecap:butt;stroke-linejoin:miter;stroke-miterlimit:4;stroke-dasharray:none;stroke-opacity:1" />
    <g
       transform="matrix(1.9487171,0,0,1.9487171,1190.944,329.39578)"
       id="g5837-8-3-2-5-7"
       style="stroke-width:0.46650738;stroke-miterlimit:4;stroke-dasharray:none">
      <path
         style="fill:#fee46e;fill-opacity:1;stroke:none"
         d="M 563.75526,-231.2181 C 565.91244,-231.45506 570.34138,-232.33441 571.82843,-233.78744 C 572.52155,-234.4647 574.46457,-236.35678 574.46457,-236.35678 C 574.05275,-232.08516 571.86276,-229.31624 567.21519,-227.43966 C 563.50679,-225.94228 559.22598,-225.59587 555.18781,-225.92828 C 552.64501,-226.1376 547.93843,-227.43965 547.93843,-227.43965 C 550.52036,-224.67202 549.20818,-222.71856 545.96132,-221.39415 C 545.96132,-221.39415 546.44242,-224.04469 545.46705,-224.4169 C 543.36355,-225.21963 540.99201,-224.17368 538.75828,-222.94523 C 537.10834,-222.03784 534.61011,-221.61473 532.92742,-221.63323 C 530.12417,-221.66403 528.57058,-221.69643 525.94896,-222.60758 C 524.36791,-223.15705 521.62518,-225.25322 520.46315,-225.04496 C 517.95462,-224.59538 514.78636,-224.3426 513.35911,-222.39754 C 512.86324,-221.72178 512.92405,-220.66389 513.35911,-219.95376 C 514.3353,-218.36036 516.52775,-217.52837 518.46514,-217.1027 C 524.2271,-215.83673 528.92975,-215.84511 534.61644,-216.64895 C 540.47747,-217.47743 547.32134,-219.13656 553.18105,-220.1379 C 558.98944,-221.13047 566.47793,-223.00595 570.87965,-223.91237 C 578.65905,-225.51435 582.14908,-225.73489 587.97022,-225.64969 C 598.16545,-225.50041 601.5034,-220.53501 601.19295,-215.11579 C 600.87401,-209.5486 594.73048,-207.02775 589.4705,-205.46589 C 580.22243,-202.71982 567.5241,-204.28369 559.54396,-204.47128 C 559.54396,-204.47128 562.21921,-202.41615 563.43284,-201.47663 C 564.85452,-200.37605 565.56506,-198.07439 567.32173,-197.51287 C 569.73114,-196.7427 573.41643,-198.26964 575.96369,-198.40472 C 579.52546,-198.59359 585.57786,-198.20653 585.57786,-198.20653 C 586.50451,-199.07218 587.10497,-199.6731 588.06799,-199.93217 C 588.75852,-200.11835 589.8454,-200.12835 590.39972,-199.93417 C 591.49652,-199.54996 592.23439,-198.3664 591.77445,-196.16327 C 591.77445,-196.16327 592.53451,-195.1868 593.69444,-194.96183 C 594.92243,-194.72324 596.35641,-194.93373 597.05623,-194.73124 C 598.21063,-194.39732 600.08005,-193.34433 600.08005,-193.34433 C 600.08005,-193.34433 598.09854,-192.76851 597.27405,-192.30775 C 596.70971,-191.99236 595.95667,-190.94876 595.95667,-190.94876 C 595.95667,-190.94876 598.67128,-190.90576 599.80515,-190.44442 C 601.01969,-189.95025 602.14174,-188.55318 602.14174,-188.55318 C 602.14174,-188.55318 600.50731,-188.65937 599.72834,-188.2083 C 599.13284,-187.86347 598.15581,-186.9141 598.15581,-186.9141 C 598.15581,-186.9141 601.33327,-187.15098 602.41662,-186.28369 C 603.37572,-185.51587 604.47832,-184.14027 604.47832,-184.14027 C 604.47832,-184.14027 602.76399,-184.17347 601.9524,-183.95922 C 601.42443,-183.81983 600.49238,-183.25769 600.49238,-183.25769 C 600.49238,-183.25769 602.68884,-182.20739 603.65364,-180.9882 C 604.42435,-180.01427 604.61576,-177.83613 604.61576,-177.83613 C 604.61576,-177.83613 603.32233,-178.72533 602.5276,-179.05184 C 602.03064,-179.25604 600.90472,-179.22304 600.90472,-179.22304 L 601.4193,-174.75118 C 601.54583,-173.6516 603.22643,-172.46107 603.5263,-171.61037 C 603.90445,-170.53759 603.80972,-170.13448 603.13124,-169.19436 C 602.26262,-167.99036 600.46853,-167.74449 598.91725,-167.98636 C 598.06128,-168.11982 596.85846,-169.11066 596.85846,-169.11066 C 596.85846,-169.11066 595.9826,-167.62666 595.39228,-167.17167 C 594.40375,-166.40977 593.97821,-166.5061 592.68802,-166.5515 C 591.6985,-166.5864 590.81792,-166.75714 590.13308,-167.41327 C 589.34477,-168.16853 588.79858,-170.42948 588.79858,-170.42948 L 585.75629,-169.87779 C 585.09563,-169.75799 583.0933,-170.68225 582.87007,-171.26509 C 582.40224,-172.48655 582.3569,-173.72122 583.26513,-174.71218 C 584.12749,-175.65309 586.51228,-175.70211 587.72746,-176.22028 C 589.28443,-176.88419 590.78063,-178.8056 590.78063,-178.8056 C 590.78063,-178.8056 585.69801,-182.39204 583.49999,-184.62257 C 582.2914,-185.84904 580.21196,-188.71599 580.21196,-188.71599 C 580.21196,-188.71599 573.73096,-186.92532 571.28728,-186.56155 C 565.25979,-185.66428 558.83973,-186.56155 558.83973,-186.56155 C 549.6265,-186.56155 543.49644,-199.54107 535.11892,-202.50435 C 532.56237,-203.40865 531.35895,-203.26709 528.68467,-202.71979 C 518.97723,-200.73314 508.61424,-189.44879 498.99706,-187.12186 C 495.04916,-186.16664 486.78437,-185.82919 486.78437,-185.82919 C 486.78437,-185.82919 485.43109,-183.15557 484.15137,-182.39229 C 482.75965,-181.5622 479.26547,-181.50794 479.26547,-181.50794 C 479.26547,-181.50794 478.37182,-178.31095 477.34816,-177.09632 C 476.27861,-175.82724 473.33942,-174.59738 473.33942,-174.59738 C 473.77365,-176.05564 474.03225,-177.17205 473.41852,-179.01484 C 473.41852,-179.01484 471.95722,-176.46394 470.53618,-175.2562 C 469.29901,-174.20472 466.28061,-172.90528 466.28061,-172.90528 C 466.52279,-174.26527 467.21526,-175.55641 466.28061,-177.09632 C 466.28061,-177.09632 465.03832,-174.51922 463.95828,-173.56702 C 462.88012,-172.61647 460.02864,-171.5818 460.02864,-171.5818 C 460.58103,-173.05234 460.93401,-174.52287 460.02864,-175.99341 C 460.02864,-175.99341 458.84737,-173.35107 457.7886,-172.46412 C 456.32678,-171.23953 452.81164,-169.89846 452.81164,-169.89846 C 453.40452,-171.41543 453.97479,-172.93239 453.53621,-174.44935 L 451.14536,-174.45335 C 448.25901,-174.45835 448.07506,-172.02765 446.73116,-170.92111 C 445.4113,-169.83435 443.26709,-169.80991 442.2397,-170.14854 C 440.42742,-170.74589 438.81635,-172.84599 441.01639,-175.93265 C 437.21095,-175.52698 435.22795,-177.90303 435.23748,-180.01709 C 435.24648,-182.04808 435.98755,-183.84109 439.82559,-183.62423 C 439.82559,-183.62423 439.32947,-185.38301 439.52301,-186.30857 C 439.79242,-187.59689 440.89803,-188.71511 442.39401,-188.58989 C 443.00911,-188.53839 444.15057,-188.13763 444.67284,-187.57683 C 445.49888,-186.68983 445.72663,-185.39895 447.10045,-184.43611 C 448.65587,-183.346 452.35482,-183.43421 452.35482,-183.43421 C 452.35482,-183.43421 459.54348,-187.31204 464.2852,-188.87663 C 466.80818,-189.70912 473.97346,-190.96737 473.97346,-190.96737 L 474.198,-208.51302 C 478.50378,-208.2481 476.65202,-208.21094 480.29336,-208.31938 C 485.52383,-208.47514 499.2647,-206.36137 499.2647,-206.36137 L 509.04841,-207.02873 C 509.04841,-207.02873 525.3677,-209.48292 533.13139,-210.25047 C 537.0425,-210.63712 540.99456,-210.91511 544.92201,-210.71072 C 550.83784,-210.40286 555.91861,-208.94005 561.47906,-208.6396 C 566.1545,-208.38697 569.34791,-207.9114 574.02228,-208.17936 C 580.69636,-208.56194 592.62676,-208.11296 596.41794,-214.12811 C 597.40183,-215.68916 596.89662,-217.82745 595.42822,-219.0297 C 593.49082,-220.61594 592.11326,-221.21329 589.52932,-220.66804 C 588.16653,-220.38047 586.43367,-219.42631 586.26376,-218.25224 C 586.17166,-217.61578 586.28706,-216.82016 586.86958,-216.06853 C 587.87099,-214.77623 589.00262,-214.38697 589.00262,-214.38697 C 589.00262,-214.38697 586.10736,-213.9992 584.789,-214.96676 C 583.40146,-215.98509 582.15549,-219.21856 582.15549,-219.21856 C 581.50314,-218.39325 581.0235,-217.48872 581.13341,-216.31379 C 581.22811,-215.30117 581.12941,-214.66749 582.36617,-213.13076 C 582.36617,-213.13076 579.30323,-213.32697 577.83653,-214.87014 C 576.85074,-215.90732 576.04573,-219.0253 576.04573,-219.0253 C 575.17666,-218.2385 574.64624,-216.96438 574.60918,-216.02494 C 574.55568,-214.66829 575.19684,-214.07319 575.51899,-212.64761 C 575.51899,-212.64761 572.49986,-213.46154 571.30537,-214.96676 C 570.37846,-216.13481 569.88395,-219.20283 569.88395,-219.20283 C 566.41077,-218.40873 559.78132,-217.28603 552.56189,-215.86385 C 547.47581,-214.86192 539.70834,-213.32213 534.21873,-212.68921 C 524.79115,-211.60226 517.92747,-212.16475 512.13205,-214.42102 C 509.11614,-215.59516 507.75731,-216.72459 506.97985,-219.39087 C 506.53856,-220.90427 507.18858,-223.04822 508.68555,-224.7174 C 510.77249,-227.04443 514.39748,-228.7863 518.44657,-229.70672 C 518.44657,-229.70672 529.17086,-232.34818 535.41673,-232.88061 C 545.4311,-233.73429 549.50324,-232.45047 553.6884,-231.96693 C 556.40817,-231.65269 559.33451,-232.16818 560.19086,-233.10597 C 560.91154,-233.89518 562.10383,-234.7457 560.4975,-236.64863 C 560.4975,-236.64863 562.53282,-236.61143 563.88416,-234.31862 C 564.43609,-233.38218 563.75522,-231.2181 563.75522,-231.2181 L 563.75526,-231.2181 L 563.75526,-231.2181 z"
         id="path13429-5-6-1-3-3-7"
         sodipodi:nodetypes="cscscccsssscssscsssssssssssssscscsscssscssssscscscscscscssssssssscccscsccsccsccsccssscscsssscsccsssssscsssssscssscsssscscscscssscscc" />
      <path
         style="fill:#e4c900;fill-opacity:1;stroke:none"
         d="M 602.57754,-173.56064 C 602.95569,-172.48786 603.80972,-170.13451 603.13124,-169.19439 C 602.26262,-167.99039 600.46853,-167.74451 598.91725,-167.9864 C 598.06128,-168.11986 596.85846,-169.11069 596.85846,-169.11069 C 596.85846,-169.11069 595.9826,-167.6267 595.39228,-167.1717 C 594.40375,-166.40981 593.97821,-166.23245 592.68802,-166.27784 C 591.6985,-166.31274 590.81792,-166.75716 590.13308,-167.4133 C 589.34477,-168.16856 588.79858,-170.42951 588.79858,-170.42951 L 585.75629,-169.87783 C 585.09563,-169.75802 583.0933,-170.68228 582.87007,-171.26513 C 582.40224,-172.48659 582.3569,-173.72126 583.26513,-174.71222 C 584.12749,-175.65312 586.51228,-175.70215 587.72746,-176.22032 C 589.28443,-176.88424 590.78063,-178.80563 590.78063,-178.80563 C 590.78063,-178.80563 585.69801,-182.39207 583.49999,-184.62261 C 582.2914,-185.84907 580.21196,-188.71602 580.21196,-188.71602 C 580.21196,-188.71602 573.73096,-186.92535 571.28728,-186.56159 C 565.25979,-185.66432 562.98891,-186.56159 558.83973,-186.56159 C 549.6265,-186.56159 543.49644,-199.5411 535.11892,-202.50438 C 532.56237,-203.40868 531.35895,-203.26713 528.68467,-202.71983 C 518.97723,-200.73317 508.61424,-189.44882 498.99706,-187.1219 C 495.04916,-186.16667 486.78437,-185.82922 486.78437,-185.82922 C 486.78437,-185.82922 485.43109,-183.15561 484.15137,-182.39233 C 482.75965,-181.56224 479.26547,-181.50798 479.26547,-181.50798 C 479.26547,-181.50798 478.37182,-178.31097 477.34816,-177.09636 C 476.27861,-175.82727 473.33942,-174.59741 473.33942,-174.59741 C 473.77365,-176.05567 474.03225,-177.17209 473.41852,-179.01486 C 473.41852,-179.01486 471.95722,-176.46398 470.53618,-175.25623 C 469.29901,-174.20475 466.28061,-172.90531 466.28061,-172.90531 C 466.52279,-174.26531 467.21526,-175.55644 466.28061,-177.09636 C 466.28061,-177.09636 465.03832,-174.51925 463.95828,-173.56705 C 462.88012,-172.6165 460.02864,-171.58183 460.02864,-171.58183 C 460.58103,-173.05237 460.93401,-174.5229 460.02864,-175.99343 C 460.02864,-175.99343 458.84737,-173.3511 457.7886,-172.46416 C 456.32678,-171.23956 452.81164,-169.8985 452.81164,-169.8985 C 453.40452,-171.41546 453.97479,-172.93242 453.53621,-174.44939 L 451.14536,-174.45339 C 448.25901,-174.45839 448.07506,-172.02769 446.73116,-170.92115 C 445.4113,-169.83439 443.26709,-169.80994 442.2397,-170.14857 C 440.42742,-170.74592 438.81635,-172.84602 441.01639,-175.93269 C 437.21095,-175.52702 435.22795,-177.90306 435.23748,-180.01712 C 435.24648,-182.04811 435.98755,-183.84113 439.82559,-183.62426 C 439.82559,-183.62426 439.32947,-185.38304 439.52301,-186.3086 C 439.79242,-187.59692 441.72265,-187.24721 442.39401,-188.58993 C 442.45301,-188.70788 443.9832,-187.47655 443.6583,-185.91835 C 443.43512,-184.84799 442.02109,-184.00482 441.77635,-183.59063 C 441.23945,-182.68199 442.4294,-181.66136 442.4294,-181.66136 C 442.4294,-181.66136 439.85829,-182.63277 438.29754,-182.17191 C 437.73401,-182.00551 439.77621,-182.21661 439.97691,-180.06717 C 440.18999,-177.78496 438.46199,-178.21277 439.38118,-178.03251 C 440.97194,-177.72055 444.3164,-177.8148 444.3164,-177.8148 C 444.3967,-177.8148 441.08384,-173.92838 442.06652,-174.42873 C 442.70962,-174.75618 443.60706,-174.45373 444.07407,-173.94692 C 444.48853,-173.4971 444.92911,-172.69169 444.34898,-171.82344 C 443.9705,-171.25698 444.94914,-171.54396 445.40506,-172.04117 C 447.52376,-174.35173 448.76021,-176.94839 451.93698,-177.45192 C 452.90321,-177.60507 454.33494,-177.31885 455.05779,-176.65357 C 455.83064,-175.94228 455.85613,-173.60534 455.85613,-173.60534 C 455.85613,-173.60534 457.09328,-174.90179 457.59798,-175.63748 C 458.40624,-176.81566 459.63013,-179.41147 459.63013,-179.41147 C 459.63013,-179.41147 461.41179,-177.42565 462.09775,-176.29067 C 462.34424,-175.88284 462.67836,-174.98428 462.67836,-174.98428 C 462.67836,-174.98428 463.95163,-176.7111 464.42021,-177.66963 C 464.97127,-178.79689 465.65402,-181.2259 465.65402,-181.2259 C 465.65402,-181.2259 467.3444,-179.25902 467.9039,-178.10509 C 468.21126,-177.47118 468.48452,-176.07294 468.48452,-176.07294 C 468.48452,-176.07294 470.53925,-178.40581 471.24244,-179.77436 C 471.78791,-180.83596 472.33109,-183.18547 472.33109,-183.18547 C 472.33109,-183.18547 474.35417,-181.68431 475.01644,-180.64528 C 475.46876,-179.93564 475.81478,-178.25024 475.81478,-178.25024 C 475.81478,-178.25024 477.15508,-180.38348 477.3389,-181.51621 C 477.54041,-182.75796 477.48406,-185.07247 477.48406,-185.07247 C 477.48406,-185.07247 480.94433,-183.5117 482.49186,-184.20155 C 484.23914,-184.98044 485.54009,-189.0642 485.54009,-189.0642 C 485.54009,-189.0642 495.12295,-189.3129 499.60161,-190.8136 C 502.53249,-191.79566 506.48082,-194.14096 509.22793,-195.55796 C 509.22793,-195.55796 518.94037,-202.22169 525.13752,-204.42272 C 527.61529,-205.30274 530.82759,-206.03646 533.44106,-205.74741 C 537.03512,-205.34991 539.55621,-203.08298 542.58835,-201.11286 C 547.35228,-198.01751 550.58709,-192.41401 555.79764,-190.14988 C 558.71992,-188.88006 563.20743,-188.77389 566.39145,-188.89298 C 571.73066,-189.09269 581.27883,-191.56993 581.27883,-191.56993 C 581.27883,-191.56993 583.60761,-187.48485 585.5501,-185.51902 C 587.96765,-183.07242 593.25716,-179.37893 593.25716,-179.37893 C 593.25716,-179.37893 591.60773,-176.65711 590.2467,-175.82112 C 588.75907,-174.90736 587.08782,-174.6167 585.52577,-173.83696 C 585.23286,-173.69075 586.69195,-173.92116 586.92307,-173.06966 C 587.12021,-172.34332 586.63924,-171.75422 587.37309,-171.92122 C 588.60644,-172.2019 590.31513,-172.87909 590.31513,-172.87909 C 590.31513,-172.87909 590.03044,-171.36335 590.57765,-170.45959 C 592.32096,-171.10817 594.29813,-170.85394 594.41219,-168.34771 C 595.15703,-168.70308 594.85728,-169.37618 595.24132,-169.86864 L 595.99393,-172.46857 C 595.99393,-172.46857 596.38469,-171.1684 597.83009,-170.416 C 598.82735,-172.49695 601.96109,-172.48512 602.90632,-170.25331 C 602.53143,-170.56631 602.57754,-173.56064 602.57754,-173.56064 L 602.57754,-173.56064 z"
         id="path13429-5-2-4-5-0-9-7-9"
         sodipodi:nodetypes="cscscscscssssssssssccscsccsccsccsccssscscsssscssscsssssscscscscscscscscscssssssscscsssscccscccc" />
      <path
         style="fill:#e4c900;fill-opacity:1;stroke:none"
         d="M 737.87832,606.58213 C 737.87832,606.58213 739.28656,609.23358 741.09486,610.311 C 741.90614,610.79438 743.64996,611.54639 743.64996,611.54639 L 744.00664,608.77082 C 744.00664,608.77082 745.62559,608.15137 746.63305,607.60351 C 747.64052,607.05566 749.98904,605.41483 749.98904,605.41483 L 750.42678,607.89534 C 750.42678,607.89534 755.83492,605.24349 758.01421,603.22615 C 759.47062,601.87797 760.88234,600.29176 761.51611,598.41105 C 762.24628,596.24429 761.66202,591.55317 761.66202,591.55317 L 746.89827,592.0718 L 743.54034,604.86389 L 737.87836,606.58213 L 737.87832,606.58213 L 737.87832,606.58213 z"
         id="path5808-7-2-9-6-5"
         transform="translate(-265.2681,-795.8822)"
         sodipodi:nodetypes="csccsccssccccc" />
      <path
         style="fill:#e4c900;fill-opacity:1;stroke:none"
         d="M 600.90469,-179.22313 C 600.90469,-179.22313 602.03061,-179.25613 602.52757,-179.05193 C 603.3223,-178.72542 604.61573,-177.83622 604.61573,-177.83622 C 604.61573,-177.83622 604.42432,-180.01436 603.65361,-180.98829 C 602.68881,-182.20747 600.49235,-183.25778 600.49235,-183.25778 C 600.49235,-183.25778 601.4244,-183.81992 601.95237,-183.9593 C 602.76396,-184.17356 604.47829,-184.14036 604.47829,-184.14036 C 604.47829,-184.14036 603.37569,-185.51595 602.41659,-186.28378 C 601.33324,-187.15107 598.15578,-186.91419 598.15578,-186.91419 C 598.15578,-186.91419 599.13281,-187.86356 599.72831,-188.20839 C 600.50728,-188.65946 602.14171,-188.55327 602.14171,-188.55327 C 602.14171,-188.55327 601.01966,-189.95034 599.80512,-190.4445 C 598.67125,-190.90585 595.95664,-190.94885 595.95664,-190.94885 C 595.95664,-190.94885 596.70968,-191.99245 597.27402,-192.30783 C 598.09851,-192.7686 600.08002,-193.34442 600.08002,-193.34442 C 600.08002,-193.34442 598.2106,-194.3974 597.0562,-194.73132 C 596.35638,-194.93382 594.9224,-194.72332 593.69441,-194.96192 C 592.53448,-195.18688 591.77442,-196.16336 591.77442,-196.16336 C 592.23436,-198.36649 591.49649,-199.55004 590.39969,-199.93426 C 589.84537,-200.12844 588.75849,-200.11845 588.06796,-199.93226 C 587.10494,-199.6732 586.50448,-199.07228 585.57783,-198.20662 C 585.57783,-198.20662 579.52543,-198.59368 575.96366,-198.40482 C 573.4164,-198.26974 569.73111,-196.74279 567.3217,-197.51296 C 565.56503,-198.07449 564.85449,-200.37615 563.43281,-201.47673 C 562.21918,-202.41624 559.54393,-204.47138 559.54393,-204.47138 C 556.57527,-208.02965 556.32214,-208.51651 551.16145,-210.22561 C 547.8555,-210.82763 548.56665,-210.52113 544.92198,-210.7108 C 540.99453,-210.91519 537.04247,-210.6372 533.13136,-210.25055 C 525.36767,-209.483 509.04838,-207.02882 509.04838,-207.02882 L 499.26467,-206.36146 C 499.26467,-206.36146 485.5238,-208.47523 480.29333,-208.31947 C 476.65199,-208.21102 478.50375,-208.24817 474.19797,-208.51311 L 474.16017,-205.5561 C 474.16017,-205.5561 482.5861,-203.72283 487.09596,-203.2798 C 491.45365,-202.85172 495.45764,-202.96648 499.83444,-203.09459 C 508.01754,-203.33412 516.79347,-206.39313 524.92962,-207.30068 C 531.44582,-208.02753 538.65127,-209.08168 544.58022,-208.17017 C 549.56045,-207.40453 551.47116,-205.76103 555.76666,-203.1271 C 559.37945,-200.91181 563.04329,-194.95384 567.8827,-194.95384 C 567.8827,-194.95384 570.61926,-195.09316 572.40409,-195.30164 C 574.65246,-195.56426 576.23388,-196.34116 578.49055,-196.51893 C 581.56199,-196.76089 585.78626,-196.25021 585.78626,-196.25021 C 587.77642,-198.56882 588.79418,-198.61535 589.36594,-198.32024 C 590.62511,-197.67035 590.79636,-196.23293 589.66233,-194.77687 C 590.91426,-193.9892 591.71448,-192.69577 595.52492,-192.87981 C 593.84726,-191.65925 593.34028,-191.05041 592.65047,-189.54761 C 594.08075,-189.97842 595.58029,-189.56811 597.72107,-189.00419 C 596.20648,-187.81972 595.78867,-186.64188 595.2651,-185.59898 C 596.68699,-185.76848 597.75005,-185.48481 600.30482,-185.08787 C 598.84706,-184.39008 597.75109,-184.0584 597.50621,-183.09108 C 599.17077,-182.22344 599.0165,-182.5654 601.43803,-180.68847 C 599.89932,-180.50566 598.95988,-180.50346 598.35997,-179.51597 L 601.29476,-175.24719 L 600.90469,-179.22313 L 600.90469,-179.22313 z"
         id="path13429-5-2-7-6-3-7-8-3"
         sodipodi:nodetypes="ccsssssscsssssscssscssssccsssssscsssssssscsccccccccccc" />
      <path
         style="fill:#e4c900;fill-opacity:1;stroke:none"
         d="M 557.48058,-204.78789 L 568.45057,-204.22243 L 577.61107,-204.10934 L 583.37879,-204.10934 C 590.01149,-205.44641 597.73762,-206.90822 600.90814,-213.60912 L 601.02124,-218.58519 C 600.73335,-215.62628 599.49276,-213.3054 597.54549,-211.55091 C 588.31397,-203.23329 567.70697,-206.01169 557.81987,-208.85922 L 550.92121,-209.76397 L 557.48058,-204.78789 L 557.48058,-204.78789 z"
         id="path4414-27-7-0-6-3"
         sodipodi:nodetypes="ccccccsccc" />
      <path
         style="fill:#e4c900;fill-opacity:1;stroke:none"
         d="M 571.17728,-221.20833 C 563.91495,-220.61277 545.65496,-215.59442 531.6221,-214.42661 C 524.12532,-213.80273 515.94042,-214.21449 511.21678,-216.99908 C 509.13528,-218.22613 507.72588,-219.91394 507.34363,-222.17692 L 506.64846,-219.53528 L 508.873,-216.05943 L 513.87823,-213.69585 L 523.33254,-211.88841 L 533.62105,-212.72261 L 539.46048,-213.27875 L 570.18698,-219.11818 L 571.17728,-221.20833 L 571.17728,-221.20833 z"
         id="path5188-0-1-3-7-3"
         sodipodi:nodetypes="cssccccccccc" />
      <path
         style="fill:#e4c900;fill-opacity:1;stroke:none"
         d="M 571.16298,-221.39165 C 571.32587,-218.51744 571.96354,-217.30499 572.61568,-216.14316 C 573.44694,-217.95514 574.12994,-220.14201 576.7395,-221.95398 C 577.51304,-219.95456 578.09518,-217.58024 579.36374,-215.58082 C 579.98403,-217.84565 580.10412,-220.6026 582.36288,-222.51632 C 583.18174,-220.62797 583.91674,-218.32035 584.84653,-216.98667 C 584.82643,-218.42375 584.67339,-220.14201 586.48669,-221.57909 C 593.57797,-225.36908 603.04486,-218.37855 596.18702,-213.56578 L 596.28072,-213.51888 L 596.88992,-215.62765 L 596.23386,-218.2519 L 594.07823,-219.93891 L 591.3134,-220.82928 L 587.75193,-220.12636 L 586.2055,-218.53307 L 586.67412,-216.56488 L 589.01719,-214.36239 L 585.22141,-214.64356 L 583.53439,-215.8151 L 582.08169,-218.90796 L 581.19132,-217.17408 L 581.28502,-214.83101 L 582.45656,-213.05027 L 579.59801,-213.65947 L 577.48924,-215.11218 L 575.94281,-218.76737 L 574.865,-217.50211 L 574.44324,-215.53393 L 575.52106,-212.62852 L 572.75623,-213.65947 L 570.69432,-215.8151 L 569.9914,-219.28285 L 565.86759,-218.29876 C 567.38661,-219.27772 564.42739,-219.30268 571.16298,-221.39165 L 571.16298,-221.39165 z"
         id="path5190-39-8-9-1-8"
         sodipodi:nodetypes="cccccccccccccccccccccccccccccccccc" />
      <path
         style="fill:#e4c900;fill-opacity:1;stroke:none"
         d="M 520.82057,-225.42654 L 527.12109,-222.37472 L 533.42161,-221.58716 L 537.35944,-222.27628 L 541.69105,-224.44208 L 545.13665,-224.63897 L 546.1211,-223.35918 L 546.2196,-221.09493 L 548.48385,-222.9654 L 549.07452,-224.54053 L 548.3854,-227.29701 L 553.01235,-226.11566 L 558.91909,-225.72188 L 565.02272,-226.70633 L 570.43723,-228.87214 L 573.09527,-231.62862 L 574.4735,-236.35401 C 574.4735,-236.35401 571.56121,-232.26083 569.45278,-231.03794 C 566.79522,-229.49655 563.54485,-228.64499 560.49422,-228.28147 C 557.52901,-227.92812 554.50385,-228.54477 551.53566,-228.87214 C 548.09332,-229.2518 542.97089,-231.13639 542.97089,-231.13639 C 544.00996,-229.62689 545.06194,-228.11738 545.33359,-226.60788 C 545.33359,-226.60788 542.09362,-227.32082 540.38605,-226.85527 C 539.03987,-226.48825 536.48602,-225.46021 535.18361,-224.95956 C 533.16179,-224.18237 529.91572,-224.97366 527.76485,-225.22969 C 525.54403,-225.49404 524.76376,-226.47502 522.76683,-225.94406 L 520.82062,-225.42658 L 520.82057,-225.42654 L 520.82057,-225.42654 z"
         id="path5192-99-9-8-8-5"
         sodipodi:nodetypes="cccccccccccccccccsssccsssscc" />
      <path
         style="fill:#fff1a1;fill-opacity:1;stroke:none"
         d="M 515.53087,-228.61752 C 515.53087,-228.61752 518.76415,-228.13238 520.38621,-228.21291 C 525.2146,-228.45261 529.85634,-230.20764 534.64876,-230.84288 C 537.53284,-231.22517 540.44,-231.64104 543.34791,-231.55095 C 547.12743,-231.43386 550.79723,-230.07515 554.57588,-229.93251 C 556.56836,-229.85731 558.74621,-229.47457 560.54389,-230.33712 C 561.57658,-230.83261 562.60624,-231.75141 562.87041,-232.86594 C 563.15348,-234.06019 561.85888,-236.40629 561.85888,-236.40629 L 561.96003,-236.30514 L 561.45427,-234.48439 L 559.12775,-232.56248 L 556.39663,-231.85441 L 551.84475,-232.25902 L 544.96635,-233.06825 L 537.27874,-233.06825 L 528.68074,-232.05672 L 520.28505,-230.33712 L 515.53087,-228.61752 L 515.53087,-228.61752 z"
         id="path5194-1-3-6-4-8"
         sodipodi:nodetypes="cssssssc" />
      <path
         style="fill:#fff1a1;fill-opacity:1;stroke:none"
         d="M 564.29087,-222.69517 C 577.97784,-220.6797 594.45628,-229.23898 600.62619,-217.5672 L 600.47968,-217.71372 L 600.52928,-219.61839 L 597.84245,-222.9882 L 593.74007,-224.92594 L 586.12137,-225.76169 L 576.15846,-225.03939 L 564.29088,-222.69517 L 564.29087,-222.69517 z"
         id="path5196-7-7-5-9-9"
         sodipodi:nodetypes="ccccccccc" />
      <path
         style="fill:#e4c900;fill-opacity:1;stroke:none"
         d="M 444.79468,-187.75261 C 444.79468,-187.75261 445.3164,-184.02399 446.60178,-182.84762 C 448.1802,-181.40306 452.79757,-181.16959 452.79757,-181.16959 C 452.79757,-181.16959 459.50528,-185.09587 463.12387,-186.46182 C 466.07231,-187.5748 469.2208,-188.06316 472.28847,-188.78524 C 473.27425,-189.01728 475.25729,-189.43064 475.25729,-189.43064 C 475.25729,-189.43064 475.7859,-192.78768 475.64452,-194.46471 C 475.5104,-196.05568 474.48281,-199.11155 474.48281,-199.11155 L 473.70834,-190.97958 L 465.57637,-189.30156 L 458.34796,-186.5909 L 452.66849,-183.23485 L 446.98902,-184.52564 L 444.79468,-187.75261 L 444.79468,-187.75261 z"
         id="path5465-2-4-7-7-6"
         sodipodi:nodetypes="cscsscsc" />
      <path
         style="fill:none;stroke:#806600;stroke-width:0.46650738;stroke-linecap:butt;stroke-linejoin:miter;stroke-miterlimit:4;stroke-dasharray:none;stroke-opacity:1"
         d="M 563.75526,-231.21814 C 565.91244,-231.4551 570.34138,-232.33446 571.82843,-233.78749 C 572.52155,-234.46475 574.46457,-236.35683 574.46457,-236.35683 C 574.05275,-232.08521 571.86276,-229.31629 567.21519,-227.43971 C 563.50679,-225.94233 559.22598,-225.59592 555.18781,-225.92833 C 552.64501,-226.13764 547.93843,-227.4397 547.93843,-227.4397 C 550.52036,-224.67207 549.20818,-222.7186 545.96132,-221.3942 C 545.96132,-221.3942 546.44242,-224.04473 545.46705,-224.41694 C 543.36355,-225.21967 540.99201,-224.17373 538.75828,-222.94527 C 537.10834,-222.03788 534.61011,-221.61478 532.92742,-221.63327 C 530.12417,-221.66407 528.57058,-221.69647 525.94896,-222.60763 C 524.36791,-223.15709 521.62518,-225.25326 520.46315,-225.045 C 517.95462,-224.59543 514.78636,-224.34264 513.35911,-222.39758 C 512.86324,-221.72183 512.92405,-220.66393 513.35911,-219.95381 C 514.3353,-218.36041 516.52775,-217.52842 518.46514,-217.10274 C 524.2271,-215.83678 528.92975,-215.84516 534.61644,-216.649 C 540.47747,-217.47747 547.32134,-219.1366 553.18105,-220.13794 C 558.98944,-221.13051 566.47793,-223.006 570.87965,-223.91242 C 578.65905,-225.51439 582.14908,-225.73493 587.97022,-225.64974 C 598.16545,-225.50046 601.5034,-220.53505 601.19295,-215.11583 C 600.87401,-209.54865 594.73048,-207.0278 589.4705,-205.46593 C 580.22243,-202.71986 567.5241,-204.28374 559.54396,-204.47133 C 559.54396,-204.47133 562.21921,-202.41619 563.43284,-201.47668 C 564.85452,-200.3761 565.56506,-198.07444 567.32173,-197.51291 C 569.73114,-196.74274 573.41643,-198.26969 575.96369,-198.40477 C 579.52546,-198.59363 585.57786,-198.20657 585.57786,-198.20657 C 586.50451,-199.07223 587.10497,-199.67315 588.06799,-199.93221 C 588.75852,-200.1184 589.8454,-200.12839 590.39972,-199.93421 C 591.49652,-199.54999 592.23439,-198.36644 591.77445,-196.16331 C 591.77445,-196.16331 592.53451,-195.18683 593.69444,-194.96187 C 594.92243,-194.72327 596.35641,-194.93377 597.05623,-194.73127 C 598.21063,-194.39735 600.08005,-193.34437 600.08005,-193.34437 C 600.08005,-193.34437 598.09854,-192.76855 597.27405,-192.30778 C 596.70971,-191.9924 595.95667,-190.9488 595.95667,-190.9488 C 595.95667,-190.9488 598.67128,-190.9058 599.80515,-190.44445 C 601.01969,-189.95029 602.14174,-188.55322 602.14174,-188.55322 C 602.14174,-188.55322 600.50731,-188.65941 599.72834,-188.20834 C 599.13284,-187.86351 598.15581,-186.91414 598.15581,-186.91414 C 598.15581,-186.91414 601.33327,-187.15102 602.41662,-186.28373 C 603.37572,-185.5159 604.47832,-184.14031 604.47832,-184.14031 C 604.47832,-184.14031 602.76399,-184.17351 601.9524,-183.95925 C 601.42443,-183.81987 600.49238,-183.25773 600.49238,-183.25773 C 600.49238,-183.25773 602.68884,-182.20742 603.65364,-180.98824 C 604.42435,-180.01431 604.61576,-177.83617 604.61576,-177.83617 C 604.61576,-177.83617 603.32233,-178.72537 602.5276,-179.05188 C 602.03064,-179.25608 600.90472,-179.22308 600.90472,-179.22308 L 601.4193,-174.75122 C 601.54583,-173.65163 603.22643,-172.4611 603.5263,-171.61041 C 603.90445,-170.53763 603.80972,-170.13451 603.13124,-169.19439 C 602.26262,-167.9904 600.46853,-167.74452 598.91725,-167.9864 C 598.06128,-168.11986 596.85846,-169.11069 596.85846,-169.11069 C 596.85846,-169.11069 595.9826,-167.6267 595.39228,-167.1717 C 594.40375,-166.40981 593.92706,-166.19923 592.63687,-166.24463 C 591.64735,-166.27953 590.81792,-166.75717 590.13308,-167.41331 C 589.34477,-168.16857 588.79858,-170.42952 588.79858,-170.42952 L 585.75629,-169.87783 C 585.09563,-169.75802 583.0933,-170.68228 582.87007,-171.26513 C 582.40224,-172.48659 582.3569,-173.72126 583.26513,-174.71222 C 584.12749,-175.65313 586.51228,-175.70214 587.72746,-176.22032 C 589.28443,-176.88423 590.78063,-178.80564 590.78063,-178.80564 C 590.78063,-178.80564 585.69801,-182.39207 583.49999,-184.62261 C 582.2914,-185.84907 580.21196,-188.71603 580.21196,-188.71603 C 580.21196,-188.71603 573.73096,-186.92535 571.28728,-186.56159 C 565.25979,-185.66432 558.83973,-186.56159 558.83973,-186.56159 C 549.6265,-186.56159 543.49644,-199.54111 535.11892,-202.50439 C 532.56237,-203.40869 531.35895,-203.26712 528.68467,-202.71983 C 518.97723,-200.73317 508.61424,-189.44883 498.99706,-187.1219 C 495.04916,-186.16668 486.78437,-185.82923 486.78437,-185.82923 C 486.78437,-185.82923 485.43109,-183.15561 484.15137,-182.39233 C 482.75965,-181.56224 479.26547,-181.50798 479.26547,-181.50798 C 479.26547,-181.50798 478.37182,-178.31098 477.34816,-177.09636 C 476.27861,-175.82727 473.33942,-174.59742 473.33942,-174.59742 C 473.77365,-176.05568 474.03225,-177.17209 473.41852,-179.01487 C 473.41852,-179.01487 471.95722,-176.46398 470.53618,-175.25624 C 469.29901,-174.20475 466.28061,-172.90531 466.28061,-172.90531 C 466.52279,-174.26531 467.21526,-175.55645 466.28061,-177.09636 C 466.28061,-177.09636 465.03832,-174.51926 463.95828,-173.56705 C 462.88012,-172.61651 460.02864,-171.58184 460.02864,-171.58184 C 460.58103,-173.05237 460.93401,-174.52291 460.02864,-175.99344 C 460.02864,-175.99344 458.84737,-173.3511 457.7886,-172.46416 C 456.32678,-171.23956 452.81164,-169.8985 452.81164,-169.8985 C 453.40452,-171.41547 453.97479,-172.93242 453.53621,-174.44939 L 451.14536,-174.45339 C 448.25901,-174.45839 448.07506,-172.02769 446.73116,-170.92115 C 445.4113,-169.83439 443.26709,-169.80994 442.2397,-170.14858 C 440.42742,-170.74593 438.81635,-172.84603 441.01639,-175.93269 C 437.21095,-175.52702 435.22795,-177.90306 435.23748,-180.01712 C 435.24648,-182.04812 435.98755,-183.84113 439.82559,-183.62427 C 439.82559,-183.62427 439.32947,-185.38305 439.52301,-186.30861 C 439.79242,-187.59693 440.89803,-188.71515 442.39401,-188.58993 C 443.00911,-188.53843 444.15057,-188.13766 444.67284,-187.57687 C 445.49888,-186.68987 445.72663,-185.39899 447.10045,-184.43615 C 448.65587,-183.34604 452.35482,-183.43425 452.35482,-183.43425 C 452.35482,-183.43425 459.54348,-187.31208 464.2852,-188.87667 C 466.80818,-189.70916 473.97346,-190.9674 473.97346,-190.9674 L 474.198,-208.51306 C 478.50378,-208.24814 476.65202,-208.21097 480.29336,-208.31942 C 485.52383,-208.47518 499.2647,-206.36141 499.2647,-206.36141 L 509.04841,-207.02877 C 509.04841,-207.02877 525.3677,-209.48295 533.13139,-210.2505 C 537.0425,-210.63716 540.99456,-210.91515 544.92201,-210.71075 C 550.83784,-210.40289 555.91861,-208.94008 561.47906,-208.63964 C 566.1545,-208.38701 569.34791,-207.91143 574.02228,-208.1794 C 580.69636,-208.56197 592.62676,-208.113 596.41794,-214.12815 C 597.40183,-215.6892 596.89662,-217.82749 595.42822,-219.02973 C 593.49082,-220.61598 592.11326,-221.21332 589.52932,-220.66808 C 588.16653,-220.3805 586.43367,-219.42634 586.26376,-218.25227 C 586.17166,-217.61582 586.28706,-217.05451 586.86958,-216.30288 C 587.87099,-215.01057 589.00262,-214.38701 589.00262,-214.38701 C 589.00262,-214.38701 585.63874,-214.23354 584.32038,-215.2011 C 582.93284,-216.21943 582.15549,-219.21859 582.15549,-219.21859 C 581.50314,-218.39329 581.0235,-217.48875 581.13341,-216.31382 C 581.22811,-215.3012 581.12941,-214.66752 582.36617,-213.1308 C 582.36617,-213.1308 579.30323,-213.327 577.83653,-214.87018 C 576.85074,-215.90735 576.04573,-219.02534 576.04573,-219.02534 C 575.17666,-218.23853 574.64624,-216.96442 574.60918,-216.02498 C 574.55568,-214.66832 575.19684,-214.07322 575.51899,-212.64765 C 575.51899,-212.64765 572.49986,-213.46158 571.30537,-214.96679 C 570.37846,-216.13485 569.88395,-219.20286 569.88395,-219.20286 C 566.41077,-218.40877 559.78132,-217.28607 552.56189,-215.86388 C 547.47581,-214.86195 539.70834,-213.32217 534.21873,-212.68925 C 524.79115,-211.6023 517.92747,-212.16478 512.13205,-214.42106 C 509.11614,-215.5952 507.75731,-216.72462 506.97985,-219.3909 C 506.53856,-220.90431 507.18858,-223.04826 508.68555,-224.71744 C 510.77249,-227.04446 514.39748,-228.78634 518.44657,-229.70676 C 518.44657,-229.70676 529.17086,-232.34822 535.41673,-232.88065 C 545.4311,-233.73433 549.50324,-232.45051 553.6884,-231.96697 C 556.40817,-231.65273 559.33451,-232.16822 560.19086,-233.10601 C 560.91154,-233.89522 562.10383,-234.74574 560.4975,-236.64867 C 560.4975,-236.64867 562.53282,-236.61147 563.88416,-234.31866 C 564.43609,-233.38222 563.75522,-231.21814 563.75522,-231.21814 L 563.75526,-231.21814 L 563.75526,-231.21814 z"
         id="path13429-5-2-36-8-6-3-0"
         sodipodi:nodetypes="cscscccsssscssscsssssssssssssscscsscssscssssscscscscscscssssssssscccscsccsccsccsccssscscsssscsccsssssscsssssssssscsssscscscscssscscc" />
      <path
         style="fill:#ffefa7;fill-opacity:1;stroke:none"
         d="M 492.12482,-190.68983 C 504.5743,-190.90013 514.39648,-201.79324 522.85456,-205.10713 C 505.24662,-199.34532 500.72795,-199.56446 498.49736,-197.48578 C 497.55394,-196.6066 497.51954,-195.43613 496.65733,-194.21882 C 495.80023,-193.00873 494.1185,-191.75235 492.12482,-190.68983 z"
         id="path4312-5-0-2-1-4"
         sodipodi:nodetypes="ccssc" />
      <path
         style="fill:#fff1a1;fill-opacity:1;stroke:none"
         d="M 575.07069,-192.03594 C 557.15892,-190.86897 556.03932,-205.29417 538.15542,-207.02923 C 553.32291,-198.91366 555.14599,-186.59063 575.07069,-192.03594 z"
         id="path4314-5-4-7-0-2"
         sodipodi:nodetypes="ccc" />
      <path
         style="fill:#fff1a1;fill-opacity:1;stroke:none"
         d="M 583.00424,-193.17324 C 584.79921,-187.17754 589.28701,-183.59094 594.13576,-180.01781 C 592.0145,-186.06099 588.35409,-189.96627 583.00424,-193.17324 z"
         id="path4316-81-0-0-2-3"
         sodipodi:nodetypes="ccc" />
      <g
         id="g4351-47-5-3-3-37"
         style="stroke-width:0.46650738;stroke-miterlimit:4;stroke-dasharray:none">
        <path
           sodipodi:nodetypes="csccc"
           id="path4318-13-7-9-7-00"
           d="M 582.90623,-173.0997 C 584.11219,-173.55682 585.09449,-173.1703 585.61405,-172.09423 C 585.87228,-171.55939 585.80324,-170.88375 585.20412,-170.09678 C 583.08207,-170.09978 582.29427,-169.81017 580.74397,-168.10446 C 580.94918,-171.79737 582.51074,-172.17963 582.90623,-173.0997 L 582.90623,-173.0997 z"
           style="fill:#377bc8;fill-opacity:1;stroke:#2c5aa0;stroke-width:0.46650738;stroke-linecap:butt;stroke-linejoin:miter;stroke-miterlimit:4;stroke-dasharray:none;stroke-opacity:1" />
        <path
           sodipodi:nodetypes="csccc"
           id="path4318-1-8-0-9-1-10"
           d="M 589.88777,-168.72004 C 590.78756,-169.64398 591.84118,-169.70881 592.76682,-168.95311 C 593.22688,-168.57752 593.44984,-167.93599 593.23943,-166.96956 C 591.31492,-166.07549 590.72332,-165.48008 590.03911,-163.27901 C 588.66444,-166.71266 589.91816,-167.71904 589.88777,-168.72004 z"
           style="fill:#377bc8;fill-opacity:1;stroke:#2c5aa0;stroke-width:0.46650738;stroke-linecap:butt;stroke-linejoin:miter;stroke-miterlimit:4;stroke-dasharray:none;stroke-opacity:1" />
        <path
           sodipodi:nodetypes="csccc"
           id="path4318-8-4-0-9-8-3"
           d="M 598.51861,-169.35051 C 599.14626,-170.47716 600.1465,-170.81456 601.2372,-170.32647 C 601.77931,-170.08388 602.16188,-169.52272 602.21084,-168.53486 C 600.58616,-167.16975 600.17034,-166.44064 600.08393,-164.1373 C 597.86123,-167.09353 598.80905,-168.39208 598.51861,-169.35051 z"
           style="fill:#377bc8;fill-opacity:1;stroke:#2c5aa0;stroke-width:0.46650738;stroke-linecap:butt;stroke-linejoin:miter;stroke-miterlimit:4;stroke-dasharray:none;stroke-opacity:1" />
      </g>
      <path
         style="fill:#377bc8;fill-opacity:1;stroke:#2c5aa0;stroke-width:0.46650738;stroke-linecap:butt;stroke-linejoin:miter;stroke-miterlimit:4;stroke-dasharray:none;stroke-opacity:1"
         d="M 440.98106,-188.38549 C 442.14979,-187.84017 442.55798,-186.86667 442.14919,-185.74376 C 441.94605,-185.18566 441.41374,-184.76386 440.43193,-184.64427 C 438.95393,-186.16698 438.19691,-186.52949 435.89329,-186.45066 C 438.68268,-188.87944 440.0458,-188.02708 440.98096,-188.38544 L 440.98106,-188.38549 z"
         id="path4318-80-80-5-1-9-0"
         sodipodi:nodetypes="csccc" />
      <path
         style="fill:#377bc8;fill-opacity:1;stroke:#2c5aa0;stroke-width:0.46650738;stroke-linecap:butt;stroke-linejoin:miter;stroke-miterlimit:4;stroke-dasharray:none;stroke-opacity:1"
         d="M 436.15079,-181.66409 C 437.4399,-181.62539 438.1998,-180.89271 438.26848,-179.69974 C 438.30268,-179.10683 437.98051,-178.5089 437.12604,-178.01077 C 435.16634,-178.82484 434.32768,-178.85842 432.24302,-177.87501 C 433.84451,-181.20892 435.43359,-180.96512 436.15079,-181.66409 z"
         id="path4318-1-4-46-6-7-3-0"
         sodipodi:nodetypes="csccc" />
      <path
         style="fill:#377bc8;fill-opacity:1;stroke:#2c5aa0;stroke-width:0.46650738;stroke-linecap:butt;stroke-linejoin:miter;stroke-miterlimit:4;stroke-dasharray:none;stroke-opacity:1"
         d="M 439.99383,-173.3802 C 441.14273,-173.96615 442.16133,-173.68912 442.79519,-172.67615 C 443.11019,-172.17266 443.11531,-171.49354 442.60563,-170.64591 C 440.49592,-170.41736 439.74442,-170.04353 438.38947,-168.17887 C 438.19055,-171.87213 439.70109,-172.42247 439.99383,-173.3802 L 439.99383,-173.3802 z"
         id="path4318-8-6-03-7-2-7-3"
         sodipodi:nodetypes="csccc" />
      <path
         style="fill:#ffefa7;fill-opacity:1;stroke:none"
         d="M 473.16657,-186.89459 C 464.95401,-187.44101 460.08369,-183.95269 453.37789,-180.14379 C 461.80509,-179.93448 466.66956,-182.38414 473.16657,-186.89459 z"
         id="path4316-0-2-8-3-4-8"
         sodipodi:nodetypes="ccc" />
    </g>
    <g
       transform="matrix(1.8738887,0.5348267,-0.5348267,1.8738887,792.15483,-42.815753)"
       style="stroke-width:0.46650738;stroke-miterlimit:4;stroke-dasharray:none"
       id="g4338-8-6-0-6-8-3">
      <path
         id="path14997-8-0-1-79-2-8-3-77-94-6-5-0-60"
         style="fill:#fee46e;fill-opacity:1;stroke:none;display:inline"
         d="M 667.65197,-206.38465 C 669.82614,-205.76296 671.42426,-207.8468 671.79808,-208.11952 C 671.79808,-208.11952 670.73812,-208.4841 669.71678,-209.79577 C 669.03018,-210.67757 668.38837,-212.39883 668.11567,-213.21372 C 667.10261,-216.24053 668.19007,-217.06519 668.2961,-216.84453 C 668.2961,-216.84453 670.12883,-218.12069 670.78605,-219.01015 C 671.40933,-219.85236 671.47377,-221.02434 671.41358,-222.0698 C 671.32328,-223.63792 670.12439,-225.63754 670.12439,-225.63754 C 667.12393,-224.96566 666.48492,-224.36076 666.05138,-223.2598 C 666.05138,-223.2598 665.56047,-224.74847 664.75771,-226.00686 C 664.35757,-226.6341 663.59409,-227.5201 662.92153,-228.04279 C 662.23027,-228.58004 661.63518,-228.74545 661.63518,-228.74545 C 661.84012,-227.95801 661.34108,-227.04279 661.13733,-226.39451 C 661.13733,-226.39451 659.98286,-229.30457 658.92502,-230.1646 C 658.10908,-230.82799 656.19487,-231.475 656.20758,-231.47492 C 656.22048,-231.47453 654.42002,-230.85167 653.59561,-230.19886 C 652.52686,-229.35247 651.33498,-226.45751 651.33498,-226.45751 C 651.13957,-227.10834 650.65238,-228.02993 650.86744,-228.81466 C 650.86744,-228.81466 650.27025,-228.65694 649.57216,-228.12859 C 648.89294,-227.61459 648.11808,-226.73847 647.70996,-226.11644 C 646.89111,-224.86846 646.38106,-223.38623 646.38106,-223.38623 C 645.99447,-224.55612 645.39676,-225.1227 642.33895,-225.81612 C 642.33895,-225.81612 641.11447,-223.83207 641.00407,-222.26524 C 640.93037,-221.22062 640.98077,-220.04791 641.59222,-219.19778 C 642.23793,-218.29995 644.05413,-217.00032 644.05413,-217.00032 C 644.16291,-217.21961 645.2397,-216.38103 644.18785,-213.36749 C 643.9047,-212.55618 643.24084,-210.84332 642.54293,-209.97042 C 641.50484,-208.67198 640.44026,-208.32106 640.44026,-208.32106 C 641.58615,-206.79802 641.96527,-206.14912 644.56374,-206.53304 C 640.02559,-200.8083 641.24285,-194.0892 647.21325,-189.77362 C 647.30805,-190.52353 647.85322,-192.32051 648.26485,-193.06837 C 648.18955,-193.09907 649.25655,-189.8728 651.36008,-188.67513 C 652.04262,-188.28655 653.15653,-185.35817 654.18971,-184.63201 C 655.13222,-183.96955 656.37835,-183.31207 656.37835,-183.31207 C 656.37835,-183.31207 656.45835,-185.90954 657.46623,-186.59843 C 658.48119,-187.29223 660.40508,-188.48921 661.03395,-188.90441 C 662.2996,-189.74004 663.93079,-193.41066 663.93079,-193.41066 L 664.52995,-189.66232 C 671.27879,-194.46721 671.53749,-200.05444 667.65193,-206.38464 L 667.65197,-206.38465 z"
         sodipodi:nodetypes="cccsscssccssccscsccssccsscsccccsscssccc" />
      <path
         id="path14997-8-0-1-79-2-8-3-7-0-4-1-5-5-4-40"
         style="fill:#e4c900;fill-opacity:1;stroke:none;display:inline"
         d="M 644.79197,-216.04285 C 644.50882,-215.23154 643.24084,-210.84329 642.54293,-209.97039 C 641.50484,-208.67195 640.44026,-208.32103 640.44026,-208.32103 C 641.58615,-206.79799 641.96527,-206.14909 644.56374,-206.53301 C 640.02559,-200.80827 641.24285,-194.08917 647.21325,-189.77359 C 647.30805,-190.5235 647.85322,-192.32048 648.26485,-193.06834 C 648.18955,-193.09904 649.25655,-189.87277 651.36008,-188.6751 C 652.04262,-188.28652 653.15653,-185.35814 654.18971,-184.63198 C 655.13222,-183.96952 656.37835,-183.31204 656.37835,-183.31204 C 656.37835,-183.31204 656.45835,-185.90951 657.46623,-186.5984 C 658.48119,-187.2922 660.40508,-188.48918 661.03395,-188.90438 C 662.2996,-189.74001 663.93079,-193.41063 663.93079,-193.41063 L 664.52995,-189.66229 C 671.27879,-194.46718 671.53749,-200.05441 667.65193,-206.38461 L 667.65197,-206.38462 C 669.82614,-205.76293 671.42426,-207.84677 671.79808,-208.11949 C 671.79808,-208.11949 670.73812,-208.48407 669.71678,-209.79574 C 669.03018,-210.67754 668.41587,-212.40853 668.11567,-213.21369 L 667.29324,-215.41949 C 667.29324,-215.41949 667.1677,-212.64304 667.1677,-211.87999 C 667.1677,-211.11693 668.15627,-208.68568 668.15627,-208.68568 C 666.81428,-208.76778 665.47228,-208.81755 664.13029,-209.4446 C 664.13029,-209.4446 666.87272,-204.72219 667.70387,-202.33667 C 668.15298,-201.04767 668.37141,-198.59329 668.21179,-197.23766 C 668.04263,-195.80102 665.9976,-193.08799 665.9976,-193.08799 C 665.9976,-193.08799 665.69388,-196.52433 665.3627,-197.6384 C 664.89233,-199.22071 663.11279,-203.07272 663.11279,-203.07272 C 663.11279,-203.07272 663.3911,-198.68343 663.02649,-197.24756 C 662.61162,-195.61376 661.8221,-192.71694 661.8221,-192.71694 C 661.11322,-196.78823 660.20339,-198.44814 659.26765,-199.79706 C 659.26765,-199.79706 660.3703,-193.12079 659.23685,-190.51265 C 658.95395,-189.86168 657.4286,-188.9699 656.62842,-188.21176 C 655.74019,-187.37021 655.58521,-186.69335 655.58521,-186.69335 C 655.58521,-186.69335 653.8162,-189.16262 653.36112,-189.71999 C 652.35344,-190.95417 650.72846,-192.08893 649.89693,-193.44804 C 648.67498,-195.44529 650.25203,-200.93988 650.25203,-200.93988 C 649.18104,-200.61304 648.46411,-199.04018 647.70098,-197.31494 C 647.0775,-195.90542 646.3371,-194.3942 646.06168,-193.37768 C 646.06168,-193.37768 644.16477,-196.50193 643.89312,-197.51141 C 643.508,-198.94254 643.63645,-200.5242 644.0201,-201.95573 C 644.64272,-204.27893 648.70661,-209.84423 648.70661,-209.84423 C 647.3784,-209.04643 646.22259,-208.16243 643.26812,-208.17776 C 643.26812,-208.17776 644.70445,-211.32615 644.88808,-212.02188 C 645.45132,-214.15591 644.84538,-214.73101 644.79198,-216.04285 L 644.79197,-216.04285 z"
         sodipodi:nodetypes="csccccsscssccccccscsccsscscsccsscsscscssccsc" />
      <g
         style="stroke-width:0.46650738;stroke-miterlimit:4;stroke-dasharray:none"
         id="g4307-4-3-7-8-0-9"
         transform="translate(0,-0.7500357)">
        <path
           sodipodi:nodetypes="ccccccccc"
           id="path5211-9-7-3-1-5-2"
           d="M 650.45541,-210.72904 C 651.39541,-208.67525 651.58049,-204.13048 651.10072,-202.73925 L 656.54019,-202.17502 L 661.51556,-202.99409 C 660.55942,-204.85436 661.38949,-209.25943 661.97703,-210.84452 L 658.4586,-209.75789 L 656.42734,-210.88637 L 653.719,-209.41935 L 650.45541,-210.72904 L 650.45541,-210.72904 z"
           style="fill:#504416;stroke:none" />
        <g
           style="stroke-width:0.46650738;stroke-miterlimit:4;stroke-dasharray:none"
           id="g4139-1-88-4-4-7-4">
          <path
             sodipodi:nodetypes="cccc"
             id="path5213-9-7-5-38-3-7-0-9"
             d="M 652.02912,-201.50104 C 652.05022,-203.99228 652.53831,-204.31384 652.91779,-205.1924 L 653.46466,-201.77447 L 652.02912,-201.50104 L 652.02912,-201.50104 z"
             style="fill:#ffffff;stroke:none" />
          <path
             sodipodi:nodetypes="cccc"
             id="path5213-9-7-9-5-15-0-1-0-2"
             d="M 660.44732,-201.50103 C 660.42622,-203.99227 659.93813,-204.31383 659.55865,-205.19239 L 659.01178,-201.77446 L 660.44732,-201.50103 L 660.44732,-201.50103 z"
             style="fill:#ffffff;stroke:none" />
        </g>
        <path
           sodipodi:nodetypes="ccc"
           d="M 651.36128,-202.72579 C 650.54963,-195.63855 661.60459,-195.32644 661.09681,-202.72579 C 658.32056,-202.13963 655.32951,-201.82198 651.36128,-202.72579 z"
           style="fill:#e4c900;fill-opacity:1;stroke:none"
           id="path5160-2-5-3-4-3-5-9" />
        <path
           sodipodi:nodetypes="ccsssccccccccssscc"
           id="path5160-2-3-8-5-8-8-6-1"
           d="M 650.93243,-203.30445 L 650.86993,-202.74195 C 650.65237,-200.84226 651.25649,-199.31963 652.27618,-198.30445 C 653.29587,-197.28927 654.7044,-196.79445 656.11993,-196.7732 C 657.53546,-196.7519 658.96585,-197.20802 660.02618,-198.2107 C 661.08651,-199.21338 661.72409,-200.76872 661.58868,-202.74195 L 661.55748,-203.30445 L 660.99498,-203.17945 C 658.25403,-202.60074 655.35418,-202.29335 651.46373,-203.17945 L 650.93248,-203.30445 L 650.93243,-203.30445 z M 651.46992,-202.61893 C 654.86736,-201.94986 658.63618,-202.2176 661.1048,-202.69043 C 661.0729,-201.28522 660.70785,-199.51312 659.96612,-198.81171 C 659.12183,-198.01332 657.23936,-197.32906 656.05608,-197.34682 C 654.8728,-197.36462 653.07657,-198.31613 652.2676,-199.12153 C 651.55359,-199.83239 651.4391,-201.26495 651.46992,-202.61902 L 651.46992,-202.61897 L 651.46992,-202.61893 z"
           style="font-size:medium;font-style:normal;font-variant:normal;font-weight:normal;font-stretch:normal;text-indent:0;text-align:start;text-decoration:none;line-height:normal;letter-spacing:normal;word-spacing:normal;text-transform:none;direction:ltr;block-progression:tb;writing-mode:lr-tb;text-anchor:start;fill:#806600;fill-opacity:1;fill-rule:nonzero;stroke:none;stroke-width:0.46650738;marker:none;visibility:visible;display:inline;overflow:visible;enable-background:accumulate;font-family:Bitstream Vera Sans;-inkscape-font-specification:Bitstream Vera Sans" />
        <path
           sodipodi:nodetypes="cccscsc"
           d="M 653.94747,-209.46548 C 653.87497,-204.9342 654.12167,-199.90672 656.21622,-195.8088 C 658.31077,-199.90672 658.55747,-204.89085 658.48497,-209.42213 C 658.44177,-209.59352 657.49973,-209.73116 657.3549,-209.83498 C 656.99889,-210.09019 656.33267,-210.74363 656.33267,-210.74363 C 656.33267,-210.74363 655.64136,-209.97013 655.19687,-209.72139 C 654.81788,-209.50931 653.94747,-209.46548 653.94747,-209.46548 L 653.94747,-209.46548 z"
           style="fill:#377bc8;fill-opacity:1;stroke:#2c5aa0;stroke-width:0.46650738;stroke-linecap:butt;stroke-linejoin:miter;stroke-miterlimit:4;stroke-dasharray:none;stroke-opacity:1"
           id="path5010-2-2-4-7-4-7-0" />
        <g
           style="stroke-width:0.46650738;stroke-miterlimit:4;stroke-dasharray:none"
           transform="translate(-14.216157,-5.3361681)"
           id="g5237-9-3-5-8-8-9">
          <path
             style="fill:#ffffff;stroke:none"
             d="M 665.98052,-204.44785 C 666.00162,-201.95661 666.48971,-201.63505 666.86919,-200.75649 L 667.41606,-204.17442 L 665.98052,-204.44785 L 665.98052,-204.44785 z"
             id="path5213-8-6-9-0-0-30"
             sodipodi:nodetypes="cccc" />
          <path
             style="fill:#ffffff;stroke:none"
             d="M 674.88423,-204.44785 C 674.86313,-201.95661 674.37504,-201.63505 673.99556,-200.75649 L 673.44869,-204.17442 L 674.88423,-204.44785 L 674.88423,-204.44785 z"
             id="path5213-9-2-5-5-4-6-0"
             sodipodi:nodetypes="cccc" />
        </g>
        <g
           style="stroke-width:0.46650738;stroke-miterlimit:4;stroke-dasharray:none"
           transform="translate(-14.132735,-5.3361681)"
           id="g5011-07-95-3-6-5-3">
          <path
             style="fill:#ffefa7;fill-opacity:1;stroke:none"
             d="M 668.93959,-212.13885 C 668.93959,-212.13885 669.78069,-211.3395 670.31458,-211.31385 C 670.84699,-211.28825 671.75832,-212.00135 671.75832,-212.00135 L 670.24582,-216.05757 L 668.93959,-212.13885 z"
             id="path4962-4-4-2-0-7-0"
             sodipodi:nodetypes="csccc" />
          <g
             style="stroke-width:0.46650738;stroke-miterlimit:4;stroke-dasharray:none"
             id="g4892-8-9-7-3-3-1"
             transform="translate(-0.1147467,0)">
            <g
               style="stroke-width:0.46650738;stroke-miterlimit:4;stroke-dasharray:none"
               transform="translate(0,6.47162e-2)"
               id="g4855-5-1-3-2-4-9">
              <path
                 transform="matrix(1.1428571,0,0,1.1489362,-398.53239,-883.00507)"
                 style="fill:#ffffff;fill-opacity:1;stroke:none"
                 d="M 932.78865,583.0728 C 932.78865,583.98435 931.74953,584.96782 930.39191,584.96782 C 929.03428,584.96782 928.17953,584.22887 928.17953,583.31732 C 928.17953,582.40577 929.03428,581.91134 930.39191,581.91134 C 931.74953,581.91134 932.78865,582.16125 932.78865,583.0728 L 932.78865,583.0728 z"
                 id="path4045-83-75-9-6-3-8"
                 sodipodi:nodetypes="cssss" />
              <path
                 sodipodi:type="arc"
                 style="fill:#2b2200;fill-opacity:1;stroke:none"
                 id="path4827-06-5-7-9-0-6"
                 sodipodi:cx="930.14612"
                 sodipodi:cy="582.82568"
                 sodipodi:rx="0.94816118"
                 sodipodi:ry="0.94816118"
                 d="M 931.09428,582.82568 A 0.94816118,0.94816118 0 1 1 929.19796,582.82568 A 0.94816118,0.94816118 0 1 1 931.09428,582.82568 z"
                 transform="matrix(1.1111111,0,0,1.1111111,-368.51231,-860.46502)" />
              <path
                 style="font-size:medium;font-style:normal;font-variant:normal;font-weight:normal;font-stretch:normal;text-indent:0;text-align:start;text-decoration:none;line-height:normal;letter-spacing:normal;word-spacing:normal;text-transform:none;direction:ltr;block-progression:tb;writing-mode:lr-tb;text-anchor:start;fill:#d1b948;fill-opacity:1;fill-rule:nonzero;stroke:none;stroke-width:0.46650738;marker:none;visibility:visible;display:inline;overflow:visible;enable-background:accumulate;font-family:Bitstream Vera Sans;-inkscape-font-specification:Bitstream Vera Sans"
                 d="M 664.78125,-214.6875 C 663.97495,-214.6875 663.27796,-214.52815 662.78125,-214.21875 C 662.28454,-213.90935 662,-213.41388 662,-212.8125 C 662,-212.21112 662.2906,-211.66553 662.78125,-211.28125 C 663.2719,-210.89697 663.95987,-210.65625 664.78125,-210.65625 C 666.4542,-210.65625 667.75,-211.85744 667.75,-213.09375 C 667.75,-213.7119 667.35991,-214.14894 666.8125,-214.375 C 666.26509,-214.60106 665.57246,-214.6875 664.78125,-214.6875 z M 664.78125,-214.1875 C 665.54161,-214.1875 666.19074,-214.08558 666.625,-213.90625 C 667.05926,-213.72692 667.25,-213.52291 667.25,-213.09375 C 667.25,-212.23542 666.21144,-211.15625 664.78125,-211.15625 C 664.05106,-211.15625 663.47942,-211.3542 663.09375,-211.65625 C 662.70808,-211.9583 662.5,-212.36657 662.5,-212.8125 C 662.5,-213.25843 662.68289,-213.57604 663.0625,-213.8125 C 663.44211,-214.04896 664.03598,-214.1875 664.78125,-214.1875 z"
                 id="path4045-8-2-41-7-4-4-9" />
            </g>
            <g
               style="stroke-width:0.46650738;stroke-miterlimit:4;stroke-dasharray:none"
               id="g4855-3-2-8-9-1-8-01"
               transform="matrix(-1,0,0,1,1340.9274,6.47162e-2)">
              <path
                 transform="matrix(1.1428571,0,0,1.1489362,-398.53239,-883.00507)"
                 style="fill:#ffffff;fill-opacity:1;stroke:none"
                 d="M 932.78865,583.0728 C 932.78865,583.98435 931.74953,584.96782 930.39191,584.96782 C 929.03428,584.96782 928.17953,584.22887 928.17953,583.31732 C 928.17953,582.40577 929.03428,581.91134 930.39191,581.91134 C 931.74953,581.91134 932.78865,582.16125 932.78865,583.0728 L 932.78865,583.0728 z"
                 id="path4045-9-52-83-5-3-7-6"
                 sodipodi:nodetypes="cssss" />
              <path
                 sodipodi:type="arc"
                 style="fill:#2b2200;fill-opacity:1;stroke:none"
                 id="path4827-0-2-5-3-7-5-4"
                 sodipodi:cx="930.14612"
                 sodipodi:cy="582.82568"
                 sodipodi:rx="0.94816118"
                 sodipodi:ry="0.94816118"
                 d="M 931.09428,582.82568 A 0.94816118,0.94816118 0 1 1 929.19796,582.82568 A 0.94816118,0.94816118 0 1 1 931.09428,582.82568 z"
                 transform="matrix(1.1111111,0,0,1.1111111,-368.51231,-860.46502)" />
              <path
                 style="font-size:medium;font-style:normal;font-variant:normal;font-weight:normal;font-stretch:normal;text-indent:0;text-align:start;text-decoration:none;line-height:normal;letter-spacing:normal;word-spacing:normal;text-transform:none;direction:ltr;block-progression:tb;writing-mode:lr-tb;text-anchor:start;fill:#d1b948;fill-opacity:1;fill-rule:nonzero;stroke:none;stroke-width:0.46650738;marker:none;visibility:visible;display:inline;overflow:visible;enable-background:accumulate;font-family:Bitstream Vera Sans;-inkscape-font-specification:Bitstream Vera Sans"
                 d="M 664.78125,-214.6875 C 663.97495,-214.6875 663.27796,-214.52815 662.78125,-214.21875 C 662.28454,-213.90935 662,-213.41388 662,-212.8125 C 662,-212.21112 662.2906,-211.66553 662.78125,-211.28125 C 663.2719,-210.89697 663.95987,-210.65625 664.78125,-210.65625 C 666.4542,-210.65625 667.75,-211.85744 667.75,-213.09375 C 667.75,-213.7119 667.35991,-214.14894 666.8125,-214.375 C 666.26509,-214.60106 665.57246,-214.6875 664.78125,-214.6875 z M 664.78125,-214.1875 C 665.54161,-214.1875 666.19074,-214.08558 666.625,-213.90625 C 667.05926,-213.72692 667.25,-213.52291 667.25,-213.09375 C 667.25,-212.23542 666.21144,-211.15625 664.78125,-211.15625 C 664.05106,-211.15625 663.47942,-211.3542 663.09375,-211.65625 C 662.70808,-211.9583 662.5,-212.36657 662.5,-212.8125 C 662.5,-213.25843 662.68289,-213.57604 663.0625,-213.8125 C 663.44211,-214.04896 664.03598,-214.1875 664.78125,-214.1875 z"
                 id="path4045-8-5-7-2-3-8-9-4" />
            </g>
          </g>
          <path
             style="fill:#e4c900;fill-opacity:1;stroke:none"
             d="M 661.12132,-211.22485 L 661.34022,-209.27437 L 661.97101,-208.70066 C 660.52165,-208.91149 663.88699,-208.2126 664.58771,-208.06509 L 664.36458,-205.75745 L 666.22868,-203.75733 L 668.62291,-203.62084 L 670.45051,-205.02307 L 672.35108,-203.55487 L 674.38631,-203.67082 L 676.42394,-205.85271 L 676.93237,-207.79946 L 678.44322,-208.33161 L 679.57658,-209.33721 L 679.57658,-211.10711 C 678.60483,-209.88347 677.64301,-208.68288 674.87528,-209.00535 C 675.17831,-207.67464 675.09042,-206.76967 674.76935,-206.17593 C 674.38607,-205.46714 673.6705,-205.20187 672.89102,-205.18528 C 671.91879,-205.16458 670.85268,-205.96612 670.3399,-206.4058 C 669.59828,-205.61438 668.94952,-204.98922 668.34465,-205.01188 C 667.08052,-205.05928 666.23609,-205.56252 665.82028,-206.30241 C 665.37983,-207.08614 665.42031,-208.13536 665.95233,-209.18939 C 661.02602,-209.09199 662.32142,-210.78082 661.12132,-211.22485 L 661.12132,-211.22485 z"
             id="path4902-1-2-3-8-5-86"
             sodipodi:nodetypes="ccccccccccccccccsscsscc" />
          <path
             sodipodi:nodetypes="cscssssscsssscscccccssssscsssssscccccc"
             id="path4402-2-5-66-8-3-3-1"
             d="M 661.05735,-211.69285 C 660.57243,-210.40517 660.77357,-209.23301 661.48176,-208.48392 C 662.07255,-207.85902 662.97389,-207.61401 663.95574,-207.573 C 663.94494,-207.41418 663.93774,-207.38723 663.93504,-207.15894 C 663.92904,-206.66221 663.94004,-206.08712 664.14206,-205.58553 C 664.55659,-204.55808 665.38983,-203.87536 666.33656,-203.44279 C 667.16273,-203.06531 668.12636,-203.08169 668.94511,-203.35999 C 669.4496,-203.53147 669.84726,-203.85663 670.15622,-204.1467 C 670.26637,-204.25011 670.27608,-204.27092 670.36325,-204.36408 C 670.68333,-204.00802 671.13075,-203.5917 671.81244,-203.35999 C 672.63119,-203.0817 673.58447,-203.06532 674.41064,-203.44279 C 675.35737,-203.87536 676.19061,-204.55808 676.60514,-205.58553 C 676.8075,-206.08712 676.81808,-206.66221 676.81217,-207.15894 C 676.81017,-207.33601 676.79957,-207.34049 676.79147,-207.47984 C 677.83704,-207.46684 678.72423,-207.81309 679.27581,-208.48392 C 679.93197,-209.28195 680.08007,-210.44183 679.70021,-211.6618 C 679.09748,-211.10325 680.0254,-210.23334 678.75339,-208.83429 C 678.34996,-208.34363 677.6426,-208.05937 676.5796,-208.2132 L 675.69423,-208.59782 L 676.03148,-207.59045 C 676.03148,-207.59045 676.06758,-207.22752 676.07288,-206.78304 C 676.07788,-206.33856 676.02268,-205.80174 675.93831,-205.59263 C 675.63741,-204.84682 674.90552,-204.3079 674.11306,-203.94583 C 673.58181,-203.7031 672.84406,-203.70243 672.24981,-203.90443 C 671.68035,-204.09799 670.98865,-204.88061 670.94145,-204.96483 L 670.42541,-205.88576 L 670.08544,-205.19141 C 670.00194,-205.02092 669.6992,-204.78016 669.4465,-204.54291 C 669.1938,-204.30565 668.8802,-204.07996 668.59769,-203.98393 C 668.00343,-203.78194 667.25533,-203.78261 666.72408,-204.02533 C 665.93162,-204.3874 665.07797,-205.12773 664.77707,-205.87354 C 664.69267,-206.08265 664.63721,-206.61947 664.6425,-207.06395 C 664.6475,-207.50843 664.79515,-207.90311 664.79515,-207.90311 L 665.05307,-208.54606 L 664.24453,-208.2599 C 663.23885,-208.1909 662.4344,-208.47144 661.99827,-208.93275 C 660.65334,-209.77121 661.34269,-210.85443 661.05743,-211.69289 L 661.05735,-211.69285 L 661.05735,-211.69285 z"
             style="font-size:medium;font-style:normal;font-variant:normal;font-weight:normal;font-stretch:normal;text-indent:0;text-align:start;text-decoration:none;line-height:normal;letter-spacing:normal;word-spacing:normal;text-transform:none;direction:ltr;block-progression:tb;writing-mode:lr-tb;text-anchor:start;fill:#806600;fill-opacity:1;stroke:none;stroke-width:0.46650738;marker:none;visibility:visible;display:inline;overflow:visible;enable-background:accumulate;font-family:Bitstream Vera Sans;-inkscape-font-specification:Bitstream Vera Sans" />
          <g
             style="stroke-width:0.46650738;stroke-miterlimit:4;stroke-dasharray:none"
             id="g4958-2-7-5-8-2-4"
             transform="translate(-8.49863e-3,0)">
            <path
               transform="translate(-265.6543,-796.35176)"
               d="M 935.11429,589.08246 A 1.6091586,1.5769755 0 1 1 931.89597,589.08246 A 1.6091586,1.5769755 0 1 1 935.11429,589.08246 z"
               sodipodi:ry="1.5769755"
               sodipodi:rx="1.6091586"
               sodipodi:cy="589.08246"
               sodipodi:cx="933.50513"
               id="path4904-1-84-8-1-7-08"
               style="fill:#ffefa7;fill-opacity:1;stroke:none"
               sodipodi:type="arc" />
            <path
               transform="translate(-260.64105,-796.35176)"
               d="M 935.11429,589.08246 A 1.6091586,1.5769755 0 1 1 931.89597,589.08246 A 1.6091586,1.5769755 0 1 1 935.11429,589.08246 z"
               sodipodi:ry="1.5769755"
               sodipodi:rx="1.6091586"
               sodipodi:cy="589.08246"
               sodipodi:cx="933.50513"
               id="path4904-2-1-1-9-5-3-1"
               style="fill:#ffefa7;fill-opacity:1;stroke:none"
               sodipodi:type="arc" />
          </g>
          <path
             style="fill:#e4c900;fill-opacity:1;stroke:none"
             d="M 666.85233,-209.832 C 666.85233,-209.832 669.19837,-210.77801 670.21146,-210.83261 C 671.28868,-210.89071 673.60334,-210.01758 673.60334,-210.01758 L 673.37394,-209.11387 L 670.76145,-207.60138 L 668.35522,-208.83887 L 667.26483,-208.93827 L 666.85233,-209.83201 L 666.85233,-209.832 z"
             id="path4928-0-7-6-3-9-0"
             sodipodi:nodetypes="cscccccc" />
          <path
             style="fill:#e4c900;fill-opacity:1;stroke:none"
             d="M 663.05208,-216.42826 C 662.37131,-216.32966 661.61486,-215.99267 661.27083,-215.39701 C 661.06452,-215.03981 661.27083,-214.14701 661.27083,-214.14701 L 662.30208,-214.42826 L 663.55208,-214.42826 L 666.36458,-214.02201 L 669.05208,-214.95951 C 669.05208,-214.95951 667.38485,-215.14437 666.53662,-215.34932 C 665.39122,-215.62607 664.21827,-216.5972 663.05208,-216.42826 z M 677.20833,-216.42826 C 676.19591,-216.40036 675.25759,-215.59148 674.25537,-215.34932 C 673.40714,-215.14437 671.67708,-214.95951 671.67708,-214.95951 L 674.36458,-214.02201 L 677.17708,-214.42826 L 678.39583,-214.42826 L 679.42708,-214.14701 C 679.42708,-214.14701 679.63339,-215.03981 679.42708,-215.39701 C 679.08305,-215.99267 678.3266,-216.32964 677.64583,-216.42826 C 677.50006,-216.44936 677.35296,-216.43226 677.20833,-216.42826 z"
             id="path4930-1-18-0-5-7-3"
             sodipodi:nodetypes="cscccccsccscccccssc" />
          <path
             sodipodi:nodetypes="ccsssccsscssssccccccssccccccsssscssccssscccssssccsccsssscccc"
             id="path3477-9-0-5-8-78-4-4-7-11"
             d="M 669.1689,-215.78165 L 668.66168,-215.54357 C 668.66168,-215.54357 666.98265,-214.42678 665.42481,-214.43181 C 664.79214,-214.43381 663.83242,-214.81586 662.93013,-214.89763 C 662.47898,-214.93853 662.05127,-214.81713 661.66489,-214.46918 C 661.2785,-214.12113 660.99186,-213.96532 660.9913,-213.24556 C 661.51783,-213.49152 661.81793,-213.79327 662.21276,-214.12543 C 662.30616,-214.20963 662.47163,-214.25802 662.79245,-214.22894 C 663.43407,-214.17084 664.42073,-213.75589 665.38029,-213.75278 C 666.75422,-213.74878 668.27192,-214.65001 668.89854,-214.90431 C 668.90454,-214.61845 669.00368,-213.79905 668.83954,-213.30914 C 668.75584,-213.05936 667.81541,-212.35507 667.4609,-211.75496 C 667.28366,-211.4549 667.11291,-211.15209 666.9744,-210.87509 C 666.83589,-210.5981 666.71684,-210.37418 666.69491,-210.06768 C 666.65071,-209.44971 666.93298,-208.88763 666.93298,-208.88763 L 667.04686,-208.57708 L 667.37809,-208.56678 C 668.60129,-208.52108 668.91123,-208.16745 669.43803,-207.37637 L 669.52083,-207.25215 L 669.64505,-207.20045 C 669.79323,-207.12995 669.90425,-207.07144 670.02805,-207.03482 C 670.15185,-206.99822 670.30518,-206.98322 670.43175,-207.00382 C 670.6849,-207.04502 670.71718,-207.1069 670.94932,-207.15909 L 671.146,-207.20049 L 671.25986,-207.37647 C 671.78666,-208.16754 672.10696,-208.52116 673.33014,-208.56688 L 673.65103,-208.57718 L 673.77525,-208.88772 C 673.77525,-208.88772 674.04722,-209.4498 674.00298,-210.06778 C 673.98108,-210.37427 673.79823,-210.4835 673.65972,-210.76049 C 673.52121,-211.03748 673.35046,-211.3403 673.17321,-211.64036 C 672.81871,-212.24047 671.94214,-213.27009 671.85844,-213.51987 C 671.69428,-214.00973 671.76554,-214.74628 671.77184,-215.03212 C 672.40275,-214.77692 673.95115,-213.74846 675.31765,-213.75288 C 676.27721,-213.75588 677.26385,-214.1709 677.9055,-214.22904 C 678.22632,-214.25814 678.39173,-214.20974 678.48517,-214.12553 L 679.70663,-213.24566 C 679.70597,-213.96542 679.35951,-214.32525 678.97312,-214.67331 C 678.58674,-215.02136 678.36534,-214.90673 677.91419,-214.86584 C 677.0119,-214.78404 676.05218,-214.40209 675.41951,-214.40003 C 673.86167,-214.39503 672.03625,-215.54367 672.03625,-215.54367 L 671.52903,-215.78175 L 671.35306,-215.24348 C 671.35306,-215.24348 671.03749,-214.24748 671.47727,-212.93512 C 671.64739,-212.42749 672.44378,-211.56958 672.79203,-210.98004 C 672.96616,-210.68527 673.13028,-210.39669 673.24749,-210.16228 C 673.36471,-209.92787 673.41356,-209.72135 673.41312,-209.72752 C 673.42212,-209.60826 673.36002,-209.42163 673.3096,-209.24101 C 672.18496,-209.09061 671.13612,-208.2389 670.61958,-207.51944 C 670.5025,-207.48374 670.34006,-207.44764 670.35044,-207.44694 C 670.33294,-207.45294 670.27854,-207.48084 670.23658,-207.49874 C 669.71793,-208.22993 668.44935,-209.21661 667.31174,-209.36874 C 667.26134,-209.54936 667.19969,-209.73599 667.20822,-209.85525 C 667.20789,-209.84925 667.26702,-210.0556 667.3842,-210.29001 C 667.50141,-210.52442 667.66553,-210.813 667.83966,-211.10777 C 668.18791,-211.69731 669.0609,-212.42749 669.23102,-212.93512 C 669.67082,-214.24748 669.35524,-215.24348 669.35524,-215.24348 L 669.16891,-215.78175 L 669.16891,-215.78173 L 669.16893,-215.78165 L 669.1689,-215.78165 z"
             style="font-size:medium;font-style:normal;font-variant:normal;font-weight:normal;font-stretch:normal;text-indent:0;text-align:start;text-decoration:none;line-height:normal;letter-spacing:normal;word-spacing:normal;text-transform:none;direction:ltr;block-progression:tb;writing-mode:lr-tb;text-anchor:start;fill:#806600;fill-opacity:1;stroke:none;stroke-width:0.46650738;marker:none;visibility:visible;display:inline;overflow:visible;enable-background:accumulate;font-family:Bitstream Vera Sans;-inkscape-font-specification:Bitstream Vera Sans" />
        </g>
      </g>
      <path
         id="path14997-8-0-1-79-2-8-3-7-7-76-77-2-3-9-5"
         style="fill:#e4c900;fill-opacity:1;stroke:none;display:inline"
         d="M 665.95433,-223.25977 C 665.95433,-223.25977 665.46342,-224.74844 664.66066,-226.00683 C 664.26052,-226.63407 663.49704,-227.52007 662.82448,-228.04276 C 662.13322,-228.58001 661.53813,-228.74542 661.53813,-228.74542 C 661.74307,-227.95798 661.24403,-227.04276 661.04028,-226.39448 C 661.04028,-226.39448 659.88581,-229.30454 658.82797,-230.16457 C 658.01203,-230.82796 656.09782,-231.47497 656.11053,-231.47489 C 656.12343,-231.4745 654.32297,-230.85164 653.49856,-230.19883 C 652.42981,-229.35244 651.23793,-226.45748 651.23793,-226.45748 C 651.04252,-227.10831 650.55533,-228.0299 650.77039,-228.81463 C 650.77039,-228.81463 650.1732,-228.65691 649.47511,-228.12856 C 648.79589,-227.61456 648.02103,-226.73844 647.61291,-226.11641 C 646.79406,-224.86843 646.28401,-223.3862 646.28401,-223.3862 C 647.23193,-223.69299 648.8132,-226.22082 649.68991,-226.26945 C 650.43379,-226.31075 650.48242,-224.30375 651.18129,-224.41071 C 652.13435,-224.55657 652.54179,-226.22988 653.39843,-227.56372 C 654.15812,-228.74661 655.37349,-229.82819 656.1105,-229.80017 C 656.85222,-229.77197 658.07331,-228.68657 658.80145,-227.49366 C 659.66179,-226.08416 660.44515,-224.52456 661.24602,-224.38139 C 662.04147,-224.23919 662.1061,-226.309 662.88509,-226.27341 C 663.81018,-226.23111 665.02667,-223.45334 665.95433,-223.25977 L 665.95433,-223.25977 z"
         sodipodi:nodetypes="ccssccscsccssscssscsc" />
      <path
         id="path14997-8-0-1-79-2-8-3-7-00-4-3-6-5-0"
         style="fill:none;stroke:#806600;stroke-width:0.46650738;stroke-linecap:butt;stroke-linejoin:miter;stroke-miterlimit:4;stroke-dasharray:none;stroke-opacity:1;display:inline"
         d="M 667.65197,-206.38462 C 669.82614,-205.76293 671.42426,-207.84677 671.79808,-208.11949 C 671.79808,-208.11949 670.73812,-208.48407 669.71678,-209.79574 C 669.03018,-210.67754 668.38837,-212.3988 668.11567,-213.21369 C 667.10261,-216.2405 668.19007,-217.06516 668.2961,-216.8445 C 668.2961,-216.8445 670.12883,-218.12066 670.78605,-219.01012 C 671.40933,-219.85233 671.47377,-221.02431 671.41358,-222.06977 C 671.32328,-223.63789 670.12439,-225.63751 670.12439,-225.63751 C 667.12393,-224.96563 666.48492,-224.36073 666.05138,-223.25977 C 666.05138,-223.25977 665.56047,-224.74844 664.75771,-226.00683 C 664.35757,-226.63407 663.59409,-227.52007 662.92153,-228.04276 C 662.23027,-228.58001 661.63518,-228.74542 661.63518,-228.74542 C 661.84012,-227.95798 661.34108,-227.04276 661.13733,-226.39448 C 661.13733,-226.39448 659.98286,-229.30454 658.92502,-230.16457 C 658.10908,-230.82796 656.19487,-231.47497 656.20758,-231.47489 C 656.22048,-231.4745 654.42002,-230.85164 653.59561,-230.19883 C 652.52686,-229.35244 651.33498,-226.45748 651.33498,-226.45748 C 651.13957,-227.10831 650.65238,-228.0299 650.86744,-228.81463 C 650.86744,-228.81463 650.27025,-228.65691 649.57216,-228.12856 C 648.89294,-227.61456 648.11808,-226.73844 647.70996,-226.11641 C 646.89111,-224.86843 646.38106,-223.3862 646.38106,-223.3862 C 645.99447,-224.55609 645.39676,-225.12267 642.33895,-225.81609 C 642.33895,-225.81609 641.11447,-223.83204 641.00407,-222.26521 C 640.93037,-221.22059 640.98077,-220.04788 641.59222,-219.19775 C 642.23793,-218.29992 644.05413,-217.00029 644.05413,-217.00029 C 644.16291,-217.21958 645.2397,-216.381 644.18785,-213.36746 C 643.9047,-212.55615 643.24084,-210.84329 642.54293,-209.97039 C 641.50484,-208.67195 640.44026,-208.32103 640.44026,-208.32103 C 641.58615,-206.79799 641.96527,-206.14909 644.56374,-206.53301 C 640.02559,-200.80827 641.24285,-194.08917 647.21325,-189.77359 C 647.30805,-190.5235 647.85322,-192.32048 648.26485,-193.06834 C 648.18955,-193.09904 649.25655,-189.87277 651.36008,-188.6751 C 652.04262,-188.28652 653.15653,-185.35814 654.18971,-184.63198 C 655.13222,-183.96952 656.37835,-183.31204 656.37835,-183.31204 C 656.37835,-183.31204 656.45835,-185.90951 657.46623,-186.5984 C 658.48119,-187.2922 660.40508,-188.48918 661.03395,-188.90438 C 662.2996,-189.74001 663.93079,-193.41063 663.93079,-193.41063 L 664.52995,-189.66229 C 671.27879,-194.46718 671.53749,-200.05441 667.65193,-206.38461 L 667.65197,-206.38462 z"
         sodipodi:nodetypes="cccsscssccssccscsccssccsscsccccsscssccc" />
      <g
         style="stroke-width:0.46650738;stroke-miterlimit:4;stroke-dasharray:none"
         id="g5134-9-49-3-5-3-8"
         transform="translate(-14.274785,-5.3361681)">
        <path
           sodipodi:nodetypes="cscsc"
           id="path5110-5-1-7-9-3-4"
           d="M 657.19992,-218.43138 C 657.19992,-218.43138 659.00467,-217.8354 659.36674,-217.01174 C 659.86041,-215.88873 659.74033,-212.45394 659.74033,-212.45394 C 659.74033,-212.45394 657.46697,-214.14742 657.05049,-215.06907 C 656.52653,-216.22858 657.19992,-218.43138 657.19992,-218.43138 L 657.19992,-218.43138 z"
           style="fill:#806600;fill-opacity:1;stroke:none" />
        <path
           sodipodi:nodetypes="cscsc"
           id="path5110-9-6-55-0-5-3-9"
           d="M 683.58799,-218.43138 C 683.58799,-218.43138 681.78324,-217.8354 681.42117,-217.01174 C 680.9275,-215.88873 681.04758,-212.45394 681.04758,-212.45394 C 681.04758,-212.45394 683.32094,-214.14742 683.73742,-215.06907 C 684.26138,-216.22858 683.58799,-218.43138 683.58799,-218.43138 L 683.58799,-218.43138 z"
           style="fill:#806600;fill-opacity:1;stroke:none" />
      </g>
      <path
         style="fill:#fff1a1;fill-opacity:1;stroke:none"
         d="M 650.51276,-207.51703 C 647.04572,-206.83363 644.39441,-201.39239 645.89241,-196.29617 C 647.31915,-200.20392 651.19763,-205.36578 650.51276,-207.51703 z"
         id="path5269-2-58-0-4-8-3"
         sodipodi:nodetypes="ccc" />
      <path
         style="fill:#fff1a1;fill-opacity:1;stroke:none"
         d="M 662.74034,-206.29225 C 665.23192,-206.09658 667.21077,-201.88681 666.41278,-196.44059 C 665.82626,-200.34834 662.90041,-204.141 662.74034,-206.29225 z"
         id="path5269-9-85-29-1-9-5-05"
         sodipodi:nodetypes="ccc" />
      <path
         style="fill:#fff1a1;fill-opacity:1;stroke:none"
         d="M 650.99361,-199.17506 C 650.99361,-199.17506 650.63027,-197.17135 650.99326,-195.73533 C 651.23616,-194.77443 651.54924,-193.78386 652.15181,-192.99694 C 652.77519,-192.18284 655.55806,-191.10113 655.55806,-191.10113 L 655.55506,-188.77975 C 655.55506,-188.77975 657.70944,-190.54348 657.98081,-191.5191 C 658.188,-192.26399 658.61607,-195.21157 658.61607,-195.21157 L 656.61161,-192.47033 C 656.61161,-192.47033 653.4246,-193.78415 652.67874,-194.78743 C 651.5313,-196.33088 650.99393,-199.17506 650.99393,-199.17506 L 650.99361,-199.17506 z"
         id="path5293-9-82-0-1-8-23"
         sodipodi:nodetypes="cssccsccsc" />
      <path
         style="fill:#ffefa7;fill-opacity:1;stroke-width:0.46650738;stroke-miterlimit:4;stroke-dasharray:none"
         d="M 647.58929,-222.27668 C 647.58929,-222.27668 647.4551,-223.03276 649.13828,-223.8174 C 650.91237,-224.64441 654.54188,-225.50313 655.9098,-225.54168 C 657.54965,-225.58788 661.14593,-224.69476 663.03086,-223.77292 C 664.61597,-222.99771 664.65159,-222.17136 664.65159,-222.17136 C 661.73766,-222.66317 658.82373,-222.34583 655.9098,-221.4341 C 653.49446,-222.55067 650.8434,-223.11724 647.58929,-222.27668 z"
         id="path5295-43-0-3-7-9-8"
         sodipodi:nodetypes="csssccc" />
    </g>
  </g>
</svg>
