<?xml version="1.0" encoding="UTF-8" standalone="no"?>
<svg
   xmlns:dc="http://purl.org/dc/elements/1.1/"
   xmlns:cc="http://creativecommons.org/ns#"
   xmlns:rdf="http://www.w3.org/1999/02/22-rdf-syntax-ns#"
   xmlns:svg="http://www.w3.org/2000/svg"
   xmlns="http://www.w3.org/2000/svg"
   xmlns:sodipodi="http://sodipodi.sourceforge.net/DTD/sodipodi-0.dtd"
   xmlns:inkscape="http://www.inkscape.org/namespaces/inkscape"
   width="400"
   height="475"
   viewBox="0 0 105.83333 125.67709"
   version="1.1"
   id="svg847"
   sodipodi:docname="kurzeme.svg"
   inkscape:version="1.0.2 (e86c870879, 2021-01-15, custom)">
  <defs
     id="defs841" />
  <sodipodi:namedview
     id="base"
     pagecolor="#ffffff"
     bordercolor="#666666"
     borderopacity="1.0"
     inkscape:pageopacity="0.0"
     inkscape:pageshadow="2"
     inkscape:zoom="0.98994949"
     inkscape:cx="240.08899"
     inkscape:cy="197.01262"
     inkscape:document-units="px"
     inkscape:current-layer="layer1"
     inkscape:document-rotation="0"
     showgrid="false"
     inkscape:snap-smooth-nodes="true"
     inkscape:showpageshadow="false"
     borderlayer="true"
     units="px"
     inkscape:window-width="1920"
     inkscape:window-height="1017"
     inkscape:window-x="-8"
     inkscape:window-y="-4"
     inkscape:window-maximized="1"
     inkscape:snap-global="true"
     inkscape:object-paths="false" />
  <metadata
     id="metadata844">
    <rdf:RDF>
      <cc:Work
         rdf:about="">
        <dc:format>image/svg+xml</dc:format>
        <dc:type
           rdf:resource="http://purl.org/dc/dcmitype/StillImage" />
        <dc:title />
      </cc:Work>
    </rdf:RDF>
  </metadata>
  <g
     inkscape:label="Layer 1"
     inkscape:groupmode="layer"
     id="layer1"
     transform="translate(-81.642853,-75.500745)">
    <path
       d="m 186.81473,147.40569 c 0,29.25219 -23.47396,53.11068 -52.25516,53.11068 -28.73771,0 -52.255257,-23.90241 -52.255257,-53.11068 V 76.162205 H 186.81473 v 71.243485"
       style="fill:#c3c4c6;fill-opacity:1;fill-rule:evenodd;stroke:#000000;stroke-width:1.32292;stroke-miterlimit:4;stroke-dasharray:none"
       id="path14-5" />
    <path
       id="path1684"
       style="font-variation-settings:normal;opacity:1;vector-effect:none;fill:#cc2030;fill-opacity:1;stroke:#000000;stroke-width:2.5;stroke-linecap:butt;stroke-linejoin:miter;stroke-miterlimit:4;stroke-dasharray:none;stroke-dashoffset:0;stroke-opacity:1"
       d="m 161.625,19.318359 c 0.89458,3.827717 0.97109,6.368177 -0.008,10.935547 -0.97792,4.567374 -1.77819,7.556934 -0.90625,12.052735 -8.32498,2.931987 -13.60743,6.445062 -14.11328,19.060547 -4.86429,3.490011 -8.70925,7.061831 -11.56446,14.660156 -2.85524,7.598324 -2.72597,15.619644 -6.82226,19.388672 -2.76408,0.95297 -5.48295,0.535986 -8.13282,-0.605469 -2.53035,6.825603 0.48671,12.947043 8.22461,15.457033 -3.07324,3.07325 -5.68085,13.43065 -0.69531,23.22265 1.97337,10.13466 4.76784,17.05437 10.89453,27.82032 6.12673,10.76591 9.46505,18.26101 7.95899,23.48047 -1.50607,5.21949 -5.43522,5.46858 -8.60352,5.26562 1.13367,5.09329 5.91708,9.93675 13.09766,6.29102 -2.27309,4.6303 -3.32344,10.54882 -7.14844,16.92382 -3.82499,6.37501 -8.62357,12.65843 -16.47656,18.0254 -7.44673,5.08928 -9.73229,11.71645 -13.49024,19.23828 -3.75798,7.52182 -9.30469,11.06486 -21.429684,12.05468 -12.125026,0.98982 -23.035715,-2.67996 -28.125,-11.78711 -5.089285,-9.10715 -4.879101,-27.69795 6.429688,-33.75 11.3088,-6.05204 20.158819,-3.44709 24.285156,2.05469 2.168768,-7.42582 0.209037,-17.22082 -10.447266,-16.875 4.443175,-2.35052 6.769303,-5.32633 5.894532,-10.71484 -4.525531,4.61537 -8.7425,3.78789 -13.394532,4.375 9.375005,-10.17857 13.392851,-15.2684 22.5,-27.58985 9.107186,-12.32141 15.250996,-23.64286 15.537106,-39.375 0.28604,-15.73213 -7.16067,-34.808627 -22.499996,-42.855464 -15.339326,-8.046841 -33.606859,-3.868058 -45.267578,4.820312 -11.660716,8.688355 -10.85206,20.985302 -7.5,35.625002 3.286397,14.35294 0.190656,16.84518 -3.75,19.55469 8.020981,3.02982 15.241469,-2.37298 13.660156,-12.05469 3.852748,8.35805 8.202065,22.05828 -5.625,21.16015 1.600974,5.588 7.299794,8.58288 13.392578,7.5 6.092784,-1.08287 8.581425,-4.7807 9.107422,-10.44531 4.298143,-1.61956 9.126444,-5.35077 8.302734,-12.32226 -0.82371,-6.97149 -4.85145,-12.43295 -10.070312,-18.1875 7.048834,4.48924 16.022189,1.22398 13.820312,-7.61524 -3.482154,2.14288 -7.738451,1.09973 -8.302734,-3.48242 -0.564284,-4.58215 3.045277,-12.116999 12.857422,-11.785156 9.812145,0.33188 16.736153,11.713736 18.212886,23.035156 1.4767,11.32142 -1.667015,27.35121 -10.445308,38.83984 -8.778293,11.48863 -13.6085,17.79004 -22.482422,27.93164 -0.799517,-6.37768 -4.443258,-13.41455 -12.878906,-14.20507 -8.435649,-0.79053 -15.754812,4.09265 -13.636719,14.20507 4.73509,-3.97746 10.944518,-2.87385 13.558594,4.17969 2.614072,7.05358 0.566077,11.83883 -5.31836,33.78125 -5.919182,22.07199 0.978302,37.76827 17.914063,45.28125 16.935772,7.51302 33.803848,4.71718 41.236328,-2.87109 -3.21419,4.82143 -3.32644,9.22488 -2.86719,17.45703 0.45922,8.23215 0.74468,14.30435 0,18.46289 -0.74472,4.15854 -2.1866,6.73657 -3.03125,11.30273 -5.048917,-1.43595 -12.652824,2.2367 -19.873044,-1.41992 -7.220221,-3.65665 -6.83437,-10.6661 -4.9375,-17.70898 -10.494509,0.62944 -14.629202,7.77847 -14.205078,17.99219 -4.383459,1.75657 -4.967046,7.54292 -3.220704,13.82812 -2.769127,3.64324 -0.901797,8.36207 1.388672,12.4375 -4.16688,4.73511 -0.940923,8.33317 0.56836,12.68945 1.509282,4.35629 0.657413,8.76296 2.273437,14.39453 1.616024,5.63158 1.316451,8.28461 -1.515625,13.63672 -2.832075,5.35215 -1.369311,11.70867 5.302734,12.50196 7.169235,0.85243 11.430622,6.13468 15.107422,10.63867 3.6768,4.50399 8.443651,4.79837 10.050782,0.66992 2.450267,1.44809 4.439854,2.59347 6.898434,6.11523 2.7535,-2.81151 3.49335,-7.78875 1.23047,-11.3457 3.48091,2.44774 6.35879,5.09215 9.12696,9.87696 3.60268,-3.56535 3.52204,-7.87944 2.73242,-11.89258 l 0.9375,0.13476 c 2.96043,2.38583 4.30776,2.42371 7.25976,6.46289 3.82942,-3.53367 2.22161,-8.35238 0.52539,-9.93554 3.99935,-2.45099 4.31264,-6.52039 2.19532,-8.86914 1.51521,-4.35629 -1.10605,-7.90367 -5.49219,-8.52344 -4.38614,-0.61977 -9.28135,1.13608 -17.04688,-1.32617 -7.765565,-2.46225 -12.120992,-5.49374 -11.931638,-11.36524 0.189393,-5.87149 5.680269,-14.39301 7.953126,-16.09765 2.272852,-1.70465 6.454472,0.11112 15.720702,3.97656 9.26627,3.86543 14.00892,3.55378 17.74219,1.89453 -3.82084,7.60074 0.75512,15.83296 3.93945,23.14453 3.18433,7.31157 1.77746,10.97305 -3.37109,12.11719 4.67595,4.36993 11.18268,2.95441 14.74023,0.42383 3.55756,-2.53059 5.62418,-6.24503 4.55469,-13.46094 1.86244,6.86056 6.04601,7.56601 8.41211,6.73047 -1.79441,-3.2434 -2.66796,-5.03224 -2.06055,-10.38477 0.68183,-6.00839 2.85631,-8.93302 7.67774,-16.96875 4.82143,-8.03569 3.18551,-18.83008 1.20507,-27.45508 -1.98043,-8.62499 -3.50236,-11.98409 -4.75781,-17.60742 1.08442,-1.37571 1.62563,-2.71763 2.23633,-4.39453 9.47017,9.84896 17.53552,15.1193 30.46094,19.24023 12.92541,4.12094 26.65553,4.4763 29.39062,5.57032 2.7351,1.09402 5.62231,6.00357 4.92578,9.28125 -0.75511,3.55324 -2.892,4.09759 -5.11523,7.76562 -2.23219,3.68281 -2.27341,6.62905 -9.66016,7.19727 -7.38674,0.56821 -11.37703,3.66464 -13.44726,7.38672 -2.07028,3.72204 -2.50232,8.55176 1.51562,12.8789 2.88193,-4.90405 5.59543,-8.05341 13.25782,-6.06054 7.81613,2.03289 8.76099,-0.54479 12.3125,-0.94727 -0.19541,1.2627 -0.44484,2.52636 0.0937,3.78906 4.97583,1.16157 7.71266,-1.69384 10.32227,-1.89453 -0.0605,1.01016 -0.0588,2.0211 0.37891,3.03125 4.6586,0.89579 6.27202,-1.89925 8.90234,-2.46289 -0.0615,1.25945 0.0168,1.86087 0.37891,2.65234 5.58886,0.0781 6.04608,-2.0384 9.87304,-2.80859 1.39866,1.34102 0.59035,3.16247 1.86133,5.15039 1.27098,1.98792 4.91364,3.28797 6.60547,5.17774 1.69183,1.88976 0.83827,3.50147 4.09766,5.41406 3.25939,1.91263 5.52026,0.83883 6.73047,5.4375 1.2102,4.59866 3.63226,7.41474 9.0625,7.35351 5.43023,-0.0611 7.67588,-2.88021 13.54492,-3.50976 5.869,-0.62952 7.83153,2.74792 13.94726,2.40625 6.11573,-0.34178 6.56912,-2.87283 6.5918,-5.66602 4.59851,0.7036 6.49743,1.42276 9.75977,3.14063 1.21833,-1.42953 1.55959,-3.31572 1.19335,-5.59375 1.6777,0.92855 2.60172,1.72296 4.4668,3.45508 1.1658,-1.24804 1.94625,-3.02353 1.91602,-4.86914 1.38047,0.88388 1.95491,1.76846 2.65234,2.65234 3.40615,-3.88581 3.85873,-8.34264 0.56445,-12.4082 1.39216,-2.72319 -0.17755,-4.71743 -2.82031,-6.80664 -2.64272,-2.08918 -3.34012,-5.24611 -8.69726,-7.1211 -5.35714,-1.87498 -11.78432,-0.80355 -16.33789,1.875 -4.55358,2.67859 -10.98212,2.67829 -16.875,2.14258 -5.89285,-0.53571 -9.10769,-1.60713 -12.58985,-9.375 -3.48215,-7.76787 -5.5918,-17.87891 -5.5918,-17.87891 6.31367,3.92981 11.82223,2.77051 14.19532,9.75391 3.47093,-2.91855 3.85586,-5.99122 2.15625,-10.66797 1.86039,1.28954 4.25067,3.68192 5.95898,6.23828 7.78711,-7.27532 1.8333,-19.58866 -5.46875,-23.60547 5.42234,-0.60393 7.99383,-5.50247 4.82031,-11.78711 -4.28572,4.8214 -9.10549,4.2871 -12.85546,2.41211 -3.74998,-1.87498 -5.96586,-6.5987 -8.83985,-13.125 -2.87399,-6.5263 -8.30929,-7.74821 -13.18945,-10.32226 -4.88016,-2.57401 -8.85576,-7.81781 -12.93164,-10.77344 -4.07584,-2.95567 -8.11388,-3.29605 -13.9336,-2.06445 -9.8508,-3.54675 -13.86851,-6.59162 -21.55078,-7.70703 -7.68226,-1.11542 -18.85757,-0.67635 -29.93359,-2.39649 -11.07602,-1.7201 -18.52568,-7.0019 -22.84375,-12.18359 10.21005,-8.19988 22.65772,-13.64223 42.12891,-17.1211 19.47114,-3.47882 25.1449,-9.39971 26.35937,-15.08007 6.10791,0 14.79525,0.0985 23.67578,0.3789 8.88053,0.28044 19.10734,0.81562 26.07422,1.51563 6.96688,0.70004 11.17383,3.84192 11.17383,10.98633 0,7.1444 2.40703,9.70074 5.87305,8.33203 2.20509,4.5832 5.72346,8.22919 11.18945,10.41406 -0.59713,-6.48231 -0.53288,-8.06132 -1.87695,-12.74219 2.97327,-0.57615 3.28879,-2.29689 2.61914,-4.24414 2.03489,2.33628 3.75259,3.18224 5.72656,3.33985 1.97397,0.15722 3.35368,-0.66953 4.69141,-2.25977 5.03977,0.64547 8.61233,3.02525 10.78124,6.00586 2.24625,-5.834 0.61746,-10.17672 -3.58398,-13.58203 2.11809,-2.16972 1.82218,-4.24555 0.85156,-6.10156 -0.97062,-1.85598 -2.90577,-3.5348 -4.95703,-4.75782 4.54572,0.74381 7.57873,-1.36537 6.63086,-5.87109 3.64883,-3.89227 6.709,-4.92494 12.19922,-3.02539 -0.33335,-6.02763 -6.45039,-9.06564 -12.38867,-8.33789 1.25556,-4.31535 -2.67237,-7.19838 -10.01758,-5.08203 1.78602,-1.65064 2.26392,-3.47525 0.99219,-6.97657 2.57684,-2.14684 5.48348,-3.32723 9.62304,-3.60351 -2.79208,-6.10401 -8.97243,-7.02374 -14.45312,-4.57227 -2.14481,-2.46678 -5.76858,-5.02627 -9.39844,-0.11523 -3.62986,4.91104 -6.46708,10.36065 -10.94922,12.71484 -4.4821,2.35423 -9.32651,3.32144 -19.20703,0.67774 -9.88051,-2.64371 -15.86206,-5.84815 -19.94531,-8.57032 4.69047,-1.93632 8.22112,-5.18631 8.87305,-10 -5.82414,2.46048 -10.87265,2.49569 -17.14258,-1.875 -6.2078,-4.3274 -7.62434,-10.60322 -7.76758,-20.99023 1.74614,4.37469 3.66379,9.4292 9.27344,12.97266 5.60961,3.54349 11.93403,1.13622 13.63867,-0.75782 -5.37619,-2.18139 -7.85038,-5.01692 -9.4707,-8.90039 11.73717,-6.32001 18.31386,-12.63294 27.32421,-18.9082 9.01032,-6.27523 15.48001,-12.21729 21.16211,-14.11133 5.68215,-1.89403 7.85285,1.93602 10.9961,2.65039 3.14328,0.71437 4.83283,-0.50626 6.51562,-1.81836 4.13972,3.29658 11.22896,5.1672 16.14453,-0.0449 -4.16496,-0.97708 -6.69891,-2.77776 -8.96289,-5.26953 1.85038,-1.80541 2.87758,-4.12362 1.82422,-7.26172 -1.05335,-3.1381 -3.24461,-3.97752 -4.92578,-4.35547 5.78604,-0.23017 8.99322,-1.11853 7.62695,-7.10742 2.15513,-3.281272 5.84913,-4.513845 9.47657,-5.832031 -3.69185,-4.990409 -9.65806,-5.009495 -14.48633,-3.027344 -1.25734,-2.249435 -3.3459,-4.071135 -7.91992,-2.216797 1.70086,-3.061602 1.68591,-5.549855 -0.61914,-7.27539 2.62696,-4.522897 5.3174,-6.376865 8.18164,-8.154297 -5.95711,-3.961894 -10.7776,-2.614113 -15.26953,2.748047 -1.81879,-1.417346 -3.5925,-1.299646 -5.74415,-0.392579 -2.15164,0.907068 -4.32548,3.445722 -6.91015,4.488282 -0.5139,-1.318167 0.35828,-2.635516 -0.0937,-4.355469 2.9557,-2.953954 5.27,-4.409723 8.68945,-6.66211 -4.24271,-2.821315 -10.35395,-3.098847 -13.61523,3.0625 -2.04439,0.249563 -5.56718,1.469272 -8.77539,9.533204 -3.20818,8.063947 -1.0743,18.455514 -1.51367,21.970704 -0.43949,3.5153 -7.80512,7.15662 -15.91016,13.25976 -7.79116,5.86678 -10.98578,8.1432 -16.28906,10.41602 -4.69353,-5.98942 -8.5598,-7.83932 -15.65821,-8.08008 0.70742,-1.64148 0.92242,-2.52669 1.13672,-4.92578 -3.05567,1.48989 -4.74904,1.88405 -7.19726,2.08398 -1.83156,-6.87737 -3.09211,-12.70982 -13.98633,-17.56054 -10.89405,-4.850743 -12.32099,-7.4989 -15.2674,-14.195334 7.58755,-2.030816 10.80517,2.124945 19.64258,1.160156 8.8374,-0.964789 9.91128,-5.357139 10.71484,-9.375 -5.10682,0.785665 -8.53583,0.458665 -18.46484,-2.455078 -9.92901,-2.913744 -14.77443,2.082577 -18.5625,4.166015 -3.78807,2.083438 -5.87465,0.326946 -4.92383,-3.21875 0.95082,-3.545688 3.21962,-5.871689 6.62891,-8.144531 3.40924,-2.272841 7.31005,-2.43888 12.68945,-4.167969 5.30332,-1.704631 5.68284,-5.113827 10.22851,-7.197265 4.54568,-2.083442 6.2494,0.189591 11.36329,0.757812 5.11392,0.568211 8.15416,-2.554749 8.6582,-6.496094 0.50404,-3.941344 -0.40615,-5.778655 -1.51563,-7.732421 1.26947,-0.398918 2.19287,-0.980793 2.64063,-2.341797 0.4478,-1.361008 0.56923,-5.69962 -0.64453,-6.775391 -1.2138,-1.075774 -2.85416,-1.277493 -5.31641,-1.845703 -4.9245,-1.136421 -9.50402,-4.734868 -17.45898,-6.628906 -7.95496,-1.894035 -11.60508,0.008 -16.66602,-1.326172 -5.0609,-1.334264 -6.06279,-4.166711 -7.19922,-6.81836 -3.49054,0.818616 -6.50377,2.516856 -8.34765,8.667969 -1.78496,-5.344751 -3.68689,-7.338944 -9.43555,-8.242187 -5.74866,-0.903236 -8.78331,0.488697 -13.65625,-0.615235 z m 109.15234,29.027344 c -4.78395,-0.02299 -9.07571,2.62773 -11.55664,6.642578 15.13792,-0.09192 18.3576,14.380364 7.67578,18.384766 -10.68181,4.004398 -21.68776,-2.814761 -31.16406,-5.148438 -9.47629,-2.333676 -16.02377,-0.679455 -20.64258,3.560547 8.46607,-0.313814 13.77149,-0.677756 24.89649,4.31836 11.125,4.996115 24.54629,11.061942 36.33203,4.097656 11.78574,-6.964286 11.15473,-22.71736 3.31641,-28.642578 -2.93938,-2.221957 -5.98706,-3.199095 -8.85743,-3.212891 z"
       transform="matrix(0.26458334,0,0,0.26458334,81.642853,75.500745)" />
    <path
       id="path1486"
       style="fill:none;fill-opacity:1;stroke:#000000;stroke-width:0.661458;stroke-linecap:butt;stroke-linejoin:miter;stroke-miterlimit:4;stroke-dasharray:none;stroke-dashoffset:0;stroke-opacity:1"
       d="m 135.50446,113.32199 c 0.99747,0.58161 2.38316,1.47281 2.76395,4.67745 0.38079,3.20464 -0.14174,5.88226 1.06306,7.51228 1.2048,1.63002 2.85558,1.48828 4.18136,1.21696 -0.5437,1.1398 -1.24996,2.31413 -3.33092,2.39744 -2.08096,0.0833 -3.47113,-1.42701 -3.93255,-2.62701 -0.46142,-1.2 -0.53229,-3.25525 -0.53229,-5.87746 0,-2.62221 -0.77957,-3.54352 -1.63002,-4.39397 m 29.23195,23.62024 c -0.78664,0.0522 -1.54709,0.25389 -2.46414,0.61603 m 7.81763,-3.4578 c -0.63127,0.57406 -1.15803,0.98583 -1.90429,2.00451 m -1.1436,-14.79152 c 0.56748,0.65267 0.94189,1.23672 1.27837,2.16311 m 2.38759,3.19047 c -0.40737,1.14177 -0.20068,1.81463 0.0501,3.00677 m -35.5929,-0.84965 c -1.70697,-0.7515 -1.9895,-3.01001 -0.54921,-4.74632 m 3.05081,-0.48441 c -1.8688,1.6835 -2.45083,3.55144 -2.5016,5.23073 -0.0508,1.6793 0.66114,2.4786 1.43252,2.73724 0.21813,1.22531 1.06201,1.67366 1.75396,1.75396 0.0895,-0.19846 0.14822,-0.40718 0.10022,-0.65147 0.50113,1.20272 1.65373,1.40317 1.65373,1.40317 0.12013,-0.17156 0.17983,-0.36323 0.10023,-0.60136 0.4009,0.60136 0.90203,0.80181 0.90203,0.80181 0,0 0.0668,-2.3887 3.49121,-2.3219 m -4.46726,-10.68863 c 0.64652,0.57758 1.85206,0.94181 3.16342,0.63196 1.31136,-0.30985 2.57848,-1.2029 3.07455,-3.17431 0.49608,-1.97142 0.27693,-3.04227 0.19048,-4.34677 m -1.13392,6.39555 c 0.94796,1.55527 2.92394,2.74471 5.87296,1.79538 m -9.90763,-15.2474 c 1.75223,0.87123 3.62064,2.82608 3.51495,5.60901 -0.0922,2.42647 -2.18498,3.28803 -3.82701,2.83482 1.03146,-1.16688 1.25344,-2.42771 0.49609,-3.75613 -0.75736,-1.32843 -2.33012,-2.46839 -4.53571,-3.11831 m 6.66327,6.46138 c 1.14186,0.34272 2.16181,-0.0812 2.88063,-1.14609 0.71882,-1.06488 0.64776,-2.5957 0.0606,-4.03756 -0.58721,-1.44186 -1.29292,-2.31481 -2.85183,-3.22404 m 0.75919,-0.48167 c 4.60385,1.78164 4.56412,4.69005 6.06079,8.28733 m 17.46218,-8.51606 c 0.32684,-0.25483 0.64521,-0.56647 0.96649,-0.78283 0.32129,-0.21635 0.68148,-0.3807 0.93351,-0.6233 m 1.19758,-4.95428 c -0.17976,-0.56295 -0.58311,-0.83987 -0.81517,-1.25157 -0.23207,-0.41171 -0.33331,-0.77572 -0.51033,-1.09243 m -2.25941,-2.511624 c -0.41973,-0.286185 -0.74728,-0.402469 -1.0511,-0.655932 -0.30382,-0.253464 -0.56241,-0.515352 -0.82436,-0.774267 m -4.67592,-1.021079 c 0.65102,-0.01915 1.09787,0.172746 1.30294,0.952148 m 0.0249,1.1526 c 0.086,0.77375 1.70942,2.000067 0.2257,3.892114 m 0.60996,-1.3237 c 0.71751,0.3189 1.48146,0.70417 2.19637,1.7894 0.68591,1.08522 0.82921,2.02096 1.00226,2.98601 1.14756,-0.31297 1.60605,-0.43543 2.75622,-0.26119 m -3.90882,-3.14041 c 1.00765,-0.50383 1.07308,-1.14622 2.50571,-1.670443 m -17.95722,10.223063 c 1.43969,2.14407 0.82052,3.73956 -0.35618,4.3364 m -3.7865,-6.47455 c -0.78933,1.42747 -1.59527,2.0268 -3.10701,2.2718 -1.51174,0.24499 -2.38872,-0.35079 -3.55802,-1.10249 -1.1693,-0.7517 -1.79871,-1.1738 -3.18648,-1.27359 m 0.3896,-4.51398 c 1.4024,-0.21166 2.4541,0.23696 4.14845,2.06384 1.69434,1.82688 2.53213,1.94857 3.70984,1.80272 m -27.34453,-6.34691 c 1.57782,-0.33465 2.16537,-1.495928 3.04071,-3.454189 0.87534,-1.958261 1.95754,-4.171289 5.49603,-4.601548 m -3.39229,-1.032164 c 2.74522,-1.719462 2.44235,-2.831212 3.83123,-4.667136 m -0.0973,-0.375848 c 0.18498,0.946675 0.68053,1.611077 1.7225,2.074176 -1.73536,1.244236 -2.65514,2.851445 -1.46179,5.394759 -0.0725,0.844952 0.21055,2.083685 1.30503,2.601452 -0.017,0.950133 0.2482,1.812157 1.48828,2.288615 0.0936,0.904991 0.62358,1.502333 1.50044,1.467523 0.16496,0.80746 0.52154,1.50706 1.40526,1.60927 0.0761,-1.23945 0.28778,-1.87769 0.88015,-2.558473 0.50114,1.152603 1.11477,1.821973 1.95441,2.505653 0.83964,0.68368 1.05829,1.23367 1.10839,2.1646 0.68398,-0.57243 1.04741,-1.42754 0.74058,-2.61361 -0.30683,-1.18607 -0.96454,-1.47621 -1.31111,-2.515905 0.4223,-0.140765 0.90576,-0.25861 1.39379,-0.34254 m -19.4845,12.050005 c 1.07052,2.1154 2.57775,3.5768 4.43005,4.42771 1.85229,0.85092 4.30296,0.57741 5.70612,-1.12643 m -9.95203,-9.44544 c 2.29047,0.52258 3.85283,-0.34174 5.02425,-1.61283 1.17143,-1.27109 1.60362,-2.62754 1.9043,-4.71063 m 2.05463,-2.856443 c -0.88144,0.08718 -2.06883,0.681948 -2.05463,3.407686 0.0142,2.725737 0.69807,4.522427 -0.7517,5.913337 -1.44978,1.39091 -3.86028,0.82923 -4.91108,0.0501 m -3.442,-4.28095 c 0.81639,1.3272 2.28234,2.05813 3.78984,1.44463 1.5075,-0.61351 2.22486,-2.534148 3.21705,-4.872876 0.99219,-2.338728 2.25026,-3.336906 3.65342,-3.637584 m -3.19241,11.98242 c 0.95349,1.47723 2.33954,2.3804 4.84855,1.89274 2.50901,-0.48766 3.5496,-3.38102 3.76222,-5.50714 m -8.61077,3.6144 c 1.28912,0.29293 2.53115,0.45928 4.0818,-0.36836 1.55064,-0.82764 1.85422,-2.96275 2.66206,-5.08469 m -6.53041,5.26187 c 2.26177,0.27673 3.57761,-0.52253 3.59094,-3.12525 0.0133,-2.602721 -0.43809,-4.670318 1.04416,-5.421408 m -4.14712,30.686488 c 1.10148,-0.61193 2.65618,-1.96778 2.24864,-4.80876 -0.39531,-2.75566 -2.28861,-4.85567 -3.2808,-7.12353 m 0.60239,0.21262 c 1.0516,1.47733 3.98597,3.44086 8.32729,2.90569 4.34133,-0.53517 7.37054,-4.60659 5.38617,-9.21317 -0.6425,1.87696 -2.36128,3.13158 -4.8192,2.76395 -2.45793,-0.36764 -3.33092,-3.18917 -3.6144,-5.10268 m 5.83866,-5.60078 c -0.82754,1.24282 -1.24193,2.56797 -0.52189,4.76682 0.72005,2.19886 1.15869,3.69369 -0.044,4.69595 1.35409,0.6982 2.21223,0.12579 2.68283,-0.69046 0.47059,-0.81626 0.21644,-1.74246 -0.31286,-3.51044 -0.52923,-1.76799 -0.48588,-2.17205 -0.16507,-3.31606 m -12.24962,3.04076 c -0.15158,0.75791 -0.40322,3.54104 1.2048,5.66964 1.60802,2.1286 3.63686,2.26786 5.59877,1.91351 m -9.23393,-8.29186 c -0.5157,1.3752 -0.8385,3.30542 0.16251,5.59878 1.00101,2.29336 3.71826,3.14481 5.82354,2.5807 m -2.79968,12.93322 c 1.90633,-0.46639 3.21292,-1.18852 3.72614,-3.03205 0.51322,-1.84353 -0.41957,-4.28285 -1.58418,-5.71405 m 11.19405,4.93009 c -0.36411,1.82806 -1.47205,3.53393 -3.55021,4.48419 -2.07816,0.95025 -4.28716,0.28432 -4.99028,-0.85044 1.26208,-0.26581 1.93944,-1.32099 1.65343,-2.84978 -0.28602,-1.5288 -1.05368,-2.6878 -1.55481,-5.14334 m -1.90648,6.66619 c 1.72521,-0.55517 3.00453,-1.99019 2.20679,-5.42753 m -0.19878,6.81124 c 1.77215,0.20843 3.89459,-0.83824 4.6484,-2.64608 0.75381,-1.80783 0.3336,-4.35098 -0.31284,-5.91517 m -4.33556,8.56125 c 0.92334,0 2.25773,-0.0167 3.00679,-2.02123 0.74906,-2.00451 0.21863,-4.25961 -0.50114,-6.11379 m 36.62249,61.00832 c -0.25758,-2.17949 0.97299,-2.6284 1.88103,-2.45959 0.35024,-0.53853 0.96404,-0.99338 1.98376,-0.58668 0.30184,-0.63825 1.11751,-0.91206 1.57347,-0.55792 m -3.55723,1.1446 c 0.28159,0.18772 0.83147,0.81957 1.01693,1.81064 m 0.96683,-2.39732 c 0.40552,0.45621 0.73221,1.00505 0.72234,2.02326 m -46.06702,-35.22913 c -1.45321,1.1671 -2.39272,2.46784 -3.09386,3.9753 1.21042,2.42085 1.63915,2.97958 2.53804,4.80213 0.90844,1.84191 1.16204,3.21431 0.75267,4.61912 m -18.63391,26.12763 c 0.14294,-1.43741 1.33719,-1.88828 2.4669,-1.22556 1.10644,-1.32234 2.20428,-1.18758 3.06934,-0.65584 0.29959,-1.02246 1.15665,-1.67642 2.06019,-0.91886 m -0.66216,-1.98529 c 0,0 0.43028,-0.43938 1.24276,-0.36143 m 1.83747,-8.31878 c 1.02796,-1.83988 1.65663,-2.32344 4.14856,-2.71813 -1.70391,-0.11367 -2.32617,-0.8507 -2.33873,-1.98438 -1.60702,-0.50249 -2.35827,-1.58791 -1.751,-2.92645 -1.17937,-1.03439 -1.60396,-2.61624 -0.44598,-3.66451 0.71883,1.79856 1.63816,2.6008 4.18136,1.55915"
       sodipodi:nodetypes="csscssscccccccccccccccccccccssccccccsccscccccsccsccsccccccccccccccssccsccscccccccccccscsccccccsccsscccsccsccscccccsccscsccscccccsccsccsccscsccccsccscccccccccccsccccccccccccc" />
    <path
       id="path1752"
       style="fill:#000000;fill-opacity:1;fill-rule:nonzero;stroke:none;stroke-width:3.77953;stroke-linecap:butt;stroke-linejoin:miter;stroke-miterlimit:4;stroke-dasharray:none;stroke-dashoffset:0;stroke-opacity:1"
       d="m 168.73438,26.300781 c -0.24679,-0.01846 -0.4408,0.04843 -0.54297,0.216797 -0.40868,0.673464 0.73162,1.60663 1.28906,2.681641 0.5574,1.075015 1.02111,2.892097 0.92969,6.001953 -0.0997,3.388615 0.58836,5.6904 1.60937,6.96875 1.09059,1.365468 3.15641,1.763906 3.55664,0.921875 0.40024,-0.842031 -1.22733,-1.398317 -1.88867,-2.400391 -0.66138,-1.002077 -1.36711,-2.380534 -1.27734,-5.43164 0.0979,-3.329866 -0.38202,-5.492672 -1.15039,-6.97461 -0.57632,-1.111453 -1.78504,-1.929004 -2.52539,-1.984375 z m 41.3789,7.191407 c -0.59911,0.886373 -0.28639,1.744589 -0.49805,2.417968 -0.21169,0.67338 -0.86002,1.486287 -3.21875,1.933594 -2.59234,0.491618 -4.93501,1.026343 -6.91601,1.986328 -1.98104,0.959989 -3.8858,2.884051 -4.30274,5.740234 3.33994,-0.101357 5.56447,0.01258 7.03516,0.144532 1.47069,0.131962 2.40543,0.508631 3.23828,1.224609 0.73947,0.635664 0.88991,1.269555 0.54688,1.955078 -0.343,0.685523 -1.43138,1.948156 -3.60352,2.945313 2.87664,0.539895 4.6444,-0.541865 5.39649,-2.044922 0.3141,-0.627735 0.39729,-1.300111 0.30664,-1.953125 0.43979,-0.400084 1.46713,-1.427517 2.21875,-2.925781 0.85565,-1.70566 1.30142,-4.144413 0.0527,-6.703125 0.57133,-0.510044 0.9571,-1.090186 1.15039,-1.705079 0.4639,-1.475735 -0.0263,-2.801235 -1.40625,-3.015624 z m -1.89771,10.262467 c -0.3332,0.664161 -0.74991,1.18297 -1.07471,1.535297 -1.04165,-1.062961 -2.66124,-1.58106 -3.86863,-1.698422 -0.90466,-0.08118 -3.51151,-0.03941 -4.84249,0.05757 0.60666,-0.861435 1.39432,-1.445004 2.23737,-1.853551 1.37164,-0.664677 4.02632,-1.090431 6.11071,-1.48572 0.58298,-0.110556 1.09418,-0.26424 1.54329,-0.449393 0.73175,1.552918 0.42498,2.836642 -0.10554,3.894218 z m -46.41674,-0.95778 c 0,0 -0.4039,3.589026 2.50976,5.46875 2.91367,1.879724 1.60938,4.121094 1.60938,4.121094 1.8855,-1.399053 3.26025,-2.489373 6.25,-3.69336 -1.26899,-0.911008 -2.57017,-0.354892 -5.16211,-0.853515 -2.59195,-0.498624 -4.21267,-1.633704 -5.20703,-5.042969 z m 63.42383,15.730469 c 0.27084,1.961861 0.48985,3.460453 0.60351,6.628906 2.17926,-0.930708 3.32395,-3.331324 3.9375,-5.75 z m -55.67188,1.3125 c -0.75572,-0.08875 -2.01847,0.544065 -2.76953,1.048828 -2.65506,1.784384 -5.30736,4.660669 -6.07031,9.488281 l 1.9707,2.459263 c 0.66183,-4.187952 2.81324,-8.717297 5.10352,-10.244419 0.91621,-0.610909 2.7213,-1.506139 2.31445,-2.390625 -0.10171,-0.221122 -0.29692,-0.331743 -0.54883,-0.361328 z m 2.91602,7.740234 c -0.78,0.123947 -1.76483,1.080745 -2.32032,1.679688 -2.46794,2.660984 -4.32342,5.996923 -4.51953,11.066406 l 2.26786,1.823101 c 0.17634,-4.558445 1.39718,-9.076692 3.58957,-11.426618 0.70693,-0.75774 2.43412,-2.193375 1.66992,-2.945312 -0.19105,-0.187985 -0.4275,-0.238581 -0.6875,-0.197265 z m 3.5664,8.691406 c -0.65382,0.101332 -1.48419,0.870702 -1.89258,1.421875 -1.99846,2.697215 -3.27637,6.371768 -2.88085,11.402344 l 2.52789,1.05106 c -0.34963,-4.447241 0.10969,-8.695384 1.73968,-10.980747 0.53058,-0.743908 1.70718,-2.149 1.08008,-2.740235 -0.15677,-0.147808 -0.35628,-0.188074 -0.57422,-0.154297 z m 4.57422,6.191407 c -0.69358,-0.09448 -1.57346,1.107863 -1.92383,1.746093 -1.5985,2.911914 -2.19617,5.892607 -1.75586,10.453125 l 2.39594,0.746094 c -0.39952,-4.137758 -0.40679,-7.439933 0.9068,-9.892578 0.40503,-0.755945 1.3769,-2.351311 0.66211,-2.925781 -0.0893,-0.07181 -0.18607,-0.113456 -0.28516,-0.126953 z M 62.283203,96.787109 c -0.629497,-0.02801 -1.37696,0.572229 -1.779297,0.998047 -3.055847,3.234194 -4.382925,8.119574 -3.914062,13.343754 0.55117,6.14126 2.419883,13.44699 5.328125,21.35937 2.871862,7.81338 3.532139,14.30812 3.297433,20.97406 l 2.38616,-1.11859 c 0.568866,-5.11979 -0.868752,-12.54466 -3.808593,-20.54297 -1.759096,-4.78593 -3.095262,-9.26267 -3.960938,-13.39258 1.461636,1.86155 4.22091,4.53921 5.489398,5.46039 l 0.90597,-2.68862 c -2.423803,-1.76016 -6.864208,-5.06864 -7.467633,-10.31474 -0.514195,-4.47034 0.617674,-8.7485 3.048828,-11.515621 0.49167,-0.559616 1.716078,-1.579808 1.048828,-2.294921 -0.166813,-0.178779 -0.364387,-0.25824 -0.574219,-0.267579 z m 237.597657,0.205636 c -1.49596,1.52037 -3.15513,2.113282 -4.69531,2.582031 1.04155,1.744104 3.13834,1.506234 4.72265,0.327566 0.15002,0.971348 0.27202,2.199178 0.17969,4.416018 -0.0997,2.39233 0.3061,4.76463 1.44922,6.50586 1.14311,1.74123 4.22858,3.05715 4.47851,1.68359 0.24994,-1.37356 -2.01755,-1.08584 -2.95312,-2.89453 -0.93557,-1.8087 -1.0643,-3.05368 -0.97461,-5.20703 0.0673,-2.28096 0.0382,-4.490448 -0.57617,-6.671877 z M 46.789062,109.64453 c -0.92583,-0.0131 -1.246111,1.60464 -1.314453,2.55469 -0.438591,6.09705 0.792483,14.74857 3.304688,23.04883 l 2.713727,0.0856 c -2.447725,-8.0872 -4.399515,-17.1921 -4.024274,-22.87667 0.06136,-0.92957 0.246143,-2.79943 -0.679688,-2.8125 z m 268.915738,1.04799 -1.98438,0.25977 c 0.47834,3.64834 0.26485,6.30386 -0.67383,8.23047 1.08091,0.10241 2.42811,-0.5471 2.7793,-1.9336 0.35119,-1.3865 0.37584,-2.7663 -0.12109,-6.55664 z m -155.90207,10.36021 c -0.18992,10.45108 4.22643,20.67678 14.40435,24.99995 5.06423,2.15108 10.67462,2.51053 15.47651,1.27935 4.80189,-1.23114 10.30466,-4.66468 11.0625,-12.68164 -2.48601,6.90481 -7.16056,9.35911 -11.46975,10.46394 -4.30919,1.10483 -9.30017,0.62488 -14.00391,-1.37305 -9.35807,-3.97493 -13.26985,-12.80093 -13.09089,-22.65144 z m 82.03321,22.29493 -0.5293,14.23632 4.41211,4.51368 c -3.63251,-6.85286 -0.52367,-9.229 -3.88281,-18.75 z m -8.31836,18.56445 -1.98633,0.18359 c 0.38665,4.09845 0.14916,10.20284 -3.89453,13.9668 -4.04369,3.76397 -7.3581,3.80007 -10.39063,3.30664 2.90646,-1.41034 5.04459,-3.04555 6.84766,-5.75 1.80307,-2.70445 2.54995,-6.45685 2.61133,-10.84375 l -2.00196,-0.0293 c -0.0574,4.11368 -0.93976,7.34635 -2.55273,9.76563 -1.61297,2.41928 -3.95985,4.07628 -7.14648,5.01172 l 0.37695,5.74414 c 3.60839,0.36623 8.67895,-0.72911 13.4707,-5.18946 4.79175,-4.46034 5.07939,-11.78444 4.66602,-16.16601 z M 76.910156,194.90039 c -4.571225,0.66406 -7.794668,2.4227 -10.013672,5.28125 -2.219005,2.85854 -3.7302,4.70139 -3.236328,5.62305 0.493872,0.92166 3.166537,-1.71541 5.054688,-4.23438 1.88815,-2.51898 5.227878,-3.89135 9.431393,-4.502 z m 244.194474,2.95703 c -3.5562,1.02463 -6.24772,2.74959 -8.54604,4 -2.03786,1.1087 -3.87091,2.21214 -6.01757,3.14844 -0.55943,0.244 -1.70456,0.70957 -1.41211,1.63672 0.29245,0.92715 1.76435,0.40173 2.41992,0.11328 2.24657,-0.98849 4.10455,-1.57184 6.11914,-2.66742 2.19714,-1.19486 7.05316,-3.24205 8.99581,-3.90931 z m -236.014935,2.99815 c -6.591216,0.3354 -9.363987,2.25392 -11.460789,3.83584 -2.096801,1.58193 -3.257399,3.49147 -2.738281,4.05859 0.519118,0.56712 2.496857,-1.49549 4.367187,-2.82812 1.870331,-1.33265 5.420309,-2.46896 11.129413,-2.40925 z m 119.654445,9.94131 c -0.62259,0.0275 -1.24651,0.83637 -1.55664,1.2871 -2.06715,3.00434 -2.27069,6.60724 -1.83203,10.88282 l 2.65401,1.26618 c -0.94219,-4.49759 -0.95996,-8.28702 0.6038,-10.71345 0.38591,-0.59881 1.52413,-1.62114 0.74219,-2.44726 -0.19549,-0.20653 -0.4038,-0.28458 -0.61133,-0.27539 z m 5.63477,3.80664 c -0.74748,-0.0381 -1.24421,0.9703 -1.49414,1.57617 -1.27744,3.09659 -1.83965,7.66952 -0.48829,11.95396 l 2.58175,-0.19587 c -1.12082,-3.55353 -1.45132,-7.80167 -0.47432,-10.4163 0.30827,-0.825 1.14725,-2.41315 0.21093,-2.83203 -0.11704,-0.0524 -0.22915,-0.0805 -0.33593,-0.0859 z m 96.125,2.12695 c -0.48455,-0.006 -0.91874,0.12207 -1.05664,0.58008 -0.27581,0.91602 1.06849,1.37688 1.72851,1.53711 2.70585,0.65689 5.53558,1.22456 7.88672,1.45117 2.9246,0.28191 6.39849,1.14421 10.33063,3.07366 l 0.67802,-2.73828 c -4.17853,-2.05035 -8.27575,-2.50811 -11.28599,-2.79827 -2.35169,-0.22668 -4.51273,-0.32061 -6.92578,-0.88086 -0.3379,-0.0785 -0.87093,-0.2184 -1.35547,-0.22461 z m -90.10352,3.05469 c -0.79115,-0.0952 -1.52887,1.1273 -1.87109,1.97265 -0.96943,2.39473 -1.22458,6.36522 0.58593,9.59459 l 2.54576,-1.10854 c -1.46805,-2.61853 -2.06478,-5.77886 -1.31919,-7.65402 0.323,-0.81233 1.3141,-2.09889 0.40039,-2.67773 -0.11422,-0.0724 -0.22878,-0.11336 -0.3418,-0.12695 z m 84.22266,4.27343 c -0.20416,-0.0313 -0.39987,0.0168 -0.57422,0.1836 -0.69739,0.66698 0.22515,1.86763 0.71289,2.42383 1.95343,2.22762 3.7053,3.76054 5.17969,5.29296 1.84255,1.91502 3.34428,5.14428 4.48883,8.64593 l 2.30609,-1.69057 c -1.23579,-3.78077 -3.40695,-6.31883 -5.35547,-8.34403 -1.5584,-1.61972 -3.25209,-3.09772 -5.11524,-5.21875 -0.34979,-0.3982 -1.0301,-1.19911 -1.64257,-1.29297 z m -151.5586,22.99219 c -1.18436,0.0642 -3.66119,2.09065 -4.55468,3.89063 -1.09968,2.21536 -1.34486,4.8889 -0.2461,5.00781 1.09877,0.11892 0.86008,-1.67148 2.25,-4.15039 1.38991,-2.47892 3.66427,-3.2722 3.12891,-4.45117 -0.10038,-0.22106 -0.30481,-0.3117 -0.57813,-0.29688 z m -27.96875,5.80274 c -1.86819,3.40447 -3.59195,5.23957 -5.66657,7.46344 -2.07458,2.22387 -5.12752,5.19902 -7.47517,8.52428 l 1.69783,1.95592 c 2.19489,-3.10893 5.26307,-6.11263 7.43917,-8.44532 2.17614,-2.33268 3.9843,-5.23504 4.00474,-9.49832 z m 31.66992,1.79882 c -1.17328,0.17611 -3.11122,2.81959 -3.43164,6.47852 -0.36619,4.18163 0.33105,6.72407 2.16993,10.84375 l 1.80273,-0.86328 c -1.96052,-4.10272 -2.21483,-6.00665 -1.99414,-9.69922 0.22069,-3.69257 2.93639,-6.04307 1.90039,-6.68164 -0.1295,-0.0798 -0.27965,-0.10328 -0.44727,-0.0781 z m -17.21289,29.38868 c -0.40683,4.0873 -0.88831,5.90296 -2.80468,9.99218 -2.03094,4.33345 -0.5701,9.74498 3.84765,11.8086 -1.45745,3.33724 -1.21266,7.9022 0.78907,10.24609 2.00172,2.34389 6.62116,4.27015 10.69812,2.97461 -2.79102,-3.2468 -5.02265,-6.21648 -3.98914,-10.14062 1.03351,-3.92415 1.56071,-6.11409 0.73828,-9.34766 -1.16182,2.97718 -1.61629,4.85254 -2.67187,8.83008 -1.05558,3.97754 -0.25854,5.97575 2.14062,8.55664 -2.19711,-0.27217 -3.98938,-1.03761 -5.40234,-3.22852 -1.41296,-2.1909 -1.28545,-4.99988 0.11523,-8.47461 1.40069,-3.47473 2.50657,-7.38136 0.70703,-11.93359 -0.284,4.23763 -1.05762,7.31665 -2.36328,10.66601 -3.35415,-1.61324 -4.39715,-5.69065 -2.79492,-9.10937 1.96921,-4.20193 2.60292,-6.76399 0.99023,-10.83984 z m 55.60743,3.10156 c -0.86375,-0.014 -1.41521,2.17632 -0.69532,4.74219 0.71989,2.56588 2.45604,4.23473 3.10743,3.83203 0.65139,-0.4027 -0.55158,-2.07259 -1.19727,-4.36524 -0.64569,-2.29265 -0.35108,-4.19498 -1.21484,-4.20898 z m 7.76953,1.60742 c -1.13742,0.024 -1.25148,2.89878 -0.36328,5.78125 0.88821,2.88246 3.26404,5.10657 4.11328,4.39453 0.84924,-0.71203 -1.48936,-2.46485 -2.25781,-5.03125 -0.76846,-2.5664 -0.35477,-5.1685 -1.49219,-5.14453 z m 8.30078,2.67773 c -1.54019,0.10963 -1.15984,3.78913 0.11523,7.03321 1.27507,3.24407 3.77927,6.52403 4.97852,5.55664 1.19925,-0.96738 -1.97809,-3.31378 -3.14453,-6.27735 -1.16644,-2.96357 -0.40903,-6.42213 -1.94922,-6.3125 z m 31.23437,1.33008 c -0.78166,0.13907 -1.01185,1.36515 -1.24218,2.97266 -0.26321,1.83719 -0.42814,4.13429 0.11914,6.14258 0.56866,2.08675 2.05046,3.40705 3.71289,3.74218 1.2832,0.25869 2.6309,-0.0311 3.77539,-0.76953 1.936,2.07579 3.44029,1.8959 6.03125,1.35352 -4.26823,3.36672 -10.1498,3.3408 -14.72656,2.99805 0.81905,3.13047 3.48997,5.93706 5.46484,7.08789 0.064,1.94524 0.65077,4.47898 2.22266,6.77343 1.67833,2.44993 4.53521,4.56079 8.83007,5.07813 3.61263,0.43517 6.49615,-0.27871 8.95118,-1.80664 -0.52729,1.98204 -0.66221,4.35713 0.41601,7.07812 1.14652,2.89342 3.19283,4.71431 5.46875,5.74219 2.25433,1.01811 4.72139,1.30244 6.91211,1.3125 1.00087,1.13891 2.17816,2.19461 3.55664,3.11719 l 1.78488,-1.40011 c -6.33816,-4.24195 -8.63174,-12.04468 -8.7048,-16.78544 -1.71999,3.53594 -1.04832,8.63638 1.79492,13 -1.54453,-0.1242 -3.11748,-0.43494 -4.51562,-1.06641 -1.89714,-0.85678 -3.48026,-2.24248 -4.4375,-4.6582 -0.97599,-2.463 -0.89474,-4.34155 -0.25782,-6.15625 0.63693,-1.81466 1.89546,-3.56633 2.53125,-6.05664 -2.23476,1.36942 -3.79011,3.13371 -5.73437,4.29883 -1.94718,1.16685 -4.29073,1.78465 -7.5293,1.39453 -3.77337,-0.45453 -6.01546,-2.18199 -7.41211,-4.2207 -1.04017,-1.51832 -1.58037,-3.24027 -1.78711,-4.67578 2.03757,0.73272 4.23076,0.95012 6.38672,0.70312 5.15369,-0.59044 10.18156,-3.64958 12.06445,-8.75781 -3.24471,3.48469 -7.78311,6.25459 -12.29492,6.77148 -3.95871,0.45355 -7.6191,-1.13364 -10.23828,-4.6875 6.82001,0.34386 14.2649,-1.99811 14.81641,-8.54297 -2.65586,1.19657 -6.82239,3.38304 -8.44531,0.1875 -0.5495,-1.1126 -0.67977,-2.67567 -0.6211,-4.23046 0.0449,-1.19094 0.72078,-3.22805 -0.62304,-3.51758 -1.34382,-0.28952 -1.30737,1.79543 -1.38672,2.94726 -0.11068,1.60664 -0.0387,3.35905 0.53711,4.9375 0.32443,0.88934 -1.66435,0.75002 -2.43946,0.59375 -0.94333,-0.19018 -1.77124,-0.82669 -2.17773,-2.31836 -0.41061,-1.50674 -0.3105,-3.62439 -0.0664,-5.32812 0.24412,-1.7037 0.72084,-3.03165 -0.36523,-3.24414 -0.13576,-0.0266 -0.25943,-0.0296 -0.3711,-0.01 z m -14.67773,0.79883 c -0.0662,-0.007 -0.13752,-7.6e-4 -0.21289,0.0156 -1.20595,0.26213 -0.7308,3.21035 0.70508,6.04296 1.43589,2.83261 3.58962,5.04128 4.38086,4.40235 0.79125,-0.63893 -1.26093,-2.66426 -2.59571,-5.28906 -1.25134,-2.46075 -1.28433,-5.07119 -2.27734,-5.17188 z m 7.2832,0.0137 c -1.09583,0.0916 -1.14598,2.6636 -0.21289,5.19531 0.9331,2.53172 2.72685,3.68288 3.16016,3.37696 0.43332,-0.30592 -0.46003,-1.77847 -1.30078,-4.0625 -0.84075,-2.28403 -0.55066,-4.60136 -1.64649,-4.50977 z m -77.46484,0.0664 c 0.8381,2.24729 2.70416,4.84548 1.08203,8.28516 -1.62214,3.43968 -4.6192,5.45553 -8.05273,5.64843 0.59051,10.21199 11.82958,9.83431 16.70312,4.65821 l -0.79803,-2.12285 c -4.31998,4.13327 -12.30561,4.77582 -13.85236,-1.22286 3.18751,-0.0861 5.9316,-2.12544 7.80859,-6.10547 1.87699,-3.98003 -0.0136,-7.67277 -2.89062,-9.14062 z m 62.85156,0.16016 c -0.0387,-10e-4 -0.078,0.0142 -0.11719,0.0449 -0.62668,0.4914 -0.73824,3.86669 0.82618,7.03906 1.56442,3.17237 4.54958,6.09097 5.5996,5.01172 1.05004,-1.07925 -2.42532,-3.01351 -3.8457,-5.91016 -1.3316,-2.71561 -1.88267,-6.16927 -2.46289,-6.18554 z m -150.90725,20.35471 -2.08103,1.05153 c 0.680561,6.94705 5.138377,11.16071 11.597656,11.07422 -5.49487,-1.79421 -8.90681,-5.90083 -9.516626,-12.12575 z m 38.28225,1.15505 -1.24469,1.86914 c 3.03356,1.14988 4.54504,2.36059 4.39704,4.89649 -0.14801,2.5359 -2.85934,3.67412 -1.99219,4.58398 0.86715,0.90986 3.56823,-1.4641 3.85742,-4.29297 0.28919,-2.82886 -1.19398,-5.97668 -5.01758,-7.05664 z m 174.47378,7.98102 c -0.6807,6.56194 2.12967,10.22147 5.58007,12.66407 3.45041,2.44259 7.5818,4.3745 10.63003,6.79548 l 1.77594,-1.43052 c -4.07284,-3.64036 -8.12254,-4.78573 -11.25558,-7.00364 -3.13304,-2.21794 -5.44176,-5.0713 -6.73046,-11.02539 z m -124.75308,0.6264 c -1.14541,-0.15272 -5.77041,4.14443 -8.93554,4.69532 -3.37614,0.58764 -8.2368,-1.22019 -12.49194,-4.28977 l -0.219,2.66477 c 4.60414,3.32137 9.11652,4.28047 13.05078,3.5957 3.9343,-0.68478 9.48078,-5.7377 8.77735,-6.57227 -0.044,-0.0522 -0.10528,-0.0836 -0.18165,-0.0937 z m -91.485323,3.97381 -1.751001,1.42268 c 2.446995,5.92029 6.631824,9.03282 10.775391,8.52343 -3.053035,-1.37512 -6.788584,-4.53677 -9.02439,-9.94611 z m 94.293923,4.22151 c -1.22018,0.0329 -4.81292,3.35904 -7.28516,4.25781 -2.63705,0.95867 -6.78792,0.56246 -10.71164,-0.6561 l 0.44406,2.4725 c 4.26622,1.32492 7.89647,1.17552 10.94727,0.0664 3.05083,-1.10906 7.764,-5.64115 6.81641,-6.10156 -0.0592,-0.0288 -0.1296,-0.0413 -0.21094,-0.0391 z m -0.86719,7.58203 c -0.69337,-0.0323 -1.97118,1.85836 -3.0957,2.50781 -1.19949,0.69275 -2.82689,1.0771 -5.1883,1.25105 l -0.23038,2.75176 c 3.30779,-0.1948 5.0997,-0.91738 6.54959,-2.03125 1.44989,-1.11387 2.74862,-4.12326 2.09565,-4.44617 -0.0408,-0.0202 -0.0846,-0.031 -0.13086,-0.0332 z m -92.091796,0.66025 -1.542969,1.65615 c 2.426838,2.94331 4.748381,4.92082 8.320313,4.42188 -2.697454,-1.39454 -4.457788,-3.26485 -6.777344,-6.07803 z m 94.265626,7.42178 c -0.65972,-0.0435 -1.76442,6.69322 -4.84961,13.16211 -3.15575,6.61682 -3.62384,10.41552 -1.66797,17.94782 l 2.90039,0.30832 c -1.81249,-6.27623 -2.45095,-11.06208 0.56836,-17.39286 3.08992,-6.47872 3.70856,-13.9819 3.04883,-14.02539 z m -12.62109,7.08398 c -0.82691,-0.13827 -3.91862,2.0292 -4.94532,5.45899 -1.17337,3.91975 -1.13208,7.19448 -0.74804,11.26367 0.38067,4.03362 0.81584,7.28711 0.45898,9.88281 -0.3569,2.59567 -1.38011,4.55526 -4.19336,6.4668 l 1.12891,1.65429 c 3.18497,-2.16408 4.62816,-4.83061 5.04297,-7.84765 0.4148,-3.01705 -0.075,-6.36429 -0.45118,-10.34961 -0.37277,-3.94976 -0.0337,-7.26495 0.68946,-10.51563 0.72314,-3.25068 3.3255,-4.87581 3.2207,-5.81054 -0.0131,-0.11684 -0.085,-0.18337 -0.20312,-0.20313 z m 92.90234,5.60938 c -1.41649,-0.0374 -4.2801,0.79595 -5.71289,1.87304 -1.9104,1.43612 -3.53786,3.58362 -4.69141,6.78125 l 0.9375,0.33985 0.9375,0.33984 c 1.05435,-2.92267 2.38321,-4.75983 3.97266,-5.94726 1.58945,-1.18742 5.55973,-2.11829 5.38281,-3.03516 -0.0442,-0.22922 -0.35401,-0.33909 -0.82617,-0.35156 z m 9.30859,2.64062 c -1.37393,-0.006 -4.15128,0.94896 -5.44922,2.01172 -1.73058,1.41702 -3.08979,3.38487 -3.86132,5.95117 l 0.95703,0.28907 0.95508,0.2871 c 0.6705,-2.23022 1.77145,-3.87147 3.19921,-5.0332 1.42776,-1.16173 5.15626,-2.15713 4.99805,-3.14648 -0.0395,-0.24734 -0.34085,-0.35721 -0.79883,-0.35938 z m 7.18164,2.41016 c -1.24218,-0.10219 -3.52649,0.63739 -4.56445,1.46289 -1.38395,1.10067 -2.31021,2.70644 -2.67773,4.76953 l 1.9707,0.35352 c 0.30142,-1.69202 0.9449,-2.76138 1.94726,-3.5586 1.00237,-0.79721 4.5508,-1.55261 4.13477,-2.61523 -0.0975,-0.24894 -0.39649,-0.37805 -0.81055,-0.41211 z m 69.26563,4.79101 c -1.25336,-0.0105 -2.5285,0.14953 -3.78906,0.45899 -5.0675,1.24403 -8.42082,2.74416 -12.86133,3.13867 -1.19882,0.1065 -3.88754,0.048 -3.94727,1.05078 5.28559,1.40838 11.06695,-0.72108 17.28711,-2.24805 2.96636,-0.7282 5.86937,-0.48717 8.1875,0.89258 2.31814,1.37976 4.1432,3.90637 4.87109,8.11328 l 1.97071,-0.33984 c -0.80262,-4.63888 -2.95682,-7.79015 -5.81641,-9.49219 -1.42979,-0.851 -3.01305,-1.33619 -4.6582,-1.50586 -0.41129,-0.0424 -0.82636,-0.0649 -1.24414,-0.0684 z m -4.53125,6.16993 c -1.63489,0.008 -3.48133,0.32 -5.54883,0.92578 -5.52031,1.61744 -9.97042,2.20176 -14.19922,1.99414 -1.81782,-0.0892 -3.59535,-0.32353 -5.59766,0.29492 5.14941,2.38088 12.24224,2.00725 20.35938,-0.37109 3.87024,-1.13398 6.5913,-1.0503 8.38477,-0.16211 1.79349,0.88819 2.87847,2.60509 3.38867,5.35156 l 1.96289,-0.36133 c -0.58012,-3.12299 -2.0136,-5.56148 -4.46485,-6.77539 -1.22562,-0.60697 -2.65027,-0.90416 -4.28515,-0.89648 z m -220.035158,3.60937 c -0.243477,0.006 -0.491574,0.035 -0.746094,0.0918 4.106322,3.80813 8.335152,5.43523 15.759762,4.43554 3.29609,-0.44379 4.74247,0.7904 5.60352,2.65821 0.86109,1.8678 0.86959,4.51096 0.43555,6.33398 l 1.9414,0.46485 c 0.52687,-2.2128 0.57741,-5.16021 -0.5625,-7.63282 -1.13987,-2.47256 -3.73648,-4.33419 -7.68359,-3.80273 -3.67486,0.4948 -6.79897,-0.14527 -9.42969,-0.89649 -2.12159,-0.60584 -3.61402,-1.69399 -5.318358,-1.65234 z m -9.525391,1.79102 c -0.113346,0.003 -0.223779,0.0163 -0.330078,0.0391 1.630742,1.96651 3.029141,3.46478 5.070313,4.7793 2.041171,1.31455 4.707124,2.32138 9.013674,2.25195 4.00505,-0.0646 6.5725,0.77238 8.09179,2.29492 1.5193,1.52255 2.17438,3.88517 1.94727,7.3457 l 1.99414,0.13282 c 0.24794,-3.77745 -0.47413,-6.83888 -2.52539,-8.89454 -2.05126,-2.05564 -5.24639,-2.94818 -9.54492,-2.8789 -3.997043,0.0644 -6.110987,-0.78438 -7.898439,-1.93555 -1.675772,-1.07922 -4.118159,-3.17695 -5.81836,-3.13476 z m -7.267578,5.07812 c -0.215256,-0.01 -0.446491,0.005 -0.695312,0.0508 2.601395,4.21436 6.976747,5.72969 11.523437,5.14453 4.54669,-0.58516 6.486291,0.55573 7.603512,2.26563 1.11723,1.70989 1.27916,4.25416 1.15039,6.37891 l 1.99415,0.125 c 0.13908,-2.29491 0.0701,-5.24053 -1.46876,-7.59571 -1.53883,-2.35517 -4.049632,-3.58452 -9.552729,-3.16015 -3.372394,0.26006 -5.294798,-0.42862 -7.222657,-1.3418 -1.065779,-0.50484 -1.825237,-1.797 -3.332031,-1.86719 z"
       transform="matrix(0.26458334,0,0,0.26458334,81.642853,75.500745)"
       sodipodi:nodetypes="ssccsssccscssscssscscscscccccsscccccscccscssscccsssscccsssccccsscscccssscsccccccccssccccsssccccccccccccccccccsccccccsccsssccsccsccsscccccccssccccccccsccssssssscsssssscscssccscssssssssccssccssccscsccsccccsssccccssscscssccccsssssssssssssssssssscccsscsscccccssscssscscscccsssssssssscsssccssssccscccssssssssscccccscccccccscscccssscscccsccsccscscsssccssssccssccscscccssssscccssssssccsssssscsssssscssccscscsscssccscssssccsssssssssccssssscssccsssssscssccsssssc" />
  </g>
</svg>
