<?xml version="1.0" encoding="UTF-8" standalone="no"?>
<!-- Created with Inkscape (http://www.inkscape.org/) -->

<svg
   version="1.1"
   id="svg2424"
   width="225.78"
   height="380.92001"
   viewBox="0 0 225.78 380.92002"
   xmlns="http://www.w3.org/2000/svg"
   xmlns:svg="http://www.w3.org/2000/svg">
  <defs
     id="defs2428" />
  <g
     id="g2430">
    <path
       style="fill:#033161;stroke-width:1.17932"
       d="m 115.41922,374.36627 c -1.71024,-2.27391 -4.37313,-3.91818 -7.67247,-4.7375 -9.243087,-2.2954 -14.522224,-4.66149 -19.322154,-8.66025 l -4.753279,-3.95986 5.00608,-1.32506 c 5.909409,-1.56421 9.282492,-0.90823 18.442843,3.58676 3.74304,1.83672 7.75751,3.33779 8.92104,3.33575 1.16353,-0.003 5.3104,-2.09173 9.21529,-4.64374 8.82313,-5.76633 15.26244,-6.95141 21.28058,-3.91639 l 4.3179,2.17755 -3.26495,4.55671 c -2.56677,3.58231 -5.93558,5.82053 -15.75438,10.46703 -6.8692,3.25073 -12.7837,6.06593 -13.14329,6.25601 -0.35982,0.19 -1.83257,-1.22156 -3.27321,-3.13701 z m -2.61505,-22.20214 c -1.63553,-0.4898 -7.25578,-3.12559 -12.48946,-5.85724 -10.940245,-5.71013 -15.182276,-5.82749 -25.46649,-0.70466 l -5.85488,2.91646 -6.791886,-7.21139 -6.791885,-7.21136 3.189978,-2.69727 c 3.825045,-3.23425 6.829168,-3.35182 13.179835,-0.51582 10.609237,4.73774 16.053823,4.02956 26.934706,-3.50338 4.252362,-2.94393 5.048382,-2.80858 10.220842,1.73782 9.18562,8.07383 13.31599,8.44601 25.60676,2.30742 7.21549,-3.60376 9.83419,-4.3004 16.32558,-4.343 6.47602,-0.0426 8.96443,0.575 15.32324,3.80259 l 7.59169,3.85335 -5.71065,5.69933 -5.7107,5.69932 -3.76487,-3.24944 c -2.07065,-1.78718 -6.17309,-3.91222 -9.11656,-4.72231 -6.67706,-1.83769 -10.68662,-0.40968 -20.17051,7.18377 -10.00316,8.00922 -11.06127,8.44617 -16.50474,6.81581 z m -67.313165,-34.5804 c -2.653081,-5.79064 -5.435702,-10.20205 -6.680149,-10.59031 -1.459669,-0.45541 -2.135475,-1.84006 -2.141051,-4.38675 -0.0075,-2.89629 -0.879689,-4.30453 -3.939383,-6.35211 -2.1622,-1.44696 -4.791081,-2.63083 -5.841943,-2.63083 -3.636477,0 -5.673672,-1.43037 -5.673672,-3.98364 0,-3.11064 -2.102131,-5.3704 -4.995783,-5.3704 -1.177577,0 -2.14105,-0.6903 -2.14105,-1.534 0,-2.35646 -7.3984422,-7.20747 -10.4078812,-6.82425 -2.6301461,0.33492 -2.67631265,0.12519 -2.67631265,-12.15636 V 251.2579 l 2.97368065,0.5588 c 2.8796379,0.54113 2.9736805,0.35596 2.9736805,-5.85613 v -6.41493 l 3.4439687,0.6771 c 2.793772,0.54925 3.564885,0.22245 4.084573,-1.73092 0.354983,-1.33417 1.338676,-2.16933 2.205988,-1.8728 0.860991,0.29436 4.593741,-2.0279 8.295007,-5.16058 l 6.729587,-5.69577 35.365239,1.8303 c 26.471666,1.37003 36.248686,2.2794 38.878276,3.61611 1.93218,0.98217 3.7149,1.58734 3.96161,1.34482 0.41397,-0.40691 2.8467,-54.56533 2.88283,-64.1791 l 0.0149,-4.23095 -8.9736,-0.5661 c -7.352613,-0.46385 -10.583851,-1.3695 -17.886802,-5.01329 -9.848161,-4.9137 -15.76913,-10.89466 -21.404219,-21.62103 -3.081773,-5.86614 -3.378472,-7.50911 -3.378472,-18.70809 0,-11.19898 0.296624,-12.84196 3.378472,-18.708096 5.7298,-10.906678 12.128714,-17.417365 21.420463,-21.794638 4.587088,-2.160946 9.795638,-3.928993 11.574568,-3.928993 1.778929,0 3.53935,-0.484971 3.91199,-1.077718 0.37267,-0.592743 -3.863742,-6.490091 -9.414266,-13.105214 C 78.073326,42.985673 56.579638,26.311557 31.324206,12.52614 c -4.189209,-2.286641 -3.216035,-2.066331 15.004523,3.396655 18.625276,5.584345 43.726299,16.346403 56.905501,24.398242 5.94996,3.635103 11.47369,6.736416 12.27502,6.891803 0.80133,0.155365 1.72459,0.62963 2.05169,1.05388 0.32711,0.42425 0.4449,-5.62665 0.26168,-13.446447 -0.18325,-7.819794 0.14274,-20.005622 0.72443,-27.0796202 0.97812,-11.8969619 1.07023,-10.7566799 1.2275,15.2003272 l 0.16987,28.062145 12.40568,9.715718 c 47.74344,37.39104 83.25632,100.612697 90.43453,160.995647 2.4131,20.299 2.44678,59.88415 0.0576,67.62534 -3.44795,11.17139 -14.99973,23.10604 -26.7845,27.6722 -3.43665,1.33158 -6.41476,2.25758 -6.61797,2.05779 -0.20331,-0.1998 2.61269,-1.89814 6.25767,-3.7741 7.56508,-3.89351 10.57824,-8.8186 9.21967,-15.06989 -1.03684,-4.77092 -2.62204,-6.60419 -7.41237,-8.57253 -3.3513,-1.37705 -6.51393,-1.34083 -22.00432,0.25198 -30.02165,3.08699 -47.61568,7.3169 -83.810652,20.1496 -1.061195,0.37624 -1.48684,-1.1265 -1.48684,-5.24935 0,-3.80192 -0.508239,-5.80201 -1.48684,-5.8511 -0.817762,-0.041 -3.627891,-0.60203 -6.244729,-1.24668 -3.980941,-0.98068 -4.223742,-1.19125 -1.486841,-1.28953 2.061505,-0.0741 3.271048,-0.76598 3.271048,-1.87134 0,-1.06368 1.053204,-1.72155 2.676313,-1.6717 2.553685,0.0784 2.567291,0.12823 0.297369,1.08707 -2.269959,0.95886 -2.256318,1.00866 0.297367,1.08707 2.205579,0.0677 2.676313,-0.54161 2.676313,-3.46445 0,-4.57882 4.720494,-13.63885 9.364306,-17.97285 2.992716,-2.79307 4.807516,-3.44689 10.221436,-3.68261 7.13211,-0.31052 8.59876,1.20624 3.90633,4.03986 -2.66683,1.6104 -2.66828,1.60724 -0.4104,-0.88801 1.77674,-1.96352 1.89,-2.50414 0.5247,-2.50414 -0.95767,0 -2.78024,0.79054 -4.05015,1.75675 -2.00786,1.52771 -2.03117,1.66146 -0.17879,1.02581 1.43822,-0.49349 2.01783,-0.20951 1.78421,0.87408 -0.25648,1.18944 0.99087,1.5523 4.81725,1.40142 5.82793,-0.22979 7.4881,-1.16423 4.91282,-2.76521 -1.47543,-0.91723 -1.42997,-1.09059 0.28993,-1.10569 1.68667,-0.015 4.50238,-3.16301 4.50238,-5.03404 0,-0.27106 -4.11398,0.21039 -9.14218,1.0699 -5.02819,0.85952 -9.34858,1.35986 -9.60082,1.11188 -0.25239,-0.24799 1.18538,-0.76402 3.19477,-1.14677 2.00943,-0.38275 5.22684,-0.99378 7.14985,-1.35787 1.923,-0.36408 3.73431,-1.54795 4.02517,-2.63083 0.47809,-1.77998 0.54206,-1.77255 0.66681,0.0773 0.24793,3.67446 4.11985,1.91339 5.83674,-2.65461 2.43879,-6.48874 2.72839,-9.33026 0.95095,-9.33026 -0.94705,0 -2.56306,0.82684 -3.59109,1.83741 -1.69928,1.67043 -1.86919,1.67043 -1.86919,6e-5 0,-1.01057 0.86014,-1.8374 1.91145,-1.8374 1.17074,0 1.65797,-0.64935 1.25734,-1.67564 -0.44118,-1.13015 0.42792,-1.90924 2.66963,-2.39323 2.87298,-0.6203 3.50578,-1.54266 4.66622,-6.80148 1.33344,-6.04265 2.96546,-24.42585 4.40733,-49.64441 0.72357,-12.65515 -1.26753,-39.36726 -2.87908,-38.62496 -0.40312,0.1857 -4.28191,2.04447 -8.61958,4.13066 l -7.88669,3.79306 -0.88032,38.64645 c -0.48419,21.25553 -0.65923,38.86377 -0.38899,39.12941 0.27023,0.26565 3.6038,-0.31599 7.40795,-1.29249 3.80412,-0.97651 7.14602,-1.54997 7.42644,-1.27432 0.28027,0.27561 -3.08527,1.38884 -7.47922,2.47383 l -7.98905,1.97266 -2.87109,-3.60624 c -1.5791,-1.98341 -4.9982,-4.67295 -7.59798,-5.97671 -6.781512,-3.40086 -11.788,-1.61558 -16.105264,5.74302 -4.153116,7.07882 -7.572143,10.67798 -10.167459,10.70315 -1.144868,0.0113 -2.081577,0.5388 -2.081577,1.17263 0,0.63383 -2.408681,1.74863 -5.352625,2.47732 -6.159757,1.52468 -7.243329,3.72372 -1.48684,3.01749 2.126181,-0.26084 2.929076,-0.2481 1.784208,0.0282 -1.144867,0.27646 -2.089791,1.38681 -2.09979,2.46749 -0.01487,1.55063 -0.234177,1.62992 -1.042312,0.37609 -0.743643,-1.15371 -2.365562,-1.36599 -5.922903,-0.7752 -2.694377,0.44748 -5.175207,1.25316 -5.513017,1.79044 -0.337886,0.53726 1.315407,0.45311 3.673722,-0.18697 2.358352,-0.64011 4.568501,-0.888 4.911441,-0.55087 0.343089,0.33712 -0.777765,0.95869 -2.490457,1.38124 -3.575591,0.88216 -4.074091,2.4352 -1.032462,3.21655 1.265674,0.32513 0.784791,0.5879 -1.226828,0.67037 -1.821826,0.0747 -3.633206,0.96775 -4.031308,1.98755 -0.582061,1.49107 -0.918904,1.54802 -1.728674,0.29232 -0.618378,-0.95897 -1.005699,0.9171 -1.005699,4.87129 0,3.53701 0.407357,5.80098 0.905262,5.03107 0.546042,-0.84436 1.545236,-1.01108 2.51789,-0.42016 1.239244,0.75289 1.025437,1.16291 -0.923477,1.77096 -2.247917,0.70149 -2.536103,1.66037 -2.536103,8.43788 0,6.49219 0.283987,7.53933 1.881485,6.93674 1.034803,-0.39035 2.37296,-0.70972 2.97368,-0.70972 0.600684,0 1.100374,-0.9208 1.11041,-2.0462 0.01487,-1.45677 0.289562,-1.62602 0.960461,-0.58752 0.576337,0.89216 2.763517,1.29786 5.631779,1.04458 2.579223,-0.22774 3.720075,-0.18561 2.535212,0.0935 -1.184864,0.27924 -2.463694,1.30024 -2.841834,2.26891 -0.478281,1.22513 -0.943067,1.35483 -1.526949,0.42614 -0.935409,-1.48773 -7.155827,-0.41931 -7.155827,1.22915 0,0.5532 -0.802894,0.70295 -1.784208,0.3328 -1.388597,-0.52381 -1.784209,0.28986 -1.784209,3.66956 0,3.47949 0.373941,4.20153 1.881485,3.63287 1.034803,-0.39037 2.908222,-0.70973 4.163153,-0.70973 1.254893,0 2.281668,-0.78925 2.281668,-1.75389 0,-1.16207 1.103718,-1.71456 3.271049,-1.63733 l 3.271048,0.11655 -2.973681,1.03415 c -2.281965,0.7936 -1.797738,0.89926 2.081577,0.45426 4.002759,-0.45917 5.055256,-0.20725 5.055256,1.21007 0,1.32547 0.771707,1.59959 2.973681,1.05633 1.737336,-0.42864 2.97368,-0.23049 2.97368,0.47662 0,0.66565 0.936709,1.41043 2.081577,1.65505 1.230099,0.26286 0.512067,0.69167 -1.755364,1.04834 -3.172955,0.49909 -3.600161,0.32304 -2.4686,-1.01721 1.128548,-1.33673 0.810848,-1.4832 -1.813054,-0.83583 -2.421022,0.59731 -3.181392,0.35301 -3.181392,-1.02222 0,-1.42845 -0.934739,-1.66603 -4.460521,-1.13377 -2.453286,0.37035 -5.061761,1.13559 -5.796595,1.70054 -0.734871,0.56495 -2.340658,0.70539 -3.568417,0.31209 -1.842269,-0.59013 -1.920589,-0.49463 -0.448133,0.54654 0.981314,0.69392 2.854733,1.32607 4.163152,1.40478 1.30842,0.0787 0.104081,0.6439 -2.676312,1.25597 -3.111548,0.68495 -5.055257,1.76678 -5.055257,2.81361 0,1.44744 0.664358,1.41333 4.460522,-0.22914 7.382533,-3.19413 10.246336,-3.17705 18.277503,0.10902 14.652142,5.99507 13.343834,5.88192 21.995497,1.90213 9.90786,-4.55763 13.22359,-4.53784 21.79574,0.13011 l 6.88734,3.75047 8.98472,-4.48292 8.98471,-4.48289 9.91481,4.16422 c 15.16819,6.37063 14.68672,6.36571 26.54066,0.27054 8.8716,-4.5617 10.19005,-4.97265 8.69961,-2.71163 -0.96618,1.4657 -4.02989,6.21652 -6.80824,10.55737 -5.00147,7.81423 -5.10396,7.89249 -10.33578,7.89249 -6.12165,0 -10.65235,-1.834 -18.71919,-7.57742 -3.17895,-2.26334 -6.80918,-4.11515 -8.06716,-4.11515 -3.22045,0 -8.97472,2.77329 -15.72229,7.57742 -3.17894,2.26333 -6.76081,4.11514 -7.95973,4.11514 -1.19891,0 -5.23825,-2.63083 -8.97624,-5.84629 -3.73803,-3.21545 -7.53969,-5.84627 -8.44819,-5.84627 -0.90849,0 -5.18714,2.63082 -9.50808,5.84627 -4.32098,3.21546 -9.04642,5.84629 -10.500995,5.84629 -1.454576,0 -6.019027,-2.65152 -10.143224,-5.89224 -4.124197,-3.24074 -8.316679,-5.73735 -9.316653,-5.54805 -0.999974,0.18931 -3.220198,2.3736 -4.933857,4.85401 -3.342676,4.83833 -4.751086,5.86127 -9.639743,7.00133 -2.968661,0.69232 -3.371521,0.21003 -7.680236,-9.19423 z m 8.755148,-29.91563 0.320786,-24.04859 -2.848897,-1.27599 -2.848936,-1.27599 -0.871697,24.60802 c -0.911247,25.72335 -0.682906,27.17527 4.143564,26.34725 1.505612,-0.25829 1.834278,-4.06084 2.105068,-24.3547 z m 38.021813,6.24795 c -0.244956,-3.05469 -0.445494,-0.55541 -0.445494,5.55396 0,6.10937 0.200352,8.60864 0.445494,5.55396 0.244957,-3.05468 0.244957,-8.05324 0,-11.10792 z m -46.074242,13.15412 c 0,-0.96463 -0.93671,-1.81492 -2.081577,-1.88952 -1.698268,-0.11065 -1.643516,-0.24733 0.297368,-0.74222 l 2.378944,-0.6066 -2.378944,-0.92948 c -1.749713,-0.68362 -1.875834,-0.9512 -0.476792,-1.01164 1.552112,-0.067 2.043513,-2.1803 2.670179,-11.48243 0.422374,-6.27014 0.770741,-15.47803 0.774123,-20.46199 0.0037,-7.84695 -0.272835,-9.06386 -2.075406,-9.07768 -1.144866,-0.01 -3.285917,-0.33324 -4.757888,-0.72101 -2.586805,-0.68145 -2.676313,-0.43427 -2.676313,7.39042 0,7.73293 0.146454,8.15436 3.271048,9.41115 l 3.271049,1.3157 -3.271049,-0.63212 -3.271048,-0.63212 v 14.21428 14.21427 l 3.865784,1.65167 c 2.126182,0.90842 3.999601,1.67227 4.163153,1.69745 0.163553,0.0252 0.297369,-0.74349 0.297369,-1.70813 z m -5.853468,-6.1847 c -0.0788,-3.22858 0.171358,-3.60408 1.558692,-2.33851 0.908906,0.82923 1.256789,1.77076 0.773083,2.09231 -0.483744,0.32154 -1.185123,1.37387 -1.558692,2.3385 -0.373531,0.96465 -0.721452,0.0231 -0.773083,-2.0923 z m 18.342925,4.43082 c -0.404345,-0.64309 -1.238835,-1.16926 -1.854423,-1.16926 -0.615589,0 -1.119257,0.52617 -1.119257,1.16926 0,0.64309 0.834489,1.16925 1.854387,1.16925 1.019936,0 1.523602,-0.52616 1.119293,-1.16925 z m 51.893779,-14.90801 c -2.22265,2.78591 -1.02712,2.59653 1.59612,-0.25282 2.08488,-2.26461 2.01195,-2.29238 -4.87093,-1.85582 -3.84311,0.24376 -8.459414,0.80921 -10.25849,1.25653 -3.19206,0.79367 -3.269895,1.01502 -3.222615,9.16368 l 0.04832,8.35032 9.169975,-9.35404 c 5.04351,-5.14473 8.43537,-8.43326 7.5375,-7.30785 z m -21.264868,8.28736 c -0.817764,-0.32437 -2.15592,-0.32437 -2.973682,0 -0.817762,0.32435 -0.148683,0.58975 1.48684,0.58975 1.635525,0 2.304603,-0.26538 1.486842,-0.58975 z M 36.677946,277.90778 c 0,-18.96574 0.732381,-22.61724 3.909944,-19.4937 0.728031,0.71567 2.857632,1.30123 4.732426,1.30123 1.874794,0 4.501521,0.57491 5.837187,1.27757 1.510109,0.79446 2.8499,0.86328 3.542991,0.18197 0.693053,-0.68129 -2.84124,-2.71853 -9.346128,-5.38727 -11.889519,-4.8779 -15.412141,-5.50551 -7.486948,-1.33393 7.115794,3.74557 5.107519,3.72921 -2.418494,-0.0197 l -5.907811,-2.9428 v 20.58656 c 0,19.91924 0.0866,20.65771 2.676313,22.78129 1.471971,1.20709 3.077759,2.21222 3.568416,2.23362 0.490657,0.0215 0.892104,-8.61177 0.892104,-19.18482 z m -9.827716,13.73795 c -1.152896,-0.29565 -1.790379,-1.02384 -1.416662,-1.61825 0.373755,-0.59443 -0.0223,-1.08882 -0.877533,-1.09867 -1.163081,-0.0132 -1.12,-0.28968 0.170244,-1.09212 0.950091,-0.59081 2.154431,-0.81477 2.676311,-0.49771 0.521919,0.31706 0.948903,-2.08539 0.948903,-5.3388 0,-4.18031 -0.46999,-5.91529 -1.602443,-5.91529 -0.881324,0 -2.183275,-1.18387 -2.893167,-2.63083 -1.040491,-2.12075 -1.306339,-0.68504 -1.37124,7.40529 -0.04423,5.51987 0.276181,10.3869 0.712495,10.81561 0.436127,0.42874 1.908098,0.71848 3.271049,0.64388 2.029202,-0.11103 2.098377,-0.23297 0.381931,-0.67311 z m 80.00658,-6.45825 c 0,-1.44841 3.31903,-1.06861 3.82999,0.4383 0.31112,0.91789 1.10966,0.99863 2.47075,0.24985 1.83606,-1.01005 1.84959,-1.3326 0.15538,-3.71026 -1.02053,-1.43222 -3.92147,-3.6401 -6.44657,-4.90642 l -4.59107,-2.30238 -3.061884,3.577 c -1.68407,1.96737 -3.061887,4.35695 -3.061887,5.3102 0,0.95325 -0.529167,1.41172 -1.175867,1.01882 -0.698444,-0.42432 -0.857833,0.10037 -0.392601,1.29207 0.573475,1.46902 0.361303,1.75006 -0.792151,1.04932 -0.933142,-0.56693 -1.288162,-0.50027 -0.870842,0.16351 0.824081,1.31071 13.936712,-0.74039 13.936712,-2.18001 z M 20.985946,259.43434 c -0.351638,-12.06857 -0.273207,-12.53412 2.01307,-11.94214 1.473868,0.38163 1.127063,-0.0856 -0.911619,-1.22801 -2.48228,-1.39104 -3.797018,-1.53143 -5.352624,-0.57149 -1.846954,1.13971 -1.813909,1.20691 0.316697,0.64413 2.315605,-0.6116 2.369428,-0.14138 2.021693,17.65554 -0.196635,10.05612 0.06171,19.12702 0.573475,20.15754 1.219989,2.4559 1.812271,-8.4756 1.339159,-24.71557 z m -3.408878,6.79998 c 0.07731,-9.87164 -0.34978,-17.15902 -1.030417,-17.57242 -0.739184,-0.44908 -1.124164,5.69361 -1.057034,16.86611 0.05798,9.66484 0.521733,17.57242 1.030419,17.57242 0.508647,0 0.984325,-7.58974 1.057032,-16.86611 z m 102.211682,14.33272 c 1.04989,-1.65261 1.01897,-2.13953 -0.13493,-2.12573 -1.93542,0.0231 -3.81386,1.39644 -4.10714,3.00267 -0.38056,2.08409 2.77552,1.43167 4.24218,-0.87694 z M 14.077974,261.65688 V 243.7211 l -2.97368,-1.33188 -2.9736804,-1.33187 v 17.44746 c 0,16.70424 0.1126286,17.52502 2.6436014,19.26767 1.453982,1.0011 2.792138,1.82018 2.973681,1.82018 0.181395,0 0.330078,-8.0711 0.330078,-17.93578 z m -9.515777,2.15083 c 0,-6.6258 -0.4799893,-11.10794 -1.1894723,-11.10794 -0.7095201,0 -1.1894722,4.48214 -1.1894722,11.10794 0,6.62578 0.4799521,11.10792 1.1894722,11.10792 0.709483,0 1.1894723,-4.48214 1.1894723,-11.10792 z m 23.789443,1.68487 c 0,-7.19903 -0.350893,-9.2283 -1.48684,-8.59788 -1.189471,0.66012 -1.189471,0.51024 0,-0.74948 2.261113,-2.39466 1.784246,-4.39294 -1.189471,-4.98408 -1.471973,-0.29261 0.669078,-0.42583 4.757889,-0.29605 7.036693,0.22338 7.4342,0.092 7.4342,-2.45674 0,-1.94717 -1.099034,-3.14414 -3.969417,-4.32306 -8.358012,-3.43285 -9.114776,-3.47177 -9.114776,-0.46863 0,2.11202 1.006628,3.12487 4.252176,4.27853 2.338726,0.83132 4.013689,1.74597 3.722157,2.03256 -0.291422,0.28657 -1.957203,-0.11804 -3.701415,-0.89933 -2.677502,-1.19921 -3.488648,-1.10841 -5.208959,0.58314 -1.785881,1.75597 -1.817178,2.14057 -0.253507,3.11259 1.184343,0.73618 1.284296,1.11508 0.297369,1.12698 -0.817762,0.01 -1.48684,1.10129 -1.48684,2.42542 0,1.32414 0.426983,2.1481 0.948901,1.83104 0.521881,-0.31706 1.726222,-0.0931 2.676313,0.49771 1.348675,0.83869 1.140629,1.07813 -0.948901,1.0921 -2.376269,0.016 -2.676313,0.60784 -2.676313,5.27956 0,2.89391 0.499169,5.26165 1.109294,5.26165 0.610125,0 1.449075,1.05233 1.864386,2.33851 1.635971,5.06692 2.973681,1.87996 2.973681,-7.08454 z M 6.6208388,258.21847 c -0.2494175,-2.71374 -0.4505869,-0.1986 -0.4469814,5.58924 0.00357,5.78781 0.2077859,8.00814 0.4535607,4.93406 0.2457003,-3.07409 0.2427267,-7.80958 -0.00743,-10.5233 z m 53.4156272,4.64869 c 0.455085,-0.44734 -0.332308,-0.81334 -1.749787,-0.81334 -1.417443,0 -2.577178,0.4796 -2.577178,1.0658 0,1.18873 3.04137,1.01129 4.326965,-0.25246 z m 0.430924,-7.35439 c 0,-1.086 -0.580611,-1.45952 -1.48684,-0.95659 -1.189472,0.66014 -1.189472,0.51025 0,-0.74948 0.817761,-0.86603 1.48684,-3.31097 1.48684,-5.43317 0,-2.29778 -0.601426,-3.86578 -1.48684,-3.87645 -0.991239,-0.0125 -0.892105,-0.39573 0.297368,-1.15135 1.189472,-0.75563 1.288569,-1.13942 0.297367,-1.15136 -0.817761,-0.01 -1.48684,-1.07023 -1.48684,-2.35641 0,-1.29917 -0.793005,-2.33852 -1.784208,-2.33852 -0.981314,0 -1.784207,0.78926 -1.784207,1.75389 0,0.96464 -0.535264,1.75388 -1.189473,1.75388 -2.116442,0 -1.258648,3.50327 0.892104,3.64341 1.83963,0.11992 1.852454,0.19536 0.110391,0.64947 -1.418445,0.36974 -2.085553,2.12186 -2.378944,6.24816 -0.342717,4.82189 -0.02974,5.90468 1.971215,6.80499 2.870903,1.29209 6.542097,-0.30188 6.542097,-2.84047 z m 4.757888,0.69477 c 1.524755,-0.96864 1.481525,-1.13605 -0.297367,-1.15135 -1.144868,-0.01 -2.081577,-0.60036 -2.081577,-1.31226 0,-0.7119 0.744462,-1.01353 1.65437,-0.6703 2.238438,0.84436 11.788005,-2.01482 12.35962,-3.70054 0.252019,-0.74269 1.48383,-1.35034 2.737719,-1.35034 2.8938,0 5.634307,-2.70215 9.761441,-9.62486 1.79837,-3.01656 4.123602,-5.95435 5.167216,-6.52844 3.744607,-2.05997 -7.52237,-2.78867 -11.781091,-0.76195 -3.423672,1.62932 -3.59031,1.63124 -1.532486,0.0175 2.16681,-1.69895 1.961811,-1.81038 -3.330113,-1.81038 -3.101475,0 -7.352054,0.81471 -9.445747,1.81048 -2.93138,1.39416 -3.320041,1.42597 -1.690204,0.1383 1.903305,-1.50375 1.923489,-1.74503 0.199981,-2.39511 -2.809831,-1.05991 -22.184289,-0.88353 -21.505696,0.19577 0.317814,0.5053 -0.392785,0.91871 -1.578874,0.91871 -1.186053,0 -1.940476,-0.55325 -1.676524,-1.22942 0.285474,-0.73126 -1.747596,-1.32692 -5.017195,-1.47002 -4.881183,-0.21361 -6.152766,0.30284 -11.34838,4.60941 -3.900838,3.23332 -5.454772,5.23973 -4.661765,6.01924 0.792968,0.7795 3.196706,-0.49451 7.211138,-3.82201 3.311936,-2.74519 7.376585,-5.13746 9.03259,-5.31615 1.656006,-0.17868 2.571899,0.0431 2.035299,0.49284 -6.990453,5.85935 -12.395749,9.467 -13.332013,8.8982 -0.636961,-0.38698 -1.502526,-0.1558 -1.923451,0.5137 -0.420962,0.66952 -0.324131,1.10653 0.21522,0.97112 0.539278,-0.13542 3.089357,0.6557 5.666869,1.75801 l 4.686371,2.00419 2.555507,-3.15046 c 1.722728,-2.12382 2.834884,-2.70614 3.412781,-1.78698 0.512886,0.81576 0.112255,1.36348 -0.997186,1.36348 -1.019899,0 -1.854388,0.22004 -1.854388,0.48899 0,0.26897 -0.29774,1.25213 -0.662015,2.18485 -1.324403,3.39269 4.505535,3.33547 8.36567,-0.0821 3.432779,-3.03923 3.472329,-3.04691 0.91567,-0.17787 -3.424788,3.84328 -3.378732,4.13072 0.896454,5.59572 l 3.568416,1.22281 v -5.77209 c 0,-5.56497 2.44983,-10.47588 5.225946,-10.47588 2.475998,0 5.479304,4.06713 5.479304,7.42024 0,3.34706 0.09627,3.42068 1.682806,1.28776 1.257235,-1.69017 1.332432,-2.50842 0.297368,-3.23563 -0.939052,-0.65975 -0.810551,-0.81743 0.39877,-0.48941 0.981315,0.26618 2.492948,-0.35147 3.359255,-1.37256 2.525993,-2.97739 0.275066,1.00658 -2.977062,5.26867 -2.18127,2.85887 -2.701551,4.8816 -2.48124,9.64636 0.295138,6.38187 0.474675,6.64724 3.288519,4.8597 z M 34.299002,235.92117 c 0,-0.27021 1.40406,-1.39562 3.120097,-2.50093 1.71611,-1.1053 2.756825,-1.43173 2.312706,-0.72538 -0.848615,1.34977 -5.432803,4.07213 -5.432803,3.22631 z m 16.095862,17.83016 c 0.920132,-2.84978 0.217079,-3.62381 -5.203122,-5.72776 -3.354609,-1.30218 -4.141444,-1.28579 -5.037043,0.10489 -0.583771,0.90649 -1.031978,2.43741 -0.995998,3.40204 0.04312,1.15647 0.413602,0.95732 1.087661,-0.58463 0.852369,-1.94991 1.036142,-2.00468 1.105838,-0.32965 0.0461,1.10487 1.555606,2.79384 3.354684,3.75327 4.330496,2.30941 4.757702,2.26299 5.68798,-0.61816 z m 81.440856,-2.22082 c 0,-0.64309 -0.50367,-1.16924 -1.11929,-1.16924 -0.61559,0 -1.45008,0.52615 -1.85439,1.16924 -0.40434,0.64309 0.0992,1.16926 1.11926,1.16926 1.01993,0 1.85442,-0.52617 1.85442,-1.16926 z M 22.40428,242.14754 c 0,-1.46545 -1.162524,-2.80194 -3.051145,-3.50777 -4.052791,-1.51468 -4.085688,-1.50473 -4.085688,1.23586 0,1.37137 1.131709,2.82336 2.676312,3.43366 3.963991,1.56624 4.460521,1.43692 4.460521,-1.16175 z m 10.110513,-8.71398 c 2.61684,-2.21711 4.407069,-4.05086 3.978302,-4.075 -0.428768,-0.0241 -3.021892,1.79767 -5.762509,4.04848 -2.740656,2.25083 -4.530886,4.08458 -3.97834,4.07501 0.552549,-0.01 3.14571,-1.83139 5.762547,-4.04849 z m 26.168388,1.72737 c -0.404345,-0.64308 -1.506466,-1.16926 -2.44916,-1.16926 -0.942694,0 -1.713991,0.52618 -1.713991,1.16926 0,0.64309 1.102119,1.16926 2.449123,1.16926 1.347039,0 2.118337,-0.52617 1.714028,-1.16926 z M 117.34925,127.81269 c -0.19886,-30.267182 -0.26614,-31.196404 -1.03205,-14.25437 -1.30961,28.97136 -1.28716,48.17048 0.0554,47.35486 0.75509,-0.45873 1.11175,-12.54676 0.97667,-33.10049 z m 24.92878,17.60785 c 5.17114,-6.46833 6.94142,-10.50525 8.48145,-19.34118 3.35357,-19.24099 -5.85771,-38.07672 -22.75564,-46.531942 -3.74305,-1.872911 -7.04038,-3.405294 -7.32741,-3.405294 -0.28696,0 -0.88441,4.340863 -1.32749,9.646363 l -0.80561,9.646361 5.91848,13.446442 c 3.25514,7.39554 7.42673,19.62888 9.27019,27.1852 1.84342,7.55632 3.7317,13.73875 4.19616,13.73875 0.46445,0 2.42192,-1.97311 4.34987,-4.3847 z M 116.1484,75.568162 c -0.20369,-0.180466 -2.75414,-0.715639 -5.66742,-1.189246 l -5.29687,-0.861102 2.04158,2.773723 c 1.12286,1.525551 3.23882,5.069734 4.70213,7.875966 l 2.66056,5.102238 0.96529,-6.686718 c 0.53091,-3.677698 0.79854,-6.834386 0.59473,-7.014861 z M 77.791197,295.13574 c -0.645511,-1.66644 -0.508871,-1.80074 0.665883,-0.65456 0.812892,0.79316 1.178357,1.73662 0.812111,2.09663 -0.366134,0.35999 -1.031309,-0.28895 -1.477994,-1.44207 z m 8.938476,-4.53258 c 0.05724,-1.36213 0.339,-1.63919 0.718627,-0.70644 0.34346,0.84406 0.301456,1.85255 -0.09367,2.24108 -0.395239,0.38854 -0.676363,-0.30207 -0.624733,-1.53464 z m -19.12545,-2.82571 c 1.189473,-0.75563 1.28857,-1.13942 0.297368,-1.15135 -2.489862,-0.0299 -1.970398,-13.40296 0.594736,-15.311 1.770827,-1.31722 1.859629,-1.30367 0.594737,0.0907 -0.817763,0.90146 -1.486841,4.44086 -1.486841,7.86532 0,6.08558 0.08735,6.24386 3.865785,7.00367 3.775087,0.75913 3.796015,0.79686 0.892103,1.6081 -1.635523,0.4569 -3.776573,0.87512 -4.757888,0.92937 -1.585975,0.0877 -1.585975,-0.0274 0,-1.0348 z m 10.70525,-1.16926 c 0.981314,-0.6234 2.319471,-1.13343 2.97368,-1.13343 0.654211,0 0.386578,0.51003 -0.594736,1.13343 -0.981314,0.62341 -2.31947,1.13345 -2.97368,1.13345 -0.654209,0 -0.386578,-0.51004 0.594736,-1.13345 z m -7.326256,-8.22731 c 0.251275,-4.37824 -0.143109,-7.71194 -1.037778,-8.77155 -1.187018,-1.40597 -1.005625,-1.70922 1.022426,-1.70922 1.356035,0 2.893539,0.72416 3.416721,1.60926 1.437291,2.43169 8.682776,1.06382 8.682776,-1.6392 0,-1.54234 1.268498,-2.31371 4.757888,-2.89321 4.585454,-0.76154 4.757889,-0.95292 4.757889,-5.28091 0,-2.58216 0.819659,-5.29645 1.928581,-6.38653 2.275423,-2.23677 6.01683,-1.79404 5.315268,0.62895 -0.822149,2.8395 -1.324031,9.96379 -0.591799,8.40038 0.378363,-0.80787 1.251581,-1.12643 1.940471,-0.70792 0.84103,0.51096 0.98879,-0.62099 0.44974,-3.44556 -0.69544,-3.64399 -0.40717,-4.46132 2.1558,-6.11211 3.9308,-2.53178 7.26244,-1.82412 7.15379,1.51947 -0.47973,14.76416 -0.12379,13.70191 -4.67337,13.94692 -3.38419,0.18226 -4.1627,-0.19355 -4.1627,-2.00949 0,-1.50513 -0.58199,-2.01416 -1.78421,-1.56067 -0.981315,0.37018 -1.78421,1.66908 -1.78421,2.88646 0,1.21737 -0.491511,2.2134 -1.092195,2.2134 -0.600721,0 -1.938876,0.31939 -2.973681,0.70974 -1.348787,0.50879 -1.881485,0.0125 -1.881485,-1.75389 0,-1.60196 -0.728067,-2.43133 -2.081576,-2.37129 -1.225789,0.0544 -1.474648,0.33334 -0.605367,0.67857 2.415372,0.95926 -1.118513,3.62451 -5.99914,4.52457 -2.479307,0.45721 -4.488436,1.59596 -4.790823,2.71533 -0.464971,1.72119 -0.535597,1.71244 -0.658781,-0.0816 -0.08809,-1.28174 -0.784159,-1.76575 -1.922188,-1.33646 -1.280763,0.48312 -1.784207,2.4523 -1.784207,6.97884 0,5.22522 -0.356842,6.30617 -2.081577,6.30793 -1.797626,0.003 -2.026303,-0.96127 -1.676263,-7.06018 z M 87.82525,267.90011 c 0,-0.64311 -0.802893,-1.16926 -1.784207,-1.16926 -0.981316,0 -1.784209,0.52615 -1.784209,1.16926 0,0.64309 0.802893,1.16924 1.784209,1.16924 0.981314,0 1.784207,-0.52615 1.784207,-1.16924 z m 9.515779,-5.29112 c 0,-2.77251 0.318183,-6.00475 0.706917,-7.18276 0.587935,-1.78131 0.490918,-1.8466 -0.576522,-0.38795 -0.94511,1.29153 -1.288235,1.3504 -1.301654,0.2233 -0.01118,-0.84181 -0.553476,-1.20538 -1.207685,-0.80793 -0.654211,0.39746 -1.189473,3.83207 -1.189473,7.63247 0,5.6617 0.322272,6.78827 1.784208,6.23682 1.204154,-0.45425 1.784209,-2.31176 1.784209,-5.71395 z m 8.821901,1.3936 c -0.0546,-1.07183 -0.18845,-3.8214 -0.29736,-6.11017 -0.30406,-6.38355 -2.57718,-3.59767 -2.57718,3.15859 0,4.1801 0.42888,5.73419 1.48684,5.38751 0.81776,-0.26793 1.44223,-1.36412 1.3877,-2.43593 z m 1.99297,-7.47754 c -1.0786,-1.82119 -1.22918,-1.71831 -1.24668,0.85175 -0.0112,1.60773 0.3742,4.23855 0.8559,5.84628 0.83921,2.80077 0.89139,2.7651 1.24671,-0.85175 0.20407,-2.07618 -0.18102,-4.70701 -0.85593,-5.84628 z m 9.10879,-3.96778 c 1.47197,-0.76126 2.71857,-2.48757 2.7702,-3.83626 0.0517,-1.34868 0.36391,-1.79444 0.69388,-0.99057 0.33007,0.80385 1.35822,1.46157 2.28501,1.46157 0.92682,0 1.68511,0.58245 1.68511,1.29435 0,0.7119 -0.8307,0.98101 -1.84599,0.59802 -1.05855,-0.39929 -1.53601,-0.20327 -1.11929,0.45953 0.3997,0.63572 -0.0639,1.15586 -1.03042,1.15586 -0.96641,0 -2.73761,0.27934 -3.93596,0.6208 -1.30749,0.37252 -1.10855,0.0673 0.49746,-0.7633 z M 98.5305,242.24548 c 0,-2.53441 0.484339,-4.90228 1.076287,-5.26192 0.611723,-0.37163 0.800853,1.36515 0.438133,4.02339 -0.518794,3.80215 -0.275064,4.67729 1.30262,4.67729 2.58729,0 2.65063,-7.31939 0.0814,-9.41536 -1.685668,-1.37523 -1.684813,-1.61295 0.0112,-2.54498 2.38422,-1.31159 4.59144,-0.01 3.72889,2.20066 -0.36986,0.94728 -0.14311,1.38091 0.51362,0.98198 0.70915,-0.43083 1.17587,1.40144 1.17587,4.61629 0,5.31267 -0.0149,5.33067 -4.16315,5.33067 -4.053647,0 -4.163152,-0.12118 -4.163152,-4.60802 z"
       id="path2822" />
  </g>
</svg>
