<svg width="315" height="400" xmlns="http://www.w3.org/2000/svg" xmlns:xlink="http://www.w3.org/1999/xlink">
<linearGradient id="m" x1="238" x2="240" y1="258" y2="226" gradientUnits="userSpaceOnUse">
<stop stop-color="#f60"/>
<stop stop-color="#ff0" offset="1"/>
</linearGradient>
<linearGradient id="l" x1="197" x2="216" y1="319" y2="300" gradientUnits="userSpaceOnUse">
<stop stop-color="#f60"/>
<stop stop-color="#ff0" offset="1"/>
</linearGradient>
<linearGradient id="k" x1="241" x2="245" y1="268" y2="243" gradientUnits="userSpaceOnUse">
<stop stop-color="#f60"/>
<stop stop-color="#ff0" offset="1"/>
</linearGradient>
<linearGradient id="j" x1="234" x2="235" y1="283" y2="257" gradientUnits="userSpaceOnUse">
<stop stop-color="#f60"/>
<stop stop-color="#ff0" offset="1"/>
</linearGradient>
<linearGradient id="i" x1="235" x2="247" y1="294" y2="272" gradientUnits="userSpaceOnUse">
<stop stop-color="#f60"/>
<stop stop-color="#ff0" offset="1"/>
</linearGradient>
<linearGradient id="h" x1="215" x2="234" y1="305" y2="282" gradientUnits="userSpaceOnUse">
<stop stop-color="#f60"/>
<stop stop-color="#ff0" offset="1"/>
</linearGradient>
<radialGradient id="d" cx="236" cy="296" r="4" gradientTransform="matrix(1 0 0 .9995 0 .1368)" gradientUnits="userSpaceOnUse">
<stop stop-color="#ff0"/>
<stop stop-color="#f60" offset="1"/>
</radialGradient>
<radialGradient id="c" cx="230" cy="301" r="5" gradientTransform="matrix(1 0 0 .9996 0 .1272)" gradientUnits="userSpaceOnUse">
<stop stop-color="#ff0"/>
<stop stop-color="#f60" offset="1"/>
</radialGradient>
<linearGradient id="g" x1="199" x2="228" y1="324" y2="309" gradientUnits="userSpaceOnUse">
<stop stop-color="#f60"/>
<stop stop-color="#ff0" offset="1"/>
</linearGradient>
<linearGradient id="f" x1="414" x2="395" y1="320" y2="312" gradientTransform="translate(-40)" gradientUnits="userSpaceOnUse">
<stop stop-color="#f60"/>
<stop stop-color="#ff0" offset="1"/>
</linearGradient>
<linearGradient id="e" x1="388" x2="387" y1="237" y2="219" gradientTransform="translate(-60)" gradientUnits="userSpaceOnUse">
<stop stop-color="#f60"/>
<stop stop-color="#ff0" offset="1"/>
</linearGradient>
<path d="m274.9 202.5h-7.6v-5.1h7.6c1.4 0 2.5-1.1 2.5-2.5 0-1.4-1.1-2.5-2.5-2.5h-7.6l5.1-5.1h2.5c4.1 0 7.6 3.4 7.6 7.6 0 1.9-0.7 3.7-1.9 5.1 1.2 1.3 1.9 3.1 1.9 5.1 0 4.2-3.5 7.6-7.6 7.6h-7.6v-5.1h7.6c1.4 0 2.5-1.1 2.5-2.5 0-1.4-1.1-2.5-2.5-2.5zm-196.8-2.5c0-7 5.7-12.7 12.7-12.7 7 0 12.7 5.7 12.7 12.7 0 7-5.7 12.7-12.7 12.7-7 0-12.7-5.7-12.7-12.7zm12.7 17.7c9.8 0 17.7-7.9 17.7-17.7 0-9.8-7.9-17.7-17.7-17.7-9.8 0-17.7 7.9-17.7 17.7 0 9.8 7.9 17.7 17.7 17.7zm-5.1-25.3h5.1c4.2 0 7.6 3.4 7.6 7.6s-3.5 7.6-7.6 7.6h-5.1v-5.1h5.1c1.4 0 2.5-1.1 2.5-2.5s-1.1-2.5-2.5-2.5h-5.1zm43-5.1h5.1v25.3h-5.1l-10.1-15.9v15.9h-5.1v-25.3h5.1l10.1 15.9zm-75.9 0h15.2v5.1h-10.1v5.1h10.1v5.1h-10.1v5.1h10.1v5.1h-15.2zm86 0h5.1v25.3h-5.1zm20.2 25.3c5.6 0 10.1-4.5 10.1-10.1v-5.1c0-5.6-4.5-10.1-10.1-10.1h-10.1v25.3zm0-20.2c2.8 0 5.1 2.3 5.1 5.1v5.1c0 2.8-2.3 5.1-5.1 5.1h-5.1v-15.2zm88 7.6c0 7-5.7 12.7-12.7 12.7-7 0-12.7-5.7-12.7-12.7 0-7 5.7-12.7 12.7-12.7 7 0 12.7 5.7 12.7 12.7zm-12.7-17.7c-9.8 0-17.7 7.9-17.7 17.7 0 9.8 7.9 17.7 17.7 17.7 9.8 0 17.7-7.9 17.7-17.7 0-9.8-7.9-17.7-17.7-17.7zm-201.9 5.1h5.1v20.2h10.1v5.1h-15.2zm229.8 0v25.3h-5.1v-20.2zm-58.2 15.2c-1.4 0-2.5 1.1-2.5 2.5v2.5h10.1v5.1h-15.2v-7.6c0-4.1 3.4-7.6 7.6-7.6 1.4 0 2.5-1.1 2.5-2.5 0-1.4-1.1-2.5-2.5-2.5h-7.6l5.1-5.1h2.5c4.1 0 7.6 3.4 7.6 7.6 0 4.2-3.4 7.6-7.6 7.6z" fill="#800080" />

<path d="m157.5 398.3c1.4-3.2 5.5-6.2 8.6-5.8 2.4-4.4 8-7.4 13.2-6.7 2-4 6.4-7.8 11.9-11.4 17.6-11.5 38.4-15.5 56.9-25.2 24.9-13 44.6-37.8 47.4-66.4 1.3-13-1.2-23.7-8.7-33.1-2.3-2.9-6.8-5.9-6.7-9.8 0.1-1.8 1.6-3.4 5.6-4.9 4.6-1.7 8.1-5 8.2-10.1 0.1-5.2-3.5-9.3-3-14.1 0.4-4.4 4.3-7.2 4.3-12.5l-7.2-4.8-0.2-26.4c-0.2-26.7 1.8-48.3 7.4-57 0 2.4 0.8 4.6 2.2 6.4 3.7 4.6 10.9 4.9 14.4-0 1.2-1.7 1.9-3.9 1.9-6.2 0-3.8-2.1-7.1-5-9.4-2.3-1.8-4.3-3.1-6.3-4.3-3.8-2.4-8.1-4.7-11-7.4-2.4-2.3-4.4-4.8-6.1-7.7-2.4-4.1-3.8-8.1-9.6-8.3-5.2-0.2-9.4 4.2-12.7 7.6-4.4 4.5-10.8 8.8-18.9 8.7-5-0.1-9.7-1-14.4-2.5-6.9-2.3-13.4-5.8-20-8.8-11-5-22.6-9-34.5-10.9-10.6-1.7-24.9-1.7-35.4 0-11.9 1.9-23.6 5.9-34.5 10.9-6.6 3-13.2 6.5-20 8.8-4.6 1.6-9.4 2.5-14.3 2.5-8.1 0.1-14.5-4.2-18.9-8.7-3.3-3.4-7.5-7.8-12.7-7.6-5.8 0.3-7.2 4.2-9.6 8.3-1.6 2.9-3.7 5.4-6.1 7.7-2.8 2.8-7.1 5-11 7.4-1.9 1.2-4 2.5-6.3 4.3-2.8 2.3-5 5.6-5 9.4 0 2.3 0.7 4.5 1.9 6.2 3.6 4.9 10.7 4.6 14.4 0 1.4-1.7 2.2-3.9 2.2-6.4 5.6 8.7 7.6 30.4 7.4 57l-0.2 26.4-7.2 4.8c-0.1 5.2 3.8 8.1 4.3 12.5 0.5 4.8-3.1 8.9-3 14.1 0.1 5.1 3.6 8.4 8.2 10.1 3.9 1.5 5.5 3.1 5.6 4.9 0.1 3.9-4.4 7-6.7 9.8-7.5 9.4-10 20.1-8.7 33.1 2.8 28.6 22.5 53.4 47.4 66.4 18.4 9.6 39.3 13.7 56.9 25.2 5.5 3.6 9.9 7.5 11.9 11.4 5.2-0.7 10.8 2.3 13.2 6.7 3.2-0.3 7.2 2.6 8.6 5.8z" fill="#fff500" stroke="#000080" stroke-linejoin="bevel" stroke-width="2.5"/>

<g transform="translate(-0.1)" stroke="#000080">
<path d="m204.8 79.1 5.7-30.2 2.3 1 11.9-2.4 5.8-22.1c-6.4-7.4-18.2-13.6-33.2-17.6l-11.6 3.8-7.8-0.7 0.7-9.2h-42l0.7 9.2-7.8 0.7-11.6-3.8c-15 4-26.7 10.2-33.2 17.6l5.8 22.1 11.9 2.4 2.3-1 5.7 30.2h94.4z" fill="#fff500" stroke-width="2.5"/>
<path d="m150.1 1.1 0.4 16.2m0.3 12.6 0.2 6.9m6.6 0v14.4m-18.2-13.5-2.1-26.7m38.4 26.7 2.1-26.7m-12.2 5.9v13m-26.7 0.9c12.2-1.5 24.6-1.6 37.4 0m-38.3-12.8c13.1-1.1 26.2-1.3 39.3 0m-59.6-10.3 0.7 25.4m11-21.8 0.9 27.4m-14.2 20.1 1.8 15.3m9.8-34.5 1.8 14.4m11.4-1.8 1.4 16.2m-51.6-20.8c8.6-6 17.8-11 27.6-14.6l11.9 2.7m-42.7 1.6c8.1-6.5 19.5-12.3 30.6-15.3l11.9 2.5c2.9-0.2 5.8-0.3 8.6-0.5m-33.9 3 1.6 11.7m-11.9-21.3 2.7 13.5m6.9 18.2c10.3-7.4 30.4-12.4 53.6-12.4 22.6 0 42.3 4.8 52.8 11.9m-102.7 15.4c9.3-7.7 28.1-13 49.8-13 22.2 0 41.4 5.5 50.4 13.5m-10.5-56.9-0.7 26.3m-11-22.6-0.9 27.4m14.2 20.1-1.8 15.3m-9.8-34.5-1.8 14.4m-11.4-1.8-1.4 16.2m51.6-20.8c-8.6-6-17.8-11-27.6-14.6l-11.9 2.7m42.7 1.6c-8.1-6.5-19.5-12.3-30.6-15.3l-11.9 2.5c-2.9-0.2-5.8-0.3-8.6-0.5m33.9 3-1.6 11.7m11.9-21.3-2.7 13.5" fill="none" stroke-width="1.2"/>
</g>

<path d="m47.4 100.2v162.3c0 23.5 5.5 39.5 14.1 50.9s20.4 18.2 32.7 23.4c12.3 5.2 25.2 8.9 36.3 14.1s20.4 11.8 25.8 22.8l1.1 2.3 1.1-2.3c5.4-11 14.7-17.6 25.8-22.8s24-8.9 36.3-14.1 24.1-12 32.7-23.4 14.1-27.5 14.1-50.9v-162.3z" color="#0" fill="#000080" />
<path d="m157.5 65.9c-6.2 0-12.4 0.4-17.7 1.3-11.9 1.9-23.6 5.9-34.5 10.9-6.6 3-13.2 6.5-20 8.8-4.6 1.6-9.4 2.5-14.3 2.5-6.8 0.1-12.4-3-16.7-6.7 28 30.4 32.3 120.4-15.8 154.3-42.7 72.3 22.5 113.5 69 124.4l50.1 30.9 50.1-30.9c46.4-10.9 111.7-52.1 69-124.4-48.1-33.9-43.8-123.9-15.8-154.3-4.2 3.7-9.8 6.7-16.7 6.7-5-0.1-9.7-1-14.3-2.5-6.9-2.3-13.4-5.8-20-8.8-11-5-22.6-9-34.5-10.9-5.3-0.9-11.5-1.3-17.7-1.3z" fill="#000080"/>

<g stroke="#000080">
<path d="m157.5 398.3c-1.4-3.2-5.5-6.2-8.6-5.8-2.4-4.4-8-7.4-13.2-6.7-2-4-6.4-7.8-11.9-11.4-17.6-11.5-38.4-15.5-56.9-25.2-24.9-13-44.6-37.8-47.4-66.4-1.3-13 1.2-23.7 8.7-33.1 2.3-2.9 6.8-5.9 6.7-9.8-0-1.1-0.7-2.2-2.1-3.2 0.7-3.4 6.4-6.2 9.7-1.5 2 2.7 2.1 5.1-0.5 8.2-2 2.3 0.6 5.2 3.8 6.7-1.8 3.5-5.2 4.7-8.3 6.5-4.2 2.4-5.8 6.9 0.6 4.5 1.8-0.6 3.5-1.1 5.7-0.7-1.4 8.8-5 12.6-8.2 16.4-4.4 5.1-7.5 9.8-5.1 14.2 1.4 2.6 5.7 3.4 3.8-1.7-2.1-5.5 0.2-8 3.3-5.9 4 2.8 2.1-5.1 2.9-6.9 1.4-3.5 4.4-4.8 8.6-6.1-2.3 8-0.4 13 3.3 17.1 2.3 4.3 1.1 8.4-1.2 12.6-2.4 4.3-6 8.7-7.3 13.5-1.2 4.4 4.8 6.3 5.8 2.5 0.9-3.5 1.1-8.5 0.2-12.4 13.2 1 14.6 9.8 8.2 19.9-2.7 4.3-2.1 8.8 1.5 11.4-0.7-3.3-2.3-5.9 0.2-10.5 0.6-1.2 0.3-2.6 0.1-3.9 8.3 0.3 8 6.8 6.7 11.7-2.6 4.3-0.8 6.3 1.6 7.9-0.9-4.6 0.2-11.3-0.2-16.6 1.4 1.5 3.1 3.4 4.9 5.2 3 3.1 7 4.6 10.3 7.1 5.4 4.2 10.2 10.6 17.2 17.9 13.7 6.2 29.8 12.2 38.4 25.3 4.2 0.1 8.8 1.1 12.2 6.2 1.9 0.2 4.7 1 6.4 2.5 1.7-1.6 4.6-2.3 6.4-2.5 3.4-5.2 8-6.2 12.2-6.2 8.7-13.1 24.7-19.1 38.4-25.3 7-7.2 12.1-14.2 16.4-17.6s8.1-4.4 11.1-7.4c1.8-1.8 3.5-3.7 4.9-5.2-0.3 5.2 0.7 12-0.2 16.6 2.4-1.6 4.2-3.6 1.6-7.9-1.3-4.9-1.5-11.4 6.7-11.7-0.2 1.3-0.6 2.9-0 4.1 2.5 4.6 1 7.1 0.3 10.4 3.6-2.6 4.2-7 1.5-11.4-6.4-10.1-4.9-18.9 8.2-19.9-0.9 3.8-0.8 8.8 0.1 12.4 1 3.7 7 1.9 5.8-2.5-1.3-4.8-4.8-9.2-7.3-13.5-2.2-4.3-3.4-8.4-1.2-12.6 3.6-4.1 5.6-9 3.3-17.1 4.3 1.3 7.1 2.4 8.5 5.9 0.7 1.8-1 9.8 3 7.1 3.1-2.1 5.4 0.4 3.3 5.9-1.9 5.1 2.4 4.2 3.8 1.7 2.4-4.3-0.7-9-5.1-14.2-3.2-3.8-6.7-7.6-8.2-16.4 2.2-0.4 3.9 0.1 5.7 0.7 6.3 2.3 4.8-2.2 0.6-4.5-3.2-1.8-6.5-2.9-8.3-6.5 3.2-1.5 5.8-4.3 3.8-6.7-2.6-3.1-2.5-5.5-0.5-8.2 3.3-4.7 9-1.9 9.7 1.5-1.5 1-2.1 2.1-2.1 3.2-0.1 3.9 4.4 7 6.7 9.8 7.5 9.4 10 20.1 8.7 33.1-2.8 28.6-22.5 53.4-47.4 66.4-18.4 9.6-39.3 13.7-56.9 25.2-5.5 3.6-9.9 7.5-11.9 11.4-5.2-0.7-10.8 2.3-13.2 6.7-3.2-0.3-7.2 2.6-8.6 5.8z" fill="#fff500" stroke-width="2"/>

<path d="m5.4 101.7c1.9-1.4 4.5-2.2 7.5-1.9 6.9 0.7 11 6.7 13.1 12.6 4.4 12.4 3.1 33.5 1.2 52.5m-13.6-54.4c0.4 1.9-0.9 2.9-2.4 3-1.9 0.1-3-1.3-3.1-2.8-0.3-2.6 1.7-4.7 4.2-4.9 2.8-0.3 5.8 1.4 6.7 4.3 0.6 2 0.3 4.4-1.2 6.2-3.7 4.6-10.9 4.9-14.4-0" fill="none" stroke-width="1.7"/>
<path d="m309.6 101.7c-1.9-1.4-4.5-2.2-7.5-1.9-6.9 0.7-11 6.7-13.1 12.6-4.4 12.4-3 33.5-1.2 52.5m13.6-54.4c-0.4 1.9 0.9 2.9 2.4 3 1.9 0.1 3-1.3 3.1-2.8 0.3-2.6-1.7-4.7-4.2-4.9-2.8-0.3-5.8 1.4-6.7 4.3-0.6 2-0.2 4.4 1.2 6.2 3.7 4.6 10.9 4.9 14.4-0" fill="none" stroke-width="1.7"/>
</g>

<g fill="#fff500" stroke="#000080" stroke-width="2">
<path d="m164.3 85.5c-0.8 3.5 1.6 7.9 5 9.3 2.5 1 5.9-0.1 7.6-2.1 1.6-1.9 1.8-4.8-0.1-6.7-1.7-1.7-4.3-1.7-6-0-1.2 1.3 0.6 4 1.6 1.8 0.9-0.9 2.2-1.3 3.1-0.5 0.9 0.9 1.2 2.4 0.1 4-2.6 3.6-7.5 2-9.1-1.6-1.2-2.7-0.3-6 2.4-7.9 3.4-2.5 7.8-2.3 11 0.6 2.1 1.9 3.5 4.7 3.6 7.4 0.3 4.7-2.8 9-7 10.8-5.7 2.5-12.2 0.1-15.7-4.8-3.9-5.5-3.5-12.8 0.8-18.1 2.8-3.4 6.6-5.4 10.9-6.2 9.9-1.8 22 2.5 30.8 5.8 9.7 3.6 18.9 8.3 28.9 11 3.6 1 8.8 2.2 12.4 0.5 5.8-2.7 5.7-11.2-0.3-13.7 0.8-2.1 5.7-3.6 9.1-1.7 4.5 2.4 6.5 7.1 6.5 12.5 0 12.6-14 15.4-24.6 11.8-6.1-2.1-11.6-4.9-17.1-8.2 3.2 3.9 8 6.7 12.8 7.9-2.7 2.3-5.9 2.8-9.1 2.1-6-1.2-10.6-6.5-14.9-10.5-1.3-1.2-2.5-2.3-3.8-3 2.2 6.6 9 11.4 15.7 13-2.4 2.1-5.3 2.5-8.2 2.1-5.5-0.7-10.1-4.1-12.8-8.8-1.5-2.6-2.7-5.7-4.5-6.6 0.8 1.4 1.3 3 1.3 4.8 0 5.2-4.2 9.5-9.5 9.5-1.2 0-3.4-0.2-4.5-0.6 5.4-3 7.6-9.9 4.6-15.1-2.4-4.2-7-6.6-11.7-6.2-4 0.4-8.4 3.4-9.4 7.5z"/>
<path d="m150.7 85.5c0.8 3.5-1.6 7.9-5 9.3-2.5 1-5.9-0.1-7.6-2.1-1.6-1.9-1.8-4.8 0.1-6.7 1.7-1.7 4.3-1.7 6-0 1.2 1.3-0.6 4-1.6 1.8-0.9-0.9-2.2-1.3-3.1-0.5-0.9 0.9-1.2 2.4-0.1 4 2.6 3.6 7.5 2 9.1-1.6 1.2-2.7 0.3-6-2.4-7.9-3.4-2.5-7.8-2.3-11 0.6-2.1 1.9-3.5 4.7-3.6 7.4-0.3 4.7 2.8 9 7 10.8 5.7 2.5 12.2 0.1 15.7-4.8 3.9-5.5 3.5-12.8-0.8-18.1-2.8-3.4-6.6-5.4-10.9-6.2-9.9-1.8-22 2.5-30.8 5.8-9.7 3.6-18.9 8.3-28.9 11-3.6 1-8.8 2.2-12.4 0.5-5.8-2.7-5.7-11.2 0.3-13.7-0.8-2.1-5.7-3.6-9.1-1.7-4.5 2.4-6.5 7.1-6.5 12.5 0 12.6 14 15.4 24.6 11.8 6.1-2.1 11.6-4.9 17.1-8.2-3.2 3.9-8 6.7-12.8 7.9 2.7 2.3 5.9 2.8 9.1 2.1 6-1.2 10.6-6.5 14.9-10.5 1.3-1.2 2.5-2.3 3.8-3-2.2 6.6-9 11.4-15.7 13 2.4 2.1 5.3 2.5 8.2 2.1 5.5-0.7 10.1-4.1 12.8-8.8 1.5-2.6 2.7-5.7 4.5-6.6-0.8 1.4-1.3 3-1.3 4.8 0 5.2 4.2 9.5 9.5 9.5 1.2 0 3.4-0.2 4.5-0.6-5.4-3-7.6-9.9-4.6-15.1 2.4-4.2 7-6.6 11.7-6.2 4 0.4 8.4 3.4 9.4 7.5z"/>
</g>

<path d="m49.9 102.8h215.2v159.8c0 23.1-5.3 38.5-13.6 49.4s-19.6 17.5-31.7 22.6-25 8.8-36.4 14.1c-10.7 5-20 11.5-25.9 22-5.8-10.5-15.2-17-25.9-22-11.4-5.3-24.3-8.9-36.4-14.1-12.1-5.1-23.4-11.7-31.7-22.6s-13.6-26.4-13.6-49.4z" color="#0" fill="#fff500" />
<path d="m115.1 331.6c15.9 5.7 31.2 11.2 42.4 22.6 11.2-11.4 26.5-16.9 42.4-22.6 26.7-9.6 55.3-19.9 55.3-69.1v-149.9h-195.4v149.9c0 49.2 28.6 59.5 55.3 69.1z" fill="#005bbb"/>
<path d="m223.2 259.9v-123h-131.5v123c0 17.8 14.4 32.1 32.1 32.1h18.6c6.6 0 12.3 3.8 15 9.4 2.7-5.5 8.4-9.4 15-9.4h18.6c17.8 0 32.1-14.4 32.1-32.1z" fill="#acf" stroke="#fff500" stroke-width="2"/>

<g transform="matrix(2.379 0 0 2.379-551.7-607.3)" >
<path d="m292.4 337.6h-0.9c0.4-2.6 3.1-4.7 6.4-4.7h0.5c3.3 0 6 2 6.4 4.7h-0.9l0.4 1h0.5v8.2h-0.5v1.9h12.5v-3.2h-1v-14.5h1l1-1.3h-1.3v-3.7h1.5l0.8-1.5h-1.9c-0.1-1-0.3-1.8-1-2.6-0.5-0.5-1.1-1-0.9-1.8 0-0.3 0.2-0.7 0.3-1l-0.4-0.6h-16.2-1-16.2l-0.4 0.6c0.1 0.3 0.3 0.7 0.3 1 0.1 0.8-0.4 1.3-0.9 1.8-0.7 0.7-0.9 1.5-1 2.6h-1.9l0.8 1.5h1.5v3.7h-1.3l1 1.3h1v14.5h-1v3.2h12.5v-1.6l-0.5-0.3v-8.2h0.5l0.4-1z" fill="#fff500" stroke="#000" stroke-width="0.4"/>

<path d="m295.9 329.1h4.3l-0.8 4.2h-2.8l-0.8-4.2z"/>
<path d="m317.2 325.3 0.4-0.9h-39.1l0.4 0.9h38.3z"/>
<path d="m304.2 324.1c0-1.2 0.5-1.9 1-2.5 0.6-0.7 1-1.2 0.6-2.3l-0.3 0c0.3 0.8-0 1.4-0.6 1.9-0.6 0.7-1.4 1.4-1.4 2.8h0.6z"/>
<path d="m311.3 323.7v-3.2h0.4v3.2h2v-3.2h0.4v3.6h-7.6v-3.6h0.4v3.2h2v-3.2h0.4v3.2h2z"/>
<path d="m284.9 345.9 0.5 0.6v0.6l-1-0.4h-2.2l-1 0.4v-0.6l0.5-0.6-0.1-14.6-0.5-0.8h1.2 2l0.6 0.7v14.6zm-0.7-14.5h-1.9v14.4c0.6-0 1.3-0 1.9-0v-14.4z"/>
<path d="m292.4 330.4h-1.2v4.2c1.2-1.7 3.3-2.7 5.3-3l-0.1-0.3c-1.3 0.1-2.9 0.4-4 0.8v-1.7z"/>
<path d="m292 324.1c-0-1.2-0.5-1.9-1-2.5-0.6-0.7-1-1.2-0.6-2.3l0.3 0c-0.3 0.8 0 1.4 0.6 1.9 0.6 0.7 1.4 1.4 1.4 2.8h-0.6z"/>
<path d="m313.9 319-0.2 0.5h-31.1l-0.2-0.5h31.6z"/>
<path d="m283.8 328.8h2v0.5h-2v-0.5zm3.2 0h2v0.5h-2v-0.5zm3.2 0h2v0.5h-2v-0.5zm3.2 0h2v0.5h-2v-0.5zm3.2 0h2v0.5h-2v-0.5zm3.2 0h2v0.5h-2v-0.5zm3.2 0h2v0.5h-2v-0.5zm3.2 0h2v0.5h-2v-0.5zm3.2 0h2v0.5h-2v-0.5zm3.2 0h2v0.5h-2v-0.5zm-31.9 0h2v0.5h-2v-0.5z"/>
<path d="m303.5 324.1v-3.2h-10.8v3.2h-0.4v-3.6h11.5v3.6h-0.4z"/>
<path d="m311.4 328.8h-1.4v-3.8h1.4v3.8zm-2.5 0h-1.4v-3.8h1.4v3.8zm-2.5 0h-1.4v-3.8h1.4v3.8zm-2.5 0h-1.4v-3.8h1.4v3.8zm-2.5 0h-1.4v-3.8h1.4v3.8zm12.7 0h-1.4v-3.8h1.4v3.8zm-29.1 0h1.4v-3.8h-1.4v3.8zm2.5 0h1.4v-3.8h-1.4v3.8zm2.5 0h1.4v-3.8h-1.4v3.8zm2.5 0h1.4v-3.8h-1.4v3.8zm2.5 0h1.4v-3.8h-1.4v3.8zm-12.7 0h1.4v-3.8h-1.4v3.8zm15.1 0h1.4v-3.8h-1.4v3.8z"/>
<path d="m284.9 323.7v-3.2h-0.4v3.2h-2v-3.2h-0.4v3.6h7.6v-3.6h-0.4v3.2h-2v-3.2h-0.4v3.2h-2z"/>
<path d="m287.1 345.9-0.5 0.6v0.6l1-0.4h2.2l1 0.4v-0.6l-0.5-0.6 0.1-14.6 0.5-0.8h-1.2-2l-0.6 0.7v14.6zm0.7-14.5h1.9v14.4c-0.6-0-1.3-0-1.9-0v-14.4z"/>
<path d="m309.1 345.9 0.5 0.6v0.6l-1-0.4h-2.2l-1 0.4v-0.6l0.5-0.6-0.1-14.6-0.5-0.8h1.2 2l0.6 0.7v14.6zm-0.7-14.5h-1.9v14.4c0.6-0 1.3-0 1.9-0v-14.4z"/>
<path d="m311.3 345.9-0.5 0.6v0.6l1-0.4h2.2l1 0.4v-0.6l-0.5-0.6 0.1-14.6 0.5-0.8h-1.2-2l-0.6 0.7v14.6zm0.7-14.5h1.9v14.4c-0.6-0-1.3-0-1.9-0v-14.4z"/>
<path d="m303.8 330.4h1.2v4.2c-1.2-1.7-3.3-2.7-5.3-3l0.1-0.3c1.3 0.1 2.9 0.4 4 0.8v-1.7z"/>

<path d="m296.3 329.5 0.7 3.5h2.2l0.7-3.5h-3.5zm2 2.8 0.2-2.4 0.3 0-0.2 2.4-0.3-0zm-0.7 0-0.2-2.4 0.3-0 0.2 2.4-0.3 0z" fill="#fff500"/>
</g>

<g transform="translate(0.923)" >
<path d="m134.2 267.9 2.6 0.7c2.6 4 5.8 5.6 9.7 5.6l-0.3 2.5 6.7-4.6-7.3-2.6 0.8 2.5c-3.1 0.8-9.1-3.9-4.8-6.6l27.7-16.8 2 3.4 1.5-0.9-2-3.4 2.5-1.5c0.5 0.7 1.1 1.1 1.9 1.4 2.8 1.1 5.2-0.4 5.6-3.3 0.3-2.7-1.2-5.4-3.8-6.4-2.8-1.1-5.2 0.3-5.5 3.2-0.1 0.8 0.1 1.5 0.4 2.4l-2.7 1.6-2-3.4-1.5 0.9 2 3.4-27.9 16.4c-4.3 2.5-5.6-5-3.5-7.4l1.8 1.9 1.2-7.6-7.2 3.7 2.3 0.9c-1.8 3.4-1.9 7 0.3 11.2l-0.6 2.6zm41-22.9c0.9-1-0.1-2.7-1.4-2.4-0.1-0.4-0.1-0.7-0.1-1.1 0.2-1.3 1.1-1.9 2.4-1.4 1.5 0.6 2.6 2.4 2.4 4-0.2 1.3-1.1 1.9-2.4 1.4-0.3-0.1-0.6-0.3-0.9-0.6z"/>
<path d="m139.8 245.8c-0.8 1.6-3.4 2.3-5 0.9-2.1-1.7-1.6-4.2-0.4-6.1 1.2-1.9 3.3-3.5 5.7-2.3 1.9 0.9 2.5 3.5 1.4 4.9l29.6 18.3c5.4 3.4 9.1-2.5 6.1-6.6l-1.8 1.7-1.2-7.1 7 3.8-2.2 0.8c2.7 4.5 1 10.5-5 11.2 2 5.8-2.6 9.8-7.9 9.4l0.3 2.3-6.5-4.6 7-2.1-0.7 2.3c5.5 0.5 8.7-5 3.3-8.4l-29.5-18.4zm-1.3-2.6c0.3-0.5 0.8-0.9 1.3-0.8 0.2-0.7 0.4-1.4-0.3-2-1.5-1.3-3.2 0.4-3.6 1.2s-1.3 3 0.6 3.8c0.8 0.4 1.4-0.2 1.9-0.7-0.3-0.4-0.2-1 0.1-1.5z"/>
<path d="m134.2 266.5 2.6 0.7c2.6 4 5.8 5.6 9.7 5.6l-0.3 2.5 6.7-4.6-7.3-2.6 0.8 2.5c-3.1 0.8-9.1-4-4.8-6.6l27.7-16.8 2 3.4 1.5-0.9-2-3.4 2.5-1.5c0.5 0.7 1.1 1.1 1.9 1.4 2.8 1.1 5.2-0.4 5.6-3.3 0.3-2.7-1.2-5.4-3.8-6.4-2.8-1.1-5.2 0.3-5.5 3.2-0.1 0.8 0.1 1.5 0.4 2.4l-2.7 1.6-2-3.4-1.5 0.9 2 3.4-27.9 16.4c-4.3 2.5-5.6-5-3.5-7.4l1.8 1.9 1.2-7.6-7.2 3.7 2.3 0.9c-1.8 3.4-1.9 7 0.3 11.2l-0.6 2.6zm41-22.9c0.9-1-0.1-2.7-1.4-2.4-0.1-0.4-0.1-0.7-0.1-1.1 0.2-1.3 1.1-1.9 2.4-1.4 1.5 0.6 2.6 2.4 2.4 4-0.2 1.3-1.1 1.9-2.4 1.4-0.3-0.1-0.6-0.3-0.9-0.6z" fill="#fff500"/>
<path d="m139.8 244.3c-0.8 1.6-3.4 2.3-5 0.9-2.1-1.7-1.6-4.2-0.4-6.1 1.2-1.9 3.3-3.5 5.7-2.3 1.9 0.9 2.5 3.5 1.4 4.9l29.6 18.3c5.4 3.4 9.1-2.5 6.1-6.6l-1.8 1.7-1.2-7.1 7 3.8-2.2 0.8c2.7 4.5 1 10.5-5 11.2 2 5.8-2.6 9.8-7.9 9.4l0.3 2.3-6.5-4.6 7-2.1-0.7 2.3c5.5 0.5 8.7-5 3.3-8.4l-29.5-18.4zm-1.3-2.6c0.3-0.5 0.8-0.9 1.3-0.8 0.2-0.7 0.4-1.4-0.3-2-1.5-1.3-3.2 0.4-3.6 1.2-0.5 0.8-1.3 3 0.6 3.8 0.8 0.4 1.4-0.2 1.9-0.7-0.3-0.4-0.2-1 0.1-1.5z" fill="#fff500"/>
</g>
<path d="m70 220.7c-2 0.2-4 2.7-2.1 6.7-4.8-2.2-4.5 3.4-0.4 8.2-2.5-0.9-3.3 0.6-2.2 2.9-1 1.2-1.2 3.4 0.7 5.9-5.1-1.3-3.9 4.2 1 8.2-2.9-0.4-3.1 1.5-1.2 3.8-0.8 1.4-0.7 3.6 1.6 5.8-5.3-0.4-3.1 4.8 2.4 7.9-0.2 0-0.4 0-0.6 0.1-3.3-2.9-7.4 2.7-1.5 6.4-4.3 0.6-2.9 3.8 1 5.9-2.4 0.6-3.3 5 1.8 7-5 1.7-0.9 5.6 5.3 6.3-0.5 0.2-0.9 0.5-1.2 0.8-4.8-2.2-6.4 5.4 0.8 6.2-4.1 2.8 0 5.3 5.8 4.8 0.2 0.1 0.4 0.2 0.6 0.3-0.9 1-0.7 1.9 0.2 2.4-0.8 2 3 4 7.9 3.9-3.4 2.1-0.3 4.4 5.1 3.7-0.1 1.6 1.5 2.6 6.4 2.1-1.1 2.9 3.7 4.2 9.4 2.4-3.3 3.5 0.6 5.2 6.4 2.7 0.2 2.2 2.8 2.7 10-0.7-0.2-1.2-0.5-2.2-1-3-0-3.4-2.1-5.2-3.2-3.6 0.6-6.7-3-7.7-4.2-5.8 0.4-8.6-4.4-8.7-5.4-5.8-1.1-4.1-3-5.5-4.6-5.4-2.5 0.2-4 4.5 0.8 7.2-0.9 0.2-1.5 0.5-1.9 0.8-0.4-4.6-3.2-5-4.3-3.4 0.4-8.6-4.4-8.7-5.5-5.8-1.2-4.1-3.1-5.5-4.6-5.4-0.6 0-1.2 0.3-1.6 0.8 0.3-1.8 0.2-3.2-0.1-4.3 1.6-3.9-1.1-5.4-3.2-4.2 2.5-6-0.3-8.1-2.5-7.3-0.4-0.5-1.1-0.8-1.8-0.6 6.4-5.7 3.2-9.2 0.3-8 3-5.3 1.1-7.8-1.1-7.7-0.2 0-0.4 0-0.6 0.1 2.2-3.7-0.3-5.7-2.6-4.7 2.8-5.1 1.1-7.5-0.9-7.6-0.4-0.6-1.1-0.8-1.8-0.7 6.4-5.7 3.1-9.3 0.3-8 4.3-7.5-1.4-9.4-3.5-6.2-0.4-0.1-0.8-0.1-1.2 0.1 5.3-6.8 1.5-9.7-1.1-7.9 2-5.4-0-7.6-2-7.4z" stroke="#000" stroke-linejoin="round"/>

<path d="m190.3 327c-0.8-7.1 0.8-15.2 9.1-19 5.4-2.5 9.7-2.8 14.4-5.2 1.8-3.8 4.3-7.6 8.3-11 2.9-2.5 7.5-5.3 11.3-7.7-0.9-3-1.8-6.1-1.7-9.4 0.2-7 3.5-12.1 4.8-17.5l0.4 0.7c-1.4-7.4-2.4-14.8 0.9-22.1 1.3-2.9 2.9-5.9 4-9.3 3.1 5.8 4.7 11.6 5.1 17.3 7 13.5 2.6 24.8-4.5 31.7-0 0.5-0 1-0.1 1.5 1.9-1.9 4.1-3.6 6.8-4.8-0.8 2.9-0.7 5.9-0.8 8.8-0.3 8.2-3.2 12.1-7 14.8 0.4 0.6 0.7 1.4 0.7 2.2 0 2.1-1.7 3.8-3.8 3.8-0.3 0-0.5-0-0.8-0.1 0.1 0.3 0.1 0.6 0.1 1 0 2.3-1.9 4.2-4.2 4.2-2.2 0-4-1.7-4.2-3.8-1.7 1.8-3.7 3.4-5.9 4.8 2.2 0.1 4.5 0.3 6.9 0.8-5.6 5.7-8.8 12.2-16.3 16.3-7.2 3.9-15.6 2.9-23.4 2.8 0.3-0.4 0.5-0.7 0.8-1.1l-0.8 0.3z" stroke="#000" stroke-width="0.8"/>

<g stroke="#f60">
<path d="m240.1 226.4c-1.2 3.4-2.7 6.4-4 9.3-5.4 11.8 0.8 23.7 1.1 36.1 9.1-14.8 11.2-30.1 3-45.4z" fill="url(#m)"/>

<g stroke-width="0.8">
<path d="m187 326.9c-0.8-7.1 2.4-15.2 10.7-19 7-3.2 12.2-2.9 18.8-8-0.8 14.2-15.1 21.1-29.5 26.9z" fill="url(#l)"/>
<path d="m244.7 242.6c-0.6 3.2-2 8.8-3.5 11.7-4.1 7.7-5.2 17.3-4.3 24.1 9.3-6.3 16.8-19.5 7.8-35.8z" fill="url(#k)"/>
<path d="m233.7 292.1c-0.5-6-3.8-11.3-3.6-17.5 0.2-7 3.5-12.1 4.8-17.5 7 11.4 9.1 23-1.2 35z" fill="url(#j)"/>
<path d="m247.4 272c-0.8 2.9-0.7 5.9-0.8 8.8-0.5 14.5-9.5 15.7-16.1 20.2 0.4-5.2 1.8-10.2 4.1-15.1 2.6-5.6 6.3-11 12.8-14z" fill="url(#i)"/>
<path d="m234.2 282.4c1 19.7-12.3 26.7-26.5 31.7 3-7.6 4.8-15.6 12.8-22.4 3.5-3 9.6-6.6 13.7-9.3z" fill="url(#h)"/>
</g>
<path d="m236.5 294c2.1 0 3.8 1.7 3.8 3.8s-1.7 3.8-3.8 3.8c-2.1 0-3.8-1.7-3.8-3.8s1.7-3.8 3.8-3.8z" fill="url(#d)"/>
<path d="m231.6 298.3c2.3 0 4.2 1.9 4.2 4.2 0 2.3-1.9 4.2-4.2 4.2-2.3 0-4.2-1.9-4.2-4.2 0-2.3 1.9-4.2 4.2-4.2z" fill="url(#c)"/>
<path d="m186.3 327.5c9.5-13.8 24.1-22.5 42-18.9-5.6 5.7-8.8 12.2-16.3 16.3-7.2 3.9-17.9 2.7-25.7 2.6z" fill="url(#g)"/>
</g>

<g transform="translate(-255.5)">
<path id="a" d="m329.6 227.1c3.9-10.8-7.9-8.8-4.1-0.7-4.8-2.2-4.5 3.4-0.4 8.3-3.7-1.3-3.6 2.6 0.4 6.3-1.6 1.1-0.9 3.4 4.1 7.9 3.8-3.2 3.4-7.4 1.1-6.6 4.4-5.1 2-8-0.1-7.2 5.3-6.8 1.5-9.7-1-7.9z" fill="url(#e)" stroke="#f60" stroke-linejoin="round"/>
<use transform="matrix(.9393 .3432 -.3432 .9393 111.2-99.9)" width="315" height="400" xlink:href="#b"/>
<use id="b" transform="matrix(.984 -.1784 .1784 .984-37.19 78.75)" width="315" height="400" xlink:href="#a"/>
<use transform="matrix(.9876 .1571 -.1571 .9876 47.92-18.62)" width="315" height="400" xlink:href="#a"/>
<use transform="matrix(.9395 -.3425 .3425 .9395-58.48 160)" width="315" height="400" xlink:href="#a"/>
<use transform="matrix(.9852 .1717 -.1717 .9852 56.24-10.65)" width="315" height="400" xlink:href="#a"/>
<use transform="matrix(.844 -.5363 .5363 .844-70.99 259.1)" width="315" height="400" xlink:href="#a"/>
<use transform="matrix(.9993 .03747 -.03747 .9993 25.07 46.27)" width="315" height="400" xlink:href="#a"/>
<use transform="matrix(.7292 -.6843 .6843 .7292-64.24 346.2)" width="315" height="400" xlink:href="#a"/>
<use transform="matrix(.9811 -.1934 .1934 .9811-18.14 135)" width="315" height="400" xlink:href="#a"/>
<use transform="matrix(.5168 -.8561 .8561 .5168-29.06 463.5)" width="315" height="400" xlink:href="#a"/>
<use transform="matrix(.8115 -.5844 .5844 .8115-44.78 306.9)" width="315" height="400" xlink:href="#a"/>
<use transform="matrix(.815 -.5794 .5794 .815-29.38 311.1)" width="315" height="400" xlink:href="#a"/>
<use transform="matrix(.6369 -.771 .771 .6369-40.51 414.5)" width="315" height="400" xlink:href="#a"/>
<path d="m363.5 312.9c-8.3-9.6-13 4.5-3 4.2-4.8 4.3 0.8 6.7 7.8 4.5-3.3 3.5 0.6 5.2 6.4 2.7 0.2 2.2 2.8 2.7 10-0.7-1-5.8-5.4-7.4-5.8-4.5-2.6-7.4-6.7-6.1-7-3.5-3.6-9.2-8.6-6.4-8.3-2.7z" fill="url(#f)" stroke="#f60" stroke-linejoin="round"/>
</g>

<g transform="translate(-314.8)">

<g stroke="#000">
<path d="m451.1 307.7c3-3.6 6.8-3.2 9.6-1.5 1.3 0.8 1.7 2.5 0.9 4.2l-2.7 5.8-6.6-2.8zm-0.9 25.8c3 3.6 6.8 3.2 9.6 1.5 1.3-0.8 1.7-2.5 0.9-4.2l-2.7-5.8-6.6 2.8zm43.4-25.8c-3-3.6-6.8-3.2-9.6-1.5-1.3 0.8-1.7 2.5-0.9 4.2l2.7 5.8 6.6-2.8zm0.9 25.8c-3 3.6-6.8 3.2-9.6 1.5-1.3-0.8-1.7-2.5-0.9-4.2l2.7-5.8 6.6 2.8z" fill="#ffd500"/>
<path d="m452.9 311.6 1.8-2.4c1 1.4 6 2.8 7.3 0m-10 20.4 1.8 2.4c1-1.4 6-2.8 7.3-0m30.8-20.4-1.8-2.4c-1 1.4-6 2.8-7.3 0m10 20.4-1.8 2.4c-1-1.4-6-2.8-7.3-0" fill="none"/>
<path d="m472.3 333.8c3.2-3.7 8.3-5.9 13.9-5 2.7 0.4 7 1.7 6.9 4.8-0 0.6-0.2 1.2-0.6 1.6l-0 0 7.6-6.2c1.8-1.4 2.7-4 0.4-5.7l-2.6-1.9 2.5-2.3c1.6-1.5 1.8-3.6 0-5.2l-7.4-6.8c-2.4 6.2-12.2 6.2-20.6 6.2s-18.2 0.1-20.6-6.2l-7.4 6.8c-1.8 1.7-1.6 3.7 0 5.2l2.5 2.3-2.6 1.9c-2.3 1.8-1.4 4.3 0.4 5.7l7.6 6.2-0-0c-0.3-0.4-0.5-0.9-0.6-1.6-0.2-3.1 4.1-4.4 6.9-4.8 5.6-0.9 10.7 1.3 13.9 5z" fill="#fff500"/>
</g>

<path d="m459.9 316.9v7.1h1.1v1.4h-5v-1.4h1.1v-3.8l-1.4 0.1v-1.4c1.3-0.3 2-0.9 2.3-2h1.9z"/>
<path d="m462.8 317.1h7.4v1.7c-2 1.4-3.2 4.3-3.2 6.7h-2.9c0.4-2.6 1.2-4.6 3.6-6.7h-3.6l-0.1 0.9h-1.4l0.3-2.6z"/>
<path d="m471.7 317.1h7.4v1.7c-2 1.4-3.2 4.3-3.2 6.7h-2.9c0.4-2.6 1.2-4.6 3.6-6.7h-3.6l-0.1 0.9h-1.4l0.3-2.6z"/>
<path d="m484.8 320.5c0.3 0 0.6-0.1 0.9-0.2 0.2-0.2 0.3-0.4 0.3-0.7 0-0.3-0.1-0.5-0.3-0.7-0.2-0.2-0.5-0.2-0.8-0.2-0.4 0-0.7 0.1-0.9 0.2-0.2 0.2-0.3 0.4-0.3 0.7 0 0.6 0.4 0.9 1.2 0.9zm-0.1 3.4c0.5 0 0.8-0.1 1.1-0.3 0.2-0.2 0.4-0.4 0.4-0.7 0-0.3-0.1-0.6-0.4-0.8-0.2-0.2-0.5-0.3-0.9-0.3-0.9 0-1.3 0.4-1.3 1.1 0 0.3 0.1 0.5 0.3 0.7 0.2 0.2 0.5 0.3 0.8 0.3zm-2.5-2.8c-0.4-0.2-0.7-0.4-0.9-0.6-0.2-0.3-0.3-0.7-0.3-1.1 0-0.8 0.4-1.4 1.2-1.8 0.7-0.4 1.6-0.6 2.7-0.6 1.1 0 2 0.2 2.7 0.7 0.7 0.4 1 1 1 1.7 0 0.9-0.4 1.4-1.3 1.7 1.1 0.4 1.6 1 1.6 2 0 0.8-0.4 1.5-1.1 2-0.8 0.5-1.8 0.7-3 0.7-1.2 0-2.2-0.2-2.9-0.6-0.8-0.5-1.2-1.1-1.2-2 0-0.5 0.1-0.9 0.4-1.2 0.2-0.3 0.6-0.5 1.1-0.7z"/>
</g>

<g stroke="#000080" stroke-width="2">
<path d="m25.8 185.9c1.1-4.5-0.8-9-3.1-12.8-0.7 2.4-2.9 4.1-5.6 4.1-3.2 0-5.8-2.6-5.8-5.8 0-3.5 3.1-6.2 6.6-5.8-1.5-2.6-2.6-5.1-2.6-7.7 0-6.4 5.9-11.2 12.1-10.1-5.2 5.2-1.6 10.9 1.4 16 0.9 1.6 1.8 4.2 2.4 5.9-0.2-4.2 0.4-9.2 3-12 3.3-3.5 8.6-4.3 12.5-1.2-6.9 1.9-6.9 7.9-7.1 13.5-0.3 7-1.5 14.3-4.6 20.6-1.8 3.6-4.5 6.8-7.7 9.2-6.5 4.8-17.1 6.4-22.7-0.5-5.7-6.9-1.1-19.1 8.4-18.5 4 0.2 7.2 3.2 7.9 7.1 0.7 4.2-2.1 7.7-5.7 8.1 4.9-0.7 9.4-5.1 10.6-10.1z" fill="#fff500" />
<path d="m12.5 189.8c-0 0.1-0 0.3-0 0.4 0.1 0.6 0.6 0.8 1.1 0.7 1-0.1 1.5-0.9 1.4-1.9-0.1-1.8-1.6-3.1-3.4-3-1.9 0.1-4 1.6-3.8 4.9 0.1 1.7 1.1 3.2 2.4 4.1 1.5 1 3.2 1.3 4.9 1.1 0.7-0.1 1.3-0.3 2-0.5" fill="none"/>
</g>

<g transform="matrix(-1 0 0 1 315 0)" stroke="#000080" stroke-width="2">
<path d="m25.8 185.9c1.1-4.5-0.8-9-3.1-12.8-0.7 2.4-2.9 4.1-5.6 4.1-3.2 0-5.8-2.6-5.8-5.8 0-3.5 3.1-6.2 6.6-5.8-1.5-2.6-2.6-5.1-2.6-7.7 0-6.4 5.9-11.2 12.1-10.1-5.2 5.2-1.6 10.9 1.4 16 0.9 1.6 1.8 4.2 2.4 5.9-0.2-4.2 0.4-9.2 3-12 3.3-3.5 8.6-4.3 12.5-1.2-6.9 1.9-6.9 7.9-7.1 13.5-0.3 7-1.5 14.3-4.6 20.6-1.8 3.6-4.5 6.8-7.7 9.2-6.5 4.8-17.1 6.4-22.7-0.5-5.7-6.9-1.1-19.1 8.4-18.5 4 0.2 7.2 3.2 7.9 7.1 0.7 4.2-2.1 7.7-5.7 8.1 4.9-0.7 9.4-5.1 10.6-10.1z" fill="#fff500" />
<path d="m12.5 189.8c-0 0.1-0 0.3-0 0.4 0.1 0.6 0.6 0.8 1.1 0.7 1-0.1 1.5-0.9 1.4-1.9-0.1-1.8-1.6-3.1-3.4-3-1.9 0.1-4 1.6-3.8 4.9 0.1 1.7 1.1 3.2 2.4 4.1 1.5 1 3.2 1.3 4.9 1.1 0.7-0.1 1.3-0.3 2-0.5" fill="none"/>
</g>
</svg>
