<?xml version="1.0" encoding="utf-8"?>
<!-- Generator: Adobe Illustrator 22.0.1, SVG Export Plug-In . SVG Version: 6.00 Build 0)  -->
<svg version="1.1" id="레이어_1" xmlns="http://www.w3.org/2000/svg" xmlns:xlink="http://www.w3.org/1999/xlink" x="0px"
	 y="0px" viewBox="0 0 320 500" style="enable-background:new 0 0 320 500;" xml:space="preserve">
<style type="text/css">
	.st0{fill:#FFFFFF;}
	.st1{fill:#CC3632;}
	.st2{fill:#176D24;}
	.st3{fill:#EFE032;}
	.st4{fill:#1370BD;}
	.st5{fill:#3A3A36;}
	.st6{fill:#E5E5E5;}
	.st7{fill:#543412;}
	.st8{fill:#7C511D;}
	.st9{fill:none;stroke:#3A3A36;stroke-miterlimit:10;}
	.st10{fill:#9B6926;}
	.st11{fill:#BA803C;}
	.st12{fill:#AEACAA;}
	.st13{fill:#777471;}
	.st14{fill:#D1C23B;}
	.st15{fill:#E8D33A;}
	.st16{fill:#F7E261;}
	.st17{fill:#2B2928;}
	.st18{fill:#151413;}
	.st19{fill:#69543B;}
	.st20{fill:#594733;}
	.st21{fill:#7A632E;}
	.st22{fill:#5B4721;}
	.st23{fill:#8E723A;}
	.st24{fill:#392B19;}
	.st25{fill:#23180D;}
	.st26{fill:#4C4A4E;}
	.st27{fill:#313033;}
	.st28{fill:#646266;}
	.st29{fill:#1E82C6;}
	.st30{fill:none;stroke:#000000;stroke-width:2;stroke-miterlimit:10;}
</style>
<g>
	<path class="st0" d="M314,4v332c0,0-4,68-57,94c-49.9,24.5-83,46.3-95,61.3c-0.8,0.9-1.4,1.8-2,2.7c-1.1-1.6-2.4-3.3-4-5
		c-4.7-5.2-11.8-11.2-21-17.8c-6.3-4.5-13.7-9.3-22-14.3c-6.4-3.8-13.4-7.8-21-12c-6.9-3.7-14.2-7.6-22-11.5c-2.3-1.2-4.6-2.3-7-3.5
		c-5.1-2.5-9.8-5.4-14-8.6c-9.1-6.8-16.3-15.1-22-23.6C7.9,369,6,336,6,336V4H314z"/>
	<path class="st1" d="M314,179v157c0,0-4,68-57,94c-49.9,24.5-83,46.3-95,61.3V179H314z"/>
	<rect x="148" y="25" class="st2" width="166" height="169"/>
	<polygon class="st3" points="274.4,168.5 267.1,175.4 272.8,183.7 264,179 257.9,187 259.6,177.1 250.2,173.7 260.1,172.4 
		260.3,162.3 264.7,171.4 	"/>
	<polygon class="st3" points="244.4,172.5 237.1,179.4 242.8,187.7 234,183 227.9,191 229.6,181.1 220.2,177.7 230.1,176.4 
		230.3,166.3 234.7,175.4 	"/>
	<rect x="162" y="29" class="st1" width="50" height="154"/>
	<rect x="6" y="25" class="st4" width="127" height="171"/>
	<path class="st2" d="M27,196v201.8C7.9,369,6,336,6,336V196H27z"/>
	<path class="st2" d="M70,196v237.5c-2.3-1.2-4.6-2.3-7-3.5c-5.1-2.5-9.8-5.4-14-8.6V196H70z"/>
	<path class="st2" d="M113,196v260.9c-6.4-3.8-13.4-7.8-21-12V196H113z"/>
	<path class="st2" d="M156,196v293c-4.7-5.2-11.8-11.2-21-17.8V196H156z"/>
	<polygon class="st3" points="77.4,56.5 70.1,63.4 75.8,71.7 67,67 60.9,75 62.6,65.1 53.2,61.7 63.1,60.4 63.3,50.3 67.7,59.4 	"/>
	<polygon class="st3" points="276.4,81.5 269.1,88.4 274.8,96.7 266,92 259.9,100 261.6,90.1 252.2,86.7 262.1,85.4 262.3,75.3 
		266.7,84.4 	"/>
	<polygon class="st3" points="241.4,104.5 234.1,111.4 239.8,119.7 231,115 224.9,123 226.6,113.1 217.2,109.7 227.1,108.4 
		227.3,98.3 231.7,107.4 	"/>
	<polygon class="st3" points="260.4,131.5 253.1,138.4 258.8,146.7 250,142 243.9,150 245.6,140.1 236.2,136.7 246.1,135.4 
		246.3,125.3 250.7,134.4 	"/>
	<polygon class="st3" points="238.4,145.5 231.1,152.4 236.8,160.7 228,156 221.9,164 223.6,154.1 214.2,150.7 224.1,149.4 
		224.3,139.3 228.7,148.4 	"/>
	<polygon class="st3" points="37.4,85.5 30.1,92.4 35.8,100.7 27,96 20.9,104 22.6,94.1 13.2,90.7 23.1,89.4 23.3,79.3 27.7,88.4 	
		"/>
	<polygon class="st3" points="82.4,109.5 75.1,116.4 80.8,124.7 72,120 65.9,128 67.6,118.1 58.2,114.7 68.1,113.4 68.3,103.3 
		72.7,112.4 	"/>
	<polygon class="st3" points="45.4,145.5 38.1,152.4 43.8,160.7 35,156 28.9,164 30.6,154.1 21.2,150.7 31.1,149.4 31.3,139.3 
		35.7,148.4 	"/>
	<polygon class="st3" points="84.4,160.5 77.1,167.4 82.8,175.7 74,171 67.9,179 69.6,169.1 60.2,165.7 70.1,164.4 70.3,154.3 
		74.7,163.4 	"/>
	<rect x="6" y="4" class="st5" width="308" height="33"/>
	<g>
		<path class="st6" d="M161,167L161,167l-0.5,0l-0.5,0v0l-63.8,0.4V213c0,0,1.8,33.6,63.8,56.6h1c62-23,63.8-56.6,63.8-56.6v-45.6
			L161,167z"/>
		<g>
			<path class="st7" d="M162,47c0-2-1-3-1-3s-1,1-1,3s-1,5-1,5h2h2C163,52,162,49,162,47z"/>
			<path class="st8" d="M160,51c0,0,1-9,2,0H160z"/>
			<path class="st9" d="M162,47c0-2-1-3-1-3s-1,1-1,3s-1,5-1,5h2h2C163,52,162,49,162,47z"/>
			<path class="st8" d="M208,108h-94c4-9,20-12,33-21s11-33,11-33h6c0,0-2,24,11,33S204,99,208,108z"/>
			<path class="st10" d="M188.6,108h-69c0.9-2,3.5-5.1,10.4-7c11-3,26-14,28-21c1.9-6.6,2-14.8,2-26h0.9c-0.2,6.5-0.4,27,2.1,32
				C165.5,90.9,180.1,100,188.6,108z"/>
			<path class="st7" d="M208,108h-6.8c-3.8-5-10.3-9.6-13.2-11c-4-2-22-9-24-22c-1.6-10.5-1.3-18.3-1.1-21h1.1c0,0-2,24,11,33
				S204,99,208,108z"/>
			<path class="st7" d="M153,83c-7,8-22,14-26,16c-3.4,1.7-9.1,3.4-11.9,9H114c4-9,20-12,33-21s11-33,11-33h1
				C159.1,58.4,159.1,76,153,83z"/>
			<path class="st11" d="M180.5,108h-53.9c2.7-1.8,7-4.4,11.3-5c7-1,15-9,17-12s3-7,4-5s7,10,11,12
				C172.5,99.2,177.3,104.3,180.5,108z"/>
			<path class="st9" d="M208,108h-94c4-9,20-12,33-21s11-33,11-33h6c0,0-2,24,11,33S204,99,208,108z"/>
			<circle class="st7" cx="161" cy="54" r="4"/>
			<circle class="st8" cx="161" cy="54" r="3"/>
			<circle class="st10" cx="161" cy="54" r="2"/>
			<circle class="st9" cx="161" cy="54" r="4"/>
		</g>
		<g>
			<path class="st12" d="M223,139c-1.3,3.2,0.3,14,0.8,22c0.3,4.7,0.3,8.4-0.8,9.2c-3,2.1-7-1.1-11-1.1s-14,3-21,2s-43,1-55,1
				c-5.6,0-8.8,0-11-0.2c-2.6-0.2-3.8-0.7-6-1.8c-0.5-0.2-1.2-0.3-2.1-0.3c-6.3,0.1-21,5.6-21.9,0.3c-1-6,0-36,0-42s5-7,6-14
				c0.1-0.9,0.4-1.7,0.8-2.4c1.4-2.3,4.1-4,6.6-5c2.9-1.2,5.5-1.6,5.5-1.6c1.1-0.7,2.7-1.1,4.7-1.3c4.9-0.6,11.8-0.2,16.9,0.1h0
				c2.3,0.1,4.2,0.2,5.4,0.2c5,0,10-3,18-4c4.8-0.6,15.6,1.3,24.8,2.7c2.7,0.4,5.3,0.8,7.6,1.1c2.9,0.3,5.3,0.5,6.6,0.2
				c6-1,12,1,18,3s3,8,6,12c2,2.7,2.7,8.5,2.3,13.6C224.1,135.1,223.7,137.4,223,139z"/>
			<path class="st13" d="M122,159c-5,3-12,5-8,8c1.2,0.9,2.2,1.8,2.9,2.7c-6.3,0.1-21,5.6-21.9,0.3c-1-6,0-36,0-42s5-7,6-14
				c0.1-0.9,0.4-1.7,0.8-2.4c0.7,1.8,1.1,4,0.2,5.4c-2,3-9,9-2,7s4-8,9-11c3.8-2.3-1-4-0.5-6.4c2.9-1.2,5.5-1.6,5.5-1.6
				c1.1-0.7,2.7-1.1,4.7-1.3c-1.5,1.6-2.7,3.2-2.7,4.3c0,3-3,7-8,12s-9,8-7,9s5-7,10-6s7-8,8-5s1,12-4,13s-15-1-16,4s-4,9-2,10
				s4-6,9-1s-3,0-5,6s-5,5,3,7s7-4,13-4S127,156,122,159z"/>
			<path class="st13" d="M183.8,102.7c-2.4,3-6.9,5.3-9.8,5.3c-5,0,0,4-5,9s-7,10-9,10s-4,5-5,3s-3,5-7,6s-6,4-8,2s-5,3-8,3
				s-7,2-7,0s6-3,10-4s12-2,12-6s4-5,8-7s9-14,7-15s-1,6-5,9s-5,5-3,2s2-6-3-4s-2,5-5,6s-5,5-13,7s-5,5-10,5s-9,4-10,2s8-2,9-5
				s9-6,16-9s5-3,4-5s0-2,4-6s-1-6-8-4s-3,7-6,7s-5,4-7,2s0-4,6-8c1.9-1.3,3.5-2.8,4.6-4.2h0c2.3,0.1,4.2,0.2,5.4,0.2c5,0,10-3,18-4
				C163.8,99.4,174.6,101.3,183.8,102.7z"/>
			<path class="st13" d="M224.3,132.6c-0.4-0.2-0.9-0.4-1.3-0.6c-4-2,3,6-2,6s0,10-7,11s-7,0-3-4s-9-4,0-7s-1-2,3-7s0-3-3-3
				s-1-5,4-8s0-5-3-7s-2,7-8,9s0,4-3,7s13,3,8,4s-2,5-7,6s-5,7-11,10s-6,6-12,7s-1-5,3-8s1-5-2-5s3-6,7-8s3-4,1-5s5-2,6-5s4-5,8-6
				s3-8,2-10s-5-3-11,0s5,0,3,4s-3,3-6,3s-2,0-6,3s2,6-2,9s7,1,2,4s-3,4-8,4s-2,7-10,10s-2,6-8,6s-7,4-10,4s2-5,3-8s6-3,7-6s4-4,7-6
				s7-7,9-11s4-6,3-7s-1-4,8-7c4.6-1.5,6-4.6,6.4-7.2c2.9,0.3,5.3,0.5,6.6,0.2c6-1,12,1,18,3s3,8,6,12
				C224,121.7,224.7,127.5,224.3,132.6z"/>
			<path class="st13" d="M223,170.1c-3,2.1-7-1.1-11-1.1s-14,3-21,2s-43,1-55,1c-5.6,0-8.8,0-11-0.2c0.2-3,1-7.3,4-9.8
				c5-4,12-2,16-1s9-1,13-3s10-3,8,1s20,2,23,0s5,6,12,5s10,1,10-2c0-3,4.9-2,12.8-1C224.1,165.6,224.1,169.3,223,170.1z"/>
			<path class="st9" d="M223,139c-1.3,3.2,0.3,14,0.8,22c0.3,4.7,0.3,8.4-0.8,9.2c-3,2.1-7-1.1-11-1.1s-14,3-21,2s-43,1-55,1
				c-5.6,0-8.8,0-11-0.2c-2.6-0.2-3.8-0.7-6-1.8c-0.5-0.2-1.2-0.3-2.1-0.3c-6.3,0.1-21,5.6-21.9,0.3c-1-6,0-36,0-42s5-7,6-14
				c0.1-0.9,0.4-1.7,0.8-2.4c1.4-2.3,4.1-4,6.6-5c2.9-1.2,5.5-1.6,5.5-1.6c1.1-0.7,2.7-1.1,4.7-1.3c4.9-0.6,11.8-0.2,16.9,0.1h0
				c2.3,0.1,4.2,0.2,5.4,0.2c5,0,10-3,18-4c4.8-0.6,15.6,1.3,24.8,2.7c2.7,0.4,5.3,0.8,7.6,1.1c2.9,0.3,5.3,0.5,6.6,0.2
				c6-1,12,1,18,3s3,8,6,12c2,2.7,2.7,8.5,2.3,13.6C224.1,135.1,223.7,137.4,223,139z"/>
		</g>
		<path class="st14" d="M221.2,172.4c28.2,19.8,46.8,53,46.8,90.6c0,60.8-48.4,110-108,110S52,323.8,52,263
			c0-37.6,18.5-70.8,46.8-90.6C55,194.3,25,239,25,290.5C25,363.7,85.4,423,160,423s135-59.3,135-132.5
			C295,239,265,194.3,221.2,172.4z"/>
		<path class="st15" d="M160,419c-72.2,0-131-57.6-131-128.5c0-34.3,13.7-66.3,37.3-89.9C54.5,218.9,48,240.5,48,263
			c0,62.9,50.2,114,112,114s112-51.1,112-114c0-22.5-6.5-44.1-18.3-62.4c23.6,23.6,37.3,55.6,37.3,89.9C291,361.4,232.2,419,160,419
			z"/>
		<path class="st16" d="M160,415c-70,0-127-55.9-127-124.5c0-21.2,5.3-41.6,15.4-59.6C45.5,241.3,44,252.1,44,263
			c0,65.1,52,118,116,118c64,0,116-52.9,116-118c0-10.9-1.5-21.7-4.4-32.1c10,18.1,15.4,38.4,15.4,59.6C287,359.1,230,415,160,415z"
			/>
		<path class="st9" d="M221.2,172.4c28.2,19.8,46.8,53,46.8,90.6c0,60.8-48.4,110-108,110S52,323.8,52,263
			c0-37.6,18.5-70.8,46.8-90.6C55,194.3,25,239,25,290.5C25,363.7,85.4,423,160,423s135-59.3,135-132.5
			C295,239,265,194.3,221.2,172.4z"/>
		<g>
			<path class="st17" d="M245.2,385.1c0,0,0,2.3-1.3,4.4c-2.3,3.8-8.7,6.7-26.7-5.8c-20.4-14.2-55.7-48.5-116.9-124.3
				c-1.1-1.3-2.2-2.7-3.3-4.1c-2.7-3.4-5.5-6.9-8.3-10.4c0,0,7.6-8.2,13.6-10.2c0,0,2.8,3.8,7.6,10.2
				c19.4,25.6,72.2,92.9,115.1,126.6C232.1,377,238.9,381.7,245.2,385.1z"/>
			<path class="st18" d="M245.2,385.1c0,0,0,2.3-1.3,4.4c-61.3-34.3-128.8-135.9-132.6-137.8c-3.1-1.6-8.7,4.9-11,7.7
				c-1.1-1.3-2.2-2.7-3.3-4.1c-2.7-3.4-5.5-6.9-8.3-10.4c0,0,7.6-8.2,13.6-10.2c0,0,2.8,3.8,7.6,10.2
				C132.6,274.7,200.4,361,245.2,385.1z"/>
			<path class="st19" d="M71.8,198.9c2,2.7,2.8,5.7,2.3,8l25.3,33.8l-4.8,3.6l-25.3-33.8c-2.4-0.2-5.1-1.8-7.1-4.4
				c-3-4-3.3-8.8-0.6-10.8c0.5-0.4,1.1-0.6,1.7-0.7C65.8,194,69.3,195.7,71.8,198.9z"/>
			<path class="st20" d="M71.8,198.9c2,2.7,2.8,5.7,2.3,8l25.3,33.8l-1.6,1.2L72,207.5c-1.5-8.1-6.3-11.6-8.7-12.9
				C65.8,194,69.3,195.7,71.8,198.9z"/>
			<path class="st9" d="M71.8,198.9c2,2.7,2.8,5.7,2.3,8l25.3,33.8l-4.8,3.6l-25.3-33.8c-2.4-0.2-5.1-1.8-7.1-4.4
				c-3-4-3.3-8.8-0.6-10.8c0.5-0.4,1.1-0.6,1.7-0.7C65.8,194,69.3,195.7,71.8,198.9z"/>
			<path class="st21" d="M110,244.9c-1,0.7-2,1.4-3,2.2c-0.6,0.5-1.2,0.9-1.8,1.4c-1.6,1.3-3.2,2.6-4.7,3.8c-0.6,0.5-1.2,1-1.7,1.5
				c-0.6,0.5-1.1,1-1.6,1.5c-2.7-3.4-5.5-6.9-8.3-10.4c0,0,7.6-8.2,13.6-10.2C102.4,234.7,105.1,238.5,110,244.9z"/>
			<path class="st22" d="M110,244.9c-1,0.7-2,1.4-3,2.2c-2.4-3.5-5.7-8.3-6.6-8.4c-1.4-0.2-6.2,3.4-8,6c-1.4,2,3.8,6.9,6.4,9.2
				c-0.6,0.5-1.1,1-1.6,1.5c-2.7-3.4-5.5-6.9-8.3-10.4c0,0,7.6-8.2,13.6-10.2C102.4,234.7,105.1,238.5,110,244.9z"/>
			<path class="st23" d="M105.2,248.5c-1.6,1.3-3.2,2.6-4.7,3.8c-1.6-1.8-5.5-6.2-5.3-7.3c0.2-1.4,2.6-3.2,4-3
				C100,242.2,103,245.8,105.2,248.5z"/>
			<path class="st24" d="M245.2,385.1c0,0,0,2.3-1.2,4.3c0,0,0,0.1-0.1,0.1c-2.3,3.8-8.7,6.7-26.7-5.8c1-2.6,2.5-5.5,4.9-8.8
				c0.8-1.1,1.8-2.3,2.8-3.4C232.1,377,238.9,381.7,245.2,385.1z"/>
			<path class="st25" d="M245.2,385.1c0,0,0,2.3-1.2,4.3c-9.5-5.2-18.1-11.6-21.8-14.5c0.8-1.1,1.8-2.3,2.8-3.4
				C232.1,377,238.9,381.7,245.2,385.1z"/>
			<path class="st9" d="M245.2,385.1c0,0,0,2.3-1.3,4.4c-4.9,8-28.5,12.5-143.6-130.1c-1.1-1.3-2.2-2.7-3.3-4.1
				c-2.7-3.4-5.5-6.9-8.3-10.4c0,0,7.6-8.2,13.6-10.2c0,0,2.8,3.8,7.6,10.2C132.6,274.7,200.4,361,245.2,385.1z"/>
			<path class="st20" d="M248.9,384.2c1.3,1.8,1,4.3-0.8,5.6c-1.4,1.1-3.4,1-4.7,0c-0.3-0.2-0.6-0.5-0.9-0.8c-1.2-1.6-1-3.7,0.2-5.1
				c0.2-0.2,0.3-0.4,0.5-0.5C245.1,382,247.6,382.4,248.9,384.2z"/>
			<path class="st19" d="M245.2,385.1c1,1.3,0.7,3.2-0.6,4.2c-0.4,0.3-0.8,0.5-1.2,0.5c-0.3-0.2-0.6-0.5-0.9-0.8
				c-1.2-1.6-1-3.7,0.2-5.1C243.7,383.8,244.6,384.3,245.2,385.1z"/>
			<path class="st9" d="M248.9,384.2c1.3,1.8,1,4.3-0.8,5.6c-1.4,1.1-3.4,1-4.7,0c-0.3-0.2-0.6-0.5-0.9-0.8c-1.2-1.6-1-3.7,0.2-5.1
				c0.2-0.2,0.3-0.4,0.5-0.5C245.1,382,247.6,382.4,248.9,384.2z"/>
			<circle class="st20" cx="66.9" cy="203.2" r="3"/>
			<circle class="st21" cx="66.3" cy="202.4" r="2.5"/>
			<circle class="st23" cx="66.3" cy="202.4" r="1.5"/>
			<circle class="st9" cx="66.3" cy="202.4" r="2.5"/>
			<path class="st9" d="M92.4,249.7c0,0,6.6-6.2,13.6-10.2"/>
		</g>
		<g>
			<path class="st26" d="M261.2,213.9l-10,10.7c-1.6,1.7-4,2.2-6.1,1.4L224.7,248l-5.9-5.5l20.4-21.9c-0.9-2-0.6-4.5,1-6.2l10-10.7
				c1.8-1.9,4.6-2.3,6.8-1.2c0.5,0.2,0.9,0.5,1.3,0.9l2.7,2.5C263.2,208.1,263.4,211.7,261.2,213.9z"/>
			<path class="st27" d="M261.2,213.9l-10,10.7c-1.6,1.7-4,2.2-6.1,1.4L224.7,248l-1.7-1.5c0.6-0.8,1.4-1.7,2.2-2.7
				c19.7-22.6,21.2-21.3,21.2-21.3c9.2-5.5,12.9-13.2,14.2-16.8l0.3,0.2C263.2,208.1,263.4,211.7,261.2,213.9z"/>
			<path class="st26" d="M220.4,246l-1.5-1.4c0,0,0.4-0.4,1.1-1.1l1.4,1.3C220.7,245.6,220.4,246,220.4,246z"/>
			<path class="st28" d="M243.6,221.2c-1.8,0.7-18,19-22.2,23.7l-1.4-1.3c4.4-4.4,20.8-21.3,20.7-23.8c-0.1-2.8,2-3.6,8.1-11.6
				c3.1-4,6-5.4,8.2-5.7c0.5,0.2,0.9,0.5,1.3,0.9l0.6,0.6C253.3,207,245.5,220.4,243.6,221.2z"/>
			<path class="st9" d="M261.2,213.9l-10,10.7c-1.6,1.7-4,2.2-6.1,1.4L224.7,248l-5.9-5.5l20.4-21.9c-0.9-2-0.6-4.5,1-6.2l10-10.7
				c1.8-1.9,4.6-2.3,6.8-1.2c0.5,0.2,0.9,0.5,1.3,0.9l2.7,2.5C263.2,208.1,263.4,211.7,261.2,213.9z"/>
			<path class="st26" d="M228.4,252.1C222.9,258,92.9,388.3,92.9,388.3l-4.6-4.3c0,0,111-127.7,125-143.4c0.6-0.7,1-1.1,1.3-1.4
				c3.4-3.7,11,2.1,11,2.1S231.8,248.5,228.4,252.1z"/>
			<path class="st27" d="M228.4,252.1C222.9,258,92.9,388.3,92.9,388.3l-1.7-1.6c26.3-26.4,125.3-126.1,128.2-129.3
				c3.4-3.7,8.9-8.1,3.8-12.9c-4.8-4.5-9.4-4-9.9-4c0.6-0.7,1-1.1,1.3-1.4c3.4-3.7,11,2.1,11,2.1S231.8,248.5,228.4,252.1z"/>
			<path class="st28" d="M91.6,387.1l-2.3-2.2C118,353.1,203,258.5,209.2,250.7c7.4-9.5,9-5.3,9-5.3c2.2,3.5-5.3,10.1-5.3,10.1
				L91.6,387.1z"/>
			<path class="st9" d="M228.4,252.1C222.9,258,92.9,388.3,92.9,388.3l-4.6-4.3c0,0,111-127.7,125-143.4c0.6-0.7,1-1.1,1.3-1.4
				c3.4-3.7,11,2.1,11,2.1S231.8,248.5,228.4,252.1z"/>
			<ellipse transform="matrix(0.6816 -0.7317 0.7317 0.6816 -255.5849 188.526)" class="st26" cx="88.9" cy="388" rx="8" ry="5"/>
			
				<ellipse transform="matrix(0.6816 -0.7317 0.7317 0.6816 -255.5849 188.526)" class="st28" cx="88.9" cy="388" rx="5.6" ry="3.5"/>
			<ellipse transform="matrix(0.6816 -0.7317 0.7317 0.6816 -255.5849 188.526)" class="st9" cx="88.9" cy="388" rx="8" ry="5"/>
			<circle class="st27" cx="251.1" cy="214.5" r="3"/>
			<circle class="st26" cx="251.1" cy="213.8" r="2.5"/>
			<circle class="st28" cx="251.1" cy="213.1" r="1"/>
			<circle class="st9" cx="251.1" cy="213.8" r="2.5"/>
			<circle class="st27" cx="216.3" cy="251.8" r="3"/>
			<circle class="st26" cx="216.3" cy="251.1" r="2.5"/>
			<circle class="st28" cx="216.3" cy="250.4" r="1"/>
			<circle class="st9" cx="216.3" cy="251.1" r="2.5"/>
		</g>
		<circle class="st4" cx="160.5" cy="280.5" r="48"/>
		<ellipse class="st29" cx="160" cy="280" rx="37" ry="37"/>
		<g>
			<path class="st0" d="M112,295c0,0,12.1-15,14.2-17c2-2,4-6,8.1-4s7.1,7,9.1,6s2-4,5.1-3s4,4,7.1,4s2,3,6.1,2s9.1-12,13.1-10
				c4,2,5.1,5,7.1,4s1-3,4-1s7.1,7,8.1,7s4,0,5.1,2s4-1,6.1,4c2,5-2,17-2,17l-84.9-2L112,295z"/>
			<path d="M127.2,281c0,0-1,0-1,2s-6.1,6-6.1,8s0,0,3-1s5.1-3,5.1-4s0-4,1-4s2-2,2-3s2,1,3,1s2-1,4,2s4,4,5.1,5s-1,3,1,5s3,1,3,0
				s-1-4-1-5s-4-2-4-3s-4-5-5.1-5s-4-2-5.1-2S127.2,278,127.2,281z"/>
			<path d="M147.4,280c0,0-1,2,1,3s-1,5,2,5c3,0,5.1-1,6.1,0s3,4,4,2s-3-3-3-4s-2,1-2-1s-5.1-1-5.1-2S149.4,278,147.4,280z"/>
			<path d="M172.6,277c0,0-2,1-3,3s-5.1,3-6.1,5s1,2,1,3s-1,4,0,4s2-4,2-3s-1,4,1,3s3-5,3-4s0,2,1,0s-3-4-1-6S174.7,276,172.6,277z"
				/>
			<path d="M183.8,278c0,0-2,2-1,3s2,3,3,4s2,3,3,3s-1-3-1-5s-4-2-3-3S184.8,277,183.8,278z"/>
			<path d="M176.7,284c0,0,0,2,1,3c1,1,4,1,5.1,2s2,2,3,1s-3-3-2-3s-5.1-1-4-2S176.7,282,176.7,284z"/>
			<path d="M204,292c0,0-2-2-2-3s-4,0-4-1s-3-3-3-1s0,3,2,3s5.1,1,6.1,3S204,292,204,292z"/>
			<path d="M133.2,282c0,0-1,2-1,3s-4,3-3,4s-1,6,1,5s1-4,3-5s-2,0,0-3S134.2,280,133.2,282z"/>
			<path class="st9" d="M112,295c0,0,12.1-15,14.2-17c2-2,4-6,8.1-4s7.1,7,9.1,6s2-4,5.1-3s4,4,7.1,4s2,3,6.1,2s9.1-12,13.1-10
				c4,2,5.1,5,7.1,4s1-3,4-1s7.1,7,8.1,7s4,0,5.1,2s4-1,6.1,4c2,5-2,17-2,17l-84.9-2L112,295z"/>
		</g>
		<path class="st15" d="M119.5,301.7c0,0,35.5-11.7,82.5,0.3l-17.5,16.9l-16.1,6.3L138,322L119.5,301.7z"/>
		<path class="st14" d="M210,300.5c47.9-0.5,96-20.5,96-20.5s-48.2-20-96-20.5c-1.4-3.5-3.2-6.8-5.3-9.8
			c17.3-39.6,21.5-82.3,21.5-82.3s-31.1,25.4-54.2,60c-3.9-0.9-7.9-1.4-12-1.4s-8.2,0.5-12,1.4c-23.2-34.6-54.2-60-54.2-60
			s4.2,42.7,21.5,82.3c-2.1,3.1-3.8,6.4-5.3,9.8C62.2,260,14,280,14,280s48.2,20,96,20.5c0.1,0.1,0.1,0.3,0.2,0.4
			c-33.5,34.2-53.4,82.4-53.4,82.4s48.2-19.9,82.4-53.4c0.1,0.1,0.3,0.1,0.4,0.2c0.5,47.9,20.5,96,20.5,96s20-48.2,20.5-96
			c0.1-0.1,0.3-0.1,0.4-0.2c34.2,33.5,82.4,53.4,82.4,53.4s-19.9-48.2-53.4-82.4C209.9,300.7,209.9,300.6,210,300.5z M160,323
			c-23.7,0-43-19.3-43-43s19.3-43,43-43s43,19.3,43,43S183.7,323,160,323z"/>
		<path class="st15" d="M160,417.5c-5.5-15.2-17.1-51.7-17.5-87.6l0-2l-2.2-0.9l-1.8-0.8l-1.4,1.4c-25.6,25.1-59.7,42.7-74.3,49.6
			c6.9-14.6,24.4-48.7,49.6-74.3l1.4-1.4l-0.8-2l-0.8-2.1l-2,0c-35.9-0.3-72.4-12-87.6-17.5c15.2-5.5,51.7-17.1,87.6-17.5l2,0
			l0.8-1.8c1.3-3.3,3-6.4,5-9.3l0.9-1.4l-0.7-1.5c-12.6-28.8-18.2-59.6-20.3-73.7c10.1,9.1,31.1,29.3,47.7,54.2l1.1,1.7l2-0.5
			c3.8-0.9,7.6-1.3,11.4-1.3c3.8,0,7.6,0.4,11.4,1.3l2,0.5l1.1-1.7c16.7-24.9,37.7-45.1,47.7-54.2c-2.1,14-7.7,44.9-20.3,73.7
			l-0.7,1.5l0.9,1.4c2,2.9,3.6,6,5,9.3l0.8,1.8l2,0c35.9,0.3,72.4,12,87.6,17.5c-15.2,5.5-51.7,17.1-87.6,17.5l-2,0l-0.8,1.8
			l-0.2,0.4l-0.8,1.8l1.4,1.4c25.2,25.7,42.7,59.7,49.6,74.3c-14.6-6.9-48.7-24.4-74.3-49.6l-1.4-1.4l-2,0.8l-0.3,0.1l-1.8,0.8l0,2
			C177.1,365.9,165.5,402.4,160,417.5z M160,234c-25.4,0-46,20.6-46,46s20.6,46,46,46s46-20.6,46-46S185.4,234,160,234z"/>
		<path class="st16" d="M160,405c-5.6-17.7-13.2-46.8-13.5-75.1l0-1.8c4.3,1.2,8.8,1.8,13.5,1.8c4.7,0,9.2-0.6,13.5-1.8l0,1.8
			C173.2,358.3,165.6,387.3,160,405z M248.4,368.4c-16.5-8.6-42.4-23.7-62.7-43.6l-1.3-1.2c8-4.5,14.6-11.1,19.1-19.1l1.2,1.3
			C224.7,326,239.9,351.9,248.4,368.4z M71.6,368.4c8.6-16.5,23.7-42.4,43.6-62.6l1.2-1.3c4.5,8,11.1,14.6,19.1,19.1l-1.3,1.2
			C114,344.7,88.1,359.9,71.6,368.4z M208.2,293.5c1.2-4.3,1.8-8.8,1.8-13.5s-0.6-9.2-1.8-13.5l1.8,0c28.4,0.3,57.4,7.8,75.1,13.5
			c-17.7,5.6-46.8,13.2-75.1,13.5L208.2,293.5z M110.1,293.5c-28.4-0.3-57.4-7.8-75.1-13.5c17.7-5.6,46.8-13.2,75.1-13.5l1.8,0
			c-1.2,4.3-1.8,8.8-1.8,13.5s0.6,9.2,1.8,13.5L110.1,293.5z M198,247.6c-5.6-6.6-12.9-11.7-21.3-14.7l1.1-1.6
			c12.5-18.7,27.5-34.7,38.5-45.4c-3,16.2-8.5,39.2-18.1,61.1L198,247.6z M121.7,246.9c-9.6-21.9-15.1-44.9-18.1-61.1
			c11.1,10.7,26,26.8,38.5,45.4l1.1,1.6c-8.3,3-15.6,8.1-21.3,14.7L121.7,246.9z"/>
		<path class="st9" d="M210,300.5c47.9-0.5,96-20.5,96-20.5s-48.2-20-96-20.5c-1.4-3.5-3.2-6.8-5.3-9.8
			c17.3-39.6,21.5-82.3,21.5-82.3s-31.1,25.4-54.2,60c-3.9-0.9-7.9-1.4-12-1.4s-8.2,0.5-12,1.4c-23.2-34.6-54.2-60-54.2-60
			s4.2,42.7,21.5,82.3c-2.1,3.1-3.8,6.4-5.3,9.8C62.2,260,14,280,14,280s48.2,20,96,20.5c0.1,0.1,0.1,0.3,0.2,0.4
			c-33.5,34.2-53.4,82.4-53.4,82.4s48.2-19.9,82.4-53.4c0.1,0.1,0.3,0.1,0.4,0.2c0.5,47.9,20.5,96,20.5,96s20-48.2,20.5-96
			c0.1-0.1,0.3-0.1,0.4-0.2c34.2,33.5,82.4,53.4,82.4,53.4s-19.9-48.2-53.4-82.4C209.9,300.7,209.9,300.6,210,300.5z M160,323
			c-23.7,0-43-19.3-43-43s19.3-43,43-43s43,19.3,43,43S183.7,323,160,323z"/>
		<g>
			<path class="st5" d="M160,334.5c-30.1,0-54.5-24.5-54.5-54.5s24.5-54.5,54.5-54.5c30.1,0,54.5,24.5,54.5,54.5
				S190.1,334.5,160,334.5z M160,226.5c-29.5,0-53.5,24-53.5,53.5s24,53.5,53.5,53.5s53.5-24,53.5-53.5S189.5,226.5,160,226.5z"/>
		</g>
		<g>
			<path class="st5" d="M160,330c-27.6,0-50-22.4-50-50s22.4-50,50-50c27.6,0,50,22.4,50,50S187.6,330,160,330z M160,230.9
				c-27.1,0-49.1,22-49.1,49.1s22,49.1,49.1,49.1s49.1-22,49.1-49.1S187.1,230.9,160,230.9z"/>
		</g>
		<path class="st16" d="M142.4,302c0,0,14-0.2,6.9,2.4c-7.2,2.6-6.2,2.7-1.2,3.9c4.9,1.3-3.2,2.8,6.8,4.4c9.9,1.6,3.2,4.6,8.4,5.2
			s-1.8-4.6,4.4-4.4c6.2,0.2-4.6-4.4,2.4-5c7-0.6-0.8-3.1,7.2-2.6c8,0.4-10.9-1.6-3.8-3.2S160.5,300,142.4,302z"/>
		<path class="st14" d="M160,164h-27v69c0,10,9,18,13,20s14,9,14,9s10-7,14-9s13-10,13-20v-69H160z"/>
		<path class="st4" d="M160,257.1c-3.3-2.2-9.2-6.2-12.2-7.7C145,248,137,241.3,137,233v-65h46v65c0,8.3-8,15-10.8,16.4
			C169.2,250.9,163.3,254.9,160,257.1z"/>
		<path class="st29" d="M160,252.3c-3.7-2.5-7.9-5.2-10.4-6.5c-1.7-0.9-8.6-6.5-8.6-12.8v-61h38v61c0,6.3-6.8,12-8.6,12.8
			C167.9,247.1,163.7,249.8,160,252.3z"/>
		<path class="st9" d="M160,164h-27v69c0,10,9,18,13,20s14,9,14,9s10-7,14-9s13-10,13-20v-69H160z"/>
		<polygon class="st0" points="148.1,172.9 149.7,178.5 155.1,178.5 150.8,182 152.4,187.5 148.1,184.1 143.7,187.5 145.4,182 
			141,178.5 146.4,178.5 		"/>
		<polygon class="st0" points="148.1,195.4 149.7,201 155.1,201 150.8,204.5 152.4,210 148.1,206.6 143.7,210 145.4,204.5 141,201 
			146.4,201 		"/>
		<polygon class="st0" points="148.1,217.9 149.7,223.5 155.1,223.5 150.8,227 152.4,232.5 148.1,229.1 143.7,232.5 145.4,227 
			141,223.5 146.4,223.5 		"/>
		<polygon class="st0" points="171.9,172.9 173.6,178.5 179,178.5 174.6,182 176.3,187.5 171.9,184.1 167.6,187.5 169.2,182 
			164.9,178.5 170.3,178.5 		"/>
		<polygon class="st0" points="160,234.4 161.8,240 167.7,240 162.9,243.5 164.8,249 160,245.6 155.2,249 157.1,243.5 152.3,240 
			158.2,240 		"/>
		<polygon class="st0" points="171.9,195.4 173.6,201 179,201 174.6,204.5 176.3,210 171.9,206.6 167.6,210 169.2,204.5 164.9,201 
			170.3,201 		"/>
		<polygon class="st0" points="171.9,217.9 173.6,223.5 179,223.5 174.6,227 176.3,232.5 171.9,229.1 167.6,232.5 169.2,227 
			164.9,223.5 170.3,223.5 		"/>
		<path class="st0" d="M109,176c0,0,18,17,20,20v-20C129,176,116,173,109,176z"/>
		<path class="st0" d="M191,176v18c0,0,15-15,18-16S205,172,191,176z"/>
	</g>
	<path class="st3" d="M272,47c-19.9,0-36,16.1-36,36c0,6,1.5,11.6,4,16.6c-0.7-2.4-1-4.9-1-7.6c0-15.5,12.5-28,28-28s28,12.5,28,28
		c0,12.7-8.5,23.5-20.2,26.9c18.6-1.5,33.2-17,33.2-35.9C308,63.1,291.9,47,272,47z"/>
	<path class="st30" d="M314,4v332c0,0-4,68-57,94c-49.9,24.5-83,46.3-95,61.3c-0.8,0.9-1.4,1.8-2,2.7c-1.1-1.6-2.4-3.3-4-5
		c-4.7-5.2-11.8-11.2-21-17.8c-6.3-4.5-13.7-9.3-22-14.3c-6.4-3.8-13.4-7.8-21-12c-6.9-3.7-14.2-7.6-22-11.5c-2.3-1.2-4.6-2.3-7-3.5
		c-5.1-2.5-9.8-5.4-14-8.6c-9.1-6.8-16.3-15.1-22-23.6C7.9,369,6,336,6,336V4H314z"/>
	<g>
		<rect x="14" y="16" class="st0" width="5.8" height="10"/>
		<rect x="22.6" y="16" class="st0" width="5.8" height="10"/>
		<rect x="31.3" y="16" class="st0" width="5.8" height="10"/>
		<rect x="39.9" y="16" class="st0" width="5.8" height="10"/>
		<rect x="48.6" y="16" class="st0" width="5.8" height="10"/>
		<rect x="57.2" y="16" class="st0" width="5.8" height="10"/>
		<rect x="65.9" y="16" class="st0" width="5.8" height="10"/>
		<rect x="74.5" y="16" class="st0" width="5.8" height="10"/>
		<rect x="83.1" y="16" class="st0" width="5.8" height="10"/>
		<rect x="91.8" y="16" class="st0" width="5.8" height="10"/>
		<rect x="100.4" y="16" class="st0" width="5.8" height="10"/>
		<rect x="109.1" y="16" class="st0" width="5.8" height="10"/>
		<rect x="117.7" y="16" class="st0" width="5.8" height="10"/>
		<rect x="126.4" y="16" class="st0" width="5.8" height="10"/>
		<rect x="135" y="16" class="st0" width="5.8" height="10"/>
		<rect x="143.7" y="16" class="st0" width="5.8" height="10"/>
		<rect x="152.3" y="16" class="st0" width="5.8" height="10"/>
		<rect x="160.9" y="16" class="st0" width="5.8" height="10"/>
		<rect x="169.6" y="16" class="st0" width="5.8" height="10"/>
		<rect x="178.2" y="16" class="st0" width="5.8" height="10"/>
		<rect x="186.9" y="16" class="st0" width="5.8" height="10"/>
		<rect x="195.5" y="16" class="st0" width="5.8" height="10"/>
		<rect x="204.2" y="16" class="st0" width="5.8" height="10"/>
		<rect x="212.8" y="16" class="st0" width="5.8" height="10"/>
		<rect x="221.4" y="16" class="st0" width="5.8" height="10"/>
		<rect x="230.1" y="16" class="st0" width="5.8" height="10"/>
		<rect x="238.7" y="16" class="st0" width="5.8" height="10"/>
		<rect x="247.4" y="16" class="st0" width="5.8" height="10"/>
		<rect x="256" y="16" class="st0" width="5.8" height="10"/>
		<rect x="264.7" y="16" class="st0" width="5.8" height="10"/>
		<rect x="273.3" y="16" class="st0" width="5.8" height="10"/>
		<rect x="282" y="16" class="st0" width="5.8" height="10"/>
		<rect x="290.6" y="16" class="st0" width="5.8" height="10"/>
		<rect x="299.2" y="16" class="st0" width="5.8" height="10"/>
	</g>
</g>
</svg>
