<?xml version="1.0" encoding="UTF-8"?>
<svg width="400" height="400" version="1.1" xmlns="http://www.w3.org/2000/svg" xmlns:xlink="http://www.w3.org/1999/xlink">
 <path d="m200 9.9985c-104.76 0-190 85.232-190 190 0 104.77 85.232 190 190 190 104.77 0 190-85.232 190-190 0-104.76-85.232-190-190-190" fill="#00abc2"/>
 <g fill="#fff">
  <path d="m364.93 158.08-19.562 5.2746-1.3688-5.0742 19.563-5.2751zm-8.3207-12.268-14.846 5.3927-1.7934-4.939 14.844-5.3927-1.4713-4.0541 4.1953-1.5241 4.7405 13.047-4.1973 1.5246zm-15.081-14.548 4.8344-4.9882-6.858 0.97282zm-2.9521 3.0526-3.3089-6.5645-3.6526 0.31003-2.5034-4.9641 21.595-2.1758 2.5848 5.1279-14.664 15.928-2.5285-5.0184zm2.9281-28.821-13.12 8.789 3.5159 5.248-3.7089 2.4848-6.4414-9.6126 16.83-11.275zm-7.8735-14.847c0.0533-0.46983 0.22311-1.2281 0.98237-1.8356 0.66429-0.53163 1.419-0.7075 2.1014-0.63163 0.6844 0.07638 1.3768 0.45676 1.8321 1.0256 0.45476 0.56932 0.67284 1.3286 0.59696 2.012-0.0709 0.64017-0.38893 1.3612-1.0286 1.8738-0.57082 0.45576-1.2246 0.7065-2.0552 0.59244-0.82961-0.11407-1.4326-0.5256-1.8311-1.0241-0.47486-0.59344-0.65475-1.3055-0.59797-2.0125m0.90097 5.1143-15.824 12.656-3.2828-4.1048 15.824-12.656zm-21.971-12.068 10.467-1.3045 4.5752 4.6189-12.485 1.0356-1.3964 13.742-4.7887-4.8345 1.405-11.055-6.2364 6.1781-3.6993-3.734 14.395-14.259 3.6988 3.733zm-21.44-10.449c0.23919 1.5281 0.97082 3.3622 2.413 4.4777 0.84167 0.65022 1.5502 0.77635 2.0371 0.69193 0.42711-0.05427 0.87332-0.28491 1.1894-0.69293 0.24069-0.31255 0.40048-0.7663 0.28642-1.315-0.13015-0.67585-0.62359-1.3271-1.415-2.4386l-0.82107-1.1728c-0.50601-0.73665-1.2135-1.8587-1.3035-3.0813-0.13015-1.5205 0.64721-2.7245 1.2788-3.5416 1.524-1.9708 3.2225-2.5783 4.4581-2.7356 1.4487-0.18542 3.333 0.15828 5.2797 1.6637 1.5854 1.2266 3.0451 3.1617 3.946 5.1259l-4.1661 1.9622c-0.48792-1.9517-1.3507-2.7727-1.9034-3.1999-0.40903-0.31607-1.0356-0.64771-1.7406-0.57937-0.42611 0.05427-0.79946 0.18894-1.0783 0.54972-0.2221 0.28843-0.34169 0.54118-0.34069 0.8874 9e-3 0.23768 0.0739 0.74921 0.83614 1.7989l0.97584 1.3698c0.7668 1.0924 1.5462 2.2702 1.6808 3.834 0.14823 1.4979-0.3226 2.5532-1.1778 3.6581-1.1331 1.4668-2.5903 2.6054-4.636 2.8667-2.428 0.31054-4.2913-0.707-5.9972-2.0265-1.009-0.78137-1.8954-1.6205-2.7396-2.9637-0.18944-0.29999-0.90147-1.4653-1.4406-3.1501zm0.85926 11.8-5.5008 1.3522-1.4678-2.6707 5.0948-1.82zm-0.7361-23.56-5.344-3.2521-1.7522 2.8793 5.0591 3.0793-2.3215 3.8129-5.0586-3.0783-1.815 2.9833 5.344 3.2521-2.3205 3.8129-9.8322-5.9837 10.531-17.303 9.8312 5.9842zm-17.755-10.119-6.7937 14.257-4.743-2.2602 6.7932-14.257-3.8933-1.8547 1.921-4.0315 12.53 5.9706-1.92 4.0315zm-23.412-16.736c-0.21758-0.41857-0.49847-1.1447-0.20702-2.0723 0.25627-0.81052 0.78488-1.3763 1.3954-1.6934 0.60952-0.31707 1.3964-0.38742 2.0914-0.16884 0.69444 0.22009 1.2984 0.72911 1.6165 1.3386 0.29798 0.57234 0.43466 1.3477 0.18794 2.1301-0.21959 0.69444-0.62359 1.2678-1.3763 1.6351-0.75273 0.36832-1.4828 0.36079-2.0914 0.16934-0.72509-0.22914-1.2708-0.71957-1.6165-1.3386m3.5958 3.7466-6.0962 19.321-5.0108-1.5813 6.0957-19.321zm-22.917 3.367 0.98136 0.20401c0.77384 0.16029 1.9165 0.1814 2.6657-0.2829 0.46581-0.30652 0.87032-0.90549 1.0005-1.5291 0.12211-0.59495 0.0206-1.2984-0.33817-1.8085-0.37687-0.57384-1.1768-1.0507-2.3074-1.2859l-0.98136-0.20401zm4.734-8.2906c1.4874 0.30853 3.34 0.94267 4.4822 2.7622 0.88941 1.3944 1.0944 3.237 0.7668 4.8128-0.35225 1.6954-1.2567 3.0582-2.4356 3.8054-0.9276 0.58289-2.0617 0.81253-3.0195 0.79896l4.5259 9.4106-6.3932-1.3296-3.3526-8.6388-1.5833 7.6117-5.145-1.0698 4.1254-19.834zm-14.698 1.9195-6.2324-0.54872-0.29647 3.3586 5.8997 0.51907-0.39144 4.448-5.9002-0.51907-0.30652 3.4797 6.2324 0.54872-0.39094 4.448-11.467-1.01 1.7768-20.183 11.467 1.01zm-22.855-5.6475 0.25627 15.794 6.3173-0.10251 0.0719 4.4651-11.571 0.18793-0.32963-20.259zm-14.081 5.2028 1.7552 15.696-5.2219 0.58389-1.7552-15.696-4.2862 0.47938-0.49545-4.437 13.794-1.5421 0.49646 4.4365zm-13.966 1.8451-6.1083 1.3547 0.73113 3.2908 5.7816-1.2824 0.96628 4.3586-5.7806 1.2824 0.75424 3.4099 6.1083-1.3557 0.96729 4.3591-11.237 2.4924-4.3862-19.776 11.236-2.4913zm-23.516 1.5277 4.9787 14.988 5.9952-1.9914 1.407 4.237-10.981 3.6481-6.3861-19.226zm-23.94 9.9277 9.6875 9.0498-0.85423-13.252 5.157-2.4527 0.91353 22.003-3.7028 1.7617-16.386-14.643zm-6.458 8.5855-5.2721 3.3687 1.815 2.8411 4.9912-3.1893 2.4034 3.7626-4.9902 3.1883 1.8803 2.9436 5.2721-3.3687 2.4044 3.7626-9.7001 6.1967-10.908-17.071 9.7001-6.1962zm-17.014 26.174 0.81805-0.67886c0.98237-0.81353 2.2858-2.0502 2.4853-3.9516 0.10804-0.91755-0.0276-2.4622-1.4628-4.1933-1.2009-1.4507-2.6722-2.322-4.0445-2.4074-1.6954-0.09397-3.0365 0.85926-4.042 1.6924l-0.98237 0.81353zm-1.1989 6.7906-12.926-15.602 5.3098-4.3988c1.5673-1.2984 4.3621-3.2586 7.9821-2.9833 3.2777 0.24321 5.4887 2.1974 6.8846 3.8812 1.705 2.0592 2.7029 4.3099 2.4416 7.0901-0.21255 2.2667-1.3643 5.1143-4.0315 7.3228zm-25.647 10.682-2.4255-10.265 4.0978-5.046 2.3778 12.3 13.809-0.09397-4.2888 5.2817-11.142-0.20451 6.8133 5.5334-3.3114 4.0797-15.728-12.772 3.3129-4.0787zm-11.265 17.906 0.52008-0.85724c0.40903-0.67485 0.80951-1.7467 0.62108-2.6064-0.13316-0.54219-0.56329-1.1221-1.108-1.4532-0.51907-0.31406-1.217-0.45274-1.817-0.28391-0.6668 0.16331-1.3829 0.75927-1.9818 1.7456l-0.51907 0.85725zm-6.2374-7.2263c0.7869-1.2984 2.0029-2.8356 4.0988-3.3044 1.611-0.37285 3.4164 0.0467 4.7927 0.88087 1.4798 0.89795 2.4642 2.2039 2.7753 3.5652 0.24019 1.0688 0.07889 2.214-0.25426 3.1134l10.38-1.1296-3.3848 5.5837-9.2624 0.27989 6.6484 4.0315-2.7235 4.4923-17.322-10.501zm-12.71 25.139 11.03 4.7204c0.78187 0.33415 1.9949 0.82006 3.2833 0.28089 0.76982-0.33114 1.515-1.0698 1.8738-1.908 0.35777-0.83714 0.39295-1.8461 0.14522-2.5798-0.49948-1.5356-1.8798-2.0929-2.9124-2.5356l-10.612-4.541 2.0672-4.8304 10.695 4.5762c1.9552 0.83715 3.9581 1.7929 5.1349 4.6757 0.92358 2.2451 0.81353 4.5109-0.31004 7.1354-1.2552 2.932-3.1561 4.5973-4.8742 5.2153-2.4522 0.8673-4.9098 0.0472-6.8927-0.80147l-10.696-4.5772zm-0.29798-5.7113c-0.69394 0.23266-1.4165 0.22009-1.9753-0.0191-0.83614-0.35777-1.2045-1.0442-1.3919-1.4542-0.17637-0.43867-0.37938-1.121-9e-3 -1.9868 0.27486-0.64168 0.81604-1.1361 1.415-1.3763 0.67786-0.27135 1.4401-0.27637 2.0542-0.0131 0.5854 0.25125 1.0934 0.76479 1.3924 1.4552 0.303 0.75726 0.24873 1.4276-3e-3 2.014-0.29798 0.69796-0.81604 1.1371-1.4823 1.3803m-2.7129 6.3399c-0.69293 0.23115-1.4155 0.22009-1.9743-0.0191-0.83715-0.35878-1.2045-1.0442-1.3924-1.4552-0.17587-0.43867-0.37988-1.121-0.0095-1.9858 0.27536-0.64268 0.81705-1.1381 1.416-1.3773 0.67786-0.27135 1.4391-0.27637 2.0532-0.0131 0.58691 0.25024 1.0934 0.76479 1.3934 1.4547 0.303 0.75776 0.24672 1.4281-0.0025 2.0145-0.29999 0.69745-0.81856 1.1371-1.4839 1.3813m2.3277 14.772 15.184 4.3531-1.4477 5.052-15.184-4.3536-1.1894 4.1466-4.2923-1.2301 3.8255-13.345 4.2923 1.2311z"/>
  <path d="m362.69 220.95c1.1286-0.98438 2.2532-2.5315 2.4235-4.2892 0.0985-1.0246-0.16431-1.6698-0.4844-2.027-0.26481-0.32059-0.68439-0.56832-1.1824-0.61655-0.38089-0.0362-0.83363 0.0683-1.2246 0.4442-0.48792 0.45525-0.7663 1.1969-1.2683 2.4195l-0.53716 1.2783c-0.3427 0.79393-0.89795 1.9527-1.8532 2.6587-1.1798 0.89141-2.5672 0.87533-3.5632 0.78036-2.4004-0.23265-3.7752-1.31-4.543-2.2421-0.89895-1.0914-1.5909-2.8134-1.3612-5.1862 0.18592-1.9316 1.0186-4.1274 2.1632-5.8786l3.7591 2.4014c-1.3482 1.407-1.5748 2.5381-1.6401 3.2114-0.0477 0.49847 4e-3 1.1829 0.4251 1.7256 0.26381 0.32058 0.56681 0.55625 1.005 0.59896 0.35225 0.0352 0.62209 1e-3 0.90499-0.17838 0.18944-0.12914 0.57485-0.44722 1.0422-1.614l0.61756-1.507c0.50048-1.1934 1.0643-2.4386 2.2753-3.3566 1.1507-0.89393 2.2592-1.0527 3.6074-0.92257 1.7864 0.17185 3.4712 0.77735 4.742 2.319 1.5085 1.8311 1.6346 3.8812 1.4356 5.961-0.11909 1.2301-0.35024 2.3903-1.016 3.7742-0.14673 0.31054-0.73464 1.4949-1.8366 2.8079zm-9.9458 3.3139-1.1753 5.947 3.2039 0.63314 1.1135-5.6299 4.243 0.83916-1.1135 5.6289 3.3194 0.65676 1.1758-5.947 4.243 0.83916-2.1622 10.94-19.254-3.8054 2.1622-10.941zm-3.7477 16.915 14.68 4.3074-1.4336 4.8842-14.679-4.3078-1.1763 4.0079-4.1501-1.217 3.7863-12.902 4.1491 1.218zm2.2637 18.75-6.7168-0.3844 5.0556 4.4098zm4.1074 0.23065-2.717 6.5826 2.5421 2.4813-2.0542 4.9777-15.27-14.45 2.1215-5.142 20.961 0.65976-2.0768 5.0324zm-18.217 11.137 13.451 7.2911-2.425 4.4752-13.452-7.2906-1.9899 3.6732-3.8033-2.0617 6.4082-11.822 3.8023 2.0607zm-4.0351 24.544c1.4628-0.32662 3.1893-1.1487 4.1772-2.6114 0.57736-0.85323 0.65525-1.5472 0.54319-2.013-0.0789-0.40953-0.33013-0.8271-0.74519-1.107-0.31707-0.21356-0.76379-0.33868-1.2879-0.19447-0.64671 0.16783-1.2447 0.6854-2.2708 1.5205l-1.0808 0.86679c-0.68188 0.53515-1.723 1.2879-2.8989 1.4532-1.4622 0.21909-2.6742-0.45776-3.5039-1.0175-1.9999-1.3492-2.6928-2.9541-2.9215-4.1385-0.27084-1.3899-0.0553-3.2325 1.2783-5.2088 1.0869-1.6095 2.8677-3.1416 4.7093-4.1355l2.1572 3.9069c-1.8562 0.59344-2.5969 1.4778-2.9757 2.0391-0.27989 0.41556-0.56078 1.0422-0.45074 1.721 0.0789 0.40702 0.23266 0.75926 0.59797 1.006 0.29345 0.19848 0.5447 0.29797 0.88086 0.27536 0.22813-0.0226 0.71856-0.11859 1.6859-0.92157l1.2633-1.0291c1.009-0.80952 2.0989-1.6356 3.6024-1.8632 1.4381-0.23667 2.4888 0.15276 3.6109 0.91102 1.4874 1.0035 2.6798 2.3411 3.0612 4.3028 0.45124 2.3285-0.41757 4.1928-1.5859 5.9244-0.69193 1.0251-1.4487 1.9341-2.6938 2.833-0.27938 0.20251-1.3612 0.96378-2.9572 1.5909zm-3.6116 13.469c-0.83714 1.9914-1.422 2.9727-2.2803 3.9023-2.316 2.5089-5.047 3.4722-7.3117 3.5843-2.7034 0.10703-5.3897-0.93011-7.271-2.6667-2.0547-1.8964-3.1818-4.5787-3.3034-7.0942-0.12009-2.4728 0.70449-5.2756 2.7803-7.5243 0.63816-0.69293 1.7848-1.7175 3.8486-2.6948l4.4762 4.131c-2.6094-0.16632-4.0134 1.1819-4.5922 1.808-0.99745 1.0814-1.4321 2.2024-1.4426 3.4732 3e-3 1.6452 0.78891 3.0511 1.8044 3.9888 0.99493 0.91805 2.4763 1.5256 3.8888 1.4266 1.1628-0.0884 2.4918-0.70349 3.4697-1.7627 0.51907-0.56178 1.7311-2.0064 1.4994-4.6636zm-26.23-0.21417 13.265 14.472-3.7541 3.44-13.264-14.472zm-10.426 19.18 0.091-10.218 5.0214-3.7998-0.60751 12.121 13.015 3.1039-5.256 3.9782-10.435-2.7682 5.1314 6.7806-4.0586 3.0727-11.845-15.651 4.0591-3.0717zm-15.291 10.609 0.84117-0.48591c0.66127-0.38189 1.5014-1.105 1.7426-1.923 0.13969-0.5231 0.0457-1.216-0.26481-1.7517-0.29346-0.50852-0.82107-0.95172-1.4095-1.0874-0.64268-0.17185-1.5286 0-2.4974 0.55877l-0.84117 0.4854zm-1.9291-9.0453c1.2743-0.73565 3.0215-1.4728 5.0214-0.89594 1.5416 0.43465 2.8793 1.6326 3.6586 2.9833 0.83916 1.4527 1.0648 3.0205 0.69545 4.3219-0.29396 1.0196-0.96529 1.9165-1.6668 2.526l9.3423 3.8792-5.4781 3.1637-7.9961-4.0797 3.7677 6.5223-4.4073 2.5466-9.8156-16.994zm-20.807 10.14 4.4963 10.716c0.31908 0.76026 0.83564 1.9155 2.0949 2.4074 0.75976 0.28843 1.7753 0.27637 2.5898-0.0648 0.81353-0.3427 1.5175-1.0201 1.8396-1.6979 0.6869-1.405 0.1025-2.7225-0.32009-3.7265l-4.3254-10.309 4.6928-1.9698 4.3606 10.39c0.79745 1.8994 1.5462 3.9139 0.4246 6.7138-0.87081 2.1843-2.4728 3.6863-5.0234 4.7566-2.8486 1.1954-5.2927 1.0728-6.9057 0.34571-2.2914-1.0487-3.4486-3.2747-4.2571-5.2018l-4.3596-10.39zm-8.9081 7.6826 4.3084 14.687-4.8857 1.4326-4.3084-14.686-4.0104 1.1763-1.218-4.1521 12.906-3.7863 1.219 4.1521zm-16.385 4.24-6.0776 0.9291 0.49244 3.2285 5.5264-0.84469 0.65374 4.2752-5.5264 0.84469 1.1648 7.6192-5.0314 0.76982-2.9657-19.399 11.111-1.6979zm-28.74 4.494c-1.0281 1.0623-1.4838 2.5185-1.4416 3.9013 0.0528 1.7351 0.91302 2.917 1.6703 3.5993 0.9693 0.88388 2.3135 1.4914 4.0189 1.4381 1.7361-0.0533 3.0109-0.71002 3.8948-1.6497 0.88489-0.93966 1.5205-2.3135 1.4743-3.8139-0.0467-1.5291-0.7653-2.8622-1.704-3.7174-1.12-0.99544-2.6361-1.4788-3.9888-1.4386-1.4125 0.0432-2.8979 0.59042-3.924 1.6808m12.046 10.733c-1.9411 1.9738-4.735 3.0597-7.6469 3.1486-2.9134 0.0894-5.7666-0.82458-7.8253-2.6758-2.1502-1.9366-3.234-4.6425-3.3129-7.2313-0.0799-2.618 0.83513-5.4143 2.8647-7.4484 1.9421-1.9723 4.7345-3.0592 7.6479-3.1486 2.9119-0.0879 5.7666 0.82609 7.8253 2.6768 2.1481 1.907 3.233 4.641 3.3129 7.26 0.0794 2.5883-0.83715 5.3555-2.8657 7.4188m-50.319-1.0403 3.1788-19.37 5.0244 0.82409 7.3193 13.369 1.9431-11.849 5.0244 0.82609-3.1782 19.369-5.0239-0.82409-7.3198-13.369-1.9436 11.848zm-14.914-18.628c-1.3261 0.65122-2.2486 1.8682-2.6758 3.1828-0.53817 1.6507-0.12813 3.0526 0.35325 3.9526 0.61204 1.1587 1.6703 2.1843 3.2933 2.7129 1.6517 0.53716 3.0747 0.35124 4.2244-0.23466 1.1502-0.5849 2.2125-1.6622 2.6778-3.0898 0.47335-1.4552 0.24874-2.9511-0.34571-4.0737-0.71655-1.317-1.9793-2.2838-3.2672-2.7034-1.3432-0.43767-2.9245-0.42661-4.2601 0.25326m7.7022 14.176c-2.4949 1.1989-5.4907 1.2758-8.2614 0.37385-2.7697-0.90196-5.1465-2.728-6.4575-5.1666-1.3668-2.5496-1.4713-5.4616-0.66982-7.9243 0.81152-2.4903 2.6185-4.8103 5.2158-6.0389 2.4954-1.1994 5.4922-1.2763 8.2619-0.37486 2.7707 0.90197 5.1465 2.728 6.4575 5.1666 1.3763 2.522 1.4713 5.4631 0.66077 7.9529-0.80197 2.4622-2.6009 4.7546-5.2073 6.0113m-14.504-23.366-8.0283 17.911-4.6455-2.0818 8.0273-17.911zm-12.018-0.89549-7.268 13.467-4.4807-2.418 7.2675-13.467-3.6772-1.9848 2.0552-3.8064 11.835 6.3872-2.0542 3.8074zm-18.793-1.6547 1.7627-6.4917-5.3575 4.035zm-1.0743 3.9707-5.8776-4.0179-2.9521 1.9733-4.445-3.0376 17.29-11.952 4.5908 3.137-4.9752 20.367-4.4938-3.0707zm-19.009-15.862 6.1726 5.458-2.8667 3.2406-12.586-11.132 17.103-5.3023-5.7746-5.1078 2.8657-3.2406 12.147 10.742zm2.6103-18.594-14.24 13.506-3.5029-3.6943 14.24-13.506zm-33.481-9.596 15.564-11.96 3.1019 4.036-3.7998 14.761 9.5197-7.3168 3.1019 4.037-15.562 11.96-3.1029-4.036 3.8003-14.76-9.5197 7.3158zm0.04819-13.867 4.4501-5.043-6.5897 1.2507zm-2.7165 3.0868-3.4988-6.2002-3.5199 0.46631-2.6456-4.6892 20.79-3.0833 2.7325 4.844-13.462 16.072-2.6737-4.7405zm-3.9457-25.712 3.7722 9.3966c-3.6059 1.4472-6.4701 1.7406-9.3689 0.36631-2.5426-1.1999-3.939-3.1762-4.8701-5.4982-1.3165-3.2782-1.014-5.9997-0.10351-8.0785 0.81805-1.9135 2.5255-4.0591 5.5309-5.2646 2.8953-1.1628 5.7324-0.9688 7.9263-0.01 2.1049 0.89895 4.2219 2.7778 5.5168 6.0002 0.67836 1.6934 1.0306 3.6772 0.74419 5.4103-0.30501 1.7713-1.2808 3.5275-2.4386 4.7531l-3.6662-3.7616c0.71504-0.66731 1.108-1.4276 1.3045-2.0456 0.33767-1.0547 0.2427-1.9999-0.11859-2.9029-0.45023-1.119-1.3205-2.1024-2.5069-2.6094-1.4934-0.63766-3.3948-0.47736-4.8154 0.093-1.6663 0.66932-2.7908 1.819-3.3521 3.0265-0.57786 1.2482-0.61404 2.4989-0.05578 3.8923 0.32913 0.81956 0.84971 1.721 1.8994 2.2823 0.53063 0.29496 1.3944 0.55023 2.4707 0.30903l-1.5567-3.8778zm-7.2841-21.786 0.24019 0.94066c0.18894 0.74117 0.65676 1.7456 1.3803 2.1994 0.4648 0.27637 1.1587 0.37285 1.7577 0.22009 0.56932-0.14522 1.1391-0.53314 1.4286-1.0628 0.34069-0.57334 0.41506-1.4723 0.13869-2.5557l-0.24019-0.94267zm9.2333 0.59243c0.3623 1.4256 0.59947 3.3089-0.49847 5.0772-0.83614 1.3668-2.3512 2.3316-3.8636 2.716-1.6251 0.41456-3.1968 0.20753-4.3491-0.50048-0.90197-0.55977-1.5844-1.4492-1.9808-2.2893l-6.2671 7.9459-1.5622-6.1319 6.0937-6.5962-7.3012 1.8612-1.2577-4.9329 19.022-4.8495zm-10.331-23.916c-1.1447-0.93413-2.633-1.2663-4.0074-1.1075-1.725 0.19698-2.829 1.1532-3.4471 1.9637-0.79695 1.0402-1.2899 2.429-1.0949 4.1244 0.19798 1.7235 0.96026 2.9406 1.9703 3.7415 1.01 0.80248 2.4321 1.3195 3.9224 1.1487 1.5205-0.17437 2.7878-1.0015 3.5601-2.0085 0.89795-1.1989 1.2532-2.7501 1.0984-4.0943-0.1613-1.4034-0.82961-2.837-2.0019-3.7682m-9.682 12.9c-2.128-1.7693-3.4446-4.4606-3.7777-7.3544-0.33265-2.8933 0.33868-5.8143 2.0095-8.0192 1.7492-2.3044 4.3531-3.6109 6.9253-3.9058 2.6019-0.29898 5.4626 0.37888 7.66 2.2285 2.1285 1.7693 3.4451 4.4606 3.7772 7.3539 0.33315 2.8938-0.33818 5.8138-2.0095 8.0197-1.719 2.3009-4.3531 3.6099-6.954 3.9089-2.5722 0.29597-5.4048-0.38541-7.6308-2.2316"/>
  <path d="m231.82 218.81-13.707-6.5118-5.0877 14.305-5.0877-14.305-13.697 6.5118 6.5118-13.697-14.305-5.0877 14.305-5.0782-6.5118-13.716 13.697 6.5118 5.0877-14.295 5.0877 14.295 13.707-6.5118-6.5118 13.716 14.295 5.0782-14.295 5.0877zm-59.746 25.278c-24.347-15.415-31.599-47.642-16.193-71.987 15.415-24.348 47.641-31.6 71.987-16.194 6.5304 4.129 12.064 9.6629 16.193 16.194-15.405-17.152-41.803-18.557-58.947-3.1516-17.143 15.415-18.557 41.804-3.1421 58.947 15.406 17.143 41.794 18.557 58.937 3.1421 1.1105-0.9874 2.1547-2.0411 3.1511-3.1421-15.405 24.348-47.641 31.6-71.987 16.194m27.926-101.44c-31.666 0-57.354 25.677-57.354 57.354 0 31.675 25.686 57.354 57.354 57.354 31.675 0 57.354-25.677 57.354-57.354 0-31.675-25.676-57.354-57.354-57.354"/>
  <path d="m293.08 238.56v54.535h-54.525l-38.561 38.56-38.559-38.56h-54.535v-54.535l-38.56-38.56 38.56-38.559v-54.525h54.535l38.559-38.56 38.561 38.56h54.525v54.525l38.56 38.559zm7.5936-80.263v-58.977h-58.967l-41.702-41.702-0.01 0.0095-0.01-0.0095-41.701 41.702h-58.971v0.0095h-0.0095v58.977l-41.693 41.693v0.01l41.693 41.693v58.977h0.0095v0.01h58.972l41.701 41.702 0.01-0.01 0.01 0.01 41.702-41.702h58.967v-58.977l41.702-41.702v-0.01z"/>
 </g>
 <use id="a" transform="rotate(-72,200,200)" xlink:href="#d"/>
 <g id="c">
  <g id="d">
   <g id="e">
    <g id="f">
     <path id="b" d="m200 142.62c2.0884 0 3.7777-1.6894 3.7777-3.7777v-0.19949l-3.4742-33.298c-0.0186-0.15176-0.1422-0.26582-0.3035-0.26582-0.15174-4e-5 -0.28491 0.12311-0.29446 0.27536l-3.4647 33.165c-9e-3 0.11407-0.0186 0.21858-0.0186 0.3231 0 2.0884 1.6989 3.7777 3.7777 3.7777" fill="#fff"/>
     <use transform="rotate(9,200,200)" xlink:href="#b"/>
    </g>
    <use transform="rotate(18,200,200)" xlink:href="#f"/>
   </g>
   <use transform="rotate(36,200,200)" xlink:href="#e"/>
  </g>
  <use transform="rotate(144,200,200)" xlink:href="#a"/>
 </g>
 <use transform="rotate(144,200,200)" xlink:href="#c"/>
</svg>
