<?xml version="1.0" encoding="UTF-8"?>
<!DOCTYPE svg PUBLIC "-//W3C//DTD SVG 1.1//EN" "http://www.w3.org/Graphics/SVG/1.1/DTD/svg11.dtd">
<!-- Creator: CorelDRAW -->
<svg xmlns="http://www.w3.org/2000/svg" xml:space="preserve" width="451.656mm" height="558.194mm" version="1.1" style="shape-rendering:geometricPrecision; text-rendering:geometricPrecision; image-rendering:optimizeQuality; fill-rule:evenodd; clip-rule:evenodd"
viewBox="0 0 45155.56 55807.08"
 xmlns:xlink="http://www.w3.org/1999/xlink"
 xmlns:xodm="http://www.corel.com/coreldraw/odm/2003">
 <defs>
  <style type="text/css">
   <![CDATA[
    .str0 {stroke:#2B2A29;stroke-width:20;stroke-miterlimit:22.9256}
    .str13 {stroke:#2B2A29;stroke-width:36.05;stroke-miterlimit:22.9256}
    .str25 {stroke:#2B2A29;stroke-width:54.07;stroke-miterlimit:22.9256}
    .str17 {stroke:#2B2A29;stroke-width:54.07;stroke-miterlimit:22.9256}
    .str1 {stroke:#2B2A29;stroke-width:199.96;stroke-miterlimit:22.9256}
    .str4 {stroke:#F0AD04;stroke-width:199.96;stroke-miterlimit:22.9256}
    .str7 {stroke:#1D1D20;stroke-width:199.96;stroke-miterlimit:22.9256}
    .str2 {stroke:#1D1D20;stroke-width:199.96;stroke-miterlimit:22.9256}
    .str5 {stroke:#2B2A29;stroke-width:199.96;stroke-miterlimit:22.9256}
    .str8 {stroke:#1D1D20;stroke-width:199.96;stroke-miterlimit:22.9256}
    .str3 {stroke:#1D1D20;stroke-width:199.96;stroke-miterlimit:22.9256}
    .str10 {stroke:#2B2A29;stroke-width:199.96;stroke-miterlimit:22.9256}
    .str11 {stroke:#1D1D20;stroke-width:199.96;stroke-miterlimit:22.9256}
    .str9 {stroke:#1D1D20;stroke-width:199.96;stroke-miterlimit:22.9256}
    .str6 {stroke:#2B2A29;stroke-width:199.96;stroke-miterlimit:22.9256}
    .str23 {stroke:#2B2A29;stroke-width:64.88;stroke-miterlimit:22.9256}
    .str16 {stroke:#2B2A29;stroke-width:31.93;stroke-miterlimit:22.9256}
    .str26 {stroke:darkgray;stroke-width:36.05;stroke-linejoin:round;stroke-miterlimit:22.9256}
    .str29 {stroke:#5B5B5B;stroke-width:54.07;stroke-linejoin:round;stroke-miterlimit:22.9256}
    .str20 {stroke:#2B2A29;stroke-width:54.07;stroke-linejoin:round;stroke-miterlimit:22.9256}
    .str27 {stroke:#5B5B5B;stroke-width:54.07;stroke-linejoin:round;stroke-miterlimit:22.9256}
    .str24 {stroke:#2B2A29;stroke-width:54.07;stroke-linejoin:round;stroke-miterlimit:22.9256}
    .str28 {stroke:#5B5B5B;stroke-width:54.07;stroke-linejoin:round;stroke-miterlimit:22.9256}
    .str14 {stroke:#2B2A29;stroke-width:54.07;stroke-linejoin:round;stroke-miterlimit:22.9256}
    .str19 {stroke:#2B2A29;stroke-width:28.61;stroke-linejoin:round;stroke-miterlimit:22.9256}
    .str22 {stroke:#2B2A29;stroke-width:64.88;stroke-linejoin:round;stroke-miterlimit:22.9256}
    .str15 {stroke:#2B2A29;stroke-width:31.93;stroke-linejoin:round;stroke-miterlimit:22.9256}
    .str18 {stroke:#2B2A29;stroke-width:63.58;stroke-linejoin:round;stroke-miterlimit:22.9256}
    .str12 {stroke:#2B2A29;stroke-width:63.58;stroke-linejoin:round;stroke-miterlimit:22.9256}
    .str21 {stroke:#2B2A29;stroke-width:63.58;stroke-linejoin:round;stroke-miterlimit:22.9256}
    .fil1 {fill:none}
    .fil13 {fill:#B2B3B3}
    .fil10 {fill:#898989}
    .fil12 {fill:#444343}
    .fil14 {fill:#2B2A29}
    .fil7 {fill:#FFED00}
    .fil3 {fill:#FFED00}
    .fil9 {fill:#F39313}
    .fil5 {fill:#F0AD04}
    .fil11 {fill:#CD2628}
    .fil8 {fill:#D0DEDE}
    .fil6 {fill:#1D1D20}
    .fil0 {fill:#00A0E3}
    .fil2 {fill:#44916C}
    .fil4 {fill:#EEAD09}
   ]]>
  </style>
 </defs>
 <g id="Layer_x0020_1">
  <metadata id="CorelCorpID_0Corel-Layer"/>
  <path class="fil0" d="M22582.78 55807.08c-661.81,-2732.3 -3574.99,-5277.14 -7337.77,-5277.14l-11150.74 0c-2246.35,0 -4084.28,-1837.94 -4084.28,-4084.28l0 -46435.67 45145.56 0 0 46435.67c0,2246.33 -1837.92,4084.28 -4084.28,4084.28l-11150.74 0c-3762.77,0 -6675.95,2544.85 -7337.77,5277.14z"/>
  <line class="fil1 str0" x1="10" y1="40583.8" x2="45155.56" y2= "40583.8" />
  <path class="fil2" d="M45155.56 40583.8l-45145.56 0 0 5861.86c0,2246.33 1837.92,4084.28 4084.28,4084.28l11150.74 0c3762.78,0 6675.95,2544.85 7337.77,5277.14 661.81,-2732.3 3575,-5277.14 7337.77,-5277.14l11150.74 0c2246.35,0 4084.28,-1837.94 4084.28,-4084.28l0 -5861.86z"/>
  <path class="fil1 str1" d="M11447.69 28642.84c2072.79,1093.38 4596.36,1073.51 6669.15,-19.87"/>
  <path class="fil3 str2" d="M11447.69 28642.84c-354.05,414.27 -628.27,979.78 -822.66,1696.54 233.29,160.48 591.45,346.38 1074.48,557.71 120,-906.65 297.54,-1473.53 630.59,-1862.89 -303.01,-110.44 -597.15,-240.9 -882.41,-391.36z"/>
  <path class="fil3 str3" d="M18132.82 28642.84c354.05,414.27 628.27,979.78 822.66,1696.54 -233.29,160.48 -591.45,346.38 -1074.48,557.71 -120,-906.65 -297.54,-1473.53 -630.59,-1862.89 303.01,-110.44 597.15,-240.9 882.41,-391.36z"/>
  <path class="fil3 str2" d="M12331.06 29032.66c301.59,107.58 551.34,183.83 749.24,228.77l0 2086.78c-451.62,-83.28 -911.89,-233.65 -1380.79,-451.12 82.99,-825.08 293.51,-1446.55 631.55,-1864.43z"/>
  <path class="fil4 str4" d="M12077.92 30681.44c212.73,88.64 430.5,165.39 652.47,227.01l0 -1376.52c-88.56,-25.6 -176.79,-53.39 -264.3,-82.41 -216.68,360.36 -328.72,813.43 -388.16,1231.92z"/>
  <path class="fil3 str3" d="M17249.44 29032.66c-301.59,107.58 -551.34,183.83 -749.24,228.77l0 2086.78c451.62,-83.28 911.89,-233.65 1380.79,-451.12 -82.99,-825.08 -293.51,-1446.55 -631.55,-1864.43z"/>
  <path class="fil4 str4" d="M17502.58 30681.44c-59.45,-418.49 -171.48,-871.56 -388.16,-1231.92 -87.51,29.02 -175.74,56.81 -264.3,82.41l0 1376.52c221.96,-61.62 439.73,-138.37 652.47,-227.01z"/>
  <path class="fil3 str2" d="M11085.15 30610.32c359.68,186.07 847.05,402.72 1331.81,569.32l0 2133.59c-510.85,-170.6 -953.81,-374.65 -1328.89,-612.11l-2.92 -2090.8z"/>
  <path class="fil4 str4" d="M11435.85 31167.6l1.86 1335.89c201.89,116.08 413.32,217.44 629.32,306.67l0 -1384.08c-212.1,-78.83 -423.53,-165.41 -631.18,-258.48z"/>
  <path class="fil3 str3" d="M18495.35 30610.32c-359.68,186.07 -847.05,402.72 -1331.81,569.32l0 2133.59c510.85,-170.6 953.81,-374.65 1328.89,-612.11l2.92 -2090.8z"/>
  <path class="fil4 str4" d="M18144.65 31167.6c-207.65,93.07 -419.08,179.65 -631.18,258.48l0 1384.08c216,-89.23 427.44,-190.59 629.32,-306.67l1.86 -1335.89z"/>
  <line class="fil1 str1" x1="11561.66" y1="32963.9" x2="11561.66" y2= "35067.38" />
  <line class="fil1 str5" x1="18018.84" y1="32963.9" x2="18018.84" y2= "35067.38" />
  <line class="fil1 str1" x1="13176.34" y1="33549.45" x2="13176.34" y2= "35573.41" />
  <line class="fil1 str5" x1="16404.16" y1="33549.45" x2="16404.16" y2= "35573.41" />
  <line class="fil1 str1" x1="13924.38" y1="31494.92" x2="13924.38" y2= "33671.28" />
  <line class="fil1 str5" x1="15656.12" y1="31494.92" x2="15656.12" y2= "33671.28" />
  <line class="fil1 str6" x1="15656.12" y1="31494.92" x2="15656.12" y2= "33671.28" />
  <line class="fil1 str1" x1="13924.38" y1="31494.92" x2="13924.38" y2= "33671.28" />
  <path class="fil3 str2" d="M11016.98 40940.19l6.87 -2178.45c463.92,262.49 930.06,485.49 1398.46,669l0 2295.81c-423.22,-144.05 -891.66,-406.17 -1405.33,-786.37z"/>
  <path class="fil5 str4" d="M11367.46 40762.08c221.19,156.85 458.96,308.64 704.92,434.56l0 -1530.12c-237.19,-99.2 -470.73,-206.93 -700.45,-322.34l-4.47 1417.9z"/>
  <path class="fil3 str3" d="M18563.52 40940.19l-6.87 -2178.45c-463.92,262.49 -930.06,485.49 -1398.46,669l0 2295.81c423.22,-144.05 891.66,-406.17 1405.33,-786.37z"/>
  <path class="fil5 str4" d="M18213.04 40762.08l-4.47 -1417.9c-229.73,115.4 -463.27,223.14 -700.45,322.34l0 1530.12c245.97,-125.92 483.73,-277.72 704.92,-434.56z"/>
  <path class="fil6 str2" d="M13924.38 33671.28c573.13,85.47 1158.61,85.47 1731.75,0 15.47,-1524.84 -1747.21,-1524.94 -1731.75,0z"/>
  <line class="fil1 str1" x1="14790.23" y1="31542.64" x2="14790.23" y2= "29462.81" />
  <line class="fil1 str5" x1="14790.28" y1="31542.64" x2="14790.28" y2= "29462.81" />
  <line class="fil1 str1" x1="14790.23" y1="33735.38" x2="14790.23" y2= "35776.8" />
  <line class="fil1 str5" x1="14790.28" y1="33735.38" x2="14790.28" y2= "35776.8" />
  <path class="fil7 str7" d="M12330.1 29034.2c501.25,-801.94 1193.55,-1465.91 2076.91,-1991.89 -1193.39,107.3 -2249.52,710.49 -2959.32,1600.53 287.07,151.43 581.93,281.88 882.41,391.36z"/>
  <path class="fil7 str7" d="M14407.01 27042.31c-883.36,525.98 -1575.66,1189.95 -2076.91,1991.89 246.68,89.88 497.14,165.61 750.2,227.23 254.35,61.92 511.33,109.57 769.72,142.94 133.29,-831.03 393.8,-1623.12 781.55,-2376.28 -75.35,2.78 -150.23,7.54 -224.56,14.23z"/>
  <path class="fil4 str4" d="M13566.77 29006.73c83.39,-409.5 197.26,-809.98 340.94,-1200.39 -385.2,301.7 -729.77,646.99 -1025.06,1040.41 92.93,26.9 186.43,51.81 280.43,74.69 133.66,32.54 268.3,60.99 403.69,85.29z"/>
  <path class="fil7 str7" d="M14631.57 27028.09c-387.74,753.16 -648.26,1545.26 -781.55,2376.28 312.05,40.3 626.16,59.78 940.2,58.44 313.77,-1.34 627.47,-23.46 938.97,-66.37 -133.67,-828.14 -393.75,-1617.59 -780.27,-2368.36 -52.67,-1.95 -105.58,-2.93 -158.71,-2.93 -53.11,0 -106,0.98 -158.64,2.93z"/>
  <path class="fil4 str4" d="M14790.26 27501.41c-234.73,511.22 -410.97,1043.1 -527,1593.26 174.83,12.89 350.16,18.97 525.48,18.22 176.06,-0.75 352.07,-8.39 527.52,-22.88 -116.04,-548.52 -291.96,-1078.85 -526,-1588.59z"/>
  <path class="fil7 str7" d="M14948.93 27028.09c386.51,750.76 646.6,1540.22 780.27,2368.36 512.37,-70.57 1018.78,-197.38 1509.8,-380.42 -500.33,-793.8 -1188.82,-1451.71 -2065.5,-1973.71 -74.33,-6.68 -149.21,-11.44 -224.56,-14.23z"/>
  <path class="fil4 str4" d="M16011.52 28995.95c227.76,-42.98 453.22,-97.67 675.32,-163.83 -292.9,-387.43 -633.71,-727.89 -1014.06,-1025.78 142.43,386.97 255.55,783.87 338.74,1189.62z"/>
  <path class="fil7 str7" d="M15173.49 27042.31c875.74,521.43 1563.68,1178.48 2063.87,1971.13 300.13,-109.74 594.08,-239.93 879.48,-390.47 -709.61,-879.12 -1758.88,-1474.15 -2943.35,-1580.66z"/>
  <path class="fil7 str7" d="M15656.12 31498.84c-575.29,65.51 -1156.31,66.34 -1731.75,2.49l0 2130.29c15.11,-1472.04 1716.64,-1471.94 1731.75,0l0 -2132.78z"/>
  <path class="fil4 str4" d="M15306.2 31881.35c-343.52,22.38 -688.32,22.85 -1031.9,1.41l0 422.56c323.97,-166.27 707.93,-166.27 1031.9,0.02l0 -423.99z"/>
  <path class="fil7 str7" d="M11561.66 35007.2l0 -2043.3c-362.16,-183.34 -712.31,-399.43 -1046.17,-648.29l0 2043.3c190.39,141.92 386.08,273.18 586.28,393.79 150.86,90.88 304.26,175.71 459.89,254.49z"/>
  <path class="fil4 str4" d="M11211.74 34409.85l0 -1234.41c-117.21,-63.67 -232.7,-130.46 -346.32,-200.27l0 1205.37c113.08,79.92 228.59,156.41 346.32,229.3z"/>
  <path class="fil7 str8" d="M18018.84 35007.2l0 -2043.3c362.16,-183.34 712.31,-399.43 1046.17,-648.29l0 2043.3c-190.39,141.92 -386.08,273.18 -586.28,393.79 -150.86,90.88 -304.26,175.71 -459.89,254.49z"/>
  <path class="fil4 str4" d="M18368.76 34409.85c117.73,-72.89 233.24,-149.38 346.32,-229.3l0 -1205.37c-113.62,69.8 -229.11,136.6 -346.32,200.27l0 1234.41z"/>
  <path class="fil3 str2" d="M14790.23 29462.81c0,1464.78 0,2158.05 0,2079.83 -552.9,13.04 -1122.87,-51.77 -1709.92,-194.43 0,-1391.18 0,-2086.78 0,-2086.78 572.4,137.72 1142.38,204.84 1709.92,201.38z"/>
  <path class="fil4 str4" d="M14440.3 29806.22c-339.01,-14.56 -676.28,-52.91 -1010.08,-113.47 0,458.33 0,916.66 0,1374.98 333.1,67.4 670.64,110.03 1010.08,122.67 0,-461.39 0,-922.79 0,-1384.17z"/>
  <path class="fil3 str3" d="M14790.28 29462.81c0,1464.78 0,2158.05 0,2079.83 552.9,13.04 1122.87,-51.77 1709.92,-194.43 0,-1391.18 0,-2086.78 0,-2086.78 -572.4,137.72 -1142.38,204.84 -1709.92,201.38z"/>
  <path class="fil4 str4" d="M15140.2 29806.22c0,461.39 0,922.79 0,1384.17 339.43,-12.65 676.98,-55.28 1010.08,-122.67 0,-458.32 0,-916.65 0,-1374.98 -333.8,60.57 -671.06,98.92 -1010.08,113.47z"/>
  <path class="fil7 str7" d="M11088.07 32701.12l-2.92 -2090.8c-142.74,-60.96 -296.18,-159.76 -460.36,-269.92 -71.49,308.68 -109.3,629.88 -109.3,959.49l0 1015.73c186.04,138.68 377.15,267.18 572.57,385.5z"/>
  <path class="fil7 str8" d="M18492.44 32701.12l2.92 -2090.8c142.74,-60.96 296.18,-159.76 460.36,-269.92 71.49,308.68 109.3,629.88 109.3,959.49l0 1015.73c-186.04,138.68 -377.15,267.18 -572.57,385.5z"/>
  <path class="fil3 str2" d="M13924.38 31494.92l0 2176.37c-507.01,-45.96 -1009.48,-165.3 -1507.43,-358.05 0,0 0.5,-711.03 1.51,-2133.11 522.33,153.11 1024.3,258.03 1505.92,314.79z"/>
  <path class="fil4 str4" d="M13574.45 31800.13c-270.98,-42.21 -540.03,-97.32 -806.36,-163.09 -0.27,477.04 -0.49,954.09 -0.96,1431.13 263.73,89.4 533.17,158.48 807.32,204.98l0 -1473.02z"/>
  <path class="fil3 str3" d="M15656.12 31494.92l0 2176.37c507.01,-45.96 1009.48,-165.3 1507.43,-358.05 0,0 -0.5,-711.03 -1.51,-2133.11 -522.33,153.11 -1024.3,258.03 -1505.92,314.79z"/>
  <path class="fil4 str4" d="M16006.05 31800.13l0 1473.02c274.15,-46.5 543.59,-115.58 807.32,-204.98 -0.47,-477.04 -0.69,-954.09 -0.96,-1431.13 -266.33,65.78 -535.38,120.88 -806.36,163.09z"/>
  <path class="fil3 str2" d="M11561.66 35007.2c586.34,292.64 1124.57,481.37 1614.68,566.21l0 -2023.96c-487.86,-104.83 -1026.09,-299.46 -1614.68,-583.89l0 2041.64z"/>
  <path class="fil4 str4" d="M11911.58 34787.76c293.37,137.2 601.32,259.36 914.84,347.34l0 -1310.43c-310.58,-83.38 -616.79,-192.56 -914.84,-317.2l0 1280.29z"/>
  <path class="fil3 str3" d="M18018.84 35007.2c-586.34,292.64 -1124.57,481.37 -1614.68,566.21l0 -2023.96c487.86,-104.83 1026.09,-299.46 1614.68,-583.89l0 2041.64z"/>
  <path class="fil4 str4" d="M17668.92 34787.76l0 -1280.29c-298.04,124.64 -604.26,233.82 -914.84,317.2l0 1310.43c313.52,-87.98 621.47,-210.14 914.84,-347.34z"/>
  <path class="fil3 str2" d="M13176.34 35573.41c500.72,138.62 1038.68,206.41 1613.88,203.38l0 -2041.42c-389.88,10.47 -952.6,-52.83 -1613.88,-185.93l0 2023.96z"/>
  <path class="fil4 str4" d="M13526.27 35299.76c300.57,66.03 606.63,104.38 914.04,119.56l0 -1339.54c-301.69,-15.79 -614,-57.43 -914.04,-108.8l0 1328.78z"/>
  <path class="fil3 str3" d="M16404.16 35573.41c-500.72,138.62 -1038.68,206.41 -1613.88,203.38l0 -2041.42c389.88,10.47 952.6,-52.83 1613.88,-185.93l0 2023.96z"/>
  <path class="fil4 str4" d="M16054.24 35299.76l0 -1328.78c-300.03,51.37 -612.34,93.01 -914.04,108.8l0 1339.54c307.41,-15.19 613.46,-53.54 914.04,-119.56z"/>
  <path class="fil3 str2" d="M11126.43 34767.49l-24.65 2015.77c-162.09,-92.96 -357.52,-223.47 -586.28,-391.55l0 -2032.8c242.4,176.64 446.04,312.83 610.93,408.58z"/>
  <path class="fil3 str3" d="M18454.07 34767.49l24.65 2015.77c162.09,-92.96 357.52,-223.47 586.28,-391.55l0 -2032.8c-242.4,176.64 -446.04,312.83 -610.93,408.58z"/>
  <path class="fil3 str2" d="M12353.67 37382.41l0 -2032.79c-418.77,-150.83 -827.85,-344.87 -1227.25,-582.13l-24.65 2015.77c401.87,243.76 819.18,443.47 1251.9,599.15z"/>
  <path class="fil4 str4" d="M12003.75 36863.6l0 -1272.66c-181.34,-72.5 -359.59,-152.33 -534.52,-238.93l-15.08 1232.37c178.91,101.52 362.23,194.77 549.6,279.22z"/>
  <path class="fil3 str3" d="M17226.83 37382.41l0 -2032.79c418.77,-150.83 827.85,-344.87 1227.25,-582.13l24.65 2015.77c-401.87,243.76 -819.18,443.47 -1251.9,599.15z"/>
  <path class="fil4 str4" d="M17576.75 36863.6c187.37,-84.45 370.69,-177.7 549.6,-279.22l-15.08 -1232.37c-174.93,86.6 -353.18,166.42 -534.52,238.93l0 1272.66z"/>
  <path class="fil3 str2" d="M13878.02 37740.13l0 -2021.59c-429.41,-68.37 -937.53,-191.35 -1524.34,-368.92l0 2032.79c526.51,190.45 1034.62,309.69 1524.34,357.72z"/>
  <path class="fil4 str4" d="M13528.09 37339.32l0 -1327.73c-276.42,-54.22 -552.13,-121.67 -824.5,-196.44l0 1317.34c269.77,87.28 545.26,158.02 824.5,206.82z"/>
  <path class="fil3 str3" d="M15702.48 37740.13l0 -2021.59c429.41,-68.37 937.53,-191.35 1524.34,-368.92l0 2032.79c-526.51,190.45 -1034.62,309.69 -1524.34,357.72z"/>
  <path class="fil4 str4" d="M16052.41 37339.32c279.24,-48.81 554.73,-119.54 824.5,-206.82l0 -1317.34c-272.37,74.76 -548.08,142.22 -824.5,196.44l0 1327.73z"/>
  <path class="fil3 str2" d="M14790.23 37809.6c-332.26,2.23 -636.33,-20.93 -912.21,-69.46l0 -2021.59c324.31,40.11 630,59.53 913.2,58.26 283.2,1.27 586.96,-18.15 911.27,-58.26l0 2021.59c-275.88,48.54 -580,71.69 -912.26,69.46z"/>
  <path class="fil4 str4" d="M15352.56 37434.72l0 -1329.64c-186.79,14.13 -374.08,21.64 -561.35,21.64 -187.85,0 -375.83,-7.51 -563.28,-21.67l0 1329.67c186.96,18.46 375.77,24.95 562.29,24.95 186.54,0 375.36,-6.5 562.34,-24.95z"/>
  <path class="fil3 str2" d="M10515.49 38452.07c333.76,215.42 677.16,412.52 1030.21,591.31l0 -2011.48c-379.84,-196.11 -723.24,-409.5 -1030.21,-640.18l0 2060.35z"/>
  <path class="fil5 str4" d="M10865.41 38259.51c108.98,67.73 219.11,133.55 330.37,197.44l0 -1214.87c-111.58,-61.14 -221.8,-124.82 -330.37,-191.21l0 1208.64z"/>
  <path class="fil3 str3" d="M19065.01 38452.07c-333.76,215.42 -677.16,412.52 -1030.21,591.31l0 -2011.48c379.84,-196.11 723.24,-409.5 1030.21,-640.18l0 2060.35z"/>
  <path class="fil4 str4" d="M18715.09 38259.51l0 -1208.64c-108.57,66.39 -218.79,130.07 -330.37,191.21l0 1214.87c111.26,-63.89 221.39,-129.71 330.37,-197.44z"/>
  <path class="fil3 str2" d="M11545.7 39043.38c552.44,264.76 1082.78,474.44 1550.48,585.46l-8.92 -2024.49c-439.14,-97.22 -953,-288.04 -1541.56,-572.45l0 2011.48z"/>
  <path class="fil4 str4" d="M11895.63 38821.25c273.66,126.03 559.92,246.09 848.58,342.53l-5.67 -1286.6c-284.93,-80.12 -567.93,-184.78 -842.91,-301.5l0 1245.56z"/>
  <path class="fil3 str3" d="M18034.8 39043.38c-552.44,264.76 -1082.78,474.44 -1550.48,585.46l8.92 -2024.49c439.14,-97.22 953,-288.04 1541.56,-572.45l0 2011.48z"/>
  <path class="fil4 str4" d="M17684.87 38821.25l0 -1245.56c-274.98,116.72 -557.99,221.38 -842.91,301.5l-5.67 1286.6c288.67,-96.45 574.92,-216.5 848.58,-342.53z"/>
  <path class="fil3 str2" d="M13087.26 39620.87c532.13,140.68 1099.79,211.54 1702.96,212.59l0 -2023.86c-562.84,-9.38 -1130.49,-77.8 -1702.96,-205.25l0 2016.52z"/>
  <path class="fil4 str4" d="M13437.18 39344.85c330.23,70.79 665.83,112.52 1003.12,129.61l0 -1327.77c-336.4,-19.36 -671.19,-58.62 -1003.12,-116.33l0 1314.49z"/>
  <path class="fil3 str3" d="M16493.24 39620.87c-532.13,140.68 -1099.79,211.54 -1702.96,212.59l0 -2023.86c562.84,-9.38 1130.49,-77.8 1702.96,-205.25l0 2016.52z"/>
  <path class="fil4 str4" d="M16143.32 39344.85l0 -1314.49c-331.93,57.72 -666.72,96.98 -1003.12,116.33l0 1327.77c337.29,-17.1 672.89,-58.82 1003.12,-129.61z"/>
  <path class="fil3 str2" d="M11016.98 40940.19l6.87 -2178.45c-169.03,-96.91 -338.49,-200.13 -508.36,-309.67l0 2063.83c177.64,165.13 344.8,306.56 501.49,424.29z"/>
  <path class="fil3 str3" d="M18563.52 40940.19l-6.87 -2178.45c169.03,-96.91 338.49,-200.13 508.36,-309.67l0 2063.83c-177.64,165.13 -344.8,306.56 -501.49,424.29z"/>
  <path class="fil3 str2" d="M13892.47 42134.71l0 -2357.67c-486.04,-67.47 -976.09,-182.9 -1470.16,-346.3l0 2295.81c521.53,226.39 1011.6,362.45 1470.16,408.16z"/>
  <path class="fil5 str4" d="M13542.55 41726.69l0 -1650.77c-259.34,-45.99 -516.32,-104.37 -770.32,-173.93l0 1590.56c249.44,97.66 507.75,179.26 770.32,234.15z"/>
  <path class="fil3 str3" d="M15688.03 42134.71l0 -2357.67c486.04,-67.47 976.09,-182.9 1470.16,-346.3l0 2295.81c-521.53,226.39 -1011.6,362.45 -1470.16,408.16z"/>
  <path class="fil5 str4" d="M16037.95 41726.69c262.57,-54.89 520.87,-136.49 770.32,-234.15l0 -1590.56c-254,69.56 -510.98,127.94 -770.32,173.93l0 1650.77z"/>
  <path class="fil3 str2" d="M14790.23 42208.86c-279.16,4.42 -578.4,-20.31 -897.75,-74.15l0 -2357.67c351.71,40.51 651.02,59.32 897.8,56.42 246.79,2.9 546.04,-15.91 897.75,-56.42l0 2357.67c-319.35,53.85 -618.64,78.57 -897.8,74.15z"/>
  <path class="fil5 str4" d="M15338.1 41830.97l0 -1668c-182.72,14.23 -366.21,22.42 -547.83,20.44 -181.64,1.98 -365.14,-6.21 -547.88,-20.44l0 1668c180.1,20.38 361.5,30.88 542.29,28.01l5.54 -0.08 5.54 0.08c180.81,2.87 362.22,-7.64 542.34,-28.01z"/>
  <path class="fil1 str1" d="M27136.53 28642.84c2072.79,1093.38 4596.36,1073.51 6669.15,-19.87"/>
  <path class="fil3 str2" d="M27136.53 28642.84c-354.05,414.27 -628.27,979.78 -822.66,1696.54 233.29,160.48 591.45,346.38 1074.48,557.71 120,-906.65 297.54,-1473.53 630.59,-1862.89 -303.01,-110.44 -597.15,-240.9 -882.41,-391.36z"/>
  <path class="fil3 str9" d="M33821.66 28642.84c354.05,414.27 628.27,979.78 822.66,1696.54 -233.29,160.48 -591.45,346.38 -1074.48,557.71 -120,-906.65 -297.54,-1473.53 -630.59,-1862.89 303.01,-110.44 597.15,-240.9 882.41,-391.36z"/>
  <path class="fil3 str2" d="M28019.91 29032.66c301.59,107.58 551.34,183.83 749.24,228.77l0 2086.78c-451.62,-83.28 -911.89,-233.65 -1380.79,-451.12 82.99,-825.08 293.51,-1446.55 631.55,-1864.43z"/>
  <path class="fil4 str4" d="M27766.76 30681.44c212.73,88.64 430.5,165.39 652.47,227.01l0 -1376.52c-88.56,-25.6 -176.79,-53.39 -264.3,-82.41 -216.68,360.36 -328.72,813.43 -388.16,1231.92z"/>
  <path class="fil3 str9" d="M32938.29 29032.66c-301.59,107.58 -551.34,183.83 -749.24,228.77l0 2086.78c451.62,-83.28 911.89,-233.65 1380.79,-451.12 -82.99,-825.08 -293.51,-1446.55 -631.55,-1864.43z"/>
  <path class="fil4 str4" d="M33191.43 30681.44c-59.45,-418.49 -171.48,-871.56 -388.16,-1231.92 -87.51,29.02 -175.74,56.81 -264.3,82.41l0 1376.52c221.96,-61.62 439.73,-138.37 652.47,-227.01z"/>
  <path class="fil3 str2" d="M26773.99 30610.32c359.68,186.07 847.05,402.72 1331.81,569.32l0 2133.59c-510.85,-170.6 -953.81,-374.65 -1328.89,-612.11l-2.92 -2090.8z"/>
  <path class="fil4 str4" d="M27124.69 31167.6l1.86 1335.89c201.89,116.08 413.32,217.44 629.32,306.67l0 -1384.08c-212.1,-78.83 -423.53,-165.41 -631.18,-258.48z"/>
  <path class="fil3 str9" d="M34184.2 30610.32c-359.68,186.07 -847.05,402.72 -1331.81,569.32l0 2133.59c510.85,-170.6 953.81,-374.65 1328.89,-612.11l2.92 -2090.8z"/>
  <path class="fil4 str4" d="M33833.5 31167.6c-207.65,93.07 -419.08,179.65 -631.18,258.48l0 1384.08c216,-89.23 427.44,-190.59 629.32,-306.67l1.86 -1335.89z"/>
  <line class="fil1 str1" x1="27250.51" y1="32963.9" x2="27250.51" y2= "35067.38" />
  <line class="fil1 str10" x1="33707.69" y1="32963.9" x2="33707.69" y2= "35067.38" />
  <line class="fil1 str1" x1="28865.19" y1="33549.45" x2="28865.19" y2= "35573.41" />
  <line class="fil1 str10" x1="32093" y1="33549.45" x2="32093" y2= "35573.41" />
  <line class="fil1 str1" x1="29613.22" y1="31494.92" x2="29613.22" y2= "33671.28" />
  <line class="fil1 str10" x1="31344.97" y1="31494.92" x2="31344.97" y2= "33671.28" />
  <line class="fil1 str10" x1="31344.97" y1="31494.92" x2="31344.97" y2= "33671.28" />
  <line class="fil1 str1" x1="29613.22" y1="31494.92" x2="29613.22" y2= "33671.28" />
  <path class="fil3 str2" d="M26705.83 40940.19l6.87 -2178.45c463.92,262.49 930.06,485.49 1398.46,669l0 2295.81c-423.22,-144.05 -891.66,-406.17 -1405.33,-786.37z"/>
  <path class="fil5 str4" d="M27056.31 40762.08c221.19,156.85 458.96,308.64 704.92,434.56l0 -1530.12c-237.19,-99.2 -470.73,-206.93 -700.45,-322.34l-4.47 1417.9z"/>
  <path class="fil3 str9" d="M34252.37 40940.19l-6.87 -2178.45c-463.92,262.49 -930.06,485.49 -1398.46,669l0 2295.81c423.22,-144.05 891.66,-406.17 1405.33,-786.37z"/>
  <path class="fil5 str4" d="M33901.88 40762.08l-4.47 -1417.9c-229.73,115.4 -463.27,223.14 -700.45,322.34l0 1530.12c245.97,-125.92 483.73,-277.72 704.92,-434.56z"/>
  <path class="fil6 str2" d="M29613.22 33671.28c573.13,85.47 1158.61,85.47 1731.75,0 15.47,-1524.84 -1747.21,-1524.94 -1731.75,0z"/>
  <line class="fil1 str1" x1="30479.07" y1="31542.64" x2="30479.07" y2= "29462.81" />
  <line class="fil1 str10" x1="30479.12" y1="31542.64" x2="30479.12" y2= "29462.81" />
  <line class="fil1 str1" x1="30479.07" y1="33735.38" x2="30479.07" y2= "35776.8" />
  <line class="fil1 str10" x1="30479.12" y1="33735.38" x2="30479.12" y2= "35776.8" />
  <path class="fil7 str7" d="M28018.95 29034.2c501.25,-801.94 1193.55,-1465.91 2076.91,-1991.89 -1193.39,107.3 -2249.52,710.49 -2959.32,1600.53 287.07,151.43 581.93,281.88 882.41,391.36z"/>
  <path class="fil7 str7" d="M30095.86 27042.31c-883.36,525.98 -1575.66,1189.95 -2076.91,1991.89 246.68,89.88 497.14,165.61 750.2,227.23 254.35,61.92 511.33,109.57 769.72,142.94 133.29,-831.03 393.8,-1623.12 781.55,-2376.28 -75.35,2.78 -150.23,7.54 -224.56,14.23z"/>
  <path class="fil4 str4" d="M29255.61 29006.73c83.39,-409.5 197.26,-809.98 340.94,-1200.39 -385.2,301.7 -729.77,646.99 -1025.06,1040.41 92.93,26.9 186.43,51.81 280.43,74.69 133.66,32.54 268.3,60.99 403.69,85.29z"/>
  <path class="fil7 str7" d="M30320.42 27028.09c-387.74,753.16 -648.26,1545.26 -781.55,2376.28 312.05,40.3 626.16,59.78 940.2,58.44 313.77,-1.34 627.47,-23.46 938.97,-66.37 -133.67,-828.14 -393.75,-1617.59 -780.27,-2368.36 -52.67,-1.95 -105.58,-2.93 -158.71,-2.93 -53.11,0 -106,0.98 -158.64,2.93z"/>
  <path class="fil4 str4" d="M30479.1 27501.41c-234.73,511.22 -410.97,1043.1 -527,1593.26 174.83,12.89 350.16,18.97 525.48,18.22 176.06,-0.75 352.07,-8.39 527.52,-22.88 -116.04,-548.52 -291.96,-1078.85 -526,-1588.59z"/>
  <path class="fil7 str7" d="M30637.78 27028.09c386.51,750.76 646.6,1540.22 780.27,2368.36 512.37,-70.57 1018.78,-197.38 1509.8,-380.42 -500.33,-793.8 -1188.82,-1451.71 -2065.5,-1973.71 -74.33,-6.68 -149.21,-11.44 -224.56,-14.23z"/>
  <path class="fil4 str4" d="M31700.37 28995.95c227.76,-42.98 453.22,-97.67 675.32,-163.83 -292.9,-387.43 -633.71,-727.89 -1014.06,-1025.78 142.43,386.97 255.55,783.87 338.74,1189.62z"/>
  <path class="fil7 str7" d="M30862.34 27042.31c875.74,521.43 1563.68,1178.48 2063.87,1971.13 300.13,-109.74 594.08,-239.93 879.48,-390.47 -709.61,-879.12 -1758.88,-1474.15 -2943.35,-1580.66z"/>
  <path class="fil7 str7" d="M31344.97 31498.84c-575.29,65.51 -1156.31,66.34 -1731.75,2.49l0 2130.29c15.11,-1472.04 1716.64,-1471.94 1731.75,0l0 -2132.78z"/>
  <path class="fil4 str4" d="M30995.05 31881.35c-343.52,22.38 -688.32,22.85 -1031.9,1.41l0 422.56c323.97,-166.27 707.93,-166.27 1031.9,0.02l0 -423.99z"/>
  <path class="fil7 str7" d="M27250.51 35007.2l0 -2043.3c-362.16,-183.34 -712.31,-399.43 -1046.17,-648.29l0 2043.3c190.39,141.92 386.08,273.18 586.28,393.79 150.86,90.88 304.26,175.71 459.89,254.49z"/>
  <path class="fil4 str4" d="M26900.58 34409.85l0 -1234.41c-117.21,-63.67 -232.7,-130.46 -346.32,-200.27l0 1205.37c113.08,79.92 228.59,156.41 346.32,229.3z"/>
  <path class="fil7 str11" d="M33707.69 35007.2l0 -2043.3c362.16,-183.34 712.31,-399.43 1046.17,-648.29l0 2043.3c-190.39,141.92 -386.08,273.18 -586.28,393.79 -150.86,90.88 -304.26,175.71 -459.89,254.49z"/>
  <path class="fil4 str4" d="M34057.61 34409.85c117.73,-72.89 233.24,-149.38 346.32,-229.3l0 -1205.37c-113.62,69.8 -229.11,136.6 -346.32,200.27l0 1234.41z"/>
  <path class="fil3 str2" d="M30479.07 29462.81c0,1464.78 0,2158.05 0,2079.83 -552.9,13.04 -1122.87,-51.77 -1709.92,-194.43 0,-1391.18 0,-2086.78 0,-2086.78 572.4,137.72 1142.38,204.84 1709.92,201.38z"/>
  <path class="fil4 str4" d="M30129.15 29806.22c-339.01,-14.56 -676.28,-52.91 -1010.08,-113.47 0,458.33 0,916.66 0,1374.98 333.1,67.4 670.64,110.03 1010.08,122.67 0,-461.39 0,-922.79 0,-1384.17z"/>
  <path class="fil3 str9" d="M30479.12 29462.81c0,1464.78 0,2158.05 0,2079.83 552.9,13.04 1122.87,-51.77 1709.92,-194.43 0,-1391.18 0,-2086.78 0,-2086.78 -572.4,137.72 -1142.38,204.84 -1709.92,201.38z"/>
  <path class="fil4 str4" d="M30829.04 29806.22c0,461.39 0,922.79 0,1384.17 339.43,-12.65 676.98,-55.28 1010.08,-122.67 0,-458.32 0,-916.65 0,-1374.98 -333.8,60.57 -671.06,98.92 -1010.08,113.47z"/>
  <path class="fil7 str7" d="M26776.91 32701.12l-2.92 -2090.8c-142.74,-60.96 -296.18,-159.76 -460.36,-269.92 -71.49,308.68 -109.3,629.88 -109.3,959.49l0 1015.73c186.04,138.68 377.15,267.18 572.57,385.5z"/>
  <path class="fil7 str11" d="M34181.28 32701.12l2.92 -2090.8c142.74,-60.96 296.18,-159.76 460.36,-269.92 71.49,308.68 109.3,629.88 109.3,959.49l0 1015.73c-186.04,138.68 -377.15,267.18 -572.57,385.5z"/>
  <path class="fil3 str2" d="M29613.22 31494.92l0 2176.37c-507.01,-45.96 -1009.48,-165.3 -1507.43,-358.05 0,0 0.5,-711.03 1.51,-2133.11 522.33,153.11 1024.3,258.03 1505.92,314.79z"/>
  <path class="fil4 str4" d="M29263.3 31800.13c-270.98,-42.21 -540.03,-97.32 -806.36,-163.09 -0.27,477.04 -0.49,954.09 -0.96,1431.13 263.73,89.4 533.17,158.48 807.32,204.98l0 -1473.02z"/>
  <path class="fil3 str9" d="M31344.97 31494.92l0 2176.37c507.01,-45.96 1009.48,-165.3 1507.43,-358.05 0,0 -0.5,-711.03 -1.51,-2133.11 -522.33,153.11 -1024.3,258.03 -1505.92,314.79z"/>
  <path class="fil4 str4" d="M31694.89 31800.13l0 1473.02c274.15,-46.5 543.59,-115.58 807.32,-204.98 -0.47,-477.04 -0.69,-954.09 -0.96,-1431.13 -266.33,65.78 -535.38,120.88 -806.36,163.09z"/>
  <path class="fil3 str2" d="M27250.51 35007.2c586.34,292.64 1124.57,481.37 1614.68,566.21l0 -2023.96c-487.86,-104.83 -1026.09,-299.46 -1614.68,-583.89l0 2041.64z"/>
  <path class="fil4 str4" d="M27600.43 34787.76c293.37,137.2 601.32,259.36 914.84,347.34l0 -1310.43c-310.58,-83.38 -616.79,-192.56 -914.84,-317.2l0 1280.29z"/>
  <path class="fil3 str9" d="M33707.69 35007.2c-586.34,292.64 -1124.57,481.37 -1614.68,566.21l0 -2023.96c487.86,-104.83 1026.09,-299.46 1614.68,-583.89l0 2041.64z"/>
  <path class="fil4 str4" d="M33357.76 34787.76l0 -1280.29c-298.04,124.64 -604.26,233.82 -914.84,317.2l0 1310.43c313.52,-87.98 621.47,-210.14 914.84,-347.34z"/>
  <path class="fil3 str2" d="M28865.19 35573.41c500.72,138.62 1038.68,206.41 1613.88,203.38l0 -2041.42c-389.88,10.47 -952.6,-52.83 -1613.88,-185.93l0 2023.96z"/>
  <path class="fil4 str4" d="M29215.11 35299.76c300.57,66.03 606.63,104.38 914.04,119.56l0 -1339.54c-301.69,-15.79 -614,-57.43 -914.04,-108.8l0 1328.78z"/>
  <path class="fil3 str9" d="M32093 35573.41c-500.72,138.62 -1038.68,206.41 -1613.88,203.38l0 -2041.42c389.88,10.47 952.6,-52.83 1613.88,-185.93l0 2023.96z"/>
  <path class="fil4 str4" d="M31743.08 35299.76l0 -1328.78c-300.03,51.37 -612.34,93.01 -914.04,108.8l0 1339.54c307.41,-15.19 613.46,-53.54 914.04,-119.56z"/>
  <path class="fil3 str2" d="M26815.27 34767.49l-24.65 2015.77c-162.09,-92.96 -357.52,-223.47 -586.28,-391.55l0 -2032.8c242.4,176.64 446.04,312.83 610.93,408.58z"/>
  <path class="fil3 str9" d="M34142.92 34767.49l24.65 2015.77c162.09,-92.96 357.52,-223.47 586.28,-391.55l0 -2032.8c-242.4,176.64 -446.04,312.83 -610.93,408.58z"/>
  <path class="fil3 str2" d="M28042.52 37382.41l0 -2032.79c-418.77,-150.83 -827.85,-344.87 -1227.25,-582.13l-24.65 2015.77c401.87,243.76 819.18,443.47 1251.9,599.15z"/>
  <path class="fil4 str4" d="M27692.6 36863.6l0 -1272.66c-181.34,-72.5 -359.59,-152.33 -534.52,-238.93l-15.08 1232.37c178.91,101.52 362.23,194.77 549.6,279.22z"/>
  <path class="fil3 str9" d="M32915.67 37382.41l0 -2032.79c418.77,-150.83 827.85,-344.87 1227.25,-582.13l24.65 2015.77c-401.87,243.76 -819.18,443.47 -1251.9,599.15z"/>
  <path class="fil4 str4" d="M33265.59 36863.6c187.37,-84.45 370.69,-177.7 549.6,-279.22l-15.08 -1232.37c-174.93,86.6 -353.18,166.42 -534.52,238.93l0 1272.66z"/>
  <path class="fil3 str2" d="M29566.86 37740.13l0 -2021.59c-429.41,-68.37 -937.53,-191.35 -1524.34,-368.92l0 2032.79c526.51,190.45 1034.62,309.69 1524.34,357.72z"/>
  <path class="fil4 str4" d="M29216.94 37339.32l0 -1327.73c-276.42,-54.22 -552.13,-121.67 -824.5,-196.44l0 1317.34c269.77,87.28 545.26,158.02 824.5,206.82z"/>
  <path class="fil3 str9" d="M31391.33 37740.13l0 -2021.59c429.41,-68.37 937.53,-191.35 1524.34,-368.92l0 2032.79c-526.51,190.45 -1034.62,309.69 -1524.34,357.72z"/>
  <path class="fil4 str4" d="M31741.25 37339.32c279.24,-48.81 554.73,-119.54 824.5,-206.82l0 -1317.34c-272.37,74.76 -548.08,142.22 -824.5,196.44l0 1327.73z"/>
  <path class="fil3 str2" d="M30479.07 37809.6c-332.26,2.23 -636.33,-20.93 -912.21,-69.46l0 -2021.59c324.31,40.11 630,59.53 913.2,58.26 283.2,1.27 586.96,-18.15 911.27,-58.26l0 2021.59c-275.88,48.54 -580,71.69 -912.26,69.46z"/>
  <path class="fil4 str4" d="M31041.41 37434.72l0 -1329.64c-186.79,14.13 -374.08,21.64 -561.35,21.64 -187.85,0 -375.83,-7.51 -563.28,-21.67l0 1329.67c186.96,18.46 375.77,24.95 562.29,24.95 186.54,0 375.36,-6.5 562.34,-24.95z"/>
  <path class="fil3 str2" d="M26204.34 38452.07c333.76,215.42 677.16,412.52 1030.21,591.31l0 -2011.48c-379.84,-196.11 -723.24,-409.5 -1030.21,-640.18l0 2060.35z"/>
  <path class="fil5 str4" d="M26554.26 38259.51c108.98,67.73 219.11,133.55 330.37,197.44l0 -1214.87c-111.58,-61.14 -221.8,-124.82 -330.37,-191.21l0 1208.64z"/>
  <path class="fil3 str9" d="M34753.86 38452.07c-333.76,215.42 -677.16,412.52 -1030.21,591.31l0 -2011.48c379.84,-196.11 723.24,-409.5 1030.21,-640.18l0 2060.35z"/>
  <path class="fil4 str4" d="M34403.93 38259.51l0 -1208.64c-108.57,66.39 -218.79,130.07 -330.37,191.21l0 1214.87c111.26,-63.89 221.39,-129.71 330.37,-197.44z"/>
  <path class="fil3 str2" d="M27234.55 39043.38c552.44,264.76 1082.78,474.44 1550.48,585.46l-8.92 -2024.49c-439.14,-97.22 -953,-288.04 -1541.56,-572.45l0 2011.48z"/>
  <path class="fil4 str4" d="M27584.47 38821.25c273.66,126.03 559.92,246.09 848.58,342.53l-5.67 -1286.6c-284.93,-80.12 -567.93,-184.78 -842.91,-301.5l0 1245.56z"/>
  <path class="fil3 str9" d="M33723.64 39043.38c-552.44,264.76 -1082.78,474.44 -1550.48,585.46l8.92 -2024.49c439.14,-97.22 953,-288.04 1541.56,-572.45l0 2011.48z"/>
  <path class="fil4 str4" d="M33373.72 38821.25l0 -1245.56c-274.98,116.72 -557.99,221.38 -842.91,301.5l-5.67 1286.6c288.67,-96.45 574.92,-216.5 848.58,-342.53z"/>
  <path class="fil3 str2" d="M28776.11 39620.87c532.13,140.68 1099.79,211.54 1702.96,212.59l0 -2023.86c-562.84,-9.38 -1130.49,-77.8 -1702.96,-205.25l0 2016.52z"/>
  <path class="fil4 str4" d="M29126.03 39344.85c330.23,70.79 665.83,112.52 1003.12,129.61l0 -1327.77c-336.4,-19.36 -671.19,-58.62 -1003.12,-116.33l0 1314.49z"/>
  <path class="fil3 str9" d="M32182.08 39620.87c-532.13,140.68 -1099.79,211.54 -1702.96,212.59l0 -2023.86c562.84,-9.38 1130.49,-77.8 1702.96,-205.25l0 2016.52z"/>
  <path class="fil4 str4" d="M31832.16 39344.85l0 -1314.49c-331.93,57.72 -666.72,96.98 -1003.12,116.33l0 1327.77c337.29,-17.1 672.89,-58.82 1003.12,-129.61z"/>
  <path class="fil3 str2" d="M26705.83 40940.19l6.87 -2178.45c-169.03,-96.91 -338.49,-200.13 -508.36,-309.67l0 2063.83c177.64,165.13 344.8,306.56 501.49,424.29z"/>
  <path class="fil3 str9" d="M34252.37 40940.19l-6.87 -2178.45c169.03,-96.91 338.49,-200.13 508.36,-309.67l0 2063.83c-177.64,165.13 -344.8,306.56 -501.49,424.29z"/>
  <path class="fil3 str2" d="M29581.32 42134.71l0 -2357.67c-486.04,-67.47 -976.09,-182.9 -1470.16,-346.3l0 2295.81c521.53,226.39 1011.6,362.45 1470.16,408.16z"/>
  <path class="fil5 str4" d="M29231.4 41726.69l0 -1650.77c-259.34,-45.99 -516.32,-104.37 -770.32,-173.93l0 1590.56c249.44,97.66 507.75,179.26 770.32,234.15z"/>
  <path class="fil3 str9" d="M31376.87 42134.71l0 -2357.67c486.04,-67.47 976.09,-182.9 1470.16,-346.3l0 2295.81c-521.53,226.39 -1011.6,362.45 -1470.16,408.16z"/>
  <path class="fil5 str4" d="M31726.8 41726.69c262.57,-54.89 520.87,-136.49 770.32,-234.15l0 -1590.56c-254,69.56 -510.98,127.94 -770.32,173.93l0 1650.77z"/>
  <path class="fil3 str2" d="M30479.07 42208.86c-279.16,4.42 -578.4,-20.31 -897.75,-74.15l0 -2357.67c351.71,40.51 651.02,59.32 897.8,56.42 246.79,2.9 546.04,-15.91 897.75,-56.42l0 2357.67c-319.35,53.85 -618.64,78.57 -897.8,74.15z"/>
  <path class="fil5 str4" d="M31026.95 41830.97l0 -1668c-182.72,14.23 -366.21,22.42 -547.83,20.44 -181.64,1.98 -365.14,-6.21 -547.88,-20.44l0 1668c180.1,20.38 361.5,30.88 542.29,28.01l5.54 -0.08 5.54 0.08c180.81,2.87 362.22,-7.64 542.34,-28.01z"/>
  <rect class="fil8 str0" x="10" y="10" width="14631.39" height="15218.92"/>
  <g id="_1400242791024">
   <path class="fil9 str12" d="M11200.7 5127.21c0,0 339.21,177.51 -402.58,908.63l-166.88 -309.92 569.46 -598.71z"/>
   <path class="fil10" d="M4080.88 10519.18c0,0 -328.43,2373.42 1970.87,2934.93 0,0 1801.31,445.05 2786.73,-1271.54l-497.94 -656.84c0,0 -349.66,1483.36 -2161.64,1271.52 0,0 -1811.98,-508.63 -1388.12,-2309.86l-709.9 31.79z"/>
   <path class="fil10" d="M4080.88 8791.93l-667.55 593.29c0,0 -1377.52,1663.67 307.27,3443.81 0,0 1059.57,900.76 2150.98,603.98 0,0 -678.11,-148.27 -1451.66,-985.42 0,0 -1461.63,-1034.11 -392.07,-2638.44 423.87,-635.75 53.03,-1017.21 53.03,-1017.21z"/>
   <polygon class="fil10" points="4083.17,8791.93 4091.43,10572.08 5998.72,10572.08 5892.81,10964.2 6019.96,11377.45 6380.2,11642.2 6857.01,11642.2 7206.67,11334.99 7333.84,10953.53 7196.19,10572.08 7582.84,10572.08 9537.84,13448.9 13114.01,13433.01 13114.01,12987.98 12764.34,12924.4 12366.97,12320.43 12176.26,12161.47 11826.57,12272.72 11683.54,11827.71 11397.46,11462.14 10793.47,11525.73 8923.28,8299.21 5982.03,8295.98 "/>
   <path class="fil9 str13" d="M8393.45 10953.53c0,991.89 -804.16,1796.04 -1796.02,1796.04 -991.9,0 -1796.03,-804.15 -1796.03,-1796.04 0,-991.89 804.13,-1796.04 1796.03,-1796.04 991.86,0 1796.02,804.15 1796.02,1796.04zm-1796.02 -1939.08c-1070.92,0 -1939.09,868.21 -1939.09,1939.08 0,1070.86 868.17,1939.07 1939.09,1939.07 1070.85,0 1939.06,-868.21 1939.06,-1939.07 0,-1070.87 -868.21,-1939.08 -1939.06,-1939.08z"/>
   <path class="fil9 str14" d="M3561.65 10921.74c0,711.88 384.8,1332.37 956.62,1669.62 9.26,-42.97 17.09,-86.3 23.97,-129.62 -509.17,-317.02 -849.15,-880.15 -849.15,-1524.1 0,-376 115.97,-724.67 313.59,-1013.01 0,-75.99 0,-160.3 0,-235.8 -277.34,334.9 -445.03,763.91 -445.03,1232.91z"/>
   <path class="fil1" d="M6962.98 10953.53c0,201.91 -163.64,365.57 -365.55,365.57 -201.92,0 -365.56,-163.66 -365.56,-365.57 0,-201.91 163.64,-365.57 365.56,-365.57 201.91,0 365.55,163.66 365.55,365.57z"/>
   <path class="fil1 str15" d="M6962.98 10953.53c0,201.91 -163.64,365.57 -365.55,365.57 -201.92,0 -365.56,-163.66 -365.56,-365.57 0,-201.91 163.64,-365.57 365.56,-365.57 201.91,0 365.55,163.66 365.55,365.57z"/>
   <path class="fil1" d="M7106.05 10953.53c0,280.88 -227.74,508.61 -508.62,508.61 -280.88,0 -508.61,-227.73 -508.61,-508.61 0,-280.89 227.73,-508.62 508.61,-508.62 280.88,0 508.62,227.73 508.62,508.62z"/>
   <path class="fil1 str16" d="M7106.05 10953.53c0,280.88 -227.74,508.61 -508.62,508.61 -280.88,0 -508.61,-227.73 -508.61,-508.61 0,-280.89 227.73,-508.62 508.61,-508.62 280.88,0 508.62,227.73 508.62,508.62z"/>
   <path class="fil9 str17" d="M7376.24 10953.53c0,430.12 -348.68,778.81 -778.81,778.81 -430.13,0 -778.81,-348.68 -778.81,-778.81 0,-430.13 348.67,-778.81 778.81,-778.81 430.12,0 778.81,348.67 778.81,778.81zm-778.81 -635.77c-351.1,0 -635.77,284.61 -635.77,635.77 0,351.16 284.67,635.76 635.77,635.76 351.1,0 635.76,-284.6 635.76,-635.76 0,-351.16 -284.66,-635.77 -635.76,-635.77z"/>
   <path class="fil9 str13" d="M6597.43 8331.01c-1448.35,0 -2622.54,1174.17 -2622.54,2622.53 0,1448.33 1174.19,2622.52 2622.54,2622.52 1448.33,0 2622.52,-1174.19 2622.52,-2622.52 0,-1448.36 -1174.19,-2622.53 -2622.52,-2622.53zm0 5117.9c-1378.13,0 -2495.38,-1117.18 -2495.38,-2495.37 0,-1378.19 1117.24,-2495.39 2495.38,-2495.39 1378.17,0 2495.36,1117.19 2495.36,2495.39 0,1378.18 -1117.18,2495.37 -2495.36,2495.37z"/>
   <path class="fil9 str14" d="M5691.47 13433.01c-116.54,-21.12 -57.38,-10.67 -201.36,-10.67 -1378.13,0 -2547.72,-1107.15 -2547.72,-2485.32 0,-605.47 226.62,-1167.22 597.33,-1607.04 -77.96,14.66 -122.68,-19.99 -200.59,13.04 -302.99,427.65 -515.94,1006.17 -515.94,1570.17 0,1448.34 1174.17,2622.5 2622.52,2622.5 221.34,0 284.11,23.1 489.42,-28.4 -123.85,-21.36 -184.83,-47.71 -243.68,-74.27z"/>
   <path class="fil11 str18" d="M9545.79 4492.58c0,0 468.88,-206.62 317.87,-413.25 0,0 119.2,103.32 143.06,246.36 0,0 71.52,-39.73 87.39,-190.73 0,0 262.27,373.53 -270.17,532.45 0,0 -87.43,-182.79 -278.15,-174.83z"/>
   <path class="fil1 str18" d="M9998.76 4301.86c0,0 7.96,150.98 -190.73,206.62"/>
   <path class="fil9 str18" d="M11180.15 4839.58c0,0 339.21,177.5 -402.58,908.63l-166.88 -309.92 569.46 -598.71z"/>
   <path class="fil9 str18" d="M11211.93 4426.33c0,0 328.56,137.84 -434.35,974.87l-206.63 -256.97 640.99 -717.9z"/>
   <path class="fil9 str18" d="M11079.56 3896.55c0,0 524.5,413.25 -397.34,1197.34l-143.06 -315.22 540.4 -882.12z"/>
   <path class="fil9 str18" d="M12280.94 3862.09c0,0 -197.44,-1051.63 766.75,-1443.71 0,0 -402.55,-328.5 -847.6,254.31 0,0 -148.39,127.1 -360.33,974.81 0,0 476.95,-2193.33 1388.25,-1631.76 0,0 -127.16,-550.96 -890.1,-286.08 0,0 -826.61,423.8 -784.27,2331.08 0,0 254.31,1663.67 -974.75,2055.68 0,0 445.04,-201.28 158.95,-317.88 0,0 317.87,-254.31 0,-381.46 0,0 307.2,-254.37 -95.38,-307.34 0,0 211.84,-254.23 -63.58,-392 0,0 691.41,-249.03 434.34,-1239.75 0,0 74.28,519.17 -360.07,815.88 0,0 -551.1,476.76 -572.2,1229.12 0,0 -0.13,222.53 169.37,95.37 0,0 286.22,-10.56 212.09,264.93 0,0 -127.15,360.28 -572.2,-21.18 0,0 -264.98,-169.62 -116.71,-879.53 0,0 180.17,-593.29 -413.24,-455.59 0,0 -144.29,63.58 -394.63,64.89 0,0 489.98,72.82 267.47,623.84 0,0 -137.69,307.33 -158.93,487.44 -20.48,174.71 -260.14,897.58 634.26,1308.35 128.66,69.09 150.01,100.88 276.8,112.07l0.37 -0.57c0,0 164.88,36.51 307.94,43.47 74.5,3.67 237.67,-19.63 237.67,-19.63 47.93,-4.58 275.92,-103.06 263.01,-95.11 285.34,-151.24 1111.08,-356.51 1575.49,-2005.59 0,0 95.23,-550.96 296.53,-1006.61 0,0 137.83,-296.7 455.71,-519.23 0,0 -466.78,-174.21 -841.01,341.73z"/>
   <path class="fil9 str19" d="M9665 4712.42c0,46.82 -37.89,84.81 -84.69,84.81 -46.96,0 -84.93,-37.99 -84.93,-84.81 0,-46.81 37.97,-84.8 84.93,-84.8 46.8,0 84.69,37.99 84.69,84.8z"/>
   <path class="fil12" d="M9617.66 4712.86c0,23.91 -16.49,39.42 -39.34,39.42 -21.75,0 -39.48,-17.69 -39.48,-39.42 0,-21.75 17.74,-39.42 39.48,-39.42 21.73,0 39.34,16.58 39.34,39.42z"/>
   <path class="fil1 str18" d="M12335.2 3785.28c32.02,-22.96 -260.02,304.41 -349.67,1011.95 0,0 15.88,577.47 -582.87,1313.88"/>
   <path class="fil10 str18" d="M12692.82 8338.94c-273.93,-209.97 -341.71,-500.66 -341.71,-500.66 -31.8,-127.15 -174.84,-238.41 -174.84,-238.41 -151.02,-143.06 -286.12,31.78 -286.12,31.78l-1160.25 0c-31.8,111.26 -180.07,100.66 -180.07,100.66 -158.92,-111.28 -212.06,47.6 -212.06,47.6 -222.54,143.06 -158.96,-84.67 -158.96,-84.67l-180.04 -31.8c-63.58,0 -58.37,47.69 -58.37,47.69 -31.78,47.68 -148.27,5.28 -148.27,5.28 -148.23,-116.53 -333.77,95.31 -333.77,95.31 -95.35,79.46 -111.26,-95.31 -111.26,-95.31 -434.35,-47.68 -3751,26.5 -3751,26.5l-2225.18 47.69c-709.96,-5.23 -1764.26,-301.98 -1764.26,-301.98 -445.03,111.26 -413.25,1144.38 -413.25,1144.38 79.48,1080.8 619.89,810.59 619.89,810.59 254.29,-111.26 2140.42,-153.61 2140.42,-153.61l0 -445.03c0,0 572.18,-0.13 985.43,10.55 1066.15,-800.9 2288.76,-656.87 3306.04,-31.78 529.7,21.11 1186.6,0 1186.6,0l344.95 642.1 857.77 9.58 1255.63 79.46c254.31,222.51 421.2,-218.55 421.2,-218.55 102.09,-280.76 391.29,-479.79 391.29,-479.79 0,0 -152.89,-279.14 -9.82,-517.57z"/>
   <path class="fil10 str18" d="M10626.57 7742.92c0,0 384.2,630.56 -13.17,1748.36 0,0 -286.21,312.67 -355.12,-15.89 0,0 447.76,-826.51 100.84,-1700.68 0,0 -26.58,-143.05 267.45,-31.79z"/>
   <path class="fil11 str20" d="M10348.42 7446.21c0,0 0,0 -84.68,66.25 0,0 -108.77,34.45 -182.78,23.83 0,0 -230.46,58.31 0,119.2l140.31 13.24c0,0 -105.29,210.16 63.58,137.76 74.27,-31.78 42.47,-180.1 177.58,-127.14l87.4 15.9c0,0 222.54,15.89 42.35,-121.88 0,0 -158.93,-10.56 -105.93,-105.93 0,0 143.19,-318.37 157.59,-343.76 -50.42,16.64 -99.22,26.75 -178.91,31.35l-116.5 291.19z"/>
   <path class="fil11 str20" d="M9826.63 7072.7c0,0 -153.72,434.91 -376.23,463.59 0,0 -156.22,-5.27 -241.16,26.51 0,0 -180.04,158.93 137.85,116.54 0,0 95.35,-21.18 10.68,52.97 0,0 -58.35,193.38 148.26,58.29 0,0 84.69,-196.01 307.2,-90.1 0,0 158.95,0 10.7,-105.91 0,0 -95.39,-31.79 -42.48,-158.94l203.77 -320 -158.59 -42.95z"/>
   <path class="fil10 str20" d="M11890.15 7631.66c0,0 556.31,580.14 0,1923.19 0,0 135.1,158.94 270.22,-7.96 0,0 468.87,-1025.17 31.77,-1915.24 0,0 -135.08,-174.84 -301.99,0z"/>
   <path class="fil1 str21" d="M1696.76 9459.49c0,0 307.26,0 317.88,-964.33 0,0 31.78,-1017.15 -407.98,-1006.54"/>
   <path class="fil10 str21" d="M5310 7758.81c0,0 286.1,-5.27 148.32,810.61l275.55 -116.47c0,0 105.93,-455.72 -84.82,-710.03 0,0 -164.2,-246.35 -339.04,15.9z"/>
   <path class="fil12" d="M7092.37 10945.58c0,280.88 -227.73,508.62 -508.6,508.62 -280.88,0 -508.62,-227.74 -508.62,-508.62 0,-280.86 227.74,-508.61 508.62,-508.61 280.87,0 508.6,227.75 508.6,508.61z"/>
   <path class="fil9 str14" d="M3974.89 8879.34l0 421.2c10.62,0 21.18,0 31.79,0 -10.62,0 -21.18,0 -31.79,0l0 1422.54c7.96,-238.42 182.79,-770.87 182.79,-770.87l0 -898.02 596.03 0 214.56 -174.84 -993.38 0z"/>
   <path class="fil9 str22" d="M5969.62 10436.97l-1072.87 7.95c-47.67,166.9 -23.83,111.26 -63.56,301.99l955.56 1.87c172.91,-287.96 101.39,-160.81 180.87,-311.81z"/>
   <path class="fil9 str22" d="M7694.1 10444.92l-450.66 0c56.24,80.72 148.51,170.25 116.89,301.99l238.41 5.23 611.18 927.3c26.44,-77.48 83.56,-192.97 109.27,-270.2l-625.09 -964.33z"/>
   <path class="fil9 str23" d="M12515.24 12299.32c-180.04,-423.93 -497.93,-254.29 -497.93,-254.29 -127.16,137.68 -137.82,-10.69 -137.82,-10.69 -105.93,-900.75 -900.52,-678.23 -900.52,-678.23 -158.92,116.71 -201.4,-52.91 -201.4,-52.91l-1356.23 -2437.01 -1202.71 -2.73c137.82,74.13 164.76,106.05 238.41,214.57l815.79 0 1398.7 2521.95c0,0 74.24,180.05 222.51,42.22 0,0 635.91,-328.45 784.3,508.61 0,0 -10.69,392.12 264.73,212.08 0,0 286.09,-201.43 413.24,148.28 0,0 254.44,667.52 625.35,593.28l0 233.2 -3369.57 0 -710.03 -1080.8c-35.63,84.32 -92.61,170.84 -148.26,243.63l709.77 1080.8 3772.36 0 5.24 -784.03c-344.46,296.75 -725.93,-497.93 -725.93,-497.93z"/>
   <path class="fil10 str14" d="M6382.87 10190.61l-7.96 -71.52 79.46 -31.78 0 -182.79c0,0 -317.87,-87.41 -55.63,-278.13l0 -238.42 -135.09 -23.85 -39.74 -151c0,0 166.88,-71.51 731.14,-7.94l-15.9 151 -111.26 31.79 0 222.51c0,0 254.29,143.04 -7.96,278.15l0 182.79 71.53 39.72 -15.91 87.41c0,0 -294.03,-119.19 -492.7,-7.94zm71.5 -286.1l365.57 0 -365.57 0zm-55.63 -278.13l437.1 0 -437.1 0zm-63.58 -254.31l540.4 0 -540.4 0zm119.2 715.23l373.53 0 -373.53 0z"/>
   <path class="fil10 str14" d="M5908.45 10548.73l-54.88 -46.44 36 -77.74 -125.47 -132.98c0,0 -291.19,154.72 -231.34,-164.03l-163.65 -173.47 -114.62 75.38 -132.55 -82.46c0,0 72.28,-166.63 526.31,-507.61l92.07 120.68 -59.1 99.47 152.73 161.91c0,0 283.13,-70.52 185.09,207.75l125.47 132.86 79.27 -20.13 48.43 74.38c0,0 -295.64,115.1 -363.76,332.42zm-144.35 -257.16l265.85 -250.83 -265.85 250.83zm-231.34 -164.03l317.9 -300 -317.9 300zm-220.84 -141.31l393.07 -371.02 -393.07 371.02zm577.65 438.32l271.63 -256.41 -271.63 256.41z"/>
   <path class="fil10 str14" d="M3910.14 10730.39l-32.97 -110.9 -151.25 -14.28c-57.48,564.86 15.91,731.01 15.91,731.01l150.49 -41.34 22.42 -135.36 49.54 -4.59c0,-124.67 0,-306.95 0,-423.92l-54.13 -0.63z"/>
   <path class="fil10 str14" d="M5843.27 10674.03l-87.6 -15.04 -38.99 72.03 -182.72 1.85c-137.9,-260.63 -278.15,-4.84 -278.15,-4.84l-222.51 2.36 -32.97 -110.9 -151.25 -14.28c-57.51,564.86 15.9,731.01 15.9,731.01l150.5 -41.34 22.41 -135.36 238.41 -2.6 -4.71 -437.08 4.71 437.08c193.53,260.26 277.53,-58.61 277.53,-58.61l-3.97 -365.45 3.97 365.45 182.78 -2 -4.03 -373.51 4.03 373.51 32.6 79.23 71.46 -8.83c-113.43,-197.42 2.61,-492.7 2.61,-492.7zm-826.44 8.81l5.79 540.4 -5.79 -540.4z"/>
   <path class="fil10 str14" d="M6233.41 11651.26l-43.52 57.38 -79.47 -31.67 -125.84 132.49c0,0 170.3,282.37 -151.19,240.04l-164.16 172.97 81.53 110.25 -75.07 136.83c0,0 -170.29,-62.96 -535.8,-497.53l115.6 -98.61 102.57 53.53 153.23 -161.42c0,0 -85.98,-278.77 197.2,-196.07l125.77 -132.63 -24.45 -78.09 71.71 -52.52c0,0 131.18,289.06 351.9,345.06zm-248.83 158.19l-265.11 -251.69 265.11 251.69zm-151.19 240.04l-317 -301.01 317 301.01zm-129.08 228.34l-391.88 -372.14 391.88 372.14zm406.11 -600.87l-270.87 -257.29 270.87 257.29z"/>
   <path class="fil10 str14" d="M6833.79 11720.42l9.39 71.28 -78.8 33.28 3.73 182.91c0,0 319.5,80.94 61.16,276.9l4.9 238.41 135.49 21.12 42.82 149.98c0,0 -165.4,75.14 -730.93,22.98l12.91 -151.36 110.57 -34.14 -4.4 -222.42c0,0 -257.16,-137.94 2.3,-278.25l-3.79 -182.54 -72.33 -38.36 14.16 -87.67c0,0 296.4,113.12 492.84,-2.12zm-65.69 287.48l-365.44 7.32 365.44 -7.32zm61.16 276.9l-437.02 8.95 437.02 -8.95zm68.72 253.06l-540.33 10.91 540.33 -10.91zm-133.61 -712.87l-373.52 7.69 373.52 -7.69z"/>
   <path class="fil10 str24" d="M7313.65 11297.74l58.85 41.47 -28.92 80.46 137.21 121.07c0,0 275.8,-180.3 245.13,142.55l178.79 157.71 107.29 -85.32 139.32 70.16c0,0 -56.75,172.48 -478.07,553.18l-102.55 -111.89 49.67 -104.42 -166.63 -147.39c0,0 -275.54,95.98 -203.15,-189.97l-136.97 -120.95 -77.17 27.18 -55.01 -69.77c0,0 284.05,-141.43 332.23,-364.08zm167.13 243.01l-242.06 273.94 242.06 -273.94zm245.13 142.55l-289.35 327.58 289.35 -327.58zm232.7 120.82l-357.75 404.93 357.75 -404.93zm-615.03 -384.44l-247.23 280.14 247.23 -280.14z"/>
   <path class="fil10 str24" d="M7360.52 10680.98l71.34 -9.31 33.14 78.96 182.91 -3.72c0,0 81.23,-319.38 276.92,-60.86l238.41 -4.82 21.25 -135.37 150.1 -42.7c0,0 75,165.38 22.36,730.88l-151.35 -13.04 -34.17 -110.53 -222.26 4.23c0,0 -138.08,257.04 -278.14,-2.48l-182.78 3.6 -38.26 72.38 -87.77 -14.28c0,0 113.36,-296.39 -1.69,-492.96zm287.4 65.94l7.21 365.57 -7.21 -365.57zm276.92 -60.86l8.67 436.97 -8.67 -436.97zm253.19 -68.53l10.54 540.28 -10.54 -540.28zm-713.02 133.11l7.46 373.51 -7.46 -373.51z"/>
   <path class="fil10 str24" d="M6953.93 10237.3l45.57 -55.63 78.29 34.76 130.68 -127.89c0,0 -159.49,-288.33 160.18,-234.07l170.37 -166.76 -77.23 -113.11 80.07 -133.87c0,0 168.01,69.18 516.8,517.31l-119.05 94.01 -100.59 -57.14 -159.2 155.48c0,0 75.51,281.63 -204.48,188.62l-130.58 127.65 21.54 78.97 -73.63 49.79c0,0 -120.24,-293.66 -338.73,-358.11zm254.54 -148.76l255.41 261.37 -255.41 -261.37zm160.18 -234.07l305.57 312.54 -305.57 -312.54zm137.57 -223.26l377.61 386.54 -377.61 -386.54zm-428.44 585.22l261.05 267.09 -261.05 -267.09z"/>
   <path class="fil10 str22" d="M6242.49 8791.93c0,0 158.87,-190.73 233.06,52.89 0,0 10.62,222.53 -264.86,116.73 0,0 -254.3,-63.71 -95.36,-339.24 0,0 286.04,-286.1 519.17,95.38 0,0 127.16,158.92 222.52,10.68 0,0 -254.24,31.77 -137.71,-169.62 0,0 169.5,-169.38 307.26,116.71 0,0 95.37,211.84 -158.93,296.52 0,0 -243.7,84.94 -360.3,-137.59 0,0 -127.07,-233.19 -264.84,-42.46z"/>
   <path class="fil10 str22" d="M7886.2 9172.03c0,0 246.99,-23.83 128.41,201.54 0,0 -149.02,165.63 -270.34,-103.33 0,0 -136.08,-224 170.61,-308.06 0,0 404.67,-2.35 302.12,432.86 0,0 -21.37,202.41 150.73,164.03 0,0 -203.03,-156.22 21.23,-217.42 0,0 239.79,-1.25 136.61,298.99 0,0 -81.19,217.68 -321.6,99.1 0,0 -232.96,-111.01 -159.43,-351.29 0,0 73.62,-255.04 -158.33,-216.42z"/>
   <path class="fil10 str22" d="M8771.19 10572.2c0,0 186.75,163.53 -58.63,231.71 0,0 -222.75,4.83 -110.01,-267.84 0,0 69.91,-252.56 341.47,-86.8 0,0 279.88,261.12 -107.39,484.65 0,0 -163.18,155.09 -17.28,254.17 0,0 -25.2,-254.92 172.96,-133.49 0,0 165.28,173.85 -124.29,304.24 0,0 -214.18,90.26 -292.55,-166.27 0,0 -78.47,-245.62 146.78,-356.74 0,0 236.16,-121.08 48.92,-263.63z"/>
   <path class="fil10 str22" d="M8379.42 12263.3c0,0 12.79,247.87 -207.01,119.2 0,0 -158.67,-156.22 115.37,-265.36 0,0 229.97,-125.91 300.24,184.38 0,0 7.58,382.73 -422.57,260.65 0,0 -224.75,-8.93 -194.2,164.79 0,0 165.26,-195.82 216.3,31.02 0,0 -9.67,239.66 -304.94,122.82 0,0 -213.84,-90.78 -84.44,-325.72 0,0 121.41,-227.47 358.11,-143.29 0,0 251.57,85.07 223.13,-148.51z"/>
   <path class="fil10 str23" d="M6985.22 13106.82c0,0 -150.81,197.19 -235,-43.22 0,0 -19.81,-221.91 259.76,-127.53 0,0 256.73,53.01 109.34,335.02 0,0 -241.95,296.53 -490.66,-74.99 0,0 -165.65,-152.48 -254.75,-0.25 0,0 252.69,-42.22 144.67,163.66 0,0 -162.54,176.43 -311.86,-103.83 0,0 -104.18,-207.72 146.46,-302.95 0,0 239.97,-94.76 365.7,122.67 0,0 136.65,227.74 266.35,31.42z"/>
   <path class="fil10 str22" d="M5330.55 12741.62c0,0 -246.8,27.81 -131.56,-199.44 0,0 146.47,-167.87 271.88,99.23 0,0 139.38,222.01 -166.08,310.8 0,0 -381.52,30.66 -285.53,-406.04 0,0 -4.66,-224.99 -176.14,-184.02 0,0 205.37,153.23 -18.01,217.67 0,0 -239.79,4.71 -140.94,-296.91 0,0 77.85,-219.01 320.06,-104.05 0,0 234.44,107.67 164.52,348.92 0,0 -69.77,256.3 161.79,213.83z"/>
   <path class="fil10 str22" d="M4462.77 11362.06c0,0 -202.4,-143.92 35.02,-236.43 0,0 221.08,-27.31 136.46,255.29 0,0 -44.21,258.42 -331.04,120.82 0,0 -304.78,-231.46 57.92,-492.97 0,0 146.59,-170.85 -8.5,-254.66 0,0 50.91,251.18 -158.56,150.36 0,0 -181.92,-156.33 92.93,-315.27 0,0 204.01,-111.25 307.83,135.85 0,0 102.99,236.56 -110.03,369.67 0,0 -222.83,144.54 -22.04,267.34z"/>
   <path class="fil10 str22" d="M3340.87 11258.37c0,0 -198.24,-149.62 41.72,-235.43 0,0 221.77,-21.11 129.19,259.04 0,0 -51.52,257.02 -334.32,111.5 0,0 -298.14,-240.03 71.82,-491.1 0,0 151.31,-166.76 -1.29,-254.93 0,0 43.76,252.44 -162.8,145.79 0,0 -177.37,-161.42 101.76,-312.42 0,0 207.12,-105.56 303.91,144.54 0,0 96.3,239.28 -120.37,366.43 0,0 -226.87,137.96 -29.62,266.59z"/>
   <path class="fil10 str22" d="M4208.9 12690.58c0,0 -247.73,17.03 -122.73,-205.14 0,0 153.66,-161.29 267.33,111.01 0,0 129.58,228 -179.47,303.36 0,0 -382.47,14.16 -267.6,-418.08 0,0 4.95,-225.12 -168.08,-191.61 0,0 198.56,162.04 -27.36,216.8 0,0 -239.79,-5.58 -127.91,-302.73 0,0 87.17,-215.43 324.23,-90.02 0,0 229.58,117.58 149.25,355.74 0,0 -80.84,252.94 152.36,220.67z"/>
   <path class="fil10 str22" d="M3725.99 9567.89c-1.41,11.55 -2.23,22.49 -2.29,31.41 -1,-12.42 1.48,-20.99 2.29,-31.41z"/>
   <path class="fil10 str22" d="M3964.27 9289.86c-105.9,-5.96 -187.37,1.75 -250.44,18.01 82.5,-6.09 165.02,-7.08 247.54,-7.21 1.12,-3.85 1.49,-6.33 2.91,-10.8z"/>
   <path class="fil10 str22" d="M3924.73 9493.63c-66.62,-34.14 -111.02,-36.62 -140.99,-23.58 -10.62,5.09 -20.06,12.54 -28.63,21.11 -18.2,21.24 -25.95,50.68 -29.12,76.74 -0.81,10.43 -3.29,19 -2.29,31.41 0.75,8.83 -0.81,15.16 0.94,25.08 0,0 -1.01,-10.19 -0.94,-25.08 0.06,-8.93 0.88,-19.87 2.29,-31.41 2.69,-34.02 12.36,-59.99 29.12,-76.74 7.58,-8.81 17.07,-16.02 28.63,-21.11 64.02,-30.92 155.45,-6.71 155.45,-6.71 12.8,3.86 -8.12,-48.3 3.92,-46.31 9.88,-49.31 2.36,-63.46 18.26,-116.36 -82.51,0.13 -165.03,1.12 -247.54,7.21 -265.05,68.42 -199.61,289.96 -199.61,289.96 87.54,305.81 310.17,167.25 310.17,167.25 267.54,-124.3 100.34,-271.45 100.34,-271.45z"/>
   <path class="fil10 str22" d="M3755.11 9491.15c8.58,-8.57 18.02,-16.02 28.63,-21.11 -11.57,5.09 -21.06,12.3 -28.63,21.11z"/>
   <path class="fil10 str22" d="M3724.64 9624.39c-1.75,-9.93 -0.19,-16.26 -0.94,-25.08 -0.07,14.9 0.94,25.08 0.94,25.08z"/>
   <path class="fil10 str22" d="M4843.93 9614.08c0,0 -14.28,-247.97 206.37,-120.45 0,0 159.61,155.35 -113.87,265.99 0,0 -229.27,127.14 -301.3,-182.78 0,0 -9.94,-382.47 420.95,-262.87 0,0 225,7.43 193.4,-165.9 0,0 -164.15,196.7 -216.36,-29.93 0,0 8.18,-239.65 304.09,-124.54 0,0 214.45,89.65 86.41,325.2 0,0 -120.18,228.37 -357.3,145.3 0,0 -252,-83.57 -222.38,150z"/>
   <path class="fil10 str22" d="M5913.97 8897.97c0,81.84 -66.44,148.27 -148.32,148.27 -81.89,0 -148.33,-66.43 -148.33,-148.27 0,-81.95 66.44,-148.37 148.33,-148.37 81.88,0 148.32,66.42 148.32,148.37z"/>
   <path class="fil10 str22" d="M7535.17 8866.19c0,81.83 -66.43,148.27 -148.34,148.27 -81.86,0 -148.3,-66.44 -148.3,-148.27 0,-81.95 66.44,-148.4 148.3,-148.4 81.91,0 148.34,66.45 148.34,148.4z"/>
   <path class="fil10 str22" d="M8774.9 10052.78c0,81.96 -66.42,148.4 -148.24,148.4 -81.97,0 -148.39,-66.44 -148.39,-148.4 0,-81.83 66.42,-148.27 148.39,-148.27 81.82,0 148.24,66.44 148.24,148.27z"/>
   <path class="fil10 str22" d="M8827.82 11758.93c0,81.82 -66.45,148.26 -148.27,148.26 -81.82,0 -148.27,-66.44 -148.27,-148.26 0,-81.96 66.45,-148.4 148.27,-148.4 81.82,0 148.27,66.44 148.27,148.4z"/>
   <path class="fil10 str22" d="M7619.86 12998.65c0,81.81 -66.43,148.27 -148.28,148.27 -81.88,0 -148.31,-66.46 -148.31,-148.27 0,-81.95 66.43,-148.4 148.31,-148.4 81.85,0 148.28,66.45 148.28,148.4z"/>
   <path class="fil10 str22" d="M5913.97 12987.98c0,81.82 -66.44,148.24 -148.32,148.24 -81.89,0 -148.33,-66.42 -148.33,-148.24 0,-81.84 66.44,-148.26 148.33,-148.26 81.88,0 148.32,66.42 148.32,148.26z"/>
   <path class="fil10 str22" d="M4811.95 13009.09c0,81.95 -66.44,148.37 -148.34,148.37 -81.89,0 -148.33,-66.42 -148.33,-148.37 0,-81.84 66.44,-148.26 148.33,-148.26 81.9,0 148.34,66.42 148.34,148.26z"/>
   <path class="fil10 str22" d="M3635.79 11780.03c0,81.82 -66.44,148.26 -148.34,148.26 -81.87,0 -148.31,-66.44 -148.31,-148.26 0,-81.83 66.44,-148.26 148.31,-148.26 81.9,0 148.34,66.43 148.34,148.26z"/>
   <path class="fil10 str22" d="M3593.44 10074.14c0,81.82 -66.44,148.28 -148.34,148.28 -81.88,0 -148.32,-66.46 -148.32,-148.28 0,-81.95 66.44,-148.39 148.32,-148.39 81.9,0 148.34,66.44 148.34,148.39z"/>
   <path class="fil10 str22" d="M4748.37 11811.8c0,81.84 -66.43,148.27 -148.33,148.27 -81.89,0 -148.33,-66.43 -148.33,-148.27 0,-81.82 66.44,-148.25 148.33,-148.25 81.9,0 148.33,66.43 148.33,148.25z"/>
   <path class="fil10 str22" d="M4716.59 10169.51c0,81.82 -66.44,148.26 -148.34,148.26 -81.89,0 -148.33,-66.44 -148.33,-148.26 0,-81.95 66.44,-148.39 148.33,-148.39 81.9,0 148.34,66.44 148.34,148.39z"/>
   <path class="fil10 str22" d="M3084.83 7806.49c0,0 -1128.48,-158.92 -977.48,55.63 0,0 7.94,206.63 1017.22,198.69 0,0 -937.76,31.79 -953.65,222.51 0,0 -151,262.26 993.37,190.74 0,0 -905.95,39.73 -985.44,206.62 0,0 -262.23,317.87 937.76,222.52 0,0 -882.13,15.89 -977.48,150.99 0,0 -341.72,317.89 858.29,214.56 0,0 373.51,-405.29 87.41,-1462.26z"/>
   <path class="fil10 str20" d="M9209.25 12394.68c0,0 74.27,0 42.47,95.38 0,0 -42.35,95.23 -116.46,10.42 0,0 -106.05,-180.04 105.8,-190.74 0,0 201.4,-21.12 222.51,190.74 0,0 212.09,-180.04 -10.41,-455.45 0,0 -95.51,-74.26 -180.33,0 0,0 106.06,52.88 0,180.02 0,0 -158.92,106.05 -180.04,-63.58 0,0 -106.05,-158.92 148.27,-338.98 0,0 275.68,-137.82 455.71,169.38 0,0 180.04,-487.25 -169.62,-466.14 0,0 95.39,-317.88 349.66,-21.12 0,0 211.97,-212.09 -95.35,-466.4 0,0 -169.37,-74.01 -232.95,21.36 0,0 148.26,-31.78 127.15,116.48 0,0 -21.24,190.73 -190.73,63.58 0,0 -201.41,-211.84 42.21,-402.58 0,0 180.2,-116.7 349.66,74.01 0,0 -169.36,-307.2 -487.22,-328.31 0,0 -233.22,-63.58 -84.94,-413.25 0,0 286.22,-328.57 498.18,105.79 0,0 73.98,201.42 -137.82,201.42 0,0 -169.62,-10.56 -116.49,-158.94l42.22 -74.24c0,0 -296.53,-137.58 -127.16,222.5 0,0 318.02,116.73 434.61,328.56l116.48 -106.03c0,0 275.39,434.6 21.11,1006.8 0,0 233.18,-339.24 413.25,-21.37 0,0 95.35,212.08 -158.96,264.98 0,0 53.04,-243.75 -222.51,-169.61 0,0 -169.49,-10.55 -222.5,349.65 0,0 423.91,-328.31 911.42,212.08 0,0 158.93,254.32 402.59,21.12 0,0 233.17,-106.05 106.01,-455.71 0,0 -137.82,-254.17 -371.02,21.36 0,0 -73.99,84.69 42.46,63.59 0,0 211.97,-106.05 201.44,84.69 0,0 31.77,169.61 -169.62,95.34 0,0 -254.31,-21.24 -201.44,-264.97 0,0 84.81,-264.72 381.48,-201.15 0,0 317.89,52.9 349.66,476.81 0,0 31.8,349.66 -550.82,402.55 0,0 158.92,180.06 243.62,158.95 0,0 42.47,106.06 -148.26,106.06 0,0 222.5,529.7 720.44,84.67 0,0 169.62,-222.53 -116.46,-286.12 0,0 -95.36,42.48 -10.67,74.28 0,0 201.41,169.5 -148.26,190.73 0,0 -286.13,-31.8 -42.47,-423.94 0,0 106.04,-137.82 286.08,-10.67 0,0 550.95,264.98 -74.24,657.11 0,0 63.59,84.69 381.45,-148.52 0,0 286.09,-232.95 476.82,116.71 0,0 -254.19,-53.01 -423.67,63.58 0,0 -487.51,190.74 -752.48,63.58 0,0 -349.55,-53.13 -614.43,-360.32 0,0 84.69,233.17 -286.09,201.4 0,0 180.08,-53.14 169.37,-434.6 0,0 -42.33,-402.58 -476.81,-466.16 0,0 392.13,169.62 328.56,540.4 0,0 -31.78,434.48 -572.18,233.21 0,0 -243.61,-106.05 -52.91,-349.66 0,0 201.18,-148.53 264.76,116.45 0,0 0,74.27 -84.69,116.49 0,0 -84.81,10.67 -106.06,-52.92 0,0 -31.8,74.28 95.36,95.39 0,0 180.33,106.05 275.68,-158.96 0,0 31.76,-434.47 -349.66,-392.13 0,0 -222.64,-74.12 -339.25,286.09l10.69 275.67 -127.15 10.45c0,0 -95.38,-561.51 -265.01,-487.26z"/>
   <path class="fil10 str25" d="M12133.8 12670.09c0,0 -169.38,-10.7 -21.12,-190.74 0,0 106.05,-84.68 158.92,106.06 0,0 116.47,169.36 -31.8,232.95l-169.59 42.47c0,0 243.75,-180.07 63.59,-190.74z"/>
   <path class="fil10 str20" d="M9304.64 9840.94c0,0 -116.47,42.34 -21.12,148.27 0,0 84.69,63.7 148.27,-10.43 0,0 169.62,-212.08 -95.38,-286.09 0,0 -286.09,-42.48 -381.44,-201.42 0,0 -116.49,-286.1 95.35,-211.85 0,0 53.16,-0.12 53.16,42.22 0,0 -95.38,63.58 0,127.16 0,0 31.64,74.25 137.57,-42.22 0,0 95.48,-137.84 -74.02,-212.07 0,0 -84.9,-74.13 -243.87,0 0,0 -222.5,84.79 31.81,445.02 0,0 190.73,158.93 349.66,201.41z"/>
   <path class="fil10 str24" d="M6062.3 7700.51c0,0 84.82,-243.62 487.44,-233.07 0,0 116.54,-21.23 158.94,-105.98 0,0 214.58,-548.34 911.18,-370.84 0,0 286.21,52.97 784.27,466.2 0,0 5.23,23.84 127.15,74.2 0,0 10.57,21.17 127.16,127.15l-106.06 21.18 -106.05 -31.78 -222.51 10.61c0,0 -29.06,-66.24 -169.37,-158.93 0,0 -424.91,-325.77 -826.54,-233.15 -34.46,7.95 -21.25,0 -21.25,0 0,0 -275.48,63.64 -434.4,392.08l-31.79 42.33 -678.18 0z"/>
   <path class="fil10 str22" d="M8234.5 7700.51c0,0 137.73,-243.69 307.23,-21.16 0,0 243.74,211.83 95.35,1155.04l-286.09 0c-3.62,17.14 202.15,-837.28 -116.49,-1133.89z"/>
   <path class="fil10 str21" d="M3577.55 7790.61c0,0 341.71,87.42 63.57,333.78 0,0 309.94,135.09 7.95,301.99 0,0 270.2,182.78 -47.67,317.88 0,0 309.92,190.74 -15.91,294.04 0,0 294.03,119.19 -23.83,230.45l-278.16 23.85c0,0 365.57,-754.97 87.43,-1502l206.62 0z"/>
   <path class="fil10 str21" d="M5373.59 7814.44c0,0 -349.69,87.42 -79.48,262.25 0,0 -238.42,206.62 7.95,294.05 0,0 -230.46,166.88 -7.95,278.14l166.89 -95.37c0,0 95.35,-723.17 -87.41,-739.08z"/>
   <path class="fil10 str21" d="M5707.35 7814.44c0,0 460.94,-55.63 190.74,214.58 0,0 230.46,95.36 23.83,294.03 0,0 63.59,15.89 79.48,55.63 0,0 -233.08,60.98 -267.53,74.26 -34.46,13.15 -2.67,-18.64 -2.67,-18.64 0,0 103.31,-238.41 -23.85,-619.87z"/>
   <path class="fil10 str24" d="M8218.63 7695.25c0,0 -476.83,190.73 -23.86,349.66 0,0 -389.38,246.37 15.91,325.84 0,0 -349.66,206.62 -7.95,325.83 0,0 -103.31,39.73 -111.26,79.47l127.16 71.51 111.26 -23.84c0,0 270.18,-762.91 -111.26,-1128.47z"/>
   <path class="fil10 str18" d="M13458.47 8580.1c0,226.74 -183.91,410.52 -410.66,410.52 -226.71,0 -410.62,-183.78 -410.62,-410.52 0,-226.75 183.91,-410.65 410.62,-410.65 226.75,0 410.66,183.9 410.66,410.65z"/>
   <path class="fil13 str26" d="M13174.84 8513.78c0,90.77 -73.36,164.15 -164.14,164.15 -90.77,0 -164.16,-73.38 -164.16,-164.15 0,-90.76 73.39,-164.14 164.16,-164.14 90.78,0 164.14,73.38 164.14,164.14z"/>
   <path class="fil10 str18" d="M8568.29 7711.13c0,0 535.19,26.45 217.3,291.31 0,0 407.79,143.19 42.22,339.24 0,0 402.79,158.93 -37.01,349.67 0,0 185.4,84.69 227.74,143.04l-381.47 0c0,0 158.93,-630.55 -68.78,-1123.26z"/>
   <path class="fil10 str18" d="M10793.47 7700.51c0,0 413.25,63.58 79.46,317.84 0,0 370.77,127.15 21.11,381.45 0,0 371.02,137.84 0,360.35 0,0 349.66,174.85 -36.98,338.99 0,0 323.1,217.3 -47.71,301.99 0,0 52.91,53.03 100.59,79.46l-291.29 -10.43c0,0 312.65,-905.97 26.56,-1695.45l-15.91 -52.97 47.68 -53.01 84.68 -42.34 68.78 5.27 -36.98 68.84z"/>
   <path class="fil10 str18" d="M11837.27 9549.64c0,0 -402.83,-169.61 37,-355.12 0,0 -392.16,-222.53 5.22,-397.36 0,0 -280.64,-222.52 37.26,-381.46 0,0 -318.02,-169.37 -10.7,-386.67 0,0 -423.95,-174.84 -143.06,-381.46l127.15 -15.91c0,0 561.51,577.41 0,1923.19l-52.88 -5.22z"/>
   <path class="fil10 str18" d="M10184.3 7727.03c0,0 -365.58,196.07 52.88,344.45 0,0 -349.67,217.05 58.38,338.98 0,0 -413.38,196.08 -5.5,344.46 0,0 -407.75,158.94 -68.78,349.66 0,0 -354.87,190.74 26.57,365.57 0,0 460.95,-662.33 111.28,-1695.45 0,0 -227.99,270.2 -174.82,-47.68z"/>
   <path class="fil1 str27" d="M4054.37 7893.91c0,0 174.83,365.56 294.04,-79.47 0,0 -23.84,619.87 365.56,389.4 0,0 111.26,-143.04 -87.41,-103.31 0,0 -222.52,39.74 -103.32,-206.62 0,0 111.25,-143.05 278.15,95.37 0,0 -31.79,-206.62 135.09,-119.21"/>
   <path class="fil1 str28" d="M4936.49 8076.69c0,0 121.02,-186.99 206.62,-15.89 47.7,95.37 -71.51,206.62 -71.51,206.62 0,0 -158.94,-151 -246.37,79.47 0,0 -79.46,150.99 127.15,198.68 0,0 -87.41,-79.48 -95.36,182.79 0,0 -119.2,-476.83 -373.52,-333.79"/>
   <path class="fil1 str27" d="M3895.43 7838.28c0,0 67.69,331.05 71.52,333.78 0,0 -230.47,143.05 -111.27,373.52 0,0 71.53,135.1 182.78,87.42 0,0 -166.88,-119.21 -79.46,-182.79 0,0 143.05,-143.04 190.73,143.05 0,0 166.89,-198.68 -39.73,-341.72 0,0 222.51,-119.19 238.42,278.15 0,0 214.56,-95.37 309.92,15.9 0,0 -127.14,-39.74 -214.55,103.31 0,0 -19.39,96.87 46.61,121.7 7.21,2.72 15.47,4.71 24.89,5.46 95.37,7.95 -153.67,-124.43 -360.29,-37.02 -206.6,87.43 -105.91,-21.34 -105.91,-21.34 0,0 -283.5,-39.75 -243.76,381.45"/>
   <path class="fil1 str27" d="M6208.03 7965.44c0,0 254.29,-111.26 198.67,63.59 0,0 -15.9,119.2 -230.45,63.58 0,0 -214.58,-55.63 -47.7,-262.25 0,0 381.48,-166.9 405.31,190.72 0,0 7.95,-325.82 238.42,-222.51 0,0 278.13,87.42 -7.96,468.88 0,0 270.21,-667.55 834.43,-381.46"/>
   <path class="fil1 str27" d="M6115.33 8272.65c0,0 164.21,-211.84 466.21,-21.12 0,0 317.89,-166.88 79.47,-389.41"/>
   <path class="fil1 str27" d="M7304.71 8124.38c0,0 -182.78,-127.15 -230.46,158.93"/>
   <path class="fil1 str27" d="M6899.42 8259.47c0,0 222.51,-445.03 492.71,-262.24 0,0 166.88,135.11 -15.9,246.37 0,0 -119.19,23.83 -47.69,119.2"/>
   <path class="fil1 str27" d="M7487.49 7965.44c0,0 357.61,214.57 119.2,437.08 0,0 119.21,-182.79 222.51,0 0,0 63.58,-222.51 -158.93,-365.55"/>
   <line class="fil1 str27" x1="7670.27" y1="8036.97" x2="7853.06" y2= "8108.48" />
   <path class="fil1 str27" d="M7853.06 8108.48c0,0 15.9,-164.15 -95.39,-291.31 0,0 272.93,150.99 137.86,731.13"/>
   <path class="fil1 str29" d="M9204.04 8116.43c0,0 -270.18,103.3 -238.41,-373.52"/>
   <path class="fil1 str29" d="M9108.69 7774.71c0,0 -47.68,278.14 365.57,317.89 0,0 103.31,-31.79 166.88,222.51 0,0 15.9,-270.2 -166.88,-421.2"/>
   <path class="fil1 str29" d="M9641.15 7814.44c0,0 238.42,-55.63 254.31,190.74 0,0 -95.39,190.73 -174.83,-47.69 0,0 -143.06,39.74 23.81,230.48 0,0 119.21,39.72 39.75,309.92 0,0 0,-405.29 143.04,-238.42 0,0 119.2,-7.94 127.15,190.74 0,0 23.85,198.68 -95.35,214.57 0,0 -119.2,-15.9 -39.75,-182.78"/>
   <path class="fil1 str29" d="M9156.36 8482c0,0 79.48,-166.89 222.52,47.68 0,0 0.74,294.78 -150.98,143.04 -31.81,-31.78 -169.63,-21.11 -145.78,-346.94 0,0 153.72,-312.65 455.71,76.74 0,0 166.88,206.63 0,278.16 0,0 111.26,-55.63 150.98,71.52 0,0 -143.03,-63.58 -158.92,79.47 0,0 60.97,95.36 209.35,309.93 0,0 2.49,-254.3 -84.94,-317.89 0,0 169.63,151 201.4,254.31 0,0 79.48,-198.69 -31.76,-341.72 0,0 286.08,127.15 15.9,611.92"/>
   <path class="fil1 str29" d="M11286.16 8076.69c0,0 0,95.37 -103.3,87.42 0,0 -135.11,31.79 -55.63,-254.3 0,0 190.75,-174.83 309.94,127.16 0,0 63.59,135.09 -63.58,222.5"/>
   <path class="fil1 str29" d="M11572.29 8227.69c0,0 222.51,-437.08 -270.22,-516.56 0,0 71.53,39.73 79.48,87.42 0,0 -151.01,-79.48 -254.31,-47.69"/>
   <path class="fil1 str29" d="M11262.35 8275.38c0,0 -270.22,309.93 39.72,548.34 0,0 294.04,166.9 63.59,317.89 0,0 -71.53,127.14 -230.47,-103.31 0,0 79.49,55.62 182.8,-7.96 0,0 -111.27,-39.72 -79.49,-158.93"/>
   <path class="fil1 str29" d="M11572.29 8442.27c0,0 -166.91,-47.69 -127.15,174.82 0,0 47.67,135.11 174.83,63.59 0,0 206.6,-31.79 15.9,-325.84 0,0 -39.75,-87.41 -222.53,-23.83 0,0 -206.61,111.27 -47.68,389.4 0,0 87.43,63.59 182.78,262.25 0,0 95.35,-150.99 15.91,-198.67 0,0 174.83,103.31 -71.53,556.29 0,0 -15.9,-87.42 -286.09,-39.74 0,0 47.68,-7.94 127.15,87.43"/>
   <path class="fil10 str20" d="M6804.05 7700.51l625.13 0c0,0 551.04,-815.87 1186.78,-84.73l10.7 63.64 508.6 0 21.11 -106.05c0,0 -211.96,42.47 -264.97,-105.93 0,0 -169.38,-413.23 -582.62,-487.43 0,0 -466.41,-127.15 -826.49,169.56 0,0 -106.05,116.52 -169.61,201.28 0,0 -42.41,105.98 -137.78,127.16 0,0 -328.43,-74.2 -370.84,222.5z"/>
   <path class="fil10 str22" d="M3259.66 9332.33c381.46,-905.96 111.27,-1494.05 111.27,-1494.05 -143.06,-333.78 -286.1,-79.47 -286.1,-79.47 317.88,890.07 -79.46,1557.63 -79.46,1557.63 95.37,190.74 254.29,15.9 254.29,15.9z"/>
   <path class="fil14" d="M1495.41 8187.97c0,0 127.15,-397.36 238.41,0 0,0 79.49,301.99 0,540.4 0,0 -95.37,333.76 -206.61,79.46 0,0 -127.16,-365.56 -31.79,-619.86z"/>
  </g>
 </g>
</svg>
