<?xml version="1.0" encoding="UTF-8" standalone="no"?>
<!-- Creator: CorelDRAW -->

<svg
   xml:space="preserve"
   width="420"
   height="450"
   viewBox="-2002 0 4004 2004"
   id="Emblem_of_the_League_of_Arab_States"
   sodipodi:version="0.32"
   inkscape:version="1.2.1 (9c6d41e410, 2022-07-14)"
   sodipodi:docname="Emblem of the Arab League.svg"
   version="1.0"
   inkscape:output_extension="org.inkscape.output.svg.inkscape"
   xmlns:inkscape="http://www.inkscape.org/namespaces/inkscape"
   xmlns:sodipodi="http://sodipodi.sourceforge.net/DTD/sodipodi-0.dtd"
   xmlns="http://www.w3.org/2000/svg"
   xmlns:svg="http://www.w3.org/2000/svg"
   xmlns:rdf="http://www.w3.org/1999/02/22-rdf-syntax-ns#"
   xmlns:cc="http://creativecommons.org/ns#"
   xmlns:dc="http://purl.org/dc/elements/1.1/"><metadata
     id="metadata1863"><rdf:RDF><cc:Work
         rdf:about=""><dc:format>image/svg+xml</dc:format><dc:type
           rdf:resource="http://purl.org/dc/dcmitype/StillImage" /></cc:Work></rdf:RDF></metadata><sodipodi:namedview
     inkscape:window-height="745"
     inkscape:window-width="1366"
     inkscape:pageshadow="2"
     inkscape:pageopacity="0.0"
     borderopacity="1.0"
     bordercolor="#666666"
     pagecolor="#ffffff"
     id="base"
     inkscape:zoom="0.9"
     inkscape:cx="238.88889"
     inkscape:cy="233.33333"
     inkscape:window-x="-8"
     inkscape:window-y="-8"
     inkscape:current-layer="g13474"
     showborder="true"
     showguides="true"
     inkscape:guide-bbox="false"
     inkscape:grid-points="false"
     inkscape:object-nodes="false"
     inkscape:guide-points="false"
     gridtolerance="7.5"
     objecttolerance="5.9"
     guidetolerance="8"
     inkscape:grid-bbox="false"
     inkscape:object-paths="false"
     width="437px"
     height="480px"
     showgrid="false"
     inkscape:window-maximized="1"
     inkscape:showpageshadow="2"
     inkscape:pagecheckerboard="0"
     inkscape:deskcolor="#d1d1d1" /><defs
     id="defs1709"><inkscape:perspective
   sodipodi:type="inkscape:persp3d"
   inkscape:vp_x="0 : 238.66231 : 1"
   inkscape:vp_y="0 : 1000 : 0"
   inkscape:vp_z="434.53555 : 238.66231 : 1"
   inkscape:persp3d-origin="217.26778 : 159.10821 : 1"
   id="perspective202" />
  <style
   type="text/css"
   id="style1711">
   
    .str2 {stroke:#000000;stroke-width:3}
    .str1 {stroke:#F8C83E;stroke-width:3}
    .str0 {stroke:#000000;stroke-width:3}
    .fil2 {fill:#FFFFFF}
    .fil0 {fill:#006D58}
    .fil1 {fill:#F8C83E}
   
  </style>
 
  
  
  
  
  
  
  
 
 
  
  
  
  
  
  
  
 <style
   id="style2633"
   type="text/css">
   
    .str2 {stroke:#000000;stroke-width:3}
    .str1 {stroke:#F8C83E;stroke-width:3}
    .str0 {stroke:#000000;stroke-width:3}
    .fil2 {fill:#FFFFFF}
    .fil0 {fill:#006D58}
    .fil1 {fill:#F8C83E}
   
  </style>
  
   
   
   
   
   
   
   
   
   
   
   
   
   
   
   
   
   
   
   
   
  
   
   
   
   
   
   
   
   
   
   
   
   
   
   
   
   
   
   
   
   
  </defs><g
     id="g13474"
     transform="matrix(2.9201309,0,0,2.8478461,-3.2718489e-8,-10835.955)"><path
       sodipodi:nodetypes="cccccccccccccccccccccc"
       id="path13472"
       d="M -368.68142,3681.5347 2.3759218,3490.4513 360.10186,3679.3128 l 219.96813,206.6367 44.438,231.0776 -41.72323,177.4363 -60.43793,181.7683 -222.23628,227.3771 31.10661,57.7694 -97.76361,128.8702 -182.195823,-42.2161 -48.8818052,-31.1066 -233.2995218,77.7665 -15.55331,-24.4409 -95.54171,-117.7607 -11.1095,-84.4322 -171.08632,-197.7491 -64.4351,-168.8644 -35.55041,-188.8616 46.65991,-213.3024 82.21031,-102.2074 z"
       style="display:inline;fill:#ffffff;fill-rule:evenodd;stroke:none;stroke-width:1px;stroke-linecap:butt;stroke-linejoin:miter;stroke-opacity:1" /><g
       transform="translate(0,3154.8104)"
       id="g10679"
       style="display:inline"><ellipse
         style="display:inline;overflow:visible;visibility:visible;opacity:1;fill:none;fill-opacity:1;fill-rule:evenodd;stroke:#000000;stroke-width:6.47934;stroke-linecap:round;stroke-linejoin:round;stroke-miterlimit:4;stroke-dasharray:none;stroke-dashoffset:0;stroke-opacity:1;marker:none;marker-start:none;marker-mid:none;marker-end:none;enable-background:accumulate"
         id="path10681"
         transform="matrix(0.9871386,0,0,0.9937859,1208.1716,7.8246444)"
         cx="-1223.153"
         cy="1006.3383"
         rx="469.76511"
         ry="466.62286" /><path
         inkscape:transform-center-y="115.62701"
         id="path10683"
         d="m -40.498001,1471.1963 c 0.03468,-9.3718 7.607293,-16.8885 16.978953,-16.8538 l 45.234761,0.1674 c 9.371661,0.035 16.888437,7.6072 16.853757,16.979 -0.03468,9.3716 -7.607292,16.8883 -16.978953,16.8537 l -45.234761,-0.1674 c -9.37166,-0.035 -16.888436,-7.6073 -16.853757,-16.9789 z"
         style="display:inline;overflow:visible;visibility:visible;fill:#c42023;fill-opacity:1;fill-rule:evenodd;stroke:#000000;stroke-width:6.012;stroke-linecap:round;stroke-linejoin:round;stroke-miterlimit:4;stroke-dashoffset:0;stroke-opacity:1;marker:none;marker-start:none;marker-mid:none;marker-end:none;enable-background:accumulate" /><g
         style="fill:#188400;fill-opacity:1;stroke:#000000;stroke-width:8.012;stroke-miterlimit:4;stroke-dasharray:none;stroke-opacity:1"
         transform="matrix(1.000499,0,0,1.000499,0,4.791172)"
         id="g10685">
   <path
   id="path10687"
   class="fil2 str2"
   d="m -29,384 c -13,-74 -122,-79 -139,-91 -20,-13 -17,0 -10,20 20,52 88,73 119,79 25,4 33,6 30,-8 z"
   style="fill:#5b9942;fill-opacity:1;stroke:#000000;stroke-width:8.012;stroke-miterlimit:4;stroke-dasharray:none;stroke-opacity:1" />
   <path
   id="path10689"
   class="fil2 str2"
   d="m 4,386 c 11,-76 -97,-112 -110,-129 -15,-18 -17,-7 -10,14 13,45 60,98 88,112 23,12 30,17 32,3 z"
   style="fill:#5b9942;fill-opacity:1;stroke:#000000;stroke-width:8.012;stroke-miterlimit:4;stroke-dasharray:none;stroke-opacity:1" />
   <path
   id="path10691"
   class="fil2 str2"
   d="M 93,430 C 103,339 15,325 -8,296 c -15,-18 -16,-8 -11,13 10,46 54,100 81,117 21,13 30,18 31,4 z"
   style="fill:#5b9942;fill-opacity:1;stroke:#000000;stroke-width:8.012;stroke-miterlimit:4;stroke-dasharray:none;stroke-opacity:1" />
   <path
   id="path10693"
   class="fil2 str2"
   d="m 66,410 c -91,-59 -155,-26 -181,-29 -25,-3 -33,13 10,37 53,29 127,25 156,14 30,-12 21,-18 15,-22 z"
   style="fill:#5b9942;fill-opacity:1;stroke:#000000;stroke-width:8.012;stroke-miterlimit:4;stroke-dasharray:none;stroke-opacity:1" />
   <path
   id="path10695"
   class="fil2 str2"
   d="M 203,450 C 175,352 110,368 91,356 72,344 70,347 74,369 c 8,39 75,82 108,95 12,4 27,10 21,-14 z"
   style="fill:#5b9942;fill-opacity:1;stroke:#000000;stroke-width:8.012;stroke-miterlimit:4;stroke-dasharray:none;stroke-opacity:1" />
   <path
   id="path10697"
   class="fil2 str2"
   d="M 190,467 C 112,404 51,451 27,444 c -18,-5 -10,7 -3,12 50,35 112,54 160,32 19,-8 20,-10 6,-21 z"
   style="fill:#5b9942;fill-opacity:1;stroke:#000000;stroke-width:8.012;stroke-miterlimit:4;stroke-dasharray:none;stroke-opacity:1" />
   <path
   id="path10699"
   class="fil2 str2"
   d="m 359,531 c 1,-62 -127,-88 -154,-126 -16,-23 -30,-11 -22,26 12,48 100,101 148,111 29,6 28,-4 28,-11 z"
   style="fill:#5b9942;fill-opacity:1;stroke:#000000;stroke-width:8.012;stroke-miterlimit:4;stroke-dasharray:none;stroke-opacity:1" />
   <path
   id="path10701"
   class="fil2 str2"
   d="m 355,542 c -81,-73 -149,-49 -174,-56 -25,-6 -35,9 4,39 48,36 122,43 153,36 31,-7 23,-14 17,-19 z"
   style="fill:#5b9942;fill-opacity:1;stroke:#000000;stroke-width:8.012;stroke-miterlimit:4;stroke-dasharray:none;stroke-opacity:1" />
   <path
   id="path10703"
   class="fil2 str2"
   d="M 500,649 C 477,543 404,521 386,501 c -17,-20 -35,-14 -20,34 18,57 77,107 108,119 30,13 28,3 26,-5 z"
   style="fill:#5b9942;fill-opacity:1;stroke:#000000;stroke-width:8.012;stroke-miterlimit:4;stroke-dasharray:none;stroke-opacity:1" />
   <path
   id="path10705"
   class="fil2 str2"
   d="M 499,663 C 440,568 363,571 339,558 c -23,-14 -39,-2 -8,39 36,50 110,78 144,80 34,2 28,-7 24,-14 z"
   style="fill:#5b9942;fill-opacity:1;stroke:#000000;stroke-width:8.012;stroke-miterlimit:4;stroke-dasharray:none;stroke-opacity:1" />
   <path
   id="path10707"
   class="fil2 str2"
   d="m 575,776 c 34,-108 -44,-148 -52,-166 -9,-18 -18,-18 -23,1 -22,77 49,152 60,167 11,14 13,7 15,-2 z"
   style="fill:#5b9942;fill-opacity:1;stroke:#000000;stroke-width:8.012;stroke-miterlimit:4;stroke-dasharray:none;stroke-opacity:1" />
   <path
   id="path10709"
   class="fil2 str2"
   d="M 559,806 C 532,685 461,692 445,675 c -17,-17 -19,-5 -16,17 8,59 79,99 111,119 10,6 22,13 19,-5 z"
   style="fill:#5b9942;fill-opacity:1;stroke:#000000;stroke-width:8.012;stroke-miterlimit:4;stroke-dasharray:none;stroke-opacity:1" />
   <path
   id="path10711"
   class="fil2 str2"
   d="m 627,948 c 49,-114 -9,-191 -27,-208 -18,-16 -29,-23 -23,0 8,35 -20,125 23,191 14,22 16,43 27,17 z"
   style="fill:#5b9942;fill-opacity:1;stroke:#000000;stroke-width:8.012;stroke-miterlimit:4;stroke-dasharray:none;stroke-opacity:1" />
   <path
   id="path10713"
   class="fil2 str2"
   d="m 601,971 c 11,-70 -29,-134 -72,-159 -25,-15 -26,-11 -26,10 2,65 63,119 81,149 17,28 16,7 17,0 z"
   style="fill:#5b9942;fill-opacity:1;stroke:#000000;stroke-width:8.012;stroke-miterlimit:4;stroke-dasharray:none;stroke-opacity:1" />
   <path
   id="path10715"
   class="fil2 str2"
   d="m 590,1153 c -36,-132 39,-208 62,-223 22,-16 36,-22 26,3 -15,37 1,140 -56,205 -18,22 -25,45 -32,15 z"
   style="fill:#5b9942;fill-opacity:1;stroke:#000000;stroke-width:8.012;stroke-miterlimit:4;stroke-dasharray:none;stroke-opacity:1" />
   <path
   id="path10717"
   class="fil2 str2"
   d="m 598,1124 c 30,-115 -35,-180 -55,-193 -19,-13 -31,-18 -22,3 12,32 -1,122 49,178 16,19 22,38 28,12 z"
   style="fill:#5b9942;fill-opacity:1;stroke:#000000;stroke-width:8.012;stroke-miterlimit:4;stroke-dasharray:none;stroke-opacity:1" />
   <path
   id="path10719"
   class="fil2 str2"
   d="m 561,1070 c -54,58 -55,143 -31,193 15,29 17,27 31,6 38,-61 15,-149 17,-188 1,-37 -11,-17 -17,-11 z"
   style="fill:#5b9942;fill-opacity:1;stroke:#000000;stroke-width:8.012;stroke-miterlimit:4;stroke-dasharray:none;stroke-opacity:1" />
   <path
   id="path10721"
   class="fil2 str2"
   d="m 650,1162 c 0,80 -49,145 -101,165 -30,11 -30,8 -26,-16 14,-90 83,-123 108,-152 24,-28 19,-5 19,3 z"
   style="fill:#5b9942;fill-opacity:1;stroke:#000000;stroke-width:8.012;stroke-miterlimit:4;stroke-dasharray:none;stroke-opacity:1" />
   <path
   id="path10723"
   class="fil2 str2"
   d="m 464,1400 c 88,-80 41,-136 45,-188 2,-28 -9,-21 -19,-11 -56,55 -59,153 -47,191 5,17 13,15 21,8 z"
   style="fill:#5b9942;fill-opacity:1;stroke:#000000;stroke-width:8.012;stroke-miterlimit:4;stroke-dasharray:none;stroke-opacity:1" />
   <path
   id="path10725"
   class="fil2 str2"
   d="m 582,1348 c -29,88 -106,142 -171,145 -38,2 -37,-1 -24,-27 49,-94 136,-105 175,-129 36,-22 23,2 20,11 z"
   style="fill:#5b9942;fill-opacity:1;stroke:#000000;stroke-width:8.012;stroke-miterlimit:4;stroke-dasharray:none;stroke-opacity:1" />
   <path
   id="path10727"
   class="fil2 str2"
   d="m 343,1513 c 114,-57 91,-152 112,-176 15,-17 -3,-15 -12,-9 -67,39 -121,101 -122,167 0,25 2,28 22,18 z"
   style="fill:#5b9942;fill-opacity:1;stroke:#000000;stroke-width:8.012;stroke-miterlimit:4;stroke-dasharray:none;stroke-opacity:1" />
   <path
   id="path10729"
   class="fil2 str2"
   d="m 187,1619 c 144,23 211,-86 253,-96 22,-5 6,-14 -5,-15 -96,-11 -218,34 -255,84 -15,20 -15,24 7,27 z"
   style="fill:#5b9942;fill-opacity:1;stroke:#000000;stroke-width:8.012;stroke-miterlimit:4;stroke-dasharray:none;stroke-opacity:1" />
   <path
   id="path10731"
   class="fil2 str2"
   d="m 333,1448 c -29,95 -137,173 -218,179 -38,3 -38,-1 -24,-26 65,-118 178,-138 218,-168 34,-26 27,6 24,15 z"
   style="fill:#5b9942;fill-opacity:1;stroke:#000000;stroke-width:8.012;stroke-miterlimit:4;stroke-dasharray:none;stroke-opacity:1" />
   <path
   id="path10733"
   class="fil2 str2"
   d="m 29,384 c 13,-74 122,-79 139,-91 20,-13 17,0 10,20 -20,52 -88,73 -119,79 -25,4 -33,6 -30,-8 z"
   style="fill:#5b9942;fill-opacity:1;stroke:#000000;stroke-width:8.012;stroke-miterlimit:4;stroke-dasharray:none;stroke-opacity:1" />
   <path
   id="path10735"
   class="fil2 str2"
   d="m -4,386 c -11,-76 97,-112 110,-129 15,-18 17,-7 10,14 -13,45 -60,98 -88,112 -23,12 -30,17 -32,3 z"
   style="fill:#5b9942;fill-opacity:1;stroke:#000000;stroke-width:8.012;stroke-miterlimit:4;stroke-dasharray:none;stroke-opacity:1" />
   <path
   id="path10737"
   class="fil2 str2"
   d="m -93,430 c -10,-91 78,-105 101,-134 15,-18 16,-8 11,13 -10,46 -54,100 -81,117 -21,13 -30,18 -31,4 z"
   style="fill:#5b9942;fill-opacity:1;stroke:#000000;stroke-width:8.012;stroke-miterlimit:4;stroke-dasharray:none;stroke-opacity:1" />
   <path
   id="path10739"
   class="fil2 str2"
   d="m -66,410 c 91,-59 155,-26 181,-29 25,-3 33,13 -10,37 -53,29 -127,25 -156,14 -30,-12 -21,-18 -15,-22 z"
   style="fill:#5b9942;fill-opacity:1;stroke:#000000;stroke-width:8.012;stroke-miterlimit:4;stroke-dasharray:none;stroke-opacity:1" />
   <path
   id="path10741"
   class="fil2 str2"
   d="m -203,450 c 28,-98 93,-82 112,-94 19,-12 21,-9 17,13 -8,39 -75,82 -108,95 -12,4 -27,10 -21,-14 z"
   style="fill:#5b9942;fill-opacity:1;stroke:#000000;stroke-width:8.012;stroke-miterlimit:4;stroke-dasharray:none;stroke-opacity:1" />
   <path
   id="path10743"
   class="fil2 str2"
   d="m -190,467 c 78,-63 139,-16 163,-23 18,-5 10,7 3,12 -50,35 -112,54 -160,32 -19,-8 -20,-10 -6,-21 z"
   style="fill:#5b9942;fill-opacity:1;stroke:#000000;stroke-width:8.012;stroke-miterlimit:4;stroke-dasharray:none;stroke-opacity:1" />
   <path
   id="path10745"
   class="fil2 str2"
   d="m -359,531 c -1,-62 127,-88 154,-126 16,-23 30,-11 22,26 -12,48 -100,101 -148,111 -29,6 -28,-4 -28,-11 z"
   style="fill:#5b9942;fill-opacity:1;stroke:#000000;stroke-width:8.012;stroke-miterlimit:4;stroke-dasharray:none;stroke-opacity:1" />
   <path
   id="path10747"
   class="fil2 str2"
   d="m -355,542 c 81,-73 149,-49 174,-56 25,-6 35,9 -4,39 -48,36 -122,43 -153,36 -31,-7 -23,-14 -17,-19 z"
   style="fill:#5b9942;fill-opacity:1;stroke:#000000;stroke-width:8.012;stroke-miterlimit:4;stroke-dasharray:none;stroke-opacity:1" />
   <path
   id="path10749"
   class="fil2 str2"
   d="m -500,649 c 23,-106 96,-128 114,-148 17,-20 35,-14 20,34 -18,57 -77,107 -108,119 -30,13 -28,3 -26,-5 z"
   style="fill:#5b9942;fill-opacity:1;stroke:#000000;stroke-width:8.012;stroke-miterlimit:4;stroke-dasharray:none;stroke-opacity:1" />
   <path
   id="path10751"
   class="fil2 str2"
   d="m -499,663 c 59,-95 136,-92 160,-105 23,-14 39,-2 8,39 -36,50 -110,78 -144,80 -34,2 -28,-7 -24,-14 z"
   style="fill:#5b9942;fill-opacity:1;stroke:#000000;stroke-width:8.012;stroke-miterlimit:4;stroke-dasharray:none;stroke-opacity:1" />
   <path
   id="path10753"
   class="fil2 str2"
   d="m -575,776 c -34,-108 44,-148 52,-166 9,-18 18,-18 23,1 22,77 -49,152 -60,167 -11,14 -13,7 -15,-2 z"
   style="fill:#5b9942;fill-opacity:1;stroke:#000000;stroke-width:8.012;stroke-miterlimit:4;stroke-dasharray:none;stroke-opacity:1" />
   <path
   id="path10755"
   class="fil2 str2"
   d="m -559,806 c 27,-121 98,-114 114,-131 17,-17 19,-5 16,17 -8,59 -79,99 -111,119 -10,6 -22,13 -19,-5 z"
   style="fill:#5b9942;fill-opacity:1;stroke:#000000;stroke-width:8.012;stroke-miterlimit:4;stroke-dasharray:none;stroke-opacity:1" />
   <path
   id="path10757"
   class="fil2 str2"
   d="m -627,948 c -49,-114 9,-191 27,-208 18,-16 29,-23 23,0 -8,35 20,125 -23,191 -14,22 -16,43 -27,17 z"
   style="fill:#5b9942;fill-opacity:1;stroke:#000000;stroke-width:8.012;stroke-miterlimit:4;stroke-dasharray:none;stroke-opacity:1" />
   <path
   id="path10759"
   class="fil2 str2"
   d="m -601,971 c -11,-70 29,-134 72,-159 25,-15 26,-11 26,10 -2,65 -63,119 -81,149 -17,28 -16,7 -17,0 z"
   style="fill:#5b9942;fill-opacity:1;stroke:#000000;stroke-width:8.012;stroke-miterlimit:4;stroke-dasharray:none;stroke-opacity:1" />
   <path
   id="path10761"
   class="fil2 str2"
   d="m -590,1153 c 36,-132 -39,-208 -62,-223 -22,-16 -36,-22 -26,3 15,37 -1,140 56,205 18,22 24,45 32,15 z"
   style="fill:#5b9942;fill-opacity:1;stroke:#000000;stroke-width:8.012;stroke-miterlimit:4;stroke-dasharray:none;stroke-opacity:1" />
   <path
   id="path10763"
   class="fil2 str2"
   d="m -598,1124 c -30,-115 35,-180 55,-193 19,-13 31,-18 22,3 -12,32 1,122 -49,178 -16,19 -22,38 -28,12 z"
   style="fill:#5b9942;fill-opacity:1;stroke:#000000;stroke-width:8.012;stroke-miterlimit:4;stroke-dasharray:none;stroke-opacity:1" />
   <path
   id="path10765"
   class="fil2 str2"
   d="m -561,1070 c 54,58 55,143 31,193 -15,29 -17,27 -31,6 -38,-61 -15,-149 -17,-188 -1,-37 11,-17 17,-11 z"
   style="fill:#5b9942;fill-opacity:1;stroke:#000000;stroke-width:8.012;stroke-miterlimit:4;stroke-dasharray:none;stroke-opacity:1" />
   <path
   id="path10767"
   class="fil2 str2"
   d="m -650,1162 c 0,80 49,145 101,165 30,11 30,8 26,-16 -14,-90 -83,-123 -108,-152 -24,-28 -19,-5 -19,3 z"
   style="fill:#5b9942;fill-opacity:1;stroke:#000000;stroke-width:8.012;stroke-miterlimit:4;stroke-dasharray:none;stroke-opacity:1" />
   <path
   id="path10769"
   class="fil2 str2"
   d="m -464,1400 c -88,-80 -41,-136 -45,-188 -2,-28 9,-21 19,-11 56,55 59,153 47,191 -5,17 -13,15 -21,8 z"
   style="fill:#5b9942;fill-opacity:1;stroke:#000000;stroke-width:8.012;stroke-miterlimit:4;stroke-dasharray:none;stroke-opacity:1" />
   <path
   id="path10771"
   class="fil2 str2"
   d="m -582,1348 c 29,88 106,142 171,145 38,2 37,-1 24,-27 -49,-94 -136,-105 -175,-129 -36,-22 -23,2 -20,11 z"
   style="fill:#5b9942;fill-opacity:1;stroke:#000000;stroke-width:8.012;stroke-miterlimit:4;stroke-dasharray:none;stroke-opacity:1" />
   <path
   id="path10773"
   class="fil2 str2"
   d="m -343,1513 c -114,-57 -91,-152 -112,-176 -15,-17 3,-15 12,-9 67,39 121,101 122,167 0,25 -2,28 -22,18 z"
   style="fill:#5b9942;fill-opacity:1;stroke:#000000;stroke-width:8.012;stroke-miterlimit:4;stroke-dasharray:none;stroke-opacity:1" />
   <path
   id="path10775"
   class="fil2 str2"
   d="m -187,1619 c -144,23 -211,-86 -253,-96 -22,-5 -6,-14 5,-15 96,-11 218,34 255,84 15,20 15,24 -7,27 z"
   style="fill:#5b9942;fill-opacity:1;stroke:#000000;stroke-width:8.012;stroke-miterlimit:4;stroke-dasharray:none;stroke-opacity:1" />
   <path
   id="path10777"
   class="fil2 str2"
   d="m -333,1448 c 29,95 137,173 218,179 38,3 38,-1 24,-26 -65,-118 -178,-138 -218,-168 -34,-26 -27,6 -24,15 z"
   style="fill:#5b9942;fill-opacity:1;stroke:#000000;stroke-width:8.012;stroke-miterlimit:4;stroke-dasharray:none;stroke-opacity:1" />
  </g><g
         style="fill:#2d5016"
         transform="matrix(1.000499,0,0,1.000499,0,4.791172)"
         id="g10779">
   <path
   id="path10781"
   class="fil0"
   d="m 169,476 c -19,-14 -89,-6 -102,-15 25,21 81,6 102,15 z"
   style="fill:#2d5016;fill-opacity:1" />
   <path
   id="path10783"
   class="fil0"
   d="m 338,512 c -15,-27 -104,-45 -117,-69 23,46 92,40 117,69 z"
   style="fill:#2d5016;fill-opacity:1" />
   <path
   id="path10785"
   class="fil0"
   d="m 325,543 c -33,-32 -110,-19 -133,-38 54,49 84,11 133,38 z"
   style="fill:#2d5016;fill-opacity:1" />
   <path
   id="path10787"
   class="fil0"
   d="m 132,401 c 21,11 47,22 60,48 -15,-20 -42,-28 -64,-45 1,0 3,-2 4,-3 z"
   style="fill:#2d5016;fill-opacity:1" />
   <path
   id="path10789"
   class="fil0"
   d="m 460,607 c -13,-30 -59,-63 -63,-74 13,39 51,48 63,74 z"
   style="fill:#2d5016;fill-opacity:1" />
   <path
   id="path10791"
   class="fil0"
   d="m 472,660 c -40,-63 -103,-56 -128,-80 19,23 91,38 128,80 z"
   style="fill:#2d5016;fill-opacity:1" />
   <path
   id="path10793"
   class="fil0"
   d="m 565,757 c 3,-67 -47,-92 -49,-130 -1,45 51,106 49,130 z"
   style="fill:#2d5016;fill-opacity:1" />
   <path
   id="path10795"
   class="fil0"
   d="m 540,793 c -10,-58 -78,-62 -90,-96 0,32 80,65 90,96 z"
   style="fill:#2d5016;fill-opacity:1" />
   <path
   id="path10797"
   class="fil0"
   d="m 596,760 c 36,44 11,111 26,160 -18,-36 -9,-126 -26,-160 z"
   style="fill:#2d5016;fill-opacity:1" />
   <path
   id="path10799"
   class="fil0"
   d="m 537,948 c 54,58 32,123 54,151 -27,-39 -23,-115 -54,-151 z"
   style="fill:#2d5016;fill-opacity:1" />
   <path
   id="path10801"
   class="fil0"
   d="m 649,956 c -46,51 -18,128 -42,164 27,-31 23,-126 42,-164 z"
   style="fill:#2d5016;fill-opacity:1" />
   <path
   id="path10803"
   class="fil0"
   d="m 591,956 c -6,-59 -61,-90 -66,-122 -6,32 53,82 66,122 z"
   style="fill:#2d5016;fill-opacity:1" />
   <path
   id="path10805"
   class="fil0"
   d="m 563,1097 c 9,41 -24,129 -14,156 -22,-47 19,-136 14,-156 z"
   style="fill:#2d5016;fill-opacity:1" />
   <path
   id="path10807"
   class="fil0"
   d="m 634,1191 c -22,73 -66,68 -80,112 10,-42 68,-80 80,-112 z"
   style="fill:#2d5016;fill-opacity:1" />
   <path
   id="path10809"
   class="fil0"
   d="m 491,1225 c -29,49 -5,105 -29,140 34,-35 16,-100 29,-140 z"
   style="fill:#2d5016;fill-opacity:1" />
   <path
   id="path10811"
   class="fil0"
   d="m 561,1359 c -35,65 -107,59 -136,106 29,-59 118,-69 136,-106 z"
   style="fill:#2d5016;fill-opacity:1" />
   <path
   id="path10813"
   class="fil0"
   d="m 434,1351 c -62,43 -43,88 -90,136 59,-48 54,-101 90,-136 z"
   style="fill:#2d5016;fill-opacity:1" />
   <path
   id="path10815"
   class="fil0"
   d="m 405,1525 c -60,-2 -146,76 -198,70 52,11 148,-59 198,-70 z"
   style="fill:#2d5016;fill-opacity:1" />
   <path
   id="path10817"
   class="fil0"
   d="m 308,1455 c -4,61 -160,100 -177,141 19,-54 156,-94 177,-141 z"
   style="fill:#2d5016;fill-opacity:1" />
   <path
   id="path10819"
   class="fil0"
   d="m -45,330 c -20,-17 -44,-31 -51,-48 5,22 25,38 45,53 2,-1 4,-4 6,-5 z"
   style="fill:#2d5016;fill-opacity:1" />
   <path
   id="path10821"
   class="fil0"
   d="m -79,348 c -31,-15 -67,-14 -83,-35 10,21 44,29 73,40 3,-2 7,-4 10,-5 z"
   style="fill:#2d5016;fill-opacity:1" />
   <path
   id="path10823"
   class="fil0"
   d="m -169,476 c 19,-14 89,-6 102,-15 -25,21 -81,6 -102,15 z"
   style="fill:#2d5016;fill-opacity:1" />
   <path
   id="path10825"
   class="fil0"
   d="m -338,512 c 15,-27 104,-45 117,-69 -23,46 -92,40 -117,69 z"
   style="fill:#2d5016;fill-opacity:1" />
   <path
   id="path10827"
   class="fil0"
   d="m -325,543 c 33,-32 110,-19 133,-38 -54,49 -84,11 -133,38 z"
   style="fill:#2d5016;fill-opacity:1" />
   <path
   id="path10829"
   class="fil0"
   d="m -192,449 c 19,-40 73,-45 87,-69 -21,36 -67,42 -87,69 z"
   style="fill:#2d5016;fill-opacity:1" />
   <path
   id="path10831"
   class="fil0"
   d="M -38,414 C 17,388 71,410 97,398 65,415 -11,407 -38,414 Z"
   style="fill:#2d5016;fill-opacity:1" />
   <path
   id="path10833"
   class="fil0"
   d="m -460,607 c 13,-30 59,-63 63,-74 -13,39 -51,48 -63,74 z"
   style="fill:#2d5016;fill-opacity:1" />
   <path
   id="path10835"
   class="fil0"
   d="m -472,660 c 40,-63 103,-56 128,-80 -19,23 -91,38 -128,80 z"
   style="fill:#2d5016;fill-opacity:1" />
   <path
   id="path10837"
   class="fil0"
   d="m -565,757 c -3,-67 47,-92 49,-130 1,45 -51,106 -49,130 z"
   style="fill:#2d5016;fill-opacity:1" />
   <path
   id="path10839"
   class="fil0"
   d="m -540,793 c 10,-58 78,-62 90,-96 0,32 -80,65 -90,96 z"
   style="fill:#2d5016;fill-opacity:1" />
   <path
   id="path10841"
   class="fil0"
   d="m -596,760 c -36,44 -11,111 -26,160 18,-36 9,-126 26,-160 z"
   style="fill:#2d5016;fill-opacity:1" />
   <path
   id="path10843"
   class="fil0"
   d="m -537,948 c -54,58 -32,123 -54,151 27,-39 23,-115 54,-151 z"
   style="fill:#2d5016;fill-opacity:1" />
   <path
   id="path10845"
   class="fil0"
   d="m -649,956 c 46,51 18,128 42,164 -27,-31 -23,-126 -42,-164 z"
   style="fill:#2d5016;fill-opacity:1" />
   <path
   id="path10847"
   class="fil0"
   d="m -591,956 c 6,-59 61,-90 66,-122 6,32 -53,82 -66,122 z"
   style="fill:#2d5016;fill-opacity:1" />
   <path
   id="path10849"
   class="fil0"
   d="m -563,1097 c -9,41 24,129 14,156 22,-47 -19,-136 -14,-156 z"
   style="fill:#2d5016;fill-opacity:1" />
   <path
   id="path10851"
   class="fil0"
   d="m -634,1191 c 22,73 66,68 80,112 -10,-42 -68,-80 -80,-112 z"
   style="fill:#2d5016;fill-opacity:1" />
   <path
   id="path10853"
   class="fil0"
   d="m -491,1225 c 29,49 5,105 29,140 -34,-35 -16,-100 -29,-140 z"
   style="fill:#2d5016;fill-opacity:1" />
   <path
   id="path10855"
   class="fil0"
   d="m -561,1359 c 35,65 107,59 136,106 -29,-59 -118,-69 -136,-106 z"
   style="fill:#2d5016;fill-opacity:1" />
   <path
   id="path10857"
   class="fil0"
   d="m -434,1351 c 62,43 43,88 90,136 -59,-48 -54,-101 -90,-136 z"
   style="fill:#2d5016;fill-opacity:1" />
   <path
   id="path10859"
   class="fil0"
   d="m -405,1525 c 60,-2 146,76 198,70 -52,11 -148,-59 -198,-70 z"
   style="fill:#2d5016;fill-opacity:1" />
   <path
   id="path10861"
   class="fil0"
   d="m -308,1455 c 4,61 160,100 177,141 -19,-54 -156,-94 -177,-141 z"
   style="fill:#2d5016;fill-opacity:1" />
   <path
   id="path10863"
   class="fil0"
   d="m -81,416 c 12,-54 72,-64 80,-96 -3,34 -74,72 -80,96 z"
   style="fill:#2d5016;fill-opacity:1" />
   <path
   id="path10865"
   class="fil0"
   d="m 96,282 c -9,41 -74,64 -83,95 3,-42 70,-66 83,-95 z"
   style="fill:#2d5016;fill-opacity:1" />
   <path
   id="path10867"
   class="fil0"
   d="m 45,379 c 31,-50 95,-37 117,-66 -16,34 -95,35 -117,66 z"
   style="fill:#2d5016;fill-opacity:1" />
  </g><g
         style="fill:#188400;fill-opacity:1;stroke:#000000;stroke-width:8.012;stroke-miterlimit:4;stroke-dasharray:none;stroke-opacity:1"
         transform="matrix(1.000499,0,0,1.000499,0,4.791172)"
         id="g10869">
   <path
   id="path10871"
   class="fil2 str2"
   d="m -54,1623 c -88,44 -198,32 -291,-28 -4,-2 -6,1 -2,12 10,29 18,52 -12,95 -13,19 2,22 24,20 112,-11 222,-36 275,-57 z"
   style="fill:#5b9942;fill-opacity:1;stroke:#000000;stroke-width:8.012;stroke-miterlimit:4;stroke-dasharray:none;stroke-opacity:1" />
   <path
   id="path10873"
   class="fil2 str2"
   d="m -56,1675 c -35,14 -95,31 -162,43 -27,4 -26,21 22,27 49,5 112,-30 150,-61 z"
   style="fill:#5b9942;fill-opacity:1;stroke:#000000;stroke-width:8.012;stroke-miterlimit:4;stroke-dasharray:none;stroke-opacity:1" />
   <path
   id="path10875"
   class="fil2 str2"
   d="m 0,1579 c 12,0 34,-5 56,-8 41,-7 11,56 -56,56 v 21 c 68,0 139,-74 124,-107 -21,-48 -79,-7 -124,-7 -45,0 -103,-41 -124,7 -15,33 56,107 124,107 v -21 c -67,0 -97,-63 -56,-56 22,3 44,8 56,8 z"
   style="fill:#5b9942;fill-opacity:1;stroke:#000000;stroke-width:8.012;stroke-miterlimit:4;stroke-dasharray:none;stroke-opacity:1" />
   <path
   id="path10877"
   class="fil2 str2"
   d="m 54,1623 c 88,44 198,32 291,-28 4,-2 6,1 2,12 -10,29 -18,52 12,95 13,19 -2,22 -24,20 -112,-11 -222,-36 -275,-57 z"
   style="fill:#5b9942;fill-opacity:1;stroke:#000000;stroke-width:8.012;stroke-miterlimit:4;stroke-dasharray:none;stroke-opacity:1" />
   <path
   id="path10879"
   class="fil2 str2"
   d="m 56,1675 c 35,14 94,31 162,43 27,4 26,21 -22,27 -49,5 -112,-30 -150,-61 z"
   style="fill:#5b9942;fill-opacity:1;stroke:#000000;stroke-width:8.012;stroke-miterlimit:4;stroke-dasharray:none;stroke-opacity:1" />
   <path
   id="path10881"
   class="fil2 str2"
   d="m 3,1665 c 2,17 5,54 28,38 31,-21 38,-37 38,-67 0,-19 -23,-47 -69,-47 -46,0 -69,28 -69,47 0,30 7,46 38,67 23,16 25,-21 28,-38 1,-6 6,-4 6,0 z"
   style="fill:#5b9942;fill-opacity:1;stroke:#000000;stroke-width:8.012;stroke-miterlimit:4;stroke-dasharray:none;stroke-opacity:1" />
  </g><path
         style="opacity:0.99;fill:none;fill-opacity:1;stroke:#000000;stroke-width:21.6189"
         d="m -898.52543,220.7963 c 0,0 326.23792,-387.9537 906.4698757,-387.9537 569.3723143,0 893.7500043,389.27778 893.7500043,389.27778"
         id="path1362"
         sodipodi:nodetypes="csc"
         transform="matrix(0.34245039,0,0,0.35114255,1.1204406e-8,650.15468)" /><path
         id="path10883"
         class="fil2"
         d="M 0.60675562,1426.9476 C 231.05154,1426.9476 418.5498,1239.4493 418.5498,1009.0045 c 0,-126.74459 -56.56372,-239.87202 -145.5992,-316.3378 53.42129,62.84858 85.89305,145.59921 85.89305,235.68217 0,200.06803 -160.26388,362.42673 -358.23689438,362.42673 -197.97302562,0 -358.23689562,-162.3587 -358.23689562,-362.42673 0,-90.08296 32.47176,-172.83359 85.89305,-235.68217 -89.03548,76.46578 -145.59921,189.59321 -145.59921,316.3378 0,230.4448 187.49826,417.9431 417.94305562,417.9431 z"
         style="display:inline;opacity:1;fill:#c6b030;fill-opacity:1;stroke:#000000;stroke-width:8.016;stroke-linejoin:round;stroke-miterlimit:4;stroke-dasharray:none;stroke-opacity:1" /><ellipse
         style="display:inline;overflow:visible;visibility:visible;opacity:1;fill:none;fill-opacity:1;fill-rule:evenodd;stroke:#000000;stroke-width:7.62078;stroke-linecap:round;stroke-linejoin:round;stroke-miterlimit:4;stroke-dasharray:none;stroke-dashoffset:0;stroke-opacity:1;marker:none;marker-start:none;marker-mid:none;marker-end:none;enable-background:accumulate"
         id="path10885"
         transform="matrix(1.0578809,0,0,1.0650047,1294.7002,-63.845563)"
         cx="-1223.153"
         cy="1006.3383"
         rx="469.76511"
         ry="466.62286" /><path
         style="fill:#000000;stroke-width:3.30587"
         d="m 80.450478,1247.9938 c 0.02918,-1.4234 4.436694,-7.043 7.624609,-9.7216 1.981619,-1.6649 6.970218,-4.2452 13.952183,-7.2164 5.97724,-2.5436 14.18075,-6.1666 18.23001,-8.0512 11.95497,-5.564 40.34373,-15.2824 44.64178,-15.2824 1.16275,0 1.17506,0.1283 0.19856,2.0645 -1.31438,2.6063 -7.75858,9.2532 -10.19854,10.5194 -1.01534,0.5269 -5.30967,1.9497 -9.54301,3.1617 -11.34367,3.2479 -29.10733,9.868 -38.73466,14.4356 -8.467109,4.0172 -20.894297,9.2962 -24.346952,10.3426 -1.277553,0.3871 -1.835495,0.31 -1.82398,-0.2522 z m -171.357593,-41.0386 c -2.760866,-0.7171 -9.601065,-2.0738 -15.200465,-3.0152 -17.44246,-2.9321 -24.32143,-6.4553 -36.06606,-18.472 -10.95674,-11.2106 -14.46992,-16.627 -18.5058,-28.5312 -1.65403,-4.8787 -2.03609,-7.2681 -2.33432,-14.5991 -0.21573,-5.3034 -0.0408,-10.8605 0.44266,-14.069 0.88513,-5.8731 6.08142,-23.3923 10.18859,-34.3508 2.45966,-6.5626 7.26567,-20.2181 10.94943,-31.1108 l 1.54517,-4.5689 -4.20456,-2.1225 c -2.31251,-1.1675 -6.22543,-3.821 -8.69537,-5.897 -4.40681,-3.7038 -5.71865,-4.4206 -5.71865,-3.1249 0,0.3574 -2.05272,3.8317 -4.56161,7.7208 -2.50889,3.8892 -6.24495,9.6963 -8.30234,12.9046 -6.54666,10.2092 -24.35861,29.3167 -34.6564,37.1773 -5.56372,4.2469 -16.66231,11.2187 -23.39893,14.6988 -7.95156,4.1076 -22.05678,7.1069 -33.53749,7.1312 -10.73533,0.023 -17.35102,-3.0024 -21.65595,-9.903 -1.31616,-2.1098 -2.39302,-4.0157 -2.39302,-4.2356 0,-0.2197 -1.65232,-4.0067 -3.67183,-8.4153 -5.95426,-12.9983 -7.68817,-25.0663 -5.31584,-36.997 1.61654,-8.1297 6.83669,-25.9778 8.70161,-29.7514 2.74166,-5.5477 14.97858,-17.7452 17.80262,-17.7452 0.81909,0 0.67327,2.612 -0.24197,4.3344 -1.16415,2.1909 -4.99762,15.4377 -6.98772,24.1466 -1.46845,6.426 -1.67501,8.6213 -1.38832,14.7552 0.40121,8.5849 1.55372,13.2377 5.4398,21.9613 1.59739,3.5858 3.09396,7.094 3.32572,7.796 0.23175,0.7019 1.67876,3.2373 3.21555,5.6341 2.23068,3.479 3.61278,4.8133 6.85317,6.6162 l 4.059,2.2581 10.37415,-0.05 c 10.85345,-0.052 18.48416,-1.3669 26.42818,-4.5529 6.71851,-2.6947 17.92281,-10.2399 23.66413,-15.9362 6.30841,-6.259 15.58083,-19.8446 20.86931,-30.5769 1.7704,-3.5928 4.7443,-8.4569 6.60867,-10.8091 l 3.38976,-4.2766 -4.50511,-5.7612 c -6.75154,-8.6338 -12.3275,-19.5739 -14.69604,-28.8337 -1.00723,-3.9378 -1.02504,-4.6526 -0.15746,-6.321 1.52515,-2.93291 9.71454,-11.62117 13.15925,-13.96075 3.42637,-2.32713 4.14185,-2.52631 4.50024,-1.25284 2.34003,8.31491 6.50302,18.43569 9.94527,24.17829 4.47384,7.4637 11.61003,15.0828 21.01966,22.4422 l 4.10769,3.2125 1.75901,-2.7255 c 0.96745,-1.499 3.10661,-5.0627 4.75367,-7.9193 4.58459,-7.9514 12.14311,-16.2566 18.99244,-20.8687 1.5834,-1.0662 1.57373,-1.0774 -5.30304,-6.17651 -3.78912,-2.80968 -10.0804,-7.78532 -13.98063,-11.05701 -3.90022,-3.2717 -9.11328,-7.06837 -11.58458,-8.43705 l -4.49327,-2.48853 -7.23984,7.08148 c -7.74756,7.57808 -11.67331,10.50407 -13.25704,9.88087 -1.45277,-0.57161 -1.26191,-6.49669 0.3502,-10.87159 2.88047,-7.81692 14.65076,-20.68618 22.58339,-24.69199 3.84608,-1.94216 4.58248,-2.08213 9.316,-1.77064 4.5926,0.30221 5.57795,0.13452 9.25527,-1.57518 6.82379,-3.1726 19.655378,-4.09107 31.877886,-2.28183 1.330938,0.19703 9.01116,0.60612 17.067163,0.90911 13.531718,0.50893 15.029611,0.69325 19.667039,2.4199 6.343717,2.36197 12.619186,6.25358 17.635013,10.93605 l 3.914346,3.65419 -1.013315,2.00925 c -1.392677,2.76152 -9.128731,11.22655 -12.354656,13.51885 -1.456403,1.03492 -5.624828,3.06456 -9.263172,4.51034 -3.638344,1.44577 -9.554178,3.8612 -13.146307,5.36769 l -6.531142,2.73899 3.811788,4.38221 c 6.704356,7.7076 11.369864,11.7523 16.928309,14.6761 2.869019,1.5092 7.925093,1.5285 14.74376,0.056 2.760864,-0.5962 5.241303,-1.0842 5.51209,-1.0845 0.92546,0 4.623137,-8.3885 7.250654,-16.44661 1.443646,-4.42742 3.230959,-11.88036 3.971813,-16.56213 0.740873,-4.68176 1.805467,-11.02707 2.365805,-14.10071 0.560339,-3.07366 1.323306,-10.02232 1.695489,-15.44152 0.372181,-5.41919 0.929822,-12.16929 1.2392,-15.00022 0.819824,-7.50185 0.858185,-32.3352 0.06048,-39.11849 -0.377326,-3.2084 -1.274243,-9.385 -1.993153,-13.72579 -0.718899,-4.34077 -1.929948,-12.06153 -2.691221,-17.15723 -2.742169,-18.35528 -4.298011,-24.36996 -8.457881,-32.69708 -3.700686,-7.40795 -3.79145,-7.71913 -2.89732,-9.93254 1.246562,-3.08586 11.656638,-13.76678 15.24947,-15.64623 2.423623,-1.26782 3.063914,-1.36719 3.95732,-0.61407 1.3592806,1.14584 4.5443978,8.37547 5.1133811,11.60646 0.5322475,3.02226 9.3462231,17.6472 13.1928727,21.89076 1.5396849,1.69857 4.4182002,4.87337 6.3967112,7.05514 1.9785,2.18175 4.345981,4.2587 5.26108,4.61546 0.91511,0.35674 1.663837,1.09907 1.663837,1.64961 0,2.33585 -9.83687,13.1737 -15.3437753,16.90509 l -1.561438,1.05801 0.8451964,8.28455 c 1.5994586,15.67772 -0.241562,52.5765 -3.6585429,73.32672 -0.55942591,3.39713 -1.35601111,8.33842 -1.77020471,10.98061 -1.87124819,11.93706 -9.08622689,32.206 -15.06848349,42.33161 -2.797942,4.7359 -10.149758,12.9177 -15.923098,17.7207 -3.06608,2.5509 -4.167622,3.8893 -3.938898,4.7862 0.257429,1.0093 -0.974973,6.6909 -2.831859,13.0553 -0.246487,0.8447 0.622539,1.0539 4.844158,1.1654 5.192611,0.1371 18.133431,1.3273 20.607241,1.8954 12.93681839,2.9702 23.906891,6.6289 28.150665,9.3886 3.881863,2.5242 8.088348,6.7631 10.649271,10.731 1.797363,2.785 1.831102,3.0236 1.498545,10.5947 -0.187114,4.2599 -0.978854,11.7602 -1.759413,16.6672 -0.780549,4.907 -1.609478,10.2693 -1.842064,11.9164 l -0.422879,2.9946 2.945922,-0.5051 c 1.620249,-0.2777 4.943708,-1.2617 7.385465,-2.1865 l 4.439542,-1.6815 1.465801,-4.5785 c 1.361687,-4.2532 3.920624,-9.073 9.975843,-18.7893 2.656079,-4.2619 3.427331,-4.8055 3.462192,-2.4401 0.04894,3.3211 1.828273,17.0536 2.268071,17.5046 0.519571,0.5327 6.880367,-2.7093 9.566956,-4.8762 2.534385,-2.0441 7.559078,-13.492 11.943953,-27.212 2.111105,-6.6056 4.821121,-15.0983 6.022242,-18.873 l 2.183867,-6.8629 -2.115929,-0.5433 c -5.934879,-1.524 -9.250796,-3.48 -12.890013,-7.6035 -4.193929,-4.7521 -6.768712,-9.8425 -9.656786,-19.0921 l -1.995038,-6.3892 0.504135,10.9806 c 0.277276,6.0393 0.471209,16.2393 0.430943,22.6666 -0.06028,9.6316 -0.276685,12.0893 -1.230767,13.9812 -1.679131,3.3295 -10.934509,12.6809 -14.257277,14.4051 -1.564497,0.8119 -2.867925,1.3926 -2.896549,1.2906 -0.02858,-0.102 -0.139875,-7.2886 -0.247258,-15.9702 -0.206641,-16.7039 -1.290741,-39.5839 -2.390086,-50.4423 -1.058055,-10.45056 -1.942978,-36.27903 -2.092643,-61.07966 -0.163895,-27.15721 -0.727684,-38.45235 -2.637705,-52.84427 -0.776467,-5.85062 -1.674216,-14.9611 -1.994989,-20.24552 -1.38695,-22.84781 -2.051953,-27.76481 -5.828078,-43.0923 -1.70666,-6.92741 -2.0508,-7.65816 -5.332798,-11.32378 -1.929629,-2.15518 -3.510854,-4.25847 -3.513843,-4.67402 -0.01906,-2.65916 12.052529,-15.52842 16.526682,-17.61874 3.780598,-1.76628 8.425808,4.85753 16.014092,22.83513 1.991538,4.71825 4.736436,10.4316 6.099749,12.69635 3.005715,4.99311 7.20187,12.79671 11.748865,21.84943 l 3.390926,6.75104 -1.290491,2.51387 c -1.772582,3.45295 -11.44063,13.27626 -14.527953,14.76127 -1.388977,0.66809 -2.395262,1.43066 -2.23617,1.6946 0.822541,1.36468 1.751913,21.24399 2.091429,44.7357 0.454351,31.43611 1.454948,57.63648 2.634086,68.97206 0.471169,4.5295 0.897919,7.60543 0.948346,6.83554 0.338995,-5.17644 6.633288,-22.35077 12.062979,-32.91452 6.865102,-13.35647 16.463418,-27.68133 21.523605,-32.1226 2.04052,-1.79094 2.647333,-2.81755 2.647333,-4.47871 0,-2.0576 -1.904895,-16.43595 -3.333909,-25.16472 -0.370777,-2.26476 -0.675874,-7.5505 -0.67801,-11.74606 -0.0041,-8.20592 -1.834934,-23.83978 -4.089386,-34.92161 -0.767902,-3.77458 -2.254411,-11.0321 -3.30335,-16.12781 -1.048929,-5.09569 -2.389926,-11.99223 -2.979961,-15.32563 l -1.072818,-6.06074 1.650336,-2.88757 c 2.155044,-3.77062 9.95026,-11.73486 13.678866,-13.97543 3.500934,-2.10376 3.382621,-2.22548 5.81905,5.98608 9.32353,31.42324 17.41881,52.97989 23.04427,61.36373 l 2.03274,3.02949 -2.65179,4.07188 c -2.52385,3.87544 -7.22979,8.88348 -10.59552,11.27574 l -1.55455,1.10492 1.35328,10.53794 c 1.80579,14.06162 3.42225,32.64718 3.45847,39.76458 0.016,3.17576 0.30389,8.09035 0.63939,10.92129 0.37385,3.15455 0.36064,9.53095 -0.0341,16.47095 -1.27506,22.41786 -2.45491,29.18981 -7.95054,45.6337 l -3.32728,9.9556 h 2.5807 c 3.8302,0 19.66354,-1.9166 25.7989,-3.123 6.47144,-1.2725 14.14788,-3.7602 21.60245,-7.0006 6.47915,-2.8164 6.40614,-1.3067 0.70427,-14.56341 -2.18713,-5.08506 -4.83155,-12.18817 -5.87647,-15.78464 -1.04493,-3.59646 -2.56611,-8.39202 -3.3804,-10.65678 -0.8143,-2.26476 -3.38281,-9.83109 -5.70781,-16.81408 -2.32501,-6.98298 -5.64258,-15.93906 -7.37239,-19.90238 -3.24449,-7.4337 -6.43257,-17.67109 -6.37119,-20.45888 0.0659,-2.99273 6.06332,-10.42208 12.86113,-15.93183 4.96701,-4.02585 5.32361,-3.83343 7.13394,3.84971 0.85035,3.60903 3.2933,10.63139 5.42879,15.60527 2.13548,4.97386 4.09339,9.96989 4.35091,11.10228 0.25754,1.13236 1.3294,4.52949 2.3819,7.54917 1.05253,3.01967 3.26038,9.35068 4.90634,14.06894 1.64599,4.71823 3.61881,10.94186 4.38407,13.83032 0.76526,2.88843 3.02689,9.06502 5.02585,13.72578 1.99896,4.66074 4.59591,10.86694 5.77101,13.79156 1.17507,2.92463 2.43039,5.50378 2.78959,5.73139 0.86093,0.54563 8.97942,-4.99621 15.33093,-10.46506 5.4657,-4.70617 7.27712,-7.40165 8.92467,-13.28019 1.85544,-6.62032 5.78547,-27.60177 6.21783,-33.19541 0.39914,-5.16383 0.36145,-5.36998 -0.8592,-4.70027 -0.88991,0.48822 -3.10139,0.41648 -7.30036,-0.23684 -8.43469,-1.31239 -10.86536,-1.22046 -20.74832,0.78476 -13.85778,2.81171 -16.24998,2.00912 -20.39617,-6.84307 -3.57191,-7.62608 -4.90744,-13.25275 -4.90458,-20.66349 0.003,-7.69022 1.42943,-12.02499 6.55794,-19.92831 4.23604,-6.52795 13.25373,-15.54642 18.53888,-18.54048 3.11919,-1.76703 4.30166,-2.02935 9.73519,-2.15978 7.01505,-0.16838 8.93503,0.51129 17.24079,6.10318 9.11413,6.13617 13.81465,12.07067 17.90928,22.61087 4.1129,10.58723 4.19018,23.9196 0.25256,43.57391 -4.01773,20.05409 -5.23853,23.59216 -11.30444,32.76133 -4.65417,7.03523 -22.47706,24.981 -30.61351,30.82463 -1.30828,0.9397 -1.29419,1.0462 0.93633,7.0712 2.34659,6.3386 7.29339,22.6306 9.77583,32.1961 0.78363,3.0197 2.1806,7.6521 3.1043,10.2943 0.92371,2.6422 2.10774,6.232 2.63116,7.9771 1.37446,4.5826 7.11041,13.2299 10.45682,15.7642 3.5565,2.6935 13.28335,7.4849 15.19451,7.4849 0.77723,0 2.69054,-0.9535 4.25184,-2.1189 2.78265,-2.077 2.94622,-2.1099 8.2787,-1.6611 8.40234,0.707 11.31291,0.019 15.0416,-3.5575 2.80422,-2.6896 3.23349,-3.5002 3.8849,-7.3358 0.98785,-5.8167 0.9213,-13.3905 -0.22151,-25.2143 -2.13741,-22.114 -3.4543,-44.39831 -4.07094,-68.88919 -0.36039,-14.31328 -1.37108,-30.17791 -1.98773,-31.20101 -0.28864,-0.47889 -1.79488,-15.28746 -3.00419,-29.53558 -0.36842,-4.34079 -0.83818,-14.22335 -1.04389,-21.96127 -0.20572,-7.7379 -0.80101,-18.54697 -1.32286,-24.02011 -0.93967,-9.85506 -2.57887,-33.5587 -2.47868,-35.84282 0.0858,-1.95763 3.72909,-6.81682 8.75854,-11.68176 5.32167,-5.14761 8.12221,-6.90386 9.90965,-6.21443 2.9486,1.1373 12.66916,10.68763 18.37384,18.05196 5.30548,6.84913 16.32155,23.46298 18.61819,28.07904 9.967,20.03277 15.4235,55.75074 15.63051,102.3159 0.11326,25.49145 -0.28749,33.84148 -2.56919,53.53057 -0.89671,7.7379 -1.92825,17.1572 -2.29218,20.9318 -1.00313,10.4043 -5.85942,34.6912 -8.72805,43.6502 -3.18485,9.9466 -6.04381,16.3075 -11.06015,24.6082 -8.85944,14.6603 -19.28289,26.6404 -31.77904,36.5251 -9.10715,7.2039 -26.93319,20.1809 -33.98995,24.7439 -9.10303,5.886 -23.73223,12.9331 -33.60943,16.1899 -4.60144,1.5174 -13.48642,4.4612 -19.74438,6.5419 -6.25797,2.0806 -14.08878,4.4315 -17.40181,5.224 -3.31304,0.7926 -10.99327,2.9591 -17.06717,4.8146 -6.07391,1.8553 -12.69999,3.5873 -14.72462,3.8488 -2.02464,0.2615 -5.87405,1.2032 -8.55427,2.0927 -4.99144,1.6565 -8.17825,2.0628 -8.17825,1.0428 0,-0.3162 1.20407,-2.2988 2.67573,-4.4061 1.99332,-2.8543 3.23084,-3.9548 4.85242,-4.3151 1.19719,-0.2661 4.13442,-1.4797 6.52716,-2.6972 4.31925,-2.1975 14.82917,-6.162 25.09879,-9.4674 2.9449,-0.9479 10.62514,-3.725 17.06717,-6.1714 11.1673,-4.2407 22.72386,-8.2192 44.17385,-15.207 16.59105,-5.4048 29.23456,-12.764 52.70664,-30.6779 6.71843,-5.1273 9.6764,-7.8917 12.20533,-11.406 4.67719,-6.4993 9.49324,-16.4694 12.38894,-25.6471 3.06962,-9.729 7.36471,-32.0452 8.70283,-45.2179 0.55602,-5.4733 1.45437,-13.3483 1.99628,-17.5005 1.62509,-12.4507 2.35265,-24.4181 2.62884,-43.23615 0.54938,-37.43695 -2.55022,-70.64729 -8.71124,-93.33532 -3.7866,-13.94425 -5.8757,-18.17026 -17.93689,-36.28341 -2.17442,-3.26535 -3.99878,-5.85675 -4.05416,-5.75863 -0.0554,0.0982 0.11921,7.62504 0.38799,16.7265 0.5155,17.4561 2.66936,44.67512 4.31127,54.48282 0.53713,3.2084 1.27401,14.63512 1.63753,25.3927 1.15134,34.07166 2.44081,55.93069 4.40069,74.60119 2.21927,21.1412 0.3743,33.9357 -6.38878,44.3039 -6.14848,9.4261 -20.76708,22.1241 -29.49295,25.618 -1.6448,0.6587 -3.79961,1.7711 -4.78847,2.4721 -3.63276,2.575 -10.59962,5.4618 -14.06723,5.8288 -6.40092,0.6773 -19.79549,-3.6147 -26.76089,-8.5749 -4.45008,-3.1691 -6.67673,-5.7222 -9.4657,-10.8535 -2.38212,-4.3827 -9.14926,-23.6634 -9.14926,-26.0678 0,-0.5871 -0.29277,-0.9645 -0.65056,-0.8385 -1.26625,0.4452 -25.66383,24.3474 -31.70469,31.0608 -11.70951,13.0133 -27.51681,26.7413 -36.58275,31.7706 -6.42475,3.5642 -13.592066,8.517 -22.407807,15.4844 -10.901965,8.6162 -19.325918,11.8642 -29.368706,11.3233 -8.540702,-0.4601 -10.68024,-1.6852 -14.298214,-8.1882 -3.704538,-6.6586 -4.842284,-9.5794 -5.831288,-14.9699 -0.575433,-3.1362 -1.108693,-4.4515 -1.77207,-4.3703 -1.079839,0.1321 -11.192419,4.4766 -14.558412,6.2545 -1.95745,1.034 -2.475976,1.9369 -4.224207,7.3553 -3.741846,11.5974 -9.8991212,21.0322 -21.2742202,32.5987 -7.0605508,7.1793 -9.5120858,9.2427 -25.5778168,21.5277 -16.57033,12.671 -21.943907,15.8614 -33.701508,20.0087 -7.14635,2.5208 -19.371631,2.9416 -27.106682,0.9328 z m 43.504549,-20.169 c 8.167758,-3.0637 12.102845,-5.3981 22.552666,-13.378 16.0338486,-12.2443 17.1676946,-13.2405 19.3767943,-17.0256 2.0885797,-3.5786 5.56259659,-13.4623 7.2831872,-20.7207 0.4921203,-2.0761 1.116184,-4.3641 1.3868105,-5.0844 0.4433685,-1.1803 0.2656721,-1.263 -1.7954782,-0.8362 -9.8638972,2.043 -17.9073938,3.0618 -33.2508868,4.2121 -8.616513,0.646 -17.204553,-2.109 -23.63121,-7.5806 -5.637104,-4.7994 -6.85373,-9.8608 -6.710604,-27.9175 0.07492,-9.444 0.469284,-14.4217 1.767347,-22.3044 0.91905,-5.5811 1.835635,-10.6879 2.036889,-11.3484 0.45716,-1.5007 -0.603694,-1.5138 -13.779637,-0.1716 -13.477802,1.373 -18.43559,1.2786 -35.575832,-0.6772 -8.226,-0.9385 -16.14183,-1.788 -17.59072,-1.8872 l -2.63437,-0.1807 -2.21492,6.1766 c -1.2182,3.3971 -3.25059,8.9561 -4.51643,12.3532 -3.79141,10.175 -8.21742,25.1073 -9.09461,30.683 -1.3289,8.4467 -0.58237,20.9853 1.64365,27.6067 3.75696,11.1755 7.893,17.722 17.4198,27.572 10.32627,10.6767 19.48143,15.8355 31.599294,17.8058 8.85348,1.4395 23.895838,4.4792 24.310643,4.9126 0.184056,0.1922 3.948877,0.1975 8.366255,0.011 6.543839,-0.2755 8.961476,-0.6869 13.051362,-2.221 z m -83.539134,-61.2208 -6.90419,-7.0964 1.36943,-2.272 c 1.55843,-2.5856 7.70202,-8.7316 9.97502,-9.9789 1.35329,-0.7427 1.85564,-0.5382 4.66742,1.8993 1.73301,1.5024 4.93663,4.5961 7.11913,6.875 4.49257,4.6909 4.5037,5.1112 0.26681,10.0651 -2.44816,2.8623 -8.44787,7.9335 -9.14754,7.7318 -0.24304,-0.07 -3.54876,-3.3209 -7.34608,-7.2239 z m 215.765147,-0.062 c 3.487215,-1.1079 6.450777,-2.9226 12.00832,-7.3534 6.580423,-5.2463 18.805953,-13.541 23.760183,-16.1208 4.8177,-2.5086 12.23064,-9.065 20.05087,-17.7339 6.12437,-6.789 26.96967,-27.4897 32.6136,-32.3872 l 2.79933,-2.4292 -3.21682,-10.6103 c -3.06528,-10.1105 -6.77431,-20.5806 -7.9594,-22.4682 -0.41424,-0.6599 -3.77281,0.7331 -13.55093,5.6204 -13.5487,6.7718 -23.61118,10.714 -31.74387,12.4365 -3.44821,0.7304 -18.58496,2.9511 -20.85922,3.0603 -0.06278,0 -0.324021,1.0092 -0.580527,2.236 -0.909773,4.3509 -8.852608,26.3283 -11.347399,31.3977 -1.393199,2.8309 -4.053411,7.4634 -5.911571,10.2943 -3.928949,5.9859 -16.551905,19.5149 -21.265815,22.7923 -1.78564,1.2415 -3.254389,2.6636 -3.263877,3.1601 -0.02337,1.2218 4.008421,10.0767 6.221121,13.6634 0.98376,1.5948 2.497739,3.3758 3.364429,3.9581 3.16925,2.1293 12.91663,2.3792 18.881576,0.4839 z m -88.3868119,-11.5282 c 2.57681839,-0.2435 5.877381,-0.6428 7.3346061,-0.8873 l 2.6494904,-0.4444 1.1652265,-6.5057 c 0.6408726,-3.5781 1.1804206,-9.3344 1.1989846,-12.7921 0.033698,-6.2722 0.027982,-6.294 -2.5288496,-9.6081 -5.1592946,-6.6871 -10.3077071,-10.2761 -18.6390601,-12.9933 -7.886301,-2.5722 -17.467316,-4.9289 -21.968227,-5.4037 -2.2087,-0.233 -4.971821,-0.5747 -6.140266,-0.7593 -2.122359,-0.3352 -2.124866,-0.332 -2.515059,3.2887 -1.277423,11.8537 -0.779085,27.5159 1.062558,33.3961 1.630067,5.2048 7.586228,9.7848 16.293675,12.5295 4.097498,1.2916 9.829176,1.3381 22.0869211,0.1796 z m -54.8826571,-68.147 5.354402,-0.5304 6.713562,-6.8921 c 6.451299,-6.6229 6.608175,-6.8538 4.015801,-5.9128 -6.33444,2.2996 -14.745927,3.7765 -19.879366,3.4906 -4.3559,-0.2427 -5.723986,-0.6418 -9.024819,-2.6331 -3.889083,-2.3461 -14.947011,-13.254 -19.983118,-19.712 -4.308771,-5.5252 -4.145884,-5.5062 -11.70136,-1.3741 -6.46552,3.5358 -6.69101,3.7416 -9.61412,8.7778 -3.05914,5.2706 -6.65599,13.2791 -7.47453,16.6422 -0.39518,1.6238 -0.19895,1.9797 1.45378,2.6381 3.45899,1.3778 11.08066,2.6849 25.336127,4.3446 14.602369,1.7002 25.642636,2.0685 34.803641,1.1612 z m 20.413679,-14.8248 c 0,-0.1888 -0.150597,-0.3432 -0.334653,-0.3432 -0.184065,0 -0.334652,0.1544 -0.334652,0.3432 0,0.1886 0.150587,0.3431 0.334652,0.3431 0.184056,0 0.334653,-0.1545 0.334653,-0.3431 z m 1.33859,-0.6863 c 0,-0.1887 -0.150597,-0.3432 -0.334642,-0.3432 -0.184066,0 -0.334653,0.1545 -0.334653,0.3432 0,0.1888 0.150587,0.3431 0.334653,0.3431 0.184045,0 0.334642,-0.1543 0.334642,-0.3431 z m 130.086545,-18.3586 c 0.553559,-1.9817 1.463815,-7.0001 2.022779,-11.1521 1.206877,-8.96461 2.711861,-32.24582 2.145265,-33.18587 -0.218455,-0.36241 -0.697117,-7.35571 -1.063722,-15.54065 -0.366616,-8.18495 -0.859398,-15.20167 -1.095083,-15.5927 -1.140083,-1.89151 -11.888572,19.61912 -15.973484,31.96726 -2.047069,6.188 -2.456068,8.35476 -2.409994,12.76755 0.06298,6.02759 2.312461,14.95977 5.483217,21.77221 1.919086,4.1231 8.181829,12.5674 9.320668,12.5674 0.310132,0 1.016796,-1.6214 1.570354,-3.6031 z M -72.213184,984.77038 c 3.522668,-1.83685 7.910781,-3.89528 9.751351,-4.57432 1.84059,-0.67899 3.580405,-1.43879 3.866287,-1.68844 1.165487,-1.01766 -10.877184,-6.31722 -16.248354,-7.15031 -1.288404,-0.19983 -8.065069,-0.52116 -15.059257,-0.71406 -14.671863,-0.40463 -14.381393,-1.31877 -2.388231,7.51569 4.099355,3.01964 8.723183,6.47017 10.275193,7.6678 1.552011,1.19762 2.951519,2.20132 3.109999,2.23045 0.1585,0.0292 3.170355,-1.44994 6.693012,-3.28681 z M 200.23874,913.63392 c 4.60144,-0.93337 8.44155,-1.69822 8.53358,-1.69968 0.67666,-0.0106 -0.17015,-2.62298 -2.0046,-6.18413 -2.95383,-5.73414 -7.53993,-10.83144 -13.77717,-15.31291 -6.39295,-4.59336 -11.25249,-6.81614 -14.25749,-6.52141 l -2.25451,0.22111 0.0353,4.81047 c 0.0594,8.09269 3.77229,19.53791 7.7254,23.81327 2.95482,3.19572 4.21189,3.26433 15.99952,0.87328 z M 137.3791,1150.0234 c -2.4735,-2.365 -6.16449,-5.0122 -8.70091,-6.2403 -2.42281,-1.1733 -4.52118,-2.2354 -4.66308,-2.3606 -0.93015,-0.8203 6.05644,-8.8383 9.87478,-11.3325 l 2.92377,-1.91 3.3068,1.2884 c 1.81873,0.7086 4.35837,2.1108 5.64365,3.116 l 2.33684,1.8276 4.01319,-4.4908 c 4.35972,-4.8786 11.52037,-10.1398 16.01272,-11.765 2.79154,-1.0098 8.01705,-1.411 8.01705,-0.6154 0,0.6797 -2.75846,4.593 -4.95863,7.0344 -3.4206,3.7958 -7.1453,6.0533 -10.63568,6.4463 -1.76674,0.1989 -3.35475,0.5077 -3.52894,0.6865 -0.17418,0.1785 -0.72205,2.5059 -1.21747,5.172 -0.4954,2.666 -1.52379,5.8759 -2.28527,7.1333 -2.15785,3.5629 -9.43269,10.2158 -11.09664,10.148 -0.4105,-0.017 -2.67948,-1.8787 -5.04218,-4.1379 z m 74.00683,-90.4221 c -0.60923,-0.6903 -1.10769,-1.6322 -1.10769,-2.093 0,-1.7168 2.30466,-5.3083 5.85624,-9.1263 l 3.661,-3.9357 0.0939,-5.8565 c 0.0611,-3.8115 -0.171,-5.9607 -0.66447,-6.1547 -0.41706,-0.164 -1.75872,-2.0976 -2.98145,-4.2968 -1.22274,-2.1991 -3.80065,-6.2873 -5.72869,-9.0849 -3.40474,-4.9401 -3.47721,-5.1426 -2.52029,-7.04 1.27796,-2.5341 7.74558,-9.1584 10.22555,-10.4733 l 1.92892,-1.0229 4.89584,7.4664 4.89582,7.4664 4.59443,-4.3617 c 2.52693,-2.399 5.87824,-4.999 7.44734,-5.7779 3.27065,-1.6234 7.62455,-1.8461 9.44266,-0.483 1.20652,0.9046 1.20082,1.0057 -0.18631,3.3072 -2.42009,4.0151 -9.20126,10.1104 -13.33111,11.9828 -2.128,0.9647 -4.09039,2.1101 -4.36084,2.5452 -0.89171,1.4344 -0.53349,6.1161 0.85667,11.196 1.11856,4.0875 1.23923,5.496 0.65989,7.7022 -1.38419,5.2709 -10.3222,15.5794 -15.83332,18.261 -2.92113,1.4213 -6.48334,1.3212 -7.844,-0.2205 z m -473.63404,-28.9954 c 0,-2.77 9.84225,-12.6415 13.35659,-13.3963 0.93647,-0.2011 6.67224,-2.2253 12.74614,-4.4981 6.07391,-2.273 12.62055,-4.6461 14.54808,-5.2739 1.92755,-0.6276 3.47628,-1.2957 3.44164,-1.4844 -0.0346,-0.1888 -1.68143,-1.8512 -3.65952,-3.6943 l -3.59652,-3.35131 -2.72557,2.52491 c -4.77909,4.4272 -5.42768,4.4894 -9.3262,0.8954 -1.86617,-1.7204 -4.81782,-3.86421 -6.55921,-4.76391 -6.76838,-3.49707 -6.37221,-3.06844 -5.02493,-5.43666 1.57165,-2.76252 9.97323,-10.88049 11.26062,-10.88049 1.34996,0 8.78561,3.84316 11.54009,5.96459 l 2.20153,1.69558 2.59576,-2.40465 c 1.42767,-1.32254 3.38121,-2.93234 4.34119,-3.57734 l 1.74541,-1.17263 5.17006,5.50549 c 2.84354,3.028 5.75865,5.81855 6.47802,6.20111 1.13459,0.60337 1.20312,0.93164 0.51689,2.47598 -0.43511,0.97912 -2.07783,3.21552 -3.65053,4.96953 l -2.85942,3.1892 3.31838,-0.5062 c 1.8251,-0.2785 5.13816,-1.0915 7.36231,-1.8066 6.71741,-2.15991 7.14555,-1.6755 3.2073,3.6285 -5.13261,6.9125 -11.22646,10.0699 -23.59286,12.2237 -6.16479,1.0737 -11.94639,2.8935 -26.10273,8.216 -13.92371,5.2352 -16.73252,6.0337 -16.73252,4.7568 z m -29.0568,-15.4266 c -1.75237,-1.7969 -4.40824,-11.9414 -4.40824,-16.83811 0,-9.06017 2.96137,-16.34638 9.40527,-23.14089 4.75043,-5.00891 7.61457,-7.2989 10.87711,-8.69668 2.33849,-1.00188 2.47386,-0.9897 2.47386,0.22268 0,0.70538 -1.77534,3.26917 -3.94522,5.69729 -2.45051,2.74218 -4.2241,5.4449 -4.68136,7.13374 -1.24727,4.60661 -0.89087,10.49641 0.98456,16.27079 l 1.72823,5.32118 h 2.58274 c 1.4205,0 2.76342,0.2996 2.98425,0.6661 1.02085,1.6937 -5.66913,10.0289 -10.44627,13.0153 -2.68308,1.6772 -6.10518,1.8351 -7.55493,0.3486 z m 23.69806,-72.31962 c -5.07539,-1.58304 -10.83535,-6.38993 -13.73386,-11.46139 -3.80547,-6.65838 -4.41068,-9.78244 -5.10075,-26.32956 -0.35417,-8.49284 -0.44553,-19.54322 -0.20302,-24.55642 l 0.44093,-9.11491 2.85724,-3.92458 c 4.16429,-5.71991 12.47488,-13.19011 14.67294,-13.18918 0.5179,2.2e-4 0.76509,6.4616 0.83362,21.78967 0.10707,23.94746 0.67264,28.93545 3.98944,35.18418 2.51225,4.73297 7.29884,9.50905 11.52178,11.49645 3.01707,1.41991 4.33409,1.63598 8.61941,1.41408 l 5.05819,-0.2619 2.95497,-3.41368 c 5.0575,-5.8426 8.53354,-10.68715 13.28263,-18.51202 5.42948,-8.94591 17.78757,-28.06517 19.79645,-30.62714 1.37137,-1.74896 1.37803,-1.85887 0.22223,-3.66763 -1.14772,-1.79609 -1.14412,-1.95626 0.098,-4.35698 1.71021,-3.30536 10.67564,-12.4191 14.13576,-14.36958 l 2.74906,-1.54967 2.35105,3.26538 c 1.29308,1.79596 3.53535,4.82985 4.98281,6.74197 3.62961,4.79479 9.06176,13.12411 10.71246,16.4258 2.11345,4.22728 8.30884,10.79791 11.94475,12.66818 7.01008,3.60596 20.73056,2.48214 30.42769,-2.49229 5.33248,-2.73544 7.62132,-5.42499 9.96023,-11.70398 2.74912,-7.38022 3.30349,-8.31707 7.83841,-13.24635 4.70162,-5.11046 9.453288,-8.90254 11.155323,-8.90254 1.400177,0 2.452448,3.62712 2.468714,8.50945 0.03643,10.93922 5.468402,26.15468 11.185748,31.3324 2.427495,2.1984 7.271153,3.98139 8.135855,2.99488 1.424421,-1.62502 4.830299,-11.69398 5.809836,-17.17583 0.619772,-3.46846 1.233585,-11.58086 1.422324,-18.79801 0.314123,-12.01073 0.420622,-12.83711 1.972161,-15.30283 3.796875,-6.03402 12.884577,-14.2076 15.79656,-14.2076 1.323336,0 1.34541,0.28296 0.977211,12.52477 -0.413642,13.75221 -1.702689,23.07816 -4.087159,29.56949 -2.042356,5.55996 -7.402424,16.47181 -10.000184,20.35804 -3.104383,4.64415 -12.960878,14.88034 -17.505638,18.18003 -5.13061,3.72501 -8.232666,4.75358 -12.560904,4.16483 -6.178339,-0.84039 -9.229467,-3.33459 -13.481977,-11.02107 -2.16987,-3.92212 -5.7489,-15.65325 -5.7489,-18.84345 0,-1.235 -1.0691,-0.49555 -6.03547,4.17446 -12.37543,11.63696 -21.28977,17.12848 -32.11467,19.78367 -8.8679,2.17516 -20.3827,1.63878 -23.47824,-1.09367 -0.58116,-0.51299 -1.3699,-0.93272 -1.75278,-0.93272 -1.51784,0 -8.08201,-7.67315 -11.21924,-13.11466 -1.82592,-3.16706 -4.83778,-7.99573 -6.69301,-10.73037 l -3.37314,-4.97208 -1.20132,1.48314 c -0.66073,0.81572 -4.08721,6.24467 -7.61439,12.06432 -7.94723,13.11248 -11.97448,18.6699 -21.75782,30.02486 -16.18707,18.78741 -24.34748,24.4586 -34.97211,24.3043 -2.2339,-0.0324 -4.81656,-0.29446 -5.73923,-0.58226 z m 139.72594,-24.16776 c -3.58578,-2.33389 -3.56126,-2.77462 0.3699,-6.65175 l 2.32546,-2.29344 2.78114,1.60715 c 2.43993,1.40997 2.88123,1.48087 3.59683,0.57775 0.44862,-0.5662 1.47854,-1.60859 2.2887,-2.31646 1.45433,-1.27064 1.51579,-1.25885 4.84148,0.92941 1.85267,1.21903 3.36847,2.3495 3.36847,2.51217 0,0.86531 -2.43244,3.8954 -4.11091,5.1209 l -1.92635,1.4065 -2.3317,-1.47765 -2.33173,-1.47765 -2.4991,2.11225 c -1.37452,1.16175 -2.65638,2.09079 -2.8486,2.06451 -0.19221,-0.0263 -1.77782,-0.97742 -3.52359,-2.11369 z m 86.208728,-18.15739 c -1.449733,-1.69318 -3.075087,-3.75908 -3.611907,-4.5909 -0.53682,-0.8318 -2.32623,-2.95333 -3.976496,-4.71451 -2.350192,-2.50813 -2.915254,-3.5493 -2.607238,-4.80403 0.96033,-3.91222 14.228051,-17.04342 17.220608,-17.04342 0.788572,0 2.654245,1.7661 4.808095,4.55146 1.935756,2.5033 4.833036,6.04636 6.438431,7.87347 l 2.918914,3.32201 -1.688779,2.93558 c -2.719002,4.72643 -14.416137,15.80255 -16.464481,15.5904 -0.220711,-0.0228 -1.587413,-1.42689 -3.037147,-3.12006 z M -256.92652,862.04148 c -1.75916,-5.53394 -5.88277,-10.30701 -10.85166,-12.56078 -1.74396,-0.79101 -3.17084,-1.67201 -3.17084,-1.95776 0,-0.28574 1.04516,-1.55826 2.32257,-2.82781 2.28273,-2.26865 2.37119,-2.29332 5.15549,-1.43796 3.00718,0.92384 10.07845,7.5961 10.91516,10.29929 0.39464,1.275 0.79376,1.02276 3.90518,-2.46805 5.13619,-5.76245 11.56168,-8.32811 16.1864,-6.46314 1.23916,0.49971 1.13455,0.74958 -1.40842,3.36397 -2.42819,2.49637 -2.97199,2.75899 -4.68511,2.26256 -1.14014,-0.3304 -3.14532,-0.25185 -4.87028,0.1908 -2.71275,0.69612 -3.14384,1.13525 -5.76059,5.86822 -1.55563,2.81368 -3.7463,5.8416 -4.86815,6.7287 l -2.03974,1.61292 z m 380.19567,-16.22501 c 0,-1.51804 4.50992,-7.14388 7.98438,-9.96001 1.76251,-1.42853 5.28012,-3.31174 7.81692,-4.18489 5.49944,-1.89289 19.07496,-7.88794 37.4081,-16.51969 7.36231,-3.46637 17.15393,-7.92577 21.75914,-9.90978 4.60521,-1.984 9.67927,-4.29051 11.27565,-5.12561 1.59639,-0.83508 3.07457,-1.34192 3.28488,-1.12629 1.2336,1.26492 -7.13178,10.75086 -12.11869,13.74206 -1.53084,0.9182 -6.69876,3.35135 -11.48425,5.40698 -4.7855,2.05563 -14.12225,6.27222 -20.74834,9.3702 -6.62607,3.09798 -15.36044,7.17676 -19.40971,9.06396 -8.16863,3.8071 -21.08176,9.06744 -23.92751,9.74724 -1.32352,0.31613 -1.84057,0.17451 -1.84057,-0.50417 z m -265.33686,-14.3635 c -1.53283,-2.39877 -3.02154,-7.19603 -3.48331,-11.22473 -0.47222,-4.11973 0.34859,-5.9916 3.7004,-8.43888 l 1.98539,-1.44961 0.76213,3.9567 c 1.10561,5.73994 2.6119,10.24741 3.74736,11.21367 1.26211,1.07405 4.74261,0.98832 6.07996,-0.14976 1.95672,-1.66516 2.26748,-3.90487 1.24169,-8.94945 -0.65282,-3.21044 -0.77063,-5.25159 -0.34964,-6.05818 0.75229,-1.44135 4.52257,-4.79594 5.39026,-4.79594 0.33368,0 1.39588,1.62135 2.36045,3.60302 2.98055,6.12337 8.14574,10.80905 11.9152,10.80905 1.46042,0 1.721,-0.37967 2.11646,-3.08371 0.59441,-4.06444 -0.0354,-7.20131 -2.05991,-10.26037 -0.91056,-1.37585 -1.65556,-2.73396 -1.65556,-3.01806 0,-0.28409 1.18349,-1.70151 2.62998,-3.14983 1.72091,-1.72306 3.0022,-2.48683 3.70678,-2.2096 1.53936,0.6057 4.357788,7.19125 4.365518,10.20048 0.0148,5.78137 -5.214308,14.79948 -10.076368,17.37756 -3.55694,1.88606 -8.87622,0.81055 -11.62325,-2.35009 l -1.29244,-1.48706 -3.22285,3.46472 c -4.61877,4.96543 -8.86232,7.55547 -12.37896,7.55547 -2.23908,0 -3.08263,-0.33997 -3.85929,-1.5554 z m -98.53547,-4.1065 c -1.12236,-0.84928 -2.89039,-2.62505 -3.92898,-3.94616 -1.03859,-1.3211 -3.237,-3.85061 -4.8854,-5.62113 l -2.99707,-3.21912 1.22653,-1.92806 c 1.91823,-3.01535 8.35495,-9.71174 10.86283,-11.30104 3.06932,-1.94509 4.4313,-1.21583 9.21806,4.93579 l 3.82512,4.91576 3.7673,-3.77854 c 2.072,-2.07819 4.77839,-4.3953 6.01419,-5.14915 2.37372,-1.44798 3.10947,-1.32839 8.79656,1.42987 3.12292,1.51462 9.3702,6.75093 9.3702,7.85384 0,2.72216 -11.29166,14.58612 -13.89744,14.60183 -0.46534,0.003 -2.54294,-1.41208 -4.61687,-3.14421 -6.27813,-5.24339 -6.3627,-5.25012 -10.79453,-0.85852 -7.33344,7.26685 -8.54402,7.79407 -11.9605,5.20884 z m 87.4511,-21.95196 c 0,-0.51757 1.03789,-1.97253 2.30639,-3.23324 1.93095,-1.91903 5.66268,-3.51379 22.92356,-9.79638 11.33943,-4.1273 23.17723,-8.2719 26.30621,-9.21018 3.128978,-0.93833 7.722056,-2.73432 10.206837,-3.99112 2.484772,-1.25679 4.517769,-2.00996 4.517769,-1.6737 0,1.38154 -5.163658,6.3316 -8.323779,7.97946 -1.863949,0.97197 -8.207947,3.38179 -14.097787,5.35517 -5.88984,1.97339 -17.48548,6.05718 -25.76808,9.07511 -19.02112,6.9307 -18.07112,6.64184 -18.07112,5.49488 z m 264.28576,-26.08828 c -0.0484,-0.0944 -0.27432,-3.70173 -0.50197,-8.01637 l -0.41393,-7.8448 -9.08572,-1.50729 c -11.426805,-1.89569 -11.658077,-1.97653 -13.24154,-4.62822 -3.374848,-5.65167 -4.921233,-13.34439 -6.442423,-32.04859 -0.537212,-6.60553 -1.411433,-16.33369 -1.942706,-21.61812 -0.531274,-5.28441 -1.305144,-15.33302 -1.719729,-22.3302 -0.414584,-6.99721 -1.19759,-15.49002 -1.740026,-18.87296 -2.220896,-13.85078 -3.582613,-25.15874 -4.02523,-33.42633 l -0.46822,-8.74574 5.693397,-5.8379 c 4.257052,-4.3651 6.137247,-5.83791 7.45271,-5.83791 1.962764,0 2.061692,0.19717 1.060873,2.11467 -0.974753,1.86758 0.1929,16.29479 2.633845,32.54292 2.222209,14.7921 2.489425,17.41854 3.421354,33.62819 0.368922,6.41679 1.252109,17.22585 1.962634,24.02011 0.710515,6.79426 1.607662,16.21359 1.993644,20.93183 0.81207,9.92644 2.013471,15.30573 4.591687,20.55945 1.63942,3.34073 2.1265,3.80384 4.50813,4.28637 1.46856,0.29753 3.38099,0.71115 4.24985,0.91915 l 1.57973,0.37814 -0.4892,-12.70902 c -0.26905,-6.98996 -0.27359,-15.36294 -0.0104,-18.60661 l 0.47911,-5.89758 4.01295,-4.39874 c 2.20713,-2.41931 5.02652,-5.04108 6.26534,-5.82615 2.09727,-1.32907 2.45034,-1.35952 5.12623,-0.442 1.58059,0.54197 5.58448,1.35143 8.89752,1.79881 15.92659,2.15069 30.25149,5.90577 53.80461,14.10417 14.1536,4.9266 23.51688,7.20657 29.59563,7.20657 2.90517,0 5.28214,0.16977 5.28214,0.37723 0,1.41591 -2.59133,4.8249 -6.65726,8.75783 -3.86623,3.73979 -5.14681,4.58694 -6.90862,4.57027 -1.18948,-0.0113 -6.52988,1.14053 -11.86755,2.55954 -8.52693,2.26687 -11.24835,3.38563 -22.42158,9.21739 -15.05385,7.85722 -35.15113,15.25536 -44.1945,16.26872 -2.93357,0.32872 -5.67308,0.47012 -6.0878,0.31423 -0.41472,-0.15587 -0.93842,0.46981 -1.16377,1.39044 -0.8851,3.61601 -12.27591,14.50658 -13.2295,12.6485 z m 48.947,-32.76122 c 10.88077,-3.79886 28.75081,-11.93465 27.97084,-12.73442 -0.42883,-0.43971 -28.07312,-9.71214 -35.6678,-11.96367 -7.80396,-2.31357 -21.44651,-5.29244 -25.74667,-5.62182 l -2.99046,-0.22904 0.20875,16.81407 c 0.11481,9.24775 0.30162,16.91258 0.41515,17.03296 0.75962,0.80547 7.9692,1.39085 15.06188,1.22296 8.29882,-0.19644 8.46606,-0.23287 20.74831,-4.52104 z m 37.13389,25.67652 c -1.75272,-2.10366 -4.79326,-5.06854 -6.75675,-6.58862 l -3.57,-2.76379 1.04317,-2.06848 c 1.40246,-2.7809 5.69491,-7.48281 8.92945,-9.78126 l 2.63801,-1.87454 3.88397,3.07933 c 2.13619,1.69363 5.45885,4.86387 7.38369,7.04498 l 3.49973,3.96565 -1.28509,2.11648 c -2.29886,3.78605 -9.92533,10.69507 -11.80568,10.69507 -0.42555,0 -2.20777,-1.72116 -3.9605,-3.82482 z m -359.68031,-0.0494 c -3.95526,-2.02101 -7.84004,-5.66159 -8.79788,-8.24482 -1.52957,-4.12524 -0.33017,-22.25136 2.12475,-32.11042 2.16528,-8.69579 6.85031,-17.53655 9.29324,-17.53655 0.204,0 0.15841,2.39344 -0.10138,5.31875 -1.20147,13.53254 -0.0653,28.25259 2.48884,32.2499 1.8768,2.93705 4.42871,5.07391 8.19734,6.86409 1.95618,0.92924 3.64084,1.58061 3.74369,1.4475 0.10289,-0.1331 1.32812,-3.56201 2.72286,-7.61978 2.96978,-8.64018 6.50802,-15.06138 12.02338,-21.82002 6.71922,-8.23387 17.79403,-16.4133 22.251,-16.43373 1.63756,-0.007 4.50699,0.99838 5.75036,2.01582 8.724246,7.13902 14.120186,12.68539 20.733277,21.31131 7.63151,9.95432 15.647516,11.70182 30.617815,6.67473 8.060396,-2.70672 13.386024,-5.2307 13.386024,-6.34406 0,-0.84271 -11.299299,-13.71347 -15.258747,-17.38087 -1.36275,-1.26224 -3.974532,-3.07759 -5.803948,-4.03412 -2.949622,-1.54225 -3.858935,-1.69246 -8.031602,-1.32683 -2.587972,0.22678 -6.316328,0.90502 -8.28525,1.50723 -1.968913,0.6022 -3.751383,0.91902 -3.961033,0.70405 -1.078223,-1.1056 5.848839,-9.29884 10.529012,-12.45358 3.186982,-2.14822 22.898059,-8.30363 29.927359,-9.34577 4.847137,-0.71862 6.626127,-0.6722 12.471766,0.32545 3.750019,0.64001 10.733616,1.64516 15.519114,2.23368 9.100248,1.11915 12.4123437,1.84508 14.8409119,3.25283 1.512897,0.877 8.2499671,9.69712 8.2499671,10.80083 0,1.01024 -7.9514796,9.44099 -10.2676912,10.88659 -1.16289981,0.72578 -4.3834794,1.79389 -7.1568502,2.37358 -5.3719316,1.12281 -12.4388406,3.59853 -13.0188556,4.56085 -0.677099,1.12336 6.511544,5.7217 12.9214329,8.26539 l 6.4784982,2.57091 13.1827739,0.3826 13.182774,0.3826 1.074322,-3.90535 c 3.170364,-11.52477 6.484106,-17.37205 13.985988,-24.67897 6.175899,-6.01542 9.718967,-7.60499 13.91088,-6.241 2.266427,0.73746 3.202387,1.54506 4.418692,3.81268 1.992662,3.71503 2.836605,9.21038 2.120643,13.80869 -1.151265,7.39426 -14.508927,24.29134 -21.570581,27.28619 -2.402302,1.01882 -3.135904,1.71801 -3.440358,3.2789 -0.503946,2.58369 -10.550273,13.00812 -12.218782,12.67862 -0.962167,-0.18999 -1.145049,-0.85392 -1.00778,-3.65865 0.09217,-1.88458 0.321866,-4.22918 0.510283,-5.21019 l 0.342596,-1.78368 -6.937663,-0.84307 c -3.81572,-0.46369 -12.0369642,-0.94353 -18.26942781,-1.0663 -10.88874619,-0.21449 -11.54110219,-0.30795 -16.68617419,-2.3904 -7.122752,-2.88291 -9.781288,-4.32578 -14.02769,-7.61321 l -3.559936,-2.75601 -5.261501,3.87476 c -7.0088,5.16151 -13.6906,8.52787 -22.99797,11.58665 -17.45493,5.73638 -25.516339,3.56043 -35.079641,-9.46876 -2.06254,-2.81003 -5.655978,-6.91812 -7.985428,-9.12907 -4.80403,-4.55968 -15.75533,-10.87541 -17.73853,-10.22998 -1.67157,0.544 -4.12514,5.39603 -7.13127,14.10238 -3.6133,10.46485 -6.71382,16.11513 -11.94665,21.77111 -8.72078,9.42601 -13.17813,11.01584 -20.45704,7.29652 z m 205.985073,-30.8634 c 5.60486,-1.64324 6.12792,-2.33466 6.120178,-8.09024 -0.005,-3.71391 -0.394698,-5.7241 -1.642454,-8.47224 -0.899755,-1.98166 -1.775751,-3.60302 -1.946628,-3.60302 -0.170886,0 -0.7674,-0.1797 -1.325572,-0.39932 -0.773007,-0.30417 -1.33135,0.65127 -2.342719,4.00886 -1.802879,5.98518 -3.789002,17.66543 -3.00386,17.66543 0.196301,0 2.059766,-0.49925 4.141055,-1.10947 z m -60.819521,-18.31924 c 1.647628,-1.44942 4.433585,-3.59069 6.191023,-4.75837 1.7574476,-1.16769 3.1953456,-2.35507 3.1953456,-2.63864 0,-0.96518 -6.3413286,-2.65369 -12.6937316,-3.37993 -3.484457,-0.39836 -8.423642,-1.02799 -10.975949,-1.39917 -2.552319,-0.37116 -4.805247,-0.50598 -5.006541,-0.29958 -0.201276,0.20638 1.744911,2.60523 4.324869,5.33075 2.579979,2.72555 5.831419,6.43478 7.22544,8.24274 2.82493,3.66375 2.231124,3.74798 7.739544,-1.0978 z m -78.626679,-23.2818 c -1.104345,-0.40618 -5.019753,-3.3929 -8.700903,-6.63714 -3.68116,-3.24425 -7.56725,-6.59782 -8.63577,-7.45238 -2.50102,-2.00026 -1.9213,-2.53774 1.57773,-1.46279 1.79889,0.55264 5.71198,3.35086 11.10863,7.94369 9.509018,8.09269 10.536323,9.77351 4.650313,7.60862 z M 109.21383,687.97081 c 0,-1.53288 4.60846,-7.09197 8.26441,-9.96916 1.91911,-1.5103 8.58102,-5.02915 15.02223,-7.93475 13.77017,-6.21172 31.23895,-15.13588 40.95553,-20.92275 6.23328,-3.71231 9.38091,-4.98333 9.38091,-3.78797 0,1.1087 -4.44169,6.76814 -7.21119,9.18821 -5.22987,4.57002 -33.03039,20.0501 -46.06879,25.65233 -2.16987,0.93234 -7.36548,3.26921 -11.54579,5.19302 -8.24037,3.79231 -8.79731,3.95574 -8.79731,2.58107 z m 83.93035,-1.05266 c -3.37178,-2.54398 -14.32307,-14.08885 -14.32307,-15.09939 0,-1.14009 0.47067,-0.98109 3.56056,1.20269 3.18682,2.2523 14.51057,14.0798 14.51057,15.15607 0,1.15753 -0.98214,0.82752 -3.74806,-1.25937 z M 34.968161,683.91653 c 1.013796,-3.62467 0.7088,-13.94425 -0.702943,-23.78371 l -1.319365,-9.19555 2.362997,-3.30073 c 2.498904,-3.49059 8.566579,-8.84806 10.020995,-8.84806 0.47485,0 1.035651,0.84928 1.246232,1.88729 1.068956,5.26901 2.400667,16.43445 2.400667,20.12777 v 4.18058 l 3.070524,-2.77139 c 4.256391,-3.84171 10.984805,-6.99437 10.984805,-5.14702 0,1.33003 -3.318463,5.49109 -8.189099,10.26845 -3.042363,2.98409 -6.86761,7.12419 -8.500546,9.20022 -3.622678,4.60567 -9.265699,9.60804 -10.83852,9.60804 -0.988122,0 -1.066851,-0.32707 -0.535747,-2.22589 z m -172.107931,-6.18846 c -1.68451,-1.60018 -3.60598,-3.7656 -4.26993,-4.81208 l -1.20717,-1.90268 -3.44472,3.34056 c -1.89457,1.83731 -4.1521,3.72876 -5.01669,4.20321 -1.38093,0.75781 -1.75812,0.66647 -3.10322,-0.7516 -2.37768,-2.50655 -9.01009,-12.29068 -9.01009,-13.29165 0,-2.3656 10.02556,-12.68586 12.32362,-12.68586 0.41416,0 2.6641,2.77641 4.99986,6.1698 l 4.24686,6.16982 3.39553,-3.13037 c 1.86755,-1.72171 4.22414,-3.56973 5.23688,-4.10673 1.8182,-0.9641 1.8809,-0.92472 4.9931,3.13717 1.73346,2.26244 3.33322,4.12462 3.555,4.1382 0.22178,0.0136 1.26041,0.74367 2.30804,1.62244 1.84488,1.5475 1.87179,1.66008 0.85529,3.57834 -2.24064,4.22828 -9.54811,11.25233 -11.69164,11.23815 -0.60939,-0.004 -2.48619,-1.31655 -4.17072,-2.91672 z m 48.660251,-0.67898 c 0.617845,-1.22674 2.819644,-3.92899 4.89289,-6.00501 3.336728,-3.34123 4.996342,-4.30027 14.455051,-8.35316 16.385773,-7.02099 28.720461,-12.09045 36.453637,-14.98214 3.865203,-1.44534 10.340703,-3.99974 14.389972,-5.67645 9.7115246,-4.02134 27.4830538,-9.72741 35.638958,-11.44293 3.589844,-0.75508 9.49266,-1.99866 13.117374,-2.76351 3.624704,-0.76483 7.171382,-1.39063 7.881466,-1.39063 1.21779,0 1.232392,0.11639 0.257428,2.04961 -1.363543,2.70374 -4.522403,6.34912 -7.827961,9.03362 -2.165824,1.75891 -4.088542,2.46537 -10.141324,3.72618 -4.107849,0.85568 -10.492465,2.19232 -14.1880355,2.97031 -7.18618571,1.51286 -26.8484595,7.79565 -35.1120765,11.21953 -2.760864,1.14393 -8.784571,3.53737 -13.386014,5.31875 -10.70419,4.14397 -23.259139,9.29782 -35.208758,14.45327 -5.192361,2.24014 -10.094369,4.073 -10.89333,4.073 -1.423116,0 -1.429805,-0.0454 -0.329277,-2.23044 z"
         id="path2506" /><ellipse
         transform="matrix(0.9247638,0,0,0.9309911,1131.8776,71.017448)"
         id="path11015"
         style="display:inline;overflow:visible;visibility:visible;opacity:1;fill:none;fill-opacity:1;fill-rule:evenodd;stroke:#000000;stroke-width:8.63912;stroke-linecap:round;stroke-linejoin:round;stroke-miterlimit:4;stroke-dasharray:none;stroke-dashoffset:0;stroke-opacity:1;marker:none;marker-start:none;marker-mid:none;marker-end:none;enable-background:accumulate"
         cx="-1223.153"
         cy="1006.3383"
         rx="469.76511"
         ry="466.62286" /><path
         inkscape:transform-center-x="87.370646"
         style="display:inline;overflow:visible;visibility:visible;fill:#c42023;fill-opacity:1;fill-rule:evenodd;stroke:#000000;stroke-width:6.012;stroke-linecap:round;stroke-linejoin:round;stroke-miterlimit:4;stroke-dashoffset:0;stroke-opacity:1;marker:none;marker-start:none;marker-mid:none;marker-end:none;enable-background:accumulate"
         d="m -438.76794,1164.5158 c 8.53827,-3.8638 18.52251,-0.1006 22.38615,8.4376 l 18.64945,41.2118 c 3.8637,8.5382 0.10064,18.5224 -8.43765,22.3861 -8.53818,3.8638 -18.52227,0.1005 -22.3861,-8.4376 l -18.64937,-41.2118 c -3.86378,-8.5382 -0.10061,-18.5224 8.43752,-22.3861 z"
         id="path11017"
         inkscape:transform-center-y="75.736225" /><path
         inkscape:transform-center-x="105.16583"
         inkscape:transform-center-y="48.059897"
         id="path11019"
         d="m -465.1532,1034.8581 c 9.28091,-1.3024 17.80088,5.1207 19.10313,14.4015 l 6.28615,44.7962 c 1.30231,9.2808 -5.12066,17.8008 -14.40156,19.1031 -9.28078,1.3023 -17.8006,-5.1208 -19.10306,-14.4016 l -6.28606,-44.7961 c -1.30239,-9.2809 5.12069,-17.8008 14.4014,-19.1031 z"
         style="display:inline;overflow:visible;visibility:visible;fill:#c42023;fill-opacity:1;fill-rule:evenodd;stroke:#000000;stroke-width:6.012;stroke-linecap:round;stroke-linejoin:round;stroke-miterlimit:4;stroke-dashoffset:0;stroke-opacity:1;marker:none;marker-start:none;marker-mid:none;marker-end:none;enable-background:accumulate" /><path
         inkscape:transform-center-x="114.44486"
         style="display:inline;overflow:visible;visibility:visible;fill:#c42023;fill-opacity:1;fill-rule:evenodd;stroke:#000000;stroke-width:6.012;stroke-linecap:round;stroke-linejoin:round;stroke-miterlimit:4;stroke-dashoffset:0;stroke-opacity:1;marker:none;marker-start:none;marker-mid:none;marker-end:none;enable-background:accumulate"
         d="m -453.94924,903.01811 c 9.27198,1.3645 15.63778,9.92737 14.27316,19.1992 l -6.58619,44.75307 c -1.36456,9.27185 -9.92731,15.63772 -19.19925,14.27312 -9.27183,-1.36456 -15.63749,-9.92739 -14.27307,-19.19928 l 6.58624,-44.75295 c 1.36451,-9.27197 9.92734,-15.63771 19.19911,-14.27316 z"
         id="path11021"
         inkscape:transform-center-y="16.491765" /><path
         inkscape:transform-center-x="114.45635"
         inkscape:transform-center-y="-16.411847"
         id="path11023"
         d="m -406.06333,779.67204 c 8.51222,3.92091 12.20836,13.93014 8.28738,22.44219 l -18.9252,41.08591 c -3.92092,8.51208 -13.93006,12.20832 -22.44222,8.28733 -8.51206,-3.92092 -12.20807,-13.93008 -8.28727,-22.44224 l 18.92521,-41.08578 c 3.92091,-8.51221 13.93009,-12.2083 22.4421,-8.28741 z"
         style="display:inline;overflow:visible;visibility:visible;fill:#c42023;fill-opacity:1;fill-rule:evenodd;stroke:#000000;stroke-width:6.012;stroke-linecap:round;stroke-linejoin:round;stroke-miterlimit:4;stroke-dashoffset:0;stroke-opacity:1;marker:none;marker-start:none;marker-mid:none;marker-end:none;enable-background:accumulate" /><path
         inkscape:transform-center-x="105.19935"
         style="display:inline;overflow:visible;visibility:visible;fill:#c42023;fill-opacity:1;fill-rule:evenodd;stroke:#000000;stroke-width:6.012;stroke-linecap:round;stroke-linejoin:round;stroke-miterlimit:4;stroke-dashoffset:0;stroke-opacity:1;marker:none;marker-start:none;marker-mid:none;marker-end:none;enable-background:accumulate"
         d="m -325.37319,674.80825 c 7.06316,6.15981 7.79033,16.80487 1.6305,23.86785 l -29.73167,34.09168 c -6.15978,7.06302 -16.80478,7.79032 -23.86786,1.63045 -7.063,-6.15977 -7.79007,-16.80473 -1.63038,-23.86786 l 29.73164,-34.09156 c 6.15981,-7.06315 16.80481,-7.79028 23.86777,-1.63056 z"
         id="path11025"
         inkscape:transform-center-y="-47.986457" /><path
         inkscape:transform-center-x="87.423491"
         inkscape:transform-center-y="-75.675205"
         id="path11027"
         d="m -218.41297,596.91843 c 5.04214,7.8999 2.74145,18.31878 -5.15841,23.36073 l -38.13052,24.33677 c -7.89983,5.04201 -18.31868,2.74147 -23.36073,-5.15847 -5.04199,-7.89981 -2.74124,-18.31856 5.15854,-23.3607 l 38.13045,-24.33666 c 7.8999,-5.04212 18.3187,-2.74142 23.36067,5.15833 z"
         style="display:inline;overflow:visible;visibility:visible;fill:#c42023;fill-opacity:1;fill-rule:evenodd;stroke:#000000;stroke-width:6.012;stroke-linecap:round;stroke-linejoin:round;stroke-miterlimit:4;stroke-dashoffset:0;stroke-opacity:1;marker:none;marker-start:none;marker-mid:none;marker-end:none;enable-background:accumulate" /><path
         inkscape:transform-center-x="62.568232"
         inkscape:transform-center-y="-97.235903"
         style="display:inline;overflow:visible;visibility:visible;fill:#c42023;fill-opacity:1;fill-rule:evenodd;stroke:#000000;stroke-width:6.012;stroke-linecap:round;stroke-linejoin:round;stroke-miterlimit:4;stroke-dashoffset:0;stroke-opacity:1;marker:none;marker-start:none;marker-mid:none;marker-end:none;enable-background:accumulate"
         d="m -93.844122,552.30997 c 2.61281,9.00027 -2.52943,18.34926 -11.529608,20.9619 l -43.44162,12.6111 c -9.00017,2.61271 -18.34917,-2.52938 -20.96188,-11.52966 -2.61269,-9.00014 2.52957,-18.34899 11.52972,-20.96183 l 43.44153,-12.61102 c 9.00026,-2.61279 18.349169,2.52943 20.961858,11.52951 z"
         id="path11029" /><path
         inkscape:transform-center-x="32.568853"
         inkscape:transform-center-y="110.94536"
         id="path11031"
         d="m -284.64717,1376.3136 c 5.09497,-7.8659 15.52901,-10.0967 23.39482,-5.0017 l 37.96654,24.5917 c 7.86581,5.0949 10.09667,15.5289 5.00171,23.3948 -5.09485,7.8659 -15.52887,10.0965 -23.39477,5.0017 l -37.96651,-24.5918 c -7.86584,-5.0948 -10.09664,-15.5289 -5.00179,-23.3947 z"
         style="display:inline;overflow:visible;visibility:visible;fill:#c42023;fill-opacity:1;fill-rule:evenodd;stroke:#000000;stroke-width:6.012;stroke-linecap:round;stroke-linejoin:round;stroke-miterlimit:4;stroke-dashoffset:0;stroke-opacity:1;marker:none;marker-start:none;marker-mid:none;marker-end:none;enable-background:accumulate" /><path
         style="display:inline;overflow:visible;visibility:visible;fill:#c42023;fill-opacity:1;fill-rule:evenodd;stroke:#000000;stroke-width:6.012;stroke-linecap:round;stroke-linejoin:round;stroke-miterlimit:4;stroke-dashoffset:0;stroke-opacity:1;marker:none;marker-start:none;marker-mid:none;marker-end:none;enable-background:accumulate"
         d="m -169.39208,1441.3027 c 2.67305,-8.9826 12.05629,-14.062 21.03873,-11.3889 l 43.35609,12.9019 c 8.982438,2.6731 14.061908,12.0562 11.388862,21.0388 -2.672989,8.9824 -12.056232,14.0617 -21.038702,11.3888 l -43.35609,-12.902 c -8.98244,-2.673 -14.06188,-12.0562 -11.38889,-21.0386 z"
         id="path11033"
         inkscape:transform-center-y="115.62701" /><path
         inkscape:transform-center-x="62.500334"
         style="display:inline;overflow:visible;visibility:visible;fill:#c42023;fill-opacity:1;fill-rule:evenodd;stroke:#000000;stroke-width:6.012;stroke-linecap:round;stroke-linejoin:round;stroke-miterlimit:4;stroke-dashoffset:0;stroke-opacity:1;marker:none;marker-start:none;marker-mid:none;marker-end:none;enable-background:accumulate"
         d="m -376.93009,1281.4918 c 7.10428,-6.1123 17.74421,-5.3138 23.85642,1.7905 l 29.50253,34.2901 c 6.11224,7.1042 5.31381,17.7441 -1.79046,23.8564 -7.10417,6.1123 -17.74402,5.3136 -23.85637,-1.7905 l -29.50247,-34.2902 c -6.1123,-7.1041 -5.31378,-17.7441 1.79035,-23.8563 z"
         id="path11035"
         inkscape:transform-center-y="97.279556" /><path
         inkscape:transform-center-x="0.44011855"
         style="display:inline;overflow:visible;visibility:visible;fill:#c42023;fill-opacity:1;fill-rule:evenodd;stroke:#000000;stroke-width:6.012;stroke-linecap:round;stroke-linejoin:round;stroke-miterlimit:4;stroke-dashoffset:0;stroke-opacity:1;marker:none;marker-start:none;marker-mid:none;marker-end:none;enable-background:accumulate"
         d="m 38.519782,544.32611 c 0.03566,9.3718 -7.480322,16.94513 -16.851979,16.98077 l -45.234744,0.17211 c -9.371658,0.0356 -16.945056,-7.48024 -16.980717,-16.85203 -0.03566,-9.37159 7.480323,-16.94492 16.851981,-16.98066 l 45.234743,-0.17211 c 9.371656,-0.0356 16.945056,7.48033 16.980716,16.85192 z"
         id="path11037"
         inkscape:transform-center-y="-115.62697" /><path
         inkscape:transform-center-y="-48.85107"
         id="path11039"
         d="m 439.08027,848.00878 c -8.50903,3.92778 -18.52123,0.23962 -22.44884,-8.26934 l -18.95824,-41.07066 c -3.92768,-8.50896 -0.23966,-18.52113 8.26939,-22.4488 8.50895,-3.92778 18.521,-0.23952 22.4488,8.26934 l 18.95816,41.07067 c 3.92775,8.50896 0.23963,18.52113 -8.26927,22.44879 z"
         style="display:inline;overflow:visible;visibility:visible;fill:#c42023;fill-opacity:1;fill-rule:evenodd;stroke:#000000;stroke-width:6.012;stroke-linecap:round;stroke-linejoin:round;stroke-miterlimit:4;stroke-dashoffset:0;stroke-opacity:1;marker:none;marker-start:none;marker-mid:none;marker-end:none;enable-background:accumulate"
         inkscape:transform-center-x="-105.22987" /><path
         style="display:inline;overflow:visible;visibility:visible;fill:#c42023;fill-opacity:1;fill-rule:evenodd;stroke:#000000;stroke-width:6.012;stroke-linecap:round;stroke-linejoin:round;stroke-miterlimit:4;stroke-dashoffset:0;stroke-opacity:1;marker:none;marker-start:none;marker-mid:none;marker-end:none;enable-background:accumulate"
         d="m 466.43793,977.4648 c -9.27087,1.37202 -17.83881,-4.98695 -19.21068,-14.25772 l -6.62219,-44.74776 c -1.37193,-9.27076 4.98691,-17.83873 14.25778,-19.21065 9.27074,-1.37191 17.83853,4.98705 19.21061,14.25782 l 6.6221,44.74766 c 1.37201,9.27087 -4.98694,17.83874 -14.25762,19.21065 z"
         id="path11041"
         inkscape:transform-center-y="-17.353475"
         inkscape:transform-center-x="-114.74557" /><path
         inkscape:transform-center-y="15.54912"
         id="path11043"
         d="m 456.2238,1109.3852 c -9.28195,-1.2949 -15.71184,-9.8097 -14.41685,-19.0916 l 6.25011,-44.8012 c 1.29493,-9.2819 9.80966,-15.7118 19.09159,-14.4169 9.2818,1.295 15.71155,9.8098 14.41676,19.0917 l -6.25017,44.8011 c -1.29487,9.282 -9.80969,15.7118 -19.09144,14.4169 z"
         style="display:inline;overflow:visible;visibility:visible;fill:#c42023;fill-opacity:1;fill-rule:evenodd;stroke:#000000;stroke-width:6.012;stroke-linecap:round;stroke-linejoin:round;stroke-miterlimit:4;stroke-dashoffset:0;stroke-opacity:1;marker:none;marker-start:none;marker-mid:none;marker-end:none;enable-background:accumulate"
         inkscape:transform-center-x="-115.00402" /><path
         style="display:inline;overflow:visible;visibility:visible;fill:#c42023;fill-opacity:1;fill-rule:evenodd;stroke:#000000;stroke-width:6.012;stroke-linecap:round;stroke-linejoin:round;stroke-miterlimit:4;stroke-dashoffset:0;stroke-opacity:1;marker:none;marker-start:none;marker-mid:none;marker-end:none;enable-background:accumulate"
         d="m 409.26501,1233.0872 c -8.54141,-3.8569 -12.31257,-13.8381 -8.45558,-22.3794 l 18.6163,-41.2268 c 3.85692,-8.5412 13.83803,-12.3125 22.37938,-8.4555 8.54125,3.8569 12.31227,13.838 8.45548,22.3794 l -18.61632,41.2267 c -3.85691,8.5413 -13.83806,12.3124 -22.37926,8.4556 z"
         id="path11045"
         inkscape:transform-center-y="47.192323"
         inkscape:transform-center-x="-105.98426" /><path
         inkscape:transform-center-y="75.01371"
         id="path11047"
         d="m 329.36419,1338.5537 c -7.10919,-6.1067 -7.91624,-16.746 -1.80959,-23.8551 l 29.47495,-34.3138 c 6.1066,-7.109 16.74584,-7.9163 23.85495,-1.8095 7.10904,6.1065 7.91598,16.7458 1.80948,23.8549 l -29.47493,34.3137 c -6.10662,7.1093 -16.74586,7.9163 -23.85486,1.8098 z"
         style="display:inline;overflow:visible;visibility:visible;fill:#c42023;fill-opacity:1;fill-rule:evenodd;stroke:#000000;stroke-width:6.012;stroke-linecap:round;stroke-linejoin:round;stroke-miterlimit:4;stroke-dashoffset:0;stroke-opacity:1;marker:none;marker-start:none;marker-mid:none;marker-end:none;enable-background:accumulate"
         inkscape:transform-center-x="-88.416717" /><path
         style="display:inline;overflow:visible;visibility:visible;fill:#c42023;fill-opacity:1;fill-rule:evenodd;stroke:#000000;stroke-width:6.012;stroke-linecap:round;stroke-linejoin:round;stroke-miterlimit:4;stroke-dashoffset:0;stroke-opacity:1;marker:none;marker-start:none;marker-mid:none;marker-end:none;enable-background:accumulate"
         d="m 222.99158,1417.244 c -5.10129,-7.8618 -2.87886,-18.2976 4.98293,-23.3987 l 37.94679,-24.6224 c 7.86176,-5.1011 18.29759,-2.8788 23.39878,4.983 5.10115,7.8618 2.87866,18.2975 -4.98306,23.3988 l -37.94671,24.6222 c -7.86184,5.1013 -18.29761,2.8789 -23.39873,-4.9829 z"
         id="path11049"
         inkscape:transform-center-y="96.76035"
         inkscape:transform-center-x="-63.72398" /><path
         id="path11051"
         d="m 98.761045,1462.7862 c -2.680286,-8.9804 2.391645,-18.3678 11.371955,-21.0478 l 43.34575,-12.9369 c 8.9803,-2.6802 18.36764,2.3917 21.04782,11.3721 2.68017,8.9803 -2.39178,18.3674 -11.37206,21.0477 l -43.34566,12.9367 c -8.9804,2.6803 -18.36763,-2.3916 -21.047805,-11.3718 z"
         style="display:inline;overflow:visible;visibility:visible;fill:#c42023;fill-opacity:1;fill-rule:evenodd;stroke:#000000;stroke-width:6.012;stroke-linecap:round;stroke-linejoin:round;stroke-miterlimit:4;stroke-dashoffset:0;stroke-opacity:1;marker:none;marker-start:none;marker-mid:none;marker-end:none;enable-background:accumulate"
         inkscape:transform-center-y="110.67124"
         inkscape:transform-center-x="-33.90562" /><path
         style="display:inline;overflow:visible;visibility:visible;fill:#c42023;fill-opacity:1;fill-rule:evenodd;stroke:#000000;stroke-width:6.012;stroke-linecap:round;stroke-linejoin:round;stroke-miterlimit:4;stroke-dashoffset:0;stroke-opacity:1;marker:none;marker-start:none;marker-mid:none;marker-end:none;enable-background:accumulate"
         d="m 283.37421,637.37369 c -5.03578,7.90392 -15.4528,10.21297 -23.35663,5.17716 l -38.15003,-24.30606 c -7.90383,-5.03572 -10.21294,-15.45269 -5.17716,-23.3566 5.03567,-7.90391 15.45266,-10.21276 23.35657,-5.17715 l 38.15001,24.30616 c 7.90386,5.03562 10.21291,15.45268 5.17724,23.35649 z"
         id="path11053"
         inkscape:transform-center-y="-97.749123"
         inkscape:transform-center-x="-62.19616" /><path
         inkscape:transform-center-x="-32.162956"
         inkscape:transform-center-y="-111.1899"
         id="path11055"
         d="m 167.6346,573.25146 c -2.60556,9.00241 -11.95041,14.15209 -20.95267,11.54649 L 103.23024,572.22182 C 94.227986,569.61621 89.078235,560.2715 91.683787,551.26909 94.289284,542.26688 103.63414,537.1173 112.63642,539.72271 l 43.45171,12.57623 c 9.00224,2.60551 14.15197,11.95032 11.54647,20.95252 z"
         style="display:inline;overflow:visible;visibility:visible;fill:#c42023;fill-opacity:1;fill-rule:evenodd;stroke:#000000;stroke-width:6.012;stroke-linecap:round;stroke-linejoin:round;stroke-miterlimit:4;stroke-dashoffset:0;stroke-opacity:1;marker:none;marker-start:none;marker-mid:none;marker-end:none;enable-background:accumulate" /><path
         inkscape:transform-center-y="-76.393057"
         id="path11057"
         d="m 376.36622,731.5002 c -7.05821,6.16545 -17.70384,5.44683 -23.86919,-1.6114 l -29.75906,-34.0677 c -6.1654,-7.05813 -5.44685,-17.70372 1.61135,-23.86917 7.05809,-6.16544 17.70364,-5.44662 23.86914,1.6114 l 29.759,34.06781 c 6.16545,7.05802 5.44681,17.70371 -1.61124,23.86906 z"
         style="display:inline;overflow:visible;visibility:visible;fill:#c42023;fill-opacity:1;fill-rule:evenodd;stroke:#000000;stroke-width:6.012;stroke-linecap:round;stroke-linejoin:round;stroke-miterlimit:4;stroke-dashoffset:0;stroke-opacity:1;marker:none;marker-start:none;marker-mid:none;marker-end:none;enable-background:accumulate"
         inkscape:transform-center-x="-87.227462" /><path
         sodipodi:nodetypes="csssczc"
         d="m -277.59274,696.74521 c -53.42129,62.84857 -83.66486,144.66246 -83.66486,234.74542 0,200.06797 164.81406,361.36417 362.771215,363.93437 C 197.01123,1297.9632 358.84464,1138.1329 363.10568,933.69567 364.98282,843.63327 330.86062,758.80289 279.837,697.3506 522.63906,979.76062 364.92211,1365.0724 1.3920312,1369.3136 -362.13807,1373.5548 -523.00712,970.36968 -277.59274,696.74521 Z"
         style="display:inline;fill:#d3c794;fill-opacity:1;stroke:none;stroke-width:3.59736;stroke-linejoin:round;stroke-miterlimit:4;stroke-opacity:1"
         id="path11059" /><path
         transform="matrix(1.000499,0,0,1.000499,0,4.791172)"
         style="opacity:1;fill:none;fill-opacity:1;stroke:none;stroke-width:8.012;stroke-linejoin:round;stroke-miterlimit:4;stroke-dasharray:none;stroke-opacity:1"
         d="m 0,1401 c 220,0 399,-179 399,-399 0,-121 -54,-229 -139,-302 51,60 82,139 82,225 0,191 -153,346 -342,346 -189,0 -342,-155 -342,-346 0,-86 31,-165 82,-225 -85,73 -139,181 -139,302 0,220 179,399 399,399 z"
         class="fil2"
         id="path11061" /></g></g></svg>
