<?xml version="1.0" encoding="utf-8"?>
<!-- Generator: Adobe Illustrator 22.0.1, SVG Export Plug-In . SVG Version: 6.00 Build 0)  -->
<svg version="1.1" id="레이어_1" xmlns="http://www.w3.org/2000/svg" xmlns:xlink="http://www.w3.org/1999/xlink" x="0px"
	 y="0px" viewBox="0 0 410 430" style="enable-background:new 0 0 410 430;" xml:space="preserve">
<g>
	<path style="fill:#F3C14E;" d="M356.11444,364.33252l12.53345-7.16199l25.06702-10.74298l-1.79053-1.79047l-56.4007-0.89526
		l-10.58026-8.46423l0.73254,7.56897l-50.13397,3.58099l-12.53351-5.37146c0,0-7.16199-25.06702-7.16199-35.81
		s-17.90497-41.18146-12.53345-48.34344c5.37146-7.16199,8.95245-14.32397,8.95245-14.32397l7.16199-3.58099
		c0,0,8.95251,12.53345,16.1145,21.48596s34.01947,26.85748,34.01947,26.85748h10.74298l0.76086,7.86218l7.29639-15.91943
		l-37.60046-48.34344l5.37152-10.74298c0,0,1.79047-7.16199-1.79053-8.95251c-3.58099-1.79047-14.32397-28.64795-14.32397-28.64795
		s-7.18701-21.6709-17.91748-28.74042c-10.73053-7.06958-30.42596-17.81256-30.42596-17.81256l-1.79053-17.90497l3.58099-73.41046
		L185.12183,33.9856l-26.2113,32.5777l9.2016,56.052c0,0,19.69543-3.58099,19.69543,3.58099s-16.11444,3.58099-25.06696,12.53345
		c-8.95251,8.95251-23.27649,25.06702-28.64795,37.60046c-5.37152,12.53351-17.90503,17.90503-19.6955,23.27649
		c-1.79053,5.37152-10.74298,17.90497-10.74298,17.90497s-12.53351-3.58099-17.90503-7.16199
		c-5.37146-3.58099-30.43842-10.74298-34.01947-10.74298c-3.58099,0-8.95245,10.74298-8.95245,14.32397
		s5.37146,12.53351,12.53351,14.32404c7.16199,1.79047,8.95245,0,14.32397,1.79047
		c5.37146,1.79053,41.18146,17.90497,41.18146,17.90497s12.53345-1.79047,25.06696-23.27649l5.37152,1.79053
		c0,0,10.74298,3.58099,19.69543,0l3.58105,5.37152c0,0-1.79053,21.48596-8.95251,26.85742
		c-7.16199,5.37152-12.53351,14.32404-12.53351,21.48602s-26.85748,66.24841-26.85748,66.24841l14.32404,8.95251l-8.95251,37.60046
		l3.58099,26.85748l28.64795,1.79047l5.37152-16.1145l19.6955-48.34344l8.95245,3.58099l16.1145,5.37152l17.90497,57.29596
		l137.86841-1.79053l-3.58099-8.95245l-23.27649-14.32404v-25.06696L356.11444,364.33252z M297,400c-3,5-16,8-20,9s-10,1-15-3
		s-7-26-7-26l35-2c0,0,5,7,7,9S300,395,297,400z"/>
	<path style="fill:#CC0000;" d="M26.66273,90.38631c0,0-12.53349,14.32399-7.16199,32.22897s14.32399,55.50544,16.11448,62.66744
		c1.7905,7.16199,1.7905,16.11449,12.53349,14.32399c10.74299-1.79051,10.74299-23.27649,32.22897-30.43848
		s71.61993-46.55296,89.52491-50.13396c0,0,7.162-3.58099,5.37151-16.11448s-8.9525-35.80997,0-46.55296
		c8.95248-10.74299,12.53348-17.90498,21.48598-12.53349c8.95248,5.37149,37.60046,19.69548,37.60046,19.69548
		s3.58099,37.60046,0,46.55295s-5.37149,25.06698,1.7905,28.64797s28.64798,16.11449,32.22897,19.69548
		c3.58099,3.58101,44.76245,10.743,75.20093,44.76247c0,0,8.95248,1.7905,7.16199-5.37151
		c-1.7905-7.16199-8.95248-34.01945-8.95248-41.18146c0-7.16199,25.06699,3.58099,30.43848-1.7905
		s-16.1145-37.60046-28.64798-42.97195c-12.53348-5.3715-41.18146-16.11449-41.18146-16.11449s-1.7905-21.48598-1.7905-25.06698
		s-26.85748-7.16199-26.85748-7.16199V33.09037C273.7515,33.09037,209.29356-42.11056,26.66273,90.38631z"/>
	<g>
		<path d="M226.74272,372.61722c3.17172,6.78299,7.61781,16.90765,7.61781,20.36331c0,5.37149,3.58099,19.6955,7.16199,19.6955
			c3.58101,0-1.7905-14.32401-1.7905-17.905c0-2.35812-4.6582-16.36179-9.37367-24.11786
			C229.01657,368.44611,225.64868,370.27747,226.74272,372.61722z"/>
		<path d="M156.58412,379.62927c-5.04605,5.43259-12.36803,13.93668-9.95801,15.14175c3.58099,1.7905,8.9525-5.37149,10.743-7.16199
			c0.83142-0.83142,1.66286-3.59335,2.31505-6.31351C160.11955,379.47913,157.8553,378.26071,156.58412,379.62927z"/>
		<path d="M209.29356,231.83568c12.53348,7.162,19.69548,5.37151,19.69548,0c0-3.75836-1.75302-12.77576-2.80608-17.85307
			c-0.46838-2.25899-0.61035-4.55809-0.44499-6.85927c0.26686-3.71356,0.2719-9.30713-2.12044-9.30713
			c-3.58099,0,0,8.9525-1.7905,12.53349s-21.48598,7.162-25.06697,10.743S196.76007,224.67369,209.29356,231.83568z"/>
		<path d="M200.73198,79.74933c-10.27451,0.7534-5.76241,5.2655-5.76241,5.2655s1.7905,5.37149,3.58099,5.37149
			c1.17337,0,3.11555-4.6134,4.31505-7.79376C203.40778,81.15504,202.26424,79.63699,200.73198,79.74933z"/>
		<path d="M218.24605,81.43382c0,0-3.58099-1.7905-5.37149,3.581c-1.7905,5.37149,7.16199,5.37149,8.95248,3.58099
			S225.40804,83.22432,218.24605,81.43382z"/>
		<path d="M336.41895,375.07556c1.7905,0,26.85745-12.53351,28.64798-14.32401c1.7905-1.7905,39.39096-12.53348,37.60046-16.11447
			s-62.66745-3.58099-62.66745-3.58099c3.58099-10.74301,0-14.32401-5.37149-16.1145s-7.16199-8.95248-3.58099-10.74298
			s12.53348-19.6955,12.53348-19.6955s3.58099,7.16202,5.37149,7.16202s14.32397-17.905,12.53348-21.48599
			s-10.74298-5.37149-8.95248-8.95248s5.37149-12.53351,5.37149-16.11449c0-3.58101,3.58099-7.162,0-12.53349
			s-7.16199,1.7905-10.74298,5.37149s-17.90497,25.06699-19.69547,23.27649c-1.79053-1.7905-30.43848-34.01947-32.22897-39.39098
			c-1.7905-5.37149,3.58099-8.95248,3.58099-14.32397c0-5.37151-7.16199-17.90498-8.95251-21.48599
			c-5.26691-15.27399-11.77438-26.49574-18.42636-34.80717c39.96777,13.64708,75.85574,54.28027,81.09381,45.55017
			c5.37149-8.9525-10.74298-44.76245-7.16199-50.13396c3.58099-5.37149,39.39096,12.53349,34.01947-3.58099
			c-12.53348-44.76246-71.61993-62.66744-75.20093-62.66744s1.7905-14.32398,0-19.69548
			c-1.50516-4.51548-20.72003-10.29493-26.80722-12.0227c1.24649-11.54272,2.15967-21.2673,2.49472-24.92108
			c0.09454-1.03153-0.25659-2.03606-0.9783-2.77897C269.8999,21.70348,205.3763-34.07004,40.41309,71.3803
			c-0.20884,0.13354-0.39713,0.28162-0.57439,0.45495c-1.91541,1.87453-14.07122,13.51048-14.07122,6.91283
			c0-6.03146-3.8094-23.49111-9.82424-27.24926c-1.59772-0.9982-3.70634-0.48959-4.75842,1.07316
			C8.95708,55.8813,4.63186,63.81429,8.75775,70.69083c5.3715,8.95249,10.74299,10.74299,12.53349,19.69548
			c1.54898,7.74491,17.8369,86.50465,22.2031,107.6123c-2.94857,5.03174-4.48215,12.14247-3.40287,18.61784
			c1.7905,10.74298,12.53349,14.32397,12.53349,14.32397l41.18147,195.16431h16.11448L65.15844,230.94043
			c7.16199-1.7905,35.80997,16.11449,44.76246,19.69548c8.95249,3.58101,26.85748-26.85747,28.64798-23.27647
			s25.06697,0,23.27647,3.58099s-1.7905,23.27649-10.743,26.85748c-8.95248,3.58099-7.16199,10.74298-10.74298,17.90497
			c-3.58099,7.16202-24.17173,61.77222-27.75272,67.14371c-3.581,5.37149,8.95249,7.16199,14.32398,12.53348
			s-7.16199,28.64798-8.95249,35.80997S121.55914,427,121.55914,427h51.92445c0,0-10.743-23.27649-8.9525-28.64798
			s16.11449-37.60046,17.90498-35.80997s19.69548,1.7905,19.69548,8.95248c0,7.16202,19.69548,55.50546,19.69548,55.50546h150.40187
			c0,0,7.16199-1.7905,7.16199-7.16199s-35.80997-16.1145-41.18146-19.6955S334.62845,375.07556,336.41895,375.07556z
			 M346.65802,352.05185c0.23288-3.21295,2.85098-5.72537,6.07016-5.84427c11.24622-0.41571,35.6152-1.15741,35.6152,0.22
			c0,1.7905-8.95248,5.37149-17.90497,7.16199c-8.95251,1.7905-21.48599,12.53348-23.27649,10.74298
			C346.07544,363.24606,346.30756,356.88577,346.65802,352.05185z M298.81848,256.90265
			c5.37149-3.58098,10.74298,3.58099,14.32397,8.95251c3.58099,5.37149,12.53348,14.32397,5.37149,17.90497
			s-12.53348,0-21.48596-7.16199c-8.95251-7.16199-28.64798-34.01947-28.64798-34.01947
			c7.16199-14.32399,16.11447-7.16199,19.69547-3.58099c3.58102,3.58099,3.58102,3.58099,3.58102,14.32399
			S293.44699,260.48364,298.81848,256.90265z M246.32378,253.37904c3.85159-1.66309,9.72261-5.59181,11.11653-10.74945
			c2.86826,1.74002,6.74869,5.84349,11.83493,15.16832c10.74301,19.69547,43.86722,29.54321,45.65771,36.7052
			c1.7905,7.16202-1.7905,12.53351-5.37149,12.53351s-8.95248,7.16199-12.53348,16.11447s25.06696,19.6955,19.69547,17.905
			s-37.60046,3.58099-41.18146,1.7905s-10.74298-5.37149-12.53348-8.95251c-1.7905-3.58099,5.37149-19.69547,5.37149-28.64795
			C268.38,297.87659,255.03857,262.62726,246.32378,253.37904z M36.51047,85.91007
			c7.11085-8.88857,153.65817-106.02812,232.85703-51.33771c1.05664,0.72979,1.61914,1.99486,1.49139,3.27271l-6.6889,66.88917
			c-0.15759,1.57597-1.33981,2.85699-2.8981,3.14037l-14.14793,2.57231c-1.68842,0.30698-2.91568,1.77749-2.91568,3.49357v0.90498
			c0,1.87923,1.45172,3.43303,3.32768,3.54482c5.44154,0.32436,16.03024,0.57057,19.94879-2.04174
			c2.91766-1.94514,6.36325-26.60438,8.90268-48.72945c5.49759,2.17889,15.87469,6.25779,19.7453,7.54799
			c5.37149,1.7905-1.7905,53.71495-3.58099,57.29594s-19.69547,1.7905-28.64798,0
			c-8.95248-1.7905-12.53348,3.58099-14.32397,5.37149s42.97195,7.162,48.34344,5.37149
			c5.37149-1.7905,3.58099-37.60046,5.37149-41.18146c1.7905-3.58099,8.95251,0,32.22897,10.743
			c23.27649,10.74299,35.80997,37.60046,34.01947,41.18146s-23.27646-8.95248-32.22897-3.58099
			c-8.95248,5.37149,8.95251,41.18146,7.16199,46.55295c-1.7905,5.37151-17.90497-10.74298-34.01944-23.27647
			c-12.79514-9.95166-35.7337-16.51216-44.64749-18.79466c-14.07779-14.28453-27.42729-16.79509-29.6582-17.91055
			c-3.58099-1.7905-3.58099-7.16199-3.58099-10.74299c0-3.58099,5.37149-7.16199,3.58099-10.74299s1.7905-8.95249,3.58099-14.32399
			c1.7905-5.37149,7.162-48.34345,3.58099-55.50544c-3.58099-7.16199-37.60046-10.74299-44.76245-8.95249
			c-7.16199,1.7905-7.16199,17.90498-7.16199,17.90498c-11.63824,8.05724-6.26675,18.80023-8.05725,25.96222
			s1.7905,26.85748,3.58099,28.64797s10.743,14.32399-7.16199,17.90498c-17.90498,3.581-41.18146,32.22897-42.97195,37.60047
			c-1.7905,5.37149-3.58101,7.16199-10.743,10.74298c-7.16199,3.58099-12.53349,21.48598-14.32399,25.06699
			c-1.7905,3.58099-8.95248,17.90498-12.53349,14.32397c-3.58099-3.58099-28.64797-12.53348-35.80997-14.32397
			c-3.49117-0.87274-4.85426-3.44473-6.16478-5.64722c14.73685-11.72699,71.15044-55.36819,114.2317-71.49011
			c1.25774-0.47068,2.14238-1.59182,2.29068-2.9265c0.29747-2.67776-2.36861-4.70454-4.86201-3.68394
			c-16.87651,6.90823-69.09876,29.68725-109.07658,62.26177c-5.3715,3.58101-10.74299-10.74298-10.74299-16.11447
			C49.04396,157.53,29.34848,94.86256,36.51047,85.91007z M227.19855,97.54831c-1.79051,1.7905-10.743,1.7905-14.32399,0
			s-7.162,0-10.743,0s-10.74298-3.58099-12.53349-5.3715c-1.7905-1.7905,1.79051-8.95249,1.79051-10.74299
			c0-1.28408,5.52515-5.33073,8.65076-7.51716c1.71684-1.20103,3.65575-2.07507,5.72917-2.37757
			c9.10747-1.32856,21.65308,3.17873,23.22054,6.31374C230.77954,81.43382,228.98904,95.75781,227.19855,97.54831z
			 M227.19855,133.35828c-3.58101,1.7905-17.90498,25.06697-21.48599,19.69548
			c-3.58099-5.37149-16.11449-19.69548-16.11449-23.27647c0-0.03584,0.00023-0.07147,0.00055-0.10689
			c0.03542-3.54066,2.69472-6.6712,6.20337-7.14767c5.55869-0.75493,10.65141,4.04392,13.49158,5.46406
			c3.58099,1.7905,16.11447-3.58099,17.90498-1.7905C228.98904,127.98678,230.77954,131.56778,227.19855,133.35828z
			 M189.59807,67.10984c0-0.22382,0.021-0.44762,0.06033-0.67056c0.70258-3.98119,6.65732-3.79159,7.44012,0.17463
			c0.25835,1.309,0.2532,2.28643-0.33846,2.28643c-1.7905,0-3.58099,7.16199-7.162,8.95249
			C186.01707,79.64333,189.59807,70.69083,189.59807,67.10984z M48.14871,221.0927c-7.16199-5.37151-1.7905-10.743-1.7905-10.743
			s7.16199,3.58099,7.16199,7.162C53.5202,221.0927,55.3107,226.46419,48.14871,221.0927z M112.60665,246.15967
			c-3.581-1.7905-25.06698-14.32399-28.64798-16.11449c-3.58099-1.7905-19.69548,0-21.48598-5.37149
			s-1.7905-12.53349-5.37149-14.32399s-10.74299-1.7905-7.16199-5.37149c3.581-3.58099,8.95249-3.58099,16.11448,1.7905
			s19.69549,3.58099,30.43848,12.53349c7.46033,6.2169,11.46688-2.2449,15.61724-9.19588
			c2.61701-4.3828,8.4193-5.60786,12.53863-2.59319c4.4334,3.24452,9.44459,7.79518,9.44459,11.78906
			C134.09262,226.46419,116.18764,247.95016,112.60665,246.15967z M157.36911,226.46419c-1.7905,1.7905-8.9525,0-12.53349,0
			s-7.16199-5.37149-5.37149-10.743c1.7905-5.37149-21.48598-19.69548-17.90498-21.48598
			c3.58099-1.7905,12.53348,10.743,14.32399,7.162c1.7905-3.58101,1.7905-10.743-1.79051-14.32399
			c-1.25336-1.25337-0.9713-2.50674-0.07518-3.60657c2.45462-3.01251,7.28516-1.87848,8.61841,1.77159
			c2.19977,6.02206,2.19977,13.96051,2.19977,17.94946C144.83562,208.5592,159.15961,224.67369,157.36911,226.46419z
			 M150.20711,201.39722c-1.7905-1.7905-1.7905-7.162-3.58099-14.32399s-10.74298-10.743-7.16199-19.69548
			c28.64796-35.80997,42.97195-34.01947,42.97195-34.01947c4.47624-2.68575,18.80023,20.59073,18.80023,25.96222
			c0,5.37151-1.7905,30.43848-3.58099,37.60046c-1.7905,7.162,5.37149,12.53349,7.16199,10.743s-3.58099-32.22897,5.37151-46.55296
			c8.95248-14.32397,19.69548-19.69548,23.27647-19.69548s26.85747,12.53349,35.80995,23.27649
			c8.95251,10.74298,8.95251,23.27647,8.95251,28.64796c0,5.37151,7.16199,7.162,7.16199,7.162s7.16199,10.74298,8.95248,12.53348
			s3.58099,8.9525-10.74298,10.743c-14.32401,1.7905-21.48599,10.74298-30.43848,8.95248
			c-8.9525-1.7905-5.37149-5.37149-5.37149-10.74298s21.48596-16.11449,16.11447-23.27647
			c-5.37149-7.162-10.74298,7.16199-17.90497,5.37149c-7.162-1.7905-5.37151-17.90498-5.37151-25.06699
			c0-7.16199-1.7905-14.32397-3.58099-12.53348s1.7905,35.80997,3.58099,41.18146s-3.58099,10.743-3.58099,16.11449
			c0,4.08327,7.23369,12.29208,11.4942,16.00093c-0.41592,2.16054-1.76219,8.39078-4.04491,12.01068
			c-1.12582-0.73122-2.13736-0.88574-2.97305-0.2589c-7.16199,5.37149-17.90498,0-26.85747,0
			c-8.9525,0-5.37149-3.58099-10.743-7.16199c-5.37149-3.58099-5.37149,0-14.32399,5.37149
			c-8.95248,5.37151-14.32397,1.7905-21.48598,0c-7.16199-1.7905-1.7905-12.53348,0-17.90498
			c1.7905-5.37149,10.743-12.53348,5.37151-14.32397c-5.37151-1.79051,0-19.6955,0-23.27649s12.53348-17.90498,8.95248-21.48598
			s-8.95248,8.9525-14.32399,19.69548C162.7406,203.18771,151.9976,203.18771,150.20711,201.39722z M126.93063,348.21808
			c-8.95249-5.37149-7.16199-5.37149-5.37149-8.95248c1.7905-3.58099,25.06697-59.08646,25.06697-66.24844
			s7.162-7.16199,7.162-7.16199c3.58099,0,3.58099,3.58099,1.7905,10.74298s-14.32399,48.34344-17.90498,59.08646
			c-3.58101,10.74298,7.16199,12.53348,3.58099,16.11447S135.88313,353.58957,126.93063,348.21808z M168.11209,376.86606
			c-1.7905,3.58099-8.95248,21.48596-14.32397,23.27646c-5.37151,1.7905,0,21.48599-7.162,19.6955
			c-7.16199-1.7905-3.58099-16.1145-12.53349-19.6955c-8.95248-3.58099,0,12.53351-5.37149,10.74301
			s-5.37149-12.53351-5.37149-17.905s7.16199-30.43848,10.74298-34.01947c3.58101-3.58099,3.58101,1.7905,7.162,5.37149
			s7.16199-5.37149,8.95248-1.7905s-5.37149,17.905-3.58099,17.905s8.9525-10.74301,8.9525-16.1145s8.95248-7.16199,8.95248-7.16199
			C169.90259,355.38007,169.90259,373.28506,168.11209,376.86606z M241.52252,421.62851
			c-7.16199,0-14.32397-1.7905-17.90498-3.58099c-3.58099-1.7905-14.32397-42.97195-14.32397-48.34348
			c0-5.37149,5.37149-7.16199,10.74298-7.16199s1.7905-14.32397-5.37149-19.69547c-7.162-5.37149-10.743,17.90497-17.90498,17.90497
			c-7.162,0-8.9525-14.32397-14.32399-16.11447s-10.74298,3.58099-23.27647,3.58099s-5.37149-17.905-5.37149-25.06699
			s12.53348-46.55295,12.53348-53.71494s3.58099-10.74301,3.58099-10.74301c1.79051-1.7905,12.53349-3.58098,16.11449-1.7905
			c3.58099,1.7905,12.53349-8.95248,16.11449-8.95248s-3.58099,23.27649,1.7905,25.06699
			c5.37151,1.7905,3.58099-16.1145,8.9525-14.32401c5.37149,1.7905,5.37149,12.53351,10.74298,14.32401
			c5.37151,1.7905,1.7905-12.53351,8.9525-10.74298c7.16199,1.7905,12.53349,21.48596,10.74298,30.43845
			c-1.7905,8.95251,12.53349,34.01947,12.53349,39.39096c0,5.37152,3.58101,10.74301-7.16199,10.74301
			s-10.743,12.53348-10.743,25.06696c0,12.53351,16.11449,37.60046,16.11449,46.55298
			C254.05602,423.41901,248.68452,421.62851,241.52252,421.62851z M245.10353,371.49454
			c-3.58101-7.16199,3.58099-17.90497,3.58099-17.90497c3.58099-3.58099,16.11449,0,19.69548,0s5.37149,7.16199,5.37149,14.32397
			c0,7.16202-7.16199,8.95251-14.32397,7.16202C252.26552,373.28506,248.68452,378.65656,245.10353,371.49454z M261.21802,394.77103
			c-1.80975-2.7146-1.79028-6.34369-1.32834-9.26974c0.47067-2.98123,3.03326-5.181,6.04861-5.30997
			c7.5318-0.32217,21.81766-0.55417,25.7182,2.04623c5.37149,3.58099,7.16199,14.32397,3.58099,17.90497
			s-17.905,7.16199-23.27649,7.16199S264.79901,400.14252,261.21802,394.77103z M347.16193,409.09503
			c5.37149,3.58099,5.37149,7.16199,0,8.95248s-28.64798,1.7905-39.39096,0s-23.27649,1.7905-30.43848-1.7905
			s7.16199-5.37149,16.1145-8.95251c8.95248-3.58099,10.74298-10.74298,8.95248-16.11447s-5.37149-5.37149-3.58099-8.95248
			c1.30569-2.61145,16.89368-5.22278,25.23932-6.44553c2.86169-0.41922,5.48764,1.6163,5.798,4.49176
			c0.52042,4.82321,1.19165,11.89276,1.19165,16.27774C331.04745,403.72351,341.79044,405.51401,347.16193,409.09503z
			 M293.44699,376.86606c-1.7905-3.58099-8.95251-1.7905-12.53351-8.95251c-2.04468-4.08948-1.17062-9.34634-0.04437-13.10428
			c0.87198-2.90942,3.39557-5.02539,6.40805-5.41299c59.45572-7.64996,50.97577,6.07089,52.72278,9.56479
			c1.7905,3.58099,1.7905,10.74298-3.58099,10.74298S295.23749,380.44705,293.44699,376.86606z"/>
	</g>
	<path d="M80.91615,84.91708c-5.04379-0.49808-17.71686,16.88969-19.40024,17.80856
		c-1.68339,0.91887-5.57986-3.75381-7.53076-4.73404s-14.81843,4.90727-14.81843,4.90727
		c10.47037-0.5762,21.08978,5.84547,15.59546,13.8087s0.88914,16.87186,2.83791,18.93697
		c1.94877,2.06512,27.17196,2.38571,23.29672-13.13587c-3.87524-15.52159-16.30287-12.67094-14.93774-17.27908
		c1.36514-4.60814,20.36985-14.33499,21.83966-16.99011C89.26853,85.58437,85.95993,85.41516,80.91615,84.91708z
		 M76.33198,126.73083c-0.11528,3.47144-11.1937,9.85064-17.41643,1.97297s2.68485-13.71867,2.68485-13.71867
		C74.58002,107.25352,76.44727,123.25939,76.33198,126.73083z"/>
	<path d="M107.58505,90.27235c-7.98055-7.71333-20.1559,5.90926-22.05122,13.40513
		c-1.89532,7.49588,7.89828,11.2801,13.56427,10.67847c5.66599-0.60163,11.77119-7.27843,11.77119-7.27843
		c2.48912,15.95139-25.55642,37.93369-25.55642,37.93369C129.88213,127.03022,115.56561,97.98566,107.58505,90.27235z
		 M102.32043,109.6961c-3.16939,1.91753-14.02172,1.55379-13.27847-4.28746c0.5349-4.20385,6.01244-9.61855,9.04133-12.32388
		c1.6623-1.48474,4.203-1.42026,5.76401,0.17063c1.84576,1.88109,3.49886,4.78318,4.55779,6.87931
		c0.78741,1.55865,0.52789,3.4408-0.65524,4.7252C106.26137,106.47577,104.13387,108.59895,102.32043,109.6961z"/>
	<path d="M109.23607,50.93913l7.58868-0.33841c0,0,6.64199,54.74343,14.74719,55.1885
		c8.10521,0.44507,12.75787-3.40909,10.94887-8.45466s-13.91922-6.10984-11.57986-10.57451
		c2.33937-4.46467,30.86462-32.20633,30.86462-32.20633l4.39043,6.65951c0,0-32.37943,23.089-29.27161,26.09811
		s9.79929,5.06059,10.53813,10.6993c0.73883,5.63869-3.14774,12.35979-10.83159,13.49154
		c-7.68387,1.13175-14.02427-5.92818-14.33306-11.6818C121.98907,94.06676,109.23607,50.93913,109.23607,50.93913z"/>
	<path d="M165.31456,75.73191c0,0-14.54358,6.49716-14.10249,9.29736c0.4411,2.80019,1.00578,4.33871,3.81468,2.20589
		c2.80888-2.13282,9.72665-6.1315,11.13051-8.34962C167.56111,76.66742,165.31456,75.73191,165.31456,75.73191z"/>
</g>
</svg>
