<svg xmlns="http://www.w3.org/2000/svg" version="1.0" width="825.143" height="999.996"><g><path d="m 427.38849,70.888095 h -35.35443 c 0,-14.447538 7.91436,-26.15958 17.67722,-26.15958 9.76285,0 17.67721,11.712042 17.67721,26.15958 z" style="marker:none" overflow="visible" color="#000" fill="#ffd606" stroke="#000" stroke-width="2.5" stroke-linecap="round" stroke-linejoin="round"/><g transform="matrix(1.0004075,0,0,1.0032693,-1874.632,-690.18795)" stroke="#000"><path d="m 2210.7099,1013.9978 c -1.4719,14.1753 -17.3608,81.0977 -35.2387,112.497 l 62.8784,2.4413 c 14.6972,-46.4615 22.5536,-85.1734 23.6934,-114.9097 z" fill="#ff0914" fill-rule="evenodd" stroke-width="2.507"/><g transform="translate(1.5105871e-5,9.3812477e-5)"><path d="m 2002.2661,1212.1559 -39.1627,63.8716 c 46.0361,21.6002 76.5375,21.1656 104.8827,18.3317 -1.418,-22.0516 -2.7484,-44.0813 -5.1042,-66.3666 -15.2469,1.5842 -45.3934,0.2789 -60.6158,-15.8367 z" fill="#ff0914" stroke-width="4.006" stroke-linejoin="round"/><g transform="matrix(-1,0,0,1,4717.1319,-6.8793852)" fill="#ffd606" fill-rule="evenodd" stroke-width="3.998"><path d="m 2773.7126,1140.2448 c -0.8749,-7.655 -12.2376,-13.8695 -13.3585,-2.6605 -2.4907,19.7294 -15.435,42.9576 -31.6586,61.4566 -1.9411,1.8317 3.3199,15.9762 8.3503,10.0163 18.5589,-19.63 36.4685,-40.2778 36.6668,-68.8124 z"/><path d="m 2787.5913,1155.3278 c -0.5472,-7.748 -9.2486,-17.9228 -12.3654,-4.085 -6.1456,22.8895 -20.1754,42.1174 -37.7569,59.3922 -4.123,4.1889 2.8954,13.5251 6.1942,9.7213 17.8921,-19.3862 38.7746,-38.5993 43.9281,-65.0285 z"/><path d="m 2788.5378,1160.2741 c 5.5699,-8.19 12.5539,1.5494 11.5439,9.3394 -1.0446,8.0481 -27.7443,44.0241 -49.5477,61.0161 -4.5256,3.6089 -11.2445,-5.2719 -6.0567,-9.653 17.1707,-16.7214 31.2341,-31.6024 44.0605,-60.7025 z"/><path d="m 2798.8371,1175.8468 c 5.3266,-9.2433 12.6464,1.6797 8.2597,9.1997 -9.9839,17.5902 -20.4275,34.8376 -48.2205,58.0577 -5.0655,5.4833 -13.3665,-5.6659 -8.2487,-11.1492 20.6701,-17.6535 37.5661,-35.948 48.2095,-56.1082 z"/><path d="m 2809.1989,1183.5671 c 5.5355,-8.46 10.962,5.877 8.3509,11.5169 -12.4347,22.8581 -31.6967,42.5358 -52.7419,59.1653 -4.6478,3.4466 -11.1429,-6.8061 -4.9806,-10.8794 25.1826,-19.36 37.748,-39.8402 49.3716,-59.8028 z"/><path d="m 2817.9504,1196.8401 c 4.8566,-7.5722 10.1506,3.2768 7.0173,10.5879 -10.3735,19.6204 -34.8979,41.2075 -55.0811,56.9936 -4.9611,3.29 -8.0749,-6.1684 -3.636,-9.7717 23.1272,-17.7198 40.8432,-38.9452 51.6998,-57.8098 z"/><path d="m 2826.2537,1209.06 c 4.8566,-5.0133 12.8833,-1.2424 8.9667,6.7476 -13.2297,23.0669 -35.5373,44.1525 -56.4475,60.8122 -5.3788,4.23 -12.4701,-7.7134 -6.099,-12.7266 22.7636,-16.0488 39.9984,-34.6107 53.5798,-54.8332 z"/><path d="m 2726.5047,1202.9933 c -4.455,-5.9937 -17.1296,5.4286 -14.1004,9.3515 l 49.3245,78.459 c 4.0848,6.3678 17.7707,-6.6667 13.2486,-10.7767 z"/></g></g></g><g transform="matrix(-1.0004075,0,0,1.0032693,2698.624,-690.18795)" stroke="#000"><path d="m 2210.7099,1013.9978 c -1.4719,14.1753 -17.3608,81.0977 -35.2387,112.497 l 62.8784,2.4413 c 14.6972,-46.4615 22.5536,-85.1734 23.6934,-114.9097 z" fill="#ff0914" fill-rule="evenodd" stroke-width="2.507"/><g transform="translate(1.5105871e-5,9.3812477e-5)"><path d="m 2002.2661,1212.1559 -39.1627,63.8716 c 46.0361,21.6002 76.5375,21.1656 104.8827,18.3317 -1.418,-22.0516 -2.7484,-44.0813 -5.1042,-66.3666 -15.2469,1.5842 -45.3934,0.2789 -60.6158,-15.8367 z" fill="#ff0914" stroke-width="4.006" stroke-linejoin="round"/><g transform="matrix(-1,0,0,1,4717.1319,-6.8793852)" fill="#ffd606" fill-rule="evenodd" stroke-width="3.998"><path d="m 2773.7126,1140.2448 c -0.8749,-7.655 -12.2376,-13.8695 -13.3585,-2.6605 -2.4907,19.7294 -15.435,42.9576 -31.6586,61.4566 -1.9411,1.8317 3.3199,15.9762 8.3503,10.0163 18.5589,-19.63 36.4685,-40.2778 36.6668,-68.8124 z"/><path d="m 2787.5913,1155.3278 c -0.5472,-7.748 -9.2486,-17.9228 -12.3654,-4.085 -6.1456,22.8895 -20.1754,42.1174 -37.7569,59.3922 -4.123,4.1889 2.8954,13.5251 6.1942,9.7213 17.8921,-19.3862 38.7746,-38.5993 43.9281,-65.0285 z"/><path d="m 2788.5378,1160.2741 c 5.5699,-8.19 12.5539,1.5494 11.5439,9.3394 -1.0446,8.0481 -27.7443,44.0241 -49.5477,61.0161 -4.5256,3.6089 -11.2445,-5.2719 -6.0567,-9.653 17.1707,-16.7214 31.2341,-31.6024 44.0605,-60.7025 z"/><path d="m 2798.8371,1175.8468 c 5.3266,-9.2433 12.6464,1.6797 8.2597,9.1997 -9.9839,17.5902 -20.4275,34.8376 -48.2205,58.0577 -5.0655,5.4833 -13.3665,-5.6659 -8.2487,-11.1492 20.6701,-17.6535 37.5661,-35.948 48.2095,-56.1082 z"/><path d="m 2809.1989,1183.5671 c 5.5355,-8.46 10.962,5.877 8.3509,11.5169 -12.4347,22.8581 -31.6967,42.5358 -52.7419,59.1653 -4.6478,3.4466 -11.1429,-6.8061 -4.9806,-10.8794 25.1826,-19.36 37.748,-39.8402 49.3716,-59.8028 z"/><path d="m 2817.9504,1196.8401 c 4.8566,-7.5722 10.1506,3.2768 7.0173,10.5879 -10.3735,19.6204 -34.8979,41.2075 -55.0811,56.9936 -4.9611,3.29 -8.0749,-6.1684 -3.636,-9.7717 23.1272,-17.7198 40.8432,-38.9452 51.6998,-57.8098 z"/><path d="m 2826.2537,1209.06 c 4.8566,-5.0133 12.8833,-1.2424 8.9667,6.7476 -13.2297,23.0669 -35.5373,44.1525 -56.4475,60.8122 -5.3788,4.23 -12.4701,-7.7134 -6.099,-12.7266 22.7636,-16.0488 39.9984,-34.6107 53.5798,-54.8332 z"/><path d="m 2726.5047,1202.9933 c -4.455,-5.9937 -17.1296,5.4286 -14.1004,9.3515 l 49.3245,78.459 c 4.0848,6.3678 17.7707,-6.6667 13.2486,-10.7767 z"/></g></g></g><g transform="translate(3.70043,8.526004)" stroke="#000" stroke-linejoin="round"><g transform="matrix(1.0003138,0.01369532,-0.01373449,1.0031753,-1869.5513,-715.33694)"><path d="m 759.1875,680.5 c -2.25082,0.0835 -4.29339,0.86837 -5.8125,2.40625 l -1.6875,1.71875 c -2.98602,3.02292 -3.09968,8.09803 -0.71875,12.8125 -23.10191,1.73645 -47.69534,-0.26075 -73.4375,-5.125 -3.67244,6.0287 -12.6093,16.03816 -22.46875,19.3125 8.77787,23.19699 12.77067,46.39655 13.625,69.59375 -3.87646,-1.24366 -7.69564,-0.74101 -10.15625,1.75 l -1.71875,1.71875 c -4.05096,4.10101 -2.83132,11.97472 2.75,17.625 l 12.53125,12.65625 c 5.58132,5.65028 13.32404,6.91351 17.375,2.8125 l 1.71875,-1.75 c 2.63538,-2.66795 3.01683,-6.9215 1.4375,-11.125 23.88356,-2.60338 48.29747,0.85094 70.81305,8.9989 -3.99324,3.10413 -5.00063,12.15727 -0.0943,17.0636 l 2.21875,2.21875 c 5.28845,5.28845 15.40119,3.69256 22.6875,-3.59375 L 804.59375,813.25 c 7.28631,-7.28631 8.8822,-17.39905 3.59375,-22.6875 l -2.21875,-2.21875 c -5.28845,-5.28845 -14.80136,-4.69228 -19.88827,0.79452 -6.67117,-22.98803 -13.60171,-44.68972 -13.23673,-70.16952 4.31556,1.83536 8.75638,1.49627 11.5,-1.28125 l 1.71875,-1.71875 c 4.05096,-4.10101 2.80007,-11.94347 -2.78125,-17.59375 l -12.5,-12.6875 c -3.48832,-3.53143 -7.84238,-5.32671 -11.59375,-5.1875 z m -77.625,34.28125 c 22.24925,3.61732 44.80781,5.41516 67.75,4.875 0.24351,23.65602 5.28261,46.22019 11.71875,68.5 -25.08987,-5.56862 -46.94353,-6.2783 -67.90625,-5.65625 -1.91678,-23.12718 -4.83238,-45.9668 -11.5625,-67.71875 z" transform="matrix(0.99949895,-0.01364513,0.01368416,0.99664793,1878.4033,687.42881)" fill="#ffd606" stroke-width="2.512"/><path d="m 1981.8197,1001.5885 11.5389,10.2734 16.2916,-17.72837 15.6118,13.45097 -15.2195,18.7563 18.0213,15.5731 19.3752,-21.9836 -14.501,-13.0863 15.9378,-17.23098 13.8102,11.99208 12.7602,-13.35708 17.1316,15.54548 -12.1855,13.031 14.501,13.3902 -15.6339,17.9992 -14.4181,-13.0145 -19.5576,21.7405 17.5239,15.6615 16.6563,-17.2807 15.7831,14.4512 -15.96,17.6234 12.2794,11.0747 25.0176,-28.1952 -14.9873,-13.661 14.6226,-15.9544 15.2083,13.3681 15.1089,-17.2918 -109.7965,-96.12434 -15.0591,16.10914 15.1586,13.80469 -14.9983,16.50152 -14.7497,-13.29074 z" fill="#ffd606" fill-rule="evenodd" stroke-width="2.507"/><path d="m 2043.4463,911.61792 -16.7744,18.08638 513.1227,451.0854 c 4.6708,-7.6325 9.8899,-13.6667 17.5876,-17.7891 z" fill="#fcd305" fill-rule="evenodd" stroke-width="2.507"/></g><rect width="60.303" height="30.152" rx="18.6" ry="13.5" x="-54.265" y="941.257" transform="rotate(-45)" style="marker:none" overflow="visible" color="#000" fill="#ffd606" stroke-width="2.5" stroke-linecap="round"/></g><g transform="matrix(-1,0,0,1,820.29165,8.526004)" fill="#c9c9c9" stroke="#000" stroke-linejoin="round"><g transform="matrix(1.0003138,0.01369532,-0.01373449,1.0031753,-1869.5513,-715.33694)"><path d="m 759.1875,680.5 c -2.25082,0.0835 -4.29339,0.86837 -5.8125,2.40625 l -1.6875,1.71875 c -2.98602,3.02292 -3.09968,8.09803 -0.71875,12.8125 -23.10191,1.73645 -47.69534,-0.26075 -73.4375,-5.125 -3.67244,6.0287 -12.6093,16.03816 -22.46875,19.3125 8.77787,23.19699 12.77067,46.39655 13.625,69.59375 -3.87646,-1.24366 -7.69564,-0.74101 -10.15625,1.75 l -1.71875,1.71875 c -4.05096,4.10101 -2.83132,11.97472 2.75,17.625 l 12.53125,12.65625 c 5.58132,5.65028 13.32404,6.91351 17.375,2.8125 l 1.71875,-1.75 c 2.63538,-2.66795 3.01683,-6.9215 1.4375,-11.125 23.88356,-2.60338 48.29747,0.85094 70.81305,8.9989 -3.99324,3.10413 -5.00063,12.15727 -0.0943,17.0636 l 2.21875,2.21875 c 5.28845,5.28845 15.40119,3.69256 22.6875,-3.59375 L 804.59375,813.25 c 7.28631,-7.28631 8.8822,-17.39905 3.59375,-22.6875 l -2.21875,-2.21875 c -5.28845,-5.28845 -14.80136,-4.69228 -19.88827,0.79452 -6.67117,-22.98803 -13.60171,-44.68972 -13.23673,-70.16952 4.31556,1.83536 8.75638,1.49627 11.5,-1.28125 l 1.71875,-1.71875 c 4.05096,-4.10101 2.80007,-11.94347 -2.78125,-17.59375 l -12.5,-12.6875 c -3.48832,-3.53143 -7.84238,-5.32671 -11.59375,-5.1875 z m -77.625,34.28125 c 22.24925,3.61732 44.80781,5.41516 67.75,4.875 0.24351,23.65602 5.28261,46.22019 11.71875,68.5 -25.08987,-5.56862 -46.94353,-6.2783 -67.90625,-5.65625 -1.91678,-23.12718 -4.83238,-45.9668 -11.5625,-67.71875 z" transform="matrix(0.99949895,-0.01364513,0.01368416,0.99664793,1878.4033,687.42881)" stroke-width="2.512"/><path d="m 1981.8197,1001.5885 11.5389,10.2734 16.2916,-17.72837 15.6118,13.45097 -15.2195,18.7563 18.0213,15.5731 19.3752,-21.9836 -14.501,-13.0863 15.9378,-17.23098 13.8102,11.99208 12.7602,-13.35708 17.1316,15.54548 -12.1855,13.031 14.501,13.3902 -15.6339,17.9992 -14.4181,-13.0145 -19.5576,21.7405 17.5239,15.6615 16.6563,-17.2807 15.7831,14.4512 -15.96,17.6234 12.2794,11.0747 25.0176,-28.1952 -14.9873,-13.661 14.6226,-15.9544 15.2083,13.3681 15.1089,-17.2918 -109.7965,-96.12434 -15.0591,16.10914 15.1586,13.80469 -14.9983,16.50152 -14.7497,-13.29074 z" fill-rule="evenodd" stroke-width="2.507"/><path d="m 2043.4463,911.61792 -16.7744,18.08638 513.1227,451.0854 c 4.6708,-7.6325 9.8899,-13.6667 17.5876,-17.7891 z" fill-rule="evenodd" stroke-width="2.507"/></g><rect width="60.303" height="30.152" rx="18.6" ry="13.5" x="-54.265" y="941.257" transform="rotate(-45)" style="marker:none" overflow="visible" color="#000" stroke-width="2.5" stroke-linecap="round"/></g><g transform="matrix(1.0004075,0,0,1.0032693,-1872.9216,-677.71139)" stroke="#000" stroke-linejoin="round"><path d="m 2201.9835,807.36348 c 3.372,6.22085 9.7161,-6.52969 11.5689,-10.60452 8.2998,17.30409 6.9766,24.04992 23.1471,-16.2657 12.8441,29.27963 12.2375,43.80137 23.817,13.43064 7.2975,30.41084 14.2987,14.92364 23.5508,-14.83012 8.0209,26.38748 12.6121,47.0163 22.9587,15.07916 8.8162,30.69119 10.0611,17.21934 23.6252,-14.59344 10.863,29.16719 11.9029,43.57017 23.426,16.94536 6.8199,13.54855 10.7155,15.8733 11.4297,10.4729 -17.7778,-40.14767 -29.7987,-49.22785 -66.9237,-68.82995 l -33.9457,-0.28194 c -40.8642,23.21188 -48.1792,43.73489 -62.654,69.47761 z" fill="#e9e9ed" fill-rule="evenodd" stroke-width="2.507"/><path d="m 2191.2351,785.63333 -0.026,35.69561 185.3172,0.0549 -0.1462,-35.91322 c -8.8793,19.10041 -7.4581,35.01625 -22.1863,10.87904 -8.5635,23.80165 -14.7031,14.28556 -23.5524,-15.84458 -13.2688,35.46909 -16.4754,39.59233 -23.6853,15.76109 -9.8296,28.21846 -16.5869,8.1556 -22.9692,-15.73459 -8.0891,27.89698 -16.07,41.99196 -23.7375,16.12476 -7.5165,18.71768 -11.5436,22.16563 -23.1162,-15.77661 -10.0231,27.23075 -15.4103,40.77811 -23.4994,16.25802 -10.5319,16.41816 -12.2058,20.17548 -22.3988,-11.50439 z" fill="#ffd606" fill-rule="evenodd" stroke-width="2.562"/><path d="m 2195.2024,810.60107 c 9e-4,2.73381 -2.1292,4.95053 -4.7571,4.95053 -2.628,0 -4.7581,-2.21672 -4.7571,-4.95053 0,-2.7338 2.1291,-4.95053 4.7571,-4.95053 2.6279,0 4.758,2.21673 4.7571,4.95053 z" fill="#ff0914" stroke-width="2.579" stroke-linecap="round"/><path d="m 2185.9947,831.39923 c -3.31,0.94495 -3.556,-10.41684 0,-9.65497 l 195.8455,0.12636 c 2.8157,-0.94494 2.7653,10.11638 0,9.59867 l -195.8456,-0.0701 z" fill="#ffd606" fill-rule="evenodd" stroke-width="2.82"/><path d="m 2188.8011,831.3753 191.1129,0.11745 c 6.2391,13.13059 10.4978,24.15143 13.8894,39.40579 -5.9117,12.07348 -7.7851,22.06825 -20.3582,-2.012 -11.273,16.71186 -10.2337,29.75008 -30.15,-15.09319 -21.029,32.56511 -16.6055,41.45505 -29.9414,15.09111 -15.3179,25.21826 -12.5609,17.86855 -29.4425,-15.34739 -18.7655,35.69698 -15.8986,40.36101 -29.4446,15.22081 -15.4141,24.99743 -12.1985,19.67964 -30.0246,-14.40317 -19.7411,34.20996 -16.3865,39.59766 -30.0667,15.7801 -13.6393,19.10016 -13.5402,18.76789 -21.2578,3.4397 3.6755,-16.30432 8.8735,-30.10402 15.6835,-42.19921 z" fill="#e9e9ed" fill-rule="evenodd" stroke-width="2.551"/><path d="m 2166.2005,858.7052 0.082,37.48072 235.4687,0.30884 0.3399,-2.03632 -0.2965,-37.56194 c -10.9174,22.48735 -13.5963,41.55796 -28.8219,12.9218 -10.8598,24.40244 -18.6458,14.64616 -29.8682,-16.24453 -16.8269,36.36439 -20.8933,40.59171 -30.0366,16.15893 -12.4654,28.93074 -19.434,10.2559 -29.1286,-16.13176 -10.7157,30.4956 -19.8076,42.29414 -29.5312,15.77399 -11.9333,26.13646 -18.7555,16.28404 -30.001,-16.04854 -13.8544,32.08588 -19.1996,41.78846 -29.9153,16.90203 -11.6299,19.74983 -15.3644,20.95631 -28.2909,-11.52322 z" fill="#ffd606" fill-rule="evenodd" stroke-width="2.551"/><path d="m 2160.978,908.9454 c -4.1554,1.24502 -4.4642,-13.72461 0,-12.72083 l 245.8645,0.1665 c 3.5348,-1.24501 3.4713,13.32875 0,12.64664 l -245.8644,-0.0923 z" fill="#ffd606" fill-rule="evenodd" stroke-width="2.888"/><path d="m 2164.0821,909.14012 239.9241,-0.14451 c 5.4957,15.09881 3.1685,22.71646 4.5326,40.11959 -13.5069,24.05879 -8.9474,30.19499 -25.9903,2.86123 -13.2212,19.42602 -10.7792,33.45938 -32.4984,-17.17896 -24.6633,37.85398 -17.9869,47.97804 -33.6277,17.33237 -17.9651,29.31394 -13.895,20.81147 -32.1438,-17.63028 -22.0086,41.49449 -17.2016,45.72882 -33.0885,16.50563 -18.078,29.05723 -11.3218,25.57883 -32.7039,-16.4222 -24.3408,41.57365 -19.4915,45.00014 -33.1601,17.72525 -15.9171,22.94171 -14.0865,24.20451 -26.9394,-2.6516 1.2963,-16.78652 3.6454,-35.72005 5.6954,-40.51652 z" fill="#e9e9ed" fill-rule="evenodd" stroke-width="2.622"/><path d="m 2153.6425,942.18753 -0.1147,43.22221 260.8481,-0.087 -0.3619,-44.41118 c -12.0751,23.50675 -14.6282,43.3581 -31.4683,13.42379 -12.3189,26.43077 -18.6765,17.34055 -33.4453,-16.89715 -18.6114,38.01288 -22.3918,40.58762 -32.9144,16.48163 -13.5823,27.06609 -20.6752,16.04855 -32.115,-16.55569 -13.5937,34.23453 -21.4982,43.18687 -32.8676,16.07925 -14.6332,25.47707 -16.7486,22.55486 -32.7726,-15.54659 -19.2168,35.89691 -22.1577,42.45335 -34.0097,16.43875 -12.8631,20.64515 -16.4814,21.80386 -30.7786,-12.14804 z" fill="#ffd606" fill-rule="evenodd" stroke-width="2.51"/><path d="m 2152.1886,1001.5656 c -4.2564,1.5886 -5.7481,-15.24599 0,-15.93173 l 264.908,0.20853 c 3.8089,-1.55927 3.7404,16.6931 0,15.8389 l -264.9081,-0.1157 z" fill="#ffd606" fill-rule="evenodd" stroke-width="2.817"/><path d="m 2241.5058,810.12372 c 9e-4,2.73381 -2.1292,4.95053 -4.7571,4.95053 -2.628,0 -4.7581,-2.21672 -4.7571,-4.95053 -10e-4,-2.7338 2.1291,-4.95053 4.7571,-4.95053 2.6279,0 4.758,2.21673 4.7571,4.95053 z" fill="#ff0914" stroke-width="2.579" stroke-linecap="round"/><path d="m 2288.0478,810.12372 c 9e-4,2.73381 -2.1292,4.95053 -4.7571,4.95053 -2.628,0 -4.7581,-2.21672 -4.7571,-4.95053 0,-2.7338 2.1291,-4.95053 4.7571,-4.95053 2.6279,0 4.758,2.21673 4.7571,4.95053 z" fill="#ff0914" stroke-width="2.579" stroke-linecap="round"/><path d="m 2335.3059,810.12372 c 9e-4,2.73381 -2.1292,4.95053 -4.7571,4.95053 -2.628,0 -4.7581,-2.21672 -4.7571,-4.95053 0,-2.7338 2.1291,-4.95053 4.7571,-4.95053 2.6279,0 4.758,2.21673 4.7571,4.95053 z" fill="#ff0914" stroke-width="2.579" stroke-linecap="round"/><path d="m 2380.8932,810.60107 c 9e-4,2.73381 -2.1292,4.95053 -4.7571,4.95053 -2.628,0 -4.7581,-2.21672 -4.7571,-4.95053 -10e-4,-2.7338 2.1291,-4.95053 4.7571,-4.95053 2.6279,0 4.758,2.21673 4.7571,4.95053 z" fill="#ff0914" stroke-width="2.579" stroke-linecap="round"/><path d="m 2171.1499,888.20462 c 9e-4,2.73381 -2.1292,4.95053 -4.7571,4.95053 -2.628,0 -4.7581,-2.21672 -4.7571,-4.95053 -10e-4,-2.7338 2.1291,-4.95053 4.7571,-4.95053 2.6279,0 4.758,2.21673 4.7571,4.95053 z" fill="#ff0914" stroke-width="2.579" stroke-linecap="round"/><path d="m 2228.7853,887.29698 c 9e-4,2.73381 -2.1292,4.95053 -4.7571,4.95053 -2.628,0 -4.7581,-2.21672 -4.7571,-4.95053 -10e-4,-2.7338 2.1291,-4.95053 4.7571,-4.95053 2.6279,0 4.758,2.21673 4.7571,4.95053 z" fill="#ff0914" stroke-width="2.579" stroke-linecap="round"/><path d="m 2288.6898,887.29698 c 9e-4,2.73381 -2.1292,4.95053 -4.7571,4.95053 -2.628,0 -4.7581,-2.21672 -4.7571,-4.95053 0,-2.7338 2.1291,-4.95053 4.7571,-4.95053 2.6279,0 4.758,2.21673 4.7571,4.95053 z" fill="#ff0914" stroke-width="2.579" stroke-linecap="round"/><path d="m 2347.2328,885.93551 c 9e-4,2.73381 -2.1292,4.95053 -4.7571,4.95053 -2.628,0 -4.7581,-2.21672 -4.7571,-4.95053 0,-2.7338 2.1291,-4.95053 4.7571,-4.95053 2.6279,0 4.758,2.21673 4.7571,4.95053 z" fill="#ff0914" stroke-width="2.579" stroke-linecap="round"/><path d="m 2406.2297,887.7508 c 9e-4,2.73381 -2.1292,4.95053 -4.7571,4.95053 -2.628,0 -4.7581,-2.21672 -4.7571,-4.95053 -10e-4,-2.7338 2.1291,-4.95053 4.7571,-4.95053 2.6279,0 4.758,2.21673 4.7571,4.95053 z" fill="#ff0914" stroke-width="2.579" stroke-linecap="round"/><path d="m 2157.3512,975.81048 c 9e-4,2.73381 -2.1292,4.95053 -4.7571,4.95053 -2.628,0 -4.7581,-2.21672 -4.7571,-4.95053 0,-2.7338 2.1291,-4.95053 4.7571,-4.95053 2.6279,0 4.758,2.21673 4.7571,4.95053 z" fill="#ff0914" stroke-width="2.579" stroke-linecap="round"/><path d="m 2419.8479,975.16868 c 9e-4,2.73381 -2.1292,4.95053 -4.7571,4.95053 -2.628,0 -4.7581,-2.21672 -4.7571,-4.95053 0,-2.7338 2.1291,-4.95053 4.7571,-4.95053 2.6279,0 4.758,2.21673 4.7571,4.95053 z" fill="#ff0914" stroke-width="2.579" stroke-linecap="round"/><path d="m 2222.8149,975.16868 c 9e-4,2.73381 -2.1292,4.95053 -4.7571,4.95053 -2.628,0 -4.7581,-2.21672 -4.7571,-4.95053 -10e-4,-2.7338 2.1291,-4.95053 4.7571,-4.95053 2.6279,0 4.758,2.21673 4.7571,4.95053 z" fill="#ff0914" stroke-width="2.579" stroke-linecap="round"/><path d="m 2288.2786,975.81048 c 9e-4,2.73381 -2.1292,4.95053 -4.7571,4.95053 -2.628,0 -4.7581,-2.21672 -4.7571,-4.95053 0,-2.7338 2.1291,-4.95053 4.7571,-4.95053 2.6279,0 4.758,2.21673 4.7571,4.95053 z" fill="#ff0914" stroke-width="2.579" stroke-linecap="round"/><path d="m 2354.0632,976.13138 c 9e-4,2.73381 -2.1292,4.95053 -4.7571,4.95053 -2.628,0 -4.7581,-2.21672 -4.7571,-4.95053 0,-2.7338 2.1291,-4.95053 4.7571,-4.95053 2.6279,0 4.758,2.21673 4.7571,4.95053 z" fill="#ff0914" stroke-width="2.579" stroke-linecap="round"/></g><g transform="translate(3.70043,8.526004)"><g fill-rule="evenodd"><path d="m 666.59021,752.55167 c -15.64318,10.19632 -34.02379,15.16963 -44.98416,17.69547 l -0.90625,17.82543 c 21.12939,-3.44403 38.97754,-11.51587 47.58755,-19.34398 z"/><g fill="#ff0914"><path d="m 629.89951,769.64881 c -2.18869,1.09747 -4.9245,1.20723 -7.22264,4.77395 -2.09745,3.53021 -0.52892,8.3773 -2.40748,12.1818 5.14339,-1.02434 8.31689,-5.34101 8.098,-7.40784 -0.12455,-2.97028 0.34374,-6.1387 1.53212,-9.54791 z"/><path d="m 638.83715,767.7452 c -2.18869,1.09748 -4.9245,1.20724 -7.22254,4.77406 -2.09755,3.5301 -0.52901,8.3772 -2.40758,12.1817 5.14339,-1.02424 8.65142,-5.34101 8.43253,-7.40784 -0.12455,-2.97028 0.01,-6.13871 1.19759,-9.54792 z"/><path d="m 648.06731,764.7987 c -2.60676,0.59434 -5.67701,0.95572 -7.64061,4.77406 -2.09745,3.5301 -0.11085,8.3772 -1.98941,12.18169 5.14329,-1.02423 9.15303,-4.83786 8.93414,-6.9047 0.29352,-2.97027 0.67818,-6.47419 0.69588,-10.05105 z"/><path d="m 665.40949,754.63446 c -2.55906,0.77472 -4.0292,1.78632 -5.72167,5.73232 -1.8461,3.66791 -0.14529,9.69815 -0.57729,13.42879 4.68253,-2.9973 6.10185,-5.55745 7.03919,-7.88395 l -0.74045,-11.27714 z"/><path d="m 657.05297,761.35528 c -2.60676,0.59434 -4.73753,1.19128 -6.70113,5.00963 -2.09745,3.5301 -0.71489,8.81462 -2.76122,12.18169 5.14339,-1.02424 9.15313,-4.83786 8.93424,-6.9047 0.29352,-2.97028 0.51041,-6.70976 0.52811,-10.28662 z"/></g></g><path d="m 689.32584,749.31545 c 0.92836,5.41428 1.56205,10.75489 2.1552,16.08537 19.43168,4.83065 24.84614,8.48897 26.13937,15.51968 0.54474,8.63174 0.053,16.58429 -0.81548,24.74496 -3.15251,29.6235 -5.71818,38.03592 -13.48073,55.76676 -11.08402,8.18602 -27.77514,24.04838 -33.12157,32.16574 -11.51361,10.96413 -18.24474,21.80904 -30.15058,34.74927 l 7.95284,4.7972 0.52627,4.09534 7.22188,1.19105 5.4214,6.13916 9.05558,1.21098 3.08837,8.18198 10.2251,0.44072 4.94141,2.96048 c 5.06826,-14.30375 12.5746,-34.54601 15.16793,-42.35497 3.84848,-6.03259 11.79365,-26.04263 16.21086,-47.46334 7.49665,-22.34643 11.61846,-29.82803 16.21908,-61.64724 1.13162,-7.82661 1.92319,-15.80809 1.25639,-24.75871 -4.90638,-14.86864 -15.92374,-24.66871 -48.01332,-31.82443 z"/><g fill="#ff0914" fill-rule="evenodd"><path d="m 718.2433,760.20072 c -2.17999,-1.55176 -6.46223,-4.61986 -10.60902,-3.54124 -4.02184,0.78656 -7.19724,5.56222 -11.94317,7.63919 5.12249,1.55798 6.83899,2.74324 9.5645,1.31308 4.09767,-2.08108 8.19093,-3.35102 12.98769,-5.41103 z"/><path d="m 728.26558,767.59421 c -2.17989,-1.55186 -4.904,-7.41055 -13.44728,-3.82035 -5.80266,2.29338 -5.77365,2.55222 -9.96306,4.18283 7.26937,2.93637 5.58238,4.41358 10.47837,3.76477 5.155,-0.57417 8.13522,-2.06734 12.93197,-4.12725 z"/><path d="m 734.11236,778.74946 c -0.78862,-3.05866 -1.83285,-10.69866 -10.0704,-7.60227 -5.58017,1.67937 -4.77875,0.58651 -8.96805,2.21702 4.04144,2.15503 3.32525,4.63611 6.77426,4.65698 5.155,-0.57417 7.18922,-0.9511 12.26419,0.72827 z"/><path d="m 736.62161,788.61541 c -0.78862,-3.05877 -0.9801,-8.6233 -8.45814,-9.07116 -5.82107,0.14908 -4.60518,-0.77332 -10.52139,-1.43839 2.95721,3.1619 3.86868,9.19647 7.31778,9.21743 5.1549,-0.57427 6.58669,-0.38726 11.66175,1.29212 z"/><path d="m 735.38812,798.63742 c -0.51766,-3.11599 0.87378,-9.04869 -6.98697,-10.06805 -5.81174,-0.36149 -3.66787,-0.005 -9.50317,-1.18564 2.66896,3.4088 2.06588,8.44092 5.63046,8.65407 4.57309,0.44138 4.12457,2.15864 10.85968,2.59962 z"/><path d="m 734.05589,808.56759 c -0.54612,-3.11122 1.67512,-9.20495 -6.19452,-10.1524 -5.8149,-0.30837 -3.34548,-1.52172 -9.11332,-3.12772 1.21756,5.32779 0.68484,8.02415 5.0403,9.43845 2.87546,1.03339 6.37757,3.60566 10.26754,3.84167 z"/><path d="m 731.54964,820.15248 c -0.31714,-3.14284 3.32386,-7.26897 -4.01028,-10.10658 -5.07818,-2.37781 -4.06114,-2.66396 -9.5651,-5.27861 0.82477,5.40267 0.91394,9.07393 5.15429,10.80295 2.79219,1.24091 4.55879,4.06239 8.42109,4.58224 z"/><path d="m 728.93423,832.63639 c -0.0325,-3.15854 3.35458,-7.97364 -3.69386,-11.4609 -4.84314,-2.82596 -3.60861,-3.81291 -8.85435,-6.91301 0.33424,5.45502 -0.10377,9.91302 3.96346,12.01718 2.66894,1.4876 4.78502,5.49089 8.58475,6.35673 z"/><path d="m 726.13683,844.6524 c 0.62944,-2.74579 3.87845,-8.21649 -2.30931,-11.13212 -4.90427,-2.71865 -4.03429,-4.22428 -7.91574,-8.45631 -1.00392,5.12022 -2.70809,5.93524 1.89345,10.95368 2.70105,1.42846 5.15317,6.09739 8.3316,8.63475 z"/><path d="m 722.54609,855.83839 c 0.46937,-2.77774 3.79496,-7.38273 -1.9287,-11.75139 -3.60575,-4.31536 -3.86076,-4.73594 -7.98081,-8.73608 0.76893,5.41089 -1.47551,7.17489 2.00017,11.274 1.81828,2.41842 4.58939,6.86447 7.90934,9.21347 z"/><path d="m 719.03507,864.3087 c 0.25762,-2.80521 4.5936,-5.09877 -1.25305,-10.36477 -4.61829,-4.69454 -5.75183,-6.65735 -6.38142,-9.62921 -1.1059,5.5932 -2.73706,7.63042 1.03922,11.45451 1.99614,2.27373 4.0482,4.59278 6.59525,8.53947 z"/><path d="m 717.56556,868.41265 c 0.015,-2.81698 0.97759,-3.45687 -4.32517,-8.5008 -4.25483,-3.67698 -2.76922,-3.72825 -5.45392,-5.12912 -0.92017,3.71029 -3.22961,4.28617 0.86205,7.77073 2.18459,2.09332 5.26155,4.07668 8.91704,5.85919 z"/><path d="m 706.59158,754.85113 c -2.43825,-1.10237 -7.23167,-3.28733 -11.09272,-1.42948 -1.50571,0.6139 -2.75957,1.81838 -3.99029,3.23259 l 0.88901,7.14971 c 0.88188,-0.131 1.65808,-0.46786 2.49317,-1.13935 3.61959,-2.83204 7.39122,-4.8673 11.70084,-7.81343 z"/><path d="m 694.015,751.48627 c -0.86051,-0.23791 -1.99866,-0.55445 -3.26443,-0.78036 l 0.48692,3.30188 c 0.90269,-0.79735 1.82792,-1.62878 2.77752,-2.52149 z"/></g><path d="m 705.40558,865.23274 c -3.599,-0.59983 -5.91526,1.35455 -7.39795,3.59902 -2.36779,3.58432 14.75207,14.97404 17.19525,9.99724 1.42076,-2.89409 1.2418,-7.18211 -0.19994,-7.19802 -2.23318,-0.0246 -8.29684,-4.37446 -9.59736,-6.39824 z" style="marker:none" overflow="visible" color="#000" fill="#ff0914"/><path d="m 695.78109,871.97458 c -1.09344,-1.7243 -3.44553,-0.89537 -5.25908,2.48308 -3.40764,6.34807 18.11695,21.23245 22.15155,13.97034 2.11669,-3.80996 1.76503,-5.59074 -0.16309,-5.74873 -4.05103,-0.33193 -15.20509,-7.60464 -16.72938,-10.70469 z" style="marker:none" overflow="visible" color="#000" fill="#ff0914"/><path d="m 689.06481,878.40906 c -0.46098,-2.30115 -4.67889,0.43042 -6.39389,4.22624 -3.78,8.36627 22.01248,25.43807 26.75028,16.76956 2.09029,-3.82451 2.54089,-7.48148 0.20165,-7.07185 -5.84914,1.02425 -20.61133,-7.85922 -20.55804,-13.92395 z" style="marker:none" overflow="visible" color="#000" fill="#ff0914"/><path d="m 680.66476,886.6908 c -0.46098,-2.30115 -2.16238,-0.90782 -4.2643,2.6882 -5.50098,9.41128 21.53095,26.28115 27.93339,19.3724 2.96253,-3.19681 2.5892,-6.52533 0.55658,-5.29719 -5.23374,3.16229 -23.63254,-8.42074 -24.22567,-16.76341 z" style="marker:none" overflow="visible" color="#000" fill="#ff0914"/><path d="m 673.18607,895.79592 c -0.74712,4.99648 20.26262,18.99677 28.0609,17.47685 2.4928,-0.73354 -11.64531,39.16434 -13.04493,40.16407 -1.39961,0.99972 -4.92171,0.6164 -2.92226,-2.78266 1.99944,-3.39907 11.17679,-28.307 11.17679,-28.307 0,0 -14.27772,29.40019 -15.0775,29.60013 -0.79978,0.19995 -4.42363,1.31324 -3.62385,-0.48626 0.79978,-1.79951 14.52262,-31.43157 14.52262,-31.43157 0,0 -16.64866,29.1257 -17.64839,29.72553 -0.99972,0.59984 -1.23752,-1.17127 -1.43747,-2.17099 1.47955,-4.49353 11.53638,-24.71009 14.53564,-30.40701 -2.6122,2.24478 -16.57201,26.83118 -17.66141,26.93459 -1.39334,0.13225 -4.53365,-0.0248 -3.93382,-1.62441 0.59983,-1.59956 15.65367,-28.46079 15.65367,-28.46079 0,0 -18.55465,27.8444 -19.35443,27.64445 -1.07752,0.17429 -3.42771,-0.41489 -2.35398,-2.64086 0.50941,-1.05606 17.49842,-27.6136 16.75849,-27.90957 0,0 -17.26087,24.62863 -18.78403,25.4851 -0.72654,0.40853 -4.66777,0.53595 -3.94004,-1.27032 0.31109,-0.77216 17.27704,-26.37061 17.27704,-26.37061 0,0 -15.65673,20.46188 -19.47114,25.08988 -1.87753,2.27798 -1.95696,-3.00988 -1.65723,-4.65001 0.11567,-0.63293 16.52177,-22.16035 16.04959,-22.88585 -0.38721,-0.59494 -18.7226,22.96622 -19.79298,23.28509 -0.97298,0.28986 -2.45517,-1.67513 -2.43333,-1.72318 0.99972,-2.1994 27.15111,-35.89899 29.10205,-32.2846 z" style="marker:none" overflow="visible" color="#000" fill="#ff0914"/></g><g transform="matrix(-1,0,0,1,820.29133,8.5264655)"><g fill-rule="evenodd"><path d="m 666.59021,752.55167 c -15.64318,10.19632 -34.02379,15.16963 -44.98416,17.69547 l -0.90625,17.82543 c 21.12939,-3.44403 38.97754,-11.51587 47.58755,-19.34398 z"/><g fill="#ff0914"><path d="m 629.89951,769.64881 c -2.18869,1.09747 -4.9245,1.20723 -7.22264,4.77395 -2.09745,3.53021 -0.52892,8.3773 -2.40748,12.1818 5.14339,-1.02434 8.31689,-5.34101 8.098,-7.40784 -0.12455,-2.97028 0.34374,-6.1387 1.53212,-9.54791 z"/><path d="m 638.83715,767.7452 c -2.18869,1.09748 -4.9245,1.20724 -7.22254,4.77406 -2.09755,3.5301 -0.52901,8.3772 -2.40758,12.1817 5.14339,-1.02424 8.65142,-5.34101 8.43253,-7.40784 -0.12455,-2.97028 0.01,-6.13871 1.19759,-9.54792 z"/><path d="m 648.06731,764.7987 c -2.60676,0.59434 -5.67701,0.95572 -7.64061,4.77406 -2.09745,3.5301 -0.11085,8.3772 -1.98941,12.18169 5.14329,-1.02423 9.15303,-4.83786 8.93414,-6.9047 0.29352,-2.97027 0.67818,-6.47419 0.69588,-10.05105 z"/><path d="m 665.40949,754.63446 c -2.55906,0.77472 -4.0292,1.78632 -5.72167,5.73232 -1.8461,3.66791 -0.14529,9.69815 -0.57729,13.42879 4.68253,-2.9973 6.10185,-5.55745 7.03919,-7.88395 l -0.74045,-11.27714 z"/><path d="m 657.05297,761.35528 c -2.60676,0.59434 -4.73753,1.19128 -6.70113,5.00963 -2.09745,3.5301 -0.71489,8.81462 -2.76122,12.18169 5.14339,-1.02424 9.15313,-4.83786 8.93424,-6.9047 0.29352,-2.97028 0.51041,-6.70976 0.52811,-10.28662 z"/></g></g><path d="m 689.32584,749.31545 c 0.92836,5.41428 1.56205,10.75489 2.1552,16.08537 19.43168,4.83065 24.84614,8.48897 26.13937,15.51968 0.54474,8.63174 0.053,16.58429 -0.81548,24.74496 -3.15251,29.6235 -5.71818,38.03592 -13.48073,55.76676 -11.08402,8.18602 -27.77514,24.04838 -33.12157,32.16574 -11.51361,10.96413 -18.24474,21.80904 -30.15058,34.74927 l 7.95284,4.7972 0.52627,4.09534 7.22188,1.19105 5.4214,6.13916 9.05558,1.21098 3.08837,8.18198 10.2251,0.44072 4.94141,2.96048 c 5.06826,-14.30375 12.5746,-34.54601 15.16793,-42.35497 3.84848,-6.03259 11.79365,-26.04263 16.21086,-47.46334 7.49665,-22.34643 11.61846,-29.82803 16.21908,-61.64724 1.13162,-7.82661 1.92319,-15.80809 1.25639,-24.75871 -4.90638,-14.86864 -15.92374,-24.66871 -48.01332,-31.82443 z"/><g fill="#ff0914" fill-rule="evenodd"><path d="m 718.2433,760.20072 c -2.17999,-1.55176 -6.46223,-4.61986 -10.60902,-3.54124 -4.02184,0.78656 -7.19724,5.56222 -11.94317,7.63919 5.12249,1.55798 6.83899,2.74324 9.5645,1.31308 4.09767,-2.08108 8.19093,-3.35102 12.98769,-5.41103 z"/><path d="m 728.26558,767.59421 c -2.17989,-1.55186 -4.904,-7.41055 -13.44728,-3.82035 -5.80266,2.29338 -5.77365,2.55222 -9.96306,4.18283 7.26937,2.93637 5.58238,4.41358 10.47837,3.76477 5.155,-0.57417 8.13522,-2.06734 12.93197,-4.12725 z"/><path d="m 734.11236,778.74946 c -0.78862,-3.05866 -1.83285,-10.69866 -10.0704,-7.60227 -5.58017,1.67937 -4.77875,0.58651 -8.96805,2.21702 4.04144,2.15503 3.32525,4.63611 6.77426,4.65698 5.155,-0.57417 7.18922,-0.9511 12.26419,0.72827 z"/><path d="m 736.62161,788.61541 c -0.78862,-3.05877 -0.9801,-8.6233 -8.45814,-9.07116 -5.82107,0.14908 -4.60518,-0.77332 -10.52139,-1.43839 2.95721,3.1619 3.86868,9.19647 7.31778,9.21743 5.1549,-0.57427 6.58669,-0.38726 11.66175,1.29212 z"/><path d="m 735.38812,798.63742 c -0.51766,-3.11599 0.87378,-9.04869 -6.98697,-10.06805 -5.81174,-0.36149 -3.66787,-0.005 -9.50317,-1.18564 2.66896,3.4088 2.06588,8.44092 5.63046,8.65407 4.57309,0.44138 4.12457,2.15864 10.85968,2.59962 z"/><path d="m 734.05589,808.56759 c -0.54612,-3.11122 1.67512,-9.20495 -6.19452,-10.1524 -5.8149,-0.30837 -3.34548,-1.52172 -9.11332,-3.12772 1.21756,5.32779 0.68484,8.02415 5.0403,9.43845 2.87546,1.03339 6.37757,3.60566 10.26754,3.84167 z"/><path d="m 731.54964,820.15248 c -0.31714,-3.14284 3.32386,-7.26897 -4.01028,-10.10658 -5.07818,-2.37781 -4.06114,-2.66396 -9.5651,-5.27861 0.82477,5.40267 0.91394,9.07393 5.15429,10.80295 2.79219,1.24091 4.55879,4.06239 8.42109,4.58224 z"/><path d="m 728.93423,832.63639 c -0.0325,-3.15854 3.35458,-7.97364 -3.69386,-11.4609 -4.84314,-2.82596 -3.60861,-3.81291 -8.85435,-6.91301 0.33424,5.45502 -0.10377,9.91302 3.96346,12.01718 2.66894,1.4876 4.78502,5.49089 8.58475,6.35673 z"/><path d="m 726.13683,844.6524 c 0.62944,-2.74579 3.87845,-8.21649 -2.30931,-11.13212 -4.90427,-2.71865 -4.03429,-4.22428 -7.91574,-8.45631 -1.00392,5.12022 -2.70809,5.93524 1.89345,10.95368 2.70105,1.42846 5.15317,6.09739 8.3316,8.63475 z"/><path d="m 722.54609,855.83839 c 0.46937,-2.77774 3.79496,-7.38273 -1.9287,-11.75139 -3.60575,-4.31536 -3.86076,-4.73594 -7.98081,-8.73608 0.76893,5.41089 -1.47551,7.17489 2.00017,11.274 1.81828,2.41842 4.58939,6.86447 7.90934,9.21347 z"/><path d="m 719.03507,864.3087 c 0.25762,-2.80521 4.5936,-5.09877 -1.25305,-10.36477 -4.61829,-4.69454 -5.75183,-6.65735 -6.38142,-9.62921 -1.1059,5.5932 -2.73706,7.63042 1.03922,11.45451 1.99614,2.27373 4.0482,4.59278 6.59525,8.53947 z"/><path d="m 717.56556,868.41265 c 0.015,-2.81698 0.97759,-3.45687 -4.32517,-8.5008 -4.25483,-3.67698 -2.76922,-3.72825 -5.45392,-5.12912 -0.92017,3.71029 -3.22961,4.28617 0.86205,7.77073 2.18459,2.09332 5.26155,4.07668 8.91704,5.85919 z"/><path d="m 706.59158,754.85113 c -2.43825,-1.10237 -7.23167,-3.28733 -11.09272,-1.42948 -1.50571,0.6139 -2.75957,1.81838 -3.99029,3.23259 l 0.88901,7.14971 c 0.88188,-0.131 1.65808,-0.46786 2.49317,-1.13935 3.61959,-2.83204 7.39122,-4.8673 11.70084,-7.81343 z"/><path d="m 694.015,751.48627 c -0.86051,-0.23791 -1.99866,-0.55445 -3.26443,-0.78036 l 0.48692,3.30188 c 0.90269,-0.79735 1.82792,-1.62878 2.77752,-2.52149 z"/></g><path d="m 705.40558,865.23274 c -3.599,-0.59983 -5.91526,1.35455 -7.39795,3.59902 -2.36779,3.58432 14.75207,14.97404 17.19525,9.99724 1.42076,-2.89409 1.2418,-7.18211 -0.19994,-7.19802 -2.23318,-0.0246 -8.29684,-4.37446 -9.59736,-6.39824 z" style="marker:none" overflow="visible" color="#000" fill="#ff0914"/><path d="m 695.78109,871.97458 c -1.09344,-1.7243 -3.44553,-0.89537 -5.25908,2.48308 -3.40764,6.34807 18.11695,21.23245 22.15155,13.97034 2.11669,-3.80996 1.76503,-5.59074 -0.16309,-5.74873 -4.05103,-0.33193 -15.20509,-7.60464 -16.72938,-10.70469 z" style="marker:none" overflow="visible" color="#000" fill="#ff0914"/><path d="m 689.06481,878.40906 c -0.46098,-2.30115 -4.67889,0.43042 -6.39389,4.22624 -3.78,8.36627 22.01248,25.43807 26.75028,16.76956 2.09029,-3.82451 2.54089,-7.48148 0.20165,-7.07185 -5.84914,1.02425 -20.61133,-7.85922 -20.55804,-13.92395 z" style="marker:none" overflow="visible" color="#000" fill="#ff0914"/><path d="m 680.66476,886.6908 c -0.46098,-2.30115 -2.16238,-0.90782 -4.2643,2.6882 -5.50098,9.41128 21.53095,26.28115 27.93339,19.3724 2.96253,-3.19681 2.5892,-6.52533 0.55658,-5.29719 -5.23374,3.16229 -23.63254,-8.42074 -24.22567,-16.76341 z" style="marker:none" overflow="visible" color="#000" fill="#ff0914"/><path d="m 673.18607,895.79592 c -0.74712,4.99648 20.26262,18.99677 28.0609,17.47685 2.4928,-0.73354 -11.64531,39.16434 -13.04493,40.16407 -1.39961,0.99972 -4.92171,0.6164 -2.92226,-2.78266 1.99944,-3.39907 11.17679,-28.307 11.17679,-28.307 0,0 -14.27772,29.40019 -15.0775,29.60013 -0.79978,0.19995 -4.42363,1.31324 -3.62385,-0.48626 0.79978,-1.79951 14.52262,-31.43157 14.52262,-31.43157 0,0 -16.64866,29.1257 -17.64839,29.72553 -0.99972,0.59984 -1.23752,-1.17127 -1.43747,-2.17099 1.47955,-4.49353 11.53638,-24.71009 14.53564,-30.40701 -2.6122,2.24478 -16.57201,26.83118 -17.66141,26.93459 -1.39334,0.13225 -4.53365,-0.0248 -3.93382,-1.62441 0.59983,-1.59956 15.65367,-28.46079 15.65367,-28.46079 0,0 -18.55465,27.8444 -19.35443,27.64445 -1.07752,0.17429 -3.42771,-0.41489 -2.35398,-2.64086 0.50941,-1.05606 17.49842,-27.6136 16.75849,-27.90957 0,0 -17.26087,24.62863 -18.78403,25.4851 -0.72654,0.40853 -4.66777,0.53595 -3.94004,-1.27032 0.31109,-0.77216 17.27704,-26.37061 17.27704,-26.37061 0,0 -15.65673,20.46188 -19.47114,25.08988 -1.87753,2.27798 -1.95696,-3.00988 -1.65723,-4.65001 0.11567,-0.63293 16.52177,-22.16035 16.04959,-22.88585 -0.38721,-0.59494 -18.7226,22.96622 -19.79298,23.28509 -0.97298,0.28986 -2.45517,-1.67513 -2.43333,-1.72318 0.99972,-2.1994 27.15111,-35.89899 29.10205,-32.2846 z" style="marker:none" overflow="visible" color="#000" fill="#ff0914"/></g><g transform="matrix(1.0004075,0,0,1.0032693,-1880.2312,-677.71146)" stroke="#000" stroke-linecap="round" stroke-linejoin="round"><path d="m 2051.4994,1105.6898 c 19.6316,92.0557 24.5668,185.4397 24.5668,272.7683 0,132.0311 6.5899,236.6051 124.1282,264.3903 33.8567,8.0035 65.3258,12.0585 91.0516,25.4018 25.7259,-13.3433 57.195,-17.3983 91.0517,-25.4018 117.5383,-27.7852 124.1282,-132.3592 124.1282,-264.3903 0,-87.3286 4.9352,-180.7126 24.5668,-272.7683 0,0 -159.614,11.9353 -239.7467,11.9683 -80.1326,-0.033 -239.7466,-11.9683 -239.7466,-11.9683 z" fill="#0070f4" stroke-width="3.998"/><path d="m 2291.1478,1117.6624 v 157.9666 h 217.8774 c -1.5243,28.4936 -2.5172,62.5002 -2.5736,89.8937 h -215.3038 v 302.7245 c -26.6538,-13.3806 -52.769,-16.4905 -90.1516,-25.1519 v -277.5726 h -124.968 c -0.1105,-27.3685 -0.9766,-62.2437 -2.5624,-89.8937 h 127.5304 v -160.7316 c 31.6121,1.4094 61.4193,2.765 90.1516,2.765 z" fill="#ffd606" fill-rule="evenodd" stroke-width="3.998"/><path style="marker:none" d="m 2551.6134,1242.5763 -4.4324,-12.7074 12.7449,-4.4194 4.4323,12.7074 12.7449,-4.4194 4.4324,12.7076 -12.7449,4.4193 4.4324,12.7075 -12.7449,4.4193 -4.4325,-12.7075 -12.7447,4.4195 -4.4324,-12.7076 z" color="#000" overflow="visible" fill="#ffd606" stroke-width="2.601" stroke-linejoin="miter" stroke-miterlimit="8"/><path style="marker:none" d="m 2030.9736,1242.5765 4.4324,-12.7074 -12.7448,-4.4194 -4.4324,12.7074 -12.7449,-4.4194 -4.4323,12.7076 12.7448,4.4193 -4.4324,12.7075 12.745,4.4193 4.4325,-12.7075 12.7446,4.4195 4.4324,-12.7076 z" color="#000" overflow="visible" fill="#ffd606" stroke-width="2.601" stroke-linejoin="miter" stroke-miterlimit="8"/></g><path d="M 403.42302,3.8063939 V 16.650144 h -12.8125 v 12.5 h 12.8125 v 16.79726 h 12.53125 v -16.79726 h 12.8125 v -12.5 h -12.8125 V 3.8063939 Z" style="marker:none" overflow="visible" color="#000" fill="#ffd606" stroke="#000" stroke-width="2.5" stroke-linecap="round" stroke-linejoin="round"/></g><path d="m 437.0025,721.17191 v 226.82406 l 19.5129,-4.5 V 754.36673 l 36.92779,50.82121 12.05932,16.59642 48.9871,-67.41763 v 146.62924 l 19.51289,-4.5 V 721.17191 h -19.51289 l -48.98615,67.41862 -48.98806,-67.41862 z" fill="#ffd606" fill-rule="evenodd" stroke="#000" stroke-width="4.005" stroke-linecap="round" stroke-linejoin="round"/></svg>