<svg xmlns="http://www.w3.org/2000/svg" version="1.0" width="1200" height="1000" viewBox="0 0 135.2 162.2" xml:space="preserve" style="fill-rule:evenodd">
  <path d="M56.278119 37.257822c-4.5234 2.206745-9.0468 2.182527-13.5702-.321188 3.05728.367399 8.13505.439703 11.40218-2.649802 1.19809-8.231475 9.39424-13.631006 15.49732-5.299604 1.83163-2.863497 3.31454-2.830986 5.781393-2.7301-5.517533 2.904136-.140335 7.450237 2.961248 5.60131.776354.806303.849168 1.612607-.039064 2.41891 1.42981 1.139873 1.066599 3.081398-.908458 3.860943-1.769384.394816-2.613148-.367393-3.179599-1.476243 1.256245.149324 1.578163-.815758 1.476242-1.873693-2.101612-.258974-2.661512 1.601904-3.633832 2.895707.02026-1.268055.08007-2.536109-1.81691-3.804164-1.05904-.376858-1.85108-.219731-2.61182 0-.57892-.908457-.03095-1.816915.73813-2.725372-.8697.115372-1.88334-.057145-2.32793.908457 1.81999-5.611978-3.14205-5.637149-4.37195-5.16685-4.15827 1.294241-3.24837 4.434422-1.47624 4.712622 1.59187.086641 2.38164-.807056 2.61182-2.3847 2.58213 1.121127 1.86607 3.25293 1.19235 3.9745 1.18016.5062 2.12989.205878 3.00926-.340672-.03628.462057.22804 1.790443-1.07879 1.987251 7.79918 4.653803 3.7328 10.548435 2.32792 13.626857-.00228-2.264714 1.89515-7.047157-2.3847-10.390479-1.412.692988-2.50389.532336-3.00927-1.19235-.20842 1.022014.44509 2.044029-1.41946 3.066043-.1164-1.457153-1.09517-1.510767-2.10081-1.930471-.43374.832752-.77897 1.268055-.17033 2.100807-1.23542-.720307-2.80422-1.148908-2.8985-2.867719z" style="fill:#eac102;fill-opacity:1;fill-rule:evenodd;stroke:#000;stroke-width:.1622;stroke-linecap:butt;stroke-linejoin:miter;stroke-miterlimit:4;stroke-dasharray:none;stroke-opacity:1" transform="translate(-16.13766 16.796345)"/>
  <path d="M58.60166 34.206535c.750706.603441 4.021565.334697 5.465271-1.023788M65.932827 34.839588c-1.565264.335195-2.610667.296252-3.658854-.021798M66.03219 38.14596c-.626795-.555184-2.517017-1.921991-3.295092-2.250254M59.389629 38.020644c-.973001-.250344-1.993587-.558679-2.388837-1.124159" style="fill:none;fill-rule:evenodd;stroke:#000;stroke-width:.1622;stroke-linecap:butt;stroke-linejoin:miter;stroke-miterlimit:4;stroke-dasharray:none;stroke-opacity:1" transform="translate(-16.13766 16.796345)"/>
  <path d="M56.217896 37.248786c2.449942-.874286 2.738221-4.176409 2.605647-5.206437M58.867698 30.472723c.46022 2.042666 3.206599 2.19294 3.874332 1.46542M54.110099 34.126237c-.0737 1.440357-2.3559 4.146788-7.827779 3.593884M61.46639 39.898951c1.516701-1.797988-1.554297-2.613428-2.329363-5.481294M62.857466 36.969882c-.06387-.466911-.227962-1.938926-1.018489-2.67646" style="fill:none;fill-rule:evenodd;stroke:#000;stroke-width:.1622;stroke-linecap:butt;stroke-linejoin:miter;stroke-miterlimit:4;stroke-dasharray:none;stroke-opacity:1" transform="translate(-16.13766 16.796345)"/>
  <path d="M55.047817 35.397592c1.170103-9.19468 8.929267-13.19376 13.739839-6.054844M75.727053 34.798606c1.347576.041312 2.077153-.180731 2.658836-.588404M70.126708 33.825661c2.557137.367151 2.200503 1.17669 3.43496 1.193503M68.321899 31.176667c1.03058-.840792 1.690474-.926062 2.125017-1.193503M75.257158 26.264873c-8.580525 2.467946-.678554 10.271546 3.087563 5.681117" style="fill:none;fill-rule:evenodd;stroke:#000;stroke-width:.1622;stroke-linecap:butt;stroke-linejoin:miter;stroke-miterlimit:4;stroke-dasharray:none;stroke-opacity:1" transform="translate(-16.13766 16.796345)"/>
  <path d="M74.260304 36.678424c2.573793 1.088907 3.253588-.142682 3.027422-1.979468" style="fill:none;fill-rule:evenodd;stroke:#000;stroke-width:.1622;stroke-linecap:butt;stroke-linejoin:miter;stroke-miterlimit:4;stroke-dasharray:none;stroke-opacity:1" transform="translate(-16.13766 16.796345)"/>
  <path style="fill:#eac102;fill-opacity:1;fill-rule:evenodd;stroke:#000;stroke-width:.1622;stroke-linecap:butt;stroke-linejoin:miter;stroke-miterlimit:4;stroke-dasharray:none;stroke-opacity:1" d="M56.278119 37.257822c-4.5234 2.206745-9.0468 2.182527-13.5702-.321188 3.05728.367399 8.13505.439703 11.40218-2.649802 1.19809-8.231475 9.39424-13.631006 15.49732-5.299604 1.83163-2.863497 3.31454-2.830986 5.781393-2.7301-5.517533 2.904136-.140335 7.450237 2.961248 5.60131.776354.806303.849168 1.612607-.039064 2.41891 1.42981 1.139873 1.066599 3.081398-.908458 3.860943-1.769384.394816-2.613148-.367393-3.179599-1.476243 1.256245.149324 1.578163-.815758 1.476242-1.873693-2.101612-.258974-2.661512 1.601904-3.633832 2.895707.02026-1.268055.08007-2.536109-1.81691-3.804164-1.05904-.376858-1.85108-.219731-2.61182 0-.57892-.908457-.03095-1.816915.73813-2.725372-.8697.115372-1.88334-.057145-2.32793.908457 1.81999-5.611978-3.14205-5.637149-4.37195-5.16685-4.15827 1.294241-3.24837 4.434422-1.47624 4.712622 1.59187.086641 2.38164-.807056 2.61182-2.3847 2.58213 1.121127 1.86607 3.25293 1.19235 3.9745 1.18016.5062 2.12989.205878 3.00926-.340672-.03628.462057.22804 1.790443-1.07879 1.987251 7.79918 4.653803 3.7328 10.548435 2.32792 13.626857-.00228-2.264714 1.89515-7.047157-2.3847-10.390479-1.412.692988-2.50389.532336-3.00927-1.19235-.20842 1.022014.44509 2.044029-1.41946 3.066043-.1164-1.457153-1.09517-1.510767-2.10081-1.930471-.43374.832752-.77897 1.268055-.17033 2.100807-1.23542-.720307-2.80422-1.148908-2.8985-2.867719z" transform="matrix(-1 0 0 1 151.48863 16.796345)"/>
  <path style="fill:none;fill-rule:evenodd;stroke:#000;stroke-width:.1622;stroke-linecap:butt;stroke-linejoin:miter;stroke-miterlimit:4;stroke-dasharray:none;stroke-opacity:1" d="M58.60166 34.206535c.750706.603441 4.021565.334697 5.465271-1.023788M65.932827 34.839588c-1.565264.335195-2.610667.296252-3.658854-.021798M66.03219 38.14596c-.626795-.555184-2.517017-1.921991-3.295092-2.250254M59.389629 38.020644c-.973001-.250344-1.993587-.558679-2.388837-1.124159" transform="matrix(-1 0 0 1 151.48863 16.796345)"/>
  <path style="fill:none;fill-rule:evenodd;stroke:#000;stroke-width:.1622;stroke-linecap:butt;stroke-linejoin:miter;stroke-miterlimit:4;stroke-dasharray:none;stroke-opacity:1" d="M56.217896 37.248786c2.449942-.874286 2.738221-4.176409 2.605647-5.206437M58.867698 30.472723c.46022 2.042666 3.206599 2.19294 3.874332 1.46542M54.110099 34.126237c-.0737 1.440357-2.3559 4.146788-7.827779 3.593884M61.46639 39.898951c1.516701-1.797988-1.554297-2.613428-2.329363-5.481294M62.857466 36.969882c-.06387-.466911-.227962-1.938926-1.018489-2.67646" transform="matrix(-1 0 0 1 151.48863 16.796345)"/>
  <path style="fill:none;fill-rule:evenodd;stroke:#000;stroke-width:.1622;stroke-linecap:butt;stroke-linejoin:miter;stroke-miterlimit:4;stroke-dasharray:none;stroke-opacity:1" d="M55.047817 35.397592c1.170103-9.19468 8.929267-13.19376 13.739839-6.054844M75.727053 34.798606c1.347576.041312 2.077153-.180731 2.658836-.588404M70.126708 33.825661c2.557137.367151 2.200503 1.17669 3.43496 1.193503M68.321899 31.176667c1.03058-.840792 1.690474-.926062 2.125017-1.193503M75.257158 26.264873c-8.580525 2.467946-.678554 10.271546 3.087563 5.681117" transform="matrix(-1 0 0 1 151.48863 16.796345)"/>
  <path style="fill:none;fill-rule:evenodd;stroke:#000;stroke-width:.1622;stroke-linecap:butt;stroke-linejoin:miter;stroke-miterlimit:4;stroke-dasharray:none;stroke-opacity:1" d="M74.260304 36.678424c2.573793 1.088907 3.253588-.142682 3.027422-1.979468" transform="matrix(-1 0 0 1 151.48863 16.796345)"/>
  <path style="fill:#eac102;fill-opacity:1;fill-rule:evenodd;stroke:#000;stroke-width:.45657325;stroke-miterlimit:4;stroke-dasharray:none" d="M105.11614 61.234941H76.423939l-3.93296-3.860012h-9.695856l-4.172197 3.860012H30.090865v76.977039c.302043 2.00472.998863 3.18236 2.50853 4.62307 1.454155 1.38766 2.594004 1.90344 4.628713 2.25741h23.731368c1.946578.10251 5.263797 3.24591 6.758125 5.87672 1.517193-3.15764 4.744563-5.55391 7.29689-5.87666l22.918287-.00006c2.114342-.22547 3.432832-.80688 4.902912-2.25741 1.42864-1.41057 2.04039-2.57826 2.28017-4.51567l.00005-14.18999.00023-62.894281v-.000168z"/>
  <path style="fill:#ea1c24;fill-opacity:1;stroke:#000;stroke-width:.15212072;stroke-miterlimit:4;stroke-dasharray:none" d="m74.952584 64.223507-3.34822-3.900807h-8.105377l-3.568979 3.900807H32.900283v49.794063l69.084307-.36015.14549-49.433756-27.177496-.000157z"/>
  <g style="stroke:#000;stroke-width:1.15061951;stroke-miterlimit:4;stroke-dasharray:none;stroke-opacity:1">
    <g style="stroke:#000;stroke-width:.78787398;stroke-miterlimit:4;stroke-dasharray:none;stroke-opacity:1;display:inline">
      <path transform="matrix(.2467 .0026 -.00247 .2333 126.08336157 134.95379103)" d="m-226.47462 17.432939-11.3805-64.534914-10.25394 64.723469 2.28576-65.49081-23.48663 61.177192 15.85211-63.584443-35.69285 54.9571773 28.72566-58.8991303-46.33912 46.3352708 40.34375-51.6396428-54.96013 35.68829 50.19862-42.123255-61.17914 23.48156 57.85959-30.76588-64.72432 10.248573 62.9918-18.063887-65.44074-3.432325 65.37097-4.572417-63.29707-16.963217 64.89311 9.118893-58.38703-29.752733 61.57912 22.41166-50.9252-41.24191 55.57383 34.72493-41.23768-50.92862 47.13968 45.52056-29.74789-58.3895 36.64532 54.32671-16.95797-63.29848 24.54937 60.75853-3.4269-65.44102 11.3805 64.53491 10.25394-64.72347-2.28576 65.49081 23.48664-61.17719-15.85212 63.58444 35.69285-54.95717-28.72565 58.89913 46.33911-46.33527-40.34375 51.63964 54.96014-35.68829-50.19863 42.12325 61.17914-23.48156-57.85958 30.765884 64.72432-10.248574-62.9918 18.063888 65.44073 3.432325-65.37097 4.572417 63.29708 16.963215-64.89312-9.118891 58.38704 29.75273-61.57913-22.411658 50.9252 41.241908-55.57382-34.724929L-168.273-9.0902675l-47.13969-45.5205545L-185.6648 3.77868l-36.64531-54.326713 16.95796 63.298485-24.54937-60.758533 3.4269 65.44102z" style="fill:#eac102;fill-opacity:1;stroke:#000;stroke-width:.38060254;stroke-miterlimit:4;stroke-dasharray:none;stroke-opacity:1"/>
      <path transform="matrix(.07756 .00082 -.00078 .07335 73.13357242 109.84974657)" d="M45.555229 62.988186a117.14204 117.14204 0 1 1-234.284069 0 117.14204 117.14204 0 1 1 234.284069 0z" style="fill:#eac102;fill-opacity:1;stroke:#000;stroke-width:1.21059787;stroke-miterlimit:4;stroke-dasharray:none;stroke-opacity:1"/>
    </g>
  </g>
  <path d="m33.108006 112.77108-.208241 23.412c.207765 3.7162 2.573935 6.18653 6.54639 6.37911l21.975022-.08522c1.781527-.1313 4.816183 1.39131 6.19866 3.66692 1.726866-2.74075 4.472117-3.42214 6.692816-3.66686l21.02101.27442c4.461732-.0874 6.863127-2.63135 6.588437-6.27951l.00025-23.7007-68.814344-.00016z" style="fill:#005e9d;fill-opacity:1;stroke:#000;stroke-width:.15219109;stroke-miterlimit:4;stroke-dasharray:none"/>
  <path style="fill:#008f4c;fill-opacity:1;fill-rule:evenodd;stroke:#000;stroke-width:.15219109;stroke-linecap:butt;stroke-linejoin:miter;stroke-miterlimit:4;stroke-dasharray:none;stroke-opacity:1" d="m32.906442 134.44131-.024543-21.73472 31.037044.05782c-.42015.51326-2.389049 1.25739-.10416 1.77066 6.773113 2.24018-3.51223 2.77084-5.307143 2.87075-3.732546-.021-15.207699 1.78697-5.47693 4.75783 3.698156.87581 1.912668 1.41056 6.359054 2.20178 10.455309 1.19153 9.022249 5.24454-5.073987 4.30088-4.645328.39336-4.857374.78672-4.265143 1.18007 4.768682 3.26426.696301 3.42318-1.370011 3.70512l-15.774181.88981z"/>
  <path style="fill:#008f4c;fill-opacity:1;fill-rule:evenodd;stroke:#000;stroke-width:.15219109;stroke-linecap:butt;stroke-linejoin:miter;stroke-miterlimit:4;stroke-dasharray:none;stroke-opacity:1" d="M101.94764 133.42731v-20.68076l-35.415803-.0195c-2.4479.48521-.74398 1.52176 2.467953 2.59221 1.821623.73599 12.04616.56239 1.74857 2.6173-2.345674.62374-15.848341.56858-11.997878 2.53942 5.367287 3.09718 10.420745.40791 15.161342 2.87095 2.556337.71105 9.06989.09826 10.532311 2.54761 2.956232.25078-1.485447 2.3377-3.983939 2.31638l-5.781293 1.15938c-3.847777 1.45025-.747413 2.09292 3.753989 2.57273l17.037328.09895c3.930465-.11484 2.832338 1.58898 6.47742 1.38533z"/>
  <use class="Rand16" href="#ring-1" style="fill-rule:evenodd;stroke:#202020;stroke-width:240;stroke-linecap:butt;stroke-linejoin:miter;stroke-miterlimit:10" width="438" height="480" transform="matrix(.06667 0 0 .06667 536.63785 -115.79032)"/>
  <use class="Silber12" href="#ring-1" style="fill-rule:evenodd;stroke:#fff;stroke-width:180;stroke-linecap:butt;stroke-linejoin:miter;stroke-miterlimit:10" width="438" height="480" transform="matrix(.06667 0 0 .06667 536.63785 -115.79032)"/>
  <path style="fill:#a5884d;fill-opacity:1;fill-rule:evenodd;stroke:#000;stroke-width:2.00001001;stroke-linecap:butt;stroke-linejoin:miter;stroke-miterlimit:10;stroke-opacity:1" d="M513.53847 225.97293c-8.00004-14.00007-16.00008-28.00014-22.00011-39.0002-6.00003-11.00005-10.00005-19.00009-12.00006-28.00014-2.00001-9.00004-2.00001-19.00009-2.00001-31.00015V36.971976h168.00084v91.000464c0 12.00006 0 22.00011-2.00001 31.00015-2.00001 9.00005-6.00003 17.00009-12.00006 28.00014-6.00003 11.00006-14.00007 25.00013-22.00011 39.0002" class="Schwarz Rand2" transform="matrix(.0495 0 0 .04958 39.717554 76.523938)"/>
  <path style="fill:#fff;fill-rule:evenodd;stroke:#202020;stroke-width:2.00001001;stroke-linecap:butt;stroke-linejoin:miter;stroke-miterlimit:10" d="M652.26716 87.244236c-4.68634-4.68635-14.18392-2.78683-21.21344 4.24268-7.02951 7.02952-8.92903 16.527104-4.24268 21.213444 4.68634 4.68635 14.18392 2.78683 21.21344-4.24268 7.02951-7.02952 8.92903-16.527104 4.24268-21.213444zM470.81026 87.244236c4.68634-4.68635 14.18392-2.78683 21.21344 4.24268 7.02951 7.02952 8.92903 16.527104 4.24268 21.213444-4.68634 4.68635-14.18392 2.78683-21.21344-4.24268-7.02951-7.02952-8.92903-16.527104-4.24268-21.213444z" class="Silber Rand2" transform="matrix(.0495 0 0 .04958 39.717554 76.523938)"/>
  <path style="fill:#000;fill-rule:evenodd;stroke-width:10;stroke-linecap:butt;stroke-linejoin:miter;stroke-miterlimit:10" d="M645.19579 94.315596c-1.94074-1.89015-6.01046-.90954-9.11669 2.1967-3.10624 3.10623-4.08684 7.175954-2.19669 9.116694 1.94074 1.89015 6.01046.90955 9.11669-2.19669 3.10624-3.10623 4.08684-7.175954 2.19669-9.116704zM477.88163 94.315596c1.94074-1.89015 6.01046-.90954 9.11669 2.1967 3.10624 3.10623 4.08684 7.175954 2.19669 9.116694-1.94074 1.89015-6.01046.90955-9.11669-2.19669-3.10624-3.10623-4.08684-7.175954-2.19669-9.116704z" class="Schwarz" transform="matrix(.0495 0 0 .04958 39.717554 76.523938)"/>
  <path style="fill:#000;fill-opacity:1;fill-rule:evenodd;stroke:#000;stroke-width:2.00001001;stroke-linecap:butt;stroke-linejoin:miter;stroke-miterlimit:10;stroke-opacity:1" d="M633.53907 21.971906c8.00004 2.00001 16.00008 4.00002 27.00014 6.00003 11.00005 2.00001 25.00012 4.00002 40.0002 1 15.00007-3.00001 31.00015-11.00005 39.00019-24.00012 8.00004-13.000061 8.00004-31.00015 3.00002-42.00021-5.00003-11.00005-15.00008-15.00007-21.00011-17.00008-6.00003-2.00001-8.00004-2.00001-10.00005-2.00001 4.00002 8.00004 8.00004 16.00008 10.00005 24.00012 2.00001 8.00004 2.00001 16.000079-7.00003 21.000104-9.00005 5.000025-27.00014 7.000035-41.00021 8.00004-14.00007 1.000005-24.00012 1.000005-34.00017 1.000005" class="Schwarz Rand2" transform="matrix(.0495 0 0 .04958 39.717554 76.523938)"/>
  <path style="fill:#a5884d;fill-opacity:1;fill-rule:evenodd;stroke:#000;stroke-width:2.00001001;stroke-linecap:butt;stroke-linejoin:miter;stroke-miterlimit:10;stroke-opacity:1" d="M561.53871 225.97293c8.00004-4.00002 16.00008-8.00004 24.00012-9.00005 8.00004-1 16.00008 1.00001 23.00012 5.00003 7.00003 4.00002 13.00006 10.00005 16.00008 19.00009 3.00001 9.00005 3.00001 21.00011-1.00001 29.00015-4.00002 8.00004-12.00006 12.00006-20.0001 16.00008 0 8.00004 0 16.00008-2.00001 22.00011-2.00001 6.00003-6.00003 10.00005-10.00005 12.00006-4.00002 2.00001-8.00004 2.00001-13.00006 1-5.00003-1-11.00006-3.00001-17.00009-5.00002-6.00003 2.00001-12.00006 4.00002-17.00008 5.00002-5.00003 1.00001-9.00005 1.00001-13.00007-1-4.00002-2.00001-8.00004-6.00003-10.00005-12.00006-2.00001-6.00003-2.00001-14.00007-2.00001-22.00011-8.00004-4.00002-16.00008-8.00004-20.0001-16.00008-4.00002-8.00004-4.00002-20.0001-1-29.00015 3.00001-9.00004 9.00004-15.00007 16.00008-19.00009 7.00003-4.00002 15.00007-6.00003 23.00011-5.00003 8.00004 1.00001 16.00008 5.00003 24.00012 9.00005z" class="Schwarz Rand2" transform="matrix(.0495 0 0 .04958 39.717554 76.523938)"/>
  <path style="fill:#000;fill-opacity:1;fill-rule:evenodd;stroke:#000;stroke-width:2.00001001;stroke-linecap:butt;stroke-linejoin:miter;stroke-miterlimit:10;stroke-opacity:1" d="M489.53835 21.971906c-8.00004 2.00001-16.00008 4.00002-27.00013 6.00003-11.00006 2.00001-25.00013 4.00002-40.0002 1-15.00008-3.00001-31.00016-11.00005-39.0002-24.00012-8.00004-13.000061-8.00004-31.00015-3.00002-42.00021 5.00003-11.00005 15.00008-15.00007 21.00011-17.00008 6.00003-2.00001 8.00004-2.00001 10.00005-2.00001-4.00002 8.00004-8.00004 16.00008-10.00005 24.00012-2.00001 8.00004-2.00001 16.000079 7.00003 21.000104 9.00005 5.000025 27.00014 7.000035 41.00021 8.00004 14.00007 1.000005 24.00012 1.000005 34.00017 1.000005" class="Schwarz Rand2" transform="matrix(.0495 0 0 .04958 39.717554 76.523938)"/>
  <path style="fill:#a5884d;fill-opacity:1;fill-rule:evenodd;stroke:#000;stroke-width:2.00001001;stroke-linecap:butt;stroke-linejoin:miter;stroke-miterlimit:10;stroke-opacity:1" d="M491.79489 40.727843s-14.14727-13.849917-14.63127-15.005917c-.48467-1.15601-1.62534-1.75001-5.62536 2.25001-4.00002 4.00002-8.23137 9.83005-11.36872 12.7594-3.13802 2.92868-6.59004 4.86602-11.63139 6.24069-5.04136 1.37468-11.7774 1.69001-19.27744 1.72268-7.50003.03267-14.76407-.18133-20.72277.27733-5.95869.45867-11.78805 1.67935-17.30742 3.83136-5.51869 2.15267-10.02605 4.96069-13.69273 8.1687-3.66669 3.20802-7.07204 7.47871-11.81073 14.44274-4.73869 6.96337-8.18937 12.5574-8.18937 12.5574v6.00003s5.69336 1.10867 13.24673 2.44268c7.55337 1.33334 12.71207 2.09868 17.75342 2.55734 5.04136.45867 10.82073.72267 17.00009.58401 6.17936-.13867 11.95873-.66734 17.00009-1.58401 5.04135-.91667 10.34271-2.40201 15.44541-4.27736 5.10335-1.87467 9.34671-3.85601 12.55473-5.72269 3.20801-1.86668 5.22469-3.26402 6.88736-4.79269 1.66268-1.52868 4.11269-4.20736 8.11271-7.20737 4.00002-3.00002 6.8747-4.28936 9.00004-5.06269 2.12535-.77334 3.00002-.93734 3.00002-.93734M629.40666 28.722283s16.02314-1.844357 16.50714-3.000357c.48467-1.15601 1.62534-1.75001 5.62536 2.25001 4.00002 4.00002 8.23137 9.83005 11.36872 12.7594 3.13802 2.92868 6.59004 4.86602 11.6314 6.24069 5.04135 1.37468 11.77739 1.69001 19.27742 1.72268 7.50004.03267 14.76408-.18133 20.72278.27733 5.95869.45867 11.78805 1.67935 17.30741 3.83136 5.5187 2.15267 10.02606 4.96069 13.69274 8.1687 3.66669 3.20802 7.07204 7.47871 11.81073 14.44274 4.73869 6.96337 8.18937 12.5574 8.18937 12.5574v6.00003s-5.69336 1.10867-13.24673 2.44268c-7.55337 1.33334-12.71207 2.09868-17.75342 2.55734-5.04136.45867-10.82073.72267-17.00009.58401-6.17936-.13867-11.95873-.66734-17.00008-1.58401-5.04136-.91667-10.34272-2.40201-15.44542-4.27736-5.10335-1.87467-9.34671-3.85601-12.55473-5.72269-3.20801-1.86668-5.22469-3.26402-6.88736-4.79269-1.66268-1.52868-4.11269-4.20736-8.11271-7.20737-4.00002-3.00002-6.8747-4.28936-9.00004-5.06269-2.12535-.77334-3.00002-.93734-3.00002-.93734" class="Schwarz Rand2" transform="matrix(.0495 0 0 .04958 39.717554 76.523938)"/>
  <path style="fill:#a5884d;fill-opacity:1;fill-rule:evenodd;stroke:#000;stroke-width:2.00001001;stroke-linecap:butt;stroke-linejoin:miter;stroke-miterlimit:10;stroke-opacity:1" d="M645.53913 69.972146c4.00002 2.00001 8.00004 4.00002 10.00005 6.00003 2.00001 2.00001 2.00001 4.00002-4.00002 9.00004-6.00003 5.00003-18.00009 13.00007-30.00015 21.000114M477.53829 69.972146c-4.00002 2.00001-8.00004 4.00002-10.00005 6.00003-2.00001 2.00001-2.00001 4.00002 4.00002 9.00004 6.00003 5.00003 18.00009 13.00007 30.00015 21.000114" class="Schwarz Rand2Hell" transform="matrix(.0495 0 0 .04958 39.717554 76.523938)"/>
  <path style="fill:none;fill-rule:evenodd;stroke:#000;stroke-width:2.00001001;stroke-linecap:butt;stroke-linejoin:miter;stroke-miterlimit:10;stroke-opacity:1" d="M510.53846 246.97303c4.14636-4.11744 10.84194-4.10573 14.97387.0262 4.13193 4.13194 4.14365 10.82751.0262 14.97388M612.53897 246.97303c-4.14637-4.11744-10.84195-4.10573-14.97388.0262-4.13193 4.13194-4.14365 10.82751-.0262 14.97388" class="Rand2Hell" transform="matrix(.0495 0 0 .04958 39.717554 76.523938)"/>
  <path style="fill:none;fill-opacity:1;fill-rule:evenodd;stroke:#000;stroke-width:2.00001001;stroke-linecap:butt;stroke-linejoin:miter;stroke-miterlimit:10;stroke-opacity:1" d="M537.53859 291.97326c4.00002 2.00001 8.00004 4.00002 14.00007 5.00002 6.00003 1.00001 14.00007 1.00001 20.0001 0 6.00003-1 10.00005-3.00001 14.00007-5.00002-4.00002-2.00001-8.00004-4.00002-14.00007-5.00003-6.00003-1-14.00007-1-20.0001 0-6.00003 1.00001-10.00005 3.00002-14.00007 5.00003z" class="Rand2Hell" transform="matrix(.0495 0 0 .04958 39.717554 76.523938)"/>
  <path style="fill:none;fill-rule:evenodd;stroke:#000;stroke-width:2.00001001;stroke-linecap:butt;stroke-linejoin:miter;stroke-miterlimit:10;stroke-opacity:1" d="M639.5391 45.972026c8.00004 10.00005 16.00008 20.0001 31.00016 23.00011 15.00007 3.00002 37.00018-1 53.00026 1.00001 16.00008 2.00001 26.00013 10.00005 36.00018 18.00009" class="Rand2Hell" transform="matrix(.0495 0 0 .04958 39.717554 76.523938)"/>
  <path style="fill:none;fill-opacity:1;fill-rule:evenodd;stroke:#000;stroke-width:2.00001001;stroke-linecap:butt;stroke-linejoin:miter;stroke-miterlimit:10;stroke-opacity:1" d="M651.53916 63.972116c-12.00006 8.00004-24.00012 16.00008-29.00014 32.00016-5.00003 16.000084-3.00002 40.000204-6.00003 61.000304-3.00002 21.00011-11.00006 39.0002-19.0001 57.00029" class="Rand2Hell" transform="matrix(.0495 0 0 .04958 39.717554 76.523938)"/>
  <path style="fill:#a5884d;fill-opacity:1;fill-rule:evenodd;stroke:#000;stroke-width:2.00001001;stroke-linecap:butt;stroke-linejoin:miter;stroke-miterlimit:10;stroke-opacity:1" d="M519.5385 201.97281c6.00003-2.00001 12.00006-4.00002 19.0001-4.00002 7.00003 0 15.00007 2.00001 23.00011 4.00002 8.00004-2.00001 16.00008-4.00002 23.00012-4.00002 7.00003 0 13.00006 2.00001 19.00009 4.00002" class="Rand2Hell" transform="matrix(.0495 0 0 .04958 39.717554 76.523938)"/>
  <path style="fill:none;fill-opacity:1;fill-rule:evenodd;stroke:#000;stroke-width:2.00001001;stroke-linecap:butt;stroke-linejoin:miter;stroke-miterlimit:10;stroke-opacity:1" d="M495.53838 261.97311c0-8.00004 0-16.00008 3.00002-23.00012 3.00001-7.00003 9.00004-13.00006 16.00008-17.00008 7.00003-4.00002 15.00007-6.00003 23.00011-5.00003 8.00004 1.00001 16.00008 5.00003 24.00012 9.00005 8.00004-4.00002 16.00008-8.00004 24.00012-9.00005 8.00004-1 16.00008 1.00001 23.00012 5.00003 7.00003 4.00002 13.00006 10.00005 16.00008 17.00008 3.00001 7.00004 3.00001 15.00008 3.00001 23.00012" class="Rand2Hell" transform="matrix(.0495 0 0 .04958 39.717554 76.523938)"/>
  <path style="fill:none;fill-rule:evenodd;stroke:#000;stroke-width:2.00001001;stroke-linecap:butt;stroke-linejoin:miter;stroke-miterlimit:10;stroke-opacity:1" d="M471.53826 63.972116c12.00006 8.00004 24.00012 16.00008 29.00015 32.00016 5.00002 16.000084 3.00001 40.000204 6.00003 61.000304 3.00001 21.00011 11.00005 39.0002 19.00009 57.00029" class="Rand2Hell" transform="matrix(.0495 0 0 .04958 39.717554 76.523938)"/>
  <path style="fill:#a5884d;fill-opacity:1;fill-rule:evenodd;stroke:#000;stroke-width:2.00001001;stroke-linecap:butt;stroke-linejoin:miter;stroke-miterlimit:10;stroke-opacity:1" d="M458.60486 9.571846c0 5.81241 2.80668 11.26712 7.53604 14.64607-.39911 1.21136-.60255 2.47861-.60267 3.75402.00005 3.43216 1.46971 6.70005 4.03742 8.97746 2.56771 2.27741 5.9877 3.34636 9.39531 2.9366 1.47534 1.61267 3.02735 3.20868 4.63936 4.77269-.04799.43614-.07203.87457-.072 1.31334.00012 3.82834 1.82688 7.42687 4.91724 9.68647 3.09036 2.25962 7.0734 2.90909 10.7215 1.74825.78601.53667 1.57401 1.05934 2.36135 1.56534 2.03068 1.30534 4.06202 2.50602 6.0807 3.61069-.05374.46116-.08068.92506-.08067 1.38934-.00013 5.11711 3.24466 9.67136 8.08122 11.34245 4.83656 1.67109 10.20072.09133 13.35955-3.93441 1.93535.56867 3.80202 1.06267 5.58203 1.49334 1.18469 4.75488 5.14145 8.31176 9.99522 8.98508 4.85376.67331 9.6293-1.67221 12.06356-5.92507 1.69134.03867 3.30535.03867 4.91869.03867s3.22735 0 4.91869-.03867c2.43426 4.25286 7.2098 6.59838 12.06356 5.92507 4.85377-.67332 8.81053-4.2302 9.99522-8.98508 1.78001-.43067 3.64668-.92467 5.58203-1.49334 3.15883 4.02574 8.52299 5.6055 13.35955 3.93441s8.08135-6.22534 8.08122-11.34245c.00001-.46428-.02693-.92818-.08067-1.38934 2.01868-1.10467 4.05002-2.30535 6.0807-3.61069.78734-.506 1.57534-1.02867 2.36135-1.56534 3.6481 1.16084 7.63114.51137 10.7215-1.74825 3.09036-2.2596 4.91712-5.85813 4.91724-9.68647.00003-.43877-.02401-.8772-.072-1.31334 1.61201-1.56401 3.16402-3.16002 4.63936-4.77269 3.40761.40976 6.8276-.65919 9.39531-2.9366 2.56771-2.27741 4.03737-5.5453 4.03742-8.97746-.00012-1.27541-.20356-2.54266-.60267-3.75402 4.72936-3.37895 7.53604-8.83366 7.53604-14.64607.00015-7.990916-5.26791-15.025311-12.93607-17.273422.00188-.108881.00277-.217775.00267-.326669.00004-5.789235-2.78441-11.225159-7.48257-14.607829-4.69817-3.38267-10.73658-4.29918-16.22688-2.46292-2.70988-4.29572-7.10846-7.24666-12.11096-8.12506-5.00249-.8784-10.14327.3975-14.15451 3.51303-3.12959-3.89027-7.73441-6.3059-12.714-6.66957-4.97959-.36368-9.88652 1.35727-13.54813 4.75157-3.42011-4.05779-8.45654-6.39958-13.7634-6.39958s-10.34329 2.34179-13.7634 6.39958c-3.66161-3.3943-8.56854-5.11525-13.54813-4.75157-4.97959.36367-9.58441 2.7793-12.714 6.66957-4.01124-3.11553-9.15202-4.39143-14.15451-3.51303-5.0025.8784-9.40108 3.82934-12.11096 8.12506-5.4903-1.83626-11.52871-.91975-16.22688 2.46292-4.69816 3.38267-7.48261 8.818594-7.48257 14.607829-.0001.108894.00079.217788.00267.326669-7.66816 2.248111-12.93622 9.282506-12.93607 17.273422z" class="Schwarz Rand2Hell" transform="matrix(.0495 0 0 .04958 39.717554 76.523938)"/>
  <path class="Rand2Hell" d="M483.21671 45.972026c-8.00004 10.00005-16.00008 20.0001-31.00016 23.00011-15.00007 3.00002-37.00018-1-53.00026 1.00001-16.00008 2.00001-26.00013 10.00005-36.00018 18.00009" style="fill:none;fill-rule:evenodd;stroke:#000;stroke-width:2.00001001;stroke-linecap:butt;stroke-linejoin:miter;stroke-miterlimit:10;stroke-opacity:1" transform="matrix(.0495 0 0 .04958 39.717554 76.523938)"/>
  <g>
    <path d="M262.58035 82.66049c-6.38776 10.8304-19.61206 16.386899-14.85612 35.81387 3.79902 9.54644 18.13298 10.69633 17.509 18.57015.52117 5.3464-3.50842 10.38941-8.22392 15.3867-.43486 3.14591 1.61362 7.19486-6.10163 7.69335-4.26106 3.61279-5.71277 7.35329-6.10162 11.14209 5.06891 1.02336 9.95916.61748 14.85612.26529 2.48531-2.4403 2.92565-5.08458 2.91817-7.69335-2.67528-1.65837-1.0607-3.64412 0-4.24461 5.428-1.7643 4.89581-4.66303 4.77518-6.10162-1.64919-2.88406 1.63447-12.42879 11.40738-18.30487.90617-2.34611 1.36195-4.63592-.53057-6.63219-4.78894-2.18477-11.8897-2.84801-10.74416-10.08094 1.36293-3.46487 6.80009-2.62944 19.6313-14.06026-.16968-10.235334-6.37557-18.22188-24.53913-21.75361zM249.064 67.461379c-9.89187 5.130218-12.20726-1.372045-19.2467-5.228057-2.57585.98549-4.64042-.585375-6.89749-1.193796 2.4948 2.110176 2.79127 6.661922 6.6322 8.887145 5.46161.049439 4.09937 2.630874 4.64254 5.438402-.23689.669835 2.2843 3.124558 5.04047 2.652879 1.16149.755057 2.24722 1.20709 4.37725 5.836334-.46346 4.525066-1.85901 9.050132-4.07311 13.575199-3.12711-3.130498-6.59845-5.830712-8.79336-10.126457-.69384-2.399838-.5534-4.465966 0-6.366909-4.30919-1.641302-6.2107-4.142486-7.03013-7.03013-.43356-6.474828-14.94224-15.916215-16.3152-17.641645-.61495-5.554915 1.25976-7.13835 3.13518-8.495879 2.19586-1.445235 9.39951 4.053275 10.65979 4.118629 6.9417 2.019262 13.48547 1.050477 20.42717.066322" style="fill:#a5884d;fill-opacity:1;fill-rule:evenodd;stroke:#000;stroke-width:.29088452;stroke-linecap:butt;stroke-linejoin:miter;stroke-miterlimit:4;stroke-dasharray:none;stroke-opacity:1" transform="matrix(-.52331 0 0 .5231 156.70934 52.864394)"/>
    <path style="fill:#000;fill-opacity:1;fill-rule:evenodd;stroke:#000;stroke-width:.29088452;stroke-linecap:butt;stroke-linejoin:miter;stroke-miterlimit:4;stroke-dasharray:none;stroke-opacity:1" d="M239.23502 78.017952c1.16149.755057 2.24722 1.20709 4.37725 5.836334-.46346 4.525066-1.85901 9.050132-4.07311 13.575199-3.12711-3.130498-6.59845-5.830712-8.79336-10.126457 4.3044-2.300978 6.43636-5.771731 8.48922-9.285076z" transform="matrix(-.52331 0 0 .5231 156.70934 52.864394)"/>
    <path d="M276.8688 31.422841c.26306 7.167675 4.39536 20.984698 11.30072 24.134337 5.36985 2.511555 25.26566 8.867193 25.10055 18.823057 19.3336-16.457255 38.78379-9.686774 39.8006 6.501171 2.63104 24.609444-12.38311 31.975424-2.84598 48.836954-15.33409-9.56803-17.26723-24.26834-16.13247-40.143589 4.33034-27.079371-16.8583-14.518432-19.88421-10.880038 6.34243 9.441873-4.80789 18.883745-1.68828 28.325617 5.42852 9.27442 10.44882 10.38439 15.38212 9.75452 3.11088-1.33822 4.44437.16738 5.06485 2.8138.38567 2.66756-2.94654 4.24121-2.62622 6.56554 1.91234 14.37647 5.82951 18.14415 10.19601 21.23146 2.68489 1.76861.64368 4.31735-1.66552 7.65692 1.77397.96811 1.7338 2.38618 1.91748 3.88438.11512 2.93886.33485 4.88289-1.81897 7.82175-2.22286 1.22509-8.04182 2.36602-13.50626 2.73806.19873-3.37656 1.61943-6.75313 3.93933-10.12969 1.26542-1.40496 2.19788-2.4131 4.52289-2.93507.48941-.99732 1.04582-2.06097.47563-3.05829-4.75614-1.31423-2.34153-5.01961-2.93507-8.45083-6.23963-7.28822-4.02485-15.83062-24.76147-22.51043-13.52777-2.53579-21.99102-12.54511-26.51472-26.392075-7.82133-8.69443-24.98525-9.072239-30.73179-27.542808-1.81949-3.234831.48315-.685846-5.75862-7.548517-3.45198-4.823345-2.04768-6.543219-1.33716-16.927909-3.53432-2.229527-2.57854-9.911307-3.82749-14.915917" style="fill:#a5884d;fill-opacity:1;fill-rule:evenodd;stroke:#000;stroke-width:.29088452;stroke-linecap:butt;stroke-linejoin:miter;stroke-miterlimit:4;stroke-dasharray:none;stroke-opacity:1" transform="matrix(-.52331 0 0 .5231 156.70934 52.864394)"/>
    <path d="M223.16205 61.249153c-1.22692-1.017335-1.66064-2.627957-2.01322-3.884381" style="fill:none;fill-rule:evenodd;stroke:#000;stroke-width:.29088452;stroke-linecap:butt;stroke-linejoin:miter;stroke-miterlimit:4;stroke-dasharray:none;stroke-opacity:1" transform="matrix(-.52331 0 0 .5231 156.70934 52.864394)"/>
    <path style="fill:#000;fill-opacity:1;fill-rule:evenodd;stroke:#000;stroke-width:.29088452;stroke-linecap:butt;stroke-linejoin:miter;stroke-miterlimit:4;stroke-dasharray:none;stroke-opacity:1" d="M329.40255 159.35709c-2.3199 3.37656-3.7406 6.75313-3.93933 10.12969 5.46444-.37204 11.2834-1.51297 13.50626-2.73806 2.15382-2.93886 1.93409-4.88289 1.81897-7.82175l.15069.10184c-4.68135 1.17015-10.01682 1.17242-11.53659.32828z" transform="matrix(-.52331 0 0 .5231 156.70934 52.864394)"/>
    <path d="M280.26145 96.0987c-1.17019-4.283234-2.68191-10.02555-2.3515-14.308784M350.12536 129.61645c-14.0032-13.89261-7.47925-28.37171-10.47887-42.57871M347.07455 112.50538c-2.45602-5.74541-1.22837-11.03035-1.06115-16.447851M335.79981 110.51572c-1.27595-9.5012-.06431-13.529676.26529-19.498661M349.06421 78.681172c-1.67613-4.659608-4.3998-14.283878-21.88625-10.346229" style="fill:none;fill-rule:evenodd;stroke:#000;stroke-width:.29088452;stroke-linecap:butt;stroke-linejoin:miter;stroke-miterlimit:4;stroke-dasharray:none;stroke-opacity:1" transform="matrix(-.52331 0 0 .5231 156.70934 52.864394)"/>
    <path style="fill:#000;fill-opacity:1;fill-rule:evenodd;stroke:#000;stroke-width:.29088452;stroke-linecap:butt;stroke-linejoin:miter;stroke-miterlimit:4;stroke-dasharray:none;stroke-opacity:1" d="M262.58035 163.83859c.00748 2.60877-.43286 5.25305-2.91817 7.69335-4.89696.35219-9.78721.75807-14.85612-.26529.38885-3.7888 1.84056-7.5293 6.10162-11.14209 2.16812 3.73741 7.72382 2.95804 11.90153 4.01599" transform="matrix(-.52331 0 0 .5231 156.70934 52.864394)"/>
    <path d="M277.62857 17.541412c1.31784 4.520998-1.05396 9.255943-.72267 13.918513l-12.26957 3.780353-13.86129 4.045641-12.73868-12.672063c-.50773-1.909914.16298-2.641397-2.42725-6.633815-.81614-1.434908-.80057-3.701513-.75035-6.00278-5.00695 1.665126-10.44432 1.178107-15.94488.375174-9.11157 4.260434-21.37894 1.420338-32.26495 1.688282l-4.12691-4.877259-5.06484 3.188977c-.94281.004876-1.92043.044563-1.31311-1.500695 4.77379-4.9719762 7.46251-5.2215202 12.75591-4.8772582 2.00512.5573577 1.34308 2.0373362 3.18897 2.4386292h3.00139c13.07158-6.6505692 19.50459-6.1519052 26.26217-6.0027802 2.82566-1.842982 5.1154-2.346166 6.94071-1.688282.88267-2.49752697 2.74404-4.505705 5.62761-6.00278 4.35857-1.743637 9.75446-.375343 14.63177-.562761.92435-.823068 1.61171-1.823869.56276-4.126911l12.9435-6.1903658c.31219 2.401294-1.43218 6.5631448 1.12552 8.0662348 6.38063.426999 13.22679-1.008123 19.13386 1.313108 6.81298 3.586674 4.91133 6.630103 5.06485 10.692452" style="fill:#f7caa2;fill-opacity:1;fill-rule:evenodd;stroke:#000;stroke-width:.29088452;stroke-linecap:butt;stroke-linejoin:miter;stroke-miterlimit:4;stroke-dasharray:none;stroke-opacity:1" transform="matrix(-.52331 0 0 .5231 156.70934 52.864394)"/>
    <path d="M301.57767 106.5364 200.10505-71.073848l3.44874-1.989659L304.89377 104.67939l-3.3161 1.85701z" style="fill:#e6e6e6;fill-opacity:1;fill-rule:evenodd;stroke:#000;stroke-width:.29088452;stroke-linecap:butt;stroke-linejoin:miter;stroke-miterlimit:4;stroke-dasharray:none;stroke-opacity:1" transform="matrix(-.52331 0 0 .5231 156.70934 52.864394)"/>
    <path d="M255.11814 60.686393c-3.21563-1.875869-1.25796-3.00139.37518-4.877259-9.31996-3.809076-5.1781-9.476635-7.69107-18.008339-2.93441-1.693369-6.56837-4.818747-6.19036-7.503475-1.14556 3.705499-7.39953 4.098252-8.25382 7.503474-.48591 1.688282-.24731 3.376564 0 5.064846 2.77317 1.0283 4.29211 3.880934 4.31449 8.910376-2.81976 3.114537-5.65479 6.227687-11.16141 9.097964-.8932-3.158028-1.31143-9.126289-.56276-13.975222l1.21931-1.594489c1.11408-1.82465.72111-2.393424.37517-3.00139-4.70852-2.49691-2.55281-5.421816-.65655-6.753127 5.41956-3.696735 8.51817-10.211412 11.16142-14.913157 4.22951-8.210332 7.32327-1.23582 7.59726-.093793 2.15836 5.466623 4.60176 11.139433 9.94211 16.601438 4.97547 3.997932 6.94859 8.641534 7.2221 12.193147" style="fill:#a5884d;fill-opacity:1;fill-rule:evenodd;stroke:#000;stroke-width:.29088452;stroke-linecap:butt;stroke-linejoin:miter;stroke-miterlimit:4;stroke-dasharray:none;stroke-opacity:1" transform="matrix(-.52331 0 0 .5231 156.70934 52.864394)"/>
    <path style="fill:#f7caa2;fill-opacity:1;fill-rule:evenodd;stroke:#000;stroke-width:.29088452;stroke-linecap:butt;stroke-linejoin:miter;stroke-miterlimit:4;stroke-dasharray:none;stroke-opacity:1" d="M287.38309 5.9110258c7.43355 3.9761111 8.03088 8.9288262 8.62899 13.8814282 1.9152 2.952782 3.55152 6.072884 3.00139 10.504865.44177 2.110441 1.07988 4.333082-1.87587 4.502085-8.94164 2.306729-17.88328 1.31764-26.82492 1.313109-2.86017 1.489185-10.6028 4.321389-10.48113.353391-1.33007-.517616-1.56421-1.100582-1.4685-2.205526-.70994-.469718-1.46846-.890855-1.14762-2.39135-2.10261-.813589-1.54975-3.188961-.3739-3.062001 2.62058.412487 2.80894.214292 4.75308-.076725l-1.27898-2.294606c1.38589-.802628 3.70626-.803417 6.05773-.640462 2.17159 1.463452 1.22948 2.960726 6.75312 2.43863 6.63696-3.205526 8.82164-2.59482 12.19315-3.00139-4.8789-1.40608-5.53702-4.922554-7.69106-7.691062" transform="matrix(-.52331 0 0 .5231 156.70934 52.864394)"/>
    <path d="M217.1498 7.5176918c2.28847-.99692 1.90562-1.801421 4.31093-3.117133M218.87417 14.348855c-1.15682-.31674-1.73898-.456758-2.7192-.596897M234.85777 14.017245c.28081-1.05488-.65284-2.035828-1.32644-3.249776M259.15126 21.105562c9.18048.763066 14.17405-1.138265 15.10074-5.627606.22863-1.760981 1.68751-3.6799 3.18898-5.440019M277.6686 17.664954c-.82732-1.118242-.87955-2.347212-1.12747-3.548226" style="fill:none;fill-rule:evenodd;stroke:#000;stroke-width:.29088452;stroke-linecap:butt;stroke-linejoin:miter;stroke-miterlimit:4;stroke-dasharray:none;stroke-opacity:1" transform="matrix(-.52331 0 0 .5231 156.70934 52.864394)"/>
    <path d="M248.36502-6.3759142c4.66168-.42767 10.2614-2.82827 11.91176-6.4717468l2.25104-.844142.93794-7.878648-10.50487-11.255213-11.72418 2.626217c.0001 1.563224.41129 2.891964-.23448 4.455188-.4544.686406-.56499.565001-.65656 1.735179.26538.797523.60055 1.542699 1.36001 1.969662.23717 2.751274.00978 5.502548 1.4069 8.253822 2.43588 2.689448 1.96469 7.8246258 5.25244 7.4096818z" style="fill:#f7caa2;fill-opacity:1;fill-rule:evenodd;stroke:#000;stroke-width:.29088452;stroke-linecap:butt;stroke-linejoin:miter;stroke-miterlimit:4;stroke-dasharray:none;stroke-opacity:1" transform="matrix(-.52331 0 0 .5231 156.70934 52.864394)"/>
    <path d="M264.07542-8.8614412c-.14778.006651-.54657.046897-.84414.046897-.15351 0-.23449-.721978-.23449-.844141 0-.273321-.21794-.4055258-.37517-.5627598-.08037-.080365.0469-.608647.0469-.750348 0-.2497-.22219-.452569-.37518-.656554-.1067-.14227-.0469-.472505-.0469-.656554 0-.034065-.4504-.171223-.51586-.187587-.19773-.049433.09633-.411923.0469-.609657-.05044-.201748-.22452-.241512-.28138-.468967-.07222-.288877-.25774-.141474-.18759-.422071.073-.292018-.0066-.34148-.14069-.609657-.10042-.200834-.17792-.268492-.32828-.468967-.18875-.25167-.32827-.243406-.32827-.562761 0-.347185-.09654-.423443-.37518-.562761-.22018-.11009-.20815-.480499-.18758-.56276.04027-.161108.36409-.270304.46896-.375174.13437-.134368.34155-.144008.51587-.187587.20519-.051298.34884-.36201.56276-.468967.19496-.097481.24058-.499474.28138-.703451.06317-.31587.06157-.621476.14069-.937934.06067-.242684.04689-.492531.04689-.750348v-.703451c0-.356297-.05848-.480551-.23448-.656554-.17069-.17069-.27561-.279937-.46897-.328277-.24857-.062144-.51775.001888-.65655.140691-.16653.166525-.18759.455075-.18759.70345 0 .338913.01877.497092-.14069.656554-.18566.185665-.37918.378178-.56276.515864-.18341.137562-.27251.366308-.37517.468967-.19402.194019-.26704.329249-.51587.515864-.11871.089038-.64205 0-.79724 0-.27146 0-.27361-.391001-.32828-.609657-.07571-.302854-.2751-.462693-.42207-.609657-.24835-.248352-.57958-.345099-.79724-.562761-.25113-.251124-.38645-.390168-.0938-.609657.17028-.127708.31395-.267053.42208-.375174.13437-.134378.14069-.344838.14069-.562761 0-.230346-.23823-.332023-.37518-.468967-.17031-.170307-.30589-.332517-.37517-.609657-.02784-.11136-.02881-.115229-.0469-.187587-.06782-.271288-.52664-.207391-.75035-.375174-.26104-.19578-.33175-.504871-.51586-.750347-.14769-.196923-.32971-.294183-.56276-.468967-.27715-.207865-.51586-.193663-.51586-.562761 0-.339444-.15527-.50889-.32828-.797244-.21636-.36059-.46897-.455329-.46897-.891038 0-.294964.23448-.552929.23448-.891038 0-.225763.0938-.528146.0938-.797244 0-.297922-.0082-.53226-.0938-.703451-.06134-.122687-.40173-.247766-.56276-.328277-.23475-.117378-.48257-.113839-.75034-.046896-.36335.090837-.59239.234483-.98483.234483-.27786 0-.668-.395476-.89104-.56276-.27519-.206392-.4426-.234484-.79725-.234484-.33109 0-.55784-.004913-.75034.187587-.26739.267389-.78659.419407-1.17242.515864-.81936.20484-1.67525.375174-2.53242.375174-.39684 0-.81326.046896-1.21932.046896-.4545 0-.70377.156746-.93793.468967-.24098.321302-.44881.589501-.65656.797245-.23515.235149-.36195.502638-.56276.70345-.12336.123362-.58649.046897-.75035.046897-.2131 0-.3986.046897-.65655.046897-.20923 0-.41069.137845-.60966.187587-.22041.055104-.39546.020022-.56276-.046897-.17195-.031264-.34391-.062529-.51586-.093793-.4139-.075255-.56276-.998708-.56276-1.313108v-1.406902c0-.472692-.12527-.999636 0-1.500695.15694-.627787-.18065-.837204-.46897-1.125521-.31651-.316509-.37517-.604518-.37517-1.125521 0-.519068.11286-.788478.37517-1.313109.19006-.380117.49182-.673693.84414-.937934.23007-.172555.48089-.574677.84414-.937934.35305-.353049.66072-.660716.93794-.937935.25496-.254965 1.00918.022541 1.3131-.28138.36057-.360562.58189-.666114.93794-.844141.3407-.170348 1.20591 0 1.59449 0 .76323 0 .67715-.114387 1.12552-.56276.3941-.394103.46523-.513997.93793-.750348.33906-.169528 1.25357.008563 1.59449.093793.5791.144774.94523-.101088 1.21932-.375173.21487-.214875.89118-.222795 1.12552-.281381.45709-.114273.93627.000415 1.31311-.093793.41659-.104149.86657-.28699 1.21931-.375174.409-.10225.98282 0 1.4069 0 .4885 0 1.01836.187587 1.5007.187587h1.68828c.62321 0 1.43031.574468 1.96966.844141.54062.270308.80429.683524 1.31311.937934.39352.196759.93997.188607 1.31311.375174.47106.235531.79619.560666 1.03172 1.031728.2086.417182 1.12987.752519 1.5007.937934.53074.265371.83826.605246 1.4069 1.031728.53466.400991.83353.677348 1.5007.844141 1.23182.278644 1.4452.259495 1.4069 1.594488 0 .294696.31095.962427.37517 1.219315.12546.501845.28389.760368.37518 1.125521.12421.496878.18758.948595.18758 1.500695v2.907597c0 .190704.53806.88852.65656 1.125521.20361.407219.3471.638053.46896 1.125521.1498.599185.37518.960316.37518 1.500695v1.406902c0 .338434-.4638 1.026561-.65656 1.219315-.27159.271592-.65655.218526-.65655.844141 0 .245539-.18759.786329-.18759 1.219314 0 .461516-.28138.626816-.28138 1.219315 0 .536972.0938.77695.0938 1.313108 0 .274086.29892.726737.37517 1.031728.11665.466593 0 1.116004 0 1.594488 0 .349536-.63791.600336-.93794.750348-.32427.162137-.60215.508364-.84414.750347-.31107.311074.04422-.088429-.09379.187587.02567.132047.02815.244328.02815.37692 0 .175178.07536.361776.03316.530576-.05745.229807-.15008.216405-.33161.397932-.13486.13486-.19522.294706-.33161.4310918-.13088.13088-.20802.132644-.43109.132644-.24405 0-.3976.032828-.56374.198966-.1337.133701-.27915.317138-.43109.431093-.08465.063486-.31616.134913-.39793.298449-.05714.114274-.26538.215503-.43109.132644-.15704-.078518-.33561-.036014-.49742-.099483-.05433-.021309-.10865-.042618-.16298-.063927z" style="fill:#000;fill-opacity:1;fill-rule:evenodd;stroke:#000;stroke-width:.29088452;stroke-linecap:butt;stroke-linejoin:miter;stroke-miterlimit:4;stroke-dasharray:none;stroke-opacity:1" transform="matrix(-.52331 0 0 .5231 156.70934 52.864394)"/>
    <path d="m200.23769-70.410629 3.71404-2.254947-.39794-8.223925-15.91727-16.713139 5.4384 22.018897 7.16277 5.173114z" style="fill:#e6e6e6;fill-opacity:1;fill-rule:evenodd;stroke:#000;stroke-width:.29088452;stroke-linecap:butt;stroke-linejoin:miter;stroke-miterlimit:4;stroke-dasharray:none;stroke-opacity:1" transform="matrix(-.52331 0 0 .5231 156.70934 52.864394)"/>
    <path d="m187.50388-97.33735 14.98876 25.732926" style="fill:none;fill-rule:evenodd;stroke:#000;stroke-width:.29088452;stroke-linecap:butt;stroke-linejoin:miter;stroke-miterlimit:4;stroke-dasharray:none;stroke-opacity:1" transform="matrix(-.52331 0 0 .5231 156.70934 52.864394)"/>
    <path d="m213.35335-47.369432 4.04102-1.958007c2.99725-1.462547 4.09427-1.02485 5.79073-1.186597 32.39823-2.400429 30.3357-14.758554 33.82421-17.906933-7.17972 6.185852-17.06832 4.105421-20.8251 2.387591-8.07292-4.239847-19.92386-7.339101-31.83455-5.836334l-3.58139 2.387591 2.12428 3.63537c9.50864.079687 17.12593 5.940589 8.4292 15.033923l2.0316 3.443396z" style="fill:#008f4c;fill-opacity:1;fill-rule:evenodd;stroke:#000;stroke-width:.29088452;stroke-linecap:butt;stroke-linejoin:miter;stroke-miterlimit:4;stroke-dasharray:none;stroke-opacity:1" transform="matrix(-.52331 0 0 .5231 156.70934 52.864394)"/>
    <path style="fill:#e6e6e6;fill-opacity:1;fill-rule:evenodd;stroke:#000;stroke-width:.29088452;stroke-linecap:butt;stroke-linejoin:miter;stroke-miterlimit:4;stroke-dasharray:none;stroke-opacity:1" d="M257.00931-68.420969c-15.61107 17.298691-28.40717-.123622-44.86588 5.044591 2.25773 1.556803 3.45886 3.801315 2.82358 6.595727 12.24386-3.583337 29.75121 6.861326 42.0423-11.640318z" transform="matrix(-.52331 0 0 .5231 156.70934 52.864394)"/>
    <path d="M247.3263-22.327197c-.04998.615082-.29959 2.365651-1.12748 3.316099l.12862 4.080467c.11295.400146.72368.376704 1.33047.097817.0437-.60013.67508-.88182 1.59172-1.357243" style="fill:none;fill-rule:evenodd;stroke:#000;stroke-width:.29088452;stroke-linecap:butt;stroke-linejoin:miter;stroke-miterlimit:4;stroke-dasharray:none;stroke-opacity:1" transform="matrix(-.52331 0 0 .5231 156.70934 52.864394)"/>
    <path d="m249.0681-22.061909.81242.018174c-.09852 2.039501 1.95875 1.537312 1.67538.026799l.96094.021349-.03316-.016581c-1.07868-.31579-2.20451-.395889-3.41558-.049741z" style="fill:#000;fill-opacity:1;fill-rule:evenodd;stroke:#000;stroke-width:.29088452;stroke-linecap:butt;stroke-linejoin:miter;stroke-miterlimit:4;stroke-dasharray:none;stroke-opacity:1" transform="matrix(-.52331 0 0 .5231 156.70934 52.864394)"/>
    <path d="m241.22468-24.184212 3.97931.132644.99483 1.127473M247.72423-22.990417l.92851-1.061151h4.70886" style="fill:none;fill-rule:evenodd;stroke:#000;stroke-width:1px;stroke-linecap:butt;stroke-linejoin:miter;stroke-opacity:1" transform="matrix(-.52331 0 0 .5231 156.70934 52.864394)"/>
    <path style="fill:#000;fill-opacity:1;fill-rule:evenodd;stroke:#000;stroke-width:.29088452;stroke-linecap:butt;stroke-linejoin:miter;stroke-miterlimit:4;stroke-dasharray:none;stroke-opacity:1" d="m242.08686-22.061909.81242.018174c-.09852 2.039501 1.95875 1.537312 1.67538.026799l.96094.021349-.03316-.016581c-1.07868-.31579-2.20451-.395889-3.41558-.049741zM245.64313-12.897407c2.65135.294705 2.32894-.047163 4.92214-.579139-1.42762.494536-1.04478 1.345031-2.8742 1.362933-1.52973.138383-1.18224-.28868-2.04794-.783794zM233.35807 42.86564c2.77317 1.0283 4.29211 3.880934 4.31449 8.910376-2.81976 3.114537-5.65479 6.227687-11.16141 9.097964-.8932-3.158028-1.31143-9.126289-.56276-13.975222 3.76283-.542219 6.64812-2.885716 7.40968-4.033118z" transform="matrix(-.52331 0 0 .5231 156.70934 52.864394)"/>
    <path d="M257.27459 31.891018c2.62468.285078 4.44621-.218878 5.73685-.696381M258.38548 34.220582c2.62468.285078 4.44621-.218878 5.73685-.696381M259.74509 36.442369c2.62468.285078 4.44621-.218878 5.73685-.696381" style="fill:none;fill-rule:evenodd;stroke:#000;stroke-width:.29088452;stroke-linecap:butt;stroke-linejoin:miter;stroke-miterlimit:4;stroke-dasharray:none;stroke-opacity:1" transform="matrix(-.52331 0 0 .5231 156.70934 52.864394)"/>
  </g>
  <g>
    <path d="M115.98402 96.103394c-3.34278 5.665286-10.2632 8.571846-7.77436 18.733926 1.98806 4.99367 9.48917 5.59516 9.16264 9.71389.27273 2.79666-1.83599 5.43461-4.30366 8.04865-.22757 1.6456.84442 3.76357-3.19305 4.02433-2.22986 1.88982-2.98955 3.84644-3.19304 5.82833 2.65261.53531 5.21173.323 7.77436.13877 1.30059-1.2765 1.53102-2.6597 1.52711-4.02432-1.4-.86748-.55508-1.90621 0-2.22032 2.84053-.92289 2.56203-2.43919 2.4989-3.19171-.86304-1.50862.85534-6.50139 5.9696-9.57512.47421-1.22723.71273-2.42501-.27765-3.46924-2.5061-1.14284-6.222-1.48977-5.62253-5.27326.71323-1.81244 3.55856-1.37543 10.27326-7.3548-.08879-5.35401-3.3364-9.531708-12.84158-11.379126zM108.91077 88.152868c-5.17652 2.683573-6.38819-.717705-10.071999-2.734752-1.347969.515501-2.42838-.306205-3.609529-.624465 1.305555 1.103815 1.460701 3.484795 3.4707 4.64879 2.858118.025861 2.145248 1.376188 2.429488 2.844782-.12396.350385 1.1954 1.63443 2.63773 1.387699.60782.394963 1.176.631418 2.29066 3.052936-.24253 2.367024-.97284 4.734052-2.1315 7.101072-1.63645-1.63754-3.45304-3.05-4.601655-5.297064-.363094-1.255335-.2896-2.336109 0-3.330476-2.255044-.858551-3.250125-2.166899-3.678941-3.677401-.226886-3.386928-7.819431-8.325637-8.537915-9.228195-.32181-2.905729.659245-3.73401 1.640672-4.444122 1.149117-.75599 4.918863 2.120234 5.57838 2.15442 3.632665 1.056259 7.057089.549495 10.689749.034692" style="fill:#a5884d;fill-opacity:1;fill-rule:evenodd;stroke:#000;stroke-width:.15219107;stroke-linecap:butt;stroke-linejoin:miter;stroke-miterlimit:4;stroke-dasharray:none;stroke-opacity:1"/>
    <path style="fill:#000;fill-opacity:1;fill-rule:evenodd;stroke:#000;stroke-width:.15219107;stroke-linecap:butt;stroke-linejoin:miter;stroke-miterlimit:4;stroke-dasharray:none;stroke-opacity:1" d="M103.76716 93.674922c.60782.394963 1.176.631418 2.29066 3.052936-.24253 2.367024-.97284 4.734052-2.1315 7.101072-1.63645-1.63754-3.45304-3.05-4.601655-5.297064 2.252535-1.203622 3.368215-3.019144 4.442495-4.856944z"/>
    <path d="M123.46132 69.301415c.13766 3.74935 2.30013 10.976917 5.91378 12.624467 2.8101 1.313773 13.22179 4.638353 13.13538 9.846181 10.11748-8.608651 20.29597-5.067069 20.82807 3.400707 1.37685 12.87299-6.48021 16.72607-1.48933 25.5462-8.02449-5.00496-9.03612-12.69457-8.44229-20.998775 2.26611-14.164988-8.82212-7.594468-10.40561-5.691255 3.31906 4.938963-2.51602 9.87793-.8835 14.81689 2.8408 4.85137 5.46798 5.43199 8.04963 5.10251 1.62795-.70002 2.32578.08755 2.65049 1.47187.20182 1.39538-1.54196 2.21854-1.37433 3.43438 1.00074 7.52021 3.05064 9.49105 5.33568 11.106 1.40503.92514.33684 2.25836-.87159 4.00526.92834.50642.90732 1.2482 1.00344 2.03189.06024 1.53729.17523 2.5542-.95189 4.09149-1.16324.64084-4.20837 1.23765-7.06796 1.43226.10399-1.76625.84746-3.53251 2.06149-5.29876.66221-.73492 1.15017-1.26227 2.36687-1.53531.25612-.52169.54729-1.07807.24891-1.59976-2.48894-.68746-1.22535-2.62572-1.53596-4.42056-3.26526-3.81241-2.10624-8.28086-12.95793-11.77501-7.07923-1.32645-11.50814-6.56224-13.87544-13.80547-4.09298-4.547987-13.07504-4.745616-16.08226-14.407413-.95216-1.692113.25283-.35876-3.01355-3.948565-1.80646-2.523051-1.07157-3.422703-.69975-8.854846-1.84955-1.166246-1.34938-5.18452-2.00297-7.802389" style="fill:#a5884d;fill-opacity:1;fill-rule:evenodd;stroke:#000;stroke-width:.15219107;stroke-linecap:butt;stroke-linejoin:miter;stroke-miterlimit:4;stroke-dasharray:none;stroke-opacity:1"/>
    <path d="M95.356009 84.903305c-.64206-.532159-.86903-1.374662-1.053539-2.031886" style="fill:none;fill-rule:evenodd;stroke:#000;stroke-width:.15219107;stroke-linecap:butt;stroke-linejoin:miter;stroke-miterlimit:4;stroke-dasharray:none;stroke-opacity:1"/>
    <path style="fill:#000;fill-opacity:1;fill-rule:evenodd;stroke:#000;stroke-width:.15219107;stroke-linecap:butt;stroke-linejoin:miter;stroke-miterlimit:4;stroke-dasharray:none;stroke-opacity:1" d="M150.95278 136.22273c-1.21403 1.76625-1.9575 3.53251-2.06149 5.29876 2.85959-.19461 5.90472-.79142 7.06796-1.43226 1.12712-1.53729 1.01213-2.5542.95189-4.09149l.07886.05327c-2.4498.6121-5.24191.61329-6.03722.17172z"/>
    <path d="M125.23672 103.13281c-.61237-2.24053-1.40347-5.244283-1.23056-7.484806M161.79724 120.66566c-7.32802-7.26711-3.91397-14.841-5.4837-22.272564M160.20072 111.715c-1.28526-3.00537-.64282-5.76988-.55531-8.60373M154.30053 110.67423c-.66772-4.97-.03365-7.07726.13883-10.19959M161.24193 94.021846c-.87714-2.437401-2.30246-7.471775-11.4533-5.412024" style="fill:none;fill-rule:evenodd;stroke:#000;stroke-width:.15219107;stroke-linecap:butt;stroke-linejoin:miter;stroke-miterlimit:4;stroke-dasharray:none;stroke-opacity:1"/>
    <path style="fill:#000;fill-opacity:1;fill-rule:evenodd;stroke:#000;stroke-width:.15219107;stroke-linecap:butt;stroke-linejoin:miter;stroke-miterlimit:4;stroke-dasharray:none;stroke-opacity:1" d="M115.98402 138.56697c.00391 1.36462-.22652 2.74782-1.52711 4.02432-2.56263.18423-5.12175.39654-7.77436-.13877.20349-1.98189.96318-3.93851 3.19304-5.82833 1.1346 1.95501 4.04195 1.54733 6.22819 2.10073"/>
    <path d="M123.85891 62.040158c.68964 2.364895-.55155 4.841705-.37818 7.280655l-6.42079 1.977471-7.25376 2.11624-6.66629-6.628648c-.2657-.99906.08529-1.381692-1.2702-3.470092-.4271-.750589-.41895-1.93623-.39267-3.140004-2.620189.871014-5.465622.616258-8.344123.196251-4.76818 2.228597-11.187824.742966-16.884587.883126l-2.159655-2.551253-2.650484 1.668127c-.493383.00255-1.004982.02331-.687165-.785001 2.498175-2.600799 3.90521-2.731333 6.675302-2.551252 1.0493.291549.702848 1.065713 1.668821 1.275626h1.570659c6.840495-3.478856 10.206957-3.218009 13.74327-3.140003 1.478697-.964049 2.676942-1.22726 3.632146-.883126.461911-1.306436 1.435985-2.356896 2.944986-3.140004 2.28089-.912081 5.10461-.196338 7.65696-.294375.48372-.43054.84343-.95405.2945-2.158752l6.77347-3.238128c.16337 1.256097-.74948 3.433125.58899 4.219379 3.33906.22336 6.92172-.527341 10.01295.686876 3.56531 1.876158 2.57015 3.46815 2.65049 5.59313" style="fill:#f7caa2;fill-opacity:1;fill-rule:evenodd;stroke:#000;stroke-width:.15219107;stroke-linecap:butt;stroke-linejoin:miter;stroke-miterlimit:4;stroke-dasharray:none;stroke-opacity:1"/>
    <path d="M136.39173 108.59268 83.290039 15.686268l1.804762-1.040773 53.032279 92.975795-1.73535.97139z" style="fill:#e6e6e6;fill-opacity:1;fill-rule:evenodd;stroke:#000;stroke-width:.15219107;stroke-linecap:butt;stroke-linejoin:miter;stroke-miterlimit:4;stroke-dasharray:none;stroke-opacity:1"/>
    <path d="M112.07897 84.60893c-1.68278-.981251-.65831-1.570001.19633-2.551252-4.87723-1.992496-2.70975-4.957148-4.02482-9.420009-1.5356-.885787-3.43729-2.520646-3.23948-3.925004-.59948 1.938315-3.87225 2.14376-4.31931 3.925003-.25428.883126-.12942 1.766252 0 2.649378 1.45123.537895 2.24611 2.030084 2.25782 4.660942-1.47561 1.629188-2.95921 3.25765-5.840882 4.759068-.467421-1.651938-.686285-4.773885-.294498-7.31032l.638078-.834064c.583009-.954459.377364-1.25198.19633-1.570002-2.464018-1.306112-1.335912-2.836105-.343579-3.532503 2.836111-1.933731 4.457651-5.341503 5.840891-7.800946 2.21334-4.294754 3.83234-.646447 3.97572-.049062 1.1295 2.859544 2.40815 5.826943 5.20281 8.684071 2.60372 2.091284 3.63627 4.520313 3.7794 6.378132" style="fill:#a5884d;fill-opacity:1;fill-rule:evenodd;stroke:#000;stroke-width:.15219107;stroke-linecap:butt;stroke-linejoin:miter;stroke-miterlimit:4;stroke-dasharray:none;stroke-opacity:1"/>
    <path style="fill:#f7caa2;fill-opacity:1;fill-rule:evenodd;stroke:#000;stroke-width:.15219107;stroke-linecap:butt;stroke-linejoin:miter;stroke-miterlimit:4;stroke-dasharray:none;stroke-opacity:1" d="M128.96355 55.956401c3.89006 2.07987 4.20265 4.670593 4.51564 7.261257 1.00225 1.544576 1.85855 3.176674 1.57066 5.495006.23119 1.103954.56512 2.266598-.98166 2.355002-4.67925 1.206631-9.35851.689247-14.03776.686877-1.49676.77898-5.54856 2.260481-5.48489.184855-.69604-.27076-.81856-.575705-.76848-1.153691-.37152-.245706-.76846-.465999-.60056-1.250895-1.10032-.425582-.811-1.668119-.19567-1.601707 1.37138.215768 1.46995.112094 2.48734-.040134l-.6693-1.200289c.72525-.419848 1.93952-.420261 3.17007-.33502 1.13642.765519.6434 1.54873 3.53398 1.275626 3.47319-1.676783 4.61646-1.357328 6.3808-1.570001-2.55318-.735509-2.89758-2.574946-4.02481-4.023129"/>
    <path d="M92.209735 56.796835c1.197581-.521481.997231-.942308 2.255955-1.630546M93.112116 60.370158c-.605376-.165684-.910026-.238926-1.422986-.312232M101.4765 60.196696c.14695-.551799-.34164-1.064925-.69414-1.69993M114.18954 63.904534c4.80424.399153 7.41743-.595417 7.90238-2.943753.11964-.921154.88309-1.924924 1.66882-2.845627M123.87986 62.104781c-.43295-.584943-.46028-1.227806-.59002-1.856047" style="fill:none;fill-rule:evenodd;stroke:#000;stroke-width:.15219107;stroke-linecap:butt;stroke-linejoin:miter;stroke-miterlimit:4;stroke-dasharray:none;stroke-opacity:1"/>
    <path d="M108.54499 49.529207c2.4395-.22371 5.3699-1.479444 6.23355-3.385315l1.17799-.441564.49083-4.121254-5.49731-5.887506-6.13538 1.373752c.00005.817709.21523 1.512762-.12271 2.330471-.23779.359053-.29566.295547-.34358.907657.13887.417178.31427.806973.71171 1.030314.12411 1.439168.00511 2.878336.73624 4.317504 1.27472 1.406827 1.02814 4.092995 2.74866 3.875941z" style="fill:#f7caa2;fill-opacity:1;fill-rule:evenodd;stroke:#000;stroke-width:.15219107;stroke-linecap:butt;stroke-linejoin:miter;stroke-miterlimit:4;stroke-dasharray:none;stroke-opacity:1"/>
    <path d="M116.76641 48.229049c-.07734.00348-.28603.024532-.44175.024532-.08034 0-.12271-.377661-.12271-.441563 0-.142972-.11405-.212127-.19633-.294375-.04206-.042038.02454-.318378.02454-.392501 0-.130616-.11627-.236735-.19634-.343437-.05583-.074421-.02454-.247164-.02454-.343438 0-.017819-.2357-.089566-.26995-.098125-.10348-.025858.05041-.215474.02454-.318907-.0264-.105533-.11749-.126333-.14725-.245313-.03779-.151109-.13488-.074003-.09817-.220781.0382-.152752-.00345-.178626-.07362-.318907-.05255-.105054-.09311-.140446-.17179-.245312-.09878-.131647-.17179-.127324-.17179-.294376 0-.181609-.05052-.221499-.19634-.294375-.11522-.057587-.10892-.251345-.09816-.294375.02107-.084274.19053-.141394.24541-.196251.07032-.070286.17874-.075329.26996-.098125.10738-.026833.18255-.189364.2945-.245312.10202-.050992.1259-.261271.14725-.36797.03306-.165229.03222-.325088.07362-.490625.03175-.126946.02454-.257639.02454-.392501v-.367969c0-.186376-.0306-.251372-.1227-.343438-.08933-.089286-.14423-.146432-.24542-.171719-.13008-.032507-.27095.000988-.34358.073595-.08715.087107-.09817.238046-.09817.367968 0 .177283.00982.260025-.07362.343438-.09716.09712-.19843.197822-.2945.269844-.09598.071958-.14261.191613-.19633.245313-.10153.10149-.13975.172227-.26996.269844-.06212.046575-.33599 0-.41721 0-.14205 0-.14318-.204529-.17179-.318906-.03962-.158421-.14396-.242031-.22087-.318907-.12997-.129911-.3033-.180518-.41721-.294375-.13142-.131361-.20223-.204094-.04908-.318907.08911-.066803.16429-.139693.22088-.19625.07031-.070292.07362-.180382.07362-.294375 0-.120493-.12467-.173679-.19633-.245313-.08913-.089086-.16008-.173937-.19634-.318907-.01456-.058251-.01507-.060275-.02454-.098125-.03549-.141908-.27559-.108484-.39266-.19625-.13661-.102411-.17361-.264094-.26996-.3925-.07729-.103009-.17254-.153885-.2945-.245313-.14503-.108732-.26995-.101303-.26995-.294375 0-.177561-.08126-.266196-.17179-.417032-.11323-.188621-.24542-.238179-.24542-.466094 0-.154293.1227-.289233.1227-.466095 0-.118094.04909-.276268.04909-.417031 0-.155841-.00429-.278421-.04909-.367969-.0321-.064177-.21023-.129605-.29449-.171719-.12285-.0614-.25254-.059549-.39267-.024531-.19014.047516-.31.122656-.51537.122656-.1454 0-.34957-.20687-.46629-.294375-.14401-.107962-.23161-.122657-.41721-.122657-.17326 0-.29192-.00257-.39266.098125-.13993.139869-.41163.219389-.61354.269844-.42878.107151-.87667.196251-1.32524.196251-.20767 0-.42559.024531-.63808.024531-.23785 0-.36829.081992-.49083.245312-.12611.168071-.23487.308363-.34359.417032-.12305.123005-.18941.262926-.29449.367969-.06456.06453-.30692.024532-.39267.024532-.11152 0-.20859.024531-.34358.024531-.10949 0-.21492.072106-.31904.098125-.11534.028825-.20695.010473-.2945-.024531-.08998-.016354-.17997-.032709-.26995-.049063-.2166-.039365-.2945-.522415-.2945-.686875v-.735939c0-.247261-.06556-.522901 0-.785001.08213-.32839-.09454-.437934-.24542-.58875-.16563-.165563-.19633-.316218-.19633-.58875 0-.271521.05906-.412447.19633-.686877.09946-.198836.25738-.352403.44175-.490625.1204-.090262.25165-.300609.44175-.490625.18475-.184677.34576-.345615.49083-.490626.13342-.13337.52811.011791.68716-.147188.18869-.188606.30451-.348438.49083-.441563.17829-.089107.63107 0 .83442 0 .3994 0 .35436-.059834.58899-.294374.20624-.206152.24346-.268868.49083-.392501.17743-.088679.65601.004479.83441.049062.30305.07573.49465-.052878.63809-.19625.11244-.112399.46636-.116542.58899-.147188.2392-.059775.48996.000217.68717-.049062.218-.054479.45348-.150122.63808-.19625.21403-.053486.51432 0 .73624 0 .25564 0 .53292.098125.78533.098125h.8835c.32613 0 .74849.300499 1.03074.441563.28291.141396.42089.357545.68717.490625.20593.102923.49189.098659.68716.19625.24651.123205.41665.29328.53991.539689.10916.218224.59127.393636.78533.490625.27774.138813.43867.316599.73625.539688.27979.209755.43619.354315.78533.441563.64462.145756.75629.13574.73624.834063 0 .154153.16273.503438.19634.637814.06565.26251.14856.397742.19633.58875.065.259913.09816.496202.09816.785001V38.784509c0 .099756.28158.464777.34359.588751.10655.213012.18164.33376.24541.58875.07839.313429.19634.502333.19634.785001v.735938c0 .177032-.24272.536986-.34359.637814-.14212.142067-.34358.114309-.34358.441563 0 .128439-.09817.411322-.09817.637812 0 .241415-.14725.327882-.14725.637814 0 .280885.04909.406416.04909.686875 0 .143372.15643.38015.19633.539688.06105.244071 0 .583773 0 .834064 0 .182839-.33382.31403-.49083.3925-.1697.084813-.31511.265921-.44175.3925-.16279.162721.02314-.046256-.04908.098126.01343.069072.01473.127805.01473.197163 0 .091634.03944.189242.01735.27754-.03006.12021-.07854.1132-.17353.208155-.07058.070544-.10216.154158-.17354.2255-.06849.068462-.10886.069385-.22559.069385-.12771 0-.20807.017172-.29501.104078-.06997.069938-.14608.165892-.2256.225501-.04429.033209-.16545.070572-.20824.156116-.0299.059776-.13887.112728-.22559.069385-.08218-.041072-.17563-.018839-.26031-.052039-.02843-.011146-.05685-.022293-.08528-.03344z" style="fill:#000;fill-opacity:1;fill-rule:evenodd;stroke:#000;stroke-width:.15219107;stroke-linecap:butt;stroke-linejoin:miter;stroke-miterlimit:4;stroke-dasharray:none;stroke-opacity:1"/>
    <path d="m83.359451 16.033192 1.943596-1.179543-.208246-4.301865-8.329675-8.7425014L79.611098 13.32718l3.748353 2.706012z" style="fill:#e6e6e6;fill-opacity:1;fill-rule:evenodd;stroke:#000;stroke-width:.15219107;stroke-linecap:butt;stroke-linejoin:miter;stroke-miterlimit:4;stroke-dasharray:none;stroke-opacity:1"/>
    <path d="M76.695714 1.9480536 84.53949 15.408728" style="fill:none;fill-rule:evenodd;stroke:#000;stroke-width:.15219107;stroke-linecap:butt;stroke-linejoin:miter;stroke-miterlimit:4;stroke-dasharray:none;stroke-opacity:1"/>
    <path d="M113.06864 17.073967c-3.75723 3.235766-8.93204 2.147511-10.898 1.248928-4.224642-2.217828-10.426363-3.839021-16.659352-3.052936l-1.874179 1.248928 1.111658 1.901631c2.711831.022717 5.129693.94362 6.031902 2.546903 7.472314-.980763 15.922291 5.248729 22.287971-3.893454z" style="fill:#eac102;fill-opacity:1;fill-rule:evenodd;stroke:#000;stroke-width:.15219107000000001;stroke-linecap:butt;stroke-linejoin:miter;stroke-miterlimit:4;stroke-dasharray:none;stroke-opacity:1"/>
    <path style="fill:#ea1c24;fill-opacity:1;fill-rule:evenodd;stroke:#000;stroke-width:.1521436;stroke-linecap:butt;stroke-linejoin:miter;stroke-miterlimit:4;stroke-dasharray:none;stroke-opacity:1" d="m90.223013 28.085847 2.114708-1.024217c1.568493-.765046 2.142575-.53609 3.03035-.620699 16.954339-1.255644 15.874989-7.720074 17.700569-9.366964-5.2026 8.410997-16.422176 4.133254-21.96813 5.903458-.230641.905477-.88388 2.202707-1.940654 3.307211l1.063157 1.801211z"/>
    <path style="fill:#0071bc;fill-opacity:1;fill-rule:evenodd;stroke:#000;stroke-width:.15219107000000001;stroke-linecap:butt;stroke-linejoin:miter;stroke-miterlimit:4;stroke-dasharray:none;stroke-opacity:1" d="M113.06864 17.073967c-8.16944 9.048798-14.865775-.064666-23.478791 2.638782 1.181494.814351 1.810058 1.988436 1.477609 3.450169 6.407341-1.874413 15.569122 3.589101 22.001182-6.088951z"/>
    <path d="M108.00141 41.185227c-.02615.321744-.15677 1.237452-.59002 1.734623l.06731 2.134458c.05911.209313.37871.19705.69625.051167.02287-.313923.35328-.461272.83296-.709962" style="fill:none;fill-rule:evenodd;stroke:#000;stroke-width:.15219107;stroke-linecap:butt;stroke-linejoin:miter;stroke-miterlimit:4;stroke-dasharray:none;stroke-opacity:1"/>
    <path d="m108.91292 41.323997.42514.009507c-.05155 1.066845 1.02504.804154.87675.014018l.50287.011167-.01735-.008673c-.56449-.165187-1.15365-.207086-1.78741-.026019z" style="fill:#000;fill-opacity:1;fill-rule:evenodd;stroke:#000;stroke-width:.15219107;stroke-linecap:butt;stroke-linejoin:miter;stroke-miterlimit:4;stroke-dasharray:none;stroke-opacity:1"/>
    <path d="m104.80837 40.213838 2.08242.069385.5206.589772M108.20966 40.838302l.48589-.555079h2.4642" style="fill:none;fill-rule:evenodd;stroke:#000;stroke-width:.52320099px;stroke-linecap:butt;stroke-linejoin:miter;stroke-opacity:1"/>
    <path style="fill:#000;fill-opacity:1;fill-rule:evenodd;stroke:#000;stroke-width:.15219107;stroke-linecap:butt;stroke-linejoin:miter;stroke-miterlimit:4;stroke-dasharray:none;stroke-opacity:1" d="m105.25956 41.323997.42515.009507c-.05156 1.066845 1.02503.804154.87674.014018l.50287.011167-.01735-.008673c-.56448-.165187-1.15364-.207086-1.78741-.026019zM107.12059 46.11787c1.38748.154158 1.21876-.024671 2.57581-.302943-.74709.258688-.54674.703575-1.5041.712939-.80052.072387-.61868-.151006-1.07171-.409996zM100.69169 75.287046c1.45123.537895 2.24611 2.030084 2.25782 4.660942-1.47561 1.629188-2.95921 3.25765-5.840882 4.759068-.467421-1.651938-.686285-4.773885-.294498-7.31032 1.969128-.28363 3.47903-1.509494 3.87756-2.10969z"/>
    <path d="M113.20746 69.546314c1.37352.149122 2.32675-.114493 3.00215-.364271M113.7888 70.76489c1.37352.149121 2.32675-.114494 3.00215-.364271M114.5003 71.927087c1.37352.149122 2.32675-.114493 3.00215-.364271" style="fill:none;fill-rule:evenodd;stroke:#000;stroke-width:.15219107;stroke-linecap:butt;stroke-linejoin:miter;stroke-miterlimit:4;stroke-dasharray:none;stroke-opacity:1"/>
  </g>
  <g style="stroke:#000;stroke-width:.16512464;stroke-miterlimit:4;stroke-dasharray:none;stroke-opacity:1">
    <g style="fill-rule:evenodd;stroke:#000;stroke-width:.16512464;stroke-miterlimit:4;stroke-dasharray:none;stroke-opacity:1">
      <path class="fil5 str15" d="M80.05 14.3093c.2023 1.6556 3.4203 3.9234 6.4209 3.5356-.9598.7475-2.1703 2.6563-2.3976 3.0479 1.6708.237 4.8562-.3521 6.2177-1.2598-.0301.3277-1.2847 1.0181-1.4224 1.8287.9209.3251 3.5196.0827 4.7141-.3657 2.1003-.7886 3.5769-2.0529 4.6201-3.4839.9754 2.1438 3.5908 1.3885 4.7268.5985-1.6037-1.3817-1.3265-3.0826-1.0972-3.7794 1.365.2716 2.3032 1.4745 3.0072 2.5603 1.097-.4388 2.316-1.7869 2.7228-3.0886-.0808 1.9714 1.7999 2.3294 3.942 2.0726-.8687-1.0322-1.0829-4.1952 2.5604-3.6927-.6408 1.8581.8842 3.9159 3.1619 3.9372 1.8362.0172 3.7803-1.3911 3.9882-3.1545.3803-3.2283-1.9998-5.4416-4.883-6.3937-3.7533-1.2391-8.9964-.6452-12.7821.8018-3.3277 1.272-7.1548 3.3861-10.3521 4.3201-4.3697 1.2767-8.3319-.603-8.4164-2.0279 1.9335-.6411 3.8926-.6897 5.9259-.4736-.8611-1.501-1.7098-2.4855-3.1118-3.2624-1.4559-.7373-2.8689-.7117-4.116.3338-2.2213 1.9446-3.708 5.1447-3.4294 7.9457h0z" style="fill:#eac102;stroke:#000;stroke-width:.16512464;stroke-linecap:round;stroke-linejoin:round;stroke-miterlimit:4;stroke-dasharray:none;stroke-opacity:1" transform="matrix(.84042 0 0 .83783 -36.18017963 141.6660648)"/>
      <path class="fil2 str15" d="M98.2028 17.6121c-.8346-3.9539 3.6667-9.4505 8.1597-10.9753M105.043 11.9929c1.6972-3.1949 5.9521-5.9842 10.0378-5.6572M116.3 13.4153c.5664.9955 2.7259.307 2.3799-1.3808-.4511-2.2015-3.8537-2.0918-4.6148.2483" style="fill:none;stroke:#000;stroke-width:.16512464;stroke-linecap:round;stroke-linejoin:round;stroke-miterlimit:4;stroke-dasharray:none;stroke-opacity:1" transform="matrix(.84042 0 0 .83783 -36.18017963 141.6660648)"/>
      <path class="fil2 str15" d="M107.562 13.9029c1.2037-3.8522 4.8823-6.3734 9.1031-4.6328 1.2725.5246 2.1729 1.7954 2.05 3.1858M90.291 19.633c3.3838-2.6594 3.2522-4.1245 4.9445-6.1275.634-.7503 2.549-2.5565 3.6864-3.3688M86.4709 17.8449c.7968-.9627 2.6552-.5682 4.1313-1.6671M84.7813 9.7658c-1.4337.439-4.8844 1.778-4.7313 4.5435M90.7072 9.2922c-2.922-1.7268-6.746-3.4324-9.4056-.2365" style="fill:none;stroke:#000;stroke-width:.16512464;stroke-linecap:round;stroke-linejoin:round;stroke-miterlimit:4;stroke-dasharray:none;stroke-opacity:1" transform="matrix(.84042 0 0 .83783 -36.18017963 141.6660648)"/>
      <path class="fil2 str15" d="M82.3664 10.8088c-.847 4.259 5.4703 4.6297 10.1411 3.311M101.832 14.4312c.2551-.8498.61-1.5809 1.0051-2.1836" style="fill:none;stroke:#000;stroke-width:.16512464;stroke-linecap:round;stroke-linejoin:round;stroke-miterlimit:4;stroke-dasharray:none;stroke-opacity:1" transform="matrix(.84042 0 0 .83783 -36.18017963 141.6660648)"/>
    </g>
    <g style="fill-rule:evenodd;stroke:#000;stroke-width:.16512464;stroke-miterlimit:4;stroke-dasharray:none;stroke-opacity:1">
      <path class="fil5 str15" d="M167.107 14.3093c-.2022 1.6556-3.4202 3.9234-6.4209 3.5356.9598.7475 2.1703 2.6563 2.3977 3.0479-1.6709.237-4.8562-.3521-6.2177-1.2598.03.3277 1.2847 1.0181 1.4223 1.8287-.9208.3251-3.5196.0827-4.7141-.3657-2.1003-.7886-3.5769-2.0529-4.6201-3.4839-.9753 2.1438-3.5908 1.3885-4.7268.5985 1.6037-1.3817 1.3265-3.0826 1.0973-3.7794-1.3651.2716-2.3033 1.4745-3.0073 2.5603-1.097-.4388-2.3159-1.7869-2.7228-3.0886.0808 1.9714-1.7998 2.3294-3.9419 2.0726.8687-1.0322 1.0829-4.1952-2.5605-3.6927.6408 1.8581-.8842 3.9159-3.1618 3.9372-1.8363.0172-3.7804-1.3911-3.9883-3.1545-.3803-3.2283 1.9998-5.4416 4.883-6.3937 3.7534-1.2391 8.9964-.6452 12.7822.8018 3.3277 1.272 7.1547 3.3861 10.352 4.3201 4.3698 1.2767 8.3319-.603 8.4165-2.0279-1.9335-.6411-3.8926-.6897-5.926-.4736.8612-1.501 1.7099-2.4855 3.1118-3.2624 1.456-.7373 2.8689-.7117 4.116.3338 2.2213 1.9446 3.708 5.1447 3.4294 7.9457h0z" style="fill:#eac102;stroke:#000;stroke-width:.16512464;stroke-linecap:round;stroke-linejoin:round;stroke-miterlimit:4;stroke-dasharray:none;stroke-opacity:1" transform="matrix(.84042 0 0 .83783 -36.18017963 141.6660648)"/>
      <path class="fil2 str15" d="M148.954 17.6121c.8346-3.9539-3.6666-9.4505-8.1597-10.9753M142.114 11.9929c-1.6972-3.1949-5.952-5.9842-10.0377-5.6572M130.857 13.4153c-.5663.9955-2.7258.307-2.3798-1.3808.451-2.2015 3.8536-2.0918 4.6147.2483" style="fill:none;stroke:#000;stroke-width:.16512464;stroke-linecap:round;stroke-linejoin:round;stroke-miterlimit:4;stroke-dasharray:none;stroke-opacity:1" transform="matrix(.84042 0 0 .83783 -36.18017963 141.6660648)"/>
      <path class="fil2 str15" d="M139.595 13.9029c-1.2036-3.8522-4.8823-6.3734-9.103-4.6328-1.2725.5246-2.1729 1.7954-2.0501 3.1858M156.866 19.633c-3.3838-2.6594-3.2523-4.1245-4.9446-6.1275-.634-.7503-2.5489-2.5565-3.6863-3.3688M160.686 17.8449c-.7968-.9627-2.6551-.5682-4.1313-1.6671M162.376 9.7658c1.4336.439 4.8844 1.778 4.7312 4.5435M156.45 9.2922c2.922-1.7268 6.746-3.4324 9.4056-.2365" style="fill:none;stroke:#000;stroke-width:.16512464;stroke-linecap:round;stroke-linejoin:round;stroke-miterlimit:4;stroke-dasharray:none;stroke-opacity:1" transform="matrix(.84042 0 0 .83783 -36.18017963 141.6660648)"/>
      <path class="fil2 str15" d="M164.791 10.8088c.8471 4.259-5.4702 4.6297-10.1411 3.311M145.325 14.4312c-.2551-.8498-.6101-1.5809-1.0052-2.1836" style="fill:none;stroke:#000;stroke-width:.16512464;stroke-linecap:round;stroke-linejoin:round;stroke-miterlimit:4;stroke-dasharray:none;stroke-opacity:1" transform="matrix(.84042 0 0 .83783 -36.18017963 141.6660648)"/>
    </g>
  </g>
  <path style="fill:#008f4c;fill-rule:evenodd;stroke:#000;stroke-width:.16220000000000001;stroke-linecap:butt;stroke-linejoin:miter;stroke-miterlimit:4;stroke-dasharray:none;stroke-opacity:1;fill-opacity:1" d="m68.139597 76.121584 3.61337-8.752376 6.74495 9.715941h3.13158l-8.91297-13.329307h-2.97099l-2.243965 6.102574-2.243963-6.102574h-2.97099l-8.912972 13.329307h3.13158l6.744956-9.715941 3.613367 8.752376h1.276047z"/>
  <path style="fill:#eac102;fill-opacity:1;fill-rule:evenodd;stroke:#000;stroke-width:.1622;stroke-linecap:butt;stroke-linejoin:miter;stroke-miterlimit:4;stroke-dasharray:none;stroke-opacity:1" d="M61.852468 73.679147h10.73115c2.935862.066379 4.389686-6.223459-.227114-6.870207l-10.504036-.056779v6.926986zm1.786396-1.530892h7.777507c2.093256.299646 2.792727-3.714981-.168209-3.778602l-7.609298-.029821v3.808423z"/>
  <g>
    <path style="fill:#000;fill-opacity:1;fill-rule:evenodd;stroke:#000;stroke-width:2.78421259;stroke-linecap:butt;stroke-linejoin:round;stroke-miterlimit:4;stroke-dasharray:none;stroke-opacity:1;display:inline" d="m340.72596 347.2217-25.063.05391c-23.65837-.01586-23.59451 27.31708-.20257 27.37663l25.65782.00367c23.16993-.11332 23.00916-27.44969-.39225-27.43421zm.18815 5.39895-26.34367.1103c-14.80477-.01242-14.82311 16.34033.40867 16.38696l26.17516-.0653c15.97328-.31616 15.0651-16.30241-.24016-16.43196z" transform="matrix(.09445 .01355 .01346 -.10681 12.28918461 171.42236313)"/>
    <path style="fill:#000;fill-opacity:1;fill-rule:evenodd;stroke:#000;stroke-width:1.26485097px;stroke-linecap:butt;stroke-linejoin:miter;stroke-opacity:1" d="M342.15809 357.15375h41.36566v7.73516h-41.36566v-7.73516z" transform="matrix(.09445 .01355 .01346 -.10681 12.28918461 171.42236313)"/>
    <path d="m410.1643 347.38676-25.063.05391c-23.65837-.01586-23.59451 27.31708-.20257 27.37663l25.65782.00367c23.16993-.11332 23.00916-27.44969-.39225-27.43421zm.18815 5.39895-26.34367.1103c-14.80477-.01242-14.82311 16.34033.40867 16.38696l26.17516-.0653c15.97328-.31616 15.0651-16.30241-.24016-16.43196z" style="fill:#000;fill-opacity:1;fill-rule:evenodd;stroke:#000;stroke-width:2.78421259;stroke-linecap:butt;stroke-linejoin:round;stroke-miterlimit:4;stroke-dasharray:none;stroke-opacity:1;display:inline" transform="matrix(.09445 .01355 .01346 -.10681 12.28918461 171.42236313)"/>
    <path style="fill:#000;fill-opacity:1;fill-rule:evenodd;stroke:#000;stroke-width:3.46647382;stroke-linecap:butt;stroke-linejoin:round;stroke-miterlimit:4;stroke-dasharray:none;stroke-opacity:1;display:inline" d="m781.82531 325.2273-.5797-29.29554c-.45866-27.65296-36.71172-27.87898-36.3164-.53792l.51534 29.99018c.62011 27.08346 36.87575 27.19624 36.38076-.15672zm-7.15736.16053-.68044-30.79309c-.28371-17.30443-21.97435-17.50575-21.72734.29743l.61733 30.59561c.74323 18.67389 21.92895 17.7882 21.79045-.09995z" transform="matrix(-.01082 .08044 .081 .0102 44.55928004 74.68619946)"/>
    <path d="m766.84349 244.46038.83871 48.35033-10.25991-.08507-.83872-48.35034 10.25992.08508z" style="fill:#000;fill-opacity:1;fill-rule:evenodd;stroke:#000;stroke-width:1.57479811px;stroke-linecap:butt;stroke-linejoin:miter;stroke-opacity:1" transform="matrix(-.01082 .08044 .081 .0102 44.55928004 74.68619946)"/>
    <path d="m764.43788 95.658842.50689 29.221348-10.61119-.08806-.50689-29.221343 10.61119.088055z" style="fill:#000;fill-opacity:1;fill-rule:evenodd;stroke:#000;stroke-width:1.24504638px;stroke-linecap:butt;stroke-linejoin:miter;stroke-opacity:1" transform="matrix(-.01082 .08044 .081 .0102 44.55928004 74.68619946)"/>
    <path style="fill:#000;fill-opacity:1;fill-rule:evenodd;stroke:#000;stroke-width:1.57479811px;stroke-linecap:butt;stroke-linejoin:miter;stroke-opacity:1" d="m768.37389 325.87248.83871 48.35033-10.25991-.08507-.83872-48.35034 10.25992.08508z" transform="matrix(-.01082 .08044 .081 .0102 44.55928004 74.68619946)"/>
  </g>
  <g>
    <path d="m340.72596 347.2217-25.063.05391c-23.65837-.01586-23.59451 27.31708-.20257 27.37663l25.65782.00367c23.16993-.11332 23.00916-27.44969-.39225-27.43421zm.18815 5.39895-26.34367.1103c-14.80477-.01242-14.82311 16.34033.40867 16.38696l26.17516-.0653c15.97328-.31616 15.0651-16.30241-.24016-16.43196z" style="fill:#000;fill-opacity:1;fill-rule:evenodd;stroke:#000;stroke-width:2.78421259;stroke-linecap:butt;stroke-linejoin:round;stroke-miterlimit:4;stroke-dasharray:none;stroke-opacity:1;display:inline" transform="matrix(-.09445 .01355 -.01346 -.10681 122.42056339 171.42236313)"/>
    <path d="M342.15809 357.15375h41.36566v7.73516h-41.36566v-7.73516z" style="fill:#000;fill-opacity:1;fill-rule:evenodd;stroke:#000;stroke-width:1.26485097px;stroke-linecap:butt;stroke-linejoin:miter;stroke-opacity:1" transform="matrix(-.09445 .01355 -.01346 -.10681 122.42056339 171.42236313)"/>
    <path style="fill:#000;fill-opacity:1;fill-rule:evenodd;stroke:#000;stroke-width:2.78421259;stroke-linecap:butt;stroke-linejoin:round;stroke-miterlimit:4;stroke-dasharray:none;stroke-opacity:1;display:inline" d="m410.1643 347.38676-25.063.05391c-23.65837-.01586-23.59451 27.31708-.20257 27.37663l25.65782.00367c23.16993-.11332 23.00916-27.44969-.39225-27.43421zm.18815 5.39895-26.34367.1103c-14.80477-.01242-14.82311 16.34033.40867 16.38696l26.17516-.0653c15.97328-.31616 15.0651-16.30241-.24016-16.43196z" transform="matrix(-.09445 .01355 -.01346 -.10681 122.42056339 171.42236313)"/>
    <path d="m781.82531 325.2273-.5797-29.29554c-.45866-27.65296-36.71172-27.87898-36.3164-.53792l.51534 29.99018c.62011 27.08346 36.87575 27.19624 36.38076-.15672zm-7.15736.16053-.68044-30.79309c-.28371-17.30443-21.97435-17.50575-21.72734.29743l.61733 30.59561c.74323 18.67389 21.92895 17.7882 21.79045-.09995z" style="fill:#000;fill-opacity:1;fill-rule:evenodd;stroke:#000;stroke-width:3.46647382;stroke-linecap:butt;stroke-linejoin:round;stroke-miterlimit:4;stroke-dasharray:none;stroke-opacity:1;display:inline" transform="matrix(.01082 .08044 -.081 .0102 90.15046796 74.68619946)"/>
    <path style="fill:#000;fill-opacity:1;fill-rule:evenodd;stroke:#000;stroke-width:1.57479811px;stroke-linecap:butt;stroke-linejoin:miter;stroke-opacity:1" d="m766.84349 244.46038.83871 48.35033-10.25991-.08507-.83872-48.35034 10.25992.08508z" transform="matrix(.01082 .08044 -.081 .0102 90.15046796 74.68619946)"/>
    <path style="fill:#000;fill-opacity:1;fill-rule:evenodd;stroke:#000;stroke-width:1.24504638px;stroke-linecap:butt;stroke-linejoin:miter;stroke-opacity:1" d="m764.43788 95.658842.50689 29.221348-10.61119-.08806-.50689-29.221343 10.61119.088055z" transform="matrix(.01082 .08044 -.081 .0102 90.15046796 74.68619946)"/>
    <path d="m768.37389 325.87248.83871 48.35033-10.25991-.08507-.83872-48.35034 10.25992.08508z" style="fill:#000;fill-opacity:1;fill-rule:evenodd;stroke:#000;stroke-width:1.57479811px;stroke-linecap:butt;stroke-linejoin:miter;stroke-opacity:1" transform="matrix(.01082 .08044 -.081 .0102 90.15046796 74.68619946)"/>
  </g>
  <path style="fill:none;fill-rule:evenodd;stroke:#000;stroke-width:.1622;stroke-linecap:butt;stroke-linejoin:miter;stroke-opacity:1;stroke-miterlimit:4;stroke-dasharray:none" d="M38.711061 114.01548h2.71462M41.425681 114.69414h1.922857M35.770222 115.4859h2.82773"/>
  <path style="fill:none;fill-rule:evenodd;stroke:#000;stroke-width:.1622;stroke-linecap:butt;stroke-linejoin:miter;stroke-miterlimit:4;stroke-dasharray:none;stroke-opacity:1" d="M37.24146 117.6352h3.280167"/>
  <path style="fill:none;fill-rule:evenodd;stroke:#000;stroke-width:.1622;stroke-linecap:butt;stroke-linejoin:miter;stroke-opacity:1;stroke-miterlimit:4;stroke-dasharray:none" d="M43.00921 120.3496h4.071931M50.02198 115.93834h4.750586M55.338112 115.03347h2.375293"/>
  <path style="fill:none;fill-rule:evenodd;stroke:#000;stroke-width:.1622;stroke-linecap:butt;stroke-linejoin:miter;stroke-miterlimit:4;stroke-dasharray:none;stroke-opacity:1" d="M76.717014 115.26028h3.619494"/>
  <path style="fill:none;fill-rule:evenodd;stroke:#000;stroke-width:.1622;stroke-linecap:butt;stroke-linejoin:miter;stroke-opacity:1;stroke-miterlimit:4;stroke-dasharray:none" d="M35.091567 128.26724h6.89966"/>
  <path style="fill:none;fill-rule:evenodd;stroke:#000;stroke-width:.1622;stroke-linecap:butt;stroke-linejoin:miter;stroke-miterlimit:4;stroke-dasharray:none;stroke-opacity:1" d="M37.920487 125.21329h4.750586"/>
  <path style="fill:none;fill-rule:evenodd;stroke:#000;stroke-width:.1622;stroke-linecap:butt;stroke-linejoin:miter;stroke-opacity:1;stroke-miterlimit:4;stroke-dasharray:none" d="M51.944836 126.00506h6.560333M94.360786 114.35481h-2.71462M91.646166 115.03347h-1.922857M97.30162 115.82523h-2.827725M97.075407 117.63498H93.79524"/>
  <path style="fill:none;fill-rule:evenodd;stroke:#000;stroke-width:.1622;stroke-linecap:butt;stroke-linejoin:miter;stroke-miterlimit:4;stroke-dasharray:none;stroke-opacity:1" d="M88.025332 120.57575h-4.071934"/>
  <path style="fill:none;fill-rule:evenodd;stroke:#000;stroke-width:.1622;stroke-linecap:butt;stroke-linejoin:miter;stroke-opacity:1;stroke-miterlimit:4;stroke-dasharray:none" d="M97.98028 128.60657h-6.89966"/>
  <path style="fill:none;fill-rule:evenodd;stroke:#000;stroke-width:.1622;stroke-linecap:butt;stroke-linejoin:miter;stroke-miterlimit:4;stroke-dasharray:none;stroke-opacity:1" d="M98.433685 124.76033h-4.750586M76.671251 119.4166h-4.071934M82.953647 114.5497H81.03079M72.427572 113.98378h-1.922857"/>
</svg>
