<?xml version="1.0" encoding="UTF-8" standalone="no"?>
<!DOCTYPE svg PUBLIC "-//W3C//DTD SVG 1.1//EN" "http://www.w3.org/Graphics/SVG/1.1/DTD/svg11.dtd">
<svg height="495.4pt" stroke-miterlimit="10" style="fill-rule:nonzero;clip-rule:evenodd;stroke-linecap:round;stroke-linejoin:round;" version="1.1" viewBox="0 0 425.4 495.4" width="425.4pt" xml:space="preserve" xmlns="http://www.w3.org/2000/svg" xmlns:xlink="http://www.w3.org/1999/xlink">
<defs/>
<clipPath id="ArtboardFrame">
<rect height="495.4" width="425.4" x="0" y="0"/>
</clipPath>
<g clip-path="url(#ArtboardFrame)" id="Layer-1">
<g opacity="1">
<path d="M2.20126 2.20126L2.20126 213.358C2.20126 367.908 96.4453 493.201 212.701 493.201C328.957 493.201 423.201 367.908 423.201 213.358L423.201 2.20126L350.733 2.20126L74.67 2.20126L2.20126 2.20126Z" fill="#d9241c" fill-rule="nonzero" opacity="1" stroke="#000000" stroke-linecap="butt" stroke-linejoin="round" stroke-width="4.4"/>
<path d="M92.8888 398.67C92.8888 404.237 82.7363 408.764 70.2325 408.764C67.1506 408.764 64.223 408.479 61.545 407.983C99.8096 460.497 153.362 493.201 212.701 493.201C271.843 493.201 325.244 460.722 363.483 408.514C352.37 407.871 343.639 403.793 343.639 398.67C343.639 404.237 333.518 408.764 321.014 408.764C308.51 408.764 298.357 404.237 298.358 398.67C298.358 404.237 288.236 408.764 275.733 408.764C263.229 408.764 253.076 404.237 253.076 398.67C253.076 404.237 242.955 408.764 230.451 408.764C217.947 408.764 207.795 404.237 207.795 398.67L183.451 398.67C183.451 404.237 173.299 408.764 160.795 408.764C148.291 408.764 138.17 404.237 138.17 398.67C138.17 404.237 128.018 408.764 115.514 408.764C103.01 408.764 92.8888 404.237 92.8888 398.67Z" fill="#1b62b6" fill-rule="nonzero" opacity="1" stroke="#010101" stroke-linecap="round" stroke-linejoin="round" stroke-width="4.11"/>
<path d="M94.7638 415.451C94.7638 415.738 94.5987 416.151 94.0763 416.701C93.3246 417.493 92.0793 418.289 90.4513 419.014C86.763 420.656 81.6121 421.639 76.045 421.639C74.5653 421.639 73.2308 421.397 71.8263 421.264C74.0988 423.987 76.4031 426.641 78.7638 429.233C87.1174 428.815 94.4443 426.64 98.67 422.983C103.369 427.042 111.815 429.42 121.326 429.42C130.838 429.42 139.262 427.042 143.951 422.983C148.65 427.042 157.096 429.42 166.608 429.42C176.119 429.42 184.543 427.042 189.233 422.983C193.931 427.042 202.377 429.42 211.889 429.42C221.4 429.42 229.824 427.042 234.514 422.983C239.212 427.042 247.659 429.42 257.17 429.42C266.681 429.42 275.106 427.042 279.795 422.983C284.494 427.042 292.94 429.42 302.451 429.42C311.963 429.42 320.387 427.042 325.076 422.983C329.569 426.871 337.525 429.167 346.545 429.358C348.987 426.681 351.354 423.926 353.701 421.108C351.767 421.371 349.806 421.639 347.701 421.639C342.134 421.639 336.983 420.656 333.295 419.014C331.667 418.289 330.422 417.493 329.67 416.701C329.148 416.151 328.982 415.738 328.983 415.451L321.17 415.451C321.17 415.738 321.005 416.151 320.483 416.701C319.731 417.493 318.486 418.289 316.858 419.014C313.169 420.656 308.018 421.639 302.451 421.639C296.884 421.639 291.702 420.656 288.014 419.014C286.386 418.289 285.14 417.493 284.389 416.701C283.866 416.151 283.701 415.738 283.701 415.451L275.889 415.451C275.889 415.738 275.724 416.151 275.201 416.701C274.45 417.493 273.204 418.289 271.576 419.014C267.888 420.656 262.737 421.639 257.17 421.639C251.603 421.639 246.421 420.656 242.733 419.014C241.104 418.289 239.859 417.493 239.108 416.701C238.585 416.151 238.42 415.738 238.42 415.451L230.608 415.451C230.608 415.738 230.443 416.151 229.92 416.701C229.168 417.493 227.923 418.289 226.295 419.014C222.607 420.656 217.456 421.639 211.889 421.639C206.322 421.639 201.14 420.656 197.451 419.014C195.823 418.289 194.578 417.493 193.826 416.701C193.304 416.151 193.139 415.738 193.139 415.451L185.326 415.451C185.326 415.738 185.161 416.151 184.639 416.701C183.887 417.493 182.642 418.289 181.014 419.014C177.326 420.656 172.175 421.639 166.608 421.639C161.04 421.639 155.858 420.656 152.17 419.014C150.542 418.289 149.328 417.493 148.576 416.701C148.054 416.151 147.857 415.738 147.858 415.451L140.045 415.451C140.045 415.738 139.88 416.151 139.358 416.701C138.606 417.493 137.361 418.289 135.733 419.014C132.044 420.656 126.893 421.639 121.326 421.639C115.759 421.639 110.577 420.656 106.889 419.014C105.261 418.289 104.047 417.493 103.295 416.701C102.773 416.151 102.576 415.738 102.576 415.451L94.7638 415.451Z" fill="#fefefe" fill-rule="nonzero" opacity="1" stroke="none"/>
<path d="M117.451 442.826C117.451 443.113 117.255 443.495 116.733 444.045C115.981 444.836 114.736 445.664 113.108 446.389C109.528 447.982 104.548 448.926 99.17 448.983C101.99 451.389 104.854 453.69 107.764 455.92C113.404 454.906 118.25 453.033 121.358 450.326C126.043 454.394 134.46 456.795 143.983 456.795C153.494 456.795 161.918 454.417 166.608 450.358C171.306 454.417 179.752 456.795 189.264 456.795C198.775 456.795 207.199 454.417 211.889 450.358C216.587 454.417 225.034 456.795 234.545 456.795C244.056 456.795 252.481 454.417 257.17 450.358C261.869 454.417 270.315 456.795 279.826 456.795C289.338 456.795 297.762 454.417 302.451 450.358C305.804 453.254 311.101 455.239 317.295 456.17C320.344 453.844 323.345 451.44 326.295 448.92C325.882 448.931 325.525 449.014 325.108 449.014C319.54 449.014 314.358 448.031 310.67 446.389C309.042 445.664 307.797 444.836 307.045 444.045C306.523 443.495 306.357 443.113 306.358 442.826L298.545 442.826C298.545 443.113 298.38 443.495 297.858 444.045C297.106 444.836 295.861 445.664 294.233 446.389C290.544 448.031 285.393 449.014 279.826 449.014C274.259 449.014 269.077 448.031 265.389 446.389C263.761 445.664 262.547 444.836 261.795 444.045C261.273 443.495 261.076 443.113 261.076 442.826L253.264 442.826C253.264 443.113 253.099 443.495 252.576 444.045C251.825 444.836 250.579 445.664 248.951 446.389C245.263 448.031 240.112 449.014 234.545 449.014C228.978 449.014 223.796 448.031 220.108 446.389C218.479 445.664 217.265 444.836 216.514 444.045C215.991 443.495 215.795 443.113 215.795 442.826L207.983 442.826C207.983 443.113 207.818 443.495 207.295 444.045C206.543 444.836 205.298 445.664 203.67 446.389C199.982 448.031 194.831 449.014 189.264 449.014C183.697 449.014 178.515 448.031 174.826 446.389C173.198 445.664 171.984 444.836 171.233 444.045C170.71 443.495 170.514 443.113 170.514 442.826L162.701 442.826C162.701 443.113 162.536 443.495 162.014 444.045C161.262 444.836 160.017 445.664 158.389 446.389C154.701 448.031 149.55 449.014 143.983 449.014C138.415 449.014 133.233 448.031 129.545 446.389C127.917 445.664 126.703 444.836 125.951 444.045C125.429 443.495 125.232 443.113 125.233 442.826L117.451 442.826Z" fill="#fefefe" fill-rule="nonzero" opacity="1" stroke="none"/>
<path d="M140.076 463.608C140.076 463.894 139.88 464.276 139.358 464.826C138.606 465.618 137.392 466.445 135.764 467.17C133.513 468.172 130.625 468.826 127.514 469.264C130.793 471.196 134.118 473.02 137.483 474.733C140.003 473.742 142.3 472.592 143.983 471.139C148.672 475.198 157.096 477.576 166.608 477.576C176.142 477.576 184.582 475.185 189.264 471.108C193.95 475.176 202.366 477.576 211.889 477.576C221.423 477.576 229.863 475.185 234.545 471.108C239.231 475.176 247.647 477.576 257.17 477.576C266.705 477.576 275.144 475.185 279.826 471.108C281.715 472.747 284.335 474.026 287.264 475.076C290.779 473.305 294.248 471.399 297.67 469.389C294.028 468.995 290.618 468.316 288.045 467.17C286.417 466.445 285.172 465.618 284.42 464.826C283.898 464.276 283.701 463.894 283.701 463.608L275.92 463.608C275.92 463.894 275.724 464.276 275.201 464.826C274.45 465.618 273.236 466.445 271.608 467.17C267.919 468.812 262.737 469.795 257.17 469.795C251.603 469.795 246.452 468.812 242.764 467.17C241.136 466.445 239.89 465.618 239.139 464.826C238.616 464.276 238.42 463.894 238.42 463.608L230.639 463.608C230.639 463.894 230.443 464.276 229.92 464.826C229.168 465.618 227.954 466.445 226.326 467.17C222.638 468.812 217.456 469.795 211.889 469.795C206.322 469.795 201.171 468.812 197.483 467.17C195.854 466.445 194.609 465.618 193.858 464.826C193.335 464.276 193.139 463.894 193.139 463.608L185.358 463.608C185.358 463.894 185.161 464.276 184.639 464.826C183.887 465.618 182.673 466.445 181.045 467.17C177.357 468.812 172.175 469.795 166.608 469.795C161.04 469.795 155.889 468.812 152.201 467.17C150.573 466.445 149.328 465.618 148.576 464.826C148.054 464.276 147.889 463.894 147.889 463.608L140.076 463.608Z" fill="#fefefe" fill-rule="nonzero" opacity="1" stroke="none"/>
<path d="M96.3575 420.483C96.3575 424.19 88.3345 427.831 77.9513 428.326C79.1509 429.657 80.3855 430.937 81.6075 432.233C89.1179 431.371 95.381 428.956 98.42 425.451C102.234 429.831 110.971 432.639 121.045 432.639C131.132 432.639 139.895 429.84 143.701 425.451C147.515 429.831 156.252 432.639 166.326 432.639C176.413 432.639 185.177 429.84 188.983 425.451C192.796 429.831 201.534 432.639 211.608 432.639C221.694 432.639 230.458 429.84 234.264 425.451C238.077 429.831 246.815 432.639 256.889 432.639C266.975 432.639 275.739 429.84 279.545 425.451C283.359 429.831 292.096 432.639 302.17 432.639C312.232 432.639 320.974 429.853 324.795 425.483C328.121 429.279 335.25 431.771 343.639 432.389C344.857 431.1 346.099 429.837 347.295 428.514C335.879 428.475 326.857 424.441 326.858 420.483L322.733 420.483C322.733 424.46 313.665 428.514 302.17 428.514C290.675 428.514 281.576 424.46 281.576 420.483L277.483 420.483C277.483 424.46 268.383 428.514 256.889 428.514C245.394 428.514 236.295 424.46 236.295 420.483L232.201 420.483C232.201 424.46 223.102 428.514 211.608 428.514C200.113 428.514 191.014 424.46 191.014 420.483L186.92 420.483C186.92 424.46 177.821 428.514 166.326 428.514C154.832 428.514 145.733 424.46 145.733 420.483L141.639 420.483C141.639 424.46 132.54 428.514 121.045 428.514C109.55 428.514 100.451 424.46 100.451 420.483L96.3575 420.483Z" fill="#010101" fill-rule="nonzero" opacity="1" stroke="none"/>
<path d="M118.701 447.858C118.701 450.77 113.763 453.703 106.639 455.076C108.028 456.156 109.417 457.226 110.826 458.264C115.174 457.018 118.717 455.181 120.764 452.826C124.578 457.197 133.315 459.982 143.389 459.983C153.475 459.983 162.239 457.206 166.045 452.826C169.859 457.197 178.597 459.982 188.67 459.983C198.756 459.983 207.52 457.206 211.326 452.826C215.14 457.197 223.878 459.982 233.951 459.983C244.037 459.983 252.801 457.206 256.608 452.826C260.421 457.197 269.159 459.982 279.233 459.983C289.6 459.983 298.546 457.045 302.17 452.451C304.402 455.263 308.754 457.361 314.076 458.639C315.542 457.566 316.976 456.443 318.42 455.326C310.325 454.135 304.514 451.01 304.514 447.858L303.92 447.858L299.826 447.858C299.826 451.835 290.727 455.888 279.233 455.889C267.738 455.889 258.639 451.835 258.639 447.858L254.545 447.858C254.545 451.835 245.446 455.888 233.951 455.889C222.457 455.889 213.357 451.835 213.358 447.858L209.264 447.858C209.264 451.835 200.165 455.888 188.67 455.889C177.175 455.889 168.076 451.835 168.076 447.858L163.983 447.858C163.983 451.835 154.883 455.888 143.389 455.889C131.894 455.889 122.795 451.835 122.795 447.858L118.701 447.858Z" fill="#010101" fill-rule="nonzero" opacity="1" stroke="none"/>
<path d="M141.326 468.639C141.326 470.52 139.182 472.379 135.826 473.858C137.287 474.62 138.725 475.45 140.201 476.17C141.433 475.395 142.572 474.571 143.389 473.639C147.21 478 155.952 480.764 166.014 480.764C176.076 480.764 184.84 478 188.67 473.639C192.491 478 201.233 480.764 211.295 480.764C221.357 480.764 230.122 478 233.951 473.639C237.772 478 246.514 480.764 256.576 480.764C266.944 480.764 275.912 477.826 279.545 473.233C280.587 474.548 282.162 475.687 283.983 476.701C285.546 475.953 287.093 475.153 288.639 474.358C284.526 472.822 281.857 470.746 281.858 468.639L281.295 468.639L277.17 468.639C277.17 472.616 268.071 476.67 256.576 476.67C245.082 476.67 236.014 472.616 236.014 468.639L231.889 468.639C231.889 472.616 222.79 476.67 211.295 476.67C199.8 476.67 190.732 472.616 190.733 468.639L186.608 468.639C186.608 472.616 177.508 476.67 166.014 476.67C154.519 476.67 145.451 472.616 145.451 468.639L141.326 468.639Z" fill="#010101" fill-rule="nonzero" opacity="1" stroke="none"/>
<path d="M92.8888 398.67C92.8888 404.237 82.7363 408.764 70.2325 408.764C67.1506 408.764 64.223 408.479 61.545 407.983C99.8096 460.497 153.362 493.201 212.701 493.201C271.843 493.201 325.244 460.722 363.483 408.514C352.37 407.871 343.639 403.793 343.639 398.67C343.639 404.237 333.518 408.764 321.014 408.764C308.51 408.764 298.357 404.237 298.358 398.67C298.358 404.237 288.236 408.764 275.733 408.764C263.229 408.764 253.076 404.237 253.076 398.67C253.076 404.237 242.955 408.764 230.451 408.764C217.947 408.764 207.795 404.237 207.795 398.67L183.451 398.67C183.451 404.237 173.299 408.764 160.795 408.764C148.291 408.764 138.17 404.237 138.17 398.67C138.17 404.237 128.018 408.764 115.514 408.764C103.01 408.764 92.8888 404.237 92.8888 398.67Z" fill="none" opacity="1" stroke="#010101" stroke-linecap="round" stroke-linejoin="round" stroke-width="4.11"/>
<path d="M73.233 166.099C73.233 166.099 77.9728 170.679 74.4113 176.12L76.7787 181.851L82.287 175.26C82.287 175.26 81.4868 166.971 73.233 166.099Z" fill="#f7c200" fill-rule="nonzero" opacity="1" stroke="#000000" stroke-linecap="butt" stroke-linejoin="round" stroke-width="4.10861"/>
<path d="M53.1216 167.204C53.1216 167.204 59.8642 173.714 58.9342 178.247C58.0042 182.781 64.7467 179.584 64.9792 174.353C65.2117 169.122 58.4692 166.913 53.1216 167.204Z" fill="#f7c200" fill-rule="nonzero" opacity="1" stroke="#000000" stroke-linecap="butt" stroke-linejoin="round" stroke-width="4.10861"/>
<path d="M48.7726 178.415C48.7726 178.415 45.856 174.992 39.4622 179.41L36.7303 185.048C36.7303 185.048 43.782 178.379 48.9282 184.518C48.9282 184.518 54.0142 184.57 48.7726 178.415Z" fill="#f7c200" fill-rule="nonzero" opacity="1" stroke="#000000" stroke-linecap="butt" stroke-linejoin="round" stroke-width="4.10861"/>
<path d="M49.8085 191.616C49.8085 191.616 44.8097 192.895 44.9841 203.299C44.9841 203.299 51.4941 196.731 57.3067 197.661" fill="#f7c200" fill-rule="nonzero" opacity="1" stroke="#000000" stroke-linecap="butt" stroke-linejoin="round" stroke-width="4.10861"/>
<path d="M149.942 124.582C149.942 124.582 148.461 111.006 119.583 97.5541C90.704 84.102 86.8782 85.9532 85.027 69.2925L65.4043 80.1528C65.4043 80.1528 64.6638 84.3489 66.2682 91.6302C66.2682 91.6302 71.1045 90.1697 75.0213 90.8536C75.0213 90.8536 70.1098 104.718 74.524 111.681C74.524 111.681 78.0677 103.972 81.8602 104.966C81.8602 104.966 80.8032 119.328 84.4713 123.991C84.4713 123.991 87.8286 115.598 90.1289 116.468C90.1289 116.468 88.9628 131.259 95.9069 136.437C95.9069 136.437 95.3969 129.925 99.0847 129.846C99.0847 129.846 108.03 144.401 122.389 143.617C136.747 142.832 152.167 129.975 149.942 124.582Z" fill="#f7c200" fill-rule="nonzero" opacity="1" stroke="#000000" stroke-linecap="butt" stroke-linejoin="miter" stroke-width="4.10861"/>
<path d="M171.424 85.1299C171.424 85.1299 166.819 86.2037 170.506 90.6876C174.192 95.1715 190.656 101.037 206.238 98.6689C206.238 98.6689 173.129 96.7325 172.897 90.2226C172.664 83.7127 173.172 85.3513 171.424 85.1299Z" fill="#ffffff" fill-rule="nonzero" opacity="1" stroke="#000000" stroke-linecap="butt" stroke-linejoin="miter" stroke-width="4.10861"/>
<path d="M221.65 56.5077C221.65 56.5077 225.597 47.0169 231.484 49.2973C237.37 51.5776 234.657 56.1585 238.533 57.5007" fill="#f7c200" fill-rule="nonzero" opacity="1" stroke="#000000" stroke-linecap="butt" stroke-linejoin="miter" stroke-width="4.10861"/>
<path d="M185.444 74.5968C185.444 74.5968 189.657 78.011 189.366 80.7714C189.076 83.5317 191.909 90.1421 199.463 84.0402C207.018 77.9383 207.962 90.5054 206.582 97.1884C205.202 103.871 200.495 115.135 193.078 113.825C193.078 113.825 235.857 122.468 236.002 101.91C236.147 81.3525 218.35 64.427 207.163 69.0034C195.977 73.5798 188.712 69.4393 185.444 74.5968Z" fill="#f7c200" fill-rule="nonzero" opacity="1" stroke="#000000" stroke-linecap="butt" stroke-linejoin="miter" stroke-width="4.10861"/>
<path d="M289.07 253.886C289.07 253.886 239.517 202.159 227.346 179.266C215.175 156.374 213.871 124.352 164.752 152.027C164.752 152.027 147.431 165.301 126.99 167.378C106.549 169.454 90.1325 181.235 83.4337 185.58C83.4337 185.58 86.6322 179.726 82.287 175.26C82.287 175.26 74.3208 180.088 72.5706 173.087L66.4752 183.588C66.4752 183.588 69.4324 175.26 67.1391 171.096C67.1391 171.096 59.3539 178.277 56.9399 174.174L56.5174 181.235C56.5174 181.235 53.4395 174.174 50.1203 174.536C50.1203 174.536 48.9019 176.26 48.7726 178.415C48.6432 180.57 51.1864 183.157 46.7898 187.381C42.3931 191.605 51.1002 190.355 54.0744 190.657L49.3329 194.45C49.3329 194.45 56.4021 197.898 56.3159 202.295C56.3159 202.295 68.6868 202.812 70.4541 194.321L71.7473 202.942C71.7473 202.942 71.3162 204.752 69.592 205.657C69.592 205.657 88.8167 202.123 94.5064 193.545C94.5064 193.545 94.0754 202.123 89.2908 203.847C89.2908 203.847 101.705 203.33 107.352 198.933L103.24 206.425C103.24 206.425 117.923 204.303 122.281 197.077C122.281 197.077 124.633 201.436 122.339 205.049C122.339 205.049 136.104 201.149 138.111 192.775C138.111 192.775 139.43 200.288 137.366 205.106C137.366 205.106 146.924 200.368 150.117 191.837C150.117 191.837 151.714 200.55 148.247 205.34C148.247 205.34 159.925 198.406 160.655 192.521C160.655 192.521 163.393 199.136 160.792 205.204C160.792 205.204 169.369 200.003 169.916 194.939C169.916 194.939 169.46 205.797 176.44 208.671C183.42 211.545 216.743 221.795 222.546 240.348L248.817 279.48L289.07 253.886Z" fill="#f7c200" fill-rule="nonzero" opacity="1" stroke="#000000" stroke-linecap="butt" stroke-linejoin="bevel" stroke-width="4.10861"/>
<path d="M143.247 128.506C143.247 128.506 132.66 131.33 129.836 117.778C129.836 117.778 156.093 112.555 184.043 121.872C184.043 121.872 185.879 112.978 193.078 113.825C200.277 114.672 223.428 110.296 218.488 94.7681C213.547 79.24 206.065 84.4631 209.453 71.6171C212.841 58.7712 205.077 57.6419 225.263 56.2303C225.263 56.2303 236.839 54.6774 238.533 57.5007L237.968 65.9706C237.968 65.9706 239.662 49.3132 250.955 55.5244C262.248 61.7357 254.484 71.0525 249.261 74.5816C249.261 74.5816 258.719 65.5471 262.813 75.7109C266.907 85.8747 270.295 93.0741 275.659 90.5332C275.659 90.5332 273.589 97.6927 267.149 96.9029C267.149 96.9029 274.804 107.9 274.986 112.7C275.169 117.5 270.187 119.869 264.597 112.457C264.597 112.457 275.655 128.011 271.645 130.319C267.635 132.628 261.438 126.856 259.129 122.968C259.129 122.968 268.728 148.121 257.002 154.987C257.002 154.987 256.152 147.089 248.861 144.658C241.57 142.228 243.858 168.857 256.123 166.745C256.123 166.745 248.813 178.279 235.817 165.283C235.817 165.283 233.055 175.192 239.472 178.766C239.472 178.766 228.672 183.089 223.902 172.05C223.902 172.05 219.247 180.634 209.825 182.421C209.825 182.421 211.855 176.573 208.525 169.019C208.525 169.019 196.098 184.127 187.325 184.127C187.325 184.127 197.235 178.197 194.473 170.319C191.711 162.44 187.731 154.886 191.955 150.012C191.955 150.012 177.245 162.649 180.248 169.831C180.248 169.831 171.499 167.219 172.979 158.644C172.979 158.644 170.236 175.403 156.699 172.53C156.699 172.53 163.449 162.91 161.88 154.03C161.88 154.03 153.62 168.323 146.83 169.728C146.83 169.728 143.61 160.83 145.893 154.332C145.893 154.332 137.815 176.635 117.795 163.874C117.795 163.874 124.41 161.825 124.995 157.259C124.995 157.259 109.014 162.176 104.566 151.054C104.566 151.054 117.502 149.24 118.263 143.269C118.263 143.269 113.112 138.586 114.283 130.976C114.283 130.976 126.845 136.222 143.247 128.506Z" fill="#f7c200" fill-rule="nonzero" opacity="1" stroke="#000000" stroke-linecap="butt" stroke-linejoin="miter" stroke-width="4.10861"/>
<g opacity="1">
<path d="M221.125 115.938C218.742 117.43 216.285 118.788 213.688 119.875C206.425 122.913 198.543 123.717 190.875 121.938C188.841 121.466 186.723 121.065 184.812 120.188C183.881 119.756 182.775 120.163 182.344 121.094C181.912 122.025 182.319 123.131 183.25 123.562C187.222 125.407 191.705 125.847 196.031 125.656C205.418 125.243 213.747 121.652 221.125 115.938Z" fill="#000000" stroke="none"/>
</g>
<path d="M212.439 63.8868C212.439 63.8868 207.121 67.5745 210.737 73.3898C210.737 73.3898 218.893 74.7727 219.673 70.9077C220.453 67.0427 214.345 64.4441 212.439 63.8868Z" fill="#1b62b6" fill-rule="nonzero" opacity="1" stroke="#000000" stroke-linecap="butt" stroke-linejoin="miter" stroke-width="4.10861"/>
<path d="M192.06 112.755C192.06 112.755 191.004 108.661 192.589 104.674C192.589 104.674 190.233 110.962 195.731 112.992" fill="none" opacity="1" stroke="#000000" stroke-linecap="butt" stroke-linejoin="round" stroke-width="4.10861"/>
<path d="M190.863 85.1629C190.863 85.1629 192.219 91.3635 192.245 92.7104L197.836 85.2087" fill="none" opacity="1" stroke="#000000" stroke-linecap="butt" stroke-linejoin="round" stroke-width="4.10861"/>
<path d="M53.2342 79.622C53.2342 79.622 48.5555 61.7732 60.1523 59.9272C60.1523 59.9272 62.8976 52.5905 71.1337 54.3891C71.1337 54.3891 75.4884 50.3184 80.4584 55.0045C85.4285 59.6905 86.9313 70.1104 86.6118 71.8079L78.9654 74.1535L65.4043 80.1528L58.3235 82.527L53.2342 79.622Z" fill="#f7c200" fill-rule="nonzero" opacity="1" stroke="#000000" stroke-linecap="butt" stroke-linejoin="miter" stroke-width="4.10861"/>
<path d="M62.0795 86.1971C62.0795 86.1971 54.754 89.8598 52.488 85.2038C50.2221 80.5478 54.7229 76.6677 58.9134 79.8028C63.1038 82.9379 62.0795 86.1971 62.0795 86.1971Z" fill="#f7c200" fill-rule="nonzero" opacity="1" stroke="#000000" stroke-linecap="butt" stroke-linejoin="miter" stroke-width="4.10861"/>
<path d="M64.3765 75.1157C64.3765 75.1157 58.4788 76.5746 61.2414 81.1375C64.004 85.7004 66.7045 85.5452 66.7045 85.5452C66.7045 85.5452 70.2316 81.9782 68.5302 78.4228C66.8287 74.8674 64.3765 75.1157 64.3765 75.1157Z" fill="#f7c200" fill-rule="nonzero" opacity="1" stroke="#000000" stroke-linecap="butt" stroke-linejoin="miter" stroke-width="4.10861"/>
<path d="M68.1013 74.3707C68.1013 74.3707 69.405 70.1182 72.0124 70.6769C74.6198 71.2357 76.8236 73.7189 76.2028 77.0712L74.1852 81.0754L68.5302 78.4228L68.1013 74.3707Z" fill="#f7c200" fill-rule="nonzero" opacity="1" stroke="#000000" stroke-linecap="butt" stroke-linejoin="miter" stroke-width="4.10861"/>
<path d="M77.7548 70.6459C77.7548 70.6459 79.4186 66.2952 83.8481 69.945C88.2775 73.5947 85.5149 76.6677 85.5149 76.6677L78.9654 74.1535C78.9654 74.1535 77.9411 72.9118 77.7548 70.6459Z" fill="#f7c200" fill-rule="nonzero" opacity="1" stroke="#000000" stroke-linecap="butt" stroke-linejoin="miter" stroke-width="4.10861"/>
<g opacity="1">
<path d="M62.1875 66.6875C62.1875 66.6875 62.0527 67.5224 61.9062 68.5C61.9203 68.4984 61.8937 68.5314 61.9062 68.5312C61.3505 68.6369 61.708 69.697 61.5938 70.2812C61.4757 70.8846 60.608 72.1644 61.2188 72.0938C61.8376 72.0221 61.2134 72.0806 61.1562 73.8438C61.2742 74.8632 62.1993 75.5867 63.2188 75.4688C64.2382 75.3508 64.9617 74.4257 64.8438 73.4062C64.025 71.3287 64.1329 71.6767 64 71.3438C64.099 71.5172 64.1744 71.742 64.375 71.7188C64.9857 71.6481 63.8465 70.623 63.5938 70.0625C63.3445 69.5098 63.4773 68.3053 62.875 68.375C62.279 68.444 62.1875 66.6875 62.1875 66.6875Z" fill="#000000" stroke="none"/>
</g>
<g opacity="1">
<path d="M72.2188 64.5938C72.2188 64.5938 72.3784 65.4528 72.5625 66.4375C72.5234 66.4307 72.5551 66.2854 72.5 66.3125C71.972 66.5719 72.6999 67.4799 72.7812 68.0625C72.8638 68.6538 72.4642 70.107 73 69.8438C73.5434 69.5768 72.9883 69.839 73.5 71.4688C73.9526 72.3898 75.0789 72.7651 76 72.3125C76.9211 71.8599 77.2963 70.7648 76.8438 69.8438C75.4031 68.2184 75.6359 68.4755 75.4062 68.2188C75.5551 68.3441 75.6986 68.5242 75.875 68.4375C76.4108 68.1742 75.0114 67.6141 74.5938 67.1875C74.1823 66.7671 73.903 65.6156 73.375 65.875C72.8529 66.1315 72.2187 64.5937 72.2188 64.5938Z" fill="#000000" stroke="none"/>
</g>
<path d="M88.8331 57.8067C88.8331 57.8067 140.265 15.6679 203.539 29.0725C203.539 29.0725 175.367 38.1603 173.095 45.7714C173.095 45.7714 113.469 47.0995 92.4126 63.424C92.4126 63.424 85.6802 68.706 88.8331 57.8067Z" fill="#fefefe" fill-rule="nonzero" opacity="1" stroke="#000000" stroke-linecap="butt" stroke-linejoin="miter" stroke-width="4.10861"/>
<path d="M82.7313 44.4438C82.7313 44.4438 76.1166 47.7257 80.4584 55.0045C84.8002 62.2833 85.6942 67.0849 88.7131 70.551C91.7319 74.017 97.7136 79.887 99.838 74.6879C101.962 69.4888 97.8254 71.5573 94.4153 66.3582C91.0051 61.1591 86.9241 56.6309 86.1974 49.4752C85.4706 42.3195 84.3525 44.9469 82.7313 44.4438Z" fill="#010101" fill-rule="nonzero" opacity="1" stroke="#000000" stroke-linecap="butt" stroke-linejoin="miter" stroke-width="4.10861"/>
<path d="M314.36 238.669C314.36 238.669 336.43 226.531 323.409 177.535C310.387 128.538 300.456 131.628 301.559 100.73C302.663 69.8313 323.717 53.843 344.635 54.1936C365.553 54.5442 377.824 87.499 388.925 86.2136C388.925 86.2136 385.77 100.003 377.006 96.1468C377.006 96.1468 389.977 107.015 379.343 109.001C379.343 109.001 385.836 122.15 377.25 119.568C377.25 119.568 382.293 124.972 373.528 133.257C373.528 133.257 375.809 133.017 371.606 125.332C367.404 117.647 361.7 114.585 362.901 107.02C364.101 99.4553 365.903 96.9937 367.344 96.0931C367.344 96.0931 356.536 101.617 353.655 95.1325C353.655 95.1325 365.062 90.2693 365.122 83.2447C365.182 76.2201 365.131 66.1954 351.592 63.4687C338.052 60.742 307.213 66.6655 312.102 105.215C313.19 113.794 315.895 122.792 319.208 132.105C319.402 132.65 327.863 128.522 331.163 130.17C332.757 130.966 335.465 132.96 335.465 135.325C335.465 138.039 332.627 141.115 332.698 141.307C333.131 142.487 330.543 137.764 327.558 137.346C325.278 137.027 322.455 140.908 322.802 141.821C324.256 145.651 325.752 149.526 327.225 153.439C327.568 154.35 333.138 147.751 337.253 147.611C341.794 147.457 344.428 149.283 345.86 152.778C347.431 156.613 344.917 162.288 345.072 162.712C345.531 163.97 341.714 156.292 337.624 158.172C333.937 159.866 331.302 164.675 331.691 165.822C332.698 168.79 333.655 171.776 334.534 174.777C334.666 175.231 341.661 170.193 344.698 171.995C347.735 173.797 348.685 173.797 348.685 178.441C348.685 181.65 344.961 184.751 345.042 185.048C345.308 186.019 345.015 179.518 341.845 178.723C339.364 178.101 336.52 182.168 336.701 182.932C340.895 200.664 341.564 218.808 333.241 236.798L314.36 238.669Z" fill="#f7c200" fill-rule="nonzero" opacity="1" stroke="#000000" stroke-linecap="butt" stroke-linejoin="round" stroke-width="4.10861"/>
<g opacity="1">
<path d="M81.2812 45.5625C80.7952 49.5626 81.7445 54.1699 82.9688 57.9375C83.5385 59.6908 84.167 61.514 85.1875 63.0625C86.1552 64.5309 87.3968 65.8737 88.5938 67.1562C91.4378 70.2037 94.6643 72.8135 98.125 75.125C95.1565 72.3349 92.454 69.3119 90.25 65.875C89.179 64.2049 88.3618 62.3841 87.3438 60.6875C86.6067 59.4592 85.8176 58.2871 85.125 57.0312C83.2684 53.6651 81.5367 49.4612 81.2812 45.5625Z" fill="#fefefe" stroke="none"/>
</g>
<path d="M122.665 290.498L301.932 290.498L222.079 333.49L202.579 333.745L122.665 290.498Z" fill="#f7c200" fill-rule="nonzero" opacity="1" stroke="#000000" stroke-linecap="butt" stroke-linejoin="miter" stroke-width="4.10861"/>
<path d="M134.098 226.592L134.098 247.123L90.1582 247.123L90.1582 268.811L134.098 268.811L175.003 268.811L175.003 247.123L175.003 226.592L134.098 226.592Z" fill="#f7c200" fill-rule="nonzero" opacity="1" stroke="#000000" stroke-linecap="butt" stroke-linejoin="miter" stroke-width="4.10861"/>
<path d="M218.943 226.592L218.943 247.123L175.003 247.123L175.003 268.811L218.943 268.811L259.847 268.811L259.847 247.123L259.847 226.592L218.943 226.592Z" fill="#f7c200" fill-rule="nonzero" opacity="1" stroke="#000000" stroke-linecap="butt" stroke-linejoin="miter" stroke-width="4.10861"/>
<path d="M303.788 226.592L303.788 247.123L259.847 247.123L259.847 268.811L303.788 268.811L344.692 268.811L344.692 247.123L344.692 226.592L303.788 226.592Z" fill="#f7c200" fill-rule="nonzero" opacity="1" stroke="#000000" stroke-linecap="butt" stroke-linejoin="miter" stroke-width="4.10861"/>
<path d="M388.639 226.608L388.639 247.139L344.701 247.139L344.701 268.826L388.639 268.826L419.045 268.826C421.122 255.091 422.447 240.99 422.951 226.608L419.951 226.608L388.639 226.608Z" fill="#f7c200" fill-rule="nonzero" opacity="1" stroke="#000000" stroke-linecap="butt" stroke-linejoin="miter" stroke-width="4.10861"/>
<path d="M49.2638 226.608L49.2638 247.139L5.32626 247.139L5.32626 261.108C5.65984 263.686 5.97123 266.272 6.35751 268.826L49.2638 268.826L90.17 268.826L90.17 247.139L90.17 226.608L49.2638 226.608Z" fill="#f7c200" fill-rule="nonzero" opacity="1" stroke="#000000" stroke-linecap="butt" stroke-linejoin="miter" stroke-width="4.10861"/>
<path d="M51.2001 268.811L122.645 268.811L122.645 290.498L51.2001 290.498L51.2001 268.811Z" fill="#f7c200" fill-rule="nonzero" opacity="1" stroke="#000000" stroke-linecap="butt" stroke-linejoin="miter" stroke-width="4.10861"/>
<path d="M10.3575 290.514C11.9419 297.87 13.7479 305.106 15.7638 312.201L86.7638 312.201L115.514 299.951L122.639 290.514L10.3575 290.514Z" fill="#f7c200" fill-rule="nonzero" opacity="1" stroke="#000000" stroke-linecap="butt" stroke-linejoin="miter" stroke-width="4.10861"/>
<path d="M302.764 290.514L309.889 299.951L338.639 312.201L409.639 312.201C411.655 305.106 413.461 297.87 415.045 290.514L302.764 290.514Z" fill="#f7c200" fill-rule="nonzero" opacity="1" stroke="#000000" stroke-linecap="butt" stroke-linejoin="miter" stroke-width="4.10861"/>
<path d="M15.7013 312.045C17.7954 319.429 20.0998 326.661 22.6388 333.733L57.045 333.733L57.045 312.045L15.7013 312.045Z" fill="#f7c200" fill-rule="nonzero" opacity="1" stroke="#000000" stroke-linecap="butt" stroke-linejoin="miter" stroke-width="4.10861"/>
<path d="M369.92 312.201L369.92 333.889L402.733 333.889C405.274 326.822 407.542 319.581 409.639 312.201L369.92 312.201Z" fill="#f7c200" fill-rule="nonzero" opacity="1" stroke="#000000" stroke-linecap="butt" stroke-linejoin="miter" stroke-width="4.10861"/>
<path d="M183.438 333.618L240.314 333.618L240.314 355.305L183.438 355.305L183.438 333.618Z" fill="#f7c200" fill-rule="nonzero" opacity="1" stroke="#000000" stroke-linecap="butt" stroke-linejoin="miter" stroke-width="4.10861"/>
<path d="M22.5763 333.608C25.2385 341.032 28.1683 348.249 31.295 355.295L62.2013 355.295L62.2013 333.608L22.5763 333.608Z" fill="#f7c200" fill-rule="nonzero" opacity="1" stroke="#000000" stroke-linecap="butt" stroke-linejoin="miter" stroke-width="4.10861"/>
<path d="M183.438 355.305L240.314 355.305L240.314 376.993L183.438 376.993L183.438 355.305Z" fill="#f7c200" fill-rule="nonzero" opacity="1" stroke="#000000" stroke-linecap="butt" stroke-linejoin="miter" stroke-width="4.10861"/>
<path d="M31.295 355.295C34.6043 362.753 38.1834 369.989 41.9825 376.983L62.2013 376.983L62.2013 355.295L31.295 355.295Z" fill="#f7c200" fill-rule="nonzero" opacity="1" stroke="#000000" stroke-linecap="butt" stroke-linejoin="miter" stroke-width="4.10861"/>
<path d="M183.438 376.993L240.314 376.993L240.314 398.68L183.438 398.68L183.438 376.993Z" fill="#f7c200" fill-rule="nonzero" opacity="1" stroke="#000000" stroke-linecap="butt" stroke-linejoin="miter" stroke-width="4.10861"/>
<path d="M41.9825 376.983C46.0685 384.504 50.4301 391.736 55.045 398.67L62.2013 398.67L62.2013 376.983L41.9825 376.983Z" fill="#f7c200" fill-rule="nonzero" opacity="1" stroke="#000000" stroke-linecap="butt" stroke-linejoin="miter" stroke-width="4.10861"/>
<path d="M183.438 398.68L240.314 398.68L240.314 420.368L183.438 420.368L183.438 398.68Z" fill="#f7c200" fill-rule="nonzero" opacity="1" stroke="#000000" stroke-linecap="butt" stroke-linejoin="miter" stroke-width="4.10861"/>
<path d="M55.045 398.67C57.3699 402.163 59.7496 405.586 62.2013 408.92L62.2013 398.67L55.045 398.67Z" fill="#f7c200" fill-rule="nonzero" opacity="1" stroke="#000000" stroke-linecap="butt" stroke-linejoin="miter" stroke-width="4.10861"/>
<path d="M122.645 268.811L212.701 268.811L212.701 290.498L122.645 290.498L122.645 268.811Z" fill="#f7c200" fill-rule="nonzero" opacity="1" stroke="#000000" stroke-linecap="butt" stroke-linejoin="miter" stroke-width="4.10861"/>
<path d="M211.876 268.811L301.932 268.811L301.932 290.498L211.876 290.498L211.876 268.811Z" fill="#f7c200" fill-rule="nonzero" opacity="1" stroke="#000000" stroke-linecap="butt" stroke-linejoin="miter" stroke-width="4.10861"/>
<path d="M6.35751 268.826C7.46881 276.173 8.82252 283.387 10.3575 290.514L51.1388 290.514L51.1388 268.826L6.35751 268.826Z" fill="#f7c200" fill-rule="nonzero" opacity="1" stroke="#000000" stroke-linecap="butt" stroke-linejoin="miter" stroke-width="4.10861"/>
<path d="M373.42 268.826L373.42 290.514L415.045 290.514C416.58 283.387 417.934 276.173 419.045 268.826L373.42 268.826Z" fill="#f7c200" fill-rule="nonzero" opacity="1" stroke="#000000" stroke-linecap="butt" stroke-linejoin="miter" stroke-width="4.10861"/>
<path d="M301.932 268.811L373.433 268.811L373.433 290.498L301.932 290.498L301.932 268.811Z" fill="#f7c200" fill-rule="nonzero" opacity="1" stroke="#000000" stroke-linecap="butt" stroke-linejoin="miter" stroke-width="4.10861"/>
<g opacity="1">
<path d="M122.625 290.498L122.645 307.324L86.5594 314.556L68.9309 301.222L122.625 290.498Z" fill="#f7c200" fill-rule="nonzero" opacity="1" stroke="#000000" stroke-linecap="butt" stroke-linejoin="round" stroke-width="4.10861"/>
<path d="M25.2409 333.618L62.7049 333.618L86.5594 314.556L68.9309 301.222L25.2409 333.618Z" fill="#f7c200" fill-rule="nonzero" opacity="1" stroke="#000000" stroke-linecap="butt" stroke-linejoin="round" stroke-width="4.10861"/>
</g>
<g opacity="1">
<path d="M300.003 290.498L299.983 307.324L336.069 314.556L353.697 301.222L300.003 290.498Z" fill="#f7c200" fill-rule="nonzero" opacity="1" stroke="#000000" stroke-linecap="butt" stroke-linejoin="round" stroke-width="4.10861"/>
<path d="M397.387 333.618L359.923 333.618L336.069 314.556L353.697 301.222L397.387 333.618Z" fill="#f7c200" fill-rule="nonzero" opacity="1" stroke="#000000" stroke-linecap="butt" stroke-linejoin="round" stroke-width="4.10861"/>
</g>
<g opacity="1">
<path d="M122.665 290.498L122.645 307.324L158.731 314.556L176.36 301.222L122.665 290.498Z" fill="#f7c200" fill-rule="nonzero" opacity="1" stroke="#000000" stroke-linecap="butt" stroke-linejoin="round" stroke-width="4.10861"/>
<path d="M210.752 333.618L182.586 333.618L158.731 314.556L176.36 301.222L210.749 326.722L210.752 333.618Z" fill="#f7c200" fill-rule="nonzero" opacity="1" stroke="#000000" stroke-linecap="butt" stroke-linejoin="round" stroke-width="4.10861"/>
</g>
<path d="M361.576 333.483L361.576 355.17L394.139 355.17C397.263 348.122 400.198 340.909 402.858 333.483L361.576 333.483Z" fill="#f7c200" fill-rule="nonzero" opacity="1" stroke="#000000" stroke-linecap="butt" stroke-linejoin="miter" stroke-width="4.10861"/>
<path d="M361.576 355.17L361.576 376.858L383.483 376.858C387.276 369.866 390.834 362.625 394.139 355.17L361.576 355.17Z" fill="#f7c200" fill-rule="nonzero" opacity="1" stroke="#000000" stroke-linecap="butt" stroke-linejoin="miter" stroke-width="4.10861"/>
<path d="M361.576 376.858L361.576 398.545L370.451 398.545C375.059 391.613 379.403 384.376 383.483 376.858L361.576 376.858Z" fill="#f7c200" fill-rule="nonzero" opacity="1" stroke="#000000" stroke-linecap="butt" stroke-linejoin="miter" stroke-width="4.10861"/>
<path d="M361.576 398.545L361.576 411.201C364.644 407.122 367.577 402.869 370.451 398.545L361.576 398.545Z" fill="#f7c200" fill-rule="nonzero" opacity="1" stroke="#000000" stroke-linecap="butt" stroke-linejoin="miter" stroke-width="4.10861"/>
<g opacity="1">
<path d="M301.149 290.37L301.129 307.196L337.215 314.428L354.844 301.094L301.149 290.37Z" fill="#f7c200" fill-rule="nonzero" opacity="1" stroke="#000000" stroke-linecap="butt" stroke-linejoin="round" stroke-width="4.10861"/>
<path d="M398.534 333.49L361.07 333.49L337.215 314.428L354.844 301.094L398.534 333.49Z" fill="#f7c200" fill-rule="nonzero" opacity="1" stroke="#000000" stroke-linecap="butt" stroke-linejoin="round" stroke-width="4.10861"/>
</g>
<g opacity="1">
<path d="M301.11 290.37L301.129 307.196L265.044 314.428L247.415 301.094L301.11 290.37Z" fill="#f7c200" fill-rule="nonzero" opacity="1" stroke="#000000" stroke-linecap="butt" stroke-linejoin="round" stroke-width="4.10861"/>
<path d="M213.022 333.49L241.189 333.49L265.044 314.428L247.415 301.094L213.025 326.594L213.022 333.49Z" fill="#f7c200" fill-rule="nonzero" opacity="1" stroke="#000000" stroke-linecap="butt" stroke-linejoin="round" stroke-width="4.10861"/>
</g>
</g>
</g>
</svg>
