<?xml version="1.0" encoding="UTF-8" standalone="no"?>
<!-- Created with Inkscape (http://www.inkscape.org/) -->

<svg
   xmlns:dc="http://purl.org/dc/elements/1.1/"
   xmlns:cc="http://creativecommons.org/ns#"
   xmlns:rdf="http://www.w3.org/1999/02/22-rdf-syntax-ns#"
   xmlns:svg="http://www.w3.org/2000/svg"
   xmlns="http://www.w3.org/2000/svg"
   version="1.1"
   width="687.42981"
   height="687.42981"
   id="svg2">
  <defs
     id="defs4" />
  <metadata
     id="metadata7">
    <rdf:RDF>
      <cc:Work
         rdf:about="">
        <dc:format>image/svg+xml</dc:format>
        <dc:type
           rdf:resource="http://purl.org/dc/dcmitype/StillImage" />
        <dc:title></dc:title>
      </cc:Work>
    </rdf:RDF>
  </metadata>
  <rect
     width="687.42981"
     height="687.42981"
     x="0"
     y="0"
     id="rect3675"
     style="fill:#000000;fill-opacity:1;fill-rule:nonzero;stroke:none" />
  <g
     transform="matrix(0.49806851,0,0,0.49806851,183.23203,188.42064)"
     id="g3658"
     style="fill:#ffffff;stroke:none" />
  <g
     transform="translate(-2.1484379e-7,0.12834479)"
     id="g3222">
    <g
       transform="translate(1e-5,0)"
       id="g3218">
      <path
         d="m 508.87104,296.97171 66.10614,0 0,245.70868 -66.10614,0 z"
         id="path3163"
         style="fill:#ffffff;fill-opacity:1;fill-rule:nonzero;stroke:none" />
      <path
         d="m 112.45261,296.97171 66.10615,0 0,245.70868 -66.10615,0 z"
         id="path3161"
         style="fill:#ffffff;fill-opacity:1;fill-rule:nonzero;stroke:none" />
    </g>
    <path
       d="m 343.71492,144.49273 277.99999,146.84692 -556.00001,0 z"
       id="path3159"
       style="fill:#ffffff;fill-opacity:1;fill-rule:nonzero;stroke:none" />
    <g
       transform="matrix(0.9659988,0,0,0.9659988,11.686671,14.873972)"
       id="g3200">
      <path
         d="m 403.04925,376.99835 c -7.15616,0.0132 -11.88927,11.30606 -4.875,14.96875 3.6738,1.57339 8.13866,-0.70263 10.03125,-4.0625 18.50432,6.88571 27.79497,31.18016 17.3125,48.375 -3.85876,6.9035 -10.01949,12.39519 -17.3125,15.3125 -2.39482,-5.67356 -12.61462,-6.38145 -13.4375,0.625 -1.11271,7.35545 7.70719,12.99918 14.0625,9.125 22.44179,-6.9517 36.35444,-34.04242 27.5625,-56.09375 -5.15807,-14.12863 -18.16166,-26.37163 -33.34375,-28.25 z"
         id="path3155"
         style="fill:#ffffff;fill-opacity:1;fill-rule:nonzero;stroke:none" />
      <path
         d="m 297.48675,456.2171 c -7.57662,0.76906 -10.22164,11.96272 -3.84375,16.15625 23.72899,26.75299 69.49562,28.65399 95.61654,4.36034 4.37835,-3.82279 10.67347,-9.22751 7.19596,-15.70409 -2.24783,-5.88297 -11.89629,-6.66729 -13.6875,-0.0625 -0.88439,2.74345 0.34897,5.8805 2.71875,7.46875 -17.90508,15.9351 -44.7003,21.0049 -66.63681,10.75981 -5.96811,-2.69181 -12.5827,-6.48018 -16.73819,-10.88481 5.61662,-3.77072 2.0399,-12.98288 -4.625,-12.09375 z"
         id="path3153"
         style="fill:#ffffff;fill-opacity:1;fill-rule:nonzero;stroke:none" />
      <path
         d="m 447.85724,358.66873 c 32.27632,0 58.43271,26.15639 58.43271,58.43268 0,0.92219 -0.0838,1.84437 -0.0838,2.72463 0,0.79642 0.0838,1.71861 0.0838,2.72462 0,32.19248 -26.15639,58.43269 -58.43271,58.43269 -2.76653,0 -5.44924,-0.25151 -8.04811,-0.58684 -12.07218,-3.03504 -23.306,-9.91327 -32.48589,-15.76089 21.41973,-4.44323 36.92911,-23.05452 37.43213,-44.80958 -0.50302,-21.8389 -16.0124,-40.45017 -37.43213,-44.8934 10.14096,-6.12599 20.95893,-12.32309 32.48589,-15.7609 2.59887,-0.33534 5.28158,-0.50301 8.04811,-0.50301 z"
         id="path3151"
         style="fill:#ffffff;fill-opacity:1;fill-rule:nonzero;stroke:none" />
      <path
         d="m 242.59068,419.82604 c 0.50301,-21.8389 16.01241,-40.45017 37.43214,-44.8934 -11.77217,-6.7939 -20.70628,-13.30916 -32.4859,-15.7609 -2.59887,-0.33534 -5.28157,-0.50301 -7.96428,-0.50301 -32.27631,0 -58.43268,26.15639 -58.43268,58.43268 0,0.92219 0,1.84437 0,2.72463 0,0.79642 0,1.71861 0,2.72462 0,32.19248 26.15637,58.43269 58.43268,58.43269 2.68271,0 5.36541,-0.25151 7.96428,-0.58684 11.84399,-2.6361 21.99903,-10.15908 32.4859,-15.76089 -21.41973,-4.44323 -36.92913,-23.05452 -37.43214,-44.80958 z"
         id="path3149"
         style="fill:#ffffff;fill-opacity:1;fill-rule:nonzero;stroke:none" />
      <path
         d="m 282.48675,376.99835 c -24.1551,5.18409 -40.59937,32.96375 -31.8125,56.46875 4.94615,14.67012 18.25329,27.18933 33.78125,29.03125 7.16524,-0.17038 11.79516,-11.48476 4.59375,-15 -3.71624,-1.44757 -8.16717,0.69026 -9.96875,4.09375 -18.17184,-6.88813 -27.39198,-30.38988 -17.84375,-47.3125 3.74019,-7.13264 10.70595,-14.16403 18.03125,-16.03125 2.71683,5.55621 12.97478,5.89151 13.34375,-1.375 0.70632,-5.5672 -4.60547,-10.58849 -10.125,-9.875 z"
         id="path3147"
         style="fill:#ffffff;fill-opacity:1;fill-rule:nonzero;stroke:none" />
      <path
         d="m 340.5805,345.9671 c -19.26727,0.55475 -38.86659,9.62699 -50.09375,25.4375 -3.13764,7.05543 6.4698,16.04634 12.5,9.9375 2.99248,-2.79688 2.36356,-8.12703 -1.09375,-10.25 17.86291,-15.77522 44.78584,-21.04957 66.5775,-10.70478 6.13782,2.71461 12.03058,6.34022 16.985,10.76728 -6.21794,3.65761 -1.6301,13.99648 5.1875,12.0625 7.0649,-1.60523 9.2603,-11.8789 3.09375,-16.03125 -13.38861,-14.64534 -33.33576,-22.35002 -53.15625,-21.21875 z"
         id="path3145"
         style="fill:#ffffff;fill-opacity:1;fill-rule:nonzero;stroke:none" />
      <path
         d="m 294.46214,359.77793 c -4.02406,2.64079 -7.04209,6.66485 -8.29961,11.27575 -8.76218,-6.45233 -18.23304,-11.48731 -24.98271,-19.49153 -2.26354,-3.81448 -3.4372,-8.17387 -3.4372,-12.53326 0,-6.53911 2.51502,-12.8267 7.12592,-17.47952 5.11391,-4.82048 10.98233,-8.84454 17.35375,-11.82067 17.9406,-9.9344 38.22857,-15.13213 58.93569,-15.13213 1.9282,0 2.76654,0 2.51504,0 -0.33532,0 0.50302,0 2.51504,0 26.74324,0 52.73194,8.71879 74.06783,24.98269 l 0.0419,0 2.17971,2.01204 c 4.61089,4.61089 7.20977,10.89848 7.20977,17.43759 0,4.35939 -1.25753,8.71878 -3.56297,12.53326 -6.49718,7.22305 -15.13214,13.61379 -24.9827,19.49153 -1.2156,-4.6109 -4.14981,-8.63496 -8.21579,-11.27575 -13.62312,-11.94642 -31.14453,-18.65319 -49.16897,-18.73702 -18.10825,0.0838 -35.62969,6.7906 -49.29472,18.73702 z"
         id="path3143"
         style="fill:#ffffff;fill-opacity:1;fill-rule:nonzero;stroke:none" />
      <path
         d="M 267.13207,517.78673 z"
         id="path3139"
         style="fill:#ffffff;fill-opacity:1;fill-rule:nonzero;stroke:none" />
      <path
         d="M 422.47752,515.85853 z"
         id="path3135"
         style="fill:#ffffff;fill-opacity:1;fill-rule:nonzero;stroke:none" />
      <path
         d="m 346.18806,543.81457 c 26.74324,0 52.73194,-8.80263 74.06783,-25.10845 l 2.22163,-2.01204 c 4.61089,-4.65281 7.20976,-10.94039 7.20976,-17.39566 0,-4.44324 -1.25752,-8.80263 -3.56297,-12.6171 -8.81925,-8.59305 -18.86442,-15.29981 -24.98269,-19.49153 -1.21561,4.61089 -4.1498,8.63496 -8.21579,11.31767 -13.62312,11.98833 -31.14453,18.69509 -49.16896,18.77892 -18.10827,-0.0838 -35.6297,-6.79059 -49.29473,-18.77892 -4.02406,-2.68271 -7.04209,-6.70678 -8.29961,-11.31767 -8.79347,6.38974 -18.18161,11.59015 -24.98271,19.49153 -2.26354,3.81447 -3.4372,8.17386 -3.4372,12.6171 0,6.45527 2.51502,12.74285 7.16784,17.39566 l 2.1797,2.01204 c 21.25206,16.30582 47.24077,25.10845 74.06782,25.10845 1.9282,0 2.85039,-0.0838 2.51504,-0.0838 -0.41916,0 0.50302,0.0838 2.51504,0.0838 z"
         id="path3133"
         style="fill:#ffffff;fill-opacity:1;fill-rule:nonzero;stroke:none" />
      <g
         transform="matrix(0.89945962,0,0,0.89945962,604.88282,100.83729)"
         id="g3173"
         style="fill:#ffffff">
        <path
           d="m -290.40748,368.54098 c 7.79662,0 14.08421,-6.28758 14.08421,-14.00036 l 0,-0.0261 0,0.0131 c 0,-7.72588 -6.28759,-14.01346 -14.08421,-14.01346 -7.79661,0 -14.00036,6.28758 -14.00036,14.01346 0,7.72586 6.20375,14.01344 14.00036,14.01344 z"
           id="path3157"
           style="fill:#ffffff;fill-opacity:1;fill-rule:nonzero;stroke:none" />
        <path
           d="m -328.5522,392.15616 c 0,7.20977 5.78459,13.07819 13.07819,13.07819 2.59889,0 5.11391,-0.83834 7.33554,-2.30546 0.88025,8.42538 8.00619,14.88065 16.55732,14.88065 0.41916,0 0.83835,-0.0838 1.25752,-0.0838 0.33533,0 0.75451,0.0838 1.25752,0.0838 8.46728,0 15.59322,-6.45527 16.43157,-14.88065 2.17969,1.46712 4.69473,2.30546 7.37743,2.30546 7.20979,0 13.0782,-5.86842 13.0782,-13.07819 0,-3.01806 -1.08985,-5.95227 -2.93422,-8.2577 l -21.50355,-17.31183 c -3.05997,3.60487 -7.5032,5.78457 -12.19793,6.20375 l 0,13.07818 0,0 c 0,0.75452 -0.67068,1.50903 -1.50902,1.50903 -0.83836,0 -1.50903,-0.75451 -1.50903,-1.50903 l 0,0 0,-13.07818 c -4.77856,-0.41918 -9.2218,-2.59888 -12.28177,-6.20375 l -21.54548,17.31183 c -1.88627,2.30543 -2.89229,5.23964 -2.89229,8.2577 z"
           id="path3141"
           style="fill:#ffffff;fill-opacity:1;fill-rule:nonzero;stroke:none" />
        <path
           d="m -272.17346,356.14921 15.38365,0 c 0.7545,-0.042 1.50903,-0.79642 1.50903,-1.55094 0,-0.83834 -0.75453,-1.50901 -1.50903,-1.50901 l -15.38365,0 c -0.20958,-3.01806 -1.21559,-5.86842 -2.85037,-8.34154 l 21.3359,-16.18007 c 2.76653,-1.38327 5.78457,-2.05395 8.9703,-2.05395 9.2218,0 17.26991,6.20375 19.6592,15.04831 0.54493,-0.042 1.04793,-0.042 1.71861,-0.042 2.76654,0 5.53308,0.33534 8.17386,1.08986 5.23967,1.42518 8.92838,6.20375 8.92838,11.65299 0,0.16768 -0.0838,0.2515 -0.0838,0.37726 0,0 0.0838,0.12576 0.0838,0.37726 0,5.36541 -3.68871,10.14397 -8.92838,11.52725 -2.64078,0.71258 -5.40732,1.13177 -8.17386,1.13177 -0.67068,0 -1.17368,-0.0838 -1.71861,-0.0838 -2.38929,8.88647 -10.4374,15.17407 -19.6592,15.17407 -3.18573,0 -6.20377,-0.75452 -8.9703,-2.13778 l -21.3359,-16.18008 c 1.63478,-2.55696 2.64079,-5.40732 2.85037,-8.29962 z"
           id="path3137"
           style="fill:#ffffff;fill-opacity:1;fill-rule:nonzero;stroke:none" />
        <path
           d="m -291.83266,336.36426 0,-13.12011 c 0,-0.83834 0.67067,-1.50903 1.50903,-1.50903 0.75451,0 1.50902,0.67069 1.50902,1.50903 l 0,13.12011 c 4.69473,0.37725 9.13796,2.55695 12.19793,6.20376 l 21.50355,-17.31185 c 1.84437,-2.34736 2.93422,-5.28157 2.93422,-8.21578 0,-7.2936 -5.86841,-13.07819 -13.0782,-13.07819 -2.6827,0 -5.19774,0.75452 -7.37743,2.26354 -0.83835,-8.4673 -7.96429,-14.83871 -16.43157,-14.83871 -0.50301,0 -0.92219,0 -1.25752,0 -0.41917,0 -0.83836,0 -1.25752,0 -8.55113,0 -15.67707,6.37141 -16.55732,14.83871 -2.22163,-1.50902 -4.73665,-2.26354 -7.33554,-2.26354 -7.2936,0 -13.07819,5.78459 -13.07819,13.07819 0,2.93421 1.00602,5.86842 2.89229,8.21578 l 21.54548,17.31185 c 3.05997,-3.64681 7.50321,-5.82651 12.28177,-6.20376 z"
           id="path3131"
           style="fill:#ffffff;fill-opacity:1;fill-rule:nonzero;stroke:none" />
        <path
           d="m -327.08508,380.62891 c -2.8923,1.38327 -5.91034,2.13778 -9.01222,2.13778 -9.30565,0 -17.35376,-6.2876 -19.70113,-15.17407 -0.58684,0 -1.08984,0.0838 -1.67669,0.0838 -2.85038,0 -5.61692,-0.41918 -8.21578,-1.13177 -5.28158,-1.38328 -8.88648,-6.16183 -8.88648,-11.52725 0,-0.2515 0,-0.37726 0,-0.37726 0,-0.12575 0,-0.20958 0,-0.37726 0,-5.44923 3.6049,-10.22781 8.88648,-11.65299 2.59886,-0.75452 5.3654,-1.08986 8.21578,-1.08986 0.58685,0 1.08985,0 1.67669,0.042 2.34737,-8.84455 10.39548,-15.04831 19.70113,-15.04831 3.10188,0 6.11992,0.67069 9.01222,2.05396 l 21.3778,16.18006 c -1.63477,2.47312 -2.64078,5.32348 -2.85037,8.34154 l -15.38365,0 0,0 c -0.83834,0 -1.50902,0.67067 -1.50902,1.50901 0,0.75452 0.67068,1.50903 1.50902,1.50903 l 0,0.042 15.38365,0 c 0.20959,2.8923 1.2156,5.74267 2.85037,8.29962 z"
           id="rect3023"
           style="fill:#ffffff;fill-opacity:1;fill-rule:nonzero;stroke:none" />
      </g>
    </g>
  </g>
</svg>
