<?xml version="1.0" encoding="utf-8"?><svg xmlns:svg="http://www.w3.org/2000/svg" xmlns="http://www.w3.org/2000/svg" height="660" width="825" version="1"><path d="m416.78 0c-81.54 0-134.22 61.73-134.22 177.99 0 109.38 36.69 161.1 82.67 181.49 1.95-2.45 3.87-4.92 5.78-7.42 19.34-25.43 36.16-53.4 49.04-80.45-2.99 0.65-6.09 1.05-9.36 1.05-18.46 0-41.15-49.02-39.62-94.67 1.53-45.64 13.92-87.92 45.72-87.92 22 0 42.78 33.74 42.78 87.92 0 57.76-45.56 148.08-104.22 212.44C277.02 327.68 222.5 251.12 110 251.12 54.72 251.12 0 302.1 0 365.86c0 68.17 99.43 188.76 246.62 188.76 37.45 0 79.32-18.12 119.51-48.25 12.52 7.12 25.88 13.8 40.16 19.86C383.75 572.73 366.74 619.1 357.15 660l97.7 0c7.79-35.66 20.45-72.76 36.63-108.52 27.56 5.04 57.9 7.89 91.55 7.89 149.81 0 241.97-123.44 241.97-191.16 0-33.04-22.97-120.65-117.32-120.65-94.86 0-189.4 91.51-257.69 199.89-5.14-2.06-10.13-4.27-15.03-6.53C497.24 367.9 543.89 269.85 543.89 177.99 543.89 32.68 455.15 0 416.78 0Zm287.26 339.57c22.37 0 31.76 16.85 31.76 31.05 0 39.42-91.56 100.36-155.24 100.36-15.36 0-29.86-0.81-43.63-2.3 48.87-74.31 110.59-129.11 167.11-129.11zm-584.53 2.14c62.7 0 104.73 53.03 166.57 106.74-20.67 11.96-41.4 18.92-61.17 18.92-69.89 0-133.74-65.67-133.74-93.41 0-16.67 11.48-32.25 28.34-32.25z" fill="#106724"/></svg>