<?xml version="1.0" encoding="UTF-8" standalone="no"?>
<!-- Generator: Adobe Illustrator 22.0.1, SVG Export Plug-In . SVG Version: 6.00 Build 0)  -->

<svg
   version="1.1"
   id="레이어_1"
   x="0px"
   y="0px"
   viewBox="0 0 235 311.36801"
   enable-background="new 0 0 240 316"
   xml:space="preserve"
   sodipodi:docname="Coat_of_arms_of_the_Mali_Federation.svg"
   width="235"
   height="311.36801"
   inkscape:version="1.3 (0e150ed6c4, 2023-07-21)"
   xmlns:inkscape="http://www.inkscape.org/namespaces/inkscape"
   xmlns:sodipodi="http://sodipodi.sourceforge.net/DTD/sodipodi-0.dtd"
   xmlns="http://www.w3.org/2000/svg"
   xmlns:svg="http://www.w3.org/2000/svg"><defs
   id="defs6" /><sodipodi:namedview
   id="namedview6"
   pagecolor="#ffffff"
   bordercolor="#000000"
   borderopacity="0.25"
   inkscape:showpageshadow="2"
   inkscape:pageopacity="0.0"
   inkscape:pagecheckerboard="0"
   inkscape:deskcolor="#d1d1d1"
   inkscape:zoom="2.6107595"
   inkscape:cx="116.82424"
   inkscape:cy="156.08485"
   inkscape:window-width="1920"
   inkscape:window-height="1007"
   inkscape:window-x="-9"
   inkscape:window-y="-9"
   inkscape:window-maximized="1"
   inkscape:current-layer="레이어_1" />&#10;<g
   id="g6"
   transform="translate(-3,-2)">&#10;	<path
   fill="#fcd116"
   d="M 237,3 V 237.71 C 237,261.06 217.48,280 193.4,280 h -35.78 c -22.69,0 -37.12,31 -37.12,31 0,0 -14.43,-31 -37.12,-31 H 47.6 C 23.52,280 4,261.06 4,237.71 V 3 Z"
   id="path1" />&#10;	<path
   fill="#14b53a"
   d="M 82,3 V 280 H 47.6 C 23.52,280 4,261.06 4,237.71 V 3 Z"
   id="path2" />&#10;	<path
   fill="#ce1126"
   d="M 237,3 V 237.71 C 237,261.06 217.48,280 193.4,280 H 159 V 3 Z"
   id="path3" />&#10;	<g
   id="g4">&#10;		<path
   fill="#847121"
   d="m 120.5,313.368 -0.907,-1.946 C 119.452,311.118 105.164,281 83.38,281 H 47.6 C 23.007,281 3,261.58 3,237.71 V 2 H 238 V 237.71 C 238,261.58 217.993,281 193.4,281 h -35.78 c -21.8,0 -36.072,30.118 -36.213,30.422 z M 5,4 V 237.71 C 5,260.478 24.11,279 47.6,279 h 35.78 c 20.091,0 33.581,22.986 37.12,29.763 C 124.04,301.987 137.529,279 157.62,279 h 35.78 c 23.489,0 42.6,-18.522 42.6,-41.29 V 4 Z"
   id="path4" />&#10;	</g>&#10;	<g
   id="g5">&#10;		<polygon
   points="123,110 123,97 117,97 117,110 93,110 93,98 87,98 87,110 87,113 87,116 117,116 117,172 87,172 87,175 87,178 87,190 93,190 93,178 117,178 123,178 148,178 148,190 154,190 154,178 154,175 154,172 123,172 123,116 154,116 154,113 154,110 154,98 148,98 148,110 "
   id="polygon4" />&#10;		<circle
   cx="120"
   cy="89"
   r="7"
   id="circle4" />&#10;	</g>&#10;</g>&#10;</svg>
