<?xml version="1.0" encoding="UTF-8" standalone="no"?>
<svg
   xmlns:dc="http://purl.org/dc/elements/1.1/"
   xmlns:cc="http://creativecommons.org/ns#"
   xmlns:rdf="http://www.w3.org/1999/02/22-rdf-syntax-ns#"
   xmlns:svg="http://www.w3.org/2000/svg"
   xmlns="http://www.w3.org/2000/svg"
   xmlns:sodipodi="http://sodipodi.sourceforge.net/DTD/sodipodi-0.dtd"
   xmlns:inkscape="http://www.inkscape.org/namespaces/inkscape"
   height="840"
   version="1.1"
   width="738.36981"
   id="svg2"
   inkscape:version="0.91 r13725"
   sodipodi:docname="Coat_of_arms_of_Chita_(Zabaykalsky_Krai).svg">
  <metadata
     id="metadata438">
    <rdf:RDF>
      <cc:Work
         rdf:about="">
        <dc:format>image/svg+xml</dc:format>
        <dc:type
           rdf:resource="http://purl.org/dc/dcmitype/StillImage" />
      </cc:Work>
    </rdf:RDF>
  </metadata>
  <defs
     id="defs436" />
  <sodipodi:namedview
     pagecolor="#ffffff"
     bordercolor="#666666"
     borderopacity="1"
     objecttolerance="10"
     gridtolerance="10"
     guidetolerance="10"
     inkscape:pageopacity="0"
     inkscape:pageshadow="2"
     inkscape:window-width="1680"
     inkscape:window-height="987"
     id="namedview434"
     showgrid="false"
     inkscape:zoom="0.79465333"
     inkscape:cx="378.28598"
     inkscape:cy="438.53387"
     inkscape:window-x="-4"
     inkscape:window-y="-4"
     inkscape:window-maximized="1"
     inkscape:current-layer="svg2" />
  <g
     transform="translate(1732.671,10.4697)"
     id="g4">
    <g
       transform="matrix(1.41509,0,0,1.41509,710.9043,-336.02403)"
       id="g6">
      <path
         d="m-1622.1024,359.01717 0,312.38071c0,21.56539 17.4822,39.04759 39.0476,39.04759l78.0952,0c21.5654,0 39.0476,17.4822 39.0476,39.04759 0,-21.56539 17.4822,-39.04759 39.0475,-39.04759l78.0952,0c21.5654,0 39.0476,-17.4822 39.0476,-39.04759l0,-312.38071 -312.3807,0z"
         style="stroke:#000;fill:#ffd700;stroke-width:0.3904759"
         id="path8" />
      <path
         d="M19.53125,175.71875 0,209.53125 0,312.375c0,21.56539 17.4971,39.0625 39.0625,39.0625l0,-141.90625 -19.53125,-33.8125z"
         style="fill:#f00"
         transform="translate(-1622.1024,359.0172)"
         id="path10" />
      <path
         d="m58.59375,175.71875 -19.53125,33.8125 0,141.90625 39.0625,0 0,-141.90625 -19.53125,-33.8125z"
         style="fill:#008000"
         transform="translate(-1622.1024,359.0172)"
         id="path12" />
      <path
         d="m97.65625,175.71875 -19.53125,33.8125 0,141.90625 39.03125,0c0.0105,0 0.0207,-10e-6 0.0312,0l0,-141.90625 -19.53125,-33.8125z"
         style="fill:#f00"
         transform="translate(-1622.1024,359.0172)"
         id="path14" />
      <path
         d="m136.71875,175.71875 -19.53125,33.8125 0,141.90625c21.55088,0.0171 39,17.47639 39,39.03125 0,-0.67392 0.0288,-1.33447 0.0625,-2l0,-178.9375 -19.53125,-33.8125z"
         style="fill:#008000"
         transform="translate(-1622.1024,359.0172)"
         id="path16" />
      <path
         d="m175.78125,175.71875 -19.53125,33.8125 0,178.9375c1.04582,-20.63157 18.10862,-37.03125 39,-37.03125l0.0625,0 0,-141.90625 -19.53125,-33.8125z"
         style="fill:#f00"
         transform="translate(-1622.1024,359.0172)"
         id="path18" />
      <path
         d="m214.84375,175.71875 -19.53125,33.8125 0,141.90625 39.0625,0 0,-141.90625 -19.53125,-33.8125z"
         style="fill:#008000"
         transform="translate(-1622.1024,359.0172)"
         id="path20" />
      <path
         d="m253.90625,175.71875 -19.53125,33.8125 0,141.90625 38.96875,0c0.0316,0 0.0622,7e-5 0.0937,0l0,-141.90625 -19.53125,-33.8125z"
         style="fill:#f00"
         transform="translate(-1622.1024,359.0172)"
         id="path22" />
      <path
         d="m292.96875,175.71875 -19.53125,33.8125 0,141.90625c21.52188,-0.0511 38.9375,-17.52867 38.9375,-39.0625l0,-103.0625 -19.40625,-33.59375z"
         style="fill:#008000"
         transform="translate(-1622.1024,359.0172)"
         id="path24" />
      <g
         transform="matrix(1.17494,0,0,1.22315,-290.55428,186.52078)"
         id="g26">
        <path
           d="m672,-172.625c-6.92343,0.22518 -13.37925,1.82473 -20.25,2.6875l-0.3125,3.53125c0.95278,2.82885 2.11607,5.67179 3.03125,8.5 6.45448,0.11117 13.27755,0.8413 19.2481,-0.65752 5.91878,-3.09695 11.14568,-6.85095 15.72065,-11.12373 -6.38131,-2.45963 -12.05261,-3.11264 -17.4375,-2.9375z"
           style="stroke:#000;stroke-linejoin:round;fill:#f00;stroke-width:1.00099552;stroke-linecap:round"
           transform="translate(-1622.1024,359.0172)"
           id="path28" />
        <path
           d="m-953.7328,192.94259c-5.97386,1.37441 -8.30548,0.1013 -13.82572,2.27149 4.46261,4.54645 15.31365,4.13588 19.03992,1.49114 2.87137,-2.03797 5.11732,-3.80955 7.52881,-6.06175 -3.36362,-1.29648 -7.51307,1.09585 -12.74301,2.29912z"
           style="stroke:#000;fill:none;stroke-width:1.00099552;stroke-linecap:round"
           id="path30" />
        <path
           d="m606.09375,-186.78125c-5.19599,0.15552 -10.34735,1.27386 -15.40625,4.71875l1.375,15.65625c-1.7721,5.26121 -4.29845,10.52004 -4.53125,15.78125 2.1301,7.75377 5.31185,14.47403 10.71875,19.0625 -0.7877,6.48621 1.2981,12.20415 4.1875,17.6875 -2.3809,1.1016 -2.59025,3.08492 -3.40625,4.8125 1.3974,4.24683 3.6057,8.06411 7.6875,10.96875 -2.6914,7.62805 6.85545,8.03125 15.03125,8.03125 8.17575,0 17.72262,-0.403202 15.03125,-8.03125 4.08179,-2.90464 6.29008,-6.72192 7.6875,-10.96875 -0.81599,-1.72758 -1.02531,-3.7109 -3.40625,-4.8125 2.88938,-5.48335 4.97525,-11.20129 4.1875,-17.6875 5.40691,-4.58847 8.58858,-11.30873 10.71875,-19.0625 -0.23282,-5.26121 -2.75923,-10.52004 -4.53125,-15.78125l1.375,-15.65625c-10.11785,-6.88978 -20.62381,-4.4666 -31.0625,-3.65625 -5.21935,-0.40517 -10.46026,-1.21802 -15.65625,-1.0625z"
           style="stroke:#000;fill:#f00;stroke-width:1.00099552"
           transform="translate(-1622.1024,359.0172)"
           id="path32" />
        <path
           d="m636.14357,-145.3142c0,0 0.94025,-4.12911 2.92343,-3.47135 1.99846,0.66284 5.9073,0.25958 9.70347,-0.94807 -1.42548,4.02332 -11.15733,6.99637 -12.6269,4.41942z"
           style="stroke:#000;fill:#c0c0c0;stroke-width:1.00099552"
           transform="translate(-1622.1024,359.0172)"
           id="path34" />
        <path
           d="m644,-148.65625c-1.43503,0.19162 -2.73369,0.22429 -3.78125,0.0937 -0.23856,0.36674 -0.375,0.81024 -0.375,1.28125 0,1.26398 0.98195,2.29418 2.21875,2.34375 0.0102,4.1e-4 0.021,-2.8e-4 0.0312,0 0.0863,-0.0262 0.16363,-0.0659 0.25,-0.0937 0.0405,-0.0128 0.0844,-0.0182 0.125,-0.0312 0.34936,-0.11551 0.71736,-0.23481 1.0625,-0.375 0.013,-0.005 0.0182,-0.0259 0.0312,-0.0312 0.53582,-0.4297 0.90625,-1.06687 0.90625,-1.8125 0,-0.51839 -0.18582,-0.98691 -0.46875,-1.375z"
           style="stroke:#000;stroke-width:1.00099552"
           transform="translate(-1622.1024,359.0172)"
           id="path36" />
        <path
           d="m-979.44774,211.1308c-0.33538,0.0258 -0.65298,0.0463 -0.95593,0.0445 -0.0824,0.22763 -0.13338,0.50175 -0.13338,0.82254 0,0.76552 0.28078,1.37831 0.62246,1.37831 0.34168,0 0.62246,-0.61279 0.62246,-1.37831 0,-0.34506 -0.0589,-0.63301 -0.15561,-0.867z"
           style="fill:#c0c0c0"
           id="path38" />
        <path
           d="m608.625,-156.1875c-2.4918,3.32315 -2.463,10.32947 1.875,22.375 -3.8464,3.01632 -3.17325,8.88881 -3.53125,14.125 -3.03799,0.29582 -3.58439,3.26469 -4.53125,5.8125 -2.3809,1.1016 -2.59025,3.08492 -3.40625,4.8125 1.3974,4.24683 3.6057,8.06411 7.6875,10.96875 -2.6914,7.62805 6.85545,8.03125 15.03125,8.03125 8.17575,0 17.72262,-0.403202 15.03125,-8.03125 4.08179,-2.90464 6.29008,-6.72192 7.6875,-10.96875 -0.81599,-1.72758 -1.02531,-3.7109 -3.40625,-4.8125 -0.42151,-3.02886 -2.68229,-4.21109 -4.53125,-5.8125 -0.35801,-5.23619 0.31512,-11.10868 -3.53125,-14.125 4.33805,-12.04553 4.36676,-19.05185 1.875,-22.375 -4.08328,3.33817 -7.70338,7 -13.125,7 -5.42162,0 -9.0417,-3.66183 -13.125,-7z"
           style="stroke:#000;stroke-linejoin:round;fill:none;stroke-width:1.00099552;stroke-linecap:square"
           transform="translate(-1622.1024,359.0172)"
           id="path40" />
        <path
           d="m611.58423,-119.05024c0,0 4.03009,-1.6415 10.16466,-1.6415 6.13457,0 10.16466,1.6415 10.16466,1.6415"
           style="stroke:#000;stroke-linejoin:round;fill:none;stroke-width:1.00099552;stroke-linecap:round"
           transform="translate(-1622.1024,359.0172)"
           id="path42" />
        <path
           d="m636.39611,-112.61052c4.15043,7.08064 -0.34094,10.15297 -7.1342,9.34392 0.95572,-2.87825 5.53766,-4.25314 7.1342,-9.34392z"
           transform="translate(-1622.1024,359.0172)"
           id="path44" />
        <path
           d="m-1014.9985,246.40666c-4.1504,7.08064 0.3409,10.15297 7.1342,9.34392 -0.9557,-2.87825 -5.5377,-4.25314 -7.1342,-9.34392z"
           id="path46" />
        <path
           d="m140.78125,75.59375c-2.92772,4.064725 -2.90941,12.641461 2.1875,27.375 -4.5193,3.68942 -3.73562,10.87658 -4.15625,17.28125 -3.56947,0.36183 -4.19999,3.97739 -5.3125,7.09375 -2.79742,1.34743 -3.04125,3.79315 -4,5.90625 1.64187,5.19453 4.23536,9.85343 9.03125,13.40625 0,0 4.51646,1.63213 6.59375,0.9375 2.07729,-0.69463 8.3597,-2.27633 12.65625,-2.1875 3.34176,0.0691 8.45001,1.45957 10.1875,2.1875 1.73749,0.72793 5.875,-0.9375 5.875,-0.9375 4.79587,-3.55282 7.38936,-8.21172 9.03125,-13.40625 -0.95874,-2.1131 -1.20253,-4.55882 -4,-5.90625 -0.49525,-3.70476 -3.14008,-5.13498 -5.3125,-7.09375 -0.42064,-6.40467 0.36302,-13.59183 -4.15625,-17.28125 5.09696,-14.733539 5.14643,-23.310275 2.21875,-27.375 -4.79762,4.083096 -9.0674,8.5625 -15.4375,8.5625 -6.3701,0 -10.6086,-4.479404 -15.40625,-8.5625z"
           style="stroke:#000;stroke-linejoin:round;fill:none;stroke-width:1.20000005;stroke-linecap:square"
           transform="matrix(.8511,0,0,.81756,-1133.2867,141.02589)"
           id="path48" />
        <g
           transform="matrix(-1,0,0,1,-2000.7048,0)"
           id="g50">
          <path
             d="m636.14357,-145.3142c0,0 0.94025,-4.12911 2.92343,-3.47135 1.99846,0.66284 5.9073,0.25958 9.70347,-0.94807 -1.42548,4.02332 -11.15733,6.99637 -12.6269,4.41942z"
             style="stroke:#000;fill:#c0c0c0;stroke-width:1.00099552"
             transform="translate(-1622.1024,359.0172)"
             id="path52" />
          <path
             d="m644,-148.65625c-1.43503,0.19162 -2.73369,0.22429 -3.78125,0.0937 -0.23856,0.36674 -0.375,0.81024 -0.375,1.28125 0,1.26398 0.98195,2.29418 2.21875,2.34375 0.0102,4.1e-4 0.021,-2.8e-4 0.0312,0 0.0863,-0.0262 0.16363,-0.0659 0.25,-0.0937 0.0405,-0.0128 0.0844,-0.0182 0.125,-0.0312 0.34936,-0.11551 0.71736,-0.23481 1.0625,-0.375 0.013,-0.005 0.0182,-0.0259 0.0312,-0.0312 0.53582,-0.4297 0.90625,-1.06687 0.90625,-1.8125 0,-0.51839 -0.18582,-0.98691 -0.46875,-1.375z"
             style="stroke:#000;stroke-width:1.00099552"
             transform="translate(-1622.1024,359.0172)"
             id="path54" />
          <path
             d="m-979.44774,211.1308c-0.33538,0.0258 -0.65298,0.0463 -0.95593,0.0445 -0.0824,0.22763 -0.13338,0.50175 -0.13338,0.82254 0,0.76552 0.28078,1.37831 0.62246,1.37831 0.34168,0 0.62246,-0.61279 0.62246,-1.37831 0,-0.34506 -0.0589,-0.63301 -0.15561,-0.867z"
             style="fill:#c0c0c0"
             id="path56" />
        </g>
        <path
           d="m652.8125,-182.0625c13.63659,-2.40844 27.27318,-1.94112 40.90977,-28.02773 -2.87409,17.7345 -1.80437,35.71119 -41.9743,40.14891z"
           style="stroke:#000;stroke-linejoin:round;fill:#f00;stroke-width:1.00099552"
           transform="translate(-1622.1024,359.0172)"
           id="path58" />
        <path
           d="m-1031.4149,176.95468c-13.6366,-2.40844 -27.2732,-1.94112 -40.9098,-28.02773 2.8741,17.7345 1.8044,35.71119 41.9743,40.14891z"
           style="stroke:#000;stroke-linejoin:round;fill:#f00;stroke-width:1.00099552"
           id="path60" />
        <path
           d="m606.09375,-186.78125c-5.19599,0.15552 -10.34735,1.27386 -15.40625,4.71875l1.375,15.65625 11.34375,9.75c0.2477,1.64687 1.0704,3.26838 1.875,4.90625 0.7055,-2.30155 1.97305,-3.46639 3.34375,-4.4375 0.2433,2.72402 -0.6774,4.82567 1.875,8.78125 0.3346,-2.72798 1.37795,-4.14808 2.71875,-5.03125 0.3266,2.10382 0.0231,4.53479 2.40625,5.53125 0.898,-1.97669 1.67635,-2.7469 2.40625,-2.875 1.5891,0.5323 2.61125,2.22342 3.71875,3.71875 1.10753,-1.49533 2.1297,-3.18645 3.71875,-3.71875 0.72995,0.1281 1.50825,0.89831 2.40625,2.875 2.38307,-0.99646 2.07972,-3.42743 2.40625,-5.53125 1.34085,0.88317 2.38415,2.30327 2.71875,5.03125 2.55244,-3.95558 1.63173,-6.05723 1.875,-8.78125 1.37071,0.97111 2.63826,2.13595 3.34375,4.4375 0.80469,-1.63787 1.62734,-3.25938 1.875,-4.90625l11.34375,-9.75 1.375,-15.65625c-10.11785,-6.88978 -20.62381,-4.4666 -31.0625,-3.65625 -5.21935,-0.40517 -10.46026,-1.21802 -15.65625,-1.0625z"
           style="stroke:#000;stroke-linejoin:round;fill:#f00;stroke-width:1.00099552;stroke-linecap:round"
           transform="translate(-1622.1024,359.0172)"
           id="path62" />
        <g
           transform="matrix(-1,0,0,1,-2000.7028,-.00382)"
           id="g64">
          <path
             d="m672,-172.625c-6.92343,0.22518 -13.37925,1.82473 -20.25,2.6875l-0.3125,3.53125c0.95278,2.82885 2.11607,5.67179 3.03125,8.5 6.45448,0.11117 13.27755,0.8413 19.2481,-0.65752 5.91878,-3.09695 11.14568,-6.85095 15.72065,-11.12373 -6.38131,-2.45963 -12.05261,-3.11264 -17.4375,-2.9375z"
             style="stroke:#000;stroke-linejoin:round;fill:#f00;stroke-width:1.00099552;stroke-linecap:round"
             transform="translate(-1622.1024,359.0172)"
             id="path66" />
          <path
             d="m-953.7328,192.94259c-5.97386,1.37441 -8.30548,0.1013 -13.82572,2.27149 4.46261,4.54645 15.31365,4.13588 19.03992,1.49114 2.87137,-2.03797 5.11732,-3.80955 7.52881,-6.06175 -3.36362,-1.29648 -7.51307,1.09585 -12.74301,2.29912z"
             style="stroke:#000;fill:none;stroke-width:1.00099552;stroke-linecap:round"
             id="path68" />
        </g>
        <path
           d="m612.32143,-97.321687c7.10199,13.014595 13.55253,12.218319 19.46429,0 -6.76015,-2.720583 -13.17811,-2.019192 -19.46429,0z"
           style="stroke:#000;fill:#c0c0c0;stroke-width:1.00099552;stroke-linecap:round"
           transform="translate(-1622.1024,359.0172)"
           id="path70" />
        <path
           d="m621.90123,-99.083091 0,3.896898"
           style="stroke:#000;fill:#f00;stroke-width:0.83416295;stroke-linecap:round"
           transform="translate(-1622.1024,359.0172)"
           id="path72" />
      </g>
      <path
         d="m-1484.8651,403.00024c-0.8796,2.27417 -1.375,4.72795 -1.375,7.3125 0,11.22758 9.0849,20.34375 20.3125,20.34375 11.2275,0 20.3437,-9.11617 20.3437,-20.34375 0,-2.5834 -0.4962,-5.03917 -1.375,-7.3125"
         style="stroke:#000;fill:none;stroke-width:1.20000005;stroke-linecap:round"
         id="path74" />
      <path
         d="m-1622.1024,359.01717 0,312.38071c0,21.56539 17.4822,39.04759 39.0476,39.04759l78.0952,0c21.5654,0 39.0476,17.4822 39.0476,39.04759 0,-21.56539 17.4822,-39.04759 39.0475,-39.04759l78.0952,0c21.5654,0 39.0476,-17.4822 39.0476,-39.04759l0,-312.38071 -312.3807,0z"
         style="stroke:#000;fill:none;stroke-width:4"
         id="path76" />
    </g>
    <g
       transform="matrix(1.41509,0,0,1.41509,1326.1292,-297.88653)"
       id="g78">
      <path
         d="m-349.0625,406.46875c11.7041,4.38159 24.57215,6.47217 33.40625,16.59375 16.6679,-13.54381 27.40036,-18.25 37.08482,-18.25 9.68446,0 20.40353,4.70619 37.07143,18.25 8.8341,-10.12158 21.70215,-12.21216 33.40625,-16.59375 -28.78516,-34.69155 -58.68304,-33.30185 -70.46875,-33.3125 -11.78571,-0.0106 -46.82188,2.6591 -70.5,33.3125z"
         style="fill:#f00"
         transform="translate(-1622.1024,359.0172)"
         id="path80" />
      <path
         d="m-1691.6962,653.95468c-0.1082,0.55526 -9.1683,46.74634 -30.4062,54.96875 -16.9148,6.5487 -46.9099,-9.74804 -65.625,-5.84375 -36.777,7.67231 -58.1563,23.25 -58.1563,23.25 40.3924,-26.61429 93.8031,25.15123 118.7188,25.28125 16.3664,0.0854 29.3758,-13.24614 38.9062,-29.03125 2.6502,-27.91656 0.8963,-50.02038 -3.4375,-68.625z"
         style="fill:#f00"
         id="path82" />
      <path
         d="m-1672.2274,401.64218c-22.6043,0.83614 -48.0782,21.45145 -53.9063,36.0625 4.9191,21.75695 5.8482,38.88521 8.625,57.28125 0.1438,0.95248 0.2831,1.9149 0.4375,2.875 6.0844,-16.13633 13.1961,-29.96893 27.9063,-26.53125l0,-0.0312 -10.625,-53.1875c18.5366,20.46049 33.014,11.78148 45.375,-11.9375 -5.385,-3.43262 -11.4833,-4.76537 -17.8125,-4.53125z"
         style="fill:#8b0000;stroke:#000"
         id="path84" />
      <path
         d="m-1699.781,418.12406 14.2857,71.42858c11.2935,3.74536 21.3207,2.42533 30.7143,-1.42857l0.3572,-81.96429c-12.361,23.71898 -26.8206,32.42478 -45.3572,11.96428z"
         style="fill:#f00"
         id="path86" />
      <path
         d="m-1654.5399,431.76718c-11.773,14.04572 -25.186,18.12859 -41.2813,6.125l1.0313,5.25c15.6238,11.02939 28.7356,6.80438 40.25,-6.9375l0,-4.4375 z m -0.031,11.46875c-11.3502,12.12428 -24.2352,14.99556 -39.5312,3.34375l1.0312,5.1875c14.8353,10.73039 27.3776,7.77416 38.4688,-4.0625l0.031,-4.46875 z m -0.062,10.0625c-10.8548,10.96572 -23.119,13.43801 -37.5312,2.96875l1.0625,5.21875c13.9482,9.56393 25.8512,6.91879 36.4375,-3.78125l0.031,-4.40625 z m -0.031,9.65625c-10.3509,10.06287 -21.9873,12.397 -35.5313,3.21875l1.0313,5.15625c13.0842,8.33808 24.3914,5.87921 34.4687,-3.90625l0.031,-4.46875z"
         style="fill:#7a7ade;fill-opacity:1;stroke:none;stroke-opacity:1"
         id="path88" />
      <path
         d="m-1726.1481,437.70431c-4.2883,40.83187 -9.4377,80.80265 -11.8693,123.49115 24.0375,43.85176 57.9998,74.47039 49.75,161.37186 14.2575,-14.67869 27.3308,-33.39424 27.0216,-97.73225 -67.0267,-104.0114 -51.7848,-129.11222 -64.9023,-187.13076z"
         style="fill:#f00"
         id="path90" />
      <path
         d="m-1687.8442,679.65572c-4.8842,4.72591 -27.8081,35.74091 -39.7136,35.54003 -18.2833,-0.30848 -38.9559,-7.90217 -58.9196,-12.30357 -1.7985,0.23466 -3.7147,0.72463 -5.3125,1.09375 22.2441,4.29522 43.381,14.01223 63.4062,15.21875 12.8726,0.77557 37.4173,-31.60199 40.6957,-37.64271 -0.053,-0.6358 -0.099,-1.27061 -0.1562,-1.90625 z m -110.977,26.08021c-1.6404,0.44475 -3.2497,0.90695 -4.8125,1.375 26.5304,3.99105 51.2663,19.48783 74.8125,21.0625 12.4218,0.83071 37.5598,-30.47595 41.7895,-36.26771 -0.028,-0.75203 -0.056,-1.49783 -0.094,-2.25 -5.5262,5.80348 -29.6436,35.68203 -41.3519,34.70521 -22.0895,-1.84292 -45.6297,-13.59735 -70.3438,-18.625 z m -11.2812,3.46875c-2.1713,0.73759 -4.2619,1.49348 -6.25,2.25 31.1295,-0.26566 59.8438,21.61205 86.8125,24.5 13.3551,1.43013 40.2235,-32.32966 42.6019,-39.26771 -0.01,-0.79061 -0.013,-1.58405 -0.031,-2.375 -3.7837,5.49928 -28.0271,38.64864 -40.602,37.73646 -25.2317,-1.83031 -53.8116,-20.31093 -82.5312,-22.84375 z m -5.9375,4.5625c-2.5864,0.0569 -5.1907,0.30149 -7.8125,0.75 -0.01,0.004 -0.022,-0.004 -0.031,0 -14.2067,6.16771 -22,11.8125 -22,11.8125 43.6093,-29.09817 82.2855,13.97326 118.125,17.59375 11.385,1.15011 36.6273,-28.79504 40.6332,-39.08021 0.059,-0.95822 0.091,-1.91581 0.125,-2.875 -4.1955,8.31458 -27.753,38.81564 -39.3207,37.73646 -27.4601,-2.56182 -58.0359,-26.63474 -89.7188,-25.9375z"
         style="fill:#7a7ade;fill-opacity:1;stroke:none;stroke-opacity:1"
         id="path92" />
      <path
         d="m-1730.7587,480.07968c-0.6879,6.19441 -1.4227,12.96764 -2,18.5 9.1011,22.25089 27.4801,61.92433 56.8438,121.1875 7.1783,14.48763 10.3339,27.76408 13.3125,38.625 0.01,-0.0903 0.02,-0.14039 0.031,-0.21875 0.2769,-2.91464 0.5261,-5.98587 0.7188,-9.1875 -2.9915,-9.33941 -4.2436,-16.63086 -8.8158,-25.32678 -44.5583,-84.74572 -56.7885,-123.53888 -60.0905,-143.57947 z m -2.7812,26.25c-0.1289,1.28078 -0.2484,2.56062 -0.375,3.84375 -0.1223,1.20769 -0.2578,2.41191 -0.375,3.625 1.6012,7.01875 12.4494,20.18502 53,109.25 9.6177,21.12411 13.8203,38.42722 16.4687,51.75 0.038,-0.20864 0.087,-0.41451 0.125,-0.625 0.4552,-2.53619 0.8771,-5.21491 1.25,-8.03125 -4.0682,-12.83653 -8.6832,-31.21406 -15.0058,-45.15118 -31.0635,-68.4738 -47.3138,-95.48129 -55.0879,-114.66132 z m -1.3125,13.59375c-0.249,2.68419 -0.4837,5.36421 -0.7188,8.0625 5.3552,10.08178 19.5483,32.79378 48.9063,98.34375 12.4911,27.88982 16.7416,48.67258 18.2187,63.375 0.02,-0.0639 0.043,-0.12332 0.062,-0.1875 0.5968,-2.16359 0.8769,-3.12778 1.0938,-3.8125 0.4822,-1.77395 0.9423,-3.58869 1.375,-5.53125 0.043,-0.19218 0.083,-0.39985 0.125,-0.59375 -1.9942,-13.59543 -7.5788,-31.62158 -18.4375,-55.8125 -36.5046,-81.32446 -45.763,-88.58062 -50.625,-103.84375 z m -1.5294,20.3769c6.8176,12.37085 21.3496,35.76493 44.7769,88.84439 15.1431,34.30993 18.4475,57.95662 18.19,73.02871 0.01,-0.012 0.025,-0.0192 0.031,-0.0312 0.5342,-1.07925 1.0514,-2.21383 1.5625,-3.375 0.2585,-0.58707 0.4989,-1.16995 0.75,-1.78125 0.2512,-0.6113 0.507,-1.23728 0.75,-1.875 0.2987,-14.43535 -5.2818,-38.40129 -19.7863,-70.71415 -28.3264,-63.10509 -39.3647,-78.77661 -45.5539,-91.03395 -0.1164,2.05327 -0.2717,5.96093 -0.7204,6.93745 z m 49.5606,180.7481c-0.4668,0.22904 -0.9369,0.47711 -1.375,0.71875 -0.025,0.27237 -0.036,0.53902 -0.062,0.8125 0.4838,-0.49807 0.957,-1.02226 1.4375,-1.53125z"
         style="fill:#7a7ade;fill-opacity:1;stroke:none;stroke-opacity:1"
         id="path94" />
      <path
         d="m-1845.8837,726.32968 -18.3437,12.5c7.8872,3.37795 16.2114,8.41713 24.1562,15.84375l0.2188,0.125c10.7148,-20.01712 28.4016,-25.0458 45.5625,-31.25 -17.522,-5.98823 -35.5774,-7.77185 -51.5938,2.78125z"
         style="fill:#f00"
         id="path96" />
      <path
         d="m-279.03125,378.6875c-10.6299,-0.009 -40.3137,2.62229 -63.625,30 0.9071,0.29485 1.81135,0.58074 2.71875,0.875 22.7889,-25.44625 50.75155,-28.1992 61.34375,-28.25 10.5922,0.0508 38.5862,2.80375 61.375,28.25 0.9075,-0.29426 1.81165,-0.58015 2.71875,-0.875 -23.3113,-27.37771 -52.9951,-30.00929 -63.625,-30 -0.32077,-10e-4 -0.63803,0 -0.90625,0 z m 0.4375,4.90625c-11.71198,0 -37.23955,4.13961 -58.46875,26.90625 0.9288,0.31224 1.86215,0.63726 2.78125,0.96875 20.3952,-20.80354 44.05195,-25.1875 55.6875,-25.1875 11.63555,0 35.32355,4.38396 55.71875,25.1875 0.9191,-0.33149 1.85255,-0.65651 2.78125,-0.96875 -21.2291,-22.76664 -46.78802,-26.90625 -58.5,-26.90625 z m 0,5.0625c-12.09554,0 -33.8412,5.22107 -52.875,23.90625 0.9154,0.36609 1.82355,0.74985 2.71875,1.15625 18.1786,-17.03625 38.33962,-22.40625 50.15625,-22.40625 11.81663,0 32.009,5.37 50.1875,22.40625 0.8953,-0.4064 1.80335,-0.79016 2.71875,-1.15625 -19.0338,-18.68518 -40.81071,-23.90625 -52.90625,-23.90625 z m 0,5.125c-11.90986,0 -30.4922,5.9163 -47.4375,21.25 0.8498,0.44833 1.6793,0.93089 2.5,1.4375 16.1502,-14.0608 33.40419,-19.9375 44.9375,-19.9375 11.53331,0 28.81855,5.8767 44.96875,19.9375 0.8207,-0.50661 1.6502,-0.98917 2.5,-1.4375 -16.9453,-15.3337 -35.55889,-21.25 -47.46875,-21.25z"
         style="fill:#7a7ade;fill-opacity:1;stroke:none;stroke-opacity:1"
         transform="translate(-1622.1024,359.0172)"
         id="path98" />
      <path
         d="m-1820.6649,718.73593c-1.1507,0.0165 -2.2941,0.0652 -3.4375,0.15625 -17.0073,6.17421 -34.0133,19.49928 -36.5938,21.5625 0.7231,0.3513 1.46,0.71301 2.1875,1.09375 11.5763,-10.65021 25.663,-17.03176 39.2188,-22.78125 -0.4571,-0.005 -0.9189,-0.0378 -1.375,-0.0312 z m 6.75,0.3125c-17.8052,4.67394 -37.3568,18.69314 -43.3125,23.1875 0.7118,0.38877 1.4106,0.76911 2.125,1.1875 13.0395,-11.29517 28.857,-17.89409 43.8437,-24.0625 -0.8815,-0.12252 -1.7765,-0.22521 -2.6562,-0.3125 z m 8.3125,1.3125c-19.1551,4.74502 -40.0746,18.96981 -47.5,24.3125 0.695,0.43396 1.3983,0.88005 2.0937,1.34375 14.2693,-11.7029 31.4728,-18.61975 47.7813,-25.09375 -0.7959,-0.1956 -1.579,-0.3904 -2.375,-0.5625 z m 4.7187,1.15625c-22.7023,6.15182 -41.0229,20.21686 -47.7187,26.1875 0.6966,0.50092 1.399,0.99843 2.0937,1.53125 12.4747,-11.90425 30.9578,-21.68903 46.6875,-27.40625 -0.3339,-0.0952 -0.6658,-0.22104 -1,-0.3125 -0.019,-0.005 -0.043,0.005 -0.062,0z"
         style="fill:#7a7ade;fill-opacity:1;stroke:none;stroke-opacity:1"
         id="path100" />
      <path
         d="m-1691.6962,653.95468c-1.7205,8.22284 -4.1388,16.29561 -7.0937,24.15625 1.6285,18.75448 4.7991,37.8136 1.176,56.53665 -0.8043,2.87531 2.0911,-1.8162 2.9432,-2.61657 2.3205,-3.02111 4.443,-6.19121 6.412,-9.45133 2.1647,-22.86761 1.8213,-46.17548 -3.4375,-68.625z"
         style="opacity:0.82527921;fill:#8b0000"
         id="path102" />
      <path
         d="m-1820.6649,718.73593c-9.5345,0.0755 -19.0508,3.03658 -26.7767,8.66048 -1.1994,0.82142 -2.3988,1.64285 -3.5983,2.46427 17.0273,-4.96022 35.0056,-6.57786 52.6617,-5.04056 1.0457,-0.11316 4.0675,-1.00848 3.6508,-1.42009 -8.3484,-2.80465 -17.0897,-4.75612 -25.9375,-4.6641z"
         style="opacity:0.82527921;fill:#800000"
         id="path104" />
      <path
         d="m-2109.6516,653.95468c0.1083,0.55526 9.1684,46.74634 30.4063,54.96875 16.9148,6.5487 46.9098,-9.74804 65.625,-5.84375 36.777,7.67231 58.1562,23.25 58.1562,23.25 -40.3923,-26.61429 -93.803,25.15123 -118.7187,25.28125 -16.3664,0.0854 -29.3758,-13.24614 -38.9063,-29.03125 -2.6501,-27.91656 -0.8962,-50.02038 3.4375,-68.625z"
         style="fill:#f00"
         id="path106" />
      <path
         d="m-2129.1203,401.64218c22.6043,0.83614 48.0782,21.45145 53.9062,36.0625 -4.919,21.75695 -5.8481,38.88521 -8.625,57.28125 -0.1437,0.95248 -0.283,1.9149 -0.4375,2.875 -6.0843,-16.13633 -13.196,-29.96893 -27.9062,-26.53125l0,-0.0312 10.625,-53.1875c-18.5366,20.46049 -33.014,11.78148 -45.375,-11.9375 5.385,-3.43262 11.4833,-4.76537 17.8125,-4.53125z"
         style="fill:#8b0000;stroke:#000"
         id="path108" />
      <path
         d="m-2101.5667,418.12406 -14.2857,71.42858c-11.2935,3.74536 -21.3207,2.42533 -30.7143,-1.42857l-0.3572,-81.96429c12.361,23.71898 26.8206,32.42478 45.3572,11.96428z"
         style="fill:#f00"
         id="path110" />
      <path
         d="m-2146.8078,431.76718c11.773,14.04572 25.186,18.12859 41.2812,6.125l-1.0312,5.25c-15.6238,11.02939 -28.7356,6.80438 -40.25,-6.9375l0,-4.4375 z m 0.031,11.46875c11.3503,12.12428 24.2353,14.99556 39.5313,3.34375l-1.0313,5.1875c-14.8352,10.73039 -27.3775,7.77416 -38.4687,-4.0625l-0.031,-4.46875 z m 0.062,10.0625c10.8549,10.96572 23.1191,13.43801 37.5313,2.96875l-1.0625,5.21875c-13.9482,9.56393 -25.8512,6.91879 -36.4375,-3.78125l-0.031,-4.40625 z m 0.031,9.65625c10.3509,10.06287 21.9873,12.397 35.5312,3.21875l-1.0312,5.15625c-13.0842,8.33808 -24.3914,5.87921 -34.4688,-3.90625l-0.031,-4.46875z"
         style="fill:#7a7ade;fill-opacity:1;stroke:none;stroke-opacity:1"
         id="path112" />
      <path
         d="m-2075.1996,437.70431c4.2883,40.83187 9.4376,80.80265 11.8693,123.49115 -24.0375,43.85176 -57.9998,74.47039 -49.75,161.37186 -14.2575,-14.67869 -27.3308,-33.39424 -27.0216,-97.73225 67.0267,-104.0114 51.7848,-129.11222 64.9023,-187.13076z"
         style="fill:#f00"
         id="path114" />
      <path
         d="m-2113.5035,679.65572c4.8842,4.72591 27.8081,35.74091 39.7136,35.54003 18.2833,-0.30848 38.9559,-7.90217 58.9196,-12.30357 1.7985,0.23466 3.7147,0.72463 5.3125,1.09375 -22.2441,4.29522 -43.381,14.01223 -63.4063,15.21875 -12.8725,0.77557 -37.4172,-31.60199 -40.6956,-37.64271 0.053,-0.6358 0.099,-1.27061 0.1562,-1.90625 z m 110.9769,26.08021c1.6405,0.44475 3.2498,0.90695 4.8125,1.375 -26.5303,3.99105 -51.2662,19.48783 -74.8125,21.0625 -12.4217,0.83071 -37.5597,-30.47595 -41.7894,-36.26771 0.028,-0.75203 0.056,-1.49783 0.094,-2.25 5.5262,5.80348 29.6436,35.68203 41.3519,34.70521 22.0895,-1.84292 45.6297,-13.59735 70.3437,-18.625 z m 11.2813,3.46875c2.1713,0.73759 4.2619,1.49348 6.25,2.25 -31.1295,-0.26566 -59.8438,21.61205 -86.8125,24.5 -13.3551,1.43013 -40.2235,-32.32966 -42.6019,-39.26771 0.01,-0.79061 0.013,-1.58405 0.031,-2.375 3.7837,5.49928 28.0271,38.64864 40.6019,37.73646 25.2318,-1.83031 53.8117,-20.31093 82.5313,-22.84375 z m 5.9375,4.5625c2.5863,0.0569 5.1906,0.30149 7.8125,0.75 0.01,0.004 0.022,-0.004 0.031,0 14.2067,6.16771 22,11.8125 22,11.8125 -43.6093,-29.09817 -82.2855,13.97326 -118.125,17.59375 -11.385,1.15011 -36.6273,-28.79504 -40.6332,-39.08021 -0.059,-0.95822 -0.091,-1.91581 -0.125,-2.875 4.1955,8.31458 27.753,38.81564 39.3207,37.73646 27.4601,-2.56182 58.0359,-26.63474 89.7187,-25.9375z"
         style="fill:#7a7ade;fill-opacity:1;stroke:none;stroke-opacity:1"
         id="path116" />
      <path
         d="m-2070.5891,480.07968c0.688,6.19441 1.4228,12.96764 2,18.5 -9.101,22.25089 -27.48,61.92433 -56.8437,121.1875 -7.1783,14.48763 -10.3339,27.76408 -13.3125,38.625 -0.01,-0.0903 -0.02,-0.14039 -0.031,-0.21875 -0.2768,-2.91464 -0.526,-5.98587 -0.7187,-9.1875 2.9915,-9.33941 4.2436,-16.63086 8.8158,-25.32678 44.5583,-84.74572 56.7885,-123.53888 60.0904,-143.57947 z m 2.7813,26.25c0.1289,1.28078 0.2484,2.56062 0.375,3.84375 0.1223,1.20769 0.2578,2.41191 0.375,3.625 -1.6012,7.01875 -12.4494,20.18502 -53,109.25 -9.6177,21.12411 -13.8203,38.42722 -16.4688,51.75 -0.038,-0.20864 -0.087,-0.41451 -0.125,-0.625 -0.4551,-2.53619 -0.877,-5.21491 -1.25,-8.03125 4.0683,-12.83653 8.6833,-31.21406 15.0059,-45.15118 31.0635,-68.4738 47.3138,-95.48129 55.0879,-114.66132 z m 1.3125,13.59375c0.249,2.68419 0.4837,5.36421 0.7187,8.0625 -5.3551,10.08178 -19.5482,32.79378 -48.9062,98.34375 -12.4911,27.88982 -16.7416,48.67258 -18.2188,63.375 -0.02,-0.0639 -0.043,-0.12332 -0.062,-0.1875 -0.5967,-2.16359 -0.8768,-3.12778 -1.0937,-3.8125 -0.4822,-1.77395 -0.9423,-3.58869 -1.375,-5.53125 -0.043,-0.19218 -0.083,-0.39985 -0.125,-0.59375 1.9942,-13.59543 7.5788,-31.62158 18.4375,-55.8125 36.5046,-81.32446 45.763,-88.58062 50.625,-103.84375 z m 1.5293,20.3769c-6.8175,12.37085 -21.3495,35.76493 -44.7768,88.84439 -15.1431,34.30993 -18.4475,57.95662 -18.19,73.02871 -0.01,-0.012 -0.025,-0.0192 -0.031,-0.0312 -0.5341,-1.07925 -1.0513,-2.21383 -1.5625,-3.375 -0.2584,-0.58707 -0.4988,-1.16995 -0.75,-1.78125 -0.2511,-0.6113 -0.5069,-1.23728 -0.75,-1.875 -0.2986,-14.43535 5.2819,-38.40129 19.7864,-70.71415 28.3264,-63.10509 39.3647,-78.77661 45.5539,-91.03395 0.1164,2.05327 0.2717,5.96093 0.7203,6.93745 z m -49.5606,180.7481c0.4669,0.22904 0.937,0.47711 1.375,0.71875 0.025,0.27237 0.037,0.53902 0.062,0.8125 -0.4837,-0.49807 -0.9569,-1.02226 -1.4375,-1.53125z"
         style="fill:#7a7ade;fill-opacity:1;stroke:none;stroke-opacity:1"
         id="path118" />
      <path
         d="m-1955.464,726.32968 18.3437,12.5c-7.8872,3.37795 -16.2114,8.41713 -24.1562,15.84375l-0.2188,0.125c-10.7148,-20.01712 -28.4016,-25.0458 -45.5625,-31.25 17.522,-5.98823 35.5774,-7.77185 51.5938,2.78125z"
         style="fill:#f00"
         id="path120" />
      <path
         d="m-1980.6828,718.73593c1.1507,0.0165 2.2941,0.0652 3.4375,0.15625 17.0073,6.17421 34.0132,19.49928 36.5937,21.5625 -0.723,0.3513 -1.4599,0.71301 -2.1875,1.09375 -11.5762,-10.65021 -25.6629,-17.03176 -39.2187,-22.78125 0.4571,-0.005 0.9189,-0.0378 1.375,-0.0312 z m -6.75,0.3125c17.8051,4.67394 37.3567,18.69314 43.3125,23.1875 -0.7119,0.38877 -1.4106,0.76911 -2.125,1.1875 -13.0395,-11.29517 -28.857,-17.89409 -43.8438,-24.0625 0.8815,-0.12252 1.7766,-0.22521 2.6563,-0.3125 z m -8.3125,1.3125c19.1551,4.74502 40.0746,18.96981 47.5,24.3125 -0.6951,0.43396 -1.3983,0.88005 -2.0938,1.34375 -14.2693,-11.7029 -31.4727,-18.61975 -47.7812,-25.09375 0.7959,-0.1956 1.5789,-0.3904 2.375,-0.5625 z m -4.7188,1.15625c22.7024,6.15182 41.023,20.21686 47.7188,26.1875 -0.6966,0.50092 -1.399,0.99843 -2.0938,1.53125 -12.4746,-11.90425 -30.9578,-21.68903 -46.6875,-27.40625 0.334,-0.0952 0.6659,-0.22104 1,-0.3125 0.019,-0.005 0.043,0.005 0.062,0z"
         style="fill:#7a7ade;fill-opacity:1;stroke:none;stroke-opacity:1"
         id="path122" />
      <path
         d="m-2109.6515,653.95468c1.7205,8.22284 4.1388,16.29561 7.0937,24.15625 -1.6285,18.75448 -4.7991,37.8136 -1.176,56.53665 0.8043,2.87531 -2.0911,-1.8162 -2.9432,-2.61657 -2.3205,-3.02111 -4.443,-6.19121 -6.412,-9.45133 -2.1647,-22.86761 -1.8213,-46.17548 3.4375,-68.625z"
         style="opacity:0.82527921;fill:#8b0000"
         id="path124" />
      <path
         d="m-1980.6828,718.73593c9.5345,0.0755 19.0508,3.03658 26.7767,8.66048 1.1994,0.82142 2.3988,1.64285 3.5983,2.46427 -17.0273,-4.96022 -35.0056,-6.57786 -52.6617,-5.04056 -1.0457,-0.11316 -4.0675,-1.00848 -3.6508,-1.42009 8.3484,-2.80465 17.0897,-4.75612 25.9375,-4.6641z"
         style="opacity:0.82527921;fill:#800000"
         id="path126" />
      <path
         d="m-349.0625,406.46875c11.7041,4.38159 24.57215,6.47217 33.40625,16.59375 16.6679,-13.54381 27.40036,-18.25 37.08482,-18.25 9.68446,0 20.40353,4.70619 37.07143,18.25 8.8341,-10.12158 21.70215,-12.21216 33.40625,-16.59375 -28.78516,-34.69155 -58.68304,-33.30185 -70.46875,-33.3125 -11.78571,-0.0106 -46.82188,2.6591 -70.5,33.3125z"
         style="stroke:#000;stroke-linejoin:round;fill:none;stroke-linecap:square"
         transform="translate(-1622.1024,359.0172)"
         id="path128" />
      <path
         d="m-1845.8837,726.32968 -18.3437,12.5c7.8872,3.37795 16.2114,8.41713 24.1562,15.84375l0.2188,0.125c10.7148,-20.01712 28.4016,-25.0458 45.5625,-31.25 -17.522,-5.98823 -35.5774,-7.77185 -51.5938,2.78125z"
         style="stroke:#000;stroke-linejoin:round;fill:none;stroke-linecap:square"
         id="path130" />
      <path
         d="m-1863.1337,738.73593c-0.3994,0.017 -0.7659,0.0521 -1.0937,0.0937 11.2467,4.81676 23.4359,12.9396 34.0312,26.65625 24.5989,-16.0816 -20.554,-27.27784 -32.9375,-26.75z"
         style="fill:#8b0000;stroke:#000"
         id="path132" />
      <path
         d="m-1691.6962,653.95468c-0.1082,0.55526 -9.1683,46.74634 -30.4062,54.96875 -16.9148,6.5487 -46.9099,-9.74804 -65.625,-5.84375 -36.777,7.67231 -58.1563,23.25 -58.1563,23.25 40.3924,-26.61429 93.8031,25.15123 118.7188,25.28125 16.3664,0.0854 29.3758,-13.24614 38.9062,-29.03125 2.6502,-27.91656 0.8963,-50.02038 -3.4375,-68.625z"
         style="stroke:#000;stroke-linejoin:round;fill:none;stroke-linecap:square"
         id="path134" />
      <path
         d="m-1726.1481,437.70431c-4.2883,40.83187 -9.4377,80.80265 -11.8693,123.49115 24.0375,43.85176 57.9998,74.47039 49.75,161.37186 14.2575,-14.67869 27.3308,-33.39424 27.0216,-97.73225 -67.0267,-104.0114 -51.7848,-129.11222 -64.9023,-187.13076z"
         style="stroke:#000;stroke-linejoin:round;fill:none;stroke-linecap:square"
         id="path136" />
      <path
         d="m-1699.781,418.12406 14.2857,71.42858c11.2935,3.74536 21.3207,2.42533 30.7143,-1.42857l0.3572,-81.96429c-12.361,23.71898 -26.8206,32.42478 -45.3572,11.96428z"
         style="stroke:#000;stroke-linejoin:round;fill:none;stroke-linecap:square"
         id="path138" />
      <path
         d="m-1955.464,726.32968 18.3437,12.5c-7.8872,3.37795 -16.2114,8.41713 -24.1562,15.84375l-0.2188,0.125c-10.7148,-20.01712 -28.4016,-25.0458 -45.5625,-31.25 17.522,-5.98823 35.5774,-7.77185 51.5938,2.78125z"
         style="stroke:none;stroke-linejoin:round;fill:none;stroke-linecap:square;stroke-opacity:1"
         id="path140" />
      <path
         d="m-2109.6516,653.95468c0.1083,0.55526 9.1684,46.74634 30.4063,54.96875 16.9148,6.5487 46.9098,-9.74804 65.625,-5.84375 36.777,7.67231 58.1562,23.25 58.1562,23.25 -40.3923,-26.61429 -93.803,25.15123 -118.7187,25.28125 -16.3664,0.0854 -29.3758,-13.24614 -38.9063,-29.03125 -2.6501,-27.91656 -0.8962,-50.02038 3.4375,-68.625z"
         style="stroke:#000;stroke-linejoin:round;fill:none;stroke-linecap:square"
         id="path142" />
      <path
         d="m-1938.2141,738.73593c0.3995,0.017 0.766,0.0521 1.0938,0.0937 -11.2467,4.81676 -23.4359,12.9396 -34.0313,26.65625 -24.5988,-16.0816 20.5541,-27.27784 32.9375,-26.75z"
         style="fill:#8b0000;stroke:#000"
         id="path144" />
      <path
         d="m-2075.1996,437.70431c4.2883,40.83187 9.4376,80.80265 11.8693,123.49115 -24.0375,43.85176 -57.9998,74.47039 -49.75,161.37186 -14.2575,-14.67869 -27.3308,-33.39424 -27.0216,-97.73225 67.0267,-104.0114 51.7848,-129.11222 64.9023,-187.13076z"
         style="stroke:#000;stroke-linejoin:round;fill:none;stroke-linecap:square"
         id="path146" />
      <path
         d="m-2101.5667,418.12406 -14.2857,71.42858c-11.2935,3.74536 -21.3207,2.42533 -30.7143,-1.42857l-0.3572,-81.96429c12.361,23.71898 26.8206,32.42478 45.3572,11.96428z"
         style="stroke:#000;stroke-linejoin:round;fill:none;stroke-linecap:square"
         id="path148" />
    </g>
    <g
       style="fill:#ffd700"
       transform="matrix(1.41509,0,0,1.41509,-119.0833,79.2784)"
       id="g150">
      <path
         d="m725.3125,-407 1.0625,42.21875c-4.99889,0.16977 -9.34277,0.33396 -12.78125,0.96875l-4.4375,-41.46875c-4.20802,0.56406 -8.37606,1.23862 -12.53125,1.96875 -7.6412,1.31896 -11.36176,1.89134 -18.9375,3.78125l7.71875,39.96875c-1.84008,0.41241 -8.92793,2.21035 -10.65625,2.65625l-11,-38.53125c-11.20563,3.04327 -18.40371,5.24271 -29.28125,9.65625 9.07441,22.27505 20.14493,49.46162 27.5625,74.8125 0,-5.71839 36.12592,-10.375 80.6875,-10.375 44.56158,0 80.6875,4.65661 80.6875,10.375 7.41757,-25.35088 18.48809,-52.53745 27.5625,-74.8125 -10.87754,-4.41354 -18.07562,-6.61298 -29.28125,-9.65625l-11,38.53125c-1.72832,-0.4459 -8.81617,-2.24384 -10.65625,-2.65625l7.71875,-39.96875c-7.57574,-1.88991 -11.2963,-2.46229 -18.9375,-3.78125 -4.15519,-0.73013 -8.32323,-1.40469 -12.53125,-1.96875l-4.4375,41.46875c-3.43848,-0.63479 -7.78236,-0.79898 -12.78125,-0.96875L760.125,-407c-11.94757,-1.06238 -23.70047,-0.85887 -34.8125,0z"
         style="stroke:#000;stroke-linejoin:round;fill:#ffd700;stroke-linecap:round"
         transform="translate(-1622.1024,359.0172)"
         id="path152" />
      <path
         d="m819.99132,-307.94876a77.402939,5.8083773 0 1 1 -154.80588,0 77.402939,5.8083773 0 1 1 154.80588,0z"
         style="opacity:0.82527921;fill:#ffd700;stroke:#000"
         transform="matrix(1.04241,0,0,1.78261,-1653.472,596.99009)"
         id="path154" />
      <path
         d="m819.99132,-307.94876a77.402939,5.8083773 0 1 1 -154.80588,0 77.402939,5.8083773 0 1 1 154.80588,0z"
         style="opacity:0.82527921;fill:#daa520;stroke:#000"
         transform="matrix(.90583,0,0,.98344,-1552.0435,352.40659)"
         id="path156" />
      <path
         d="m740.5625,-407.78125 0,20.25c-4.72368,6.8e-4 -9.39267,0.0887 -14.75,0.375l0.0937,4.09375c5.57859,-0.36993 11.17881,-0.5378 16.8125,-0.5 5.63369,-0.0378 11.23391,0.13007 16.8125,0.5l0.0937,-4.09375c-5.35733,-0.28628 -10.02632,-0.37432 -14.75,-0.375l0,-20.25c-1.48107,-0.0436 -2.93526,-0.0209 -4.3125,0 z m -46.1875,4.84375c-1.25838,0.21568 -2.52489,0.43193 -3.625,0.625l3.03125,19.5c-4.21951,0.90037 -8.31253,1.88938 -12.28125,2.96875l0.6875,3.625c9.75894,-2.3609 19.59052,-4.22183 29.5,-5.46875l-0.4375,-4.125c-4.77089,0.61409 -9.3847,1.37735 -13.84375,2.25 z m 96.6875,0 -3.03125,19.375c-4.45905,-0.87265 -9.07286,-1.63591 -13.84375,-2.25l-0.4375,4.125c9.90948,1.24692 19.74106,3.10785 29.5,5.46875l0.6875,-3.625c-3.96872,-1.07937 -8.06174,-2.06838 -12.28125,-2.96875l3.03125,-19.5c-1.10011,-0.19307 -2.36662,-0.40932 -3.625,-0.625 z M 649.75,-391.375c-1.158,0.37031 -2.30732,0.76041 -3.46875,1.15625l7.46875,19.4375c-3.91735,1.45056 -7.74718,2.91877 -11.46875,4.34375 0.30417,0.76359 0.60139,1.54315 0.90625,2.3125l0.0312,0c8.92169,-3.36366 17.87906,-6.35459 26.90625,-8.9375l-0.875,-3.125c-4.14719,1.33974 -8.14722,2.73754 -12.0625,4.15625 z m 185.9375,0 -7.4375,19.34375c-3.91528,-1.41871 -7.91531,-2.81651 -12.0625,-4.15625l-0.875,3.125c9.02719,2.58291 17.98456,5.57384 26.90625,8.9375l0.0312,0c0.30486,-0.76935 0.60208,-1.54891 0.90625,-2.3125 -3.72157,-1.42498 -7.5514,-2.89319 -11.46875,-4.34375l7.46875,-19.4375c-1.16143,-0.39584 -2.31075,-0.78594 -3.46875,-1.15625z"
         style="stroke:#000;stroke-linejoin:round;fill:#ffd700;stroke-linecap:round"
         transform="translate(-1622.1024,359.0172)"
         id="path158" />
      <path
         d="m-882.0399,-2.42032 0,19.46875c-8.88602,-0.009 -17.94282,0.91055 -27.15625,2.1875 -1.51442,0.21218 -3.05076,0.4537 -4.5625,0.6875l-2.96875,-19.25c1.60233,-0.2478 3.2063,-0.49361 4.8125,-0.71875 9.69032,-1.3722 19.67256,-2.35402 29.875,-2.375 z m -38.46875,3.71875 3.1875,19.1875c-7.45145,1.23723 -14.85589,2.73108 -22.21875,4.46875 -3.1734,0.75277 -6.32664,1.53874 -9.4375,2.375l-5.0625,-18.8125c3.34509,-0.90163 6.69949,-1.71706 10.03125,-2.5 7.7766,-1.83639 15.60593,-3.40831 23.5,-4.71875 z m -37.25,8.28125 5.34375,18.71875c-4.28632,1.2196 -8.5138,2.56273 -12.625,4.0625 -2.27444,-6.83358 -4.30107,-12.03223 -6.40625,-18.40625 4.54073,-1.63962 9.11908,-3.06996 13.6875,-4.375 z m 81.03125,-12 0,19.46875c8.88602,-0.009 17.94282,0.91055 27.15625,2.1875 1.51442,0.21218 3.05076,0.4537 4.5625,0.6875l2.96875,-19.25c-1.60233,-0.2478 -3.2063,-0.49361 -4.8125,-0.71875 -9.69032,-1.3722 -19.67256,-2.35402 -29.875,-2.375 z m 38.46875,3.71875 -3.1875,19.1875c7.45145,1.23723 14.85589,2.73108 22.21875,4.46875 3.1734,0.75277 6.32664,1.53874 9.4375,2.375l5.0625,-18.8125c-3.34509,-0.90163 -6.69949,-1.71706 -10.03125,-2.5 -7.7766,-1.83639 -15.60593,-3.40831 -23.5,-4.71875 z m 37.25,8.28125 -5.34375,18.71875c4.28632,1.2196 8.5138,2.56273 12.625,4.0625 2.27444,-6.83358 4.30107,-12.03223 6.40625,-18.40625 -4.54073,-1.63962 -9.11908,-3.06996 -13.6875,-4.375z"
         style="stroke:#000;stroke-linejoin:round;fill:#ffd700;stroke-width:0.96621716;stroke-linecap:round"
         id="path160" />
      <g
         style="fill:#ffd700"
         id="g162">
        <path
           d="m-840.11255,25.733922c0,0 11.56017,-7.164766 18.66937,-8.614279 8.17968,-1.667767 16.16889,3.297746 25.49672,0.3331 -12.32181,14.223734 -26.94495,17.45645 -44.16609,8.281179z"
           style="stroke:#000;stroke-linejoin:round;fill:#ffd700;stroke-width:0.9151004;stroke-linecap:square"
           id="path164" />
        <path
           d="m-801.11471,20.418506c-13.2672,6.131067 -20.05826,-0.02048 -33.61307,4.960563 4.83031,-1.142769 9.95027,1.725529 15.0356,4.114424"
           style="stroke:#000;stroke-linejoin:round;fill:#ffd700;stroke-width:0.9151004;stroke-linecap:round"
           id="path166" />
        <path
           d="m-824.96569,23.318156c3.14537,2.084206 7.35372,3.664265 11.78309,5.139493"
           style="stroke:#000;stroke-linejoin:round;fill:#ffd700;stroke-width:0.9151004;stroke-linecap:round"
           id="path168" />
        <path
           d="m-817.97172,23.325339c2.13667,1.32743 5.32231,2.424774 9.04522,2.606022"
           style="stroke:#000;stroke-linejoin:round;fill:#ffd700;stroke-width:0.9151004;stroke-linecap:round"
           id="path170" />
        <path
           d="m-810.0335,23.076426c1.90078,0.802074 3.43709,0.687642 4.93736,0.482538"
           style="stroke:#000;stroke-linejoin:round;fill:#ffd700;stroke-width:0.9151004;stroke-linecap:round"
           id="path172" />
        <path
           d="m-811.27426,22.224873c0.43538,-1.187371 2.24779,-2.044808 3.70782,-2.98667"
           style="stroke:#000;stroke-linejoin:round;fill:#ffd700;stroke-width:0.9151004;stroke-linecap:round"
           id="path174" />
        <path
           d="m-819.50525,21.495632c1.14495,-1.253932 3.24005,-1.852482 5.33629,-2.450247"
           style="stroke:#000;stroke-linejoin:round;fill:#ffd700;stroke-width:0.9151004;stroke-linecap:round"
           id="path176" />
        <path
           d="m-826.33484,22.125787c1.98961,-1.745556 3.75014,-2.298582 5.50313,-2.812408"
           style="stroke:#000;stroke-linejoin:round;fill:#ffd700;stroke-width:0.9151004;stroke-linecap:round"
           id="path178" />
        <path
           d="m-869.77388,19.777889c0,0 12.59812,-8.272283 20.34564,-9.9458597 8.9141,-1.925568 17.62064,3.8075057 27.78599,0.3845897 -13.42815,16.422415 -29.36425,20.154838 -48.13163,9.56127z"
           style="stroke:#000;stroke-linejoin:round;fill:#ffd700;stroke-width:1.02648175;stroke-linecap:square"
           id="path180" />
        <path
           d="m-827.27455,13.640825c-14.45842,7.078797 -21.85922,-0.02365 -36.63108,5.727358 5.26401,-1.319416 10.84367,1.992259 16.3856,4.750425"
           style="stroke:#000;stroke-linejoin:round;fill:#ffd700;stroke-width:1.02648175;stroke-linecap:round"
           id="path182" />
        <path
           d="m-853.26703,16.988698c3.42778,2.406379 8.01398,4.230681 12.84106,5.933947"
           style="stroke:#000;stroke-linejoin:round;fill:#ffd700;stroke-width:1.02648175;stroke-linecap:round"
           id="path184" />
        <path
           d="m-845.6451,16.996991c2.32852,1.532622 5.80019,2.799592 9.85737,3.008857"
           style="stroke:#000;stroke-linejoin:round;fill:#ffd700;stroke-width:1.02648175;stroke-linecap:round"
           id="path186" />
        <path
           d="m-836.99412,16.709602c2.07144,0.926057 3.74569,0.793936 5.38066,0.557128"
           style="stroke:#000;stroke-linejoin:round;fill:#ffd700;stroke-width:1.02648175;stroke-linecap:round"
           id="path188" />
        <path
           d="m-838.34628,15.726418c0.47446,-1.370913 2.4496,-2.360891 4.04073,-3.448346"
           style="stroke:#000;stroke-linejoin:round;fill:#ffd700;stroke-width:1.02648175;stroke-linecap:round"
           id="path190" />
        <path
           d="m-847.31632,14.884451c1.24776,-1.447762 3.53097,-2.138835 5.81543,-2.829002"
           style="stroke:#000;stroke-linejoin:round;fill:#ffd700;stroke-width:1.02648175;stroke-linecap:round"
           id="path192" />
        <path
           d="m-854.75911,15.612015c2.16825,-2.015381 4.08685,-2.653894 5.99724,-3.247146"
           style="stroke:#000;stroke-linejoin:round;fill:#ffd700;stroke-width:1.02648175;stroke-linecap:round"
           id="path194" />
        <path
           d="m-879.38774,22.1528c0,0 13.72182,-3.43526 20.45559,-2.14657 7.7477,1.48274 11.51263,10.51715 20.96066,10.98541 -18.42392,11.23912 -32.41963,8.87732 -41.41625,-8.83884z"
           style="stroke:#000;stroke-linejoin:round;fill:#ffd700;stroke-linecap:square"
           id="path196" />
        <path
           d="m-843.96927,32.25433c-14.54199,1.53627 -16.62903,-8.36432 -30.74652,-8.27062 4.66627,0.69394 7.26005,6.12262 10.10153,10.9854"
           style="stroke:#000;stroke-linejoin:round;fill:#ffd700;stroke-linecap:round"
           id="path198" />
        <path
           d="m-865.42859,25.67219c1.40772,3.70558 3.98801,7.27321 6.81211,10.81215"
           style="stroke:#000;stroke-linejoin:round;fill:#ffd700;stroke-linecap:round"
           id="path200" />
        <path
           d="m-859.63036,28.58873c1.00724,2.41555 3.0174,5.0026 6.00151,6.75919"
           style="stroke:#000;stroke-linejoin:round;fill:#ffd700;stroke-linecap:round"
           id="path202" />
        <path
           d="m-852.90108,31.60331c1.11445,1.71309 2.455,2.22029 3.81792,2.60819"
           style="stroke:#000;stroke-linejoin:round;fill:#ffd700;stroke-linecap:round"
           id="path204" />
        <path
           d="m-853.43944,30.10775c1.04584,-1.1849 3.04386,-1.41764 4.79822,-1.89403"
           style="stroke:#000;stroke-linejoin:round;fill:#ffd700;stroke-linecap:round"
           id="path206" />
        <path
           d="m-859.8476,25.84617c1.6729,-0.96641 3.75617,-0.78378 5.83994,-0.59977"
           style="stroke:#000;stroke-linejoin:round;fill:#ffd700;stroke-linecap:round"
           id="path208" />
        <path
           d="m-865.87695,23.73117c2.65712,-1.18074 4.43658,-1.08486 6.18718,-0.94702"
           style="stroke:#000;stroke-linejoin:round;fill:#ffd700;stroke-linecap:round"
           id="path210" />
        <path
           d="m-902.13753,16.365267c0,0 11.70879,-8.5341369 18.90939,-10.2606897 8.28483,-1.9865207 16.37676,3.9280307 25.82452,0.396764 -12.48023,16.9422577 -27.29137,20.7928287 -44.73391,9.8639257z"
           style="stroke:#000;stroke-linejoin:round;fill:#ffd700;stroke-width:1.00512826;stroke-linecap:square"
           id="path212" />
        <path
           d="m-862.63832,10.033939c-13.43777,7.302872 -20.31614,-0.0244 -34.04521,5.908653 4.89241,-1.361181 10.07819,2.055324 15.2289,4.900798"
           style="stroke:#000;stroke-linejoin:round;fill:#ffd700;stroke-width:1.00512826;stroke-linecap:round"
           id="path214" />
        <path
           d="m-886.79594,13.487787c3.18581,2.482551 7.44826,4.3646 11.93458,6.121783"
           style="stroke:#000;stroke-linejoin:round;fill:#ffd700;stroke-width:1.00512826;stroke-linecap:round"
           id="path216" />
        <path
           d="m-879.71206,13.496342c2.16415,1.581137 5.39075,2.888211 9.16152,3.104101"
           style="stroke:#000;stroke-linejoin:round;fill:#ffd700;stroke-width:1.00512826;stroke-linecap:round"
           id="path218" />
        <path
           d="m-871.67177,13.199856c1.92521,0.955371 3.48128,0.819068 5.00083,0.574763"
           style="stroke:#000;stroke-linejoin:round;fill:#ffd700;stroke-width:1.00512826;stroke-linecap:round"
           id="path220" />
        <path
           d="m-872.92848,12.185549c0.44097,-1.414308 2.27668,-2.4356234 3.75549,-3.5575004"
           style="stroke:#000;stroke-linejoin:round;fill:#ffd700;stroke-width:1.00512826;stroke-linecap:round"
           id="path222" />
        <path
           d="m-881.2653,11.316931c1.15967,-1.4935904 3.28171,-2.2065389 5.4049,-2.9185528"
           style="stroke:#000;stroke-linejoin:round;fill:#ffd700;stroke-width:1.00512826;stroke-linecap:round"
           id="path224" />
        <path
           d="m-888.18269,12.067525c2.01519,-2.0791766 3.79835,-2.737901 5.57388,-3.3499324"
           style="stroke:#000;stroke-linejoin:round;fill:#ffd700;stroke-width:1.00512826;stroke-linecap:round"
           id="path226" />
        <path
           d="m-813.04836,35.246845c0,0 8.89994,-2.779984 13.26745,-1.737112 5.02514,1.199907 7.46707,8.511002 13.59504,8.889941 -11.94971,9.095255 -21.0273,7.183969 -26.86249,-7.152829z"
           style="stroke:#000;stroke-linejoin:round;fill:#ffd700;stroke-width:0.72448444;stroke-linecap:square"
           id="path228" />
        <path
           d="m-790.07602,43.421506c-9.4319,1.243226 -10.78555,-6.768825 -19.94212,-6.692998 3.02653,0.561571 4.70885,4.954729 6.55183,8.889933"
           style="stroke:#000;stroke-linejoin:round;fill:#ffd700;stroke-width:0.72448444;stroke-linecap:round"
           id="path230" />
        <path
           d="m-803.99449,38.09491c0.91305,2.99874 2.58662,5.885844 4.41832,8.74973"
           style="stroke:#000;stroke-linejoin:round;fill:#ffd700;stroke-width:0.72448444;stroke-linecap:round"
           id="path232" />
        <path
           d="m-800.23377,40.45512c0.6533,1.954783 1.95708,4.048352 3.89257,5.469873"
           style="stroke:#000;stroke-linejoin:round;fill:#ffd700;stroke-width:0.72448444;stroke-linecap:round"
           id="path234" />
        <path
           d="m-795.86917,42.894668c0.72283,1.386317 1.59231,1.796769 2.47629,2.110677"
           style="stroke:#000;stroke-linejoin:round;fill:#ffd700;stroke-width:0.72448444;stroke-linecap:round"
           id="path236" />
        <path
           d="m-796.21835,41.684386c0.67833,-0.95888 1.97424,-1.147225 3.11212,-1.532743"
           style="stroke:#000;stroke-linejoin:round;fill:#ffd700;stroke-width:0.72448444;stroke-linecap:round"
           id="path238" />
        <path
           d="m-800.37467,38.235703c1.08504,-0.782067 2.43625,-0.634273 3.78777,-0.485363"
           style="stroke:#000;stroke-linejoin:round;fill:#ffd700;stroke-width:0.72448444;stroke-linecap:round"
           id="path240" />
        <path
           d="m-804.28529,36.52414c1.7234,-0.955513 2.87755,-0.877923 4.01299,-0.766376"
           style="stroke:#000;stroke-linejoin:round;fill:#ffd700;stroke-width:0.72448444;stroke-linecap:round"
           id="path242" />
        <path
           d="m-845.43932,27.358899c0,0 11.81546,-2.958002 17.61371,-1.848349 6.67132,1.276744 9.91319,9.056011 18.04862,9.459216 -15.8643,9.677677 -27.9156,7.644 -35.66233,-7.610867z"
           style="stroke:#000;stroke-linejoin:round;fill:#ffd700;stroke-width:0.86107075;stroke-linecap:square"
           id="path244" />
        <path
           d="m-814.94151,36.057031c-12.52168,1.322837 -14.31877,-7.202271 -26.47493,-7.121589 4.01799,0.597531 6.25142,5.272009 8.69814,9.459207"
           style="stroke:#000;stroke-linejoin:round;fill:#ffd700;stroke-width:0.86107075;stroke-linecap:round"
           id="path246" />
        <path
           d="m-833.4195,30.389343c1.21215,3.190766 3.43396,6.262748 5.86571,9.310026"
           style="stroke:#000;stroke-linejoin:round;fill:#ffd700;stroke-width:0.86107075;stroke-linecap:round"
           id="path248" />
        <path
           d="m-828.42681,32.90069c0.8673,2.07996 2.59819,4.307593 5.16772,5.820141"
           style="stroke:#000;stroke-linejoin:round;fill:#ffd700;stroke-width:0.86107075;stroke-linecap:round"
           id="path250" />
        <path
           d="m-822.63243,35.496457c0.95962,1.475092 2.11393,1.911827 3.2875,2.245836"
           style="stroke:#000;stroke-linejoin:round;fill:#ffd700;stroke-width:0.86107075;stroke-linecap:round"
           id="path252" />
        <path
           d="m-823.09599,34.208674c0.90054,-1.020283 2.62098,-1.220689 4.1316,-1.630894"
           style="stroke:#000;stroke-linejoin:round;fill:#ffd700;stroke-width:0.86107075;stroke-linecap:round"
           id="path254" />
        <path
           d="m-828.61387,30.539152c1.44048,-0.832148 3.23433,-0.67489 5.0286,-0.516445"
           style="stroke:#000;stroke-linejoin:round;fill:#ffd700;stroke-width:0.86107075;stroke-linecap:round"
           id="path256" />
        <path
           d="m-833.80557,28.717987c2.28797,-1.016701 3.82021,-0.934141 5.3276,-0.815451"
           style="stroke:#000;stroke-linejoin:round;fill:#ffd700;stroke-width:0.86107075;stroke-linecap:round"
           id="path258" />
        <path
           d="m-809.44623,31.269642c0,0 8.22002,-7.164766 13.27512,-8.614279 5.81626,-1.667767 11.4971,3.297746 18.12979,0.3331 -8.7616,14.223734 -19.15958,17.45645 -31.40491,8.281179z"
           style="stroke:#000;stroke-linejoin:round;fill:#ffd700;stroke-width:0.77165478;stroke-linecap:square"
           id="path260" />
        <path
           d="m-781.71628,25.954226c-9.43383,6.131067 -14.2627,-0.02048 -23.90103,4.960563 3.43465,-1.142769 7.07527,1.725529 10.69127,4.114424"
           style="stroke:#000;stroke-linejoin:round;fill:#ffd700;stroke-width:0.77165478;stroke-linecap:round"
           id="path262" />
        <path
           d="m-798.67585,28.853876c2.23656,2.084206 5.22897,3.664265 8.37853,5.139493"
           style="stroke:#000;stroke-linejoin:round;fill:#ffd700;stroke-width:0.77165478;stroke-linecap:round"
           id="path264" />
        <path
           d="m-793.70269,28.861059c1.51931,1.32743 3.78451,2.424774 6.43173,2.606022"
           style="stroke:#000;stroke-linejoin:round;fill:#ffd700;stroke-width:0.77165478;stroke-linecap:round"
           id="path266" />
        <path
           d="m-788.0581,28.612146c1.35157,0.802074 2.44399,0.687642 3.51077,0.482538"
           style="stroke:#000;stroke-linejoin:round;fill:#ffd700;stroke-width:0.77165478;stroke-linecap:round"
           id="path268" />
        <path
           d="m-788.94036,27.760593c0.30958,-1.187371 1.59832,-2.044808 2.63649,-2.98667"
           style="stroke:#000;stroke-linejoin:round;fill:#ffd700;stroke-width:0.77165478;stroke-linecap:round"
           id="path270" />
        <path
           d="m-794.79313,27.031352c0.81414,-1.253932 2.30389,-1.852482 3.79445,-2.450247"
           style="stroke:#000;stroke-linejoin:round;fill:#ffd700;stroke-width:0.77165478;stroke-linecap:round"
           id="path272" />
        <path
           d="m-799.6494,27.661507c1.41474,-1.745556 2.66659,-2.298582 3.91308,-2.812408"
           style="stroke:#000;stroke-linejoin:round;fill:#ffd700;stroke-width:0.77165478;stroke-linecap:round"
           id="path274" />
        <path
           d="m-910.48953,23.307194c0,0 12.44035,-3.114444 18.54526,-1.946104 7.02415,1.344269 10.43748,9.534964 19.00316,9.959494 -16.70333,10.189509 -29.39199,8.048276 -37.54842,-8.01339z"
           style="stroke:#000;stroke-linejoin:round;fill:#ffd700;stroke-width:0.90661097;stroke-linecap:square"
           id="path276" />
        <path
           d="m-878.37876,32.465352c-13.18393,1.3928 -15.07606,-7.583184 -27.87513,-7.498235 4.23049,0.629134 6.58204,5.550835 9.15815,9.959485"
           style="stroke:#000;stroke-linejoin:round;fill:#ffd700;stroke-width:0.90661097;stroke-linecap:round"
           id="path278" />
        <path
           d="m-897.83402,26.497912c1.27626,3.359519 3.61558,6.593972 6.17594,9.802414"
           style="stroke:#000;stroke-linejoin:round;fill:#ffd700;stroke-width:0.90661097;stroke-linecap:round"
           id="path280" />
        <path
           d="m-892.57728,29.142079c0.91318,2.189964 2.73561,4.535412 5.44104,6.127956"
           style="stroke:#000;stroke-linejoin:round;fill:#ffd700;stroke-width:0.90661097;stroke-linecap:round"
           id="path282" />
        <path
           d="m-886.47644,31.87513c1.01038,1.553107 2.22573,2.01294 3.46137,2.364614"
           style="stroke:#000;stroke-linejoin:round;fill:#ffd700;stroke-width:0.90661097;stroke-linecap:round"
           id="path284" />
        <path
           d="m-886.96452,30.519239c0.94817,-1.074243 2.7596,-1.285248 4.35012,-1.717148"
           style="stroke:#000;stroke-linejoin:round;fill:#ffd700;stroke-width:0.90661097;stroke-linecap:round"
           id="path286" />
        <path
           d="m-892.77423,26.655644c1.51667,-0.876158 3.40539,-0.710583 5.29455,-0.543758"
           style="stroke:#000;stroke-linejoin:round;fill:#ffd700;stroke-width:0.90661097;stroke-linecap:round"
           id="path288" />
        <path
           d="m-898.2405,24.738162c2.40897,-1.070472 4.02225,-0.983546 5.60936,-0.858579"
           style="stroke:#000;stroke-linejoin:round;fill:#ffd700;stroke-width:0.90661097;stroke-linecap:round"
           id="path290" />
        <path
           d="m-939.13916,28.495053c0,0 11.92259,-3.81688 17.98918,-3.198765 6.98006,0.711194 10.97504,8.019822 19.38977,7.764917 -15.52746,10.674794 -28.11351,9.655289 -37.37895,-4.566152z"
           style="stroke:#000;stroke-linejoin:round;fill:#ffd700;stroke-width:0.8647998;stroke-linecap:square"
           id="path292" />
        <path
           d="m-906.98888,34.52951c-12.78786,2.282613 -15.35732,-5.866373 -27.87327,-4.821012 4.18949,0.261602 6.88406,4.630576 9.7573,8.508634"
           style="stroke:#000;stroke-linejoin:round;fill:#ffd700;stroke-width:0.8647998;stroke-linecap:round"
           id="path294" />
        <path
           d="m-926.50157,30.486565c1.5175,3.007078 4.0651,5.818312 6.82689,8.588821"
           style="stroke:#000;stroke-linejoin:round;fill:#ffd700;stroke-width:0.8647998;stroke-linecap:round"
           id="path296" />
        <path
           d="m-921.14676,32.532108c1.06868,1.954082 3.03943,3.983111 5.81387,5.24991"
           style="stroke:#000;stroke-linejoin:round;fill:#ffd700;stroke-width:0.8647998;stroke-linecap:round"
           id="path298" />
        <path
           d="m-914.95896,34.595995c1.11283,1.358417 2.33874,1.691394 3.57584,1.922923"
           style="stroke:#000;stroke-linejoin:round;fill:#ffd700;stroke-width:0.8647998;stroke-linecap:round"
           id="path300" />
        <path
           d="m-915.54499,33.380308c0.84175,-1.064004 2.59719,-1.395769 4.11882,-1.914908"
           style="stroke:#000;stroke-linejoin:round;fill:#ffd700;stroke-width:0.8647998;stroke-linecap:round"
           id="path302" />
        <path
           d="m-921.5384,30.250042c1.41383,-0.92396 3.27501,-0.913684 5.13674,-0.902287"
           style="stroke:#000;stroke-linejoin:round;fill:#ffd700;stroke-width:0.8647998;stroke-linecap:round"
           id="path304" />
        <path
           d="m-927.04008,28.891633c2.27132,-1.170874 3.85672,-1.212445 5.41957,-1.216898"
           style="stroke:#000;stroke-linejoin:round;fill:#ffd700;stroke-width:0.8647998;stroke-linecap:round"
           id="path306" />
        <path
           d="m730.59282,-346.99747a3.314563,3.314563 0 1 1 -6.62912,0 3.314563,3.314563 0 1 1 6.62912,0z"
           style="stroke:#000;stroke-linejoin:round;fill:#ffd700;stroke-linecap:round"
           transform="matrix(1.13241,0,0,1.13241,-1762.341,422.38734)"
           id="path308" />
        <path
           d="m-932.33601,24.176434c0,0 8.03486,-10.747866 13.92014,-14.2278861 6.77146,-4.0040164 15.49085,-0.934478 22.87346,-6.6254971 -6.46105,18.4283452 -18.48646,25.8523662 -36.7936,20.8533832z"
           style="stroke:#000;stroke-linejoin:round;fill:#ffd700;stroke-width:0.92988813;stroke-linecap:square"
           id="path310" />
        <path
           d="m-899.2104,7.8768345c-9.8892,10.1208715 -17.91741,5.4679785 -28.43062,14.4502475 3.9483,-2.531626 9.43597,-0.896747 14.73965,0.240152"
           style="stroke:#000;stroke-linejoin:round;fill:#ffd700;stroke-width:0.92988813;stroke-linecap:round"
           id="path312" />
        <path
           d="m-919.58209,17.473831c3.47412,1.345322 7.73644,1.866072 12.16265,2.215368"
           style="stroke:#000;stroke-linejoin:round;fill:#ffd700;stroke-width:0.92988813;stroke-linecap:round"
           id="path314" />
        <path
           d="m-913.33459,15.567285c2.33177,0.820328 5.52675,1.110019 8.90896,0.282966"
           style="stroke:#000;stroke-linejoin:round;fill:#ffd700;stroke-width:0.92988813;stroke-linecap:round"
           id="path316" />
        <path
           d="m-906.32569,13.131227c1.95338,0.328794 3.28869,-0.212803 4.56285,-0.840509"
           style="stroke:#000;stroke-linejoin:round;fill:#ffd700;stroke-width:0.92988813;stroke-linecap:round"
           id="path318" />
        <path
           d="m-907.70552,12.569424c0.01,-1.376007 1.35424,-2.7796475 2.35723,-4.1762138"
           style="stroke:#000;stroke-linejoin:round;fill:#ffd700;stroke-width:0.92988813;stroke-linecap:round"
           id="path320" />
        <path
           d="m-915.28816,14.050216c0.62199,-1.640662 2.30168,-2.847635 3.98263,-4.0540906"
           style="stroke:#000;stroke-linejoin:round;fill:#ffd700;stroke-width:0.92988813;stroke-linecap:round"
           id="path322" />
        <path
           d="m-921.18539,16.586407c1.21926,-2.392225 2.61473,-3.459445 4.01599,-4.483107"
           style="stroke:#000;stroke-linejoin:round;fill:#ffd700;stroke-width:0.92988813;stroke-linecap:round"
           id="path324" />
        <path
           d="m-963.61455,33.111936c0,0 9.49341,-4.383561 14.54258,-4.294502 5.80946,0.102475 9.7238,6.413835 16.63234,5.52967 -11.87672,10.876548 -22.32954,10.929935 -31.17492,-1.235168z"
           style="stroke:#000;stroke-linejoin:round;fill:#ffd700;stroke-width:0.75032949;stroke-linecap:square"
           id="path326" />
        <path
           d="m-936.62053,36.083256c-10.33706,3.060713 -13.14912,-4.122657 -23.36789,-2.203979 3.47277,-0.08822 6.06509,3.660816 8.76263,6.95122"
           style="stroke:#000;stroke-linejoin:round;fill:#ffd700;stroke-width:0.75032949;stroke-linecap:round"
           id="path328" />
        <path
           d="m-953.03627,33.935169c1.50658,2.606556 3.84484,4.955717 6.35601,7.251352"
           style="stroke:#000;stroke-linejoin:round;fill:#ffd700;stroke-width:0.75032949;stroke-linecap:round"
           id="path330" />
        <path
           d="m-948.45141,35.372706c1.04702,1.687403 2.84338,3.372679 5.23656,4.305"
           style="stroke:#000;stroke-linejoin:round;fill:#ffd700;stroke-width:0.75032949;stroke-linecap:round"
           id="path332" />
        <path
           d="m-943.17895,36.762199c1.03252,1.144314 2.0706,1.350819 3.10924,1.464545"
           style="stroke:#000;stroke-linejoin:round;fill:#ffd700;stroke-width:0.75032949;stroke-linecap:round"
           id="path334" />
        <path
           d="m-943.76541,35.706301c0.6024,-1.029312 2.01983,-1.466158 3.2287,-2.05461"
           style="stroke:#000;stroke-linejoin:round;fill:#ffd700;stroke-width:0.75032949;stroke-linecap:round"
           id="path336" />
        <path
           d="m-948.96884,33.335598c1.08551,-0.946844 2.61925,-1.082017 4.15353,-1.216215"
           style="stroke:#000;stroke-linejoin:round;fill:#ffd700;stroke-width:0.75032949;stroke-linecap:round"
           id="path338" />
        <path
           d="m-953.61598,32.531993c1.77065,-1.23711 3.07283,-1.397846 4.35959,-1.523202"
           style="stroke:#000;stroke-linejoin:round;fill:#ffd700;stroke-width:0.75032949;stroke-linecap:round"
           id="path340" />
        <path
           d="m-954.75452,27.335243c0,0 6.36144,-10.090515 11.021,-13.357694 5.36117,-3.759126 12.26458,-0.877324 18.10962,-6.2202745 -5.1154,17.3012485 -14.63629,24.2712085 -29.13062,19.5779685z"
           style="stroke:#000;stroke-linejoin:round;fill:#ffd700;stroke-width:0.8017059;stroke-linecap:square"
           id="path342" />
        <path
           d="m-928.52796,12.032544c-7.82958,9.501869 -14.18576,5.133551 -22.5094,13.566455 3.12599,-2.376788 7.47075,-0.8419 11.66984,0.225465"
           style="stroke:#000;stroke-linejoin:round;fill:#ffd700;stroke-width:0.8017059;stroke-linecap:round"
           id="path344" />
        <path
           d="m-944.65685,21.042578c2.75056,1.263041 6.12518,1.751942 9.62955,2.079874"
           style="stroke:#000;stroke-linejoin:round;fill:#ffd700;stroke-width:0.8017059;stroke-linecap:round"
           id="path346" />
        <path
           d="m-939.71051,19.252639c1.84613,0.770156 4.3757,1.042128 7.0535,0.265659"
           style="stroke:#000;stroke-linejoin:round;fill:#ffd700;stroke-width:0.8017059;stroke-linecap:round"
           id="path348" />
        <path
           d="m-934.16135,16.965572c1.54655,0.308685 2.60376,-0.199787 3.61255,-0.789102"
           style="stroke:#000;stroke-linejoin:round;fill:#ffd700;stroke-width:0.8017059;stroke-linecap:round"
           id="path350" />
        <path
           d="m-935.2538,16.43813c0.008,-1.291849 1.07219,-2.609642 1.86629,-3.920792"
           style="stroke:#000;stroke-linejoin:round;fill:#ffd700;stroke-width:0.8017059;stroke-linecap:round"
           id="path352" />
        <path
           d="m-941.25722,17.828355c0.49246,-1.540317 1.82231,-2.67347 3.15318,-3.806138"
           style="stroke:#000;stroke-linejoin:round;fill:#ffd700;stroke-width:0.8017059;stroke-linecap:round"
           id="path354" />
        <path
           d="m-945.92623,20.20943c0.96532,-2.245914 2.07016,-3.247862 3.17958,-4.208916"
           style="stroke:#000;stroke-linejoin:round;fill:#ffd700;stroke-width:0.8017059;stroke-linecap:round"
           id="path356" />
        <path
           d="m-968.17137,34.18872c0,0 2.91307,-9.106179 5.63774,-12.400265 3.13494,-3.790086 8.27829,-2.348682 11.51782,-7.499673 -1.02597,14.843512 -6.55114,21.815107 -17.15556,19.899938z"
           style="stroke:#000;stroke-linejoin:round;fill:#ffd700;stroke-width:0.61056203;stroke-linecap:square"
           id="path358" />
        <path
           d="m-952.39311,18.174751c-4.00343,8.819468 -8.98481,6.088396 -13.47996,14.098449 1.80142,-2.361304 4.9985,-1.682384 8.02878,-1.366831"
           style="stroke:#000;stroke-linejoin:round;fill:#ffd700;stroke-width:0.61056203;stroke-linecap:round"
           id="path360" />
        <path
           d="m-962.15392,27.694906c2.06575,0.66831 4.44818,0.619917 6.89646,0.422499"
           style="stroke:#000;stroke-linejoin:round;fill:#ffd700;stroke-width:0.61056203;stroke-linecap:round"
           id="path362" />
        <path
           d="m-959.02105,25.57202c1.37538,0.385052 3.14767,0.271415 4.8713,-0.720223"
           style="stroke:#000;stroke-linejoin:round;fill:#ffd700;stroke-width:0.61056203;stroke-linecap:round"
           id="path364" />
        <path
           d="m-955.54636,22.962027c1.10397,0.0471 1.75553,-0.5097 2.36233,-1.126246"
           style="stroke:#000;stroke-linejoin:round;fill:#ffd700;stroke-width:0.61056203;stroke-linecap:round"
           id="path366" />
        <path
           d="m-956.37051,22.675475c-0.17989,-1.058572 0.36073,-2.278891 0.71698,-3.457818"
           style="stroke:#000;stroke-linejoin:round;fill:#ffd700;stroke-width:0.61056203;stroke-linecap:round"
           id="path368" />
        <path
           d="m-960.28499,24.611669c0.11672,-1.32643 0.86559,-2.430866 1.61522,-3.535038"
           style="stroke:#000;stroke-linejoin:round;fill:#ffd700;stroke-width:0.61056203;stroke-linecap:round"
           id="path370" />
        <path
           d="m-963.14311,27.181613c0.33962,-1.966922 0.95311,-2.934034 1.57559,-3.868277"
           style="stroke:#000;stroke-linejoin:round;fill:#ffd700;stroke-width:0.61056203;stroke-linecap:round"
           id="path372" />
        <path
           d="m-971.36851,43.245315c0,0 4.75526,-6.487389 7.92418,-8.070995 3.64609,-1.822053 7.75276,1.764574 11.82273,-1.178076 -4.52371,12.274939 -11.02119,15.736695 -19.74691,9.249071z"
           style="stroke:#000;stroke-linejoin:round;fill:#ffd700;stroke-width:0.56496322;stroke-linecap:square"
           id="path374" />
        <path
           d="m-953.7672,36.703388c-5.63046,5.743235 -9.28095,1.123368 -15.13958,5.947114 2.14004,-1.204469 4.74587,0.838621 7.29603,2.493561"
           style="stroke:#000;stroke-linejoin:round;fill:#ffd700;stroke-width:0.56496322;stroke-linecap:round"
           id="path376" />
        <path
           d="m-964.56117,40.418588c1.6275,1.517259 3.70504,2.563851 5.87616,3.512574"
           style="stroke:#000;stroke-linejoin:round;fill:#ffd700;stroke-width:0.56496322;stroke-linecap:round"
           id="path378" />
        <path
           d="m-961.32506,40.026922c1.09826,0.958761 2.66276,1.670668 4.40002,1.606564"
           style="stroke:#000;stroke-linejoin:round;fill:#ffd700;stroke-width:0.56496322;stroke-linecap:round"
           id="path380" />
        <path
           d="m-957.6733,39.37319c0.94567,0.544658 1.64693,0.36422 2.324,0.112046"
           style="stroke:#000;stroke-linejoin:round;fill:#ffd700;stroke-width:0.56496322;stroke-linecap:round"
           id="path382" />
        <path
           d="m-958.31774,38.750756c0.1032,-0.990973 0.87072,-1.791725 1.46825,-2.641152"
           style="stroke:#000;stroke-linejoin:round;fill:#ffd700;stroke-width:0.56496322;stroke-linecap:round"
           id="path384" />
        <path
           d="m-962.18584,38.625151c0.42595,-1.085465 1.34566,-1.691615 2.26597,-2.297191"
           style="stroke:#000;stroke-linejoin:round;fill:#ffd700;stroke-width:0.56496322;stroke-linecap:round"
           id="path386" />
        <path
           d="m-965.29319,39.526111c0.77604,-1.533534 1.54474,-2.083624 2.3132,-2.601385"
           style="stroke:#000;stroke-linejoin:round;fill:#ffd700;stroke-width:0.56496322;stroke-linecap:round"
           id="path388" />
        <path
           d="m-971.47629,41.054999c0,0 -2.1686,-7.162278 -1.87635,-10.495532 0.33626,-3.835155 4.29104,-5.191449 4.09007,-9.950045 5.93368,10.021002 5.47066,16.968281 -2.21372,20.445577z"
           style="stroke:#000;stroke-linejoin:round;fill:#ffd700;stroke-width:0.47789726;stroke-linecap:square"
           id="path390" />
        <path
           d="m-968.42361,23.725463c1.33859,7.461957 -3.08481,7.91523 -2.42271,15.074064 0.11174,-2.321979 2.47358,-3.304914 4.56649,-4.44789"
           style="stroke:#000;stroke-linejoin:round;fill:#ffd700;stroke-width:0.47789726;stroke-linecap:round"
           id="path392" />
        <path
           d="m-970.48378,34.196887c1.6281,-0.487132 3.14184,-1.576805 4.6318,-2.791765"
           style="stroke:#000;stroke-linejoin:round;fill:#ffd700;stroke-width:0.47789726;stroke-linecap:round"
           id="path394" />
        <path
           d="m-969.40813,31.436999c1.05737,-0.362941 2.14895,-1.22358 2.81909,-2.628384"
           style="stroke:#000;stroke-linejoin:round;fill:#ffd700;stroke-width:0.47789726;stroke-linecap:round"
           id="path396" />
        <path
           d="m-968.32863,28.211345c0.73233,-0.460131 0.90481,-1.108415 1.02191,-1.775313"
           style="stroke:#000;stroke-linejoin:round;fill:#ffd700;stroke-width:0.47789726;stroke-linecap:round"
           id="path398" />
        <path
           d="m-968.98703,28.392855c-0.58623,-0.602222 -0.78003,-1.628791 -1.07424,-2.546771"
           style="stroke:#000;stroke-linejoin:round;fill:#ffd700;stroke-width:0.47789726;stroke-linecap:round"
           id="path400" />
        <path
           d="m-970.64929,31.379702c-0.51411,-0.906609 -0.52222,-1.951025 -0.52973,-2.99561"
           style="stroke:#000;stroke-linejoin:round;fill:#ffd700;stroke-width:0.47789726;stroke-linecap:round"
           id="path402" />
        <path
           d="m-971.34927,34.305611c-0.65502,-1.418379 -0.68937,-2.314153 -0.70332,-3.192743"
           style="stroke:#000;stroke-linejoin:round;fill:#ffd700;stroke-width:0.47789726;stroke-linecap:round"
           id="path404" />
        <path
           d="m730.59282,-346.99747a3.314563,3.314563 0 1 1 -6.62912,0 3.314563,3.314563 0 1 1 6.62912,0z"
           style="stroke:#000;stroke-linejoin:round;fill:#ffd700;stroke-linecap:round"
           transform="matrix(1.22603,0,0,1.22603,-1785.9866,436.69263)"
           id="path406" />
        <path
           d="m730.59282,-346.99747a3.314563,3.314563 0 1 1 -6.62912,0 3.314563,3.314563 0 1 1 6.62912,0z"
           style="stroke:#000;stroke-linejoin:round;fill:#ffd700;stroke-linecap:round"
           transform="matrix(1.13241,0,0,1.13241,-1682.5696,405.33018)"
           id="path408" />
        <path
           d="m730.59282,-346.99747a3.314563,3.314563 0 1 1 -6.62912,0 3.314563,3.314563 0 1 1 6.62912,0z"
           style="stroke:#000;stroke-linejoin:round;fill:#ffd700;stroke-linecap:round"
           transform="matrix(1.13241,0,0,1.13241,-1737.3397,419.10434)"
           id="path410" />
        <path
           d="m730.59282,-346.99747a3.314563,3.314563 0 1 1 -6.62912,0 3.314563,3.314563 0 1 1 6.62912,0z"
           style="stroke:#000;stroke-linejoin:round;fill:#ffd700;stroke-linecap:round"
           transform="matrix(1.13241,0,0,1.13241,-1747.9463,407.36132)"
           id="path412" />
        <path
           d="m730.59282,-346.99747a3.314563,3.314563 0 1 1 -6.62912,0 3.314563,3.314563 0 1 1 6.62912,0z"
           style="stroke:#000;stroke-linejoin:round;fill:#ffd700;stroke-linecap:round"
           transform="matrix(.94516,0,0,.94516,-1635.8792,348.44616)"
           id="path414" />
        <path
           d="m730.59282,-346.99747a3.314563,3.314563 0 1 1 -6.62912,0 3.314563,3.314563 0 1 1 6.62912,0z"
           style="stroke:#000;stroke-linejoin:round;fill:#ffd700;stroke-linecap:round"
           transform="matrix(.6158,0,0,.6158,-1418.1143,254.64224)"
           id="path416" />
        <path
           d="m730.59282,-346.99747a3.314563,3.314563 0 1 1 -6.62912,0 3.314563,3.314563 0 1 1 6.62912,0z"
           style="stroke:#000;stroke-linejoin:round;fill:#ffd700;stroke-linecap:round"
           transform="matrix(1.31966,0,0,1.31966,-1840.9468,481.42876)"
           id="path418" />
        <path
           d="m730.59282,-346.99747a3.314563,3.314563 0 1 1 -6.62912,0 3.314563,3.314563 0 1 1 6.62912,0z"
           style="stroke:#000;stroke-linejoin:round;fill:#ffd700;stroke-linecap:round"
           transform="matrix(1.13241,0,0,1.13241,-1667.7655,418.72553)"
           id="path420" />
        <path
           d="m730.59282,-346.99747a3.314563,3.314563 0 1 1 -6.62912,0 3.314563,3.314563 0 1 1 6.62912,0z"
           style="stroke:#000;stroke-linejoin:round;fill:#ffd700;stroke-linecap:round"
           transform="matrix(1.13241,0,0,1.13241,-1634.9355,424.53391)"
           id="path422" />
        <path
           d="m730.59282,-346.99747a3.314563,3.314563 0 1 1 -6.62912,0 3.314563,3.314563 0 1 1 6.62912,0z"
           style="stroke:#000;stroke-linejoin:round;fill:#ffd700;stroke-linecap:round"
           transform="matrix(.84585,0,0,.84585,-1413.4321,316.99991)"
           id="path424" />
        <path
           d="m730.59282,-346.99747a3.314563,3.314563 0 1 1 -6.62912,0 3.314563,3.314563 0 1 1 6.62912,0z"
           style="stroke:#000;stroke-linejoin:round;fill:#ffd700;stroke-linecap:round"
           transform="translate(-1518.4355,384.0185)"
           id="path426" />
        <path
           d="m730.59282,-346.99747a3.314563,3.314563 0 1 1 -6.62912,0 3.314563,3.314563 0 1 1 6.62912,0z"
           style="stroke:#000;stroke-linejoin:round;fill:#ffd700;stroke-linecap:round"
           transform="matrix(1.13241,0,0,1.13241,-1646.0472,411.65447)"
           id="path428" />
      </g>
      <path
         d="m-958.3524,-36.42032 10.03125,4.78125 8.25,31.90625c-2.80606,0.69474 -6.09511,1.53773 -7.28125,1.84375l-11,-38.53125 z m 45.40625,-9.84375 7.0625,5.28125 2.75,35.5625c-1.96186,0.1395 -3.77846,0.33026 -5.375,0.625l-4.4375,-41.46875 z m 112.53125,9.84375 -10.03125,4.78125 -8.25,31.90625c2.80606,0.69474 6.09511,1.53773 7.28125,1.84375l11,-38.53125 z m -45.40625,-9.84375 -7.0625,5.28125 -2.75,35.5625c1.96186,0.1395 3.77846,0.33026 5.375,0.625l4.4375,-41.46875z"
         style="stroke:#000;stroke-linejoin:round;fill:#daa520;stroke-linecap:round"
         id="path430" />
      <path
         d="m-952.8524,-17.17032 9.09375,3.15625 0.71875,2.75 -8.9375,-2.78125 -0.875,-3.125 z m 42,-9.625 6.375,4 0.28125,3.65625 -6.21875,-3.53125 -0.4375,-4.125 z m 104.9375,9.625 -9.09375,3.15625 -0.71875,2.75 8.9375,-2.78125 0.875,-3.125 z m -42,-9.625 -6.375,4 -0.28125,3.65625 6.21875,-3.53125 0.4375,-4.125z"
         style="stroke:#000;stroke-linejoin:round;fill:#daa520;stroke-linecap:round"
         id="path432" />
    </g>
  </g>
</svg>
