<?xml version="1.0" encoding="utf-8"?>
<!-- Generator: Adobe Illustrator 15.0.1, SVG Export Plug-In . SVG Version: 6.00 Build 0)  -->
<!DOCTYPE svg PUBLIC "-//W3C//DTD SVG 1.1//EN" "http://www.w3.org/Graphics/SVG/1.1/DTD/svg11.dtd">
<svg version="1.1" id="Layer_1" xmlns="http://www.w3.org/2000/svg" xmlns:xlink="http://www.w3.org/1999/xlink" x="0px" y="0px"
	 width="184.25px" height="226.77px" viewBox="0 0 184.25 226.77" enable-background="new 0 0 184.25 226.77" xml:space="preserve">
<g>
	<path fill-rule="evenodd" clip-rule="evenodd" fill="#ED3237" d="M20.601,209.539c1.57,0.156,3.472,0.242,5.885,0.242
		c9.462,0,21.89-0.252,33.303-0.412c18.005-0.248,25.696,0.836,32.345,17.402c2.76-9.285,9.771-17.396,19.976-17.693
		c9.245-0.27,21.125,0.029,31.049,0.029c27.23,0,39.625,2.604,39.625-25.824L184.252,0H0.802c0,35.577,0,71.154,0,106.731
		c0,17.665,0,35.331,0,52.997C0.802,179.613-6.102,206.908,20.601,209.539z"/>
	
		<polygon fill-rule="evenodd" clip-rule="evenodd" fill="#FFF212" stroke="#373435" stroke-width="1.4173" stroke-miterlimit="22.9256" points="
		28.557,95.247 16.905,96.082 17.164,169.063 21.411,171.402 26.396,171.463 26.766,167.277 35.506,172.695 36.491,176.018 
		36.491,180.758 41.292,183.035 48.617,182.912 48.802,180.08 52.803,174.787 154.179,174.787 157.564,178.543 157.688,180.326 
		157.872,183.158 165.381,183.035 165.381,174.664 165.151,107.194 153.809,99.324 	"/>
	
		<path fill-rule="evenodd" clip-rule="evenodd" fill="#FFF212" stroke="#373435" stroke-width="1.4173" stroke-miterlimit="22.9256" d="
		M35.172,104.497l4.821,3.583c0,0-0.217,0.618-0.328,1.442c-0.63,4.705,5.955,6.582,7.112,1.537
		c0.956-4.166-0.682-4.382-3.778-6.414c0,0-0.713,0.131-3.374,0.07C36.964,104.654,35.172,104.497,35.172,104.497z"/>
	
		<ellipse fill-rule="evenodd" clip-rule="evenodd" fill="none" stroke="#373435" stroke-width="1.4173" stroke-miterlimit="22.9256" cx="43.306" cy="110.32" rx="1.35" ry="1.227"/>
	
		<path fill-rule="evenodd" clip-rule="evenodd" fill="#FFF212" stroke="#373435" stroke-width="1.4173" stroke-miterlimit="22.9256" d="
		M61.423,105.463l2.706,2.479c0,0-0.677,1.416-0.247,3.016c0.431,1.6,0.862,1.539,1.847,2.031s2.401,0.492,3.632,0
		s1.724-3.754,1.292-4.801c-0.431-1.046-3.385-3.57-3.385-3.57l-4.411,0.521L61.423,105.463z"/>
	
		<ellipse fill-rule="evenodd" clip-rule="evenodd" fill="none" stroke="#373435" stroke-width="1.4173" stroke-miterlimit="22.9256" cx="67.268" cy="110.096" rx="1.35" ry="1.227"/>
	
		<path fill-rule="evenodd" clip-rule="evenodd" fill="#FFF212" stroke="#373435" stroke-width="1.4173" stroke-miterlimit="22.9256" d="
		M80.141,101.962l7.316,5.426c0.023,0.017-0.226,3.385,0.369,4.37c1.972,3.262,5.899,1.46,6.051-2.028
		c0.026-0.619,0.022-0.75,0.031-1.25c0.021-1.303-0.066-1.15-1.111-1.95l-10.982-8.398l-2.17-0.544c0,0,0.404,2.357,0.666,2.726
		c0.261,0.369,0.573,0.283,0.579,0.69C80.896,101.411,80.141,101.962,80.141,101.962z"/>
	
		<ellipse fill-rule="evenodd" clip-rule="evenodd" fill="none" stroke="#373435" stroke-width="1.4173" stroke-miterlimit="22.9256" cx="90.743" cy="109.893" rx="1.148" ry="1.196"/>
	
		<path fill-rule="evenodd" clip-rule="evenodd" fill="#FFF212" stroke="#373435" stroke-width="1.4173" stroke-miterlimit="22.9256" d="
		M107.769,104.125l3.755,2.955c0,0-0.163,1.69-0.11,2.991c0.03,0.732,0.127,1.307,0.569,1.9c0.57,0.763,1.538,1.449,2.434,1.449
		c2.429,0,3.224-1.63,3.322-3.616c0.072-1.43-0.061-2.786-0.061-2.786l-4.189-3.55l-2.764-0.195L107.769,104.125z"/>
	
		<ellipse fill-rule="evenodd" clip-rule="evenodd" fill="none" stroke="#373435" stroke-width="1.4173" stroke-miterlimit="22.9256" cx="114.539" cy="109.789" rx="1.148" ry="1.196"/>
	
		<path fill-rule="evenodd" clip-rule="evenodd" fill="#FFF212" stroke="#373435" stroke-width="1.4173" stroke-miterlimit="22.9256" d="
		M65.267,28.487c0,0-5.551,0.429-6.778,1.012c-1.228,0.583-3.532,1.872-4.271,2.98c-0.738,1.108-2.893,4.185-3.447,4.863
		c-0.554,0.677-5.54,2.954-5.601,3.631c-0.062,0.678-0.852,2.053,0.221,3.188c1.074,1.134,0.89,1.533,1.472,2.545
		s2.822,3.558,2.822,3.558s-0.337,0.706,0.368,1.656s0.767,1.35,0.767,1.35l6.229-0.171v5.663c0,0,0.062,2.77-0.923,6.832
		s-2.585,5.047-1.662,9.233s1.386,12.121,1.54,12.704s0.984,2.315,0.984,2.315s-0.677,2.832-4.555,2.77
		c-3.878-0.062-12.742,1.17-18.466,1.724s-6.401,1.231-7.263,2.031c-0.862,0.8-3.939,4.001-3.016,4.678
		c0.923,0.677,1.046,0.246,1.108,0.8c0.062,0.554,0.123,2.277,0.985,2.216s0.677,1.046,2.216,1.292
		c1.539,0.247,2.031-0.185,2.893-0.923c0.862-0.738,4.555,0.123,4.555,0.123s5.909,0.493,7.14-0.246
		c1.231-0.739,3.324-0.677,3.324-0.677s8.248,3.447,13.787,2.216c5.54-1.231,6.956-1.601,6.956-1.601s9.787,0,10.587-0.492
		c0.8-0.493,0.431-0.677,1.539-1.169c1.108-0.493,2.708-1.108,2.031-1.662c-0.677-0.554-1.478-2.462-1.847-4.493
		s-2.216-6.032-2.585-7.14c-0.369-1.108-0.738-4.986-0.738-4.986s5.417,6.586,6.278,6.34c0.862-0.246,0-3.693,0.739-4.063
		c0.738-0.369,1.292,0,2.523,0.923s8.001,5.355,10.156,5.355s16.558-0.185,16.558-0.185s-0.309,1.97,0.554,2.77
		c0.861,0.8,8.063,6.155,8.063,6.155s3.939,0.492,6.463,0.862c2.523,0.369,5.293,2.277,5.293,2.277l19.691-1
		c0,0,0.616-2.343,0.493-2.959c-0.124-0.617,6.905-8.262,6.905-9.372c0-1.11,0.123-9.495,0.123-9.495s0.424,2.391,2.086,4.36
		s4.801,5.478,6.34,5.54c1.539,0.062,2.34,0.062,2.34,0.062l-0.924-1.478c0,0,1.662,1.416,2.77,1.416
		c1.108,0,3.078-0.492,3.078-0.492s1.17-0.985,0.123-1.416s-1.908-0.862-1.908-0.862s2.462,1.108,2.893,0.923
		c0.432-0.185,1.231,0.062-0.553-1.662c-1.785-1.724-3.447-2.216-4.802-4.37s-3.57-6.955-4.925-8.741
		c-1.354-1.785-2.215-1.292-3.754-2.031c-1.539-0.739-3.201-0.8-3.878-1.601s-4.854-5.044-5.806-5.995s-3.182-3.977-4.474-3.915
		s-5.354-0.123-5.971-0.492c-0.615-0.369-8.531-5.883-17.04-6.006c-8.508-0.124-23.183,4.439-26.266,4.809
		c-3.082,0.37-7.56,0.311-9.618-0.247c-2.058-0.557-4.479-6.008-5.581-9.63c-0.448-1.472-1.463-2.435-2-3.423
		c-0.785-1.444-1.467-2.29-1.467-2.29s1.166,0.981,1.687,1.227s1.38,0.123,1.38,0.123s0.246-0.689-0.616-1.981
		c-0.862-1.293-0.677-0.862-1.108-3.016c-0.431-2.154-1.662-3.509-3.754-6.586s-5.17-5.54-5.17-5.54s-0.945-2.813-0.945-4.562
		c0-1.748,0.092-5.306,0.092-5.306s-0.92,0.43-1.595,0.828c-0.675,0.399-3.374,2.301-3.896,3.987
		C65.696,25.236,65.267,28.487,65.267,28.487z"/>
	
		<path fill-rule="evenodd" clip-rule="evenodd" fill="#FFF212" stroke="#373435" stroke-width="1.4173" stroke-miterlimit="22.9256" d="
		M100.443,102.464c-0.123,0-2.031-0.493-1.785-1.662s0.234-5.505,3.816-6.094c3.582-0.588,9.383-0.789,9.383-0.789
		s1.266,1.835,0.589,1.527s-5.917,0.099-7.325,0.715c-1.406,0.616-3.765,1.519-3.667,3.202
		C101.551,101.048,100.443,102.464,100.443,102.464z"/>
	
		<path fill-rule="evenodd" clip-rule="evenodd" fill="#FFF212" stroke="#373435" stroke-width="1.4173" stroke-miterlimit="22.9256" d="
		M127.526,103.018c0.103-0.427,3.446,0.923-2.4,1.169c-5.848,0.246-9.849-0.308-12.311-0.861c-2.462-0.554-3.323,0.677-5.047,0.8
		s-3.755-0.677-3.509-1.662c0.246-0.985,1.908-4.986,3.078-5.109c1.169-0.123,6.217-0.493,6.217-0.493s3.058,2.611,4.369,3.201
		c1.313,0.589,1.506,1.395,3.662,1.675S127.526,103.018,127.526,103.018z"/>
	
		<path fill-rule="evenodd" clip-rule="evenodd" fill="#FFF212" stroke="#373435" stroke-width="1.4173" stroke-linejoin="round" stroke-miterlimit="22.9256" d="
		M103.952,103.141c0.369-0.189-1.347,0.75-2.401,0c-1.053-0.75-1.107-0.677-1.107-0.677s0.622-2.884,1.074-3.67
		c0.453-0.787,2.313-1.731,3.604-2.632c1.293-0.9,7.522-0.796,7.522-0.796l0.911,1.497c0,0-5.663-0.308-6.217,0.493
		C106.783,98.155,103.952,103.141,103.952,103.141z"/>
	
		<path fill-rule="evenodd" clip-rule="evenodd" fill="#FFF212" stroke="#373435" stroke-width="1.4173" stroke-linejoin="round" stroke-miterlimit="22.9256" d="
		M106.353,104.556c0.087-0.503-1.234-0.469-1.586,0.583c-0.208,0.624-0.213,1.611-0.185,2.292c0.029,0.735,0.092,1.006-0.057,0.167
		l-0.635-3.597l0.681-0.733L106.353,104.556z"/>
	
		<path fill-rule="evenodd" clip-rule="evenodd" fill="#373435" stroke="#373435" stroke-width="1.4173" stroke-miterlimit="22.9256" d="
		M100.443,102.464l1.17,3.385c0,0,0.77-1.399,0.8-1.908S100.443,102.464,100.443,102.464z"/>
	
		<path fill-rule="evenodd" clip-rule="evenodd" fill="#373435" stroke="#373435" stroke-width="1.4173" stroke-miterlimit="22.9256" d="
		M96.627,64.363C96.627,64.363,96.32,64.014,96.627,64.363c0.395,0.449,1.543,1.639,2.894,1.847
		c2.399,0.369,5.047-0.492,5.786-0.985c0.738-0.492,3.446-0.677,5.108-0.431c1.662,0.247,2.647,1.231,5.602,1.108
		c2.954-0.124,4.185-0.247,5.97,0.369s4.555,2.832,4.555,2.832s0.063,0.431-1.107-0.123c-1.17-0.554-2.585-2.4-4.985-2.462
		c-2.401-0.062-5.663,0.37-6.833,0c-1.169-0.369-2.646-1.169-4.246-1.169c-1.601,0-4.268,0.422-4.945,0.976
		C102.473,67.921,97.965,66.7,96.627,64.363z"/>
	
		<path fill-rule="evenodd" clip-rule="evenodd" fill="none" stroke="#373435" stroke-width="1.4173" stroke-miterlimit="22.9256" d="
		M136.391,65.225c-0.801,0-3.201,0.308-4.494,1.292s-2.154,3.509-4,3.939c-1.848,0.431-14.219,5.047-15.512,8.617
		c-1.293,3.57-1.724,3.816-1.231,6.833c0.493,3.016,0.739,6.771,0.739,6.771l-0.013,1.455c0,0-0.665-8.103-0.233-10.564
		c0.431-2.462,0.861-4.309,2.338-5.54c1.479-1.231,6.402-4.124,8.434-4.862c2.031-0.739,6.586-2.585,7.879-2.708
		c1.292-0.123,2.77-0.185,2.77-0.185"/>
	
		<path fill-rule="evenodd" clip-rule="evenodd" fill="none" stroke="#373435" stroke-width="1.4173" stroke-miterlimit="22.9256" d="
		M153.809,99.324c-1.846,1.047-2.77,1.293-5.908,1.293s-3.201-0.493-4.986,0.123c-1.784,0.615-2.461,1.477-2.461,1.477"/>
	
		<path fill-rule="evenodd" clip-rule="evenodd" fill="#373435" stroke="#373435" stroke-width="1.4173" stroke-miterlimit="22.9256" d="
		M110.354,59.803c-0.536,0.2-1.111,0.338-1.587,0.479c-2.219,0.662-0.513,2.723,0.882,1.085
		C110.354,60.539,110.354,59.803,110.354,59.803z"/>
	
		<path fill-rule="evenodd" clip-rule="evenodd" fill="#373435" stroke="#373435" stroke-width="1.4173" stroke-miterlimit="22.9256" d="
		M127.008,60.133c-0.537,0.199-1.111,0.337-1.587,0.479c-2.22,0.663-0.513,2.723,0.882,1.085
		C127.008,60.869,127.008,60.133,127.008,60.133z"/>
	
		<path fill-rule="evenodd" clip-rule="evenodd" fill="#373435" stroke="#373435" stroke-width="1.4173" stroke-miterlimit="22.9256" d="
		M115.066,69.673c-0.536,0.199-1.111,0.337-1.587,0.479c-2.219,0.662-0.513,2.723,0.882,1.085
		C115.066,70.409,115.066,69.673,115.066,69.673z"/>
	
		<path fill-rule="evenodd" clip-rule="evenodd" fill="#373435" stroke="#373435" stroke-width="1.4173" stroke-miterlimit="22.9256" d="
		M118.018,82.55c-0.537,0.199-1.112,0.337-1.588,0.479c-2.219,0.662-0.513,2.723,0.882,1.085
		C118.018,83.286,118.018,82.55,118.018,82.55z"/>
	
		<path fill-rule="evenodd" clip-rule="evenodd" fill="#373435" stroke="#373435" stroke-width="1.4173" stroke-miterlimit="22.9256" d="
		M130.596,75.274c-0.537,0.2-1.112,0.338-1.588,0.479c-2.219,0.662-0.514,2.723,0.882,1.085
		C130.596,76.011,130.596,75.274,130.596,75.274z"/>
	
		<path fill-rule="evenodd" clip-rule="evenodd" fill="#373435" stroke="#373435" stroke-width="1.4173" stroke-miterlimit="22.9256" d="
		M146.749,69.109c-0.536,0.199-1.112,0.337-1.587,0.479c-2.219,0.662-0.514,2.722,0.882,1.085
		C146.749,69.845,146.749,69.109,146.749,69.109z"/>
	
		<path fill-rule="evenodd" clip-rule="evenodd" fill="#373435" stroke="#373435" stroke-width="1.4173" stroke-miterlimit="22.9256" d="
		M165.246,77.864c-0.537,0.199-1.111,0.337-1.588,0.479c-2.219,0.662-0.512,2.723,0.883,1.085
		C165.246,78.601,165.246,77.864,165.246,77.864z"/>
	
		<path fill-rule="evenodd" clip-rule="evenodd" fill="#373435" stroke="#373435" stroke-width="1.4173" stroke-miterlimit="22.9256" d="
		M152.175,80.454c-0.536,0.199-1.112,0.337-1.587,0.479c-2.219,0.663-0.514,2.723,0.882,1.085
		C152.175,81.19,152.175,80.454,152.175,80.454z"/>
	
		<path fill-rule="evenodd" clip-rule="evenodd" fill="#373435" stroke="#373435" stroke-width="1.4173" stroke-miterlimit="22.9256" d="
		M140.5,85.799c-0.536,0.199-1.111,0.337-1.587,0.479c-2.219,0.663-0.513,2.723,0.882,1.085C140.5,86.535,140.5,85.799,140.5,85.799
		z"/>
	
		<path fill-rule="evenodd" clip-rule="evenodd" fill="#373435" stroke="#373435" stroke-width="1.4173" stroke-miterlimit="22.9256" d="
		M127.883,86.989c-0.537,0.2-1.112,0.338-1.588,0.479c-2.219,0.662-0.514,2.723,0.882,1.085
		C127.883,87.726,127.883,86.989,127.883,86.989z"/>
	
		<path fill-rule="evenodd" clip-rule="evenodd" fill="#373435" stroke="#373435" stroke-width="1.4173" stroke-miterlimit="22.9256" d="
		M122.822,97.31c-0.537,0.2-1.111,0.337-1.587,0.479c-2.219,0.662-0.513,2.722,0.882,1.085
		C122.822,98.046,122.822,97.31,122.822,97.31z"/>
	
		<path fill-rule="evenodd" clip-rule="evenodd" fill="#373435" stroke="#373435" stroke-width="1.4173" stroke-miterlimit="22.9256" d="
		M138.088,99.957c-0.537,0.199-1.112,0.337-1.588,0.479c-2.219,0.662-0.514,2.723,0.882,1.085
		C138.088,100.693,138.088,99.957,138.088,99.957z"/>
	
		<path fill-rule="evenodd" clip-rule="evenodd" fill="#373435" stroke="#373435" stroke-width="1.4173" stroke-miterlimit="22.9256" d="
		M152.553,95.156c-0.537,0.2-1.112,0.337-1.588,0.479c-2.219,0.662-0.513,2.722,0.882,1.085
		C152.553,95.892,152.553,95.156,152.553,95.156z"/>
	
		<path fill-rule="evenodd" clip-rule="evenodd" fill="#373435" stroke="#373435" stroke-width="1.4173" stroke-miterlimit="22.9256" d="
		M100.877,71.452c-0.537,0.199-1.112,0.337-1.588,0.479c-2.219,0.662-0.513,2.722,0.883,1.085
		C100.877,72.188,100.877,71.452,100.877,71.452z"/>
	
		<path fill-rule="evenodd" clip-rule="evenodd" fill="#373435" stroke="#373435" stroke-width="1.4173" stroke-miterlimit="22.9256" d="
		M103.713,83.043c-0.537,0.2-1.111,0.337-1.587,0.479c-2.22,0.662-0.513,2.723,0.882,1.085
		C103.713,83.779,103.713,83.043,103.713,83.043z"/>
	
		<path fill-rule="evenodd" clip-rule="evenodd" fill="#373435" stroke="#373435" stroke-width="1.4173" stroke-miterlimit="22.9256" d="
		M89.779,62.204c-0.536,0.199-1.112,0.337-1.587,0.479c-2.219,0.663-0.513,2.723,0.882,1.085
		C89.779,62.939,89.779,62.204,89.779,62.204z"/>
	
		<path fill-rule="evenodd" clip-rule="evenodd" fill="#373435" stroke="#373435" stroke-width="1.4173" stroke-miterlimit="22.9256" d="
		M90.149,75.645c-0.537,0.2-1.112,0.338-1.587,0.479c-2.219,0.662-0.513,2.723,0.882,1.085
		C90.149,76.381,90.149,75.645,90.149,75.645z"/>
	
		<path fill-rule="evenodd" clip-rule="evenodd" fill="#373435" stroke="#373435" stroke-width="1.4173" stroke-miterlimit="22.9256" d="
		M92.739,85.756c-0.537,0.199-1.111,0.337-1.588,0.479c-2.218,0.662-0.513,2.722,0.883,1.084
		C92.739,86.493,92.739,85.756,92.739,85.756z"/>
	
		<path fill-rule="evenodd" clip-rule="evenodd" fill="none" stroke="#373435" stroke-width="1.4173" stroke-miterlimit="22.9256" d="
		M80.439,12.413c0,0-0.554,0-2.77,0.493c-2.216,0.492-5.962,5.828-5.962,5.828s1.345-1.889,3.746-2.997
		c2.4-1.108,3.939-0.985,3.939-0.985"/>
	
		<path fill-rule="evenodd" clip-rule="evenodd" fill="none" stroke="#373435" stroke-width="1.4173" stroke-miterlimit="22.9256" d="
		M71.708,18.733c0,0,1.776-2.135,4.669-2.258c2.893-0.124,3.386,0.185,3.386,0.185"/>
	
		<path fill-rule="evenodd" clip-rule="evenodd" fill="#FFF212" stroke="#373435" stroke-width="1.4173" stroke-miterlimit="22.9256" d="
		M58.826,29.373c0,0-0.298-1.88,0.994-3.911s2.708-4.37,2.708-4.37s1.231,1.847,1.416,3.139c0.185,1.292,0.399,4.336,0.399,4.336
		s-2.501,0.255-3.202,0.36S58.826,29.373,58.826,29.373z"/>
	
		<path fill-rule="evenodd" clip-rule="evenodd" fill="none" stroke="#373435" stroke-width="1.4173" stroke-miterlimit="22.9256" d="
		M70.653,13.644c-3.083,1.894-7.167,3.615-8.125,7.448"/>
	
		<path fill-rule="evenodd" clip-rule="evenodd" fill="none" stroke="#373435" stroke-width="1.4173" stroke-miterlimit="22.9256" d="
		M70.727,15.758c0,0-1.043,0.246-3.282,1.166c-2.239,0.92-5.109,4.485-4.969,4.57c0.202,0.123,5.62-4.984,7.883-4.079"/>
	
		<path fill-rule="evenodd" clip-rule="evenodd" fill="#FFF212" stroke="#373435" stroke-width="1.4173" stroke-miterlimit="22.9256" d="
		M55.142,87.384c-0.369,0.061-3.201,1.416-6.955,2.154c-3.755,0.738-7.14,2.154-7.571,2.893c-0.431,0.739-0.519,1.24-0.519,1.24
		s12.193-0.946,13.047-1.078c0.854-0.132,2.212-0.228,2.939-1.253c0.728-1.026,1.655-1.281,0.696-1.941
		C55.819,88.738,55.142,87.384,55.142,87.384z"/>
	
		<path fill-rule="evenodd" clip-rule="evenodd" fill="#FFF212" stroke="#373435" stroke-width="1.4173" stroke-miterlimit="22.9256" d="
		M79.19,97.469c0,0,9.621,2.533,13.807,2.841c4.185,0.308,5.108-0.124,5.108-0.124s0.004-4.047,1.847-4.678s6.107-2.333,6.155-1.785
		s-0.012-0.974-0.012-0.974s-8.936,0.605-10.76,0.112c-1.825-0.492-8.984-4.545-10.156-5.355s-2.795-1.622-2.821-0.245
		c-0.026,1.377,0.913,3.692-0.441,3.384c-1.354-0.308-4.64-4.396-5.217-5.078c-0.578-0.681-1.019-0.338-0.776,1.245
		C76.167,88.396,79.19,97.469,79.19,97.469z"/>
	
		<path fill-rule="evenodd" clip-rule="evenodd" fill="none" stroke="#373435" stroke-width="1.4173" stroke-miterlimit="22.9256" d="
		M66.713,32.971c0.308-0.062,2.893-1.662,3.632-3.939c0.739-2.278,1.271-4.993,1.271-4.993"/>
	<path fill-rule="evenodd" clip-rule="evenodd" fill="#373435" d="M45.494,41.374c0.59,0.711,1.208,1.208,2.194,1.156
		c1.169-0.061,2.222-1.002,2.222-1.002s-1.785,1.908-1.908,2.585c-0.123,0.677-0.327,1.61-0.862,1.847
		c-0.535,0.236-1.604-0.886-1.748-1.798c-0.065-0.415-0.626-0.667-0.708-1.313C44.571,41.961,44.991,40.768,45.494,41.374z"/>
	
		<path fill-rule="evenodd" clip-rule="evenodd" fill="#373435" stroke="#373435" stroke-width="1.4173" stroke-miterlimit="22.9256" d="
		M48.218,48.529c0,0,0.584-1.709,1.815-2.817c1.231-1.108,1.785-1.539,1.785-1.539s-3.093,3.505-2.77,4.616
		C49.371,49.902,48.218,48.529,48.218,48.529z"/>
	
		<path fill-rule="evenodd" clip-rule="evenodd" fill="none" stroke="#373435" stroke-width="1.4173" stroke-miterlimit="22.9256" d="
		M49.686,50.264c1.946,0.056,8.989,0.971,9.703-1.351c0.493-1.6,0.554-3.816,0.554-3.816"/>
	
		<path fill-rule="evenodd" clip-rule="evenodd" fill="none" stroke="#373435" stroke-width="1.4173" stroke-miterlimit="22.9256" d="
		M73.115,29.894c0,0-1.847,4.493-2.831,4.801c-0.985,0.308,1.908-0.247,1.908-0.247s0.37,2.154-0.738,2.524s1.477,0.615,1.477,0.615
		s0,2.093-1.292,2.955s-1.354,1.662-1.354,1.662s4.247,3.016,3.816,4.247c-0.431,1.231-1.539,4.739-2.708,6.709
		c-1.169,1.97-5.355,7.325-5.355,7.325s0.247-1.354-0.554-1.292s-5.417,4.371-6.032,4.924c-0.616,0.554,0.246-1.169,0.246-1.169
		l2.524-7.94c0,0,1.662-0.185,2.523-2.646c0.862-2.462,1.108-4.186,0.616-5.17s-0.554-1.046-0.554-1.046"/>
	
		<line fill-rule="evenodd" clip-rule="evenodd" fill="none" stroke="#373435" stroke-width="1.4173" stroke-miterlimit="22.9256" x1="57.027" y1="59.675" x2="61.604" y2="55.314"/>
	
		<path fill-rule="evenodd" clip-rule="evenodd" fill="#FFF212" stroke="#373435" stroke-width="1.4173" stroke-miterlimit="22.9256" d="
		M51.448,53.562c0,0-1.477,0.152-1.23,1.26c0.247,1.108,0.431,5.294-0.062,6.34c-0.492,1.046-0.862,1.785-0.862,1.785
		s1.478-2.093,3.755-3.386c2.277-1.292,2.893-1.785,3.447-2.708c0.364-0.606,0.862-3.827-0.152-3.735L51.448,53.562z"/>
	
		<line fill-rule="evenodd" clip-rule="evenodd" fill="none" stroke="#373435" stroke-width="1.4173" stroke-miterlimit="22.9256" x1="46.864" y1="46.706" x2="42.462" y2="47.99"/>
	
		<path fill-rule="evenodd" clip-rule="evenodd" fill="none" stroke="#373435" stroke-width="1.4173" stroke-miterlimit="22.9256" d="
		M47.017,47.805c-0.123,0.062-3.816,2.955-3.816,2.955"/>
	
		<path fill-rule="evenodd" clip-rule="evenodd" fill="none" stroke="#373435" stroke-width="1.4173" stroke-miterlimit="22.9256" d="
		M48.912,49.365c0,0-1.772,1.333-2.203,2.811c-0.431,1.477-0.862,1.908-0.862,1.908"/>
	
		<path fill-rule="evenodd" clip-rule="evenodd" fill="none" stroke="#373435" stroke-width="1.4173" stroke-miterlimit="22.9256" d="
		M49.661,51.133c0,0-0.551,1.35-0.92,2.335c-0.37,0.984-0.492,1.416-0.492,1.416"/>
	
		<path fill-rule="evenodd" clip-rule="evenodd" fill="#373435" stroke="#373435" stroke-width="1.4173" stroke-miterlimit="22.9256" d="
		M59.389,32.232c0,0-1.6-0.123-2.646,0.739c-1.047,0.862-2.339,1.785-2.339,1.785s2.216-1.231,3.509-1.478
		c1.292-0.246,1.847-0.369,1.847-0.369L59.389,32.232z"/>
	
		<path fill-rule="evenodd" clip-rule="evenodd" fill="none" stroke="#373435" stroke-width="1.4173" stroke-miterlimit="22.9256" d="
		M68.437,37.403c0,0-0.369,0-1.416,0c-1.046,0-1.6-1.416-2.4-1.478s-4.124-0.185-4.924,0.123c-0.8,0.308-1.354-0.369-3.877-0.369
		s-3.385,2.339-3.385,2.339s-0.124,1.724,1.354,1.847c2.405,0.2,4.909-1.96,5.909-3.816"/>
	
		<path fill-rule="evenodd" clip-rule="evenodd" fill="none" stroke="#373435" stroke-width="1.4173" stroke-miterlimit="22.9256" d="
		M52.659,39.135c1.395-1.272,4.23-2.023,6.2-2.593"/>
	
		<path fill-rule="evenodd" clip-rule="evenodd" fill="#373435" stroke="#373435" stroke-width="1.4173" stroke-miterlimit="22.9256" d="
		M78.347,60.239c0.8,0.246,2.154,1.847,3.877,1.97c1.724,0.123,2.585,0.677,2.647,1.539c0.062,0.862-0.124,5.54-1.047,7.387
		c-0.923,1.846-2.093,4.124-2.093,4.124s1.847-3.386,2.154-5.355c0.308-1.969,0.8-4.985,0.185-5.909
		c-0.616-0.923-1.169-0.8-2.154-1.231c-0.985-0.431-2.832-1.047-3.201-1.785C78.347,60.239,78.347,60.239,78.347,60.239z"/>
	
		<path fill-rule="evenodd" clip-rule="evenodd" fill="none" stroke="#373435" stroke-width="1.4173" stroke-miterlimit="22.9256" d="
		M77.353,99.179c-2.713,0.617-4.563,0.493-8.139,1.11c-3.576,0.617-5.796,3.206-12.208,2.959
		c-6.412-0.247-11.097,0.385-11.097,0.385"/>
	
		<path fill-rule="evenodd" clip-rule="evenodd" fill="none" stroke="#373435" stroke-width="1.4173" stroke-miterlimit="22.9256" d="
		M32.571,98.511c0,0-1.963,0.123-2.822,1.503s-2.791,3.957-2.791,3.957"/>
	
		<path fill-rule="evenodd" clip-rule="evenodd" fill="none" stroke="#373435" stroke-width="1.4173" stroke-miterlimit="22.9256" d="
		M30.952,96.555c0,0-1.847-0.615-2.585,0.923c-0.738,1.539-3.663,4.08-3.663,4.08"/>
	<circle fill-rule="evenodd" clip-rule="evenodd" fill="#373435" cx="58.212" cy="42.78" r="0.491"/>
	<circle fill-rule="evenodd" clip-rule="evenodd" fill="#373435" cx="55.667" cy="43.7" r="0.491"/>
	<circle fill-rule="evenodd" clip-rule="evenodd" fill="#373435" cx="53.428" cy="44.13" r="0.491"/>
	<circle fill-rule="evenodd" clip-rule="evenodd" fill="#373435" cx="54.869" cy="45.817" r="0.491"/>
	<circle fill-rule="evenodd" clip-rule="evenodd" fill="#373435" cx="57.599" cy="44.927" r="0.491"/>
	<circle fill-rule="evenodd" clip-rule="evenodd" fill="#373435" cx="56.403" cy="47.412" r="0.491"/>
	<circle fill-rule="evenodd" clip-rule="evenodd" fill="#373435" cx="54.9" cy="48.976" r="0.491"/>
	<circle fill-rule="evenodd" clip-rule="evenodd" fill="#373435" cx="53.55" cy="47.381" r="0.491"/>
	<circle fill-rule="evenodd" clip-rule="evenodd" fill="#373435" cx="52.139" cy="46.307" r="0.49"/>
	<circle fill-rule="evenodd" clip-rule="evenodd" fill="#373435" cx="50.943" cy="47.718" r="0.491"/>
	<circle fill-rule="evenodd" clip-rule="evenodd" fill="#373435" cx="52.538" cy="48.853" r="0.491"/>
	
		<path fill-rule="evenodd" clip-rule="evenodd" fill="#373435" stroke="#373435" stroke-width="1.4173" stroke-miterlimit="22.9256" d="
		M74.365,59.244c-0.537,0.199-1.112,0.337-1.587,0.479c-2.219,0.662-0.513,2.723,0.882,1.085
		C74.365,59.98,74.365,59.244,74.365,59.244z"/>
	
		<path fill-rule="evenodd" clip-rule="evenodd" fill="#373435" stroke="#373435" stroke-width="1.4173" stroke-miterlimit="22.9256" d="
		M62.034,67.013c-0.537,0.199-1.112,0.338-1.587,0.479c-2.219,0.662-0.513,2.723,0.882,1.085
		C62.034,67.749,62.034,67.013,62.034,67.013z"/>
	
		<path fill-rule="evenodd" clip-rule="evenodd" fill="#373435" stroke="#373435" stroke-width="1.4173" stroke-miterlimit="22.9256" d="
		M70.912,67.629c-0.537,0.199-1.112,0.337-1.587,0.479c-2.219,0.663-0.513,2.723,0.882,1.085
		C70.912,68.365,70.912,67.629,70.912,67.629z"/>
	
		<path fill-rule="evenodd" clip-rule="evenodd" fill="#373435" stroke="#373435" stroke-width="1.4173" stroke-miterlimit="22.9256" d="
		M81.394,69.849c-0.537,0.2-1.112,0.338-1.587,0.479c-2.219,0.662-0.513,2.723,0.882,1.085
		C81.394,70.585,81.394,69.849,81.394,69.849z"/>
	
		<path fill-rule="evenodd" clip-rule="evenodd" fill="#373435" stroke="#373435" stroke-width="1.4173" stroke-miterlimit="22.9256" d="
		M78.064,79.221c-0.537,0.199-1.112,0.338-1.587,0.479c-2.219,0.662-0.513,2.722,0.882,1.085
		C78.064,79.957,78.064,79.221,78.064,79.221z"/>
	
		<path fill-rule="evenodd" clip-rule="evenodd" fill="#373435" stroke="#373435" stroke-width="1.4173" stroke-miterlimit="22.9256" d="
		M65.234,77.761c-0.537,0.2-1.112,0.338-1.587,0.479c-2.219,0.662-0.513,2.723,0.882,1.085
		C65.234,78.497,65.234,77.761,65.234,77.761z"/>
	
		<path fill-rule="evenodd" clip-rule="evenodd" fill="#373435" stroke="#373435" stroke-width="1.4173" stroke-miterlimit="22.9256" d="
		M72.762,90.936c-0.537,0.199-1.112,0.338-1.587,0.479c-2.219,0.663-0.513,2.723,0.881,1.085
		C72.762,91.672,72.762,90.936,72.762,90.936z"/>
	
		<path fill-rule="evenodd" clip-rule="evenodd" fill="#373435" stroke="#373435" stroke-width="1.4173" stroke-miterlimit="22.9256" d="
		M64.253,89.702c-0.537,0.2-1.112,0.338-1.587,0.479c-2.219,0.662-0.513,2.723,0.882,1.085
		C64.253,90.438,64.253,89.702,64.253,89.702z"/>
	
		<path fill-rule="evenodd" clip-rule="evenodd" fill="#373435" stroke="#373435" stroke-width="1.4173" stroke-miterlimit="22.9256" d="
		M64.13,98.828c-0.537,0.199-1.112,0.337-1.587,0.479c-2.218,0.662-0.513,2.723,0.882,1.085C64.13,99.563,64.13,98.828,64.13,98.828
		z"/>
	
		<path fill-rule="evenodd" clip-rule="evenodd" fill="#373435" stroke="#373435" stroke-width="1.4173" stroke-miterlimit="22.9256" d="
		M52.045,97.841c-0.537,0.2-1.112,0.338-1.587,0.479c-2.219,0.662-0.513,2.723,0.882,1.085
		C52.045,98.577,52.045,97.841,52.045,97.841z"/>
	
		<path fill-rule="evenodd" clip-rule="evenodd" fill="none" stroke="#373435" stroke-width="1.4173" stroke-miterlimit="22.9256" d="
		M57.095,90.185c0.385,0.646,3.463,4.646,4.879,4.339c1.416-0.308,2.339-1.416,3.447-1.6c1.108-0.185,1.539-0.124,1.539-0.124"/>
	
		<path fill-rule="evenodd" clip-rule="evenodd" fill="none" stroke="#373435" stroke-width="1.4173" stroke-miterlimit="22.9256" d="
		M58.635,92.151c0,0-1.585,0.095-1.893,1.019s-0.37,1.169-0.37,1.169"/>
	
		<path fill-rule="evenodd" clip-rule="evenodd" fill="#FFF212" stroke="#373435" stroke-width="1.4173" stroke-miterlimit="22.9256" d="
		M132.266,104.741l2.646,2.4c0,0,0.089,0.073-0.123,1.847c-0.605,5.08,6.084,6.115,6.648,1.785c0.185-1.416,0.123-3.447,0.123-3.447
		l-2.832-2.913L132.266,104.741z"/>
	
		<ellipse fill-rule="evenodd" clip-rule="evenodd" fill="none" stroke="#373435" stroke-width="1.4173" stroke-miterlimit="22.9256" cx="138.236" cy="109.85" rx="1.148" ry="1.196"/>
	
		<path fill-rule="evenodd" clip-rule="evenodd" fill="#FFF212" stroke="#373435" stroke-width="1.4173" stroke-miterlimit="22.9256" d="
		M152.131,103.032l6.787,4.417c0,0-0.162,2.82,0.146,3.866s0.901,1.796,2.255,2.042c1.354,0.246,3.449-0.184,3.854-0.186
		c0.404,0-0.021-5.979-0.021-5.979L153.4,99.312l-0.95,1.47L152.131,103.032z"/>
	
		<ellipse fill-rule="evenodd" clip-rule="evenodd" fill="none" stroke="#373435" stroke-width="1.4173" stroke-miterlimit="22.9256" cx="162.058" cy="109.85" rx="1.148" ry="1.196"/>
	
		<line fill-rule="evenodd" clip-rule="evenodd" fill="none" stroke="#373435" stroke-width="1.4173" stroke-miterlimit="22.9256" x1="24.716" y1="98.517" x2="19.527" y2="95.894"/>
	
		<polyline fill-rule="evenodd" clip-rule="evenodd" fill="none" stroke="#373435" stroke-width="1.4173" stroke-miterlimit="22.9256" points="
		16.919,100.186 41.136,113.446 100.78,113.122 	"/>
	
		<line fill-rule="evenodd" clip-rule="evenodd" fill="none" stroke="#373435" stroke-width="1.4173" stroke-miterlimit="22.9256" x1="106.379" y1="113.059" x2="160.435" y2="113.081"/>
	
		<polygon fill-rule="evenodd" clip-rule="evenodd" fill="none" stroke="#373435" stroke-width="2.126" stroke-miterlimit="22.9256" points="
		22.849,110.894 35.734,118.107 36.043,165.521 22.867,158.291 	"/>
	
		<polyline fill-rule="evenodd" clip-rule="evenodd" fill="none" stroke="#373435" stroke-width="1.4173" stroke-miterlimit="22.9256" points="
		41.344,113.413 41.096,174.857 52.803,174.787 	"/>
	
		<polygon fill-rule="evenodd" clip-rule="evenodd" fill="#373435" stroke="#373435" stroke-width="1.4173" stroke-miterlimit="22.9256" points="
		21.411,171.402 21.473,167.094 17.149,165.002 17.164,169.063 	"/>
	
		<polygon fill-rule="evenodd" clip-rule="evenodd" fill="#373435" stroke="#373435" stroke-width="1.4173" stroke-miterlimit="22.9256" points="
		37.168,176.51 41.601,178.295 41.292,183.035 36.912,180.957 	"/>
	
		<polygon fill-rule="evenodd" clip-rule="evenodd" fill="#373435" stroke="#373435" stroke-width="1.4173" stroke-miterlimit="22.9256" points="
		157.564,178.543 165.381,178.543 165.01,183.041 157.872,183.158 	"/>
	
		<polygon fill-rule="evenodd" clip-rule="evenodd" fill="#FFF212" stroke="#373435" stroke-width="1.4173" stroke-miterlimit="22.9256" points="
		151.84,174.787 153.871,177.188 153.994,180.82 157.502,182.357 157.564,178.543 154.179,174.787 	"/>
	
		<path fill-rule="evenodd" clip-rule="evenodd" fill="#373435" stroke="#373435" stroke-width="1.4173" stroke-miterlimit="22.9256" d="
		M41.601,178.295c0.233,0.207,7.625,0.146,7.625,0.146l0.519,0.393l-1.225,1.018l0.052,3.061l-7.47,0.033L41.601,178.295z"/>
	
		<line fill-rule="evenodd" clip-rule="evenodd" fill="none" stroke="#373435" stroke-width="1.4173" stroke-miterlimit="22.9256" x1="41.096" y1="174.857" x2="41.036" y2="178.564"/>
	
		<polyline fill-rule="evenodd" clip-rule="evenodd" fill="none" stroke="#373435" stroke-width="1.4173" stroke-miterlimit="22.9256" points="
		21.002,167.605 23.091,165.092 26.766,167.277 	"/>
	
		<rect x="47.141" y="121.252" fill-rule="evenodd" clip-rule="evenodd" fill="#FFF212" stroke="#373435" stroke-width="1.4173" stroke-miterlimit="22.9256" width="110.977" height="46.859"/>
	
		<polygon fill-rule="evenodd" clip-rule="evenodd" fill="#ED3237" stroke="#373435" stroke-width="1.4173" stroke-miterlimit="22.9256" points="
		62.802,121.252 111.633,168.111 116.318,168.111 69.708,121.252 	"/>
	
		<polygon fill-rule="evenodd" clip-rule="evenodd" fill="#ED3237" stroke="#373435" stroke-width="1.4173" stroke-miterlimit="22.9256" points="
		85.245,121.252 133.213,168.111 139.502,168.111 91.534,121.252 	"/>
	
		<path fill-rule="evenodd" clip-rule="evenodd" fill="#ED3237" stroke="#373435" stroke-width="1.4173" stroke-miterlimit="22.9256" d="
		M47.141,143.201c1.356,1.232,24.872,24.787,24.872,24.787l-5.468-0.146l-19.403-18.104V143.201z"/>
	
		<polygon fill-rule="evenodd" clip-rule="evenodd" fill="#ED3237" stroke="#373435" stroke-width="1.4173" stroke-miterlimit="22.9256" points="
		156.149,168.111 108.057,120.389 115.703,121.252 157.955,163.635 157.92,168.111 	"/>
	
		<polygon fill-rule="evenodd" clip-rule="evenodd" fill="#ED3237" stroke="#373435" stroke-width="1.4173" stroke-miterlimit="22.9256" points="
		158.118,143.822 133.213,168.111 139.502,168.111 158.118,150.107 	"/>
	
		<polygon fill-rule="evenodd" clip-rule="evenodd" fill="#ED3237" stroke="#373435" stroke-width="1.4173" stroke-miterlimit="22.9256" points="
		47.545,121.645 47.76,128.25 88.872,168.105 95.137,168.08 	"/>
	
		<polygon fill-rule="evenodd" clip-rule="evenodd" fill="#ED3237" stroke="#373435" stroke-width="1.4173" stroke-miterlimit="22.9256" points="
		158.118,121.252 109.555,168.111 117.553,168.111 158.118,128.404 	"/>
	
		<path fill-rule="evenodd" clip-rule="evenodd" fill="#ED3237" stroke="#373435" stroke-width="1.4173" stroke-miterlimit="22.9256" d="
		M48.251,163.178c-1.11,0,43.283-41.926,43.283-41.926l5.445,0.285l-47.001,45.709l-1.961,0.238L48.251,163.178z"/>
	
		<polygon fill-rule="evenodd" clip-rule="evenodd" fill="#ED3237" stroke="#373435" stroke-width="1.4173" stroke-miterlimit="22.9256" points="
		63.665,168.111 112.753,120.918 119.279,121.252 71.434,168.111 	"/>
	
		<polygon fill-rule="evenodd" clip-rule="evenodd" fill="#ED3237" stroke="#373435" stroke-width="1.4173" stroke-miterlimit="22.9256" points="
		134.525,121.186 86.616,168.111 95.137,168.08 142.338,121.252 	"/>
	
		<path fill-rule="evenodd" clip-rule="evenodd" fill="#FFF212" stroke="#373435" stroke-width="1.4173" stroke-miterlimit="22.9256" d="
		M89.858,99.879l9.814,6.945l0.123,22.689c0,0-0.555,1.365-1.803,1.67c-1.249,0.305-3.242-0.455-3.242-0.455
		c-0.357,2.477,1.361,4.146,3.305,4.863c0,0-0.252,1.518,1.073,2.914l3.343,3.527c0.868-0.908,3.635-3.676,4.049-4.754l0.613-1.594
		l1.299-0.256c1.834-0.363,2.106-2.986,2.106-4.652c0,0-0.242,0.143-0.608,0.268c-1.594,0.549-3.641,0.707-4.146-0.85
		c-0.397-1.227,0.301-23.596,0.301-23.596l-6.875-5.841L89.858,99.879z"/>
	
		<polygon fill-rule="evenodd" clip-rule="evenodd" fill="#FFF212" stroke="#373435" stroke-width="1.4173" stroke-miterlimit="22.9256" points="
		86.718,121.359 88.318,123.822 80.563,131.701 72.13,123.883 73.977,121.545 	"/>
	
		<path fill-rule="evenodd" clip-rule="evenodd" fill="#FFF212" stroke="#373435" stroke-width="1.4173" stroke-miterlimit="22.9256" d="
		M94.412,123.699l1.661-2.217l3.14,0.186c0,0,0.369,6.34,0.061,6.217C98.967,127.762,94.412,123.699,94.412,123.699z"/>
	
		<rect x="68.324" y="144.934" fill-rule="evenodd" clip-rule="evenodd" fill="#373435" stroke="#373435" stroke-width="1.4173" stroke-miterlimit="22.9256" width="2.031" height="1.725"/>
	
		<rect x="78.753" y="155.369" fill-rule="evenodd" clip-rule="evenodd" fill="#373435" stroke="#373435" stroke-width="1.4173" stroke-miterlimit="22.9256" width="2.031" height="1.723"/>
	
		<rect x="89.963" y="144.285" fill-rule="evenodd" clip-rule="evenodd" fill="#373435" stroke="#373435" stroke-width="1.4173" stroke-miterlimit="22.9256" width="2.031" height="1.723"/>
	
		<rect x="101.615" y="155.781" fill-rule="evenodd" clip-rule="evenodd" fill="#373435" stroke="#373435" stroke-width="1.4173" stroke-miterlimit="22.9256" width="2.031" height="1.723"/>
	
		<rect x="67.536" y="122.65" fill-rule="evenodd" clip-rule="evenodd" fill="#373435" stroke="#373435" stroke-width="1.4173" stroke-miterlimit="22.9256" width="2.031" height="1.725"/>
	
		<rect x="100.383" y="132.809" fill-rule="evenodd" clip-rule="evenodd" fill="none" stroke="#373435" stroke-width="1.4173" stroke-miterlimit="22.9256" width="4.924" height="2.646"/>
	
		<rect x="56.988" y="133.855" fill-rule="evenodd" clip-rule="evenodd" fill="#373435" stroke="#373435" stroke-width="1.4173" stroke-miterlimit="22.9256" width="2.031" height="1.723"/>
	
		<rect x="79.572" y="133.832" fill-rule="evenodd" clip-rule="evenodd" fill="#373435" stroke="#373435" stroke-width="1.4173" stroke-miterlimit="22.9256" width="2.031" height="1.725"/>
	
		<rect x="91.041" y="122.855" fill-rule="evenodd" clip-rule="evenodd" fill="#373435" stroke="#373435" stroke-width="1.4173" stroke-miterlimit="22.9256" width="2.031" height="1.725"/>
	
		<rect x="112.961" y="144.93" fill-rule="evenodd" clip-rule="evenodd" fill="#373435" stroke="#373435" stroke-width="1.4173" stroke-miterlimit="22.9256" width="2.031" height="1.725"/>
	
		<rect x="124.429" y="155.904" fill-rule="evenodd" clip-rule="evenodd" fill="#373435" stroke="#373435" stroke-width="1.4173" stroke-miterlimit="22.9256" width="2.031" height="1.723"/>
	
		<rect x="56.602" y="155.361" fill-rule="evenodd" clip-rule="evenodd" fill="#373435" stroke="#373435" stroke-width="1.4173" stroke-miterlimit="22.9256" width="2.031" height="1.723"/>
	
		<polygon fill-rule="evenodd" clip-rule="evenodd" fill="#ED3237" stroke="#373435" stroke-width="1.4173" stroke-miterlimit="22.9256" points="
		131.061,121.252 137.99,121.119 158.118,140.857 158.118,146.787 	"/>
	
		<rect x="124.306" y="133.092" fill-rule="evenodd" clip-rule="evenodd" fill="#373435" stroke="#373435" stroke-width="1.4173" stroke-miterlimit="22.9256" width="2.031" height="1.725"/>
	
		<rect x="136.051" y="144.811" fill-rule="evenodd" clip-rule="evenodd" fill="#373435" stroke="#373435" stroke-width="1.4173" stroke-miterlimit="22.9256" width="2.031" height="1.725"/>
	
		<rect x="147.315" y="133.363" fill-rule="evenodd" clip-rule="evenodd" fill="#373435" stroke="#373435" stroke-width="1.4173" stroke-miterlimit="22.9256" width="2.031" height="1.723"/>
	
		<rect x="146.739" y="155.678" fill-rule="evenodd" clip-rule="evenodd" fill="#373435" stroke="#373435" stroke-width="1.4173" stroke-miterlimit="22.9256" width="2.031" height="1.723"/>
	
		<polygon fill-rule="evenodd" clip-rule="evenodd" fill="#ED3237" stroke="#373435" stroke-width="1.4173" stroke-miterlimit="22.9256" points="
		48.001,141.611 68.228,121.252 73.553,122.08 47.141,149.738 	"/>
	
		<rect x="56.988" y="133.855" fill-rule="evenodd" clip-rule="evenodd" fill="#373435" stroke="#373435" stroke-width="1.4173" stroke-miterlimit="22.9256" width="2.031" height="1.723"/>
	
		<rect x="67.854" y="122.984" fill-rule="evenodd" clip-rule="evenodd" fill="#373435" stroke="#373435" stroke-width="1.4173" stroke-miterlimit="22.9256" width="2.031" height="1.723"/>
	
		<rect x="112.727" y="122.436" fill-rule="evenodd" clip-rule="evenodd" fill="#373435" stroke="#373435" stroke-width="1.4173" stroke-miterlimit="22.9256" width="2.031" height="1.723"/>
	
		<polygon fill-rule="evenodd" clip-rule="evenodd" fill="none" stroke="#373435" stroke-width="1.4173" stroke-miterlimit="22.9256" points="
		47.036,107.318 63.089,107.344 63.856,108.203 63.805,108.836 47.324,108.786 	"/>
	
		<polygon fill-rule="evenodd" clip-rule="evenodd" fill="none" stroke="#373435" stroke-width="1.4173" stroke-miterlimit="22.9256" points="
		70.552,107.429 86.606,107.455 87.373,108.314 87.322,108.947 70.84,108.896 	"/>
	
		<polygon fill-rule="evenodd" clip-rule="evenodd" fill="none" stroke="#373435" stroke-width="1.4173" stroke-miterlimit="22.9256" points="
		94.591,107.915 110.645,107.941 111.412,108.799 111.361,109.433 94.879,109.382 	"/>
	
		<polygon fill-rule="evenodd" clip-rule="evenodd" fill="none" stroke="#373435" stroke-width="1.4173" stroke-miterlimit="22.9256" points="
		117.824,107.429 133.877,107.455 134.645,108.314 134.594,108.947 118.112,108.896 	"/>
	
		<polygon fill-rule="evenodd" clip-rule="evenodd" fill="none" stroke="#373435" stroke-width="1.4173" stroke-miterlimit="22.9256" points="
		141.565,107.444 157.619,107.47 158.387,108.329 158.335,108.962 141.854,108.912 	"/>
	<path fill-rule="evenodd" clip-rule="evenodd" fill="#373435" d="M23.409,147.541l0.355-0.908l-0.902-2.807l-0.001-3.201
		l1.498,4.488l2.842-7.266l-4.346-13.883l-0.002-5.057l5.121,16.963l2.879-7.361l-4.739-15.789l1.753,1.438
		c0.089-0.16,1.873,5.816,3.776,12.33l3.36-8.594l0.625,0.174l0.07,2.846l-3.32,8.096c1.025,3.525,2.028,6.998,2.762,9.551
		l0.894-2.166l0.05,3.762l-0.286,0.693l0.5,1.746l-0.387,2.77l-0.831-2.77l-2.928,7.121l3.477,11.514l-0.204,2.893l-3.975-12.697
		l-2.751,6.691l1.378,4.131l-1.572-0.863l-0.504-1.568l-0.434,1.055l-1.33-0.73l1.05-2.545l-2.916-9.07l-1.507,3.676L23.409,147.541
		L23.409,147.541z M27.972,155.938l2.78-6.74l-2.88-9.203l-2.879,7.02L27.972,155.938L27.972,155.938z M31.471,147.457l2.934-7.113
		l-2.821-9.398l-2.937,7.158L31.471,147.457z"/>
</g>
</svg>
