<?xml version="1.0" encoding="UTF-8" standalone="no"?>
<!-- Created with Inkscape (http://www.inkscape.org/) -->

<svg
   xmlns:dc="http://purl.org/dc/elements/1.1/"
   xmlns:cc="http://creativecommons.org/ns#"
   xmlns:rdf="http://www.w3.org/1999/02/22-rdf-syntax-ns#"
   xmlns:svg="http://www.w3.org/2000/svg"
   xmlns="http://www.w3.org/2000/svg"
   version="1.1"
   width="319.99997"
   height="404"
   viewBox="0 0 90.311106 114.01778"
   id="svg2"
   xml:space="preserve"
   style="fill-rule:evenodd"><metadata
   id="metadata37"><rdf:RDF><cc:Work
       rdf:about=""><dc:format>image/svg+xml</dc:format><dc:type
         rdf:resource="http://purl.org/dc/dcmitype/StillImage" /><dc:title></dc:title></cc:Work></rdf:RDF></metadata>
 <defs
   id="defs4"><style
     type="text/css"
     id="style6" /><style
     type="text/css"
     id="style6-0" /></defs>
 
<g
   transform="matrix(0.08063493,0,0,0.08063493,5.6444447,82.973335)"
   id="g3981"><path
     d="m 0,20 0,100 60,0 0,-20.000001 -40,0 L 20,20 z"
     id="rect3023"
     style="fill:#9000cc;fill-opacity:1;stroke:none" /><path
     d="m 80,20 0,100 60,0 0,-20.000001 -40,0 0,-20 40,0 L 140,60 l -40,0 0,-20 40,0 0,-20 z"
     id="rect3004"
     style="fill:#9000cc;fill-opacity:1;stroke:none" /><path
     d="m 210,40.000003 0,20 20,0 c 5.52285,0 10,4.47715 10,10 0,5.52285 -4.47715,9.999995 -10,9.999995 l -20,0 0,20 20,0 c 16.56854,0 30,-13.43146 30,-29.999995 0,-16.56854 -13.43146,-30 -30,-30 z m 20,-40 c -38.65993,0 -70,31.34007 -70,70 C 160,108.65993 191.34007,140 230,140 c 38.65993,0 70,-31.34007 70,-69.999997 0,-38.65993 -31.34007,-70 -70,-70 z m 0,20 c 27.61424,0 50,22.38576 50,50 C 280,97.614236 257.61424,120 230,120 c -27.61424,0 -50,-22.385764 -50,-49.999997 0,-27.61424 22.38576,-50 50,-50 z"
     id="path3029"
     style="fill:#9000cc;fill-opacity:1;stroke:none" /><path
     d="m 320,20 0,100 20,0 0,-62.78125 40,62.78125 20,0 0,-100 -20,0 0,62.78125 L 340,20 z"
     id="rect3051"
     style="fill:#ff0000;fill-opacity:1;stroke:none" /><rect
     width="20"
     height="100"
     x="420"
     y="20"
     id="rect3002"
     style="fill:#9000cc;fill-opacity:1;stroke:none" /><path
     d="m 460,20 0,100 50,0 c 16.56854,0 30,-13.43146 30,-30 l 0,-40 C 540,33.43146 526.56854,20 510,20 z m 20,20 30,0 c 5.52285,0 10,4.47715 10,10 l 0,40 c 0,5.522847 -4.47715,10 -10,10 l -30,0 z"
     id="path3053"
     style="fill:#9000cc;fill-opacity:1;stroke:none" /><path
     d="m 660,20 -20,20 30,0 c 5.52285,0 10,4.47715 10,10 0,5.52285 -4.47715,10 -10,10 -16.56854,0 -30,13.43146 -30,30 l 0,30 60,0 0,-20 -40,0 0,-10 c 0,-5.52285 4.47715,-10 10,-10 16.56854,0 30,-13.43146 30,-30 0,-16.56853 -13.43146,-30 -30,-30 l -10,0 z"
     id="path3071"
     style="fill:#9000cc;fill-opacity:1;stroke:none" /><path
     d="m 790,3e-6 c -38.65993,0 -70,31.34007 -70,70 C 720,108.65993 751.34007,140 790,140 c 38.65993,0 70,-31.34007 70,-69.999997 0,-38.65993 -31.34007,-70 -70,-70 z m 0,20 c 27.61424,0 50,22.38576 50,50 C 840,97.614238 817.61424,120 790,120 c -27.61424,0 -50,-22.385762 -50,-49.999997 0,-27.61424 22.38576,-50 50,-50 z"
     id="path3041"
     style="fill:#9000cc;fill-opacity:1;stroke:none" /><path
     d="m 880,40 0,80 20,0 0,-100 z"
     id="rect3068"
     style="fill:#9000cc;fill-opacity:1;stroke:none" /><path
     d="m 920,20 0,60 30,0 c 5.52285,0 10,4.47715 10,10 0,5.52285 -4.47715,10 -10,10 l -30,0 20,20 10,0 c 16.56854,0 30,-13.43146 30,-30 0,-16.56854 -13.43146,-30 -30,-30 l -10,0 0,-20 40,0 0,-20 z"
     id="path3043"
     style="fill:#9000cc;fill-opacity:1;stroke:none" /></g><polygon
   points="448.559,559.046 392.427,559.046 392.427,605.065 448.559,605.065 "
   transform="matrix(1.5988155,0,0,1.5988155,-627.13571,-893.52889)"
   id="polygon10"
   style="fill:#f2f2f2" /><path
   d="m 53.63832,104.90739 27.90733,0 c 4.68405,0 8.48267,-3.95355 8.48267,-8.828354 l 0,-22.21985 -89.74471,0 0,22.21985 c 0,4.874804 3.79863,8.828354 8.48268,8.828354 l 27.90732,0 c 4.68405,0 8.48268,3.95355 8.48236,8.82833 -3.2e-4,-4.87478 3.7983,-8.82833 8.48235,-8.82833 z"
   id="path12"
   style="fill:#00aa00;fill-opacity:1" /><path
   d="m 392.427,568.001 4.066,0 0,3.706 4.364,0 0,-3.706 4.363,0 0,3.706 4.364,0 0,-3.706 4.364,0 0,3.706 4.363,0 0,-3.706 4.364,0 0,3.706 4.364,0 0,-3.706 4.363,0 0,3.706 4.364,0 0,-3.706 4.364,0 0,3.706 4.363,0 0,-3.706 4.066,0"
   transform="matrix(1.5988155,0,0,1.5988155,-627.13571,-893.52889)"
   id="polyline14"
   style="fill:none;stroke:#7f7f7f;stroke-width:0.24712741;stroke-miterlimit:4;stroke-dasharray:none" /><path
   d="m 0.28265064,73.858386 89.74470936,0 m -89.74470936,-5.92601 89.74470936,0 m -89.74470936,-5.92601 89.74470936,0 m -89.74470936,-5.92569 89.74470936,0 m -89.74470936,-5.92585 89.74470936,0 m -89.74470936,-5.92601 89.74470936,0 m -89.74470936,-5.92585 89.74470936,0 m -89.74470936,-5.92585 89.74470936,0 m -89.74470936,-5.92585 89.74470936,0"
   id="path20"
   style="fill:none;stroke:#7f7f7f;stroke-width:0.39511114;stroke-miterlimit:4;stroke-dasharray:none" /><path
   d="m 53.63832,104.90739 27.90733,0 c 4.68405,0 8.48267,-3.95355 8.48267,-8.828354 l 0,-95.79638059 -89.74471,0 0,95.79638059 c 0,4.874804 3.79863,8.828354 8.48268,8.828354 l 27.90732,0 c 4.68405,0 8.48268,3.95355 8.48236,8.82833 -3.2e-4,-4.87478 3.7983,-8.82833 8.48235,-8.82833 z"
   id="path22"
   style="fill:none;stroke:#000000;stroke-width:0.56444448;stroke-miterlimit:4;stroke-dasharray:none" /><path
   d="m 24.224922,38.302966 0,-5.92585 m 0,17.77771 0,-5.92601 m 0,17.77755 0,-5.92569 m 0,17.77771 0,-5.92601 m 13.953663,-29.62941 0,-5.92585 m 0,17.77771 0,-5.92601 m 0,17.77755 0,-5.92569 m 0,17.77771 0,-5.92601 m 13.953661,-29.62941 0,-5.92585 m 0,17.77771 0,-5.92601 m 0,17.77755 0,-5.92569 m 0,17.77771 0,-5.92601 m 13.952864,-29.62941 0,-5.92585 m 0,17.77771 0,-5.92601 m 0,17.77755 0,-5.92569 m 0,17.77771 0,-5.92601 m 13.953662,-29.62941 0,-5.92585 m 0,17.77771 0,-5.92601 m 0,17.77755 0,-5.92569 m 0,17.77771 0,-5.92601 m -69.766713,-29.62941 0,-5.92585 m 0,17.77771 0,-5.92601 m 0,17.77755 0,-5.92569 m 0,17.77771 0,-5.92601"
   id="path3154"
   style="fill:none;stroke:#7f7f7f;stroke-width:0.39511114;stroke-miterlimit:4;stroke-dasharray:none" /><path
   d="m 87.015203,32.377916 0,-5.92585 m 0,17.77771 0,-5.92601 m 0,17.77755 0,-5.92569 m 0,17.77771 0,-5.92601 m -69.766713,-29.62941 0,-5.92585 m 0,17.77771 0,-5.92601 m 0,17.77755 0,-5.92569 m 0,17.77771 0,-5.92601 m 13.953663,-29.62941 0,-5.92585 m 0,17.77771 0,-5.92601 m 0,17.77755 0,-5.92569 m 0,17.77771 0,-5.92601 m 13.953661,-29.62941 0,-5.92585 m 0,17.77771 0,-5.92601 m 0,17.77755 0,-5.92569 m 0,17.77771 0,-5.92601 m 13.952864,-29.62941 0,-5.92585 m 0,17.77771 0,-5.92601 m 0,17.77755 0,-5.92569 m 0,17.77771 0,-5.92601 m 13.953662,-29.62941 0,-5.92585 m 0,17.77771 0,-5.92601 m 0,17.77755 0,-5.92569 m 0,17.77771 0,-5.92601 m -69.7667125,-29.62941 0,-5.92585 m 0,17.77771 0,-5.92601 m 0,17.77755 0,-5.92569 m 0,17.77771 0,-5.92601"
   id="path3158"
   style="fill:none;stroke:#7f7f7f;stroke-width:0.39511114;stroke-miterlimit:4;stroke-dasharray:none" /><g
   transform="translate(129.82221,0)"
   id="g3140"><path
     d="m -114.36202,35.027956 c -0.052,-0.006 -0.10408,-0.0128 -0.15636,-0.0198 -0.88862,-0.11432 -1.88101,-0.38531 -2.77042,-0.36932 -0.91021,0.0165 -1.66789,0.46893 -2.32565,1.05633 -0.38003,-0.61794 -0.78852,-1.20534 -1.33069,-1.69586 -1.25619,-0.34646 -1.57962,-1.52479 -0.99526,-2.62477 0.23935,-0.45039 0.61746,-0.87791 1.09487,-1.20503 -0.0457,-0.55543 0.12982,-0.94986 0.56246,-1.29951 1.01349,-0.81892 2.45739,-0.92652 3.67041,-1.30016 l 0.002,-8e-4 3.2e-4,-1.6e-4 0,3.2e-4 c 0.21344,-0.0657 0.28651,-0.0879 0.35654,-0.1092 l 1.6e-4,8e-4 c 0.68045,-0.20625 1.35947,-0.41202 1.93936,-0.7046 l 3.2e-4,0 0,-1.6e-4 c 0.28683,-0.1447 0.57205,-0.27804 0.85761,-0.39955 l -0.50059,-0.47341 c 0.60419,-0.40226 1.24596,-0.72426 1.95375,-0.89341 l -0.55815,-0.75528 c 0.64689,-0.0619 1.29152,-0.10057 1.94128,-0.0974 l -0.41906,-0.46333 c 1.787,0.0112 3.58007,0.32247 5.08999,1.39895 0.58644,-0.44063 1.25075,-0.7209 1.88052,-0.75575 l 0.0264,0.15779 0,4.8e-4 c 0.13094,0.78375 0.0817,1.52128 -0.13414,2.1915 0.4822,0.57909 0.85536,1.24596 0.88094,2.01419 1.18281,1.669 1.55789,3.62819 1.75039,5.79107 0.15556,1.74942 0.005,3.50493 0.22367,5.25467 -0.18449,-0.12247 -0.38163,-0.23663 -0.54535,-0.38691 0.14949,1.09231 0.15077,2.19772 0.31353,3.29339 -0.29163,-0.3116 -0.60259,-0.6173 -0.87967,-0.94154 0.13094,1.29185 0.24574,2.59024 0.58932,3.84803 0.29307,1.07232 1.25427,3.35704 2.792807,2.75316 1.08768,-0.42689 1.57819,-2.78817 1.820569,-3.83124 l -0.357169,0.12934 c 0.29434,-0.75559 0.635529,-1.46147 1.048659,-2.16143 l -0.40593,0.0334 c 0.81155,-0.75128 1.30351,-1.76222 2.07493,-2.53444 l -0.21487,0.0285 c 0.512731,-0.78022 1.072321,-1.55069 1.754531,-1.99916 -0.0638,-0.13798 -0.10984,-0.28571 -0.13318,-0.44416 -0.13526,-0.91803 0.36997,-2.01163 1.00694,-2.6462 l -3.2e-4,-3.2e-4 0,0 8e-4,0 c 0.0993,-0.099 0.21647,-0.20032 0.3471,-0.29897 0.714029,-0.5388 1.695549,-0.93995 2.597429,-0.73146 -0.39666,-0.91021 0.0892,-2.0241 0.800051,-2.65036 0.55831,-0.49195 1.33437,-0.83906 2.09078,-0.73689 -0.26397,-0.60371 -0.23104,-1.39177 0.0128,-1.99516 l 3.2e-4,0 1.6e-4,-4.8e-4 0,-6.4e-4 c 0.0377,-0.0931 0.0833,-0.19009 0.13653,-0.28842 0.31529,-0.58261 0.843849,-1.10399 1.530229,-1.19145 -0.23583,-0.71498 -0.066,-1.53454 0.35334,-2.14912 0.74568,-1.09312 2.133131,-1.2386 3.279651,-0.72874 0.83489,0.3714 1.499519,0.98359 2.384309,1.21494 0.0523,-0.18787 0.30377,-0.27484 0.50938,-0.28939 0.24814,-0.0176 0.814281,0.0144 1.043391,0.23183 0.92763,-0.31896 1.73328,-0.93306 2.68521,-1.20055 0.992069,-0.27868 2.215799,-0.0707 2.8024,0.88303 l 0,1.6e-4 0,0 c 0.34951,0.56838 0.46861,1.39176 0.0985,1.97997 0.006,1.6e-4 0.0128,1.6e-4 0.0186,3.2e-4 0.82371,0.0194 1.67331,0.52601 2.00251,1.29792 l 3.2e-4,9.6e-4 c 0.0387,0.0905 0.0732,0.19313 0.10201,0.30473 0.14549,0.56374 0.10856,1.20567 -0.19122,1.71537 1.083349,-0.15316 2.152969,0.43104 2.635809,1.38985 0.29753,0.59092 0.32551,1.26402 0.0665,1.87956 1.048501,-0.19457 1.905631,0.062 2.692251,0.71867 1.04418,0.87168 1.547959,2.23467 0.88477,3.4114 2.576969,1.127 3.94972,3.68958 5.34517,5.98165 l 0,1.6e-4 0,0 c 0.27516,0.45182 0.558939,0.88335 0.842569,1.31454 0.44127,0.67103 0.85537,1.36651 1.22869,2.08342 3.166141,-0.66958 5.11093,2.34898 5.63774,4.99486 0.29978,1.50545 0.52954,3.07452 0.32904,4.60906 l -1.6e-4,0.002 c -0.20529,1.57052 -0.54119,3.1276 -0.59779,4.71475 -0.0729,2.03961 0.1805,3.80054 0.85312,5.71928 0.0742,0.21169 0.23007,1.08863 -0.27099,0.88559 l -1.6e-4,4.8e-4 -1.6e-4,-1.6e-4 -10e-4,-6.4e-4 c -0.0718,-0.0296 -0.12647,-0.0886 -0.20354,-0.17172 -0.63329,-0.68317 -1.04002,-1.82616 -1.35627,-2.70056 -0.853279,-0.53576 -0.906999,-1.58187 -1.036669,-2.50598 -0.88815,-0.64544 -0.7353,-2.52165 -0.76216,-3.46431 -0.066,-2.31972 0.64145,-4.47189 0.73322,-6.77786 0.062,-1.55789 -0.87679,-3.83988 -2.694961,-3.98297 0.733851,1.70609 1.207901,3.51611 1.255231,5.39424 0.0478,1.89716 -0.23535,3.67009 -0.82596,5.46987 -0.129971,-0.1327 -0.249401,-0.26797 -0.356211,-0.40849 -0.83794,2.64492 -1.41415,5.66268 -1.13547,8.43119 0.17874,1.77708 0.92075,3.30459 2.041211,4.67622 -0.649451,1.65988 -1.002311,3.40259 -1.302401,5.15362 l -1.6e-4,4.8e-4 c -0.0481,0.28058 -0.0969,0.56086 -0.14549,0.84065 -0.57717,3.31706 -1.08465,6.69744 -1.05635,10.07366 -1.661479,0.77495 -2.424759,2.18702 -2.839969,3.90542 l -6.958211,0.002 c -0.10983,-1.98237 1.377381,-2.812 3.051671,-3.12152 1.156739,-0.21393 2.587999,-0.68557 2.250169,-2.15873 1.010931,-1.67283 1.603611,-3.51148 2.023461,-5.40991 0.3607,-1.63095 0.62689,-3.31163 0.36357,-4.97951 -0.19521,-1.23716 -0.68541,-2.25945 -1.21606,-3.36662 -0.1012,-0.21105 -0.20385,-0.42513 -0.30441,-0.64049 l -8e-4,-0.001 c -0.661431,-1.44613 -1.216061,-2.9407 -1.670131,-4.46453 -0.40785,-0.17699 -0.73657,-0.44367 -1.02404,-0.7588 -0.0365,-0.0398 -0.0724,-0.0803 -0.108079,-0.12119 -0.0956,1.94784 -0.13782,5.37714 1.335009,6.56106 -2.108359,4.55183 -3.849779,9.32062 -4.63465,14.29037 -1.78779,0.80788 -2.744999,2.15329 -3.051009,4.07426 l -7.07172,0 c -0.34279,-1.64629 0.64096,-2.38191 2.11491,-2.68361 1.252839,-0.2566 2.443949,-1.13723 2.376959,-2.5394 3.145191,-2.7765 5.80674,-7.71204 4.86935,-12.04403 -0.48892,-2.25993 -1.34668,-4.43192 -2.194369,-6.57721 -0.27292,-0.69036 -0.55175,-1.39608 -0.8154,-2.11539 l 0,-3.2e-4 c -0.71307,-1.94576 -1.11021,-3.61141 -0.94202,-5.66156 -0.39891,0.17858 -0.787571,0.37763 -1.162501,0.59012 -1.87046,1.06049 -3.474219,2.30948 -5.6961,2.74388 -1.59834,0.31257 -3.429459,0.2678 -5.91594,-0.14485 0.21569,2.99618 0.18179,5.96343 0.19202,9.01204 0.002,0.56231 0.0128,1.12349 0.0331,1.68707 0.0197,0.55511 0.0483,1.11662 0.0851,1.6874 0.153,2.37216 -0.0977,4.70754 -0.31753,7.06964 -0.16484,1.77004 -0.0675,3.51802 0.40481,5.23724 -1.34203,0.90604 -2.161429,2.05144 -2.497179,3.64577 l -6.75659,0.023 c -0.0552,-1.77037 0.91116,-2.56562 2.563379,-2.57378 1.07504,-0.005 1.20247,-0.69452 0.96951,-1.56955 2.030341,-1.53423 2.294471,-4.33152 2.494951,-6.67985 0.17556,-2.05448 0.43345,-4.61482 -1.26961,-6.13754 0.0745,-2.16399 -0.38388,-4.16699 -1.397841,-6.04688 -0.21616,2.76995 -0.88143,5.41679 -1.42119,8.14085 -0.681889,3.44066 -1.147479,6.97963 -0.700439,10.48344 -1.5112,1.06992 -2.1664,2.52404 -2.43308,4.3128 l -7.255897,0.01 c 0.0679,-1.80298 1.00405,-2.51494 2.673057,-2.80272 1.47218,-0.25373 2.383989,-0.8381 2.412609,-2.48377 1.11725,-1.76317 1.854141,-3.55991 2.101001,-5.64269 0.24478,-2.06471 0.17843,-3.97082 -0.845931,-5.83504 0.25246,-1.77292 0.0953,-3.55577 -0.23663,-5.30663 -0.47277,-2.49303 -1.05825,-5.18416 -2.406529,-7.37406 -0.75049,-0.23358 -1.51281,-0.41073 -2.290627,-0.52553 0.272437,0.43761 0.496757,0.92444 0.627377,1.40393 -1.284327,-0.64225 -2.732687,-1.03907 -3.932277,-1.82729 0.0958,0.26924 0.19568,0.75352 0.27595,1.20375 -1.24708,-0.90398 -2.71399,-1.59163 -3.83188,-2.6526 0.01,0.41057 -0.13079,0.71308 -0.30043,1.06961 -0.94377,-1.87525 -2.70087,-3.18532 -3.37669,-5.20399 l -0.25981,0.6739 c -0.82226,-1.79674 -1.39272,-3.62866 -1.62134,-5.59329 l -0.46558,0.66447 c -0.40722,-2.38479 -0.50427,-4.74737 -0.10313,-7.13823 l -0.58468,0.4499 c 0.46206,-2.45674 0.84881,-5.03227 0.69868,-7.53873 -0.0577,-0.96505 -0.44559,-1.75677 -1.31535,-2.16016 z"
     id="_153070240"
     style="fill:#aa8800;fill-opacity:1;fill-rule:nonzero" /><path
     d="m -55.698294,47.949576 c 2.157281,0.006 3.318341,2.55939 3.245921,4.38444 -0.0913,2.29158 -0.79877,4.44854 -0.73322,6.75259 0.0241,0.85185 -0.14964,2.7303 0.73465,3.24592 0.12759,0.93131 0.12759,1.96062 0.997349,2.48024 0.2921,0.81923 0.65679,1.60377 1.06833,2.36833 0.0694,0.12903 0.20529,0.318 0.0932,-0.002 -0.68845,-1.96398 -0.94858,-3.76984 -0.87408,-5.85758 0.0571,-1.59962 0.39396,-3.16805 0.60084,-4.75056 l 3.2e-4,-0.002 c 0.19505,-1.49394 -0.0345,-3.02192 -0.32616,-4.48724 -0.479,-2.40605 -2.206049,-5.25131 -5.08567,-4.71634 0.0961,0.19314 0.18898,0.38787 0.27851,0.58404 z m -8.088399,-9.99419 c -0.008,0.01 -0.016,0.0202 -0.0233,0.0301 -0.33336,0.41649 -0.79126,0.7444 -1.29536,1.00597 l -6.4e-4,3.2e-4 c -3.255031,1.68835 -7.193241,1.99037 -10.77842,2.35921 0.0227,1.47475 0.0237,2.94966 0.01,4.42409 -0.0318,3.3631 -0.11911,6.72829 -0.41153,10.08021 l 0,8e-4 c -0.20178,2.31141 -0.56087,4.60443 -0.8664,6.90337 1.5598,-0.56903 2.848769,-1.51744 4.304969,-2.34307 1.926421,-1.09215 4.19049,-1.82697 6.413011,-1.36108 -0.241431,-1.50192 -0.419701,-3.01392 -0.681741,-4.53072 -0.34295,-1.98589 -0.89198,-4.09328 -2.065189,-5.75653 1.639419,1.2725 2.100369,3.72923 2.436749,5.67579 0.474851,2.74757 0.671991,5.4825 1.474911,8.16676 0.43168,1.44325 1.14811,2.98258 2.174239,4.10704 0.30297,0.3319 0.63713,0.56677 1.05505,0.73049 0.46302,1.56796 1.02292,3.10378 1.703221,4.59099 l 0,0 c 0.10216,0.21873 0.20289,0.42897 0.30218,0.63601 0.54311,1.13309 1.04466,2.17935 1.24883,3.47215 0.27084,1.71569 0.003,3.44146 -0.36804,5.11941 -0.41602,1.88116 -0.99799,3.73115 -1.990051,5.39473 0.28922,1.46515 -1.01861,2.10436 -2.21404,2.38734 -0.997179,0.54552 -1.409199,1.35948 -1.297279,2.4462 l 4.46613,-0.001 c 0.40946,-1.59163 1.2386,-3.01425 2.756519,-3.76698 -0.0128,-3.31434 0.49611,-6.64116 1.06257,-9.89683 0.0488,-0.27994 0.0975,-0.56006 0.14565,-0.84065 l 0,-4.8e-4 c 0.29131,-1.69906 0.62514,-3.40691 1.243241,-5.02204 -1.099661,-1.3713 -1.808101,-2.94821 -1.984931,-4.70659 -0.29434,-2.92376 0.34151,-6.11771 1.24644,-8.8811 -0.27132,-0.50715 -0.44607,-1.27058 -0.29242,-1.90531 0.14245,0.93611 0.37795,1.55629 0.75848,1.97821 0.484121,-1.54716 0.644321,-3.09306 0.603711,-4.71283 -0.0785,-3.11385 -1.367951,-6.04223 -3.050391,-8.60018 -0.290979,-0.4424 -0.582119,-0.88511 -0.849919,-1.32494 l 0,-1.6e-4 0,0 c -1.36187,-2.23658 -2.701681,-4.7835 -5.2358,-5.85822 z m -15.050291,25.23235 c 1.01029,-5.49865 1.09023,-11.03615 1.232841,-16.62737 0.0428,-1.67891 0.0561,-3.35878 0.036,-5.03818 -2.400311,0.20705 -4.85305,0.0966 -7.244241,-0.16069 -2.540509,-0.27323 -5.08087,-0.83793 -7.216729,-2.14608 -0.40098,-0.24558 -0.81252,-0.53928 -1.09455,-0.91549 -0.44399,0.34072 -0.94778,0.94635 -1.387772,1.54894 0.228782,-0.0833 0.482522,-0.0839 0.711312,-0.10089 -0.853292,0.34198 -1.155792,0.80965 -1.653022,1.49058 0.20913,-0.0656 0.41826,-0.0982 0.62738,-0.0975 -0.6173,0.38116 -0.96664,0.76935 -1.37163,1.45445 0.16277,-0.0588 0.32569,-0.0958 0.48845,-0.11048 -0.55112,0.49291 -0.9027,0.78197 -1.2068,1.45891 l 0.20673,-0.0748 c -0.0472,0.21696 -0.09,0.36869 -0.15061,0.58629 0.17764,-0.10457 0.35527,-0.17891 0.5329,-0.23935 -0.3105,0.40322 -0.5887,0.68653 -0.7038,1.17737 0.22718,-0.16197 0.45438,-0.27132 0.68141,-0.34502 -0.43936,0.47165 -0.76791,0.77271 -0.96473,1.3769 0.10665,-0.0649 0.33512,-0.21121 0.44175,-0.23791 -0.43023,0.42848 -0.64016,0.86656 -0.91515,1.35788 0.0924,-0.0416 0.27115,-0.0999 0.36372,-0.10313 -0.32983,0.2208 -0.63728,0.57349 -0.91723,0.83586 -0.17044,0.15957 -0.3599,0.28603 -0.57126,0.36885 -1.805545,0.70875 -2.935585,-1.68435 -3.296905,-3.00753 -0.50012,-1.83048 -0.58149,-3.78232 -0.79638,-5.66444 0.27691,0.52681 0.52026,1.08607 0.91852,1.53485 -0.12486,-1.37274 -0.24813,-2.66538 -0.57414,-4.01894 0.2766,0.45231 0.53049,0.95306 0.86305,1.36731 -0.10585,-1.44869 0.005,-2.90584 -0.12455,-4.35341 -0.23454,-2.63565 -0.73306,-4.96784 -2.75141,-6.80776 -0.34598,0.51914 -0.8157,0.97688 -1.40023,1.35883 l -0.49308,-0.006 c 1.42934,-0.8568 2.42429,-2.50167 2.1656,-4.30929 -1.41096,0.34822 -2.6,1.55837 -3.11002,3.04638 l -0.15604,-0.0257 0,-1.6e-4 1.6e-4,-4.8e-4 c 0.09,-0.54391 0.31465,-1.06673 0.62673,-1.53374 -0.76439,-0.27819 -1.57947,-0.40019 -2.39438,-0.36229 l -0.006,0 c -1.71329,0.0262 -3.18035,0.46397 -4.70147,1.23156 l -3.2e-4,0 0,0 c -0.60643,0.30602 -1.30287,0.51707 -2.00059,0.72842 l 0,8e-4 c -0.1682,0.051 -0.33335,0.10105 -0.35638,0.10809 l -0.002,7.9e-4 -3.2e-4,0 -1.6e-4,-1.6e-4 c -1.15723,0.35638 -2.58097,0.45598 -3.54234,1.23285 -0.29963,0.24206 -0.44111,0.48972 -0.42688,0.87711 0.16706,-0.0961 0.34198,-0.19266 0.51689,-0.27915 0.26092,-0.12887 0.57078,-0.30233 0.87024,-0.22239 0.24541,0.0655 0.2913,0.36596 -0.072,0.47021 -1.04419,0.30009 -1.90035,0.51178 -2.44747,1.54125 -0.47325,0.8907 -0.23278,1.77341 0.74888,2.0759 1.1203,-0.16707 2.11908,-1.08591 2.86333,-1.35531 l 0.3116,0.73145 c -1.06753,0.14486 -2.01675,0.47598 -2.80352,0.90973 0.36181,0.36357 0.67822,0.77239 0.95737,1.20199 0.61986,-0.49323 1.40792,-0.84114 2.20525,-0.86016 0.89837,-0.0216 1.89188,0.24862 2.78994,0.36613 0.89213,0.11688 1.75213,0.19105 2.62668,0.17251 1.09087,-0.023 2.21259,-0.18994 3.46159,-0.59828 l -0.60835,-0.46126 0.48652,-0.0449 8e-4,0 c 0.46078,-0.0427 0.91868,-0.16069 1.34476,-0.33911 -0.19281,-0.0449 -0.38195,-0.1084 -0.57158,-0.16468 l 0.36598,-0.22224 -1.6e-4,-3.2e-4 c 1.30112,-0.79588 2.17038,-2.20572 2.45034,-3.69901 0.005,1.56412 -0.6197,2.86156 -1.87093,3.7692 0.27323,0.0398 0.54999,0.0619 0.8245,0.0903 -0.6464,0.38931 -1.30207,0.73322 -2.05047,0.87791 l 0.4224,0.3204 c -1.39001,0.49355 -2.76627,0.82003 -4.24805,0.85137 -0.55127,0.0112 -1.09326,-0.0128 -1.63862,-0.0592 0.56582,0.5169 0.82132,1.25923 0.86864,2.05033 0.13446,2.24713 -0.17219,4.50146 -0.57333,6.70767 l 0.6181,-0.41474 c -0.44528,2.3298 -0.55943,4.62649 -0.21137,6.97627 l 0.52138,-0.74424 c 0.17459,1.96334 0.54327,3.84819 1.31501,5.66732 l 0.35063,-0.90957 c 0.5324,2.65947 2.06758,3.57112 3.23232,5.49145 0.0227,-0.44894 -0.11895,-0.92604 -0.20593,-1.36395 1.10846,1.30655 2.47193,2.10069 3.86754,3.02624 -0.1666,-0.46046 -0.31929,-0.92108 -0.45918,-1.39049 1.21638,0.98151 2.55251,1.48578 3.95163,2.10164 -0.29307,-0.62945 -0.50843,-0.88989 -0.96857,-1.39737 1.04212,0.31386 2.107715,0.51467 3.178765,0.81668 2.85996,0.80661 5.410072,2.14082 7.209381,4.57405 -0.804049,-2.91591 -1.353079,-7.41626 0.93659,-9.98284 -1.726409,2.62461 -1.46628,7.27893 -0.47598,10.21563 0.19266,0.52282 0.41586,1.0234 0.66735,1.49058 l 0,1.6e-4 c 1.201841,2.01594 1.793401,4.20424 1.726571,6.55338 1.68402,1.57851 1.44181,4.24934 1.26402,6.33179 -0.19874,2.32548 -0.48348,5.22797 -2.443791,6.79752 0.253891,1.10207 -0.2443,1.79452 -1.39848,1.80012 -1.242119,0.006 -2.104369,0.60275 -2.178389,1.81369 l 1.186959,-0.003 c 0.2662,-0.83746 0.81284,-1.31758 1.68787,-1.58171 -0.58373,0.44736 -0.97096,0.87312 -1.20902,1.58011 l 4.397541,-0.0144 c 0.33654,-1.4279 1.172089,-2.59168 2.366719,-3.42994 -0.43727,-1.66468 -0.50474,-3.401 -0.34566,-5.10901 0.21823,-2.34291 0.46781,-4.65879 0.31608,-7.01176 -0.0361,-0.56231 -0.0648,-1.12686 -0.0849,-1.69779 -0.02,-0.56262 -0.0312,-1.12812 -0.0331,-1.70034 -0.0144,-4.10224 0.0536,-8.05611 -0.52169,-12.13309 -0.27979,-1.98205 -0.80165,-4.20217 -1.617359,-6.04752 1.240359,1.67716 1.710249,3.98681 1.993719,5.9954 0.13158,0.93291 0.22959,1.85942 0.30297,2.78273 2.274481,0.38325 3.986971,0.45791 5.46508,0.23264 z m 14.602611,26.04982 c -1.12796,0.29162 -2.238331,0.90381 -2.250961,2.25801 l 1.447571,-4.8e-4 c -0.0899,-0.93723 0.16611,-1.6842 0.80339,-2.25753 z m -6.86674,-29.25065 c -0.20721,2.08885 0.18498,3.74266 0.90221,5.70025 l 0,1.6e-4 c 0.25676,0.70076 0.53752,1.41128 0.81235,2.1066 0.855369,2.16432 1.719049,4.35661 2.212289,6.63669 0.950491,4.39274 -1.66693,9.44164 -4.854969,12.28881 0.0163,1.35164 -1.110061,2.28375 -2.309011,2.6502 -0.765669,0.43008 -1.011729,1.20391 -0.973839,2.02746 l 5.15458,0 c 0.32792,-1.79676 1.371149,-3.17557 3.030239,-3.95499 0.777031,-4.82987 2.471131,-9.49249 4.51154,-13.92729 -1.468359,-1.47251 -1.332769,-5.18511 -1.226289,-7.10337 -0.81972,-1.08767 -1.4132,-2.4238 -1.79259,-3.6923 -0.32281,-1.07969 -0.5484,-2.16688 -0.73354,-3.25967 -1.601381,-0.37637 -3.23168,-0.0809 -4.73297,0.52745 z m -4.00728,29.57344 c -0.88894,0.25006 -1.64645,0.74537 -1.48578,1.83673 l 0.9027,0 c -0.0278,-0.72347 0.15796,-1.37131 0.58308,-1.83673 z m -15.001201,-21.45626 c -1.809379,-3.04126 -4.164279,-4.67861 -7.226971,-5.72424 1.21814,2.15761 1.78012,4.72722 2.23499,7.12672 0.33063,1.744 0.49931,3.53723 0.25724,5.30471 1.021812,1.89044 1.077292,3.8653 0.829952,5.95144 -0.24878,2.09812 -0.979432,3.93436 -2.101972,5.71384 -0.051,1.77148 -1.13499,2.46873 -2.72566,2.74293 -1.237955,0.21344 -2.198995,0.68605 -2.336815,2.04792 l 0.93579,-10e-4 c 0.245245,-1.11341 1.027865,-1.91665 2.251605,-1.91665 -0.81125,0.17267 -1.48866,0.87278 -1.75854,1.91602 l 5.10022,-0.008 c 0.27212,-1.6487 0.984402,-3.1025 2.355212,-4.1104 -0.42096,-3.46128 0.0584,-6.98298 0.731459,-10.37967 0.5719,-2.88505 1.29344,-5.71192 1.45349,-8.66414 z m 11.71468,-39.90163 c -0.11192,-0.88719 -0.25582,-1.73136 -0.45422,-2.48505 -1.0063,-0.20784 -1.691079,-0.86575 -2.611989,-1.27537 -0.978,-0.43504 -2.168311,-0.34614 -2.811201,0.59636 -0.35189,0.51562 -0.49835,1.16042 -0.30984,1.76254 0.12629,0.40337 0.91259,0.6141 1.271211,0.71851 1.36875,0.39842 3.375259,0.67086 4.916039,0.68301 z m 0.33863,3.74442 c -0.0833,-1.12236 -0.16404,-2.24586 -0.29291,-3.36439 -1.89363,0.002 -4.091529,-0.23407 -5.84383,-0.96631 -0.20864,-0.0873 -0.38834,-0.17955 -0.53176,-0.27612 -0.62993,-0.002 -1.12844,0.48379 -1.410319,1.00469 -0.0457,0.0843 -0.0852,0.16899 -0.11863,0.25117 l -1.6e-4,-1.6e-4 -3.2e-4,4.8e-4 0,8e-4 c -0.2379,0.58773 -0.27291,1.47923 0.16596,2.00348 2.432909,1.19048 5.35539,1.40008 8.031969,1.34636 z m 0.30377,4.18698 c -0.0539,-0.93818 -0.11943,-1.87589 -0.19746,-2.81263 l -1.6e-4,-0.002 c -0.0264,-0.31561 -0.0521,-0.65056 -0.0779,-0.99367 -2.638999,0.054 -5.46859,-0.14948 -7.9047,-1.23349 -0.9003,-0.4005 -1.71714,-0.33351 -2.52677,0.37957 -0.6357,0.56006 -1.07601,1.6092 -0.61715,2.37152 0.106,0.17603 0.25165,0.30345 0.41522,0.4256 0.53496,0.39971 1.23396,0.6464 1.84199,0.8381 2.47464,0.78086 6.226101,1.11437 9.06688,1.02676 z m 0.179231,5.00813 c -0.0232,-1.54398 -0.075,-3.08732 -0.15812,-4.62905 -2.87804,0.0897 -6.686731,-0.2491 -9.20263,-1.04275 -0.65503,-0.20672 -1.38537,-0.47261 -1.95695,-0.89933 -0.145331,-0.1084 -0.245091,-0.18994 -0.416011,-0.26749 -0.83938,-0.38067 -1.88468,0.0496 -2.572169,0.56822 -0.11847,0.0894 -0.2224,0.17907 -0.3081,0.26429 l 3.2e-4,4.8e-4 0,0 -8e-4,0 c -0.55318,0.55079 -1.01668,1.52191 -0.89868,2.32227 0.0983,0.66751 0.71898,1.10415 1.25507,1.43254 2.095239,1.28321 4.59291,1.83193 7.088339,2.09717 2.367211,0.25166 4.79388,0.36021 7.169731,0.15365 z m 0.33958,-15.53521 c 0.1754,0.8325 0.31737,1.67188 0.43633,2.51414 1.47058,-0.14869 3.018559,-0.45407 4.342219,-1.09648 0.695801,-0.33766 0.586441,-1.34124 0.2491,-1.88963 l 0,-1.6e-4 0,0 c -0.49532,-0.80516 -1.54702,-0.94922 -2.37553,-0.71643 -0.937859,0.26348 -1.736629,0.86784 -2.652119,1.18856 z m 0.48797,2.89018 c 0.14884,1.11549 0.26044,2.23626 0.35989,3.35735 1.868049,-0.17907 3.700929,-0.61986 5.4542,-1.28417 0.23374,-0.0886 0.44527,-0.13718 0.61091,-0.3308 0.37348,-0.43711 0.43407,-1.08111 0.29338,-1.62631 -0.023,-0.0892 -0.0516,-0.17331 -0.0841,-0.24974 l -3.2e-4,-8e-4 c -0.3423,-0.80227 -1.28673,-1.18743 -2.107871,-1.02835 l -3.2e-4,1.6e-4 -0.01,0.002 c -1.37834,0.67598 -2.979549,1.00421 -4.515849,1.1609 z m 0.39315,3.73658 c 0.0313,0.3623 0.0617,0.72459 0.0919,1.08673 0.0753,0.9022 0.13798,1.80522 0.18962,2.70887 2.841089,-0.25741 5.62239,-0.94235 8.161469,-2.25705 0.21488,-0.11128 0.28875,-0.14054 0.38707,-0.36501 0.22767,-0.51946 0.23055,-1.09024 -0.032,-1.61145 -0.46605,-0.92555 -1.533259,-1.38825 -2.526439,-1.1246 -0.26172,0.0694 -0.50107,0.17299 -0.75481,0.26859 -1.773881,0.66863 -3.628181,1.11311 -5.51686,1.29392 z m 0.30249,4.1758 c 0.0815,1.51887 0.13222,3.0395 0.1594,4.56046 3.525389,-0.36197 7.412109,-0.65664 10.6107,-2.31572 l 6.4e-4,-3.2e-4 c 0.46062,-0.23903 0.87616,-0.53529 1.17337,-0.90622 0.868799,-1.08527 0.39491,-2.40733 -0.59444,-3.23312 -0.74361,-0.62082 -1.51152,-0.80485 -2.456261,-0.6205 -0.26652,0.052 -0.37572,0.1116 -0.61874,0.23663 -2.575689,1.32573 -5.39488,2.01929 -8.274669,2.27879 z m -28.424057,-9.04402 c 0.2507,0.22447 0.47932,0.45614 0.68829,0.69436 -0.11943,-0.35574 -0.32184,-0.68685 -0.54711,-0.98135 -0.0433,0.0974 -0.0903,0.19298 -0.14118,0.28699 z m -7.11792,-2.45866 c 0.27804,-0.0464 0.56134,-0.0743 0.84945,-0.0859 l 0.0144,0.3794 c -0.92108,0.0366 -1.82345,0.26365 -2.61773,0.73945 l 0.27515,0.26029 c 1.15115,-0.44543 2.31891,-0.69484 3.61891,-0.71531 l 0,0 c 0.90125,-0.0421 1.80298,0.10073 2.64364,0.42304 0.16851,-0.21104 0.35493,-0.40721 0.55383,-0.58468 -1.16026,-0.79893 -2.54212,-1.16873 -3.93468,-1.2653 l 0.40193,0.47388 c -0.68973,-0.016 -1.37802,-0.0267 -2.0671,0.0211 l 0.26173,0.35398 z"
     id="_153069952"
     style="fill:#ffcc00;fill-opacity:1;fill-rule:nonzero" /><path
     d="m -55.888544,47.543486 c 1.764451,-0.23199 3.454231,0.60499 4.33007,3.59429 0.39986,1.36475 0.71211,3.00882 0.63185,4.33631 -0.17364,2.86875 -1.01764,5.16753 -0.51258,8.17426 -0.652319,-0.94377 -0.895499,-2.73445 -0.704919,-4.91012 -0.26732,0.60771 -0.34839,0.89118 -0.5105,1.57995 -0.22703,-1.7304 0.0851,-3.53498 0.34886,-5.33908 0.2152,-1.47219 0.382429,-2.66075 -0.0285,-4.1024 -0.64432,-2.26041 -1.83656,-3.16278 -3.429781,-3.07132 -0.0408,-0.0876 -0.0823,-0.17492 -0.12454,-0.26189 z m -20.885329,-20.09072 c 0.6747,-0.0724 1.36155,-0.18482 2.05575,-0.33783 1.043869,-0.23022 2.68393,-1.10574 1.541739,-2.32659 -0.32631,-0.34871 -0.98742,-0.35575 -1.798019,-0.23887 -0.66016,0.25406 -1.26531,0.64256 -1.91554,0.92236 0.0264,0.66031 0.0651,1.32062 0.11607,1.98093 z m -7.875441,-1.44837 c 0.20592,0.37652 0.83761,0.55783 1.20886,0.703 1.423271,0.55687 3.069561,0.84562 4.83993,0.84498 -0.0929,-0.61874 -0.2064,-1.23253 -0.34262,-1.85559 -0.95594,-0.22799 -1.626479,-0.85792 -2.518779,-1.25475 -0.978,-0.43504 -2.168311,-0.34614 -2.811201,0.59636 -0.19873,0.29114 -0.33191,0.62337 -0.37619,0.966 z m -0.0438,1.35708 c -0.45104,0.21984 -0.86944,0.39634 -1.05651,0.75816 -0.684129,1.3227 0.64912,1.84103 1.6914,2.11475 1.922571,0.50475 3.86561,0.74457 5.83104,0.70907 -0.0672,-0.78821 -0.14518,-1.57563 -0.23743,-2.36113 -1.867259,-0.008 -4.012229,-0.24862 -5.7292,-0.96615 -0.1933,-0.0809 -0.36164,-0.16596 -0.4993,-0.2547 z m 8.448461,3.45312 c 1.50064,-0.16739 3.014559,-0.495 4.54239,-0.98743 0.75177,-0.24238 1.12844,-0.73562 1.0437,-1.22341 -0.17059,-0.98136 -0.91291,-1.21094 -1.776761,-1.17049 -1.15514,0.53 -2.452579,0.82899 -3.730349,0.99621 -0.13366,0.7951 -0.12023,1.59003 -0.079,2.38512 z m 0.32519,3.93581 c 1.809069,-0.19042 3.620359,-0.55975 5.4347,-1.12893 0.76407,-0.23982 2.329469,-0.45518 2.375349,-1.48114 0.0333,-0.74265 -0.80659,-1.49265 -2.099869,-1.43238 -0.21329,0.0665 -0.41538,0.15173 -0.62723,0.23166 -1.653651,0.62338 -3.377491,1.05187 -5.13379,1.25363 -0.0337,0.83315 0.003,1.67877 0.0508,2.55716 z m -10.87514,-3.89504 c -0.91484,0.20992 -1.53359,0.91884 -1.5168,1.64502 0.0262,1.1366 1.0968,1.30144 1.95519,1.50337 2.791379,0.65631 5.58755,0.97735 8.389309,0.88702 -0.0435,-0.85392 -0.0931,-1.70881 -0.15316,-2.56322 -2.612949,0.0475 -5.40544,-0.16371 -7.81341,-1.23525 -0.295149,-0.13126 -0.581169,-0.21248 -0.861129,-0.23694 z m 11.16949,5.94535 c 2.627009,-0.29881 5.28169,-1.00661 7.970099,-2.21563 0.85344,-0.38388 2.305481,-0.4798 2.770731,0.5583 0.24095,0.53736 0.45072,1.62168 -0.40097,2.03434 -2.368331,1.14715 -6.71343,2.21947 -10.32803,2.58113 -0.002,-0.98424 0.003,-1.97166 -0.0112,-2.95814 z m -2.10628,3.09372 c -3.28941,0.10488 -7.161261,-0.19138 -10.23514,-1.01446 -0.91373,-0.24461 -3.025921,-0.76727 -3.7425,-1.44661 -1.30352,-1.23604 0.479639,-2.71478 2.188449,-2.49846 0.522171,0.0662 0.991271,0.3471 1.619601,0.59443 3.024959,1.19017 6.81863,1.54302 10.037519,1.43254 0.0539,0.97784 0.0977,1.95536 0.132071,2.93256 z m 10.700709,17.51214 c -0.24862,-2.52932 -0.55734,-5.33189 -1.60761,-7.75841 -0.16468,-0.3041 -0.34518,-0.59812 -0.543759,-0.87951 0.184989,0.14341 0.354619,0.30218 0.511139,0.4734 0.66943,0.58053 1.27794,1.71442 1.81002,3.12698 0.797651,2.11714 1.068171,4.24836 1.484501,6.45553 0.55431,2.93894 1.34589,5.81825 3.092269,7.41019 0.60851,0.55446 0.73498,0.64096 0.94314,1.4506 0.626741,2.43819 1.576281,4.58509 2.635491,6.55962 1.341569,2.50119 0.30601,8.4336 -1.92145,13.08487 -0.590611,1.23349 -1.585871,1.67699 -2.323891,1.92609 -0.988059,0.33335 -1.338529,1.3219 -1.320779,2.0556 l 3.9203,0 c 0.31673,-1.66789 1.06178,-2.98803 2.60239,-3.72109 0.617299,-5.39599 0.695799,-10.04471 2.216759,-15.24949 -2.862679,-3.46032 -2.538599,-8.88542 -0.95546,-15.02295 1.31672,-4.21968 0.68952,-9.13041 -1.970399,-12.18854 -1.15777,-2.36537 -2.982081,-4.42246 -4.721161,-5.9784 -3.231849,1.84135 -8.404119,3.1192 -12.314829,3.50707 0.0624,5.80083 -0.0684,11.85362 -0.86,18.53284 2.690639,-1.42887 4.36796,-3.84675 9.323329,-3.7844 z m -11.5951,4.54735 c 0.68366,-4.29362 0.84674,-8.6117 0.960101,-12.96095 l -1.6e-4,0.006 c 0.0384,-2.05736 0.044,-4.11599 0.01,-6.17607 -5.43038,0.30618 -11.574621,-0.12823 -15.93492,-3.02208 -0.43295,0.38611 -0.81858,0.7612 -1.03267,1.09711 l 0.28571,0.0211 c -0.440961,0.34823 -0.816511,0.79414 -1.095351,1.24644 0.0998,-0.0286 0.19953,-0.0368 0.2993,-0.0243 -0.38276,0.36933 -1.07393,1.16809 -1.23316,1.71058 0.18769,-0.0959 0.37539,-0.16469 0.56326,-0.20594 l -0.43888,1.09727 0.31145,-0.087 c -0.22016,0.39316 -0.67054,1.21063 -0.85489,1.66246 -0.566939,1.38985 -1.184879,3.4651 -3.173329,3.17332 -2.997447,-0.43967 -3.719637,-3.54601 -3.977527,-7.31858 l 0.4392,0.21169 c -0.24494,-2.04649 0.17059,-4.27764 -0.59604,-5.95159 0.43616,0.14725 0.73817,0.39522 0.97927,0.68877 0.59044,-3.56569 0.005,-6.96828 -1.81241,-9.08415 -0.31082,0.38019 -0.69485,0.72171 -1.14763,1.01748 l -0.49308,-0.006 0.0128,-0.008 -0.0182,0.008 -0.0793,-0.0481 c 1.27346,-0.86783 2.3605,-2.21579 2.14353,-4.04547 -1.42982,0.37827 -2.21755,1.41894 -2.90296,2.56497 -0.0355,0.0876 -0.0687,0.17619 -0.0996,0.26588 l -0.15604,-0.0257 0,-1.6e-4 1.6e-4,-4.8e-4 c 0.0763,-0.4611 0.24941,-0.90716 0.49067,-1.31694 -2.33954,-0.44095 -4.47204,-0.24542 -6.3871,0.71419 -1.16313,0.58261 -3.02799,0.98743 -5.22189,1.5993 -1.02579,0.28602 -1.52079,0.75064 -1.54414,1.20678 0.12327,-0.0689 0.24942,-0.1367 0.37573,-0.19905 0.26092,-0.12887 0.57078,-0.30233 0.87024,-0.22239 0.24541,0.0655 0.2913,0.36596 -0.072,0.47021 -0.31017,0.0892 -0.60371,0.17059 -0.87743,0.26779 -0.48028,0.34247 -0.9764,0.84338 -1.23812,1.34764 -0.58133,1.1203 -0.18275,1.77374 1.19607,1.56013 0.71307,-0.11048 1.64199,-0.79333 2.29159,-1.13627 0.16706,0.37891 0.33398,0.758 0.50106,1.13691 -1.01445,0.24686 -1.95151,0.59988 -2.70903,1.00086 0.15413,0.19921 0.3084,0.39827 0.46253,0.59732 0.93371,-0.78678 2.15793,-0.87839 3.46032,-0.69261 2.23866,0.31928 4.12879,0.29658 5.83055,-0.19266 2.55507,-0.73449 4.56734,-2.81439 5.30679,-5.54933 l -0.0777,1.0872 c 0.0128,-0.0576 0.0245,-0.11543 0.0353,-0.17331 0.005,1.56412 -0.6197,2.86156 -1.87093,3.7692 0.27323,0.0398 0.54999,0.0619 0.8245,0.0903 -0.6464,0.38931 -1.30207,0.73322 -2.05047,0.87791 l 0.4224,0.3204 c -1.39001,0.49355 -2.76627,0.82003 -4.24805,0.85137 -0.35429,0.008 -0.70474,4.8e-4 -1.05473,-0.0181 1.13116,1.17801 0.81508,4.50387 0.12423,8.38563 0.26971,-0.13238 0.53944,-0.26477 0.80932,-0.39698 -0.67806,1.9699 -0.89134,3.96442 -0.42513,5.99539 l 0.89934,-0.98791 c 0.0563,1.8994 0.14197,3.77209 1.13147,5.51608 0.2104,-0.37509 0.42081,-0.75016 0.63121,-1.12525 0.0436,2.10724 0.68461,3.78663 1.83864,5.13188 0.0457,-0.34758 0.0915,-0.69517 0.13718,-1.04275 0.58084,1.39049 1.85222,2.78098 3.70494,3.43042 -0.0457,-0.22879 -0.0916,-0.45743 -0.13734,-0.68621 1.64693,0.8624 4.16219,1.39065 6.884647,1.83928 1.895239,0.31208 3.8637,1.1481 5.32934,2.40589 -0.1698,-2.47161 0.20257,-4.69188 1.517269,-6.47568 0.17443,-0.29098 0.37412,-0.56646 0.6026,-0.82243 -0.24207,0.36789 -0.44512,0.7759 -0.61251,1.21335 -0.35254,2.20348 -0.35542,5.24075 0.39139,7.55344 1.126361,3.48718 2.915601,5.27561 2.603991,9.3892 1.725439,2.06439 1.17001,5.08423 0.8899,8.01486 -0.25789,2.6972 -0.79045,4.22519 -2.17695,5.35571 0.0253,1.13084 -0.628971,1.79259 -1.610641,1.82185 -1.186009,0.0353 -1.887089,0.34967 -2.101319,1.35404 l 1.076949,0 c 0.36406,-0.9086 1.53615,-1.45013 2.507741,-1.59434 -0.720901,0.39315 -1.281291,0.88111 -1.620871,1.59434 l 3.660801,0 c 0.2547,-1.12924 0.84578,-2.19325 2.149769,-3.2133 -0.45422,-2.48504 -0.008,-5.14259 0.0237,-7.63802 0.027,-2.0807 0.062,-4.1841 0.0729,-6.27312 0.0384,-7.34511 -0.22064,-14.51324 -2.171989,-19.89325 0.0878,0.0614 0.17092,0.13989 0.25006,0.23231 -0.01,-0.0214 -0.0187,-0.043 -0.0281,-0.0643 1.240359,1.67716 1.710249,3.98681 1.993719,5.9954 0.0683,0.48476 0.12774,0.96776 0.17922,1.44948 1.628401,0.3663 3.932931,0.61475 5.80034,0.33144 z m 14.391101,27.28427 c -0.27547,0.0711 -0.54983,0.16148 -0.80739,0.27707 -0.6544,0.45103 -0.90381,1.12333 -1.03668,1.79627 l 1.02741,0 c -0.0409,-0.85137 0.22175,-1.53806 0.81666,-2.07334 z m -10.60861,2.01658 4.21032,0 c 0.32504,-1.41671 1.25443,-2.76883 3.230239,-3.96378 0.82499,-4.84042 2.505181,-9.54621 4.44263,-13.80609 -1.031229,-1.26243 -1.207899,-4.05093 -1.363469,-6.99706 -1.39688,-2.15025 -2.01626,-4.42024 -2.430201,-6.72174 -0.68813,-0.11927 -1.59673,-0.0401 -2.578569,0.10504 -1.00677,1.36731 -0.99749,2.82224 -0.47085,4.29618 0.936579,2.62125 1.958229,5.09495 2.730619,7.77759 1.173531,4.07635 0.47181,7.9984 -1.54622,11.27741 -0.852809,1.38554 -2.145449,3.0814 -3.221129,3.77544 -0.270041,1.18857 -0.802131,1.92689 -1.543181,2.29974 -0.90444,0.45534 -1.349719,1.10734 -1.460189,1.95727 z m -0.26541,-1.69379 c -0.0735,0.0206 -0.14613,0.043 -0.21744,0.0673 -0.87774,0.36965 -0.99861,1.00374 -1.1358,1.62648 l 0.76744,0 c 6.4e-4,-0.66574 0.18898,-1.25922 0.5858,-1.69379 z m -25.716147,1.44741 c 0.2216,-1.22645 1.102067,-1.57179 3.092437,-1.91282 1.174169,-0.20113 2.062469,-1.23141 1.777079,-2.46105 2.293821,-2.82048 3.361031,-9.24931 1.544621,-11.8904 0.12166,-3.49356 -0.411861,-7.06436 -1.105751,-10.65386 2.064391,1.3972 3.899031,2.41053 4.53312,4.4228 0.33208,1.0541 0.15972,2.73286 -0.10455,4.12958 -0.898699,4.74976 -2.074469,10.06982 -1.652379,14.58456 -1.21031,1.12188 -1.92482,2.34577 -2.214691,3.78119 l -4.358689,0 c 0.1706,-0.8472 1.27106,-1.6423 1.89908,-1.72288 -1.25267,-0.0301 -2.36129,0.36804 -2.760517,1.72288 z m -10.76754,-66.1011 c 0.27804,-0.0464 0.56134,-0.0744 0.84945,-0.0859 l 0.0144,0.3794 c -0.92108,0.0366 -1.82345,0.26365 -2.61773,0.73945 l 0.14148,0.13382 c 2.07174,-1.01557 4.69444,-1.06768 6.47441,-0.26125 0.0849,-0.10072 0.17362,-0.19776 0.26603,-0.2905 -1.11549,-0.69212 -2.27878,-1.15371 -3.5233,-1.22613 l 0.20016,0.23598 c -0.68973,-0.016 -1.37802,-0.0267 -2.0671,0.0211 l 0.26173,0.35398 z"
     id="_153069736"
     style="fill:#ffff00;fill-opacity:1" /><path
     d="m -72.402714,42.139486 c 2.808321,0.35398 4.38075,2.15632 5.52806,4.57485 l -0.29785,0.0429 -0.01,10e-4 c -0.20673,0.0294 -0.41601,0.0443 -0.62497,0.0438 0.96855,1.14763 1.591611,2.40878 1.956311,3.85986 l -0.639051,-0.0144 c 1.116131,1.68932 0.907801,3.16854 0.701881,4.37676 0.0112,-1.30288 0.0796,-2.82158 -1.577241,-4.83817 l 0.936921,0.02 c -0.450081,-1.54461 -1.350681,-2.7231 -2.432131,-3.88783 0.45583,0.0592 0.85681,0.0617 1.31854,0.0312 l 1.6e-4,0 c -1.26306,-2.50262 -2.588159,-3.2045 -4.86071,-4.21112 z m 7.779841,-3.43026 c 1.06528,0.70172 1.848059,1.65206 2.496059,2.75492 l -0.80628,0 c 2.0281,1.34604 2.709671,3.51628 2.968371,6.34506 -0.71915,-2.4342 -0.943311,-5.29607 -4.82252,-6.78937 l 1.869819,0 c -0.552069,-0.80788 -1.290569,-1.5419 -2.133129,-2.05704 0.1474,-0.0785 0.29065,-0.16292 0.42768,-0.25357 z m 8.254359,18.39821 c -0.37908,-0.30505 -0.76584,-0.6018 -1.11613,-0.94042 0.24798,0.77783 0.38275,1.5534 0.4523,2.36369 -0.32759,-0.10025 -0.65488,-0.19698 -0.965519,-0.34406 0.24525,1.95982 -0.10776,3.87424 -0.28635,5.81712 l 0,8e-4 c -0.0216,0.23454 -0.0313,0.47277 -0.0299,0.71324 0.01,1.45523 0.24286,3.18052 0.953859,4.63447 -0.941389,-1.40167 -1.386019,-2.94309 -1.396249,-4.63271 -0.002,-0.25454 0.008,-0.50652 0.0315,-0.75481 l 0,-8e-4 c 0.20497,-2.22859 0.51337,-4.37852 0.14949,-6.62421 0.33718,0.20801 0.66431,0.41665 1.035389,0.56038 -0.16724,-1.2645 -0.656959,-2.42652 -1.132759,-3.59973 0.55415,0.6568 0.960879,1.01157 1.576419,1.61113 -0.32871,-1.70098 -0.16387,-3.55065 -0.32791,-5.27242 -0.24046,-2.52261 -1.061289,-4.97663 -3.142629,-6.60519 2.56914,1.21894 3.355759,3.88401 3.586619,6.54252 0.19634,2.26264 -0.091,4.31185 0.61187,6.531 z m -48.379826,-26.88408 c 0.10855,1.30894 0.017,2.33299 -0.62915,3.48925 0.3428,-0.0163 0.68558,-0.0326 1.02837,-0.0489 -0.47613,0.55239 -0.95226,1.09152 -1.42839,1.5363 0.57398,0 1.14795,0 1.72193,0 -2.36929,1.03827 -2.53956,3.09435 -3.12633,5.13284 -0.0308,-1.33997 0.24606,-3.64418 1.52767,-4.72674 -0.35142,0 -0.70284,0 -1.05425,0 0.4822,-0.52697 0.95753,-1.01716 1.38584,-1.49057 -0.26363,0.0128 -0.52744,0.0251 -0.79108,0.0377 0.81603,-1.22213 1.19207,-2.51525 1.36539,-3.92988 z m -6.17127,5.01469 c 0.80516,0.92666 1.33133,2.53891 1.05105,4.15819 0.31945,-0.40258 0.63889,-0.76583 0.95818,-1.11102 -0.44927,1.51329 -0.93292,3.01905 -1.03156,4.60475 0.44511,-0.2881 0.89038,-0.57621 1.33549,-0.86416 -0.81779,1.98013 -1.16314,3.87025 -1.25108,5.99348 0.32425,-0.21104 0.64864,-0.42224 0.97289,-0.63345 -0.22128,1.48402 -0.16052,3.62084 -0.0895,4.91045 -0.44223,-1.02645 -0.51417,-3.48798 -0.46605,-4.02022 -0.2969,0.1933 -0.5938,0.38674 -0.89086,0.58004 0.0675,-1.92769 0.16788,-3.86465 0.80357,-5.70696 -0.29467,0.19073 -0.54632,0.40305 -0.84098,0.59379 0.0273,-1.23412 0.14453,-2.43132 0.46413,-3.62675 -0.32024,0.37125 -0.4611,0.62753 -0.78133,0.99894 0.67709,-2.26696 0.57125,-3.68112 -0.23391,-5.87708 z m 12.863897,15.52401 c -1.90403,1.90403 -1.80666,3.77512 -0.65375,6.50734 -0.88942,2.12531 1.539339,3.85922 3.269889,4.92115 0.72059,0.44224 1.487061,1.00934 1.954881,1.58251 -0.77991,-0.53272 -1.621681,-0.97127 -2.509341,-1.33629 -1.820729,-1.16297 -4.093286,-2.97411 -3.263349,-5.16625 -1.043057,-2.16848 -1.337087,-5.239 1.20167,-6.50846 z m 4.11919,11.64625 c -2.268881,-0.80404 -3.92413,-3.49421 -3.97066,-5.8595 -0.0128,-0.65727 0.41393,-1.40951 1.157539,-1.24883 -0.25468,-0.81972 -0.699639,-3.88704 0.97065,-3.61971 -0.0214,-2.07847 0.52937,-3.86018 2.274151,-5.11558 l 0.33799,0.78294 c 0.62594,-1.71681 2.098929,-3.91406 4.084009,-4.20216 1.965911,-0.28555 2.858851,1.52302 3.085881,3.17397 -0.64976,-1.22598 -1.24931,-2.92856 -3.01457,-2.67227 -2.382231,0.34598 -3.52075,3.18932 -4.06482,5.19008 l -0.63953,-1.48163 c -1.499051,1.27586 -1.603611,3.29069 -1.531031,5.09351 -2.191499,-1.09583 -0.91836,3.13736 -0.69516,3.98489 -0.43855,-0.83522 -1.482749,-1.08592 -1.459399,0.10488 0.0508,2.58608 1.766379,4.69764 3.46495,5.86941 z m 9.402159,-1.70337 c 1.759181,0.0657 3.047021,-0.652 4.3718,-1.79324 -0.0915,0.46654 -0.175229,0.93307 -0.310969,1.38937 0.722499,-0.52649 1.480179,-1.00709 2.256729,-1.4498 -0.0189,0.17634 -0.0384,0.35286 -0.0587,0.52921 -1.12492,0.66367 -2.078779,1.38905 -3.133199,2.17982 0.19297,-0.49435 0.39795,-0.98503 0.542,-1.49665 -1.06816,0.7588 -2.31141,1.12061 -3.613011,1.08655 -0.0174,-0.14821 -0.0356,-0.29673 -0.0547,-0.44526 z m 8.026851,-2.75604 c 0.78422,-0.37412 1.58379,-0.70796 2.396149,-1.0186 0.0326,0.33063 0.0443,0.60083 -0.0875,0.92139 2.129141,-1.47475 5.026201,-2.24281 7.27684,-0.5962 -3.605479,-1.46995 -6.48303,0.43679 -9.178149,2.7076 0.50603,-0.7297 1.25571,-1.56173 1.528299,-2.37872 -0.677409,0.27068 -1.345559,0.56646 -2.000439,0.88814 0.0221,-0.17444 0.0436,-0.34902 0.0648,-0.52361 z m -7.782721,-7.55376 c 1.388741,3.00353 0.85665,6.54539 -0.33654,9.6311 -0.0492,-0.33975 -0.10409,-0.68733 -0.1674,-1.03844 1.08176,-2.87162 1.14619,-5.6064 0.50394,-8.59266 z m -22.926526,-22.52108 c 0.44128,-1.01828 1.04803,-1.80075 2.06823,-2.266 0.15509,1.5363 -0.64017,2.69448 -1.97758,3.22129 l 0.10888,-0.26748 c 0.93835,-0.54679 1.57916,-1.37642 1.58555,-2.46537 -0.71579,0.40817 -1.2896,1.11277 -1.60985,1.85174 l -0.17523,-0.0742 z m -6.07868,5.81249 c -0.0769,-0.12615 -0.15397,-0.25245 -0.23087,-0.37875 0.89086,0.0947 1.77068,0.14005 2.66313,0.0324 -0.21984,-0.20849 -0.43966,-0.41714 -0.65966,-0.62577 0.73145,0.0539 1.45955,0.12086 2.18478,-0.0576 -0.24974,-0.13079 -0.49964,-0.30314 -0.74937,-0.49419 1.30096,-0.14134 2.3138,-0.59669 3.2344,-1.4156 -0.65999,0.90637 -1.29935,1.37355 -2.38416,1.59785 0.21729,0.17732 0.43473,0.31306 0.652,0.43009 -0.6966,0.2857 -1.36923,0.40018 -2.09524,0.30233 0.16883,0.16005 0.33751,0.32025 0.50634,0.48028 -0.91932,0.20146 -1.82311,0.20322 -2.75091,0.12839 0.0609,0.0999 0.12199,0.20002 0.18291,0.29994 -0.91469,0.0365 -1.87637,-0.0112 -2.65196,-0.40738 0.65232,0.094 1.43446,0.15621 2.09861,0.10792 z m 21.124647,41.67488 c -0.63729,0.1399 -1.39113,0.0336 -1.9643,-0.3877 0.47868,0.071 0.95625,0.16755 1.53534,0.019 0.005,-0.98487 -0.68749,-2.11859 -1.70978,-2.35586 1.58955,0.1431 2.2294,0.94523 2.13874,2.72454 z m 6.582329,0.21984 c -0.565819,0.079 -1.081279,-0.21104 -1.570189,-0.57413 0.40993,-0.0128 0.71881,0.14262 1.14315,0.1674 0.008,-0.82531 -0.48908,-2.4948 -1.4877,-2.72358 1.682109,0.1741 1.984929,1.75102 1.914739,3.13031 z m 22.121851,-2.45226 c -0.80149,-0.22239 -1.43414,-0.20321 -1.84504,-0.0457 -0.98694,0.37843 -0.6133,2.06199 -0.5607,2.86251 -0.4547,-0.82322 -0.907171,-2.84956 0.3132,-3.28988 0.69821,-0.25197 1.66038,-0.14181 2.09254,0.47309 z m 7.059399,-1.52303 c -0.51337,-0.13798 -1.468659,-0.21968 -1.756769,0.35781 -0.44767,0.83842 0.11943,2.23403 0.435989,3.06861 -0.541989,-0.41729 -1.410939,-1.97501 -0.833449,-3.26654 0.30249,-0.60611 1.274569,-1.02532 2.154229,-0.15988 z"
     id="_153070024"
     style="fill:#ffcc00;fill-opacity:1;fill-rule:nonzero" /><path
     d="m -77.565283,62.898506 c 0.30648,-2.30837 0.69772,-4.76223 0.89948,-7.07524 l 1.6e-4,-9.6e-4 c 0.29147,-3.34216 0.37973,-6.69695 0.41154,-10.05047 0.0393,-4.14269 -0.0409,-8.2905 -0.3858,-12.42056 -0.208,-2.49047 -0.42128,-4.99007 -0.91979,-7.44281 -0.11192,-0.55031 0.0395,-0.41536 -0.440481,-0.48811 -0.38371,-0.058 -0.56534,-0.12599 -0.46557,0.26092 0.45742,1.77245 0.62274,4.00008 0.780061,6.12011 0.0366,0.49483 0.0729,0.98359 0.1148,1.48674 l 1.6e-4,0.002 c 0.36788,4.41529 0.45902,8.8512 0.34598,13.27943 -0.14069,5.51224 -0.21456,11.11689 -1.203591,16.54759 0.29835,-0.0585 0.58517,-0.13207 0.863051,-0.21824 z"
     id="_153069880"
     style="fill:#ffe600;fill-rule:nonzero" /><path
     d="m -111.58967,28.335306 c 0.0641,0.1084 0.10169,0.23423 0.10169,0.36934 0,0.40241 -0.32633,0.7289 -0.72874,0.7289 -0.40082,0 -0.72603,-0.32361 -0.7289,-0.72347 -0.27292,0.0752 -0.60148,0.1626 -0.85713,0.14614 0.0128,-0.69021 0.75656,-1.25316 1.31726,-1.51105 0.0128,0.048 0.0261,0.0959 0.0392,0.1439 0.25662,-0.15589 0.52938,-0.2515 0.81556,-0.33352 l 0,0.12599 c 0.21712,-0.0835 0.44142,-0.12183 0.67245,-0.13766 0.33112,0.28427 0.62658,0.62705 0.79893,1.03268 -0.48811,0.005 -0.95274,0.047 -1.43029,0.15875 z m -0.51258,0.13335 c -0.16036,0.0449 -0.32008,0.0918 -0.47996,0.13814 -0.016,0.038 -0.0248,0.0798 -0.0248,0.12359 0,0.17683 0.14341,0.32023 0.32024,0.32023 0.17683,0 0.32024,-0.1434 0.32024,-0.32023 0,-0.10808 -0.0536,-0.20386 -0.13574,-0.26173 z m -1.36683,0.0486 c 0.39619,-0.0919 0.71803,-0.27307 1.10111,-0.38275 0.5599,-0.16036 1.18183,-0.24111 1.78922,-0.26861 -0.12918,-0.1837 -0.28507,-0.35093 -0.45262,-0.50058 -0.29785,0.0262 -0.55046,0.12407 -0.81443,0.25292 l 0,-0.1725 0,-4.8e-4 c -0.26572,0.091 -0.49835,0.22926 -0.72921,0.38867 l -0.0493,-0.18051 c -0.35798,0.19809 -0.65152,0.50443 -0.84482,0.86384 z"
     id="_153069664"
     style="fill:#ffcc00;fill-opacity:1;fill-rule:nonzero" /><path
     d="m -111.77993,28.258576 c 0.0641,0.10855 0.10169,0.23438 0.10169,0.36948 0,0.40242 -0.32648,0.7289 -0.72891,0.7289 -0.40065,0 -0.72586,-0.3236 -0.72874,-0.72362 -0.27307,0.0751 -0.60147,0.16276 -0.85711,0.14629 0.0128,-0.69037 0.7564,-1.25315 1.3171,-1.51104 0.0128,0.048 0.0262,0.0959 0.0393,0.14389 0.25644,-0.15588 0.52921,-0.25149 0.81539,-0.33352 l 0,0.12599 c 0.21728,-0.0835 0.44144,-0.12183 0.67261,-0.13782 0.33112,0.28428 0.62658,0.62722 0.79877,1.03284 -0.48795,0.005 -0.95256,0.047 -1.43013,0.15861 z m -0.51258,0.13333 c -0.16036,0.0449 -0.32024,0.0919 -0.48012,0.1383 -0.016,0.038 -0.0246,0.0798 -0.0246,0.12359 0,0.17683 0.14341,0.32024 0.32024,0.32024 0.17683,0 0.32024,-0.14341 0.32024,-0.32024 0,-0.10824 -0.0537,-0.20385 -0.13574,-0.26189 z m -1.36683,0.0486 c 0.39604,-0.0918 0.71787,-0.27292 1.10094,-0.3826 0.55992,-0.16052 1.18186,-0.2411 1.7894,-0.2686 -0.12935,-0.18386 -0.28508,-0.35094 -0.4528,-0.50075 -0.29768,0.0264 -0.5503,0.12407 -0.81425,0.25294 l 0,-0.17236 0,-6.4e-4 c -0.26589,0.0911 -0.49852,0.22944 -0.72923,0.38883 l -0.0492,-0.1805 c -0.35814,0.19809 -0.65168,0.50443 -0.84482,0.86368 z"
     id="_153069592"
     style="fill:#aa8800;fill-opacity:1;fill-rule:nonzero" /></g></svg>