<?xml version="1.0" encoding="UTF-8"?>
<svg id="Layer_2" data-name="Layer 2" xmlns="http://www.w3.org/2000/svg" width="300" height="300" viewBox="0 0 300 300">
  <defs>
    <style>
      .cls-1, .cls-2 {
        fill: #ee2e24;
      }

      .cls-3, .cls-4 {
        fill: #009bc9;
      }

      .cls-2, .cls-5, .cls-6, .cls-4 {
        fill-rule: evenodd;
      }

      .cls-5 {
        fill: #a90000;
      }

      .cls-7 {
        fill: #093;
      }

      .cls-8, .cls-6 {
        fill: #ffde00;
      }
    </style>
  </defs>
  <g id="Layer_1-2" data-name="Layer 1">
    <g>
      <g id="_Слой_1" data-name="Слой_1">
        <circle class="cls-1" cx="150" cy="150" r="150"/>
        <circle class="cls-8" cx="150" cy="150" r="148.22"/>
        <path class="cls-5" d="m182.34,145.79c1.56,0,2.82,1.26,2.82,2.82v2.82c0,1.56-1.26,2.82-2.82,2.82h-2.82v-8.44h2.82Zm0,11.24c3.1,0,5.62-2.52,5.62-5.62v-2.82c0-3.1-2.52-5.62-5.62-5.62h-5.63v14.07h5.63Zm-11.25-14.08h2.82v14.07h-2.82v-14.07Zm-5.62,0h2.82v14.07h-2.82l-5.62-8.83v8.83h-2.82v-14.07h2.82l5.62,8.83v-8.83Zm-42.19,0h8.44v2.82h-5.62v2.82h5.62v2.82h-5.62v2.82h5.62v2.82h-8.44v-14.08Zm-11.25,0h2.82v11.25h5.62v2.82h-8.44v-14.07Zm29.53,11.25h2.82c2.33,0,4.22-1.89,4.22-4.22s-1.93-4.21-4.22-4.22h-2.82v2.82h2.82c.77,0,1.41.64,1.41,1.41s-.62,1.41-1.41,1.41h-2.82v2.82Zm2.82-14.07c5.44,0,9.84,4.41,9.84,9.84s-4.4,9.84-9.84,9.84-9.84-4.41-9.84-9.84,4.4-9.84,9.84-9.84Zm0,2.82c3.88,0,7.03,3.15,7.03,7.03s-3.14,7.03-7.03,7.03-7.03-3.15-7.03-7.03c-.01-3.88,3.14-7.03,7.03-7.03Z"/>
        <circle class="cls-3" cx="150" cy="150" r="108.76"/>
        <path class="cls-6" d="m85.9,58.73l-7.21,6.54c37.58,33.2,51.26,86.91,55.45,146.7h1.81c-2.53-30.09-1.55-102.41-50.05-153.24h0Zm39.75,48.18c1.46,4.8,3.21,11.35,3.81,16.11,4.41,9.18,11.64,17.86,12.6,73.66h1.81c-.41-36.98-1.27-70.69-18.22-89.77h0Zm23.32,18.8h2.07v61.29h-2.07v-61.29Zm25.4-18.8c-1.46,4.8-3.21,11.35-3.81,16.11-4.41,9.18-11.64,17.86-12.6,73.66h-1.81c.41-36.98,1.26-70.69,18.22-89.77h0Zm39.74-48.18l7.21,6.54c-37.58,33.2-51.26,86.91-55.45,146.7h-1.81c2.53-30.09,1.56-102.41,50.05-153.24h0Z"/>
        <path class="cls-2" d="m150,39.85c60.82,0,110.15,49.33,110.15,110.15s-49.33,110.15-110.15,110.15-110.15-49.32-110.15-110.15,49.33-110.15,110.15-110.15h0Zm0,1.41c60.05,0,108.76,48.69,108.76,108.76s-48.69,108.76-108.76,108.76-108.75-48.72-108.75-108.77,48.69-108.75,108.75-108.75Z"/>
        <path class="cls-6" d="m150,184.36c-4.07,3.84-3.92,8.54-1.97,12.88l-.03.03c-1.87-1.33-3.59-1.87-5.07-1.88-2.79-.01-5.27,2.89-5.36,5.1-.07,2,.15,3.86,1.95,5.02,1.22.78,2.96,1.01,4.23.04-1.68-.55-1.68-2.48-1.17-3.34.53-.9,1.41-1.55,2.54-1.51,2.04.06,3.2,1.77,3.16,3.42-.05,2.4-3.45,5.54-5.24,6.53,1.2,2.28,2.9,5.92,3.6,8.71l-.96.64c-18.62-23.17-37.76-16.31-52.83-32.4,1.93,20.28,20.74,27.95,32.11,30.57-5.31,3.07-6.57,8.04-6.42,12.45.21,6.27,5.45,11.01,12.34,10.86,7.17-.16,12.3-7.11,8.58-13.64-1.41,2.75-2.85,5.24-6.09,5.06-3.24-.17-4.45-3.04-4.49-5.66-.04-3.18,2.31-5.47,5.32-6,2.14-.38,4.49.15,6.55,1.13,3.63,1.75,6.35,5.86,6.23,10.16-.13,4.3-2.86,9.18-8.95,13.92,3.84,4.74,8.01,10.88,11.96,19.56,3.95-8.68,8.12-14.82,11.96-19.56-6.1-4.74-8.83-9.62-8.95-13.92-.13-4.3,2.6-8.41,6.23-10.16,2.05-.99,4.41-1.51,6.55-1.13,3.03.54,5.37,2.84,5.32,6-.03,2.62-1.25,5.49-4.49,5.66-3.24.17-4.67-2.31-6.09-5.06-3.71,6.53,1.42,13.48,8.58,13.64,6.88.15,12.13-4.59,12.34-10.86.15-4.4-1.11-9.38-6.42-12.45,11.37-2.61,30.18-10.29,32.11-30.57-15.07,16.09-34.21,9.23-52.83,32.4l-.96-.64c.7-2.79,2.4-6.43,3.6-8.71-1.79-.99-5.19-4.14-5.24-6.53-.04-1.65,1.12-3.35,3.16-3.42,1.13-.04,2.01.61,2.54,1.51.52.88.51,2.79-1.17,3.34,1.27.96,3.02.74,4.23-.04,1.8-1.15,2.02-3.03,1.95-5.02-.08-2.21-2.56-5.11-5.36-5.1-1.48,0-3.2.54-5.07,1.88l-.03-.03c1.95-4.34,2.11-9.05-1.97-12.88h0Z"/>
        <path class="cls-7" d="m152.57,204.06c0-1.22.81-2.48,2.35-2.53.97-.03,1.53.67,1.78,1.09.18.31.26.89.08,1.39-.14.36-.39.6-.79.73l-1.51.5c1.31,1.01,2.42,1.94,4.21,1.76.83-.08,1.62-.38,2.25-.78,2.19-1.41,2.41-3.7,2.34-5.76-.1-2.67-2.97-5.93-6.2-5.92-1.15,0-2.34.32-3.55.88.39-1.3.6-2.57.6-3.78,0-3-1.2-5.66-3.56-7.9l-.58-.55-.58.55c-2.37,2.23-3.56,4.9-3.56,7.9,0,1.21.21,2.48.6,3.78-1.2-.56-2.38-.87-3.55-.88-3.22-.01-6.11,3.24-6.2,5.92-.07,2.05.15,4.35,2.34,5.76.74.48,1.7.8,2.69.81,1.6.02,2.6-.88,3.79-1.78-.74-.24-2-.4-2.31-1.24-.19-.5-.1-1.08.08-1.39.24-.42.8-1.12,1.78-1.09,1.53.05,2.35,1.31,2.35,2.53-.04,1.99-3.14,4.91-4.8,5.84l-.72.4.38.73c1.11,2.1,2.42,4.98,3.19,7.41-10.17-12.17-20.33-15.72-30.15-19.11-7.85-2.72-15.28-5.29-21.87-12.32l-1.69-1.8.23,2.46c1.96,20.56,20.98,28.24,30.89,30.85-3.43,2.65-5.23,6.55-5.23,11.43,0,.22,0,.46.01.68.22,6.82,5.91,11.83,13.2,11.67,3.97-.08,7.59-2.16,9.43-5.41,1.67-2.95,1.63-6.41-.13-9.49l-.77-1.35-.71,1.39c-1.43,2.78-2.65,4.74-5.29,4.6-3.37-.18-3.67-3.75-3.68-4.84-.03-2.59,1.83-4.67,4.62-5.16,1.81-.32,3.95.05,6.03,1.07,3.49,1.68,5.86,5.54,5.76,9.38-.13,4.39-3.11,8.99-8.63,13.28l-.68.53.54.67c4.73,5.84,8.5,12,11.85,19.38l.77,1.69.77-1.69c3.35-7.38,7.12-13.54,11.85-19.38l.54-.67-.68-.53c-5.51-4.3-8.5-8.89-8.63-13.28-.11-3.84,2.25-7.69,5.76-9.38,2.08-1.01,4.23-1.39,6.03-1.07,2.8.5,4.67,2.57,4.64,5.16-.01,1.09-.33,4.66-3.68,4.84-2.65.14-3.86-1.82-5.29-4.6l-.71-1.39-.77,1.35c-1.76,3.08-1.8,6.54-.13,9.49,1.84,3.25,5.46,5.32,9.43,5.41,7.3.16,12.98-4.86,13.2-11.67.01-.23.01-.46.01-.68,0-4.88-1.8-8.78-5.23-11.43,9.92-2.61,28.95-10.28,30.89-30.85l.23-2.46-1.69,1.8c-6.58,7.03-14,9.6-21.87,12.32-9.83,3.4-19.98,6.94-30.15,19.11.76-2.42,2.07-5.31,3.19-7.41l.38-.73-.72-.4c-1.67-.93-4.76-3.85-4.8-5.84h0Zm-1.69.02c.06,2.61,3.01,5.51,4.98,6.86-1.49,2.93-3.08,6.13-3.47,9.43l2.11.74.48-.6c10.16-12.64,20.37-16.17,30.25-19.59,7.36-2.54,14.32-5.01,20.7-10.98-3.31,18.93-22.64,25.44-31.08,27.38l-2.1.48,1.86,1.07c3.99,2.31,6.01,6.02,6.01,11.04,0,.21,0,.42-.01.65-.19,5.86-5.13,10.18-11.47,10.04-3.38-.07-6.45-1.82-7.99-4.55-.68-1.2-1.02-2.46-1.02-3.75,0-.86.2-1.7.5-2.56,1.2,2.06,2.9,4.13,6.03,3.96,3.84-.2,5.24-3.63,5.28-6.5.04-3.4-2.43-6.21-6.02-6.85-2.15-.38-4.66.05-7.06,1.21-3.99,1.92-6.71,6.27-6.71,10.65v.3c.14,4.73,3.13,9.56,8.64,14.03-4.18,5.27-7.73,11.04-10.81,17.52-3.08-6.48-6.63-12.25-10.81-17.52,5.5-4.47,8.5-9.3,8.64-14.03v-.3c0-4.38-2.73-8.73-6.71-10.65-2.4-1.15-4.91-1.59-7.06-1.21-3.59.64-6.06,3.45-6.02,6.85.04,2.87,1.44,6.3,5.28,6.5,3.13.17,4.85-1.89,6.03-3.96.3.85.5,1.7.5,2.56,0,1.28-.34,2.55-1.02,3.75-1.56,2.73-4.61,4.48-8,4.55-6.35.14-11.28-4.18-11.47-10.04-.01-.21-.01-.43-.01-.65,0-5.03,2.02-8.74,6.01-11.05l1.86-1.07-2.1-.48c-8.45-1.94-27.77-8.45-31.08-27.38,6.38,5.97,13.36,8.42,20.7,10.98,9.87,3.42,20.09,6.95,30.25,19.59l.48.6,2.11-.74c-.39-3.3-1.97-6.5-3.47-9.43,1.98-1.35,4.93-4.24,4.98-6.86,0-2.05-1.47-4.15-3.98-4.23-1.34-.04-2.55.66-3.29,1.93-.28.47-.41,1.06-.41,1.64,0,.41.06.83.21,1.2.11.26.29.47.46.69-.76.08-1.55-.13-2.13-.5-1.4-.9-1.63-2.36-1.57-4.28.06-1.7,2.11-4.3,4.51-4.29,2.19.01,3.91,1.25,5.61,2.44l.74-.69c-.89-2.04-1.74-4.06-1.74-6.35s.85-4.27,2.46-6.02c1.61,1.76,2.46,3.77,2.46,6.02s-.87,4.28-1.69,6.35l.66.69c1.74-1.16,3.45-2.43,5.65-2.44,2.4-.01,4.45,2.59,4.51,4.29.07,1.92-.17,3.39-1.57,4.28-.57.37-1.37.58-2.13.5.17-.22.35-.42.46-.69.14-.37.21-.78.21-1.2,0-.59-.14-1.17-.41-1.64-.74-1.27-1.95-1.97-3.29-1.93-2.43.1-3.91,2.19-3.91,4.24Z"/>
        <path class="cls-4" d="m150,222.4c1.28-3.83,2.69-7.87,4.31-10.89-1.5-.9-2.92-2.46-4.31-4.3-1.39,1.85-2.8,3.4-4.31,4.3,1.63,3.02,3.03,7.07,4.31,10.89Z"/>
        <path class="cls-4" d="m150,260.28c2.08-4.13,4.61-8.66,7.9-12.38-2.73-2.33-5.47-5.61-7.9-9.54-2.43,3.93-5.16,7.21-7.9,9.54,3.28,3.73,5.82,8.26,7.9,12.38Z"/>
        <path class="cls-8" d="m152.2,243.42c-.4,0-.83.22-1.25.65-.94.95-1.37,2.43-1.71,3.64l-.04.13c-.07.26-.15.56-.22.84-.24-.08-.51-.16-.8-.21.24-.62.4-1.23.37-1.84-.01-.21-.18-.37-.39-.36-.21.01-.37.18-.36.39.03.95-.49,1.99-1.11,3.15-.1.18-.03.41.15.51s.41.03.51-.15c.18-.34.36-.67.51-.98.35.04.65.13.93.22-.5,1.98-.94,4.12-1.22,5.67,0,.02-.01.04-.01.06,0,.18.13.34.31.37.2.03.4-.1.43-.31.28-1.52.7-3.62,1.19-5.56.32.12.62.23.96.25,1.65.14,2.53-1.39,2.78-2.73.2-1.05.26-2.85-.34-3.47-.16-.17-.4-.28-.68-.28h0Zm-2.28,4.62l.04-.14c.32-1.11.72-2.5,1.52-3.31.37-.37.61-.42.72-.42h0c.08,0,.14.03.16.05.23.23.4,1.44.14,2.8-.19,1.04-.83,2.22-1.98,2.13-.25-.02-.53-.13-.83-.24.06-.29.14-.59.22-.87Z"/>
        <path class="cls-2" d="m150,5.62c79.73,0,144.38,64.65,144.38,144.38,0,44.01-19.71,83.41-50.76,109.89l-16.95-23.77c19.53-17.4,33.11-41.33,37.29-68.36.07-.49.02-.68.56-.85.47-.14.97-.29,1.4-.48.18-.07.35-.19.52-.35.13-.13.18-.36.23-.62.1-.49.22-1.14,1.05-1.39.92-.28,1.71.36,2.72,1.17.57.46,1.22.97,2,1.44,1.98,1.15,3.78,1.65,6.22,1.71,2.12.05,3.96-.26,6.1-2.01.83-.68,1.44-1.4,2.11-2.26.58-.75,1.26-1.45,2.26-1.44.77.01,1.38.37,1.67.98.12.25.18.54.18.83,0,.05-.02.1-.02.15.33-.38.52-.78.54-1.17v-.06c0-.7-.36-1.21-.67-1.52-.58-.59-1.46-.96-2.29-.95-1.63.02-2.97.83-4.39,1.67-.71.42-1.44.86-2.2,1.2-1.69.73-3.64,1.04-6.12.97-3.66-.1-5.99-1.76-7.3-3.14-1.49-1.57-2.42-3.63-2.38-5.24.07-2.84,1.14-3.6,1.27-3.67l.08-.05,4.64-.31-.37.61s-.67,1.12-.72,3.45v.17c0,2.91,2,4.09,2.46,4.32.17-.04,1.04-.26,1.77-.44-.94-.72-2.48-2.24-2.48-4.5v-.13c.07-2.9,1.96-4.46,5.29-4.36,2.28.06,4.69,1.57,4.64,3.89-.02.86-.3,1.53-.8,2.02-.73.7-1.7.75-2.08.74-.67-.02-1.24-.37-1.66-.73.07.38.23.83.56,1.22.59.7,1.58,1.07,2.91,1.1,1.43.04,3.62-1.31,3.68-3.43.02-.92-.13-1.42-.23-1.79-.16-.56-.23-.93.29-1.56.61-.74,1.52-.42,2.12-.21l.51.14c.47.01,1.81-1.23,3.18-2.89-1.37-1.67-2.7-2.9-3.18-2.89l-.51.14c-.6.21-1.5.52-2.12-.21-.53-.64-.46-1.01-.29-1.56.11-.37.25-.87.23-1.79-.05-2.12-2.25-3.46-3.68-3.43-1.34.03-2.33.4-2.91,1.1-.33.39-.49.83-.56,1.22.42-.36.98-.71,1.66-.73.38-.01,1.35.04,2.08.74.51.49.78,1.16.8,2.02.06,2.33-2.36,3.84-4.64,3.89-3.34.08-5.22-1.46-5.29-4.36v-.13c0-2.25,1.55-3.77,2.48-4.5-.74-.19-1.61-.4-1.77-.44-.47.23-2.46,1.4-2.46,4.32v.17c.06,2.33.72,3.44.72,3.45l.37.61-.72-.04-3.92-.25-.08-.05c-.13-.07-1.2-.84-1.27-3.67-.04-1.62.89-3.67,2.38-5.24,1.31-1.39,3.64-3.05,7.3-3.14,2.48-.06,4.42.24,6.12.97.76.33,1.5.77,2.2,1.2,1.43.86,2.77,1.66,4.4,1.67.83.01,1.7-.36,2.29-.95.31-.32.67-.83.67-1.52v-.06c-.01-.4-.21-.8-.54-1.19,0,.05.03.11.03.15,0,.3-.06.57-.18.83-.29.61-.9.97-1.67.98-1.01.01-1.68-.69-2.26-1.44-.67-.87-1.28-1.59-2.11-2.26-2.13-1.75-3.98-2.06-6.1-2.01-2.44.06-4.25.56-6.22,1.71-.79.47-1.44.98-2,1.44-1.01.8-1.8,1.45-2.72,1.17-.83-.24-.95-.91-1.05-1.39-.05-.26-.1-.5-.23-.62-.19-.18-.39-.3-.58-.37-.39-.16-.81-.29-1.23-.41-.64-.19-.58-.37-.68-.95-8.57-55.21-56.33-97.48-113.94-97.48s-105.38,42.29-113.94,97.52c-.07.49-.01.71-.56.88-.46.14-.91.28-1.33.44-.52.21-.71.46-.81.99-.1.49-.22,1.14-1.05,1.39-.92.28-1.71-.36-2.72-1.17-.57-.46-1.22-.97-2-1.44-1.98-1.15-3.78-1.65-6.22-1.71-2.12-.05-3.96.26-6.1,2.01-.83.68-1.44,1.4-2.11,2.26-.58.75-1.26,1.45-2.26,1.44-.77-.01-1.38-.37-1.67-.98-.12-.25-.18-.54-.18-.83,0-.05.02-.11.03-.15-.33.38-.53.78-.54,1.19v.06c0,.7.36,1.21.67,1.52.58.59,1.46.96,2.29.95,1.63-.02,2.97-.83,4.4-1.67.71-.42,1.44-.86,2.2-1.2,1.69-.73,3.64-1.04,6.12-.97,3.66.1,5.99,1.76,7.3,3.14,1.49,1.57,2.42,3.63,2.38,5.24-.07,2.84-1.14,3.6-1.27,3.67l-.08.05-3.92.25-.72.04.37-.61s.67-1.12.72-3.45v-.17c0-2.92-2-4.09-2.46-4.32-.17.04-1.04.26-1.77.44.94.72,2.48,2.24,2.48,4.5v.13c-.07,2.9-1.96,4.46-5.29,4.36-2.28-.06-4.69-1.57-4.64-3.89.02-.86.3-1.53.8-2.02.73-.7,1.7-.75,2.08-.74.67.02,1.24.37,1.66.73-.07-.38-.23-.83-.56-1.22-.59-.7-1.58-1.07-2.91-1.1-1.43-.04-3.62,1.31-3.68,3.43-.02.92.13,1.42.23,1.79.16.56.23.93-.29,1.56-.61.73-1.52.42-2.12.21l-.55-.12c-.47-.01-1.81,1.22-3.18,2.89,1.37,1.67,2.7,2.9,3.18,2.89l.51-.14c.6-.21,1.5-.52,2.12.21.53.64.46,1.01.29,1.56-.11.37-.25.87-.23,1.79.05,2.12,2.25,3.46,3.68,3.43,1.34-.03,2.33-.4,2.91-1.1.33-.39.49-.83.56-1.22-.42.36-.98.71-1.66.73-.38.01-1.35-.04-2.08-.74-.51-.49-.78-1.16-.8-2.02-.06-2.33,2.36-3.84,4.64-3.89,3.34-.08,5.22,1.46,5.29,4.36v.13c0,2.25-1.55,3.77-2.48,4.5.74.19,1.61.4,1.77.44.47-.23,2.46-1.41,2.46-4.32v-.17c-.06-2.33-.72-3.44-.72-3.45l-.37-.61,4.64.31.08.05c.13.07,1.2.84,1.27,3.67.04,1.62-.89,3.67-2.38,5.24-1.31,1.38-3.64,3.05-7.3,3.14-2.48.06-4.42-.24-6.12-.97-.76-.33-1.5-.77-2.2-1.2-1.43-.86-2.77-1.66-4.4-1.67-.83-.01-1.7.36-2.29.95-.31.32-.67.83-.67,1.52v.06c.01.39.21.79.54,1.17,0-.05-.02-.1-.02-.15,0-.3.06-.57.18-.83.29-.61.9-.97,1.67-.98,1.01-.01,1.68.69,2.26,1.44.67.87,1.28,1.59,2.11,2.26,2.14,1.75,3.98,2.06,6.1,2.01,2.44-.06,4.25-.56,6.22-1.71.79-.47,1.44-.98,2-1.44,1.01-.8,1.8-1.45,2.72-1.17.83.24.95.91,1.05,1.39.08.46.19.66.59.89.44.25,1.02.4,1.52.55.53.15.5.28.57.76,4.17,27.07,17.75,51.03,37.3,68.45l-16.95,23.77C25.33,233.41,5.62,194.01,5.62,150,5.62,70.27,70.27,5.62,150,5.62h0Zm75.4,231.63l16.93,23.74c-.43.36-.87.72-1.3,1.08l-16.92-23.72c.43-.37.87-.73,1.29-1.1Zm-2.59,2.17l16.9,23.7-1.33,1.05-16.89-23.69c.44-.35.89-.7,1.32-1.06h0Zm-2.66,2.1l16.89,23.68c-1.06.8-2.12,1.59-3.2,2.35l-16.88-23.65c1.08-.77,2.14-1.57,3.19-2.37Zm-137.11,2.37l-16.88,23.66c-1.08-.77-2.14-1.56-3.2-2.35l16.89-23.68c1.05.79,2.11,1.59,3.19,2.36h0Zm-4.52-3.41l-16.89,23.69c-.44-.35-.89-.69-1.33-1.05l16.9-23.7c.44.36.88.71,1.32,1.06Zm-2.62-2.14l-16.92,23.72c-.43-.36-.87-.72-1.3-1.08l16.93-23.74c.43.38.87.74,1.29,1.1Z"/>
        <g id="_250593560" data-name=" 250593560">
          <circle id="_255379976" data-name=" 255379976" class="cls-7" cx="150" cy="63.37" r="45.37"/>
          <circle id="_255380552" data-name=" 255380552" class="cls-8" cx="150" cy="63.37" r="43.69"/>
          <circle id="_255381128" data-name=" 255381128" class="cls-1" cx="150" cy="63.37" r="37.22"/>
          <circle id="_250594904" data-name=" 250594904" class="cls-7" cx="150" cy="63.37" r="36.66"/>
          <circle id="_250594088" data-name=" 250594088" class="cls-1" cx="150" cy="63.37" r="34.97"/>
          <circle id="_250598672" data-name=" 250598672" class="cls-8" cx="150" cy="63.37" r="34.41"/>
          <circle id="_250598144" data-name=" 250598144" class="cls-1" cx="150" cy="63.37" r="31.5"/>
          <circle id="_250597640" data-name=" 250597640" class="cls-3" cx="150" cy="63.37" r="30.94"/>
          <path id="_250595384" data-name=" 250595384" class="cls-6" d="m175.41,46.77l-2.34-2.34-2.24,2.24-.08,1.21-9.95,9.95-1.21.08-2.24,2.24,2.34,2.34,2.24-2.24.08-1.21,9.95-9.95,1.21-.08s2.24-2.24,2.24-2.24Zm-3.28-3.2l-2.34-2.34-2.24,2.24-.08,1.21-9.95,9.95-1.21.08-2.24,2.24,2.34,2.34,2.24-2.24.08-1.21,9.95-9.95,1.21-.08s2.24-2.24,2.24-2.24Zm-3.25-3.25l-2.34-2.34-2.24,2.24-.08,1.21-9.95,9.95-1.21.08-2.24,2.24,2.34,2.34,2.24-2.24.08-1.21,9.95-9.95,1.21-.08s2.24-2.24,2.24-2.24Zm-35.5,48.47l-2.34-2.34,2.24-2.24,1.21-.08,9.95-9.95.08-1.21,2.24-2.24,2.34,2.34-2.24,2.24-1.21.08-9.95,9.95-.08,1.21-2.24,2.24h0Zm-3.21-3.28l-2.34-2.34,2.24-2.24,1.21-.08,9.95-9.95.08-1.21,2.24-2.24,2.34,2.34-2.24,2.24-1.21.08-9.95,9.95-.08,1.21-2.24,2.24Zm-3.24-3.24l-2.34-2.34,2.24-2.24,1.21-.08,9.95-9.95.08-1.21,2.24-2.24,2.34,2.34-2.24,2.24-1.21.08-9.95,9.95-.08,1.21-2.24,2.24h0Zm48.47-2.3l-2.34,2.34-2.24-2.24-.08-1.21-9.95-9.95-1.21-.08-2.24-2.24,2.34-2.34,2.24,2.24.08,1.21,9.95,9.95,1.21.08s2.24,2.24,2.24,2.24Zm-3.28,3.2l-2.34,2.34-2.24-2.24-.08-1.21-9.95-9.95-1.21-.08-2.24-2.24,2.34-2.34,2.24,2.24.08,1.21,9.95,9.95,1.21.08,2.24,2.24Zm-3.25,3.25l-2.34,2.34-2.24-2.24-.08-1.21-9.95-9.95-1.21-.08-2.24-2.24,2.34-2.34,2.24,2.24.08,1.21,9.95,9.95,1.21.08s2.24,2.24,2.24,2.24Zm-35.5-48.48l-2.34,2.34,2.24,2.24,1.21.08,9.95,9.95.08,1.21,2.24,2.24,2.34-2.34-2.24-2.24-1.21-.08-9.95-9.95-.08-1.21-2.24-2.24h0Zm-3.21,3.29l-2.34,2.34,2.24,2.24,1.21.08,9.95,9.95.08,1.21,2.24,2.24,2.34-2.34-2.24-2.24-1.21-.08-9.95-9.95-.08-1.21s-2.24-2.24-2.24-2.24Zm-3.24,3.24l-2.34,2.34,2.24,2.24,1.21.08,9.95,9.95.08,1.21,2.24,2.24,2.34-2.34-2.24-2.24-1.21-.08-9.95-9.95-.08-1.21-2.24-2.24h0Zm23.04,23.05l2.34,2.34-2.34,2.34-2.34-2.34,2.34-2.34Zm-3.24-3.25l2.34,2.34-2.34,2.34-2.34-2.34,2.34-2.34Zm-3.24-3.24l2.34,2.34-2.34,2.34-2.34-2.34,2.34-2.34Zm3.24-3.25l2.34,2.34-2.34,2.34-2.34-2.34,2.34-2.34Zm3.24,3.25l2.34,2.34-2.34,2.34-2.34-2.34,2.34-2.34Zm3.25,3.24l2.34,2.34-2.34,2.34-2.34-2.34,2.34-2.34Zm3.24-3.24l2.34,2.34-2.34,2.34-2.34-2.34,2.34-2.34Zm-3.24-3.25l2.34,2.34-2.34,2.34-2.34-2.34,2.34-2.34Zm-3.25-3.24l2.34,2.34-2.34,2.34-2.34-2.34,2.34-2.34Z"/>
          <path id="_250593320" data-name=" 250593320" class="cls-1" d="m150,29c-.1,0-.19.05-.24.14,0,0-.89,1.47-1.21,1.98-.36-.49-1.39-1.89-1.39-1.89-.06-.08-.16-.13-.25-.12-.1.01-.18.06-.23.16,0,0-.76,1.57-1.03,2.11-.4-.46-1.55-1.77-1.55-1.77-.06-.07-.17-.11-.26-.1-.1.02-.18.08-.21.18,0,0-.61,1.63-.83,2.19-.44-.42-1.7-1.62-1.7-1.62-.07-.06-.17-.1-.26-.06-.1.02-.17.1-.2.19,0,0-.47,1.67-.62,2.26-.48-.38-1.84-1.46-1.84-1.46-.07-.06-.18-.07-.28-.04-.1.03-.16.12-.18.21,0,0-.32,1.71-.42,2.31-.51-.34-1.96-1.29-1.96-1.29-.08-.05-.19-.06-.28-.02-.08.04-.15.13-.16.22,0,0-.16,1.74-.21,2.34-.54-.29-2.06-1.11-2.06-1.11-.08-.04-.19-.04-.28.01-.08.05-.14.14-.14.24v2.35c-.56-.24-2.16-.92-2.16-.92-.1-.04-.2-.03-.28.03-.07.05-.12.14-.12.22v.02s.15,1.74.21,2.34c-.58-.19-2.23-.72-2.23-.72-.1-.03-.2-.01-.28.05-.06.05-.1.13-.1.21v.05s.31,1.71.41,2.31c-.59-.14-2.29-.52-2.29-.52-.1-.02-.19.01-.26.08-.05.05-.07.13-.07.19,0,.02,0,.05.01.07,0,0,.46,1.67.62,2.26-.6-.08-2.33-.31-2.33-.31-.1-.01-.19.02-.25.11-.04.05-.06.12-.06.18,0,.03.01.06.02.1,0,0,.6,1.63.81,2.2-.6-.02-2.35-.11-2.35-.11-.1,0-.19.04-.24.13-.03.04-.04.11-.04.16,0,.04.01.08.03.12,0,0,.75,1.57,1.02,2.12-.6.03-2.35.11-2.35.11-.1,0-.19.06-.23.15-.02.04-.03.08-.03.14s.01.1.04.15c0,0,.89,1.49,1.2,2.02-.6.08-2.33.32-2.33.32-.1.01-.18.07-.22.17-.01.03-.02.07-.02.11,0,.05.02.12.05.17,0,0,1.02,1.41,1.38,1.91-.59.14-2.29.53-2.29.53-.1.02-.17.1-.2.19-.01.03-.01.05-.01.08,0,.06.02.14.07.18,0,0,1.14,1.31,1.55,1.77-.58.19-2.22.73-2.22.73-.1.03-.17.11-.19.2,0,.02-.01.04-.01.06,0,.07.03.15.08.2,0,0,1.26,1.2,1.69,1.62-.56.24-2.16.92-2.16.92-.1.04-.16.13-.17.22v.04c0,.08.04.17.11.22,0,0,1.35,1.09,1.83,1.47-.54.29-2.06,1.12-2.06,1.12-.08.04-.14.14-.15.23h0c0,.11.04.19.13.24,0,0,1.45.96,1.96,1.3-.51.34-1.96,1.29-1.96,1.29-.07.05-.13.14-.13.23h0c0,.11.06.2.15.24,0,0,1.53.83,2.06,1.12-.48.38-1.83,1.46-1.83,1.46-.06.05-.11.14-.11.22v.04c.01.1.07.18.17.22,0,0,1.6.69,2.16.93-.43.42-1.69,1.62-1.69,1.62-.05.05-.08.13-.08.2,0,.02,0,.04.01.06.02.1.1.17.19.2,0,0,1.65.54,2.23.73-.4.46-1.53,1.77-1.53,1.77-.04.05-.07.12-.07.18,0,.03,0,.06.01.08.03.1.11.17.2.19,0,0,1.69.39,2.29.53-.36.5-1.38,1.89-1.38,1.89-.03.05-.05.11-.05.17,0,.04.01.07.02.11.04.1.13.16.22.17,0,0,1.73.23,2.33.32-.31.52-1.2,2.01-1.2,2.01-.03.04-.04.1-.04.15,0,.04.01.1.03.14.04.08.14.14.23.15,0,0,1.74.08,2.35.11-.26.55-1.02,2.12-1.02,2.12-.02.04-.03.08-.03.12,0,.05.02.11.04.16.05.08.15.13.24.13,0,0,1.74-.07,2.34-.11-.21.57-.81,2.2-.81,2.2-.01.03-.02.06-.02.1,0,.06.02.13.06.18.06.07.16.12.25.11,0,0,1.73-.22,2.33-.31-.16.58-.62,2.26-.62,2.26-.01.02-.01.05-.01.07,0,.07.03.14.07.19.06.07.17.11.26.08,0,0,1.69-.38,2.29-.52-.11.6-.41,2.31-.41,2.31v.05c0,.08.03.16.1.21.07.06.18.08.28.05,0,0,1.65-.53,2.23-.72-.05.6-.2,2.34-.2,2.34v.02c0,.08.04.17.12.22.08.05.18.07.28.03,0,0,1.6-.68,2.16-.92v2.35c0,.1.05.19.14.24.08.05.19.05.28.01,0,0,1.53-.83,2.07-1.11.05.6.21,2.34.21,2.34.01.1.07.18.16.23.08.04.19.03.28-.02,0,0,1.45-.95,1.96-1.29.11.6.42,2.31.42,2.31.02.1.08.18.18.21s.2.02.28-.04c0,0,1.37-1.08,1.84-1.46.16.58.62,2.26.62,2.26.02.1.11.17.2.19s.2,0,.26-.06c0,0,1.26-1.2,1.69-1.62.21.57.84,2.2.84,2.2.03.1.12.16.21.18s.2-.02.26-.1c0,0,1.14-1.3,1.55-1.77.26.55,1.02,2.12,1.02,2.12.04.08.13.15.23.16.1.01.19-.03.25-.12,0,0,1.03-1.41,1.39-1.89.32.52,1.21,2.01,1.21,2.01.05.08.14.14.24.14h0c.1,0,.19-.05.24-.14,0,0,.9-1.49,1.21-2.01.36.49,1.38,1.89,1.38,1.89.05.08.16.13.25.12s.18-.06.23-.16c0,0,.76-1.57,1.03-2.12.4.46,1.55,1.77,1.55,1.77.06.07.17.11.26.1.1-.02.18-.08.21-.18,0,0,.61-1.63.83-2.19.44.42,1.69,1.62,1.69,1.62.07.06.17.1.26.06.1-.02.17-.1.19-.19,0,0,.47-1.67.64-2.26.48.38,1.84,1.46,1.84,1.46.07.06.18.07.28.04s.16-.12.18-.21c0,0,.32-1.7.42-2.31.51.34,1.97,1.29,1.97,1.29.08.05.19.06.28.02s.15-.13.16-.22c0,0,.16-1.74.21-2.34.54.29,2.06,1.1,2.06,1.1.08.04.19.04.28-.01s.14-.14.14-.24v-2.34c.56.23,2.17.91,2.17.91.1.04.19.02.28-.03.07-.05.12-.14.12-.22v-.02s-.15-1.74-.2-2.34c.58.19,2.23.72,2.23.72.1.03.2.01.28-.05.06-.05.1-.13.1-.21v-.05s-.3-1.67-.41-2.29c.62.17,2.48.69,2.48.69.1.03.21,0,.28-.07.05-.05.07-.13.07-.19,0-.03,0-.06-.01-.08,0,0-.59-1.82-.79-2.44.62.08,2.31.31,2.31.31.1.01.19-.02.25-.11.04-.05.06-.12.06-.18,0-.03-.01-.06-.02-.1,0,0-.6-1.63-.81-2.2.61.03,2.35.11,2.35.11.1,0,.19-.04.24-.13.03-.04.04-.11.04-.16,0-.04-.01-.08-.03-.13,0,0-.75-1.58-1.02-2.13.61-.03,2.35-.11,2.35-.11.1,0,.19-.06.23-.15.02-.04.03-.08.03-.14s-.01-.1-.04-.15c0,0-.89-1.49-1.2-2.01.6-.08,2.33-.32,2.33-.32.1-.01.18-.07.22-.17.01-.03.02-.07.02-.11,0-.05-.02-.12-.05-.17,0,0-1.02-1.41-1.38-1.91.59-.14,2.29-.53,2.29-.53.1-.02.17-.1.2-.19.01-.03.01-.05.01-.08,0-.06-.02-.14-.06-.18,0,0-1.14-1.31-1.53-1.77.58-.19,2.23-.73,2.23-.73.1-.03.17-.11.19-.2,0-.02.01-.04.01-.06,0-.07-.03-.15-.08-.2,0,0-1.25-1.21-1.69-1.62.56-.24,2.16-.93,2.16-.93.1-.04.16-.13.17-.22v-.04c0-.08-.04-.17-.11-.22,0,0-1.35-1.09-1.83-1.46.54-.29,2.06-1.11,2.06-1.11.08-.04.14-.14.15-.23h0c0-.11-.04-.19-.13-.24,0,0-1.45-.96-1.96-1.3.51-.34,1.96-1.3,1.96-1.3.07-.05.13-.14.13-.23h0c0-.11-.06-.2-.15-.24,0,0-1.52-.83-2.06-1.11.48-.38,1.83-1.47,1.83-1.47.06-.05.11-.14.11-.22v-.04c-.01-.1-.07-.18-.17-.22,0,0-1.59-.69-2.16-.92.44-.42,1.69-1.6,1.69-1.6.05-.05.08-.13.08-.2,0-.02,0-.04-.01-.06-.02-.1-.1-.18-.19-.2,0,0-1.64-.53-2.22-.71.4-.47,1.55-1.77,1.55-1.77.04-.05.07-.12.07-.18,0-.03,0-.05-.01-.08-.03-.1-.11-.17-.2-.19,0,0-1.69-.39-2.29-.53.36-.5,1.38-1.91,1.38-1.91.03-.05.05-.11.05-.17,0-.04-.01-.07-.02-.11-.04-.1-.13-.16-.22-.17,0,0-1.71-.23-2.32-.32.31-.52,1.21-2.02,1.21-2.02.02-.04.04-.1.04-.15,0-.04-.01-.1-.03-.14-.04-.08-.14-.15-.23-.15,0,0-1.74-.08-2.35-.12.26-.55,1.02-2.12,1.02-2.12.02-.04.03-.08.03-.12,0-.05-.01-.11-.04-.16-.05-.08-.15-.13-.24-.13,0,0-1.74.07-2.35.1.21-.57.83-2.2.83-2.2.01-.03.02-.06.02-.1,0-.06-.02-.13-.06-.18-.06-.07-.16-.12-.25-.11,0,0-1.73.23-2.33.31.16-.58.62-2.26.62-2.26.01-.02.01-.05.01-.07,0-.07-.03-.14-.07-.19-.06-.07-.17-.11-.26-.08,0,0-1.69.38-2.29.52.11-.6.41-2.31.41-2.31v-.05c0-.08-.03-.16-.1-.21-.07-.06-.18-.08-.28-.05,0,0-1.66.53-2.23.72.05-.6.21-2.34.21-2.34v-.02c0-.08-.04-.17-.12-.22-.08-.05-.18-.07-.28-.03,0,0-1.6.68-2.16.91v-2.35c0-.1-.05-.19-.14-.24s-.19-.05-.28-.01c0,0-1.53.81-2.07,1.1-.05-.6-.21-2.34-.21-2.34-.01-.1-.07-.18-.16-.23-.08-.04-.19-.03-.28.02,0,0-1.45.95-1.96,1.28-.11-.6-.42-2.31-.42-2.31-.02-.1-.08-.18-.18-.21s-.2-.02-.28.04c0,0-1.37,1.08-1.84,1.46-.16-.58-.62-2.26-.62-2.26-.03-.1-.11-.17-.2-.2s-.2,0-.26.06c0,0-1.26,1.2-1.7,1.62-.21-.57-.83-2.2-.83-2.2-.03-.1-.12-.16-.21-.18s-.2.02-.26.1c0,0-1.14,1.3-1.55,1.76-.26-.55-1.02-2.12-1.02-2.12-.04-.08-.13-.15-.23-.16-.1-.01-.19.03-.25.12,0,0-1.04,1.42-1.39,1.91-.32-.51-1.25-1.99-1.25-1.99-.12-.02-.21-.07-.31-.07h0Zm-1.41,2.91c.1,0,.18-.05.23-.14,0,0,.86-1.42,1.19-1.96.34.54,1.23,1.95,1.23,1.95.05.07.14.13.23.13s.18-.04.23-.12c0,0,.97-1.33,1.35-1.86.29.58,1.01,2.07,1.01,2.07.04.08.12.15.21.16s.19-.02.25-.1c0,0,1.09-1.24,1.52-1.73.22.6.81,2.16.81,2.16.03.08.11.16.2.18s.19,0,.25-.07c0,0,1.2-1.14,1.67-1.59.17.62.61,2.22.61,2.22.02.1.1.16.18.19.1.03.19.01.26-.04,0,0,1.29-1.03,1.8-1.43.12.64.41,2.26.41,2.26.02.1.07.17.17.21.08.03.19.03.26-.02,0,0,1.39-.91,1.93-1.26.05.65.21,2.3.21,2.3.01.1.06.18.15.22s.18.04.26,0c0,0,1.46-.78,2.03-1.08v2.31c0,.1.04.18.13.23.07.05.18.06.26.02,0,0,1.52-.65,2.12-.9-.05.65-.2,2.29-.2,2.29v.02c0,.08.04.17.11.22.07.06.17.07.26.05,0,0,1.58-.51,2.19-.71-.12.64-.41,2.26-.41,2.26v.05c0,.07.03.15.08.2.06.06.17.1.25.07,0,0,1.62-.36,2.24-.51-.17.62-.61,2.22-.61,2.22-.01.02-.01.05-.01.07,0,.06.02.14.07.18.06.07.16.11.25.1,0,0,1.64-.22,2.29-.31-.22.6-.8,2.16-.8,2.16-.01.03-.02.06-.02.1,0,.06.02.12.05.17.05.07.15.12.24.12,0,0,1.65-.07,2.3-.1-.29.58-.99,2.07-.99,2.07-.02.04-.03.08-.03.13,0,.05.01.1.04.15.05.08.14.14.23.14,0,0,1.65.08,2.3.12-.33.55-1.19,1.98-1.19,1.98-.02.04-.04.1-.04.15,0,.04.01.08.03.12.04.08.13.15.21.16,0,0,1.64.22,2.28.32-.38.53-1.35,1.86-1.35,1.86-.03.05-.05.11-.05.17,0,.03.01.06.02.1.03.08.11.16.2.18,0,0,1.61.37,2.24.52-.42.49-1.51,1.74-1.51,1.74-.04.05-.07.12-.07.18,0,.02,0,.05.01.07.02.1.1.16.18.19,0,0,1.56.5,2.18.7-.48.44-1.65,1.57-1.65,1.57-.05.05-.08.13-.08.2v.05c.02.1.08.17.17.21,0,0,1.52.66,2.12.91-.51.4-1.8,1.44-1.8,1.44-.06.05-.11.14-.11.22v.02c.01.1.06.18.15.22,0,0,1.45.78,2.02,1.09-.54.36-1.92,1.27-1.92,1.27-.07.05-.13.14-.13.23h0c0,.1.04.18.13.23,0,0,1.38.92,1.92,1.27-.57.31-2.03,1.09-2.03,1.09-.08.04-.14.13-.15.22v.02c0,.08.04.17.11.22,0,0,1.29,1.04,1.8,1.44-.59.25-2.12.91-2.12.91-.08.04-.15.12-.17.21v.05c0,.07.03.15.08.2,0,0,1.2,1.14,1.66,1.6-.61.2-2.19.72-2.19.72-.08.03-.16.11-.18.19-.01.02-.01.05-.01.07,0,.06.02.14.06.18,0,0,1.09,1.25,1.51,1.74-.64.15-2.24.52-2.24.52-.1.02-.17.08-.2.18-.01.03-.02.06-.02.1,0,.06.02.12.05.17,0,0,.97,1.34,1.35,1.86-.64.08-2.28.32-2.28.32-.1.01-.17.07-.21.16-.02.04-.03.08-.03.13,0,.05.01.1.04.15,0,0,.85,1.42,1.17,1.98-.65.03-2.3.11-2.3.11-.1,0-.18.05-.23.14-.02.04-.04.1-.04.15,0,.04.01.08.03.13,0,0,.72,1.49.99,2.08-.65-.03-2.31-.11-2.31-.11-.1,0-.18.04-.24.12-.03.05-.05.11-.05.17,0,.03.01.06.02.1,0,0,.58,1.55.8,2.16-.65-.08-2.29-.31-2.29-.31-.1-.01-.19.02-.25.1-.04.05-.06.12-.06.18,0,.03,0,.06.01.08,0,0,.55,1.69.77,2.37-.69-.19-2.4-.67-2.4-.67-.1-.02-.19,0-.26.06-.06.05-.1.13-.1.21v.05s.3,1.63.41,2.26c-.61-.2-2.19-.71-2.19-.71-.08-.03-.19-.01-.26.05-.06.05-.11.14-.11.22v.02s.15,1.65.2,2.3c-.59-.25-2.13-.9-2.13-.9-.08-.03-.19-.03-.26.02-.07.05-.13.14-.13.23v2.3c-.57-.31-2.02-1.08-2.02-1.08-.08-.04-.18-.04-.26,0s-.14.13-.15.22c0,0-.15,1.65-.21,2.3-.54-.36-1.94-1.27-1.94-1.27-.07-.05-.18-.06-.26-.02s-.15.12-.17.21c0,0-.3,1.63-.41,2.26-.51-.4-1.81-1.43-1.81-1.43-.07-.05-.17-.07-.26-.04-.08.03-.16.11-.18.19,0,0-.44,1.6-.61,2.21-.47-.44-1.66-1.59-1.66-1.59-.06-.06-.17-.1-.25-.07-.1.02-.17.08-.2.18,0,0-.58,1.55-.81,2.16-.42-.49-1.51-1.73-1.51-1.73-.06-.07-.16-.11-.25-.1-.1.01-.17.07-.21.16,0,0-.72,1.49-1.01,2.07-.38-.52-1.35-1.85-1.35-1.85-.05-.07-.15-.12-.24-.12s-.18.05-.23.14c0,0-.86,1.42-1.19,1.98-.33-.55-1.19-1.98-1.19-1.98-.05-.08-.14-.13-.23-.14-.1,0-.18.04-.24.12,0,0-.97,1.33-1.35,1.86-.29-.58-1.01-2.07-1.01-2.07-.04-.08-.13-.15-.21-.16-.1-.01-.19.02-.25.1,0,0-1.09,1.25-1.51,1.74-.23-.6-.81-2.16-.81-2.16-.03-.08-.11-.16-.2-.17-.1-.02-.19.01-.25.07,0,0-1.2,1.14-1.66,1.59-.17-.62-.61-2.22-.61-2.22-.02-.1-.1-.16-.18-.19s-.19-.01-.26.04c0,0-1.3,1.03-1.8,1.43-.12-.64-.41-2.26-.41-2.26-.02-.1-.08-.17-.17-.21-.08-.04-.19-.03-.26.02,0,0-1.39.91-1.93,1.27-.06-.65-.21-2.29-.21-2.29-.01-.1-.06-.18-.15-.22s-.18-.04-.26,0c0,0-1.46.78-2.03,1.09v-2.31c0-.1-.05-.18-.13-.23s-.18-.06-.26-.02c0,0-1.52.65-2.12.9.05-.65.2-2.3.2-2.3v-.02c0-.08-.04-.17-.11-.22-.07-.06-.17-.07-.26-.05,0,0-1.58.51-2.19.71.12-.64.41-2.26.41-2.26v-.05c0-.07-.03-.15-.08-.2-.06-.06-.17-.1-.25-.07,0,0-1.61.36-2.24.51.17-.62.61-2.22.61-2.22.01-.02.01-.05.01-.07,0-.06-.02-.14-.07-.18-.06-.07-.16-.11-.25-.1,0,0-1.64.21-2.29.3.22-.6.8-2.16.8-2.16.01-.03.02-.06.02-.1,0-.06-.02-.12-.05-.17-.05-.07-.15-.12-.24-.12,0,0-1.65.07-2.3.1.28-.58.99-2.07.99-2.07.02-.04.03-.08.03-.12,0-.05-.01-.1-.04-.15-.05-.08-.14-.14-.23-.14,0,0-1.65-.07-2.3-.11.33-.55,1.17-1.98,1.17-1.98.03-.04.04-.1.04-.15,0-.04-.01-.08-.03-.13-.04-.08-.13-.15-.21-.16,0,0-1.64-.22-2.29-.32.38-.52,1.34-1.86,1.34-1.86.03-.05.05-.11.05-.17,0-.03-.01-.06-.02-.1-.03-.08-.11-.16-.2-.18,0,0-1.62-.37-2.24-.52.42-.49,1.51-1.74,1.51-1.74.04-.05.07-.12.07-.18,0-.02,0-.05-.01-.07-.02-.1-.1-.16-.18-.19,0,0-1.58-.52-2.19-.72.47-.44,1.66-1.59,1.66-1.59.05-.05.08-.13.08-.2v-.05c-.02-.1-.07-.17-.17-.21,0,0-1.52-.66-2.12-.91.51-.4,1.8-1.44,1.8-1.44.06-.05.11-.14.11-.22v-.02c-.01-.1-.06-.18-.15-.22,0,0-1.46-.79-2.02-1.1.54-.36,1.92-1.27,1.92-1.27.07-.05.13-.14.13-.23h0c0-.1-.04-.18-.13-.23,0,0-1.38-.92-1.92-1.27.57-.31,2.03-1.1,2.03-1.1.08-.04.14-.13.15-.22v-.02c0-.08-.04-.17-.11-.22,0,0-1.29-1.04-1.8-1.44.59-.25,2.12-.91,2.12-.91.08-.04.15-.12.17-.21v-.05c0-.07-.03-.15-.08-.2,0,0-1.2-1.14-1.66-1.59.61-.2,2.18-.71,2.18-.71.08-.03.16-.11.18-.19.01-.02.01-.05.01-.07,0-.06-.02-.14-.07-.18,0,0-1.09-1.25-1.51-1.74.64-.15,2.24-.52,2.24-.52.1-.02.17-.08.2-.18.01-.03.02-.06.02-.1,0-.06-.02-.12-.05-.17,0,0-.97-1.34-1.35-1.86.65-.08,2.29-.32,2.29-.32.1-.01.17-.07.21-.16.02-.04.03-.08.03-.13,0-.05-.01-.1-.04-.15,0,0-.85-1.42-1.17-1.98.65-.03,2.3-.11,2.3-.11.1,0,.18-.05.23-.14.02-.04.04-.1.04-.15,0-.04-.01-.08-.03-.12,0,0-.72-1.49-.99-2.07.65.03,2.3.1,2.3.1.1,0,.18-.04.24-.12.03-.05.05-.11.05-.17,0-.03-.01-.06-.02-.1,0,0-.58-1.55-.8-2.16.65.08,2.29.31,2.29.31.1.01.19-.02.25-.1.04-.05.07-.12.07-.18,0-.02,0-.05-.01-.07,0,0-.43-1.6-.6-2.22.64.15,2.24.51,2.24.51.1.02.19,0,.25-.07.05-.05.08-.13.08-.2v-.05s-.3-1.63-.4-2.26c.61.2,2.19.71,2.19.71.08.03.19.01.26-.05.06-.05.11-.14.11-.22v-.02s-.15-1.65-.2-2.3c.59.25,2.12.9,2.12.9.08.03.19.03.26-.02s.13-.14.13-.23v-2.31c.57.31,2.03,1.09,2.03,1.09.08.04.18.04.26,0s.14-.13.15-.22c0,0,.15-1.65.21-2.3.54.36,1.93,1.26,1.93,1.26.07.05.18.06.26.02.08-.03.15-.12.17-.21,0,0,.3-1.63.41-2.26.51.4,1.8,1.43,1.8,1.43.07.06.17.07.26.04.08-.03.16-.11.18-.19,0,0,.44-1.6.61-2.22.47.44,1.67,1.59,1.67,1.59.06.06.17.1.25.07.1-.02.17-.08.2-.17,0,0,.58-1.55.81-2.15.42.49,1.51,1.74,1.51,1.74.06.07.16.11.25.1.1-.01.17-.07.21-.16,0,0,.72-1.49,1.01-2.07.38.52,1.35,1.86,1.35,1.86.05.06.15.11.24.11h0Z"/>
          <path id="_250597160" data-name=" 250597160" class="cls-1" d="m172.87,44.23l-2.24,2.24c-.05.05-.07.12-.08.18,0,0-.06.93-.07,1.1-.15.15-9.65,9.65-9.8,9.8-.17.01-1.1.07-1.1.07-.06,0-.13.03-.18.08l-2.24,2.24c-.05.05-.08.13-.08.2s.03.15.08.2l2.34,2.34c.05.05.13.08.2.08h0c.07,0,.15-.03.2-.08l2.24-2.24c.05-.05.07-.12.08-.18,0,0,.06-.93.07-1.1.15-.15,9.65-9.65,9.8-9.8.18-.01,1.1-.07,1.1-.07.06,0,.13-.03.18-.08l2.24-2.24c.05-.05.08-.13.08-.2h0c0-.07-.03-.15-.08-.2l-2.34-2.34c-.12-.11-.3-.11-.4,0h0Zm.2.6c.31.31,1.64,1.64,1.95,1.95-.32.32-1.84,1.84-1.97,1.97-.18.01-1.1.07-1.1.07-.06,0-.13.03-.18.08l-9.95,9.95c-.05.05-.07.12-.08.18,0,0-.06.93-.07,1.1-.13.13-1.65,1.65-1.97,1.97-.31-.31-1.64-1.64-1.94-1.95.32-.32,1.84-1.84,1.97-1.97.18-.01,1.1-.07,1.1-.07.06,0,.13-.03.18-.08l9.95-9.95c.05-.05.07-.12.08-.18,0,0,.06-.93.07-1.1.11-.13,1.64-1.65,1.96-1.97h0Zm-3.48-3.8l-2.24,2.24c-.05.05-.07.12-.08.18,0,0-.06.93-.07,1.1-.15.15-9.65,9.65-9.8,9.8-.18.01-1.1.07-1.1.07-.06,0-.13.03-.18.08l-2.24,2.24c-.05.05-.08.13-.08.2h0c0,.07.03.15.08.2l2.34,2.34c.11.11.29.11.4,0l2.24-2.24c.05-.05.07-.12.08-.18,0,0,.06-.93.07-1.1.15-.15,9.65-9.65,9.8-9.8.17-.01,1.1-.07,1.1-.07.06,0,.13-.03.18-.08l2.24-2.24c.05-.05.08-.13.08-.2h0c0-.07-.03-.15-.08-.2l-2.34-2.34c-.12-.12-.3-.12-.4,0Zm.2.59c.31.31,1.64,1.64,1.95,1.95-.32.32-1.84,1.84-1.97,1.97-.17.01-1.1.07-1.1.07-.06,0-.13.03-.18.08l-9.95,9.95c-.05.05-.07.12-.08.18,0,0-.06.93-.07,1.1-.13.13-1.65,1.65-1.97,1.97-.31-.31-1.64-1.64-1.95-1.95.32-.32,1.84-1.84,1.97-1.97.18-.01,1.1-.07,1.1-.07.06,0,.13-.03.18-.08l9.95-9.95c.05-.05.07-.12.08-.18,0,0,.06-.93.07-1.1.12-.12,1.64-1.65,1.97-1.97Zm-3.25-3.92c-.07,0-.15.03-.2.08l-2.24,2.24c-.05.05-.07.12-.08.18,0,0-.06.93-.07,1.1-.15.15-9.65,9.65-9.8,9.8-.18.01-1.1.07-1.1.07-.06,0-.13.03-.18.08l-2.24,2.24c-.05.05-.08.13-.08.2h0c0,.07.03.15.08.2l2.34,2.34c.11.11.29.11.4,0l2.24-2.24c.05-.05.07-.12.08-.18,0,0,.06-.93.07-1.1.15-.15,9.65-9.65,9.8-9.8.18-.01,1.1-.07,1.1-.07.06,0,.13-.03.18-.08l2.24-2.24c.05-.05.08-.13.08-.2s-.03-.15-.08-.2l-2.34-2.34c-.05-.06-.13-.08-.2-.08h0Zm0,.68c.31.31,1.64,1.64,1.95,1.95-.32.32-1.84,1.84-1.97,1.97-.18.01-1.1.07-1.1.07-.06,0-.13.03-.18.08l-9.95,9.95c-.05.05-.07.12-.08.18,0,0-.06.93-.07,1.1-.13.13-1.65,1.65-1.97,1.97-.31-.31-1.64-1.64-1.95-1.95.32-.32,1.84-1.84,1.97-1.97.17-.01,1.1-.07,1.1-.07.06,0,.13-.03.18-.08l9.95-9.95c.05-.05.07-.12.08-.18,0,0,.06-.93.07-1.1.13-.13,1.65-1.65,1.97-1.97Zm-19.77,32.07c-.07,0-.15.03-.2.08l-2.24,2.24c-.05.05-.07.12-.08.18,0,0-.06.93-.07,1.1l-9.8,9.8c-.18.01-1.1.07-1.1.07-.06,0-.13.03-.18.08l-2.24,2.24c-.05.05-.08.13-.08.2h0c0,.07.03.15.08.2l2.34,2.34c.05.05.13.08.2.08s.15-.03.2-.08l2.24-2.24c.05-.05.07-.12.08-.18,0,0,.06-.93.07-1.1.15-.15,9.65-9.65,9.8-9.8.17-.01,1.1-.07,1.1-.07.06,0,.13-.03.18-.08l2.24-2.24c.05-.05.08-.13.08-.2s-.03-.15-.08-.2l-2.34-2.34c-.06-.06-.13-.08-.2-.08h0Zm0,.68c.31.31,1.64,1.64,1.95,1.95-.32.32-1.84,1.84-1.97,1.97-.17.01-1.1.07-1.1.07-.06,0-.13.03-.18.08l-9.95,9.95c-.05.05-.07.12-.08.18,0,0-.06.93-.07,1.1l-1.97,1.97c-.31-.31-1.64-1.64-1.95-1.94l1.97-1.97c.17-.01,1.1-.07,1.1-.07.06,0,.13-.03.18-.08l9.95-9.95c.05-.05.07-.12.08-.18,0,0,.06-.93.07-1.1.12-.14,1.65-1.66,1.97-1.98h0Zm-3.41-3.88l-2.24,2.24c-.05.05-.07.12-.08.18,0,0-.06.93-.07,1.1l-9.8,9.8c-.18.01-1.1.07-1.1.07-.06,0-.13.03-.18.08l-2.24,2.24c-.05.05-.08.13-.08.2s.03.15.08.2l2.34,2.34c.05.05.13.08.2.08s.15-.03.2-.08l2.24-2.24c.05-.05.07-.12.08-.18,0,0,.06-.93.07-1.1.15-.15,9.65-9.65,9.8-9.8.18-.01,1.1-.07,1.1-.07.06,0,.13-.03.18-.08l2.24-2.24c.05-.05.08-.13.08-.2s-.03-.15-.08-.2l-2.34-2.34c-.11-.11-.29-.11-.4,0h0Zm.2.6c.31.31,1.64,1.64,1.94,1.95-.32.32-1.84,1.84-1.97,1.97-.17.01-1.1.07-1.1.07-.06,0-.13.03-.18.08l-9.95,9.95c-.05.05-.07.12-.08.18,0,0-.06.93-.07,1.1l-1.97,1.97-1.95-1.95,1.97-1.97c.17-.01,1.1-.07,1.1-.07.06,0,.13-.03.18-.08l9.95-9.95c.05-.05.07-.12.08-.18,0,0,.06-.93.07-1.1.14-.13,1.66-1.65,1.98-1.97h0Zm-3.24-3.93c-.07,0-.15.03-.2.08l-2.24,2.24c-.05.05-.07.12-.08.18,0,0-.06.93-.07,1.1-.15.15-9.65,9.65-9.8,9.8-.17.01-1.1.07-1.1.07-.06,0-.13.03-.18.08l-2.24,2.24c-.05.05-.08.13-.08.2h0c0,.07.03.15.08.2l2.34,2.34c.05.05.13.08.2.08h0c.07,0,.15-.03.2-.08l2.24-2.24c.05-.05.07-.12.08-.18,0,0,.06-.93.07-1.1.15-.15,9.65-9.65,9.8-9.8.17-.01,1.1-.07,1.1-.07.06,0,.13-.03.18-.08l2.24-2.24c.05-.05.08-.13.08-.2s-.03-.15-.08-.2l-2.34-2.34c-.06-.05-.13-.08-.2-.08Zm0,.68c.31.31,1.64,1.64,1.95,1.95-.32.32-1.84,1.84-1.97,1.97-.18.01-1.1.07-1.1.07-.06,0-.13.03-.18.08l-9.95,9.95c-.05.05-.07.12-.08.18,0,0-.06.93-.07,1.1l-1.97,1.97c-.31-.31-1.64-1.64-1.94-1.95l1.97-1.97c.18-.01,1.1-.07,1.1-.07.06,0,.13-.03.18-.08l9.95-9.95c.05-.05.07-.12.08-.18,0,0,.06-.93.07-1.1.11-.12,1.64-1.65,1.96-1.97h0Zm19.36-.64c-.07,0-.15.03-.2.08l-2.34,2.34c-.05.05-.08.13-.08.2s.03.15.08.2l2.24,2.24c.05.05.12.07.18.08,0,0,.93.06,1.1.07.15.15,9.65,9.65,9.8,9.8.01.17.07,1.1.07,1.1,0,.06.03.13.08.18l2.24,2.24c.05.05.13.08.2.08h0c.07,0,.15-.03.2-.08l2.34-2.34c.05-.05.08-.13.08-.2s-.03-.15-.08-.2l-2.24-2.24c-.05-.05-.12-.07-.18-.08,0,0-.93-.06-1.1-.07-.15-.15-9.65-9.65-9.8-9.8-.01-.18-.07-1.1-.07-1.1,0-.06-.03-.13-.08-.18l-2.24-2.24c-.05-.05-.13-.08-.2-.08Zm0,.68c.32.32,1.84,1.84,1.97,1.97.01.17.07,1.1.07,1.1,0,.06.03.13.08.18l9.95,9.95c.05.05.12.07.18.08,0,0,.93.06,1.1.07.13.13,1.65,1.65,1.97,1.97-.31.31-1.64,1.64-1.95,1.95-.32-.32-1.84-1.84-1.97-1.97-.01-.17-.07-1.1-.07-1.1,0-.06-.03-.13-.08-.18l-9.95-9.95c-.05-.05-.12-.07-.18-.08,0,0-.93-.06-1.1-.07-.13-.13-1.65-1.65-1.97-1.97.31-.31,1.64-1.64,1.95-1.95h0Zm-3.48,2.6l-2.34,2.34c-.05.05-.08.13-.08.2s.03.15.08.2l2.24,2.24c.05.05.12.07.18.08,0,0,.93.06,1.1.07.15.15,9.65,9.65,9.8,9.8.01.18.07,1.1.07,1.1,0,.06.03.13.08.18l2.24,2.24c.05.05.13.08.2.08h0c.07,0,.15-.03.2-.08l2.34-2.34c.05-.05.08-.13.08-.2h0c0-.07-.03-.15-.08-.2l-2.24-2.24c-.04-.05-.12-.07-.18-.08,0,0-.93-.06-1.1-.07-.15-.15-9.65-9.65-9.8-9.8-.01-.17-.07-1.1-.07-1.1,0-.06-.03-.13-.08-.18l-2.24-2.24c-.12-.11-.3-.11-.4,0h0Zm.2.6c.32.32,1.84,1.84,1.97,1.97.01.17.07,1.1.07,1.1,0,.06.03.13.08.18l9.95,9.95c.05.05.12.07.18.08,0,0,.93.06,1.1.07.13.13,1.65,1.65,1.97,1.97-.31.31-1.64,1.64-1.95,1.95-.32-.32-1.84-1.84-1.97-1.97-.01-.18-.07-1.1-.07-1.1,0-.06-.03-.13-.08-.18l-9.95-9.95c-.05-.05-.12-.07-.18-.08,0,0-.93-.06-1.1-.07-.13-.13-1.65-1.65-1.97-1.97.31-.31,1.64-1.65,1.95-1.95Zm-3.25,2.56c-.07,0-.15.03-.2.08l-2.34,2.34c-.05.05-.08.13-.08.2h0c0,.07.03.15.08.2l2.24,2.24c.05.05.12.07.18.08,0,0,.93.06,1.1.07.15.15,9.65,9.65,9.8,9.8.01.18.07,1.1.07,1.1,0,.06.03.13.08.18l2.24,2.24c.11.11.29.11.4,0l2.34-2.34c.05-.05.08-.13.08-.2s-.03-.15-.08-.2l-2.24-2.24c-.05-.05-.12-.07-.18-.08,0,0-.93-.06-1.1-.07-.15-.15-9.65-9.65-9.8-9.8-.01-.18-.07-1.1-.07-1.1,0-.06-.03-.13-.08-.18l-2.24-2.24c-.05-.05-.13-.08-.2-.08h0Zm0,.68c.32.32,1.84,1.84,1.97,1.97.01.17.07,1.1.07,1.1,0,.06.03.13.08.18l9.95,9.95c.05.05.12.07.18.08,0,0,.93.06,1.1.07.13.13,1.65,1.65,1.97,1.97-.31.31-1.64,1.64-1.95,1.95-.32-.32-1.84-1.84-1.97-1.97-.01-.17-.07-1.1-.07-1.1,0-.06-.03-.13-.08-.18l-9.95-9.95c-.05-.05-.12-.07-.18-.08,0,0-.93-.06-1.1-.07-.13-.13-1.65-1.65-1.97-1.97.31-.31,1.65-1.64,1.95-1.95Zm-19.77-33.42c-.07,0-.15.03-.2.08l-2.34,2.34c-.05.05-.08.13-.08.2h0c0,.07.03.15.08.2l2.24,2.24c.05.05.12.07.18.08,0,0,.93.06,1.1.07.15.15,9.65,9.65,9.8,9.8.01.18.07,1.1.07,1.1,0,.06.03.13.08.18l2.24,2.24c.05.05.13.08.2.08s.15-.03.2-.08l2.34-2.34c.05-.05.08-.13.08-.2h0c0-.07-.03-.15-.08-.2l-2.24-2.24c-.05-.05-.12-.07-.18-.08,0,0-.93-.06-1.1-.07-.15-.15-9.65-9.65-9.8-9.8-.01-.18-.07-1.1-.07-1.1,0-.06-.03-.13-.08-.18l-2.24-2.24c-.06-.05-.13-.08-.2-.08h0Zm0,.68c.32.32,1.84,1.84,1.97,1.97.01.17.07,1.1.07,1.1,0,.06.03.13.08.18l9.95,9.95c.05.05.12.07.18.08,0,0,.93.06,1.1.07.13.13,1.65,1.65,1.97,1.97-.31.31-1.64,1.64-1.95,1.95-.32-.32-1.84-1.84-1.97-1.97-.01-.17-.07-1.1-.07-1.1,0-.06-.03-.13-.08-.18l-9.95-9.95c-.05-.05-.12-.07-.18-.08,0,0-.93-.06-1.1-.07-.13-.13-1.65-1.65-1.97-1.97.31-.31,1.64-1.64,1.95-1.95h0Zm-3.41,2.69l-2.34,2.34c-.05.05-.08.13-.08.2s.03.15.08.2l2.24,2.24c.05.05.12.07.18.08,0,0,.93.06,1.1.07.15.15,9.65,9.65,9.8,9.8.01.18.07,1.1.07,1.1,0,.06.03.13.08.18l2.24,2.24c.11.11.29.11.4,0l2.34-2.34c.05-.05.08-.13.08-.2s-.03-.15-.08-.2l-2.24-2.24c-.05-.05-.12-.07-.18-.08,0,0-.93-.06-1.1-.07-.15-.15-9.65-9.65-9.8-9.8-.01-.17-.07-1.1-.07-1.1,0-.06-.03-.13-.08-.18l-2.24-2.24c-.11-.12-.29-.12-.4,0h0Zm.2.59c.32.32,1.84,1.84,1.97,1.97.01.17.07,1.1.07,1.1,0,.06.03.13.08.18l9.95,9.95c.05.05.12.07.18.08,0,0,.93.06,1.1.07.13.13,1.65,1.65,1.97,1.97-.31.31-1.64,1.64-1.94,1.95-.32-.32-1.84-1.84-1.97-1.97-.01-.18-.07-1.1-.07-1.1,0-.06-.03-.13-.08-.18l-9.95-9.95c-.05-.05-.12-.07-.18-.08,0,0-.93-.06-1.1-.07-.13-.13-1.65-1.65-1.97-1.97.3-.31,1.64-1.64,1.94-1.95h0Zm-3.44,2.65l-2.34,2.34c-.05.05-.08.13-.08.2s.03.15.08.2l2.24,2.24c.05.05.12.07.18.08,0,0,.93.06,1.1.07.15.15,9.65,9.65,9.8,9.8.01.18.07,1.1.07,1.1,0,.06.03.13.08.18l2.24,2.24c.11.11.29.11.4,0l2.34-2.34c.05-.05.08-.13.08-.2s-.03-.15-.08-.2l-2.24-2.24c-.05-.05-.12-.07-.18-.08,0,0-.93-.06-1.1-.07-.15-.15-9.65-9.65-9.8-9.8-.01-.17-.07-1.1-.07-1.1,0-.06-.03-.13-.08-.18l-2.24-2.24c-.12-.11-.3-.11-.4,0Zm.2.6c.32.32,1.84,1.84,1.97,1.97.01.17.07,1.1.07,1.1,0,.06.03.13.08.18l9.95,9.95c.05.05.12.07.18.08,0,0,.93.06,1.1.07.13.13,1.65,1.65,1.97,1.97-.31.31-1.64,1.64-1.95,1.95-.32-.32-1.84-1.84-1.97-1.97-.01-.17-.07-1.1-.07-1.1,0-.06-.03-.13-.08-.18l-9.95-9.95c-.05-.05-.12-.07-.18-.08,0,0-.93-.06-1.1-.07-.13-.13-1.65-1.65-1.97-1.97.31-.31,1.64-1.65,1.95-1.95h0Zm22.85,22.45l-2.34,2.34c-.11.11-.11.29,0,.4l2.34,2.34c.11.11.29.11.4,0l2.34-2.34c.11-.11.11-.29,0-.4l-2.34-2.34c-.05-.05-.13-.08-.2-.08-.08,0-.15.03-.2.08h0Zm.19.59c.31.31,1.64,1.64,1.95,1.95-.31.31-1.64,1.64-1.95,1.95-.31-.31-1.64-1.64-1.95-1.95.31-.31,1.65-1.64,1.95-1.95Zm-3.44-3.84l-2.34,2.34c-.05.05-.08.13-.08.2s.03.15.08.2l2.34,2.34c.11.11.29.11.4,0l2.34-2.34c.11-.11.11-.29,0-.4l-2.34-2.34c-.05-.05-.13-.08-.2-.08-.07.01-.15.03-.2.08h0Zm.2.6c.31.31,1.64,1.64,1.95,1.95-.31.31-1.64,1.64-1.95,1.95-.31-.31-1.64-1.64-1.95-1.95.31-.31,1.64-1.65,1.95-1.95Zm-3.44-3.84l-2.34,2.34c-.05.05-.08.13-.08.2s.03.15.08.2l2.34,2.34c.11.11.29.11.4,0l2.34-2.34c.11-.11.11-.29,0-.4l-2.34-2.34c-.12-.11-.3-.11-.4,0Zm.2.59c.31.31,1.64,1.64,1.95,1.95-.31.31-1.64,1.64-1.95,1.95-.31-.31-1.64-1.64-1.95-1.95.31-.31,1.64-1.64,1.95-1.95Zm3.04-3.83l-2.34,2.34c-.05.05-.08.13-.08.2s.03.15.08.2l2.34,2.34c.11.11.29.11.4,0l2.34-2.34c.11-.11.11-.29,0-.4l-2.34-2.34c-.05-.05-.13-.08-.2-.08-.07,0-.15.03-.2.08h0Zm.2.59c.31.31,1.64,1.64,1.95,1.95-.31.31-1.64,1.64-1.95,1.95-.31-.31-1.64-1.64-1.95-1.95.31-.31,1.64-1.64,1.95-1.95Zm3.05,2.65l-2.34,2.34c-.11.11-.11.29,0,.4l2.34,2.34c.11.11.29.11.4,0l2.34-2.34c.11-.11.11-.29,0-.4l-2.34-2.34c-.12-.11-.3-.11-.4,0Zm.19.59c.31.31,1.64,1.64,1.95,1.95-.31.31-1.64,1.64-1.95,1.95-.31-.31-1.64-1.64-1.94-1.95.3-.31,1.64-1.64,1.94-1.95Zm3.25,2.57c-.07,0-.15.03-.2.08l-2.34,2.34c-.11.11-.11.29,0,.4l2.34,2.34c.11.11.29.11.4,0l2.34-2.34c.05-.05.08-.13.08-.2s-.03-.15-.08-.2l-2.34-2.34c-.06-.06-.13-.08-.2-.08Zm0,.68c.31.31,1.64,1.64,1.95,1.95-.31.31-1.64,1.64-1.95,1.95-.31-.31-1.64-1.64-1.95-1.95.31-.31,1.64-1.65,1.95-1.95Zm3.04-3.84l-2.34,2.34c-.05.05-.08.13-.08.2s.03.15.08.2l2.34,2.34c.05.05.13.08.2.08s.15-.03.2-.08l2.34-2.34c.11-.11.11-.29,0-.4l-2.34-2.34c-.05-.05-.13-.08-.2-.08-.07,0-.15.03-.2.08Zm.2.59c.31.31,1.64,1.64,1.94,1.95-.3.31-1.64,1.64-1.94,1.95-.31-.31-1.64-1.64-1.95-1.95.31-.31,1.65-1.64,1.95-1.95Zm-3.24-3.92c-.07,0-.15.03-.2.08l-2.34,2.34c-.11.11-.11.29,0,.4l2.34,2.34c.11.11.29.11.4,0l2.34-2.34c.05-.05.08-.13.08-.2s-.03-.15-.08-.2l-2.34-2.34c-.06-.05-.13-.08-.2-.08Zm0,.68c.31.31,1.64,1.64,1.95,1.95-.31.31-1.64,1.64-1.95,1.95-.31-.31-1.64-1.64-1.95-1.95.31-.31,1.64-1.64,1.95-1.95Zm-3.44-3.84l-2.34,2.34c-.11.11-.11.29,0,.4l2.34,2.34c.11.11.29.11.4,0l2.34-2.34c.11-.11.11-.29,0-.4l-2.34-2.34c-.05-.05-.13-.08-.2-.08-.08.01-.15.03-.2.08h0Zm.19.6c.31.31,1.64,1.64,1.95,1.95-.31.31-1.64,1.64-1.95,1.94-.31-.31-1.64-1.64-1.95-1.94.31-.31,1.65-1.65,1.95-1.95Z"/>
        </g>
      </g>
      <g>
        <path class="cls-1" d="m89.84,271.5l-5.37-2.84-2.08,2.13-4.83-2.55,13.85-12.26,5.16,2.73-2.34,18.35-4.95-2.62.57-2.93Zm.77-3.83l1.22-6.4-4.58,4.62,3.36,1.78Z"/>
        <path class="cls-1" d="m104.54,274.97l4.97,1.17c-.13.82-.1,1.49.1,2,.32.83.98,1.39,1.96,1.69.73.22,1.35.22,1.85,0,.5-.22.82-.56.95-1.01.13-.43.06-.87-.22-1.32-.27-.45-1.05-1.04-2.33-1.75-2.09-1.18-3.49-2.34-4.2-3.46-.71-1.13-.87-2.34-.48-3.64.26-.85.75-1.58,1.47-2.19.72-.61,1.65-.98,2.77-1.11s2.55.06,4.27.58c2.12.64,3.61,1.52,4.49,2.65.87,1.12,1.16,2.58.85,4.36l-4.91-1.18c.1-.78,0-1.41-.32-1.87-.31-.46-.82-.8-1.55-1.02-.6-.18-1.08-.19-1.46-.03-.38.16-.62.42-.73.78-.08.26-.03.54.16.83.17.29.69.67,1.53,1.13,2.09,1.16,3.55,2.13,4.37,2.92.82.79,1.34,1.61,1.56,2.48.22.86.19,1.75-.08,2.65-.32,1.06-.91,1.95-1.77,2.67-.86.72-1.89,1.15-3.08,1.3-1.2.14-2.6-.03-4.2-.51-2.82-.85-4.61-1.98-5.36-3.4s-.96-2.98-.59-4.7Z"/>
        <path class="cls-1" d="m129.49,269.78l16.17,1.72-.45,4.25-5.43-.58-1.38,12.97-5.32-.57,1.38-12.97-5.43-.58.45-4.25Z"/>
        <path class="cls-1" d="m163.34,285.23l-6.06.43-.64,2.91-5.45.38,5.27-17.73,5.82-.41,7.71,16.82-5.59.39-1.07-2.79Zm-1.37-3.66l-2.34-6.08-1.45,6.34,3.79-.27Z"/>
        <path class="cls-1" d="m175.52,269.07l4.81-1.35,8.86,7.47-2.58-9.22,4.86-1.36,4.67,16.67-4.86,1.36-8.81-7.41,2.57,9.16-4.85,1.36-4.67-16.67Z"/>
        <path class="cls-1" d="m215.38,269.44l-5.4,2.78.56,2.93-4.86,2.5-2.13-18.38,5.19-2.67,13.71,12.42-4.98,2.56-2.08-2.15Zm-2.7-2.82l-4.55-4.66,1.17,6.4,3.38-1.74Z"/>
      </g>
    </g>
  </g>
</svg>