<svg xmlns="http://www.w3.org/2000/svg" width="757.297" height="720.33002"><path fill="#FF0" d="M756.2967,275.37784 145.24873,719.32993 378.64834,1.00024 612.0478,719.32983 1,275.37784"/><path fill="#EE1C25" d="M663.9653,305.37814 202.31272,640.78813 378.64837,98.08314 554.9839,640.78813 93.33143,305.37814"/><path fill="#FF0" d="m299.03144,427.56545c41.59225,-6.62059 58.24489,-37.852 60.65252,-63.28254l-32.06362,-0.018c-7.66429,36.40956 -18.66933,45.3522 -28.5889,63.3001M313.787,328.89138c1.3411,9.22186 1.89222,13.37171 5.53334,22.59358h84.38337c0.56195,29.84385 18.82126,55.91137 38.73329,76.08049l22.59444,-24.89906C445.25291,381.55471 425.57727,373.2139 428.14258,345.49075l10.08846,-9.1148 -24.95106,-23.10581 -20.18184,15.62124M304.56477,459.842h115.27779l17.57821,-15.94729 17.46631,18.71387 -23.97789,17.52156H314.70922c-5.13925,-3.38957 -7.49743,-10.87663 -10.14445,-20.28814"/></svg>