<?xml version="1.0" encoding="utf-8"?>
<!-- Generator: Adobe Illustrator 22.0.1, SVG Export Plug-In . SVG Version: 6.00 Build 0)  -->
<svg version="1.1" id="레이어_1" xmlns="http://www.w3.org/2000/svg" xmlns:xlink="http://www.w3.org/1999/xlink" x="0px"
	 y="0px" viewBox="0 0 626 516" style="enable-background:new 0 0 626 516;" xml:space="preserve">
<style type="text/css">
	.st0{fill:#7C6E32;}
	.st1{fill:#FFFFFF;}
	.st2{fill:#F9C300;}
	.st3{fill:#133481;}
	.st4{fill:#C2231F;}
</style>
<g>
	<path class="st0" d="M317,94c0,0-10,7-14,16s-31,33-20,49s0,23,17,32s41-7,45-41c0,0-19.5,35.5-34.5,34.5s-7-19,0-23s39-29,41-36
		c0,0-9,2-18,10s-25,24-30,19s22-21,26-27s13-27,26-34c0,0-9-4-18,6s-21,33-33,35s-9-4-4-10S316.5,106.5,317,94z"/>
	<path class="st0" d="M305,281.5c0,0-9.3,29.6-15.7,34.2c-6.5,4.6-9.3,28.7-3.7,37c5.6,8.3-13,1.9-18.5,18.5
		c-5.6,16.7-0.9,36.1,10.2,43.5c11.1,7.4,15.7,7.4,18.5,13c2.8,5.6,5.6,23.1,27.8,20.4c22.2-2.8,12-8.3,2.8-8.3
		c-9.3,0-18.5-2.8-8.3-12c3.7-4.6,5.6,9.3,13.9,4.6c8.3-4.6,7.4-19.4,15.7-21.3c8.3-1.9,19.4-10.2,21.3-15.7
		c1.9-5.6-11.1,2.8-23.1,3.7c-12,0.9-10.6,17.1-17.1,17.1s-5.6-8.3-0.9-15.7s9.3,5.6,18.5-12c9.3-17.6,19.4-20.4,17.6-23.1
		c-1.9-2.8-22.2,19.4-25.9,18.5c-3.7-0.9,12-14.8,13-22.2s8.3-19.4,6.5-21.3c-1.9-1.9-12,17.6-14.8,20.4
		c-2.8,2.8-11.1,23.1-16.7,27.8c-5.6,4.6-16.7,0.9-21.3,9.3c-4.6,8.3-17.6,13.9-13.9,1.9c3.7-12,37-25.9,42.6-37
		c5.6-11.1-21.3,15.7-28.7,11.1c-7.4-4.6,7.4-11.1,14.8-14.8c7.4-3.7,25-18.5,25-27.8c0,0-22.2,18.5-30.5,18.5s-4.6-13,0-20.4
		s21.3-4.6,20.4-29.6c0,0-9.3,16.7-13,15.7s3.7-32.4,0-38c0,0-14.8,27.8-13.9,36.1s-4.6,31.5-8.3,30.5c-3.7-0.9-7.4-8.3-4.6-17.6
		C297.1,317.2,308.2,297.7,305,281.5z"/>
	<g>
		<path class="st0" d="M521.5,252.5c2,0-33-27-41-30s-29-5-29-9s9-7,8-11s-8,4-19,4s-23-14-27.5-11.5c0,0-8,3-11,6s-20-15-28-8
			s-17,6-16,8s6,8,10,8s-2,9,4,9s10,1,13,4s6,8,9,7s2,7,7,6s-3,6-9,6s-18,1-20-5s-8-4-11-2s-9,6-3,8s15,1,18,10s-7,13-6,33
			s13,30,27,35c0,0,1,17,14,18s25-2,24,11s-22,30-29,28s8-18,6-22s-13-14-15-11s7,10,6,14s-3,15-9,5s-8-15-15-14s4,4,5,12s5,14,0,12
			s-12-6-15,2s-2,15,0,15s4-13,7-11s8-3,14,5s7,19,15,12s57-43,62-48c0.4-0.4,0.6-0.9,0.7-1.5c6.6-3.8,31-18.1,37.1-29
			c0.9-2.5-27.2,17-38.1,24.6c-0.5-1-1-2.1-1.7-3.3c9.1-5.4,32.8-20.1,39.3-31.4c1.1-2.8-29.6,18.8-41.8,27.4
			c-0.8-1.2-1.6-2.5-2.4-3.8c10-5.7,32.8-19.7,39.2-30.7c1.1-2.7-28.7,17.6-41.8,26.6c-0.7-1.1-1.3-2.2-1.9-3.2
			c10.9-6.6,35-22.1,41.9-34.1c1.2-2.9-29.7,18.8-44.2,29.2c-0.6-1.9-0.8-3.6-0.3-4.9l15-10c0,0-40.1-2.4-42.4-29.1
			c9.1,5.4,19.1,10.4,26.2,11.1c3.3-0.1-36.5-23.9-45.4-29.2c1.1-1.7,3.6-4,8.1-3.4c3.2,0.5,6.7,2.3,9.7,4.3
			c0.2,0.2,24.9,21.2,37.8,23.2c2.2,0-18.9-14.6-30.2-22.4c0.4-1.2,1-2.7,1.6-4.4c5.5,4.6,27.9,22.8,40.4,24.8
			c2.9,0-30.3-22.9-38.8-28.7c0.6-1.4,1.2-2.8,1.8-4.2c5.6,4.1,32.5,23.4,47,24.9c3.3-0.1-35.4-23.2-45-28.9
			c0.9-1.7,1.8-3.4,2.7-5.1c4.6,3.5,32.7,24.5,47.6,26.1c3.3-0.1-35.4-23.9-45.2-29.9c0.8-1.2,1.6-2.2,2.5-3.2
			c6.8,4.9,36,25.5,51.8,27.1c3.4-0.1-34.7-22.8-47.9-30.5c1.4-0.8,2.8-1.3,4.2-1.1c0.2,0,0.4,0,0.6,0.1c7.9,5.7,35.8,25,51.1,26.6
			c2.8-0.1-22.5-15.5-38.9-25.2c8.6,1.3,17.3,3.5,23.2,7.5C499.5,240.5,519.5,252.5,521.5,252.5z"/>
		<path class="st1" d="M361,202c0,0,4,4,8,5s1,8,3,9s9-1,11,2s8,9,10,9s5,3,6,5s3,1,3,0s-8-7-9-10s-3-7-7-8s-3-5-6-6s-6-5-8-5
			s-3-3-4-3C368,200,360,201,361,202z"/>
		<path class="st1" d="M365,234c0,0-7,3-5,5s13,3,15,6s7,10,4,15s8,6,12,2s4-12,7-14s-10,0-7-3s0-2-4-2s-11,0-17-5
			C368,236,369,233,365,234z"/>
		<g>
			<path class="st1" d="M387.1,297c-1.5-2-2.6-4.4-3.3-7.1c-4.6-0.5-8.7-1.6-11.8-2.7c0.4,4.4,1.7,9.1,4.4,13.7
				C379.5,300.1,383.3,298.9,387.1,297z"/>
			<path class="st1" d="M383.8,279.9c-4.3-1.6-8-3.7-10.7-5.5c-0.7,3-1.2,6.7-1.1,10.7c2.9,1.1,6.9,2.2,11.5,2.8
				C383.2,285.4,383.3,282.8,383.8,279.9z"/>
			<path class="st1" d="M395.7,304.8c-2.5-1.7-5.1-3.7-7.3-6.2c-3.8,2-7.6,3.3-10.7,4.1c2.3,3.4,5.6,6.7,9.9,9.7
				C390.1,310.4,393.1,307.9,395.7,304.8z"/>
			<path class="st1" d="M405.5,312.5c-0.3-2-3.9-3.9-8.1-6.6c-2.6,3.1-5.4,5.6-8,7.6c2.5,1.6,5.4,3.1,8.6,4.5
				C401,318,406.5,318.5,405.5,312.5z"/>
			<path class="st1" d="M384.3,277.9c0.5-2,1.2-4.1,2.2-6.4c0,0-9-3-10.5-5.5c0,0-1.2,2.4-2.3,6.3
				C376.2,274,379.9,276.2,384.3,277.9z"/>
		</g>
		<path class="st1" d="M415,203c0,0-4,0-5,2s-7,0-7,2s7,4,11,4S418,203,415,203z"/>
	</g>
	<g>
		<path class="st0" d="M468,356l33-21c0,0,15,17,4,37s-31,34-31,34l-35-1C439,405,465,387,468,356z"/>
		<path class="st0" d="M412,419l12,26c0,0-34,6-44,23s-39,42-51,42s5-4,2-8s-9-2-9-5s8-3,8-6s-8-3-8-5s6-3,7-6s-8,0-7-4s18,2,24-8
			S391,422,412,419z"/>
		<path class="st0" d="M426,448c0,0-27,8-35,15s-17,27-20,28c0,0,0,7,11,5s20-10,24-6s4,16,2,20s8,1,8-13s7-15,4-19s-17,5-13-6
			S423,461,426,448z"/>
		<path class="st0" d="M484,409c0,0,2-12-19-8s-68,2-82,24c-5,6,14,5,16,8s2,5,8,5s3,7,9,7s2,9,14,9S487,422,484,409z"/>
		<path class="st1" d="M481.1,409.7c-0.1-0.4-0.1-0.8,0-1.2c0,0,0.2-1.7-0.9-3.1c-1.3-1.5-3.8-2.3-7.4-2.3c-2.1,0-4.4,0.3-7.1,0.8
			c-5.1,1-11.8,1.6-18.9,2.3c-21.5,2-50.9,4.8-61,20.1c1.6,0.6,4.5,1.1,6.3,1.4c1.3,0.2,2.5,0.4,3.6,0.7c2.6-1.7,5.3-3.2,8.1-4.4
			c2.8-1.2,5.7-2.1,8.8-2.5c1.6-0.2,2.9-0.3,4.3-0.4c1.4-0.1,2.8-0.3,4.2-0.5c5.7-0.7,11.4-1.7,17-2.8c2.8-0.5,5.7-1.1,8.5-1.7
			c2.8-0.6,5.7-1.2,8.4-2.1c-1.3,0.7-2.6,1.2-4,1.7c-1.4,0.5-2.7,1-4.1,1.4c-2.8,0.9-5.5,1.7-8.3,2.5c-5.6,1.5-11.2,2.8-17,4
			c-1.4,0.3-2.9,0.5-4.3,0.7c-1.4,0.2-3,0.3-4.3,0.6c-2.7,0.4-5.3,1.3-7.8,2.4c-1.8,0.8-3.5,1.7-5.1,2.7c0.6,0.4,1.1,0.8,1.4,1.4
			c0.4,0.5,0.7,1.1,0.9,1.5c0.8,1.4,1.1,1.9,2.6,2.1c1.8-1.2,3.7-2.3,5.7-3.2c2.7-1.3,5.6-2.3,8.7-2.8c1.6-0.3,2.9-0.4,4.3-0.6
			c1.4-0.2,2.8-0.4,4.2-0.7c5.7-0.9,11.3-2.2,16.9-3.4c2.8-0.6,5.6-1.3,8.4-2c2.8-0.7,5.6-1.4,8.3-2.4c-1.2,0.8-2.6,1.3-3.9,1.9
			c-1.3,0.5-2.7,1.1-4.1,1.6c-2.7,1-5.5,1.9-8.2,2.8c-5.5,1.8-11.1,3.3-16.8,4.6c-1.4,0.3-2.9,0.6-4.3,0.9c-1.4,0.3-3,0.5-4.2,0.7
			c-2.6,0.5-5.2,1.5-7.7,2.7c-0.6,0.3-1.1,0.6-1.7,0.9c2.2,1.1,3.1,3.2,3.6,4.5c0.7,1.7,0.8,1.7,1.7,1.7c0.4,0,0.7,0,1.1,0.1
			c1.9-1.1,3.9-2,6.1-2.7c1.5-0.5,2.8-0.8,4.2-1.2c1.4-0.4,2.7-0.8,4.1-1.3c5.5-1.7,10.8-3.8,16.2-5.8c2.7-1,5.4-2.1,8-3.2
			c2.7-1.1,5.3-2.2,7.9-3.6c-1.1,0.9-2.4,1.6-3.6,2.4c-1.3,0.7-2.5,1.4-3.8,2.1c-2.6,1.4-5.1,2.7-7.8,3.9c-5.2,2.5-10.5,4.8-16,7
			c-1.4,0.5-2.7,1-4.1,1.5c-1.4,0.5-2.9,0.9-4.1,1.3c-1.1,0.4-2.2,0.9-3.3,1.5c0.9,1,1.5,2.1,1.9,3c1.2,2.3,2,4,7.2,4
			c7.4,0,34.8-17,46.8-32.1C481.3,413.2,481.3,410.6,481.1,409.7z"/>
	</g>
	<g>
		
			<rect x="395" y="68.3" transform="matrix(0.8613 0.5081 -0.5081 0.8613 138.6795 -234.028)" class="st2" width="206" height="137.3"/>
		
			<rect x="395" y="95.8" transform="matrix(0.8613 0.5081 -0.5081 0.8613 138.6795 -234.028)" class="st3" width="206" height="82.4"/>
		
			<rect x="395" y="114.1" transform="matrix(0.8613 0.5081 -0.5081 0.8613 138.6795 -234.028)" class="st1" width="206" height="45.8"/>
		
			<rect x="395" y="122.5" transform="matrix(0.8613 0.5081 -0.5081 0.8613 138.6795 -234.028)" class="st4" width="206" height="29"/>
		<g>
			<path class="st0" d="M552.4,250.5l-1.3-0.8L372.3,144.3l71.3-120.9l180,106.2L552.4,250.5z M376.5,143.3l174.8,103.1l68.3-115.7
				L444.7,27.6L376.5,143.3z"/>
		</g>
		<path class="st0" d="M459.2,20.9c3.5-5.8,1.7-13.2-4-16.7c-5.7-3.4-13.1-1.5-16.6,4.3c-2.7,4.6-2.2,10.1,0.9,14L251.6,334.8
			l6.9,4.1L446.4,26.7C451.3,27.6,456.5,25.5,459.2,20.9z"/>
	</g>
	<g>
		<path class="st0" d="M104.5,252.5c-2,0,33-27,41-30s29-5,29-9s-9-7-8-11s8,4,19,4s23-14,27.5-11.5c0,0,8,3,11,6s20-15,28-8
			s17,6,16,8s-6,8-10,8s2,9-4,9s-10,1-13,4s-6,8-9,7s-2,7-7,6s3,6,9,6s18,1,20-5s8-4,11-2s9,6,3,8s-15,1-18,10s7,13,6,33
			s-13,30-27,35c0,0-1,17-14,18s-25-2-24,11s22,30,29,28s-8-18-6-22s13-14,15-11s-7,10-6,14s3,15,9,5s8-15,15-14s-4,4-5,12
			s-5,14,0,12s12-6,15,2s2,15,0,15s-4-13-7-11s-8-3-14,5s-7,19-15,12s-57-43-62-48c-0.4-0.4-0.6-0.9-0.7-1.5
			c-6.6-3.8-31-18.1-37.1-29c-0.9-2.5,27.2,17,38.1,24.6c0.5-1,1-2.1,1.7-3.3c-9.1-5.4-32.8-20.1-39.3-31.4
			c-1.1-2.8,29.6,18.8,41.8,27.4c0.8-1.2,1.6-2.5,2.4-3.8c-10-5.7-32.8-19.7-39.2-30.7c-1.1-2.7,28.7,17.6,41.8,26.6
			c0.7-1.1,1.3-2.2,1.9-3.2c-10.9-6.6-35-22.1-41.9-34.1c-1.2-2.9,29.7,18.8,44.2,29.2c0.6-1.9,0.8-3.6,0.3-4.9l-15-10
			c0,0,40.1-2.4,42.4-29.1c-9.1,5.4-19.1,10.4-26.2,11.1c-3.3-0.1,36.5-23.9,45.4-29.2c-1.1-1.7-3.6-4-8.1-3.4
			c-3.2,0.5-6.7,2.3-9.7,4.3C201.6,258,176.9,279,164,281c-2.2,0,18.9-14.6,30.2-22.4c-0.4-1.2-1-2.7-1.6-4.4
			c-5.5,4.6-27.9,22.8-40.4,24.8c-2.9,0,30.3-22.9,38.8-28.7c-0.6-1.4-1.2-2.8-1.8-4.2c-5.6,4.1-32.5,23.4-47,24.9
			c-3.3-0.1,35.4-23.2,45-28.9c-0.9-1.7-1.8-3.4-2.7-5.1c-4.6,3.5-32.7,24.5-47.6,26.1c-3.3-0.1,35.4-23.9,45.2-29.9
			c-0.8-1.2-1.6-2.2-2.5-3.2c-6.8,4.9-36,25.5-51.8,27.1c-3.4-0.1,34.7-22.8,47.9-30.5c-1.4-0.8-2.8-1.3-4.2-1.1
			c-0.2,0-0.4,0-0.6,0.1c-7.9,5.7-35.8,25-51.1,26.6c-2.8-0.1,22.5-15.5,38.9-25.2c-8.6,1.3-17.3,3.5-23.2,7.5
			C126.5,240.5,106.5,252.5,104.5,252.5z"/>
		<path class="st1" d="M265,202c0,0-4,4-8,5s-1,8-3,9s-9-1-11,2s-8,9-10,9s-5,3-6,5s-3,1-3,0s8-7,9-10s3-7,7-8s3-5,6-6s6-5,8-5
			s3-3,4-3C258,200,266,201,265,202z"/>
		<path class="st1" d="M261,234c0,0,7,3,5,5s-13,3-15,6s-7,10-4,15s-8,6-12,2s-4-12-7-14s10,0,7-3s0-2,4-2s11,0,17-5
			C258,236,257,233,261,234z"/>
		<g>
			<path class="st1" d="M238.9,297c1.5-2,2.6-4.4,3.3-7.1c4.6-0.5,8.7-1.6,11.8-2.7c-0.4,4.4-1.7,9.1-4.4,13.7
				C246.5,300.1,242.7,298.9,238.9,297z"/>
			<path class="st1" d="M242.2,279.9c4.3-1.6,8-3.7,10.7-5.5c0.7,3,1.2,6.7,1.1,10.7c-2.9,1.1-6.9,2.2-11.5,2.8
				C242.8,285.4,242.7,282.8,242.2,279.9z"/>
			<path class="st1" d="M230.3,304.8c2.5-1.7,5.1-3.7,7.3-6.2c3.8,2,7.6,3.3,10.7,4.1c-2.3,3.4-5.6,6.7-9.9,9.7
				C235.9,310.4,232.9,307.9,230.3,304.8z"/>
			<path class="st1" d="M220.5,312.5c0.3-2,3.9-3.9,8.1-6.6c2.6,3.1,5.4,5.6,8,7.6c-2.5,1.6-5.4,3.1-8.6,4.5
				C225,318,219.5,318.5,220.5,312.5z"/>
			<path class="st1" d="M241.7,277.9c-0.5-2-1.2-4.1-2.2-6.4c0,0,9-3,10.5-5.5c0,0,1.2,2.4,2.3,6.3
				C249.8,274,246.1,276.2,241.7,277.9z"/>
		</g>
		<path class="st1" d="M211,203c0,0,4,0,5,2s7,0,7,2s-7,4-11,4S208,203,211,203z"/>
	</g>
	<g>
		<path class="st0" d="M158,356l-33-21c0,0-15,17-4,37s31,34,31,34l35-1C187,405,161,387,158,356z"/>
		<path class="st0" d="M214,419l-12,26c0,0,34,6,44,23s39,42,51,42s-5-4-2-8s9-2,9-5s-8-3-8-6s8-3,8-5s-6-3-7-6s8,0,7-4s-18,2-24-8
			S235,422,214,419z"/>
		<path class="st0" d="M200,448c0,0,27,8,35,15s17,27,20,28c0,0,0,7-11,5s-20-10-24-6s-4,16-2,20s-8,1-8-13s-7-15-4-19s17,5,13-6
			S203,461,200,448z"/>
		<path class="st0" d="M142,409c0,0-2-12,19-8s68,2,82,24c5,6-14,5-16,8s-2,5-8,5s-3,7-9,7s-2,9-14,9S139,422,142,409z"/>
		<path class="st1" d="M144.9,409.7c0.1-0.4,0.1-0.8,0-1.2c0,0-0.2-1.7,0.9-3.1c1.3-1.5,3.8-2.3,7.4-2.3c2.1,0,4.4,0.3,7.1,0.8
			c5.1,1,11.8,1.6,18.9,2.3c21.5,2,50.9,4.8,61,20.1c-1.6,0.6-4.5,1.1-6.3,1.4c-1.3,0.2-2.5,0.4-3.6,0.7c-2.6-1.7-5.3-3.2-8.1-4.4
			c-2.8-1.2-5.7-2.1-8.8-2.5c-1.6-0.2-2.9-0.3-4.3-0.4c-1.4-0.1-2.8-0.3-4.2-0.5c-5.7-0.7-11.4-1.7-17-2.8c-2.8-0.5-5.7-1.1-8.5-1.7
			c-2.8-0.6-5.7-1.2-8.4-2.1c1.3,0.7,2.6,1.2,4,1.7c1.4,0.5,2.7,1,4.1,1.4c2.8,0.9,5.5,1.7,8.3,2.5c5.6,1.5,11.2,2.8,17,4
			c1.4,0.3,2.9,0.5,4.3,0.7c1.4,0.2,3,0.3,4.3,0.6c2.7,0.4,5.3,1.3,7.8,2.4c1.8,0.8,3.5,1.7,5.1,2.7c-0.6,0.4-1.1,0.8-1.4,1.4
			c-0.4,0.5-0.7,1.1-0.9,1.5c-0.8,1.4-1.1,1.9-2.6,2.1c-1.8-1.2-3.7-2.3-5.7-3.2c-2.7-1.3-5.6-2.3-8.7-2.8c-1.6-0.3-2.9-0.4-4.3-0.6
			c-1.4-0.2-2.8-0.4-4.2-0.7c-5.7-0.9-11.3-2.2-16.9-3.4c-2.8-0.6-5.6-1.3-8.4-2c-2.8-0.7-5.6-1.4-8.3-2.4c1.2,0.8,2.6,1.3,3.9,1.9
			c1.3,0.5,2.7,1.1,4.1,1.6c2.7,1,5.5,1.9,8.2,2.8c5.5,1.8,11.1,3.3,16.8,4.6c1.4,0.3,2.9,0.6,4.3,0.9c1.4,0.3,3,0.5,4.2,0.7
			c2.6,0.5,5.2,1.5,7.7,2.7c0.6,0.3,1.1,0.6,1.7,0.9c-2.2,1.1-3.1,3.2-3.6,4.5C211,442,211,442,210,442c-0.4,0-0.7,0-1.1,0.1
			c-1.9-1.1-3.9-2-6.1-2.7c-1.5-0.5-2.8-0.8-4.2-1.2c-1.4-0.4-2.7-0.8-4.1-1.3c-5.5-1.7-10.8-3.8-16.2-5.8c-2.7-1-5.4-2.1-8-3.2
			c-2.7-1.1-5.3-2.2-7.9-3.6c1.1,0.9,2.4,1.6,3.6,2.4c1.3,0.7,2.5,1.4,3.8,2.1c2.6,1.4,5.1,2.7,7.8,3.9c5.2,2.5,10.5,4.8,16,7
			c1.4,0.5,2.7,1,4.1,1.5c1.4,0.5,2.9,0.9,4.1,1.3c1.1,0.4,2.2,0.9,3.3,1.5c-0.9,1-1.5,2.1-1.9,3c-1.2,2.3-2,4-7.2,4
			c-7.4,0-34.8-17-46.8-32.1C144.7,413.2,144.7,410.6,144.9,409.7z"/>
	</g>
	<g>
		
			<rect x="25" y="68.3" transform="matrix(-0.8613 0.5081 -0.5081 -0.8613 307.8553 189.9629)" class="st2" width="206" height="137.3"/>
		
			<rect x="25" y="95.8" transform="matrix(-0.8613 0.5081 -0.5081 -0.8613 307.8553 189.9629)" class="st3" width="206" height="82.4"/>
		
			<rect x="25" y="114.1" transform="matrix(-0.8613 0.5081 -0.5081 -0.8613 307.8553 189.9629)" class="st1" width="206" height="45.8"/>
		
			<rect x="25" y="122.5" transform="matrix(-0.8613 0.5081 -0.5081 -0.8613 307.8553 189.9629)" class="st4" width="206" height="29"/>
		<g>
			<path class="st0" d="M2.3,129.7l180-106.2l71.3,120.9L74.9,249.8l-1.3,0.8L2.3,129.7z M181.3,27.6L6.5,130.7l68.3,115.7
				l174.8-103.1L181.3,27.6z"/>
		</g>
		<path class="st0" d="M166.8,20.9c-3.5-5.8-1.7-13.2,4-16.7s13.1-1.5,16.6,4.3c2.7,4.6,2.2,10.1-0.9,14l187.9,312.2l-6.9,4.1
			L179.6,26.7C174.7,27.6,169.5,25.5,166.8,20.9z"/>
	</g>
</g>
</svg>
