<?xml version="1.0" encoding="utf-8"?>
<svg version="1.1" xmlns="http://www.w3.org/2000/svg" width="500" height="629.8" viewBox="0 0 500 629.8">
<style type="text/css">
	.st0{fill:none;stroke:#2B2A29;stroke-width:6.1728;stroke-miterlimit:22.9256;}
	.st1{fill-rule:evenodd;clip-rule:evenodd;fill:#008DD2;}
	.st2{fill:none;stroke:#2B2A29;stroke-width:6.1744;stroke-miterlimit:22.9256;}
	.st3{fill:#F7A707;}
	.st4{fill:#FECC00;}
	.st5{fill:none;stroke:#2B2A29;stroke-width:6.1742;stroke-miterlimit:22.9256;}
	.st6{fill-rule:evenodd;clip-rule:evenodd;fill:#F7A707;}
	.st7{fill-rule:evenodd;clip-rule:evenodd;fill:#FECC00;}
	.st8{fill:none;stroke:#2B2A29;stroke-width:6.1741;stroke-miterlimit:22.9256;}
	.st9{fill:#DAE3E9;}
	.st10{fill:#FFFFFF;}
	.st11{fill:#2B2A29;}
	.st12{fill-rule:evenodd;clip-rule:evenodd;fill:#DAE3E9;}
	.st13{fill-rule:evenodd;clip-rule:evenodd;fill:#FFFFFF;}
	.st14{fill:none;stroke:#2B2A29;stroke-width:6.1742;stroke-linejoin:round;stroke-miterlimit:22.9256;}
	.st15{fill:none;stroke:#F7A707;stroke-width:3.087;stroke-linecap:round;stroke-miterlimit:22.9256;}
</style>
	<path class="st0" d="M432.3,575.9H308.6c-28,1.5-48.2,14.9-58.6,44.6c-9.8-27.9-29.1-43-58.6-44.6H67.7
		c-42-1.6-63.4-12.5-64.7-57.2V3.1h493.8v515.6C495.6,563.5,474.1,574.3,432.3,575.9z"/>
	<path class="st1" d="M432.5,575.8H308.8c-28,1.5-48.3,14.9-58.7,44.6c-9.8-27.9-29.1-43-58.7-44.6H67.9
		c-42-1.6-63.4-12.5-64.7-57.2V2.8h493.9v515.7C495.9,563.4,474.3,574.2,432.5,575.8"/>
	<polygon class="st2" points="391.4,188.8 410.8,205.1 139.4,532.1 130.4,531.6 122.7,525.1 119.9,515.8 	"/>
	<polygon class="st3" points="391.4,188.8 410.8,205.1 139.4,532.1 130.4,531.6 122.7,525.1 119.9,515.8 	"/>
	<polygon class="st4" points="406,201 137.2,524.8 128.3,524.3 120.5,517.8 119.9,515.7 391.4,188.8 	"/>
	<polygon class="st5" points="394.3,213.8 391.7,207.4 406.6,210.2 402.3,215.3 	"/>
	<polygon class="st6" points="394.3,213.8 391.7,207.4 406.6,210.2 402.3,215.3 	"/>
	<polygon class="st5" points="382.3,239.3 386.8,233.8 367.8,217.3 363.2,222.8 	"/>
	<polygon class="st6" points="382.3,239.3 386.8,233.8 367.8,217.3 363.2,222.8 	"/>
	<polygon class="st2" points="391.4,188.8 410.6,205.2 435.5,188.5 443.3,179.4 448.7,169.5 466,125.8 468.1,115 457.4,118.5 
		419.6,144.3 410.7,151.5 403.4,160.7 	"/>
	<polygon class="st6" points="391.4,188.8 410.6,205.2 435.5,188.5 443.3,179.4 448.7,169.5 466,125.8 468.1,115 457.4,118.5 
		419.6,144.3 410.7,151.5 403.4,160.7 	"/>
	<polygon class="st5" points="385.5,215.1 382.9,208.5 376.2,207.3 371.8,212.4 	"/>
	<polygon class="st6" points="385.5,215.1 382.9,208.5 376.2,207.3 371.8,212.4 	"/>
	<polygon class="st5" points="392.2,227.4 396.4,222.4 385.6,195.8 381.4,200.8 	"/>
	<polygon class="st6" points="392.2,227.4 396.4,222.4 385.6,195.8 381.4,200.8 	"/>
	<path class="st7" d="M425.1,150.1l26.5-21.7l-14.7,15.3L425.1,150.1z M464.4,119.2c1.6,0-5.8,1.2-5.8,1.2l-37.1,25.7l-1.2,10.7
		l12.9,0.3L464.4,119.2z M407.1,161.1l5.6-7.3l4.3,3.8L407.1,161.1z M395,188.2l16.2,13.3l21.1-14.1l-21,6.9L395,188.2z
		 M396.8,184.8l8.8-21.7l24.3-1.2l-19.6,8.2L396.8,184.8z M434.2,186.2l6.8-6.4l-27.6-6.5L434.2,186.2z M410.7,173.4l-3.7,10.1
		l4.6,8.2l3.6-8.6L410.7,173.4z M431.6,163.3l4.7,8.6l-9.5,3.1L431.6,163.3z M464.9,125.6l-22.6,52.6l-6.9-18.4l7.6,8.1L464.9,125.6
		z"/>
	<polygon class="st3" points="362.1,232 362.8,246.5 362.8,247.3 362.1,247.3 348.2,248.7 346.8,261.7 346.8,262.2 346.4,262.4 
		336.2,266.6 331.8,279.4 331.7,279.8 331.3,279.9 321.8,282.8 316.1,297 316,297.3 315.7,297.5 306.6,301.3 301.6,312.4 
		301.5,312.6 301.4,312.7 291.2,321.5 290.2,320.3 300.3,311.6 305.3,300.4 305.5,300.1 305.8,300 314.8,296.2 320.5,281.9 
		320.6,281.5 321,281.4 330.5,278.6 334.9,265.7 335,265.4 335.3,265.3 345.4,261.1 346.7,247.9 346.8,247.3 347.4,247.2 
		361.2,245.9 360.6,232.1 	"/>
	<path class="st3" d="M261.6,345.1l1-1.2c2.3,1.1,4.9,1.5,8.4,0.1c0.4-0.2,0.8,0,1,0.4c0.2,0.4,0,0.8-0.4,1
		C267.3,347.1,264.3,346.5,261.6,345.1 M255.4,352.6l1-1.2c1.2,0.7,2.4,1.3,3.7,1.6c2.5,0.7,4.9,0.7,6.3-0.3
		c0.3-0.2,0.8-0.2,1.1,0.2c0.2,0.3,0.2,0.8-0.2,1.1c-1.8,1.3-4.7,1.4-7.6,0.5C258.2,354.1,256.7,353.5,255.4,352.6z M249.1,360.2
		l1-1.2c0.5,0.3,1.1,0.7,1.6,0.9c2.2,1,4.8,1.5,7.9,0.9c0.4-0.1,0.8,0.2,0.9,0.6c0.1,0.4-0.2,0.8-0.6,0.9c-3.5,0.7-6.4,0.2-8.9-1
		C250.4,360.9,249.7,360.6,249.1,360.2z M243.2,367.3l1-1.2c0.9,0.7,1.9,1.3,2.9,1.8c2.3,1.1,4.7,1.5,6.3,0.7c0.4-0.2,0.8,0,1,0.4
		c0.2,0.4,0,0.8-0.4,1c-2,1-4.9,0.6-7.6-0.7C245.3,368.8,244.2,368.1,243.2,367.3z M235.9,376l1-1.2c2.3,1.8,4.9,2.9,9.1,1.9
		c0.4-0.1,0.8,0.2,0.9,0.6c0.1,0.4-0.2,0.8-0.6,0.9C241.5,379.4,238.5,378.1,235.9,376z M221.7,393.2l1-1.2c3.2,2.3,6.3,4,11.5,2
		c0.4-0.2,0.8,0,1,0.4c0.2,0.4,0,0.8-0.4,1C228.7,397.7,225.3,395.7,221.7,393.2z M215.6,400.5l1-1.2c1.8,1.8,4.2,3.1,6.5,3.8
		c2.5,0.7,4.9,0.7,6.3-0.3c0.3-0.2,0.8-0.2,1.1,0.2c0.2,0.3,0.2,0.8-0.2,1.1c-1.8,1.3-4.7,1.4-7.6,0.6
		C220.2,403.8,217.6,402.4,215.6,400.5z M209.4,408l1-1.2c1.3,1.2,2.8,2.3,4.4,3.1c2.2,1,4.8,1.5,7.9,0.9c0.4-0.1,0.8,0.2,0.9,0.6
		c0.1,0.4-0.2,0.8-0.6,0.9c-3.5,0.7-6.4,0.2-8.9-1C212.4,410.4,210.8,409.2,209.4,408z M203.7,414.8l1-1.2c1.5,1.8,3.4,3.4,5.4,4.3
		c2.3,1.1,4.7,1.5,6.3,0.7c0.4-0.2,0.8,0,1,0.4c0.2,0.4,0,0.8-0.4,1c-2,1-4.9,0.6-7.6-0.7C207.3,418.3,205.3,416.8,203.7,414.8z
		 M196.4,423.6l1-1.2c3.1,3,5.9,5.6,11.7,4.3c0.4-0.1,0.8,0.2,0.9,0.6c0.1,0.4-0.2,0.8-0.6,0.9C202.9,429.7,199.8,426.9,196.4,423.6
		z M191.8,429.1c1.6,2.3,3.9,4.1,6.2,5.2c2.4,1.1,4.7,1.4,6.3,0.6c0.4-0.2,0.8,0,1,0.3c0.2,0.4,0,0.8-0.3,1c-2,1-4.8,0.7-7.6-0.6
		c-2.5-1.1-4.9-3-6.6-5.4L191.8,429.1z M124.9,509.7l1-1.2c1.6,2.2,3.8,3.9,6.1,5c2.4,1.1,4.7,1.4,6.3,0.6c0.4-0.2,0.8,0,1,0.3
		c0.2,0.4,0,0.8-0.3,1c-2,1-4.8,0.7-7.6-0.6C129,513.7,126.6,511.9,124.9,509.7z M131.5,501.7c3,2.9,5.8,5.5,11.6,4.2
		c0.4-0.1,0.8,0.2,0.9,0.6c0.1,0.4-0.2,0.8-0.6,0.9c-6.5,1.5-9.6-1.3-12.9-4.5L131.5,501.7z M231.2,381.8c1.2,1,2.5,1.9,3.8,2.5
		c2.4,1.1,4.7,1.4,6.3,0.6c0.4-0.2,0.8,0,1,0.3c0.2,0.4,0,0.8-0.3,1c-2,1-4.8,0.7-7.6-0.6c-1.5-0.7-2.9-1.6-4.2-2.7L231.2,381.8z"/>
	<path class="st8" d="M170.5,394.5"/>
	<path class="st8" d="M175.5,388.4"/>
	<path class="st8" d="M133.3,445.8"/>
	<line class="st8" x1="136.5" y1="434.7" x2="136.4" y2="434.8"/>
	<path class="st8" d="M123,451"/>
	<line class="st8" x1="126.2" y1="439.9" x2="126.1" y2="440"/>
	<polygon class="st9" points="102.1,26.1 102.1,57.7 126.2,31.5 163.5,68.9 133.2,99.4 115.8,80.7 126.9,68.5 132.9,74.1 138,69 
		126.8,57.7 105.5,81.2 151.5,131.4 126.2,131.4 93.1,94.9 60,131.4 34.6,131.4 80.7,81.2 59.4,57.7 48.2,69 53.3,74.1 59.3,68.5 
		70.4,80.7 52.9,99.4 22.7,68.9 60,31.5 84,57.7 84,26.1 	"/>
	<polygon class="st10" points="94.3,26.3 94.3,58 102.1,49.4 102.1,57.7 122.3,35.8 155.6,69.2 129.5,95.5 115.8,80.7 123.1,72.6 
		125,74.4 128.9,70.4 132.9,74.1 138,69 126.8,57.7 122.9,62 118.9,58 97.7,81.4 143.5,131.4 126.2,131.4 93.1,94.9 89.1,99.3 
		85.2,95.1 52.3,131.4 34.6,131.4 80.7,81.2 59.4,57.7 55.2,62 51.5,58 40.3,69.2 45.5,74.4 49.6,70.5 53.3,74.1 55,72.6 62.6,81 
		49,95.5 22.7,68.9 55.8,35.8 76.2,58 76.2,49.2 84,57.7 84,26.3 	"/>
	<path class="st11" d="M100.6,57.7V27.6h-15v30.1v4l-2.7-2.9L60,33.8L24.9,69l28.1,28.2l15.4-16.5l-9.1-10l-4.9,4.6l-1.1,1l-1.1-1.1
		l-5.1-5.2L46,69l1.1-1.1l11.2-11.2l1.1-1.1l1.1,1.2l21.3,23.4l0.9,1l-0.9,1l-43.7,47.6h21.1l32.7-36l1.1-1.3l1.1,1.3l32.7,36H148
		l-43.7-47.6l-0.9-1l0.9-1l21.3-23.4l1.1-1.2l1.1,1.1l11.2,11.2l1.1,1.1l-1.1,1.1l-5.1,5.2l-1.1,1.1l-1.1-1l-4.9-4.6l-9.1,10
		l15.4,16.5L161.3,69l-35.1-35.2l-22.9,25l-2.7,2.9V57.7z M103.7,26.1v27.7L125,30.5l1.1-1.2l1.1,1.1l37.3,37.4l1.1,1.1l-1.1,1.1
		l-30.3,30.5l-1.1,1.1l-1.1-1.2l-17.5-18.7l-1-1l1-1.1l11.1-12.2l1.1-1.2l1.1,1.1l4.9,4.6l3-3l-9-9l-19.2,21.2l45.1,49.2l2.4,2.6
		h-3.5h-25.3h-0.7l-0.5-0.5l-32-35.3l-32,35.3l-0.5,0.5H60H34.6h-3.5l2.4-2.6l45.1-49.2L59.3,60l-9,9l3,3l4.9-4.6l1.1-1.1l1.1,1.2
		l11.1,12.2l1,1.1l-1,1l-17.5,18.7l-1.1,1.2l-1.1-1.1L21.6,70l-1.1-1.1l1.1-1.1l37.3-37.4l1.1-1.1l1.1,1.2l21.3,23.3V26.1v-1.5H84
		h18.1h1.5V26.1z"/>
	<path class="st12" d="M359.3,536.7c15.5-18.1,26.2-49.5,24.5-64.6c-2.2-19.3-26.9-27.4-36.8-13.4c-2.6,3.7-3.3,9.9-1.2,14
		c0.1,0.2,0.2,0.4,0.4,0.7c0.8-7.3,6.9-13,14.4-13c8,0,14.8,6.5,14.5,14.5c-0.6,16.9-19.5,20.4-31,15.5
		c-15.5-6.6-18.2-27.4-9.2-40.3c7.5-10.6,19.8-14.3,32.3-12.3c9.5,1.5,18,8.1,23.4,15.8c2.7-11.3,4.8-22.6,6.9-33.6
		c2,11,4.2,22.3,6.9,33.6c5.4-7.7,13.9-14.3,23.4-15.8c12.5-2,24.9,1.6,32.3,12.3c9,12.9,6.3,33.6-9.2,40.3
		c-11.5,4.9-30.4,1.4-31-15.5c-0.3-8,6.5-14.5,14.5-14.5c7.5,0,13.6,5.7,14.4,13c0.1-0.2,0.3-0.4,0.4-0.7c2-4.1,1.4-10.3-1.2-14
		c-9.8-14-34.6-5.9-36.8,13.4c-1.7,15.1,9,46.5,24.5,64.6H359.3z"/>
	<path class="st13" d="M371.4,531c15.5-18.1,20.7-49.5,19-64.6c-2.2-19.3-26.9-27.4-36.8-13.4c-0.1,0.1-0.1,0.2-0.2,0.3
		c-2.5,1.2-4.7,2.9-6.4,5.4c-2.6,3.7-3.3,9.9-1.2,14c0.1,0.2,0.2,0.4,0.4,0.7c0.4-3.9,2.4-7.3,5.2-9.7c0.2,1.2,0.5,2.3,1,3.3
		c0.1,0.2,0.2,0.4,0.4,0.7c0.2-2.2,1-4.3,2.1-6.1c1.8-0.8,3.7-1.2,5.7-1.2c8,0,14.8,6.5,14.5,14.5c-0.1,3.8-1.2,6.8-2.9,9.3
		c-6.5,3.3-15.2,3.2-21.6,0.5c-15.5-6.6-18.2-27.4-9.2-40.3c0.6-0.8,1.2-1.6,1.8-2.4c6.9-4.3,15.4-5.6,23.9-4.2
		c9.5,1.5,18,8.1,23.4,15.8c0.9-3.6,1.7-7.2,2.4-10.8c1.5,1.6,2.9,3.3,4.2,5.1c1.1-4.5,2.1-9,3-13.5c1.3,6.4,2.6,12.8,4.1,19.2
		c1.8-2.5,3.9-5,6.3-7.1l0.3,1.4c1.2-1.7,2.4-3.2,3.9-4.8c3.9-2.7,8.3-4.6,12.9-5.4c12.5-2,24.9,1.6,32.3,12.3
		c6.9,9.8,6.9,24.2-0.3,33.4c-0.7,0.4-1.5,0.8-2.3,1.1c-11.5,4.9-30.4,1.4-31-15.5c-0.1-2.8,0.6-5.4,2-7.6c1.8-0.8,3.8-1.2,5.9-1.2
		c7.5,0,13.6,5.7,14.4,13c0.1-0.2,0.3-0.4,0.4-0.7c2-4.1,1.4-10.3-1.2-14c-1-1.4-2.1-2.5-3.3-3.5c5.8,1.5,10.1,6.4,10.7,12.5
		c0.1-0.2,0.3-0.4,0.4-0.7c2-4.1,1.4-10.3-1.2-14c-7.5-10.7-23.8-8.5-32,1.8c-5.8,3.4-12.4,7.6-14,21.8
		c-1.5,13.6,0.2,37.6,14.4,54.4H371.4z"/>
	<path class="st11" d="M378.9,505.2c-4,10.6-9.7,21.4-16.4,29.9h69.7c-6.7-8.5-12.3-19.3-16.4-29.9c-4.8-12.7-7.3-25.2-6.4-33.3
		c0.8-7.6,4.9-13.5,10.3-17.3c2.4-1.7,5.1-3,7.9-3.7c2.8-0.8,5.7-1,8.4-0.7c5.1,0.6,9.7,3,13,7.6c1.5,2.1,2.4,4.9,2.6,7.7
		c0.2,2.8-0.2,5.6-1.3,7.9h0c-0.1,0.1-0.1,0.3-0.2,0.4c-0.1,0.2-0.2,0.3-0.2,0.4l-2.4,4l-0.5-4.6c-0.3-3.3-1.9-6.2-4.2-8.3
		c-2.3-2.1-5.3-3.3-8.7-3.3c-0.3,0-0.4,0-0.5,0h0c-3.4,0.1-6.5,1.6-8.8,3.8c-2.2,2.2-3.7,5.3-3.7,8.6c0,0.2,0,0.4,0,0.5
		c0.1,2.3,0.6,4.4,1.3,6.2c1.5,3.6,4.3,6.1,7.6,7.7c3.4,1.6,7.4,2.3,11.2,2.2c3.1-0.1,6.1-0.8,8.8-1.9c1.4-0.6,2.7-1.3,3.8-2.1
		c4.8-3.3,7.7-8.4,8.9-14c1.2-5.6,0.6-11.8-1.7-17.1c-0.7-1.6-1.6-3.2-2.6-4.7c-3.4-4.9-7.9-8.2-13-10.1c-5.5-2.1-11.6-2.5-17.8-1.5
		c-4.3,0.7-8.4,2.5-12,5c-4,2.7-7.6,6.3-10.3,10.2l-2,2.8l-0.8-3.3c-1.4-5.8-2.6-11.4-3.7-17c-0.6-2.8-1.1-5.7-1.7-8.6
		c-0.6,2.9-1.1,5.8-1.7,8.6c-1.1,5.5-2.3,11.2-3.7,17l-0.8,3.3l-2-2.8c-2.7-3.9-6.2-7.5-10.3-10.2c-3.7-2.5-7.8-4.3-12-5
		c-6.2-1-12.4-0.6-17.8,1.5c-5.1,1.9-9.6,5.3-13,10.1c-1,1.5-1.9,3-2.6,4.7c-2.3,5.4-2.9,11.5-1.7,17.1c1.2,5.6,4.2,10.7,8.9,14
		c1.2,0.8,2.4,1.5,3.8,2.1c2.6,1.1,5.7,1.8,8.8,1.9c3.9,0.1,7.8-0.5,11.2-2.2c3.3-1.6,6-4.1,7.6-7.7c0.8-1.8,1.2-3.8,1.3-6.2
		c0-0.1,0-0.2,0-0.5c0-3.4-1.4-6.4-3.7-8.6c-2.3-2.2-5.4-3.7-8.8-3.8h0c-0.1,0-0.3,0-0.5,0c-3.3,0-6.4,1.3-8.7,3.3
		c-2.3,2.1-3.9,5-4.2,8.3l-0.5,4.6l-2.4-4c-0.2-0.3-0.3-0.5-0.4-0.8c-1.1-2.3-1.5-5.1-1.3-7.9c0.2-2.8,1.2-5.6,2.6-7.7
		c3.2-4.6,7.9-7,13-7.6c2.8-0.3,5.6-0.1,8.4,0.7v0c2.8,0.8,5.5,2,7.9,3.7c5.4,3.8,9.5,9.7,10.3,17.3
		C386.2,480,383.7,492.5,378.9,505.2 M358.1,535.7c7.3-8.6,13.6-20.2,17.9-31.6c4.7-12.3,7.1-24.3,6.2-31.9
		c-0.7-6.6-4.3-11.8-9-15.1c-2.1-1.5-4.5-2.6-6.9-3.3l0,0c-2.4-0.7-4.9-0.9-7.3-0.6c-4.2,0.5-8.1,2.5-10.8,6.3
		c-1.2,1.7-1.9,3.9-2.1,6.2c-0.1,0.7-0.1,1.4,0,2.1c0.9-1.9,2.2-3.5,3.7-4.9c2.8-2.6,6.6-4.1,10.7-4.1c0.1,0,0.3,0,0.6,0
		c4.2,0.2,8,1.9,10.8,4.7c2.8,2.8,4.6,6.6,4.6,10.8c0,0.1,0,0.3,0,0.6c-0.1,2.7-0.7,5.2-1.6,7.3c-1.8,4.3-5.1,7.3-9.1,9.2
		c-3.8,1.9-8.3,2.6-12.7,2.5c-3.5-0.1-6.9-0.9-9.9-2.1c-1.6-0.7-3.1-1.5-4.4-2.4c-5.4-3.8-8.8-9.6-10.2-15.9c-1.3-6.2-0.7-13,1.8-19
		c0.8-1.8,1.8-3.6,2.9-5.2c3.8-5.4,8.8-9.1,14.4-11.2c6-2.3,12.7-2.8,19.4-1.7c4.7,0.8,9.3,2.7,13.3,5.5c3.4,2.3,6.5,5.2,9.1,8.3
		c1-4.5,2-9.1,2.9-13.7c1.2-5.9,2.2-11.3,3.2-16.7l1.5-8.1l1.5,8.1c1,5.3,2,10.8,3.2,16.7c0.9,4.6,1.9,9.2,2.9,13.7
		c2.6-3.2,5.7-6,9.1-8.3c4-2.7,8.5-4.7,13.3-5.5c6.7-1.1,13.4-0.6,19.4,1.7c5.6,2.1,10.6,5.8,14.4,11.2c1.2,1.6,2.1,3.4,2.9,5.2
		c2.5,6,3.2,12.7,1.8,19c-1.4,6.3-4.7,12.1-10.2,15.9c-1.3,0.9-2.8,1.8-4.4,2.4c-3,1.3-6.4,2-9.9,2.1c-4.4,0.2-8.8-0.6-12.7-2.5
		c-3.9-1.9-7.2-4.9-9.1-9.2c-0.9-2.1-1.5-4.5-1.6-7.3c0-0.3,0-0.5,0-0.6c0-4.2,1.8-8,4.6-10.8c2.8-2.8,6.6-4.5,10.8-4.7
		c0.3,0,0.5,0,0.6,0c4.1,0,7.9,1.6,10.7,4.1c1.5,1.4,2.8,3,3.7,4.9c0-0.7,0-1.4,0-2.1c-0.2-2.3-0.9-4.6-2.1-6.2
		c-2.7-3.8-6.6-5.8-10.8-6.3c-2.4-0.3-4.9,0-7.3,0.6c-2.4,0.7-4.8,1.8-6.9,3.3c-4.7,3.3-8.3,8.5-9,15.1c-0.8,7.6,1.6,19.6,6.2,31.9
		c4.3,11.4,10.6,23,17.9,31.6l2.2,2.5h-3.4h-76.2h-3.4L358.1,535.7z"/>
	<polygon class="st14" points="74.5,443.8 64.8,464.3 387.1,77.4 368.7,90.6 	"/>
	<polygon class="st7" points="74.5,443.8 64.8,464.3 387.1,77.4 368.7,90.6 	"/>
	<path class="st8" d="M48,481.4c-7.4,3.4-15.7-2.9-14.4-10.4c1.1-6.1,8.7-10.6,16.2-3.8c2.4-1.2,4.6-5.3,5.6-7.9
		c6.4-15.8,8.9-32.1,10.1-48.5c1.6-21.2,1.7-42.6,3.2-63.9c1.4-19.9,3.6-40.9,7.7-53.8c7.8-24.6,16.5-35.4,39-46
		c12.6-5.9,24.1-9.4,33.7-14.6c10.5-5.8,19.3-15.8,23.8-26.9c4.5-11.2,5.8-24.1,9.8-39.1c6.3-24,15.4-34.5,38.2-46.6
		c11.9-6.3,32.2-12.3,51.5-17.3c20.7-5.3,41.7-9.3,62.3-14.7c15.8-4.2,31.3-9.5,45.6-18.5c2.4-1.5,6.3-4.4,7.1-7.1
		c-7.9-6.1-5-14.5,0.8-16.6c7.2-2.6,14.8,4.3,12.8,12.2c-1.6,6.4-9.6,16.2-14.8,20.5c-43.5,36.2-89.3,32.4-136.5,57.4
		c-22.8,12.1-34.8,27.1-41.1,51.1c-3.9,14.7-5.1,27.7-9.4,38.7c-4.3,11.1-15.3,23.3-25.7,28.9c-9.5,5.2-20.9,8.6-33.3,14.4
		c-22.5,10.6-35.1,25.1-42.9,49.7c-16,50.6-4.2,94.6-31.2,143.5C62.6,468.4,54.4,478.4,48,481.4z"/>
	<path class="st6" d="M48,481.3c-7.4,3.4-15.7-2.9-14.4-10.4c1.1-6.1,8.7-10.6,16.2-3.8c2.4-1.2,4.6-5.3,5.6-7.9
		c6.4-15.8,8.9-32.1,10.1-48.5c1.6-21.2,1.7-42.6,3.2-63.9c1.4-19.9,3.6-40.9,7.7-53.8c7.8-24.6,16.5-35.4,39-46
		c12.6-5.9,24.1-9.4,33.7-14.6c10.5-5.8,19.3-15.8,23.8-26.9c4.5-11.2,5.8-24.1,9.8-39.1c6.3-24,15.4-34.5,38.2-46.6
		c11.9-6.3,32.2-12.3,51.5-17.3c20.7-5.3,41.7-9.3,62.3-14.7c15.8-4.2,31.3-9.5,45.6-18.5c2.4-1.5,6.3-4.4,7.1-7.1
		c-7.9-6.1-5-14.5,0.8-16.6c7.2-2.6,14.8,4.3,12.8,12.2c-1.6,6.4-9.6,16.2-14.8,20.5c-43.5,36.2-89.3,32.4-136.5,57.4
		c-22.8,12.1-34.8,27.1-41.1,51.1c-3.9,14.7-5.1,27.7-9.4,38.7c-4.3,11.1-15.3,23.3-25.7,28.9c-9.5,5.2-20.9,8.6-33.3,14.4
		c-22.5,10.6-35.1,25.1-42.9,49.7c-16,50.6-4.2,94.6-31.2,143.5C62.6,468.4,54.4,478.4,48,481.3"/>
	<path class="st7" d="M44.4,477.3c-3.5,1.6-7.2,1-10-0.8c-0.8-1.7-1.1-3.6-0.8-5.6c1.1-6.1,8.7-10.6,16.2-3.8
		c2.4-1.2,4.6-5.3,5.6-7.9c6.4-15.8,8.9-32.1,10.1-48.5c1.6-21.2,1.7-42.6,3.2-63.9c1.4-19.9,3.6-40.9,7.7-53.8
		c7.8-24.6,16.5-35.4,39-46c12.6-5.9,24.1-9.4,33.7-14.6c10.5-5.8,19.3-15.8,23.8-26.9c4.5-11.2,5.8-24.1,9.8-39.1
		c6.3-24,15.4-34.5,38.2-46.6c11.9-6.3,32.2-12.3,51.5-17.3c20.7-5.3,41.7-9.3,62.3-14.7c15.8-4.2,31.3-9.5,45.6-18.5
		c2.4-1.5,6.3-4.4,7.1-7.1c-1.6-1.3-2.8-2.6-3.6-4l0-0.1l-0.1-0.1c-2.9-5.3-0.1-10.8,4.5-12.5c3-1.1,6.1-0.5,8.5,1.1
		c1,2.1,1.4,4.5,0.8,7.1c-1.6,6.4-9.6,16.2-14.8,20.5c-43.5,36.2-89.3,32.4-136.5,57.4c-22.8,12.1-34.8,27.1-41.1,51.1
		c-3.9,14.7-5.1,27.7-9.4,38.7c-4.3,11.1-15.3,23.3-25.7,28.9c-9.5,5.2-20.9,8.6-33.3,14.4c-22.5,10.6-35.1,25.1-42.9,49.7
		c-16,50.6-4.2,94.6-31.2,143.5C59,464.4,50.9,474.4,44.4,477.3"/>
	<polygon class="st5" points="374.8,86.4 368.7,90.2 364.8,77.4 371.1,74.3 	"/>
	<polygon class="st6" points="374.8,86.4 368.7,90.2 364.8,77.4 371.1,74.3 	"/>
	<polygon class="st5" points="389.2,75 384,79.9 376.6,71.6 382.4,67.6 	"/>
	<polygon class="st6" points="389.2,75 384,79.9 376.6,71.6 382.4,67.6 	"/>
	<polygon class="st5" points="71.4,450.8 74.4,444.1 60.7,442.5 58.8,449.3 	"/>
	<polygon class="st6" points="71.4,450.8 74.4,444.1 60.7,442.5 58.8,449.3 	"/>
	<polygon class="st5" points="62.6,466.7 66.6,461 57.1,455.2 54.2,461.7 	"/>
	<polygon class="st6" points="62.6,466.7 66.6,461 57.1,455.2 54.2,461.7 	"/>
	<path class="st15" d="M338.4,94.3c-31.3,12.8-63.6,16.2-96.6,33.7c-22.8,12.1-34.8,27.1-41.1,51.1c-3.9,14.7-5.1,27.7-9.4,38.7
		c-4.3,11.1-15.3,23.3-25.7,28.9c-9.5,5.2-20.9,8.6-33.3,14.4c-22.5,10.6-35.1,25.1-42.9,49.7C77.7,348.3,81,382.2,72.6,417"/>
	<path class="st3" d="M184.5,159.5c0.2-0.5,0.3-1,0.5-1.5c2.7,0.1,5.4-0.5,8.2-3.5c0.3-0.3,0.8-0.3,1.1,0c0.3,0.3,0.3,0.8,0,1.1
		C190.9,159.1,187.8,159.7,184.5,159.5 M181.9,168.9c0.1-0.5,0.2-1,0.4-1.5c1.6,0.2,3.3,0.2,4.9,0c2.6-0.4,4.7-1.5,5.6-3
		c0.2-0.4,0.7-0.5,1.1-0.3c0.4,0.2,0.5,0.7,0.3,1.1c-1.1,2-3.6,3.3-6.6,3.7C185.6,169.2,183.7,169.2,181.9,168.9z M179.7,178.4
		l0.3-1.5c0.8,0.1,1.7,0.2,2.5,0.2c2.4,0,5-0.7,7.5-2.6c0.3-0.3,0.8-0.2,1.1,0.2c0.3,0.3,0.2,0.8-0.2,1.1c-2.9,2.2-5.7,2.9-8.4,2.9
		C181.6,178.7,180.6,178.6,179.7,178.4z M177.8,187.5l0.3-1.5c1.2,0.3,2.4,0.4,3.6,0.5c2.6,0,4.9-0.7,6-2c0.3-0.3,0.8-0.4,1.1-0.1
		c0.3,0.3,0.4,0.8,0.1,1.1c-1.4,1.7-4.1,2.6-7.2,2.6C180.4,188,179.1,187.8,177.8,187.5z M175.1,198.5c0.1-0.5,0.3-1,0.4-1.5
		c2.8,0.6,5.7,0.5,9.1-2.1c0.3-0.3,0.8-0.2,1.1,0.1c0.3,0.3,0.2,0.8-0.1,1.1C181.6,199.1,178.3,199.2,175.1,198.5z M172.7,205.6
		c1.7,0.6,3.5,0.8,5.1,0.8c2.6,0,4.8-0.8,5.9-2.1c0.3-0.3,0.7-0.4,1.1-0.1c0.3,0.3,0.4,0.7,0.1,1.1c-1.4,1.8-4.1,2.7-7.1,2.7
		c-1.9,0-3.8-0.3-5.7-0.9C172.3,206.5,172.5,206,172.7,205.6z"/>
	<path class="st3" d="M146.6,233.6c0.5-0.2,0.9-0.5,1.4-0.7c1.6,2.1,3.8,3.7,7.7,4.1c0.4,0,0.7,0.4,0.7,0.8c0,0.4-0.4,0.7-0.8,0.7
		C150.9,238.1,148.4,236.1,146.6,233.6 M137.7,237.6c0.5-0.2,1-0.4,1.4-0.6c0.8,1.2,1.7,2.3,2.7,3.2c1.9,1.7,4.1,2.7,5.8,2.5
		c0.4-0.1,0.8,0.2,0.9,0.6c0.1,0.4-0.2,0.8-0.6,0.9c-2.2,0.4-4.8-0.8-7.1-2.9C139.6,240.3,138.6,239.1,137.7,237.6z M128.6,241.3
		l1.4-0.6c0.4,0.7,0.8,1.4,1.3,2c1.5,1.9,3.6,3.5,6.7,4.3c0.4,0.1,0.7,0.5,0.6,0.9c-0.1,0.4-0.5,0.7-0.9,0.6
		c-3.5-0.9-5.8-2.6-7.5-4.8C129.6,242.9,129,242.1,128.6,241.3z M120.1,244.9c0.5-0.2,0.9-0.4,1.4-0.6c0.6,1.3,1.3,2.6,2.1,3.6
		c1.6,2,3.6,3.4,5.3,3.4c0.4,0,0.8,0.3,0.8,0.8c0,0.4-0.3,0.8-0.8,0.8c-2.2,0-4.6-1.6-6.5-4C121.5,247.7,120.7,246.3,120.1,244.9z
		 M109.8,249.7c0.5-0.2,0.9-0.5,1.4-0.7c1.3,2.9,3.1,5.3,7.6,6.4c0.4,0.1,0.7,0.5,0.6,0.9c-0.1,0.4-0.5,0.7-0.9,0.6
		C113.3,255.7,111.3,253,109.8,249.7z M103.3,253.5c0.6,1.4,1.4,2.7,2.3,3.8c1.6,2,3.6,3.3,5.4,3.3c0.4,0,0.8,0.3,0.8,0.8
		c0,0.4-0.3,0.8-0.8,0.8c-2.2,0-4.7-1.5-6.6-3.9c-0.9-1.1-1.7-2.5-2.4-3.9C102.4,254.1,102.9,253.8,103.3,253.5z"/>
	<polygon class="st8" points="169.8,417.6 103.9,496.5 93,494.8 84.2,487.5 80.9,477.2 146.8,398.5 403.6,90.7 414.2,91.3 423.4,99 
		426.6,110 	"/>
	<polygon class="st3" points="169.7,417.6 103.9,496.5 93,494.8 84.2,487.5 80.9,477.2 146.8,398.5 403.6,90.7 414.2,91.3 423.3,99 
		426.6,110 	"/>
	<polygon class="st4" points="163.1,417.8 98.1,495.6 93,494.8 84.2,487.5 80.9,477.2 146.8,398.5 403.2,91.2 407.5,91.4 
		416.7,99.1 420,110.2 	"/>
	<polygon class="st8" points="89,467.4 112.7,487.3 140.4,499.4 164.5,503.5 187.5,500 200,484.1 200.1,461.7 190,439.7 
		169.8,417.6 146.8,398.5 119.1,386.3 95,382.2 72,385.7 59.5,401.6 59.4,424 69.4,446 	"/>
	<polygon class="st6" points="89,467.4 112.7,487.3 140.4,499.4 164.5,503.5 187.5,500 200,484.1 200.1,461.7 190,439.7 
		169.7,417.6 146.8,398.5 119,386.3 95,382.2 72,385.7 59.5,401.6 59.4,424 69.4,446 	"/>
	<polygon class="st5" points="123,451.1 133.3,445.9 120.6,490.7 112.7,487.3 	"/>
	<polygon class="st6" points="123,451.1 133.3,445.9 120.6,490.7 112.7,487.3 	"/>
	<polygon class="st5" points="126.2,439.9 136.5,434.7 146.8,398.5 138.9,395 	"/>
	<polygon class="st6" points="126.2,439.9 136.5,434.7 146.8,398.5 138.9,395 	"/>
	<polygon class="st5" points="170.1,417.8 175.9,424.4 89.5,467.8 83.4,461.3 	"/>
	<polygon class="st6" points="170.1,417.8 175.9,424.4 89.5,467.8 83.4,461.3 	"/>
	<path class="st3" d="M225.2,304.5l1-1.2c2.6,1.5,5.4,2.3,9.5,0.7c0.4-0.2,0.8,0,1,0.4c0.2,0.4,0,0.8-0.4,1
		C231.4,307.3,228.2,306.3,225.2,304.5 M218.9,312l1-1.2c1.5,1,3.1,1.8,4.7,2.3c2.5,0.7,4.9,0.7,6.3-0.3c0.3-0.2,0.8-0.2,1.1,0.2
		c0.2,0.3,0.2,0.8-0.2,1.1c-1.8,1.3-4.7,1.4-7.6,0.6C222.4,314,220.6,313.1,218.9,312z M212.7,319.5l1-1.2c0.8,0.6,1.7,1.2,2.7,1.7
		c2.2,1,4.8,1.5,7.9,0.9c0.4-0.1,0.8,0.2,0.9,0.6c0.1,0.4-0.2,0.8-0.6,0.9c-3.5,0.7-6.4,0.2-8.9-1
		C214.6,320.8,213.6,320.2,212.7,319.5z M206.8,326.5l1-1.2c1.2,1.1,2.5,2,3.9,2.6c2.3,1.1,4.7,1.5,6.3,0.7c0.4-0.2,0.8,0,1,0.4
		c0.2,0.4,0,0.8-0.4,1c-2,1-4.9,0.6-7.6-0.7C209.5,328.6,208.1,327.7,206.8,326.5z M199.6,335.2l1-1.2c2.5,2.3,5.3,3.9,10.1,2.8
		c0.4-0.1,0.8,0.2,0.9,0.6c0.1,0.4-0.2,0.8-0.6,0.9C205.5,339.5,202.4,337.7,199.6,335.2z M194.8,340.9c1.4,1.5,3.1,2.6,4.8,3.4
		c2.4,1.1,4.7,1.4,6.3,0.6c0.4-0.2,0.8,0,1,0.3c0.2,0.4,0,0.8-0.3,1c-2,1-4.8,0.7-7.6-0.6c-1.8-0.8-3.6-2.1-5.2-3.6L194.8,340.9z"/>
	<polygon class="st5" points="175.4,386.6 178.1,393.1 188.4,395.3 192.8,390.2 	"/>
	<polygon class="st6" points="175.4,386.6 178.1,393.1 188.4,395.3 192.8,390.2 	"/>
	<polygon class="st5" points="167.6,386.8 170.2,393.2 153.9,389.9 158.1,384.8 	"/>
	<polygon class="st6" points="167.6,386.8 170.2,393.2 153.9,389.9 158.1,384.8 	"/>
	<polygon class="st5" points="181.8,356.5 177.2,362 200.4,381 204.9,375.5 	"/>
	<polygon class="st6" points="181.8,356.5 177.2,362 200.4,381 204.9,375.5 	"/>
	<polygon class="st5" points="169,371.8 164.8,376.9 177.6,408.2 181.9,403.1 	"/>
	<polygon class="st6" points="169,371.8 164.8,376.9 177.6,408.2 181.9,403.1 	"/>
	<polygon class="st5" points="399.1,118.6 401.7,125.2 412.1,127.3 416.5,122.2 	"/>
	<polygon class="st6" points="399.1,118.6 401.7,125.2 412.1,127.3 416.5,122.2 	"/>
	<polygon class="st5" points="391.2,118.8 393.8,125.2 377.5,122 381.8,116.8 	"/>
	<polygon class="st6" points="391.2,118.8 393.8,125.2 377.5,122 381.8,116.8 	"/>
	<polygon class="st5" points="392.6,103.8 388.4,108.9 401.2,140.2 405.5,135.2 	"/>
	<polygon class="st6" points="392.6,103.8 388.4,108.9 401.2,140.2 405.5,135.2 	"/>
	<path class="st3" d="M369,132.1l1-1.2c2.7,1.7,5.6,2.7,10,1c0.4-0.2,0.8,0,1,0.4c0.2,0.4,0,0.8-0.4,1
		C375.4,135.4,372.1,134.2,369,132.1 M362.8,139.6l1-1.2c1.6,1.2,3.4,2.1,5.2,2.6c2.5,0.7,4.9,0.7,6.3-0.3c0.3-0.2,0.8-0.2,1.1,0.2
		c0.2,0.3,0.2,0.8-0.2,1.1c-1.8,1.3-4.7,1.4-7.6,0.5C366.6,141.9,364.6,140.9,362.8,139.6z M356.6,147.1l1-1.2c1,0.8,2,1.5,3.2,2
		c2.2,1,4.8,1.5,7.9,0.9c0.4-0.1,0.8,0.2,0.9,0.6c0.1,0.4-0.2,0.8-0.6,0.9c-3.5,0.7-6.4,0.2-8.9-1
		C358.8,148.7,357.6,147.9,356.6,147.1z M350.7,154.1l1-1.2c1.3,1.3,2.8,2.3,4.3,3.1c2.3,1.1,4.7,1.5,6.3,0.7c0.4-0.2,0.8,0,1,0.4
		c0.2,0.4,0,0.8-0.4,1c-2,1-4.9,0.6-7.6-0.7C353.7,156.5,352.1,155.4,350.7,154.1z M343.4,162.8l1-1.2c2.7,2.5,5.5,4.3,10.6,3.2
		c0.4-0.1,0.8,0.2,0.9,0.6c0.1,0.4-0.2,0.8-0.6,0.9C349.5,167.6,346.4,165.5,343.4,162.8z M338.7,168.4c1.5,1.7,3.3,3,5.2,3.9
		c2.4,1.1,4.7,1.4,6.3,0.6c0.4-0.2,0.8,0,1,0.3c0.2,0.4,0,0.8-0.3,1c-2,1-4.8,0.7-7.6-0.6c-2-0.9-4-2.3-5.6-4.1L338.7,168.4z"/>
	<path class="st3" d="M288,250.1c-0.3-0.3-0.3-0.8,0-1.1c0.3-0.3,0.8-0.3,1.1,0l0.4,0.4c3.1,3.1,6,5.8,11.9,4.5
		c0.4-0.1,0.8,0.2,0.9,0.6c0.1,0.4-0.2,0.8-0.6,0.9c-6.7,1.5-9.8-1.5-13.3-4.9L288,250.1z M300.2,233.7c-0.3-0.3-0.3-0.8,0-1.1
		c0.3-0.3,0.8-0.3,1.1,0c1.7,1.7,3.5,3.3,5.8,4.4c2.2,1,4.8,1.5,7.9,0.9c0.4-0.1,0.8,0.2,0.9,0.6c0.1,0.4-0.2,0.8-0.6,0.9
		c-3.5,0.7-6.4,0.2-8.9-1C304,237.2,302,235.4,300.2,233.7z M294.8,240.4c-0.2-0.4-0.1-0.8,0.2-1.1c0.4-0.2,0.8-0.1,1.1,0.2
		c1.5,2.4,3.9,4.3,6.3,5.5c2.3,1.1,4.7,1.5,6.3,0.7c0.4-0.2,0.8,0,1,0.4c0.2,0.4,0,0.8-0.4,1c-2,1-4.9,0.6-7.6-0.7
		C299.1,245.1,296.5,243,294.8,240.4z M312.6,219.3c-0.3-0.2-0.4-0.7-0.2-1.1c0.2-0.3,0.7-0.4,1.1-0.2l0.5,0.4
		c3.6,2.6,6.7,4.9,12.4,2.7c0.4-0.2,0.8,0,1,0.4c0.2,0.4,0,0.8-0.4,1c-6.4,2.5-9.9,0-13.9-2.8L312.6,219.3z M307.1,226.8
		c-0.3-0.3-0.3-0.8,0.1-1.1c0.3-0.3,0.8-0.3,1.1,0.1c1.9,2.1,4.5,3.6,7.1,4.4c2.5,0.7,4.9,0.7,6.3-0.3c0.3-0.2,0.8-0.2,1.1,0.2
		c0.2,0.3,0.2,0.8-0.2,1.1c-1.8,1.3-4.7,1.4-7.6,0.5C312.1,230.8,309.2,229.1,307.1,226.8z M282.7,256.8c-0.2-0.4-0.1-0.8,0.2-1.1
		c0.4-0.2,0.8-0.1,1.1,0.2c1.6,2.4,3.9,4.3,6.4,5.4c2.4,1.1,4.7,1.4,6.3,0.6c0.4-0.2,0.8,0,1,0.3c0.2,0.4,0,0.8-0.3,1
		c-2,1-4.9,0.7-7.6-0.6C287,261.6,284.4,259.5,282.7,256.8z"/>
	<path class="st7" d="M198.7,481.6c-0.1-0.6-0.2-19.3-0.2-19.3l-33.3-5.8l26.3,12.8L198.7,481.6z M197.4,484.1l-11.2,13l-45.9-12.7
		L197.4,484.1z M137.8,449.3l-3.7,13.6l36.6,12.1l-17.4-33.5L137.8,449.3z M133.4,466.1l-7.1,23.9l15.7,6.9l21.6,4.5L136.8,486
		L133.4,466.1z M104.9,465.6l11.2-6l-4.5,12.5l-10,4.7L104.9,465.6z M150.3,403.3l14.7,12.3l-19.2,8.2l7.1-8.9L150.3,403.3z
		 M95.4,384.2l22.6,6.5l15.4,4.4l-11.3,32.8l-0.6-27.2L95.4,384.2z M76.3,387.9l14.9-2.5l23.1,15L76.3,387.9z M62.7,402.3l11.1-14.6
		l46.9,45.8L62.7,402.3z M93.1,437.3l-3-15.5l26.3,14.6l-34,18.7L93.1,437.3z M61.2,423.4l9.6,20.8L84,419.9L61.2,423.4z
		 M61.9,406.9l-0.1,12.7l7.2-5.8L61.9,406.9z M188.8,440.3l-22.1-5.1l-3.3,19.6L188.8,440.3z"/>
</svg>
