<?xml version="1.0" encoding="UTF-8" standalone="no"?>
<!-- Generator: Adobe Illustrator 22.0.0, SVG Export Plug-In . SVG Version: 6.00 Build 0)  -->

<svg
   version="1.1"
   id="Layer_1"
   x="0px"
   y="0px"
   width="529.70911"
   height="559.11163"
   viewBox="0 0 529.70911 559.11163"
   xml:space="preserve"
   sodipodi:docname="Coat_of_arms_of_Kingdom_of_Hejaz.svg"
   inkscape:version="1.3 (0e150ed6c4, 2023-07-21)"
   xmlns:inkscape="http://www.inkscape.org/namespaces/inkscape"
   xmlns:sodipodi="http://sodipodi.sourceforge.net/DTD/sodipodi-0.dtd"
   xmlns="http://www.w3.org/2000/svg"
   xmlns:svg="http://www.w3.org/2000/svg"
   xmlns:rdf="http://www.w3.org/1999/02/22-rdf-syntax-ns#"
   xmlns:cc="http://creativecommons.org/ns#"
   xmlns:dc="http://purl.org/dc/elements/1.1/"><metadata
   id="metadata851"><rdf:RDF><cc:Work
       rdf:about=""><dc:format>image/svg+xml</dc:format><dc:type
         rdf:resource="http://purl.org/dc/dcmitype/StillImage" /></cc:Work></rdf:RDF></metadata><defs
   id="defs849" /><sodipodi:namedview
   pagecolor="#ffffff"
   bordercolor="#666666"
   borderopacity="1"
   objecttolerance="10"
   gridtolerance="10"
   guidetolerance="10"
   inkscape:pageopacity="0"
   inkscape:pageshadow="2"
   inkscape:window-width="1920"
   inkscape:window-height="1007"
   id="namedview847"
   showgrid="false"
   inkscape:zoom="1.4755551"
   inkscape:cx="264.98503"
   inkscape:cy="279.55582"
   inkscape:window-x="-9"
   inkscape:window-y="-9"
   inkscape:window-maximized="1"
   inkscape:current-layer="Layer_1"
   inkscape:showpageshadow="2"
   inkscape:pagecheckerboard="0"
   inkscape:deskcolor="#d1d1d1" />&#10;<style
   type="text/css"
   id="style2">&#10;	.st0{fill:#FFFFFF;stroke:#6D5031;stroke-miterlimit:10;}&#10;	.st1{fill:#FFFFFF;}&#10;	.st2{fill:#007A3D;}&#10;	.st3{fill:#CE1126;}&#10;	.st4{fill:none;stroke:#6D5031;stroke-miterlimit:10;}&#10;	.st5{fill:#E4A80A;stroke:#6D5031;stroke-miterlimit:10;}&#10;	.st6{fill:#8F9340;}&#10;	.st7{fill:#D3CDCF;stroke:#433F15;stroke-miterlimit:10;}&#10;	.st8{fill:#D6B744;stroke:#433F15;stroke-miterlimit:10;}&#10;	.st9{fill:#CE1126;stroke:#433F15;stroke-miterlimit:10;}&#10;	.st10{fill:#D38896;}&#10;	.st11{fill:#D0A746;stroke:#433F15;stroke-miterlimit:10;}&#10;	.st12{fill:#7A7667;}&#10;	.st13{fill:#C1A240;}&#10;	.st14{fill:#DBC375;}&#10;	.st15{fill:#BC913B;}&#10;	.st16{fill:#D6B46E;}&#10;	.st17{fill:#A01025;}&#10;	.st18{fill:#820002;stroke:#6D5031;stroke-miterlimit:10;}&#10;	.st19{fill:#590A0E;}&#10;	.st20{fill:#007A3D;stroke:#6D5031;stroke-miterlimit:10;}&#10;	.st21{fill:#6D5031;}&#10;	.st22{fill:#EDCF70;stroke:#6D5031;stroke-miterlimit:10;}&#10;	.st23{fill:#CCAD56;}&#10;	.st24{fill:#262B0A;}&#10;	.st25{fill:#383D0C;}&#10;	.st26{fill:#4E5110;}&#10;	.st27{fill:#666619;}&#10;	.st28{fill:#179955;}&#10;	.st29{fill:#07592E;}&#10;	.st30{fill:#0A3F20;}&#10;	.st31{fill:#09381D;}&#10;	.st32{fill:#07351C;}&#10;	.st33{fill:#EFB83C;}&#10;	.st34{fill:#C1902D;}&#10;	.st35{fill:#353535;}&#10;</style>&#10;<g
   id="g844"
   transform="translate(-35.395434,-26.3)">&#10;	<path
   class="st0"
   d="m 82.5,488.2 c 0,0 -2.7,10.9 0.1,15 2.8,4.1 57.3,44.1 75.3,41.1 18,-3 19.8,28.5 78.6,28.5 0,0 45.6,25.5 124.2,2.5 78.7,-23 66.9,-10 85.5,-33 18.6,-23 83.8,-22.2 71.4,-54 l -29.1,-76 -2.2,-76.5 L 478.9,191.1 379,158.6 354,116.8 H 247 l -78.8,81.4 -62,17.7 7.4,91.3 L 98,469.6 Z"
   id="path4" />&#10;	<g
   id="g16">&#10;		<path
   class="st1"
   d="m 476.5,66.6 c 0,0 32.4,10.3 88,53.3 0,0 -11.7,29.2 -20.3,60.1 0,0 -44.3,-42.8 -93.3,-55.1 z"
   id="path6" />&#10;		<path
   class="st2"
   d="m 544.2,180.1 c 0,0 -44.3,-42.8 -93.3,-55.1 l 7.3,-16.6 c 39.6,7.6 77.8,38.4 92.3,51.1 -2.2,6.5 -4.3,13.5 -6.3,20.6 z"
   id="path8" />&#10;		<path
   d="m 558.2,136.6 c -14.3,-12.9 -50.6,-42.7 -90,-51.4 l 8.2,-18.6 c 0,0 32.4,10.3 88,53.3 0.1,0 -2.5,6.6 -6.2,16.7 z"
   id="path10" />&#10;		<path
   class="st3"
   d="m 476.9,66.7 c 3.6,6.7 13.5,25.7 15.9,38.3 0,0 -28.6,11.4 -41.9,19.9 0,0 0,0 0,0 l 25.6,-58.3 c 0,0 0.1,0.1 0.4,0.1 z"
   id="path12" />&#10;		<path
   class="st4"
   d="m 476.5,66.6 c 0,0 32.4,10.3 88,53.3 0,0 -11.7,29.2 -20.3,60.1 0,0 -44.3,-42.8 -93.3,-55.1 z"
   id="path14" />&#10;	</g>&#10;	<circle
   class="st5"
   cx="487.79999"
   cy="40.5"
   r="13.7"
   id="circle18" />&#10;	<path
   class="st6"
   d="m 495.8,33 c 0,0 5,16 -16.6,12 -0.1,0 25.3,11.3 16.6,-12 z"
   id="path20" />&#10;	<path
   class="st5"
   d="m 472.9,65.6 c 7.1,-16.7 -2.4,-3.1 -1.1,-19.1 1.3,-16 12.2,-8.3 12.2,-8.3 -4.5,0 -9.8,5.3 -5.6,10 4.2,4.7 2.3,2.3 4.3,-2.8 2,-5.1 5,-5 5,-5 5.3,6 -6.8,13.5 1,12.8 7.8,-0.7 5.7,-12.8 5.7,-12.8 11,10 -0.8,20.8 -4.5,19.8 -3.7,-1 -11.5,7.8 -11.5,7.8 l -49.3,115.9 -5.5,-2.3 z"
   id="path22" />&#10;	&#10;		<rect
   x="393.60001"
   y="116.5"
   transform="matrix(0.3897,-0.9209,0.9209,0.3897,170.4966,491.2987)"
   class="st6"
   width="124.7"
   height="1"
   id="rect24" />&#10;	<path
   class="st6"
   d="m 492.8,54.2 c 0,0 -5.1,3.3 -10.9,1.6 -0.1,0 2.9,7.7 10.9,-1.6 z"
   id="path26" />&#10;	<g
   id="g38">&#10;		<path
   class="st2"
   d="m 124,66.6 c 0,0 -32.4,10.3 -88,53.3 0,0 11.7,29.2 20.3,60.1 0,0 44.3,-42.8 93.3,-55.1 z"
   id="path28"
   style="fill:#ffffff" />&#10;		<path
   class="st1"
   d="m 56.3,180.1 c 0,0 44.3,-42.8 93.3,-55.1 l -7.3,-16.6 c -39.6,7.6 -77.8,38.4 -92.3,51.1 2.2,6.5 4.3,13.5 6.3,20.6 z"
   id="path30"
   style="fill:#007a3d;fill-opacity:1" />&#10;		<path
   d="m 42.3,136.6 c 14.3,-12.9 50.6,-42.7 90,-51.4 L 124,66.6 c 0,0 -32.4,10.3 -88,53.3 0,0 2.6,6.6 6.3,16.7 z"
   id="path32" />&#10;		<path
   class="st3"
   d="m 123.6,66.7 c -3.6,6.7 -13.5,25.7 -15.9,38.3 0,0 28.6,11.4 41.9,19.9 0,0 0,0 0,0 L 124,66.6 c 0,0 -0.1,0.1 -0.4,0.1 z"
   id="path34" />&#10;		<path
   class="st4"
   d="m 124,66.6 c 0,0 -32.4,10.3 -88,53.3 0,0 11.7,29.2 20.3,60.1 0,0 44.3,-42.8 93.3,-55.1 z"
   id="path36" />&#10;	</g>&#10;	<g
   id="g50">&#10;		<circle
   class="st5"
   cx="112.8"
   cy="40.5"
   r="13.7"
   id="circle40" />&#10;		<path
   class="st6"
   d="m 112.8,31.3 c 0,0 12.8,7.2 -2,18 0,0 25.7,-10.3 2,-18 z"
   id="path42" />&#10;		<path
   class="st5"
   d="m 127.6,65.6 c -7.1,-16.7 2.4,-3.1 1.1,-19.1 -1.3,-16 -12.3,-8.3 -12.3,-8.3 4.5,0 9.8,5.3 5.6,10 -4.2,4.7 -2.3,2.3 -4.3,-2.8 -2,-5.1 -5,-5 -5,-5 -5.3,6 6.8,13.5 -1,12.8 -7.8,-0.7 -5.7,-12.7 -5.7,-12.7 -11,10 0.8,20.8 4.5,19.8 3.7,-1 11.6,7.7 11.6,7.7 l 49.3,115.9 5.5,-2.3 z"
   id="path44" />&#10;		<path
   class="st6"
   d="m 124.7,48.3 c 0,0 0.4,6 -6.2,9 0,0 13.4,-2.2 6.2,-9 z"
   id="path46" />&#10;		&#10;			<rect
   x="147.10001"
   y="54.700001"
   transform="matrix(0.9209,-0.3897,0.3897,0.9209,-33.9335,66.7637)"
   class="st6"
   width="1"
   height="124.7"
   id="rect48" />&#10;	</g>&#10;	<g
   id="g122">&#10;		<polygon
   class="st2"
   points="206.3,283.3 219,310.7 200.7,363.3 206.7,397.9 222.3,444.8 245.5,463.3 279.3,472.6 300,483.8 324.4,471.3 375,451.6 386.7,424.6 392.3,379.3 399.3,359.3 379.3,310.7 395,278.3 403.3,265.7 398.7,251.6 300,238.3 200,254.6 197.3,263.9 "
   id="polygon52" />&#10;		<path
   class="st7"
   d="m 237.8,371.3 c 0,0 11.4,75.3 54.1,92 0,0 -41.8,-32.8 -41.8,-97.3 z"
   id="path54" />&#10;		<path
   class="st8"
   d="m 246.6,361.5 c 0,0 0.4,-24.3 -8.3,-23 -8.7,1.3 -12.8,10 -8,14.5 4.8,4.5 6.6,-4.8 7.1,2 0.6,6.8 4.1,13.5 -5.9,15.8 -10,2.3 -8.5,9.3 -6.3,12 2.2,2.7 7.5,0.3 5.8,-3.3 -1.7,-3.6 1.5,-4.8 8.5,-6.8 7,-2 25.5,-7.8 21,-14.5 -4.5,-6.7 -5.3,6 -13.9,3.3 z"
   id="path56" />&#10;		<path
   class="st7"
   d="m 360.8,371.3 c 0,0 -11.4,75.3 -54.1,92 0,0 41.8,-32.8 41.8,-97.3 z"
   id="path58" />&#10;		<path
   class="st8"
   d="m 352,361.5 c 0,0 -0.4,-24.3 8.3,-23 8.7,1.3 12.8,10 8,14.5 -4.8,4.5 -6.6,-4.8 -7.1,2 -0.5,6.8 -4.1,13.5 5.9,15.8 10,2.3 8.5,9.3 6.3,12 -2.2,2.7 -7.5,0.3 -5.8,-3.3 1.7,-3.6 -1.5,-4.8 -8.5,-6.8 -7,-2 -25.5,-7.8 -21,-14.5 4.5,-6.7 5.3,6 13.9,3.3 z"
   id="path60" />&#10;		<g
   id="g70">&#10;			<path
   class="st8"
   d="m 351.8,440 c 1.2,1.6 1.4,3.5 0.3,4.4 v 0 c -1.1,0.9 -3,0.3 -4.2,-1.3 L 265.7,338.6 c -1.2,-1.6 -1.4,-3.5 -0.3,-4.4 v 0 c 1.1,-0.9 3,-0.3 4.2,1.3 z"
   id="path62" />&#10;			<polygon
   class="st7"
   points="258.9,321.5 214.6,268.9 255.3,324.3 258.9,321.5 214.6,268.9 255.3,324.3 "
   id="polygon64" />&#10;			<path
   class="st9"
   d="m 279.3,327 c -10.7,-13.2 -24.1,-19.6 -30.5,-14.6 -6.4,5 -3.4,19.6 7,33.1 z"
   id="path66" />&#10;			<path
   class="st10"
   d="m 248.8,317.1 c 0,0 -1.8,9.3 8.7,22.7 l 5.5,-4.3 c 0,0 -8.7,-6 -14.2,-18.4 z"
   id="path68" />&#10;		</g>&#10;		<g
   id="g80">&#10;			<path
   class="st8"
   d="m 247.6,440 c -1.2,1.6 -1.4,3.5 -0.3,4.4 v 0 c 1.1,0.9 3,0.3 4.2,-1.3 l 82.2,-104.5 c 1.2,-1.6 1.4,-3.5 0.3,-4.4 v 0 c -1.1,-0.9 -3,-0.3 -4.2,1.3 z"
   id="path72" />&#10;			<polygon
   class="st7"
   points="340.5,321.5 384.8,268.9 344,324.3 340.5,321.5 384.8,268.9 344,324.3 "
   id="polygon74" />&#10;			<path
   class="st9"
   d="m 320,327 c 10.7,-13.2 24.1,-19.6 30.5,-14.6 6.4,5 3.4,19.6 -7,33.1 z"
   id="path76" />&#10;			<path
   class="st10"
   d="m 345.2,314.1 c 0,0 -9.5,-0.1 -20.8,12.6 l 5.2,4.6 c 0.1,0.1 4.4,-9.6 15.6,-17.2 z"
   id="path78" />&#10;		</g>&#10;		<polygon
   class="st11"
   points="291.8,308.8 308.3,308.8 302.8,483.8 296.3,483.8 "
   id="polygon82" />&#10;		<path
   class="st8"
   d="M 333.5,267.8 H 312 c 0,-1 0.1,-1.5 0.1,-2.1 0,-9.6 -5.7,-17.5 -12.8,-17.5 -7.1,0 -12.8,8 -12.8,17.6 0,0.6 0,1.1 0.1,2.1 h -20 v 11 h 24.2 c 2.3,2 5.3,4.5 8.6,4.5 3.3,0 6.3,-2.5 8.6,-4.5 h 25.7 V 267.8 Z M 291,265 c 0,-6.6 3.7,-12.1 8.3,-12.1 4.6,0 8.3,5.5 8.3,12.1 0,0.9 -0.1,1.8 -0.2,2.8 h -16.2 c -0.1,-1 -0.2,-2 -0.2,-2.8 z"
   id="path84" />&#10;		<path
   d="M 299.9,278.3 H 266 c 1,29.3 25.8,39 25.8,39 h 8 8.3 c 0,0 24.8,-9.8 25.8,-39 z"
   id="path86" />&#10;		<path
   class="st12"
   d="m 291,281.3 c 0,0 -4.8,0.5 -3.2,9.8 1.6,9.3 4.5,16.8 8.2,10.2 3.7,-6.7 0.7,-22.4 -5,-20 z"
   id="path88" />&#10;		<path
   class="st5"
   d="m 411,364 c -45.8,-42 -9.8,-84.8 -6.3,-95.1 3.5,-10.3 -5.7,-12.9 -5.7,-12.9 8,11 -9.8,12.5 -22.1,45.3 -12.4,32.7 14,62.7 14,62.7 -10,7 -3.3,30.8 -10.1,55.3 -6.8,24.5 -29.4,41 -43.6,43 -14.2,2 -37.3,17 -37.3,17 0,0 -22.8,-15 -37,-17 -14.2,-2 -36.7,-18.5 -43.5,-43 -6.8,-24.5 0,-48.3 -10,-55.3 0,0 26.4,-30 14.1,-62.8 -12.3,-32.8 -30,-34.2 -22,-45.2 0,0 -9.3,2.5 -5.8,12.9 3.5,10.4 39.5,53.1 -6.3,95.1 0,0 12.3,12.8 11,22 -1.3,9.2 -2.1,64 36.2,78.3 38.3,14.3 38.8,7.3 63.3,24 25,-16.8 25.2,-9.8 63.5,-24 38.3,-14.2 37.7,-69 36.5,-78.3 -1.2,-9.3 11.1,-22 11.1,-22 z"
   id="path90" />&#10;		<path
   class="st5"
   d="m 195.8,260.8 c 0,0 1,-8.5 6.7,-12.6 5.7,-4.1 92.8,-26.9 195.5,0 0,0 2.4,-0.1 6.7,12.6 0,0 -107.2,-37.3 -208.9,0 z"
   id="path92" />&#10;		<rect
   x="305"
   y="270.29999"
   class="st13"
   width="24"
   height="5"
   id="rect94" />&#10;		<rect
   x="275"
   y="270.29999"
   class="st14"
   width="16"
   height="5"
   id="rect96" />&#10;		<path
   class="st15"
   d="m 300.1,431.3 c 0,0 0,2.2 2.1,0 l 2.7,-112 h -4 z"
   id="path98" />&#10;		<path
   class="st13"
   d="m 232.5,343.7 c 0,0 6.1,-3 7.5,6 0,0 4.3,-14.3 -7.5,-6 z"
   id="path100" />&#10;		<path
   class="st13"
   d="m 362.6,342 c 0,0 4.2,2 3,9.9 0,0 7.2,-9.4 -3,-9.9 z"
   id="path102" />&#10;		<path
   class="st13"
   d="m 230.4,374.5 c 0,0 -2.9,1.9 -1.1,5.5 0,0 -5.4,-3.5 1.1,-5.5 z"
   id="path104" />&#10;		<path
   class="st13"
   d="m 256.5,359.3 c 0,0 -1.1,5.5 -9.3,8.4 0,0 3.6,0.8 10.8,-5.1 0,-0.1 2.6,-4.8 -1.5,-3.3 z"
   id="path106" />&#10;		<path
   class="st13"
   d="m 369.5,373.9 c 0,0 4.4,3.8 1.8,8.3 0,0 6.9,-5.7 -1.8,-8.3 z"
   id="path108" />&#10;		<path
   class="st13"
   d="m 353.8,360 c 0,0 1.8,4.9 -5.2,4.1 0,0.1 10.7,2.7 5.2,-4.1 z"
   id="path110" />&#10;		<circle
   class="st14"
   cx="232.5"
   cy="348.29999"
   r="2.3"
   id="circle112" />&#10;		<circle
   class="st14"
   cx="358.5"
   cy="347.29999"
   r="2.3"
   id="circle114" />&#10;		<path
   class="st16"
   d="M 295.7,329.3 296,415 c 0,0 1,4.7 1,-0.2 v -85 z"
   id="path116" />&#10;		<path
   class="st17"
   d="m 269,331.4 6,-4.6 c 0,0 -10.2,-13 -19.8,-12.6 z"
   id="path118" />&#10;		<path
   class="st17"
   d="m 350.8,318.1 -11.7,19.2 3.7,3.8 c 0,0 7.3,-13.2 8,-23 z"
   id="path120" />&#10;	</g>&#10;	<g
   id="g144">&#10;		<path
   class="st5"
   d="m 260,125.3 c 0,0 -36,110 -128.5,113 v -20 l 54.5,-34 39.3,-44.4 12.7,-14.5 18,-3.6 z"
   id="path124" />&#10;		<path
   class="st18"
   d="m 223.4,118.3 c 0,0 -37.9,52 -91.9,67.7 v 36.3 c 0,0 78.9,-5 114,-102.3 z"
   id="path126" />&#10;		<path
   class="st19"
   d="m 170.9,187.4 c 0,0 37,-5.9 56.5,-54.6 0,0 -20,35.6 -56.5,54.6 z"
   id="path128" />&#10;		<line
   class="st4"
   x1="241.8"
   y1="129.60001"
   x2="257.60001"
   y2="131.8"
   id="line130" />&#10;		<line
   class="st4"
   x1="235"
   y1="144.2"
   x2="250.39999"
   y2="147.7"
   id="line132" />&#10;		<line
   class="st4"
   x1="224.8"
   y1="161.5"
   x2="240.39999"
   y2="165.89999"
   id="line134" />&#10;		<line
   class="st4"
   x1="213.39999"
   y1="176.39999"
   x2="229.2"
   y2="182.3"
   id="line136" />&#10;		<line
   class="st4"
   x1="200.10001"
   y1="190"
   x2="214.60001"
   y2="199.39999"
   id="line138" />&#10;		<line
   class="st4"
   x1="186.8"
   y1="200.5"
   x2="195.8"
   y2="215.8"
   id="line140" />&#10;		<line
   class="st4"
   x1="166.2"
   y1="212.2"
   x2="170.10001"
   y2="230.10001"
   id="line142" />&#10;	</g>&#10;	<g
   id="g160">&#10;		<path
   class="st5"
   d="m 138.5,460.2 c 0,0 3.2,9.4 -3.1,13.7 -6.3,4.3 -50,6.3 -53.8,23 0,0 -2.8,-14.7 1.2,-26.7 l 4.6,-12.3 43.5,-15.5 4.5,8.5 z"
   id="path146" />&#10;		<path
   class="st18"
   d="m 135.3,452.6 c 0,0 -35.3,2.7 -52.6,17.7 0,0 2.6,-35.6 9.3,-55.6 l 33.3,15.3 z"
   id="path148" />&#10;		<polygon
   class="st19"
   points="109,426.3 114,433.3 114,451.3 129.3,437.2 112.7,414.7 95.5,421.4 91.7,453 "
   id="polygon150" />&#10;		<path
   class="st0"
   d="m 71.8,412.6 c 0,0 -5.1,11.3 17.3,16 22.4,4.7 46.3,23.7 49.7,34.7 0,0 -3.7,-56.3 -11.3,-74 l -45.1,7 z"
   id="path152" />&#10;		<line
   class="st4"
   x1="91.699997"
   y1="464.29999"
   x2="90.900002"
   y2="486.79999"
   id="line154" />&#10;		<line
   class="st4"
   x1="107.4"
   y1="458"
   x2="106.2"
   y2="481.20001"
   id="line156" />&#10;		<line
   class="st4"
   x1="127"
   y1="453.60001"
   x2="125.3"
   y2="476.89999"
   id="line158" />&#10;	</g>&#10;	<g
   id="g188">&#10;		<path
   class="st5"
   d="m 75.8,389.3 -4,23.3 c 0,0 26.6,-21 69.6,-11.7 0,0 5,-131.4 4.7,-174.7 L 129.8,228.9 98,368.6 Z"
   id="path162" />&#10;		<path
   class="st18"
   d="m 103,256 c 0,0 4,6.1 0,9.7 -4,3.6 -23.8,101.6 -27.2,123.6 0,0 13.6,-13.7 51.2,-12.4 0,0 5.3,-120.1 6.7,-150.1 L 112,226.2 Z"
   id="path164" />&#10;		<polygon
   class="st19"
   points="120.3,248 109,253.7 98,319.1 "
   id="polygon166" />&#10;		<polygon
   class="st19"
   points="131.5,244.3 122.7,244.3 119,293.8 "
   id="polygon168" />&#10;		<line
   class="st4"
   x1="82.699997"
   y1="384.70001"
   x2="78.800003"
   y2="408.29999"
   id="line170" />&#10;		<line
   class="st4"
   x1="95.099998"
   y1="380"
   x2="92.800003"
   y2="402.5"
   id="line172" />&#10;		<line
   class="st4"
   x1="115.3"
   y1="377"
   x2="114"
   y2="398.70001"
   id="line174" />&#10;		<line
   class="st4"
   x1="127"
   y1="376.89999"
   x2="140.39999"
   y2="400.79999"
   id="line176" />&#10;		<line
   class="st4"
   x1="128"
   y1="353.79999"
   x2="142.39999"
   y2="370.29999"
   id="line178" />&#10;		<line
   class="st4"
   x1="129"
   y1="331.39999"
   x2="143.3"
   y2="344"
   id="line180" />&#10;		<line
   class="st4"
   x1="130"
   y1="308.79999"
   x2="144.2"
   y2="315.5"
   id="line182" />&#10;		<line
   class="st4"
   x1="130.89999"
   y1="288"
   x2="144.89999"
   y2="291"
   id="line184" />&#10;		<line
   class="st4"
   x1="131.89999"
   y1="265.70001"
   x2="145.5"
   y2="266.70001"
   id="line186" />&#10;	</g>&#10;	<g
   id="g210">&#10;		<path
   class="st5"
   d="m 82.9,288.6 c -13.1,0.6 -10.8,-13.9 -0.6,-10.3 10.2,3.6 16.2,-5.4 16.2,-5.4 v 0 l -0.4,-3.1 h -4.3 c 0,0 -4.9,6.9 -11,4.6 -6,-2.3 -19.4,0.8 -15,11.8 4.4,11 19.5,11.6 28.3,1.9 l 2.1,-7.8 c -4.7,3.1 -4.7,7.8 -15.3,8.3 z"
   id="path190" />&#10;		<path
   class="st5"
   d="m 95.5,267.8 c 0,0 6.8,23.8 -20,30 -26.8,6.2 -27.8,21.9 -21.3,33.6 6.5,11.7 22.3,8.6 28.8,-8.6 l -1.8,-8.6 c 0,0 -3.8,-2.7 -9.5,3 -5.8,5.7 -13.8,8.4 -11.3,-1.3 2.5,-9.7 43.3,-0.7 42.5,-49.1 z"
   id="path192" />&#10;		<line
   class="st4"
   x1="81.5"
   y1="315.5"
   x2="70"
   y2="322.79999"
   id="line194" />&#10;		<line
   class="st4"
   x1="82.300003"
   y1="319.10001"
   x2="70"
   y2="327"
   id="line196" />&#10;		<line
   class="st4"
   x1="82.699997"
   y1="321.20001"
   x2="71.800003"
   y2="331.39999"
   id="line198" />&#10;		<path
   class="st5"
   d="m 138.8,172.3 c 0,0 11.5,-38.3 25.2,-36.7 13.7,1.6 3,40.3 -18,51.8 l -1.5,-5.9 c 0,0 22.2,-15.6 19.5,-33.3 -2.7,-17.7 -17.3,9.4 -21.3,24.7 z"
   id="path200" />&#10;		<path
   class="st5"
   d="m 89,265.7 c 0,0 -2.8,8.6 8.5,6.6 11.3,-2 41.8,-17.8 55.2,-50 13.4,-32.2 4.8,-43.3 -8.2,-40.8 z"
   id="path202" />&#10;		<path
   class="st18"
   d="m 106.5,160.8 c 0,0 -21,2.5 -28.5,31.5 -7.5,29 -30,28 -23.5,51 6.5,23 25,29.5 52,17.5 27,-12 43.9,-42 46,-63 2.1,-21 -14.5,-60 -46,-37 z"
   id="path204" />&#10;		<path
   class="st19"
   d="m 66,242.8 c 0,0 21,31 59,-11.5 0,0 -14,11.5 -27,-5 0,0 5.5,30.5 -32,16.5 z"
   id="path206" />&#10;		<path
   class="st19"
   d="m 114,170.3 c 0,0 24,18.9 17.5,39.9 0,0 25,-45.9 -17.5,-39.9 z"
   id="path208" />&#10;	</g>&#10;	<g
   id="g240">&#10;		<polygon
   class="st5"
   points="174.7,237.6 182,227.8 174.6,227.8 174.6,216.8 161.2,216.8 161.2,227.8 154.1,227.8 161.1,237.4 161.1,244.8 154.1,244.8 161,255.3 161,263.8 154.1,263.8 160.9,273.6 160.9,281.8 154.1,281.8 160.8,291.5 160.8,299.8 154.1,299.8 160.7,309.4 160.7,317.8 154.1,317.8 160.6,327.2 160.6,335.8 154.1,335.8 160.6,345.6 160.5,354.8 154.1,354.8 160.5,363.9 160.4,372.8 154.1,372.8 160.4,381.8 160.3,390.8 154.1,390.8 160.3,399.6 160.2,408.8 154.1,408.8 160.2,417.5 160.1,426.8 154.1,426.8 160.1,435.4 160,444.8 154.1,444.8 160,453.6 159.9,464.8 175.8,464.8 175.7,453.9 182,444.8 175.7,444.8 175.6,435.7 182,426.8 175.6,426.8 175.5,417.8 182,408.8 175.5,408.8 175.4,400 182,390.8 175.4,390.8 175.4,382.1 182,372.8 175.3,372.8 175.3,364.2 182,354.8 175.2,354.8 175.2,345.8 182,335.8 175.1,335.8 175.1,327.4 182,317.8 175.1,317.8 175,309.6 182,299.8 175,299.8 174.9,291.7 182,281.8 174.9,281.8 174.8,273.8 182,263.8 174.8,263.8 174.8,255.4 182,244.8 174.7,244.8 "
   id="polygon212" />&#10;		<polygon
   class="st6"
   points="175.6,231.3 171,231.3 171,238.3 "
   id="polygon214" />&#10;		<polygon
   class="st6"
   points="175.6,248.3 171,248.3 171,256.4 "
   id="polygon216" />&#10;		<polygon
   class="st6"
   points="175.6,267.3 171,267.3 171,274.6 "
   id="polygon218" />&#10;		<polygon
   class="st6"
   points="175.6,284.3 171,284.3 171,292.8 "
   id="polygon220" />&#10;		<polygon
   class="st6"
   points="175.6,303.3 171,303.3 171,310.9 "
   id="polygon222" />&#10;		<polygon
   class="st6"
   points="175.6,321.3 171,321.3 171,329.1 "
   id="polygon224" />&#10;		<polygon
   class="st6"
   points="175.6,339.3 171,339.3 171,347.3 "
   id="polygon226" />&#10;		<polygon
   class="st6"
   points="175.6,358.3 171,358.3 171,365.5 "
   id="polygon228" />&#10;		<polygon
   class="st6"
   points="175.6,375.3 171,375.3 171,383.6 "
   id="polygon230" />&#10;		<polygon
   class="st6"
   points="175.6,394.3 171,394.3 171,401.8 "
   id="polygon232" />&#10;		<polygon
   class="st6"
   points="175.6,412.3 171,412.3 171,420 "
   id="polygon234" />&#10;		<polygon
   class="st6"
   points="175.6,430.3 171,430.3 171,438.2 "
   id="polygon236" />&#10;		<polygon
   class="st6"
   points="175.6,448.3 171,448.3 171,456.3 "
   id="polygon238" />&#10;	</g>&#10;	<g
   id="g320">&#10;		<path
   class="st20"
   d="m 266.5,218.4 -4,-0.8 -3.3,-7.5 -4.9,-1.5 0.2,-7.3 -7.1,-1.5 -7.8,-7.3 -4.2,0.2 -7.1,-3.8 -3.3,1 -7.8,-5.3 -6.4,2.3 -3.1,-3.5 -6,2.3 -3.8,-3.5 -5.3,3.1 c 0,0 -12.2,-3.6 -1.6,-5.3 10.7,-1.6 15.1,0 15.1,0 l 5.9,-0.7 5.7,2.5 4.4,-1.3 6.9,3 4.9,-0.7 2.2,4 5.1,-1.2 4.7,6.3 3.6,1.3 4.9,5.4 c 0,0 4.7,-2.5 3.1,-5.6 l 0.4,-4.5 -4.7,-1.4 -2,-4.4 -4.9,-1.3 -9.8,-8 h -6.9 l -10,-2.9 c 0,0 -13.1,-0.9 -20.9,2.6 -7.8,3.5 -5.3,-2.2 -1.3,-4.3 4,-2.1 11.3,0 11.3,0 l 5.6,-1.7 9.1,0.8 5.6,0.3 c 0,0 14.8,0.7 19.3,9.4 0,0 4.4,-1.6 1.1,-6.8 -3.3,-5.1 -8.2,-8.1 -8.2,-8.1 l -7.6,-0.9 -5.1,-2.3 -8.4,0.8 -9.5,-4.1 -6.9,2.5 c 0,0 -10.2,-1.5 -14,4 -3.8,5.5 -12.9,-3.8 -19.4,2.3 -6.5,6.1 -10.5,-3.3 -10.5,-3.3 l -4.4,1.5 -3.6,-5.3 -5.1,-1.8 c 0,0 -7.8,-6.3 -15.3,-5.6 -7.5,0.7 -13.1,-1.6 -14,-4.6 -0.9,-3 -8.4,2.3 -8.4,2.3 l -9.8,-0.2 -7.1,2.3 c 0,0 -9.1,-2.5 -16.2,5.9 0,0 8.4,-3.6 9.1,-0.3 0,0 -9.1,3.1 -9.1,11.5 0,0 6.4,-8.1 14.9,-6.9 8.4,1.2 11.5,0 11.5,0 l 4.9,-2.5 7.8,3 6.2,-2.1 c 0,0 5.3,-0.5 5.1,3.5 l 4.4,-1 3.6,3.5 6.9,1.6 c 0,0 8.7,5.6 3.3,7.9 0,0 6.9,0.3 7.8,-3.6 0.9,-4 8,8.7 -0.4,11 -8.4,2.3 -10,7.7 -10,7.7 l -6.4,3.3 -1.6,3 c 0,0 -8.9,-1.6 -15.8,4.1 l 6,0.5 c 0,0 -12.7,1.8 -15.5,6.8 l 5.6,-0.2 c 0,0 -15.8,6.6 -17.3,13.7 -1.6,7.1 -5.8,4.1 -5.8,4.1 l -0.9,7.3 -2.2,6.9 2.2,3.1 c 0,0 -3.6,4.6 -1.1,10.4 0,0 0.9,-4.3 4.9,-5.3 4,-1 0.2,8.4 5.6,13.4 5.3,4.9 -2,-11.9 4.2,-15.3 6.2,-3.5 1.8,-6.8 -0.7,-9.2 l 6.9,-4 0.4,-5.3 6.7,-4.1 3.3,-5.8 c 0,0 5.3,0.5 2.4,5.8 0,0 6.2,-4.3 4.7,-7.9 -1.5,-3.6 4.9,-2 4.9,-2 l 7.8,-3.3 5.3,1.3 6,-7.6 4.9,3.1 c 0,0 -1.8,5.1 -0.6,8.3 -1.1,0.9 -2.4,2.3 -3.2,4.8 0,0 2.3,-0.8 5.5,-1 1.3,1.5 5.4,3 17.7,0.4 5.9,-1.2 7.3,-5.1 7,-9.3 5.7,-5.1 13,-6.3 13,-6.3 -6.4,-0.9 -11,-0.4 -14.2,0.6 -2.5,-8 -7,-14.3 4.5,-4.7 l 4.9,-5.3 10.4,3.3 6,-2.8 c 0,0 8.2,2 9.3,7 h 5.1 l 3.3,3.2 4,-3 3.8,2.8 h 4 c 0,0 6.9,4.7 4.7,10.6 l 3.8,0.4 1.6,3.6 4.4,0.7 c 0,0 2.4,3.9 0,8.2 0,0 3.8,1.6 5.8,-3 0,0 5.1,3.3 3.1,9.2 0,0 8,-4.4 4.2,-10.5 z"
   id="path242" />&#10;		<path
   class="st4"
   d="m 154.1,196.4 c 0,0 -49.4,3 -57.7,46.4"
   id="path244" />&#10;		<path
   class="st4"
   d="m 176.9,190.2 c 0,0 56.6,-11.2 83.5,33.3"
   id="path246" />&#10;		<path
   class="st4"
   d="m 174.5,213 c 0,0 1.3,-3.9 10.1,-6.7"
   id="path248" />&#10;		<path
   class="st4"
   d="m 163,216.2 c 0,0 -3.1,-1.8 -7.6,1.4"
   id="path250" />&#10;		<path
   class="st4"
   d="m 135.7,200.5 c 0,0 -2.7,-3.7 -9.1,-1.8"
   id="path252" />&#10;		<path
   class="st4"
   d="m 124.1,205.5 c 0,0 -1.2,-2.1 -8.4,0"
   id="path254" />&#10;		<path
   class="st4"
   d="m 118.7,208.8 c 0,0 4.7,1.8 5.4,8.3"
   id="path256" />&#10;		<path
   class="st4"
   d="m 99.6,232 c 0,0 -7.8,6.4 -8.4,15"
   id="path258" />&#10;		<path
   class="st4"
   d="m 103.2,225 c 0,0 2.9,1.8 3.2,5.6"
   id="path260" />&#10;		<path
   class="st4"
   d="m 194.1,189 c 0,0 0.5,-1.4 3.1,-3.1"
   id="path262" />&#10;		<path
   class="st4"
   d="m 204.3,189.6 c 0,0 0.6,-0.4 2.9,-2.2"
   id="path264" />&#10;		<path
   class="st4"
   d="m 213.2,191.1 c 0,0 0.5,-1.4 4.3,-2.5"
   id="path266" />&#10;		<path
   class="st4"
   d="m 226.2,194.9 c 0,0 5.4,-2.2 3,-3.8"
   id="path268" />&#10;		<path
   class="st4"
   d="m 235.5,199.3 c 0,0 4.3,0.9 3.2,-4.4"
   id="path270" />&#10;		<path
   class="st4"
   d="m 243.6,204.6 c 0,0 3.8,-2.7 8.7,-1.9"
   id="path272" />&#10;		<path
   class="st4"
   d="m 184.6,189.3 c 0,0 3.1,2 1.6,5.6"
   id="path274" />&#10;		<path
   class="st4"
   d="m 220.6,193 c 0,0 0.2,5.3 -2,5.2"
   id="path276" />&#10;		<path
   class="st4"
   d="m 223.6,193.9 c 0,0 3.8,3.9 2.6,7.4"
   id="path278" />&#10;		<path
   class="st4"
   d="m 238.9,201.3 c 0,0 -5.3,-1.7 -5.1,2.2"
   id="path280" />&#10;		<path
   class="st4"
   d="m 247.3,207.6 c 0,0 2.8,4.5 -2.3,5.4"
   id="path282" />&#10;		<path
   class="st4"
   d="m 252.3,212.6 c 0,0 -0.3,3.3 -4.3,4.6"
   id="path284" />&#10;		<path
   class="st4"
   d="m 255.7,216.7 c 0,0 2.5,5 -1,8.3"
   id="path286" />&#10;		<path
   class="st4"
   d="m 253.7,214.2 c 0,0 4.6,1.5 4.4,-2.9"
   id="path288" />&#10;		<path
   class="st4"
   d="m 199.7,189.2 c 0,0 -2.7,5 1.6,5.7"
   id="path290" />&#10;		<path
   class="st4"
   d="m 186.5,179 c 0,0 40.6,-15.7 67.2,14.9"
   id="path292" />&#10;		<path
   class="st4"
   d="m 217.4,175.3 c 0,0 2.7,-0.9 1.3,4.3"
   id="path294" />&#10;		<path
   class="st4"
   d="m 228.2,177.4 c 0,0 3.3,1.2 1.6,4.6"
   id="path296" />&#10;		<path
   class="st4"
   d="m 235.5,180.2 c 0,0 3.8,-1.3 0.8,-3.8"
   id="path298" />&#10;		<path
   class="st4"
   d="m 184.6,172.3 c 0,0 29.1,-22.3 61.9,0"
   id="path300" />&#10;		<path
   class="st4"
   d="m 213.2,162.4 c 0,0 -4,0.3 -3.3,-2.8"
   id="path302" />&#10;		<path
   class="st4"
   d="m 228,163.9 c 0,0 -3.7,-2 0.2,-2.8"
   id="path304" />&#10;		<path
   class="st4"
   d="m 205.8,163.4 c 0,0 -0.6,1.2 2.8,4"
   id="path306" />&#10;		<path
   class="st4"
   d="m 164.6,174 c 0,0 -20.2,-24.4 -68.2,-18.8"
   id="path308" />&#10;		<path
   class="st4"
   d="m 106.3,154.4 c 0,0 -7,-2.9 -15.1,-0.1"
   id="path310" />&#10;		<path
   class="st4"
   d="m 99.6,154.8 c 0,0 5.9,2.8 -13.2,3.9"
   id="path312" />&#10;		<path
   class="st4"
   d="m 118.7,154.7 c 0,0 -5.4,-2.1 -4.5,-5.6"
   id="path314" />&#10;		<path
   class="st4"
   d="m 141.8,159.6 c 0,0 7.9,1.9 6.1,10.2"
   id="path316" />&#10;		<path
   class="st4"
   d="m 114.2,154.4 c 0,0 3.4,1.7 0,5.2"
   id="path318" />&#10;	</g>&#10;	<g
   id="g342">&#10;		<path
   class="st5"
   d="m 340.3,125.3 c 0,0 36.3,110 128.3,113 v -20 l -54.3,-34 -39.3,-44.4 -12.6,-14.5 -18.1,-3.6 z"
   id="path322" />&#10;		<path
   class="st18"
   d="m 376.8,118.3 c 0,0 37.7,52 91.7,67.7 v 36.3 c 0,0 -78.7,-5 -113.9,-102.3 z"
   id="path324" />&#10;		<path
   class="st19"
   d="m 429.6,187.4 c 0,0 -37,-5.9 -56.5,-54.6 0,0 20,35.6 56.5,54.6 z"
   id="path326" />&#10;		<line
   class="st4"
   x1="358.79999"
   y1="129.60001"
   x2="342.89999"
   y2="131.8"
   id="line328" />&#10;		<line
   class="st4"
   x1="365.5"
   y1="144.2"
   x2="350.10001"
   y2="147.7"
   id="line330" />&#10;		<line
   class="st4"
   x1="375.70001"
   y1="161.5"
   x2="360.10001"
   y2="165.89999"
   id="line332" />&#10;		<line
   class="st4"
   x1="387.10001"
   y1="176.39999"
   x2="371.29999"
   y2="182.3"
   id="line334" />&#10;		<line
   class="st4"
   x1="400.39999"
   y1="190"
   x2="385.89999"
   y2="199.39999"
   id="line336" />&#10;		<line
   class="st4"
   x1="413.70001"
   y1="200.5"
   x2="404.79999"
   y2="215.8"
   id="line338" />&#10;		<line
   class="st4"
   x1="434.29999"
   y1="212.2"
   x2="430.39999"
   y2="230.10001"
   id="line340" />&#10;	</g>&#10;	<g
   id="g358">&#10;		<path
   class="st5"
   d="m 462,460.2 c 0,0 -3.2,9.4 3.1,13.7 6.3,4.3 50,6.3 53.8,23 0,0 2.8,-14.7 -1.2,-26.7 l -4.6,-12.3 -43.5,-15.5 -4.5,8.5 z"
   id="path344" />&#10;		<path
   class="st18"
   d="m 465.2,452.6 c 0,0 35.3,2.7 52.6,17.7 0,0 -2.6,-35.6 -9.3,-55.6 L 475.2,430 Z"
   id="path346" />&#10;		<polygon
   class="st19"
   points="491.2,426.3 486,433.3 486,451.3 470.9,437.2 487.7,414.7 505,421.4 508.8,453 "
   id="polygon348" />&#10;		<path
   class="st0"
   d="m 528.8,412.6 c 0,0 5.1,11.3 -17.3,16 -22.4,4.7 -46.3,23.7 -49.7,34.7 0,0 3.7,-56.3 11.3,-74 l 45.1,7 z"
   id="path350" />&#10;		<line
   class="st4"
   x1="508.79999"
   y1="464.29999"
   x2="509.60001"
   y2="486.79999"
   id="line352" />&#10;		<line
   class="st4"
   x1="493.10001"
   y1="458"
   x2="494.29999"
   y2="481.20001"
   id="line354" />&#10;		<line
   class="st4"
   x1="473.5"
   y1="453.60001"
   x2="475.29999"
   y2="476.89999"
   id="line356" />&#10;	</g>&#10;	<g
   id="g386">&#10;		<path
   class="st5"
   d="m 524.7,389.3 4,23.3 c 0,0 -26.6,-21 -69.6,-11.7 0,0 -5,-131.4 -4.7,-174.7 l 16.3,2.7 31.7,139.7 z"
   id="path360" />&#10;		<path
   class="st18"
   d="m 497.5,256 c 0,0 -4,6.1 0,9.7 4,3.6 23.8,101.6 27.3,123.6 0,0 -13.6,-13.7 -51.2,-12.4 0,0 -5.3,-120.1 -6.7,-150.1 l 21.7,-0.6 z"
   id="path362" />&#10;		<polygon
   class="st19"
   points="480.2,248 491.5,253.7 502.5,319.1 "
   id="polygon364" />&#10;		<polygon
   class="st19"
   points="469,244.3 477.8,244.3 481.5,293.8 "
   id="polygon366" />&#10;		<line
   class="st4"
   x1="517.79999"
   y1="384.70001"
   x2="521.70001"
   y2="408.29999"
   id="line368" />&#10;		<line
   class="st4"
   x1="505.39999"
   y1="380"
   x2="507.70001"
   y2="402.5"
   id="line370" />&#10;		<line
   class="st4"
   x1="485.20001"
   y1="377"
   x2="486.5"
   y2="398.70001"
   id="line372" />&#10;		<line
   class="st4"
   x1="473.5"
   y1="376.89999"
   x2="460.10001"
   y2="400.79999"
   id="line374" />&#10;		<line
   class="st4"
   x1="472.5"
   y1="353.79999"
   x2="458.10001"
   y2="370.29999"
   id="line376" />&#10;		<line
   class="st4"
   x1="471.5"
   y1="331.39999"
   x2="457.20001"
   y2="344"
   id="line378" />&#10;		<line
   class="st4"
   x1="470.5"
   y1="308.79999"
   x2="456.29999"
   y2="315.5"
   id="line380" />&#10;		<line
   class="st4"
   x1="469.60001"
   y1="288"
   x2="455.60001"
   y2="291"
   id="line382" />&#10;		<line
   class="st4"
   x1="468.60001"
   y1="265.70001"
   x2="455"
   y2="266.70001"
   id="line384" />&#10;	</g>&#10;	<g
   id="g408">&#10;		<path
   class="st5"
   d="m 517.6,288.6 c 13.1,0.6 10.8,-13.9 0.6,-10.3 -10.1,3.6 -16.2,-5.4 -16.2,-5.4 v 0 l 0.4,-3.1 h 4.3 c 0,0 4.9,6.9 11,4.6 6,-2.3 19.4,0.8 15,11.8 -4.3,11 -19.5,11.6 -28.3,1.9 l -2.1,-7.8 c 4.7,3.1 4.7,7.8 15.3,8.3 z"
   id="path388" />&#10;		<path
   class="st5"
   d="m 505,267.8 c 0,0 -6.8,23.8 20,30 26.8,6.2 27.8,21.9 21.3,33.6 -6.5,11.7 -22.3,8.6 -28.8,-8.6 l 1.8,-8.6 c 0,0 3.8,-2.7 9.5,3 5.8,5.7 13.8,8.4 11.3,-1.3 -2.5,-9.7 -43.3,-0.7 -42.5,-49.1 z"
   id="path390" />&#10;		<line
   class="st4"
   x1="519"
   y1="315.5"
   x2="530.5"
   y2="322.79999"
   id="line392" />&#10;		<line
   class="st4"
   x1="518.20001"
   y1="319.10001"
   x2="530.5"
   y2="327"
   id="line394" />&#10;		<line
   class="st4"
   x1="517.79999"
   y1="321.20001"
   x2="528.79999"
   y2="331.39999"
   id="line396" />&#10;		<path
   class="st5"
   d="m 461.7,172.3 c 0,0 -11.5,-38.3 -25.2,-36.7 -13.7,1.6 -3,40.3 18,51.8 l 1.5,-5.9 c 0,0 -22.2,-15.6 -19.5,-33.3 2.7,-17.7 17.3,9.4 21.3,24.7 z"
   id="path398" />&#10;		<path
   class="st5"
   d="m 511.5,265.7 c 0,0 2.8,8.6 -8.5,6.6 -11.3,-2 -41.8,-17.8 -55.2,-50 C 434.5,190 443,179 456,181.5 Z"
   id="path400" />&#10;		<path
   class="st18"
   d="m 494,160.8 c 0,0 21,2.5 28.5,31.5 7.5,29 30,28 23.5,51 -6.5,23 -25,29.5 -52,17.5 -27,-12 -43.9,-42 -46,-63 -2.1,-21 14.5,-60 46,-37 z"
   id="path402" />&#10;		<path
   class="st19"
   d="m 534.5,242.8 c 0,0 -21,31 -59,-11.5 0,0 14,11.5 27,-5 0,0 -5.5,30.5 32,16.5 z"
   id="path404" />&#10;		<path
   class="st19"
   d="m 486.5,170.3 c 0,0 -24,18.9 -17.5,39.9 0,0 -25,-45.9 17.5,-39.9 z"
   id="path406" />&#10;	</g>&#10;	<g
   id="g438">&#10;		<polygon
   class="st5"
   points="425.8,237.6 418.5,227.8 425.9,227.8 425.9,216.8 439.3,216.8 439.3,227.8 446.4,227.8 439.4,237.4 439.4,244.8 446.4,244.8 439.5,255.3 439.5,263.8 446.4,263.8 439.6,273.6 439.6,281.8 446.4,281.8 439.7,291.5 439.7,299.8 446.4,299.8 439.8,309.4 439.8,317.8 446.4,317.8 439.9,327.2 439.9,335.8 446.4,335.8 439.9,345.6 440,354.8 446.4,354.8 440,363.9 440.1,372.8 446.4,372.8 440.1,381.8 440.2,390.8 446.4,390.8 440.2,399.6 440.3,408.8 446.4,408.8 440.3,417.5 440.4,426.8 446.4,426.8 440.4,435.4 440.5,444.8 446.4,444.8 440.5,453.6 440.6,464.8 424.7,464.8 424.8,453.9 418.5,444.8 424.8,444.8 424.9,435.7 418.5,426.8 424.9,426.8 425,417.8 418.5,408.8 425,408.8 425.1,400 418.5,390.8 425.1,390.8 425.1,382.1 418.5,372.8 425.2,372.8 425.2,364.2 418.5,354.8 425.3,354.8 425.3,345.8 418.5,335.8 425.4,335.8 425.4,327.4 418.5,317.8 425.4,317.8 425.5,309.6 418.5,299.8 425.5,299.8 425.6,291.7 418.5,281.8 425.6,281.8 425.7,273.8 418.5,263.8 425.7,263.8 425.7,255.4 418.5,244.8 425.8,244.8 "
   id="polygon410" />&#10;		<polygon
   class="st6"
   points="439,231.3 435,231.3 435,238.3 "
   id="polygon412" />&#10;		<polygon
   class="st6"
   points="439,248.3 435,248.3 435,256.4 "
   id="polygon414" />&#10;		<polygon
   class="st6"
   points="439,267.3 435,267.3 435,274.6 "
   id="polygon416" />&#10;		<polygon
   class="st6"
   points="439,284.3 435,284.3 435,292.8 "
   id="polygon418" />&#10;		<polygon
   class="st6"
   points="439,303.3 435,303.3 435,310.9 "
   id="polygon420" />&#10;		<polygon
   class="st6"
   points="439,321.3 435,321.3 435,329.1 "
   id="polygon422" />&#10;		<polygon
   class="st6"
   points="439,339.3 435,339.3 435,347.3 "
   id="polygon424" />&#10;		<polygon
   class="st6"
   points="439,358.3 435,358.3 435,365.5 "
   id="polygon426" />&#10;		<polygon
   class="st6"
   points="439,375.3 435,375.3 435,383.6 "
   id="polygon428" />&#10;		<polygon
   class="st6"
   points="439,394.3 435,394.3 435,401.8 "
   id="polygon430" />&#10;		<polygon
   class="st6"
   points="439,412.3 435,412.3 435,420 "
   id="polygon432" />&#10;		<polygon
   class="st6"
   points="439,430.3 435,430.3 435,438.2 "
   id="polygon434" />&#10;		<polygon
   class="st6"
   points="439,448.3 435,448.3 435,456.3 "
   id="polygon436" />&#10;	</g>&#10;	<g
   id="g518">&#10;		<path
   class="st20"
   d="m 334,218.4 4,-0.8 3.3,-7.5 4.9,-1.5 -0.2,-7.3 7.1,-1.5 7.8,-7.3 4.2,0.2 7.1,-3.8 3.3,1 7.8,-5.3 6.4,2.3 3.1,-3.5 6,2.3 3.8,-3.5 5.3,3.1 c 0,0 12.2,-3.6 1.6,-5.3 -10.7,-1.6 -15.1,0 -15.1,0 l -5.9,-0.7 -5.7,2.5 -4.4,-1.3 -6.9,3 -4.9,-0.7 -2.2,4 -5.1,-1.2 -4.7,6.3 -3.6,1.3 -4.9,5.4 c 0,0 -4.7,-2.5 -3.1,-5.6 l -0.4,-4.5 4.7,-1.4 2,-4.4 4.9,-1.3 9.8,-8 h 6.9 l 10,-2.9 c 0,0 13.1,-0.9 20.9,2.6 7.8,3.5 5.3,-2.2 1.3,-4.3 -4,-2.1 -11.3,0 -11.3,0 l -5.6,-1.7 -9.1,0.8 -5.6,0.3 c 0,0 -14.8,0.7 -19.3,9.4 0,0 -4.4,-1.6 -1.1,-6.8 3.3,-5.2 8.2,-8.1 8.2,-8.1 l 7.6,-0.9 5.1,-2.3 8.4,0.8 9.5,-4.1 6.9,2.5 c 0,0 10.2,-1.5 14,4 3.8,5.5 12.9,-3.8 19.4,2.3 6.5,6.1 10.5,-3.3 10.5,-3.3 l 4.4,1.5 3.6,-5.3 5.1,-1.8 c 0,0 7.8,-6.3 15.3,-5.6 7.6,0.7 13.1,-1.6 14,-4.6 0.9,-3 8.4,2.3 8.4,2.3 l 9.8,-0.2 7.1,2.3 c 0,0 9.1,-2.5 16.2,5.9 0,0 -8.4,-3.6 -9.1,-0.3 0,0 9.1,3.1 9.1,11.5 0,0 -6.4,-8.1 -14.9,-6.9 -8.4,1.2 -11.5,0 -11.5,0 l -4.9,-2.5 -7.8,3 -6.2,-2.1 c 0,0 -5.3,-0.5 -5.1,3.5 l -4.4,-1 -3.6,3.5 -6.9,1.6 c 0,0 -8.7,5.6 -3.3,7.9 0,0 -6.9,0.3 -7.8,-3.6 -0.9,-4 -8,8.7 0.4,11 8.4,2.3 10,7.7 10,7.7 l 6.4,3.3 1.6,3 c 0,0 8.9,-1.6 15.8,4.1 l -6,0.5 c 0,0 12.7,1.8 15.5,6.8 l -5.6,-0.2 c 0,0 15.8,6.6 17.3,13.7 1.6,7.1 5.8,4.1 5.8,4.1 l 0.9,7.3 2.2,6.9 -2.2,3.1 c 0,0 3.6,4.6 1.1,10.4 0,0 -0.9,-4.3 -4.9,-5.3 -4,-1 -0.2,8.4 -5.6,13.4 -5.3,4.9 2,-11.9 -4.2,-15.3 -6.2,-3.5 -1.8,-6.8 0.7,-9.2 l -6.9,-4 -0.4,-5.3 -6.7,-4.1 -3.3,-5.8 c 0,0 -5.3,0.5 -2.4,5.8 0,0 -6.2,-4.3 -4.7,-7.9 1.6,-3.6 -4.9,-2 -4.9,-2 l -7.8,-3.3 -5.3,1.3 -6,-7.6 -4.9,3.1 c 0,0 1.8,5.1 0.6,8.3 1.1,0.9 2.4,2.3 3.2,4.8 0,0 -2.3,-0.8 -5.5,-1 -1.3,1.5 -5.4,3 -17.7,0.4 -5.9,-1.2 -7.3,-5.1 -7,-9.3 -5.7,-5.1 -13,-6.3 -13,-6.3 6.4,-0.9 11,-0.4 14.2,0.6 2.5,-8 7,-14.3 -4.5,-4.7 l -4.9,-5.3 -10.4,3.3 -6,-2.8 c 0,0 -8.2,2 -9.3,7 h -5.1 l -3.3,3.2 -4,-3 -3.8,2.8 h -4 c 0,0 -6.9,4.7 -4.7,10.6 l -3.8,0.4 -1.6,3.6 -4.4,0.7 c 0,0 -2.4,3.9 0,8.2 0,0 -3.8,1.6 -5.8,-3 0,0 -5.1,3.3 -3.1,9.2 0,0 -8,-4.4 -4.2,-10.5 z"
   id="path440" />&#10;		<path
   class="st4"
   d="m 446.4,196.4 c 0,0 49.4,3 57.7,46.4"
   id="path442" />&#10;		<path
   class="st4"
   d="m 423.6,190.2 c 0,0 -56.6,-11.2 -83.5,33.3"
   id="path444" />&#10;		<path
   class="st4"
   d="m 426,213 c 0,0 -1.3,-3.9 -10.1,-6.7"
   id="path446" />&#10;		<path
   class="st4"
   d="m 437.5,216.2 c 0,0 3.1,-1.8 7.5,1.4"
   id="path448" />&#10;		<path
   class="st4"
   d="m 464.8,200.5 c 0,0 2.7,-3.7 9.1,-1.8"
   id="path450" />&#10;		<path
   class="st4"
   d="m 476.4,205.5 c 0,0 1.2,-2.1 8.4,0"
   id="path452" />&#10;		<path
   class="st4"
   d="m 481.8,208.8 c 0,0 -4.7,1.8 -5.4,8.3"
   id="path454" />&#10;		<path
   class="st4"
   d="m 500.9,232 c 0,0 7.8,6.4 8.4,15"
   id="path456" />&#10;		<path
   class="st4"
   d="m 497.3,225 c 0,0 -2.9,1.8 -3.2,5.6"
   id="path458" />&#10;		<path
   class="st4"
   d="m 406.4,189 c 0,0 -0.5,-1.4 -3.1,-3.1"
   id="path460" />&#10;		<path
   class="st4"
   d="m 396.2,189.6 c 0,0 -0.6,-0.4 -2.9,-2.2"
   id="path462" />&#10;		<path
   class="st4"
   d="m 387.3,191.1 c 0,0 -0.5,-1.4 -4.3,-2.5"
   id="path464" />&#10;		<path
   class="st4"
   d="m 374.3,194.9 c 0,0 -5.4,-2.2 -3,-3.8"
   id="path466" />&#10;		<path
   class="st4"
   d="m 365,199.3 c 0,0 -4.3,0.9 -3.2,-4.4"
   id="path468" />&#10;		<path
   class="st4"
   d="m 356.9,204.6 c 0,0 -3.8,-2.7 -8.7,-1.9"
   id="path470" />&#10;		<path
   class="st4"
   d="m 415.9,189.3 c 0,0 -3.1,2 -1.6,5.6"
   id="path472" />&#10;		<path
   class="st4"
   d="m 379.9,193 c 0,0 -0.2,5.3 2,5.2"
   id="path474" />&#10;		<path
   class="st4"
   d="m 376.9,193.9 c 0,0 -3.8,3.9 -2.6,7.4"
   id="path476" />&#10;		<path
   class="st4"
   d="m 361.6,201.3 c 0,0 5.3,-1.7 5.1,2.2"
   id="path478" />&#10;		<path
   class="st4"
   d="m 353.2,207.6 c 0,0 -2.8,4.5 2.3,5.4"
   id="path480" />&#10;		<path
   class="st4"
   d="m 348.2,212.6 c 0,0 0.3,3.3 4.3,4.6"
   id="path482" />&#10;		<path
   class="st4"
   d="m 344.8,216.7 c 0,0 -2.5,5 1,8.3"
   id="path484" />&#10;		<path
   class="st4"
   d="m 346.8,214.2 c 0,0 -4.6,1.5 -4.4,-2.9"
   id="path486" />&#10;		<path
   class="st4"
   d="m 400.8,189.2 c 0,0 2.7,5 -1.6,5.7"
   id="path488" />&#10;		<path
   class="st4"
   d="m 414,179 c 0,0 -40.6,-15.7 -67.2,14.9"
   id="path490" />&#10;		<path
   class="st4"
   d="m 383.1,175.3 c 0,0 -2.7,-0.9 -1.3,4.3"
   id="path492" />&#10;		<path
   class="st4"
   d="m 372.3,177.4 c 0,0 -3.3,1.2 -1.6,4.6"
   id="path494" />&#10;		<path
   class="st4"
   d="m 365,180.2 c 0,0 -3.8,-1.3 -0.8,-3.8"
   id="path496" />&#10;		<path
   class="st4"
   d="m 415.9,172.3 c 0,0 -29.1,-22.3 -61.9,0"
   id="path498" />&#10;		<path
   class="st4"
   d="m 387.3,162.4 c 0,0 4,0.3 3.3,-2.8"
   id="path500" />&#10;		<path
   class="st4"
   d="m 372.5,163.9 c 0,0 3.7,-2 -0.2,-2.8"
   id="path502" />&#10;		<path
   class="st4"
   d="m 394.7,163.4 c 0,0 0.6,1.2 -2.8,4"
   id="path504" />&#10;		<path
   class="st4"
   d="m 435.9,174 c 0,0 20.2,-24.4 68.2,-18.8"
   id="path506" />&#10;		<path
   class="st4"
   d="m 494.2,154.4 c 0,0 7,-2.9 15.1,-0.1"
   id="path508" />&#10;		<path
   class="st4"
   d="m 500.9,154.8 c 0,0 -5.9,2.8 13.2,3.9"
   id="path510" />&#10;		<path
   class="st4"
   d="m 481.8,154.7 c 0,0 5.4,-2.1 4.5,-5.6"
   id="path512" />&#10;		<path
   class="st4"
   d="m 458.7,159.6 c 0,0 -7.9,1.9 -6.1,10.2"
   id="path514" />&#10;		<path
   class="st4"
   d="m 486.3,154.4 c 0,0 -3.4,1.7 0,5.2"
   id="path516" />&#10;	</g>&#10;	<g
   id="g714">&#10;		<rect
   x="249.5"
   y="57.799999"
   class="st5"
   width="99"
   height="26"
   id="rect520" />&#10;		<g
   id="g568">&#10;			<path
   class="st5"
   d="m 256.5,96.1 c 0,4.2 -3.8,7.7 -8.1,7.7 h -3.9 c -4.4,0 -7.9,-3.4 -7.9,-7.7 V 34.6 c 0,-4.2 3.5,-7.8 7.9,-7.8 h 3.9 c 4.4,0 8.1,3.5 8.1,7.8 z"
   id="path522" />&#10;			<rect
   x="232.5"
   y="41.799999"
   class="st5"
   width="27"
   height="8"
   id="rect524" />&#10;			<rect
   x="252"
   y="52.299999"
   class="st6"
   width="3"
   height="25"
   id="rect526" />&#10;			<path
   class="st6"
   d="m 252,39.3 c 0,0 1,-9.8 -3.1,-9.9 0,0 6,-2.4 6.1,9.9 z"
   id="path528" />&#10;			<rect
   x="252"
   y="43.299999"
   class="st6"
   width="5"
   height="5"
   id="rect530" />&#10;			<line
   class="st4"
   x1="236"
   y1="55.799999"
   x2="257"
   y2="55.799999"
   id="line532" />&#10;			<line
   class="st4"
   x1="236"
   y1="60.799999"
   x2="257"
   y2="60.799999"
   id="line534" />&#10;			<line
   class="st4"
   x1="236"
   y1="65.800003"
   x2="257"
   y2="65.800003"
   id="line536" />&#10;			<line
   class="st4"
   x1="236"
   y1="70.800003"
   x2="257"
   y2="70.800003"
   id="line538" />&#10;			<line
   class="st4"
   x1="236"
   y1="75.800003"
   x2="257"
   y2="75.800003"
   id="line540" />&#10;			<line
   class="st4"
   x1="240.5"
   y1="50.299999"
   x2="240.5"
   y2="56.299999"
   id="line542" />&#10;			<line
   class="st4"
   x1="240.5"
   y1="61.299999"
   x2="240.5"
   y2="66.300003"
   id="line544" />&#10;			<line
   class="st4"
   x1="240.5"
   y1="71.300003"
   x2="240.5"
   y2="76.300003"
   id="line546" />&#10;			<line
   class="st4"
   x1="253.5"
   y1="50.299999"
   x2="253.5"
   y2="56.299999"
   id="line548" />&#10;			<line
   class="st4"
   x1="253.5"
   y1="61.299999"
   x2="253.5"
   y2="66.300003"
   id="line550" />&#10;			<line
   class="st4"
   x1="253.5"
   y1="71.300003"
   x2="253.5"
   y2="76.300003"
   id="line552" />&#10;			<line
   class="st4"
   x1="246.5"
   y1="66.300003"
   x2="246.5"
   y2="71.300003"
   id="line554" />&#10;			<line
   class="st4"
   x1="246.5"
   y1="76.300003"
   x2="246.5"
   y2="80.300003"
   id="line556" />&#10;			<rect
   x="243"
   y="54.299999"
   class="st21"
   width="7"
   height="9"
   id="rect558" />&#10;			<path
   class="st4"
   d="m 240.5,42.3 v -8 c 0,0 0.5,-5.5 3.9,-7.5"
   id="path560" />&#10;			<path
   class="st4"
   d="m 253.5,42.3 v -8 c 0,0 -0.5,-5.5 -3.9,-7.5"
   id="path562" />&#10;			<line
   class="st4"
   x1="237"
   y1="34.799999"
   x2="256"
   y2="34.799999"
   id="line564" />&#10;			<rect
   x="243"
   y="33.299999"
   class="st21"
   width="7"
   height="6"
   id="rect566" />&#10;		</g>&#10;		<g
   id="g616">&#10;			<path
   class="st5"
   d="m 362.5,96.1 c 0,4.2 -3.8,7.7 -8.1,7.7 h -4 c -4.4,0 -7.9,-3.4 -7.9,-7.7 V 34.6 c 0,-4.2 3.5,-7.8 7.9,-7.8 h 3.9 c 4.4,0 8.1,3.5 8.1,7.8 z"
   id="path570" />&#10;			<rect
   x="338.5"
   y="41.799999"
   class="st5"
   width="27"
   height="8"
   id="rect572" />&#10;			<rect
   x="358"
   y="52.299999"
   class="st6"
   width="3"
   height="25"
   id="rect574" />&#10;			<path
   class="st6"
   d="m 358,39.3 c 0,0 1,-9.8 -3.1,-9.9 0,0 6,-2.4 6.1,9.9 z"
   id="path576" />&#10;			<rect
   x="358"
   y="43.299999"
   class="st6"
   width="5"
   height="5"
   id="rect578" />&#10;			<line
   class="st4"
   x1="342"
   y1="55.799999"
   x2="363"
   y2="55.799999"
   id="line580" />&#10;			<line
   class="st4"
   x1="342"
   y1="60.799999"
   x2="363"
   y2="60.799999"
   id="line582" />&#10;			<line
   class="st4"
   x1="342"
   y1="65.800003"
   x2="363"
   y2="65.800003"
   id="line584" />&#10;			<line
   class="st4"
   x1="342"
   y1="70.800003"
   x2="363"
   y2="70.800003"
   id="line586" />&#10;			<line
   class="st4"
   x1="342"
   y1="75.800003"
   x2="363"
   y2="75.800003"
   id="line588" />&#10;			<line
   class="st4"
   x1="346.5"
   y1="50.299999"
   x2="346.5"
   y2="56.299999"
   id="line590" />&#10;			<line
   class="st4"
   x1="346.5"
   y1="61.299999"
   x2="346.5"
   y2="66.300003"
   id="line592" />&#10;			<line
   class="st4"
   x1="346.5"
   y1="71.300003"
   x2="346.5"
   y2="76.300003"
   id="line594" />&#10;			<line
   class="st4"
   x1="359.5"
   y1="50.299999"
   x2="359.5"
   y2="56.299999"
   id="line596" />&#10;			<line
   class="st4"
   x1="359.5"
   y1="61.299999"
   x2="359.5"
   y2="66.300003"
   id="line598" />&#10;			<line
   class="st4"
   x1="359.5"
   y1="71.300003"
   x2="359.5"
   y2="76.300003"
   id="line600" />&#10;			<line
   class="st4"
   x1="352.5"
   y1="66.300003"
   x2="352.5"
   y2="71.300003"
   id="line602" />&#10;			<line
   class="st4"
   x1="352.5"
   y1="76.300003"
   x2="352.5"
   y2="80.300003"
   id="line604" />&#10;			<rect
   x="349"
   y="54.299999"
   class="st21"
   width="7"
   height="9"
   id="rect606" />&#10;			<path
   class="st4"
   d="m 346.5,42.3 v -8 c 0,0 0.5,-5.5 3.9,-7.5"
   id="path608" />&#10;			<path
   class="st4"
   d="m 359.5,42.3 v -8 c 0,0 -0.5,-5.5 -3.9,-7.5"
   id="path610" />&#10;			<line
   class="st4"
   x1="343"
   y1="34.799999"
   x2="362"
   y2="34.799999"
   id="line612" />&#10;			<rect
   x="349"
   y="33.299999"
   class="st21"
   width="7"
   height="6"
   id="rect614" />&#10;		</g>&#10;		<rect
   x="236.5"
   y="79.800003"
   class="st5"
   width="126"
   height="24"
   id="rect618" />&#10;		<path
   class="st18"
   d="M 234.2,94.5 236.7,82 c 0,0 65.7,14.6 125.7,0 l 3.3,12.5 -8,12.3 H 242 Z"
   id="path620" />&#10;		<path
   class="st19"
   d="m 305.8,90.9 c 0,0 8.2,2.8 1.8,8.5 0,0 32.8,-2.3 48.3,-6.8 0,0 -7.7,-0.2 -4.3,-5.3 0.1,0 -17.3,4.1 -45.8,3.6 z"
   id="path622" />&#10;		<rect
   x="338"
   y="63.299999"
   class="st6"
   width="3"
   height="14"
   id="rect624" />&#10;		<rect
   x="284"
   y="63.299999"
   class="st6"
   width="3"
   height="14"
   id="rect626" />&#10;		<polygon
   class="st5"
   points="256.4,53.8 342.5,53.8 347,60.8 252.5,60.8 "
   id="polygon628" />&#10;		<polygon
   class="st6"
   points="340.5,55.2 342,58.3 325,58.3 "
   id="polygon630" />&#10;		<polygon
   class="st6"
   points="277,58.3 287,55.3 287,58.3 "
   id="polygon632" />&#10;		<g
   id="g672">&#10;			<rect
   x="290.5"
   y="44.799999"
   class="st5"
   width="19"
   height="35"
   id="rect634" />&#10;			<polygon
   class="st5"
   points="309.1,41.8 300,41.8 290.9,41.8 295.4,35 300,28.3 304.6,35 "
   id="polygon636" />&#10;			<rect
   x="297"
   y="34.299999"
   class="st21"
   width="6"
   height="6"
   id="rect638" />&#10;			<rect
   x="287.5"
   y="41.799999"
   class="st5"
   width="25"
   height="5"
   id="rect640" />&#10;			<rect
   x="305"
   y="48.299999"
   class="st6"
   width="3"
   height="29"
   id="rect642" />&#10;			<rect
   x="304"
   y="43.299999"
   class="st6"
   width="6"
   height="2"
   id="rect644" />&#10;			<polygon
   class="st6"
   points="305.8,40.3 304,40.3 304,37.3 "
   id="polygon646" />&#10;			<line
   class="st4"
   x1="290"
   y1="50.799999"
   x2="309"
   y2="50.799999"
   id="line648" />&#10;			<line
   class="st4"
   x1="290"
   y1="57.799999"
   x2="309"
   y2="57.799999"
   id="line650" />&#10;			<line
   class="st4"
   x1="290"
   y1="64.800003"
   x2="309"
   y2="64.800003"
   id="line652" />&#10;			<line
   class="st4"
   x1="290"
   y1="71.800003"
   x2="309"
   y2="71.800003"
   id="line654" />&#10;			<line
   class="st4"
   x1="294.5"
   y1="47.299999"
   x2="294.5"
   y2="51.299999"
   id="line656" />&#10;			<line
   class="st4"
   x1="306.5"
   y1="47.299999"
   x2="306.5"
   y2="51.299999"
   id="line658" />&#10;			<line
   class="st4"
   x1="294.5"
   y1="58.299999"
   x2="294.5"
   y2="65.300003"
   id="line660" />&#10;			<line
   class="st4"
   x1="306.5"
   y1="58.299999"
   x2="306.5"
   y2="65.300003"
   id="line662" />&#10;			<line
   class="st4"
   x1="294.5"
   y1="72.300003"
   x2="294.5"
   y2="80.300003"
   id="line664" />&#10;			<line
   class="st4"
   x1="306.5"
   y1="72.300003"
   x2="306.5"
   y2="80.300003"
   id="line666" />&#10;			<line
   class="st4"
   x1="300.5"
   y1="51.299999"
   x2="300.5"
   y2="58.299999"
   id="line668" />&#10;			<line
   class="st4"
   x1="300.5"
   y1="65.300003"
   x2="300.5"
   y2="72.300003"
   id="line670" />&#10;		</g>&#10;		<line
   class="st4"
   x1="256"
   y1="67.800003"
   x2="290"
   y2="67.800003"
   id="line674" />&#10;		<line
   class="st4"
   x1="256"
   y1="73.800003"
   x2="290"
   y2="73.800003"
   id="line676" />&#10;		<line
   class="st4"
   x1="262.5"
   y1="61.299999"
   x2="262.5"
   y2="68.300003"
   id="line678" />&#10;		<line
   class="st4"
   x1="262.5"
   y1="74.300003"
   x2="262.5"
   y2="80.300003"
   id="line680" />&#10;		<line
   class="st4"
   x1="274.5"
   y1="61.299999"
   x2="274.5"
   y2="68.300003"
   id="line682" />&#10;		<line
   class="st4"
   x1="274.5"
   y1="74.300003"
   x2="274.5"
   y2="80.300003"
   id="line684" />&#10;		<line
   class="st4"
   x1="286.5"
   y1="61.299999"
   x2="286.5"
   y2="68.300003"
   id="line686" />&#10;		<line
   class="st4"
   x1="286.5"
   y1="74.300003"
   x2="286.5"
   y2="80.300003"
   id="line688" />&#10;		<line
   class="st4"
   x1="268.5"
   y1="68.300003"
   x2="268.5"
   y2="74.300003"
   id="line690" />&#10;		<line
   class="st4"
   x1="280.5"
   y1="68.300003"
   x2="280.5"
   y2="74.300003"
   id="line692" />&#10;		<line
   class="st4"
   x1="310"
   y1="67.800003"
   x2="343"
   y2="67.800003"
   id="line694" />&#10;		<line
   class="st4"
   x1="310"
   y1="73.800003"
   x2="343"
   y2="73.800003"
   id="line696" />&#10;		<line
   class="st4"
   x1="316.5"
   y1="61.299999"
   x2="316.5"
   y2="68.300003"
   id="line698" />&#10;		<line
   class="st4"
   x1="316.5"
   y1="74.300003"
   x2="316.5"
   y2="80.300003"
   id="line700" />&#10;		<line
   class="st4"
   x1="327.5"
   y1="61.299999"
   x2="327.5"
   y2="68.300003"
   id="line702" />&#10;		<line
   class="st4"
   x1="327.5"
   y1="74.300003"
   x2="327.5"
   y2="80.300003"
   id="line704" />&#10;		<line
   class="st4"
   x1="339.5"
   y1="61.299999"
   x2="339.5"
   y2="68.300003"
   id="line706" />&#10;		<line
   class="st4"
   x1="339.5"
   y1="74.300003"
   x2="339.5"
   y2="80.300003"
   id="line708" />&#10;		<line
   class="st4"
   x1="321.5"
   y1="68.300003"
   x2="321.5"
   y2="74.300003"
   id="line710" />&#10;		<line
   class="st4"
   x1="333.5"
   y1="68.300003"
   x2="333.5"
   y2="74.300003"
   id="line712" />&#10;	</g>&#10;	<path
   class="st5"
   d="m 221.7,120.5 c 0,0 67.7,20.6 156.5,0 L 365.7,94.4 c 0,0 -70,17.8 -131.5,0 z"
   id="path716" />&#10;	<g
   id="g744">&#10;		<path
   class="st22"
   d="m 150,472.6 c 0,0 -6.3,6.7 1.3,11.2 7.6,4.5 5,10.5 -9.7,8.5 -14.7,-2 -23.7,-13.2 -28.7,0.4 0,0 5.9,-7.7 21.3,4.3 15.4,12 -24.9,-9 -23.8,8.7 0,0 3.2,-4.3 15.2,-2 12,2.3 61.6,18 62.3,-15.3 l -15.3,-22.3 -16.7,2.3 z"
   id="path718" />&#10;		<path
   class="st23"
   d="m 158.7,469.7 c 0,0 -8.3,6.6 -2.3,11.9 6,5.3 8.7,15.4 -6.3,17.2 0,0 23.2,10.5 34.3,-11.2 z"
   id="path720" />&#10;		<path
   class="st22"
   d="m 251.3,503.6 -8.9,25.7 c 0,0 61.6,23.3 116.1,0 l -9.9,-25.7 c 0,0 -39.3,25.7 -97.3,0 z"
   id="path722" />&#10;		<path
   class="st22"
   d="m 251.3,503.6 c 0,0 -36.3,-15.7 -48.7,-31 -12.4,-15.3 -41.3,-21.3 -52.7,0 0,0 5,-3.7 12.3,3.3 7.3,7 59.1,47.5 80.1,53.3 z"
   id="path724" />&#10;		<path
   class="st5"
   d="m 244.8,529 c -0.6,1.5 -2.3,2.3 -3.9,1.7 v 0 c -1.5,-0.6 -2.3,-2.3 -1.7,-3.9 l 8.9,-23.3 c 0.6,-1.5 2.3,-2.3 3.9,-1.7 v 0 c 1.5,0.6 2.3,2.3 1.7,3.9 z"
   id="path726" />&#10;		<path
   class="st22"
   d="m 449.2,472.6 c 0,0 6.3,6.7 -1.3,11.2 -7.7,4.5 -5,10.5 9.7,8.5 14.7,-2 23.7,-13.2 28.7,0.4 0,0 -5.9,-7.7 -21.3,4.3 -15.4,12 24.9,-9 23.8,8.7 0,0 -3.2,-4.3 -15.2,-2 -12,2.3 -61.6,18 -62.3,-15.3 l 15.3,-22.3 16.7,2.3 z"
   id="path728" />&#10;		<circle
   class="st22"
   cx="485.60001"
   cy="491.20001"
   r="4.4000001"
   id="circle730" />&#10;		<circle
   class="st22"
   cx="488.60001"
   cy="503.20001"
   r="4.4000001"
   id="circle732" />&#10;		<path
   class="st23"
   d="m 440.5,469.7 c 0,0 8.3,6.6 2.3,11.9 -6,5.3 -8.7,15.4 6.3,17.2 0,0 -23.2,10.5 -34.3,-11.2 z"
   id="path734" />&#10;		<path
   class="st22"
   d="m 347.8,503.6 c 0,0 36.3,-15.7 48.7,-31 12.4,-15.3 41.3,-21.3 52.7,0 0,0 -5,-3.7 -12.3,3.3 -7.3,7 -59.1,47.5 -80.1,53.3 z"
   id="path736" />&#10;		<path
   class="st5"
   d="m 354.3,529 c 0.6,1.5 2.3,2.3 3.9,1.7 v 0 c 1.5,-0.6 2.3,-2.3 1.7,-3.9 L 351,503.5 c -0.6,-1.5 -2.3,-2.3 -3.9,-1.7 v 0 c -1.5,0.6 -2.3,2.3 -1.7,3.9 z"
   id="path738" />&#10;		<circle
   class="st22"
   cx="113.6"
   cy="491.20001"
   r="4.4000001"
   id="circle740" />&#10;		<circle
   class="st22"
   cx="110.6"
   cy="503.20001"
   r="4.4000001"
   id="circle742" />&#10;	</g>&#10;	<g
   id="g770">&#10;		<ellipse
   class="st24"
   cx="300"
   cy="177.39999"
   rx="39.5"
   ry="5.6999998"
   id="ellipse746" />&#10;		<ellipse
   class="st25"
   cx="300"
   cy="173.39999"
   rx="39.5"
   ry="5.6999998"
   id="ellipse748" />&#10;		<ellipse
   class="st26"
   cx="300"
   cy="170.39999"
   rx="39.5"
   ry="5.6999998"
   id="ellipse750" />&#10;		<ellipse
   class="st27"
   cx="300"
   cy="168.39999"
   rx="39.5"
   ry="5.6999998"
   id="ellipse752" />&#10;		<path
   class="st20"
   d="m 331.4,144.2 c 0,0 -11.4,-5.2 -31.4,-4.9 -20,-0.3 -31.5,4.9 -31.5,4.9 -7.8,6.4 -12.3,30.6 -8.5,35.4 3.8,4.8 40,4.7 40,4.7 0,0 36.1,0.1 39.8,-4.7 3.7,-4.8 -0.6,-29 -8.4,-35.4 z M 300,182.3 c -20.4,0 -37,-2.2 -37,-4.9 0,-2.7 16.6,-4.9 37,-4.9 20.4,0 37,2.2 37,4.9 0,2.7 -16.6,4.9 -37,4.9 z"
   id="path754" />&#10;		<path
   class="st28"
   d="m 270.4,146 c 0,0 -6.5,8.1 -8.5,27.7 0,0 3.9,-3.6 21.8,-4.5 -0.1,0 -21.7,-3.9 -13.3,-23.2 z"
   id="path756" />&#10;		<path
   class="st29"
   d="m 320.8,144.3 c 0,0 8.1,8 8.4,26.7 0,0 -9.6,-2.7 -17.8,-2.3 0,0 3.3,-22.4 -5.7,-26.1 0.1,0 4.8,-0.3 15.1,1.7 z"
   id="path758" />&#10;		<path
   class="st30"
   d="m 279.2,164.5 c -0.5,0.6 -1.3,0.6 -1.8,0.2 l -0.3,-0.2 c -0.5,-0.4 -0.6,-1.3 -0.1,-1.8 l 11.8,-14 c 0.5,-0.6 1.3,-0.6 1.8,-0.2 l 0.3,0.2 c 0.5,0.4 0.6,1.3 0.1,1.8 z"
   id="path760" />&#10;		<path
   class="st31"
   d="m 287.7,163.8 c -0.5,0.6 -1.3,0.6 -1.8,0.2 l -0.3,-0.2 c -0.5,-0.4 -0.6,-1.3 -0.1,-1.8 l 11.8,-14 c 0.5,-0.6 1.3,-0.6 1.8,-0.2 l 0.3,0.2 c 0.5,0.4 0.6,1.3 0.1,1.8 z"
   id="path762" />&#10;		<path
   class="st32"
   d="m 296.2,163.2 c -0.5,0.6 -1.3,0.6 -1.8,0.2 l -0.3,-0.2 c -0.5,-0.4 -0.6,-1.3 -0.1,-1.8 l 11.8,-14 c 0.5,-0.6 1.3,-0.6 1.8,-0.2 l 0.3,0.2 c 0.5,0.4 0.6,1.3 0.1,1.8 z"
   id="path764" />&#10;		<path
   class="st32"
   d="m 304.8,162.6 c -0.5,0.6 -1.3,0.6 -1.8,0.2 l -0.3,-0.2 c -0.5,-0.4 -0.6,-1.3 -0.1,-1.8 l 11.8,-14 c 0.5,-0.6 1.3,-0.6 1.8,-0.2 l 0.3,0.2 c 0.5,0.4 0.6,1.3 0.1,1.8 z"
   id="path766" />&#10;		<path
   class="st32"
   d="m 313.3,161.9 c -0.5,0.6 -1.3,0.6 -1.8,0.2 l -0.3,-0.2 c -0.5,-0.4 -0.6,-1.3 -0.1,-1.8 l 11.8,-14 c 0.5,-0.6 1.3,-0.6 1.8,-0.2 l 0.3,0.2 c 0.5,0.4 0.6,1.3 0.1,1.8 z"
   id="path768" />&#10;	</g>&#10;	<path
   class="st5"
   d="m 280,211.8 c 0,0 -14.7,2.2 -20.4,-3.1 -5.7,-5.4 -2.4,-9 1.1,-9.8 3.5,-0.8 5.1,11.1 17.2,5 z"
   id="path772" />&#10;	<path
   class="st5"
   d="m 319.6,211.8 c 0,0 14.7,2.2 20.4,-3.1 5.7,-5.4 2.4,-9 -1.1,-9.8 -3.5,-0.8 -5.1,11.1 -17.2,5 z"
   id="path774" />&#10;	<path
   class="st18"
   d="m 276,202 c 0,0 -3.6,4.2 0,10.9 0,0 26.2,3.9 47.4,0 0,0 2.6,-7.3 -0.2,-10.9 0,0 -22.6,-3.1 -47.2,0 z"
   id="path776" />&#10;	<path
   class="st33"
   d="m 243.6,100.2 -7.5,16.3 c 0,0 40.9,10.2 72.7,7.1 l -1.7,-16.9 c 0.1,0 -20.8,3.4 -63.5,-6.5 z"
   id="path778" />&#10;	<path
   class="st34"
   d="m 360.1,99.4 c 0,0 -17.4,4.3 -26.1,4.3 l 2.8,16.8 c 0,0 19.3,-0.9 28.9,-3.5 z"
   id="path780" />&#10;	<path
   class="st35"
   d="m 273.8,551.4 c 0,0 -0.8,-2.7 -3.1,-1.9 -2.2,0.9 4.4,2.6 1.5,4.5 -2.9,1.9 -1.8,4.3 1.5,6 3.3,1.7 3.4,-0.5 1.8,-2.2 -1.6,-1.7 -5.4,-1.5 0,-3.8 5.4,-2.3 5.2,-3.3 3.3,-4.6 -1.7,-1.5 -0.9,5.1 -5,2 z"
   id="path782" />&#10;	<path
   class="st35"
   d="m 322.8,551.4 c 0,0 -0.8,-2.7 -3.1,-1.9 -2.2,0.9 4.4,2.6 1.5,4.5 -2.9,1.9 -1.8,4.3 1.5,6 3.3,1.7 3.4,-0.5 1.8,-2.2 -1.6,-1.7 -5.4,-1.5 0,-3.8 5.4,-2.2 5.2,-3.3 3.3,-4.6 -1.7,-1.5 -0.9,5.1 -5,2 z"
   id="path784" />&#10;	<path
   class="st35"
   d="m 173.8,525.4 c 0,0 -0.8,-2.7 -3.1,-1.9 -2.2,0.9 4.4,2.6 1.5,4.5 -2.9,1.9 -1.8,4.3 1.5,6 3.3,1.7 3.4,-0.5 1.8,-2.2 -1.6,-1.7 -5.4,-1.5 0,-3.8 5.4,-2.3 5.2,-3.3 3.3,-4.6 -1.7,-1.5 -0.9,5.1 -5,2 z"
   id="path786" />&#10;	<path
   class="st35"
   d="m 437.8,525.4 c 0,0 -0.8,-2.7 -3.1,-1.9 -2.2,0.9 4.4,2.6 1.5,4.5 -2.9,1.9 -1.8,4.3 1.5,6 3.3,1.7 3.4,-0.5 1.8,-2.2 -1.6,-1.7 -5.4,-1.5 0,-3.8 5.4,-2.2 5.2,-3.3 3.3,-4.6 -1.7,-1.5 -0.9,5.1 -5,2 z"
   id="path788" />&#10;	<path
   class="st35"
   d="m 380.8,536.4 c 0,0 -0.8,-2.7 -3.1,-1.9 -2.2,0.9 4.4,2.6 1.5,4.5 -2.9,1.9 -1.8,4.3 1.5,6 3.3,1.7 3.4,-0.5 1.8,-2.2 -1.6,-1.7 -5.4,-1.5 0,-3.8 5.4,-2.2 5.2,-3.3 3.3,-4.6 -1.7,-1.5 -0.9,5.1 -5,2 z"
   id="path790" />&#10;	<path
   class="st35"
   d="m 226.8,536.4 c 0,0 -0.8,-2.7 -3.1,-1.9 -2.2,0.9 4.4,2.6 1.5,4.5 -2.9,1.9 -1.8,4.3 1.5,6 3.3,1.7 3.4,-0.5 1.8,-2.2 -1.6,-1.7 -5.4,-1.5 0,-3.8 5.4,-2.3 5.2,-3.3 3.3,-4.6 -1.7,-1.5 -0.9,5.1 -5,2 z"
   id="path792" />&#10;	<path
   class="st35"
   d="m 236.8,477.4 c 0,0 -0.8,-2.7 -3.1,-1.9 -2.2,0.9 4.4,2.6 1.5,4.5 -2.9,1.9 -1.8,4.3 1.5,6 3.3,1.7 3.4,-0.5 1.8,-2.2 -1.6,-1.7 -5.4,-1.5 0,-3.8 5.4,-2.3 5.2,-3.3 3.3,-4.6 -1.7,-1.5 -0.9,5.1 -5,2 z"
   id="path794" />&#10;	<path
   class="st35"
   d="m 359.8,477.4 c 0,0 -0.8,-2.7 -3.1,-1.9 -2.2,0.9 4.4,2.6 1.5,4.5 -2.9,1.9 -1.8,4.3 1.5,6 3.3,1.7 3.4,-0.5 1.8,-2.2 -1.6,-1.7 -5.4,-1.5 0,-3.8 5.4,-2.2 5.2,-3.3 3.3,-4.6 -1.7,-1.5 -0.9,5.1 -5,2 z"
   id="path796" />&#10;	<path
   class="st35"
   d="m 298.8,498.4 c 0,0 -0.8,-2.7 -3.1,-1.9 -2.2,0.9 4.4,2.6 1.5,4.5 -2.9,1.9 -1.8,4.3 1.5,6 3.3,1.7 3.4,-0.5 1.8,-2.2 -1.6,-1.7 -5.4,-1.5 0,-3.8 5.4,-2.3 5.2,-3.3 3.3,-4.6 -1.7,-1.5 -0.9,5.1 -5,2 z"
   id="path798" />&#10;	<path
   class="st35"
   d="m 285.8,222.4 c 0,0 -0.8,-2.7 -3.1,-1.9 -2.2,0.9 4.4,2.6 1.5,4.5 -2.9,1.9 -1.8,4.3 1.5,6 3.3,1.7 3.4,-0.5 1.8,-2.2 -1.6,-1.7 -5.4,-1.5 0,-3.8 5.4,-2.2 5.2,-3.3 3.3,-4.6 -1.7,-1.5 -0.9,5.1 -5,2 z"
   id="path800" />&#10;	<path
   class="st35"
   d="m 316.8,220.4 c 0,0 -0.8,-2.7 -3.1,-1.9 -2.2,0.9 4.4,2.6 1.5,4.5 -2.9,1.9 -1.8,4.3 1.5,6 3.3,1.7 3.4,-0.5 1.8,-2.2 -1.6,-1.7 -5.4,-1.5 0,-3.8 5.4,-2.2 5.2,-3.3 3.3,-4.6 -1.7,-1.5 -0.9,5.1 -5,2 z"
   id="path802" />&#10;	<path
   class="st35"
   d="m 198.8,444.4 c 0,0 -0.8,-2.7 -3.1,-1.9 -2.2,0.9 4.4,2.6 1.5,4.5 -2.9,1.9 -1.8,4.3 1.5,6 3.3,1.7 3.4,-0.5 1.8,-2.2 -1.6,-1.7 -5.4,-1.5 0,-3.8 5.4,-2.3 5.2,-3.3 3.3,-4.6 -1.7,-1.5 -0.9,5.1 -5,2 z"
   id="path804" />&#10;	<path
   class="st35"
   d="m 402.8,444.4 c 0,0 -0.8,-2.7 -3.1,-1.9 -2.2,0.9 4.4,2.6 1.5,4.5 -2.9,1.9 -1.8,4.3 1.5,6 3.3,1.7 3.4,-0.5 1.8,-2.2 -1.6,-1.7 -5.4,-1.5 0,-3.8 5.4,-2.2 5.2,-3.3 3.3,-4.6 -1.7,-1.5 -0.9,5.1 -5,2 z"
   id="path806" />&#10;	<path
   class="st35"
   d="m 144.8,411.4 c 0,0 -0.8,-2.7 -3.1,-1.9 -2.2,0.9 4.4,2.6 1.5,4.5 -2.9,1.9 -1.8,4.3 1.5,6 3.3,1.7 3.4,-0.5 1.8,-2.2 -1.6,-1.7 -5.4,-1.5 0,-3.8 5.4,-2.2 5.2,-3.3 3.3,-4.6 -1.7,-1.5 -0.9,5.1 -5,2 z"
   id="path808" />&#10;	<path
   class="st35"
   d="m 453.8,411.4 c 0,0 -0.8,-2.7 -3.1,-1.9 -2.2,0.9 4.4,2.6 1.5,4.5 -2.9,1.9 -1.8,4.3 1.5,6 3.3,1.7 3.4,-0.5 1.8,-2.2 -1.6,-1.7 -5.4,-1.5 0,-3.8 5.4,-2.2 5.2,-3.3 3.3,-4.6 -1.7,-1.5 -0.9,5.1 -5,2 z"
   id="path810" />&#10;	<path
   class="st35"
   d="m 145.8,444.4 c 0,0 -0.8,-2.7 -3.1,-1.9 -2.2,0.9 4.4,2.6 1.5,4.5 -2.9,1.9 -1.8,4.3 1.5,6 3.3,1.7 3.4,-0.5 1.8,-2.2 -1.6,-1.7 -5.4,-1.5 0,-3.8 5.4,-2.3 5.2,-3.3 3.3,-4.6 -1.7,-1.5 -0.9,5.1 -5,2 z"
   id="path812" />&#10;	<path
   class="st35"
   d="m 452.8,444.4 c 0,0 -0.8,-2.7 -3.1,-1.9 -2.2,0.9 4.4,2.6 1.5,4.5 -2.9,1.9 -1.8,4.3 1.5,6 3.3,1.7 3.4,-0.5 1.8,-2.2 -1.6,-1.7 -5.4,-1.5 0,-3.8 5.4,-2.2 5.2,-3.3 3.3,-4.6 -1.7,-1.5 -0.9,5.1 -5,2 z"
   id="path814" />&#10;	<path
   class="st35"
   d="m 92.8,413.4 c 0,0 -0.8,-2.7 -3.1,-1.9 -2.2,0.9 4.4,2.6 1.5,4.5 -2.9,1.9 -1.8,4.3 1.5,6 3.3,1.7 3.4,-0.5 1.8,-2.2 -1.6,-1.7 -5.4,-1.5 0,-3.8 5.4,-2.2 5.2,-3.3 3.3,-4.6 -1.7,-1.5 -0.9,5.1 -5,2 z"
   id="path816" />&#10;	<path
   class="st35"
   d="m 507.8,413.4 c 0,0 -0.8,-2.7 -3.1,-1.9 -2.2,0.9 4.4,2.6 1.5,4.5 -2.9,1.9 -1.8,4.3 1.5,6 3.3,1.7 3.4,-0.5 1.8,-2.2 -1.6,-1.7 -5.4,-1.5 0,-3.8 5.4,-2.2 5.2,-3.3 3.3,-4.6 -1.7,-1.5 -0.9,5.1 -5,2 z"
   id="path818" />&#10;	<path
   class="st35"
   d="m 119.8,404.4 c 0,0 -0.8,-2.7 -3.1,-1.9 -2.2,0.9 4.4,2.6 1.5,4.5 -2.9,1.9 -1.8,4.3 1.5,6 3.3,1.7 3.4,-0.5 1.8,-2.2 -1.6,-1.7 -5.4,-1.5 0,-3.8 5.4,-2.2 5.2,-3.3 3.3,-4.6 -1.7,-1.5 -0.9,5.1 -5,2 z"
   id="path820" />&#10;	<path
   class="st35"
   d="m 474.8,404.4 c 0,0 -0.8,-2.7 -3.1,-1.9 -2.2,0.9 4.4,2.6 1.5,4.5 -2.9,1.9 -1.8,4.3 1.5,6 3.3,1.7 3.4,-0.5 1.8,-2.2 -1.6,-1.7 -5.4,-1.5 0,-3.8 5.4,-2.2 5.2,-3.3 3.3,-4.6 -1.7,-1.5 -0.9,5.1 -5,2 z"
   id="path822" />&#10;	<path
   class="st35"
   d="m 124.8,430.4 c 0,0 -0.8,-2.7 -3.1,-1.9 -2.2,0.9 4.4,2.6 1.5,4.5 -2.9,1.9 -1.8,4.3 1.5,6 3.3,1.7 3.4,-0.5 1.8,-2.2 -1.6,-1.7 -5.4,-1.5 0,-3.8 5.4,-2.2 5.2,-3.3 3.3,-4.6 -1.7,-1.5 -0.9,5.1 -5,2 z"
   id="path824" />&#10;	<path
   class="st35"
   d="m 473.8,430.4 c 0,0 -0.8,-2.7 -3.1,-1.9 -2.2,0.9 4.4,2.6 1.5,4.5 -2.9,1.9 -1.8,4.3 1.5,6 3.3,1.7 3.4,-0.5 1.8,-2.2 -1.6,-1.7 -5.4,-1.5 0,-3.8 5.4,-2.2 5.2,-3.3 3.3,-4.6 -1.7,-1.5 -0.9,5.1 -5,2 z"
   id="path826" />&#10;	<path
   class="st35"
   d="m 193.8,335.4 c 0,0 -0.8,-2.7 -3.1,-1.9 -2.2,0.9 4.4,2.6 1.5,4.5 -2.9,1.9 -1.8,4.3 1.5,6 3.3,1.7 3.4,-0.5 1.8,-2.2 -1.6,-1.7 -5.4,-1.5 0,-3.8 5.4,-2.2 5.2,-3.3 3.3,-4.6 -1.7,-1.5 -0.9,5.1 -5,2 z"
   id="path828" />&#10;	<path
   class="st35"
   d="m 404.8,335.4 c 0,0 -0.8,-2.7 -3.1,-1.9 -2.2,0.9 4.4,2.6 1.5,4.5 -2.9,1.9 -1.8,4.3 1.5,6 3.3,1.7 3.4,-0.5 1.8,-2.2 -1.6,-1.7 -5.4,-1.5 0,-3.8 5.4,-2.2 5.2,-3.3 3.3,-4.6 -1.7,-1.5 -0.9,5.1 -5,2 z"
   id="path830" />&#10;	<path
   class="st35"
   d="m 149.8,346.4 c 0,0 -0.8,-2.7 -3.1,-1.9 -2.2,0.9 4.4,2.6 1.5,4.5 -2.9,1.9 -1.8,4.3 1.5,6 3.3,1.7 3.4,-0.5 1.8,-2.2 -1.6,-1.7 -5.4,-1.5 0,-3.8 5.4,-2.2 5.2,-3.3 3.3,-4.6 -1.7,-1.5 -0.9,5.1 -5,2 z"
   id="path832" />&#10;	<path
   class="st35"
   d="m 449.8,346.4 c 0,0 -0.8,-2.7 -3.1,-1.9 -2.2,0.9 4.4,2.6 1.5,4.5 -2.9,1.9 -1.8,4.3 1.5,6 3.3,1.7 3.4,-0.5 1.8,-2.2 -1.6,-1.7 -5.4,-1.5 0,-3.8 5.4,-2.2 5.2,-3.3 3.3,-4.6 -1.7,-1.5 -0.9,5.1 -5,2 z"
   id="path834" />&#10;	<path
   class="st35"
   d="m 195.8,294.4 c 0,0 -0.8,-2.7 -3.1,-1.9 -2.2,0.9 4.4,2.6 1.5,4.5 -2.9,1.9 -1.8,4.3 1.5,6 3.3,1.7 3.4,-0.5 1.8,-2.2 -1.6,-1.7 -5.4,-1.5 0,-3.8 5.4,-2.2 5.2,-3.3 3.3,-4.6 -1.7,-1.5 -0.9,5.1 -5,2 z"
   id="path836" />&#10;	<path
   class="st35"
   d="m 401.8,294.4 c 0,0 -0.8,-2.7 -3.1,-1.9 -2.2,0.9 4.4,2.6 1.5,4.5 -2.9,1.9 -1.8,4.3 1.5,6 3.3,1.7 3.4,-0.5 1.8,-2.2 -1.6,-1.7 -5.4,-1.5 0,-3.8 5.4,-2.2 5.2,-3.3 3.3,-4.6 -1.7,-1.5 -0.9,5.1 -5,2 z"
   id="path838" />&#10;	<path
   class="st35"
   d="m 217.8,222.4 c 0,0 -0.8,-2.7 -3.1,-1.9 -2.2,0.9 4.4,2.6 1.5,4.5 -2.9,1.9 -1.8,4.3 1.5,6 3.3,1.7 3.4,-0.5 1.8,-2.2 -1.6,-1.7 -5.4,-1.5 0,-3.8 5.4,-2.2 5.2,-3.3 3.3,-4.6 -1.7,-1.5 -0.9,5.1 -5,2 z"
   id="path840" />&#10;	<path
   class="st35"
   d="m 387.8,227.4 c 0,0 -0.8,-2.7 -3.1,-1.9 -2.2,0.9 4.4,2.6 1.5,4.5 -2.9,1.9 -1.8,4.3 1.5,6 3.3,1.7 3.4,-0.5 1.8,-2.2 -1.6,-1.7 -5.4,-1.5 0,-3.8 5.4,-2.2 5.2,-3.3 3.3,-4.6 -1.7,-1.5 -0.9,5.1 -5,2 z"
   id="path842" />&#10;</g>&#10;</svg>
