<?xml version="1.0" encoding="UTF-8" standalone="no"?>
<!-- Created with Inkscape (http://www.inkscape.org/) -->
<svg
   xmlns:dc="http://purl.org/dc/elements/1.1/"
   xmlns:cc="http://web.resource.org/cc/"
   xmlns:rdf="http://www.w3.org/1999/02/22-rdf-syntax-ns#"
   xmlns:svg="http://www.w3.org/2000/svg"
   xmlns="http://www.w3.org/2000/svg"
   xmlns:sodipodi="http://inkscape.sourceforge.net/DTD/sodipodi-0.dtd"
   xmlns:inkscape="http://www.inkscape.org/namespaces/inkscape"
   id="svg2"
   sodipodi:version="0.32"
   inkscape:version="0.42+devel"
   width="600pt"
   height="680pt"
   sodipodi:docbase="D:\Inscape-rysunki"
   sodipodi:docname="POL_Augustów_COA.svg"
   version="1.0">
  <metadata
     id="metadata7">
    <rdf:RDF>
      <cc:Work
         rdf:about="">
        <dc:format>image/svg+xml</dc:format>
        <dc:type
           rdf:resource="http://purl.org/dc/dcmitype/StillImage" />
      </cc:Work>
    </rdf:RDF>
  </metadata>
  <defs
     id="defs5" />
  <sodipodi:namedview
     inkscape:window-height="670"
     inkscape:window-width="751"
     inkscape:pageshadow="2"
     inkscape:pageopacity="0.0"
     borderopacity="1.0"
     bordercolor="#666666"
     pagecolor="#ffffff"
     id="base"
     inkscape:zoom="0.57654887"
     inkscape:cx="381.44096"
     inkscape:cy="420.9978"
     inkscape:window-x="-7"
     inkscape:window-y="-7"
     inkscape:current-layer="svg2"
     showguides="true"
     inkscape:guide-bbox="true" />
  <g
     id="g2291">
    <path
       style="opacity:1;fill:#ff0000;fill-opacity:1;fill-rule:evenodd;stroke:#000000;stroke-width:7.08661417;stroke-linecap:round;stroke-linejoin:round;stroke-miterlimit:4;stroke-dasharray:none;stroke-dashoffset:0;stroke-opacity:1"
       d="M 7.5719453,8.7920276 L 7.5282795,501.33977 C 16.053935,690.35971 176.84779,840.43338 373.22317,840.43336 C 569.59841,840.43336 734.17728,689.95038 742.7031,500.93062 L 742.95744,8.7920276 L 7.5719453,8.7920276 z "
       id="rect2571"
       sodipodi:nodetypes="ccsccc" />
    <path
       id="path2279"
       style="font-size:622.07427979px;font-style:normal;font-variant:normal;font-weight:normal;font-stretch:normal;text-align:start;line-height:100%;writing-mode:lr-tb;text-anchor:start;fill:#000000;fill-opacity:1;stroke:#000000;stroke-width:1px;stroke-linecap:butt;stroke-linejoin:miter;stroke-opacity:1;font-family:Times New Roman"
       d="M 262.69494,637.48579 C 256.0605,654.08744 246.1115,678.87062 257.30898,705.87834 L 165.79134,704.99776 C 175.33264,696.56212 208.39679,657.725 220.49478,626.83338 L 371.23367,262.71976 L 509.38431,629.73546 C 524.02854,667.12122 531.3409,681.93264 565.14846,705.87834 L 459.73667,706.75892 C 482.58636,680.38163 468.92744,655.86348 457.60033,627.9743 L 367.77138,383.64817 L 262.69494,637.48579 z "
       sodipodi:nodetypes="ccccccccccc" />
    <path
       sodipodi:nodetypes="ccsccsccsscscs"
       id="text2239"
       d="M 497.28947,421.52051 C 477.0614,401.04438 430.32976,373.2377 372.81255,367.84946 C 351.87246,366.95175 271.4619,378.46888 269.52009,411.78763 C 267.59082,444.89106 299.7002,454.11047 410.55273,456.8076 C 529.74839,457.09783 547.95451,533.7273 546.15891,566.91921 C 548.85251,632.15361 500.50718,665.16328 403.01483,658.06269 C 319.5305,651.98233 246.29933,610.21472 150.13831,625.8402 C 167.36884,591.17806 183.39333,567.60504 195.0502,549.35971 C 205.80891,559.70655 315.89653,605.59123 389.92455,613.41133 C 487.25871,623.69342 500.90475,601.89449 500.62838,573.63928 C 500.17176,526.05889 487.36241,511.66751 381.95692,508.50387 C 298.1029,514.17671 225.41556,472.07512 226.46836,417.68123 C 227.92634,341.10968 302.83739,338.03317 373.87498,339.82886 C 400.28274,339.82916 467.74831,344.96879 473.37253,344.96851"
       style="font-size:575.85583496px;font-style:normal;font-variant:normal;font-weight:normal;font-stretch:normal;text-align:start;line-height:100%;writing-mode:lr-tb;text-anchor:start;fill:#000000;fill-opacity:1;stroke:none;stroke-width:1px;stroke-linecap:butt;stroke-linejoin:miter;stroke-opacity:1;font-family:Times New Roman" />
    <path
       sodipodi:nodetypes="ccccccc"
       id="path2272"
       d="M 459.20362,511.04655 L 500.57855,621.28797 C 515.22278,658.67373 522.53514,673.48515 556.3427,697.43085 L 450.93091,698.31143 C 473.7806,671.93414 460.12168,647.41599 448.79457,619.52681 L 405.50297,499.76744 C 422.09847,501.17865 438.40866,502.07632 459.20362,511.04655 z "
       style="font-size:622.07427979px;font-style:normal;font-variant:normal;font-weight:normal;font-stretch:normal;text-align:start;line-height:100%;writing-mode:lr-tb;text-anchor:start;fill:#f3da37;fill-opacity:1;stroke:none;stroke-width:1px;stroke-linecap:butt;stroke-linejoin:miter;stroke-opacity:1;font-family:Times New Roman" />
    <path
       sodipodi:nodetypes="ccccc"
       id="path2259"
       d="M 235.64456,561.72131 L 269.34545,482.00501 C 281.74632,486.96953 295.17059,491.42234 311.02427,494.66045 L 276.56652,576.07082 L 235.64456,561.72131 z "
       style="font-size:622.07427979px;font-style:normal;font-variant:normal;font-weight:normal;font-stretch:normal;text-align:start;line-height:100%;writing-mode:lr-tb;text-anchor:start;fill:#f3da37;fill-opacity:1;stroke:none;stroke-width:1px;stroke-linecap:butt;stroke-linejoin:miter;stroke-opacity:1;font-family:Times New Roman" />
    <path
       id="path2287"
       d="M 276.29425,576.34309 L 257.67513,620.13399"
       style="font-size:622.07427979px;font-style:normal;font-variant:normal;font-weight:normal;font-stretch:normal;text-align:start;line-height:100%;writing-mode:lr-tb;text-anchor:start;fill:#f3da37;fill-opacity:1;stroke:none;stroke-width:1px;stroke-linecap:butt;stroke-linejoin:miter;stroke-opacity:1;font-family:Times New Roman" />
    <path
       id="path2285"
       d="M 214.06587,612.76367 L 235.64456,561.72131"
       style="font-size:622.07427979px;font-style:normal;font-variant:normal;font-weight:normal;font-stretch:normal;text-align:start;line-height:100%;writing-mode:lr-tb;text-anchor:start;fill:#f3da37;fill-opacity:1;stroke:none;stroke-width:1px;stroke-linecap:butt;stroke-linejoin:miter;stroke-opacity:1;font-family:Times New Roman" />
    <path
       sodipodi:nodetypes="ccccccc"
       id="path2283"
       d="M 257.9474,620.9508 L 253.88918,629.0383 C 247.25474,645.63995 237.30574,670.42313 248.50322,697.43085 L 156.98564,696.55027 C 166.52684,688.11463 199.59104,649.27751 211.68902,618.38589 L 214.06587,613.30821 C 228.69305,615.13701 243.32022,617.66992 257.9474,620.9508 z "
       style="font-size:622.07427979px;font-style:normal;font-variant:normal;font-weight:normal;font-stretch:normal;text-align:start;line-height:100%;writing-mode:lr-tb;text-anchor:start;fill:#f3da37;fill-opacity:1;stroke:none;stroke-width:1px;stroke-linecap:butt;stroke-linejoin:miter;stroke-opacity:1;font-family:Times New Roman" />
    <g
       transform="translate(786.7533,-9.713003)"
       id="g2251">
      <path
         id="text2231"
         d="M -657.76962,337.41196 L -657.76962,368.63593 C -657.76965,375.38137 -657.03187,379.57091 -655.55627,381.20456 C -653.55376,383.52331 -650.52359,384.68268 -646.46575,384.68268 L -642.35525,384.68268 L -642.35525,387.60745 L -688.28215,387.60745 L -688.28215,384.68268 L -684.25071,384.68268 C -679.71863,384.68268 -676.47766,383.20712 -674.5278,380.25599 C -673.47384,378.62234 -672.94686,374.74899 -672.94684,368.63593 L -672.94684,299.38986 C -672.94686,292.64452 -673.65829,288.45498 -675.08114,286.82122 C -677.1364,284.50258 -680.19292,283.34321 -684.25071,283.34311 L -688.28215,283.34311 L -688.28215,280.41833 L -648.99529,280.41833 C -639.40418,280.41844 -631.84193,281.41971 -626.30851,283.42216 C -620.77521,285.37211 -616.11139,288.69213 -612.31701,293.38221 C -608.52278,298.07248 -606.62563,303.63219 -606.62555,310.06134 C -606.62563,318.80939 -609.52406,325.92371 -615.32083,331.40431 C -621.06506,336.88502 -629.20699,339.62535 -639.74667,339.6253 C -642.32895,339.62535 -645.12198,339.44091 -648.12576,339.07197 C -651.12962,338.70312 -654.34424,338.14979 -657.76962,337.41196 M -657.76962,332.90622 C -654.97662,333.43326 -652.49979,333.8285 -650.3391,334.09194 C -648.1785,334.35549 -646.33405,334.48723 -644.80574,334.48718 C -639.32513,334.48723 -634.6086,332.37929 -630.65615,328.16334 C -626.65111,323.89481 -624.64856,318.3878 -624.6485,311.6423 C -624.64856,307.0049 -625.59714,302.70996 -627.49423,298.75747 C -629.39144,294.75247 -632.07907,291.775 -635.55712,289.82505 C -639.03529,287.8226 -642.98769,286.82132 -647.41433,286.82122 C -650.102,286.82132 -653.55376,287.32196 -657.76962,288.32314 L -657.76962,332.90622"
         style="font-size:161.89035034px;font-style:normal;font-variant:normal;font-weight:normal;font-stretch:normal;text-align:start;line-height:100%;writing-mode:lr-tb;text-anchor:start;fill:#000000;fill-opacity:1;stroke:none;stroke-width:1px;stroke-linecap:butt;stroke-linejoin:miter;stroke-opacity:1;font-family:Times New Roman"
         transform="scale(1.008041,0.992023)" />
      <path
         id="text2235"
         d="M -108.46165,383.59546 L -136.47227,383.59546 L -171.98849,334.53819 C -174.61937,334.64141 -176.76014,334.69299 -178.41082,334.69294 C -179.08146,334.69299 -179.80365,334.69299 -180.57739,334.69294 C -181.35119,334.64141 -182.15076,334.58982 -182.97609,334.53819 L -182.97609,365.02488 C -182.97612,371.62777 -182.25393,375.72876 -180.80952,377.32789 C -178.84933,379.59763 -175.90899,380.7325 -171.98849,380.7325 L -167.88749,380.7325 L -167.88749,383.59546 L -212.84376,383.59546 L -212.84376,380.7325 L -208.89751,380.7325 C -204.46122,380.7325 -201.28875,379.28812 -199.38009,376.39936 C -198.29683,374.80024 -197.75519,371.00875 -197.75517,365.02488 L -197.75517,297.24228 C -197.75519,290.6395 -198.47738,286.5385 -199.92174,284.93927 C -201.93356,282.66964 -204.92549,281.53477 -208.89751,281.53467 L -212.84376,281.53467 L -212.84376,278.6717 L -174.61933,278.6717 C -163.47703,278.67181 -155.27504,279.49717 -150.01331,281.14778 C -144.70014,282.74701 -140.21225,285.73894 -136.54964,290.12356 C -132.83561,294.45678 -130.97856,299.64106 -130.97847,305.67642 C -130.97856,312.1246 -133.09354,317.72156 -137.32342,322.46731 C -141.50187,327.21318 -148.00157,330.5662 -156.82252,332.52637 L -135.15685,362.62618 C -130.20478,369.53858 -125.94903,374.12963 -122.38958,376.39936 C -118.83032,378.6691 -114.18768,380.11348 -108.46165,380.7325 L -108.46165,383.59546 M -182.97609,329.66341 C -181.99601,329.66346 -181.14485,329.68926 -180.42263,329.74079 C -179.70048,329.74084 -179.10725,329.74084 -178.64295,329.74079 C -168.63552,329.74084 -161.10413,327.57428 -156.04875,323.24109 C -150.94191,318.90802 -148.38845,313.38843 -148.38839,306.68232 C -148.38845,300.13112 -150.45185,294.81788 -154.57858,290.74258 C -158.65385,286.61588 -164.07026,284.55248 -170.82783,284.55239 C -173.8198,284.55248 -177.86921,285.04254 -182.97609,286.02256 L -182.97609,329.66341"
         style="font-size:158.46891785px;font-style:normal;font-variant:normal;font-weight:normal;font-stretch:normal;text-align:start;line-height:100%;writing-mode:lr-tb;text-anchor:start;fill:#000000;fill-opacity:1;stroke:none;stroke-width:1px;stroke-linecap:butt;stroke-linejoin:miter;stroke-opacity:1;font-family:Times New Roman" />
      <path
         id="text2243"
         d="M -665.71847,332.79636 L -665.71847,364.02033 C -665.71851,370.76577 -664.98073,374.95531 -663.50513,376.58896 C -661.50262,378.90771 -658.47245,380.06708 -654.41461,380.06708 L -650.30411,380.06708 L -650.30411,382.99185 L -696.23101,382.99185 L -696.23101,380.06708 L -692.19956,380.06708 C -687.66748,380.06708 -684.42652,378.59152 -682.47665,375.64039 C -681.4227,374.00674 -680.89571,370.13339 -680.89569,364.02033 L -680.89569,294.77427 C -680.89571,288.02893 -681.60714,283.83939 -683.02999,282.20563 C -685.08525,279.88699 -688.14177,278.72762 -692.19956,278.72752 L -696.23101,278.72752 L -696.23101,275.80274 L -656.94414,275.80274 C -647.35304,275.80285 -639.79078,276.80412 -634.25736,278.80657 C -628.72407,280.75652 -624.06024,284.07653 -620.26587,288.76662 C -616.47164,293.45689 -614.57449,299.01659 -614.57441,305.44575 C -614.57449,314.1938 -617.47292,321.30811 -623.26969,326.78871 C -629.01392,332.26943 -637.15585,335.00975 -647.69553,335.00971 C -650.27781,335.00975 -653.07084,334.82531 -656.07462,334.45637 C -659.07848,334.08753 -662.2931,333.53419 -665.71847,332.79636 M -665.71847,328.29063 C -662.92548,328.81767 -660.44864,329.21291 -658.28796,329.47635 C -656.12736,329.73989 -654.28291,329.87164 -652.7546,329.87159 C -647.27399,329.87164 -642.55746,327.76369 -638.605,323.54774 C -634.59997,319.27922 -632.59742,313.77221 -632.59736,307.02671 C -632.59742,302.38931 -633.546,298.09437 -635.44308,294.14188 C -637.3403,290.13688 -640.02793,287.1594 -643.50598,285.20946 C -646.98415,283.20701 -650.93654,282.20573 -655.36318,282.20563 C -658.05086,282.20573 -661.50262,282.70637 -665.71847,283.70754 L -665.71847,328.29063"
         style="font-size:161.89033508px;font-style:normal;font-variant:normal;font-weight:normal;font-stretch:normal;text-align:start;line-height:100%;writing-mode:lr-tb;text-anchor:start;fill:#f9df4a;fill-opacity:1;stroke:none;stroke-width:1px;stroke-linecap:butt;stroke-linejoin:miter;stroke-opacity:1;font-family:Times New Roman"
         transform="scale(1.008041,0.992023)" />
      <path
         id="text2247"
         d="M -117.04681,379.01669 L -145.05743,379.01669 L -180.57365,329.95942 C -183.20453,330.06264 -185.3453,330.11422 -186.99598,330.11418 C -187.66662,330.11422 -188.38881,330.11422 -189.16255,330.11418 C -189.93635,330.06264 -190.73592,330.01105 -191.56124,329.95942 L -191.56124,360.44612 C -191.56128,367.049 -190.83909,371.15 -189.39468,372.74912 C -187.43449,375.01886 -184.49415,376.15373 -180.57365,376.15373 L -176.47265,376.15373 L -176.47265,379.01669 L -221.42892,379.01669 L -221.42892,376.15373 L -217.48267,376.15373 C -213.04638,376.15373 -209.87391,374.70936 -207.96525,371.82059 C -206.88199,370.22147 -206.34035,366.42998 -206.34033,360.44612 L -206.34033,292.66351 C -206.34035,286.06073 -207.06253,281.95974 -208.5069,280.36051 C -210.51872,278.09087 -213.51064,276.956 -217.48267,276.9559 L -221.42892,276.9559 L -221.42892,274.09294 L -183.20449,274.09294 C -172.06219,274.09304 -163.8602,274.9184 -158.59847,276.56901 C -153.28529,278.16825 -148.79741,281.16017 -145.1348,285.54479 C -141.42077,289.87802 -139.56372,295.0623 -139.56363,301.09765 C -139.56372,307.54584 -141.6787,313.1428 -145.90858,317.88855 C -150.08703,322.63442 -156.58673,325.98743 -165.40768,327.94761 L -143.74201,358.04742 C -138.78994,364.95981 -134.53419,369.55087 -130.97474,371.82059 C -127.41548,374.09034 -122.77284,375.53471 -117.04681,376.15373 L -117.04681,379.01669 M -191.56124,325.08464 C -190.58116,325.0847 -189.73001,325.11049 -189.00779,325.16202 C -188.28564,325.16208 -187.69241,325.16208 -187.22811,325.16202 C -177.22068,325.16208 -169.68929,322.99551 -164.63391,318.66232 C -159.52707,314.32925 -156.97361,308.80967 -156.97355,302.10356 C -156.97361,295.55235 -159.03701,290.23911 -163.16374,286.16381 C -167.23901,282.03711 -172.65542,279.97372 -179.41299,279.97362 C -182.40496,279.97372 -186.45437,280.46377 -191.56124,281.44379 L -191.56124,325.08464"
         style="font-size:158.46891785px;font-style:normal;font-variant:normal;font-weight:normal;font-stretch:normal;text-align:start;line-height:100%;writing-mode:lr-tb;text-anchor:start;fill:#f2da32;fill-opacity:1;stroke:none;stroke-width:1px;stroke-linecap:butt;stroke-linejoin:miter;stroke-opacity:1;font-family:Times New Roman" />
    </g>
    <path
       sodipodi:nodetypes="csccscc"
       id="path2275"
       d="M 457.39384,643.17866 C 438.67362,647.20508 417.28923,648.27865 391.34092,646.38878 C 307.85659,640.30842 234.62542,598.54081 138.4644,614.16629 C 155.69493,579.50415 171.71942,555.93113 183.37629,537.6858 C 194.135,548.03264 304.27185,593.46458 378.25064,601.73742 C 405.75309,604.81294 426.09397,604.81249 441.92882,602.39027 C 446.32249,615.77078 451.45166,629.41102 457.39384,643.17866 z "
       style="font-size:575.85583496px;font-style:normal;font-variant:normal;font-weight:normal;font-stretch:normal;text-align:start;line-height:100%;writing-mode:lr-tb;text-anchor:start;fill:#f3da37;fill-opacity:1;stroke:none;stroke-width:1px;stroke-linecap:butt;stroke-linejoin:miter;stroke-opacity:1;font-family:Times New Roman" />
    <path
       sodipodi:nodetypes="ccsccccccccc"
       d="M 485.61556,409.8466 C 465.38749,389.37047 424.9418,357.97182 361.13864,356.17555 C 340.19855,355.27784 258.89,361.40701 257.84618,400.11372 C 256.95228,433.26127 288.02629,442.43656 398.87882,445.13369 C 518.07448,445.42392 536.2806,522.05339 534.485,555.2453 C 534.48482,584.73823 525.15225,608.06839 502.92058,624.1579 L 485.64056,579.07021 C 488.80036,573.45652 488.88407,567.86637 488.95447,561.96537 C 489.4498,518.87553 472.09653,499.9936 370.28301,496.82996 C 286.42899,502.5028 213.74165,466.68716 214.79445,406.00732 C 216.16352,329.43413 291.16348,326.35926 362.20107,328.15495 C 388.60883,328.15525 456.0744,333.29488 461.69862,333.2946"
       style="font-size:575.85583496px;font-style:normal;font-variant:normal;font-weight:normal;font-stretch:normal;text-align:start;line-height:100%;writing-mode:lr-tb;text-anchor:start;fill:#f3da37;fill-opacity:1;stroke:none;stroke-width:1px;stroke-linecap:butt;stroke-linejoin:miter;stroke-opacity:1;font-family:Times New Roman"
       id="path2282" />
    <g
       transform="translate(772.3419,0.000000)"
       id="g2241">
      <g
         id="g2235"
         transform="translate(5.601314,4.667762)"
         style="fill:#000000;fill-opacity:1">
        <path
           style="fill:#000000;fill-opacity:1;fill-rule:nonzero;stroke:none;stroke-width:7.08661413;stroke-linecap:round;stroke-linejoin:round;stroke-miterlimit:4;stroke-dashoffset:0;stroke-opacity:1"
           d="M -425.125,37.9375 L -425.125,48.6875 L -437.1875,48.6875 L -437.1875,63.59375 L -425.125,63.59375 L -425.125,73.6875 C -433.06332,75.703035 -438.90626,82.713519 -438.90625,91.125 L -438.90625,113.84375 C -426.6076,121.24822 -417.84375,133.8125 -417.84375,133.8125 C -417.83472,133.82742 -417.822,133.86217 -417.8125,133.875 C -417.80763,133.8809 -417.78624,133.90087 -417.78125,133.90625 C -417.77614,133.91112 -417.75523,133.93314 -417.75,133.9375 C -417.74465,133.94135 -417.72423,133.9654 -417.71875,133.96875 C -417.71315,133.9716 -417.69322,133.9664 -417.6875,133.96875 C -417.66411,133.97619 -417.61916,134.00033 -417.59375,134 C -417.58727,133.99944 -417.56911,133.96979 -417.5625,133.96875 C -417.54902,133.96574 -417.514,133.97363 -417.5,133.96875 C -417.4572,133.95133 -417.39139,133.90868 -417.34375,133.875 C -415.50238,132.49471 -410.07197,119.69001 -396.8125,113.84375 L -396.8125,91.125 C -396.8125,82.665524 -402.71105,75.594352 -410.71875,73.625 L -410.71875,63.59375 L -398.78125,63.59375 L -398.78125,48.6875 L -410.71875,48.6875 L -410.71875,37.9375 L -425.125,37.9375 z "
           id="path2237" />
        <path
           style="fill:#000000;fill-opacity:1;fill-rule:evenodd;stroke:none;stroke-width:1px;stroke-linecap:butt;stroke-linejoin:miter;stroke-opacity:1"
           d="M -325.625,85.15625 C -359.67898,86.452437 -389.85209,99.423595 -417.625,119.5625 C -446.95944,96.62829 -483.46391,81.722972 -521.625,85.96875 C -567.33562,96.219758 -577.2552,135.85931 -560.03125,171.5625 L -548.21875,189.4375 L -553.96875,195.15625 C -557.77322,198.70117 -552.90149,204.17811 -548.6875,202.03125 L -543.5625,196.46875 L -515.0625,239.59375 C -448.61813,218.55743 -381.577,216.10847 -313.625,239.28125 L -282.625,191.65625 L -277.34375,197.375 C -273.12976,199.52186 -268.25804,194.04492 -272.0625,190.5 L -278,184.5625 L -266.40625,166.78125 C -250.64778,113.5573 -281.04837,86.035034 -324.8125,85.15625 C -324.94681,85.160631 -325.08456,85.151507 -325.21875,85.15625 C -325.35241,85.160974 -325.49145,85.151167 -325.625,85.15625 z M -329.5625,97.34375 C -329.42449,97.338724 -329.29376,97.348286 -329.15625,97.34375 C -329.0182,97.339196 -328.88754,97.347813 -328.75,97.34375 C -328.61192,97.339671 -328.4813,97.347335 -328.34375,97.34375 C -279.38182,96.746441 -260.2356,144.95457 -286.71875,178.40625 C -296.23655,176.91701 -305.14035,178.85793 -315.53125,187.28125 C -331.57904,161.87862 -366.54488,163.89163 -379.21875,183.28125 C -384.18655,172.82882 -396.59882,164.20207 -409.46875,163.25 C -416.11225,115.87243 -364.75568,98.625387 -329.5625,97.34375 z M -504.78125,97.65625 C -504.59708,97.651295 -504.40374,97.659783 -504.21875,97.65625 C -504.03303,97.652703 -503.84279,97.658357 -503.65625,97.65625 C -503.09,97.649854 -502.51127,97.64925 -501.9375,97.65625 C -466.72512,98.574068 -414.09056,115.62538 -420.8125,163.5625 C -433.68243,164.51457 -443.18844,173.14132 -448.15625,183.59375 C -463.09566,170.02981 -484.81369,166.06815 -497.625,185.96875 C -511.57604,176.57448 -525.95789,172.3638 -541.625,183.5625 C -572.03679,146.31754 -551.74526,98.919709 -504.78125,97.65625 z "
           id="path2239" />
      </g>
      <g
         id="g2231">
        <path
           id="rect2216"
           d="M -425.125,37.9375 L -425.125,48.6875 L -437.1875,48.6875 L -437.1875,63.59375 L -425.125,63.59375 L -425.125,73.6875 C -433.06332,75.703035 -438.90626,82.713519 -438.90625,91.125 L -438.90625,113.84375 C -426.6076,121.24822 -417.84375,133.8125 -417.84375,133.8125 C -417.83472,133.82742 -417.822,133.86217 -417.8125,133.875 C -417.80763,133.8809 -417.78624,133.90087 -417.78125,133.90625 C -417.77614,133.91112 -417.75523,133.93314 -417.75,133.9375 C -417.74465,133.94135 -417.72423,133.9654 -417.71875,133.96875 C -417.71315,133.9716 -417.69322,133.9664 -417.6875,133.96875 C -417.66411,133.97619 -417.61916,134.00033 -417.59375,134 C -417.58727,133.99944 -417.56911,133.96979 -417.5625,133.96875 C -417.54902,133.96574 -417.514,133.97363 -417.5,133.96875 C -417.4572,133.95133 -417.39139,133.90868 -417.34375,133.875 C -415.50238,132.49471 -410.07197,119.69001 -396.8125,113.84375 L -396.8125,91.125 C -396.8125,82.665524 -402.71105,75.594352 -410.71875,73.625 L -410.71875,63.59375 L -398.78125,63.59375 L -398.78125,48.6875 L -410.71875,48.6875 L -410.71875,37.9375 L -425.125,37.9375 z "
           style="fill:#f7e03d;fill-opacity:1;fill-rule:nonzero;stroke:none;stroke-width:7.08661413;stroke-linecap:round;stroke-linejoin:round;stroke-miterlimit:4;stroke-dashoffset:0;stroke-opacity:1" />
        <path
           id="path1323"
           d="M -325.625,85.15625 C -359.67898,86.452437 -389.85209,99.423595 -417.625,119.5625 C -446.95944,96.62829 -483.46391,81.722972 -521.625,85.96875 C -567.33562,96.219758 -577.2552,135.85931 -560.03125,171.5625 L -548.21875,189.4375 L -553.96875,195.15625 C -557.77322,198.70117 -552.90149,204.17811 -548.6875,202.03125 L -543.5625,196.46875 L -515.0625,239.59375 C -448.61813,218.55743 -381.577,216.10847 -313.625,239.28125 L -282.625,191.65625 L -277.34375,197.375 C -273.12976,199.52186 -268.25804,194.04492 -272.0625,190.5 L -278,184.5625 L -266.40625,166.78125 C -250.64778,113.5573 -281.04837,86.035034 -324.8125,85.15625 C -324.94681,85.160631 -325.08456,85.151507 -325.21875,85.15625 C -325.35241,85.160974 -325.49145,85.151167 -325.625,85.15625 z M -329.5625,97.34375 C -329.42449,97.338724 -329.29376,97.348286 -329.15625,97.34375 C -329.0182,97.339196 -328.88754,97.347813 -328.75,97.34375 C -328.61192,97.339671 -328.4813,97.347335 -328.34375,97.34375 C -279.38182,96.746441 -260.2356,144.95457 -286.71875,178.40625 C -296.23655,176.91701 -305.14035,178.85793 -315.53125,187.28125 C -331.57904,161.87862 -366.54488,163.89163 -379.21875,183.28125 C -384.18655,172.82882 -396.59882,164.20207 -409.46875,163.25 C -416.11225,115.87243 -364.75568,98.625387 -329.5625,97.34375 z M -504.78125,97.65625 C -504.59708,97.651295 -504.40374,97.659783 -504.21875,97.65625 C -504.03303,97.652703 -503.84279,97.658357 -503.65625,97.65625 C -503.09,97.649854 -502.51127,97.64925 -501.9375,97.65625 C -466.72512,98.574068 -414.09056,115.62538 -420.8125,163.5625 C -433.68243,164.51457 -443.18844,173.14132 -448.15625,183.59375 C -463.09566,170.02981 -484.81369,166.06815 -497.625,185.96875 C -511.57604,176.57448 -525.95789,172.3638 -541.625,183.5625 C -572.03679,146.31754 -551.74526,98.919709 -504.78125,97.65625 z "
           style="fill:#feece9;fill-opacity:1;fill-rule:evenodd;stroke:none;stroke-width:1px;stroke-linecap:butt;stroke-linejoin:miter;stroke-opacity:1" />
      </g>
      <path
         sodipodi:type="arc"
         style="opacity:1;fill:#000000;fill-opacity:1;fill-rule:nonzero;stroke:none;stroke-width:7.08661413;stroke-linecap:round;stroke-linejoin:round;stroke-miterlimit:4;stroke-dasharray:none;stroke-dashoffset:0;stroke-opacity:1"
         id="path1331"
         sodipodi:cx="-527.54736"
         sodipodi:cy="208.52831"
         sodipodi:rx="5.1783791"
         sodipodi:ry="5.1783791"
         d="M -525.69275,213.36318 A 5.1783791,5.1783791 0 1 1 -525.64604,213.345"
         sodipodi:start="1.204515"
         sodipodi:end="7.4780207"
         sodipodi:open="true"
         transform="matrix(1.437414,0.000000,0.000000,1.437414,233.0222,-89.27137)" />
      <path
         transform="matrix(1.437414,0.000000,0.000000,1.437414,283.5114,-98.33353)"
         sodipodi:open="true"
         sodipodi:end="7.4780207"
         sodipodi:start="1.204515"
         d="M -525.69275,213.36318 A 5.1783791,5.1783791 0 1 1 -525.64604,213.345"
         sodipodi:ry="5.1783791"
         sodipodi:rx="5.1783791"
         sodipodi:cy="208.52831"
         sodipodi:cx="-527.54736"
         id="path2206"
         style="opacity:1;fill:#000000;fill-opacity:1;fill-rule:nonzero;stroke:none;stroke-width:7.08661413;stroke-linecap:round;stroke-linejoin:round;stroke-miterlimit:4;stroke-dasharray:none;stroke-dashoffset:0;stroke-opacity:1"
         sodipodi:type="arc" />
      <path
         sodipodi:type="arc"
         style="opacity:1;fill:#000000;fill-opacity:1;fill-rule:nonzero;stroke:none;stroke-width:7.08661413;stroke-linecap:round;stroke-linejoin:round;stroke-miterlimit:4;stroke-dasharray:none;stroke-dashoffset:0;stroke-opacity:1"
         id="path2208"
         sodipodi:cx="-527.54736"
         sodipodi:cy="208.52831"
         sodipodi:rx="5.1783791"
         sodipodi:ry="5.1783791"
         d="M -525.69275,213.36318 A 5.1783791,5.1783791 0 1 1 -525.64604,213.345"
         sodipodi:start="1.204515"
         sodipodi:end="7.4780207"
         sodipodi:open="true"
         transform="matrix(1.437414,0.000000,0.000000,1.437414,344.6810,-105.7774)" />
      <path
         transform="matrix(1.437414,0.000000,0.000000,1.437414,410.7053,-101.8936)"
         sodipodi:open="true"
         sodipodi:end="7.4780207"
         sodipodi:start="1.204515"
         d="M -525.69275,213.36318 A 5.1783791,5.1783791 0 1 1 -525.64604,213.345"
         sodipodi:ry="5.1783791"
         sodipodi:rx="5.1783791"
         sodipodi:cy="208.52831"
         sodipodi:cx="-527.54736"
         id="path2210"
         style="opacity:1;fill:#000000;fill-opacity:1;fill-rule:nonzero;stroke:none;stroke-width:7.08661413;stroke-linecap:round;stroke-linejoin:round;stroke-miterlimit:4;stroke-dasharray:none;stroke-dashoffset:0;stroke-opacity:1"
         sodipodi:type="arc" />
      <path
         sodipodi:type="arc"
         style="opacity:1;fill:#000000;fill-opacity:1;fill-rule:nonzero;stroke:none;stroke-width:7.08661413;stroke-linecap:round;stroke-linejoin:round;stroke-miterlimit:4;stroke-dasharray:none;stroke-dashoffset:0;stroke-opacity:1"
         id="path2212"
         sodipodi:cx="-527.54736"
         sodipodi:cy="208.52831"
         sodipodi:rx="5.1783791"
         sodipodi:ry="5.1783791"
         d="M -525.69275,213.36318 A 5.1783791,5.1783791 0 1 1 -525.64604,213.345"
         sodipodi:start="1.204515"
         sodipodi:end="7.4780207"
         sodipodi:open="true"
         transform="matrix(1.437414,0.000000,0.000000,1.437414,457.9580,-91.53684)" />
      <path
         style="fill:none;fill-opacity:0.75;fill-rule:evenodd;stroke:#000000;stroke-width:2.12598419;stroke-linecap:butt;stroke-linejoin:miter;stroke-miterlimit:4;stroke-dasharray:none;stroke-opacity:1"
         d="M -543.40615,196.87695 C -526.82573,180.84056 -510.73723,186.90254 -497.12438,197.2006 C -484.81606,176.24124 -465.30766,176.30575 -446.95883,196.5533 C -429.68016,164.95367 -394.22984,167.69383 -377.69802,196.22965 C -362.60883,174.66656 -337.22343,172.06122 -316.20477,199.46614 C -305.95308,186.44044 -294.94336,187.14445 -282.86896,190.08033"
         id="path2214"
         sodipodi:nodetypes="cccccc" />
    </g>
    <path
       sodipodi:nodetypes="ccccccc"
       d="M 435.0476,447.1962 L 362.42791,254.27227 L 287.88071,434.34292 C 298.43681,437.48367 314.91621,439.43406 331.58156,441.35353 L 358.96562,375.20068 L 384.31982,444.16166 C 400.73771,444.68181 417.39277,445.43912 435.0476,447.1962 z "
       style="font-size:622.07427979px;font-style:normal;font-variant:normal;font-weight:normal;font-stretch:normal;text-align:start;line-height:100%;writing-mode:lr-tb;text-anchor:start;fill:#f3da37;fill-opacity:1;stroke:none;stroke-width:1px;stroke-linecap:butt;stroke-linejoin:miter;stroke-opacity:1;font-family:Times New Roman"
       id="path2257" />
  </g>
</svg>
