<?xml version="1.0" encoding="UTF-8" standalone="no"?>
<!-- Created with Inkscape (http://www.inkscape.org/) -->
<svg
   xmlns:svg="http://www.w3.org/2000/svg"
   xmlns="http://www.w3.org/2000/svg"
   version="1.0"
   width="149"
   height="145"
   id="svg2">
  <defs
     id="defs4" />
  <g
     id="layer1">
    <g
       transform="translate(-159.98485,306.6479)"
       id="g2849">
      <path
         d="M 160.32104,-162.39689 C 159.77247,-163.28497 159.93573,-265.58206 160.51818,-285.91718 C 161.02163,-303.49459 160.83976,-302.55935 164.00995,-303.87249 C 166.11265,-304.74346 179.41927,-305.07138 212.75995,-305.07387 C 251.90714,-305.07679 261.8644,-304.83927 273.11783,-303.63412 C 273.94283,-303.54577 277.29195,-304.0732 280.56033,-304.80619 C 288.51663,-306.59053 304.52932,-305.93426 306.72994,-303.73364 C 308.09622,-302.36736 308.29034,-299.2064 308.10883,-281.28034 C 307.99264,-269.8056 307.77298,-239.44436 307.62071,-213.81093 C 307.46844,-188.17749 307.038,-166.24103 306.66419,-165.06325 C 306.29038,-163.88547 305.00202,-162.69128 303.80118,-162.40951 C 299.50862,-161.40226 160.94296,-161.39008 160.32104,-162.39689 z M 254.13889,-165.91718 C 254.66046,-166.74218 255.0941,-172.49551 255.10252,-178.70236 C 255.1146,-187.6038 254.76312,-190.52891 253.43855,-192.55046 C 252.0242,-194.70902 251.96409,-195.44135 253.05754,-197.19224 C 255.21271,-200.64323 256.56038,-220.65258 254.95853,-225.41718 C 253.69068,-229.18833 253.34495,-229.4481 248.91548,-229.95763 C 242.43613,-230.70297 240.11783,-229.67901 240.11783,-226.07185 C 240.11783,-222.58633 241.96041,-220.80174 244.79408,-221.54276 C 246.52402,-221.99515 246.94994,-221.53406 247.37297,-218.75091 C 248.05228,-214.28172 247.46438,-213.59926 243.4907,-214.24409 C 241.27731,-214.60328 240.07601,-214.38334 239.99617,-213.60431 C 239.30391,-206.8497 239.48979,-206.40481 242.86783,-206.73115 C 246.13144,-207.04643 246.63556,-206.42993 245.51084,-203.49897 C 245.12238,-202.48664 243.68233,-201.91718 241.51084,-201.91718 C 238.38468,-201.91718 238.11783,-201.67388 238.11783,-198.82356 C 238.11783,-196.57094 238.66153,-195.58776 240.11783,-195.20693 C 242.81493,-194.50162 242.63433,-192.70641 239.55666,-189.62874 C 237.46652,-187.5386 237.05272,-186.2864 237.30666,-182.82009 C 237.4778,-180.48398 238.10116,-178.41404 238.6919,-178.22021 C 239.28264,-178.02638 241.4729,-179.02615 243.55914,-180.44192 C 245.64539,-181.85768 247.53596,-182.83238 247.76042,-182.60793 C 247.98488,-182.38347 247.87016,-179.66123 247.5055,-176.5585 C 246.98122,-172.09777 246.47512,-170.91718 245.08714,-170.91718 C 244.12171,-170.91718 243.04943,-171.65305 242.7043,-172.55244 C 242.18289,-173.91122 240.98553,-174.10011 235.62251,-173.66962 C 230.95491,-173.29495 228.86318,-173.51909 228.06627,-174.47931 C 226.23863,-176.68148 227.43244,-180.16375 230.61783,-181.9221 C 233.21935,-183.35814 233.72722,-184.35653 234.44136,-189.43856 C 235.32743,-195.74407 234.23995,-199.91718 231.7107,-199.91718 C 230.91319,-199.91718 229.53801,-200.63986 228.65474,-201.52313 C 226.53,-203.64787 228.31851,-205.91718 232.11783,-205.91718 C 235.90237,-205.91718 236.76584,-207.36635 237.56429,-215.05811 C 238.30325,-222.17673 236.90421,-229.83591 234.82929,-230.0312 C 234.16299,-230.09391 232.26783,-230.385 230.61783,-230.67807 C 221.85577,-232.23435 213.24149,-230.53175 211.3927,-226.87825 C 209.64712,-223.4287 209.80049,-211.61244 211.64826,-207.19012 C 212.86122,-204.28708 212.97116,-202.47869 212.17823,-198.47223 C 211.03534,-192.69751 209.72823,-178.24002 209.84319,-172.64524 C 209.95787,-167.06377 210.68688,-165.91718 214.12089,-165.91718 L 217.18672,-165.91718 L 216.58258,-170.66718 C 215.8179,-176.6795 217.72014,-196.73307 219.22742,-198.54923 C 220.96207,-200.63935 223.0658,-200.18424 224.08714,-197.4979 C 224.59304,-196.16729 225.75815,-194.65822 226.67628,-194.14441 C 227.83869,-193.49389 228.13576,-192.54902 227.65455,-191.03286 C 227.06909,-189.18825 226.45959,-188.95004 223.66615,-189.47409 L 220.36883,-190.09267 L 219.65355,-180.55216 C 219.06145,-172.65464 219.21056,-170.62288 220.51943,-168.7542 C 223.19922,-164.92827 225.51063,-164.40205 239.60234,-164.40975 C 250.58686,-164.41576 253.37228,-164.7046 254.13889,-165.91718 z M 216.99935,-214.16718 C 216.60352,-218.34321 217.98226,-222.91718 219.63688,-222.91718 C 221.07056,-222.91718 221.59162,-220.64872 221.12993,-216.41718 C 220.80822,-213.46867 217.24931,-211.53007 216.99935,-214.16718 z M 226.11783,-217.72518 C 226.11783,-221.60383 228.11986,-224.65199 229.93183,-223.53213 C 230.42772,-223.22566 230.78493,-221.04942 230.72564,-218.69604 C 230.63401,-215.05939 230.28013,-214.36922 228.36783,-214.09763 C 226.36055,-213.81255 226.11783,-214.20387 226.11783,-217.72518 z M 187.11783,-165.87052 C 195.09283,-165.86763 202.74283,-165.76445 204.11783,-165.64122 C 206.40517,-165.43624 206.61783,-165.75744 206.61783,-169.41718 L 206.61783,-173.41718 L 198.75059,-173.58443 C 194.4236,-173.67641 190.42002,-174.21499 189.85374,-174.78127 C 188.6157,-176.01932 190.49049,-194.68984 192.00493,-196.20428 C 192.63824,-196.83759 195.53299,-196.80033 200.26528,-196.09796 C 204.27223,-195.50324 207.62569,-195.10677 207.71742,-195.21692 C 207.80915,-195.32706 208.16097,-196.76718 208.49924,-198.41718 C 209.53971,-203.49231 208.16967,-204.37957 199.77527,-204.06695 C 195.67213,-203.91414 192.04895,-204.21961 191.72376,-204.74578 C 191.13047,-205.70575 190.92979,-214.80537 191.37814,-220.41718 L 191.61783,-223.41718 L 199.38118,-223.29629 C 206.66502,-223.18287 207.17972,-223.31556 207.71406,-225.44458 C 208.0273,-226.69262 208.13379,-228.7558 207.95071,-230.02941 C 207.61891,-232.33758 207.56451,-232.34546 191.11783,-232.46565 C 182.04283,-232.53197 172.36783,-232.3232 169.61783,-232.00171 C 165.01803,-231.46396 164.59157,-231.18732 164.28966,-228.54535 C 163.80239,-224.28138 165.40147,-223.41718 173.77855,-223.41718 L 181.32278,-223.41718 L 181.75651,-218.91718 C 182.27501,-213.53758 182.18215,-205.83027 181.58723,-204.86767 C 181.35275,-204.48827 179.31004,-204.51631 177.04788,-204.92997 C 174.78572,-205.34364 172.18853,-205.53709 171.27635,-205.35987 C 164.08834,-203.96334 164.11734,-203.98247 164.13315,-200.64813 C 164.15137,-196.80221 165.4603,-194.39277 167.01079,-195.35102 C 169.11252,-196.64996 181.92999,-196.85369 182.38509,-195.59538 C 182.61946,-194.94737 182.74396,-190.42604 182.66174,-185.54797 C 182.47855,-174.67883 181.62261,-173.70509 172.53246,-174.02472 C 165.18276,-174.28316 163.92302,-173.65305 164.69769,-170.10589 C 165.856,-164.80207 165.98391,-164.67039 169.3784,-165.28717 C 171.16009,-165.61091 179.14283,-165.87341 187.11783,-165.87052 z M 263.56633,-165.83384 C 263.87792,-166.33801 264.24197,-185.80051 264.37534,-209.08384 L 264.61783,-251.41718 L 261.86783,-251.7336 C 258.53254,-252.11737 258.84014,-255.81805 258.5998,-212.41718 C 258.49929,-194.26718 258.11398,-176.5791 257.74356,-173.11034 C 257.37313,-169.64158 257.33236,-166.37908 257.65296,-165.86034 C 258.40058,-164.65067 262.82284,-164.63085 263.56633,-165.83384 z M 272.72528,-166.09103 C 273.64808,-167.58415 274.65022,-280.32945 273.8748,-295.41718 C 273.62648,-300.24896 273.5169,-300.41718 270.61783,-300.41718 L 267.61783,-300.41718 L 268.11783,-291.91718 C 268.71827,-281.70978 268.47878,-239.6989 267.5832,-198.1322 C 267.22433,-181.47546 267.18368,-167.18796 267.49288,-166.3822 C 268.165,-164.63068 271.70112,-164.43391 272.72528,-166.09103 z M 284.82254,-166.59004 C 285.1756,-167.51012 284.66481,-170.51441 283.68745,-173.26624 C 282.16463,-177.55383 281.94463,-181.28425 282.14955,-199.34338 C 282.52305,-232.25865 282.38862,-250.97972 281.77436,-251.59398 C 281.4645,-251.90384 280.16082,-251.8938 278.87731,-251.57166 L 276.54365,-250.98595 L 276.74149,-209.00049 C 276.85029,-185.90849 277.23104,-166.54302 277.58759,-165.96611 C 278.65114,-164.24525 284.10318,-164.71544 284.82254,-166.59004 z M 293.96799,-167.91718 C 295.24759,-171.58785 295.88001,-171.67288 297.14549,-168.34442 C 297.77751,-166.6821 298.74191,-165.88877 299.87074,-166.10261 C 302.44971,-166.59114 302.70687,-172.27721 300.30357,-175.6732 C 297.62626,-179.45641 296.75103,-185.23822 296.55793,-200.41718 C 296.21844,-227.1037 296.33198,-225.91718 294.11783,-225.91718 C 292.17375,-225.91718 292.11783,-225.25051 292.11783,-202.07373 C 292.11783,-180.88864 291.89635,-177.58654 290.13132,-172.4564 C 288.00406,-166.27339 288.17453,-164.91718 291.07902,-164.91718 C 292.22791,-164.91718 293.31611,-166.04721 293.96799,-167.91718 z M 288.88593,-202.24996 C 289.14828,-225.40983 289.11077,-225.91718 287.13593,-225.91718 C 285.19137,-225.91718 285.10982,-225.23396 284.89805,-207.16718 C 284.56406,-178.67438 284.68343,-177.27302 287.36836,-178.1668 C 288.31046,-178.48041 288.68378,-184.40483 288.88593,-202.24996 z M 303.23625,-183.16718 C 303.30138,-183.85468 303.30799,-184.73485 303.25094,-185.12312 C 303.19388,-185.51138 303.1037,-194.84888 303.05052,-205.87312 C 302.963,-224.01746 302.79304,-225.91718 301.25729,-225.91718 C 299.72895,-225.91718 299.53039,-223.9433 299.25465,-206.00958 C 299.04952,-192.6686 299.31793,-185.4118 300.06838,-184.00958 C 301.30891,-181.69163 303.05254,-181.22797 303.23625,-183.16718 z M 302.60131,-232.54351 C 304.83149,-234.77369 304.47186,-235.8978 301.15869,-237.05278 C 299.53116,-237.62014 297.94654,-238.88151 297.6373,-239.85583 C 296.77892,-242.56036 298.59319,-246.4058 300.73041,-246.41184 C 302.09584,-246.4157 302.69962,-247.25061 302.91355,-249.43068 C 303.16466,-251.98954 302.74977,-252.61763 300.16355,-253.59382 C 297.16118,-254.72709 295.8796,-257.91718 298.4267,-257.91718 C 299.14658,-257.91718 300.53416,-258.50112 301.51021,-259.21482 C 304.21405,-261.19192 304.8365,-274.4772 302.52629,-280.90166 C 300.87826,-285.48469 300.8763,-285.89961 302.49109,-288.36409 C 303.46776,-289.85468 303.86153,-291.49756 303.40939,-292.19542 C 302.97403,-292.86739 302.16783,-295.21318 301.61783,-297.40829 C 300.31023,-302.62705 297.38996,-303.45491 296.93568,-298.73562 C 296.50092,-294.21902 293.11783,-293.3765 293.11783,-297.78484 C 293.11783,-303.88302 289.31257,-302.893 286.89334,-296.1654 C 285.39201,-291.99037 285.36477,-291.18925 286.65709,-289.21691 C 288.47272,-286.44591 288.52777,-282.97442 286.79707,-280.38968 C 284.8606,-277.49765 284.80018,-264.05091 286.71055,-261.13532 C 287.74271,-259.56004 288.82492,-259.00682 290.08931,-259.40812 C 291.11242,-259.73285 292.2332,-259.53953 292.57992,-258.97852 C 293.70932,-257.15111 291.26072,-254.19575 288.09222,-253.56205 C 285.21262,-252.98613 285.01738,-252.67899 285.3067,-249.17995 C 285.58928,-245.7625 285.87021,-245.43445 288.36783,-245.60544 C 290.92525,-245.78052 291.11783,-245.52348 291.11783,-241.9349 C 291.11783,-238.46042 290.81903,-238.01046 288.11783,-237.41718 C 285.01571,-236.73584 284.11891,-234.3161 286.19797,-232.23704 C 287.92906,-230.50594 300.80429,-230.7465 302.60131,-232.54351 z M 290.75731,-266.61103 C 289.4265,-267.94184 290.10542,-272.91718 291.61783,-272.91718 C 292.61114,-272.91718 293.11783,-271.92373 293.11783,-269.97619 C 293.11783,-267.04071 291.96752,-265.40082 290.75731,-266.61103 z M 297.80538,-268.72943 C 297.08243,-272.3442 298.00804,-276.12075 299.49515,-275.62377 C 300.95559,-275.1357 300.96051,-266.6965 299.50064,-266.21077 C 298.88619,-266.00632 298.12332,-267.13972 297.80538,-268.72943 z M 292.7156,-282.65274 C 292.38682,-282.98152 292.11783,-284.52551 292.11783,-286.08384 C 292.11783,-288.25051 292.58842,-288.91718 294.11783,-288.91718 C 295.65695,-288.91718 296.11783,-288.25051 296.11783,-286.02417 C 296.11783,-283.32703 294.0703,-281.29804 292.7156,-282.65274 z M 253.19962,-233.91718 C 254.29729,-233.91718 254.44069,-237.60699 253.36783,-238.2455 C 252.95533,-238.491 249.69283,-238.96651 246.11783,-239.30219 C 238.03624,-240.06102 233.46389,-241.27533 234.11783,-242.48912 C 234.39283,-242.99955 234.97801,-243.29712 235.41823,-243.15038 C 235.85845,-243.00364 238.55812,-242.66086 241.41751,-242.38865 C 244.27689,-242.11644 247.42624,-241.63668 248.41607,-241.32252 C 249.4059,-241.00836 251.31872,-241.47401 252.66679,-242.3573 C 254.64705,-243.65482 255.11783,-244.79966 255.11783,-248.31778 C 255.11783,-250.75719 254.52307,-253.16589 253.76549,-253.79463 C 253.0217,-254.41192 249.63111,-255.20775 246.23085,-255.56315 C 238.16644,-256.40605 238.74402,-258.30934 247.2,-258.75673 C 250.72981,-258.94349 253.74431,-259.21996 253.89889,-259.37112 C 254.05346,-259.52228 254.45221,-261.94483 254.78498,-264.75457 C 255.36145,-269.62197 255.26247,-269.91169 252.68883,-270.89018 C 251.20317,-271.45503 247.82203,-271.91718 245.17518,-271.91718 C 240.04346,-271.91718 237.64933,-273.53272 238.70484,-276.28331 C 239.41575,-278.13593 242.65828,-277.73862 247.73727,-275.17657 C 252.01163,-273.0204 254.53922,-274.08851 253.65314,-277.67649 C 252.65944,-281.70026 251.63167,-282.34682 245.33624,-282.90863 C 240.89971,-283.30454 239.56214,-283.81319 239.29704,-285.20521 C 238.98982,-286.81848 239.72193,-286.96509 246.78718,-286.70521 L 254.61783,-286.41718 L 254.91696,-293.31805 C 255.08148,-297.11353 254.82836,-300.60665 254.35446,-301.08055 C 253.88056,-301.55444 252.05846,-301.6553 250.30533,-301.30468 C 247.47755,-300.73912 247.11783,-300.28629 247.11783,-297.29218 C 247.11783,-294.01696 246.99864,-293.91718 243.08645,-293.91718 C 238.97576,-293.91718 238.79522,-294.09375 237.67054,-299.21405 L 237.0562,-302.01092 L 226.11348,-301.8484 C 218.35002,-301.7331 214.84753,-301.2964 214.05821,-300.34533 C 212.3707,-298.31201 213.90584,-296.82553 217.44746,-297.06352 C 219.19116,-297.1807 223.01333,-297.1957 225.94116,-297.09687 C 230.42684,-296.94545 231.2094,-296.64181 230.91446,-295.16718 C 230.61918,-293.69085 229.41417,-293.41718 223.20905,-293.41718 C 214.99306,-293.41718 213.30982,-292.27267 214.50753,-287.50062 C 215.09071,-285.17704 215.59235,-284.85232 217.90479,-285.30151 C 219.39696,-285.59137 223.08515,-285.96097 226.10075,-286.12285 C 230.50566,-286.35931 231.64555,-286.09931 231.89841,-284.80046 C 232.1588,-283.46289 230.81413,-283.0617 224.11055,-282.47694 C 216.90624,-281.8485 215.88862,-281.50821 214.93144,-279.40743 C 213.19248,-275.59083 214.54022,-273.63864 218.36701,-274.43105 C 220.15496,-274.80128 222.11744,-275.73712 222.72807,-276.51069 C 224.2181,-278.3983 232.11783,-278.42264 232.11783,-276.53962 C 232.11783,-274.2447 229.61946,-272.89397 223.54652,-271.90557 C 220.36685,-271.38807 217.33515,-270.53449 216.80939,-270.00874 C 216.28364,-269.48299 215.9584,-266.6598 216.08664,-263.735 C 216.4257,-256.00204 216.42347,-255.96488 215.22637,-249.41718 C 214.62305,-246.11718 214.12681,-241.50468 214.12362,-239.16718 C 214.11839,-235.32633 214.35283,-234.91718 216.55881,-234.91718 C 219.8062,-234.91718 220.51685,-236.33128 220.69789,-243.15343 C 220.86842,-249.57931 222.22193,-251.91718 225.77166,-251.91718 C 227.15325,-251.91718 228.45596,-252.66351 228.82627,-253.66718 C 229.914,-256.61528 231.29934,-256.81379 233.50641,-254.33782 C 235.09098,-252.56018 236.84472,-251.90027 240.5347,-251.69315 C 246.91022,-251.3353 248.11357,-248.93703 241.95116,-248.87015 C 227.00039,-248.70791 225.48123,-248.30672 225.08914,-244.41718 C 224.24189,-236.01249 225.58215,-234.96955 238.12705,-234.27163 C 243.89698,-233.95062 248.81933,-233.50055 249.0656,-233.27148 C 249.31187,-233.0424 250.13617,-233.09397 250.89738,-233.38608 C 251.6586,-233.67818 252.6946,-233.91718 253.19962,-233.91718 z M 222.11783,-264.27312 C 222.11783,-266.1511 226.06559,-267.38592 229.04566,-266.44008 C 231.3695,-265.70253 231.86285,-263.91718 229.74283,-263.91718 C 228.98658,-263.91718 226.96158,-263.63593 225.24283,-263.29218 C 222.78064,-262.79974 222.11783,-263.0078 222.11783,-264.27312 z M 239.52171,-265.07271 C 238.51509,-266.70145 240.69555,-267.56487 244.64958,-267.10326 C 246.71911,-266.86166 248.05032,-266.21279 247.83107,-265.5525 C 247.34213,-264.07995 240.38359,-263.67815 239.52171,-265.07271 z M 193.11783,-236.27113 C 202.19283,-236.35146 210.11742,-236.74235 210.72802,-237.13978 C 211.48916,-237.6352 211.84518,-245.33815 211.86038,-261.63978 C 211.88187,-284.6835 210.90318,-298.48062 209.11803,-300.30025 C 208.1844,-301.25191 204.2083,-301.26126 182.75431,-300.36228 C 163.60827,-299.56 164.1536,-299.86965 163.96231,-289.69193 C 163.87677,-285.14081 163.9774,-280.29218 164.18592,-278.91718 C 164.58226,-276.30377 164.57124,-274.44919 164.02071,-251.11049 C 163.63361,-234.69984 163.6521,-234.66197 171.61338,-235.56036 C 174.36583,-235.87096 184.04283,-236.19081 193.11783,-236.27113 z M 169.29021,-242.26397 C 168.10994,-243.75666 168.73508,-291.93443 169.9505,-293.14984 C 171.09298,-294.29232 173.46183,-294.57655 189.33121,-295.47523 C 200.30527,-296.0967 202.39169,-295.96776 204.58178,-294.53275 L 207.11899,-292.87031 L 206.72169,-272.14374 C 206.50278,-260.72342 205.78628,-249.32638 205.12592,-246.76061 C 204.05556,-242.60178 203.56753,-242.03652 200.56021,-241.47234 C 194.71445,-240.37567 170.29448,-240.99389 169.29021,-242.26397 z M 189.25433,-244.80004 C 190.41109,-245.01292 190.80598,-250.99188 189.7081,-251.6704 C 188.51646,-252.40688 175.6282,-252.12634 172.86783,-251.30384 C 171.11412,-250.78129 170.61895,-248.38083 171.68942,-245.59121 C 172.14452,-244.40525 173.92778,-244.1609 180.43942,-244.39229 C 184.93755,-244.55213 188.90426,-244.73562 189.25433,-244.80004 z M 200.48366,-245.42811 C 200.80255,-246.25913 200.79549,-248.27887 200.46798,-249.91643 C 200.07591,-251.87677 200.45032,-253.77567 201.56404,-255.47542 C 203.23854,-258.03104 203.40568,-259.6492 202.79749,-267.41718 C 202.53328,-270.79159 202.15821,-271.38264 200.39929,-271.19637 C 197.74418,-270.91519 195.14646,-273.6988 196.99678,-274.84236 C 197.68447,-275.26738 199.37864,-275.39881 200.76161,-275.13444 C 203.02954,-274.7009 203.24382,-274.93633 202.94696,-277.53547 C 202.64536,-280.17612 202.24305,-280.44384 198.13745,-280.73593 C 190.20038,-281.30061 188.83113,-284.91718 196.5544,-284.91718 C 201.14213,-284.91718 203.51839,-286.62424 202.95041,-289.51195 C 202.3576,-292.52585 199.58192,-293.48677 195.61373,-292.05185 C 192.88609,-291.06552 191.68598,-291.03069 190.62986,-291.90719 C 189.86477,-292.54217 187.97406,-292.91668 186.4283,-292.73943 C 183.47426,-292.40071 183.36508,-291.98404 184.26578,-284.48676 C 184.61758,-281.55845 184.61418,-281.55651 179.54405,-281.80154 C 173.71464,-282.08327 172.0311,-280.79268 172.82605,-276.65158 L 173.35695,-273.88598 L 179.98739,-274.55987 C 183.63413,-274.9305 187.21169,-275.27502 187.93751,-275.32547 C 188.66334,-275.37591 190.64447,-273.52095 192.34004,-271.20333 L 195.42287,-266.98949 L 194.27647,-260.04774 C 193.12791,-253.09294 193.54245,-247.50812 195.38099,-245.16718 C 196.73575,-243.44221 199.78136,-243.59796 200.48366,-245.42811 z M 188.82558,-257.91718 C 189.5201,-259.29218 190.09498,-262.3193 190.10309,-264.64412 C 190.12194,-270.04826 187.55386,-271.95644 180.56339,-271.7325 C 173.03336,-271.49127 172.11555,-270.71839 172.13149,-264.63199 C 172.1568,-254.96538 172.34448,-254.75106 180.47273,-255.10684 C 186.88203,-255.38738 187.68407,-255.65723 188.82558,-257.91718 z M 179.81907,-262.54927 C 178.24436,-264.12398 179.17903,-266.04759 181.36783,-265.73673 C 182.60533,-265.56097 183.61783,-264.74834 183.61783,-263.93087 C 183.61783,-262.34212 180.9841,-261.38424 179.81907,-262.54927 z M 264.32421,-256.02763 C 266.35969,-257.11698 266.38538,-257.53917 265.67678,-278.25529 C 265.2795,-289.86976 264.73966,-299.72005 264.47713,-300.14484 C 264.21459,-300.56962 262.92181,-300.91718 261.60427,-300.91718 L 259.20875,-300.91718 L 259.24939,-288.16718 C 259.27175,-281.15468 259.62192,-273.39218 260.02756,-270.91718 C 260.61293,-267.34547 260.36812,-265.74037 258.8408,-263.13628 C 255.28606,-257.07545 258.49908,-252.91011 264.32421,-256.02763 z M 283.32449,-277.33308 C 283.16316,-288.92933 282.82767,-299.01124 282.57896,-299.73731 C 282.33026,-300.46339 281.11226,-300.91339 279.8723,-300.73731 L 277.61783,-300.41718 L 277.53816,-278.91718 C 277.49434,-267.09218 277.58705,-257.15468 277.74417,-256.83384 C 277.9013,-256.51301 279.28715,-256.25017 280.82384,-256.24975 L 283.61783,-256.24899 L 283.32449,-277.33308 z "
         style="fill:#fe0406"
         id="path2851" />
    </g>
  </g>
</svg>
