<?xml version="1.0" encoding="UTF-8" standalone="no"?>
<!-- Created with Inkscape (http://www.inkscape.org/) -->

<svg
   xmlns:dc="http://purl.org/dc/elements/1.1/"
   xmlns:cc="http://creativecommons.org/ns#"
   xmlns:rdf="http://www.w3.org/1999/02/22-rdf-syntax-ns#"
   xmlns:svg="http://www.w3.org/2000/svg"
   xmlns="http://www.w3.org/2000/svg"
   xmlns:sodipodi="http://sodipodi.sourceforge.net/DTD/sodipodi-0.dtd"
   xmlns:inkscape="http://www.inkscape.org/namespaces/inkscape"
   version="1.0"
   width="669.13"
   height="787.75067"
   id="svg5398"
   sodipodi:version="0.32"
   inkscape:version="0.47 r22583"
   sodipodi:docname="Timor arms.svg"
   inkscape:output_extension="org.inkscape.output.svg.inkscape">
  <metadata
     id="metadata246">
    <rdf:RDF>
      <cc:Work
         rdf:about="">
        <dc:format>image/svg+xml</dc:format>
        <dc:type
           rdf:resource="http://purl.org/dc/dcmitype/StillImage" />
        <dc:title />
      </cc:Work>
    </rdf:RDF>
  </metadata>
  <sodipodi:namedview
     inkscape:window-height="968"
     inkscape:window-width="1280"
     inkscape:pageshadow="2"
     inkscape:pageopacity="0.0"
     guidetolerance="10.0"
     gridtolerance="10.0"
     objecttolerance="10.0"
     borderopacity="1.0"
     bordercolor="#666666"
     pagecolor="#ffffff"
     id="base"
     showgrid="false"
     inkscape:zoom="0.64539428"
     inkscape:cx="334.565"
     inkscape:cy="393.87534"
     inkscape:window-x="-4"
     inkscape:window-y="-4"
     inkscape:current-layer="svg5398"
     inkscape:window-maximized="0" />
  <defs
     id="defs5400">
    <inkscape:perspective
       sodipodi:type="inkscape:persp3d"
       inkscape:vp_x="0 : 393.875 : 1"
       inkscape:vp_y="0 : 1000 : 0"
       inkscape:vp_z="700 : 393.875 : 1"
       inkscape:persp3d-origin="350 : 262.58333 : 1"
       id="perspective246" />
    <inkscape:perspective
       sodipodi:type="inkscape:persp3d"
       inkscape:vp_x="0 : 0.5 : 1"
       inkscape:vp_y="0 : 1000 : 0"
       inkscape:vp_z="1 : 0.5 : 1"
       inkscape:persp3d-origin="0.5 : 0.33333333 : 1"
       id="perspective4040-2" />
    <inkscape:perspective
       sodipodi:type="inkscape:persp3d"
       inkscape:vp_x="0 : 0.5 : 1"
       inkscape:vp_y="0 : 1000 : 0"
       inkscape:vp_z="1 : 0.5 : 1"
       inkscape:persp3d-origin="0.5 : 0.33333333 : 1"
       id="perspective4040" />
    <inkscape:perspective
       sodipodi:type="inkscape:persp3d"
       inkscape:vp_x="0 : 0.5 : 1"
       inkscape:vp_y="0 : 1000 : 0"
       inkscape:vp_z="1 : 0.5 : 1"
       inkscape:persp3d-origin="0.5 : 0.33333333 : 1"
       id="perspective4018" />
    <inkscape:perspective
       sodipodi:type="inkscape:persp3d"
       inkscape:vp_x="0 : 0.5 : 1"
       inkscape:vp_y="0 : 1000 : 0"
       inkscape:vp_z="1 : 0.5 : 1"
       inkscape:persp3d-origin="0.5 : 0.33333333 : 1"
       id="perspective3980" />
    <inkscape:perspective
       sodipodi:type="inkscape:persp3d"
       inkscape:vp_x="0 : 0.5 : 1"
       inkscape:vp_y="0 : 1000 : 0"
       inkscape:vp_z="1 : 0.5 : 1"
       inkscape:persp3d-origin="0.5 : 0.33333333 : 1"
       id="perspective3958" />
    <inkscape:perspective
       sodipodi:type="inkscape:persp3d"
       inkscape:vp_x="0 : 0.5 : 1"
       inkscape:vp_y="0 : 1000 : 0"
       inkscape:vp_z="1 : 0.5 : 1"
       inkscape:persp3d-origin="0.5 : 0.33333333 : 1"
       id="perspective3936" />
    <inkscape:perspective
       sodipodi:type="inkscape:persp3d"
       inkscape:vp_x="0 : 0.5 : 1"
       inkscape:vp_y="0 : 1000 : 0"
       inkscape:vp_z="1 : 0.5 : 1"
       inkscape:persp3d-origin="0.5 : 0.33333333 : 1"
       id="perspective3914" />
    <inkscape:perspective
       sodipodi:type="inkscape:persp3d"
       inkscape:vp_x="0 : 0.5 : 1"
       inkscape:vp_y="0 : 1000 : 0"
       inkscape:vp_z="1 : 0.5 : 1"
       inkscape:persp3d-origin="0.5 : 0.33333333 : 1"
       id="perspective3890" />
    <inkscape:perspective
       sodipodi:type="inkscape:persp3d"
       inkscape:vp_x="0 : 0.5 : 1"
       inkscape:vp_y="0 : 1000 : 0"
       inkscape:vp_z="1 : 0.5 : 1"
       inkscape:persp3d-origin="0.5 : 0.33333333 : 1"
       id="perspective3868" />
    <inkscape:perspective
       sodipodi:type="inkscape:persp3d"
       inkscape:vp_x="0 : 0.5 : 1"
       inkscape:vp_y="0 : 1000 : 0"
       inkscape:vp_z="1 : 0.5 : 1"
       inkscape:persp3d-origin="0.5 : 0.33333333 : 1"
       id="perspective3846" />
    <inkscape:perspective
       sodipodi:type="inkscape:persp3d"
       inkscape:vp_x="0 : 0.5 : 1"
       inkscape:vp_y="0 : 1000 : 0"
       inkscape:vp_z="1 : 0.5 : 1"
       inkscape:persp3d-origin="0.5 : 0.33333333 : 1"
       id="perspective3824" />
    <inkscape:perspective
       sodipodi:type="inkscape:persp3d"
       inkscape:vp_x="0 : 0.5 : 1"
       inkscape:vp_y="0 : 1000 : 0"
       inkscape:vp_z="1 : 0.5 : 1"
       inkscape:persp3d-origin="0.5 : 0.33333333 : 1"
       id="perspective3796" />
    <inkscape:perspective
       sodipodi:type="inkscape:persp3d"
       inkscape:vp_x="0 : 0.5 : 1"
       inkscape:vp_y="0 : 1000 : 0"
       inkscape:vp_z="1 : 0.5 : 1"
       inkscape:persp3d-origin="0.5 : 0.33333333 : 1"
       id="perspective3774" />
    <inkscape:perspective
       sodipodi:type="inkscape:persp3d"
       inkscape:vp_x="0 : 0.5 : 1"
       inkscape:vp_y="0 : 1000 : 0"
       inkscape:vp_z="1 : 0.5 : 1"
       inkscape:persp3d-origin="0.5 : 0.33333333 : 1"
       id="perspective3750" />
    <inkscape:perspective
       sodipodi:type="inkscape:persp3d"
       inkscape:vp_x="0 : 0.5 : 1"
       inkscape:vp_y="0 : 1000 : 0"
       inkscape:vp_z="1 : 0.5 : 1"
       inkscape:persp3d-origin="0.5 : 0.33333333 : 1"
       id="perspective2960" />
    <inkscape:perspective
       id="perspective150"
       inkscape:persp3d-origin="335.56329 : 262.58356 : 1"
       inkscape:vp_z="671.12659 : 393.87534 : 1"
       inkscape:vp_y="0 : 1000 : 0"
       inkscape:vp_x="0 : 393.87534 : 1"
       sodipodi:type="inkscape:persp3d" />
    <inkscape:perspective
       id="perspective3355"
       inkscape:persp3d-origin="0.5 : 0.33333333 : 1"
       inkscape:vp_z="1 : 0.5 : 1"
       inkscape:vp_y="0 : 1000 : 0"
       inkscape:vp_x="0 : 0.5 : 1"
       sodipodi:type="inkscape:persp3d" />
    <inkscape:perspective
       id="perspective2895"
       inkscape:persp3d-origin="0.5 : 0.33333333 : 1"
       inkscape:vp_z="1 : 0.5 : 1"
       inkscape:vp_y="0 : 1000 : 0"
       inkscape:vp_x="0 : 0.5 : 1"
       sodipodi:type="inkscape:persp3d" />
    <inkscape:perspective
       sodipodi:type="inkscape:persp3d"
       inkscape:vp_x="0 : 0.5 : 1"
       inkscape:vp_y="0 : 1000 : 0"
       inkscape:vp_z="1 : 0.5 : 1"
       inkscape:persp3d-origin="0.5 : 0.33333333 : 1"
       id="perspective4040-2-1" />
    <inkscape:perspective
       sodipodi:type="inkscape:persp3d"
       inkscape:vp_x="0 : 0.5 : 1"
       inkscape:vp_y="0 : 1000 : 0"
       inkscape:vp_z="1 : 0.5 : 1"
       inkscape:persp3d-origin="0.5 : 0.33333333 : 1"
       id="perspective4040-1" />
    <inkscape:perspective
       sodipodi:type="inkscape:persp3d"
       inkscape:vp_x="0 : 0.5 : 1"
       inkscape:vp_y="0 : 1000 : 0"
       inkscape:vp_z="1 : 0.5 : 1"
       inkscape:persp3d-origin="0.5 : 0.33333333 : 1"
       id="perspective4018-7" />
    <inkscape:perspective
       sodipodi:type="inkscape:persp3d"
       inkscape:vp_x="0 : 0.5 : 1"
       inkscape:vp_y="0 : 1000 : 0"
       inkscape:vp_z="1 : 0.5 : 1"
       inkscape:persp3d-origin="0.5 : 0.33333333 : 1"
       id="perspective3980-1" />
    <inkscape:perspective
       sodipodi:type="inkscape:persp3d"
       inkscape:vp_x="0 : 0.5 : 1"
       inkscape:vp_y="0 : 1000 : 0"
       inkscape:vp_z="1 : 0.5 : 1"
       inkscape:persp3d-origin="0.5 : 0.33333333 : 1"
       id="perspective3958-5" />
    <inkscape:perspective
       sodipodi:type="inkscape:persp3d"
       inkscape:vp_x="0 : 0.5 : 1"
       inkscape:vp_y="0 : 1000 : 0"
       inkscape:vp_z="1 : 0.5 : 1"
       inkscape:persp3d-origin="0.5 : 0.33333333 : 1"
       id="perspective3936-5" />
    <inkscape:perspective
       sodipodi:type="inkscape:persp3d"
       inkscape:vp_x="0 : 0.5 : 1"
       inkscape:vp_y="0 : 1000 : 0"
       inkscape:vp_z="1 : 0.5 : 1"
       inkscape:persp3d-origin="0.5 : 0.33333333 : 1"
       id="perspective3914-4" />
    <inkscape:perspective
       sodipodi:type="inkscape:persp3d"
       inkscape:vp_x="0 : 0.5 : 1"
       inkscape:vp_y="0 : 1000 : 0"
       inkscape:vp_z="1 : 0.5 : 1"
       inkscape:persp3d-origin="0.5 : 0.33333333 : 1"
       id="perspective3890-2" />
    <inkscape:perspective
       sodipodi:type="inkscape:persp3d"
       inkscape:vp_x="0 : 0.5 : 1"
       inkscape:vp_y="0 : 1000 : 0"
       inkscape:vp_z="1 : 0.5 : 1"
       inkscape:persp3d-origin="0.5 : 0.33333333 : 1"
       id="perspective3868-8" />
    <inkscape:perspective
       sodipodi:type="inkscape:persp3d"
       inkscape:vp_x="0 : 0.5 : 1"
       inkscape:vp_y="0 : 1000 : 0"
       inkscape:vp_z="1 : 0.5 : 1"
       inkscape:persp3d-origin="0.5 : 0.33333333 : 1"
       id="perspective3846-8" />
    <inkscape:perspective
       sodipodi:type="inkscape:persp3d"
       inkscape:vp_x="0 : 0.5 : 1"
       inkscape:vp_y="0 : 1000 : 0"
       inkscape:vp_z="1 : 0.5 : 1"
       inkscape:persp3d-origin="0.5 : 0.33333333 : 1"
       id="perspective3824-4" />
    <inkscape:perspective
       sodipodi:type="inkscape:persp3d"
       inkscape:vp_x="0 : 0.5 : 1"
       inkscape:vp_y="0 : 1000 : 0"
       inkscape:vp_z="1 : 0.5 : 1"
       inkscape:persp3d-origin="0.5 : 0.33333333 : 1"
       id="perspective3796-9" />
    <inkscape:perspective
       sodipodi:type="inkscape:persp3d"
       inkscape:vp_x="0 : 0.5 : 1"
       inkscape:vp_y="0 : 1000 : 0"
       inkscape:vp_z="1 : 0.5 : 1"
       inkscape:persp3d-origin="0.5 : 0.33333333 : 1"
       id="perspective3774-0" />
    <inkscape:perspective
       sodipodi:type="inkscape:persp3d"
       inkscape:vp_x="0 : 0.5 : 1"
       inkscape:vp_y="0 : 1000 : 0"
       inkscape:vp_z="1 : 0.5 : 1"
       inkscape:persp3d-origin="0.5 : 0.33333333 : 1"
       id="perspective3750-4" />
    <inkscape:perspective
       sodipodi:type="inkscape:persp3d"
       inkscape:vp_x="0 : 0.5 : 1"
       inkscape:vp_y="0 : 1000 : 0"
       inkscape:vp_z="1 : 0.5 : 1"
       inkscape:persp3d-origin="0.5 : 0.33333333 : 1"
       id="perspective2960-7" />
    <inkscape:perspective
       id="perspective150-1"
       inkscape:persp3d-origin="335.56329 : 262.58356 : 1"
       inkscape:vp_z="671.12659 : 393.87534 : 1"
       inkscape:vp_y="0 : 1000 : 0"
       inkscape:vp_x="0 : 393.87534 : 1"
       sodipodi:type="inkscape:persp3d" />
    <inkscape:perspective
       id="perspective3686"
       inkscape:persp3d-origin="350 : 262.58333 : 1"
       inkscape:vp_z="700 : 393.875 : 1"
       inkscape:vp_y="0 : 1000 : 0"
       inkscape:vp_x="0 : 393.875 : 1"
       sodipodi:type="inkscape:persp3d" />
    <inkscape:perspective
       id="perspective3469"
       inkscape:persp3d-origin="350 : 262.58333 : 1"
       inkscape:vp_z="700 : 393.875 : 1"
       inkscape:vp_y="0 : 1000 : 0"
       inkscape:vp_x="0 : 393.875 : 1"
       sodipodi:type="inkscape:persp3d" />
    <inkscape:perspective
       id="perspective4946"
       inkscape:persp3d-origin="350 : 262.58333 : 1"
       inkscape:vp_z="700 : 393.875 : 1"
       inkscape:vp_y="0 : 1000 : 0"
       inkscape:vp_x="0 : 393.875 : 1"
       sodipodi:type="inkscape:persp3d" />
    <inkscape:perspective
       id="perspective7061"
       inkscape:persp3d-origin="350 : 262.58333 : 1"
       inkscape:vp_z="700 : 393.875 : 1"
       inkscape:vp_y="0 : 1000 : 0"
       inkscape:vp_x="0 : 393.875 : 1"
       sodipodi:type="inkscape:persp3d" />
    <inkscape:perspective
       id="perspective7845"
       inkscape:persp3d-origin="350 : 262.58333 : 1"
       inkscape:vp_z="700 : 393.875 : 1"
       inkscape:vp_y="0 : 1000 : 0"
       inkscape:vp_x="0 : 393.875 : 1"
       sodipodi:type="inkscape:persp3d" />
    <inkscape:perspective
       id="perspective8455"
       inkscape:persp3d-origin="350 : 262.58333 : 1"
       inkscape:vp_z="700 : 393.875 : 1"
       inkscape:vp_y="0 : 1000 : 0"
       inkscape:vp_x="0 : 393.875 : 1"
       sodipodi:type="inkscape:persp3d" />
    <inkscape:perspective
       sodipodi:type="inkscape:persp3d"
       inkscape:vp_x="0 : 0.5 : 1"
       inkscape:vp_y="0 : 1000 : 0"
       inkscape:vp_z="1 : 0.5 : 1"
       inkscape:persp3d-origin="0.5 : 0.33333333 : 1"
       id="perspective3819" />
    <inkscape:perspective
       id="perspective3872"
       inkscape:persp3d-origin="372.04724 : 350.78739 : 1"
       inkscape:vp_z="744.09448 : 526.18109 : 1"
       inkscape:vp_y="0 : 1000 : 0"
       inkscape:vp_x="0 : 526.18109 : 1"
       sodipodi:type="inkscape:persp3d" />
  </defs>
  <path
     d=""
     id="path3639"
     style="opacity:0.63999999;fill:#e3e4e5;fill-opacity:1;stroke:#000000;stroke-width:4.3529501;stroke-miterlimit:4;stroke-opacity:1;stroke-dasharray:none" />
  <path
     d=""
     id="path3641"
     style="opacity:0.63999999;fill:#e3e4e5;fill-opacity:1;stroke:#000000;stroke-width:4.3529501;stroke-miterlimit:4;stroke-opacity:1;stroke-dasharray:none" />
  <path
     d=""
     id="path3643"
     style="opacity:0.63999999;fill:#e3e4e5;fill-opacity:1;stroke:#000000;stroke-width:4.3529501;stroke-miterlimit:4;stroke-opacity:1;stroke-dasharray:none" />
  <path
     d=""
     id="path3653"
     style="opacity:0.63999999;fill:#e3e4e5;fill-opacity:1;stroke:#000000;stroke-width:4.3529501;stroke-miterlimit:4;stroke-opacity:1;stroke-dasharray:none" />
  <path
     d=""
     id="path3655"
     style="opacity:0.63999999;fill:#e3e4e5;fill-opacity:1;stroke:#000000;stroke-width:4.3529501;stroke-miterlimit:4;stroke-opacity:1;stroke-dasharray:none" />
  <path
     d=""
     id="path3657"
     style="opacity:0.63999999;fill:#e3e4e5;fill-opacity:1;stroke:#000000;stroke-width:4.3529501;stroke-miterlimit:4;stroke-opacity:1;stroke-dasharray:none" />
  <path
     d=""
     id="path3737"
     style="opacity:0.63999999;fill:#e3e4e5;fill-opacity:1;stroke:#000000;stroke-width:4.3529501;stroke-miterlimit:4;stroke-opacity:1;stroke-dasharray:none" />
  <path
     d=""
     id="path3739"
     style="opacity:0.63999999;fill:#e3e4e5;fill-opacity:1;stroke:#000000;stroke-width:4.3529501;stroke-miterlimit:4;stroke-opacity:1;stroke-dasharray:none" />
  <path
     d=""
     id="path3741"
     style="opacity:0.63999999;fill:#e3e4e5;fill-opacity:1;stroke:#000000;stroke-width:4.3529501;stroke-miterlimit:4;stroke-opacity:1;stroke-dasharray:none" />
  <path
     d=""
     id="path3751"
     style="opacity:0.63999999;fill:#e3e4e5;fill-opacity:1;stroke:#000000;stroke-width:4.3529501;stroke-miterlimit:4;stroke-opacity:1;stroke-dasharray:none" />
  <path
     d=""
     id="path3753"
     style="opacity:0.63999999;fill:#e3e4e5;fill-opacity:1;stroke:#000000;stroke-width:4.3529501;stroke-miterlimit:4;stroke-opacity:1;stroke-dasharray:none" />
  <path
     d=""
     id="path3755"
     style="opacity:0.63999999;fill:#e3e4e5;fill-opacity:1;stroke:#000000;stroke-width:4.3529501;stroke-miterlimit:4;stroke-opacity:1;stroke-dasharray:none" />
  <path
     d=""
     id="path4180"
     style="opacity:0.63999999;fill:#e3e4e5;fill-opacity:1;stroke:#000000;stroke-width:4.3529501;stroke-miterlimit:4;stroke-opacity:1;stroke-dasharray:none" />
  <path
     d=""
     id="path4182"
     style="opacity:0.63999999;fill:#e3e4e5;fill-opacity:1;stroke:#000000;stroke-width:4.3529501;stroke-miterlimit:4;stroke-opacity:1;stroke-dasharray:none" />
  <path
     d=""
     id="path4184"
     style="opacity:0.63999999;fill:#e3e4e5;fill-opacity:1;stroke:#000000;stroke-width:4.3529501;stroke-miterlimit:4;stroke-opacity:1;stroke-dasharray:none" />
  <path
     d=""
     id="path4194"
     style="opacity:0.63999999;fill:#e3e4e5;fill-opacity:1;stroke:#000000;stroke-width:4.3529501;stroke-miterlimit:4;stroke-opacity:1;stroke-dasharray:none" />
  <path
     d=""
     id="path4196"
     style="opacity:0.63999999;fill:#e3e4e5;fill-opacity:1;stroke:#000000;stroke-width:4.3529501;stroke-miterlimit:4;stroke-opacity:1;stroke-dasharray:none" />
  <path
     d=""
     id="path4198"
     style="opacity:0.63999999;fill:#e3e4e5;fill-opacity:1;stroke:#000000;stroke-width:4.3529501;stroke-miterlimit:4;stroke-opacity:1;stroke-dasharray:none" />
  <path
     d="m 3.09598,4.21179 0,427.80949 c 0,175.11675 147.4639,351.72943 329.2712,351.72943 181.9249,0 329.3655,-176.61266 329.3655,-351.72942 l 0,-427.8095 -658.6367,0 z"
     id="path3480"
     style="fill:#ffffff;stroke:none" />
  <path
     sodipodi:nodetypes="csccssscc"
     d="m 153.73688,721.73565 c 68.288,-67.22003 79.57948,13.10256 180.7537,15.4448 75.82398,1.75536 100.9564,-87.4974 184.0691,-16.754 l 31.042,-27.6604 c -14.3744,-21.75476 -44.76254,-37.40665 -82.5772,-37.94988 -65.21634,-0.94212 -80.41377,40.79147 -135.0935,41.90878 -55.30547,1.13009 -78.56552,-43.25682 -136.5938,-43.29606 -30.64812,-0.0207 -71.8216,32.08446 -77.7338,39.36126 l 36.1335,28.9455 z"
     id="path4753"
     style="fill:#008000;fill-opacity:1;stroke:none" />
  <path
     sodipodi:nodetypes="cssssccsssscc"
     d="m 72.471083,635.4251 c 68.495297,22.85466 82.949597,-31.17684 139.613197,-26.1277 35.547,3.16749 65.23736,33.28474 121.37249,32.23968 60.77637,-1.13146 66.85293,-34.50101 118.42608,-35.69038 39.55933,-0.91232 57.48833,33.91494 97.76503,36.61248 17.2344,1.15427 34.2642,-2.11331 50.3049,-13.67628 l 26.3756,-46.32626 c -90.3708,51.5751 -115.2033,-19.49296 -168.5731,-20.61733 -52.3594,-1.10309 -67.86156,33.45856 -122.54129,34.57583 -55.30547,1.13006 -56.71672,-34.01887 -129.57159,-33.50884 -44.91294,0.31443 -63.75534,34.36729 -100.70583,34.66909 -33.235677,0.27146 -34.868887,-3.88483 -64.59919,-19.09441 l 32.133703,56.94412 z"
     id="path4753-5"
     style="fill:#008000;fill-opacity:1;stroke:none" />
  <path
     sodipodi:nodetypes="cssccssccc"
     d="m 203.08468,500.83372 c 55.546,3.83412 81.67916,41.70634 124.5147,40.67524 47.58456,-1.14542 59.7983,-30.4334 111.1264,-35.80929 3.7134,-0.38893 7.3343,-0.39316 10.8823,-0.081 2.3503,-0.66282 -37.0531,-35.21977 -39.6182,-37.64677 -27.2465,9.40165 -42.77037,30.56058 -79.7127,31.33718 -36.41347,0.76548 -54.2204,-22.10275 -77.7258,-32.12304 -12.1945,-5.19853 -27.9622,-8.40446 -52.8175,-6.27786 -2.1368,0.74464 1.518,41.00622 3.3508,42.84566 l 0,-2.92012 z"
     id="path4753-5-4"
     style="fill:#008000;fill-opacity:1;stroke:none" />
  <path
     sodipodi:nodetypes="cssccsscccc"
     d="m 211.02588,402.87102 c 55.5222,4.70483 88.77488,44.23081 122.27107,43.40894 40.75511,-0.99998 61.96283,-34.42454 113.26883,-41.02128 3.7119,-0.47726 7.3312,-0.48244 10.8777,-0.0994 2.3492,-0.81333 -37.0372,-51.21805 -39.6012,-54.19621 -27.2349,11.53673 -46.79271,47.19823 -83.73661,48.15164 -36.3804,0.93886 -50.13909,-36.8201 -73.63429,-49.11597 -12.1894,-6.37909 -27.9502,-2.31307 -52.7949,0.29646 -2.1359,0.91375 1.5174,50.31859 3.3494,52.57576 l 0,7e-5 0,-1e-5 z"
     id="path4753-5-4-3"
     style="fill:#008000;fill-opacity:1;stroke:none" />
  <path
     sodipodi:nodetypes="csscccscccc"
     d="m 204.61168,323.37646 c 55.5437,3.91325 87.87592,41.77695 130.71487,40.72444 47.57755,-1.16893 53.59053,-33.25165 104.91653,-38.7385 3.7133,-0.39696 7.334,-0.40127 10.8819,-0.0827 2.3501,-0.67649 -37.0516,-35.94668 -39.6166,-38.42377 -27.2455,9.59569 -39.5181,29.48312 -76.4242,31.98396 -36.4467,-0.92694 -57.5035,-22.55894 -81.0078,-32.78604 -12.1941,-5.30582 -27.9611,-8.57792 -52.8154,-6.40744 -2.1367,0.76002 1.518,41.85257 3.3507,43.72997 l 0,6e-5 0,2e-5 z"
     id="path4753-5-4-3-1"
     style="fill:#008000;fill-opacity:1;stroke:none" />
  <path
     d="m 337.69228,2.5 325.4096,0 1.94,383.72682 -2.02,0 c 2e-4,19.74157 12.7574,84.11791 -17.2558,146.29048 -303.7352,38.48711 -311.8857,-185.29768 -308.5735,-401.54327 l 0,-128.47403 0.4999,0 -2e-4,0 z"
     id="path9529-3"
     style="fill:#ffffff;fill-opacity:1;stroke:#231f20;stroke-width:5;stroke-linecap:round;stroke-linejoin:round;stroke-miterlimit:4;stroke-opacity:1;stroke-dasharray:none" />
  <path
     d="M 334.18768,2.76531 3.265366,6.496239 5.812652,387.73578 c -3.270046,49.73308 2.186479,90.36415 14.301228,145.04684 303.7352,38.48711 317.8857,-185.29768 314.5735,-401.54327 l 0,-128.47404 -0.4999,0 2e-4,0 z"
     id="path9529-3-3"
     style="fill:#ffffff;stroke:#231f20;stroke-width:5;stroke-linecap:round;stroke-linejoin:round;stroke-miterlimit:4;stroke-opacity:1;stroke-dasharray:none"
     sodipodi:nodetypes="cccccccc" />
  <path
     d="m 4.00748,4.21927 0,427.80128 c 0,175.11339 148.0187,351.72266 330.51,351.72266 182.6094,0 330.6047,-176.60925 330.6047,-351.72265 l 0,-427.80129 -661.1147,0 z"
     id="path3480-1"
     style="fill:none;stroke:#231f20;stroke-width:8.01496029;stroke-linecap:round;stroke-linejoin:round;stroke-miterlimit:4;stroke-opacity:1;stroke-dasharray:none" />
  <g
     transform="matrix(1.8604758,0,0,1.78923,-3385.3881,-993.1719)"
     id="g3815">
    <path
       d="m 2089.295,700.90001 -87.269,-143.356 c -0.8437,0 4.1325,0 0,0 l 87.269,0 0,143.356 z"
       id="path3805"
       style="fill:#000000;fill-opacity:1;stroke:none"
       sodipodi:nodetypes="ccccc" />
    <path
       d="m 2176.549,557.54401 0,145.4992 -87.254,0 87.254,-145.4992 z"
       id="path3809"
       style="fill:#000000;fill-opacity:1;stroke:none"
       sodipodi:nodetypes="cccc" />
    <path
       d="m 2172.4448,837.17038 c -3.0246,15.22714 -0.6209,16.13466 -18.1325,17.19119 l -24.7576,1.4937 c -23.3944,-1.93565 -18.7583,0.24265 -40.2597,-5.9269 0,-50.92491 0,-103.02311 0,-149.02836 35.8124,58.84094 45.4199,74.25292 83.1498,136.27037 z"
       id="path3811"
       style="fill:#000000;fill-opacity:1;stroke:none"
       sodipodi:nodetypes="cscccc" />
    <path
       d="m 2089.295,702.73703 c -25.3766,41.67088 -37.1075,57.51742 -62.4254,99.16494 -16.4977,-24.36959 -18.7759,-52.57966 -22.94,-69.89036 l -2.9149,-29.27458 88.2803,0 z"
       id="path3813"
       style="fill:#000000;fill-opacity:1;stroke:none"
       sodipodi:nodetypes="ccccc" />
  </g>
  <g
     transform="matrix(1.8702639,0,0,1.8628057,-4330.8961,-1475.7826)"
     id="g3983">
    <g
       id="g3821"
       transform="translate(3.31789,-70.146745)">
      <g
         transform="matrix(0,-0.3673055,0.3673055,0,2123.0133,2081.8495)"
         id="g9801">
        <path
           d="m 2900.9337,1246.8199 -0.852,-138.0053 c -0.058,-9.2933 -8.2248,-16.7833 -18.2381,-16.7294 -10.0147,0.054 -18.0856,7.6315 -18.0275,16.9248 -7.7003,-5.8139 -12.1947,-14.5195 -12.2524,-23.7318 -0.1064,-17.0232 14.6772,-30.9033 33.0214,-31.0021 7.7012,-0.042 15.1795,2.402 21.1532,6.9126 -0.1128,-18.0352 10.7263,-34.7562 27.4997,-43.8644 l 8e-4,229.4956 c -10.7251,0 -18.3811,0 -32.3051,0 z"
           style="fill:#ffffff;fill-opacity:1;stroke:none"
           id="path9803"
           sodipodi:nodetypes="ccscsscccc" />
        <path
           d="m 2965.5443,1246.8199 0.852,-138.0053 c 0.058,-9.2933 8.2248,-16.7833 18.2381,-16.7294 10.0147,0.054 18.0856,7.6315 18.0275,16.9248 7.7003,-5.8139 12.1947,-14.5195 12.2524,-23.7318 0.1064,-17.0232 -14.6772,-30.9033 -33.0214,-31.0021 -7.7012,-0.042 -15.1795,2.402 -21.1532,6.9126 0.1128,-18.0352 -10.7263,-34.7562 -27.4997,-43.8644 l 0,229.4956 c 10.7251,0 18.3803,0 32.3043,0 z"
           style="fill:#000000;fill-opacity:1;stroke:none"
           id="path9805"
           sodipodi:nodetypes="ccscsscccc" />
      </g>
      <g
         transform="matrix(0,0.3673055,-0.3673055,0,3038.9359,-72.940059)"
         id="g3781">
        <path
           d="m 2900.9337,1246.8199 -0.852,-138.0053 c -0.058,-9.2933 -8.2248,-16.7833 -18.2381,-16.7294 -10.0147,0.054 -18.0856,7.6315 -18.0275,16.9248 -7.7003,-5.8139 -12.1947,-14.5195 -12.2524,-23.7318 -0.1064,-17.0232 14.6772,-30.9033 33.0214,-31.0021 7.7012,-0.042 15.1795,2.402 21.1532,6.9126 -0.1128,-18.0352 10.7263,-34.7562 27.4997,-43.8644 l 0,229.4956 c -10.7251,0 -18.3803,0 -32.3043,0 z"
           style="fill:#ffffff;fill-opacity:1;stroke:none"
           id="path3783"
           sodipodi:nodetypes="ccscsscccc" />
        <path
           d="m 2965.5443,1246.8199 0.852,-138.0053 c 0.058,-9.2933 8.2248,-16.7833 18.2381,-16.7294 10.0147,0.054 18.0856,7.6315 18.0275,16.9248 7.7003,-5.8139 12.1947,-14.5195 12.2524,-23.7318 0.1064,-17.0232 -14.6772,-30.9033 -33.0214,-31.0021 -7.7012,-0.042 -15.1795,2.402 -21.1532,6.9126 0.1128,-18.0352 -10.7263,-34.7562 -27.4997,-43.8644 l 0,229.4956 c 10.7251,0 18.3803,0 32.3043,0 z"
           style="fill:#000000;fill-opacity:1;stroke:none"
           id="path3785"
           sodipodi:nodetypes="ccscsscccc" />
      </g>
    </g>
    <g
       id="g3813"
       transform="translate(3.31789,-95.39468)">
      <g
         transform="matrix(0.3673055,0,0,0.3673055,1503.5798,519.08218)"
         id="g8909">
        <path
           d="m 2900.9337,1390.1793 -0.852,-281.3647 c -0.058,-9.2933 -8.2248,-16.7833 -18.2381,-16.7294 -10.0147,0.054 -18.0856,7.6315 -18.0275,16.9248 -7.7003,-5.8139 -12.1947,-14.5195 -12.2524,-23.7318 -0.1064,-17.0232 14.6772,-30.9033 33.0214,-31.0021 7.7012,-0.042 15.1795,2.402 21.1532,6.9126 -0.1128,-18.0352 10.7273,-34.7562 27.5007,-43.8644 l 0,372.855 c -10.7251,0 -18.3803,0 -32.3043,0 z"
           style="fill:#ffffff;fill-opacity:1;stroke:none"
           id="path8134"
           sodipodi:nodetypes="ccscsscccc" />
        <path
           d="m 2965.5443,1390.1793 0.852,-281.3647 c 0.058,-9.2933 8.2248,-16.7833 18.2381,-16.7294 10.0147,0.054 18.0856,7.6315 18.0275,16.9248 7.7003,-5.8139 12.1947,-14.5195 12.2524,-23.7318 0.1064,-17.0232 -14.6772,-30.9033 -33.0214,-31.0021 -7.7012,-0.042 -15.1795,2.402 -21.1532,6.9126 0.1128,-18.0352 -10.7263,-34.7562 -27.4997,-43.8644 l 0,372.855 c 10.7251,0 18.3803,0 32.3043,0 z"
           style="fill:#000000;fill-opacity:1;stroke:none"
           id="path8906"
           sodipodi:nodetypes="ccscsscccc" />
      </g>
      <g
         transform="matrix(-0.3673055,0,0,-0.3673055,3658.3699,1540.3235)"
         id="g9789">
        <path
           d="m 2900.9337,1390.1801 -0.852,-281.3655 c -0.058,-9.2933 -8.2248,-16.7833 -18.2381,-16.7294 -10.0147,0.054 -18.0856,7.6315 -18.0275,16.9248 -7.7003,-5.8139 -12.1947,-14.5195 -12.2524,-23.7318 -0.1064,-17.0232 14.6772,-30.9033 33.0214,-31.0021 7.7012,-0.042 15.1795,2.402 21.1532,6.9126 -0.1128,-18.0352 10.7263,-34.7562 27.4997,-43.8644 l 0,372.8558 c -10.7251,0 -18.3803,0 -32.3043,0 z"
           style="fill:#ffffff;fill-opacity:1;stroke:none"
           id="path9791"
           sodipodi:nodetypes="ccscsscccc" />
        <path
           d="m 2965.5443,1390.1801 0.852,-281.3655 c 0.058,-9.2933 8.2248,-16.7833 18.2381,-16.7294 10.0147,0.054 18.0856,7.6315 18.0275,16.9248 7.7003,-5.8139 12.1947,-14.5195 12.2524,-23.7318 0.1064,-17.0232 -14.6772,-30.9033 -33.0214,-31.0021 -7.7012,-0.042 -15.1795,2.402 -21.1532,6.9126 0.1128,-18.0352 -10.7263,-34.7562 -27.4997,-43.8644 l 0,372.8558 c 10.7251,0 18.3803,0 32.3043,0 z"
           style="fill:#000000;fill-opacity:1;stroke:none"
           id="path9793"
           sodipodi:nodetypes="ccscsscccc" />
      </g>
    </g>
  </g>
  <g
     id="g4077"
     transform="matrix(5.9417598,0,0,6.6972652,-1225.6823,23981.406)">
    <path
       style="fill:#000099;fill-rule:evenodd;stroke:#000000;stroke-width:0.48780808;stroke-miterlimit:4;stroke-opacity:1;stroke-dasharray:none"
       id="path4079"
       d="m 226.6234,-3562.852 0,0.01 c 0,2.2119 0.8493,4.2272 2.2119,5.6894 1.3651,1.4667 3.2454,2.3777 5.302,2.3777 2.0672,0 3.9439,-0.9048 5.3029,-2.3653 1.3581,-1.4588 2.2021,-3.4722 2.2021,-5.693 l 0,0 0,-10.7676 -14.9915,-0.012 -0.0274,10.7659" />
    <g
       id="g4081">
      <path
         style="fill:#ffffff;fill-rule:evenodd;stroke:none"
         id="path4083"
         d="m 238.3757,-3571.0012 c -0.8184,0 -1.486,0.6668 -1.486,1.4852 0,0.8176 0.6676,1.4843 1.486,1.4843 0.8184,0 1.486,-0.6667 1.486,-1.4843 0,-0.8167 -0.6676,-1.4852 -1.486,-1.4852" />
      <path
         style="fill:#ffffff;fill-rule:evenodd;stroke:none"
         id="path4085"
         d="m 234.2087,-3567.0068 c -0.8184,0 -1.486,0.6667 -1.486,1.4852 0,0.8166 0.6676,1.4852 1.486,1.4852 0.8184,0 1.486,-0.6668 1.486,-1.4852 0,-0.8185 -0.6676,-1.4852 -1.486,-1.4852" />
      <path
         style="fill:#ffffff;fill-rule:evenodd;stroke:none"
         id="path4087"
         d="m 238.3669,-3562.8379 c -0.8184,0 -1.486,0.6668 -1.486,1.4852 0,0.8176 0.6676,1.4843 1.486,1.4843 0.8184,0 1.486,-0.6667 1.486,-1.4843 0,-0.8167 -0.6676,-1.4852 -1.486,-1.4852" />
      <path
         style="fill:#ffffff;fill-rule:evenodd;stroke:none"
         id="path4089"
         d="m 230.2534,-3562.8255 c -0.8176,0 -1.4861,0.6667 -1.4861,1.4825 0,0.8185 0.6676,1.4852 1.4861,1.4852 0.8184,0 1.486,-0.6667 1.486,-1.4852 0,-0.8158 -0.6676,-1.4825 -1.486,-1.4825" />
      <path
         style="fill:#ffffff;fill-rule:evenodd;stroke:none"
         id="path4091"
         d="m 230.2366,-3571.0082 c -0.8184,0 -1.486,0.6667 -1.486,1.4852 0,0.8167 0.6676,1.4852 1.486,1.4852 0.8184,0 1.486,-0.6668 1.486,-1.4852 0,-0.8185 -0.6676,-1.4852 -1.486,-1.4852" />
    </g>
  </g>
  <g
     id="g4093"
     transform="matrix(5.9417598,0,0,6.6972652,-1326.9217,24130.494)">
    <path
       style="fill:#000099;fill-rule:evenodd;stroke:#000000;stroke-width:0.48780808;stroke-miterlimit:4;stroke-opacity:1;stroke-dasharray:none"
       id="path4095"
       d="m 226.6234,-3562.852 0,0.01 c 0,2.2119 0.8493,4.2272 2.2119,5.6894 1.3651,1.4667 3.2454,2.3777 5.302,2.3777 2.0672,0 3.9439,-0.9048 5.3029,-2.3653 1.3581,-1.4588 2.2021,-3.4722 2.2021,-5.693 l 0,0 0,-10.7676 -14.9915,-0.012 -0.0274,10.7659" />
    <g
       id="g4097">
      <path
         style="fill:#ffffff;fill-rule:evenodd;stroke:none"
         id="path4099"
         d="m 238.3757,-3571.0012 c -0.8184,0 -1.486,0.6668 -1.486,1.4852 0,0.8176 0.6676,1.4843 1.486,1.4843 0.8184,0 1.486,-0.6667 1.486,-1.4843 0,-0.8167 -0.6676,-1.4852 -1.486,-1.4852" />
      <path
         style="fill:#ffffff;fill-rule:evenodd;stroke:none"
         id="path4101"
         d="m 234.2087,-3567.0068 c -0.8184,0 -1.486,0.6667 -1.486,1.4852 0,0.8166 0.6676,1.4852 1.486,1.4852 0.8184,0 1.486,-0.6668 1.486,-1.4852 0,-0.8185 -0.6676,-1.4852 -1.486,-1.4852" />
      <path
         style="fill:#ffffff;fill-rule:evenodd;stroke:none"
         id="path4103"
         d="m 238.3669,-3562.8379 c -0.8184,0 -1.486,0.6668 -1.486,1.4852 0,0.8176 0.6676,1.4843 1.486,1.4843 0.8184,0 1.486,-0.6667 1.486,-1.4843 0,-0.8167 -0.6676,-1.4852 -1.486,-1.4852" />
      <path
         style="fill:#ffffff;fill-rule:evenodd;stroke:none"
         id="path4105"
         d="m 230.2534,-3562.8255 c -0.8176,0 -1.4861,0.6667 -1.4861,1.4825 0,0.8185 0.6676,1.4852 1.4861,1.4852 0.8184,0 1.486,-0.6667 1.486,-1.4852 0,-0.8158 -0.6676,-1.4825 -1.486,-1.4825" />
      <path
         style="fill:#ffffff;fill-rule:evenodd;stroke:none"
         id="path4107"
         d="m 230.2366,-3571.0082 c -0.8184,0 -1.486,0.6667 -1.486,1.4852 0,0.8167 0.6676,1.4852 1.486,1.4852 0.8184,0 1.486,-0.6668 1.486,-1.4852 0,-0.8185 -0.6676,-1.4852 -1.486,-1.4852" />
    </g>
  </g>
  <g
     id="g4109"
     transform="matrix(5.9417598,0,0,6.6972652,-1224.1434,24130.494)">
    <path
       style="fill:#000099;fill-rule:evenodd;stroke:#000000;stroke-width:0.48780808;stroke-miterlimit:4;stroke-opacity:1;stroke-dasharray:none"
       id="path4111"
       d="m 226.6234,-3562.852 0,0.01 c 0,2.2119 0.8493,4.2272 2.2119,5.6894 1.3651,1.4667 3.2454,2.3777 5.302,2.3777 2.0672,0 3.9439,-0.9048 5.3029,-2.3653 1.3581,-1.4588 2.2021,-3.4722 2.2021,-5.693 l 0,0 0,-10.7676 -14.9915,-0.012 -0.0274,10.7659" />
    <g
       id="g4113">
      <path
         style="fill:#ffffff;fill-rule:evenodd;stroke:none"
         id="path4115"
         d="m 238.3757,-3571.0012 c -0.8184,0 -1.486,0.6668 -1.486,1.4852 0,0.8176 0.6676,1.4843 1.486,1.4843 0.8184,0 1.486,-0.6667 1.486,-1.4843 0,-0.8167 -0.6676,-1.4852 -1.486,-1.4852" />
      <path
         style="fill:#ffffff;fill-rule:evenodd;stroke:none"
         id="path4117"
         d="m 234.2087,-3567.0068 c -0.8184,0 -1.486,0.6667 -1.486,1.4852 0,0.8166 0.6676,1.4852 1.486,1.4852 0.8184,0 1.486,-0.6668 1.486,-1.4852 0,-0.8185 -0.6676,-1.4852 -1.486,-1.4852" />
      <path
         style="fill:#ffffff;fill-rule:evenodd;stroke:none"
         id="path4119"
         d="m 238.3669,-3562.8379 c -0.8184,0 -1.486,0.6668 -1.486,1.4852 0,0.8176 0.6676,1.4843 1.486,1.4843 0.8184,0 1.486,-0.6667 1.486,-1.4843 0,-0.8167 -0.6676,-1.4852 -1.486,-1.4852" />
      <path
         style="fill:#ffffff;fill-rule:evenodd;stroke:none"
         id="path4121"
         d="m 230.2534,-3562.8255 c -0.8176,0 -1.4861,0.6667 -1.4861,1.4825 0,0.8185 0.6676,1.4852 1.4861,1.4852 0.8184,0 1.486,-0.6667 1.486,-1.4852 0,-0.8158 -0.6676,-1.4825 -1.486,-1.4825" />
      <path
         style="fill:#ffffff;fill-rule:evenodd;stroke:none"
         id="path4123"
         d="m 230.2366,-3571.0082 c -0.8184,0 -1.486,0.6667 -1.486,1.4852 0,0.8167 0.6676,1.4852 1.486,1.4852 0.8184,0 1.486,-0.6668 1.486,-1.4852 0,-0.8185 -0.6676,-1.4852 -1.486,-1.4852" />
    </g>
  </g>
  <g
     id="g4125"
     transform="matrix(5.9417598,0,0,6.6972652,-1121.365,24130.494)">
    <path
       style="fill:#000099;fill-rule:evenodd;stroke:#000000;stroke-width:0.48780808;stroke-miterlimit:4;stroke-opacity:1;stroke-dasharray:none"
       id="path4127"
       d="m 226.6234,-3562.852 0,0.01 c 0,2.2119 0.8493,4.2272 2.2119,5.6894 1.3651,1.4667 3.2454,2.3777 5.302,2.3777 2.0672,0 3.9439,-0.9048 5.3029,-2.3653 1.3581,-1.4588 2.2021,-3.4722 2.2021,-5.693 l 0,0 0,-10.7676 -14.9915,-0.012 -0.0274,10.7659" />
    <g
       id="g4129">
      <path
         style="fill:#ffffff;fill-rule:evenodd;stroke:none"
         id="path4131"
         d="m 238.3757,-3571.0012 c -0.8184,0 -1.486,0.6668 -1.486,1.4852 0,0.8176 0.6676,1.4843 1.486,1.4843 0.8184,0 1.486,-0.6667 1.486,-1.4843 0,-0.8167 -0.6676,-1.4852 -1.486,-1.4852" />
      <path
         style="fill:#ffffff;fill-rule:evenodd;stroke:none"
         id="path4133"
         d="m 234.2087,-3567.0068 c -0.8184,0 -1.486,0.6667 -1.486,1.4852 0,0.8166 0.6676,1.4852 1.486,1.4852 0.8184,0 1.486,-0.6668 1.486,-1.4852 0,-0.8185 -0.6676,-1.4852 -1.486,-1.4852" />
      <path
         style="fill:#ffffff;fill-rule:evenodd;stroke:none"
         id="path4135"
         d="m 238.3669,-3562.8379 c -0.8184,0 -1.486,0.6668 -1.486,1.4852 0,0.8176 0.6676,1.4843 1.486,1.4843 0.8184,0 1.486,-0.6667 1.486,-1.4843 0,-0.8167 -0.6676,-1.4852 -1.486,-1.4852" />
      <path
         style="fill:#ffffff;fill-rule:evenodd;stroke:none"
         id="path4137"
         d="m 230.2534,-3562.8255 c -0.8176,0 -1.4861,0.6667 -1.4861,1.4825 0,0.8185 0.6676,1.4852 1.4861,1.4852 0.8184,0 1.486,-0.6667 1.486,-1.4852 0,-0.8158 -0.6676,-1.4825 -1.486,-1.4825" />
      <path
         style="fill:#ffffff;fill-rule:evenodd;stroke:none"
         id="path4139"
         d="m 230.2366,-3571.0082 c -0.8184,0 -1.486,0.6667 -1.486,1.4852 0,0.8167 0.6676,1.4852 1.486,1.4852 0.8184,0 1.486,-0.6668 1.486,-1.4852 0,-0.8185 -0.6676,-1.4852 -1.486,-1.4852" />
    </g>
  </g>
  <g
     id="g4141"
     transform="matrix(5.9417598,0,0,6.6972652,-1224.1434,24281.118)">
    <path
       style="fill:#000099;fill-rule:evenodd;stroke:#000000;stroke-width:0.48780808;stroke-miterlimit:4;stroke-opacity:1;stroke-dasharray:none"
       id="path4143"
       d="m 226.6234,-3562.852 0,0.01 c 0,2.2119 0.8493,4.2272 2.2119,5.6894 1.3651,1.4667 3.2454,2.3777 5.302,2.3777 2.0672,0 3.9439,-0.9048 5.3029,-2.3653 1.3581,-1.4588 2.2021,-3.4722 2.2021,-5.693 l 0,0 0,-10.7676 -14.9915,-0.012 -0.0274,10.7659" />
    <g
       id="g4145">
      <path
         style="fill:#ffffff;fill-rule:evenodd;stroke:none"
         id="path4147"
         d="m 238.3757,-3571.0012 c -0.8184,0 -1.486,0.6668 -1.486,1.4852 0,0.8176 0.6676,1.4843 1.486,1.4843 0.8184,0 1.486,-0.6667 1.486,-1.4843 0,-0.8167 -0.6676,-1.4852 -1.486,-1.4852" />
      <path
         style="fill:#ffffff;fill-rule:evenodd;stroke:none"
         id="path4149"
         d="m 234.2087,-3567.0068 c -0.8184,0 -1.486,0.6667 -1.486,1.4852 0,0.8166 0.6676,1.4852 1.486,1.4852 0.8184,0 1.486,-0.6668 1.486,-1.4852 0,-0.8185 -0.6676,-1.4852 -1.486,-1.4852" />
      <path
         style="fill:#ffffff;fill-rule:evenodd;stroke:none"
         id="path4151"
         d="m 238.3669,-3562.8379 c -0.8184,0 -1.486,0.6668 -1.486,1.4852 0,0.8176 0.6676,1.4843 1.486,1.4843 0.8184,0 1.486,-0.6667 1.486,-1.4843 0,-0.8167 -0.6676,-1.4852 -1.486,-1.4852" />
      <path
         style="fill:#ffffff;fill-rule:evenodd;stroke:none"
         id="path4153"
         d="m 230.2534,-3562.8255 c -0.8176,0 -1.4861,0.6667 -1.4861,1.4825 0,0.8185 0.6676,1.4852 1.4861,1.4852 0.8184,0 1.486,-0.6667 1.486,-1.4852 0,-0.8158 -0.6676,-1.4825 -1.486,-1.4825" />
      <path
         style="fill:#ffffff;fill-rule:evenodd;stroke:none"
         id="path4155"
         d="m 230.2366,-3571.0082 c -0.8184,0 -1.486,0.6667 -1.486,1.4852 0,0.8167 0.6676,1.4852 1.486,1.4852 0.8184,0 1.486,-0.6668 1.486,-1.4852 0,-0.8185 -0.6676,-1.4852 -1.486,-1.4852" />
    </g>
  </g>
  <g
     transform="matrix(5.9417598,0,0,6.6972652,-888.29164,24144.874)"
     id="g3158">
    <path
       d="m 226.6234,-3562.852 0,0.01 c 0,2.2119 0.8493,4.2272 2.2119,5.6894 1.3651,1.4667 3.2454,2.3777 5.302,2.3777 2.0672,0 3.9439,-0.9048 5.3029,-2.3653 1.3581,-1.4588 2.2021,-3.4722 2.2021,-5.693 l 0,0 0,-10.7676 -14.9915,-0.012 -0.0274,10.7659"
       id="path3160"
       style="fill:#000099;fill-rule:evenodd;stroke:#000000;stroke-width:0.48780808;stroke-miterlimit:4;stroke-opacity:1;stroke-dasharray:none" />
    <g
       id="g3162">
      <path
         d="m 238.3757,-3571.0012 c -0.8184,0 -1.486,0.6668 -1.486,1.4852 0,0.8176 0.6676,1.4843 1.486,1.4843 0.8184,0 1.486,-0.6667 1.486,-1.4843 0,-0.8167 -0.6676,-1.4852 -1.486,-1.4852"
         id="path3164"
         style="fill:#ffffff;fill-rule:evenodd;stroke:none" />
      <path
         d="m 234.2087,-3567.0068 c -0.8184,0 -1.486,0.6667 -1.486,1.4852 0,0.8166 0.6676,1.4852 1.486,1.4852 0.8184,0 1.486,-0.6668 1.486,-1.4852 0,-0.8185 -0.6676,-1.4852 -1.486,-1.4852"
         id="path3166"
         style="fill:#ffffff;fill-rule:evenodd;stroke:none" />
      <path
         d="m 238.3669,-3562.8379 c -0.8184,0 -1.486,0.6668 -1.486,1.4852 0,0.8176 0.6676,1.4843 1.486,1.4843 0.8184,0 1.486,-0.6667 1.486,-1.4843 0,-0.8167 -0.6676,-1.4852 -1.486,-1.4852"
         id="path3168"
         style="fill:#ffffff;fill-rule:evenodd;stroke:none" />
      <path
         d="m 230.2534,-3562.8255 c -0.8176,0 -1.4861,0.6667 -1.4861,1.4825 0,0.8185 0.6676,1.4852 1.4861,1.4852 0.8184,0 1.486,-0.6667 1.486,-1.4852 0,-0.8158 -0.6676,-1.4825 -1.486,-1.4825"
         id="path3170"
         style="fill:#ffffff;fill-rule:evenodd;stroke:none" />
      <path
         d="m 230.2366,-3571.0082 c -0.8184,0 -1.486,0.6667 -1.486,1.4852 0,0.8167 0.6676,1.4852 1.486,1.4852 0.8184,0 1.486,-0.6668 1.486,-1.4852 0,-0.8185 -0.6676,-1.4852 -1.486,-1.4852"
         id="path3172"
         style="fill:#ffffff;fill-rule:evenodd;stroke:none" />
    </g>
  </g>
</svg>
