<svg height="309.158969" viewBox="0 0 185.20833 176.97978" width="323.458188" xmlns="http://www.w3.org/2000/svg"><g transform="matrix(.26458333 0 0 .26458333 -13.17625 -17.356666)"><g clip-rule="evenodd" fill-rule="evenodd"><path d="m421 65.6c-89.1 17.4-180.7 55.8-251.8 112.7 0 0-7.5 235.9 5.2 273.5 0 0 47.7 236.2 245 282.7h.5c197.2-46.5 245.2-281.6 245.2-281.6 11.7-41.7 4.9-274.6 4.9-274.6-104.4-82.2-249-112.2-249-112.7zm-.1 10.7c0 .5 139.5 29.6 240.2 109.1 0 0 6.6 225.4-4.7 265.8 0 0-46.3 227.5-236.6 272.5h-.4c-190.3-45-236.3-273.6-236.3-273.6-12.2-36.4-5-264.7-5-264.7 68.5-55.1 156.9-92.3 242.8-109.1z" fill="#fbc600"/><path d="m420.9 76.2c-86 16.8-174.4 54-242.9 109.1 0 0-7.2 228.3 5 264.7 0 0 46 228.6 236.4 273.6h.4c190.3-45 236.6-272.5 236.6-272.5 11.3-40.4 4.7-265.8 4.7-265.8-100.7-79.5-240.2-108.5-240.2-109.1z"/><path d="m420.9 86.7c0 .5 134.6 28.6 231.7 105.6 0 0 6.4 218.2-4.5 257.3 0 0-44.7 220.2-228.2 263.7h-.4c-183.6-43.6-228-264.8-228-264.8-11.7-35.2-4.8-256.2-4.8-256.2 66-53.4 151.2-89.4 234.2-105.6z" fill="#fff"/><path d="m420.8 92.1c-80.9 16-164 51.4-228.5 103.8 0 0-6.8 217.1 4.7 251.8 0 0 9.6 48.3 38.5 103.8-5.4 1.8-26.4 8.4-38.9 6.2 0 0 6.3 20.3-6.6 63.8l39.4-13.8s-16.7 29.3 9.7 29c0 0 14.6 1.6 54.3-2.7 31.6 33.2 72.8 61.3 126 74h.4c58.7-14 102.8-46.7 135.6-84.3 2.6.7 44.9 12.5 56.7 17.6 0 0 7.2-22.1 32.9-35.4 0 0-26.7-9.4-33.7-12.4 0 0 33.3-32.5 23.9-36.2 0 0-12.1-10.5-25.7-16.5 24.5-50.3 32.9-92 32.9-92 10.6-38.4 4.4-252.8 4.4-252.8-94.7-75.8-226-103.4-226-103.9z" fill="#d50e19"/><path d="m235.2 592.6s.3-24.7 13.1-29.3l24-10.8c7.6-3.4-12.9-3.7-32.1 4.3-6.1 2.5-27.9 10.8-33.2 9.7 0 0-3 33.9-5.8 45 6.9-4.1 33.5-9.7 34-18.9z" fill="#fbc600"/><path d="m267.4 573.9-20 .1s-4.7-6.3 21.7-13.3c3.9-1 1.7 13.5-1.7 13.2z" fill="#fbc600"/><path d="m330.9 560.3 11-16.1 11.8 10.2-13.3 4.4-.9 1.8z" fill="#fbc600"/><path d="m556.6 600.8s28.7.3 31.2-6.5c0 0 1.9-5.8-17.1-4.1z" fill="#fbc600"/><path d="m604.2 599.5c.4.1-15.2 8.5-32.8 8.8-9.9.2-23.4.4-23.1 2.3.1.7 1 1.7 5.2 3.3l53.3 14.8s8.5-15.3 21.4-19.9z" fill="#fbc600"/><path d="m521.8 587.4c8 57.9-38 109.4-95.7 112.2-49.1 2.3-91.5-29.9-102.6-74.8 1.3-.5 3-1.2 5-2 10.2 42.5 50.5 73.8 96.9 71 53.1-3.2 97.5-52.4 91.1-106.6 2.1.2 3.2-.1 5.3.2zm-71.8 33.2c-.3 4.3 1 8.3 3.3 11.6-4-1.8-8.8-2.2-13.6-.9l-29.1 8c-3.4.9-6.4 3.2-8.7 6.2 1-5-.2-10.3-3.5-15l-16.6-23.9-39.7 13.4c-.5 2.8-1.1 8.4-.8 11.5-2.7-2.7-8.2-10.1-10.2-8.7-2.3 1.2 3.2 14.2 8.9 24.4 5.7 10.1 22 27.3 23.3 25.5 1-.9-2.2-8.8-4.2-13.7 8.6 4.5 18.6 5.7 27.1 2.7 5-1.8 8.8-4.4 11.4-7.4-1.5 5.3-1.5 11 .6 15.5 4 8.7 11.2 14.7 20.7 17-3.4 1.7-9.5 4.7-9 5.5.5 1.1 14.4 1.8 25.9-.2s31.8-10.7 31.8-13.5c-.3-1.7-9-.9-14.3-.6 7.1-6.6 11.6-15.7 11.6-24.6 0-5.8-1.4-10.6-3.8-14.3 4.5 2.4 9.8 3.4 15 2.5 12.8-2.3 17.9-8.5 23.1-16.7.7 5.3 2.4 13.1 4.4 13.4 8.8-4.1 13.4-39.1 11.1-51l-8.1-.3c-3.1 1.6-3.9 7.3-4.8 10.4-1.3-2.8-1.9-7.4-3.8-9.6l-45.8 3.4z" fill="#fbc600"/><path d="m377 542.7c-.1-1.7 20.3-25.2 63-40.2 0 0 20.1 7.7 33.1 22.1-14.8-.5-96 19.8-96.1 18.1z" fill="#fbc600"/><path d="m496.9 525.3s-26.1-19.6-37.6-21c0 0 5.5-4.5 43.7 18.8z" fill="#fbc600"/><path d="m233 619.1s-3.1 8.4 5.8 8.9c34.6 3.7 70.6-6.1 107.3-16.5 36-10.2 73.4-25 110.8-27.9 29.3-2.3 118.9-12.2 138.4 7.4 0 0 2.8 3.1 7.1-.7l21.8-23.1s8-8.4-2.9-15.3c0 0-32.8-22.8-103.4-23.2 0 0-68.2-1.4-170.9 35.6 0 0-51.6 19.2-103.1 17.3z" fill="#fbc600"/><path d="m353.3 516.5s-23.1 15.2-30.3 15.7c0 0 10-14.3 1.9-11.7 0 0-7 4.5-2.6-2.4 0 0 6.2-10.4-1.6-8.7l-11.7 14.3-15.7-.4-5.5 4.8-15 .5c-1.2 0-8.9 4.3-14.9 6.3-8.9 3-19.6 2.6-25.5 2.5l2.7-4.8-23.6-3.9 5.6-4.2.3-1.9s-20.3-2.5-22.5-5.7c0 0 41.8-21.4 63.5-37 0 0 39.5-25.3 42.4-33.4 0 0-1.3-1.6-21.5 5.9 0 0 .3-14.8-3.9-11.2l-19.9 10.3.6-14.7s.8-4.3-5.2 0l-17.9 10-1.4-11.6-22.1 9.4s-2.1-15.1-7.4-10.8l-37.1 15.4 3.1-7.3s2.3-4.7-4-1.6l-32.8 14.8-.4-9.7s-26.5 10.8-41.9 10.2c0 0 3.2-9.2-1-7.7 0 0-23.1 4.4-38.2 2.6 0 0 98-76 100.4-78.4 3.7-3.7-7.3-4.7-6.8-11.2 0 0 18.6-3.9 29.2-11 0 0 53-31.3 81.1-43.5 0 0 44.3-23.4 71.9-21.9 0 0 35-4 32.9 27.7 0 0-2.5 45.3 41.1 35.9 0 0 50-10.1 78.9-40.2 0 0 19.7-23 42.1-41.6 17.9-14.9 34.7-25.7 58.2-23.8 43.6 3.6 70.9 41.3 112.6 51.3 0 0-2.1 4.4-4.3 8 0 0 25.9 21.4 39.9 26.2 0 0 19 7.8 22.8 7.8 0 0-10.8 8.6-29.7 13.4 0 0 7.7 2.8-.5 6.8 0 0-11.8 6.7-35.1 0 0 0-2-.7.3 2.6 0 0 5.1 3.9 1.1 4.3 0 0-18.4 3-36.8-5.8 0 0-14.9-8.9-19.2-14.6 0 0-3.4-4.5-3.4 2.1 0 0-4.1 24.2-7.7 27.7 0 0-6.4-1.9-10.2-7.8l-7.6 15.9-9.7-6.3s-2.7-2.1-4.1 3.4c0 0-3.9 12-7.9 15.4 0 0-8.6-7.2-9.5-6 0 0-8.7 21.3-13 24.2l-8.1-8.3s-2.6-2.9-4.7 1.8c0 0-11.2 18.1-13.1 19.3l-6.2-9.3s-1.9-3.3-3.9 1.1c0 0-13.7 18.4-15.4 18.4 0 0-4.8-7-9.2-1.5 0 0-13.1 11-15.1 11 0 0-1.7-5.7-2.4-8 0 0-.8-2.9-7.1 2.1l-13.5 8.5-1-8-21.8 10.5-.3-5s-25.2 16.5-32.4 19.9c0 0-3.3 7.2 8.2 17.2 0 0-5 4.8-.9 7.6 6.2 6.1 13.9 6.3 21.7 6.1 6.8-.2 17.9.5 21.8 5.8 6.8 9.1-3.6 19.6-12.9 19.7 0 0-1.3 9.2-14.7 12 0 0 1.9-11.3-3.2-12.2-1.6.1-8.4 17.4-16 16.7-1.2-2.6-5.9-12.7-12.3-9.6-1.9.9 7.6 19.2-10.9 22-.3-9.1-1.8-12.6-9.5-11.9l-7.6-8.3-22.7 2.9s-2.4.2.4-2.5l13.5-12.4z"/><path d="m217.2 514.5c2.2-3.1 54.8-38.8 77-47.7 0 0-50.8 40.3-60.3 45.1-3.5 2.3-18.9 5.7-16.7 2.6z" fill="#fbc600"/><path d="m228.6 524.6c-.4-2.8 61.9-52.4 86.3-62.2 0 0-43.9 46.4-71.5 63-1.8 1.4-14.4 2-14.8-.8z" fill="#fbc600"/><path d="m253.8 525.7c7.3-6.7 42.2-42.8 66.3-54.5 0 0-11.4 20-54.7 56.5-2.7 2.2-15.7 1.8-11.6-2z" fill="#fbc600"/><path d="m289.6 510.8c10.6-9.4 27.6-24.6 28.9-22.8 1.1 1.5-10.2 13.4-20.2 23.1-1.2 1.2-15.9 18-18.7 10.9-1.4-3.4 8.2-9.6 10-11.2z" fill="#fbc600"/><path d="m323.7 495c2.5.5-11.8 18.3-14.3 20.5-4.8 4.3-8.5 4.4-9.1 2.8-.6-1.7 2-4 5.4-7.4 6.6-6.6 16.3-16.3 18-15.9z" fill="#fbc600"/><path d="m411.4 450.8s-15.8 13.6-37.3 22.5c0 0-5.7 2.9-2.3-4.2 0 0 6.8-10.3 1-5.5 0 0-13.6 11.8-11.3 21.1 0 0 7 12.3-.9 19.2 0 0-13.3 14.2-23.3 17.3 0 0-4.5 1.7-.4-4.2 0 0 7.5-11.5 3.2-8.9l-6.8 4.3s-4.5 3.3-2.8-3c0 0 7.7-13.3 3.7-11.2 0 0-7.1 5.4-4.4-1.3l8.4-17.3s2.6-6.1-1.6-2.8c0 0-5.5 4.3-8.6 6 0 0-3.5 1.5-.8-3.6 0 0 16-29.9 33.4-40.9 0 0 27.3-19.1 30-22.4 0 0 1.3-1.9-2.2 0 0 0-6.9 2.8-8.6-2 0 0-1.7-11.4 14-12.4 0 0-.3-5.7 3-9.5h-11.8s-1.7 13.1-23.3 11.3c0 0-4.8-9.9 10.2-15.2 0 0 3.5-.9 7.3-.5 0 0 4.9-7.2 6.4-8.4l-11.1-.1s-3.1.1-2.7-5.8l.1-6.5s-10.6 3.6-14.3-1c0 0-2.6-1.4-.4-10.6 0 0-9.7 3.2-19.1 2.7 0 0-13.3 15.8-20.8 17.2 0 0-8 2.3-7.1-3.2 0 0-1-5 7.4-10.9 0 0 8.2-8.1 16.2-6.8l8.2-10.9s1.1-1.7-2.9.1c0 0-8.3 2.6-15.4 2.5 0 0-.1 5.9-6.6 10.3-4.7 3.3-26.6 22.8-33.4 14.8 0 0-3.8-5.1 6.3-11.5 0 0 11.6-10.5 21.5-14.7 2.9-1.2 6.5-.7 8.6-3 .7-.8 1.5-2.1 1.5-3.7 0 0 .6-7.1 3.2-9.1 0 0 1.5-1.6-1.5-.5 0 0-9.5 5.1-14.8 5 0 0 .5 5.7-4.5 9.1 0 0-35.3 30.4-43.8 24.1 0 0-4.3-5 9.4-14.4 0 0 17.1-17.8 31.9-19.4 0 0 .5-10.7 3.7-12.8 0 0 2-1.6-2.2-.4 0 0-5.3 1.8-12.3 1.5 0 0 3.9 11.8-21.7 27.1 0 0-31.9 25-37.6 17.9 0 0-4.8-6.6 16.4-19.9 0 0 22.7-16.4 29.1-19.4 0 0 1.4-5.3 2.9-6.9 0 0 2.7-2.9-1-1.9 0 0-7.5 3.5-11.7 4.6 0 0-3.4 2.5-3.1 5.6 0 0-9.3 11.4-21.5 17.3 0 0-29.2 25.9-41.1 17.8 0 0-7.5-7.7 23.2-19.4 0 0 23.3-11.8 28.3-15.8 0 0 5.3-2.9 1.3-2.1 0 0-9.4 1.4-12.5.7 0 0-2.6 9.1-32.1 20.7 0 0-23.6 12.1-40.9 14.6 0 0-4.8.7-.9-2.3 0 0 26.7-17 53.6-30.2 0 0 46.8-25.8 82.5-35 0 0 31-8.2 41.7 2.1 0 0 6.3 2 7.3 24.6 0 0 2.7 45 53.4 32.3l-4.5 6.4 9-.4-9.2 9h8.6l-9.2 10.5 9.8 1.9-7.3 8.4 11.6-1.3-7.1 10.5h7.1l-7.1 8.8h6l-4.7 6.7 5.6.2-4.3 6.2 8.3.2-8.8 11.7 6.8-1s.2 3.6-9.1 10.9c0 0 3.7.8 6.5-1 0 0-1.3 3.7-8.7 8.7z" fill="#fbc600"/><path d="m363.3 508.7s-8.4 6.1 1.2 4.5c0 0 3.7-.2 1.9 1.6 0 0-5.5 3-.6 2.2 0 0 3 .9-3.6 3.7 0 0-10.9 4.2-13.2 8.3 0 0 13.8-.1 21.5-5.7l.4 5.8s6.8-3 6.5.2c0 0-.6 6.4 8.2 1.8 0 0 6.4-3.7-.9-7.3 0 0-12-2.5-5.9-3.4 0 0 3.9.9 8.6-3.4 0 0 1.2-1.7 1.3.9 0 0 2.9 4.4 7.8-2.1 0 0 1.9-2.5 2.3.4 0 0-.9 4.5 4 .9 0 0 7.5-3.6 6.4-6.3-2-5-29 5-34.2 4.4-3.4-.5-6.5-10-11.7-6.5z" fill="#fbc600"/><path d="m429.8 517 .4 10.8s5.8-1.2 6.3-13.2z" fill="#d3b467"/><path d="m446.2 506 .4 10.1s4.8-.6 6.2-8.9c.5-3.2 1-5.3-2.2-3.5z" fill="#d3b467"/><path d="m387.1 532.2c4.1-1.5 5.2 2.2 4.4 6-.7 3.6-3.1 7.2-4.5 6.5-.5-.3 2-3.4-1.2-6.5-3.1-3.2-.5-5.3 1.3-6z" fill="#fbc600"/><path d="m411.7 514.3c4.8-1.2 5.5 3.2 4.2 7.3-1.3 4-4.5 7.6-6 6.6-.6-.4 2.7-3.5-.4-7.5-3.1-3.9.1-5.8 2.2-6.4z" fill="#fbc600"/><g fill="#d3b467"><path d="m372.3 491.6c2.9 2.3 11.1-10.3 11.9-9.4 1.2 1.2-2 5.7-2.6 6.8-2.4 4-5.5 10.2-.1 7.7 0 0 14.8-6.7 18.8-10.5 0 0 3.8-3 .3-9.4 0 0-3.7-5.5-3.5-8.4-1.4.9-11.1 4.1-16 7.4-3.7 2.5-13.8 12-8.8 15.8z"/><path d="m417.5 506.5c-.5.1 18.3-.8 12.5 7.1-1.2 1.7-3.9 4.7-9.6.1-1.9-1.6-1.5-4.6-3.3-5.6-.8-.4-2.4-.9-5.4-.9l-10.1-.2s-4.3-1 2.1-3.4c0 0 5.7-1.5 5.2-2.9-.7-1.7-7.1.4-4.1-2.4 0 0 3.7-2.3.7-3-9.9-1-1.9-9.5 1.9-5.8 0 0 7 7.4 10.7 8.1 0 0 12.8.6 18.5 0 2.2-.3 14.6.1 9.7 4.7-2.5 2.3-8.6 6.7-7.8 1.7.2-1.3.4-3.1-1.4-2.1 0 0-9.2 8-8.9 1.4-.2-.9-9 2.8-10.7 3.2z"/><path d="m161 372.7c-29.4 24.9-59.3 47.5-88.4 70.3 0 0-5.1 3.2 3.3 2.2 0 0 15.6 1 41.2-19 0 0 50.2-39.1 61.8-55.2 4.2-5.2-13.3-2.1-17.9 1.7z"/><path d="m192.2 371.5s2.3-10.9-2.2-5.9c0 0-17.5 22.9-23.8 27.7l-59.8 47.7c-10.7 8.5-9 8.5-4.1 7.3 0 0 17.7-3 24.3-7.7 0 0 28.9-21.5 35.1-27.8 0 0 10.8-10 18.4-15.2 0 0 21.2-16.2 22.1-25.9z"/><path d="m304.9 381.8s1.2-10.3-2.8-4.9c0 0-13.5 22.9-19.4 28.3l-17.7 21.1c-5.8 7-2.8 14.4-1.4 14.6 2.2.3 11.4-6.4 18.9-14.3 4.3-4.5 13.6-15.5 21.9-25.5 6.9-8.3 13.3-15.6 13.3-19.7z"/><path d="m210.3 371.5c-1.8 3.8-8.4 16.3-26.9 31.2 0 0-25 18.5-34.9 28.4 0 0-16.9 17.9-4.7 13 0 0 24.8-10.5 44.8-30.8 0 0 30.3-26.7 36-33.2 2-2.3 1.7-11.7-1.4-12.3-2.6-.5-11.6.9-12.9 3.7z"/><path d="m252 366.4c8.6 3.9-33.2 48.1-38 52-4.9 3.9-32.2 18.8-36.7 17.3s20.4-24.4 29.4-32.7c14.2-13.3 38.1-39.9 45.3-36.6z"/><path d="m276.4 369s-13.4-.7-21.1 8.9c0 0-28.2 31.8-36.8 44.2 0 0-8.9 13.8-.9 11.2 0 0 8-1.7 16.6-10.5l42.1-46.6z"/><path d="m283.2 377.2s-29.8 33-34.7 38.3c0 0-9.1 6.9-9.9 14.3 0 0-2.6 7.7 3.1 5.2 0 0 11.3-2.4 28.8-22.5 0 0 19-22 19.9-24.9 0 0 4.1-8.2 3.4-10.1z"/><path d="m325.2 383.2s-35 42.3-36.1 43.5c0 0-7 6.3-2.9 15.5 0 0 1.3 4 12.5-4.8 0 0 29.2-23.2 40.3-53.8z"/><path d="m351.4 394.1c7.9 1.3-2 15.3-14 26-11 9.8-23.9 17.3-28.2 16.2-1.7-.4 6.1-8.8 14.3-18.4 7.4-8.5 14.9-25.8 27.9-23.8z"/><path d="m358.2 408.5c4 1.1-3.1 13.1-11.5 20.6-7.7 6.9-14.1 11.7-28.1 14.1-1.2.2 12.9-10.5 18.7-17.2 5.2-6.1 14.8-19.2 20.9-17.5z"/><path d="m340.8 442.6s15.4-4.7 23.8-11.4c0 0 9.8-19.7 8.4-23.1-1.5-3.6-33.1 34.4-32.2 34.5z"/></g><path d="m435.7 343.4s9.9-6.9 40.1-16.6c0 0 38.7-18 50.5-12.3 0 0 1.9 1.3-1.5 2.5 0 0-10.3 3-13.4 9.8 0 0-1.1 2.5-.5 2.6 1.7.4 2.4-4.1 5.4-3.6 3.1.4 3.2 4.5 7.5 2.8 4.5-1.8 4.4-9.3 8.1-9.8 4.6-.7-.3 13.4 5.4 3.6 0 0 4.2-9.4 16.1-9 0 0 13.4-.3 11.3 17.8 0 0-5.9-9.2-15.4-3.6 0 0-7.9 4-14.5 6.6 0 0-6.1 2.1-8.2 7.3 0 0-2.8 4.6 3.6.1 0 0 16.5-9 27.2-5.7 0 0 3.3 1.7-.8 3.4 0 0-30.2 8.8-48.9 26.3 0 0-18 17-32.1 35.7 0 0-16.7 20.1-13.6 7.8 0 0 6.7-18.3 2.3-11.6 0 0-10.8 9.9-14.7 14.6 0 0-1.3-7.9 1.1-13.6 0 0 2.1-5.7-1-1.1 0 0-6.6 7.3-13.6 6 0 0 5.8-10 7.7-13.2 0 0 2.5-4.2-2.9-.9 0 0-9 4.8-13.5 2.2 0 0 6.6-10.5 12.7-16.7 0 0 1.6-2.1.8-2.2-2.6-.4-12.4 8.1-18.1 7.3 0 0 4.2-6.6 12.4-12.5.4-.3 6.3-4.6 2.5-3.1-.1 0-9.7 3.8-12.6 1.4 0 0-.4-3.6 13.2-9.6.2.1 3.1-1.5.2-1.4 0 0-9.3.1-12.4.5 0 0 3.4-5.4 12.5-10.5 2.6-.9-2.1-1.2-2.9-1.3zm19.3 53.2c.7.6 4.3-2.5 7.5-5.4 2.5-2.2 5-4 4-4.9-2.3-2-7.2 1.8-9.1 3.7-3 2.9-3.1 6-2.4 6.6zm20.2-12.6c1.2 1.1 17.3-8.6 13.4-11.3-2.5-1.7-6.7 2.1-8.6 3.9-3 2.9-5.5 6.7-4.8 7.4zm-.6-11.3c-2.1-2.2-7.7.5-10 2.4-3.2 2.8-8.7 8.2-8 8.8 1.2 1.2 19.6-9.6 18-11.2zm3.8 14.7c-4.3 5.3-8.5 12.5-6.9 12.1 1.8-.4 7.2-5.8 11.6-10.6 2.7-2.8-3.7-2.8-4.7-1.5zm-29.1-12.4-8.8 8.3s-.1 1.4 4.5-1.2c0 0 7.3-4.4 10.1-6.7z" fill="#fff"/><path d="m491.4 401.1s-9.1 33.4-26.4 35.5c0 0-4.4-1.4 6.7-16.3 0 0 3.9-4.8-.6-1.4 0 0-15.5 17.8-23.7 17.4l30-30.9s45.4-59.2 86.7-62.7l.9-8.6 4 .6s4.8-19.1-6.1-24.5c0 0-6.8-5.3-26.2 1.6 0 0-8.8-9.5-35.3.3 0 0-25 9.6-27.6 9.6 0 0 35.7-34.5 39.9-38.7 0 0 32.5-43 68.9-32.4 0 0 32.7 7.2 20.4 15.9 0 0-24.4 9.6-53 9.9 0 0 4.4 9-19.1 7.6 0 0-5.9-1.2-1.1 3.1 0 0 9.8 5.9-5.3 10.8 0 0-17.7 4.8-19.8 4.8 0 0 28.8 2.9 36.4-7.5 0 0 2.4-1.8-2.7-5.9 0 0-4-2 3.7-1.8 0 0 28.2.7 23.3-7.6 0 0 28 2.2 30.8-.6 0 0-2-3.5.8-4.9 0 0 12.4-10.8 21-7.7 0 0 5.9.9 22.1 13.3 0 0 28.1 17.2 38.2 18.3 0 0-6.8 8.2-33.3-1.1 0 0-24.1-10.9-34.8-23.5l-6.3 5.2s20.2 8.2 23.5 18.1c0 0-8.4 2.1-16.3-3.7 0 0-14.8-8.3-17-10.2 0 0-7 .9-9.4 4.3 0 0 14.8 1.7 22.5 13.2 0 0-16.8 2.7-35.2-11.9 0 0-8 2-10 1.6-1.6-.3.1 2 3.1 2.1 0 0 19.1 2.3 20.8 15.6-8.6 3-19.4-6.2-24.8-9.5-2.8-1.7-5.6-1.5-2.7 2.3 0 0 17.6 19.4 38.4 13.3l-3.6-7.3s27.6 2.6 29.8 1.8l-5-5.3 23.6-.1 71.2 48.1s-14.6 12.8-51.1-15.1c0 0-22.8-18-25.8-22.2l-2.4 7s42 30.2 42.5 36.9c0 0-18.7 5.6-44.8-20.2l-12-12.1-2.5 5.8s9.3 9.5-.3 29.8c0 0-6.8 3.6-5.9-14.7 0 0 .2-24.2-3.6-29.1l-5.4 5s11.8 29.9-2.7 50.9c0 0-10.8-1.3-7.8-30.9l2.3-14.1-7 5.3s2.5 37-7.4 50.6c0 0-12.7 4.6-2.3-43l-7.4 5.7s2.9 34-13.1 53.1c0 0-14.3-3.6 2.1-44.9l-7.6 4.2s-.6 39.3-18.3 54c0 0-10.5-6.3 6.1-42.8l-7.4 5s-12.4 46.3-23.3 48.7c0 0-8.1-4.7 10.3-38.7 0 0-6 .6-7.7 5.8 0 0-8.4 35.4-24 44.7 0 0-9.8-7.1 13.7-41zm169.3-92.2s23.1 21.8 48.6 28.7c7.6 2 14.2 1.6 21.9 1.3l-51.4-31.8z" fill="#fbc600"/><path d="m326.8 374.7s-6.1 7.4 15.5 2.9c0 0 8.2-1.5 7.4-14.6l-10.7.1z" fill="#fbc600"/><path d="m366.4 384.5s-4.6 5.2-20 4.1c0 0-1.9-17.9 18.1-15z" fill="#fbc600"/></g><g><path d="m324.7 599 3-1.1c.5 1.2 1.1 2.1 1.9 2.8.8.6 1.8 1 3 1.2 1.3.2 2.6.1 4-.3 1.2-.4 2.3-.9 3.2-1.5s1.4-1.4 1.7-2.1c.3-.8.3-1.6.1-2.3-.2-.8-.6-1.4-1.2-1.8-.6-.5-1.5-.7-2.6-.8-.7-.1-2.3-.1-4.7 0s-4.2 0-5.2-.2c-1.4-.3-2.5-.8-3.3-1.6s-1.4-1.7-1.7-2.8c-.4-1.2-.3-2.5.1-3.8s1.2-2.4 2.4-3.4c1.2-.9 2.6-1.7 4.3-2.1 1.8-.5 3.5-.7 5.1-.5s2.9.8 4 1.7 1.8 2.1 2.3 3.6l-3.1 1.1c-.6-1.5-1.5-2.5-2.7-3.1-1.2-.5-2.8-.5-4.7 0-2 .6-3.3 1.3-4 2.3s-.9 2-.6 3c.3.9.8 1.5 1.6 1.9s2.6.5 5.4.4c2.8-.2 4.8-.1 5.9 0 1.6.3 2.9.8 3.9 1.6s1.6 1.9 2 3.2.3 2.7-.1 4c-.4 1.4-1.3 2.6-2.5 3.6s-2.7 1.8-4.5 2.3c-2.2.6-4.2.8-5.9.6s-3.2-.9-4.4-1.9c-1.3-1-2.2-2.4-2.7-4z"/><path d="m351.6 599.9-7.2-24.7 3.3-1 7.2 24.7z"/><path d="m360.5 597.3-7.4-24.6 3.3-1 18.8 15.4-5.8-19.3 3.1-.9 7.4 24.6-3.3 1-18.8-15.5 5.9 19.3z"/><path d="m400.5 576.1 3.5-.1c.1 2.9-.6 5.3-2 7.2s-3.4 3.2-5.9 4c-2.7.8-5 .8-7 .2s-3.7-1.8-5.2-3.6-2.5-3.9-3.2-6.3c-.7-2.6-.9-5-.4-7.2.4-2.2 1.4-4.1 3-5.6 1.5-1.5 3.4-2.6 5.6-3.2 2.5-.7 4.7-.7 6.8.1 2 .8 3.7 2.2 5 4.3l-3 1.7c-1.1-1.6-2.3-2.7-3.6-3.2s-2.8-.5-4.5-.1c-1.9.5-3.4 1.4-4.4 2.7s-1.6 2.8-1.7 4.4c-.1 1.7.1 3.3.6 5 .6 2.1 1.4 3.9 2.5 5.2 1.1 1.4 2.3 2.3 3.9 2.7 1.5.4 3 .4 4.5 0 1.8-.5 3.2-1.5 4.2-2.9 1-1.3 1.4-3.1 1.3-5.3z"/><path d="m410.1 582.8-5.8-25 18.1-4.2.7 3-14.8 3.4 1.8 7.7 13.9-3.2.7 2.9-13.9 3.2 2 8.5 15.4-3.6.7 3z"/><path d="m471.2 570 .4 3-16.9 2c-.1-.8-.1-1.5.1-2.2.3-1.2.8-2.4 1.7-3.6.8-1.2 2-2.7 3.6-4.4 2.5-2.6 4.2-4.6 5-6.1.8-1.4 1.2-2.8 1-3.9-.1-1.2-.7-2.2-1.7-3-1-.7-2.2-1-3.6-.9-1.5.2-2.7.8-3.5 1.8s-1.1 2.3-.9 3.9h-3.3c-.1-2.4.6-4.4 1.8-5.8 1.3-1.4 3.2-2.3 5.6-2.6 2.5-.3 4.5.2 6.1 1.4s2.5 2.8 2.7 4.8c.1 1 0 2.1-.3 3.1s-.9 2.2-1.7 3.4-2.3 2.9-4.3 5.1c-1.7 1.8-2.8 3-3.2 3.6-.5.6-.8 1.2-1.1 1.9z"/><path d="m473.3 559.9c-.4-3-.5-5.5-.1-7.4s1.1-3.5 2.2-4.6c1.1-1.2 2.5-1.9 4.4-2.1 1.4-.2 2.6-.1 3.7.3s2.1 1.1 2.9 2 1.5 2.1 2.1 3.6c.6 1.4 1.1 3.4 1.4 5.9.4 3 .5 5.4.1 7.4-.4 1.9-1.1 3.5-2.1 4.6-1.1 1.2-2.6 1.9-4.4 2.2-2.5.3-4.5-.3-6.2-1.8-2-2-3.3-5.3-4-10.1zm3.2-.5c.6 4.2 1.5 6.9 2.6 8.1 1.2 1.2 2.5 1.8 3.9 1.6s2.5-1.1 3.3-2.6.9-4.4.3-8.5c-.6-4.2-1.5-6.9-2.7-8.1s-2.5-1.8-3.9-1.5c-1.4.2-2.5 1-3.2 2.3-.8 1.6-.9 4.5-.3 8.7z"/><path d="m493.1 557c-.4-3-.4-5.5 0-7.4s1.1-3.5 2.2-4.6c1.1-1.2 2.6-1.9 4.4-2.1 1.4-.2 2.6-.1 3.7.3s2.1 1.1 2.9 2 1.5 2.1 2.1 3.6 1 3.4 1.4 5.9c.4 3 .4 5.4 0 7.4-.4 1.9-1.1 3.5-2.2 4.6-1.1 1.2-2.6 1.9-4.4 2.1-2.5.3-4.5-.3-6.1-1.9-2-1.7-3.3-5.1-4-9.9zm3.2-.4c.6 4.2 1.4 6.9 2.6 8.2s2.5 1.8 3.9 1.6 2.6-1 3.3-2.6c.8-1.5.9-4.4.4-8.5-.6-4.2-1.4-6.9-2.6-8.2-1.2-1.2-2.5-1.8-3.9-1.6s-2.5 1-3.2 2.3c-.9 1.7-1 4.6-.5 8.8z"/><path d="m512.3 544.8-.3-3 16.6-1.8.3 2.4c-1.4 1.9-2.8 4.4-4.1 7.4s-2.2 6.1-2.8 9.3c-.4 2.2-.5 4.6-.4 7.2l-3.2.3c-.2-2 0-4.5.4-7.4s1.2-5.8 2.4-8.6c1.1-2.8 2.4-5.2 3.8-7.2z"/><path d="m268.5 248.1c-2.7-2.2-5.4-4.3-8.3-6.5 5.5-8.7 8.1-21.4 7.6-38.3v-35.1h34.7l-2.2-6.5 12.7-1.1c.2.7.7 2.4 1.4 5.1.2 1.2.5 2.1.7 2.5h31.1v8.7h-31.4v5.8h24.9v12.7h8v7.6h-8v13l4.7 5.8c-4.3 2.4-9.2 5.1-14.5 8 4.6 2.4 10.4 4.7 17.3 6.9l-5.1 8.7c-13.3-5.1-22.4-10.7-27.5-17v8.3c.5 6.7-2.7 10.2-9.4 10.5-3.4 0-7.2 0-11.6 0-.5-2.2-1.1-4.9-1.8-8.3 2.6.2 5.3.4 8 .4 3.6-.2 5.3-1.6 5.1-4v-3.6c-1.4.5-3.7 1.4-6.9 2.9-3.9 1.2-10.4 3.6-19.5 7.2l-4-7.6c-1.3 3.9-3.4 8.6-6 13.9zm13.7-32.1v-7.6h22.8v-5.4h-27.5v1.1c0 12.5-1 22.4-2.9 29.6 5.1-1.9 10.1-3.7 15.2-5.4-1-.5-2.3-1.3-4-2.5-3.1-1.9-5.5-3.4-7.2-4.3l4.7-5.4h-1.1zm.7-26.1v-7.2h22v-5.8h-27.5v18.4h27.6v-5.4zm10.2 37.3 11.9-4.7v-6.5h-20.2c4.3 2.2 8.3 4.5 11.9 6.9zm37.2-37.3h-15.5v5.4h15.5zm-15.5 18.5h15.5v-5.4h-15.5zm.7 7.6.7.7c1.9 2.9 4.1 5.4 6.5 7.6 5.3-2.9 10.1-5.7 14.5-8.3z"/><path d="m373.7 193.2v-10.8h35.1c.5-9.2.7-16 .7-20.6h11.9c0 4.6-.2 11.4-.7 20.6h35.8v10.8h-34.7c3.9 20 16.3 34.6 37.2 43.7-3.4 3.6-5.9 6.7-7.6 9.4-19.8-10.1-31.8-24.2-36.1-42.3-4.6 17.6-16.8 32.2-36.5 43.7-.7-1-1.9-2.7-3.6-5.1-1.7-2.2-2.9-3.9-3.6-5.1 20.2-10.8 32.2-25.7 35.8-44.5h-33.7zm41.6 52c-1.7-2.2-4.6-5.4-8.7-9.8-1.9-2.2-3.4-3.9-4.3-5.1l8.3-6.5c1.2 1.2 3.4 3.5 6.5 6.9 3.1 3.6 5.4 6 6.9 7.2z"/><path d="m494.2 206.2c-1.9-2.4-4.8-5.8-8.7-10.1-1.4-1.7-2.5-3-3.3-4l8-5.8c4.6 4.6 8.8 9 12.7 13.4zm-.8 40.5-9.8-2.9c2.6-9.9 5.1-20.5 7.2-31.8 3.4 1 6.5 1.8 9.4 2.5-.2 1.2-.7 3.3-1.4 6.1-2.3 11.4-4.1 20.1-5.4 26.1zm3.3-64.7c-1.2-1.4-3.1-3.6-5.8-6.5-2.9-3.4-5.1-5.9-6.5-7.6l8.3-5.4c4.3 4.3 8.5 8.7 12.6 13zm25.7 37.9v-36.9h11.9l1.8-8.3h-19.2v22.4c0 12.5-.7 22.2-2.2 28.9-1.2 6.7-3.9 14.1-8 22-1-.7-2.4-1.9-4.3-3.6s-3.4-2.9-4.3-3.6c3.4-5.5 5.7-11.3 6.9-17.3s1.8-14.7 1.8-26v-31.8h62.9v9h-22.8l-2.5 8.3h20.6v36.9h-16.3v17.3c.2 6.3-2.8 9.5-9 9.8-2.7 0-5.9 0-9.8 0-.2-2.2-.8-5.1-1.8-8.7h7.2c2.4 0 3.6-1.1 3.6-3.3v-15.2h-16.5zm-1.5 24.6-6.9-5.8c5.1-4.8 9.4-10.1 13-15.9l7.6 4.3c-2.4 3.9-6.4 8.9-11.9 15.2-.7 1-1.3 1.7-1.8 2.2zm11.2-53.1v6.5h23.5v-6.5zm0 13.4v6.9h23.5v-6.9zm31.1 39c-3.4-4.8-7.6-10.2-12.6-16.3l7.2-4.7c1 1.2 2.3 2.8 4 4.7 4.1 5.1 7.1 8.7 9 10.8z"/><path d="m396 142.4-9.4-13-4.4 4.4v8.6h-4.7v-27.5h4.7v13l13-13h6.4l-12 11.6 12.5 16h-6.1z"/><path d="m430.9 118.9h-9.2v23.5h-4.5v-23.5h-9.3v-4h23z"/><path d="m464.5 114.9-11.7 16.2v11.3h-4.5v-11.2l-11.2-16.5h5.2l7.7 11.6c0 .1 0 .2.1.3s.2.4.4.8c.1-.1.2-.2.3-.4s.2-.3.3-.4c.4-.4 2.9-4.3 7.7-11.7z"/></g></g></svg>