<svg xmlns="http://www.w3.org/2000/svg" width="512" height="682.66669" viewBox="0 0 480 640">
  <path d="M-154.23626-583.91555v186.59375c0 155.91253 38.7595 238.71455 85.21875 309.5625C3.2667 22.47043 81.9825 50.3032 81.9825 50.3032s78.7157-27.83277 151-138.0625c46.4592-70.84795 85.2188-153.64997 85.2188-309.5625v-186.59375H81.9825Z" style="fill:#bf0000;fill-opacity:1;stroke:none" transform="translate(158.9819 587.32398)"/>
  <g transform="matrix(1.87414 0 0 1.87414 -1767.2846 325.40622)">
    <path style="fill:#f3c547;fill-opacity:1;stroke:#000;stroke-width:1.46164811;stroke-linecap:butt;stroke-linejoin:miter;stroke-miterlimit:4;stroke-dasharray:none;stroke-opacity:1" d="M1080.5598-47.619359s10.8399-.763696 19.2069-2.35234c9.6083-1.824319 17.1744-4.750356 17.1744-4.750356s2.3716-17.2384 11.2821-31.21989c10.0992-15.846575 28.8904-28.502135 28.8904-28.502135s-5.7558-1.54355-8.3588-1.23327c-5.4736.65244-7.2626 4.81887-7.2626 4.81887s.3053-1.89721.2969-2.85478c-.01-1.09179-.3882-3.26587-.3882-3.26587s-3.8985 1.59122-5.3214 3.06033c-1.6049 1.65714-3.243 6.12065-3.243 6.12065s.8669-2.52777.8907-4.63617c.027-2.40273-3.1745-4.33927-3.1745-4.33927s-1.6743 1.81927-2.1468 2.94614c-.2266.54049-.4228 3.91958-.5289 4.68591 0-.41996.026-3.39997-.065-3.70387-.3442-1.15249-2.0783-2.94613-2.0783-2.94613s-3.6885 3.71639-3.8368 6.9885c-.067 1.47127-.015 9.97598.03 11.939375-.3356-2.388494-1.2835-11.393595-2.108-13.012765-1.2332-2.42157-5.7096-5.82376-5.7096-5.82376s-1.6064 2.42536-1.5987 4.68184c.01 2.73269 1.5987 7.83352 1.5987 7.83352s-1.1217-2.05371-1.8727-2.94613c-.9134-1.0853-3.1517-2.85478-3.1517-2.85478s-.8466 4.7561-.3883 7.07986c.8959 4.541915 5.7096 9.066783 5.7096 9.066783l-5.5269-1.96409s-2.0282 5.892086-1.1647 8.678536c2.6018 8.396291 12.7894 3.928179 12.7894 3.928179s-2.8676 10.371358-12.995 7.308241c-7.5692-2.289387-5.2299-11.738862-5.2299-11.738862l.5253-2.398016c1.1408-.381834 2.0643-1.443656 2.3066-2.831944.3369-1.929952-.7738-3.742944-2.4893-4.04237-1.7156-.299426-3.3858 1.03902-3.7227 2.968973-.2267 1.298937.2207 2.523221 1.0506 3.288708l-.8222 2.032604s-4.5511 9.377935-11.8302 9.363684c-14.0815-.02711-10.9395-16.260836-10.9395-16.260836s5.1363 7.989749 10.163 7.399594c7.1845-.849276 7.8241-8.177746 13.4974-11.921568l-6.0065-.205544s4.2387-1.195032 6.212-2.466532c1.6809-1.08303 4.522-4.13372 4.522-4.13372h-5.8009s3.4297-2.01996 4.6133-3.56277c.9951-1.29697 1.8728-4.52197 1.8728-4.52197l-4.2251.52528s2.4654-3.30783 3.0603-5.38983c.6265-2.19261.2741-6.73729.2741-6.73729s-2.5067 2.70284-4.1794 2.78627c-1.6811.0838-2.7773-2.52796-4.4535-2.37518-3.1282.28513-7.3996 5.86943-7.3996 5.86943s4.8946-6.44024 5.8694-10.45992c1.1087-4.5716-.1598-9.75193-.1598-9.75193s-1.5234 1.14226-2.2153 1.80422c-.8084.77331-2.2382 2.51221-2.2382 2.51221s.987-2.65124 1.1191-4.04237c.1101-1.15976-.2741-3.49425-.2741-3.49425s-3.0927 1.07084-4.3164 2.10112c-1.6229 1.36634-3.7226 5.16144-3.7226 5.16144s2.4867-5.78508 2.5579-8.86124c.055-2.39731-1.6672-6.98851-1.6672-6.98851s-1.7667 1.2749-2.3524 2.16964c-.6656 1.01682-1.1876 3.44857-1.1876 3.44857s.245-5.34231-.7993-7.69649c-.7167-1.61573-3.5399-3.92818-3.5399-3.92818l-.5025 4.72752-1.8727-4.04237-1.8728-3.65412h-.0001s-1.4312 3.4517-2.5807 4.79603c-.9189 1.07461-2.6036 2.58073-2.6036 2.58073-2.2882 1.36054-.4736 7.04738-1.7128 7.60513-1.1313.50917-3.0375-4.81887-3.0375-4.81887s-2.7513 3.46358-2.6721 5.50402c.1443 3.72094 5.6182 9.66058 5.6182 9.66058l-11.3278-6.8058-.982 4.33927-3.951-.38825s1.1218 6.70824 2.8547 9.54639c1.7796 2.91452 7.3996 7.1027 7.3996 7.1027s-6.2204-3.43214-9.7519-3.35723c-4.0956.0848-7.3082 2.85479-7.3082 2.85479s.3402 2.23157.8907 3.17451c1.282 2.19628 3.6998 4.06521 3.6998 4.06521l-6.5546.41109s1.9811 3.30988 3.3572 4.61333c3.4141 3.23391 6.8743 4.3621 6.8743 4.3621l-8.5415-1.43881s2.6209 3.61197 4.3164 5.02442c2.1914 1.825487 7.3768 4.316428 7.3768 4.316428l-5.3898-.936369s3.0103 9.842169 9.5692 10.254376c5.5367.35328 9.6149-6.531741 9.6149-6.531741s4.5755 13.69617-7.9477 16.580571c-9.2225 2.12417-11.8302-8.792727-11.8302-8.792727l-.7994-2.694913c.6532-.731679 1.0017-1.798295.8679-2.923297-.2313-1.945431-1.8107-3.334457-3.5399-3.12884-1.7293.205617-2.9491 1.937071-2.7178 3.882503.1725 1.450919 1.1059 2.607375 2.2838 3.014649l.4111 2.329502s.05 10.060882-7.0342 11.350611c-12.8764 2.344315-13.4289-7.696491-13.4289-7.696491s9.205 1.213943 12.2185-1.575839c3.9468-3.653711 3.1517-13.017804 3.1517-13.017804l-3.6313-1.073398 2.261-2.672071s-2.5681-1.7688-2.7634-3.15168c-.3261-2.30849 2.1239-5.34415 2.1239-5.34415s-2.302.16339-3.1973.75366c-1.2319.81213-2.1012 3.42574-2.1012 3.42574s.2539-3.57051-.411-5.16145c-.8511-2.03607-4.3165-5.02441-4.3165-5.02441s-3.3992 3.64471-3.9053 8.65569c-.1362 1.34875 1.6313 9.488051 1.8994 11.250747-.3611-1.547797-2.3487-9.423317-2.7444-10.565597-1.661-4.79516-6.8287-11.14507-6.8287-11.14507s-1.3224 2.24268-1.5301 3.49426c-.2672 1.6097.4111 4.86454.4111 4.86454s-1.0386-2.84552-1.3932-4.31643c-.5046-2.0936-2.3523-4.1794-2.3523-4.1794s-1.5474 1.78086-1.8271 4.1794c-.14 1.20049.1371 3.63129.1371 3.63129s-3.3061-4.0572-5.4127-5.57254c-3.92269-2.82166-8.92977-3.90534-8.92977-3.90534l.54812 5.00158s-2.16656-2.82735-6.39471-2.9233c-1.77745-.0403-5.02441 1.82706-5.02441 1.82706s16.87255 9.6699 28.43357 26.743596c14.1181 20.849848 15.7356 33.458039 15.7356 33.458039s7.5661 2.926037 17.1744 4.750356c8.367 1.588644 19.2069 2.35234 19.2069 2.35234"/>
    <path style="color:#000;font-style:normal;font-variant:normal;font-weight:400;font-stretch:normal;font-size:medium;line-height:normal;font-family:'Bitstream Vera Sans';-inkscape-font-specification:'Bitstream Vera Sans';text-indent:0;text-align:start;text-decoration:none;text-decoration-line:none;letter-spacing:normal;word-spacing:normal;text-transform:none;writing-mode:lr-tb;direction:ltr;text-anchor:start;display:inline;overflow:visible;visibility:visible;fill:#000;fill-opacity:1;stroke:none;stroke-width:2.05374193;marker:none;enable-background:accumulate" d="M1071.9726-65.11346c-17.17 0-32.9307 3.485936-45.3111 9.318007l.2512 1.073398.8679.342574c12.0278-5.620827 27.4197-9.02111 44.192-9.02111 16.7525 0 32.1247 3.389314 44.1463 8.998272l.8222-.319736.1827-1.164751c-12.3587-5.780394-28.0656-9.226654-45.1512-9.226654z"/>
    <path style="color:#000;font-style:normal;font-variant:normal;font-weight:400;font-stretch:normal;font-size:medium;line-height:normal;font-family:'Bitstream Vera Sans';-inkscape-font-specification:'Bitstream Vera Sans';text-indent:0;text-align:start;text-decoration:none;text-decoration-line:none;letter-spacing:normal;word-spacing:normal;text-transform:none;writing-mode:lr-tb;direction:ltr;text-anchor:start;display:inline;overflow:visible;visibility:visible;fill:#000;fill-opacity:1;stroke:none;stroke-width:1.97800004;marker:none;enable-background:accumulate" d="M1071.8127-75.778923c-1.9225 0-3.8254.03844-5.7096.114191 0 0-.3573.153882-.3489.908188.01.661213.4174.873196.4174.873196 1.8637-.07523 3.7388-.114192 5.6411-.114192 18.2447 0 34.8647 3.530341 47.3437 9.295169l.4567-1.758545c-12.7541-5.808415-29.4855-9.318007-47.8004-9.318007zm-25.1449 2.306663c-8.7457 1.674523-16.6957 4.209729-23.4777 7.399594l.6623 1.667192c6.6444-3.147038 14.5053-5.648736 23.1808-7.30824 0 0 .3981-.362833.2633-.987212-.1499-.694035-.6287-.771334-.6287-.771334z"/>
    <ellipse style="fill:none;stroke:#000;stroke-width:2;stroke-linecap:round;stroke-linejoin:miter;stroke-miterlimit:4;stroke-dasharray:none;stroke-dashoffset:0;stroke-opacity:1" transform="matrix(.73082 0 0 .73082 729.12474 -267.93997)" cx="469.07248" cy="214.93039" rx="9.3032484" ry="9.0335884"/>
    <path style="fill:none;stroke:#000;stroke-width:1.46164811;stroke-linecap:round;stroke-linejoin:round;stroke-miterlimit:4;stroke-dasharray:none;stroke-opacity:1" d="m1072.0327-143.28228-.1019 20.69272-12.9049-8.47416"/>
    <path style="fill:none;stroke:#000;stroke-width:1.46164811;stroke-linecap:round;stroke-linejoin:miter;stroke-miterlimit:4;stroke-dasharray:none;stroke-opacity:1" d="m1071.9308-122.58956 12.3326-8.29768M1064.6425-101.99537l-7.1932 5.91221m30.5464.886826-7.883-7.587326m16.3571-17.34248s-2.6966 3.96275-6.3063 6.50343c-2.3208 1.63352-7.0947 3.64586-7.0947 3.64586m-32.9112-8.5727 10.2478 8.67124M1000.1009-110.07539s3.2842 3.17062 4.1385 5.56733c.8161 2.28948.6898 7.636604.6898 7.636604"/>
    <path style="fill:none;stroke:#000;stroke-width:1.46164811;stroke-linecap:butt;stroke-linejoin:miter;stroke-miterlimit:4;stroke-dasharray:none;stroke-opacity:1" d="M1008.2794-92.929983s3.7028-1.887163 6.1093 1.034635c2.4493 2.973731-.6897 7.094643-.6897 7.094643"/>
    <path style="fill:none;stroke:#000;stroke-width:1.46164811;stroke-linecap:round;stroke-linejoin:miter;stroke-miterlimit:4;stroke-dasharray:none;stroke-opacity:1" d="M1014.3087-102.18072s1.043 2.970481 1.2193 5.678601c.1292 1.957841-.4529 5.643752-.4529 5.643752"/>
    <path d="M1131.8723-92.143134s-3.7028-1.887163-6.1092 1.034635c-2.4493 2.973731.6897 7.094643.6897 7.094643" style="fill:none;stroke:#000;stroke-width:1.46164811;stroke-linecap:butt;stroke-linejoin:miter;stroke-miterlimit:4;stroke-dasharray:none;stroke-opacity:1"/>
    <path style="fill:none;stroke:#000;stroke-width:1.46164811;stroke-linecap:round;stroke-linejoin:miter;stroke-miterlimit:4;stroke-dasharray:none;stroke-opacity:1" d="M1137.9836-108.73026s-2.7743 3.12773-3.7625 6.65406c-.7642 2.727075 0 7.385655 0 7.385655m-7.1069-9.928825s-.5996 1.91251-.5226 3.69282c.072 1.671358 1.0103 3.623155 1.0103 3.623155"/>
    <path style="fill:none;stroke:#000;stroke-width:1.53473043;stroke-linecap:round;stroke-linejoin:miter;stroke-miterlimit:4;stroke-dasharray:none;stroke-opacity:1" d="m1116.3144-66.715616-.3484 10.381721m-2.2993-11.287512-.2787 11.078489m-2.0903-11.705572-.418 10.590751m-2.0928-11.62342-.5912 10.247827m-2.3649-11.13466-.197 6.207817m-2.6605-6.897569-.3942 10.24782m-2.0693-10.937579-.197 6.207817m-3.1532-6.700502-.099 5.715132M1032.1458-56.751948v3.832178m2.7173-4.877315v5.086345m2.8567-5.992136.07 6.897927m2.578-7.803717v8.291447m2.8567-8.988208-.07 5.922467m4.0412-6.75858-.07 6.201166m3.9019-7.176627.07 4.877323m5.3651-5.922467.07 3.065749"/>
  </g>
  <path style="fill:#fff;fill-opacity:1;stroke:#000;stroke-width:2.73885345;stroke-linecap:butt;stroke-linejoin:miter;stroke-miterlimit:4;stroke-dasharray:none;stroke-opacity:1" d="M281.43692 525.35646s3.4534-5.85993 3.4534-16.17635c0-10.2241-4.41411-16.17634-4.41411-16.17634l63.52694-.00054-.00024-62.56547s5.85993 3.45341 16.17636 3.45341c10.22412 0 16.17633-3.45341 16.17633-3.45341l.00068 62.56573 62.56535.00025s-3.45339 5.85994-3.45339 16.17636c0 10.22412 3.45339 16.17635 3.45339 16.17635h-62.56535l-.00066 62.56602s-5.85993-3.45341-16.17634-3.45341c-10.22414 0-16.17635 3.45341-16.17635 3.45341l.00022-62.56601zM281.43692 714.01275s3.4534-5.85993 3.4534-16.17635c0-10.2241-4.41411-16.17634-4.41411-16.17634l63.52694-.00054-.00024-62.56547s5.85993 3.45341 16.17636 3.45341c10.22412 0 16.17633-3.45341 16.17633-3.45341l.00068 62.56573 62.56535.00025s-3.45339 5.85994-3.45339 16.17636c0 10.22412 3.45339 16.17635 3.45339 16.17635h-62.56535l-.00066 62.56602s-5.85993-3.45341-16.17634-3.45341c-10.22414 0-16.17635 3.45341-16.17635 3.45341l.00022-62.56601z" transform="translate(-118.52686 -209.47156)"/>
</svg>
