<?xml version="1.0" encoding="UTF-8" standalone="no"?>
<!-- Created with Inkscape (http://www.inkscape.org/) -->
<svg
   xmlns:dc="http://purl.org/dc/elements/1.1/"
   xmlns:cc="http://web.resource.org/cc/"
   xmlns:rdf="http://www.w3.org/1999/02/22-rdf-syntax-ns#"
   xmlns:svg="http://www.w3.org/2000/svg"
   xmlns="http://www.w3.org/2000/svg"
   xmlns:sodipodi="http://inkscape.sourceforge.net/DTD/sodipodi-0.dtd"
   xmlns:inkscape="http://www.inkscape.org/namespaces/inkscape"
   id="svg2"
   sodipodi:version="0.32"
   inkscape:version="0.43"
   width="168"
   height="185"
   sodipodi:docbase="C:\Moje dokumenty\Wikipedia\Kielce"
   sodipodi:docname="wojewodztwo swietokrzyskie herb.svg"
   version="1.0">
  <metadata
     id="metadata7">
    <rdf:RDF>
      <cc:Work
         rdf:about="">
        <dc:format>image/svg+xml</dc:format>
        <dc:type
           rdf:resource="http://purl.org/dc/dcmitype/StillImage" />
      </cc:Work>
    </rdf:RDF>
  </metadata>
  <defs
     id="defs5" />
  <sodipodi:namedview
     inkscape:window-height="938"
     inkscape:window-width="1280"
     inkscape:pageshadow="2"
     inkscape:pageopacity="0.0"
     borderopacity="1.0"
     bordercolor="#666666"
     pagecolor="#ffffff"
     id="base"
     inkscape:zoom="2.0050194"
     inkscape:cx="217.4135"
     inkscape:cy="163.64918"
     inkscape:window-x="-4"
     inkscape:window-y="-4"
     inkscape:current-layer="svg2" />
  <path
     id="path8382"
     style="fill:#2973ff;fill-opacity:1;fill-rule:evenodd;stroke:#000000;stroke-width:1px;stroke-linecap:butt;stroke-linejoin:miter;stroke-opacity:1"
     d="M 84.039087,180.30082 C 49.021247,180.30082 6.662007,151.96828 5.548577,105.98732 L 5.548577,4.9907955 L 84.319637,4.9907955 L 163.09069,4.9907955 L 163.09069,105.98732 C 161.97726,151.96828 119.61802,180.30082 84.039087,180.30082 z "
     sodipodi:nodetypes="ccccccc" />
  <rect
     style="opacity:1;color:#000000;fill:#ff0000;fill-opacity:1;fill-rule:evenodd;stroke:#000000;stroke-width:1.00470579;stroke-linecap:butt;stroke-linejoin:miter;marker:none;marker-start:none;marker-mid:none;marker-end:none;stroke-miterlimit:4;stroke-dasharray:none;stroke-dashoffset:0;stroke-opacity:1;visibility:visible;display:inline;overflow:visible"
     id="rect8394"
     width="79.042168"
     height="82.792213"
     x="84.043785"
     y="4.9907928" />
  <rect
     style="opacity:1;color:#000000;fill:#ffdc00;fill-opacity:1;fill-rule:evenodd;stroke:none;stroke-width:0.2;stroke-linecap:butt;stroke-linejoin:miter;marker:none;marker-start:none;marker-mid:none;marker-end:none;stroke-miterlimit:4;stroke-dasharray:none;stroke-dashoffset:0;stroke-opacity:1;visibility:visible;display:inline;overflow:visible"
     id="rect8371"
     width="4.987483"
     height="56.233868"
     x="42.144218"
     y="19.828562" />
  <path
     id="path11017"
     style="fill:#ff0000;fill-opacity:1;fill-rule:evenodd;stroke:#000000;stroke-width:1px;stroke-linecap:butt;stroke-linejoin:miter;stroke-opacity:1"
     d="M 84.039087,180.30082 C 49.021247,180.30082 6.662007,151.96828 5.548577,105.98732 L 5.548577,87.533635 L 84.070267,87.533635 L 84.039087,180.30082 z "
     sodipodi:nodetypes="ccccc" />
  <path
     style="fill:#ffc800;fill-opacity:1;fill-rule:evenodd;stroke:#000000;stroke-width:0.2;stroke-linecap:butt;stroke-linejoin:miter;stroke-miterlimit:4;stroke-dasharray:none;stroke-opacity:1"
     d="M 119.38328,55.014205 C 120.72938,54.894505 120.79667,56.064555 120.58788,56.853565 C 118.75357,58.325965 114.6311,64.193015 113.77248,65.447245 C 113.5347,65.423935 112.87594,65.092965 112.78828,64.701995 C 112.56913,63.530045 115.01981,60.746745 114.3165,61.586705 C 112.99226,63.168235 112.8712,63.954245 110.78891,64.392535 C 109.74154,62.728705 110.03494,62.819075 112.49727,61.361905 C 109.06932,63.405895 109.79227,61.058655 109.91356,59.976655 C 110.9089,59.375795 113.73398,59.371615 115.64419,59.069095 L 119.38328,55.014205 z "
     id="path5698"
     sodipodi:nodetypes="ccccsccccc" />
  <path
     style="fill:#ffc800;fill-opacity:1;fill-rule:evenodd;stroke:#000000;stroke-width:0.2;stroke-linecap:butt;stroke-linejoin:miter;stroke-miterlimit:4;stroke-dasharray:none;stroke-opacity:1"
     d="M 131.33364,54.990705 C 129.98754,54.871005 129.92025,56.041055 130.12904,56.830065 C 131.96335,58.302465 136.08582,64.169515 136.94444,65.423745 C 137.18222,65.400435 137.84098,65.069465 137.92864,64.678495 C 138.14779,63.506545 135.69711,60.723245 136.40042,61.563205 C 137.72466,63.144735 137.84572,63.930745 139.92801,64.369035 C 140.97538,62.705205 140.68198,62.795575 138.21965,61.338405 C 141.6476,63.382395 140.92465,61.035155 140.80336,59.953155 C 139.80802,59.352295 136.98294,59.348115 135.07273,59.045595 L 131.33364,54.990705 z "
     id="path8338"
     sodipodi:nodetypes="ccccsccccc" />
  <path
     style="fill:#ffffff;fill-opacity:1;fill-rule:evenodd;stroke:#000000;stroke-width:0.2;stroke-linecap:butt;stroke-linejoin:miter;stroke-miterlimit:4;stroke-opacity:1"
     d="M 123.7524,19.763095 C 124.94004,19.917915 125.62073,20.006615 127.20512,19.632435 C 128.32572,20.920485 128.0436,21.398075 131.06568,22.031515 C 130.3526,22.689525 130.04475,22.973485 129.79925,23.506815 C 128.59394,31.258195 131.31627,33.149285 134.41267,33.668815 C 137.17656,33.606465 138.31954,33.294755 139.33781,30.863355 C 139.31703,28.764455 139.42094,28.909925 137.77922,26.811025 C 135.32704,17.251685 148.71011,18.415435 150.24792,23.195105 C 150.66354,29.907425 150.33104,32.006325 150.37261,36.411935 C 149.91542,40.692855 150.33104,41.981285 151.43245,43.768465 C 149.43745,42.895655 147.87887,43.519095 144.7617,37.284735 C 144.67857,45.181585 144.90715,48.839085 145.88387,50.439235 C 142.93295,49.358605 141.54061,49.836575 139.64952,43.643785 C 139.75343,53.016095 140.23139,54.907185 144.01357,57.671085 C 139.98202,57.671085 134.51657,58.169825 134.72439,44.516595 C 134.82829,54.159055 132.37611,52.766715 134.10095,58.481545 L 128.42769,53.119995 C 126.93144,56.154045 127.05613,57.442485 127.05612,58.855605 C 128.55236,58.876385 128.42768,62.076685 127.05612,62.097465 C 128.53159,66.025105 130.44346,66.586205 134.78673,67.209635 C 132.72939,69.578695 129.92393,70.015095 127.67956,67.209635 C 128.17831,69.495565 129.26398,69.933875 130.45293,70.576185 C 128.934,70.964145 127.83386,70.977405 126.55738,69.139145 C 126.97178,72.001115 126.76901,71.997665 125.50824,74.815545 C 123.65439,71.716495 123.93653,71.940375 124.1746,69.122485 C 122.89812,70.960745 121.79798,70.947485 120.27905,70.559525 C 121.468,69.917215 122.55367,69.478905 123.05242,67.192975 C 120.80805,69.998435 118.00259,69.562035 115.94525,67.192975 C 120.28852,66.569545 122.20039,66.008445 123.67586,62.080805 C 122.3043,62.060025 122.17962,58.859725 123.67586,58.838945 C 123.67585,57.425825 123.80054,56.137385 122.30429,53.103335 L 116.63103,58.464885 C 118.35587,52.750055 115.90369,54.142395 116.00759,44.499935 C 116.21541,58.153165 110.74996,57.654425 106.71841,57.654425 C 110.50059,54.890525 110.97855,52.999435 111.08246,43.627125 C 109.19137,49.819915 107.79903,49.341945 104.84811,50.422575 C 105.82483,48.822425 106.05341,45.164925 105.97028,37.268075 C 102.85311,43.502435 101.29453,42.878995 99.299527,43.751805 C 100.40094,41.964625 100.81656,40.676195 100.35937,36.395275 C 100.40094,31.989665 100.06844,29.890765 100.48406,23.178445 C 102.02187,18.398775 115.40494,17.235025 112.95276,26.794365 C 111.31104,28.893265 111.41495,28.747795 111.39417,30.846695 C 112.41244,33.278095 113.55542,33.589805 116.31931,33.652155 C 120.78727,33.381995 125.87866,29.246535 122.80304,23.739525"
     id="path2262" />
  <path
     style="fill:#ffc800;fill-opacity:1;fill-rule:evenodd;stroke:#000000;stroke-width:0.2;stroke-linecap:butt;stroke-linejoin:miter;stroke-miterlimit:4;stroke-opacity:1"
     d="M 123.65354,19.625495 C 124.49897,20.026135 122.91122,24.586175 122.70418,23.601925 C 122.49714,22.617675 120.63697,21.765675 118.97518,22.500685 C 119.4247,19.973435 120.23758,19.369165 121.70102,18.847715 C 122.25991,18.697315 122.80811,19.224855 123.65354,19.625495 z "
     id="path1319" />
  <path
     style="fill:none;fill-opacity:0.75;fill-rule:evenodd;stroke:#000000;stroke-width:0.2;stroke-linecap:butt;stroke-linejoin:miter;stroke-miterlimit:4;stroke-dasharray:none;stroke-opacity:1"
     d="M 118.98264,22.478155 C 121.14388,20.628625 121.77771,21.802765 123.53372,22.041745"
     id="path2196"
     sodipodi:nodetypes="cc" />
  <path
     sodipodi:type="arc"
     style="opacity:1;color:#000000;fill:#000000;fill-opacity:1;fill-rule:evenodd;stroke:#000000;stroke-width:0.2;stroke-linecap:butt;stroke-linejoin:miter;marker:none;marker-start:none;marker-mid:none;marker-end:none;stroke-miterlimit:4;stroke-dasharray:none;stroke-dashoffset:0;stroke-opacity:1;visibility:visible;display:inline;overflow:visible"
     id="path3076"
     sodipodi:cx="448.77042"
     sodipodi:cy="466.13931"
     sodipodi:rx="2.7772627"
     sodipodi:ry="2.380511"
     d="M 451.54768 466.13931 A 2.7772627 2.380511 0 1 1  445.99315,466.13931 A 2.7772627 2.380511 0 1 1  451.54768 466.13931 z"
     transform="matrix(0.425842,8.552262e-2,-2.253812e-2,0.267575,-55.31917,-141.4705)" />
  <path
     style="fill:#555555;fill-opacity:1;fill-rule:evenodd;stroke:#555555;stroke-width:0.2;stroke-linecap:butt;stroke-linejoin:miter;stroke-miterlimit:4;stroke-dasharray:none;stroke-opacity:1"
     d="M 110.16103,60.663565 L 110.1922,61.536375 C 109.79216,61.349345 109.5324,61.255835 108.99209,61.396105 C 109.35056,60.970095 109.56877,60.762275 110.16103,60.663565 z "
     id="path7458"
     sodipodi:nodetypes="cccc" />
  <path
     style="fill:#555555;fill-opacity:1;fill-rule:evenodd;stroke:#555555;stroke-width:0.2;stroke-linecap:butt;stroke-linejoin:miter;stroke-miterlimit:4;stroke-dasharray:none;stroke-opacity:1"
     d="M 110.68241,63.142605 L 111.13916,63.887005 C 110.69888,63.921115 110.42674,63.967585 110.02547,64.355645 C 110.12781,63.808365 110.21545,63.520055 110.68241,63.142605 z "
     id="path8333"
     sodipodi:nodetypes="cccc" />
  <path
     style="fill:#555555;fill-opacity:1;fill-rule:evenodd;stroke:#555555;stroke-width:0.17322294;stroke-linecap:butt;stroke-linejoin:miter;stroke-miterlimit:4;stroke-dasharray:none;stroke-opacity:1"
     d="M 113.095,64.613445 L 113.63855,64.987425 C 113.4113,65.304895 113.28086,65.524015 113.21465,66.135335 C 113.05458,65.575075 112.9887,65.257965 113.095,64.613445 z "
     id="path8335"
     sodipodi:nodetypes="cccc" />
  <path
     style="fill:#555555;fill-opacity:1;fill-rule:evenodd;stroke:#555555;stroke-width:0.2;stroke-linecap:butt;stroke-linejoin:miter;stroke-miterlimit:4;stroke-dasharray:none;stroke-opacity:1"
     d="M 140.55589,60.640065 L 140.52472,61.512875 C 140.92476,61.325845 141.18452,61.232335 141.72483,61.372605 C 141.36636,60.946595 141.14815,60.738775 140.55589,60.640065 z "
     id="path8340"
     sodipodi:nodetypes="cccc" />
  <path
     style="fill:#555555;fill-opacity:1;fill-rule:evenodd;stroke:#555555;stroke-width:0.2;stroke-linecap:butt;stroke-linejoin:miter;stroke-miterlimit:4;stroke-dasharray:none;stroke-opacity:1"
     d="M 140.03451,63.119105 L 139.57776,63.863505 C 140.01804,63.897615 140.29018,63.944085 140.69145,64.332145 C 140.58911,63.784865 140.50147,63.496555 140.03451,63.119105 z "
     id="path8342"
     sodipodi:nodetypes="cccc" />
  <path
     style="fill:#555555;fill-opacity:1;fill-rule:evenodd;stroke:#555555;stroke-width:0.17322294;stroke-linecap:butt;stroke-linejoin:miter;stroke-miterlimit:4;stroke-dasharray:none;stroke-opacity:1"
     d="M 137.62192,64.589945 L 137.07837,64.963925 C 137.30562,65.281395 137.43606,65.500515 137.50227,66.111835 C 137.66234,65.551575 137.72822,65.234465 137.62192,64.589945 z "
     id="path8344"
     sodipodi:nodetypes="cccc" />
  <path
     style="fill:#ffdc00;fill-opacity:1;fill-rule:evenodd;stroke:none;stroke-width:1px;stroke-linecap:butt;stroke-linejoin:miter;stroke-opacity:1"
     d="M 93.562107,99.201565 L 97.265127,99.201565 L 99.160717,96.159805 L 100.96815,99.201565 L 104.8475,99.245645 L 102.55515,102.19925 L 104.97975,105.94636 L 101.32081,105.90227 L 99.381137,108.5032 L 97.529627,105.90227 L 93.473947,105.90227 L 95.678117,102.19925 L 93.562107,99.201565 z "
     id="path8347"
     sodipodi:nodetypes="ccccccccccccc" />
  <path
     style="fill:#ffdc00;fill-opacity:1;fill-rule:evenodd;stroke:none;stroke-width:1px;stroke-linecap:butt;stroke-linejoin:miter;stroke-opacity:1"
     d="M 114.08299,99.201565 L 117.78601,99.201565 L 119.6816,96.159805 L 121.48903,99.201565 L 125.36838,99.245645 L 123.07603,102.19925 L 125.50063,105.94636 L 121.84169,105.90227 L 119.90202,108.5032 L 118.05051,105.90227 L 113.99483,105.90227 L 116.199,102.19925 L 114.08299,99.201565 z "
     id="path8350"
     sodipodi:nodetypes="ccccccccccccc" />
  <path
     style="fill:#ffdc00;fill-opacity:1;fill-rule:evenodd;stroke:none;stroke-width:1px;stroke-linecap:butt;stroke-linejoin:miter;stroke-opacity:1"
     d="M 135.68393,99.201565 L 139.38695,99.201565 L 141.28254,96.159805 L 143.08997,99.201565 L 146.96932,99.245645 L 144.67697,102.19925 L 147.10157,105.94636 L 143.44263,105.90227 L 141.50296,108.5032 L 139.65145,105.90227 L 135.59577,105.90227 L 137.79994,102.19925 L 135.68393,99.201565 z "
     id="path8352"
     sodipodi:nodetypes="ccccccccccccc" />
  <path
     style="fill:#ffdc00;fill-opacity:1;fill-rule:evenodd;stroke:none;stroke-width:1px;stroke-linecap:butt;stroke-linejoin:miter;stroke-opacity:1"
     d="M 93.815577,120.09718 L 97.518597,120.09718 L 99.414187,117.05542 L 101.22162,120.09718 L 105.10097,120.14126 L 102.80862,123.09486 L 105.23322,126.84197 L 101.57428,126.79788 L 99.634607,129.39881 L 97.783097,126.79788 L 93.727417,126.79788 L 95.931587,123.09486 L 93.815577,120.09718 z "
     id="path8354"
     sodipodi:nodetypes="ccccccccccccc" />
  <path
     style="fill:#ffdc00;fill-opacity:1;fill-rule:evenodd;stroke:none;stroke-width:1px;stroke-linecap:butt;stroke-linejoin:miter;stroke-opacity:1"
     d="M 114.33646,120.09718 L 118.03948,120.09718 L 119.93507,117.05542 L 121.7425,120.09718 L 125.62185,120.14126 L 123.3295,123.09486 L 125.7541,126.84197 L 122.09516,126.79788 L 120.15549,129.39881 L 118.30398,126.79788 L 114.2483,126.79788 L 116.45247,123.09486 L 114.33646,120.09718 z "
     id="path8356"
     sodipodi:nodetypes="ccccccccccccc" />
  <path
     style="fill:#ffdc00;fill-opacity:1;fill-rule:evenodd;stroke:none;stroke-width:1px;stroke-linecap:butt;stroke-linejoin:miter;stroke-opacity:1"
     d="M 135.9374,120.09718 L 139.64042,120.09718 L 141.53601,117.05542 L 143.34344,120.09718 L 147.22279,120.14126 L 144.93044,123.09486 L 147.35504,126.84197 L 143.6961,126.79788 L 141.75643,129.39881 L 139.90492,126.79788 L 135.84924,126.79788 L 138.05341,123.09486 L 135.9374,120.09718 z "
     id="path8358"
     sodipodi:nodetypes="ccccccccccccc" />
  <path
     style="fill:#ffdc00;fill-opacity:1;fill-rule:evenodd;stroke:none;stroke-width:1px;stroke-linecap:butt;stroke-linejoin:miter;stroke-opacity:1"
     d="M 93.374747,140.99277 L 97.077767,140.99277 L 98.973357,137.95101 L 100.78079,140.99277 L 104.66014,141.03685 L 102.36779,143.99045 L 104.79239,147.73756 L 101.13345,147.69347 L 99.193777,150.2944 L 97.342267,147.69347 L 93.286587,147.69347 L 95.490757,143.99045 L 93.374747,140.99277 z "
     id="path8360"
     sodipodi:nodetypes="ccccccccccccc" />
  <path
     style="fill:#ffdc00;fill-opacity:1;fill-rule:evenodd;stroke:none;stroke-width:1px;stroke-linecap:butt;stroke-linejoin:miter;stroke-opacity:1"
     d="M 113.89563,140.99277 L 117.59865,140.99277 L 119.49424,137.95101 L 121.30167,140.99277 L 125.18102,141.03685 L 122.88867,143.99045 L 125.31327,147.73756 L 121.65433,147.69347 L 119.71466,150.2944 L 117.86315,147.69347 L 113.80747,147.69347 L 116.01164,143.99045 L 113.89563,140.99277 z "
     id="path8362"
     sodipodi:nodetypes="ccccccccccccc" />
  <path
     style="fill:#ffdc00;fill-opacity:1;fill-rule:evenodd;stroke:none;stroke-width:1px;stroke-linecap:butt;stroke-linejoin:miter;stroke-opacity:1"
     d="M 135.49657,140.99277 L 139.19959,140.99277 L 141.09518,137.95101 L 142.90261,140.99277 L 146.78196,141.03685 L 144.48961,143.99045 L 146.91421,147.73756 L 143.25527,147.69347 L 141.3156,150.2944 L 139.46409,147.69347 L 135.40841,147.69347 L 137.61258,143.99045 L 135.49657,140.99277 z "
     id="path8364"
     sodipodi:nodetypes="ccccccccccccc" />
  <rect
     style="opacity:1;color:#000000;fill:#ffdc00;fill-opacity:1;fill-rule:evenodd;stroke:none;stroke-width:0.2;stroke-linecap:butt;stroke-linejoin:miter;marker:none;marker-start:none;marker-mid:none;marker-end:none;stroke-miterlimit:4;stroke-dasharray:none;stroke-dashoffset:0;stroke-opacity:1;visibility:visible;display:inline;overflow:visible"
     id="rect8373"
     width="17.45619"
     height="4.1146731"
     x="36.034538"
     y="32.795998" />
  <rect
     style="opacity:1;color:#000000;fill:#ffdc00;fill-opacity:1;fill-rule:evenodd;stroke:none;stroke-width:0.2;stroke-linecap:butt;stroke-linejoin:miter;marker:none;marker-start:none;marker-mid:none;marker-end:none;stroke-miterlimit:4;stroke-dasharray:none;stroke-dashoffset:0;stroke-opacity:1;visibility:visible;display:inline;overflow:visible"
     id="rect8375"
     width="25.93491"
     height="4.1146731"
     x="32.169243"
     y="50.875618" />
  <path
     id="path9269"
     style="fill:none;fill-opacity:1;fill-rule:evenodd;stroke:#000000;stroke-width:1px;stroke-linecap:butt;stroke-linejoin:miter;stroke-opacity:1"
     d="M 84.039087,180.30082 C 49.021247,180.30082 6.662007,151.96828 5.548577,105.98732 L 5.548577,4.9907955 L 84.319637,4.9907955 L 163.09069,4.9907955 L 163.09069,105.98732 C 161.97726,151.96828 119.61802,180.30082 84.039087,180.30082 z "
     sodipodi:nodetypes="ccccccc" />
  <path
     style="color:#000000;fill:#ffffff;fill-opacity:1;fill-rule:evenodd;stroke:none;stroke-width:1;stroke-linecap:butt;stroke-linejoin:miter;marker:none;marker-start:none;marker-mid:none;marker-end:none;stroke-miterlimit:4;stroke-dashoffset:0;stroke-opacity:1;visibility:visible;display:inline;overflow:visible"
     d="M 5.486237,100.00234 L 84.163787,100.00234 L 84.039097,110.85011 L 5.984987,110.85011 L 5.486237,100.00234 z "
     id="rect11895"
     sodipodi:nodetypes="ccccc" />
  <path
     style="color:#000000;fill:#ffffff;fill-opacity:1;fill-rule:evenodd;stroke:none;stroke-width:1;stroke-linecap:butt;stroke-linejoin:miter;marker:none;marker-start:none;marker-mid:none;marker-end:none;stroke-miterlimit:4;stroke-dashoffset:0;stroke-opacity:1;visibility:visible;display:inline;overflow:visible"
     d="M 7.917647,123.0071 L 84.101447,123.0071 L 83.976757,133.85487 L 11.845287,133.85487 L 7.917647,123.0071 z "
     id="rect12770"
     sodipodi:nodetypes="ccccc" />
  <path
     style="color:#000000;fill:#ffffff;fill-opacity:1;fill-rule:evenodd;stroke:none;stroke-width:1;stroke-linecap:butt;stroke-linejoin:miter;marker:none;marker-start:none;marker-mid:none;marker-end:none;stroke-miterlimit:4;stroke-dashoffset:0;stroke-opacity:1;visibility:visible;display:inline;overflow:visible"
     d="M 18.827757,145.94948 L 83.976757,145.94948 L 83.976757,156.79725 L 27.929907,156.79725 L 18.827757,145.94948 z "
     id="rect12772"
     sodipodi:nodetypes="ccccc" />
  <path
     style="color:#000000;fill:#ffffff;fill-opacity:1;fill-rule:evenodd;stroke:none;stroke-width:1;stroke-linecap:butt;stroke-linejoin:miter;marker:none;marker-start:none;marker-mid:none;marker-end:none;stroke-miterlimit:4;stroke-dashoffset:0;stroke-opacity:1;visibility:visible;display:inline;overflow:visible"
     d="M 43.827527,168.76723 L 84.163787,168.76723 L 84.101447,180.23844 L 76.308507,179.98907 C 65.273697,177.97329 54.301237,175.08471 43.827527,168.76723 z "
     id="rect12774"
     sodipodi:nodetypes="ccccc" />
  <path
     id="path12780"
     style="fill:none;fill-opacity:1;fill-rule:evenodd;stroke:#000000;stroke-width:1px;stroke-linecap:butt;stroke-linejoin:miter;stroke-opacity:1"
     d="M 84.039087,180.30082 C 49.021247,180.30082 6.662007,151.96828 5.548577,105.98732 L 5.548577,87.533635 L 84.070267,87.533635 L 84.039087,180.30082 z "
     sodipodi:nodetypes="ccccc" />
</svg>
