<?xml version="1.0" encoding="UTF-8" standalone="no"?>
<svg version="1.1" width="470" height="600" 
	xmlns="http://www.w3.org/2000/svg" 
	xmlns:xlink="http://www.w3.org/1999/xlink">

<!--shield background-->
<path fill="silver" d="m 2,2 v 498 a 40,56,0,0,0,40,56 h 149 a 44,44,0,0,1,44,44 
	a 44,44,0,0,1,44,-44 h 149 a 40,56,0,0,0,40,-56 v -498 h -466 z"/>


<!--cross-->
<rect style="fill:#ed1c24;stroke:black;stroke-width:4px" x="2" y="2" width="150" height="180"/>
<path style="fill:silver;stroke:black;stroke-width:2px" d="m 85,84 
	l 7,-75 h -30 l 7,75 	l -55,-6 v 28 l 55,-6 
	l -7,75 h 30 l -7,-75 	l 55,6 v -28 l -55,6 z"/>


<!--pattern-->
<pattern id="bricks_tower" patternUnits="userSpaceOnUse" x="0" y="0" width="35" height="38">
	<rect style="fill:#ed1c24;stroke:black;stroke-width:2px" x="0" y="0" width="35" height="19"/>
	<rect style="fill:#ed1c24;stroke:black;stroke-width:2px" x="-17.4" y="19" width="35" height="19"/>
	<rect style="fill:#ed1c24;stroke:black;stroke-width:2px" x="17.4" y="19" width="35" height="19"/>
</pattern>
<pattern id="bricks_wall" patternUnits="userSpaceOnUse" x="0" y="0" width="35" height="35">
	<rect style="fill:#ed1c24;stroke:black;stroke-width:2px" x="0" y="0" width="35" height="17.5"/>
	<rect style="fill:#ed1c24;stroke:black;stroke-width:2px" x="-17.4" y="17.5" width="35" height="17.5"/>
	<rect style="fill:#ed1c24;stroke:black;stroke-width:2px" x="17.4" y="17.5" width="35" height="17.5"/>
</pattern>


<!--wall-->
<rect fill="url(#bricks_wall)" x="145" y="265" width="180" height="130"/>
<path style="fill:#ed1c24;stroke:black;stroke-width:2px" d="m 140,265 v -18 
	h 10 v 10 h 8 v -10 h 10 v 10 h 8 v -10 h 10 v 10 h 8 v -10 h 10 v 10 h 8 v -10 
	h 10 v 10 h 8 v -10 h 10 v 10 h 8 v -10 h 10 v 10 h 8 v -10 h 10 v 10 h 8 v -10 
	h 10 v 10 h 8 v -10 h 10 v 10 h 8 v -10 h 10 v 18 h -190 z"/>


<!--door-->
<path style="fill:#ed1c24;stroke:black;stroke-width:2px" d="m 190,395 v -95 a 45,35,0,0,1,90,0 v 95 h -90 z"/>
<path style="stroke:black;stroke-width:2px" d="
	M 190,300 h 90 		M 190,317.5 h 90 	M 190,335 h 90 	
	M 190,352.5 h 90 	M 190,370 h 90 
	M 235,300 L 197.851,280.248 	M 235,300 L 220.275,266.927 
	M 235,300 L 249.725,266.927 	M 235,300 L 272.149,280.248"/>
<path style="fill:silver;stroke:black;stroke-width:2px" d="m 210,395 v -95 a 25,19.45,0,0,1,50,0 v 95 h -50 z"/>


<!--towers-->
<g id="tower" style="fill:#ed1c24;stroke:black;stroke-width:2px">
  <path fill="url(#bricks_tower)" d="m 70.5,230.5 c 0.9,98.7 -21.7,166.2 -53,222 h 186 c -31.3,-55.8 -53.9,-123.3 -53,-222 h -80 z"/>
  <path d="m 70.5,230.5 l -23,-16 v -23 
	h 14 v 14 h 14 v -14 h 14 v 14 h 14 v -14 h 14 v 14 h 14 v -14 h 14 v 14 h 14 v -14 h 14 
	v 23 l -23,16 h -80 z"/>
  <path d="m 47.5,214.5 h 126"/>
  <path d="m 95.5,292 v -27 a 15,15,0,0,1,30,0 v 27 h -30 z"/>
  <path style="fill:black;stroke:none" d="m 99.5,285 v -20 a 11,11,0,0,1,22,0 v 20 h -22 z"/>
</g>
<use xlink:href="#tower" transform="scale(-1,1) translate(-470,0)"/>


<!--mountain-->
<path style="fill:#00a651;stroke:black;stroke-width:2px" d="m 468,457 
	c -7.9,-1.6 -16.3,-5.8 -21.7,-11.6 c -8.2,-9.6 -23.6,-18 -31.5,-18.9 c -21.8,-1.8 -41.8,-9.4 -59.3,-24.3 
	c -9.6,-8.1 -32.7,-23.1 -75.3,-21.1 c -9.3,-4.3 -13.8,-3.1 -19.6,-3.4 c -20.7,-4.7 -40.9,-2.3 -52.8,2.9 
	c -17.4,7.7 -27.7,8.4 -40,9 c -18.3,1 -35.3,-0.5 -73.3,38 c -15.3,13.4 -32.7,15.9 -51,17.1 c -13.2,0.9 -26.1,0.5 -41.6,11.3 
	v 44 a 40,56,0,0,0,40,56 h 149 a 44,44,0,0,1,44,44 
	a 44,44,0,0,1,44,-44 h 149 a 40,56,0,0,0,40,-56 v -44 z"/>

<g fill="black">
  <path d="m 316.3,383.9 c 8.6,3.9 18.1,7.5 24.2,12.7 4.9,4.2 9.6,8.5 16.7,11.6 13.9,5.9 21.6,14.1 31.1,21.6 -2.5,-2.8 
	-4.8,-5.6 -6.4,-8.1 4.4,0.3 9,1.6 11.6,3.5 4.6,3.3 9.3,6.1 16.2,5.1 8.1,-1.2 16.1,2.9 21.2,9.9 8.7,11.4 
	27.9,18.1 37.1,28 v -11 c -7.9,-1.6 -16.3,-5.8 -21.7,-11.6 -8.2,-9.6 -23.6,-18 -31.5,-18.9 -21.8,-1.8 
	-41.8,-9.4 -59.3,-24.3 -15.6,-13.3 -32.3,-16.7 -39.2,-18.5 z"/>
  <path d="m 270.1,378.1 c 1.1,2.5 3.1,4.5 5.5,6.5 6.3,5 11.8,12.3 12.7,19.1 2.4,14.6 11.2,26.7 20.5,38.8 C 294.9,428.7 
	285.9,413.1 285.7,407.9 285.7,395.3 275.3,386.4 264,377.8 Z" />
  <path d="m 90.9,430.7 c -4.6,10.3 -12.6,19.8 -30.5,27.4 12.3,-7.7 22.9,-15.3 23.5,-22.9 z" />
  <path d="m 186.2,415.4 c -20.8,26.4 2.5,25.9 18.4,6.4 -4.5,9.2 -9.4,17.7 -15.4,24.4 2.8,-7.2 0.9,-8.8 -3.4,-7.6 
	-5.2,1.1 -9,-0.2 -11.2,-2.5 -1.9,-2.1 -4.8,-1.7 -6.9,0.4 -6.3,6.1 -12.7,9.4 -19,11.5 14.4,-9.3 26.3,-20.7 37.6,-32.6 z" />
  <path d="m 98.4,487.9 c -5.9,9.7 -17.7,16.3 -19.4,18.6 -3.5,4.7 -8.4,3.5 -10.9,0.5 -1.7,-2 -2.6,-5.4 -7.4,-0.3 
	-2.1,2.9 -12.7,5.4 -23.8,17.9 -1.4,-0.8 -3,-1 -4.7,-1.1 -0.2,-1.2 0.2,-2.3 1.1,-3.4 1.9,-0.1 3.8,-0.3 
	5.3,-1.6 3.5,-3.5 8.2,-3.9 23.9,-16.5 3.5,-2.5 4.9,-1.8 5.7,-0.7 3.7,4.3 8,3 11.9,0.6 2.3,-1.5 12.5,-9.3 18.3,-14.1 z" />
  <path d="m 108,556 h -10 c 7.7,-15.9 34,-30.1 48.8,-51.6 c -4,20.5 32.3,10.1 47.5,-1.9 6.9,3.6 12.5,3.9 16.8,0.9 
	0.5,8.1 -1.4,15.7 -5.8,22.8 -0.5,-8.9 -0.7,-22.6 -14,-17.1 -5.9,2.5 -10.8,5.3 -18.9,7.1 -3.4,5.9 -6.8,9.3 
	-10.3,11 1.3,-4.7 -13.8,-17 -25.1,-7.6 l -27.8,26.5 c -2.6,2.9 1.3,6.1 -1.1,9.8 z" />
  <path d="m 337,533 c -1.2,0.1 -16,-17.3 -17.1,-19.8 -2.6,-5.9 -31.2,-7.8 -23.1,12.4 -5.7,-9 -7.3,-29.7 -34.6,-14.3 
	-1.1,-1.1 -1.3,-2.6 -1.1,-4.3 3.1,-0.8 6.2,-1.9 9,-4.1 3.1,-2.7 16.8,-1.7 23.6,7.4 11,-5.5 18.7,-3.3 
	27.1,-2.7 3.9,8.9 10,17.1 16,25.4 z" />
  <path d="m 468,507 c -18.6,9.1 -29,2.8 -37.3,-7.6 c 5.8,9.8 14,18.8 10.2,25.7 c -18,31.1 -45,10.4 -73.7,-22.6 
	c 7.2,11.5 16.6,21.8 27.8,31.2 6.9,5.8 10.5,12.9 0,22.2 	h 33 a 40,56,0,0,0,40,-56 z"/>
</g>


<!--shield edge-->
<path style="fill:none;stroke:black;stroke-width:4px" d="m 2,2 
	v 498 a 40,56,0,0,0,40,56 h 149 a 44,44,0,0,1,44,44 
	a 44,44,0,0,1,44,-44 h 149 a 40,56,0,0,0,40,-56 v -498 h -466 z"/>

</svg>