<?xml version="1.0" encoding="UTF-8"?>
<!-- Created with Inkscape (http://www.inkscape.org/) -->
<svg id="Reino_Leon" width="750" height="500" version="1.0" xmlns="http://www.w3.org/2000/svg" xmlns:cc="http://creativecommons.org/ns#" xmlns:dc="http://purl.org/dc/elements/1.1/" xmlns:rdf="http://www.w3.org/1999/02/22-rdf-syntax-ns#" xmlns:xlink="http://www.w3.org/1999/xlink">
 <metadata id="metadata16688">
  <rdf:RDF>
   <cc:Work rdf:about="">
    <dc:format>image/svg+xml</dc:format>
    <dc:type rdf:resource="http://purl.org/dc/dcmitype/StillImage"/>
   </cc:Work>
  </rdf:RDF>
 </metadata>
 <g id="layer1" transform="translate(540.8646 -232.3956)">
  <rect id="rect15225" x="-539.6146" y="233.6456" width="747.5" height="497.5" style="fill:#e3e4e5;stroke-width:2.5;stroke:#aa8800"/>
  <g id="g5628" transform="matrix(.9921716 0 0 .9921716 -735.0922 393.6372)" style="fill:#630b57">
   <g id="g5631" transform="matrix(.576 0 0 .576 1033.633 -198.1154)" style="fill:#630b57">
    <g id="g15927" transform="translate(-1432.404 -1964.693)" style="fill:#630b57">
     <g id="g26480" transform="matrix(3.432389 0 0 3.432389 -1967.709 1283.445)" style="fill:#630b57;stroke:#aa8800">
      <path id="path26482" d="m667.7807 437.9278c3.20926-5.2481 5.06745-5.24916 8.21158-5.66191 0.13903 1.17939 0.35369 1.96912-0.21223 3.14255 0.421 3.62295-5.9683 3.16735-7.99935 2.51936z" style="fill-rule:evenodd;fill:#eac102;stroke-linejoin:bevel;stroke:#aa8800"/>
      <g id="g26484" transform="matrix(.5499721 0 0 .4618875 2172.075 -485.8184)" style="fill:#eac102;stroke-linejoin:bevel;stroke-width:1.98409;stroke:#aa8800">
       <path id="path26486" d="m-2462.652 2039.669c-7.9822-10.7258-5.7471-18.8338-3.2597-22.3835 2.3008 0.8996 4.2532 1.8229 6.4419 4.4203 3.265 2.6683 0.953 13.6344-3.1822 17.9632z" style="fill-rule:evenodd;fill:#eac102;stroke-linejoin:bevel;stroke-width:1.98409;stroke:#aa8800"/>
       <path id="path26488" d="m-2484.983 2035.764c-4.753-13.6682 0.4525-20.0962 3.6101-22.1002 1.9031 1.9479 3.4799 3.7462 4.8664 7.1815 3.9171 5.263-3.716 15.6379-8.4765 14.9187z" style="fill-rule:evenodd;fill:#eac102;stroke-linejoin:bevel;stroke-width:1.98409;stroke:#aa8800"/>
       <path id="path26490" d="m-2507.6 2006.154c7.3127-11.7979 14.1922-11.0443 19.958-11.0078-0.1 2.938 0.058 6.2973-0.8291 10.3949-2.4509 6.4728-16.0121 3.8861-19.1289 0.6129z" style="fill-rule:evenodd;fill:#eac102;stroke-linejoin:bevel;stroke-width:1.98409;stroke:#aa8800"/>
       <path id="path26492" d="m-2497.302 1982.154c12.1164-6.362 17.203-1.7758 22.33 2.0494-1.3603 2.4467-3.9635 3.8207-6.0601 5.2354-2.1669 4.0498-12.1556-0.5872-16.2699-7.2848z" style="fill-rule:evenodd;fill:#eac102;stroke-linejoin:bevel;stroke-width:1.98409;stroke:#aa8800"/>
      </g>
      <g id="g26494" transform="matrix(.5499721 0 0 .4618875 2171.798 -486.285)" style="fill:#eac102;stroke-linejoin:bevel;stroke-width:1.98409;stroke:#aa8800">
       <path id="path26496" d="m-2745.558 1655.468c13.9962-2.8069 18.4361 0.051 22.7391 6.9233-0.6511 1.7811-3.8226 5.6911-6.678 6.2096-3.4906 0.4161-12.2351-2.4398-16.0611-13.1329z" style="fill-rule:evenodd;fill:#eac102;stroke-linejoin:bevel;stroke-width:1.98409;stroke:#aa8800"/>
       <path id="path26498" d="m-2694.972 1646.643c4.0932 6.8946 7.9865 18.2401 5.4421 22.3659-2.8836 0.041-7.4448-2.7196-9.2871-5.584 1.7551-2.2413-8.162-5.8243 3.845-16.7819z" style="fill-rule:evenodd;fill:#eac102;stroke-linejoin:bevel;stroke-width:1.98409;stroke:#aa8800"/>
       <path id="path26500" d="m-2752.559 1679.167c10.084-6.3404 18.7479-8.5283 24.7051-3.1127-1.2269 2.4647-1.1551 6.0498-3.4673 7.6029 0.4086 3.709-13.7471 3.8106-21.2378-4.4902z" style="fill-rule:evenodd;fill:#eac102;stroke-linejoin:bevel;stroke-width:1.98409;stroke:#aa8800"/>
       <path id="path26502" d="m-2719.326 1639.769c9.7172 6.5969 11.6906 14.9688 10.3719 20.7172-3.0535 0.8223-6.4552 0.4048-8.7654-0.9912-2.9207-1.4299-4.813-10.3734-1.6065-19.726z" style="fill-rule:evenodd;fill:#eac102;stroke-linejoin:bevel;stroke-width:1.98409;stroke:#aa8800"/>
      </g>
      <path id="path26504" d="m672.089 297.6216 2.85535-5.83734c-2.75124-0.45029-5.29398-4.34553-7.07562-5.13055-1.78147-0.78484-3.27942 4.58737-3.27942 4.58737 0.6813 2.04847 2.75838 5.11213 7.49969 6.38052z" style="fill-rule:evenodd;fill:#630b57;stroke-linejoin:bevel;stroke:#aa8800"/>
      <path id="path26506" d="m679.455 308.6219c3.15096 4.47925 4.21273 10.42877 7.95326 11.42765 33.75888 9.01466 8.94254 1.0556 12.77502 1.50802 3.83249 0.45242 6.82318 6.42605 10.65566 6.87843 3.83248 0.45241 11.06208-4.31477 14.89462-3.86235 3.83248 0.45237 9.94641-0.67778 12.77519 1.50801l1.70612-22.52357c-26.30203-4.90668-30.08638 4.7288-44.42295-1.47841-4.72178-2.39512-7.32689-11.13463-7.1217-12.94906 0.20773-1.83799 2.10051-1.80432 3.31524-2.77105 1.26284-1.00502 1.72185-1.76543 2.26203-2.71936 0.51626-0.91122-1.05452-1.03833-1.9056-1.6088-0.85075-0.57062-3.80151-4.64271-6.82559-2.9177-3.12016 1.7796-10.50425 3.70212-11.73745 0.17843-1.20801-3.45331-5.40584 2.77668-6.54824 3.91043-1.14208 1.13365-0.45934 2.73876 0.58489 3.37335z" style="fill-rule:evenodd;fill:#630b57;stroke-linejoin:bevel;stroke:#aa8800"/>
      <path id="path26508" d="m679.3463 307.8116c-7.28746-3.98983-10.30846-8.73203-8.31684-13.79644 2.01526-5.1252 7.10283-8.64044 8.24458-9.56435-1.21484 0.98414-2.54104 1.82621-3.53154 2.85446-0.9905 1.02844-0.60975-0.88174-1.26901-3.22623-0.65908-2.3445-1.52798-5.53568 0.61795-6.33017 2.14594-0.79454 10.93059 0.23561 9.23475 1.98228-1.73346 1.78543-3.30154 7.65435-2.32506 13.25345 1.00848 5.78195 0.52203 11.85462-2.65483 14.827z" style="fill-rule:evenodd;fill:#630b57;stroke-linejoin:bevel;stroke:#aa8800"/>
      <path id="path26510" d="m690.2715 309.444c-1.13097-1.34335-2.00647-1.88722-8.876-1.67041-1.46716-0.0204-5.17265 0.48101-7.39718 0.51657-5.00849 0.45524-4.20272-4.15652-1.74121-1.18206 2.68106-0.24198 2.287-3.1625-0.1612-3.12356-11.33905 1.15222 2.46426 13.6321 12.58281 12.52643" style="fill-rule:evenodd;fill:#630b57;stroke-linejoin:bevel;stroke:#aa8800"/>
      <path id="path26512" d="m686.7202 311.0599c-1.39275 0.73615-4.50262 3.12637-6.56551 4.30636-4.36755 3.01696-7.01429-1.82829-2.50738-0.23871 2.33903-1.61355-0.18639-4.2161-2.45667-2.91765-9.79847 6.9473 12.37486 11.82622 21.06118 5.55226" style="fill-rule:evenodd;fill:#630b57;stroke-linejoin:bevel;stroke:#aa8800"/>
      <path id="path26514" d="m687.6724 317.7277c-1.48635 0.61348-1.77707 2.56528-3.99235 3.56392-4.76991 2.6329-6.63943-2.44583-2.43693-0.45934 2.55424-1.40779 0.46121-4.23297-1.97693-3.13423-10.72808 6.08573 10.39739 12.91668 19.92571 7.40659" style="fill-rule:evenodd;fill:#630b57;stroke-linejoin:bevel;stroke:#aa8800"/>
      <g id="g26516" transform="matrix(.5499721 0 0 .4618875 2171.798 -486.285)" style="fill:#eac102;stroke-linejoin:bevel;stroke-width:1.98409;stroke:#aa8800">
       <path id="path26518" d="m-2734.942 1802.047c12.7742-0.6148 15.7682 3.9319 18.5051 11.5057-2.0673 1.3891-5.9468 1.0562-8.5453 1.1274-2.8835-0.3211-7.5213-6.771-9.9598-12.6331z" style="fill-rule:evenodd;fill:#eac102;stroke-linejoin:bevel;stroke-width:1.98409;stroke:#aa8800"/>
       <path id="path26520" d="m-2759.439 1820.967c5.402-5.6634 17.1015-5.5432 22.7265-2.9097-0.2096 3.0774-2.9115 7.1509-6.1211 8.0618-3.5469 4.1299-14.3077-1.4126-16.6054-5.1521z" style="fill-rule:evenodd;fill:#eac102;stroke-linejoin:bevel;stroke-width:1.98409;stroke:#aa8800"/>
       <path id="path26522" d="m-2757.517 1861.67c3.0302-13.0542 6.9711-16.9216 13.1486-19.2957 0.8763 2.4344 5.4372 7.9079 4.6901 10.7621-1.4899 7.0076-14.7051 8.6392-17.8387 8.5336z" style="fill-rule:evenodd;fill:#eac102;stroke-linejoin:bevel;stroke-width:1.98409;stroke:#aa8800"/>
       <path id="path26524" d="m-2732.562 1883.829c-4.4606-12.3656-1.7384-19.4641 1.3283-25.1484 2.0186 1.3776 6.8791 4.3944 8.0554 6.9122 1.45 5.6368-5.1389 16.7475-9.3837 18.2362z" style="fill-rule:evenodd;fill:#eac102;stroke-linejoin:bevel;stroke-width:1.98409;stroke:#aa8800"/>
      </g>
      <path id="path26526" d="m680.7866 359.9868c-7.47555 2.70361-11.02249-0.88507-13.58668-3.10195-2.56419-2.21678 0.0323-4.52377 1.407-5.65281 1.37471-1.12918 5.0169 0.28051 6.52052-0.0682 1.50329-0.3485 2.53939-1.43439 3.63796-0.18416 1.09824 1.25024 0.15415 3.92152 0.21102 5.23148 0.057 1.30973 0.99204 2.42181 1.81018 3.77561z" style="fill-rule:evenodd;fill:#630b57;stroke-linejoin:bevel;stroke:#aa8800"/>
      <path id="path26528" d="m706.3502 343.4777c-1.90665 4.88742-3.39559 8.9766-5.47333 10.49713-8.7187 6.3801-18.31946 8.384-23.38992 4.73056-3.95001-2.84642-7.41341-4.28428-8.12799-5.56357-0.95898-1.71721-5.69358-1.5536-7.70439 0.37538-2.01147 1.92916-2.12894 6.02657-1.94278 7.09607 0.15691 0.90072 1.87552 2.7564 3.08898 2.95797 0.29649-0.069 0.69951-0.1491 1.03433-0.21293 1.30107-0.51556 3.94247-0.7896 5.50984-0.65131-2.26088 0.1563-4.02948 0.36868-5.50984 0.65131-0.11269 0.0446-0.30898 0.12134-0.39851 0.16937-0.17764 0.0953-0.40803 0.0814-0.63582 0.0436-2.56419 0.59694-3.71617 1.3476-3.65589 2.15272 0.10395 1.3943 2.70581 5.61433 3.8883 6.94753 1.18217 1.33305 2.76427 1.82505 3.82154 0.51385 1.05699-1.31107 5.26164-3.65571 7.91509-5.26483-5.19416 3.38702-5.79654 3.86665-6.71236 5.80542-0.8684 1.83725 3.46114 4.44359 4.8908 5.27184 1.42981 0.82845 2.04782 0.62554 5.40892-1.21259 3.31765-1.81485 3.09793 0.43764 8.15504-1.35735 18.15518 1.40469 41.00817-13.86073 59.33995-13.50259 0.45302-1.02322 0.71304-1.7627 0.93589-2.41424-0.0771-0.74904 0.0449-1.34326 0.17192-1.70616-0.18737-1.62132-0.24287-3.36688-0.88221-5.18617-0.86241-2.45377-1.04115-4.23084-2.71114-6.27395-4.19013-5.12635 45.4514-56.18187-37.01642-3.86702zm40.43785 17.0333c0.0241 0.23534 0.29149 0.54706 0.71045 0.92401-0.029-0.10665-0.0573-0.23131-0.0927-0.33251-0.16548-0.47076-0.2614-0.9538-0.34532-1.46275-0.0678 0.25131-0.15548 0.52881-0.27246 0.87125z" style="fill-rule:evenodd;fill:#630b57;stroke-linejoin:bevel;stroke:#aa8800"/>
      <path id="path26530" d="m699.9233 371.6843c-0.5272 1.83614-1.17567 2.73012-8.43712 4.97785-1.51853 0.55108-5.62165 1.3549-7.95634 2.11946-5.43823 1.32304-2.36361 5.9348-1.2409 1.88474 2.91018-0.70979 3.9152 2.53691 1.34589 3.37866-3.09276 0.71652-4.8915 0.11348-5.67714-1.23273-0.78547-1.34627-0.55783-3.43571 0.40269-5.69207 0.96047-2.25637 5.22292-2.6905 7.36831-4.70438 2.14544-2.01387 4.3148-2.71418 2.80211-6.22624" style="fill-rule:evenodd;fill:#630b57;stroke-linejoin:bevel;stroke:#aa8800"/>
      <path id="path26532" d="m707.6782 367.4833c0.0303 1.88917-0.33432 2.89128-6.70531 6.59437-1.30838 0.85288-5.04566 2.49373-7.08161 3.72489-4.87748 2.42431-0.54106 6.24491-0.64676 2.08626 2.60956-1.29906 4.53952 1.63429 2.29888 2.98956-2.78429 1.34391-4.7043 1.13791-5.86177-9.2e-4 -1.15736-1.13879-1.55229-3.21044-1.28682-5.59766 0.26563-2.38727 4.26619-3.70351 5.75078-6.10491" style="fill-rule:evenodd;fill:#630b57;stroke-linejoin:bevel;stroke:#aa8800"/>
      <path id="path26534" d="m680.049 415.4141c5.08537 1.43171 5.60306 4.7179 5.87876 7.43412-1.41425 0.0547-3.48622 0.23949-4.84487-0.30928-2.1571 0.0224-3.37094-5.133-1.03389-7.12484z" style="fill-rule:evenodd;fill:#eac102;stroke-linejoin:bevel;stroke:#aa8800"/>
      <path id="path26536" d="m673.9338 445.3213c2.66082-5.03887 4.33141-5.46201 7.14089-6.51562 0.17539 0.93703 1.17584 2.31443 0.71733 3.4067-1.2942 2.56269-5.33649 3.14032-7.85822 3.10892z" style="fill-rule:evenodd;fill:#eac102;stroke-linejoin:bevel;stroke:#aa8800"/>
      <path id="path26538" d="m771.6769 371.072c-0.0686 7.9e-4 -0.13689 9e-3 -0.20624 0.0289-0.16818 0.0472-0.33581 0.20327-0.48122 0.40415 0.53204-0.017 1.09879-0.0366 1.59833-0.0433 0 0-0.43036-0.395-0.91087-0.38974zm-0.68746 0.43307c-20.18717 0.64581-62.8435 8.60764-65.46384 14.33292-7.7099 6.89279 0.2708 13.32555 2.6639 20.16425 7.92125 8.37111 3.51625 22.73217-1.11716 20.69838 0.30644-2.90527-12.42816-1.75933-15.94919 0.17321-0.72217-0.36955-1.36828-0.9295-2.02797-1.48672-0.72118-0.609-1.36877-1.69531-1.9249-2.1651-0.8496-0.71745-1.71773-2.30075-2.78429-2.52592-0.78376-0.16554-2.28882-0.75163-3.21387-0.36088-1.10682 0.46739-2.36565 0.36166-2.78423 1.61661-0.0582 0.0983-0.0998 0.20152-0.12034 0.30314-0.14151-0.0683-0.27581-0.12393-0.41248-0.1588-0.62867-0.24365-1.49686-0.12471-1.77019 0.76498l0.48122 8.09749c-0.0156 0.17704-0.0363 0.36835-0.0515 0.54849-0.18452-0.17667-0.58072-0.30203-0.8078-0.46189-0.50405-0.084-2.22854 0.82484-3.16234 1.14031-0.86598 0.29256-0.91086 1.39324-0.91086 2.12177-6e-5 1.11477 0.61113 0.7914 0.91086 1.80427 0.25502 0.86128 3.17197 3.36093 4.12479 3.52189 0.2052 0.0347 0.361 0.0211 0.53282 0 0.0138 0.84651 0.0932 1.48021 0.22339 1.48668 0-4e-5 1.92661 2.0699 3.26546 2.13623 1.051 0.0521 3.45988-0.40738 4.65755-0.63509 0.0165-3e-3 0.0359 3e-3 0.0516 0 0.52907 0.0739 1.18964 0.0318 2.13114-0.10102 0.72277-0.10194 1.21027-0.20365 1.71866-0.30314 0.0305-6e-3 0.0735 6e-3 0.10312 0 14.29235-0.76502 26.83479 4.5423 42.88061-0.31754 9.84863-3.71048 5.17277-29.46732 3.69516-34.8581-1.92348-15.10427 15.26073 2.64334 35.8513-24.27791-1.70684-7.60969-1.44488-10.35543-0.79058-11.25851z" style="fill-rule:evenodd;fill:#630b57;stroke-linejoin:bevel;stroke:#aa8800"/>
      <path id="path26540" d="m669.0059 422.3714c5.3058-1.91415 7.03293-0.36632 9.16534 1.79799-0.36051 1.40732-2.1262 2.76089-3.22257 3.31025-2.86837 0.82729-5.56274-2.94166-5.94277-5.10824z" style="fill-rule:evenodd;fill:#eac102;stroke-linejoin:bevel;stroke:#aa8800"/>
      <path id="path26542" d="m817.9556 434.6364c-1.69754 2.37341-8.15367 2.26907-11.53484 2.13761-3.47247-0.13496-5.43686-3.61039-4.15311-4.04775 1.25855-0.42886 2.15638-1.93448 2.00596-3.28217-0.1613-1.44437 4.44004-2.02293 5.59053-1.89522 1.06034 0.11774 1.9205 3.2225 3.24791 4.87342 1.37345 1.70862 3.40158 1.98714 4.84355 2.21411z" style="fill-rule:evenodd;fill:#630b57;stroke-linejoin:bevel;stroke:#aa8800"/>
      <path id="path26544" d="m773.3874 370.7552c-0.0817 0.33648-6.82757-2.30685-10.00141-2.98426-3.72996-0.79606-5.60751-0.96156-9.95818-0.898-4.41242 0.0645-6.87987 1.8354-7.64895 2.61608-1.69029 1.71564 5.34358 0.59547 7.73535 1.55652 3.37095 1.35448 5.4582 1.15869 8.99914 2.58149 3.3022 1.32686 5.62831 3.61732 8.0616 5.30824 4.71277 3.27483 4.16307-1.98953 3.13864-4.42839-0.49668-1.18248-0.2174-2.50112-0.32619-3.75168z" style="fill-rule:evenodd;fill:#630b57;stroke-linejoin:bevel;stroke:#aa8800"/>
      <path id="path26546" d="m742.5508 304.5685c-0.58918 0.0244-1.13382 0.0493-1.70128 0.0899-25.23679 1.80071-29.26644 19.17539-31.54992 31.40525 6.51403 0.20605 9.62407 3.22084 14.74403 7.68295 2.03529 1.77369 2.54946 3.45542 3.86642 5.75091 0.97631 1.70169 1.36283 3.41515 1.85577 4.98705 0.093-0.62096 0.36007-0.56933 0.25777 0.80872 0.17935 0.48881 0.36656 0.99837 0.61866 1.43771 0.0473 0.0825 0.0599 0.18217 0.10312 0.26956 8.8809 5.12316 16.9155 7.10665 27.73867 5.75133 11.83216 4.53588 9.08983 25.53859 9.752 32.07227-0.69214 6.84817 4.9547 17.58567 12.32834 20.60184 10.53697-0.34018 25.65939-5.76066 33.21474 3e-3 3.67101 6.57118-0.11869 4.20756 2.45199 17.4878-0.5354 4.28687-8.42975 2.07766-11.23835 0.629-2.86354-1.47698-4.5277 0.85546-4.27884 2.02186 0.29001 1.35952 0.34803 2.12094 0.15466 3.32476-0.19046 1.18497-0.99149 2.92116-0.20619 3.99861 0.6642 0.91153 2.66093 1.08894 4.17572 0.40443 0.87319-0.72877 1.98254-1.4737 3.14463-2.06672-0.75121 0.44508-1.46353 0.93967-2.42285 1.57241-0.23346 0.18364-0.44635 0.36964-0.72178 0.49431-0.80329 0.67015-1.41629 1.33379-1.54647 1.93189-0.4535 2.08011 6.93158 4.89878 8.55751 4.35818 0.60563-0.20143 1.80562-1.26233 3.04157-2.47119-0.52396 0.73944-0.92236 1.39028-0.87627 1.79716 0.18754 1.66016 3.7931 2.98791 5.87684 3.0552 2.08379 0.0674 2.63189-1.74986 5.87705-4.71749 3.245-2.96762 3.61992-7.19907 5.23354-12.03743 7.70148-10.24157 5.44109-27.24443 4.80153-32.58718-3.37122-1.75882-14.67771-4.40202-23.11346-2.33697-2.98569-2.79386-7.59357-7.96543-4.29902-20.06582 2.99647-9.88643 0.36414-14.26526-4.49894-18.86002-10.20126-7.57325-20.87782-8.97304-23.75973-19.72726-0.36347-15.20511-15.34713-28.52839-18.86805-28.79938-5.78456-2.10298-13.70476-8.47342-18.71341-8.26696zm77.39207 137.0648c0.043-8e-3 -2.7074 3.08869-5.10374 5.43646 1.62682-2.27433 5.05441-5.42727 5.10374-5.43646z" style="fill-rule:evenodd;fill:#630b57;stroke-linejoin:bevel;stroke:#aa8800"/>
      <path id="path26548" d="m807.1329 377.5961c49.13902-2.17724 21.73023-25.99535 40.16513-51.55819 3.004-4.29163 7.00978-9.93774 9.83075-16.19488 5.03087-16.54597 4.28956-37.35044-17.70223-43.6917-0.36755-0.0192-0.72871-0.029-1.09994-0.0289-5.56814 1e-3 -11.44553 2.20155-14.76329 7.70775-0.77706 10.04536-2.8763-2.93058-11.76324 3.67307-4.78437 5.4948-7.17972 13.77506-4.01304 20.68 1.40985 1.95932 1.34727 1.38529 2.31912 3.53339 5e-3 0.0146 0.0125 0.0287 0.0172 0.0433-2.03302 10.89749 18.74261 10.30568 20.8302 8.22732 1.16858-7.71449 0.27262-10.81098 4.301-13.63399 5.98028-4.19094 6.16518-12.41494 0.90657-15.49374-4.16884-3.00112-6.6391 0.5568-8.14646-2.94454 3.60105-4.87217 4.66723-5.09452 7.44184-5.58597 24.25492 2.04191 17.83625 40.41409 1.59833 55.85952-12.09153 19.15747-1.36905 30.48808-12.09939 39.41919-8.82128 3.8726-11.79652 1.40473-16.6195-0.82272" style="fill-rule:evenodd;fill:#630b57;stroke-linejoin:bevel;stroke:#aa8800"/>
      <path id="path26550" d="m785.1971 408.1978c0.64401 1.64446 1.42024 6.03572 2.29426 8.55762 1.39132 5.83951 8.14542 2.94574 2.54434 1.45292-0.74714-3.12518 3.90766-3.93875 4.87011-1.1635 2.96253 13.27331-26.96007 5.11522-26.40169-17.3545" style="fill-rule:evenodd;fill:#630b57;stroke-linejoin:bevel;stroke:#aa8800"/>
      <path id="path26552" d="m715.6273 391.7048c0.28175 1.86811 0.043 2.83932-5.95823 6.16565-1.22017 0.77421-4.81116 2.20043-6.72242 3.31067-4.64897 2.14071 0.27746 6.14195-0.38229 2.0275 2.48709-1.14742 4.843 1.85171 2.73974 3.07386-10.63701 4.72996-10.46965-14.32059-0.90624-18.46718" style="fill-rule:evenodd;fill:#630b57;stroke-linejoin:bevel;stroke:#aa8800"/>
      <path id="path26554" d="m682.77 437.2317c-1.11001 0.49385-3.43457 2.00422-5.00001 2.3329-1.47893 0.31053-0.7368 2.27161-0.55553 3.03276 0.18331 0.76969 4.31288 1.633 5.27775 1.633 2.29509 0 2.95748-1.19379 3.61112-2.56616 0.0549-0.11514-2.71114-3.77934-3.33333-4.4325z" style="fill-rule:evenodd;fill:#630b57;stroke-linejoin:bevel;stroke:#aa8800"/>
      <path id="path26556" d="m695.138 442.8231c-7.62553 0.98964-12.98028-0.55528-15.26816-4.72234-2.31549-4.21694-1.46738-8.89683-1.37295-10.03257-0.0997 1.20913-0.37354 2.38205-0.2944 3.51086 0.0793 1.12894-1.02724-0.26406-3.12604-1.43033-2.0987-1.16631-4.93672-2.76749-4.09014-4.30572 0.84657-1.53827 7.35417-5.12394 7.47989-3.20004 0.12847 1.96662 3.26629 6.43871 7.88545 9.51238 4.77012 3.17405 8.7638 7.25335 8.78635 10.66776z" style="fill-rule:evenodd;fill:#630b57;stroke-linejoin:bevel;stroke:#aa8800"/>
      <path id="path26558" d="m699.5578 433.7143c-1.79368 0.48096-2.60803 0.95523-3.80818 5.59748-0.33377 0.97777-0.536 3.56069-0.96481 5.05688-0.53122 3.44568-5.69843 1.95877-1.73588 0.92248 0.28615-1.84413-3.17724-2.18043-3.64939-0.53385-1.06183 7.82581 16.29815 1.15158 17.15588-5.84782" style="fill-rule:evenodd;fill:#630b57;stroke-linejoin:bevel;stroke:#aa8800"/>
      <path id="path26560" d="m712.7138 434.0673c-1.7884 0.49491-2.59751 0.9755-3.74646 5.62689-0.32283 0.98022-0.49674 3.56471-0.90905 5.06418-0.4931 3.44961-5.67659 2.00293-1.72565 0.93588 0.26597-1.8463-3.20111-2.15558-3.65489-0.50544-0.97565 7.83379 16.31014 1.02479 17.09071-5.98094" style="fill-rule:evenodd;fill:#630b57;stroke-linejoin:bevel;stroke:#aa8800"/>
      <path id="path26562" d="m725.332 434.1458c-1.75216 0.57879-2.52773 1.09693-3.36248 5.7953-0.25661 0.99407-0.25656 3.58263-0.56751 5.09919-0.26069 3.46748-5.53305 2.26865-1.66004 1.0162 0.14146-1.85591-3.34075-2.00057-3.68322-0.33159-0.44784 7.86751 16.35298 0.25071 16.66185-6.78088" style="fill-rule:evenodd;fill:#630b57;stroke-linejoin:bevel;stroke:#aa8800"/>
      <path id="path26564" d="m822.9278 426.8173c-0.15091 1.5852 0.0608 2.40256 4.69148 5.11056 0.94474 0.63357 3.69719 1.7766 5.17375 2.68218 3.57301 1.72894-8e-3 5.20044 0.35451 1.70838-1.91159-0.92682-3.5884 1.65176-1.96351 2.64847 8.16978 3.81385 7.41907-12.2985 0.0774-15.63767" style="fill-rule:evenodd;fill:#630b57;stroke-linejoin:bevel;stroke:#aa8800"/>
      <path id="path26566" d="m825.4535 417.9453c0.24502 1.57688 0.65458 2.33936 5.85473 4.17906 1.08103 0.45464 4.05654 1.09181 5.72516 1.71952 3.92295 1.06686 1.2805 5.08806 0.76979 1.60907-2.09935-0.5726-3.10074 2.24261-1.26449 2.93359 8.93572 2.30302 4.2102-13.32564-3.79789-15.30903" style="fill-rule:evenodd;fill:#630b57;stroke-linejoin:bevel;stroke:#aa8800"/>
      <path id="path26568" d="m827.6706 407.1392c0.30144 1.57001 0.73823 2.32177 6.00229 4.02877 1.09686 0.42706 4.09377 0.98849 5.78411 1.5737 3.95969 0.96691 1.46293 5.05319 0.82727 1.58885-2.11883-0.51917-3.01858 2.3201-1.15835 2.96425 9.01426 2.07554 3.72936-13.42628-4.34643-15.20584" style="fill-rule:evenodd;fill:#630b57;stroke-linejoin:bevel;stroke:#aa8800"/>
      <path id="path26570" d="m766.2416 285.442c-10.27354-2.4407-21.96523-2.88624-26.68206-1.46677-26.79123 7.04134-34.60936-16.12971-17.83252-23.54356-2.73512 13.27511-2.75151 18.51084 15.46208 17.49242 6.83016-1.12368 14.31737-0.85966 28.22782 2.88541 0.47853 0.82706 0.88138 3.19543 0.82468 4.6325z" style="fill-rule:evenodd;fill:#d40000;stroke-linejoin:bevel;stroke:#aa8800"/>
      <path id="path26572" d="m737.3331 291.159s-1.95906-6.10413-0.45906-5.1846c1.71272 1.04992 3.94984 3.97015 3.94984 3.97015s-0.52704-2.80545 0.5332-3.01991c1.20933 0.45524 2.40882 2.83447 2.40882 2.83447z" style="fill-rule:evenodd;fill:#630b57;stroke-linejoin:bevel;stroke:#aa8800"/>
      <path id="path26574" d="m759.6063 305.7841c-2.12641 0.44905-8.93985-0.51145-11.20271-0.51145-2.92459 0-5.38824-0.51149-8.47788-0.51149-2.14186 0-4.28384-0.0947-6.35833 0.25574-3.90563 0.65981-7.82413 1.05782-11.50553 2.30164-2.1802 0.73652-3.39008 1.30377-5.14724 2.04588-1.56682 0.6617-3.71688 5.51156-4.54173 6.9048-0.93451 1.57878 0.60563 5.12238 0.60563 6.90485 0 2.05605 1.49114 4.29957 2.11937 5.62616 0.75412 1.5925 3.61359 2.79645 5.14725 4.09177 3.63344 3.06892 9.41728 5.12344 13.92788 6.39335 2.37884 0.66974 5.00353 0.51145 7.56943 0.51145 3.0458 0 8.01677-0.56031 10.89989-1.53439 3.30154-1.11541 7.82259-1.39605 10.90007-2.04588 3.474-0.73353 6.55269-2.50242 9.68896-4.09173 3.68845-1.86925 5.80782-3.13085 8.47771-6.13765 2.35179-2.64855 3.31832-5.32912 4.23891-8.43924 0.68362-2.30967 0.60547-5.54764 0.60547-7.92779 0-3.0098 0.50614-5.20621 1.21115-8.18349 0.0817-0.34466 0.20189-0.68198 0.30281-1.02294 0.10087-0.34097 0.2019-0.68198 0.30282-1.02295 0.74521-2.51802 1.37124-5.1445 2.11937-7.67204 0.7649-2.58384 1.43185-5.41808 2.42219-7.92774 0.85432-2.16473 1.21109-3.28292 1.21109-5.62616 0-1.16068-2.40607-3.54651-3.02765-4.85897-0.74813-1.57961-0.60563-3.6127-0.60563-5.8819 0-2.16284-0.0798-2.88057-1.81656-4.34747-2.05156-1.73273-3.82786-2.8723-5.75287-4.09177-1.80578-1.14396-3.2505-2.77932-5.14719-3.58028-1.78334-0.75315-3.10597-0.25574-5.14725-0.25574-1.41441 0-3.69905 0.52535-4.84437 0.76719-1.45572 0.30739-0.84305 2.44685-1.51396 3.58032-0.0902 0.15247 0 0.34097 0 0.51145 0 1.73471-1.51391 2.80005-1.51391 4.85896 0 2.84218 0.30281 5.62464 0.30281 8.43924 0 2.43729 0.30282 4.74918 0.30282 7.16055 0 2.04459-0.0658 5.73715-1.2111 7.67205-0.98879 1.67009-0.57565 4.0283-1.21125 5.37045-0.76287 1.61098-0.24392 3.48088-1.2111 5.11467 1.05457 4.00734 3.08744 5.13346-2.11937 7.16055z" style="fill-rule:evenodd;fill:#630b57;stroke-linejoin:bevel;stroke:#aa8800"/>
      <path id="path26576" d="m744.1732 268.7488s-1.02437 4.28992-1.19503 5.86458c-1.97198 0.1631-2.36257-5.18016-2.36257-5.18016s0.0733 3.51871-1.0037 5.30575c-2.05316 0.16554-2.35091-5.42616-2.35091-5.42616z" style="fill-rule:evenodd;fill:#630b57;stroke-linejoin:bevel;stroke:#aa8800"/>
      <path id="path26578" d="m751.0006 329.7383c-3.37463 3.06809-1.82255 6.99123 5.40551 11.53828 1.44577 1.03698 5.90841 3.11099 8.19822 4.61744 5.70574 3.02259-1.87073 7.00785 0.0173 2.37128-3.05196-1.61937-6.94032 1.53098-4.42046 3.18924 3.27393 1.68081 6.00597 1.575 8.0781 0.37838 2.07208-1.19661 3.48413-3.48415 4.11836-6.16689 0.63406-2.68273-4.32735-4.4113-5.36713-7.18872-1.03999-2.77742-3.17603-4.1665 1.56066-7.44789" style="fill-rule:evenodd;fill:#630b57;stroke-linejoin:bevel;stroke:#aa8800"/>
      <path id="path26580" d="m758.9551 325.8143c-2.18856 3.75778 0.63285 7.1387 9.10303 9.73964 1.73763 0.6423 6.71769 1.54566 9.42349 2.43281 6.49347 1.51018 0.59227 7.16632 0.82315 2.26708-3.47418-0.81034-6.12658 3.1509-3.14892 4.12766 3.7078 0.81523 6.2886 0.0508 7.86625-1.59832 1.57748-1.64908 2.15176-4.1829 1.84636-6.90633-0.30523-2.72356-5.64546-3.17496-7.58653-5.58288-1.94091-2.40786-4.45956-3.21986-1.03912-7.5125" style="fill-rule:evenodd;fill:#630b57;stroke-linejoin:bevel;stroke:#aa8800"/>
      <path id="path26582" d="m775.8536 313.6165c2.17195 0.21704 3.26882 0.65791 6.59158 6.58287 0.78839 1.22857 2.12779 4.63592 3.24451 6.53557 2.07262 4.48317 7.08661 1.26575 2.2996 0.82146-1.11111-2.39895 2.5352-3.67219 3.76444-1.58173 4.54882 10.21677-17.34573 5.41475-21.31367-3.74485" style="fill-rule:evenodd;fill:#630b57;stroke-linejoin:bevel;stroke:#aa8800"/>
      <path id="path26584" d="m778.5786 305.1773c2.17195 0.21704 3.26882 0.65791 6.59158 6.58287 0.78822 1.22857 2.12779 4.63592 3.24451 6.53557 2.07246 4.48317 7.08661 1.26575 2.2996 0.82146-1.11128-2.39899 2.53504-3.67219 3.7645-1.58173 4.54877 10.21677-17.34573 5.41475-21.31373-3.74484" style="fill-rule:evenodd;fill:#630b57;stroke-linejoin:bevel;stroke:#aa8800"/>
      <path id="path26586" d="m781.7639 296.5811c2.17195 0.21704 3.26881 0.65792 6.59174 6.58287 0.78822 1.22857 2.12762 4.63587 3.24434 6.53557 2.07263 4.48313 7.08672 1.26576 2.29971 0.82147-1.11122-2.399 2.5351-3.67219 3.76434-1.58174 4.54893 10.21677-17.34574 5.41476-21.31373-3.74489" style="fill-rule:evenodd;fill:#630b57;stroke-linejoin:bevel;stroke:#aa8800"/>
      <path id="path26588" d="m765.5006 308.3814c-2.25318-2.03512-20.16413 3.22471-22.71633-0.7781-5.41717-8.49568 13.0878-10.3424 10.71989-11.02581-2.3679-0.68345-8.29445 1.72793-9.9805 1.41504-1.68605-0.31288-2.49242-0.37283-4.21768-0.8653-1.72527-0.49242-3.17752-4.20405-4.25761-5.15351-1.09032-0.95841 0.52907-2.13115 2.47702-2.14311 1.94739-0.0121 7.08435 0.0378 10.28469 0.75182 3.45757 0.77135 11.83265 5.88592 12.82777 1.99789 8.26135-11.55994 3.18115-18.62968 2.15776-21.08932-1.02371-2.45965-13.89625-3.69432-16.53029-2.76685-2.63392 0.92761-7.50332 4.19445-9.80903 0.40245-2.30575-3.79201-1.67048-10.58933 0.30111-11.29168 2.23119-0.7949 4.07447-1.5566 0.75891-0.50909-4.67658 1.47744-1.33852-3.02901 2.94235-3.98078 2.5957-0.57722 11.04124-0.51916 14.18791-0.91379 3.0794-0.38619 7.44887-0.63551 12.41006 1.96062 4.01045 2.09863 1.99866 3.03603 7.61706 1.40049" style="fill-rule:evenodd;fill:#630b57;stroke-linejoin:bevel;stroke:#aa8800"/>
      <path id="path26620" d="m782.7518 268.0929s1.30734-0.62655 1.91368-0.71768c0.27131-0.0407 0.64089 0.13612 0.90366 0.0565 0.64996-0.19728 1.11755-1.1574 1.76772-1.35463 0.197-0.0598 0.47358 0.0674 0.67757 0.0424 0.5178-0.0638 1.14878-0.4217 1.66124-0.52419 0.40918-0.0818 0.96823-0.13455 1.38186-0.12291 0.75138 0.0211 1.73214 0.21062 2.45816 0.36286 0.60596 0.12711 1.42366 0.29875 1.97979 0.54235 0.48645 0.21288 1.11452 0.56558 1.47469 0.92931 0.54519 0.55067 1.09208 1.45167 1.31471 2.17503 0.11099 0.36055 0.0805 0.88013 0.0661 1.25999-0.031 0.81144-0.043 1.92366-0.34648 2.69917-0.10428 0.2667-0.37525 0.5708-0.55817 0.80226-0.29511 0.37325-0.75005 0.82858-1.06348 1.18931-0.41 0.472-0.88568 1.1555-1.34248 1.59056-0.27422 0.26078-0.68202 0.57334-1.01019 0.77407-0.54722 0.33455-1.94036 0.92516-1.94036 0.92516" style="fill-rule:evenodd;fill:#630b57;stroke-linejoin:bevel;stroke:#aa8800"/>
      <path id="path26622" d="m790.325 269.3224c-1.36492 0.28868-3.77308 1.77947-5.29777 2.79031" style="fill-rule:evenodd;fill:#630b57;stroke-linecap:round;stroke-linejoin:bevel;stroke:#aa8800"/>
      <g id="g26624" transform="matrix(.9015208 -.0515732 .03707161 .85272 981.2906 240.7946)" style="fill:#e3e4e5;stroke-linejoin:bevel;stroke-width:1.13912;stroke:#aa8800">
       <path id="path26626" d="m-245.0928 4.35526c-0.19849-0.019805-0.40163-0.019904-0.60923-0.019893-0.99558 0.9296769-1.40804 1.935571-1.32578 3.034382 0.16608 1.098734 0.74192 1.859337 1.90438 2.366441 1.33359-0.079188 5.73374 0.5175138 8.37954-1.976619-0.56105-0.1902027-7.75338-3.344894-8.34891-3.404312z" style="fill:#e3e4e5;stroke-linejoin:bevel;stroke-width:1.13912;stroke:#aa8800"/>
      </g>
      <path id="path26628" d="m759.7115 261.836c1.55697 1.20474 2.14836 1.25204 3.19957 1.38238 1.0736 0.13312 3.58071-0.56285 3.58071-0.56285" style="fill-rule:evenodd;fill:#630b57;stroke-linejoin:bevel;stroke:#aa8800"/>
      <path id="path26630" d="m756.8089 256.661s1.29183 1.29989 1.83531 1.4573c2.59889-0.70637 4.22796 0.88257 6.36422-1.61356 0.30436-0.52914 1.76921-0.68673 2.62529-0.53593 0.39846 0.0702 1.3757 0.70697 1.3757 0.70697" style="fill-rule:evenodd;fill:#630b57;stroke-linejoin:bevel;stroke:#aa8800"/>
      <path id="path26632" d="m755.0132 296.2001c1.6641 1.36506 4.3863 1.61965 6.39304 0.66008 8.14025-4.43264 7.83765-10.93029 7.52994-18.1362-0.36149-1.59083-0.93088-3.16882-0.89843-4.80127" style="fill-rule:evenodd;fill:#630b57;stroke-linejoin:bevel;stroke:#aa8800"/>
      <path id="path26634" d="m700.5803 325.5422c-1.81386 1.11661-2.54593 1.9639-2.21496 8.45744-0.0197 1.38917 0.67955 4.87854 0.73993 6.98249 0.64375 4.72418-5.60839 4.12022-1.592 1.68838-0.34252-2.52874-4.29693-2.05544-4.23083 0.26009 0.40555 2.6728 1.76173 3.83404 3.5437 3.92364 1.7819 0.0895 3.98955-0.89269 6.09792-2.50712 2.10848-1.61439 0.94161-5.08469 2.32671-7.52374 1.38511-2.43913 1.31779-4.39014 5.75948-4.57245" style="fill-rule:evenodd;fill:#630b57;stroke-linejoin:bevel;stroke:#aa8800"/>
      <path id="path26636" d="m742.3481 305.5284c-3.68674-4.01736-10.07214-4.88289-15.64534-5.66491-6.23035-0.66609-12.48007 0.41653-18.39359 2.00985-4.9283 0.8193-10.02808 2.60038-12.8473 6.29932-5.69171 7.31958-6.4851 14.25311-3.25033 22.57674 2.50936 3.4411 6.63118 5.76052 9.23541 9.14435 2.4587 2.2844 5.92655 4.73148 5.36371 8.17019-0.12265 2.42001-5.72527 3.52342-5.18387 0.34462-3.45861-0.80387-3.24588 5.16884-0.16956 5.33558 3.45586 0.84863 7.31474-0.64022 8.78789-3.41358 1.86281-2.63784 1.42658-5.86329 0.10378-8.59166-1.85472-4.82612-6.19356-9.07069-6.12295-14.33911-0.0694-3.59672 2.29938-7.20956 6.33057-8.60557 2.342-1.05079 4.89096-1.9124 7.56921-2.0135" style="fill-rule:evenodd;fill:#630b57;stroke-linejoin:bevel;stroke:#aa8800"/>
      <path id="path26638" d="m785.3126 286.2187c2.09935 0.51838 3.0943 1.10687 5.20719 7.41533 0.53611 1.32201 1.18761 4.86982 1.91571 6.89968 1.16314 4.71143 6.73975 2.2413 2.1064 1.13231-0.6245-2.52144 3.22135-3.266 4.02293-1.03227 2.47889 10.7126-18.16887 2.90897-20.28264-6.67977" style="fill-rule:evenodd;fill:#630b57;stroke-linejoin:bevel;stroke:#aa8800"/>
      <path id="path26640" d="m793.57 277.2273c1.60746 1.25269 2.18911 2.15342 0.761 8.59753-0.21581 1.38548-1.49972 4.80807-1.91588 6.89968-1.43807 4.65698 4.85724 4.5385 1.29073 1.80524 0.76781-2.49309 4.60458-1.71587 4.14695 0.58604-3.41852 10.52646-17.80579-4.21703-14.65192-13.59972" style="fill-rule:evenodd;fill:#630b57;stroke-linejoin:bevel;stroke:#aa8800"/>
      <path id="path26642" d="m735.4602 308.7458c-4.71645-3.73492-10.66335-4.18669-16.57671-2.59336-4.92835 0.81929-10.0283 2.60042-12.84751 6.29931-5.69172 7.31958-6.48505 14.25311-3.25028 22.57674 2.50936 3.44111 6.63112 5.76052 9.2354 9.1444 2.45871 2.28436 5.9265 4.73144 5.36372 8.17019-0.12265 2.41997-5.72527 3.52337-5.18387 0.34457-3.45861-0.80387-3.24589 5.16889-0.16956 5.33559 3.45586 0.84862 7.31474-0.64023 8.78789-3.41358 1.86281-2.63784 1.42658-5.8633 0.10378-8.59162-1.85478-4.82617-6.19356-9.07073-6.123-14.33911-0.0693-3.59677 2.29943-7.20956 6.33056-8.60561 2.34206-1.0508 4.89101-1.9124 7.56927-2.01351" style="fill-rule:evenodd;fill:#630b57;stroke-linejoin:bevel;stroke:#aa8800"/>
      <path id="path26644" d="m717.8606 325.8706c-3.9752 2.82666-3.63625 7.96807 1.77393 15.34016 1.04638 1.62843 4.5915 5.29453 6.28706 7.70964 4.42893 5.13499-3.68541 7.97555-0.64621 2.86795-2.36829-2.7498-6.84105 0.0425-4.97555 2.70075 2.55627 2.88181 5.11062 3.46513 7.35968 2.55941 2.249-0.90576 4.19265-3.3006 5.52771-6.37511 1.33506-3.07455-2.76729-6.45321-2.95285-10.07783-0.18568-3.62457-1.77174-5.85788 3.52163-8.58759" style="fill-rule:evenodd;fill:#630b57;stroke-linejoin:bevel;stroke:#aa8800"/>
      <path id="path26646" d="m729.1073 324.8852c-4.13958 2.89912-3.78661 8.1724 1.84725 15.73364 1.08982 1.67023 4.78135 5.43032 6.54703 7.90737 4.61196 5.26672-3.83781 8.18017-0.67294 2.94153-2.46602-2.82037-7.1239 0.0436-5.18113 2.77004 2.66198 2.95571 5.32192 3.55399 7.66381 2.62504 2.342-0.92895 4.36601-3.38522 5.75628-6.53862 1.39022-3.15344-2.88174-6.61875-3.07495-10.33635-0.1932-3.71754-1.84499-6.00814 3.66722-8.80791" style="fill-rule:evenodd;fill:#630b57;stroke-linejoin:bevel;stroke:#aa8800"/>
      <path id="path26648" d="m720.8508 312.689c-3.93252 4e-3 -8.21378 0.54054-11.19089 2.894-7.98719 9.28394-1.38164 14.88192 2.41036 22.67946" style="fill-rule:evenodd;fill:#630b57;stroke-linejoin:bevel;stroke:#aa8800"/>
      <path id="path26650" d="m703.8952 306.8071c-8.52083 6.38934-12.0038 14.99412-6.3584 24.03907" style="fill-rule:evenodd;fill:#630b57;stroke-linejoin:bevel;stroke:#aa8800"/>
      <path id="path26652" d="m722.6673 325.9872c-7.18863 11.15412 1.97347 14.66451 5.14741 21.4817" style="fill-rule:evenodd;fill:#630b57;stroke-linejoin:bevel;stroke:#aa8800"/>
      <path id="path26654" d="m736.2924 329.5674c-1.87849 4.76533 2.59262 10.25131 4.54161 14.83259 0.54173 1.93023 0.63385 3.91782 0.90845 5.8819" style="fill-rule:evenodd;fill:#630b57;stroke-linejoin:bevel;stroke:#aa8800"/>
      <path id="path26656" d="m773.4314 302.3642c2.17195 0.21704 3.26882 0.65791 6.59158 6.58287 0.78822 1.22857 2.12779 4.63592 3.24451 6.53557 2.07246 4.48312 7.08656 1.26575 2.29954 0.82146-1.11122-2.39899 2.5351-3.67219 3.76451-1.58173 4.54876 10.21677-17.34574 5.41475-21.31373-3.74489" style="fill-rule:evenodd;fill:#630b57;stroke-linejoin:bevel;stroke:#aa8800"/>
      <path id="path26658" d="m777.6702 293.1578c2.17211 0.21699 3.26898 0.65791 6.59174 6.58282 0.78822 1.22862 2.12779 4.63592 3.24434 6.53561 2.07263 4.48313 7.08678 1.26576 2.29977 0.82147-1.11128-2.399 2.53504-3.67219 3.7645-1.58173 4.54877 10.21672-17.34573 5.41475-21.31373-3.74489" style="fill-rule:evenodd;fill:#630b57;stroke-linejoin:bevel;stroke:#aa8800"/>
      <path id="path26660" d="m790.7578 273.0739c1.69958 0.53921 2.48692 1.09509 3.88885 6.70725 0.37046 1.17985 0.71728 4.31431 1.20802 6.12204 0.70583 4.17464 5.42569 2.2366 1.67268 1.07736-0.37937-2.23425 2.82471-2.73073 3.36506-0.74133 1.46821 9.48523-15.10405 1.81221-16.33159-6.67368" style="fill-rule:evenodd;fill:#630b57;stroke-linejoin:bevel;stroke:#aa8800"/>
      <path id="path26662" d="m741.1782 325.8605c-4.16373 2.35817-3.8085 6.64744 1.85803 12.7977 1.0962 1.35855 4.80928 4.41703 6.58525 6.43183 4.63907 4.28392-3.86025 6.65368-0.67685 2.39263-2.48048-2.29406-7.16542 0.0354-5.21148 2.25313 2.67759 2.40417 5.3531 2.89081 7.70868 2.13521 2.35559-0.7556 4.39137-2.75354 5.78984-5.31849 1.3983-2.565-2.89852-5.38367-3.09294-8.40751-0.19436-3.02389-1.85577-4.88705 3.68867-7.16434" style="fill-rule:evenodd;fill:#630b57;stroke-linejoin:bevel;stroke:#aa8800"/>
      <path id="path26664" d="m749.3697 320.0858c-1.33522 1.51989-2.34629 2.13207-10.07714 1.83392-1.65415 0.0123-5.80677-0.58581-8.31178-0.64308-5.62303-0.55528-4.92335 4.69739-2.01527 1.3318 3.00989 0.29552 2.43402 3.6151-0.32283 3.55238-3.18126-0.34886-4.55976-1.49143-4.6609-2.98823-0.10098-1.49679 1.07536-3.34785 3.00422-5.11355 1.92881-1.76575 6.05723-0.775 8.9657-1.93065 2.90853-1.15564 5.23144-1.09315 5.46227-4.82284" style="fill-rule:evenodd;fill:#630b57;stroke-linejoin:bevel;stroke:#aa8800"/>
      <path id="path26666" d="m744.1928 314.1379c-1.64431 1.28858-2.77192 1.73467-10.30659 0.25136-1.62891-0.24258-5.58062-1.46991-8.03058-1.91189-5.40656-1.41162-5.86535 3.85976-2.27188 0.99892 2.89439 0.75394 1.60372 3.92864-1.0928 3.4425-3.05119-0.83278-4.15691-2.16819-3.9296-3.65519 0.22747-1.48701 1.78796-3.12555 4.06952-4.56438 2.28156-1.43882 6.12377 0.17072 9.23524-0.5175 3.11146-0.68825 5.38131-0.26918 6.42241-3.90017" style="fill-rule:evenodd;fill:#630b57;stroke-linejoin:bevel;stroke:#aa8800"/>
      <path id="path26668" d="m757.9392 317.738c-0.18875 1.8821-0.668 2.84846-7.43826 5.99692-1.40122 0.73856-5.31119 2.05674-7.48039 3.1104-5.13559 2.00182-1.26213 6.16758-0.8854 2.02122 2.74793-1.07297 4.32883 2.00773 1.94162 3.16767-2.92717 1.10294-4.81413 0.73652-5.83422-0.49381-1.01997-1.23037-1.17309-3.32462-0.63208-5.67738 0.54101-2.35272 4.67537-3.32591 6.43143-5.59018 1.75606-2.26431 3.77341-3.23339 1.64277-6.51159" style="fill-rule:evenodd;fill:#630b57;stroke-linejoin:bevel;stroke:#aa8800"/>
      <path id="path26670" d="m764.1206 308.8725c-0.36403 1.97808-0.9607 3.03109-8.48679 6.97164-1.565 0.9059-5.86853 2.66098-8.28379 3.97029-5.67577 2.58667-1.88261 6.54495-1.1226 2.19101 3.03716-1.38612 4.4666 1.66686 1.80875 3.10818-12.92704 5.73877-6.00014-14.62802 5.58458-19.67442" style="fill-rule:evenodd;fill:#630b57;stroke-linejoin:bevel;stroke:#aa8800"/>
      <path id="path26672" d="m759.8189 306.9192c-1.50081 1.9287-2.64679 2.73858-11.49441 2.91779-1.89158 0.13025-6.65169-0.30235-9.51798-0.19672-6.44111-0.27847-5.54999 6.0166-2.28206 1.74889 3.44805 0.14688 2.84677 4.19621-0.3076 4.31297-14.57893-0.79796 3.61222-18.94487 16.61922-18.12608" style="fill-rule:evenodd;fill:#630b57;stroke-linejoin:bevel;stroke:#aa8800"/>
      <path id="path26674" d="m773.2032 308.4739c0.44498 1.80866 0.29787 2.82708-5.30157 7.36748-1.12953 1.021-4.53078 3.17432-6.30983 4.6712-4.37678 3.08176 0.82573 6.07807-0.1932 2.10261 2.34134-1.65079 4.92714 0.86636 2.96979 2.51396-10.02967 6.88332-11.58004-12.1778-2.55324-18.26063" style="fill-rule:evenodd;fill:#630b57;stroke-linejoin:bevel;stroke:#aa8800"/>
      <path id="path26676" d="m776.259 296.0662c1.44972 0.29999 2.58046 1.29014 3.33068 2.55733 0.7555 1.27643 1.35579 2.86292 1.81656 3.83602 0.59743 1.26146 1.89278 2.64292 2.725 3.58028" style="fill-rule:evenodd;fill:#630b57;stroke-linejoin:bevel;stroke:#aa8800"/>
      <path id="path26678" d="m789.5813 276.6304c0.37508 0.79199 2.00822 1.92561 2.42219 3.32452 0.4232 1.42982 0.59259 2.51364 0.90828 3.58028 0.10345 0.34956 0.45746 0.38628 0.60562 0.51149" style="fill-rule:evenodd;fill:#630b57;stroke-linejoin:bevel;stroke:#aa8800"/>
      <path id="path26680" d="m764.2507 308.1443c0.3131 1.32174-2.62193 3.23751-3.93615 4.34747-1.33868 1.1307-1.21109 2.3166-1.21109 4.09177v2.04584" style="fill-rule:evenodd;fill:#630b57;stroke-linejoin:bevel;stroke:#aa8800"/>
      <path id="path26682" d="m766.5702 324.4528c0.83486 2.63465 2.47405 5.13466 4.84443 6.9048 2.9313 2.0585 6.94323 1.9039 9.08334 4.85897 0.20157 0.34059 0.51587 0.87162 0.60546 1.02294" style="fill-rule:evenodd;fill:#630b57;stroke-linejoin:bevel;stroke:#aa8800"/>
      <path id="path26684" d="m773.8368 319.5938c0.4424 0.74742 2.72297 2.80961 3.33068 3.83602 0.75017 1.26737 1.63227 1.63443 2.42219 2.30158 0.95899 0.81002 2.42714 1.08793 3.33047 1.27869" style="fill-rule:evenodd;fill:#630b57;stroke-linejoin:bevel;stroke:#aa8800"/>
      <path id="path26686" d="m774.1396 308.5972c1.18129 0.99777 1.37229 2.57396 2.11938 3.83602 0.66442 1.12229 1.72443 1.49545 3.02787 2.04588" style="fill-rule:evenodd;fill:#630b57;stroke-linejoin:bevel;stroke:#aa8800"/>
      <path id="path26688" d="m747.2598 302.0774c1.73478 1.55702-4.30496 1.72205-6.45739 2.5831-1.56032 0.6242-2.48356 1.3725-3.31193 2.30962" style="fill-rule:evenodd;fill:#630b57;stroke-linejoin:bevel;stroke:#aa8800"/>
      <path id="path26690" d="m748.4036 329.8232c-4.93837 1.1925-1.45374 6.82504 0.60546 8.95069 0.9641 0.97717 0.93633 2.16399 1.2111 3.32457" style="fill-rule:evenodd;fill:#630b57;stroke-linejoin:bevel;stroke:#aa8800"/>
      <path id="path26692" d="m757.7895 335.4494c1.18767 3.99431 4.22208 5.60953 7.5696 7.92775 0.92714 0.78308 1.60113 0.40309 2.42224 1.79018" style="fill-rule:evenodd;fill:#630b57;stroke-linejoin:bevel;stroke:#aa8800"/>
      <path id="path26694" d="m761.4337 257.951c-0.74185 0.38831-0.88386 0.87966-0.88386 1.73208 0 0.53001 0.0804 0.87731 0.29462 1.23721 0.20949 0.35191 0.58198 0.57126 0.88386 0.82479 0.25453 0.21376 0.74015-0.99578 0.78569-1.07222 0.27548-0.46272 0.29462-0.95191 0.29462-1.48465 0-0.8459-0.0348-0.83939-0.78569-1.15472-0.17808-0.0748-0.39284-0.055-0.58924-0.0825z" style="fill-rule:evenodd;fill:#2b0000;stroke-linejoin:bevel;stroke:#aa8800"/>
      <path id="path26696" d="m719.302 367.8464c-0.32833 1.87055-0.87951 2.8195-7.88846 5.75258-1.45694 0.69347-5.46772 1.88879-7.71655 2.87344-5.28804 1.83952-1.72032 6.11045-1.0361 1.98811 2.82967-0.98623 4.18348 2.13322 1.70849 3.21714-3.01104 1.01056-4.87248 0.58784-5.80215-0.66983-0.92951-1.25763-0.92747-3.35021-0.21168-5.67942 0.7159-2.32916 5.78504-2.90583 7.71033-5.10986 1.92534-2.20408 1.1347-1.1531 0.62191-4.56701" style="fill-rule:evenodd;fill:#630b57;stroke-linejoin:bevel;stroke:#aa8800"/>
      <path id="path26698" d="m752.3002 389.3415c0 0.81851-8.05297 3.99196-10.60665 5.27873-1.63991 0.82636-2.68117 0.68867-4.32119 0" style="fill-rule:evenodd;fill:#630b57;stroke-linejoin:bevel;stroke:#aa8800"/>
      <path id="path26700" d="m733.0512 415.7351c-2.69954 1.36026 1.98628 5.02317 2.74986 7.58812 0.34544 1.16059-0.39285 4.08397-0.39285 6.26851v3.6291" style="fill-rule:evenodd;fill:#630b57;stroke-linejoin:bevel;stroke:#aa8800"/>
      <path id="path26702" d="m728.73 439.1594c0 1.55203-2.46547 3.81121-3.14271 4.94875-0.1656 0.27824-0.52379 0.4399-0.78563 0.65985" style="fill-rule:evenodd;fill:#630b57;stroke-linejoin:bevel;stroke:#aa8800"/>
      <path id="path26704" d="m715.7664 439.1594c-0.0599 0.10055-2.77389 3.64928-3.92839 4.61887" style="fill-rule:evenodd;fill:#630b57;stroke-linejoin:bevel;stroke:#aa8800"/>
      <path id="path26706" d="m703.1955 439.4893c-0.84734 1.4233-3.06818 2.90675-4.32118 3.95906-0.20707 0.17386-0.5238 0.21995-0.78569 0.32993" style="fill-rule:evenodd;fill:#630b57;stroke-linejoin:bevel;stroke:#aa8800"/>
      <path id="path26708" d="m711.4451 391.651c-0.94622 2.1269-2.57277 3.71972-5.49972 4.9488-1.70233 0.71486-2.99702 1.25851-4.71403 1.97951" style="fill-rule:evenodd;fill:#630b57;stroke-linejoin:bevel;stroke:#aa8800"/>
      <path id="path26710" d="m778.6203 408.147c-6e-3 2e-3 0.51444 4.36751 0.78569 5.27873 0.48398 1.62584 1.37185 2.80171 2.35702 3.62909 1.24018 1.04156 1.7862 2.15997 2.74986 2.96929 0.72849 0.61187 2.66555 0.8071 3.53555 0.98974" style="fill-rule:evenodd;fill:#630b57;stroke-linejoin:bevel;stroke:#aa8800"/>
      <path id="path26712" d="m806.1189 397.5896c0.97367 0.81773 2.26396 3.22102 3.92839 4.61888 1.35123 1.13481 4.82199 0.6598 6.6782 0.6598h1.57138" style="fill-rule:evenodd;fill:#630b57;stroke-linejoin:bevel;stroke:#aa8800"/>
      <path id="path26714" d="m832.439 404.8478c2.29464 0 4.07012 1.43874 5.10693 2.30944 0.93269 0.78332 1.07558 1.14687 1.57132 1.97956" style="fill-rule:evenodd;fill:#630b57;stroke-linejoin:bevel;stroke:#aa8800"/>
      <path id="path26716" d="m830.4748 416.0651c0.98374 0.82618 3.57405 0.39459 5.10688 2.96924 0.33218 0.55792 0.54387 1.14193 0.78569 1.64964" style="fill-rule:evenodd;fill:#630b57;stroke-linejoin:bevel;stroke:#aa8800"/>
      <path id="path26718" d="m829.6891 425.9626c0.073 0.12267 2.50744 2.89201 3.53556 4.61887" style="fill-rule:evenodd;fill:#630b57;stroke-linejoin:bevel;stroke:#aa8800"/>
      <path id="path26720" d="m715.7664 367.5669c-1.29974 1.80598-3.70785 3.22509-5.89256 3.95903" style="fill-rule:evenodd;fill:#630b57;stroke-linejoin:bevel;stroke:#aa8800"/>
      <path id="path26722" d="m807.2346 285.561c-1.72394 1.87988-3.05713 9.52902 0.26036 17.13275 0.59859 1.65453 3.02083 5.58098 4.03828 8.05887 2.90765 5.40861-5.03109 6.60504-1.19547 2.49055-1.554-2.89576-6.1917-1.12419-5.07234 1.60316 1.69589 3.0474 3.87972 4.01034 6.1054 3.57141 2.22558-0.43912 4.49278-2.28002 6.35477-4.84072 1.86204-2.56075-1.12503-6.32149-0.52006-9.63936 0.60514-3.31797-0.35209-5.6124 5.01371-7.18776" style="fill-rule:evenodd;fill:#630b57;stroke-linejoin:bevel;stroke:#aa8800"/>
      <path id="path26724" d="m815.321 290.8058c-1.04891 2.43471-6.64911 7.83214-1.00695 15.08423 1.10924 1.60913 4.70392 5.17508 6.48143 7.55445 4.53958 5.02026-2.69971 8.29559-0.34407 2.951-2.42785-2.68855-6.31054 0.36595-4.35457 2.98495 2.61309 2.81405 5.02174 3.28762 7.01792 2.25923 1.99596-1.02853 3.57933-3.55884 4.54096-6.75257 0.96168-3.1939-3.12208-6.44111-3.61238-10.12328-0.49019-3.6823-2.15061-5.88172 2.49483-8.9111" style="fill-rule:evenodd;fill:#630b57;stroke-linejoin:bevel;stroke:#aa8800"/>
      <path id="path26726" d="m826.1923 287.6559c-0.80483 2.61234-8.62037 7.07921-2.29283 14.08627 1.26202 1.56732 5.18987 4.94035 7.19264 7.24582 5.01102 4.79466-1.87254 8.8238-0.0527 3.08448-2.68034-2.568-6.24482 0.93611-4.04097 3.47381 2.87707 2.68158 5.32087 2.9589 7.20667 1.71827 1.88558-1.24072 3.21299-3.99926 3.85651-7.38956 0.64347-3.3903-7.27261-5.43918-5.40452-10.63325" style="fill-rule:evenodd;fill:#630b57;stroke-linejoin:bevel;stroke:#aa8800"/>
      <path id="path26728" d="m830.9528 290.6054c-1.98727 2.74901-5.72367 3.69519-4.74032 6.99866 0.41671 4.59324 4.47231 5.35055 8.60513 10.78507" style="fill-rule:evenodd;fill:#630b57;stroke-linejoin:bevel;stroke:#aa8800"/>
      <path id="path26730" d="m819.7144 291.893c2.18097 0.91583-2.30686 5.49553-3.04949 6.74295-0.50339 0.84544 1.13745 5.49688 1.38285 6.32121" style="fill-rule:evenodd;fill:#630b57;stroke-linejoin:bevel;stroke:#aa8800"/>
      <path id="path26732" d="m811.9367 286.2941c-1.47019 2.46943-0.15653 4.0617-3.3093 6.04758-1.5815 0.99611 0.17093 6.73848 0.5315 7.94969 0.0899 0.3018 0 0.62211 0 0.93315" style="fill-rule:evenodd;fill:#630b57;stroke-linejoin:bevel;stroke:#aa8800"/>
      <path id="path26734" d="m783.9387 354.6907c-1.31044-3.09945-4.94272-3.82086-5.42196 1.3555-0.45668 4.93266 2.3199 5.42196 7.4552 5.42196 5.27447 0 8.75273 1.09309 8.13295 6.77746-0.78954 7.24142-10.77825 2.11445-5.42197-1.35549" style="fill-rule:evenodd;fill:#630b57;stroke-linejoin:bevel;stroke:#aa8800"/>
      <path id="path26736" d="m772.5509 357.2255c-0.17572-3.36051-3.34471-5.27659-5.55934-0.57343-2.11037 4.48175 0.33325 5.88801 5.16114 7.63809 4.95873 1.79752 7.85625 4.01054 5.33637 9.14342-3.21012 6.53885-10.85363-1.68531-4.63545-3.12213" style="fill-rule:evenodd;fill:#630b57;stroke-linejoin:bevel;stroke:#aa8800"/>
      <path id="path26738" d="m785.7023 373.6495c-1.31045-3.09946-4.94273-3.82087-5.42197 1.35549-0.45667 4.93267 2.3199 5.42197 7.45521 5.42197 5.27447 0 8.75272 1.09308 8.13295 6.77746-0.78955 7.24141-10.77825 2.11444-5.42197-1.3555" style="fill-rule:evenodd;fill:#630b57;stroke-linejoin:bevel;stroke:#aa8800"/>
      <path id="path26740" d="m782.8269 389.9436c-1.31045-3.09945-4.94273-3.82087-5.42197 1.35549-0.45667 4.93267 2.3199 5.42197 7.45521 5.42197 5.27446 0 8.75272 1.09309 8.13295 6.77746-0.78955 7.24141-10.77825 2.11444-5.42197-1.35549" style="fill-rule:evenodd;fill:#630b57;stroke-linejoin:bevel;stroke:#aa8800"/>
      <path id="path26742" d="m720.4838 383.5698c-3.36091-0.16795-5.59022 2.78908-1.13747 5.47186 4.24313 2.55649 5.89129 0.26905 8.12467-4.35517 2.29391-4.74952 4.79093-7.40621 9.64002-4.37594 6.17733 3.86031-2.78354 10.62513-3.57864 4.29283" style="fill-rule:evenodd;fill:#630b57;stroke-linejoin:bevel;stroke:#aa8800"/>
      <path id="path26744" d="m740.4893 387.3312c-2.82013 1.83595-2.89039 5.53851 2.28943 5.09839 4.93598-0.41941 4.92851-3.23876 4.02387-8.29376-0.92915-5.19198-0.46589-8.8084 5.23877-9.19968 7.26725-0.49846 3.98007 10.23721-0.37916 5.57596" style="fill-rule:evenodd;fill:#630b57;stroke-linejoin:bevel;stroke:#aa8800"/>
      <path id="path26746" d="m723.6409 396.1737c-1.31045-3.09945-4.94273-3.82086-5.42197 1.3555-0.45667 4.93266 2.3199 5.42196 7.45521 5.42196 5.27447 0 8.75273 1.09309 8.13295 6.77746-0.78954 7.24142-10.77825 2.11445-5.42197-1.35549" style="fill-rule:evenodd;fill:#630b57;stroke-linejoin:bevel;stroke:#aa8800"/>
      <path id="path26748" d="m723.0732 410.9378c0.93086-3.23379-1.43908-6.07936-5.06763-2.35673-3.45773 3.54737-1.60701 5.67425 2.38515 8.90443 4.10034 3.31771 6.11676 6.35533 2.05941 10.38449-5.16874 5.13281-9.70898-5.1359-3.36239-4.46424" style="fill-rule:evenodd;fill:#630b57;stroke-linejoin:bevel;stroke:#aa8800"/>
      <g id="g26590" transform="matrix(.7511837 .234588 -.3787866 .7980296 1014.089 303.0042)" style="fill:#eac102;stroke-linejoin:bevel;stroke-width:1.20532;stroke:#aa8800">
       <path id="path26592" d="m-320.4434 28.64646 38.98077 5.259498 0.68309-5.369578-38.88821-5.269353z" style="fill-rule:evenodd;fill:#eac102;stroke-linejoin:bevel;stroke-width:1.20532;stroke:#aa8800"/>
       <path id="path26594" d="m-320.0908 28.67105 38.93322 5.376804c0.90787 0.56081 0.41411 1.49095-0.37834 1.661132l-38.90551-5.199599c-1.25189-0.557649-0.92163-1.93841 0.35063-1.838337z" style="fill-rule:evenodd;fill:#eac102;stroke-linejoin:bevel;stroke-width:1.20532;stroke:#aa8800"/>
       <path id="path26596" d="m-319.2099 21.46499 38.93322 5.376796c0.90787 0.560819 0.4141 1.490958-0.37834 1.66114l-38.90551-5.199607c-1.25188-0.557641-0.92163-1.938409 0.35063-1.838329z" style="fill-rule:evenodd;fill:#eac102;stroke-linejoin:bevel;stroke-width:1.20532;stroke:#aa8800"/>
       <path id="path26598" d="m-313.4464 26.6531c-0.29884 3.916054 6.12413 3.897873 6.17502 1.058323 0.71553-3.439941-5.62105-3.962328-6.17502-1.058323z" style="fill-rule:evenodd;fill:#eac102;stroke-linejoin:bevel;stroke-width:1.20532;stroke:#aa8800"/>
       <path id="path26600" d="m-293.9011 29.39304c-0.29884 3.916053 6.12413 3.897881 6.17503 1.058323 0.71552-3.439933-5.62106-3.962329-6.17503-1.058323z" style="fill-rule:evenodd;fill:#eac102;stroke-linejoin:bevel;stroke-width:1.20532;stroke:#aa8800"/>
       <path id="path26602" d="m-303.5835 28.01753 3.42152-1.658774 2.82518 2.564817-3.69824 1.897729z" style="fill-rule:evenodd;fill:#eac102;stroke-linejoin:bevel;stroke-width:1.20532;stroke:#aa8800"/>
       <path id="path26604" d="m-280.7352 29.1429 0.85158 2.416644-1.60108 1.764111-2.63003-2.600247z" style="fill-rule:evenodd;fill:#eac102;stroke-linejoin:bevel;stroke-width:1.20532;stroke:#aa8800"/>
       <path id="path26606" d="m-319.4297 23.55787 2.04708 2.722769-2.86193 1.9876-0.84094-2.258311z" style="fill-rule:evenodd;fill:#eac102;stroke-linejoin:bevel;stroke-width:1.20532;stroke:#aa8800"/>
       <path id="path26608" d="m-322.7189 5.569793 1.1399 5.202996-0.36642 3.410841c-1.8208 3.38038 2.71706 9.882405 10.74582 6.624174 2.77641 1.812787 5.41753 3.836714 11.73055 0.130136 3.14863 3.71749 7.13221 5.197241 11.3618 2.935904 3.45661 4.093732 12.01631 2.882529 12.48975-3.384335l0.97406-3.333497 2.83193-4.675994c-1.59481-0.219491-2.72201-0.09719-3.9423-0.04293-1.0487 0.662869-1.99944 1.382299-2.50035 2.361359-1.09577-0.19515-2.17935-0.289381-3.23581-0.159118-0.80281 0.304772-1.28057 0.862345-1.17624 1.872644-1.2665 0.06024-2.48819 0.49141-3.67584 1.204417 0.59485 1.062709 2.30528 1.4275 4.09008 1.745762l-0.23736 0.91097 0.56774 1.55794 3.35973-1.478009c0.15292 4.235465-5.63175 5.639096-9.46081 1.031927-5.25227 3.518089-9.16148-0.405597-9.99329-3.216731-0.0136-0.666233 1.83547 0.146161 2.41188 0.754286 0.39466 0.759679 0.76298 1.604622 1.41871 1.51945l1.37352-0.545622c0.62141-0.451221 1.09071-1.02623 1.34912-1.772851l1.02504 0.284108 2.22246-0.862904c-0.709-1.5058-2.49051-1.776477-3.73577-2.664719 0.53254-0.748615 0.76381-1.44252 0.25986-2.002907-1.1745-0.803418-2.19513 0.05049-2.92948-0.312642-0.0519-1.188501-0.59348-2.208072-1.12681-3.230482-1.2219-1.325814-2.11318-0.9341795-2.97269-0.3774515-1.08619 0.6162895-1.59017 1.669998-2.17436 2.663435l-2.29709-0.482992c-1.1878-0.220142-1.66237 0.896441-1.31707 1.985005-1.79192 0.607939-3.41692 0.701808-4.61454 1.448563 0.78678 0.899932 1.67656 1.7111 2.96124 1.720685l0.75534 2.099083c0.22894 0.467466 0.5307 0.871567 1.31883 0.852381l0.7905-0.272731c0.62312-0.252268 0.48676-0.934552 1.03774-1.155218 0.7287-0.298577 1.47071-0.450992 2.27743 0.107122 0.45987 1.211694-6.36047 5.848081-10.65129 0.549805-6.01751 3.272777-10.28593-0.729868-8.56547-3.565851 0.25924-0.669901 1.9752 2.335394 2.61534 2.079178 1.24126-0.500327 1.07764-1.443449 1.22574-2.288316 1.40786-0.118066 3.1184 0.359897 4.16472-0.432415-0.49446-1.0359-1.58145-1.555498-2.67705-2.217319 0.7935-3.122093-2.27692-1.969513-3.56615-2.787476l-1.27143-2.75011c-1.33303-0.7784928-2.67146-0.9798459-4.01121-1.039551z" style="fill-rule:evenodd;fill:#eac102;stroke-linejoin:bevel;stroke-width:1.20532;stroke:#aa8800"/>
       <path id="path26610" d="m-320.4263 12.94263c-0.15487 1.186566-1.00815 1.89669-1.90585 1.586102-0.89771-0.310587-1.49991-1.524276-1.34505-2.710842 0.15487-1.186566 1.00815-1.89669 1.90586-1.586103 0.89771 0.310596 1.4999 1.524277 1.34504 2.710843z" style="fill:#eac102;stroke-linejoin:bevel;stroke-width:1.20532;stroke:#aa8800"/>
       <path id="path26612" d="m-273.3385 19.13213c-0.15486 1.186566-1.00815 1.89669-1.90585 1.586094-0.89771-0.310587-1.49991-1.524276-1.34505-2.710842 0.15487-1.186558 1.00815-1.896682 1.90586-1.586095 0.89771 0.310588 1.4999 1.524276 1.34504 2.710843z" style="fill:#eac102;stroke-linejoin:bevel;stroke-width:1.20532;stroke:#aa8800"/>
       <path id="path26614" d="m-296.8622 16.15376c-0.15486 1.186566-1.00814 1.89669-1.90585 1.586094-0.89771-0.310587-1.4999-1.524276-1.34504-2.710842s1.00814-1.89669 1.90585-1.586094c0.89771 0.310587 1.49991 1.524276 1.34504 2.710842z" style="fill:#eac102;stroke-linejoin:bevel;stroke-width:1.20532;stroke:#aa8800"/>
       <path id="path26616" d="m-310.6845 18.5711c-0.84625-0.312523-1.35065-1.178664-1.1266-1.934572 0.22404-0.755918 1.09169-1.115358 1.93794-0.802835 0.84626 0.312523 1.35065 1.178663 1.12661 1.934581-0.22405 0.755917-1.09169 1.115357-1.93795 0.802826z" style="fill:#eac102;stroke-linejoin:bevel;stroke-width:1.20532;stroke:#aa8800"/>
       <path id="path26618" d="m-288.2253 21.55528c-0.84625-0.312523-1.35064-1.178663-1.1266-1.934572 0.22405-0.755918 1.09169-1.115358 1.93795-0.802835 0.84624 0.312523 1.35064 1.178663 1.1266 1.934581-0.22404 0.755917-1.09169 1.115357-1.93795 0.802826z" style="fill:#eac102;stroke-linejoin:bevel;stroke-width:1.20532;stroke:#aa8800"/>
      </g>
     </g>
    </g>
   </g>
  </g>
 </g>
</svg>
