<?xml version="1.0" encoding="UTF-8" standalone="no"?>
<svg xmlns="http://www.w3.org/2000/svg" xmlns:xlink="http://www.w3.org/1999/xlink" width="490" height="600" version="1.0">
  <defs>
    <pattern id="chequy" width="108" height="108" patternTransform="translate(29.5 .85)" patternUnits="userSpaceOnUse">
      <path fill="#fff" d="M0 0h108v108H0z"/>
      <path fill="#db0811" d="M54 0h54v54H0v54h54z"/>
    </pattern>
  </defs>
  <path fill="#174195" stroke="#000" stroke-width="4" d="M2 346.5V2h486v344.5c0 82.13-77.07 229.12-243 251.5C79.2 575.62 2 428.63 2 346.5Z"/>
  <g stroke="#000" stroke-linecap="round" stroke-linejoin="round" stroke-width="4">
    <g id="foot">
      <path fill="#fd0" d="M159.76 378.8c-24.94 20.42-43.32 25.1-51.5 23.3-14.1-3.06-15.19-24.2-24.4-26.38-9.22-2.17-20.06 4.7-15.73 18.98 1.27-2.9 5.6-5.78 5.6-5.78-1.98 5.42 2.72 15.9 13.02 8.3-.18 7.6 11.92 12.48 17.53 10.13-19.7 12.83-41.75-14.82-55.48-11.39-8.71 2.18-15.19 19.88-9.4 30.37a31.38 31.38 0 0 0 6.87-10.3c-.6 7.16 8.05 12.76 13.37 9.21 3.24-2.17 4.52-7.95 4.52-7.95 2.35 3.61 15.36 10.48 31.26 1.63-20.04 13.48-35.24 10.3-38.31 11.38-3.07 1.09-18.98 18.25-.72 32.9a74.05 74.05 0 0 0 2.34-11.4s1.61 3.83 3.44 4.89c4.27 2.46 14.52.1 15.36-7.96a7.58 7.58 0 0 0-1.45-5.24c30.37-13.73 30.9-13.55 40.85-6.32-4.52 5.06-8.5 10.12-1.27 14.28 7.23 4.15 10.48-.37 11.39-2.72 2.6 4.14 3.07 12.66 2.35 15.19 11.83-5.14 9.94-22.78 7.4-26.39-2.52-3.61-11.74-11.93-12.1-15.36-.36-3.44 20.85-16.88 43.21-18.96 20.16-1.86 12.81-40.86-8.15-24.41z"/>
      <path fill="none" d="M46.26 404.71c3.07 3.2-.13 12.9-.13 12.9m16.1-7.02c2.18 2.05 2.18 6.9 2.18 6.9m14.95-37.06c-.9 4.73-5.5 8.44-5.5 8.44m-17.89 50.6c4.1 3.83 2.94 12.9 2.94 12.9m12.65-13.8s2.98 1.63 4.42 4.88m42.48-9.86c-1.02 2.81-1.92 3.45-1.92 3.45m12.78 6.9c-1.4 1.8-2.17 5.24-2.17 5.24m29.9-53.41c5.5 1.27 8.7.5 14.06-9.72"/>
    </g>
    <use xlink:href="#foot" width="100%" height="100%" transform="matrix(-1 0 0 1 490.96 0)"/>
    <path fill="url(#chequy)" stroke-width="5" d="M66.9 22.79c-4.49 0-8.43 1.98-11.43 6.57 27.51 9.52 17.22 18.47 34.8 28.55-22.5 15.27-36.43 43.14-57.28 34.11-3.93 27.54 19.3 42.32 53.67 14.06-25.85 41.31-41.02 46.45-50.78 40.13-6.32 26.58 15.1 43.1 48.03 14.32-16.45 23.13-32.97 59.71-49.84 42.6-4.7 34.16 22.97 54.7 56.95 9.11-32.53 58.2-45.06 66.46-55.96 57.43 4.3 35.75 33.32 56.41 81.74-31.58-11.6 28.66-25.17 60.58-45.78 80.5-10.88 10.5-18.46 20.48-35.7 11.27-1.63 36.11 45.71 37.14 67.8 11.24 28.58-33.53 37.94-61.2 52.98-99.4-9.49 72.56-21.64 91.4-29.93 99.3 41.17 6.31 59-17.32 66.83-76.78 5.22 20.33 11.8 42.77 13.25 59.34-31.94 42.69-38.08 46.01-67.47 38.85 10.74 18.4 17.63 19.17 30.67 20.7-2.56 31.44-6.13 41.67 12.27 71.06 2.3-25.05 7.32-33.15 25.81-51.65 11.5 36.8 22.5 47.81 22.5 70.3 0 24.8-22.46 28.09-30.68 22.5-6.39-4.35-11.5-13.55-4.09-24.54-15.08.25-34.24 7.16-32.2 27.35-41.4-28.63-67.98-25.3-83.57-10.48 35.01-.51 42.17 10.48 62.36 41.15 20.19 30.67 58.27 42.17 93.8-.26-1.03 17.9-15.6 34.25-15.6 34.25 6.4 2.04 16.36.25 16.36.25s3.32 10.23 8.95 15.34c5.62-4.09 8.94-14.31 8.94-14.31s9.97 1.79 16.36-.26c0 0-14.57-16.36-15.59-34.25 35.53 42.43 73.6 30.93 93.8.26 20.19-30.67 27.34-41.66 62.36-41.15-15.6-14.82-42.17-18.15-83.58 10.48 2.05-20.2-17.12-27.1-32.2-27.35 7.41 11 2.3 20.2-4.09 24.54-8.22 5.59-30.67 2.3-30.67-22.5 0-22.48 11-33.5 22.5-70.3 18.58 18.59 23.5 26.6 25.8 51.65 18.41-29.4 14.83-39.61 12.28-71.05 13.03-1.53 19.93-2.3 30.67-20.7-29.4 7.15-35.53 3.83-67.48-38.85 1.05-21.32 8.1-42.61 13.95-62.1 7.7 60.73 25.49 84.88 67.07 78.5-8.3-7.89-20.45-26.73-29.94-99.28 15.04 38.18 24.4 65.86 52.99 99.4 22.08 25.89 69.42 24.86 67.8-11.25-17.25 9.2-24.82-.76-35.7-11.28-20.62-19.9-34.2-51.83-45.79-80.49 48.42 88 77.44 67.33 81.74 31.58-10.9 9.03-23.42.77-55.95-57.43 33.97 45.58 61.64 25.05 56.94-9.1-16.87 17.1-33.39-19.48-49.84-42.6 32.94 28.77 54.35 12.25 48.03-14.33-9.76 6.32-24.93 1.18-50.78-40.13 34.37 28.26 57.6 13.48 53.68-14.06-20.86 9.03-34.8-18.84-57.29-34.11 17.59-10.08 7.3-19.03 34.8-28.55-6.86-10.49-18.6-7.39-30.63 1.98-14.16 11.05-18.15 14.98-39.88 8.07-18.71-5.95-30.98-7.26-42.89 4.65-8.42 8.42-7.36 22.26 5.4 41.4 15.37 23.09 8.32 38.15 5.97 52.97 6.86.55 15.63-13.1 19.7-22.86 18.1 28.32 5.3 73.55-33.77 60.14-17.12-5.88-18.1-.45-29.72 12.17-3.33-3.41-6.02-7.11-6.53-13.32-.76-9.33 6.38-21.99 8.82-29.39 11.63-35.27 8.69-41.4-1.79-53.93 8.44 5.62 15.08 7.16 25.56-2.8-20.2 4.08-35.27-29.14-44.73-32.47-9.45-3.32-53.67-3.58-53.67-3.58l-9.2 30.16 35.01 14.32 5.12 18.65-20.7 8.95s17.37 6.13 10.73 21.98c-6.65 15.84-15.85 13.8-27.1 8.43-11.24-5.36-26.32-6.9-25.8 11 14.56-6.4 11.75.5 27.85 10.98-4.8 3.49-9 7.13-12.6 11.05-11.64-12.64-12.6-18.08-29.75-12.2-39.06 13.4-51.87-31.82-33.76-60.14 4.06 9.76 12.83 23.4 19.7 22.86-2.35-14.82-9.41-29.88 5.96-52.96 12.76-19.15 13.82-33 5.4-41.41-11.9-11.91-24.18-10.6-42.89-4.65-21.73 6.91-25.71 2.98-39.88-8.07-6.76-5.27-13.44-8.55-19.2-8.55z"/>
    <path fill="#fff" stroke-width="1.5" d="M245.5 68.75c-1.74 11.25-2.76 15.91-11.26 15.02-8.5-.9-9.71-5.3-7.67-15.79z"/>
    <path fill="#fd0" d="M276.3 57.38c3-31.7 13.11-31.04 10.25-35.26-2.37-3.5-11.42 1.52-13.76 6.12-3.39-.38-7.55.77-9.11 3.7-.91-3.44-3.65-5.87-7.03-5.36-3-6-6.4-10.1-10.43-10.1-4.02 0-7.43 4.1-10.43 10.1-3.38-.51-6.11 1.92-7.03 5.37-1.56-2.94-5.72-4.1-9.1-3.7-2.35-4.6-11.16-8.62-13.22-5.59-2.87 4.22 6.7 3.03 9.7 34.72"/>
    <path fill="none" stroke-width="3" d="M270.97 42.55s-7.3-1.27-7.3-10.6c0 9.33-7.28 10.6-7.28 10.6m-20.34 0s-7.29-1.27-7.29-10.6c0 9.33-7.28 10.6-7.28 10.6m27.85 7.03h27.85m-61.04 7.8h60.16m-50.4 10.21 28.65 1.63"/>
    <path fill="#fd0" d="M241.01 112.84c-2.68-4.98-14.05-8.7-33.6-8.7-19.56 0-24.67-1.14-32.34-11.5-5.36 12.02 3.07 22.63 22.37 22.63s22.36-6.78 40.5 2.8z"/>
    <path fill="#fd0" d="M202.55 94.82c.25-9.07 7.15-6 15.97 2.94 13.93 3.7 23.08 4.96 23.26 10.86.25 8.3-16.87 9.07-22.1 13.55-5.25 4.47-9.2 10.99-7.42 12.9 1.79 1.92 4.09-1.78 21.6-6.51 17.5-4.73 17.38-10.23 19.68-15.08 2.3-4.86 5.1-17.25-4.73-21.09-9.84-3.83-26.71-7.03-28.24-14.82 5.36-5.11 7.02-10.6 2.55-15.85-5.05-5.91-13.29-3.2-17.12 4.48-17.9-.13-12.14 21.2-3.45 28.62z"/>
    <path fill="none" d="m207.53 402.52 15.36-15.35m60.3 16.37-16.26-16.25m-53-210.43c4.37 2.61 9.1 1.37 9.1 1.37m67.82-86.99-7.41-7.6M201.32 187.9c-18.84 25.24-17.22 36.4-8.32 76.31m97.35-76.34c22.48 22.97 17.66 37.8 8.06 74.6"/>
  </g>
  <path d="M232.73 68.18c-4.39 2.3-3.7 8.18-1.18 10.34 2.53 2.17 8.27 1.86 8.18-4.38-2.4 1.67-4.9 1.77-5.24-.09-.59-3.12 2.66-4.43 4.06-4.34z"/>
</svg>
