<?xml version="1.0" encoding="UTF-8" standalone="no"?>
<svg
   xmlns:dc="http://purl.org/dc/elements/1.1/"
   xmlns:cc="http://creativecommons.org/ns#"
   xmlns:rdf="http://www.w3.org/1999/02/22-rdf-syntax-ns#"
   xmlns:svg="http://www.w3.org/2000/svg"
   xmlns="http://www.w3.org/2000/svg"
   xmlns:sodipodi="http://sodipodi.sourceforge.net/DTD/sodipodi-0.dtd"
   xmlns:inkscape="http://www.inkscape.org/namespaces/inkscape"
   width="500.00003"
   height="590"
   viewBox="0 0 132.29167 156.10417"
   version="1.1"
   id="svg847"
   sodipodi:docname="Ainazi.svg"
   inkscape:version="1.0.2 (e86c870879, 2021-01-15, custom)">
  <defs
     id="defs841" />
  <sodipodi:namedview
     id="base"
     pagecolor="#ffffff"
     bordercolor="#666666"
     borderopacity="1.0"
     inkscape:pageopacity="0.0"
     inkscape:pageshadow="2"
     inkscape:zoom="1.4"
     inkscape:cx="304.20172"
     inkscape:cy="157.44722"
     inkscape:document-units="px"
     inkscape:current-layer="g1095"
     inkscape:document-rotation="0"
     showgrid="false"
     inkscape:snap-smooth-nodes="true"
     inkscape:showpageshadow="false"
     borderlayer="true"
     units="px"
     inkscape:window-width="1920"
     inkscape:window-height="1017"
     inkscape:window-x="-8"
     inkscape:window-y="-4"
     inkscape:window-maximized="1"
     showguides="false"
     inkscape:object-paths="false"
     inkscape:snap-global="true" />
  <metadata
     id="metadata844">
    <rdf:RDF>
      <cc:Work
         rdf:about="">
        <dc:format>image/svg+xml</dc:format>
        <dc:type
           rdf:resource="http://purl.org/dc/dcmitype/StillImage" />
        <dc:title />
      </cc:Work>
    </rdf:RDF>
  </metadata>
  <g
     inkscape:label="Layer 1"
     inkscape:groupmode="layer"
     id="layer1"
     transform="translate(-29.402662,-46.908376)">
    <g
       id="g1095"
       transform="matrix(1.002896,0,0,1.002896,-0.0851455,-0.13584195)">
      <g
         id="g1552"
         transform="matrix(1.0000232,0,0,1.0000232,-6.8106873e-4,-0.00108656)">
        <path
           id="path915"
           style="font-variation-settings:normal;opacity:1;vector-effect:none;fill:#d73e42;fill-opacity:1;stroke:none;stroke-width:0.793749;stroke-linecap:butt;stroke-linejoin:miter;stroke-miterlimit:4;stroke-dasharray:none;stroke-dashoffset:0;stroke-opacity:1;stop-color:#000000;stop-opacity:1"
           d="m 29.930473,47.435865 v 88.679055 c 0,41.02875 33.308954,65.91547 65.425462,65.91547 V 47.435865 Z" />
        <path
           id="path1045"
           style="font-variation-settings:normal;opacity:1;vector-effect:none;fill:#e1e3e4;fill-opacity:1;stroke:#000000;stroke-width:1.5;stroke-linecap:butt;stroke-linejoin:miter;stroke-miterlimit:4;stroke-dasharray:none;stroke-dashoffset:0;stroke-opacity:1;stop-color:#000000;stop-opacity:1"
           d="m 262.5,198.43164 c -6.12415,0.004 -13.30405,0.77836 -19.48047,3.52344 l -55.53711,24.68359 -9.3125,-9.15039 c 0,0 2.68858,-1.4032 1.51953,-4.17969 -1.16905,-2.77648 -8.35742,-3.03906 -8.35742,-3.03906 0,0 -4.14175,3.66184 -3.41992,6.83789 0.72183,3.17605 5.12891,2.08985 5.12891,2.08985 l 0.0625,10.06835 c -3.73995,-1.3321 -6.4592,-1.68376 -9.49414,-1.06054 -3.03495,0.62322 -5.53346,2.57274 -6.08008,5.80859 0,0 -6.46018,-2.65983 -11.20899,0.18945 -4.7488,2.84928 -3.41797,7.78907 -3.41797,7.78907 0,0 -6.2684,0.18922 -8.92773,3.98828 -2.65933,3.79904 -0.38086,8.73828 -0.38086,8.73828 0,0 -1.13818,1.1395 -1.32813,3.79883 -0.18997,2.65933 -0.41992,9.55664 -0.41992,9.55664 0,0 5.09128,4.82541 6.76563,6.3457 1.67434,1.52028 2.61532,1.67925 3.4414,1.31055 0.82611,-0.3687 1.01802,-1.47044 0.53321,-3.0918 l 3.90429,-1.73633 c 0.37991,2.46938 0.97004,4.96533 4.19922,4.77539 3.22919,-0.18994 5.57264,-1.01447 7.66211,4.49415 2.08947,5.50861 13.95117,35.84179 13.95117,35.84179 -7.02727,1.45407 -13.45038,7.25697 -19.41406,15.23438 -7.06546,9.45122 -12.84987,9.45946 -19.07226,8.32812 1.7974,5.67212 5.62641,8.71172 13.25195,6.53711 -9.55374,10.01655 -5.87616,24.56797 -5.37305,35.18945 0.50312,10.62148 -2.04447,14.40191 -5.37304,17.73047 2.82114,1.23119 6.77284,1.34468 11.19335,-1.61132 -3.18853,11.71464 5.55876,15.23649 11.82032,21.75781 6.26157,6.52128 6.52113,10.06981 6,15.58203 0,0 4.38609,-1.34294 5.95312,-7.52149 2.64001,1.56547 4.29623,2.59507 5.77539,4.07422 -0.77292,1.74286 -0.87041,3.31178 -0.80468,4.70117 -2.36907,2.01328 -3.02842,3.04494 -3.22461,6.98438 -2.33017,1.66656 -3.50735,4.49388 -3.49219,8.05859 -2.41508,1.84596 -3.50471,4.68466 -3.22266,8.59571 -4.02949,6.44717 -11.81965,4.29822 -17.46093,6.44726 -6.07171,2.31321 -8.25673,-1.30248 -14.23829,2.14844 -5.98156,3.45088 -3.75976,9.67188 -3.75976,9.67188 0,0 -4.03051,2.95472 -3.22461,7.52148 0.8059,4.56676 5.10351,5.64062 5.10351,5.64062 -0.26863,-4.29813 3.22461,-6.98437 3.22461,-6.98437 0,0 3.492,1.88042 7.52149,0 4.02949,-1.88045 3.22265,-6.98438 3.22265,-6.98438 2.4177,-0.26874 5.14355,-0.18815 9.13477,-2.14843 3.82859,-1.88046 2.4653,2.41822 -0.26953,4.83593 -3.01892,2.66888 -6.35526,2.61476 -8.0586,6.44727 -1.70332,3.83251 1.88086,7.78906 1.88086,7.78906 0,0 -2.30411,3.68973 -0.5371,8.32813 1.767,4.6384 7.78906,4.02929 7.78906,4.02929 -1.34317,-5.64128 2.41797,-8.86523 2.41797,-8.86523 6.98445,-1.07452 6.71711,-5.37164 5.64257,-10.20703 -1.07453,-4.83539 1.88008,-9.40309 4.56641,-10.20899 2.68633,-0.80589 4.02903,3.49269 1.61133,11.82032 -2.4177,8.32759 4.5664,7.2539 4.5664,7.2539 0,5.10403 -2.14843,7.52149 -2.14843,7.52149 11.28258,1.88041 9.66992,-7.52149 9.66992,-7.52149 8.32762,-1.88041 6.717,-7.79156 2.6875,-12.62695 -4.02949,-4.83539 -7.79102,-7.52082 -7.79102,-13.16211 0,-5.64128 3.22315,-9.93994 10.49219,-26.10937 3.75859,4.11637 3.40746,6.36314 2.84961,11.01757 2.6016,-0.29527 5.30886,-1.94638 5.75391,-5.91797 1.80175,2.0704 3.0622,3.68388 7.17382,3.88477 4.11163,0.2009 6.35978,-0.23835 16.17383,1.99219 9.81406,2.23046 24.36506,13.7525 35.46094,26.05664 11.09588,12.30414 12.74445,13.93063 17.4043,20.33789 -10.47668,-5.10402 -54.56559,-16.03876 -60.74414,-17.11328 -6.17856,-1.07456 -8.59652,-0.53718 -15.84961,6.44726 -7.25309,6.98444 -10.64921,12.5298 -14.50586,17.46094 -3.85665,4.93118 -6.25986,6.33798 -6.75,8.58789 -0.49015,2.24991 0.50348,4.90022 0.83984,9.67774 0.33637,4.77751 -3.45596,7.93115 -8.5957,6.71679 -5.13973,-1.21435 -6.48062,-5.28991 -4.83594,-8.5957 -3.1274,-1.04003 -8.04228,1.33641 -8.32812,10.20703 -0.28808,8.94025 5.62937,15.17593 13.05859,16.2461 -0.41662,2.08309 1.65067,7.45413 9.87891,7.21874 8.22823,-0.23538 12.84894,-4.5449 17.53711,-7.88476 6.79794,8.17014 6.18414,13.24497 13.52148,18.62695 -1.07453,3.22357 0,5.90821 0,5.90821 -8.76183,4.63032 -10.49955,11.69721 -21.27734,14.86718 -4.73706,-5.30708 -7.04286,-8.16498 -11.63282,-14.71875 -4.58995,-6.5538 -3.16796,-9.7518 -6.91797,-13.06054 -3.51194,-3.09872 -7.01979,-2.37633 -8.96093,-0.44532 0,0 -3.41817,-4.56023 -8.54688,-1.71093 -5.1287,2.84926 -3.33008,7.32422 -3.33008,7.32422 4.43245,-1.3432 6.58008,2.01367 6.58008,2.01367 -2.55201,3.35794 -1.52148,6.98437 -1.52148,6.98437 -6.16539,-2.69104 -9.3911,2.76845 -7.79102,6.7168 4.56676,-1.88042 7.52344,1.61133 7.52344,1.61133 0,0 -4.30004,2.68714 -3.49414,7.2539 0.8059,4.56677 5.91016,6.44727 5.91016,6.44727 -1.95755,2.92135 -2.43278,5.40732 -0.53711,9.40039 2.95496,-2.68631 6.44726,-0.80469 6.44726,-0.80469 -0.53726,2.3819 -1.85997,8.26789 2.6875,12.08789 4.54748,3.82 11.57557,0.53667 15.04297,-1.34375 0.58494,3.66061 -2.80452,5.61157 1.88086,10.47656 -1.25381,1.18949 -3.21585,1.17053 -5.64258,0.80665 0,1.22201 0.98938,6.12962 5.91016,6.44726 4.90245,0.31613 6.71679,-5.37305 6.71679,-5.37305 5.37266,-1.61178 6.8621,-3.30685 6.98438,-6.98437 0.12228,-3.67752 -2.55961,-4.27055 -2.6875,-8.5957 5.90992,-2.68631 12.62695,-7.25391 12.62695,-7.25391 0.53727,2.95494 3.88626,7.5814 10.47657,7.25391 6.5903,-0.32788 10.48442,-3.44768 12.89453,-6.44727 8.32762,2.41772 11.28125,-3.22266 11.28125,-3.22266 3.76085,0.8059 9.62188,-1.2732 9.13476,-11.01562 -0.48712,-9.74243 -4.83515,-14.77392 -7.52148,-26.59375 -2.68633,-11.81983 -5.19336,-18.98438 -5.19336,-18.98438 7.18837,-0.74414 11.81836,-7.96955 11.81836,-19.07226 7.1122,-4.08628 11.41345,-6.19678 21.04297,-10.47656 -5.37266,15.0434 -10.05978,24.09827 -12.08789,29.28125 -2.0578,5.25886 -1.45244,15.96339 -1.07422,29.01172 0.37821,13.04832 0.88128,22.61923 1.49414,26.5957 -14.03366,6.31349 -32.31454,20.279 -30.79492,42.69336 1.51962,22.41435 18.25757,31.19524 35.33203,22.41601 17.06113,-8.77236 23.23431,-6.01765 26.97265,-2.27929 2.08699,-4.73154 0.68404,-11.0942 -3.84179,-13.27539 -4.6875,-2.25913 -9.8173,-2.36856 -16.26563,0.38085 -5.74567,2.44987 -8.73905,3.40917 -12.0918,4.22852 5.90028,-1.74772 8.97737,-7.04003 8.26563,-12.99023 -0.75443,-6.30712 -5.69922,-7.97657 -5.69922,-7.97657 0.75981,3.03924 0.13631,11.48003 -7.97851,12.15625 -8.11481,0.67622 -13.67505,-7.59799 -9.4961,-18.61523 4.17895,-11.0172 18.66992,-18.41211 18.66992,-18.41211 1.37367,2.13298 4.65252,4.29696 5.55078,4.74609 0.8059,8.32764 0.54089,16.35948 5.85352,23.65235 5.31263,7.29287 14.68717,6.20885 18.05274,1.68359 5.26033,2.39039 11.81529,1.9882 16.09374,-2.1914 -4.4165,12.61833 -3.11627,19.83019 -8.10546,37.91601 -3.3328,-0.0227 -4.84393,0.75057 -10.97071,2.43555 -6.12677,1.68498 -7.21881,-3.03862 -14.62695,-3.22852 -7.40814,-0.1899 -7.59766,7.21875 -7.59766,7.21875 -3.69631,-0.0114 -7.43859,1.10419 -9.11718,4.74805 -1.6786,3.64386 0.9649,8.46943 3.92773,9.6543 0.61099,-3.77983 3.56208,-4.45822 6.17773,-3.76172 0,0 -0.122,4.87569 2.41797,6.71679 2.87831,2.08636 7.0586,-0.88086 7.0586,-0.88086 0.32143,2.20568 0.99609,3.65821 0.99609,3.65821 0,0 -3.60892,1.89864 -3.03906,7.02734 0.56985,5.1287 6.45703,5.88867 6.45703,5.88867 -0.17334,-4.05732 1.55504,-5.18592 3.79883,-6.07812 0,0 3.99047,4.36865 8.35937,3.79883 4.3689,-0.56986 6.58985,-4.77344 6.58985,-4.77344 -0.60298,8.47019 5.87877,10.74609 8.86523,10.74609 2.81852,4.99509 9.02452,5.90797 13.96875,2.41797 -2.75405,-1.63513 -4.62578,-3.056 -6.17773,-5.64258 6.35484,-3.93716 7.63239,-9.17569 4.83398,-14.50586 -2.79841,-5.33012 -3.53712,-6.33857 -2.24805,-12.11328 3.6091,4.17892 8.78516,1.72657 8.78516,1.72656 3.76086,2.95498 1.88086,7.25391 1.88086,7.25391 0,0 4.80303,0.53626 5.91016,-3.22461 1.10712,-3.76087 -2.15039,-6.71484 -2.15039,-6.71484 1.93469,-2.27421 3.28333,-6.75211 0,-9.67188 -3.28333,-2.91976 -5.85244,-1.83548 -9.40039,-4.5664 2.68632,-8.8649 8.05859,-22.02735 8.05859,-22.02735 5.37265,-0.49158 8.99805,-3.96669 8.99805,-9.26953 2.94486,-2.40759 5.29208,-5.54579 6.31445,-10.07226 1.02237,-4.52651 -0.56027,-7.92616 -2.95508,-9.49219 2.95496,-3.76087 7.42105,-12.45473 4.76172,-18.5332 -2.65933,-6.07848 -9.11719,-5.31836 -9.11719,-5.31836 2.27943,9.4976 -7.02812,8.16818 -10.44726,4.36914 -3.41914,-3.79908 -7.20313,-7.44727 -7.20313,-7.44727 1.08135,-3.05717 0.48183,-6.98068 -1.07226,-11.36133 -1.5541,-4.38065 -3.76464,-7.51858 -6.32422,-9.52734 6.49844,-3.63522 13.42054,-8.27241 18.76953,-13.72266 15.21983,-15.50792 19.60562,-40.56896 5.03125,-57.04297 -14.57437,-16.47396 -32.31172,-13.2275 -39.53321,-13.92578 -7.22148,-0.69832 -9.79127,-3.39143 -14.48046,-7.53711 -4.6892,-4.14567 -9.31603,-9.35068 -16.35352,-19.66797 -7.03748,-10.31725 -9.49845,-14.26254 -11.96484,-19.19531 3.2779,0.069 5.31017,-0.46607 5.96679,-1.96289 0.65663,-1.49682 -1.08173,-3.8574 -2.27343,-6.80469 -1.19171,-2.94728 -3.84269,-10.37067 -3.51368,-22.21484 2.72029,7.6168 6.57616,15.49902 15.49024,21.58008 8.91407,6.08105 20.41593,2.95574 27.40039,-2.68555 6.98445,-5.64132 5.91144,-9.67142 -1.87891,-11.2832 -7.79035,-1.61182 -19.91187,-4.94566 -27.43359,-13.81055 7.18612,3.07976 14.38609,4.87219 30.38867,4.67774 16.00258,-0.19446 25.51902,-4.02964 30.62305,-12.89453 5.10403,-8.8649 4.65043,-13.88135 0,-12.35743 -4.65043,1.52392 -10.04656,3.07995 -17.67969,4.33789 -7.63313,1.25795 -19.98536,2.82958 -34.23047,3.10743 18.78898,-1.29187 33.04696,-4.79816 47.25391,-12.63868 14.20694,-7.84051 20.95386,-21.22257 21.75976,-28.20703 0.8059,-6.98445 -3.76195,-6.17824 -9.67187,-1.07422 -5.90992,5.10403 -23.60703,15.05446 -45.09766,22.57618 12.99232,-7.2757 29.46594,-18.5101 40.12696,-29.36329 10.66101,-10.85319 14.89,-16.64492 15.08593,-25.51953 0.19593,-8.87461 -1.14095,-14.64017 -3.99023,-14.07031 -2.84928,0.56986 -6.57183,8.05246 -18.12305,19.06641 -11.55121,11.01394 -18.93499,16.25008 -27.53125,22.69726 0,0 16.24937,-16.87656 31.83008,-38.36718 15.58071,-21.49063 20.41469,-50.50297 18.26563,-67.15821 -2.14907,-16.65524 -11.82001,-18.89394 -12.89454,-17.55078 -1.07453,1.34317 -0.77386,12.19208 -8.32617,28.47461 -6.95458,14.99384 -28.99914,47.8057 -44.19531,64.52148 -15.19617,16.71579 -24.10552,22.14627 -26.70508,28.55664 -2.59956,6.41038 1.02002,10.94923 5.81055,14.1504 0.60723,3.6434 -0.26042,7.61235 -5.49414,10.05273 -5.23374,2.44038 -11.52643,0.85041 -17.82227,-2.29102 -6.29584,-3.14143 -9.89217,-6.98562 -14.82226,-10.99023 0,0 4.9971,-3.17215 8.2207,-5.58984 0,0 0.80676,2.4166 3.76172,3.75976 -0.35362,-6.60336 2.89626,-10.57082 9.66992,-14.50586 6.77366,-3.93503 16.38742,-9.13347 20.68555,-16.92383 0,0 1.16328,1.43344 3.84961,1.97071 -0.63103,-6.94135 0.12714,-13.13513 8.32812,-25.52149 8.20099,-12.38636 9.93918,-24.17551 7.52149,-35.18945 -2.4177,-11.01395 -7.19198,-13.98565 -9.40235,-21.75977 -2.21036,-7.77411 -1.34226,-11.82012 0.26953,-15.84961 -3.0627,-0.18994 -6.35177,-0.006 -10.20898,3.76172 -3.85722,3.76748 -4.02825,8.32746 -4.29688,13.96875 -5.14838,0 -11.94422,-0.62595 -20.57421,-2.43945 -8.63,-1.8135 -11.12469,-1.50215 -12.19922,2.52734 -3.7149,-0.84371 -8.97112,-2.25103 -15.61328,-0.91601 -6.64217,1.33502 -9.47886,5.23605 -6.86133,12.44141 -0.31806,2.32271 0.33365,5.57384 3.82812,7.24804 0,0 0.82609,-4.80363 7.81055,-5.07226 6.98445,-0.26863 8.59766,4.83593 8.59766,4.83593 4.41902,0 9.62583,2.17013 13.32031,7.33203 3.69447,5.16191 3.90384,7.89584 3.33398,11.74024 -5.46559,-3.75572 -9.48946,-3.86219 -16.83203,-1.6582 -7.82523,2.34886 -12.57368,1.57928 -13.52344,-4.25196 -1.6953,0.7503 -3.52668,2.65918 -3.49218,5.91016 0.0345,3.25098 1.32991,4.71777 4.02929,7.25391 -0.3799,1.53617 -1.1401,2.68827 -2.64062,4.10742 2.31818,1.21982 6.03671,-0.0158 9.31054,-2.41797 3.27384,-2.40221 7.46801,-2.00857 10.83985,-0.94922 3.37184,1.05934 4.63921,2.42221 8.09961,5.08008 -8.74113,0.43799 -13.33805,1.94146 -18.80274,5.64062 -7.08746,-4.31031 -18.09027,-1.94374 -24.98437,1.07422 -3.70843,1.6234 -6.26804,2.80084 -8.82227,3.7207 -0.062,-1.83505 -1.15316,-3.39995 -2.10156,-4.72851 -0.0716,-2.82807 -1.22596,-5.80755 -3.62695,-8.16016 -0.61503,-3.91645 -2.04916,-7.01506 -4.1836,-9.41211 -0.55269,-3.47747 -1.7395,-6.95416 -4.63672,-10.43164 -0.26863,-3.22359 3.29035,-3.53116 6.51954,-5.05078 3.22918,-1.51961 3.83235,-4.49426 2.87304,-8.52539 1.10405,-0.61445 2.20711,-1.36513 2.90821,-2.74023 l 8.36328,9.53125 c 0,0 -2.68858,1.40125 -1.51953,4.17773 1.16905,2.77648 8.35742,3.03906 8.35742,3.03906 0,0 4.14175,-3.66184 3.41992,-6.83789 -0.72183,-3.17605 -4.55859,-2.46875 -4.55859,-2.46875 l -0.88086,-17.87304 60.31054,-26.80469 c 14.11754,-6.27446 19.375,-22.03516 19.375,-22.03516 0,0 -6.12804,-1.26892 -14.00195,-1.26367 z m 33.20117,306.84375 c 12.89438,1.07452 24.04103,-1.97614 32.96289,7.83789 8.92187,9.81407 7.25266,30.62278 -1.88086,41.63672 -9.13351,11.01394 -21.33203,13.61328 -21.33203,13.61328 -1.15198,-6.00202 -0.54747,-19.59718 -1.76953,-33.26172 -1.22206,-13.66454 -4.30612,-22.73943 -7.98047,-29.82617 z"
           transform="matrix(0.26381931,0,0,0.26381931,0.08489963,0.13544969)" />
        <path
           id="path911"
           style="font-variation-settings:normal;opacity:1;vector-effect:none;fill:#f5c10d;fill-opacity:1;stroke:none;stroke-width:1.5875;stroke-linecap:butt;stroke-linejoin:miter;stroke-miterlimit:4;stroke-dasharray:none;stroke-dashoffset:0;stroke-opacity:1;stop-color:#000000;stop-opacity:1"
           d="M 95.355935,47.435865 V 202.03039 c 32.116515,0 65.425465,-24.88672 65.425465,-65.91547 V 47.435865 Z" />
        <path
           id="path854"
           style="opacity:0.999;fill:#000000;fill-opacity:1;stroke-width:1.5875;stroke-linecap:round;stroke-miterlimit:4;stroke-dasharray:none"
           d="m 135.31101,69.581283 c -2e-5,3.030895 -1.8623,5.625592 -4.50463,6.705531 0.007,1.626441 0.0291,7.19482 0.047,11.545549 h 17.08888 c 1.09934,0 1.98438,0.885031 1.98438,1.984375 0,1.099344 -0.88504,1.984375 -1.98438,1.984375 H 130.8694 c 0.0783,19.201417 0.18087,45.080097 0.18087,51.559127 0,9.48895 6.20624,16.39494 12.50828,13.82758 6.30205,-2.56735 4.61432,-11.28999 2.84789,-15.8011 -1.09436,3.7037 -2.2448,6.36062 -4.61264,7.96127 0,0 0.32681,-7.86984 -0.70848,-12.89844 -0.99218,-4.8192 -2.83505,-8.78816 -5.24465,-11.19776 1.36582,-0.34147 6.60578,1.59889 11.90625,6.09471 5.3088,4.50289 7.08728,9.21362 7.22902,11.48147 -1.76362,-1.60309 -3.43853,-2.38126 -5.63221,-2.62309 2.86816,4.13024 4.85507,17.43942 -3.36104,22.03379 -8.21611,4.59437 -14.74302,-0.76202 -17.91415,-5.3082 -3.17114,4.54618 -9.69753,9.90257 -17.91364,5.3082 -8.21611,-4.59437 -6.22919,-17.90355 -3.36103,-22.03379 -2.19369,0.24183 -3.8686,1.02 -5.63222,2.62309 0.14174,-2.26785 1.9197,-6.97858 7.2285,-11.48147 5.30047,-4.49582 10.54043,-6.43618 11.90625,-6.09471 -2.4096,2.4096 -4.25194,6.37856 -5.24412,11.19776 -1.03529,5.0286 -0.709,12.89844 -0.709,12.89844 -2.36784,-1.60065 -3.51776,-4.25757 -4.61212,-7.96127 -1.76643,4.51111 -3.45417,13.23375 2.84789,15.8011 6.30204,2.56736 12.50828,-4.33863 12.50828,-13.82758 0,-6.47903 0.10261,-32.35771 0.18086,-51.559127 h -17.07284 c -1.09935,0 -1.98437,-0.885031 -1.98437,-1.984375 0,-1.099344 0.88502,-1.984375 1.98437,-1.984375 h 17.08888 c 0.0179,-4.350729 0.0402,-9.919108 0.047,-11.545549 -2.64234,-1.079939 -4.50513,-3.674634 -4.50515,-6.705531 3e-5,-3.999886 3.24256,-7.242471 7.24246,-7.242453 3.99991,1.7e-5 7.24244,3.24257 7.24247,7.242453 z m -11.57449,0 c 3e-5,1.359969 0.62784,2.572504 1.60817,3.366717 3.9e-4,-0.09278 0.007,-1.793171 0.007,-1.793171 0.003,-0.863764 0.69531,-1.559079 1.55908,-1.559079 h 2.31562 c 0.86377,0 1.55608,0.695315 1.55908,1.559079 0,0 0.007,1.699929 0.007,1.792655 0.98018,-0.794218 1.60763,-2.006356 1.60765,-3.366201 -3e-5,-2.392505 -1.93953,-4.332036 -4.3318,-4.332036 -2.39226,0 -4.33177,1.939531 -4.3318,4.332036 z"
           sodipodi:nodetypes="cccssscssccscsccscsccscsccsscsssccczccccssccczc" />
        <path
           style="font-variation-settings:normal;opacity:1;vector-effect:none;fill:none;fill-opacity:1;stroke:#000000;stroke-width:0.79143957;stroke-linecap:butt;stroke-linejoin:miter;stroke-miterlimit:4;stroke-dasharray:none;stroke-dashoffset:0;stroke-opacity:1;stop-color:#000000;stop-opacity:1"
           d="M 95.355958,202.03051 V 47.43601"
           id="path852"
           sodipodi:nodetypes="cc" />
        <path
           id="path1243"
           style="color:#000000;font-style:normal;font-variant:normal;font-weight:normal;font-stretch:normal;font-size:medium;line-height:normal;font-family:sans-serif;font-variant-ligatures:normal;font-variant-position:normal;font-variant-caps:normal;font-variant-numeric:normal;font-variant-alternates:normal;font-variant-east-asian:normal;font-feature-settings:normal;font-variation-settings:normal;text-indent:0;text-align:start;text-decoration:none;text-decoration-line:none;text-decoration-style:solid;text-decoration-color:#000000;letter-spacing:normal;word-spacing:normal;text-transform:none;writing-mode:lr-tb;direction:ltr;text-orientation:mixed;dominant-baseline:auto;baseline-shift:baseline;text-anchor:start;white-space:normal;shape-padding:0;shape-margin:0;inline-size:0;clip-rule:nonzero;display:inline;overflow:visible;visibility:visible;opacity:1;isolation:auto;mix-blend-mode:normal;color-interpolation:sRGB;color-interpolation-filters:linearRGB;solid-color:#000000;solid-opacity:1;vector-effect:none;fill:#000000;fill-opacity:1;fill-rule:nonzero;stroke:none;stroke-width:3.79047;stroke-linecap:butt;stroke-linejoin:miter;stroke-miterlimit:4;stroke-dasharray:none;stroke-dashoffset:0;stroke-opacity:1;color-rendering:auto;image-rendering:auto;shape-rendering:auto;text-rendering:auto;enable-background:accumulate;stop-color:#000000;stop-opacity:1"
           d="m 244.74715,213.47914 c -4.02897,1.79891 -52.85848,23.60094 -52.85848,23.60094 l 0.61524,1.36914 c 0,0 48.73591,-21.76024 52.76488,-23.55915 4.02897,-1.79891 7.10132,-3.99261 7.10132,-3.99261 0,0 -3.59399,0.78278 -7.62296,2.58168 z m 24.44621,31.5443 c -1.05329,-2.79082 -1.30797,-5.02903 -0.85742,-6.92969 0.45054,-1.90066 1.60906,-3.52829 3.11231,-5.7002 -2.6158,1.14123 -4.03102,3.07331 -4.5713,5.35254 -0.54028,2.27923 -0.20896,4.83749 0.91016,7.80274 2.14046,5.67144 2.29828,9.06664 2.04785,13.16699 1.77094,-3.98513 1.56274,-7.85169 -0.6416,-13.69238 z m -28.57617,19.15234 c -2.75834,-3.68863 -4.18128,-6.74088 -5.68555,-9.60156 -1.50427,-2.86069 -3.11017,-5.53608 -6.15234,-8.24024 l -0.99219,1.125 c 2.87316,2.55393 4.3321,4.99526 5.8125,7.81055 1.4804,2.8153 2.96227,5.9997 5.81055,9.80859 5.52991,7.39498 6.97716,12.01896 7.58886,16.73926 1.01039,-4.94893 -0.69852,-10.0415 -6.38183,-17.6416 z m 87.41015,-2.02148 c -2.66707,6.57934 -6.47138,15.99834 -10.04492,24.50586 -7.1344,16.98486 -14.91718,28.74299 -25.03906,38.76953 -6.66047,6.59773 -10.54404,10.31732 -13.65039,14.15039 -0.0573,0.0645 -0.11455,0.11735 -0.17188,0.18359 l 0.0156,0.0137 c -1.5785,1.96705 -2.97407,3.97299 -3.77539,6.81543 2.07269,-2.04866 3.44199,-4.01747 5.00195,-5.9541 2.50432,-2.84784 4.75324,-3.72973 6.49414,-3.66015 1.43909,0.0575 2.35052,1.00238 3.10352,1.9414 -1.73954,0.54641 -3.5692,1.04607 -4.88672,2.7461 -1.63072,2.10414 -2.49008,5.45541 -2.10352,11.06054 0.0406,4.25844 -0.40383,9.61325 -4.94824,11.72266 5.41392,-1.19426 6.69133,-7.54167 6.44434,-11.82617 -0.37325,-5.4121 0.47747,-8.33636 1.79101,-10.03125 1.31355,-1.6949 3.85166,-2.21406 6.24492,-2.75115 -0.87798,-2.78833 -3.25955,-4.26334 -5.58476,-4.35627 -0.7121,-0.0285 -1.46559,0.0824 -2.24219,0.3164 2.39427,-2.48419 5.34616,-5.36216 9.32617,-9.30469 10.26613,-10.16943 18.17373,-22.1436 25.36328,-39.25976 3.58845,-8.543 7.4341,-18.10072 10.03907,-24.47461 2.60497,-6.37389 4.0593,-11.04579 8.26271,-14.56252 -5.04071,3.15157 -6.97257,7.37573 -9.63964,13.95507 z m -107.7207,-13.35157 c -1.6348,2.8161 0.15918,5.4082 0.15918,5.4082 0,0 0.66068,-1.94387 0.69629,-3.33202 0.87848,0.55585 2.91628,1.69026 5.95215,4.2832 -2.5514,-4.39116 -6.27051,-6.54101 -6.80762,-6.35938 z m 20.60323,0.58874 c -1.95176,1.46361 -2.12588,3.28869 -1.11495,4.57534 0.90896,1.15685 2.6086,1.80812 4.98047,1.7832 -0.0115,0.88214 0.0622,2.55302 0.63477,4.125 -1.01659,0.28154 -1.51285,0.74206 -1.86789,1.51911 1.47448,-0.2949 3.61395,-0.69621 6.72766,-0.86721 3.11372,-0.17101 5.00361,0.0967 7.58945,0.67232 -1.32589,-2.44788 -3.41742,-5.00403 -5.44922,-5.98243 -2.0318,-0.9784 -4.1809,-1.18602 -6.92188,-0.99024 -2.51249,0.17947 -3.95164,-0.4855 -4.50781,-1.19336 -0.55617,-0.70785 -0.3443,-1.83199 1.03292,-2.62807 1.37723,-0.79608 4.07704,-0.65526 7.13602,0.29294 -1.67872,-2.30521 -6.28777,-2.77021 -8.23954,-1.3066 z m 13.67021,9.964 c -1.91596,-0.17895 -3.90001,-0.10821 -5.62696,0.0469 0.0833,-1.40936 -0.0704,-2.50015 -0.25976,-3.63283 3.45433,0.26127 4.61258,1.6109 5.88672,3.58593 z m -8.78948,4.79381 c 1.81118,4.31081 5.08937,7.34086 11.1469,6.20814 -3.88304,-1.00423 -7.07165,-1.49384 -9.17764,-5.28811 4.34178,-1.32399 9.55947,-1.36033 9.55947,-1.36033 -3.56796,-1.41476 -8.50572,-1.2421 -11.52873,0.4403 z m -86.66169,1.66322 -1.44336,-0.41602 c -0.66769,2.62559 -0.79429,5.13172 1.11132,7.02344 -0.36324,-2.26788 -0.14028,-4.91966 0.33204,-6.60742 z m 105.29687,34.43945 0.9043,1.19922 c 3.29699,-2.46752 5.10752,-6.58602 7.72461,-9.87305 -3.92773,2.4397 -5.78978,6.54898 -8.62891,8.67383 z m -18.75195,-0.68945 -0.0684,1.36523 c -6.39396,0.59037 -12.68162,3.5769 -18.21387,4.71387 7.09079,0.0665 13.95784,-3.06057 20.08887,-3.33887 l -0.0527,-1.35742 c 3.40371,-0.48728 7.03248,-2.54967 9.51075,-4.79785 -3.72104,1.22343 -8.13898,3.56747 -11.26465,3.41504 z m 19.14453,8.63281 -1.25781,-0.81445 c -7.49134,9.33897 -16.95604,14.56083 -27.84376,18.94531 10.65161,-3.24601 22.90348,-8.96975 29.10157,-18.13086 z m -63.54883,6.00391 -0.25976,-1.48047 c -21.13046,3.67577 -29.36134,26.4043 -29.36134,26.4043 0,0 9.70894,-20.07411 29.6211,-24.92383 z M 231,314.34766 l -0.23633,-1.48047 c -11.53185,0.31082 -20.83782,7.76478 -26.60366,14.83147 8.60238,-7.94619 18.23807,-11.96355 26.83999,-13.351 z m 41.13281,29.58691 c 1.07012,-3.24606 2.55638,-6.72465 4.36816,-9.1211 -3.12505,1.94512 -6.11063,5.42253 -4.36816,9.1211 z m -36.95703,-6.12598 -0.93164,-1.17773 c -8.89428,7.04131 -24.60547,11.98731 -24.60547,11.98731 0,0 16.19599,-3.41453 25.53711,-10.80958 z m -34.17969,5.375 -0.5039,-1.41406 c -11.03839,3.94228 -17.06836,17.10547 -17.06836,17.10547 0,0 7.33601,-12.0356 17.57226,-15.69141 z m 13.29392,13.24019 c 3.25733,-0.0406 5.55726,0.94362 7.9014,2.8477 l 0.93945,-1.16406 c -2.58596,-2.10052 -4.78243,-3.517 -8.95703,-3.375 -4.1746,0.142 -8.54035,2.17465 -7.45717,6.49052 1.83969,-3.25273 4.31602,-4.75856 7.57335,-4.79916 z m -41.02835,1.12895 -0.95502,-1.15429 c -12.16997,10.74877 -5.61208,23.13939 -7.11723,35.90917 3.48683,-15.12283 -2.86035,-25.28644 8.07225,-34.75488 z m 21.59576,21.95118 1.48828,0.19921 c 0.69366,-3.03802 1.28689,-7.42432 5.43457,-11.56347 -4.8656,0.64575 -6.32979,7.18025 -6.92285,11.36426 z m -3.46484,-9.37305 -0.93164,-1.16992 c -6.07217,7.01052 -2.69059,15.73538 -2.6504,23.80274 2.00812,-7.13675 -2.10618,-17.8474 3.58204,-22.63282 z m 100.25586,7.07031 -0.40821,-1.44336 c -7.03107,1.9911 -11.06738,1.9209 -11.06738,1.9209 0,0 4.19694,1.58365 11.47559,-0.47754 z m -89.06153,-0.19631 c -3.71947,0.98462 -5.50569,4.0977 -4.30176,8.05859 0.68837,-3.38273 2.00782,-6.41971 4.30176,-8.05859 z m 1.88086,5.37112 c -3.81606,0.67858 -4.0892,4.86539 -3.22851,8.32812 0.75851,-2.89101 0.72512,-6.1442 3.22851,-8.32812 z m 0.0889,17.59082 1.43555,-0.42969 c -0.83409,-3.88444 -1.54951,-7.62547 -0.0877,-11.53418 -2.60548,2.57417 -3.0256,6.28898 -1.34786,11.96387 z m 9.10547,2.53906 1.48828,-0.14063 c -0.15274,-2.33094 0.0648,-4.47473 0.44043,-6.95605 -1.80632,1.82821 -2.12224,4.83854 -1.92871,7.09668 z m 60.31445,-5.52347 -0.0156,-1.50195 c -5.01149,0.0627 -8.22365,0.31054 -8.22365,0.31054 0,0 3.11997,1.25543 8.23925,1.19141 z m -47.5664,12.85938 1.23632,-0.84375 c -1.65014,-2.40555 -1.62295,-3.42834 -1.9873,-5.80078 0,0 -1.31077,3.63895 0.75098,6.64453 z m 29.88672,-0.53321 0.57031,-1.39062 c -3.1703,-1.30351 -5.94434,-4.14942 -5.94434,-4.14942 0,0 1.62737,3.99956 5.37403,5.54004 z m -15.82813,1.98436 1.05859,-1.05859 c -2.29653,-2.28627 -3.1416,-5.1377 -3.1416,-5.1377 0,0 -0.64717,3.47829 2.08301,6.19629 z m 32.59766,88.97267 c -0.39239,5.78775 -2.63362,11.89949 -5.44141,18.1836 l 1.36914,0.61328 c 2.8335,-6.34165 5.16071,-12.59411 5.57422,-18.69336 0.41351,-6.09929 -1.13582,-12.05618 -6.52539,-17.07519 4.01258,5.72629 5.41583,11.18396 5.02344,16.97167 z m 21.97265,5.36719 1.32422,-0.71093 c -1.79756,-3.32982 -4.58012,-7.34901 -6.80301,-8.94057 1.77091,3.41547 3.7267,6.40591 5.47879,9.6515 z m -92.1748,20.78125 c 0,0 2.69331,-4.17596 -0.38086,-8.54688 0.72268,4.3669 0.38086,8.54688 0.38086,8.54688 z m -5.7002,3.60938 c 0,0 2.67882,-5.10971 -0.37793,-9.69141 0.3591,4.53599 0.37793,9.69141 0.37793,9.69141 z m -12.34472,0.37793 c 0,0 2.85942,-4.34941 -0.18945,-9.49512 0.36694,4.92117 0.18945,9.49512 0.18945,9.49512 z m -3.99026,-0.37891 c 0,0 2.84391,-3.60996 0.003,-8.92774 0.004,6.08154 -0.003,8.92774 -0.003,8.92774 z m 5.46975,12.12402 c -3.97268,5.73833 -11.61634,9.43382 -18.72266,8.41016 l -0.21484,1.48047 c 7.75212,1.11667 15.85848,-2.81423 20.16797,-9.03906 4.32585,-6.24845 4.44931,-14.85869 3.14649,-18.68945 -0.22831,3.69097 -0.42065,12.12322 -4.37696,17.83788 z m 31.64258,0.84375 1.16211,0.95508 c 3.84976,-4.69886 4.75775,-10.54178 4.25683,-14.98437 -0.98572,4.21868 -1.88419,9.71494 -5.41894,14.02929 z m 87.91406,29.78321 c 1.92475,1.78099 4.0338,3.05954 6.55859,5.04101 l 0.92578,-1.17578 c -2.52478,-1.98145 -4.56051,-3.25384 -6.3125,-4.84179 -0.32605,-1.18123 -0.60451,-2.35018 -0.83984,-3.57618 l -1.47266,0.28125 c 0.0762,0.397 0.1655,0.78147 0.25,1.16993 -1.70867,-2.05246 -2.88836,-4.4218 -4.15136,-7.54395 0.01,4.78045 2.13552,7.95609 5.04199,10.64551 z m -97.04883,-4.15235 -0.80078,1.27344 c 3.82583,2.63303 8.77634,-0.33825 6.63379,-4.03614 0.0924,4.06772 -4.10043,3.82397 -5.83301,2.7627 z m -0.73437,5.87696 0.66601,1.33984 c 3.94098,-1.95596 7.61133,-1.43164 7.61133,-1.43164 -2.52152,-1.43112 -5.91987,-1.04504 -8.27734,0.0918 z m -33.92774,11.92772 c -1.61286,-1.44178 -3.19581,-2.52644 -4.73828,-4.61328 -1.59328,-2.1556 -2.42038,-3.60323 -3.24414,-4.70898 -0.82377,-1.10576 -1.7277,-1.87309 -3.17578,-2.36914 -0.57792,-0.19798 -1.14557,-0.27694 -1.69336,-0.26172 -0.91298,0.0254 -1.7694,0.31364 -2.52539,0.75781 -1.01648,0.59719 -1.83179,1.50992 -2.61328,2.41406 -1.59203,-1.10678 -3.05078,-1.91015 -3.05078,-1.91015 l -0.60743,1.36914 c 0,0 1.35102,0.599 3.28711,2.07421 l 0.57813,0.43555 0.45898,-0.5625 c 0.84402,-1.03101 1.75767,-1.97689 2.70117,-2.53125 0.94351,-0.55432 1.85669,-0.74691 2.97657,-0.36328 1.21291,0.41551 1.72758,0.86198 2.45898,1.84375 0.7314,0.98177 1.60628,2.49573 3.24219,4.70898 1.68671,2.28206 3.42396,3.474 4.94531,4.83399 1.52135,1.36002 2.84742,2.66485 4.77149,5.7334 -0.57584,-3.60526 -2.15863,-5.40877 -3.77149,-6.85059 z m 121.84948,38.63677 c 0.1654,-0.0438 0.32916,-0.11141 0.49414,-0.16406 -0.45682,1.09946 -0.76351,2.35741 -0.8789,3.67383 -0.19459,2.21966 0.15885,4.61132 1.40624,6.58203 2.0458,3.23208 5.72884,4.2453 8.52149,3.25781 -0.23433,0.30166 -0.49373,0.60715 -0.80664,0.92383 l 1.06641,1.05078 c 1.79328,-1.81484 2.4998,-3.63721 1.83984,-5.07715 -2.63871,2.67562 -7.09005,2.61521 -9.35547,-0.96387 -1.01921,-1.61019 -1.35004,-3.68288 -1.17773,-5.64843 0.17163,-1.95783 0.85568,-3.78941 1.69336,-4.86524 2.13438,-1.31906 4.0087,-3.5068 5.01562,-6.7793 2.27482,-7.39316 -1.92521,-13.14537 -4.14648,-15.82031 2.74829,1.27334 4.68419,2.8167 5.59765,4.27149 1.1908,1.89645 1.26563,3.39062 1.26563,3.39062 l 0.0508,0.98438 0.93359,-0.31055 c 3.06851,-1.02282 5.08235,-3.33527 5.69336,-6.26367 0.61101,-2.92841 -0.125,-6.43246 -2.25195,-10.03125 -0.16821,-0.2846 -0.28284,-0.51749 -0.43555,-0.78711 1.0852,0.77142 2.31175,1.4103 3.62695,2.00781 1.3925,0.63263 1.99474,1.44552 2.13282,2.30274 0.13807,0.85721 -0.20838,1.89301 -1.11914,2.93945 l -0.79102,0.91797 1.17774,0.29687 c 0.75674,0.194 1.77465,0.24543 2.8125,-0.0898 1.03783,-0.33531 2.07905,-1.12375 2.60546,-2.48047 l -1.39062,-0.53906 c -0.36498,0.94068 -0.97399,1.37155 -1.67383,1.59765 -0.41261,0.13328 -0.77293,0.0513 -1.16992,0.0371 0.53878,-0.96073 1.18915,-1.92359 1.0293,-2.91601 -0.22799,-1.41533 -1.28254,-2.65187 -2.99024,-3.42774 -3.40928,-1.54886 -5.75461,-3.07194 -6.45217,-5.88281 -0.69756,-2.81086 -0.33705,-3.49788 -0.28215,-4.61137 -1.38625,0.32765 -1.94304,1.6679 -1.51354,3.9436 0.42949,2.2757 1.39014,4.48153 3.14628,7.4529 1.98609,3.3604 2.58449,6.50986 2.07226,8.96484 -0.4633,2.2205 -1.90747,3.80978 -4.10156,4.76172 -0.10023,-0.65124 -0.0875,-1.43119 -1.10937,-3.0586 -1.37356,-2.18751 -4.02265,-4.69637 -8.92969,-6.07031 l -2.70117,-0.75586 1.96094,2 c 0,0 8.07863,8.40072 5.51562,16.73047 -1.29743,4.21664 -4.00983,6.27386 -6.76562,7.00391 -2.13528,0.56565 -4.62958,0.32629 -5.8072,-0.68722 1.69924,-0.87382 4.4774,-2.77263 5.28766,-7.09403 0.6062,-3.23305 -0.20377,-6.01079 -1.52343,-8.0918 -1.31967,-2.08101 -3.1093,-3.48629 -4.90918,-3.44238 0.85945,1.18362 2.49189,2.43014 3.6416,4.24316 1.14971,1.81299 1.85188,4.1643 1.31836,7.00977 -1.07052,5.70944 -6.3591,6.85798 -6.3591,6.85798 1.60814,2.42259 5.52619,3.50604 8.73605,2.65569 z m -55.52135,-42.67583 c -0.21504,4.1561 -1.70606,8.3584 -1.70606,8.3584 1.7152,0 3.42183,-4.34928 1.70606,-8.3584 z m -6.26954,1.13965 c -0.22536,4.07781 -2.46582,7.97754 -2.46582,7.97754 2.35145,-0.37881 4.20446,-4.93314 2.46582,-7.97754 z m -6.07519,0.95215 c -0.86039,2.87507 -1.66338,5.39614 -3.23145,7.97656 2.76105,-1.59885 3.94769,-5.17282 3.23145,-7.97656 z m -7.21777,3.03808 c -1.16027,2.24658 -2.41188,4.25768 -3.4188,6.64751 2.23929,-1.41693 3.79065,-4.2407 3.4188,-6.64751 z m 65.75586,8.51465 c 2.04814,-5.5846 -2.55079,-6.98535 -2.55078,-6.98536 0,0 2.00285,2.62166 2.55078,6.98536 z m -2.417,4.83398 c 0.54431,-5.87772 -3.4912,-6.71484 -3.4912,-6.71484 0,0 1.73533,2.79099 3.4912,6.71484 z m -110.03222,-2.95703 c -0.64829,-0.86438 -1.16169,-1.7449 -1.85742,-2.5039 -0.69574,-0.75897 -1.62721,-1.37376 -2.89454,-1.53907 -0.29874,-0.039 -0.58425,-0.0588 -0.85742,-0.0625 -1.91217,-0.026 -3.20276,0.7602 -3.92578,1.63282 -0.53711,0.64821 -0.52709,0.9573 -0.64258,1.36133 -2.11222,-1.1083 -4.02191,-1.72689 -5.54687,-1.44336 -1.73908,0.32336 -3.04543,1.3941 -4.10742,2.59765 l 1.125,0.99219 c 0.95188,-1.07877 1.96883,-1.87752 3.25781,-2.11719 1.28898,-0.23967 2.95092,0.0539 5.27148,1.45899 l 0.95313,0.57812 0.17773,-1.10351 c 0,0 0.11712,-0.70433 0.66797,-1.36915 0.55084,-0.66481 1.45465,-1.2952 3.43359,-1.0371 0.91713,0.11962 1.43168,0.47198 1.97657,1.0664 0.54488,0.59442 1.0644,1.45048 1.76953,2.39063 1.41025,1.88034 3.65821,4.01104 8.69921,4.15332 -4.45659,-1.56731 -6.20343,-3.32691 -7.49999,-5.05567 z m 64.15819,6.625 1.31055,0.72657 c 2.56531,-4.65577 -0.54101,-9.38868 -0.54101,-9.38868 0,0 1.37509,4.76983 -0.76954,8.66211 z m -27.3789,-1.24414 c -2.95388,0.15517 -4.74081,-2.35109 -5.83984,-4.92187 -1.46556,2.83692 -1.9658,5.93667 -1.51758,9.09765 l 1.47266,-0.30273 c 0,0 0.14745,-2.64796 0.5332,-4.93164 0.99123,1.28197 2.05969,2.99223 5.41992,2.5625 3.36023,-0.42973 5.55244,-3.44874 5.47569,-7.58887 -1.57034,3.23379 -2.59017,5.92979 -5.54405,6.08496 z m 16.125,4.41211 1.25196,0.83789 c 2.687,-4.00137 3.47859,-7.14473 2.22461,-10.76855 -0.27535,3.52509 -0.9083,6.10615 -3.47657,9.93066 z m 55.11426,-1.32812 c 0.0554,-6.27256 -5.23828,-6.85157 -5.23828,-6.85157 0,0 2.76133,3.18935 5.23828,6.85157 z m -15.71386,5.2373 c -2.11086,-2.98412 -2.1357,-6.14225 -2.41965,-9.53265 -2.33701,3.66192 -0.87643,8.30081 2.41965,9.53265 z m 12.35644,-0.93945 c -3.78638,-2.29598 -4.7041,-7.11803 -4.7041,-7.11803 0,0 -2.51727,6.3236 4.7041,7.11803 z m -6.44922,0.67382 c -2.48475,-2.00396 -3.23824,-4.25479 -4.29687,-6.98536 -1.07281,3.17 0.23929,6.75624 4.29687,6.98536 z m 65.63477,11.27833 c 0.0793,-7.22293 -5.37109,-8.59571 -5.37109,-8.59571 0,0 3.36305,3.39961 5.37109,8.59571 z m -58.27442,1.98047 c 0.50096,2.20427 0.75008,4.76024 1.49414,7.52929 1.49838,5.57632 4.66504,9.04555 7.53711,10.58008 l 0.70313,-1.32617 c -2.44207,-1.3048 -5.38794,-4.43208 -6.78906,-9.64649 -0.7057,-2.6263 -0.95738,-5.13268 -1.48829,-7.46875 -0.53091,-2.33606 -1.37294,-4.53124 -3.80468,-5.76465 1.12454,2.07311 1.84669,3.89241 2.34765,6.09669 z m 55.86035,2.32128 c -0.69729,-5.70415 -4.83789,-6.98535 -4.83789,-6.98535 0,0 2.34255,3.14623 4.83789,6.98535 z m 7.2002,-1.3955 -1.14844,-0.97071 c -1.62601,1.92556 -3.63769,4.5166 -3.63769,4.5166 0,0 3.00946,-1.44192 4.78613,-3.54589 z m -9.35059,7.03711 c -1.01745,-4.67658 -4.56738,-5.375 -4.56738,-5.375 0,0 1.85492,2.65733 4.56738,5.375 z m -1.61034,6.17773 c -0.61761,-3.66209 -3.76465,-3.49121 -3.76465,-3.49121 0,0 1.37899,1.90819 3.76465,3.49121 z m -91.50001,17.57422 c 4.92649,2.85233 12.24988,3.51507 16.89118,1.86356 l -0.29687,-1.47265 c -4.60479,1.56383 -11.33591,0.92558 -15.84626,-1.68583 -4.51035,-2.61141 -7.86166,-7.29217 -7.3125,-15.90528 -2.11017,8.8625 1.63797,14.34783 6.56445,17.2002 z m 98.98047,-11.11133 -0.90234,-1.19922 c -1.88133,1.42962 -5.37207,1.85352 -5.37207,1.85352 0,0 3.67852,1.3183 6.27441,-0.6543 z m -51.83789,41.42188 c -2.17855,1.54367 -3.77527,2.29122 -5.31445,2.94531 -1.53918,0.65412 -3.04338,1.21184 -4.90039,2.33984 -1.95975,1.19044 -2.99312,2.86481 -3.44336,4.49414 -0.45025,1.6293 -0.35496,3.2125 -0.18555,4.375 l 1.48828,-0.21484 c -0.15202,-1.0431 -0.21987,-2.42696 0.14844,-3.75977 0.36831,-1.3328 1.13354,-2.61168 2.76953,-3.60547 1.73873,-1.05613 3.12989,-1.58175 4.70703,-2.25195 1.57715,-0.67023 3.32241,-1.4894 5.59766,-3.10156 3.02644,-2.30784 6.46808,-4.05001 10.00879,-3.83884 -4.0311,-2.06097 -7.90957,0.52325 -10.87598,2.61814 z m 9.93555,17.42578 c -0.037,1.57115 -0.53909,3.53218 -0.61328,6.07812 -4.4e-4,0.006 -0.007,0.01 -0.008,0.0156 -3.5e-4,0.0123 3.3e-4,0.017 0,0.0293 l 1.49414,0.0742 c 0.29135,-4.09261 1.9174,-7.73437 3.60771,-11.11468 1.6903,-3.3803 3.44626,-6.48471 4.24102,-11.23589 -2.16021,4.11373 -3.86217,7.12536 -5.58069,10.5621 -0.74751,1.49489 -1.34217,2.52507 -1.91936,4.10464 -0.42938,-2.01473 -1.29275,-2.94328 -2.70885,-3.38351 1.21133,2.09846 1.52456,3.28737 1.48731,4.87012 z"
           transform="matrix(0.26381931,0,0,0.26381931,0.08489963,0.13544969)"
           sodipodi:nodetypes="zcczczsscsscsssccsscszsscccccscscccscscsszczccccczsccczczsszczcccccccccccccccccscccccscccccccccccccccccccsccszsczczcccccccccccccscccccccccccccccccccccccccccccccccccccccccccccccccccccccccccccsccsccccsccccccccccccscccccsssssccsssscsccccsscccccsscsscccsccscsscsccccccccsscssccscccccscccccccccccccccccccccccccccssssccsssscccccczcccczczcccccccccccccccccccccccccccccccscccccccccccscccccccssccscsccccccccsccsccc" />
        <path
           id="path1032"
           style="font-variation-settings:normal;opacity:1;vector-effect:none;fill:none;fill-opacity:1;stroke:#000000;stroke-width:0.395729;stroke-linecap:butt;stroke-linejoin:miter;stroke-miterlimit:4;stroke-dasharray:none;stroke-dashoffset:0;stroke-opacity:1;stop-color:#000000;stop-opacity:1"
           d="m 41.643933,61.872899 c 0,0 -0.100226,1.503388 0.902035,2.154857 0,0 -0.200452,0.400905 -0.100226,0.952148 M 37.78523,63.977643 c 0.400905,1.302939 1.202711,1.453277 1.202711,1.453277 -0.36822,0.661641 -0.301568,1.452092 0,1.854182 -0.96643,-0.304659 -1.82197,-0.183772 -2.255085,0.952149 m 4.359834,-3.006782 c -0.202403,-0.404805 -1.395797,-0.837185 -2.104749,0.200451 m 5.865745,-1.317616 c -0.481064,-1.005848 -1.763527,-1.189921 -2.307718,-0.08554 m -7.216277,3.307453 c 0,0 0.300678,0.601356 1.403165,0.902034 0,0 -0.300678,0.801809 0.400904,1.353052 0.701583,0.551244 2.455539,0.300679 2.906556,-0.451017 -0.936351,-0.09283 -1.369391,-0.924199 -1.052374,-1.854182 0.778805,0.892986 1.903257,0.873976 2.756217,0.100226 0,0 -1.152599,-0.501131 -0.651469,-2.154861 0,0 0.801809,0.100226 1.353052,-0.250565 0.336355,1.272854 1.612733,1.600539 2.608396,0.987583 0,0 -1.202713,-0.701583 -0.200452,-1.854183 0,0 1.45076,0.114904 1.550986,-1.087809 0.100226,-1.202713 -0.501131,-1.553497 -0.65147,-2.405422 m -8.051496,11.442472 -1.528445,-4.034098 m 13.37321,-8.101296 2.46225,5.776721 M 48.5313,68.455946 c 0.17222,-0.449482 0.133862,-1.52596 -0.573124,-2.156396 -0.706986,-0.630436 -1.580298,-0.314401 -1.797989,0.120981 0.458531,0.05209 0.85211,0.485793 0.388744,1.023018 -0.463366,0.537225 -0.282442,1.758011 1.214871,1.735226 m -9.03219,2.426034 3.143943,-1.397308 c 0.430271,-1.085004 1.234647,-1.715062 2.791865,-1.552641 0.147184,-1.055055 0.776258,-1.347366 1.753956,-1.102487 m -0.106057,-4.011729 1.097449,2.49432 m -0.90318,9.477727 c -1.821929,0.554527 -2.444399,-1.628642 -1.223318,-2.752274 m 2.326901,5.235164 c -1.714566,0.357842 -2.401014,-1.352523 -1.85015,-2.4066 m 2.807003,4.55937 c -1.448976,0.549192 -2.202358,-0.741589 -1.777547,-2.145026 m 1.282629,3.747742 c 0,0 -0.648812,-0.117099 -0.398247,-1.470151 m 19.508408,37.553164 c -0.864773,-0.0182 -1.989345,-0.0245 -3.242153,-1.26638 -1.252808,-1.24184 -1.95502,-4.81022 -1.742408,-7.0491 -0.408831,0.82859 -0.479209,2.29259 -0.496093,3.82701 -0.01956,1.77731 -1.574048,2.02961 -2.62221,1.27567 -0.90071,-0.64788 -1.563321,-1.79679 -1.700892,-2.76395 m -3.614398,-4.64203 c 0,1.03709 -0.131211,3.01467 0.850447,4.7129 0.99019,1.713 2.905692,1.63002 2.763951,-0.0709 -0.141742,-1.70089 -0.141742,-2.83482 0.07087,-3.82701 m -22.843936,18.19013 c 0,0 1.18673,-0.0116 1.34654,1.63003 m 3.543527,2.62221 c 0,0 1.671022,-0.68472 2.551339,0.92131 m 4.323103,-0.35435 c 0,0 1.247633,-1.40914 1.984375,0 m -7.559524,19.32403 c 0,0 1.814981,-0.008 1.397372,-2.01236 m -1.869842,6.05199 c 0,0 1.506892,0.24102 0.978432,-1.6276 m 1.218555,7.50985 c 0,0 1.727489,-0.0909 0.942385,-2.47958 m 4.231164,8.07835 c 0,0 1.635598,-0.76831 1.842634,0.4961 m 20.185434,14.26039 c 0,0 1.273128,0.78764 0.260716,2.8076 m 2.76277,2.50439 c 0,0 1.57021,-0.56796 1.904296,1.80406 m 6.282431,2.5778 c 0,0 0.08634,-1.39489 2.055246,-0.85045 m 3.000186,-6.56734 c 0,0 0.249367,-1.26279 1.488281,-0.7087 M 39.002418,104.98289 c 1.140401,-1.1991 1.431104,-1.76561 1.795387,-3.40179 m 4.535715,7.72489 c 0,0 0.354351,1.9135 -0.05906,3.54353 M 42.215216,95.627977 c -0.501491,0.835818 -1.570352,2.499134 -1.417411,5.953123 0.152941,3.45399 3.401786,5.3153 4.535715,7.72489 1.135339,-1.16702 1.766206,-2.76784 1.70949,-5.31529 M 38.8843,91.446615 c 0.980876,-0.999648 1.868327,-1.588261 3.283669,-1.819011 m 3.501712,19.418366 c 0,0 0.902034,1.60361 2.255086,2.65599 M 47.052801,99.938115 c -0.564894,1.176205 -0.560356,2.639045 -0.0098,4.052585 0.550565,1.41354 1.509393,1.97117 2.18352,2.50104 0.674127,0.52986 1.21126,0.91871 1.55468,1.90276 0,0 0.977908,-0.72304 1.403131,-2.35306 m -6.11849,-12.515956 c -1.699006,2.601728 -0.282076,4.102246 -0.51972,6.898066 2.021684,-0.507562 3.68392,-1.432938 4.909082,-3.113754 m -6.491848,24.091434 c 1.374253,0.20047 2.598385,-0.55305 2.217744,-2.18483 m -1.367298,-0.083 c 0.966394,0.38371 2.688427,-0.0531 2.430356,-2.22635 m -1.509039,0.10023 c 1.3587,0.45102 2.382287,-0.23387 2.126116,-1.98437 m -1.275669,0.14174 c 1.771155,-3.2e-4 2.513661,-0.68504 2.267857,-2.62221 m -0.968565,0.0945 c 1.351228,0.12044 2.081949,-0.76425 2.102493,-2.43322 m -1.252046,0.16536 c 1.286808,-0.10354 2.238974,-0.45265 2.045896,-1.97455 M 77.508742,86.131325 c 1.654302,-0.354353 3.351236,0.84352 2.622211,3.260044 -0.596209,1.976275 -1.705161,2.909959 -2.409599,3.614397 0.71902,-0.07087 2.470849,-0.232123 2.62221,1.842635 0.152065,2.084404 -1.766323,3.707238 -3.36994,4.609272 0.47015,1.161407 0.112813,2.574547 -1.090327,3.796437 -1.20314,1.22189 -2.405962,1.27606 -3.520072,1.41532 0.518848,0.64897 0.228085,2.46824 -1.139032,3.11606 -1.367116,0.64782 -2.470066,0.44382 -3.448337,0.15034 0.250565,0.72029 -0.05565,1.72683 -1.450328,1.73885 -1.194985,0.0103 -2.129154,-0.66883 -2.660163,-1.17189 -0.307968,0.64691 -0.967361,1.18921 -1.842634,0.99219 -0.875273,-0.19702 -1.421482,-0.77505 -1.842634,-1.34654 -0.730123,0.48819 -1.641966,0.45078 -2.338728,-0.0709 -0.653687,-0.48943 -0.935446,-1.25407 -0.992187,-1.77177 -0.692543,0.6413 -1.883298,0.49683 -2.409598,-0.7087 0.116691,1.13538 -0.104595,1.58224 -0.52545,1.74243 -0.420855,0.1602 -1.434095,-0.51255 -1.763165,-2.02588 -0.32907,-1.51333 -0.491083,-3.01593 -0.262725,-5.03181 -0.744741,-0.523017 -1.497214,-1.353374 -1.157551,-3.732517 0.339663,-2.379143 2.669728,-3.322859 5.38616,-2.480468 M 49.124551,81.395943 c -0.578867,0.20847 -1.156705,0.366857 -1.924774,0.506773 0.374782,1.724913 4.030079,0.686897 5.949817,0.929915 m -6.564028,0.58199 c -0.353648,-0.01105 -0.701606,0.02067 -1.044117,0.09154 m 10.935943,-1.654868 c 0.45143,-0.601907 0.718902,-1.132456 1.565577,-1.720338 m 4.960937,-1.488282 c 0.558047,0.460597 0.960083,0.67542 1.884845,0.720515 0.572525,0.50027 1.478001,0.854261 2.464789,0.851509 0.986789,-0.0028 1.802084,-0.102801 2.611497,-0.708581 0.146763,1.123968 -0.250401,2.01112 -0.458255,3.481072 -0.207854,1.469951 -0.02289,2.296431 0.489684,3.002398 M 49.89286,89.060641 c 0.568754,-1.664676 0.441601,-2.174851 1.010812,-3.664011 0.569211,-1.48916 1.85257,-2.905697 4.392012,-3.293021 2.539442,-0.387324 3.506018,0.22302 5.213423,0.481323 1.707405,0.258303 3.463471,0.02139 4.880774,-0.445981 1.417303,-0.467367 2.117248,-1.094213 2.551339,-1.842634 m -20.103608,2.385975 c -0.961528,0.507571 -1.458631,0.800037 -2.609638,1.93417 -1.151008,1.134133 -2.588831,3.027104 -3.060005,5.011142 -0.471174,1.984038 0.03746,3.470964 0.04725,6.000373 0,0 2.018206,-0.632864 3.850632,-2.102493 1.832427,-1.469629 2.920543,-3.105144 3.827009,-4.464843 2.779792,-0.154433 3.725046,0.502739 6.354722,-0.590588 2.629677,-1.093327 2.267857,-4.039621 5.31529,-5.740515 m -7.323288,6.307479 c -1.913001,1.555827 -1.41473,2.848659 -1.700893,5.031808 m 3.96875,-5.669643 c 2.143688,0.125608 3.451411,0.896611 6.165736,0.425224 2.714326,-0.471388 4.961891,-1.984948 6.732701,-3.89788 m -6.732701,3.89788 c -0.596517,0.298258 -1.171187,0.783526 -1.621424,1.745969 -0.462556,0.988776 -0.317424,1.989415 -0.05585,2.718876 m -3.872157,0.673553 c 0,0 2.577315,-1.140921 3.629689,-2.143182 m -6.998852,17.092708 c 0,0 -2.057919,4.16989 -3.975635,8.4357 m -2.98077,-3.42365 c 0.300461,-0.67179 0.608639,-0.96923 1.08668,-1.28748 -0.14424,-1.11759 0.316371,-1.93403 0.850447,-2.26785 -0.103546,-1.2802 0.302118,-2.50624 1.092414,-3.33952 m 2.220608,11.66359 c 0.117412,-1.04778 -0.565534,-2.34735 -1.517681,-3.04894 m 11.670061,29.14435 c -1.340533,0.2012 -2.459641,-0.44232 -2.409597,-1.45284 0.949086,0.0926 1.72838,-0.0433 2.255697,-0.6819 0.527317,-0.63858 0.408645,-1.72103 0.01216,-2.11752 -0.964913,2.20039 -2.979211,3.14456 -4.323102,2.97657 -0.974089,1.18893 -3.001944,1.65274 -4.358538,0.7087 0,0 1.341933,-0.26533 1.736328,-1.37016 0.391516,-1.09677 -0.194002,-1.82403 -0.566964,-2.19699 -0.567685,1.91332 -0.87488,3.07436 -3.047434,4.74833 m 17.103423,16.1821 c -0.362401,-0.56272 -0.648745,-1.1477 -0.810429,-2.19677" />
        <path
           style="font-variation-settings:normal;opacity:1;vector-effect:none;fill:#e1e3e4;fill-opacity:1;stroke:#000000;stroke-width:0.395729;stroke-linecap:butt;stroke-linejoin:miter;stroke-miterlimit:4;stroke-dasharray:none;stroke-dashoffset:0;stroke-opacity:1;stop-color:#000000;stop-opacity:1"
           d="m 61.152674,72.807654 c -0.811125,-1.364232 -2.787874,-1.753018 -4.731131,-1.237716 -1.943257,0.515302 -2.840475,1.506724 -4.246185,2.049519 -1.40571,0.542795 -2.550625,0.597275 -3.525254,-0.229119 -0.03586,1.532317 1.741088,2.23549 3.51061,1.685175 1.769522,-0.550315 2.668142,-1.400791 4.263205,-2.159173 1.595064,-0.758381 3.329693,-0.828641 4.728755,-0.108686 z"
           id="path1070"
           sodipodi:nodetypes="czzczzc" />
        <path
           style="font-variation-settings:normal;opacity:1;vector-effect:none;fill:none;fill-opacity:1;stroke:#000000;stroke-width:1.05528;stroke-linecap:butt;stroke-linejoin:miter;stroke-miterlimit:4;stroke-dasharray:none;stroke-dashoffset:0;stroke-opacity:1;stop-color:#000000;stop-opacity:1"
           d="m 29.930296,47.43601 v 88.67868 c 0,41.02875 33.309152,65.91582 65.425662,65.91582 32.116512,0 65.425662,-24.88707 65.425662,-65.91582 V 47.43601 Z"
           id="path850"
           sodipodi:nodetypes="cszscc" />
      </g>
    </g>
  </g>
</svg>
