<?xml version="1.0" encoding="UTF-8" standalone="no"?>
<!-- Created with Inkscape (http://www.inkscape.org/) -->

<svg
   width="85.619133mm"
   height="55.532963mm"
   viewBox="0 0 85.619133 55.532963"
   version="1.1"
   id="svg1"
   xml:space="preserve"
   inkscape:version="1.4.2 (f4327f4, 2025-05-13)"
   sodipodi:docname="Emblem of Eastern Macedonia and Thrace.svg"
   xmlns:inkscape="http://www.inkscape.org/namespaces/inkscape"
   xmlns:sodipodi="http://sodipodi.sourceforge.net/DTD/sodipodi-0.dtd"
   xmlns="http://www.w3.org/2000/svg"
   xmlns:svg="http://www.w3.org/2000/svg"><sodipodi:namedview
     id="namedview1"
     pagecolor="#ffffff"
     bordercolor="#999999"
     borderopacity="1"
     inkscape:showpageshadow="2"
     inkscape:pageopacity="0"
     inkscape:pagecheckerboard="0"
     inkscape:deskcolor="#d1d1d1"
     inkscape:document-units="mm"
     inkscape:zoom="3.5846738"
     inkscape:cx="161.79994"
     inkscape:cy="105.03048"
     inkscape:window-width="1920"
     inkscape:window-height="1017"
     inkscape:window-x="-8"
     inkscape:window-y="-8"
     inkscape:window-maximized="1"
     inkscape:current-layer="layer1" /><defs
     id="defs1" /><g
     inkscape:label="Capa 1"
     inkscape:groupmode="layer"
     id="layer1"><path
       style="fill:#b1273a;fill-opacity:1"
       d="m 36.385695,41.142194 c 0.19075,-0.49709 -0.39731,-0.44242 5.78422,-0.53772 5.64724,-0.0871 6.21771,-0.0361 6.21771,0.55555 0,0.318 -0.97867,0.37905 -6.07711,0.37905 -5.29318,0 -6.05747,-0.0512 -5.92482,-0.39688 z m 2.39652,-1.10935 c -0.0717,-0.11746 -0.27394,-1.16446 -0.44943,-2.32666 -1.25237,-8.29349 -7.51544,-14.0011 -13.0247,-11.86956 -1.56302,0.60473 -2.1551,1.20751 -2.97024,3.02388 -1.45767,3.24812 -0.64533,6.85107 1.80705,8.0148 1.27711,0.60603 2.45294,0.53578 3.74942,-0.22401 1.31042,-0.76796 1.4329,-1.0208 1.63219,-3.36946 0.15013,-1.76931 0.14753,-1.77802 -0.82003,-2.74558 -0.90557,-0.90557 -1.05384,-0.96126 -2.21168,-0.83076 -0.95459,0.1076 -1.41097,0.33006 -1.97723,0.96382 -0.40491,0.45317 -0.736,1.08995 -0.73578,1.41508 3.4e-4,0.48436 0.084,0.42387 0.46302,-0.33491 0.29826,-0.59703 0.68503,-0.95751 1.08864,-1.01461 0.60367,-0.0854 0.61075,-0.0668 0.19843,0.52189 -0.61345,0.87583 -0.5275,1.22892 0.1279,0.52543 0.52797,-0.56671 0.5804,-0.5737 1.05834,-0.14118 0.32081,0.29033 0.50284,0.33879 0.50284,0.13387 0,-0.17667 0.11907,-0.24762 0.26459,-0.15769 0.14552,0.0899 0.26458,0.45415 0.26458,0.80937 0,0.72866 0.51767,0.90072 0.55006,0.18282 0.0133,-0.29494 0.0707,-0.33884 0.15812,-0.12094 0.20849,0.51969 -0.15701,1.68712 -0.46803,1.4949 -0.15042,-0.093 -0.49869,0.0348 -0.77392,0.28386 -0.41866,0.37887 -0.64011,0.40419 -1.35521,0.1549 -0.47013,-0.16389 -1.07087,-0.49354 -1.33498,-0.73255 -0.53754,-0.48646 -0.61725,-0.30927 -0.20631,0.45858 0.35501,0.66334 -0.058,0.6597 -0.66029,-0.006 -0.60127,-0.66439 -0.62437,-2.79319 -0.0425,-3.91837 0.86191,-1.66676 2.61774,-2.26151 4.5255,-1.53293 1.64435,0.62799 2.61869,2.31058 2.61342,4.51316 -0.006,2.58521 -1.20782,4.14036 -3.91085,5.06137 -1.15603,0.3939 -1.32745,0.39078 -2.46823,-0.0449 -1.58382,-0.60487 -3.45092,-2.32705 -4.09736,-3.77934 -1.32304,-2.97236 0.0515,-7.41431 2.90654,-9.39286 1.98074,-1.37266 4.21368,-1.59671 6.82219,-0.68454 2.25109,0.78718 2.9588,1.28626 5.31086,3.7452 1.61631,1.68977 2.34864,2.72113 3.23023,4.54926 1.16742,2.42086 1.92171,5.55046 1.6338,6.77877 -0.14852,0.63363 -1.1245,1.04863 -1.40093,0.5957 z m -11.53207,-6.762 c 0.30314,-0.57767 0.29691,-0.58159 -0.20996,-0.13229 -0.64493,0.57168 -0.98511,0.58225 -1.52012,0.0472 -0.33612,-0.33612 -0.41577,-0.34457 -0.41577,-0.0441 0,0.54809 0.26611,0.72445 1.09312,0.72445 0.49881,0 0.84226,-0.19421 1.05273,-0.59531 z m 9.7558,5.42396 c -0.007,-1.80593 -0.64416,-4.56018 -1.40138,-6.05395 -0.63471,-1.2521 -3.13309,-4.24946 -2.57469,-3.08891 0.15364,0.31931 0.39777,0.65376 0.54251,0.74322 0.14473,0.0894 0.25967,0.30444 0.2554,0.47775 -0.0134,0.54277 -1.57974,-1.38449 -1.57974,-1.94369 0,-0.30928 -0.27595,-0.65639 -0.66146,-0.83204 -0.3638,-0.16576 -0.66146,-0.39149 -0.66146,-0.50162 0,-0.22436 -1.89018,-0.98921 -3.22689,-1.30574 l -0.87415,-0.207 0.9527,-0.0271 c 1.35933,-0.0386 2.52245,0.41697 4.33897,1.69963 2.50137,1.76626 3.72071,3.49221 4.73459,6.70171 0.70392,2.22829 0.95951,5.59449 0.42478,5.59449 -0.14552,0 -0.26665,-0.56555 -0.26918,-1.25677 z m 4.42727,1.07324 c -0.0687,-0.11734 -0.20977,-1.16585 -0.31348,-2.33001 -0.45176,-5.07086 -1.73139,-8.03056 -4.79779,-11.09696 -3.51039,-3.5104 -7.81989,-4.86113 -11.47941,-3.598 -1.85131,0.639 -2.06143,0.46115 -0.37444,-0.31694 1.67717,-0.77357 5.15998,-0.76596 7.91224,0.0173 1.01864,0.28989 1.64372,0.53781 1.38906,0.55095 -0.85521,0.0441 -0.47344,0.44051 0.73572,0.76391 3.13696,0.83901 6.75369,6.9761 7.43811,12.62143 l 0.19246,1.5875 0.21916,-2.24896 c 0.53778,-5.51841 4.04825,-11.55031 7.3085,-12.55785 0.40796,-0.12608 -0.0472,0.4624 -1.35515,1.75224 -3.24006,3.19508 -4.59114,6.49206 -4.91004,11.98174 l -0.16991,2.92492 -0.83506,0.0811 c -0.45929,0.0446 -0.89127,-0.0149 -0.95997,-0.13229 z m 2.85682,-1.99929 c 0.68413,-8.67691 5.50775,-14.49098 12.01697,-14.48446 2.17916,0.002 3.31529,0.41781 4.85427,1.7758 1.84686,1.62967 2.22531,2.25217 2.72014,4.4743 0.74922,3.36455 -0.0617,5.73421 -2.48913,7.27364 -2.69973,1.71211 -6.15733,0.47918 -7.59461,-2.70814 -0.42372,-0.93965 -0.43795,-1.20602 -0.12983,-2.43046 0.52087,-2.06986 0.97124,-2.76934 2.18018,-3.38609 3.05916,-1.56067 6.05909,0.97941 4.8612,4.11605 -0.51057,1.33691 -1.49925,2.26051 -2.41979,2.26051 -0.98979,0 -0.9793,-0.45652 0.0148,-0.64301 0.50387,-0.0945 1.09814,-0.43173 1.32061,-0.74934 0.56388,-0.80506 0.50463,-2.54118 -0.12179,-3.56859 -0.45307,-0.74309 -0.67036,-0.85989 -1.59965,-0.85989 -2.20203,0 -3.16652,1.0722 -3.16476,3.51818 0.002,2.63694 1.5393,4.03372 4.22592,3.83939 3.33233,-0.24104 4.81252,-2.80873 3.94664,-6.8462 -0.37142,-1.73189 -1.61808,-3.15441 -3.45812,-3.94598 -1.69088,-0.7274 -4.52083,-0.66677 -6.16721,0.13213 -1.5542,0.75416 -4.42748,3.72162 -5.25162,5.42376 -0.83447,1.72346 -1.48766,4.59189 -1.49409,6.56122 -0.006,1.91092 -0.32394,2.43 -1.48729,2.43 h -0.93492 z m 2.60473,1.78323 c -0.28844,-0.75165 0.64391,-6.72764 1.24254,-7.96426 0.89766,-1.85432 3.4369,-4.39607 5.31956,-5.32483 1.90747,-0.94099 2.87505,-1.26225 2.85337,-0.94738 -0.008,0.11895 -0.83137,0.60557 -1.82928,1.08139 -4.36956,2.08345 -6.83075,6.1273 -6.99912,11.49989 -0.0581,1.85542 -0.2753,2.46766 -0.58707,1.65519 z m -24.57987,-1.41623 c -0.44277,-0.27 -1.14585,-0.89464 -1.56241,-1.38807 -2.25276,-2.66848 -2.65367,-6.05739 -1.10356,-9.32819 0.79522,-1.67794 1.78422,-3.07834 2.174,-3.07834 0.15402,0 0.0388,0.20272 -0.97716,1.71979 -1.02026,1.52344 -1.56231,3.34624 -1.56231,5.25378 0,2.49944 0.62881,4.01293 2.40663,5.79258 0.83588,0.83674 1.49955,1.52091 1.47481,1.52036 -0.0247,-5.4e-4 -0.40724,-0.2219 -0.85,-0.49191 z m 6.00291,0.24506 c 0.0675,-0.20258 0.4031,-0.55446 0.74572,-0.78195 0.49514,-0.32876 0.59775,-0.33805 0.50017,-0.0453 -0.0675,0.20259 -0.4031,0.55446 -0.74572,0.78195 -0.49514,0.32876 -0.59775,0.33805 -0.50017,0.0453 z m 29.8594,-0.0167 c 0,-0.14552 0.32742,-0.26525 0.72761,-0.26606 1.54799,-0.003 2.64327,-0.53621 3.95799,-1.92633 2.36071,-2.49611 3.01482,-6.31013 1.5838,-9.23502 -0.97714,-1.9972 -2.62212,-3.79881 -4.25239,-4.65728 -1.19964,-0.63171 -1.64464,-0.71323 -3.86909,-0.70877 -2.12655,0.004 -2.77014,0.11406 -4.18014,0.71306 -1.51647,0.64424 -2.43444,0.72703 -2.43444,0.21956 0,-0.31221 1.05088,-0.70551 3.57397,-1.3376 5.43999,-1.36284 9.37071,0.50333 11.70424,5.55677 0.82239,1.78096 0.90397,2.16188 0.79577,3.71599 -0.2406,3.45581 -2.56205,6.85783 -5.30146,7.76911 -1.44837,0.48181 -2.30586,0.54004 -2.30586,0.15657 z m -25.82361,-4.64253 c -0.2457,-0.97895 0.0484,-1.08247 0.37926,-0.13348 0.16434,0.47142 0.17916,0.80726 0.0356,0.80726 -0.13518,0 -0.32188,-0.3032 -0.41489,-0.67378 z m 17.35695,-0.10522 c 0,-0.28293 0.30812,-0.84847 0.68471,-1.25677 0.71439,-0.77454 0.71437,-0.7748 0.0561,1.04358 -0.30435,0.84071 -0.7408,0.96631 -0.7408,0.21319 z m 6.38016,-0.16879 c -0.69541,-0.88407 -0.71609,-1.97523 -0.0529,-2.79321 0.69637,-0.85897 0.90832,-0.51206 0.41236,0.67493 -0.37099,0.8879 -0.37122,1.06391 -0.002,1.80337 0.52988,1.06217 0.35324,1.21795 -0.35709,0.31491 z m -22.50189,-0.17669 c -1.06948,-1.7023 -1.36787,-2.31511 -1.12726,-2.31511 0.2748,0 1.90315,2.30261 1.90315,2.6912 0,0.41375 -0.40212,0.21883 -0.77589,-0.37609 z m 17.76081,-0.33073 c 0.005,-0.43656 0.0647,-0.58313 0.13177,-0.32569 0.0671,0.25743 0.0627,0.61461 -0.01,0.79375 -0.0725,0.17913 -0.12737,-0.0315 -0.12197,-0.46806 z m 0.74217,-0.66996 c 0,-0.80445 0.63636,-2.63733 0.91566,-2.63733 0.14004,0 -0.007,1.51938 -0.27591,2.84427 -0.17732,0.87477 -0.63975,0.72519 -0.63975,-0.20694 z m -17.5507,0.36128 c -0.25286,-0.25286 -0.2175,-0.61736 0.0599,-0.61736 0.12995,0 0.30481,0.17859 0.38857,0.39687 0.15476,0.4033 -0.12708,0.54187 -0.44846,0.22049 z m 14.64028,-0.15597 c 0,-0.20705 0.31605,-0.52045 0.70233,-0.69646 0.68861,-0.31375 0.69463,-0.3084 0.30808,0.27376 -0.47609,0.71704 -1.01041,0.94057 -1.01041,0.4227 z m 8.08695,-0.17785 c -0.55376,-0.61189 -0.35313,-1.50615 0.39088,-1.74229 0.6367,-0.20209 1.0208,0.0221 1.29903,0.75822 0.47665,1.26109 -0.77801,1.99171 -1.68991,0.98407 z m -15.49528,-1.62095 c 0,-0.39924 -1.93406,-3.63503 -2.89768,-4.84798 -0.76347,-0.96101 -0.78551,-1.04848 -0.34778,-1.38065 0.25703,-0.19505 0.59137,-0.35842 0.74297,-0.36305 0.15161,-0.005 0.79226,-0.5348 1.42367,-1.17817 l 1.14803,-1.16975 0.9101,0.88388 c 0.50056,0.48614 1.31368,1.07539 1.80695,1.30946 l 0.89684,0.42558 -0.71707,1.14398 c -0.39439,0.62918 -1.13379,2.11275 -1.64312,3.29681 -0.83737,1.9467 -1.32291,2.63667 -1.32291,1.87989 z m 8.21748,0.14678 c -0.005,-0.37278 0.97747,-1.60886 1.14542,-1.44091 0.0763,0.0763 -0.14943,0.49121 -0.50156,0.92209 -0.35212,0.43087 -0.64186,0.66434 -0.64386,0.51882 z m -18.80082,-1.83647 c 0,-0.22687 0.11907,-0.41249 0.26459,-0.41249 0.14552,0 0.26458,0.11204 0.26458,0.24897 0,0.13694 -0.11906,0.32256 -0.26458,0.41249 -0.14552,0.0899 -0.26459,-0.0221 -0.26459,-0.24897 z m -1.9693,-0.75209 c -0.89232,-0.72789 -1.24711,-0.84898 -2.45209,-0.83694 -1.87538,0.0188 -1.689,-0.51828 0.21546,-0.62082 1.64967,-0.0888 3.24618,0.46364 3.67946,1.27323 0.27589,0.5155 0.1623,1.06282 -0.21675,1.04443 -0.10055,-0.005 -0.65229,-0.39183 -1.22608,-0.8599 z m 23.67044,0.47829 c -0.20869,-0.25146 -0.22876,-0.40327 -0.0533,-0.40327 0.31977,0 0.69258,0.50197 0.50909,0.68546 -0.0666,0.0666 -0.27169,-0.0604 -0.45577,-0.28219 z m -29.25734,-0.54398 c 0.28248,-0.21365 0.63266,-0.38846 0.77818,-0.38846 0.14552,0 0.0335,0.17481 -0.24901,0.38846 -0.28248,0.21366 -0.63265,0.38846 -0.77817,0.38846 -0.14553,0 -0.0335,-0.1748 0.249,-0.38846 z m 36.93026,0.0148 c -0.20869,-0.25145 -0.22876,-0.40327 -0.0533,-0.40327 0.31976,0 0.69257,0.50197 0.50909,0.68546 -0.0666,0.0666 -0.27169,-0.0604 -0.45577,-0.28219 z m -7.09877,-0.33671 c 0.10599,-0.55037 1.78037,-1.39001 3.10573,-1.55741 0.89425,-0.11295 0.87553,-0.0909 -0.34845,0.40952 -0.71141,0.29089 -1.55253,0.77226 -1.86914,1.0697 -0.70556,0.66284 -1.00582,0.68927 -0.88814,0.0782 z m -29.68362,-0.59424 c 0,-0.32075 0.74203,-0.67009 0.96011,-0.452 0.0789,0.0789 -0.10478,0.27644 -0.40828,0.43887 -0.38264,0.20478 -0.55183,0.20881 -0.55183,0.0131 z m 34.08164,-0.71091 c 0.191,-0.0764 0.4192,-0.067 0.50712,0.0209 0.0879,0.0879 -0.0684,0.15045 -0.34727,0.13897 -0.30822,-0.0127 -0.37092,-0.0754 -0.15985,-0.15986 z m -22.70456,-3.56925 c 0,-0.12032 0.35719,-0.21876 0.79375,-0.21876 0.43657,0 0.79375,0.046 0.79375,0.10226 0,0.0562 -0.35718,0.15469 -0.79375,0.21876 -0.43656,0.0641 -0.79375,0.0181 -0.79375,-0.10226 z m 10.39977,-0.74727 c -2.29232,-1.31469 -3.78518,-3.92372 -3.78518,-6.61524 0,-3.43808 2.05811,-5.78749 5.45172,-6.22335 1.59245,-0.204519 3.20428,0.55274 4.44844,2.08994 0.72714,0.8984 0.82378,1.22792 0.90873,3.09853 0.0523,1.15127 -0.007,2.09292 -0.1314,2.09255 -0.12455,-3.6e-4 -0.23667,-0.74485 -0.24917,-1.65442 -0.0299,-2.17328 -0.63685,-3.40761 -2.18681,-4.446839 -1.1107,-0.744721 -1.37702,-0.812101 -2.74475,-0.694401 -2.78644,0.2398 -4.51,2.01844 -4.86254,5.01794 -0.19408,1.65135 0.25191,2.18202 0.54956,0.65391 0.59928,-3.07669 3.03886,-4.999379 5.6109,-4.422089 1.36988,0.307459 2.28335,1.403689 2.69226,3.230909 0.2969,1.32668 0.28257,1.61652 -0.1221,2.4693 -1.02694,2.16411 -3.70618,3.14098 -5.2608,1.91812 -0.68594,-0.53957 -0.7213,-0.66798 -0.58816,-2.13622 0.18152,-2.00185 0.6785,-2.58138 2.21367,-2.58138 0.63229,0 1.14961,0.11906 1.14961,0.26458 0,0.14553 -0.32742,0.26641 -0.7276,0.26864 -0.95183,0.005 -1.29585,0.2455 -1.63709,1.14304 -0.38238,1.00571 -0.36155,1.15374 0.24803,1.76332 0.70911,0.70912 2.35192,0.71003 3.11219,0.002 1.31625,-1.22626 1.21767,-3.65006 -0.20637,-5.0741 -0.83219,-0.83219 -1.74559,-0.95281 -2.85282,-0.37672 -1.76784,0.91981 -2.69884,2.74331 -2.69884,5.28608 0,1.66369 0.0253,1.72612 1.02025,2.51411 0.56114,0.44443 1.34279,0.93068 1.73702,1.08056 1.00428,0.38183 3.06357,0.35159 3.06357,-0.045 0,-0.24694 0.0706,-0.24694 0.3175,0 0.92718,0.92719 -2.30209,1.33902 -3.9238,0.50041 -1.0919,-0.56465 -2.61435,-2.30117 -3.03334,-3.45986 -0.19021,-0.52601 -0.44098,-0.95638 -0.55727,-0.95638 -0.88335,0 1.17611,3.58036 2.62818,4.56907 1.19846,0.81602 2.64084,1.23523 3.67595,1.06835 0.58998,-0.0951 0.6715,-0.0595 0.36361,0.15865 -0.72613,0.51457 -2.20646,0.30875 -3.62315,-0.50374 z m -7.92371,0.18222 c 1.23655,-0.79262 1.69716,-1.28527 2.38737,-2.55342 1.29365,-2.37685 0.90853,-5.92988 -0.84257,-7.77339 -1.48749,-1.565999 -3.23454,-1.91179 -5.02358,-0.994309 -2.38666,1.223949 -3.28314,3.751299 -2.30487,6.497909 0.44687,1.25465 0.32327,1.55045 -0.20797,0.49774 -1.14861,-2.27608 -0.61672,-4.99227 1.30962,-6.68791 2.22516,-1.95867 4.35862,-1.99798 6.43881,-0.11865 1.48226,1.33914 1.94623,2.75577 1.80207,5.5023 -0.0998,1.90132 -0.23571,2.42998 -0.90164,3.50711 -0.74794,1.20976 -2.23497,2.48656 -2.85732,2.45335 -0.16038,-0.009 -0.0703,-0.15738 0.20008,-0.33073 z m -3.78067,-0.43055 c -0.27665,-0.17507 -0.0986,-0.28538 0.66146,-0.40974 2.39972,-0.39265 4.21356,-1.45042 4.31712,-2.51759 0.0212,-0.21828 0.10941,-0.91057 0.19607,-1.53844 0.3226,-2.33736 -1.21519,-4.54342 -3.16889,-4.54598 -1.14898,-0.002 -2.55323,1.5209 -2.55323,2.76807 0,1.12884 0.36348,1.94135 1.15545,2.58287 0.8412,0.6814 1.62414,0.56847 2.39291,-0.34515 0.82778,-0.98377 0.86834,-1.79189 0.1366,-2.72214 -0.58872,-0.74844 -0.51087,-0.85785 0.30118,-0.42325 0.72098,0.38586 0.6598,-0.14021 -0.0763,-0.65576 -1.19307,-0.83566 -3.12987,-0.14429 -3.10808,1.10947 0.008,0.44097 0.0209,0.44097 0.27773,0 0.38447,-0.66011 0.86328,-0.59776 0.50797,0.0661 -0.19661,0.36737 -0.19946,0.68565 -0.009,1.04094 0.38056,0.71108 0.34202,1.07573 -0.11367,1.07573 -1.02305,0 -1.28906,-2.56028 -0.3563,-3.42928 0.82848,-0.77184 2.43282,-0.72666 3.25104,0.0916 1.59419,1.59419 1.35504,4.68401 -0.43416,5.60924 -0.77649,0.40154 -1.97265,0.5009 -2.11711,0.17586 -0.0485,-0.10914 -0.55337,-0.43656 -1.12192,-0.7276 -1.25531,-0.6426 -2.00899,-1.96007 -2.00899,-3.51185 0,-0.95713 0.16367,-1.3143 1.02572,-2.23847 0.96494,-1.03447 1.12739,-1.10609 2.74202,-1.2089 1.60015,-0.10189 1.77539,-0.0565 2.58904,0.67049 1.43356,1.28089 2.04912,4.77816 1.14626,6.51249 -0.23895,0.45902 -0.51439,1.01317 -0.61207,1.23145 -0.48424,1.08202 -3.96155,2.01 -5.02058,1.33983 z m 4.20572,-3.4391 c 0.15064,-0.28147 0.2602,-0.90655 0.24347,-1.38906 l -0.0304,-0.87729 -0.19025,0.97832 c -0.10464,0.53808 -0.34365,1.16316 -0.53114,1.38906 -0.21842,0.26318 -0.23753,0.41074 -0.0532,0.41074 0.15822,0 0.41092,-0.23029 0.56156,-0.51177 z m -4.6209,1.30552 c -0.0899,-0.14552 -0.0445,-0.26458 0.10106,-0.26458 0.14552,0 0.33817,0.11906 0.42811,0.26458 0.0899,0.14553 0.0445,0.26459 -0.10106,0.26459 -0.14552,0 -0.33817,-0.11906 -0.42811,-0.26459 z m 12.59382,-0.1467 c -0.49496,-0.21482 -0.83258,-0.45793 -0.75026,-0.54025 0.0823,-0.0823 0.39016,-0.021 0.6841,0.13635 0.9567,0.51201 2.83415,0.34744 3.65777,-0.32063 0.41135,-0.33366 1.10509,-0.82577 1.54165,-1.09356 0.79331,-0.48664 0.79324,-0.48636 -0.13229,0.50591 -1.55381,1.66585 -3.1943,2.09629 -5.00097,1.31218 z m -10.34486,-2.77933 c 0,-0.15411 0.11906,-0.20661 0.26458,-0.11667 0.14552,0.0899 0.26459,0.21602 0.26459,0.28019 0,0.0642 -0.11907,0.11668 -0.26459,0.11668 -0.14552,0 -0.26458,-0.12609 -0.26458,-0.2802 z m 11.82586,-0.56123 c -1.16721,-0.42559 -0.83071,-1.14294 0.53615,-1.14294 1.54103,0 1.88089,-0.40568 1.32189,-1.57791 -0.44749,-0.9384 -1.38266,-1.40841 -2.18768,-1.09949 -0.23592,0.0905 -0.3423,0.0463 -0.24956,-0.10376 0.0889,-0.14385 0.50123,-0.26155 0.91627,-0.26155 1.61335,0 2.70528,2.49275 1.71269,3.90988 -0.44541,0.63592 -0.89582,0.69652 -2.04976,0.27577 z m -11.63192,-0.29771 c -0.78553,-0.31019 -0.8334,-0.78969 -0.0932,-0.93323 0.54158,-0.10501 1.22214,0.40404 1.22214,0.91414 0,0.41669 -0.11711,0.41867 -1.12898,0.0191 z m 9.06648,-2.00463 c 0,-0.14552 0.11906,-0.33817 0.26458,-0.4281 0.14552,-0.0899 0.26458,-0.0445 0.26458,0.10106 0,0.14552 -0.11906,0.33817 -0.26458,0.4281 -0.14552,0.0899 -0.26458,0.0445 -0.26458,-0.10106 z m -4.23334,-2.967909 c 0,-0.28753 1.00101,-0.56956 1.32055,-0.37207 0.50557,0.31246 0.26518,0.574719 -0.5268,0.574719 -0.43656,0 -0.79375,-0.0912 -0.79375,-0.202649 z m -1.87247,-1.106471 c -1.32632,-0.822689 -2.62544,-1.955719 -2.62544,-2.289769 0,-0.15491 0.0674,-0.28166 0.14968,-0.28166 0.60055,0 3.16676,1.921359 3.56829,2.671619 0.34785,0.649971 0.0768,0.625111 -1.09253,-0.10019 z m 4.25372,0.13469 c 0,-0.42211 1.66569,-2.203799 2.42965,-2.598859 1.35119,-0.69872 1.16703,-0.17315 -0.46792,1.33542 -1.5193,1.401849 -1.96173,1.68679 -1.96173,1.263439 z m -4.86042,-2.875449 c -1.67611,-1.84258 -1.86695,-2.49481 -0.33688,-1.1514 0.91017,0.79914 2.18423,2.57273 1.98634,2.76513 -0.053,0.0515 -0.79524,-0.67466 -1.64946,-1.61373 z m 4.86042,1.3619 c 0,-0.30268 0.87227,-1.85414 1.52583,-2.71393 0.57235,-0.75294 1.84225,-1.25039 1.60508,-0.62873 -0.1251,0.32789 -3.13091,3.53698 -3.13091,3.34266 z m -0.52916,-0.74767 c 0,-0.69153 0.8554,-3.24135 1.36972,-4.08292 0.28904,-0.472945 0.6944,-0.859899 0.90081,-0.859899 0.54818,0 0.46801,0.312738 -0.41373,1.613829 -0.43397,0.64036 -0.97932,1.72984 -1.21189,2.42107 -0.42196,1.2541 -0.64491,1.56798 -0.64491,0.90792 z m -3.03916,-0.87409 c -0.22023,-0.52709 -0.40043,-1.06287 -0.40043,-1.19062 0,-0.12775 -0.10461,-0.23227 -0.23248,-0.23227 -0.12787,0 -0.38464,-0.36733 -0.5706,-0.81629 -0.18596,-0.44896 -0.51224,-0.99041 -0.72506,-1.20322 -0.44668,-0.446684 -0.26517,-0.761921 0.31133,-0.540699 0.62395,0.239433 2.67115,4.941459 2.15145,4.941459 -0.0736,0 -0.31398,-0.43126 -0.53421,-0.95836 z m 2.5279,-1.34373 c -0.0547,-1.77792 1.02452,-4.78166203 1.59198,-4.430955 0.35924,0.222024 0.21189,0.7155679 -1.2992,4.351795 -0.26159,0.62949 -0.27574,0.63331 -0.29278,0.0792 z m -2.12778,-1.33594 c -0.1885,-0.40018 -0.49958,-1.233616 -0.69128,-1.852079 -0.29662,-0.9569851 -0.29283,-1.12448 0.0255,-1.12448 0.35293,0 0.69225,0.89384 1.08522,2.858689 0.20761,1.03807 0.0367,1.08612 -0.41942,0.11787 z m 1.53188,0.58882 c -0.0846,-0.14195 -0.17246,-1.29988 -0.19526,-2.573191 C 41.225575,0.14783697 41.257375,0 41.762555,0 c 0.41739,0 0.53492,0.16484397 0.51875,0.72760397 -0.0363,1.26560693 -0.66126,4.42990103 -0.82167,4.16069103 z"
       id="path1"
       sodipodi:nodetypes="scsssccssssssssscssssscssscssssccscsssssssscccssssccsssccsssscssssssssssssssscsscscssssssssssssssssscssssscscsssscscssssscsssssscssscssscssssssscssccsssssccscccsssscccccsscssssssssssssssssscscsscssscsscssscssssscsssssssscsssssssssssssscssssssssssssssssssscsssssssssssssscsssssscsssssssscssssssssscccsssssssssccsscsssssssssssccccscssscccscscsssssssssssssssssssscssccsssssssssssssssssssssssssssssssssssssssssssssssssssssscs" /><path
       d="m 25.567435,48.532684 q 0,0.0369 -0.0258,0.0665 -0.0221,0.0258 -0.0775,0.0443 -0.0554,0.0185 -0.14766,0.0258 -0.0923,0.0111 -0.23257,0.0111 -0.14397,0 -0.23995,-0.0111 -0.0923,-0.007 -0.14766,-0.0258 -0.0517,-0.0185 -0.0775,-0.0443 -0.0221,-0.0295 -0.0221,-0.0665 v -3.82445 h -1.78672 v 3.82445 q 0,0.0369 -0.0222,0.0665 -0.0221,0.0258 -0.0775,0.0443 -0.0554,0.0185 -0.14766,0.0258 -0.0923,0.0111 -0.23626,0.0111 -0.14028,0 -0.23626,-0.0111 -0.0923,-0.007 -0.14766,-0.0258 -0.0554,-0.0185 -0.0812,-0.0443 -0.0221,-0.0295 -0.0221,-0.0665 v -4.30435 q 0,-0.17351 0.0886,-0.25841 0.0923,-0.0886 0.23995,-0.0886 h 3.07138 q 0.14766,0 0.23626,0.0886 0.0923,0.0849 0.0923,0.25841 z m 4.30108,-0.25472 q 0,0.10706 -0.0111,0.18089 -0.007,0.0701 -0.0258,0.11444 -0.0185,0.0443 -0.048,0.0665 -0.0258,0.0185 -0.0591,0.0185 h -2.39951 q -0.12182,0 -0.20673,-0.0701 -0.0812,-0.0738 -0.0812,-0.23626 v -4.16407 q 0,-0.16243 0.0812,-0.23257 0.0849,-0.0738 0.20673,-0.0738 h 2.38474 q 0.0332,0 0.0591,0.0185 0.0258,0.0185 0.0443,0.0664 0.0185,0.0443 0.0258,0.11813 0.0111,0.0701 0.0111,0.18089 0,0.10336 -0.0111,0.1772 -0.007,0.0701 -0.0258,0.11443 -0.0185,0.0443 -0.0443,0.0665 -0.0258,0.0185 -0.0591,0.0185 h -1.70546 v 1.16653 h 1.44339 q 0.0332,0 0.0591,0.0222 0.0295,0.0185 0.048,0.0628 0.0185,0.0406 0.0258,0.11444 0.0111,0.0701 0.0111,0.1735 0,0.10705 -0.0111,0.17719 -0.007,0.0701 -0.0258,0.11444 -0.0185,0.0406 -0.048,0.0591 -0.0258,0.0185 -0.0591,0.0185 h -1.44339 v 1.34742 h 1.72026 q 0.0332,0 0.0591,0.0222 0.0295,0.0185 0.048,0.0628 0.0185,0.0443 0.0258,0.11813 0.0111,0.0701 0.0111,0.17719 z m 4.55581,-2.94586 q 0,0.40238 -0.12552,0.71247 -0.12551,0.31009 -0.36546,0.5242 -0.23995,0.21042 -0.59065,0.32117 -0.34701,0.11074 -0.81953,0.11074 h -0.39869 v 1.52462 q 0,0.0369 -0.0258,0.0665 -0.0221,0.0295 -0.0775,0.048 -0.0554,0.0185 -0.14766,0.0295 -0.0923,0.0111 -0.23626,0.0111 -0.14028,0 -0.23626,-0.0111 -0.0923,-0.0111 -0.14766,-0.0295 -0.0554,-0.0185 -0.0775,-0.048 -0.0221,-0.0295 -0.0221,-0.0665 v -4.29697 q 0,-0.17351 0.0886,-0.25841 0.0923,-0.0886 0.23995,-0.0886 h 1.12593 q 0.16981,0 0.32116,0.0148 0.15505,0.0111 0.36916,0.0554 0.21411,0.0406 0.43191,0.15504 0.2215,0.11444 0.37654,0.29164 0.15505,0.1735 0.23626,0.40976 0.0812,0.23257 0.0812,0.5242 z m -1.01518,0.0701 q 0,-0.25103 -0.0886,-0.41345 -0.0886,-0.16243 -0.2178,-0.23996 -0.12921,-0.0775 -0.27318,-0.096 -0.14028,-0.0221 -0.29163,-0.0221 h -0.41346 v 1.6206 h 0.43561 q 0.23257,0 0.38761,-0.0628 0.15874,-0.0628 0.25841,-0.1735 0.0997,-0.11444 0.15135,-0.26948 0.0517,-0.15874 0.0517,-0.34332 z m 3.17147,3.12306 q 0,0.0369 -0.0259,0.0665 -0.0221,0.0295 -0.0775,0.048 -0.0554,0.0185 -0.14766,0.0295 -0.0923,0.0111 -0.23626,0.0111 -0.14028,0 -0.23626,-0.0111 -0.0923,-0.0111 -0.14766,-0.0295 -0.0554,-0.0185 -0.0812,-0.048 -0.0221,-0.0295 -0.0221,-0.0665 v -4.51109 q 0,-0.0369 0.0221,-0.0664 0.0258,-0.0295 0.0812,-0.048 0.0591,-0.0185 0.15135,-0.0295 0.0923,-0.0111 0.23257,-0.0111 0.14397,0 0.23626,0.0111 0.0923,0.0111 0.14766,0.0295 0.0554,0.0185 0.0775,0.048 0.0259,0.0295 0.0259,0.0664 z m 6.73751,-2.29246 q 0,0.52789 -0.14766,0.94873 -0.14767,0.42084 -0.4393,0.72355 -0.28794,0.29901 -0.71247,0.47252 -0.42453,0.16981 -0.97826,0.19565 v 0.33962 q 0,0.0332 -0.0221,0.0591 -0.0222,0.0295 -0.0775,0.048 -0.0554,0.0222 -0.15136,0.0295 -0.0923,0.007 -0.23257,0.007 -0.14028,0 -0.23256,-0.007 -0.0923,-0.007 -0.15136,-0.0295 -0.0554,-0.0185 -0.0775,-0.048 -0.0185,-0.0258 -0.0185,-0.0591 v -0.33962 q -0.5685,-0.0222 -0.99672,-0.1772 -0.42453,-0.15504 -0.71247,-0.43929 -0.28425,-0.28794 -0.42822,-0.69771 -0.14397,-0.41345 -0.14397,-0.94873 0,-0.53158 0.15135,-0.95242 0.15136,-0.42084 0.4393,-0.71985 0.29163,-0.29902 0.71616,-0.46883 0.42453,-0.16981 0.97457,-0.20304 v -0.29901 q 0,-0.0369 0.0185,-0.0628 0.0221,-0.0295 0.0775,-0.0443 0.0591,-0.0185 0.15136,-0.0258 0.0923,-0.0111 0.23256,-0.0111 0.14028,0 0.23257,0.0111 0.096,0.007 0.15136,0.0258 0.0554,0.0148 0.0775,0.0443 0.0221,0.0258 0.0221,0.0628 v 0.29901 q 0.57588,0.0258 1.00041,0.18458 0.42822,0.15874 0.71247,0.44668 0.28425,0.28794 0.42453,0.7014 0.14028,0.40976 0.14028,0.93396 z m -1.00041,0.0517 q 0,-0.33962 -0.0701,-0.6128 -0.0665,-0.27317 -0.2178,-0.47252 -0.14767,-0.20303 -0.395,-0.31747 -0.24364,-0.11444 -0.59434,-0.1292 v 3.03446 q 0.33962,-0.0148 0.58326,-0.1329 0.24365,-0.11813 0.395,-0.31747 0.15505,-0.19935 0.22519,-0.46514 0.0738,-0.26948 0.0738,-0.58696 z m -2.24078,-1.53199 q -0.3507,0.0185 -0.59434,0.14028 -0.24364,0.12182 -0.395,0.32485 -0.15135,0.20304 -0.22149,0.46883 -0.0665,0.26579 -0.0665,0.57219 0,0.34332 0.0665,0.61649 0.0665,0.27318 0.2178,0.47252 0.15136,0.19565 0.395,0.31009 0.24364,0.11444 0.59803,0.12921 z m -2.54717,-0.87121 z m 9.83842,4.39664 q 0,0.10706 -0.0111,0.18089 -0.007,0.0701 -0.0258,0.11444 -0.0184,0.0443 -0.048,0.0665 -0.0258,0.0185 -0.0591,0.0185 h -2.39951 q -0.12183,0 -0.20673,-0.0701 -0.0812,-0.0738 -0.0812,-0.23626 v -4.16407 q 0,-0.16243 0.0812,-0.23257 0.0849,-0.0738 0.20673,-0.0738 h 2.38474 q 0.0332,0 0.0591,0.0185 0.0258,0.0185 0.0443,0.0664 0.0184,0.0443 0.0258,0.11813 0.0111,0.0701 0.0111,0.18089 0,0.10336 -0.0111,0.1772 -0.007,0.0701 -0.0258,0.11443 -0.0185,0.0443 -0.0443,0.0665 -0.0258,0.0185 -0.0591,0.0185 h -1.7055 v 1.16653 h 1.4434 q 0.0332,0 0.0591,0.0222 0.0295,0.0185 0.048,0.0628 0.0185,0.0406 0.0258,0.11444 0.0111,0.0701 0.0111,0.1735 0,0.10705 -0.0111,0.17719 -0.007,0.0701 -0.0258,0.11444 -0.0185,0.0406 -0.048,0.0591 -0.0258,0.0185 -0.0591,0.0185 h -1.4434 v 1.34742 h 1.72027 q 0.0332,0 0.0591,0.0222 0.0295,0.0185 0.048,0.0628 0.0185,0.0443 0.0258,0.11813 0.0111,0.0701 0.0111,0.17719 z m 4.5558,-2.94586 q 0,0.40238 -0.12551,0.71247 -0.12551,0.31009 -0.36546,0.5242 -0.23996,0.21042 -0.59065,0.32117 -0.34701,0.11074 -0.81953,0.11074 h -0.39869 v 1.52462 q 0,0.0369 -0.0258,0.0665 -0.0221,0.0295 -0.0775,0.048 -0.0554,0.0185 -0.14766,0.0295 -0.0923,0.0111 -0.23626,0.0111 -0.14028,0 -0.23626,-0.0111 -0.0923,-0.0111 -0.14766,-0.0295 -0.0554,-0.0185 -0.0775,-0.048 -0.0222,-0.0295 -0.0222,-0.0665 v -4.29697 q 0,-0.17351 0.0886,-0.25841 0.0923,-0.0886 0.23995,-0.0886 h 1.12593 q 0.16981,0 0.32116,0.0148 0.15505,0.0111 0.36916,0.0554 0.21411,0.0406 0.43191,0.15504 0.22149,0.11444 0.37654,0.29164 0.15504,0.1735 0.23626,0.40976 0.0812,0.23257 0.0812,0.5242 z m -1.01518,0.0701 q 0,-0.25103 -0.0886,-0.41345 -0.0886,-0.16243 -0.2178,-0.23996 -0.12921,-0.0775 -0.27318,-0.096 -0.14028,-0.0221 -0.29163,-0.0221 h -0.41346 v 1.6206 h 0.43561 q 0.23256,0 0.38761,-0.0628 0.15874,-0.0628 0.25841,-0.1735 0.0997,-0.11444 0.15135,-0.26948 0.0517,-0.15874 0.0517,-0.34332 z m 5.02833,2.87572 q 0,0.10706 -0.0111,0.18089 -0.007,0.0701 -0.0258,0.11444 -0.0185,0.0443 -0.048,0.0665 -0.0258,0.0185 -0.0591,0.0185 h -2.39952 q -0.12182,0 -0.20672,-0.0701 -0.0812,-0.0738 -0.0812,-0.23626 v -4.16407 q 0,-0.16243 0.0812,-0.23257 0.0849,-0.0738 0.20672,-0.0738 h 2.38475 q 0.0332,0 0.0591,0.0185 0.0258,0.0185 0.0443,0.0664 0.0185,0.0443 0.0258,0.11813 0.0111,0.0701 0.0111,0.18089 0,0.10336 -0.0111,0.1772 -0.007,0.0701 -0.0258,0.11443 -0.0185,0.0443 -0.0443,0.0665 -0.0258,0.0185 -0.0591,0.0185 h -1.7055 v 1.16653 h 1.4434 q 0.0332,0 0.0591,0.0222 0.0295,0.0185 0.048,0.0628 0.0185,0.0406 0.0258,0.11444 0.0111,0.0701 0.0111,0.1735 0,0.10705 -0.0111,0.17719 -0.007,0.0701 -0.0258,0.11444 -0.0185,0.0406 -0.048,0.0591 -0.0258,0.0185 -0.0591,0.0185 h -1.4434 v 1.34742 h 1.72027 q 0.0332,0 0.0591,0.0222 0.0295,0.0185 0.048,0.0628 0.0185,0.0443 0.0258,0.11813 0.0111,0.0701 0.0111,0.17719 z m 2.25965,0.24734 q 0,0.0369 -0.0258,0.0665 -0.0222,0.0295 -0.0775,0.048 -0.0554,0.0185 -0.14766,0.0295 -0.0923,0.0111 -0.23626,0.0111 -0.14028,0 -0.23626,-0.0111 -0.0923,-0.0111 -0.14766,-0.0295 -0.0554,-0.0185 -0.0812,-0.048 -0.0222,-0.0295 -0.0222,-0.0665 v -4.51109 q 0,-0.0369 0.0222,-0.0664 0.0258,-0.0295 0.0812,-0.048 0.0591,-0.0185 0.15135,-0.0295 0.0923,-0.0111 0.23257,-0.0111 0.14397,0 0.23626,0.0111 0.0923,0.0111 0.14766,0.0295 0.0554,0.0185 0.0775,0.048 0.0258,0.0295 0.0258,0.0664 z m 5.38272,-0.22888 q 0.0443,0.1329 0.0554,0.21042 0.0111,0.0775 -0.0295,0.11813 -0.0406,0.0369 -0.14397,0.0443 -0.10337,0.0111 -0.28425,0.0111 -0.18827,0 -0.29533,-0.007 -0.10336,-0.004 -0.15874,-0.0185 -0.0554,-0.0185 -0.0775,-0.048 -0.0222,-0.0295 -0.0369,-0.0775 l -0.32117,-0.95981 h -1.7941 l -0.3027,0.93397 q -0.0148,0.0517 -0.0406,0.0886 -0.0221,0.0332 -0.0775,0.0554 -0.0517,0.0185 -0.15136,0.0258 -0.096,0.007 -0.25472,0.007 -0.16981,0 -0.26579,-0.0111 -0.096,-0.0111 -0.13289,-0.0517 -0.0369,-0.0443 -0.0258,-0.12182 0.0111,-0.0775 0.0554,-0.20673 l 1.47293,-4.23791 q 0.0222,-0.0628 0.0517,-0.0997 0.0295,-0.0406 0.0923,-0.0591 0.0665,-0.0222 0.18089,-0.0258 0.11444,-0.007 0.30271,-0.007 0.2178,0 0.347,0.007 0.12921,0.004 0.19935,0.0258 0.0738,0.0185 0.10336,0.0591 0.0332,0.0406 0.0554,0.11075 z m -2.19279,-3.50329 h -0.004 l -0.67556,2.03036 h 1.35481 z"
       id="text1"
       style="font-weight:bold;font-size:7.56031px;line-height:1;font-family:Calibri;-inkscape-font-specification:'Calibri Bold';text-align:center;letter-spacing:0.428642px;text-anchor:middle;fill:#b1273a;stroke-width:0.158237;stroke-linecap:square"
       aria-label="ΠΕΡΙΦΕΡΕΙΑ" /><path
       d="m 2.676292,55.151819 q 0.027287,0.113402 0.034173,0.179573 0.0068,0.06611 -0.018192,0.100815 -0.025077,0.03153 -0.088782,0.03776 -0.063755,0.0094 -0.1752849,0.0094 -0.1160944,0 -0.182111,-0.0059 -0.063756,-0.0035 -0.097886,-0.01576 -0.034173,-0.01576 -0.047774,-0.04094 -0.013686,-0.02517 -0.022782,-0.06611 L 1.879604,54.531625 H 0.77326855 l -0.1866674,0.797014 q -0.0091,0.04411 -0.025077,0.07564 -0.013686,0.02835 -0.047774,0.04729 -0.031878,0.01576 -0.09333,0.022 -0.059165,0.0059 -0.1570764,0.0059 -0.1047119,0 -0.1639025,-0.0094 -0.059165,-0.0094 -0.081947,-0.04411 -0.022782,-0.03776 -0.015896,-0.103991 0.0068,-0.06611 0.034173,-0.176409 l 0.908294,-3.616456 q 0.013686,-0.05353 0.031878,-0.08505 0.018192,-0.03459 0.05687,-0.05035 0.040973,-0.01894 0.1115465,-0.022 0.070556,-0.0059 0.1866674,-0.0059 0.1343029,0 0.2139802,0.0059 0.079652,0.0035 0.122929,0.022 0.045564,0.01576 0.063756,0.05035 0.020487,0.0347 0.034173,0.09446 z M 1.3240901,52.162262 h -0.00255 L 0.90495345,53.894879 H 1.7404048 Z m 4.4574995,3.008461 q 0,0.07246 -0.01819,0.129166 -0.01819,0.0567 -0.05007,0.09446 -0.02958,0.03776 -0.07285,0.0567 -0.04097,0.01576 -0.08424,0.01576 h -0.254966 q -0.079652,0 -0.1388594,-0.022 -0.05687,-0.022 -0.1069901,-0.07882 -0.047774,-0.05988 -0.093338,-0.157505 -0.045564,-0.100803 -0.1024337,-0.258307 L 4.1266432,53.044293 Q 4.0628877,52.874178 3.9968881,52.678865 3.9308375,52.4804 3.878507,52.294533 h -0.00425 q 0.0091,0.226816 0.013686,0.453632 0.00425,0.223663 0.00425,0.46309 v 2.1327 q 0,0.03153 -0.013686,0.0567 -0.011391,0.02517 -0.043269,0.04411 -0.029583,0.01576 -0.081947,0.02517 -0.052364,0.0094 -0.1343114,0.0094 -0.079652,0 -0.1320333,-0.0094 -0.052365,-0.0094 -0.081947,-0.02517 -0.029583,-0.01894 -0.040973,-0.04411 -0.011391,-0.02517 -0.011391,-0.0567 v -3.663711 q 0,-0.148069 0.06146,-0.220522 0.063755,-0.07564 0.1547982,-0.07564 h 0.3209704 q 0.086503,0 0.1456939,0.02211 0.059165,0.01894 0.1047119,0.06611 0.047774,0.04729 0.088782,0.132318 0.040973,0.08188 0.084242,0.204759 l 0.5736544,1.490061 q 0.050069,0.135459 0.097886,0.267766 0.050069,0.129154 0.095608,0.261472 0.045564,0.129153 0.088781,0.255166 0.043269,0.126013 0.084242,0.252014 h 0.00255 q -0.0068,-0.220511 -0.011391,-0.459926 -0.00255,-0.239426 -0.00255,-0.456784 v -1.91219 q 0,-0.03153 0.013686,-0.0567 0.013686,-0.02517 0.045564,-0.04411 0.031878,-0.01894 0.084242,-0.02517 0.05236,-0.0094 0.134303,-0.0094 0.07736,0 0.129755,0.0094 0.052361,0.0059 0.07965,0.02517 0.02958,0.01894 0.04097,0.04411 0.01139,0.02517 0.01139,0.0567 z m 3.319296,-0.01894 q 0.02729,0.113402 0.03417,0.179572 0.0068,0.06611 -0.01819,0.100815 -0.02508,0.03153 -0.08878,0.03776 -0.06376,0.0094 -0.175285,0.0094 -0.116094,0 -0.182111,-0.0059 -0.06376,-0.0035 -0.09788,-0.01576 -0.03417,-0.01576 -0.04777,-0.04094 -0.01369,-0.02517 -0.02278,-0.06611 l -0.19805,-0.81906 h -1.106336 l -0.186667,0.797015 q -0.0091,0.04411 -0.02508,0.07564 -0.01369,0.02835 -0.04777,0.04729 -0.03188,0.01576 -0.09333,0.022 -0.05917,0.0059 -0.157076,0.0059 -0.104712,0 -0.163903,-0.0094 -0.05917,-0.0094 -0.08195,-0.04411 -0.02278,-0.03776 -0.01598,-0.103992 0.0068,-0.06611 0.03417,-0.176408 l 0.908294,-3.616456 q 0.01369,-0.05353 0.03188,-0.08505 0.01819,-0.03458 0.05687,-0.05035 0.04097,-0.01894 0.111547,-0.022 0.07056,-0.0059 0.186667,-0.0059 0.134303,0 0.213981,0.0059 0.07965,0.0035 0.122929,0.022 0.04556,0.01576 0.06375,0.05035 0.02049,0.0347 0.03417,0.09446 z m -1.352202,-2.989557 h -0.0025 l -0.416587,1.732617 h 0.835451 z m 3.6015704,-0.43788 q 0,0.0914 -0.0068,0.157504 -0.0043,0.06305 -0.0159,0.103991 -0.01139,0.03776 -0.02958,0.0567 -0.0159,0.01894 -0.03638,0.01894 h -0.737565 v 3.285684 q 0,0.03153 -0.0159,0.0567 -0.01369,0.02517 -0.04777,0.04094 -0.03417,0.01576 -0.09333,0.02517 -0.05687,0.0094 -0.143416,0.0094 -0.0865,0 -0.145694,-0.0094 -0.05687,-0.0094 -0.09106,-0.02517 -0.03417,-0.01576 -0.05007,-0.04094 -0.01369,-0.02517 -0.01369,-0.0567 V 52.061481 H 9.185534 q -0.02278,0 -0.03868,-0.01894 -0.01598,-0.01894 -0.02729,-0.0567 -0.01139,-0.04094 -0.01819,-0.103991 -0.0043,-0.06611 -0.0043,-0.157504 0,-0.09446 0.0043,-0.160669 0.0068,-0.06611 0.01819,-0.103991 0.01139,-0.04094 0.02729,-0.0567 0.01598,-0.01894 0.03868,-0.01894 h 2.076106 q 0.02049,0 0.03638,0.01894 0.01819,0.01576 0.02958,0.0567 0.01139,0.03776 0.0159,0.103991 0.0068,0.06611 0.0068,0.160669 z m 3.150828,1.650718 q 0,0.50718 -0.09105,0.907263 -0.09106,0.400072 -0.270902,0.680448 -0.179832,0.277224 -0.446177,0.425281 -0.264067,0.144906 -0.612358,0.144906 -0.343736,0 -0.600976,-0.12286 -0.254962,-0.126001 -0.425691,-0.381168 -0.170728,-0.255178 -0.25724,-0.648956 -0.08424,-0.393778 -0.08424,-0.932462 0,-0.494581 0.09106,-0.888359 0.09105,-0.396931 0.270893,-0.674155 0.179841,-0.277223 0.443899,-0.425281 0.266345,-0.148058 0.616915,-0.148058 0.334639,0 0.589593,0.12286 0.257241,0.12286 0.427969,0.378027 0.173007,0.255166 0.25951,0.645792 0.08878,0.387484 0.08878,0.916722 z m -0.628289,0.04411 q 0,-0.321325 -0.03647,-0.582797 -0.03638,-0.264613 -0.125207,-0.450479 -0.0865,-0.189008 -0.232189,-0.289822 -0.145694,-0.103992 -0.36423,-0.103992 -0.220815,0 -0.368779,0.116579 -0.147972,0.113402 -0.239023,0.305574 -0.09106,0.19216 -0.129764,0.450479 -0.03638,0.255178 -0.03638,0.541848 0,0.333924 0.03638,0.60169 0.03638,0.264612 0.122929,0.453631 0.0865,0.189008 0.232197,0.289823 0.145694,0.09764 0.366501,0.09764 0.220815,0 0.368787,-0.113402 0.147963,-0.113402 0.239023,-0.308726 0.09106,-0.195313 0.127477,-0.453632 0.03868,-0.261472 0.03868,-0.554435 z m 3.653918,1.729476 q 0.02508,0.113402 0.03188,0.179562 0.0091,0.06611 -0.0159,0.100814 -0.02508,0.0347 -0.09334,0.04094 -0.06826,0.0094 -0.193493,0.0094 -0.111547,0 -0.175285,-0.0059 -0.06146,-0.0035 -0.09561,-0.01894 -0.03188,-0.01576 -0.04327,-0.04094 -0.0091,-0.02835 -0.01819,-0.07246 L 16.21782,52.178331 h -0.0042 l -0.70114,3.153378 q -0.0091,0.04411 -0.02278,0.07564 -0.01369,0.02835 -0.04556,0.04411 -0.03188,0.01576 -0.09334,0.022 -0.05917,0.0059 -0.159346,0.0059 -0.10699,0 -0.16618,-0.01259 -0.05687,-0.0094 -0.08195,-0.04411 -0.02278,-0.0347 -0.0159,-0.100815 0.0091,-0.06611 0.03647,-0.179561 l 0.871869,-3.613304 q 0.01139,-0.05353 0.02958,-0.08505 0.01819,-0.03459 0.05917,-0.05035 0.04097,-0.01894 0.111547,-0.022 0.07056,-0.0059 0.186667,-0.0059 0.08877,0 0.15479,0.0035 0.06605,0 0.111546,0.0059 0.04556,0.0059 0.07285,0.01894 0.02958,0.0094 0.04777,0.02835 0.02049,0.01894 0.02958,0.05035 0.01139,0.02835 0.02049,0.06611 z m 1.288718,0.198454 q 0,0.03153 -0.0159,0.0567 -0.01369,0.02517 -0.04777,0.04094 -0.03417,0.01576 -0.09106,0.02517 -0.05687,0.0094 -0.145685,0.0094 -0.0865,0 -0.145694,-0.0094 -0.05687,-0.0094 -0.09106,-0.02517 -0.03417,-0.01576 -0.05007,-0.04094 -0.01369,-0.02517 -0.01369,-0.0567 v -3.849566 q 0,-0.03153 0.01369,-0.0567 0.0159,-0.02517 0.05007,-0.04094 0.03638,-0.01576 0.09334,-0.02518 0.05687,-0.0094 0.143416,-0.0094 0.08878,0 0.145685,0.0094 0.05696,0.0094 0.09106,0.02518 0.03417,0.01576 0.04777,0.04094 0.0159,0.02517 0.0159,0.0567 z m 3.057499,-0.0094 q 0,0.0347 -0.01369,0.06305 -0.01139,0.02517 -0.04777,0.04411 -0.03417,0.01576 -0.09561,0.02518 -0.06146,0.0094 -0.154798,0.0094 -0.147973,0 -0.213989,-0.01576 -0.06376,-0.01576 -0.09333,-0.04729 -0.02729,-0.03153 -0.04327,-0.07564 l -0.890082,-1.934233 v 1.934235 q 0,0.0347 -0.01369,0.05988 -0.01369,0.02517 -0.04777,0.04411 -0.03417,0.01576 -0.09106,0.02517 -0.05696,0.0094 -0.145694,0.0094 -0.0865,0 -0.145685,-0.0094 -0.05696,-0.0094 -0.09106,-0.02517 -0.03417,-0.01894 -0.05007,-0.04411 -0.01369,-0.02517 -0.01369,-0.05988 v -3.840131 q 0,-0.03459 0.01369,-0.05988 0.0159,-0.02517 0.05007,-0.04094 0.03417,-0.01576 0.09106,-0.02517 0.05917,-0.0094 0.145685,-0.0094 0.08878,0 0.145694,0.0094 0.05687,0.0094 0.09106,0.02517 0.03417,0.01576 0.04777,0.04094 0.01369,0.02517 0.01369,0.05988 v 1.735781 l 0.862764,-1.732629 q 0.01598,-0.04094 0.03868,-0.06611 0.02278,-0.02835 0.05917,-0.04411 0.03647,-0.01576 0.09334,-0.022 0.05687,-0.0059 0.145694,-0.0059 0.09105,0 0.150241,0.0094 0.05917,0.0094 0.09333,0.02835 0.03638,0.01576 0.05007,0.04094 0.01369,0.02517 0.01369,0.0567 0,0.05352 -0.02049,0.110225 -0.02049,0.0567 -0.07744,0.179562 l -0.80813,1.464863 0.880981,1.842878 q 0.05007,0.129154 0.05917,0.173256 0.01139,0.04094 0.01139,0.06611 z m 2.96189,0.0094 q 0,0.03153 -0.0159,0.0567 -0.01369,0.02517 -0.04777,0.04094 -0.03417,0.01576 -0.09106,0.02517 -0.05687,0.0094 -0.143416,0.0094 -0.08878,0 -0.147963,-0.0094 -0.05695,-0.0094 -0.09106,-0.02517 -0.03188,-0.01576 -0.04777,-0.04094 -0.01369,-0.02517 -0.01369,-0.0567 v -1.647561 h -1.101788 v 1.647565 q 0,0.03153 -0.01369,0.0567 -0.01369,0.02517 -0.04777,0.04094 -0.03417,0.01576 -0.09106,0.02517 -0.05687,0.0094 -0.145685,0.0094 -0.0865,0 -0.145694,-0.0094 -0.05687,-0.0094 -0.09106,-0.02517 -0.03417,-0.01576 -0.05007,-0.04094 -0.01369,-0.02517 -0.01369,-0.0567 v -3.849566 q 0,-0.03153 0.01369,-0.0567 0.01598,-0.02517 0.05007,-0.04094 0.03417,-0.01576 0.09106,-0.02518 0.05917,-0.0094 0.145694,-0.0094 0.08878,0 0.145685,0.0094 0.05687,0.0094 0.09106,0.02518 0.03417,0.01576 0.04777,0.04094 0.01369,0.02517 0.01369,0.0567 v 1.496355 h 1.101788 v -1.496355 q 0,-0.03153 0.01369,-0.0567 0.0159,-0.02517 0.04777,-0.04094 0.03417,-0.01576 0.09106,-0.02518 0.05917,-0.0094 0.147963,-0.0094 0.0865,0 0.143416,0.0094 0.05696,0.0094 0.09106,0.02518 0.03417,0.01576 0.04777,0.04094 0.0159,0.02517 0.0159,0.0567 z m 2.615878,-0.211064 q 0,0.0914 -0.0068,0.154363 -0.0042,0.05988 -0.0159,0.09764 -0.01139,0.03776 -0.02958,0.0567 -0.0159,0.01576 -0.03638,0.01576 h -1.584391 q -0.09106,0 -0.141146,-0.07246 -0.04777,-0.07246 -0.04777,-0.211065 v -0.129165 q 0,-0.08505 0.0043,-0.148058 0.0068,-0.06305 0.02049,-0.116578 0.01369,-0.05353 0.04097,-0.110226 0.02729,-0.0567 0.07285,-0.135459 l 0.678375,-1.200239 -0.632845,-1.033277 q -0.04327,-0.06611 -0.06826,-0.116578 -0.02499,-0.05353 -0.03868,-0.107167 -0.01369,-0.05353 -0.01819,-0.119708 -0.0043,-0.06929 -0.0043,-0.166962 v -0.12915 q 0,-0.13546 0.04556,-0.207924 0.04777,-0.07246 0.141137,-0.07246 h 1.520653 q 0.02049,0 0.03647,0.01576 0.01819,0.01576 0.02958,0.0567 0.01139,0.03776 0.0159,0.100815 0.0068,0.05988 0.0068,0.154363 0,0.08823 -0.0068,0.151211 -0.0043,0.05988 -0.0159,0.09764 -0.01139,0.03776 -0.02958,0.0567 -0.01598,0.01576 -0.03647,0.01576 h -0.999354 l 0.591871,0.960824 q 0.02508,0.03776 0.04097,0.06611 0.01598,0.02835 0.02278,0.06305 0.0091,0.03153 0.01139,0.07564 0.0025,0.04411 0.0025,0.113402 0,0.06611 -0.0025,0.110226 -0.0026,0.04094 -0.01139,0.07246 -0.0068,0.03153 -0.02278,0.06305 -0.0159,0.03153 -0.04097,0.07564 l -0.653331,1.178182 h 1.072196 q 0.02049,0 0.03638,0.01894 0.01819,0.01576 0.02958,0.05353 0.01139,0.03776 0.0159,0.100815 0.0068,0.05988 0.0068,0.15121 z m 5.495812,0.211064 q 0,0.03153 -0.01369,0.0567 -0.01139,0.02517 -0.04556,0.04094 -0.03188,0.01576 -0.0865,0.02517 -0.05466,0.0094 -0.138859,0.0094 -0.08195,0 -0.13659,-0.0094 -0.05466,-0.0094 -0.0865,-0.02517 -0.03188,-0.01576 -0.04556,-0.04094 -0.01369,-0.02517 -0.01369,-0.0567 v -3.317176 h -0.0042 l -0.85366,3.314035 q -0.0091,0.04094 -0.02958,0.06929 -0.02049,0.02517 -0.05687,0.04094 -0.03417,0.01576 -0.08878,0.01894 -0.05466,0.0059 -0.132033,0.0059 -0.07736,0 -0.132034,-0.0094 -0.05466,-0.0059 -0.09106,-0.022 -0.03417,-0.01894 -0.05466,-0.04411 -0.02049,-0.02517 -0.02729,-0.05988 l -0.824069,-3.314035 h -0.0043 v 3.317176 q 0,0.03153 -0.01369,0.0567 -0.01139,0.02517 -0.04556,0.04094 -0.03417,0.01576 -0.08878,0.02517 -0.05237,0.0094 -0.13659,0.0094 -0.08195,0 -0.136581,-0.0094 -0.05466,-0.0094 -0.08878,-0.02517 -0.03188,-0.01576 -0.04556,-0.04094 -0.01139,-0.02517 -0.01139,-0.0567 v -3.632208 q 0,-0.160656 0.06146,-0.245708 0.06146,-0.08505 0.163902,-0.08505 h 0.391544 q 0.104712,0 0.179833,0.02517 0.07515,0.022 0.129763,0.0787 0.05466,0.05353 0.09105,0.144917 0.03647,0.08823 0.06376,0.220511 l 0.637401,2.428828 h 0.0091 l 0.660166,-2.422523 q 0.02958,-0.132306 0.06376,-0.223663 0.03638,-0.0914 0.08195,-0.14807 0.04777,-0.0567 0.111546,-0.0787 0.06376,-0.02517 0.147964,-0.02517 h 0.402926 q 0.06146,0 0.10472,0.02212 0.04556,0.022 0.07285,0.06611 0.02958,0.04094 0.04327,0.103991 0.01598,0.05988 0.01598,0.138612 z m 3.319287,-0.195313 q 0.02729,0.113402 0.03417,0.179573 0.0068,0.06611 -0.01819,0.100815 -0.02499,0.03153 -0.08878,0.03776 -0.06376,0.0094 -0.175285,0.0094 -0.116094,0 -0.182111,-0.0059 -0.06376,-0.0035 -0.09788,-0.01576 -0.03417,-0.01576 -0.04778,-0.04094 -0.01369,-0.02518 -0.02278,-0.06611 l -0.198044,-0.819028 h -1.106344 l -0.186667,0.797014 q -0.0091,0.04411 -0.02508,0.07564 -0.01369,0.02835 -0.04777,0.04729 -0.03188,0.01576 -0.09333,0.022 -0.05917,0.0059 -0.157076,0.0059 -0.104712,0 -0.163903,-0.0094 -0.05917,-0.0094 -0.08195,-0.04411 -0.02278,-0.03776 -0.0159,-0.103991 0.0068,-0.06611 0.03417,-0.176408 l 0.908294,-3.616456 q 0.01369,-0.05353 0.03188,-0.08505 0.01819,-0.03458 0.05687,-0.05035 0.04097,-0.01894 0.111547,-0.022 0.07056,-0.0059 0.186667,-0.0059 0.134303,0 0.213981,0.0059 0.07965,0.0035 0.122929,0.022 0.04556,0.01576 0.06376,0.05035 0.02049,0.0347 0.03417,0.09446 z m -1.352202,-2.989556 h -0.0025 l -0.416579,1.732616 h 0.835443 z m 4.179781,3.175423 q 0,0.0347 -0.01369,0.06305 -0.01139,0.02517 -0.04777,0.04411 -0.03417,0.01576 -0.09562,0.02517 -0.06146,0.0094 -0.154798,0.0094 -0.147963,0 -0.21398,-0.01576 -0.06376,-0.01576 -0.09333,-0.04729 -0.02729,-0.03153 -0.04327,-0.07564 l -0.890077,-1.934235 v 1.934235 q 0,0.0347 -0.01369,0.05988 -0.01369,0.02517 -0.04777,0.04411 -0.03417,0.01576 -0.09105,0.02517 -0.05687,0.0094 -0.145694,0.0094 -0.0865,0 -0.145694,-0.0094 -0.05687,-0.0094 -0.09105,-0.02517 -0.03417,-0.01894 -0.05007,-0.04411 -0.01369,-0.02517 -0.01369,-0.05988 v -3.840131 q 0,-0.03458 0.01369,-0.05988 0.0159,-0.02517 0.05007,-0.04094 0.03417,-0.01576 0.09105,-0.02517 0.05917,-0.0094 0.145694,-0.0094 0.08878,0 0.145694,0.0094 0.05696,0.0094 0.09105,0.02517 0.03417,0.01576 0.04777,0.04094 0.01369,0.02517 0.01369,0.05988 v 1.735781 l 0.862764,-1.732628 q 0.01598,-0.04094 0.03868,-0.06611 0.02278,-0.02835 0.05917,-0.04411 0.03638,-0.01576 0.09334,-0.022 0.05687,-0.0059 0.145686,-0.0059 0.09106,0 0.150242,0.0094 0.05917,0.0094 0.09334,0.02835 0.03638,0.01576 0.05007,0.04094 0.01369,0.02518 0.01369,0.0567 0,0.05353 -0.02049,0.110226 -0.02049,0.0567 -0.07736,0.179561 l -0.80813,1.464863 0.880972,1.842879 q 0.05007,0.129153 0.05917,0.173255 0.01139,0.04094 0.01139,0.06611 z m 2.408714,-0.201618 q 0,0.0914 -0.0068,0.154363 -0.0043,0.05988 -0.0159,0.09764 -0.01139,0.03776 -0.02958,0.0567 -0.0159,0.01576 -0.03638,0.01576 h -1.479679 q -0.07515,0 -0.127485,-0.05988 -0.05007,-0.06305 -0.05007,-0.201618 v -3.55345 q 0,-0.138612 0.05007,-0.198465 0.05236,-0.06305 0.127485,-0.06305 h 1.470566 q 0.02049,0 0.03647,0.01576 0.0159,0.01576 0.02729,0.0567 0.01139,0.03776 0.0159,0.100815 0.0068,0.05988 0.0068,0.154363 0,0.08823 -0.0068,0.15121 -0.0043,0.05988 -0.0159,0.09764 -0.01139,0.03776 -0.02729,0.0567 -0.0159,0.01576 -0.03647,0.01576 h -1.051701 v 0.995479 h 0.890077 q 0.02049,0 0.03638,0.01894 0.01819,0.01576 0.02958,0.05353 0.01139,0.0347 0.01598,0.09764 0.0068,0.05988 0.0068,0.14807 0,0.0914 -0.0068,0.151211 -0.0043,0.05988 -0.01598,0.09764 -0.01139,0.0347 -0.02958,0.05047 -0.01598,0.01576 -0.03638,0.01576 h -0.890077 v 1.149831 h 1.060814 q 0.02049,0 0.03638,0.01894 0.01819,0.01576 0.02958,0.05353 0.01139,0.03776 0.0159,0.100815 0.0068,0.05988 0.0068,0.15121 z m 3.021082,0.03776 q 0,0.138612 -0.05237,0.214217 -0.05007,0.07247 -0.138859,0.07247 h -2.11708 q -0.08878,0 -0.13886,-0.07247 -0.05007,-0.07564 -0.05007,-0.214217 v -0.113402 q 0,-0.04411 0.0042,-0.09764 0.0043,-0.05352 0.01369,-0.116578 0.01139,-0.06611 0.02729,-0.144917 0.01819,-0.08187 0.04327,-0.185866 l 0.748947,-2.986404 q 0.01369,-0.05353 0.02958,-0.08505 0.01819,-0.03458 0.05687,-0.05035 0.04097,-0.01894 0.111546,-0.022 0.07285,-0.0059 0.191216,-0.0059 0.134311,0 0.213988,0.0059 0.07965,0.0035 0.122921,0.022 0.04556,0.01576 0.06376,0.05035 0.01819,0.0347 0.03417,0.09446 l 0.744392,2.973816 q 0.02729,0.103991 0.04327,0.189008 0.01819,0.08187 0.02958,0.144917 0.01139,0.06294 0.01369,0.119707 0.0042,0.05353 0.0042,0.09446 z m -1.277073,-2.995862 h -0.0042 l -0.614637,2.633587 h 1.231551 z m 4.505299,1.197086 q 0,0.507181 -0.09105,0.907264 -0.09106,0.400072 -0.270901,0.680448 -0.179833,0.277223 -0.446178,0.425281 -0.264066,0.144905 -0.612358,0.144905 -0.343735,0 -0.600976,-0.12286 -0.254962,-0.126001 -0.42569,-0.381167 -0.170729,-0.255178 -0.257241,-0.648957 -0.08424,-0.393778 -0.08424,-0.932461 0,-0.494581 0.09106,-0.88836 0.09106,-0.39693 0.270892,-0.674154 0.179842,-0.277223 0.443908,-0.425281 0.266336,-0.148058 0.616906,-0.148058 0.33464,0 0.589594,0.12286 0.25724,0.12286 0.427969,0.378027 0.173006,0.255166 0.25951,0.645791 0.08878,0.387485 0.08878,0.916722 z m -0.628288,0.04411 q 0,-0.321325 -0.03647,-0.582797 -0.03638,-0.264613 -0.125199,-0.450479 -0.08651,-0.189008 -0.232197,-0.289823 -0.145694,-0.103991 -0.364231,-0.103991 -0.220815,0 -0.368778,0.116578 -0.147972,0.113403 -0.239024,0.305574 -0.09106,0.19216 -0.129763,0.45048 -0.03638,0.255178 -0.03638,0.541847 0,0.333925 0.03638,0.60169 0.03638,0.264613 0.122929,0.453632 0.0865,0.189008 0.232197,0.289822 0.145694,0.09764 0.3665,0.09764 0.220815,0 0.368787,-0.113402 0.147964,-0.113402 0.239024,-0.308726 0.09106,-0.195313 0.127477,-0.453632 0.03868,-0.261472 0.03868,-0.554435 z m 3.824655,1.751521 q 0,0.07247 -0.01819,0.129166 -0.01819,0.0567 -0.05007,0.09446 -0.02958,0.03776 -0.07285,0.0567 -0.04097,0.01576 -0.08424,0.01576 H 50.46746 q -0.07965,0 -0.138868,-0.022 -0.05687,-0.022 -0.10699,-0.07882 -0.04777,-0.05988 -0.09333,-0.157504 -0.04556,-0.100815 -0.102442,-0.25832 l -0.733009,-1.905884 q -0.06376,-0.170115 -0.129755,-0.365428 -0.06605,-0.198465 -0.118373,-0.384332 h -0.0042 q 0.0091,0.226816 0.01369,0.453632 0.0042,0.223664 0.0042,0.46309 v 2.132701 q 0,0.03153 -0.01369,0.0567 -0.01139,0.02517 -0.04327,0.04411 -0.02958,0.01576 -0.08195,0.02517 -0.05236,0.0094 -0.134312,0.0094 -0.07965,0 -0.132025,-0.0094 -0.05236,-0.0094 -0.08195,-0.02517 -0.02958,-0.01894 -0.04097,-0.04411 -0.01139,-0.02517 -0.01139,-0.0567 v -3.663711 q 0,-0.14807 0.06146,-0.220523 0.06376,-0.07564 0.154798,-0.07564 h 0.320979 q 0.0865,0 0.145686,0.02211 0.05917,0.01894 0.10472,0.06611 0.04777,0.04729 0.08878,0.132319 0.04097,0.08188 0.08424,0.204759 l 0.573663,1.490061 q 0.05007,0.135459 0.09789,0.267765 0.05007,0.129154 0.09561,0.261472 0.04556,0.129154 0.08878,0.255166 0.04327,0.126013 0.08424,0.252014 h 0.0025 q -0.0068,-0.220511 -0.01139,-0.459925 -0.0025,-0.239427 -0.0025,-0.456785 v -1.91219 q 0,-0.03153 0.01369,-0.0567 0.01369,-0.02517 0.04556,-0.04411 0.03188,-0.01894 0.08424,-0.02517 0.05237,-0.0094 0.134312,-0.0094 0.07736,0 0.129755,0.0094 0.05236,0.0059 0.07965,0.02517 0.02958,0.01894 0.04097,0.04411 0.01139,0.02518 0.01139,0.0567 z m 1.507255,0.176409 q 0,0.03153 -0.01598,0.0567 -0.01369,0.02517 -0.04777,0.04094 -0.03417,0.01576 -0.09105,0.02517 -0.05695,0.0094 -0.145694,0.0094 -0.0865,0 -0.145694,-0.0094 -0.05687,-0.0094 -0.09105,-0.02517 -0.03417,-0.01576 -0.05007,-0.04094 -0.01369,-0.02517 -0.01369,-0.0567 v -3.849566 q 0,-0.03153 0.01369,-0.0567 0.01598,-0.02517 0.05007,-0.04094 0.03638,-0.01576 0.09333,-0.02517 0.05687,-0.0094 0.143416,-0.0094 0.08878,0 0.145694,0.0094 0.05687,0.0094 0.09105,0.02517 0.03417,0.01576 0.04777,0.04094 0.01598,0.02517 0.01598,0.0567 z m 3.319286,-0.195313 q 0.02729,0.113402 0.03417,0.179573 0.0068,0.06611 -0.01819,0.100815 -0.02508,0.03153 -0.08878,0.03776 -0.06376,0.0094 -0.175285,0.0094 -0.116103,0 -0.182119,-0.0059 -0.06376,-0.0035 -0.09789,-0.01576 -0.03417,-0.01576 -0.04777,-0.04094 -0.01369,-0.02517 -0.02278,-0.06611 L 54.97761,54.53153 h -1.106344 l -0.186667,0.797014 q -0.0091,0.04411 -0.02508,0.07564 -0.01369,0.02835 -0.04777,0.04729 -0.03188,0.01576 -0.09334,0.022 -0.05917,0.0059 -0.157067,0.0059 -0.104721,0 -0.163903,-0.0094 -0.05917,-0.0094 -0.08195,-0.04411 -0.02278,-0.03776 -0.0159,-0.103991 0.0068,-0.06611 0.03417,-0.176409 l 0.908294,-3.616456 q 0.01369,-0.05353 0.03188,-0.08505 0.01819,-0.03459 0.05687,-0.05035 0.04097,-0.01894 0.111547,-0.022 0.07056,-0.0059 0.186667,-0.0059 0.134312,0 0.213989,0.0059 0.07965,0.0035 0.12292,0.022 0.04556,0.01576 0.06376,0.05035 0.02049,0.0347 0.03417,0.09446 z m -1.352193,-2.989548 h -0.0025 l -0.416587,1.732617 h 0.835452 z m 3.738151,2.973805 q 0,0.0914 -0.0068,0.154364 -0.0043,0.05988 -0.0159,0.09764 -0.01139,0.03776 -0.02958,0.0567 -0.0159,0.01576 -0.03638,0.01576 h -1.584391 q -0.09106,0 -0.141146,-0.07246 -0.04777,-0.07246 -0.04777,-0.211064 v -0.129167 q 0,-0.08505 0.0042,-0.148058 0.0068,-0.06305 0.02049,-0.116579 0.01369,-0.05352 0.04097,-0.110226 0.02729,-0.0567 0.07285,-0.135459 l 0.678421,-1.200238 -0.632845,-1.033277 q -0.04327,-0.06611 -0.06826,-0.116578 -0.02499,-0.05353 -0.03868,-0.107167 -0.01369,-0.05353 -0.01819,-0.119708 -0.0042,-0.06929 -0.0042,-0.166962 v -0.129154 q 0,-0.135459 0.04556,-0.207923 0.04777,-0.07247 0.141137,-0.07247 H 58.0604 q 0.02049,0 0.03638,0.01576 0.01819,0.01576 0.02958,0.0567 0.01139,0.03776 0.0159,0.100815 0.0068,0.05988 0.0068,0.154363 0,0.08823 -0.0068,0.151211 -0.0042,0.05988 -0.0159,0.09764 -0.01139,0.03776 -0.02958,0.0567 -0.0159,0.01576 -0.03638,0.01576 h -0.999353 l 0.591871,0.960824 q 0.02508,0.03776 0.04097,0.06611 0.01598,0.02835 0.02278,0.06305 0.0091,0.03153 0.01139,0.07564 0.0025,0.04411 0.0025,0.113402 0,0.06611 -0.0025,0.110226 -0.0026,0.04094 -0.01139,0.07246 -0.0068,0.03153 -0.02278,0.06305 -0.0159,0.03153 -0.04097,0.07564 l -0.653332,1.178182 h 1.072197 q 0.02049,0 0.03638,0.01894 0.01819,0.01576 0.02958,0.05352 0.01139,0.03776 0.0159,0.100815 0.0068,0.05988 0.0068,0.151211 z m 4.214175,0.201618 q 0,0.0347 -0.01369,0.06305 -0.01139,0.02517 -0.04777,0.04411 -0.03417,0.01576 -0.09561,0.02517 -0.06146,0.0094 -0.154799,0.0094 -0.147972,0 -0.213988,-0.01576 -0.06376,-0.01576 -0.09333,-0.04729 -0.02729,-0.03153 -0.04327,-0.07564 l -0.890085,-1.934235 v 1.934235 q 0,0.0347 -0.01369,0.05988 -0.01369,0.02517 -0.04777,0.04411 -0.03417,0.01576 -0.09106,0.02517 -0.05696,0.0094 -0.145694,0.0094 -0.0865,0 -0.145685,-0.0094 -0.05687,-0.0094 -0.09106,-0.02517 -0.03417,-0.01894 -0.05007,-0.04411 -0.01369,-0.02517 -0.01369,-0.05988 v -3.840131 q 0,-0.03458 0.01369,-0.05988 0.0159,-0.02518 0.05007,-0.04094 0.03417,-0.01576 0.09106,-0.02517 0.05917,-0.0094 0.145685,-0.0094 0.08878,0 0.145694,0.0094 0.05687,0.0094 0.09106,0.02517 0.03417,0.01576 0.04777,0.04094 0.01369,0.02517 0.01369,0.05988 v 1.735781 l 0.862764,-1.732628 q 0.01598,-0.04094 0.03868,-0.06611 0.02278,-0.02835 0.05917,-0.04411 0.03647,-0.01576 0.09334,-0.022 0.05687,-0.0059 0.145694,-0.0059 0.09105,0 0.150242,0.0094 0.05916,0.0094 0.09333,0.02835 0.03638,0.01576 0.05007,0.04094 0.01369,0.02517 0.01369,0.0567 0,0.05353 -0.02049,0.110226 -0.02049,0.0567 -0.07736,0.179561 l -0.80813,1.464863 0.880981,1.842878 q 0.05007,0.129154 0.05916,0.173256 0.01139,0.04094 0.01139,0.06611 z m 3.075716,-0.185866 q 0.02729,0.113402 0.03417,0.179573 0.0068,0.06611 -0.01819,0.100815 -0.02508,0.03153 -0.08878,0.03776 -0.06376,0.0094 -0.175285,0.0094 -0.116095,0 -0.182111,-0.0059 -0.06376,-0.0035 -0.09789,-0.01576 -0.03417,-0.01576 -0.04777,-0.04094 -0.01369,-0.02517 -0.02278,-0.06611 l -0.19805,-0.819059 h -1.106346 l -0.186667,0.797014 q -0.0091,0.04411 -0.02499,0.07564 -0.01369,0.02835 -0.04777,0.04729 -0.03188,0.01576 -0.09334,0.022 -0.05916,0.0059 -0.157068,0.0059 -0.10472,0 -0.163902,-0.0094 -0.05916,-0.0094 -0.08195,-0.04411 -0.02278,-0.03776 -0.0159,-0.103991 0.0068,-0.06611 0.03417,-0.176409 l 0.908294,-3.616456 q 0.01369,-0.05353 0.03188,-0.08505 0.01819,-0.03459 0.05687,-0.05035 0.04097,-0.01894 0.111547,-0.022 0.07056,-0.0059 0.186667,-0.0059 0.134312,0 0.213989,0.0059 0.07965,0.0035 0.12292,0.022 0.04556,0.01576 0.06376,0.05035 0.02049,0.0347 0.03417,0.09446 z m -1.352194,-2.989557 h -0.0025 l -0.416586,1.732617 h 0.835451 z m 2.62953,3.18487 q 0,0.03153 -0.0159,0.0567 -0.01369,0.02517 -0.04777,0.04094 -0.03417,0.01576 -0.09106,0.02517 -0.05687,0.0094 -0.145694,0.0094 -0.0865,0 -0.145686,-0.0094 -0.05687,-0.0094 -0.09106,-0.02517 -0.03417,-0.01576 -0.05007,-0.04094 -0.01369,-0.02517 -0.01369,-0.0567 v -3.849566 q 0,-0.03153 0.01369,-0.0567 0.01598,-0.02517 0.05007,-0.04094 0.03647,-0.01576 0.09333,-0.02517 0.05695,-0.0094 0.143416,-0.0094 0.08878,0 0.145694,0.0094 0.05687,0.0094 0.09106,0.02517 0.03417,0.01576 0.04777,0.04094 0.0159,0.02517 0.0159,0.0567 z m 4.87435,-1.984631 q 0,0.504028 -0.09106,0.907264 -0.09105,0.403224 -0.270893,0.683589 -0.177563,0.280376 -0.443899,0.431586 -0.264067,0.148058 -0.614637,0.148058 -0.343743,0 -0.600975,-0.12286 -0.254963,-0.12286 -0.425691,-0.378026 -0.170737,-0.255167 -0.257241,-0.645792 -0.08424,-0.393779 -0.08424,-0.935615 0,-0.49144 0.09105,-0.888371 0.09106,-0.396919 0.270902,-0.674142 0.179832,-0.277224 0.443899,-0.425282 0.266345,-0.15121 0.616915,-0.15121 0.332352,0 0.587315,0.119707 0.254962,0.119707 0.427969,0.371733 0.173006,0.252014 0.261788,0.639487 0.08878,0.387484 0.08878,0.919874 z m -0.628297,0.04411 q 0,-0.321326 -0.03638,-0.579645 -0.03638,-0.261471 -0.125207,-0.447338 -0.0865,-0.185855 -0.232197,-0.28667 -0.145686,-0.100815 -0.364222,-0.100815 -0.220815,0 -0.368787,0.116579 -0.147964,0.113402 -0.239023,0.308726 -0.09106,0.19216 -0.129756,0.45048 -0.03647,0.255166 -0.03647,0.538695 0,0.337065 0.03647,0.604842 0.03638,0.267766 0.122929,0.453632 0.0865,0.185855 0.232198,0.28667 0.145685,0.09764 0.3665,0.09764 0.220815,0 0.368778,-0.113402 0.147973,-0.116578 0.239032,-0.311879 0.09105,-0.198454 0.127477,-0.459925 0.03868,-0.264625 0.03868,-0.557588 z m -0.300484,-0.0094 q 0,0.0914 -0.0068,0.154363 -0.0042,0.05988 -0.0159,0.09764 -0.01139,0.03458 -0.02958,0.05353 -0.0159,0.01576 -0.03638,0.01576 h -0.76033 q -0.02278,0 -0.03868,-0.01576 -0.0159,-0.01894 -0.02729,-0.05353 -0.01139,-0.03776 -0.01819,-0.09764 -0.0043,-0.06305 -0.0043,-0.154363 0,-0.08823 0.0043,-0.148058 0.0068,-0.06305 0.01819,-0.100815 0.01139,-0.03776 0.02729,-0.05353 0.0159,-0.01576 0.03868,-0.01576 h 0.76033 q 0.02049,0 0.03638,0.01576 0.01819,0.01576 0.02958,0.05353 0.01139,0.03776 0.0159,0.100815 0.0068,0.05988 0.0068,0.148058 z m 3.713108,-0.774957 q 0,0.343382 -0.07736,0.607995 -0.07736,0.264624 -0.225372,0.447338 -0.147963,0.179561 -0.364222,0.274071 -0.213989,0.09446 -0.505368,0.09446 h -0.245858 v 1.301042 q 0,0.03153 -0.0159,0.0567 -0.01369,0.02518 -0.04777,0.04094 -0.03417,0.01576 -0.09106,0.02517 -0.05687,0.0094 -0.145685,0.0094 -0.0865,0 -0.145694,-0.0094 -0.05687,-0.0094 -0.09106,-0.02517 -0.03417,-0.01576 -0.04777,-0.04094 -0.01369,-0.02517 -0.01369,-0.0567 v -3.666852 q 0,-0.148069 0.05466,-0.220522 0.05687,-0.07564 0.147964,-0.07564 h 0.694314 q 0.104712,0 0.19805,0.01259 0.09561,0.0094 0.22764,0.04729 0.132034,0.0347 0.266345,0.132306 0.136581,0.09764 0.232197,0.248873 0.09561,0.148058 0.145686,0.349676 0.05007,0.198465 0.05007,0.447327 z m -0.626019,0.05988 q 0,-0.214205 -0.05466,-0.352817 -0.05466,-0.138612 -0.134312,-0.204771 -0.07965,-0.06611 -0.16845,-0.08188 -0.08651,-0.01894 -0.179842,-0.01894 h -0.254962 v 1.382953 h 0.268623 q 0.143416,0 0.239023,-0.05352 0.09789,-0.05353 0.159347,-0.148058 0.06146,-0.09764 0.09334,-0.229969 0.03188,-0.135459 0.03188,-0.292975 z m 3.453598,2.469777 q 0.02729,0.113402 0.03417,0.179573 0.0068,0.06611 -0.01819,0.100815 -0.02508,0.03153 -0.08878,0.03776 -0.06376,0.0094 -0.175285,0.0094 -0.116094,0 -0.182111,-0.0059 -0.06376,-0.0035 -0.09789,-0.01576 -0.03417,-0.01576 -0.04777,-0.04094 -0.01369,-0.02518 -0.02278,-0.06611 l -0.19805,-0.81906 h -1.106343 l -0.186659,0.797015 q -0.0091,0.04411 -0.02508,0.07564 -0.01369,0.02835 -0.04777,0.04729 -0.03188,0.01576 -0.09333,0.022 -0.05916,0.0059 -0.157076,0.0059 -0.104712,0 -0.163903,-0.0094 -0.05917,-0.0094 -0.08195,-0.04411 -0.02278,-0.03776 -0.0159,-0.103991 0.0068,-0.06611 0.03417,-0.176408 l 0.908294,-3.616456 q 0.01369,-0.05353 0.03188,-0.08505 0.01819,-0.03458 0.05687,-0.05035 0.04097,-0.01894 0.111547,-0.022 0.07056,-0.0059 0.186667,-0.0059 0.134303,0 0.21398,0.0059 0.07965,0.0035 0.122929,0.022 0.04556,0.01576 0.06376,0.05035 0.02049,0.0347 0.03417,0.09446 z m -1.352201,-2.989556 h -0.0026 l -0.416586,1.732617 h 0.835451 z m 4.179781,3.175423 q 0,0.0347 -0.01369,0.06305 -0.01139,0.02517 -0.04777,0.04411 -0.03417,0.01576 -0.09561,0.02517 -0.06146,0.0094 -0.154799,0.0094 -0.147972,0 -0.213988,-0.01576 -0.06376,-0.01576 -0.09333,-0.04729 -0.02729,-0.03153 -0.04327,-0.07564 l -0.890086,-1.934235 v 1.934235 q 0,0.0347 -0.01369,0.05988 -0.01369,0.02517 -0.04777,0.04411 -0.03417,0.01576 -0.09106,0.02517 -0.05687,0.0094 -0.145694,0.0094 -0.0865,0 -0.145685,-0.0094 -0.05696,-0.0094 -0.09106,-0.02517 -0.03417,-0.01894 -0.05007,-0.04411 -0.01369,-0.02517 -0.01369,-0.05988 v -3.840131 q 0,-0.03458 0.01369,-0.05988 0.0159,-0.02517 0.05007,-0.04094 0.03417,-0.01576 0.09106,-0.02517 0.05917,-0.0094 0.145685,-0.0094 0.08878,0 0.145694,0.0094 0.05696,0.0094 0.09106,0.02517 0.03417,0.01576 0.04777,0.04094 0.01369,0.02517 0.01369,0.05988 v 1.735782 l 0.862764,-1.732629 q 0.01598,-0.04094 0.03868,-0.06611 0.02278,-0.02835 0.05917,-0.04411 0.03638,-0.01576 0.09334,-0.022 0.05687,-0.0059 0.145685,-0.0059 0.09106,0 0.15025,0.0094 0.05917,0.0094 0.09333,0.02835 0.03638,0.01576 0.05007,0.04094 0.01369,0.02518 0.01369,0.0567 0,0.05353 -0.02049,0.110226 -0.02049,0.0567 -0.07736,0.179561 l -0.80813,1.464864 0.880981,1.842878 q 0.05007,0.129153 0.05916,0.173255 0.01139,0.04094 0.01139,0.06611 z m 2.96189,0.0094 q 0,0.03153 -0.01598,0.0567 -0.01369,0.02517 -0.04777,0.04094 -0.03417,0.01576 -0.09106,0.02517 -0.05687,0.0094 -0.143416,0.0094 -0.08878,0 -0.147963,-0.0094 -0.05687,-0.0094 -0.09106,-0.02517 -0.03188,-0.01576 -0.04777,-0.04094 -0.01369,-0.02517 -0.01369,-0.0567 v -1.647565 h -1.101788 v 1.647565 q 0,0.03153 -0.01369,0.0567 -0.01369,0.02517 -0.04777,0.04094 -0.03417,0.01576 -0.09106,0.02517 -0.05687,0.0094 -0.145694,0.0094 -0.0865,0 -0.145685,-0.0094 -0.05687,-0.0094 -0.09106,-0.02517 -0.03417,-0.01576 -0.05007,-0.04094 -0.01369,-0.02517 -0.01369,-0.0567 v -3.849566 q 0,-0.03153 0.01369,-0.0567 0.0159,-0.02517 0.05007,-0.04094 0.03417,-0.01576 0.09106,-0.02517 0.05916,-0.0094 0.145685,-0.0094 0.08878,0 0.145694,0.0094 0.05687,0.0094 0.09106,0.02517 0.03417,0.01576 0.04777,0.04094 0.01369,0.02517 0.01369,0.0567 v 1.496355 h 1.101788 v -1.496355 q 0,-0.03153 0.01369,-0.0567 0.0159,-0.02517 0.04777,-0.04094 0.03417,-0.01576 0.09106,-0.02517 0.05916,-0.0094 0.147963,-0.0094 0.0865,0 0.143416,0.0094 0.05695,0.0094 0.09106,0.02517 0.03417,0.01576 0.04777,0.04094 0.01598,0.02517 0.01598,0.0567 z m 2.615877,-0.211065 q 0,0.0914 -0.0068,0.154364 -0.0043,0.05988 -0.0159,0.09764 -0.01139,0.03776 -0.02958,0.0567 -0.01598,0.01576 -0.03647,0.01576 h -1.584391 q -0.09106,0 -0.141137,-0.07247 -0.04777,-0.07246 -0.04777,-0.211064 v -0.129165 q 0,-0.08505 0.0042,-0.148058 0.0068,-0.06305 0.02049,-0.116579 0.01369,-0.05352 0.04097,-0.110225 0.02729,-0.0567 0.07285,-0.135459 l 0.678375,-1.200239 -0.632845,-1.033277 q -0.04327,-0.06611 -0.06826,-0.116578 -0.02499,-0.05353 -0.03868,-0.107167 -0.01369,-0.05353 -0.01819,-0.119708 -0.0043,-0.06929 -0.0043,-0.166962 v -0.129154 q 0,-0.135459 0.04556,-0.207923 0.04777,-0.07247 0.141138,-0.07247 h 1.520652 q 0.02049,0 0.03638,0.01576 0.01819,0.01576 0.02958,0.0567 0.01139,0.03776 0.0159,0.100815 0.0068,0.05988 0.0068,0.154363 0,0.08823 -0.0068,0.151211 -0.0042,0.05988 -0.0159,0.09764 -0.01139,0.03776 -0.02958,0.0567 -0.0159,0.01576 -0.03638,0.01576 H 84.51965 l 0.591872,0.960824 q 0.02508,0.03776 0.04097,0.06611 0.01598,0.02835 0.02278,0.06305 0.0091,0.03153 0.01139,0.07564 0.0025,0.04411 0.0025,0.113402 0,0.06611 -0.0025,0.110226 -0.0025,0.04094 -0.01139,0.07246 -0.0068,0.03153 -0.02278,0.06305 -0.0159,0.03153 -0.04097,0.07564 l -0.653332,1.178182 h 1.072196 q 0.02049,0 0.03647,0.01894 0.01819,0.01576 0.02958,0.05352 0.01139,0.03776 0.0159,0.100815 0.0068,0.05988 0.0068,0.151211 z"
       id="text2"
       style="font-weight:bold;font-size:5.48438px;line-height:1;font-family:Calibri;-inkscape-font-specification:'Calibri Bold';text-align:center;letter-spacing:0.310944px;text-anchor:middle;fill:#b1273a;stroke-width:0.114789;stroke-linecap:square"
       aria-label="ΑΝΑΤΟΛΙΚΗΣ ΜΑΚΕΔΟΝΙΑΣ ΚΑΙ ΘΡΑΚΗΣ" /></g></svg>
