<?xml version="1.0" encoding="UTF-8"?>
<!DOCTYPE svg PUBLIC "-//W3C//DTD SVG 1.1//EN" "http://www.w3.org/Graphics/SVG/1.1/DTD/svg11.dtd">
<!-- Creator: CorelDRAW 2020 (64-Bit) -->
<svg xmlns="http://www.w3.org/2000/svg" xml:space="preserve" width="382px" height="492px" version="1.1" style="shape-rendering:geometricPrecision; text-rendering:geometricPrecision; image-rendering:optimizeQuality; fill-rule:evenodd; clip-rule:evenodd"
viewBox="0 0 38200 49196"
 xmlns:xlink="http://www.w3.org/1999/xlink"
 xmlns:xodm="http://www.corel.com/coreldraw/odm/2003">
 <defs>
  <style type="text/css">
   <![CDATA[
    .str2 {stroke:#B99D62;stroke-width:90;stroke-miterlimit:22.9256}
    .str0 {stroke:#666666;stroke-width:102;stroke-miterlimit:22.9256}
    .str3 {stroke:#666666;stroke-width:90;stroke-linejoin:round;stroke-miterlimit:22.9256}
    .str1 {stroke:#B99D62;stroke-width:90;stroke-linejoin:round;stroke-miterlimit:22.9256}
    .str9 {stroke:#B99D62;stroke-width:75;stroke-linejoin:round;stroke-miterlimit:22.9256}
    .str8 {stroke:#B99D62;stroke-width:67;stroke-linejoin:round;stroke-miterlimit:22.9256}
    .str13 {stroke:#D35435;stroke-width:67;stroke-linejoin:round;stroke-miterlimit:22.9256}
    .str6 {stroke:#B99D62;stroke-width:33;stroke-linejoin:round;stroke-miterlimit:22.9256}
    .str12 {stroke:#666666;stroke-width:90;stroke-linecap:round;stroke-miterlimit:22.9256}
    .str11 {stroke:#666666;stroke-width:67;stroke-linecap:round;stroke-miterlimit:22.9256}
    .str5 {stroke:#666666;stroke-width:90;stroke-linecap:round;stroke-linejoin:round;stroke-miterlimit:22.9256}
    .str4 {stroke:#B99D62;stroke-width:90;stroke-linecap:round;stroke-linejoin:round;stroke-miterlimit:22.9256}
    .str14 {stroke:#B99D62;stroke-width:75;stroke-linecap:round;stroke-linejoin:round;stroke-miterlimit:22.9256}
    .str10 {stroke:#D35435;stroke-width:75;stroke-linecap:round;stroke-linejoin:round;stroke-miterlimit:22.9256}
    .str7 {stroke:#B99D62;stroke-width:33;stroke-linecap:round;stroke-linejoin:round;stroke-miterlimit:22.9256}
    .fil5 {fill:none}
    .fil4 {fill:none;fill-rule:nonzero}
    .fil2 {fill:black}
    .fil6 {fill:red}
    .fil1 {fill:#FFD500}
    .fil0 {fill:white}
    .fil3 {fill:black;fill-rule:nonzero}
    .fil7 {fill:#FFD500;fill-rule:nonzero}
   ]]>
  </style>
 </defs>
 <g id="Layer_x0020_1">
  <metadata id="CorelCorpID_0Corel-Layer"/>
  <path class="fil0 str0" d="M38149 51l0 40394c-22,2585 -1825,4675 -4010,4771l-8725 0c-2667,1 -4529,750 -6314,3877 -1785,-3127 -3647,-3876 -6314,-3877l-8725 0c-2185,-96 -3988,-2186 -4010,-4771l0 -40394 38098 0 0 0z"/>
  <path class="fil1 str1" d="M12183 35815c517,-6 783,284 797,870 -219,-254 -553,-357 -925,-211 -285,-126 -252,-542 128,-659z"/>
  <path class="fil1 str1" d="M10242 37994c-43,-48 -90,-87 -139,-117 -204,-123 -432,-79 -613,62 -26,558 272,941 887,975 -271,-214 -351,-574 -135,-920z"/>
  <path class="fil1 str1" d="M8461 37607c53,-463 -556,-518 -772,-313 -265,434 -165,878 293,1302 -100,-375 27,-762 479,-989z"/>
  <path class="fil1 str1" d="M7510 36469c71,-254 -37,-633 -354,-612 -512,134 -689,535 -531,1202 151,-494 446,-691 885,-590z"/>
  <path class="fil1 str2" d="M8584 35488c-143,18 -281,8 -423,-9 -197,-24 -495,-88 -718,-21 -191,58 -288,203 -287,399 317,-21 425,358 354,612 289,142 359,-23 551,-209 56,-54 129,-103 244,-130 99,-23 206,-10 300,15 -7,39 -45,207 -203,370 -219,226 -550,246 -676,460 -79,131 -56,271 -37,319 216,-205 825,-150 772,313 380,30 605,-140 647,-395 22,-136 -27,-302 -18,-522 9,-216 105,-343 276,-461 173,189 278,396 276,545 -2,238 -191,411 -294,609 -118,226 -95,428 142,556 181,-141 409,-185 613,-62 49,30 95,69 139,117 355,-286 301,-711 125,-1075 -72,-147 -136,-241 -107,-336 69,-224 489,-250 679,-199 116,31 219,96 355,196 245,179 605,190 761,-106 -285,-126 -252,-542 128,-659 -90,-134 -240,-198 -390,-185 -323,28 -381,402 -642,108 -99,-111 -131,-205 -113,-286 35,-166 287,-301 570,-412 941,-368 1542,-587 2356,-1212 -249,-192 -466,-426 -624,-685 -262,208 -594,312 -936,295 -242,284 -512,554 -803,777 -389,298 -826,527 -1326,645 -699,165 -1022,171 -1691,628z"/>
  <path class="fil2 str3" d="M18218 32790c114,607 408,1443 882,2070 474,-627 768,-1463 882,-2070 209,759 977,942 1637,621 -63,908 -808,1621 -1702,1516 114,640 389,2415 507,2630 149,270 615,378 986,264 770,-236 776,-965 85,-1274 923,-129 1486,287 1689,1246 661,28 768,249 1203,640 832,748 1545,456 1040,-211 732,350 903,798 513,1343 1173,647 942,1473 -693,2478 545,-2253 -1803,-2173 -1537,-471 -106,-260 -396,-736 -645,-885 -222,-133 -481,-174 -740,-259 -1230,-406 -1953,-978 -2657,-2206 -386,2119 362,3403 2063,3655 -452,647 -1043,818 -1773,512 95,273 263,705 193,1044 -56,271 -203,332 -368,495 -350,347 -553,937 -683,1397 -130,-460 -333,-1050 -683,-1397 -165,-163 -312,-224 -368,-495 -69,-340 98,-771 193,-1044 -730,306 -1321,135 -1773,-512 1701,-252 2449,-1536 2063,-3655 -704,1228 -1427,1800 -2657,2206 -259,85 -518,126 -740,259 -249,149 -539,625 -645,885 266,-1702 -2082,-1782 -1537,471 -1635,-1005 -1866,-1831 -693,-2478 -390,-545 -219,-993 513,-1343 -505,667 208,959 1040,211 435,-391 542,-612 1203,-640 203,-959 766,-1375 1689,-1246 -691,309 -685,1038 85,1274 371,114 837,6 986,-264 118,-215 393,-1990 507,-2630 -894,105 -1639,-608 -1702,-1516 660,321 1428,138 1637,-621z"/>
  <path class="fil1 str1" d="M29624 36970c324,-157 613,-34 829,200 -4,-546 -269,-843 -789,-845 -113,27 -210,88 -270,171 -136,189 -45,499 230,474z"/>
  <path class="fil1 str1" d="M29624 36970c-301,299 -1033,311 -1308,5 -206,-228 -71,-622 -193,-1269 -32,-167 -152,-507 -275,-588 -1380,-184 -3019,-446 -3840,-1132 345,-215 648,-508 852,-843 240,190 539,294 851,296 532,225 870,414 1487,639 583,213 1408,549 2101,546 198,-1 356,-50 505,-97 193,-59 468,-146 646,-9 162,125 180,387 183,623l14 1093c3,251 -35,378 -262,527 -110,-283 -351,-434 -721,-436 -113,27 -210,88 -270,171 -136,189 -45,499 230,474z"/>
  <path class="fil1 str1" d="M30599 38090c35,-22 69,-47 103,-76 272,44 455,-92 581,-297l1212 1763c-138,253 -353,401 -639,439l-1257 -1829z"/>
  <path class="fil1 str1" d="M30702 38014c19,-257 -107,-483 -433,-630 -68,321 -381,519 -875,419 357,452 866,578 1308,211z"/>
  <path class="fil1 str4" d="M31147 35591c773,-38 557,435 422,1183 -81,445 -224,1344 -867,1240 19,-257 -107,-483 -433,-630 307,128 655,2 810,-311 54,-110 84,-240 94,-373 16,-204 -8,-418 -14,-601 -5,-159 -14,-306 -13,-449 0,-19 0,-39 1,-59z"/>
  <path class="fil3" d="M29489 36135c-1,-303 132,-497 403,-637 54,-28 81,-39 94,-54 7,-8 10,-17 10,-35l0 -174c-477,188 -636,-19 -1435,-117 265,265 394,674 341,1048 216,-154 412,-164 587,-31z"/>
  <path class="fil4 str4" d="M29489 36135c-1,-303 132,-497 403,-637 54,-28 81,-39 94,-54 7,-8 10,-17 10,-35l0 -174c-477,188 -636,-19 -1435,-117 265,265 394,674 341,1048 290,-207 544,-154 762,159"/>
  <path class="fil1 str1" d="M30169 37332c7,-99 7,-299 -177,-427 -116,-15 -239,3 -368,65 -153,152 -418,230 -678,230 352,411 805,468 1223,132z"/>
  <path class="fil1 str1" d="M30385 36761c227,-149 265,-276 262,-527l-14 -1093c0,-70 -3,-142 -10,-212 320,-83 479,39 517,231 27,135 6,323 6,490 -1,143 8,290 13,449 6,183 30,397 14,601 -10,133 -40,263 -94,373 -172,348 -583,464 -910,259 7,-99 7,-299 -177,-427 174,23 331,124 461,265 -1,-158 -24,-294 -68,-409z"/>
  <path class="fil2" d="M8323 16256c-836,-483 -1394,-1075 -1675,-1776 -852,-1194 -1387,-2393 -1603,-3598 -419,-68 -838,-312 -1252,-731 -411,2190 376,4616 2500,6864 -171,-257 -317,-542 -437,-855 1039,364 1862,396 2467,96z"/>
  <path class="fil2" d="M8390 9012c77,1013 507,2197 1295,3557 -840,-333 -1514,-839 -2006,-1522 -130,1018 333,2201 1391,3549 -152,-24 -302,-53 -449,-88 -2486,-3442 -3155,-7590 -966,-9438 -84,1475 156,2784 735,3942z"/>
  <path class="fil2" d="M8555 7576c667,1306 1338,2620 2005,3926 -319,744 -265,1634 161,2669 -1998,-2823 -2712,-5012 -2166,-6595z"/>
  <path class="fil2" d="M10721 14171c95,231 208,469 340,714 -120,5 -240,20 -360,42 -63,483 21,945 249,1385 -79,18 -158,41 -235,69 -2209,-2111 -3221,-3889 -3036,-5334 492,683 1166,1189 2006,1522 295,509 640,1043 1036,1602z"/>
  <path class="fil2" d="M6649 14480c-1639,-2295 -2105,-4612 -1389,-6946 149,449 597,991 1096,1378 147,1768 953,3780 2265,5596 -801,-192 -1528,-551 -2184,-1076 11,373 81,722 212,1048z"/>
  <path class="fil2" d="M2920 13363c-16,2152 1130,3967 3459,5338 845,103 1549,51 2102,-152 -952,-265 -1681,-776 -2188,-1534 -987,-1045 -1685,-2128 -2109,-3208 -498,28 -932,-127 -1264,-444z"/>
  <path class="fil2" d="M7199 21715c-2916,-516 -4435,-2253 -4556,-5209 524,376 1122,462 1488,318 556,694 1305,1322 2248,1876 -208,-25 -424,-60 -648,-104 488,1246 1468,1884 2941,1914 -377,492 -869,893 -1473,1205z"/>
  <path class="fil2" d="M7199 21715c-300,155 -628,288 -983,398 1452,644 2671,744 3655,299 -23,533 -156,1027 -399,1476 -3954,928 -6325,-255 -7106,-3547 651,272 1247,264 1788,-23 742,704 1757,1169 3045,1397z"/>
  <path class="fil2" d="M10454 24343c-3430,2233 -5798,2223 -7105,-29 696,74 1351,-112 1650,-494 1151,475 2642,498 4473,68 -111,207 -246,405 -405,593 506,2 968,-44 1387,-138z"/>
  <path class="fil2" d="M10454 24343c866,-194 1547,-594 2043,-1200 62,304 86,612 72,924 -2298,2923 -4716,3873 -7254,2850 517,-167 837,-471 960,-910 1152,-45 2545,-600 4179,-1664z"/>
  <path class="fil2" d="M9419 26803c1074,-519 2124,-1431 3150,-2736 -22,502 -141,1014 -359,1535 654,-108 1181,-332 1582,-671 -484,2083 -1994,3177 -4531,3274 314,-496 367,-963 158,-1402z"/>
  <path class="fil2" d="M11061 14885c-877,-1630 -937,-2940 -180,-3931 106,947 484,1870 1136,2769 -173,483 -164,921 27,1315 -324,-117 -652,-168 -983,-153z"/>
  <path class="fil2" d="M10715 16381c-298,107 -584,288 -858,543 -2234,-734 -3374,-1898 -3420,-3492 776,622 1652,1010 2633,1164 444,566 992,1161 1645,1785z"/>
  <path class="fil2" d="M8323 16256c436,253 947,475 1534,668 -23,21 -47,44 -70,66 221,662 466,1049 734,1163 -138,205 -262,408 -373,610 -2201,-16 -3632,-884 -4292,-2603 1039,364 1862,396 2467,96z"/>
  <path class="fil2" d="M8481 18549c-689,253 -1612,271 -2750,47 738,1884 2601,2378 5591,1482 4,-55 9,-111 16,-167 -560,73 -1077,-47 -1550,-359 95,-261 215,-524 360,-789 -616,-5 -1172,-76 -1667,-214z"/>
  <path class="fil2" d="M8672 20510c754,15 1638,-128 2650,-431 -27,338 -12,666 45,981 -1126,1726 -2843,2077 -5151,1053 1072,-333 1891,-868 2456,-1603z"/>
  <path class="fil2" d="M9871 22412c580,-261 1078,-712 1496,-1352 18,103 41,205 68,305 799,-12 1302,-201 1509,-567 79,344 177,635 294,872 -538,1884 -1928,2821 -4171,2811 503,-597 771,-1291 804,-2069z"/>
  <path class="fil2" d="M14620 21158c451,2622 -352,4103 -2410,4444 352,-845 448,-1664 287,-2459 328,-401 575,-892 741,-1473 100,202 214,365 342,489 447,-145 794,-479 1040,-1001z"/>
  <path class="fil2" d="M15159 24813c-263,1984 -1090,3068 -2478,3226 221,-345 215,-692 -14,-1033 550,-522 925,-1214 1125,-2075 350,-295 603,-679 760,-1151 279,342 474,690 607,1033z"/>
  <path class="fil2" d="M15187 22736c472,-429 725,-1076 762,-1938 151,589 363,968 636,1135 380,-257 639,-908 776,-1952 -57,-210 -141,-516 -192,-751 -164,115 -378,143 -603,70 -102,63 -188,72 -269,47 -344,-105 -728,-521 -1225,-341 -418,152 -419,603 -797,828 -274,163 -536,143 -694,8 -168,-143 -530,-481 -863,-803 -228,-220 -441,-437 -554,-633 -388,-675 802,-894 1216,-1118 481,-260 698,-856 433,-1349 -100,-187 -269,-329 -476,-528 -254,-245 -1067,-1321 -1320,-1688 -173,483 -164,921 27,1315 -324,-117 -652,-168 -983,-153 -120,5 -239,20 -360,42 -63,483 21,945 249,1385 -79,18 -158,41 -235,69 -298,107 -584,288 -858,543 -23,22 -47,44 -70,66 221,662 466,1049 734,1163 -138,205 -262,408 -372,610 -145,265 -266,528 -361,789 473,312 990,432 1550,360 -6,56 -12,111 -16,167 -27,339 -12,666 45,981 18,103 41,205 68,305 799,-12 1302,-201 1509,-567 79,344 177,635 294,872 100,202 214,365 342,489 447,-145 794,-479 1040,-1001 96,576 153,1117 567,1578z"/>
  <path class="fil2" d="M17507 24232c9,731 -206,1391 -645,1979 68,213 110,406 126,580 140,602 390,1022 735,1235 375,-388 595,-996 660,-1825 -416,-412 -708,-1068 -876,-1969z"/>
  <path class="fil2" d="M16585 21933c-76,1002 -303,1727 -678,2174 20,246 51,473 95,681 148,700 435,1175 860,1423 440,-588 654,-1248 645,-1980 -424,-448 -731,-1214 -922,-2298z"/>
  <path class="fil2" d="M17507 24231c-424,-448 -731,-1214 -922,-2298 380,-257 639,-908 776,-1952 255,1058 570,1751 944,2079 -48,879 -314,1602 -798,2171z"/>
  <path class="fil2" d="M15187 22736c471,-429 725,-1075 762,-1938 151,589 363,968 636,1135 -76,1002 -303,1727 -678,2174 -368,-219 -608,-676 -720,-1371z"/>
  <path class="fil2" d="M17507 24231c484,-569 750,-1292 798,-2171 89,877 349,1716 795,2171 -107,1115 -342,1656 -717,1970 -416,-412 -709,-1069 -876,-1970z"/>
  <path class="fil2" d="M15339 25436c269,-183 490,-399 663,-648 -44,-208 -75,-435 -95,-681 -368,-219 -608,-676 -720,-1371 -414,-461 -471,-1002 -568,-1578 183,1060 160,1934 -67,2622 452,553 682,1123 787,1656z"/>
  <path class="fil2" d="M16101 27817c0,0 42,33 125,97 728,-175 940,-743 636,-1703 -425,-248 -712,-723 -860,-1423 -173,249 -394,465 -663,648 -40,-203 -98,-412 -180,-623 -129,977 -396,1736 -799,2274 607,524 910,786 910,786 -586,-1234 1049,-1525 1204,-649 37,209 -56,439 -373,593z"/>
  <path class="fil2" d="M17504 27850c-233,-235 -407,-592 -516,-1059 59,612 -196,986 -762,1123 536,447 637,1026 453,1367 63,54 132,101 207,139 347,-463 555,-992 618,-1570z"/>
  <path class="fil2" d="M17667 30905c-411,-325 -697,-875 -781,-1485 347,-463 555,-992 618,-1570 68,69 141,128 219,176 121,588 351,1061 691,1421 -110,570 -372,1062 -747,1458z"/>
  <path class="fil2" d="M19100 28026c-373,-357 -599,-952 -717,-1824 -65,828 -285,1436 -660,1824 121,588 351,1061 691,1421 265,-244 481,-730 686,-1421z"/>
  <path class="fil2" d="M18704 32525c242,-400 338,-941 396,-1620 -316,-235 -518,-722 -686,-1458 -110,570 -372,1062 -747,1458 206,441 713,1392 1037,1620z"/>
  <path class="fil2" d="M17169 19230c130,-91 229,-236 279,-429 122,554 402,756 880,971 258,-108 578,-318 772,-542 -47,1279 -269,2124 -795,2830 -374,-328 -689,-1021 -944,-2079 -57,-210 -141,-516 -192,-751z"/>
  <path class="fil2" d="M19100 19230c47,1279 269,2124 795,2830 -89,877 -349,1716 -795,2171 -446,-455 -706,-1294 -795,-2171 526,-706 748,-1551 795,-2830z"/>
  <path class="fil2" d="M13866 32165c-53,428 -251,760 -526,978 475,781 1495,1339 2312,1189 -371,-352 -453,-960 -255,-1376 -434,-256 -701,-846 -631,-1726 -96,431 -396,792 -900,935z"/>
  <path class="fil2" d="M13866 32165c-142,1155 -1345,1615 -2256,1003 937,-180 1123,-1726 364,-2159 553,244 1119,-42 1698,-859 -327,806 -386,1499 -180,2077 135,-8 260,-30 374,-62z"/>
  <path class="fil2" d="M17412 31288c91,31 182,74 270,132 497,325 666,896 536,1370 114,607 408,1443 882,2070 474,-627 768,-1463 882,-2070 -130,-474 39,-1045 536,-1370 88,-58 179,-101 270,-132 943,-319 1952,739 1192,1784 871,180 1562,-488 1454,-1842 118,529 543,951 1274,997 207,-578 147,-1271 -180,-2077 649,915 1281,1164 1896,748 -681,-111 -588,-752 -796,-1313 -250,-675 -705,-1342 -1457,-1122 -642,188 -894,1109 -1663,1272 -424,90 -777,-117 -986,-454 -64,54 -133,101 -208,139 -84,610 -370,1160 -781,1485 -206,441 -713,1392 -1037,1620 -242,-400 -338,-941 -396,-1620 -58,679 -154,1220 -396,1620 -324,-228 -831,-1179 -1037,-1620 -411,-325 -697,-875 -781,-1485 -75,-38 -144,-85 -208,-139 -209,337 -562,544 -986,454 -769,-163 -1021,-1084 -1663,-1272 -752,-220 -1206,447 -1457,1122 -208,561 -115,1202 -796,1313 615,416 1247,167 1896,-748 -327,806 -386,1499 -180,2077 731,-46 1156,-468 1274,-997 -108,1354 583,2022 1454,1842 -760,-1045 249,-2103 1192,-1784z"/>
  <path class="fil2" d="M24334 32165c53,428 251,760 526,978 -475,781 -1495,1339 -2312,1189 371,-352 453,-960 255,-1376 434,-256 701,-846 631,-1726 96,431 396,792 900,935z"/>
  <path class="fil2" d="M24334 32165c142,1155 1345,1615 2256,1003 -937,-180 -1123,-1726 -364,-2159 -553,244 -1119,-42 -1698,-859 327,806 386,1499 180,2077 -135,-8 -260,-30 -374,-62z"/>
  <path class="fil2" d="M29877 16256c836,-483 1394,-1075 1675,-1776 852,-1194 1387,-2393 1603,-3598 419,-68 838,-312 1252,-731 411,2190 -376,4616 -2500,6864 171,-257 317,-542 437,-855 -1039,364 -1862,396 -2467,96z"/>
  <path class="fil2" d="M29810 9012c-77,1013 -507,2197 -1295,3557 840,-333 1514,-839 2006,-1522 130,1018 -333,2201 -1391,3549 152,-24 302,-53 449,-88 2486,-3442 3155,-7590 966,-9438 84,1475 -156,2784 -735,3942z"/>
  <path class="fil2" d="M29645 7576c-667,1306 -1338,2620 -2005,3926 319,744 265,1634 -161,2669 1998,-2823 2712,-5012 2166,-6595z"/>
  <path class="fil2" d="M27479 14171c-95,231 -208,469 -340,714 120,5 240,20 360,42 63,483 -21,945 -249,1385 79,18 158,41 235,69 2209,-2111 3221,-3889 3036,-5334 -492,683 -1166,1189 -2006,1522 -295,509 -640,1043 -1036,1602z"/>
  <path class="fil2" d="M31551 14480c1639,-2295 2105,-4612 1389,-6946 -149,449 -597,991 -1096,1378 -147,1768 -953,3780 -2265,5596 801,-192 1528,-551 2184,-1076 -11,373 -81,722 -212,1048z"/>
  <path class="fil2" d="M35280 13363c16,2152 -1130,3967 -3459,5338 -845,103 -1549,51 -2102,-152 952,-265 1681,-776 2188,-1534 987,-1045 1685,-2128 2109,-3208 498,28 932,-127 1264,-444z"/>
  <path class="fil2" d="M31001 21715c2916,-516 4435,-2253 4556,-5209 -524,376 -1122,462 -1488,318 -556,694 -1305,1322 -2248,1876 208,-25 424,-60 648,-104 -488,1246 -1468,1884 -2941,1914 377,492 869,893 1473,1205z"/>
  <path class="fil2" d="M31001 21715c300,155 628,288 983,398 -1452,644 -2671,744 -3655,299 23,533 156,1027 399,1476 3954,928 6325,-255 7106,-3547 -651,272 -1247,264 -1788,-23 -742,704 -1757,1169 -3045,1397z"/>
  <path class="fil2" d="M27746 24343c3430,2233 5798,2223 7105,-29 -696,74 -1351,-112 -1650,-494 -1151,475 -2642,498 -4473,68 111,207 246,405 405,593 -506,2 -968,-44 -1387,-138z"/>
  <path class="fil2" d="M27746 24343c-866,-194 -1547,-594 -2043,-1200 -62,304 -86,612 -72,924 2298,2923 4716,3873 7254,2850 -517,-167 -837,-471 -960,-910 -1152,-45 -2545,-600 -4179,-1664z"/>
  <path class="fil2" d="M28781 26803c-1074,-519 -2124,-1431 -3150,-2736 22,502 141,1014 359,1535 -654,-108 -1181,-332 -1582,-671 484,2083 1994,3177 4531,3274 -314,-496 -367,-963 -158,-1402z"/>
  <path class="fil2" d="M27139 14885c877,-1630 937,-2940 180,-3931 -106,947 -484,1870 -1136,2769 173,483 164,921 -27,1315 324,-117 652,-168 983,-153z"/>
  <path class="fil2" d="M27485 16381c298,107 584,288 858,543 2234,-734 3374,-1898 3420,-3492 -776,622 -1652,1010 -2633,1164 -444,566 -992,1161 -1645,1785z"/>
  <path class="fil2" d="M29877 16256c-436,253 -947,475 -1534,668 23,21 47,44 70,66 -221,662 -466,1049 -734,1163 138,205 262,408 373,610 2201,-16 3632,-884 4292,-2603 -1039,364 -1862,396 -2467,96z"/>
  <path class="fil2" d="M29719 18549c689,253 1612,271 2750,47 -738,1884 -2601,2378 -5591,1482 -4,-55 -9,-111 -16,-167 560,73 1077,-47 1550,-359 -95,-261 -215,-524 -360,-789 616,-5 1172,-76 1667,-214z"/>
  <path class="fil2" d="M29528 20510c-754,15 -1638,-128 -2650,-431 27,338 12,666 -45,981 1126,1726 2843,2077 5151,1053 -1072,-333 -1891,-868 -2456,-1603z"/>
  <path class="fil2" d="M28329 22412c-580,-261 -1078,-712 -1496,-1352 -18,103 -41,205 -68,305 -799,-12 -1302,-201 -1509,-567 -79,344 -177,635 -294,872 538,1884 1928,2821 4171,2811 -503,-597 -771,-1291 -804,-2069z"/>
  <path class="fil2" d="M23580 21158c-451,2622 352,4103 2410,4444 -352,-845 -448,-1664 -287,-2459 -328,-401 -575,-892 -741,-1473 -100,202 -214,365 -342,489 -447,-145 -794,-479 -1040,-1001z"/>
  <path class="fil2" d="M23041 24813c263,1984 1090,3068 2478,3226 -221,-345 -215,-692 14,-1033 -550,-522 -925,-1214 -1125,-2075 -350,-295 -603,-679 -760,-1151 -279,342 -474,690 -607,1033z"/>
  <path class="fil2" d="M23013 22736c-472,-429 -725,-1076 -762,-1938 -151,589 -363,968 -636,1135 -380,-257 -639,-908 -776,-1952 57,-210 141,-516 192,-751 164,115 378,143 603,70 102,63 188,72 269,47 344,-105 728,-521 1225,-341 418,152 419,603 797,828 274,163 536,143 694,8 168,-143 530,-481 863,-803 228,-220 441,-437 554,-633 388,-675 -802,-894 -1216,-1118 -481,-260 -698,-856 -433,-1349 100,-187 269,-329 476,-528 254,-245 1067,-1321 1320,-1688 173,483 164,921 -27,1315 324,-117 652,-168 983,-153 120,5 239,20 360,42 63,483 -21,945 -249,1385 79,18 158,41 235,69 298,107 584,288 858,543 23,22 47,44 70,66 -221,662 -466,1049 -734,1163 138,205 262,408 372,610 145,265 266,528 361,789 -473,312 -990,432 -1550,360 6,56 12,111 16,167 27,339 12,666 -45,981 -18,103 -41,205 -68,305 -799,-12 -1302,-201 -1509,-567 -79,344 -177,635 -294,872 -100,202 -214,365 -342,489 -447,-145 -794,-479 -1040,-1001 -96,576 -153,1117 -567,1578z"/>
  <path class="fil2" d="M20693 24232c-9,731 206,1391 645,1979 -68,213 -110,406 -126,580 -140,602 -390,1022 -735,1235 -375,-388 -595,-996 -660,-1825 416,-412 708,-1068 876,-1969z"/>
  <path class="fil2" d="M21615 21933c76,1002 303,1727 678,2174 -20,246 -51,473 -95,681 -148,700 -435,1175 -860,1423 -440,-588 -654,-1248 -645,-1980 424,-448 731,-1214 922,-2298z"/>
  <path class="fil2" d="M20693 24231c424,-448 731,-1214 922,-2298 -380,-257 -639,-908 -776,-1952 -255,1058 -570,1751 -944,2079 48,879 314,1602 798,2171z"/>
  <path class="fil2" d="M23013 22736c-471,-429 -725,-1075 -762,-1938 -151,589 -363,968 -636,1135 76,1002 303,1727 678,2174 368,-219 608,-676 720,-1371z"/>
  <path class="fil2" d="M20693 24231c-484,-569 -750,-1292 -798,-2171 -89,877 -349,1716 -795,2171 107,1115 342,1656 717,1970 416,-412 709,-1069 876,-1970z"/>
  <path class="fil2" d="M22861 25436c-269,-183 -490,-399 -663,-648 44,-208 75,-435 95,-681 368,-219 608,-676 720,-1371 414,-461 471,-1002 568,-1578 -183,1060 -160,1934 67,2622 -452,553 -682,1123 -787,1656z"/>
  <path class="fil2" d="M22099 27817c0,0 -42,33 -125,97 -728,-175 -940,-743 -636,-1703 425,-248 712,-723 860,-1423 173,249 394,465 663,648 40,-203 98,-412 180,-623 129,977 396,1736 799,2274 -607,524 -910,786 -910,786 586,-1234 -1049,-1525 -1204,-649 -37,209 56,439 373,593z"/>
  <path class="fil2" d="M20696 27850c233,-235 407,-592 516,-1059 -59,612 196,986 762,1123 -536,447 -637,1026 -453,1367 -63,54 -132,101 -207,139 -347,-463 -555,-992 -618,-1570z"/>
  <path class="fil2" d="M20533 30905c411,-325 697,-875 781,-1485 -347,-463 -555,-992 -618,-1570 -68,69 -141,128 -219,176 -121,588 -351,1061 -691,1421 110,570 372,1062 747,1458z"/>
  <path class="fil2" d="M19100 28026c373,-357 599,-952 717,-1824 65,828 285,1436 660,1824 -121,588 -351,1061 -691,1421 -265,-244 -481,-730 -686,-1421z"/>
  <path class="fil2" d="M19496 32525c-242,-400 -338,-941 -396,-1620 316,-235 518,-722 686,-1458 110,570 372,1062 747,1458 -206,441 -713,1392 -1037,1620z"/>
  <path class="fil2" d="M21031 19230c-130,-91 -229,-236 -279,-429 -122,554 -402,756 -880,971 -258,-108 -578,-318 -772,-542 47,1279 269,2124 795,2830 374,-328 689,-1021 944,-2079 57,-210 141,-516 192,-751z"/>
  <path class="fil2" d="M18383 26201c118,873 344,1468 717,1825 373,-357 599,-952 717,-1825 -375,-314 -610,-855 -717,-1970 -107,1115 -342,1656 -717,1970z"/>
  <path class="fil2" d="M18414 29447c265,-244 481,-730 686,-1421 205,691 421,1177 686,1421 -168,736 -370,1223 -686,1458 -316,-235 -518,-722 -686,-1458z"/>
  <path class="fil5 str5" d="M15350 39881c431,-148 1284,-545 1464,-1037 1267,-499 2025,-1688 2286,-3571m-1017 2650c-125,149 -264,280 -415,390 -639,467 -1687,526 -2015,-361m-2932 2069c1048,-1446 2769,-651 4093,-1177m1511 2812c501,-299 759,-751 775,-1354m0 -5442l0 7551m3750 -2530c-431,-148 -1284,-545 -1464,-1037 -1267,-499 -2025,-1688 -2286,-3571m1017 2650c125,149 264,280 415,390 639,467 1687,526 2015,-361m2932 2069c-1048,-1446 -2769,-651 -4093,-1177m-1511 2812c-501,-299 -759,-751 -775,-1354"/>
  <path class="fil5 str5" d="M19100 28026l0 1440m-8744 -17016c-430,-608 -865,-1361 -1159,-2335m9108 11945l-2 2071m25 -4359l-12 1144m784 -1686l0 2501m-2931 -307l-283 1028m1475 -2471l84 2125m-860 -173l122 2140m2393 6832l0 1978m-686 -3436l-30 1539m-776 -3041l42 1433m1450 -5147l0 1898m-1593 -1898l116 1898m760 72l29 1623m-4478 -5832c13,661 -138,1147 -451,1457m-1215 -2188c-151,692 -543,1228 -1084,1517m129 -2207c-570,479 -1250,776 -2041,891m516 -1910c-453,85 -871,79 -1253,-21m1619 -1726c-439,81 -1316,-78 -1757,-403m903 -4038c334,733 898,1463 1382,1952m-1986 111c365,536 1034,936 1562,1182m4445 7368c65,911 -328,2372 -1189,3070m-1025 -1500c-250,654 -833,1137 -1452,1361m1505 -3490c-1304,1675 -3150,2805 -4701,2990m1226 -1927c-1240,596 -2384,740 -3430,433m4130 -1782c-2186,569 -4344,32 -5191,-1063m38 -9724c350,1395 1310,3163 2528,4106m231 -7489c76,1034 455,2130 1118,2930m8386 7445c-179,282 -256,615 -220,946m-8334 -4027c-836,-483 -1394,-1075 -1675,-1776 -852,-1194 -1387,-2393 -1603,-3598 -419,-68 -838,-312 -1252,-731 -411,2190 376,4616 2500,6864 -171,-257 -317,-542 -437,-855 1039,364 1862,396 2467,96zm67 -7244c77,1013 507,2197 1295,3557 -840,-333 -1514,-839 -2006,-1522 -130,1018 333,2201 1391,3549 -152,-24 -302,-53 -449,-88 -2486,-3442 -3155,-7590 -966,-9438 -84,1475 156,2784 735,3942zm165 -1436c667,1306 1338,2620 2005,3926 -319,744 -265,1634 161,2669 -1998,-2823 -2712,-5012 -2166,-6595zm2166 6595c95,231 208,469 340,714 -120,5 -240,20 -360,42 -63,483 21,945 249,1385 -79,18 -158,41 -235,69 -2209,-2111 -3221,-3889 -3036,-5334 492,683 1166,1189 2006,1522 295,509 640,1043 1036,1602zm-4072 309c-1639,-2295 -2105,-4612 -1389,-6946 149,449 597,991 1096,1378 147,1768 953,3780 2265,5596 -801,-192 -1528,-551 -2184,-1076 11,373 81,722 212,1048zm-3729 -1117c-16,2152 1130,3967 3459,5338 845,103 1549,51 2102,-152 -952,-265 -1681,-776 -2188,-1534 -987,-1045 -1685,-2128 -2109,-3208 -498,28 -932,-127 -1264,-444zm4279 8352c-2916,-516 -4435,-2253 -4556,-5209 524,376 1122,462 1488,318 556,694 1305,1322 2248,1876 -208,-25 -424,-60 -648,-104 488,1246 1468,1884 2941,1914 -377,492 -869,893 -1473,1205zm0 0c-300,155 -628,288 -983,398 1452,644 2671,744 3655,299 -23,533 -156,1027 -399,1476 -3954,928 -6325,-255 -7106,-3547 651,272 1247,264 1788,-23 742,704 1757,1169 3045,1397zm3255 2628c-3430,2233 -5798,2223 -7105,-29 696,74 1351,-112 1650,-494 1151,475 2642,498 4473,68 -111,207 -246,405 -405,593 506,2 968,-44 1387,-138zm0 0c866,-194 1547,-594 2043,-1200 62,304 86,612 72,924 -2298,2923 -4716,3873 -7254,2850 517,-167 837,-471 960,-910 1152,-45 2545,-600 4179,-1664zm-1035 2460c1074,-519 2124,-1431 3150,-2736 -22,502 -141,1014 -359,1535 654,-108 1181,-332 1582,-671 -484,2083 -1994,3177 -4531,3274 314,-496 367,-963 158,-1402zm1642 -11918c-877,-1630 -937,-2940 -180,-3931 106,947 484,1870 1136,2769 -173,483 -164,921 27,1315 -324,-117 -652,-168 -983,-153zm-346 1496c-298,107 -584,288 -858,543 -2234,-734 -3374,-1898 -3420,-3492 776,622 1652,1010 2633,1164 444,566 992,1161 1645,1785zm-2392 -125c436,253 947,475 1534,668 -23,21 -47,44 -70,66 221,662 466,1049 734,1163 -138,205 -262,408 -373,610 -2201,-16 -3632,-884 -4292,-2603 1039,364 1862,396 2467,96zm158 2293c-689,253 -1612,271 -2750,47 738,1884 2601,2378 5591,1482 4,-55 9,-111 16,-167 -560,73 -1077,-47 -1550,-359 95,-261 215,-524 360,-789 -616,-5 -1172,-76 -1667,-214zm191 1961c754,15 1638,-128 2650,-431 -27,338 -12,666 45,981 -1126,1726 -2843,2077 -5151,1053 1072,-333 1891,-868 2456,-1603zm1199 1902c580,-261 1078,-712 1496,-1352 18,103 41,205 68,305 799,-12 1302,-201 1509,-567 79,344 177,635 294,872 -538,1884 -1928,2821 -4171,2811 503,-597 771,-1291 804,-2069zm4749 -1254c451,2622 -352,4103 -2410,4444 352,-845 448,-1664 287,-2459 328,-401 575,-892 741,-1473 100,202 214,365 342,489 447,-145 794,-479 1040,-1001zm539 3655c-263,1984 -1090,3068 -2478,3226 221,-345 215,-692 -14,-1033 550,-522 925,-1214 1125,-2075 350,-295 603,-679 760,-1151 279,342 474,690 607,1033zm28 -2077c472,-429 725,-1076 762,-1938 151,589 363,968 636,1135 380,-257 639,-908 776,-1952 -57,-210 -141,-516 -192,-751 -164,115 -378,143 -603,70 -102,63 -188,72 -269,47 -344,-105 -728,-521 -1225,-341 -418,152 -419,603 -797,828 -274,163 -536,143 -694,8 -168,-143 -530,-481 -863,-803 -228,-220 -441,-437 -554,-633 -388,-675 802,-894 1216,-1118 481,-260 698,-856 433,-1349 -100,-187 -269,-329 -476,-528 -254,-245 -1067,-1321 -1320,-1688 -173,483 -164,921 27,1315 -324,-117 -652,-168 -983,-153 -120,5 -239,20 -360,42 -63,483 21,945 249,1385 -79,18 -158,41 -235,69 -298,107 -584,288 -858,543 -23,22 -47,44 -70,66 221,662 466,1049 734,1163 -138,205 -262,408 -372,610 -145,265 -266,528 -361,789 473,312 990,432 1550,360 -6,56 -12,111 -16,167 -27,339 -12,666 45,981 18,103 41,205 68,305 799,-12 1302,-201 1509,-567 79,344 177,635 294,872 100,202 214,365 342,489 447,-145 794,-479 1040,-1001 96,576 153,1117 567,1578zm2320 1496c9,731 -206,1391 -645,1979 68,213 110,406 126,580 140,602 390,1022 735,1235 375,-388 595,-996 660,-1825 -416,-412 -708,-1068 -876,-1969zm-922 -2299c-76,1002 -303,1727 -678,2174 20,246 51,473 95,681 148,700 435,1175 860,1423 440,-588 654,-1248 645,-1980 -424,-448 -731,-1214 -922,-2298zm922 2298c-424,-448 -731,-1214 -922,-2298 380,-257 639,-908 776,-1952 255,1058 570,1751 944,2079 -48,879 -314,1602 -798,2171zm-2320 -1495c471,-429 725,-1075 762,-1938 151,589 363,968 636,1135 -76,1002 -303,1727 -678,2174 -368,-219 -608,-676 -720,-1371zm2320 1495c484,-569 750,-1292 798,-2171 89,877 349,1716 795,2171 -107,1115 -342,1656 -717,1970 -416,-412 -709,-1069 -876,-1970zm-2168 1205c269,-183 490,-399 663,-648 -44,-208 -75,-435 -95,-681 -368,-219 -608,-676 -720,-1371 -414,-461 -471,-1002 -568,-1578 183,1060 160,1934 -67,2622 452,553 682,1123 787,1656zm762 2381c0,0 42,33 125,97 728,-175 940,-743 636,-1703 -425,-248 -712,-723 -860,-1423 -173,249 -394,465 -663,648 -40,-203 -98,-412 -180,-623 -129,977 -396,1736 -799,2274 607,524 910,786 910,786 -586,-1234 1049,-1525 1204,-649 37,209 -56,439 -373,593zm1403 33c-233,-235 -407,-592 -516,-1059 59,612 -196,986 -762,1123 536,447 637,1026 453,1367 63,54 132,101 207,139 347,-463 555,-992 618,-1570zm163 3055c-411,-325 -697,-875 -781,-1485 347,-463 555,-992 618,-1570 68,69 141,128 219,176 121,588 351,1061 691,1421 -110,570 -372,1062 -747,1458zm1433 -2879c-373,-357 -599,-952 -717,-1824 -65,828 -285,1436 -660,1824 121,588 351,1061 691,1421 265,-244 481,-730 686,-1421zm-396 4499c242,-400 338,-941 396,-1620 -316,-235 -518,-722 -686,-1458 -110,570 -372,1062 -747,1458 206,441 713,1392 1037,1620zm-1535 -13295c130,-91 229,-236 279,-429 122,554 402,756 880,971 258,-108 578,-318 772,-542 -47,1279 -269,2124 -795,2830 -374,-328 -689,-1021 -944,-2079 -57,-210 -141,-516 -192,-751zm1931 0c47,1279 269,2124 795,2830 -89,877 -349,1716 -795,2171 -446,-455 -706,-1294 -795,-2171 526,-706 748,-1551 795,-2830zm-5234 12935c-53,428 -251,760 -526,978 475,781 1495,1339 2312,1189 -371,-352 -453,-960 -255,-1376 -434,-256 -701,-846 -631,-1726 -96,431 -396,792 -900,935zm0 0c-142,1155 -1345,1615 -2256,1003 937,-180 1123,-1726 364,-2159 553,244 1119,-42 1698,-859 -327,806 -386,1499 -180,2077 135,-8 260,-30 374,-62zm3546 -877c91,31 182,74 270,132 497,325 666,896 536,1370 114,607 408,1443 882,2070 474,-627 768,-1463 882,-2070 -130,-474 39,-1045 536,-1370 88,-58 179,-101 270,-132 943,-319 1952,739 1192,1784 871,180 1562,-488 1454,-1842 118,529 543,951 1274,997 207,-578 147,-1271 -180,-2077 649,915 1281,1164 1896,748 -681,-111 -588,-752 -796,-1313 -250,-675 -705,-1342 -1457,-1122 -642,188 -894,1109 -1663,1272 -424,90 -777,-117 -986,-454 -64,54 -133,101 -208,139 -84,610 -370,1160 -781,1485 -206,441 -713,1392 -1037,1620 -242,-400 -338,-941 -396,-1620 -58,679 -154,1220 -396,1620 -324,-228 -831,-1179 -1037,-1620 -411,-325 -697,-875 -781,-1485 -75,-38 -144,-85 -208,-139 -209,337 -562,544 -986,454 -769,-163 -1021,-1084 -1663,-1272 -752,-220 -1206,447 -1457,1122 -208,561 -115,1202 -796,1313 615,416 1247,167 1896,-748 -327,806 -386,1499 -180,2077 731,-46 1156,-468 1274,-997 -108,1354 583,2022 1454,1842 -760,-1045 249,-2103 1192,-1784zm6922 877c53,428 251,760 526,978 -475,781 -1495,1339 -2312,1189 371,-352 453,-960 255,-1376 434,-256 701,-846 631,-1726 96,431 396,792 900,935zm0 0c142,1155 1345,1615 2256,1003 -937,-180 -1123,-1726 -364,-2159 -553,244 -1119,-42 -1698,-859 327,806 386,1499 180,2077 -135,-8 -260,-30 -374,-62zm5543 -15909c836,-483 1394,-1075 1675,-1776 852,-1194 1387,-2393 1603,-3598 419,-68 838,-312 1252,-731 411,2190 -376,4616 -2500,6864 171,-257 317,-542 437,-855 -1039,364 -1862,396 -2467,96zm-67 -7244c-77,1013 -507,2197 -1295,3557 840,-333 1514,-839 2006,-1522 130,1018 -333,2201 -1391,3549 152,-24 302,-53 449,-88 2486,-3442 3155,-7590 966,-9438 84,1475 -156,2784 -735,3942zm-165 -1436c-667,1306 -1338,2620 -2005,3926 319,744 265,1634 -161,2669 1998,-2823 2712,-5012 2166,-6595zm-2166 6595c-95,231 -208,469 -340,714 120,5 240,20 360,42 63,483 -21,945 -249,1385 79,18 158,41 235,69 2209,-2111 3221,-3889 3036,-5334 -492,683 -1166,1189 -2006,1522 -295,509 -640,1043 -1036,1602zm4072 309c1639,-2295 2105,-4612 1389,-6946 -149,449 -597,991 -1096,1378 -147,1768 -953,3780 -2265,5596 801,-192 1528,-551 2184,-1076 -11,373 -81,722 -212,1048zm3729 -1117c16,2152 -1130,3967 -3459,5338 -845,103 -1549,51 -2102,-152 952,-265 1681,-776 2188,-1534 987,-1045 1685,-2128 2109,-3208 498,28 932,-127 1264,-444zm-4279 8352c2916,-516 4435,-2253 4556,-5209 -524,376 -1122,462 -1488,318 -556,694 -1305,1322 -2248,1876 208,-25 424,-60 648,-104 -488,1246 -1468,1884 -2941,1914 377,492 869,893 1473,1205zm0 0c300,155 628,288 983,398 -1452,644 -2671,744 -3655,299 23,533 156,1027 399,1476 3954,928 6325,-255 7106,-3547 -651,272 -1247,264 -1788,-23 -742,704 -1757,1169 -3045,1397zm-3255 2628c3430,2233 5798,2223 7105,-29 -696,74 -1351,-112 -1650,-494 -1151,475 -2642,498 -4473,68 111,207 246,405 405,593 -506,2 -968,-44 -1387,-138zm0 0c-866,-194 -1547,-594 -2043,-1200 -62,304 -86,612 -72,924 2298,2923 4716,3873 7254,2850 -517,-167 -837,-471 -960,-910 -1152,-45 -2545,-600 -4179,-1664zm1035 2460c-1074,-519 -2124,-1431 -3150,-2736 22,502 141,1014 359,1535 -654,-108 -1181,-332 -1582,-671 484,2083 1994,3177 4531,3274 -314,-496 -367,-963 -158,-1402zm-1642 -11918c877,-1630 937,-2940 180,-3931 -106,947 -484,1870 -1136,2769 173,483 164,921 -27,1315 324,-117 652,-168 983,-153zm346 1496c298,107 584,288 858,543 2234,-734 3374,-1898 3420,-3492 -776,622 -1652,1010 -2633,1164 -444,566 -992,1161 -1645,1785zm2392 -125c-436,253 -947,475 -1534,668 23,21 47,44 70,66 -221,662 -466,1049 -734,1163 138,205 262,408 373,610 2201,-16 3632,-884 4292,-2603 -1039,364 -1862,396 -2467,96zm-158 2293c689,253 1612,271 2750,47 -738,1884 -2601,2378 -5591,1482 -4,-55 -9,-111 -16,-167 560,73 1077,-47 1550,-359 -95,-261 -215,-524 -360,-789 616,-5 1172,-76 1667,-214zm-191 1961c-754,15 -1638,-128 -2650,-431 27,338 12,666 -45,981 1126,1726 2843,2077 5151,1053 -1072,-333 -1891,-868 -2456,-1603zm-1199 1902c-580,-261 -1078,-712 -1496,-1352 -18,103 -41,205 -68,305 -799,-12 -1302,-201 -1509,-567 -79,344 -177,635 -294,872 538,1884 1928,2821 4171,2811 -503,-597 -771,-1291 -804,-2069zm-4749 -1254c-451,2622 352,4103 2410,4444 -352,-845 -448,-1664 -287,-2459 -328,-401 -575,-892 -741,-1473 -100,202 -214,365 -342,489 -447,-145 -794,-479 -1040,-1001zm-539 3655c263,1984 1090,3068 2478,3226 -221,-345 -215,-692 14,-1033 -550,-522 -925,-1214 -1125,-2075 -350,-295 -603,-679 -760,-1151 -279,342 -474,690 -607,1033zm-28 -2077c-472,-429 -725,-1076 -762,-1938 -151,589 -363,968 -636,1135 -380,-257 -639,-908 -776,-1952 57,-210 141,-516 192,-751 164,115 378,143 603,70 102,63 188,72 269,47 344,-105 728,-521 1225,-341 418,152 419,603 797,828 274,163 536,143 694,8 168,-143 530,-481 863,-803 228,-220 441,-437 554,-633 388,-675 -802,-894 -1216,-1118 -481,-260 -698,-856 -433,-1349 100,-187 269,-329 476,-528 254,-245 1067,-1321 1320,-1688 173,483 164,921 -27,1315 324,-117 652,-168 983,-153 120,5 239,20 360,42 63,483 -21,945 -249,1385 79,18 158,41 235,69 298,107 584,288 858,543 23,22 47,44 70,66 -221,662 -466,1049 -734,1163 138,205 262,408 372,610 145,265 266,528 361,789 -473,312 -990,432 -1550,360 6,56 12,111 16,167 27,339 12,666 -45,981 -18,103 -41,205 -68,305 -799,-12 -1302,-201 -1509,-567 -79,344 -177,635 -294,872 -100,202 -214,365 -342,489 -447,-145 -794,-479 -1040,-1001 -96,576 -153,1117 -567,1578zm-2320 1496c-9,731 206,1391 645,1979 -68,213 -110,406 -126,580 -140,602 -390,1022 -735,1235 -375,-388 -595,-996 -660,-1825 416,-412 708,-1068 876,-1969zm922 -2299c76,1002 303,1727 678,2174 -20,246 -51,473 -95,681 -148,700 -435,1175 -860,1423 -440,-588 -654,-1248 -645,-1980 424,-448 731,-1214 922,-2298zm-922 2298c424,-448 731,-1214 922,-2298 -380,-257 -639,-908 -776,-1952 -255,1058 -570,1751 -944,2079 48,879 314,1602 798,2171zm2320 -1495c-471,-429 -725,-1075 -762,-1938 -151,589 -363,968 -636,1135 76,1002 303,1727 678,2174 368,-219 608,-676 720,-1371zm-2320 1495c-484,-569 -750,-1292 -798,-2171 -89,877 -349,1716 -795,2171 107,1115 342,1656 717,1970 416,-412 709,-1069 876,-1970zm2168 1205c-269,-183 -490,-399 -663,-648 44,-208 75,-435 95,-681 368,-219 608,-676 720,-1371 414,-461 471,-1002 568,-1578 -183,1060 -160,1934 67,2622 -452,553 -682,1123 -787,1656zm-762 2381c0,0 -42,33 -125,97 -728,-175 -940,-743 -636,-1703 425,-248 712,-723 860,-1423 173,249 394,465 663,648 40,-203 98,-412 180,-623 129,977 396,1736 799,2274 -607,524 -910,786 -910,786 586,-1234 -1049,-1525 -1204,-649 -37,209 56,439 373,593zm-1403 33c233,-235 407,-592 516,-1059 -59,612 196,986 762,1123 -536,447 -637,1026 -453,1367 -63,54 -132,101 -207,139 -347,-463 -555,-992 -618,-1570zm-163 3055c411,-325 697,-875 781,-1485 -347,-463 -555,-992 -618,-1570 -68,69 -141,128 -219,176 -121,588 -351,1061 -691,1421 110,570 372,1062 747,1458zm-1433 -2879c373,-357 599,-952 717,-1824 65,828 285,1436 660,1824 -121,588 -351,1061 -691,1421 -265,-244 -481,-730 -686,-1421zm396 4499c-242,-400 -338,-941 -396,-1620 316,-235 518,-722 686,-1458 110,570 372,1062 747,1458 -206,441 -713,1392 -1037,1620zm1535 -13295c-130,-91 -229,-236 -279,-429 -122,554 -402,756 -880,971 -258,-108 -578,-318 -772,-542 47,1279 269,2124 795,2830 374,-328 689,-1021 944,-2079 57,-210 141,-516 192,-751zm-2648 6971c118,873 344,1468 717,1825 373,-357 599,-952 717,-1825 -375,-314 -610,-855 -717,-1970 -107,1115 -342,1656 -717,1970zm31 3246c265,-244 481,-730 686,-1421 205,691 421,1177 686,1421 -168,736 -370,1223 -686,1458 -316,-235 -518,-722 -686,-1458zm-12713 -19549c173,1487 902,3196 1767,4194m-29 4654c-1363,-712 -2871,-2227 -3282,-3430m-15 3256c587,1143 2106,2386 3969,2532m19733 -8654c430,-608 865,-1361 1159,-2335m-9108 11945l2 2071m-25 -4359l12 1144m2147 508l283 1028m-1475 -2471l-84 2125m860 -173l-122 2140m-1707 5374l30 1539m776 -3041l-42 1433m143 -5147l-116 1898m-760 72l-29 1623m4478 -5832c-13,661 138,1147 451,1457m1215 -2188c151,692 543,1228 1084,1517m-129 -2207c570,479 1250,776 2041,891m-516 -1910c453,85 871,79 1253,-21m-1619 -1726c439,81 1316,-78 1757,-403m-903 -4038c-334,733 -898,1463 -1382,1952m1986 111c-365,536 -1034,936 -1562,1182m-4445 7368c-65,911 328,2372 1189,3070m1025 -1500c250,654 833,1137 1452,1361m-1505 -3490c1304,1675 3150,2805 4701,2990m-1226 -1927c1240,596 2384,740 3430,433m-4130 -1782c2186,569 4344,32 5191,-1063m-38 -9724c-350,1395 -1310,3163 -2528,4106m-231 -7489c-76,1034 -455,2130 -1118,2930m-8386 7445c179,282 256,615 220,946m10956 -10385c-173,1487 -902,3196 -1767,4194m29 4654c1363,-712 2871,-2227 3282,-3430m15 3256c-587,1143 -2106,2386 -3969,2532m-18045 -6066c-671,-695 -1095,-1542 -1270,-2544m15382 2544c671,-695 1095,-1542 1270,-2544"/>
  <path class="fil2 str3" d="M20715 16550c-178,-28 -345,-128 -464,-308 56,394 -34,833 -271,1316 -566,-370 -857,-780 -873,-1231 -17,451 -308,861 -874,1231 -237,-483 -327,-922 -271,-1316 -121,185 -294,285 -477,310 -26,1329 -548,2080 -1564,2252 581,759 1354,670 1527,-3 122,554 402,756 880,971 258,-108 578,-318 772,-542 194,224 514,434 772,542 478,-215 758,-417 880,-971 173,673 946,762 1527,3 -1017,-172 -1538,-924 -1564,-2254z"/>
  <path class="fil2 str5" d="M20360 15206c152,495 400,911 1033,1106 -340,334 -869,346 -1142,-70 56,394 -34,833 -271,1316 -566,-370 -857,-780 -873,-1231 -17,451 -308,861 -874,1231 -237,-483 -327,-922 -271,-1316 -273,416 -802,404 -1141,70 632,-195 880,-611 1032,-1106 117,-78 216,-188 277,-312 9,246 -29,472 -116,680 394,-52 682,-288 761,-525 24,189 134,467 332,714 198,-246 307,-525 331,-714 79,237 368,473 761,525 -87,-208 -125,-434 -115,-680 61,124 159,234 276,312z"/>
  <path class="fil2 str3" d="M17595 14631c229,-167 407,-461 458,-894 -678,-910 -467,-1527 -1025,-2214 -52,-64 -121,-116 -197,-155 -107,-110 -4,-344 101,-497l3752 0c234,522 710,611 955,290 43,434 -378,654 -760,612 226,198 197,471 123,704 -56,177 -117,281 -158,413 -53,166 88,353 352,376 -330,144 -616,47 -859,-291 -58,433 134,1079 537,1221 -155,117 -332,135 -483,36 -10,315 102,788 641,1000 -347,231 -784,-5 -948,-338 -10,246 28,472 115,680 -393,-52 -682,-288 -761,-525 -24,189 -133,467 -331,714 -198,-247 -308,-525 -332,-714 -79,237 -367,473 -761,525 87,-208 125,-434 116,-680 -165,333 -601,569 -949,338 259,-166 397,-366 414,-601z"/>
  <path class="fil1 str6" d="M20727 10446c-29,142 -44,286 -42,425l-3755 0c3,-139 -12,-283 -42,-425l3839 0z"/>
  <path class="fil1 str6" d="M18808 9542c-47,456 -734,813 -1126,265 -138,333 -428,365 -686,229 -190,-100 -314,-238 -417,-409 -48,-81 -92,-170 -136,-265 54,-42 56,-142 1,-229 -44,-71 -134,-138 -217,-93 -215,-332 -369,-539 -463,-619 116,69 179,68 306,31 300,-86 448,182 315,454 70,-137 157,-267 295,-303 139,-36 215,11 331,74 78,43 133,61 221,35 -61,69 -67,126 -61,215 10,132 21,220 -69,332 -90,110 -245,135 -399,142 114,494 844,776 889,101l110 -18c239,743 1239,331 884,-512 -229,84 -432,58 -597,-221 -68,-116 -132,-134 -165,-136 75,-27 100,-62 147,-149 124,-225 296,-269 532,-170 -71,-107 -87,-279 3,-385 109,-128 240,-98 302,-307 61,209 192,179 301,307 91,106 75,278 3,385 236,-99 409,-55 532,170 47,87 73,122 147,149 -32,2 -97,20 -165,136 -164,279 -368,305 -597,221 -354,843 645,1255 884,512l110 18c45,675 775,393 889,-101 -154,-7 -309,-32 -398,-142 -91,-112 -80,-200 -70,-332 6,-89 0,-146 -61,-215 89,26 144,8 221,-35 117,-63 193,-110 331,-74 138,36 225,166 295,303 -132,-272 15,-540 315,-454 128,37 191,38 306,-31 -93,80 -247,287 -463,619 -83,-45 -172,22 -217,93 -54,87 -53,187 2,229 -44,95 -88,184 -137,265 -103,171 -227,309 -417,409 -258,136 -548,104 -685,-229 -393,548 -1080,191 -1126,-265z"/>
  <path class="fil1 str6" d="M16579 9627c103,171 227,309 417,409 258,136 548,104 686,-229 392,548 1079,191 1126,-265 46,456 733,813 1126,265 137,333 427,365 685,229 191,-100 315,-238 417,-409 -139,218 -254,552 -309,819l-3838 0c-55,-267 -171,-601 -310,-819z"/>
  <path class="fil5 str7" d="M18212 8617c142,-101 360,-116 596,114 236,-230 454,-215 596,-114m1755 536c-58,-80 -173,-239 -426,-269m-4277 269c59,-80 174,-239 426,-269m1926 658l0 -1569"/>
  <path class="fil1 str8" d="M18997 8556c0,-104 -85,-189 -189,-189 -105,0 -190,85 -190,189 0,105 85,190 190,190 104,0 189,-85 189,-190z"/>
  <path class="fil5 str9" d="M16443 9362c54,-42 56,-142 1,-229 -44,-71 -134,-138 -217,-93 -215,-332 -369,-539 -463,-619 116,69 179,68 306,31 300,-86 448,182 315,454 70,-137 157,-267 295,-303 139,-36 215,11 331,74 78,43 133,61 221,35 -61,69 -67,126 -61,215 10,132 21,220 -69,332 -90,110 -245,135 -399,142 114,494 844,776 889,101l110 -18c239,743 1239,331 884,-512 -229,84 -432,58 -597,-221 -68,-116 -132,-134 -165,-136 75,-27 100,-62 147,-149 124,-225 296,-269 532,-170 -71,-107 -87,-279 3,-385 109,-128 240,-98 302,-307 61,209 192,179 301,307 91,106 75,278 3,385 236,-99 409,-55 532,170 47,87 73,122 147,149 -32,2 -97,20 -165,136 -164,279 -368,305 -597,221 -354,843 645,1255 884,512l110 18c45,675 775,393 889,-101 -154,-7 -309,-32 -398,-142 -91,-112 -80,-200 -70,-332 6,-89 0,-146 -61,-215 89,26 144,8 221,-35 117,-63 193,-110 331,-74 138,36 225,166 295,303 -132,-272 15,-540 315,-454 128,37 191,38 306,-31 -93,80 -247,287 -463,619 -83,-45 -172,22 -217,93 -54,87 -53,187 2,229 -243,526 -498,898 -488,1509l-3755 0c11,-611 -245,-983 -487,-1509z"/>
  <path class="fil1 str8" d="M21405 9279c57,-91 53,-196 -9,-235 -86,-53 -179,16 -225,89 -57,90 -53,195 9,234 86,54 179,-15 225,-88z"/>
  <path class="fil1 str8" d="M16211 9279c-57,-91 -53,-196 9,-235 85,-53 178,16 224,89 57,90 53,195 -9,234 -85,54 -179,-15 -224,-88z"/>
  <line class="fil5 str4" x1="16918" y1="10871" x2="20697" y2= "10871" />
  <path class="fil1 str8" d="M19996 9144c-99,0 -180,81 -180,180 0,99 81,180 180,180 99,0 180,-80 180,-180 0,-99 -80,-180 -180,-180z"/>
  <path class="fil1 str8" d="M17619 9144c100,0 180,81 180,180 0,99 -80,180 -180,180 -99,0 -180,-80 -180,-180 0,-99 81,-180 180,-180z"/>
  <path class="fil6 str10" d="M18484 11433c-105,-28 -207,-71 -318,-132 -244,-134 -351,-95 -607,-15 -87,27 -184,51 -284,70 19,849 988,939 1209,77z"/>
  <path class="fil2" d="M17991 11227c-138,-36 -246,1 -432,59 -22,7 -45,13 -69,20 32,175 44,397 288,345 208,-44 194,-241 213,-424l0 0z"/>
  <path class="fil5 str11" d="M17490 11306c32,175 44,397 288,345 208,-44 194,-241 213,-424"/>
  <path class="fil5 str12" d="M16878 11394c212,6 477,-45 681,-108 256,-80 363,-119 607,15 248,136 452,182 737,177"/>
  <path class="fil6 str13" d="M17465 13190c60,144 118,315 173,513 -143,-168 -292,-248 -446,-255 -475,-22 -682,495 -1124,593 -639,140 -1067,-459 -865,-1010 140,356 528,618 945,449 406,-164 653,-667 1317,-290z"/>
  <path class="fil1 str1" d="M16142 11632c-608,111 -779,600 -512,1468 127,-445 436,-556 928,-333 451,-412 820,-66 1107,1039 -199,636 -840,752 -1495,332 370,945 1725,932 1883,-401 -678,-910 -467,-1527 -1025,-2214 -249,-305 -876,-349 -886,109z"/>
  <path class="fil1 str14" d="M16866 11777c-138,67 -316,-29 -364,-200 171,-69 387,-33 364,200z"/>
  <path class="fil5 str14" d="M16142 11632c96,61 216,42 360,-55"/>
  <path class="fil5 str5" d="M20250 11377c113,164 288,347 629,396"/>
  <path class="fil7 str1" d="M29193 36044c104,-10 203,21 296,91 -1,-265 101,-446 307,-582l-18926 -27538 2804 -1928 271 395c368,534 1241,-66 873,-600l-190 -278 238 -163c534,-368 -66,-1241 -601,-874l-237 164 -191 -278c-368,-534 -1241,66 -873,601l271 394 -2805 1927 -2144 -3120 394 -271c535,-367 -65,-1241 -600,-873l-278 191 -163 -238c-367,-535 -1241,65 -873,600l163 238 -277 190c-535,368 66,1241 600,874l394 -272 2145 3121 -2804 1927 -272 -394c-367,-535 -1240,65 -873,600l191 278 -238 163c-534,367 66,1240 600,873l238 -163 191 277c367,535 1240,-65 873,-600l-271 -394 2804 -1928 18963 27590z"/>
 </g>
</svg>
