<?xml version="1.0" encoding="UTF-8"?>
<svg width="1237.7" height="800" version="1.1" viewBox="0 0 1237.7 800" xml:space="preserve" xmlns="http://www.w3.org/2000/svg" xmlns:xlink="http://www.w3.org/1999/xlink"><g transform="translate(-926.76 -597)"><g id="e" transform="matrix(1.7116 0 0 1.5358 1246 595.35)"><path d="m247.6 45 10.5-29.5c-12.9-4.6-25.8-8.2-38.7-10.4l-17.7 16.7-2.6 20.8c-0.8-0.1-1.7-0.2-2.5-0.3l1.9-8.9 3.2-30.9c-17.8-1.9-35.6-1.9-53.4 0l3.2 30.9 1.9 8.9c-0.8 0.1-1.7 0.2-2.5 0.3l-2.6-20.8-17.6-16.8c-13 2.2-25.9 5.8-38.7 10.4l10.4 29.6 11.8 6.6 6.9 22.6c-2.8 0.8-5.5 1.7-8.3 2.7l5.5 15.2h113.3l5.5-15.2c-2.7-1-5.5-1.9-8.2-2.7l6.9-22.6z"/><g id="d"><g fill="#f5f5f5"><path d="m108.4 25.8-3.7-12.5c-3.4 1-6.8 2.1-10.2 3.4l4.3 12.2c3.3-1.1 6.5-2.2 9.6-3.1z"/><path d="m110.3 25.2c7.5-2.2 14.6-3.9 21.6-5.2l-2.4-12.8c-7.5 1.4-15.2 3.2-22.9 5.5z"/><path d="m120.6 24.5c-6.7 1.7-13.7 3.7-21.1 6.3l4.3 12.2c6.4-2.3 13.1-4.2 19.8-5.8z"/><path d="m122.5 24 3 12.7c3-0.7 6.1-1.4 9.1-1.9l-2.3-12.8c-3.2 0.6-6.5 1.3-9.8 2z"/><path d="m133.7 57.9-2.1-10.3c-5.2 1.1-10.3 2.5-15.3 4l3 10c4.8-1.4 9.6-2.6 14.4-3.7z"/><path d="m135.7 57.5c6-1.2 12-2.2 18.1-2.9l-1.1-10.4c-6.5 0.7-12.9 1.7-19.1 3z"/><path d="m174 43c-6.5 0.1-13 0.4-19.3 1l1.1 10.4c6.1-0.6 12.1-0.9 18.2-0.9z"/><path d="m127.2 72.5-2.7-10.2c-1.5 0.4-3 0.8-4.5 1.3l3.1 10.1c1.3-0.5 2.7-0.8 4.1-1.2z"/><path d="m145.7 68.4-1.5-10.4c-6 1-11.9 2.2-17.8 3.8l2.7 10.2c5.6-1.5 11.1-2.6 16.6-3.6z"/><path d="m164.5 66.3-0.5-10.5c-6 0.3-11.9 1-17.8 1.9l1.5 10.4c5.6-0.9 11.2-1.4 16.8-1.8z"/></g><g fill="#ccc"><polygon points="134 20.3 136.4 22.3 134.6 11.5 131.9 8.9"/><polygon points="146.4 22.6 137 13.7 138.8 24.3 147.6 31.9"/><path d="m147.2 42.9c0.6-0.1 1.2-0.2 1.8-0.2l-1-7.9-13.4-11.4 2.1 11.6z"/><path d="m124.6 39c-6.2 1.5-12.5 3.4-18.9 5.5l9.6 5.4h0.3c6.1-1.8 12.1-3.3 18.2-4.6z"/><path d="m136.5 44.7c2.6-0.5 5.3-1 7.9-1.4l-8.8-6.7c-2.7 0.5-5.5 1.1-8.3 1.7z"/></g></g><use transform="scale(-1,1)" x="-350" xlink:href="#d"/><g fill="#f5f5f5"><path d="m161.9 16.4-0.7-13c-3.6 0.2-7.2 0.5-10.7 0.8l1.4 12.9c3.3-0.3 6.7-0.5 10-0.7z"/><path d="m163.9 16.3c11.4-0.5 22.8-0.2 34.2 0.9l1.4-12.9c-12-1.2-24.2-1.5-36.3-0.9z"/><path d="m186 18.3c-11.3-0.5-22.6-0.2-33.9 0.9l1.4 12.9c10.9-1 21.5-1.4 31.9-0.8z"/><path d="m188 18.4-0.7 13c3 0.2 6.1 0.4 9.3 0.7l1.4-12.9c-3.4-0.4-6.7-0.6-10-0.8z"/><path d="m183.5 66.2 0.5-10.5c-6-0.3-12-0.3-18 0l0.5 10.5c5.7-0.3 11.3-0.3 17 0z"/><path d="m115.4 78.2 4.3 12h110.5l4.3-12c-39.6-13.6-79.3-13.6-119.1 0z"/></g><g fill="#ccc"><path d="m185.1 33.2c-10.5-0.5-20.9-0.2-31.4 0.8l1.7 7.9c9.6-0.9 19.2-1.1 28.8-0.7z"/><path d="m187.1 33.4-0.8 8c2.8 0.1 5.5 0.3 8.3 0.6l1.7-7.9c-3.1-0.4-6.1-0.6-9.2-0.7z"/></g></g><g id="a" transform="matrix(.32163 0 0 .32163 924.79 596.37)"><path d="m627.37 1907.8c-23.635-0.4377-47.788 1.9656-70.141 5.002-42.524 5.7765-91.721 34.346-129.03 69.693-38.134-5.3092-61.279 7.3229-67.76 25.428-13.859 3.5564-58.857 24.451-51.67 47.463 6.5699 21.034 26.207 19.853 34.744 15.182-3.8763 8.2649 2.9177 17.748 6.5957 20.043-120.73-29.574-123.59-181.42-239.68-181.42 39.536 69.195-0.40304 79.455 13.393 153.92-38.268-0.129-73.412 17.243-100.38 67.283 57.814-4.1459 92.458 38.124 134.61 83.135-30.737 3.1511-57.816 13.957-66.242 44.467-5.765 2.877-9.1994 8.0504-10.539 13.848-7.1665 8.0047-16.683 11.803-21.697 21.672 5.2536-7.6397 13.37-9.3147 21.795-9.6523 0.75032 3.1201 2.0449 6.1109 3.8809 8.7168-4.1473 3.0623-8.478 6.9597-12.531 11.285-12.59 2.1774-48.282 27.134-66.568 48.445 22.917-15.54 40.794-30.494 56.244-35.271-7.5961 12.054-10.542 24.789-1.3457 32.703 18.679 16.074 42.745-5.1434 60.074-18.65 0.75803 7.8617-1.8128 15.363-3.9961 24.416 7.813-11.118 7.8637-18.168 7.7324-27.264 0.85364-0.6358 1.7079-1.2754 2.5176-1.8437 0 0 6.4117 20.118 21.637 17.234 16.229-3.0734 25.658-27.971 28.424-36.406 0.32818 3.9227 0.44456 7.8882 0.31445 11.904 2.5324-4.7651 3.5728-9.9111 4.2188-15.158 17.167-2.0827 27.648-16.771 37.834-33.785 35.704 25.668 80.425 44.531 142.79 44.531 148.61 0 249.89-72.051 339.36-126.48 77.691 18.579 140.94 50.875 210.38 68.018-83.641 25.463-140.49 69.147-262.57 69.338 129.67 64.366 216.99-22.323 285.22-20.957 54.808 34.703 123 98.043 225.68 98.043 96.531 0 193.57-106.32 193.57-106.32 49.14-15.099 93.728-15.214 139.41-18.94 13.424 28.825 83.583 106.07 139.83 138.14 89.758 51.177 181.44 73.805 296.85 73.805v-207.9c-47.543 0-105.47-6.5847-175.74-45.887 0 0 68.332-5.8013 97.852-21.402 16.364-8.6486 36.414-27.88 52.195-44.611l-21.848-26.689h-72.655c-21.524-51.497-53.17-81.199-97.2-100.76-21.529 25.919-54.118 38.365-88.178 48.291-41.675-67.05-96.091-64.063-129.9-48.535-56.599-75.826-151.68-78.669-204.34-36.234-14.149-31.428-22.483-63.557-28.861-95.922-33.228 72.67-8.3128 103.18-3.3027 148.12-19.11-17.561-26.821-38.635-37.613-58.76-7.3926 35.727-3.0104 68.319 8.3945 99.041-49.063-13.154-97.694-28.093-142.05-60.695 8.4513 45.791 20.167 54.426 31.465 67.82-10.757-2.9133-26.878-3.338-28.898 10.646-20.539-17.318-49.641-8.6019-51.076 18.56-16.167-1.6167-35.197-14.722-48.822-1.8457-18.717-45.544-72.307-94.389-141.45-102.82-14.639-58.041-50.654-68.992-98.982-58.23-23.066-48.773-71.296-62.816-121.95-63.754z" style="fill-rule:evenodd"/><path d="m136.76 1930.7c20.965 56.832-20.106 95.878 12.918 150.29-33.639-0.1134-74.584-9.0595-98.293 34.912 90.501-0.062 115.36 176.49 316.68 181.43 284.19 6.9719 403.36-291.26 609.25-139.03-7.8177-68.467-48.795-86.552-122.11-113.63-99.132 3.5643-139.25 82.261-210.74 62.625 75.722 1.1934 109.22-90.202 189.78-80.4-57.923-132.53-278.05 84.956-432.33 86.412-163.99 1.5479-184.67-169.82-265.15-182.62z" style="fill-rule:evenodd;fill:#01a0e4"/><ellipse transform="matrix(.99273 -.12038 0 1 0 0)" cx="410.82" cy="2058.2" rx="32.553" ry="11.811" style="fill-rule:evenodd;fill:#dcc11c"/><ellipse transform="matrix(.90353 -.42853 .31664 .94854 0 0)" cx="-315.08" cy="2008.6" rx="32.553" ry="11.811" style="fill-rule:evenodd;fill:#dcc11c"/><ellipse transform="matrix(.75207 -.65908 .62622 .77964 0 0)" cx="-986.94" cy="1803.9" rx="37.844" ry="13.522" style="fill-rule:evenodd;fill:#dcc11c"/><ellipse transform="matrix(.39615 -.91819 .92675 .37567 0 0)" cx="-1746.6" cy="1206.2" rx="30.646" ry="11.504" style="fill-rule:evenodd;fill:#dcc11c"/><ellipse transform="matrix(.69124 -.72262 .63473 .77274 0 0)" cx="-931.83" cy="1755.5" rx="22.977" ry="8.2856" style="fill-rule:evenodd;fill:#dcc11c"/><path d="m452.66 2089.9c34.476-52.767 93.495-78.452 170.55-69.711-51.598 26.572-107.84 54.884-170.55 69.711z" style="fill-rule:evenodd;fill:#dcc11c"/><path d="m451.43 1975.7c-6.7712-0.401-14.73 4.4264-14.067 11.928 0.54114 6.1251 6.7712 8.9785 12.014 10.238 13.353 3.2072 27.748 1.6005 40.505 7.0679 6.0078 2.5748 11.196 8.1958 18.28 7.3296 28.023-7.3296 55.386-12.206 81.835-14.34 16.177-1.2658 43.446 1.8731 53.952-10.264-3.1612-4.732-40.291-5.4567-45.669-5.4414-14.542 0.041-29.211-0.6597-43.564 2.1933-18.179 2.7573-36.617 9.1094-53.566 16.136-7.0815-15.253-20.71-21.211-36.189-24.183-4.4503-0.8544-9.0259-0.3972-13.531-0.664z" style="fill-rule:evenodd;fill:#dcc11c"/><path d="m534.74 1964.3c55.218-0.2932 109.87 0.266 145.15 29.858l13.183-6.26c-38.845-37.73-114.83-35.21-158.33-23.598z" style="fill-rule:evenodd;fill:#dcc11c"/><path d="m539.2 1941.5c73.978-15.385 135.89 7.6808 166.9 40.705l27.043-9.0017c-20.525-39.429-101.77-74.458-193.95-31.703z" style="fill-rule:evenodd;fill:#dcc11c"/><path d="m718.67 2332.4c134.97-17.248 147.46-62.835 223.21-65.33 31.675-1.0436 57.039 0.1721 80.501-2.2009 36.854-3.7274 66.038-11.208 84.865-11.208 14.65 0 62.044 15.668 96.104 16.978 129.51 4.9785 166.24-55.079 258.9-49.078l5.4191 11.624c-26.892-1.2407-65.043 6.6265-113.75 25.137 37.143-6.2587 73.777-15.689 123.65-5.165l6.3108 10.699c-42.421 1.4991-84.873 2.1461-124.15 15.756-44.704 15.49-51.261 34.522-99.733 45.137 17.291-12.485 37.586-22.949 45.16-41.968-61.474 19.027-104.21 73.42-158.45 52.898 58.265-0.3787 72.296-34.122 111.49-47.259-45.874-7.6118-103.27 32.239-150.58 36.704-38.543 3.6378-68.992 2.572-104.02-17.414 87.196 9.0505 150.05-3.2123 144.11-24.109-3.213-11.288-26.332-15.13-53.884-11.453-29.812 3.9784-64.338 18.207-87.957 18.377-36.217 0.2597-69.052-6.6214-102.01 2.0458-59.809 15.727-111.16 49.077-185.17 39.833z" style="fill-rule:evenodd;fill:#dcc11c"/><path d="m1447.5 2191.3c-121.3-15.723-124.45 65.563-248.88 69.271 109.38 22.445 192.13-65.694 258-51.397z" style="fill-rule:evenodd;fill:#dcc11c"/><path d="m765.91 2164.8c16.768-20.421 37.325-11.851 53.813-3.3124 2.3616-5.2973-5.5871-13.61-11.475-19.97 30.799-4.997 43.853 10.014 62.61 18.595-2.6388-7.6534-9.1221-15.307-17.007-22.96 60.434 7.0735 67.047 25.426 78.325 33.517 3.4205-4.5476 5.0038-10.012 4.5544-16.489 19.068 11.367 37.971 23.266 57.581 32.884 1.0644-7.6994 0.91688-15.399 0.70276-23.098 11.424 6.416 22.847 10.778 34.271 15.034-9.9634-11.204-26.072-17.42-26.33-36.504 28.464 4.3888 56.56 11.061 83.215 26.626-4.3373-8.0186-40.212-32.02-30.08-43.576 13.793-15.73 35.226 22.98 83.524 42.755-12.557-12.812-42.538-39.33-34.346-46.825 17.28-15.81 56.315 32.273 60.85 55.611 24.103 4.6716 49.069 12.184 71.629 11.773 67.565-7.1333 116.71-38.101 189.15-40.134l8.2658 16.903c-34.847-0.732-71.609-0.044-106.19 17.784-27.475 14.164-49.802 35.733-80.935 47.714-20.116 7.7414-68.58 18.597-113.46 11.602 46.174-1.9652 73.592-12.033 82.854-22.806-34.158 11.638-152.64 27.459-232.19 27.459-108.65 0-178.59-47.598-263.97-69.82l17.411-9.8493c99.338 41.679 197.77 82.235 317.54 67.737 60.151-7.2809 112.76-18.855 169.13-28.29-14.54-8.8518-69.45-9.0977-98.677-9.0786-21.86 21.504-60.979 26.284-89.525 28.89 13.412-9.0192 26.498-18.08 30.425-28.321-32.882 17.668-65.991 29.518-99.708 25.658 14.823-10.009 22.596-19.883 19.688-29.554-31.498 9.6179-63.51 18.535-104.93 14.609 16.98-5.9157 28.467-12.588 31.767-20.389-27.246 8.2113-51.483 22.338-92.409 3.6614 10.038-3.2036 21.84-5.159 26.207-12.374-55.664-0.1737-61.539-9.127-82.275-15.46z" style="fill-rule:evenodd;fill:#dcc11c"/><path d="m1260.2 1965.6c3.8601 77.837 23.389 135.32 69.67 162.88-40.554-10.644-72.649-39.992-98.393-82.588 9.5591 29.655 12.74 59.549 40.201 84.387-23.518-13.611-123.68-33.482-158.08-59.271 22.595 42.548 82.925 58.759 129.93 107.12 11.127-2.3847 21.795-5.2771 32.19-8.4023-7.828-20.742-44.9-38.614-84.814-45.357 50.786-4.4387 99.892 25.809 104.01 39.283 41.566-13.642 80.183-28.474 127.63-26l-18.402-29.135c-56.601-5.8266-109.54-25.056-143.93-142.91z" style="fill-rule:evenodd;fill:#dcc11c"/><path d="m1729.2 2050c-21.963 26.109-63.627 46.464-94.088 52.226 2.7398 3.9821 5.5695 8.1337 8.4082 12.289 20.826-10.639 48.82-16.81 66.545-10.885-17.368 1.3867-39.346 11.136-59.102 21.697 4.6292 6.723 9.3869 13.499 14.295 20.309 27.848-9.2511 89.31-10.547 107.27-2.1732-22.858-2.6892-66.702 12.057-91.018 23.861 6.6027 8.3512 13.464 16.436 20.592 24.029 26.559-11.21 73.721-21.431 91.052-13.35-20.845-2.4523-49.35 17.744-71.388 32.212 5.1559 4.3842 10.439 8.4529 15.871 12.088 44.463-5.0922 114.77-8.195 158.42-63.242l-13.307-16.254-68.55 5e-4c-18.946-45.33-48.753-73.329-85-92.806z" style="fill-rule:evenodd;fill:#dcc11c"/><path d="m972.37 2305.2c67.614 47.081 110.95 37.037 156.57 32.36 18.003 27.987 55.204 28.004 116.96-7.755 0.9007 5.1408 4.0589 7.7531 6.9533 10.661 10.821-0.9069 21.165-2.5748 30.768-5.4274-42.504 37.438-78.031 51.859-139.61 51.859-51.896 0-120.82-41.537-179.6-81.284z" style="fill-rule:evenodd;fill:#dcc11c"/><path d="m1318.1 2055.9c35.999-31.605 89.596 10.126 121.11 78.821 34.107 74.349 62.828 143.19 114.83 195.19 87.82 87.82 190.08 143.17 376.26 143.17 10.29-56.496 5.842-115.39 0-174.51-125.86 0-203.7-54.512-252.38-110.88-59.374-68.753-83.919-153.54-170.46-138.31 45.509 58.816 39.116 126.99 90.17 157.91-39.638 4.9647-70.608-107.75-128.27-169.25-43.145-46.015-114.01-64.465-176.76-15.322 6.6962 12.357 14.054 25.532 25.501 33.175z" style="fill-rule:evenodd;fill:#01a0e4"/><ellipse transform="matrix(.75207 -.65908 .62622 .77964 0 0)" cx="-1375.7" cy="1807.5" rx="37.844" ry="13.522" style="fill-rule:evenodd;fill:#dcc11c"/><ellipse transform="matrix(.98053 -.19639 .15416 .98805 0 0)" cx="-217.77" cy="2254.7" rx="37.844" ry="13.522" style="fill-rule:evenodd;fill:#dcc11c"/><path transform="matrix(.1195 -.99283 .99857 .053464 0 0)" d="m-2285.4 414.44c-21.05-4e-5 -38.172 3.1235-38.172 10.548-3e-4 7.4244 22.718 11.016 43.769 11.016-4.7763-8.1719-5.2427-18.159-5.597-21.564z" style="fill-rule:evenodd;fill:#dcc11c"/><path d="m107.32 2256.8c21.407-8.5655 44.813-15.335 73.445-8.2375 2.5188-2.395 5.0328-4.7919 4.2813-8.4334-6.1071-3.6719-9.56-7.3438-11.634-11.016-38.08-2.0731-61.749 12.554-66.092 27.687z" style="fill-rule:evenodd;fill:#dcc11c"/><path d="m194.23 2248.1c-2.6267 15.397-8.7156 29.119-18.662 40.977 15.914-0.4587 23.764-16.411 33.133-29.444z" style="fill-rule:evenodd;fill:#dcc11c"/></g><use transform="matrix(-1 0 0 1 3091.3 3.1118e-7)" xlink:href="#a"/><path d="m1455 1355.2c8.6262 15.081 56.287 31.265 90.668 32.364 34.381-1.0984 82.042-17.282 90.668-32.364-18.236 17.759-65.697 27.213-90.668 27.213s-72.432-9.4541-90.668-27.213z" style="fill-rule:evenodd"/><g id="b" transform="matrix(.32163 0 0 .32163 924.84 596.37)"><path d="m1216.4 1470.8c0 210.27-28.752 333.82 135.79 454.87 156.8 115.35 389.97 45.068 461.91 217.17h68.551l47.542 58.075c0-616.17 7.634-1218.9 0-1848.5-226.16 0-260.66 73.026-352.5 101.19-105.86 32.47-97.294-57.591-55.657-56.42-38.347-32.929-138.1 3.8415-77.536 92.939-4.9425 0.67286-9.9438 1.2516-13.546 4.0742-27.269-12.692-39.43-111.58-110.94-120.82-54.518-7.0384-105.14 26.014-72.435 82.871l-97.654 119.33c-57.302-22.947-120.02-2.7332-140.48 41.344-21.485 46.286-10.988 142.56 82.349 142.15 38.609-0.16989 87.236-46.344 64.62-91.942 52.096 48.602 84.756 142.11 110.9 206.7-5.7828 8.1359-5.6676 13.31-7.1653 22.381-36.169-34.03-44.791-83.939-64.654-128.52-57.602 48.323-37.95 89.53-27.574 118.64-25.807-8.2124-50.68 26.451-50.68 58.022 0 23.726 25.036 43.343 48.756 42.805 23.205-0.52649 42.556-16.934 43.939-43.895 21.67 20.068 27.319 53.407 21.263 65.858l-42.047-21.893c4.6399 30.829 20.023 64.518 14.842 98.146-10.261-17.634-65.118-78.992-136.27-26.828-61.823 45.324-23.152 130.71 25.338 156.61l93.728 140.85c-53.71 24.109-35.03 97.313 29.617 114.8z" style="fill-rule:evenodd"/><path d="m1317 1330.6 2.4033 51.715c-19.184 15.443-23.823 75.753-94.968 74.596-44.002-0.7155-81.58-72.739-33.059-85.74 70.957 95.834 121.95-19.335 125.62-40.571z" style="fill-rule:evenodd;fill:#dcc11c"/><path d="m1229.8 1472.4 30.476-4.6845c24.543 23.94 24.036 55.189 30.92 79.421-1.8276-43.399 9.6178-82.173 27.387-118.74 9.7164 167.84-27.802 189.26-1.4682 197.56 37.973 11.474 31.136-56.101 22.364-127.09l19.064 55.198c23.085 107.74-58.892 168.19-5.6765 191.36 13.886-4.7319 6.2577-30.192 6.8775-47.706 0 0 21.931 43.605 30.916 41.936 13.815-1.6141-3.4584-84.326-6.1857-127.02 13.561 48.651 10.859 104.93 57.758 137.94 0 0 8.5845-30.681 7.1148-51.194 49.582 76.71-8.2862 109.62 55.146 162.42 7.1523-1.5335 22.585 10.735-5.0181-48.734l43.783 46.945c0.4625-23.229-9.3218-50.984-34.598-85.583 36.528 25.483 47.88 62.082 70.169 93.852 9.8505 3.7126 10.3-31.834-5.3092-44.037 56.845 45.375 27.721 112 73.183 120.64 34.406 0.5385-2.8988-46.166-31.729-87.288 49.182 33.748 53.2 69.602 101.16 101.24-9.1458-24.074-28.854-58.175-52.243-87.262 52.709-7.1202 77.31 135.55 98.779 126.72 22.406-27.601-28.2-102.85-28.2-102.85 56.279 45.967 86.41 101.81 123.65 154.96h26.578l45.471 70.046c3.4446 19.206 3.6687 37.683 0 55.28l-42.513-48.087h-67.668c-61.638-159.45-269.47-109.22-424.63-195.49-178.82-99.416-165.56-192.64-165.56-459.76z" style="fill-rule:evenodd;fill:#dcc11c"/><path d="m1273.7 868.19c-28.763-92.624-65.889-176.56-111.27-214.2-46.823-38.83-89.194-21.338-103.96 2.5126s9.6538 53.738 33.049 55.032c23.396 1.2938 34.974-17.373 25.302-29.536-12.204 22.462-47.03 17.83-46.691-9.3831 0.3019-24.202 35.458-28.084 50.284-21.894 14.129 5.8986 24.194 21.871 25.779 37.255 1.916 18.603-8.8168 44.293-41.581 52.769-46.506 12.031-100.04-26.458-93.781-87.364 8.0835-78.709 108.9-82.82 143.7-58.836 101.64 70.048 129.24 205.33 144.28 252.69l-8.2119 5.7666c-18.466-58.98-44.209-125.28-64.278-149.22 25.071 55.42 51.52 143.76 55.411 156.52z" style="fill-rule:evenodd;fill:#dcc11c"/><path d="m1162.5 580.66c72.08 39.967 130.84 164.99 150.04 259.84l20.681-8.086c-16.759-78.004-72.496-141.46-112.94-231.85 34.216 51.114 72.159 99.832 99.244 149.75-2.6873-21.268-44.963-113.21-89.577-168.47 35.393 38.876 66.27 79.735 90.307 123.6-22.618-48.999-47.825-97.4-74.517-145.46l73.786 108.81 1.1665-14.375c-17.844-39.944-39.53-79.402-65.043-118.37 24.552 27.306 48.548 54.918 63.827 87.335l-0.1059-26.061c-11.7-26.939-29.539-52.507-48.971-77.719 20.872 15.497 35.603 36.787 50.512 57.911l-1.3839-33.351c-8.4392-15.134-19.348-29.815-31.407-44.287 16.122 7.7974 28.948 31.966 45.894 45.1-0.3957-13.447-17.506-36.68-28.252-56.186 16.274 18.62 45.436 57.594 48.822 55.861-11.564-22.566-24.264-44.028-34.082-68.292 14.528 23.314 28.513 46.85 45.978 68.961h11.652c-36.085-42.158-31.909-89.955-73.78-98.657-41.183-8.5583-94.145 76.339-141.86 134z" style="fill-rule:evenodd;fill:#dcc11c"/><path d="m1257.5 446.38c23.775-18.189 47.024-19.663 64.727-11.408 40.464 18.869 37.238 64.683 64.246 93.248l7.4609-7.4629c-23.031-17.064-21.93-50.354-36.611-74.613 18.365 9.4598 21.173 68.277 47.936 63.287l8.5176-8.5195c-28.529-21.357-39.522-103.7-95.98-110.51-45.431-5.4832-79.29 11.217-60.296 55.983z" style="fill-rule:evenodd;fill:#dcc11c"/><path d="m1483.1 400.24c-26.17 53.941 17.558 87.743 73.889 74.278 56.542-13.515 129.42-72.844 193.44-93.671 93.849-30.534 170.22 12.356 170.22 83.099 0 56.228-37.165 82.998-75.296 82.998-48.097 0-85.688-34.964-81.714-78.381 4.743-51.808 66.727-56.369 88.288-31.511 8.0077 9.2322 25.583 27.343 5.1385 48.786-20.285 21.277-56.757-5.4524-33.417-30.534 4.6058-4.7808-3.1691-10.567-8.8559-7.0709-11.361 6.8241-20.288 57.412 26.603 57.412 30.221 0 37.929-21.804 37.123-39.969-1.3093-29.498-30.604-59.308-65.795-59.308-31.855 0-78.224 27.894-78.224 65.093 0 25.957 3.2615 42.355 23.247 67.322-17.714 1.0305-85.495-37.509-39.933-108.9-42.757 7.1087-79.946 108.18-143.39 107.25 0.1962-15.953 14.799-34.17 41.639-54.43-54.577 34.725-145 68.901-206.38 43.287 21.702-24.898 49.931-23.2 75.102-23.91-61.189-29.218-58.709-98.015-1.6734-101.83z" style="fill-rule:evenodd;fill:#dcc11c"/><path d="m1670 493.64-13.152 13.1h35.434c-1.7613-3.93-3.3418-8.2708-4.7051-13.1zm-18.109 18.037-13.717 13.662h66.18c-3.5361-3.8306-6.7808-8.3173-9.6465-13.662zm-18.48 18.406-13.627 13.572h111.29c-7.6807-3.599-15.127-7.7305-21.814-13.572z" style="fill-rule:evenodd;fill:#dcc11c"/><path d="m1175.1 960.93c-18.892-10.945-6.1459-35.41 12.962-24.379 19.042 10.994-0.9904 37.819-18.874 38.08-13.297 0.19403-32.911-6.4773-34.126-29.713-2.8597-54.69 54.924-46.051 54.924-46.051-21.091-36.104-19.028-87.36 1.0133-105.58 8.3371 56.208 42.429 117.87 72.913 122.91 12.69-25.68 32.861-53.1 55.366-62.01v22.83c-74.059 115.38-5.0665 239.42-99.017 310.95-52.491 39.962-137.21 36.086-165.02-41.68-13.361-37.362 8.0546-76.126 37.645-88.296 17.978-7.3933 42.508-8.6134 60.885 0 16.941 7.9396 34.628 24.47 35.912 43.136 1.4039 20.412-12.397 48.013-32.444 52.105-17.047 3.4791-47.854-2.3677-42.745-29.954 4.7042-25.399 39.545-27.133 45.314-4.2688 11.719-19.238-13.406-34.109-34.329-32.34-16.588 1.4027-28.284 16.228-30.872 29.566-4.0011 20.619 8.3934 57.49 49.559 58.315 13.013 0.2608 66.024 3.9788 74.234-78.378 4.761-47.763-12.615-86.152-12.615-86.152l36.324 15.566c14.852-48.559-12.447-87.52-46.054-103.9-12.71-6.1938-30.586-1.4807-39.11 6.8303-6.7688 6.5996-8.8444 37.037 18.154 32.412z" style="fill-rule:evenodd;fill:#dcc11c"/><path d="m1318.9 912.57c-35.682 84.066-10.836 193.89-56.01 253.34-27.761 36.539-72.771 79.252-146.59 59.133l91.949 140.06c10.341 15.752 28.756 38.28 49.189 26.482 22.117-10.103 36.514-37.735 48.555-68.154-12.687 11.778-37.916 38.55-53.972 38.554 10.658-7.4092 43.428-32.754 67.277-68.976l-0.164-23c-16.98 28.6-36.101 52.059-63.672 52.065 12.27-8.5302 45.395-24.372 63.545-70.106l-0.2168-30.359c-18.273 43.542-48.273 82.461-86.436 82.469 15.197-10.565 52.061-18.433 86.279-104.57l-0.2715-38.061c-18.581 59.095-56.85 120.69-107.99 120.71 18.721-13.015 66.449-22.122 107.81-145.72l-0.1191-16.768c-24.498 55.957-65.016 142.02-122.12 130.95 34.227-8.6599 91.401-57.361 110.67-139.38 11.244-47.869 12.434-110.19 12.289-198.66z" style="fill-rule:evenodd;fill:#dcc11c"/><path d="m1779.6 1923.5c6.2444 7.2587 12.32 14.606 18.305 22.002 35.244 6.543 68.496 8.994 102.46 12.455a43.349 62.13 0 0 1 20.498-15.98l0.035-0.127c-44.547-0.7318-90.776-5.4987-141.29-18.35zm25.693 31.234c3.8251 4.8399 7.6004 9.7066 11.332 14.596 25.251 3.7104 49.653 5.6795 74.254 7.8477a43.349 62.13 0 0 1 4.9102-11.844c-29.749-2.9717-59.328-5.3342-90.496-10.6zm18.035 23.42c3.4542 4.6153 6.8722 9.25 10.256 13.902 18.163 1.7947 35.949 2.8563 53.768 3.8867a43.349 62.13 0 0 1 1.4941-11.111c-21.599-1.8948-43.209-3.6771-65.518-6.6778zm16.283 22.293c3.1354 4.3802 6.2448 8.7739 9.3281 13.182 13.259 1.4233 26.363 2.5168 39.449 3.5332a43.349 62.13 0 0 1-1.3184-13.42c-15.674-0.9041-31.414-1.8548-47.459-3.2949zm15.225 21.648c2.7361 3.9645 5.4643 7.9334 8.166 11.916l31.783 3.9942 0.037-0.1367a43.349 62.13 0 0 1-4.6485-12.74c-11.701-0.9019-23.447-1.8498-35.338-3.0332z" style="fill-rule:evenodd;fill:#dcc11c"/></g><use transform="matrix(-1 0 0 1 3091.3 0)" xlink:href="#b"/><path d="m1529.7 715.8c1.9215 0.86346 3.73 2.1619 5.3916 3.688h21.05c1.6616-1.5261 3.4701-2.8246 5.3916-3.688zm7.3786 5.6825c1.1652 1.276 2.2362 2.6329 3.1974 3.9808h10.682c0.9612-1.3478 2.0321-2.7047 3.1974-3.9808zm4.7842 6.3571c0.9047 1.4309 1.6696 2.7787 2.2658 3.9336h2.9762c0.5962-1.155 1.3611-2.5027 2.2659-3.9336z" style="fill-rule:evenodd;fill:#dcc11c"/><g transform="matrix(.32163 0 0 .32163 924.79 596.37)"><path d="m1329.3 552.74v715.56c0 454.14 304.36 656.46 601.04 656.46s601.04-202.32 601.04-656.46v-715.56z" style="fill-rule:evenodd;fill:#fff;stroke-miterlimit:10.5;stroke-width:19;stroke:#000"/><path d="m1375.5 605.48v660.55c0 419.23 280.96 605.99 554.84 605.99s554.84-186.77 554.84-605.99v-660.55z" style="fill-rule:evenodd;fill:#df1f25;stroke-miterlimit:10.5;stroke-width:19;stroke:#000"/><path d="m1872.3 741.29v94.381h-95.627v97.156h95.627v177.46c0 150.9-75.202 174.34-87.732 179.48-58.818 24.146-133.14 2.5229-134.77-89.32 14.431 45.233 60.924 66.164 60.924 66.164-35.421-66.756-20.627-132.14 7.6484-208.33-78.983 29.06-115.31 121.22-114.16 176.7 1.6448 79.488 95.955 139.87 184.87 133.71 49.563-3.4318 141.29-46.15 141.29-123.32 0 77.166 91.722 119.88 141.29 123.32 88.912 6.1569 183.22-54.227 184.87-133.71 1.148-55.477-35.18-147.64-114.16-176.7 28.275 76.192 43.069 141.58 7.6484 208.33 0 0 46.493-20.931 60.924-66.164-1.6335 91.843-75.953 113.47-134.77 89.32-12.53-5.1436-87.732-28.58-87.732-179.48v-177.46h95.627v-97.156h-95.627v-94.381z" style="fill-rule:evenodd;fill:#fff;stroke-linejoin:round;stroke-miterlimit:5;stroke-width:8;stroke:#000"/><g transform="translate(-3.178)" style="stroke-width:6.401"><g id="c" transform="translate(-1.0597)" style="stroke-width:6.401"><path d="m2090.1 1599.3c-227.3-35.214-389.74-170.3-555.25-344.16-11.645 16.317-7.2037 23.158-7.4695 32.293 177.89 241.47 395.42 356.2 569.72 375.14 8.5642 0.3929 17.175 1.0366 25.718 0.3144 7.0448-0.8056 15.011-6.6027 21.958-13.814 20.326 13.007 44.62 11.644 64.672 0.1009 22.233-12.799 32.913-29.366 42.153-7.3416-9.4226-27.626-39.661 3.9545-18.552 20.351 16.48 12.801 37.09 9.9429 44.141-12.812 3.0978-9.9961-4.3447-25.505-11.471-32.806-19.547-20.024-50.182-14.062-81.859-14.173-36.6-0.1284-69.32 1.854-97.046-3.607" style="fill-rule:evenodd;fill:#fff;stroke-linejoin:round;stroke-miterlimit:5;stroke-width:7.5;stroke:#000"/><path d="m2117.7 1616c60.603-1.4777 61.464 23.945 3.7498 25.264" style="fill:none;stroke-linecap:round;stroke-linejoin:round;stroke-miterlimit:5;stroke-width:6.401;stroke:#000"/><circle cx="2183.8" cy="1624.3" r="8.4794" style="fill-rule:evenodd"/><circle cx="2209.7" cy="1624.3" r="7.0763" style="fill-rule:evenodd"/><path d="m2099.2 1673.7c-6.2775-35.436-26.226-122.05 25.063-122.05 36.312 0 32.133 43.227 6.8962 43.227-14.012 0-20.5-21.384-6.0226-21.384-16.02-7.3189-12.265 16.762-11.211 25.921 6.2775 35.436 26.226 122.05-25.063 122.05-36.312 0-32.133-43.227-6.8962-43.227 14.012 0 20.5 21.384 6.0226 21.384 16.02 7.3189 12.265-16.762 11.211-25.921z" style="fill-rule:evenodd;fill:#fff;stroke-linecap:round;stroke-linejoin:round;stroke-miterlimit:5;stroke-width:6.401;stroke:#000"/></g><use transform="matrix(-1 0 0 1 3867 0)" style="stroke-width:8" xlink:href="#c"/></g></g><ellipse cx="1545.6" cy="1240.4" rx="13.942" ry="19.983" style="fill-rule:evenodd;fill:#dcc11c;stroke-linecap:round;stroke-linejoin:round;stroke-miterlimit:5;stroke-width:3.8228;stroke:#000"/><g transform="matrix(.32163 0 0 .32163 924.85 600.34)"><path d="m730.88 81.958c31.463-8.1772 61.708 12.477 69.594 30.709 30.63 0 48.313 22.29 37.943 51.048 0 8.4494-0.39376 17.08-2.4274 25.277 11.5 10.28 7.6017 26.622-3.3804 36.415 0 9.308 1.3503 18.313 0.50288 27.468-0.75889 9.1364-12.833 14.474-11.625 24.646 0 10.804 7.5589 19.256 10.616 29.052 4.2825 20.53-17.755 29.601-21.147 47.472 24.17 3.9227 40.797 37.385 39.095 64.012l68.099 25.748c29.715-35.845 73.769-27.219 56.53 9.5937 52.51-15.139 44.744 21.506 34.904 59.932 40.248-0.96707 29.406 55.126 9.4341 68.153-10.145 56.971-9.9829 104.35 8.0955 135.07l35.256 47.988c2.6402 18.852-3.6247 26.976-18.732 34.94 1.0195 13.636 8.5777 28.991 16.637 40.245 4.971 31.665-4.3485 66.13 4.2413 97.001 2.56 16.567 12.265 32.575 19.466 47.712 20.409 7.9118 42.857 7.2782 64.87 9.4796 3.0853 17.957 16.2 30.496 31.939 35.324-8.7845 22.532-32.548 18.105-46.79 6.1144-16.575 12.94-32.569 11.907-51.44 7.9322-11.157 13.706-28.546 23.425-38.959 38.857-19.704-14.977-26.673-30.265-24.647-55.672-15.778-11.112-27.114-24.586-34.331-43.12-17.653-10.973-28.67-39.261-39.742-67.403l11.56-19.798-14.821-39.191c-13.027 4.1374-37.347-4.7583-39.513-50.706-5.7014 6.0966-12.763 9.6064-20.472 11.885 11.824 9.4553 11.159 24.785 7.6226 41.465 28.332 14.425 23.424 31.454 16.384 48.65 17.136 68.417 31.347 220.13 67.703 326.26-6.1774 24.007-20.324 37.543-40.132 43.64 0.39219 28.003-16.479 33.496-29.037 44.613 14.347 33.582-5.4192 49.066-12.748 71.148 38.476 4.3611 35.246 37.556 14.515 43.576 6.042 34.376-5.3119 38.79-12.359 50.622 15.622 12.452 13.597 24.467-5.0431 36.073-6.6148 95.064-21.39 192.13-41.83 290.58 44.166 21.672 78.398 59.158 124.21 73.494 20.515 10.494 23.889 73.294 19.797 82.048-21.874 46.803-105.42-19.008-131.52-49.329-17.039-4.4728-34.891-6.342-49.251-19.393-67.257 7.959-80.266-24.031-64.592-77.145-3.449-22.8 6.6793-49.682 15.074-63.101 13.891-21.208-9.2179-195.7-18.884-195.7l-130.97 81.985c-6.3472 39.168-4.8499 79.119-2.4512 119.16 12.523 18.692 17.116 40.461 14.929 64.859 5.7085 27.587 12.031 62.675-16.777 80.297l-49.276 5.337c-15.457 12.131-32.08 10.141-47.537 15.163-27.425 24.266-58.507 40.832-83.996 56.212-13.463 6.3089-26.092 3.5759-37.474-0.4117-22.454-10.734-6.6781-87.802 13.44-93.45 31.984-8.9791 44.351-21.439 121.67-72.468l-40.483-279.13c-22.985-6.6866-34.969-18.285-19.803-42.005-20.881-11.742-38.563-24.985-13.396-58.344-16.519-11.248-21.367-25.998-3.8687-47.456l-21.008-882.13c-27.83-42.638-43.243-58.416-33.852-65.017 13.056-9.1772 33.582-3.5573 58.284-0.60388 7.8331-21.266 32.758-15.105 51.575-18.745-0.63855-17.694 6.5312-33.168 20.028-46.842-29.307 11.024-60.653 14.204-91.607 18.892l25.589-17.169c-29.29 9.6544-58.102 3.506-86.878-3.8609 23.291-8.7681 46.85-16.939 69.443-27.263-24.734 2.4943-47.208 0.94037-70.508 0.86609 9.805-5.1711 19.927-9.4633 30.014-13.853-29.815-2.8242-59.074-6.8218-87.651-12.257 26.096-5.1386 52.451-8.7929 78.128-16.32-38.151-3.6136-66.83-28.308-99.296-44.574l64.726 8.4439c-19.111-13.445-37.424-38.203-55.585-65.119l39.189 18.797c-12.67-19.818-23.284-47.967-31.715-84.962 11.881 12.097 22.367 24.399 36.02 36.236-8.0532-18.614-17.494-24.93-18.791-103.43 25.733 40.034 72.729 167.06 190.55 114.66-6.3981-8.3616-36.119-18.152-27.073-34.247 10.975-19.527 35.81-13.781 54.078-24.579 42.327-25.018 67.883-83.921 126.93-84.501 28.894-0.28394 60.136 19.768 63.994 33.103" style="fill-rule:evenodd"/><path d="m336.83 128.83c37.046 51.612 80.658 114.1 182.66 73.407l12.704 73.387c-12.996 20.032 3.576 24.333 9.2314 34.441-9.5251 39.562 16.431 38.781 38.234 32.532 10.281 5.2401 20.769 12.223 37.254 8.6719-14.117 14.059-29.827 26.123-30.571 56.294l-71.272 17.538c-8.502-27.498 39.911-48.371 30.883-75.271-18.798 19.552-40.568 27.125-63.113 31.57 21.313-11.834 31.385-28.668 41.891-45.308-41.154 30.691-79.513 43.396-115.35 39.845 59.687-17.986 85.761-40.195 102.22-63.613-34.305 17.044-67.331 31.14-93.474 29.372 17.212-6.5025 33.349-15.026 46.206-29.719-36.494 15.036-63.127 16.107-87.359 13.779 19.078-6.4003 38.397-12.06 54.493-27.593-36.869 5.2108-63.305-1.4328-87.166-11.002 18.021 0.041 36.843 2.1351 51.596-6.2091-23.538-7.5625-44.89-18.622-60.829-38.347 12.443 6.6654 24.938 7.4342 37.459 5.2883-24.582-18.782-34.171-40.242-44.83-61.511 11.417 12.044 25.188 18.893 43.27 16.227-17.213-19.306-30.894-41.814-34.146-73.779z" style="fill-rule:evenodd;fill:#e31e25"/><path d="m718.5 85.352c-9.1515-14.874-37.662-30.507-66.986-23.466-42.163 10.124-68.137 49.633-101.15 76.972-10.728 8.8826-31.067 13.281-44.732 14.6-13.614 1.3136-12.709 11.966-3.1461 17.889 3.5993-2.4851 6.6523-6.03 8.9032-12.303 0.90845 5.8655-0.49359 11.052-2.0288 16.2l6.823 4.3239c3.7989-7.5265 9.1852-14.063 14.694-20.523-2.213 8.681-3.7895 17.362-8.2765 26.043l4.1779 5.71c3.9467-8.8376 10.014-16.864 15.682-25.043-2.9164 11.564-6.7801 22.305-12.194 31.7 10.916-8.3742 21.415-19.328 31.977-29.9-9.1836 13.631-18.511 27.107-30.718 37.493l2.2801 4.7038c13.299-8.9662 26.73-19.309 40.233-30.39-11.04 16.402-24.269 28.325-38.032 39.157l0.77771 10.54 37.401-31.171 36.708-53.594c-8.77 45.588-40.677 72.489-72.48 99.474l3.6415 23.667c3.6922-2.7602 8.214-2.7237 12.801-2.4678-8.0551-38.51 19.774-40.881 37.088-39.589 18.291-69.688 66.522-115.09 126.56-140.03z" style="fill-rule:evenodd;fill:#c6c6c6"/><path d="m582.09 239.1c-0.55972 0.0138-1.1498 0.0523-1.7715 0.11328-20.786 2.0402-5.8934 19.576-12.611 32.934-6.3495 12.625-18.591-2.488-24.502 13.463-4.2786 11.545 9.0432 5.9659 13.094 21.844 2.6007 10.195-5.9569 13.991-4.7188 18.041 4.7731 15.614 16.854-1.703 37.424 4.8164 10.466 3.3171 17.369 13.731 24.527 5.3652 5.7552-6.7257 0.18854-19.696 4.709-24.754 6.8442-7.6584 24.172-4.2203 25.729-20.502 1.2565-13.143-16.489-5.5366-22.094-13.717-3.9449-5.7577 6.2983-16.037 0.31446-20.779-7.0635-5.5981-14.283 10.322-23.389 7.6094-10.935-3.2579 0.64033-24.862-16.711-24.434zm10.084 37.279a17.634 17.634 0 0 1 17.635 17.633 17.634 17.634 0 0 1-17.635 17.635 17.634 17.634 0 0 1-17.633-17.635 17.634 17.634 0 0 1 17.633-17.633z" style="fill-rule:evenodd;fill:#01a0e3"/><path d="m805.97 250.27c4.7287-1.8917 10.402-3.1921 15.558-2.6537 0.54941 4.6916 0.68419 11.764-4.8404 13.546-2.9162 0.94077-6.3798-2.0821-9.5748-0.80575 0.86695 1.9077 4.0373 2.5466 5.9428 3.4993 4.4257 2.2128 2.8716 8.5234 2.5377 12.185 0.0796 5.8441-5.1777 8.8208-10.18 10.647-5.6354 2.0578-9.5426 1.6659-12.09 5.2693-4.3195 6.1112-2.1168 15.625 0.72005 23.225 3.3306 2.7356 9.3115 4.0844 6.9431 9.3758-0.0596 2.7553-5.1194 2.716-5.8072 4.8513-1.755 5.4483 6.2191 9.2946 10.284 11.869 7.4788 4.7372 14.575-13.434 16.081-17.858 2.5085-7.3682 1.5754-14.522 1.0434-21.771-3.4151-10.513-7.5576-18.037-4.0474-29.105 2.3176-7.3075 7.7547-10.342 8.057-21.058 0.3005-10.651-2.816-19.346-4.6803-28.574-14.769-3.758-50.849-0.14078-85.315 10.605-35.016 10.917-68.402 29.126-80.812 45.862 0.15806 3.9313 1.98 6.7493 2.3433 10.525 18.669 7.686 12.963 20.807 16.248 36.774 1.1758 5.7152 8.1154 11.644 10.942 16.689 3.7087 8.616-6.3487 21.076-15.783 18.085-2.25-6.1254 2.791-11.195 1.5506-17.688-0.90286-4.7254-4.8333-9.4262-10.535-14.757-0.53671-9.3156 2.507-19.913-4.4333-26.958-5.1703 8.1523-14.487 12.336-21.397 13.993 19.077 19.168 21.312 77.162 53.007 77.865 7.787 0.17286 23.322 0.0226 30.707 2.7918 17.961 6.7353 14.535 19.563 43.62 18.13 12.326-2.7016 21.97-13.066 20.408-22.106-1.3509-7.8149-18.398-4.7892-26.747-10.694 24.143-23.23 36.63 3.5447 40.059-11.066-0.44848-11.014-9.6543-4.2329-17.143-4.1784-4.3203 0.0315-5.9158-4.1186-11.823-4.5151-9.9374-0.66702-28.383 16.349-31.885 24.326-8.3355 3.1155-27.923 3.1967-32.913-6.8482-3.1352-6.3101-6.5731-20.206 1.1136-24.207 6.267 4.4736 12.34 6.4833 17.003 6.8678 7.1376 0.58859 11.79-0.11506 13.697-6.9686 2.1088-6.6664 2.5128-14.695 11.094-16.238 1.6071-3.7931-5.709-4.088-6.5325-9.3326 3.6979-5.6655 12.544-6.9256 18.838-5.992-4.7187 1.9294-7.8847 4.964-7.7342 7.8251 0.20445 3.8883 8.5463 9.5341 20.618 4.7715-0.61677-3.8872-8.9491-1.5088-7.9808-5.7181 0.74649-3.2451 4.4184-2.9099 7.2979-2.3673 6.1034 0.83304 5.6491 10.834 11.274 10.902 5.3381-0.0381 9.3278-3.1278 9.136-7.9879-4.1757-18.119-17.286-27.932-10.279-49.061 2.6783-8.077 0.30358-19.05 0.32278-27.538 2.0491-4.5055 9.2745-3.1798 13.398-2.0511 3.3722 0.92297 9.6028-1.136 12.541-2.3434" style="fill-rule:evenodd;fill:#fbd5a6"/><path d="m747.19 272.28c0.33462-5.5116 5.8021-8.0816-0.54403-12.105-8.7904 8.5-13.704-0.51388-21.897-0.14139-6.1812 2.7585-12.47 3.4726-19.286 4.0738-2.9918 6.3825 6.787 3.8134 8.6578 6.7161-1.2394 2.6056-5.1128 2.7213-7.2726 4.7466 4.672 8.9338 14.726-6.6819 21.041-6.6819 9.7023-0.19527 12.997 10.149 21.586 12.638-1.717 1.8425-5.2675 2.4014-7.5319 2.0049 1.8756 13.117-2.0817 15.533-8.503 22.055 2.1617-6.4245 5.6063-15.74 2.1617-19.855-1.5321 1.0608-5.1782 3.6206-7.011 4.537-8.0508 4.0254-8.4884-3.7737-13.689-7.8577-0.81812 0.50397-3.2215-0.20053-3.9826 0.29101-7.296 4.7117-12.275 2.6018-20.814 0.82965 1.4427-2.2076 3.4038-2.627 5.2045-4.3081-1.5335-1.799-3.9545-3.637-3.9545-6.1058 0.50686-2.5132 5.3347-0.15442 6.9153 0 3.3871 0.33091 6.004-2.1601 4.1431-4.9929-4.069-6.1942-5.4142-1.5513-10.658-1.0592-2.9218-0.50367-4.4727-3.457-2.1952-5.5344 5.0067-3.3016 11.665 0.1165 16.645-2.095 3.2634-1.7543 6.3581-3.348 8.6956-6.4978 7.9039-0.85704 13.762 2.9026 21.849 1.4721 3.6931-0.65329 8.6937-3.1675 12.15-4.4128 4.4049 2.0036 8.0472 3.5925 11.393 5.6775-11.821 13.715 0.34827 11.122 0.34827 20.946-5.7276 10.958-9.2931-0.8352-13.453-4.3412" style="fill-rule:evenodd"/><path d="m811.92 269.32c-1.5061-3.4914-4.4818-6.0383-10.906-6.6283-7.8034-0.71663-11.862 0.29361-8.538 10.918 4.5566-0.19664 4.0594-3.4249 8.2946-3.4548 5.7059-0.0403 10.768 6.9691 11.15-0.83444z" style="fill-rule:evenodd;fill:#fbd5a6"/><path d="m690.24 431.15c-6.4572-0.85841-33.444-21.145-23.643-32.135 5.4181-6.0758 22.854 3.0678 28.397 10.313-0.18187 12.412-0.81669 19.325 12.41 18.778 13.402-1.2267-2.5251-15.454 1.0003-20.689 5.8448-2.4827 8.9257 1.9533 12.846 5.1299 11.404 9.2403 13.188 9.4809 28.046 11.211 6.4401 0.7497 13.565 0.71273 19.775 0.0846-9.66 6.4782-35.266 13.101-78.831 7.3092z" style="fill-rule:evenodd;fill:#fbd5a6"/><path d="m637.4 396.34c2.6661-11.044 5.973-23.769 9.1206-36.076 16.38 18.959 6.2859 37.167 10.085 48.909 2.8948 8.9484 10.979 11.891 16.402 18.541-12.48-4.0412-28.917-17.217-35.607-31.374z" style="fill-rule:evenodd;fill:#c6c6c6"/><path d="m634.71 401.59s20.251 45.448 85.99 45.448c54.786 0 79.671-39.017 87.059-55.7 2.5479 54.469-61.441 73.271-85.366 73.271-21.953 0-69.449-2.3246-91.024-55.836z" style="fill-rule:evenodd;fill:#c6c6c6"/><path d="m634.87 357.18c-31.004 92.321 37.352 120.85 88.255 120.85 41.286 0 98.884-35.699 88.42-91.037l4.4379-22.433c67.66 83.383-42.276 133.3-95.61 133.29-65.089-0.0179-174.52-69.982-85.503-140.67z" style="fill-rule:evenodd;fill:#c6c6c6"/><path d="m528.5 434.83c37.845 24.746 32.504 42.823 31.239 61.529l86.005 36.868s40.889-7.5902 58.496 0.79173c35.897 17.089 19.998 56.382 43.209 56.452 14.68 0.0441 14.824-36.379 29.351-46.514 12.466-8.6975 28.333-6.6493 39.114-17.012 19.816-19.048 16.36-52.743 33.653-73.341 6.3106-7.517 24.269-14.659 24.269-14.659l-31.13-11.3c-7.0886 51.915-70.639 84.078-119.19 83.724-53.135-0.38731-123.12-21.619-129.09-93.521z" style="fill-rule:evenodd;fill:#01a0e4"/><path d="m433.11 507.64 54.81-13.762c-5.0753-7.9083-22.878-39.725-81.431-36.844-0.47901 12.125 17.747 33.737 26.62 50.605z" style="fill-rule:evenodd;fill:#c6c6c6"/><path d="m461.88 454.05c9.9606-14.38 30.261-11.114 48.368-11.591 10.075 3.6519 16.993 9.8414 23.159 16.429-15.978-2.1552-39.383-4.9182-59.286 2.5474z" style="fill-rule:evenodd;fill:#c6c6c6"/><path d="m485.78 470.9c6.1987 6.5392 11.821 13.519 14.898 22.442 15.347-2.7848 30.183-1.3959 45.036-0.16124-0.65841-6.9505-0.77578-13.866-4.1556-20.993-20.296-5.8774-38.553-5.2313-55.778-1.2879z" style="fill-rule:evenodd;fill:#c6c6c6"/><path d="m785.75 974.77 0.0488-0.0156" style="fill:none"/><path d="m366.16 1056.4h0.0491" style="fill:none"/><path d="m661.76 543.99s25.173-8.9936 43.882 4.6862c17.651 12.907 12.095 52.165 38.889 52.83 34.417 0.85464 22.839-36.382 39.772-48.76 12.286-8.982 32.283-5.4565 42.468-16.765 16.228-18.017 17.357-53.783 35.83-74.374 6.9534-7.7506 25.386-17.104 25.386-17.104l21.692 8.3775c-21.266 11.262-53.884 78.751-82.909 113.41-7.4027 8.8401-16.436-2.5475-32.237 12.541-12.253 11.7-10.432 34.494-20.592 46.469-7.0962 8.3634-28.829 15.862-28.829 15.862z" style="fill-rule:evenodd;fill:#c6c6c6"/><path d="m918.99 458.03s34.184-36.125 46.535-23.171c10.38 10.887-25.277 27.358-25.277 31.951z" style="fill-rule:evenodd;fill:#c6c6c6"/><path d="m887.22 497.09c11.994 3.4577 19.788-11.688 31.474-6.5766l12.278-15.176c-3.6827-5.0388-16.449-8.8924-22.568-5.4381z" style="fill-rule:evenodd;fill:#c6c6c6"/><path d="m871.76 521.77 9.7258-16.181c11.285 7.6293 20.264-5.9364 30.999-4.9671-3.5887 7.6606-8.3313 15.127-9.0366 23.273-13.247 8.7114-20.923 3.0376-31.688-2.1249z" style="fill-rule:evenodd;fill:#c6c6c6"/><path d="m848.9 558.46 16.434-26.694c16.128 1.939 19.438 14.233 36.729 3.8278l6.5827 18.718s-12.855 6.2933-19.743 6.1167c-7.7807-0.19951-13.451-7.601-21.92-8.0442-6.5112-0.34076-18.082 6.0754-18.082 6.0754z" style="fill-rule:evenodd;fill:#c6c6c6"/><path d="m841.38 591.8c6.3587 1.8345 14.345-8.6555 22.127-8.3906 14.119 0.48061 14.128 10.88 27.759 7.9958 8.8739-1.8775 15.663-10.345 26.349-7.6614l-5.8699-20.261c-6.884 1.9783-12.957 5.7895-19.879 7.1739-7.7093 1.5419-16.792-5.2631-23.676-7.7162-10.331-3.6817-18.806 10.872-29.046 7.4549-7.1047 15.57-34.193 2.553-38.061 21.324 18.98-15.763 25.191-4.2775 40.296 0.0802z" style="fill-rule:evenodd;fill:#c6c6c6"/><path d="m787.83 622.21 5.8029-18.188s15.074-8.7196 23.415-8.8388c8.3824-0.1197 15.391 8.3398 23.773 8.2063 8.8096-0.14036 15.887-9.4519 24.698-9.4162 8.4158 0.0341 15.105 8.9598 23.517 9.185 8.993 0.24075 15.579-9.3461 27.33-9.016-0.90962 7.7996-3.8569 14.952-7.6122 21.848 0 0-11.864 6.6166-18.132 6.7369-7.9283 0.15215-14.971-7.5336-22.899-7.6803-8.9382-0.16533-15.445 8.0612-24.385 8.0372-9.0377-0.0243-16.804-9.1559-25.803-8.3259-8.1473 0.75142-22.742 11.144-29.706 7.4519z" style="fill-rule:evenodd;fill:#c6c6c6"/><path d="m756.02 647.09c0.6388 1.7899 19.991-4.7359 27.109-16.02 15.216 9.0366 22.254-6.0078 33.503-5.0189 9.0846 0.79867 17.402 8.8097 26.518 8.564 8.2509-0.22239 14.761-7.9775 22.987-8.6486 10.913-0.89014 17.828 12.364 31.532 6.6724-4.0873 7.4086-7.4503 14.817-8.448 22.226-4.3449 0.31199-14.631-8.2743-22.688-8.3357-8.433-0.0642-15.445 8.3959-23.878 8.3622-8.6189-0.0344-15.716-8.817-24.335-8.7411-8.775 0.0773-15.845 9.6297-24.616 9.3346-7.6807-0.25847-13.274-9.5745-20.959-9.6055-5.6422-0.0228-15.444 6.9278-15.444 6.9278z" style="fill-rule:evenodd;fill:#c6c6c6"/><path d="m757.18 663.74s8.1758-6.8676 14.321-6.8253c6.1453 0.0423 12.059 8.8993 20.382 9.3547s17.191-8.7206 26.152-8.7967c8.961-0.0761 14.961 7.605 23.61 7.6801 8.6493 0.075 17.649-8.0155 25.335-7.8704s21.082 8.2095 21.082 8.2095 2.3642 10.331 1.9922 21.043c-6.224-0.56229-15.224-9.1585-23.766-9.2066-8.6066-0.0485-15.54 9.1709-24.146 9.1449-8.341-0.0252-15.006-9.049-23.347-9.0038-8.8137 0.0478-15.752 9.7322-24.566 9.781-9.7848 0.0542-15.391-11.244-31.146-7.9113z" style="fill-rule:evenodd;fill:#c6c6c6"/><path d="m767.78 687.78s15.529 9.5477 24.246 9.8396c9.2862 0.31092 17.18-8.7524 26.472-8.7306 8.5605 0.0201 15.791 8.1776 24.351 8.1583 8.8585-0.02 16.305-8.7829 25.161-8.5557 8.204 0.21053 22.872 9.1112 22.872 9.1112 3.1098 8.8615 0.96675 14.401-0.28556 20.503 0 0-16.02-8.0863-24.641-7.8835-7.7574 0.18246-14.054 8.0601-21.814 8.1279-8.5389 0.0747-15.619-8.4716-24.158-8.5234-9.2875-0.0563-17.104 8.6408-26.386 8.9511-6.8564 0.2292-19.888-5.2952-19.888-5.2952z" style="fill-rule:evenodd;fill:#c6c6c6"/><path d="m783.41 727.45s7.0309 1.4773 10.494 0.90016c7.7548-1.2925 16.158-9.1525 24.017-9.3481 9.9935-0.24862 15.629 9.7864 25.622 9.5267 8.5372-0.22187 14.812-9.3094 23.352-9.3726 6.7531-0.0499 18.634 7.9511 18.634 7.9511-2.2588 5.0085-4.6075 10.484-7.1046 16.728 0 0-6.3104-3.0675-12.556-2.7205s-14.916 7.9717-23.398 7.868-16.306-9.1845-24.634-8.9596-21.869 9.319-21.869 9.319l-0.20997 12.265s11.962-9.7221 20.414-10.267 17.589 9.2895 26.39 9.2517c8.8014-0.0378 17.555-8.2515 23.373-8.4203s9.6663 2.8609 9.6663 2.8609c-3.2191 6.6282-1.8964 12.9-2.3593 19.313-16.15 5.5081-51.439 3.2389-75.019 6.5664z" style="fill-rule:evenodd;fill:#c6c6c6"/><path d="m805.81 792.52c26.857-2.4714 61.736-4.0543 86.478-7.3968 12.992 26.965-48.764 22.851-44.84 35.566 14.401 12.57 27.576-2.0002 31.149 15.608 2.3818 11.738 0.77783 21.483-1.4946 32.06 0 0 23.042 0.40927 22.348 19.456-1.0873 29.846-30.784 25.938-71.17 32.913z" style="fill-rule:evenodd;fill:#01a0e4"/><path d="m859.59 949.95c-11.971 79.275 24.844 194.61 47.344 300.46 11.642 3.9707 16.901 11.284 22.053 16.815 14.094-5.3343 27.363-13.925 32.602-32.194l-80.86-308.99-13.76 3.2935c24.448 79.748 53.721 162.4 42.577 220.74z" style="fill-rule:evenodd;fill:#c6c6c6"/><path d="m854.54 1261.6c9.2504-5.6222 17.969-12.259 29.818-12.922-13.782-43.427-22.593-86.854-28.138-130.28-12.358 49.307-9.6466 96.606-1.68 143.2z" style="fill-rule:evenodd;fill:#c6c6c6"/><path d="m805.8 1326.2s53.095-11.439 84.439-12.633c20.797-0.7923 35.137-23.491 31.167-37.725-3.2686-11.718-20.2-15.516-32.365-15.516-35.066 0-15.232 26.066-83.851 36.172z" style="fill-rule:evenodd;fill:#c6c6c6"/><path d="m782.69 1401.2c31.895-5.5026 62.125-7.4635 92.342-10.152 5.4333-0.4835 11.227-0.6134 19.221-29.777 10.771-39.293-4.747-34.206-19.929-32.574-25.916 2.7854-52.868 10.325-79.352 15.764z" style="fill-rule:evenodd;fill:#c6c6c6"/><path d="m779.77 1414.9s77.851-8.8373 116.86-7.4732c14.352 0.5019 14.44 18.871 4.6002 18.889-42.08 0.074-110.12 7.8663-125.96 11.666z" style="fill-rule:evenodd;fill:#c6c6c6"/><path d="m761.5 1452.5s88.304-13.911 127.31-12.547c14.352 0.5019 10.534 42.945-18.307 43.724-42.065 1.1358-100.53 10.825-116.37 14.625z" style="fill-rule:evenodd;fill:#c6c6c6"/><path d="m756.07 1508.8s87.765-12.696 126.77-11.332c14.352 0.5019 15.468 18.246-13.373 19.024-42.065 1.1358-103.47 9.7294-119.31 13.53z" style="fill-rule:evenodd;fill:#c6c6c6"/><path d="m745.98 1543.4 60.064-11.764c5.1776 76.276 6.0116 157.34-2.2542 239.61-40.335 17.802-38.37 53.961 4.772 51.175 15.267 7.8383 12.677 21.963 6.4576 28.767-22.215 1.0348-56.755 6.7663-58.487-40.568-0.93337-25.515 9.9003-30.451 15.32-44.033 17.496-102.92-11.709-157.54-25.873-223.19z" style="fill-rule:evenodd;fill:#01a0e4"/><circle cx="793.46" cy="1692.9" r="9.0718" style="fill-rule:evenodd"/><circle cx="793.02" cy="1659.2" r="9.2135" style="fill-rule:evenodd"/><path d="m815.17 1531.6c1.6056-0.7402 62.922-3.5737 62.922-3.5737-10.085 100.57-27.29 196.86-44.083 293.39 13.88 5.3185 22.298 11.534 32.169 17.512 0.30913 15.155-3.2184 24.667-8.4205 31.715 0 0 2.9543 23.463 22.732 29.573 17.812 5.5024 24.518-26.499 23.866-34.342l13.025 8.2681c-0.2985 12.845-2.632 22.59-8.0969 27.564 2.4667 19.078 11.319 26.626 21.932 30.997 18.145-2.1674 22.955-18.633 23.899-39.243 23.086 4.7038 23.955 39.164 25.262 73.036-22.07 24.156-68.125-11.49-117.59-55.624-18.711-3.2821-35.419-10.241-50.501-20.186-36.824 5.8619-66.642 2.4544-60.819-48.106 20.977 25.188 46.589 22.96 72.438 19.328 9.102-17.833 14.672-35.337-10.208-50.003 0 0-24.767 0.8557-26.895-8.2798-2.818-12.097 27.102-25.574 27.102-25.574 8.6396-80.745 5.6744-163.5 1.2595-246.46z" style="fill-rule:evenodd;fill:#c6c6c6"/><path d="m878.18 1846.8c-0.20579 10.19-2.8828 18.873-7.0848 26.624 14.264 33.97 20.44 7.728 22.357-14.922z" style="fill-rule:evenodd;fill:#c6c6c6"/><path d="m928.39 1881.6c-0.20579 10.19-2.3038 15.907-6.5058 23.659 14.264 33.97 20.44 7.728 22.357-14.922z" style="fill-rule:evenodd;fill:#c6c6c6"/><path d="m622.32 1552-60.064-11.764c-5.1776 76.276-6.0116 157.34 2.2542 239.61 40.335 17.802 38.37 53.961-4.772 51.175-15.267 7.8383-12.677 21.963-6.4576 28.767 22.215 1.0348 56.755 6.7663 58.487-40.568 0.93337-25.515-9.9003-30.451-15.32-44.033-17.496-102.92 11.709-157.54 25.873-223.19z" style="fill-rule:evenodd;fill:#01a0e4"/><circle transform="scale(-1,1)" cx="-580.13" cy="1726.4" r="9.0718" style="fill-rule:evenodd"/><circle transform="scale(-1,1)" cx="-580.93" cy="1693.4" r="9.2135" style="fill-rule:evenodd"/><path d="m556.29 1522.5c-12.947 9.1101-45.093 26.367-62.579 22.198 10.085 100.57 23.789 188.78 40.582 285.31-13.88 5.3185-22.298 11.534-32.169 17.512-0.30913 15.155 3.2184 24.667 8.4205 31.715 0 0-2.9543 23.463-22.732 29.573-17.812 5.5024-24.518-26.499-23.866-34.342l-13.025 8.2681c0.2985 12.845 2.632 22.59 8.0969 27.564-2.4667 19.078-11.319 26.626-21.932 30.997-18.145-2.1674-22.955-18.633-23.899-39.243-23.086 4.7038-23.955 39.164-25.262 73.036 22.07 24.156 68.125-11.49 117.59-55.624 18.711-3.2821 35.419-10.241 50.501-20.186 36.824 5.8619 66.642 2.4544 60.819-48.106-20.977 25.188-46.589 22.96-72.438 19.328-9.102-17.833-14.672-35.337 10.208-50.003 0 0 24.767 0.8557 26.895-8.2798 2.818-12.097-27.102-25.574-27.102-25.574-8.6396-80.745-2.5164-181.19 1.8985-264.14z" style="fill-rule:evenodd;fill:#c6c6c6"/><path d="m490.13 1855.3c0.20579 10.19 2.8828 18.873 7.0848 26.624-14.264 33.97-20.44 7.728-22.357-14.922z" style="fill-rule:evenodd;fill:#c6c6c6"/><path d="m439.91 1890.1c0.20579 10.19 2.3038 15.907 6.5058 23.659-14.264 33.97-20.44 7.728-22.357-14.922z" style="fill-rule:evenodd;fill:#c6c6c6"/><ellipse transform="matrix(.99766 -.068306 .065799 .99783 0 0)" cx="395.26" cy="1547" rx="28.8" ry="17.817" style="fill-rule:evenodd;fill:#c6c6c6"/><ellipse transform="matrix(.99725 -.074065 .060677 .99816 0 0)" cx="399.69" cy="1499.6" rx="40.961" ry="27.468" style="fill-rule:evenodd;fill:#c6c6c6"/><ellipse transform="matrix(.97002 -.24304 .23 .97319 0 0)" cx="138.51" cy="1487.5" rx="31.196" ry="20.92" style="fill-rule:evenodd;fill:#c6c6c6"/><path d="m632.77 172.47c25.255-35.071 103.42-118.7 156.13-58.895-101.8 14.989-138.51 65.358-172.02 117.47 9.4128-27.289 19.456-52.652 55.81-84.18-14.264 3.7269-27.098 14.638-39.92 25.606z" style="fill-rule:evenodd;fill:#c6c6c6"/><path d="m679.6 170.51c12.434-8.8437 25.172-14.358 38.045-18.393-50.128 37.108-55.688 42.906-73.995 69.244 64.333-52.678 126.41-76.035 185.94-66.12 14.541-54.98-117.55-31.38-149.99 15.27z" style="fill-rule:evenodd;fill:#c6c6c6"/><path d="m804.02 162.71c-1.9424-0.0106-3.8373 0.0229-5.7285 0.0586l-1.4609 20.586c4.6018 0.20524 9.3716 0.55865 14.318 1.0703l3.293-21.414c-3.5443-0.16485-7.0375-0.28239-10.422-0.30078zm-10.439 0.20312c-6.9823 0.27726-13.614 0.86567-19.914 1.7344l-0.0898 18.949c5.8793-0.40402 12.056-0.54365 18.562-0.39063zm25.57 0.33789-3.3418 21.711c3.0476 0.3685 6.1376 0.77538 9.3223 1.2656 3.3668-6.9567 4.3314-14.374 2.6758-22.293-2.9397-0.27836-5.8195-0.50174-8.6562-0.6836zm-50.211 2.0898c-7.2203 1.1829-13.981 2.7472-20.363 4.6016l0.66797 17.023c6.1808-1.3069 12.692-2.3203 19.607-2.9746zm-25.035 6.0312c-7.3689 2.3823-14.194 5.1693-20.551 8.2578l1.9844 14.209c6.0932-2.2176 12.465-4.1873 19.221-5.8164zm-25.045 10.527c-7.2649 3.818-13.908 8.0111-20.047 12.412l1.4512 10.4c6.6117-3.2472 13.378-6.3557 20.504-9.1465zm-24.408 15.633c-10.4 7.9035-19.367 16.292-27.578 24.186 9.7824-4.7889 19.215-9.8893 28.893-14.771z" style="fill-rule:evenodd;fill:#c6c6c6"/><path d="m671.65 235.01c26.553-33.67 102.61-53.213 152.52-40.701 11.361 10.211 5.0188 13.845 4.0716 19.487-63.578-11.433-122.22 9.071-178.59 55.958 10.008-19.652 38.399-37.799 72.088-55.513-22.922 2.773-34.91 10.919-50.089 20.77z" style="fill-rule:evenodd;fill:#c6c6c6"/><path d="m920.04 552.23c22.247-23.501 47.412-37.801 76.165-40.793 3.1675-15.915 11.289-31.83 4.5724-47.744-34.355-6.3574-106.11 37.333-80.738 88.537z" style="fill-rule:evenodd;fill:#c6c6c6"/><path d="m924.89 565.61 2.486 11.049c24.953-23.276 66.118-47.866 91.767-16.921 18.257-40.51-17.27-40.856-47.349-28.146-21.656 9.1509-40.999 25.621-46.904 34.018z" style="fill-rule:evenodd;fill:#c6c6c6"/><path d="m929.28 590.72c-0.94044 12.772-5.0184 24.222-12.57 34.207 24.199-10.504 47.632-21.95 87.802-12.825 0.07-15.352 5.187-31.924-0.6555-45.845-18.804-10.65-42.351-6.5671-74.576 24.462z" style="fill-rule:evenodd;fill:#c6c6c6"/><circle cx="944.54" cy="596.72" r="8.163" style="fill-rule:evenodd"/><path d="m920.56 671.54c1.7215-29.144 16.438-65.705 82.423-45.141-4.6353 31.687-1.0851 56.764 5.6149 79.299-37.893 36.014-56.932 38.606-78.645 45.938 1.2871-34.521 22.779-41.565 54.536-40.763 8.7824 0.22192 14.185-17.063-0.78303-17.753-24.988-1.1517-44.764 11.758-62.446 28.526 1.1761-37.751 18.529-53.084 32.58-56.598 15.09-3.7736 39.159 2.2179 38.202-9.8011-0.95035-11.943-34.331-11.516-71.482 16.293z" style="fill-rule:evenodd;fill:#c6c6c6"/><circle cx="938.8" cy="644.69" r="8.163" style="fill-rule:evenodd"/><circle cx="943.01" cy="690.59" r="8.163" style="fill-rule:evenodd"/><path d="m908.53 768.71c34.276-2.4046 68.273-9.6329 100.28-51.232 7.19 16.742 22.461 20.003 29.136 32.44-45.666 8.3545-90.468 19.276-119.27 77.744-7.5058-17.584 4.6399-37.632-10.147-58.953z" style="fill-rule:evenodd;fill:#c6c6c6"/><path d="m928.73 827.01c12.127-29.171 60.008-66.977 107.42-64.657 25.622 1.2538 15.048 15.214 5.6439 15.838-42.724 2.5237-86.804 10.02-99.882 62-2.1605 8.5876-20.491 4.3881-13.187-13.181z" style="fill-rule:evenodd;fill:#c6c6c6"/><path d="m950.62 846.01c15.145-34.813 48.993-50.659 79.949-57.868-2.0259 11.957 2.2708 41.898 7.385 49.176-25.572 4.5295-53.383 21.725-70.348 46.064z" style="fill-rule:evenodd;fill:#c6c6c6"/><path d="m959.97 916.46c7.4489 22.357 15.615 40.398 28.569 50.613 16.254-17.039 25.445-39.064 62.321-41.545-0.4114-26.363 1.1248-75.72-0.9387-78.114-27.656-2.3907-74.024 42.356-89.951 69.046z" style="fill-rule:evenodd;fill:#01a0e4"/><path d="m996.64 977.49c11.402-19.494 24.831-37.046 53.775-39.734 4.4451 16.417 10.022 32.351 20.354 46.251-19.348 1.9154-33.58 13.032-43.99 31.022-12.945-9.1555-24.394-20.044-30.14-37.539z" style="fill-rule:evenodd;fill:#c6c6c6"/><path d="m1046.1 1065.1c-33.196-36.681 2.1624-57.443 18.894-64.23 28.325-11.49 58.356 1.2855 76.813 1.4564 10.494 4.2571 12.311 25.987 30.252 28.935-5.2784 7.8614-13.035 9.3019-19.831 8.1569-11.873-2.0004-18.941-19.312-27.493-21.125-5.5132 30.116-39.839 21.535-61.727 11.459-0.4872 5.2793 6.9867 3.7668 10.557 12.641-9.1334 5.0622-18.298 13.753-27.464 22.707z" style="fill-rule:evenodd;fill:#fbd5a6"/><g><path d="m501.06 498.06c-388.82 40.159-188.9 816.66 166.52 1202.4 244.42-425.86 222.3-1242.6-166.52-1202.4z" style="fill-rule:evenodd;fill:#dadada;stroke-linecap:round;stroke-linejoin:round;stroke-miterlimit:10.5;stroke-width:16;stroke:#000"/><path d="m494.75 541.05c-326.16 33.688-131.82 772.53 166.32 1096.1 205.03-357.23 159.84-1129.8-166.32-1096.1z" style="fill-rule:evenodd;fill:#e31e25;stroke-linecap:round;stroke-linejoin:round;stroke-miterlimit:10.5;stroke-width:16;stroke:#000"/><path d="m509.84 540.05c-4.9592 0.13734-9.9878 0.46778-15.084 0.99415 15.864 409.68 79.036 731.58 166.32 1096.1 201.83-351.65 161.19-1105.8-151.24-1097.1z" style="fill-rule:evenodd;fill:#c6c6c6;stroke-linecap:round;stroke-linejoin:round;stroke-miterlimit:10.5;stroke-width:16;stroke:#000"/><path d="m509.84 540.05c-4.9592 0.13734-9.9878 0.46778-15.084 0.99415-181.26 18.722-201.62 255.28-132.89 517.28 144.87-0.8862 297.52-36.501 418.47-81.633-20.391-241.97-109.12-441.11-270.5-436.64z" style="fill-rule:evenodd;fill:#c6c6c6;stroke-linejoin:round;stroke-miterlimit:10.5;stroke-width:16;stroke:#000"/><path d="m509.84 540.05c-4.9592 0.13734-9.9878 0.46778-15.084 0.99415 6.9738 180.09 23.104 343.21 46.391 500.45 86.798-14.324 165.63-37.78 239.14-64.789-20.392-241.97-109.07-441.13-270.45-436.66z" style="fill-rule:evenodd;fill:#e31e25;stroke-linejoin:round;stroke-miterlimit:10.5;stroke-width:16;stroke:#000"/></g></g><g transform="matrix(.32163 0 0 .32163 925.65 601.33)"><path d="m3079.8 253.7c0.7207 11.565 13.716 17.737 13.93 30.946-0.065 3.9161-12.755 20.535-13.057 26.314-1.2022 23.009 24.688 36.286 23.537 53.696-14.856 3.2824-25.578 9.31-20.622 25.75-9.3232 3.676-15.043 8.9376-19.905 14.577-23.869-2.1986-150.56-8.7774-150.57 100.88-47.044 74.119-1.0752 133.84-67.411 212.55-1.5304 5.3658 1.794 7.8882 6.6438 9.5172-46.646 50.998-119.94 140.52-100.92 179.86 10.674 14.017 19.001 19.524 31.668 27.563l-15.034 43.484c-21.86 10.812-41.56 5.8907-47.257 13.349-11.721 15.348-16.046 25.566-30.62 34.708 17.928 27.8 38.477 6.7513 49.918 0.3404 13.311 13.957 32.408 5.3588 45.798 13.355 13.986 8.3527 30.715 38.234 30.715 38.234 24.532-12.912 33.301-35.687 31.378-57.695 18.477-15.272 23.947-31.915 30.472-48.446 18.885 3.1343 36.618 4.2258 52.303 1.6865-4.1293 172.11-118.22 359.18-125.49 414.86-15.959 93.465-35.054 118.05-35.705 143.19-0.413 15.935 15.484 31.388 22.915 66.151l11.008-15.548c-9.1288 38.011-1.4737 66.072 44.93 71.16-3.192 75.472-38.682 110.22-10.94 158.27 19.643 34.023 58.794 39.085 107.93 27.034 11.147 16.402 15.196 30.651 17.983 47.053-20.545 6.9245-35.764 27.026-54.627 38.778-20.93 13.041-45.777 18.18-75.189 34.677-13.081 13.306-4.7859 32.196 20.097 43.63 40.976-2.9531 65.187-6.134 130.9-33.276l34.403 10.049c26.797 1.9879 47.854-7.3662 74.651-17.295-5.3891-28.726 9.4251-41.305-22.293-77.868l-2.4819-49.155c25.293 9.6703 40.192 2.556 50.67-11.7 21.268 59.73 50.786 51.087 79.63 48.037 1.0463 12.973 2.93 26.094-4.0707 37.638-17.726 24.884-7.3288 52.631-9.6686 79.082 22.984 6.7907 50.037 8.2733 82.502 2.6961l22.697-16.841c45.613 12.798 93.555 26.324 149.08 14.781 11.217-5.1384 13.808-15.95 11.412-30.043-21.7-12.305-48.827-16.053-67.104-25.686-22.965-12.104-37.708-29.756-75.186-42.998-0.962-11.65 3.1141-21.084 6.6399-30.761 38.168 16.828 104.25-18.514 111.81-71.894 7.0099-49.511-16.708-118.82-34.999-163.5l-0.1871-16.908s17.67 20.585 43.068-24.425c-2.365-74.639-8.6645-141.41-18.777-215.05 24.267 29.161 53.748 86.409 79.955 136.23 33.452 63.596 48.758 128.95 73.26 114.81 17.114-9.8806-4.5681-108.86-76.57-232.39-29.152-50.018-57.114-107.76-99.258-160.94-14.648-30.084-6.6102-76.342-14.429-118.8 12.36-12.477 4.4389-24.443-7.6937-28.512-0.5162-30.587 2.8981-60.278-2.2302-91.915 4.5664-2.304 6.7839-4.1006 9.2735-5.956 85.061 74.081 183.77-45.529 101.76-197.33 14.66 3.1358 55.919-7.7414-4.3635-123.01 35.326-3.1182 7.6721-66.981-13.434-129.78 12.489-27.685 15.508-90.297-68.918-84.636-33.052 2.2165-65.84-49.928-101.14-25.562-2.4603-9.0061 4.7796-21.418-11.504-28.708-0.635-15.282-10.54-27.164-38.292-32.5 1.8202-13.296 9.8679-17.371 17.864-21.523-0.022 22.934 21.785 13.845 28.648-1.8405 28.855-1.7031 32.833-15.315 35.509-40.198 1.4236-13.238 2.0513-28.595-5.0207-40.786 6.6311 0.60741 9.0528-4.364 11.634-9.1235-4.6317 25.371 8.424 40.337 16.813 58.048-14.652 9.1019-10.615 16.975-3.3615 25.26-15.763 15.817-35.336 31.346-25.498 53.79 9.2256 1.0946 27.677 2.0068 36.271 8.0907 3.1516 2.3702 12.153-17.492 10.989-38.859-1.4922-27.399-16.409-28.713-16.914-36.617-0.4592-7.177 20.944 0.89853 31.782-42.61 3.1467-12.632 3.4265-35.187-0.032-49.634 11.996-24.803 30.642-17.565 18.837-53.893 5.7246-42.255-1.949-77.494-45.988-103.16-4.9768-54.802-31.208-46.141-54.05-30.014-39.535-7.1301-40.568 16.048-62.634 25.034-76.837 31.29-47.865 38.594-86.774 69.187-27.955 21.98-68.132 30.062-74.479 67.767-1.5994 9.5011 7.3871 17.609 12.152 20.929 1.9018 14.228-9.4439 22.948-8.7343 34.335z" style="fill-rule:evenodd"/><path d="m3271.3 248.88s-4.9347-35.876-17.3-51.192c-44.843-13.728-133.24-34.235-157.39 12.33 0 4.1e-4 -41.998-15.556 62.995-71.618 18.876-10.079 21.404-31.32 42.92-47.738 15.396-11.748 28.753-8.7854 43.116-19.816 11.416-8.7672 23.349-15.424 40.514-24.657 8.0479-4.329 20.84 9.113 24.502 17.485 4.0507 9.2608-16.343 32.491-23.426 55.263-10.002 32.157 9.413 42.068-7.4108 59.355l3.8995 17.844s14.053-19.201 16.234-32.626c1.3621-8.384-4.1307-21.489-2.1477-30.088 4.3718-18.959 24.048-53.396 31.325-49.194 7.2534 4.1878-19.343 53.798-19.343 53.798 7.4347-5.4475 12.918-17.562 22.304-16.343 7.0259 0.91307-13.997 24.855-18.813 37.477 1.4976 1.2796 20.676-13.13 20.676-13.13 2.0485 2.7233-16.1 29.828-14.251 32.848 7.1818-4.7016 14.007-9.6352 22.069-13.764-5.3228 9.7078-14.443 16.326-19.244 25.106 2.349 2.4974 18.038-10.411 19.349-6.5266 2.858 8.4668-15.72 57.379-22.628 59.123-12.747 3.2187-21.001-19.657-27.345-28.423-12.457 12.972 22.082 36.8 22.46 57.401 0.2419 13.169 2.7775 42.853-14.211 51.049 0 0 2.8001-36.449-3.3414-50.67-5.0984-11.805-25.506-23.295-25.506-23.295z" style="fill-rule:evenodd;fill:#c6c6c6"/><path d="m3276.9 317.12c7.8757 4.5471 16.42 3.2036 13.669-17.237-14.433 4.1344-27.228-0.4361-38.666-10.264-18.517-15.91 8.2843-39.213-38.546-60.245-12.324-5.535-41.3 8.4756-57.392 2.0183-16.093-6.4572-28.043-26.324-28.914-36.648-20.641 17.543-15.042 28.195-31.357 36.291 0 0-7.6278 15.707-7.4233 23.434 0.2686 10.147 10.169 18.504 10.146 28.654-0.023 10.438-9.3989 18.942-9.0423 29.09 0.361 10.274 7.1194 22.116 11.826 29.178 6.3031-4.3765 9.4361-6.3222 16.276-12.578 6.3891-5.8434-5.5184-8.5407-4.6641-12.201 0.9932-4.2558 6.2596-4.493 8.9861-10.871 3.5975-8.4152 7.0535-17.038 2.1733-22.558-6.9567 4.1782-23.052 0.22696-25.13-9.7707-1.1998-5.7712-1.6958-16.283 9.0885-18.044-2.9649-4.1035-13.411 3.6671-12.29-5.4099 0.8398-6.7949 12.339-1.1931 18.981-2.0902 4.4264-0.59791 7.5715-5.9089 12.171-5.6255 9.2175 0.56808 14.563 26.138 13.474 34.717-3.4173 26.923-17.742 35.16-15.43 41.859 5.8483 16.94 13.11-0.8678 26.117 4.5142 4.9896 2.0646-4.8265 4.4959-7.1195 6.6881 9.4027 4.8456 18.234 0.32478 19.396-4.4853 0.9938-4.1151-2.7806-8.3272-7.1749-14.548 5.9857 0.75826 14.156 4.2104 16.409 12.619 0.9689 3.6163-3.4637 5.5297-4.2596 8.8389 12.605 8.4611 9.0456 14.616 13.592 21.438 12.578 18.872 14.409 39.486-9.934 37.52-1.2071-4.8308 11.304-7.6669-2.0416-17.528-4.9947-3.6906-11.859-17.922-21.235-18.007-5.0943-0.0463-9.7073 4.9665-13.944 5.173-5.7143 0.27857-17.896-10.04-17.997 3.0085-0.087 11.302 13.805 1.9086 21.432 1.6889 15.531-0.44743 17.503 21.377 0.4443 18.569-10.691-1.7597-31.774-7.1499-30.614 10.693 1.222 18.806 43.017 13.868 51.184 9.8569 44.055-21.638 66.336-18.023 73.119-33.97 10.56-24.825 11.796-34.817 30.552-45.511 1.2047-3.925-0.3437-16.621 14.14-8.2589z" style="fill-rule:evenodd;fill:#fbd5a6"/><path d="m3104.4 267.7c-4.1771-8.0328 10.996-12.856 17.923-10.329 1.5011 4.1924 0.4179 7.369 0.1155 10.853-11.623-7.8198-12.54-1.2832-18.039-0.5234z" style="fill-rule:evenodd;fill:#fbd5a6"/><path d="m3154.4 252.69c3.7978 2.5402 5.1298 5.7962 4.9788 8.1115-0.7076 9.5189-12.886 11.298-0.788 18.3 13.607-9.2782 4.8077-14.446 5.2485-18.388 0.1441-1.2883 3.0909-4.0548 3.7475-5.1533 5.2347 10.7 15.75 1.8279 23.237 1.0267 6.7019-0.71722 9.0242 4.3746 16.901 5.4176 0.2004 4.1281-6.5043 5.455-9.8148 5.1222 0.9922 4.1129 6.4284 4.786 8.4011 6.2315-8.9028 8.033-12.903-7.7148-23.578-7.7148-7.3978 0-7.867 8.0935-18.451 15.026 2.4253 0.27086 4.8216 0.81557 7.1757 0.61619 2.8359 3.565 2.8902 9.5567 7.2124 11.402-0.279-2.9731-2.0048-5.7161-1.0649-9.545 4.3422 4.2759 11.014 12.797 21.159-2.9202 7.8278 1.5656 15.078 3.8444 22.339-0.21152-23.552-5.5407-8.6963-24.463-1.3211-16.557 2.6185 0.13844 5.2855-2.7403 4.5592-4.0953-9.0542-9.8043-20.411-14.292-35.738-9.9285-19.252 5.481-17.811-5.0401-24.302-2.8862-3.3347 1.1066-6.3282 5.0605-9.9001 6.1451z" style="fill-rule:evenodd"/><path d="m3251.2 233.8c-3.341-28.667-23.794-30.312-43.264-20.416-19.959 10.145-38.192-24.442-50.66-18.865-19.075 8.5333 0.6167 34.011 40.523 23.318 14.156-3.7931 38.637 6.8905 53.4 15.963z" style="fill-rule:evenodd;fill:#d19563"/><path d="m3260 267.46c-5.0014 23.805 9.1723 18.482 22.012 15.184-8.3213-4.2458-15.188-9.6972-22.012-15.184z" style="fill-rule:evenodd;fill:#d19563"/><path d="m3323.2 375.47c1.3888-15.94 9.6918-36.327 28.234-43.416 18.818 17.053 3.8029 36.437 5.0982 53.784-4.0734-5.2027-3.3923-17.935-6.5093-23.577-5.1044 1.2121-6.9866 14.391-14.361 19.65-2.6895-8.2212 5.2588-18.789 1.8467-21.051-7.785 4.088-8.8587 11.151-14.309 14.61z" style="fill-rule:evenodd;fill:#feed01"/><path d="m3121.2 580.16c50.757-87.206 146.75-149.55 136.07-206.51-2.0913-11.154 14.538 15.361 11.407 23.042 3.3427 4.9417 7.2798 6.1119 11.401 6.1129 3.2053 39.961-19.262 56.505-31.351 81.848-8.0954-0.0583-15.146-6.7447-24.498 0.19216-22.342 16.572-84.676 101.71-90.284 142.36 30.449-38.866 73.298-103.83 90.303-112.32 6.4988-3.2452 21.78-0.71035 21.78-0.71035 35.83-26.698 47.124-57.627 62.734-87.777 78.11 39.647 78.803 27.858 129.74 38.882 19.858 4.298 23.413 33.414 18.907 45.152 0 0-13.505-29.41-32.424-29.41-40.547 0-57.609 85.077-78.568 131.59-22.557 50.064-14.439 129.26-49.397 156.2-58.582-122.51 36.935-112.73 20.713-238.53-32.466 49.107 30.599 38.71-60.343 129.65-24.706 24.706-0.4626 54.52-0.3679 114.12-15.588 8.7019-38.004 6.7914-60.322 5.0322-9.1379-15.398-15.728-31.176-36.472-44.847 7.2135 16.465 18.924 30.445 10.913 43.493-18.986 7.7814-41.941 4.5144-62.563-2.5617-1.972-57.858-0.5444-122.41 12.624-195.02z" style="fill-rule:evenodd;fill:#01a0e4"/><path d="m3083.7 772.26s19.856-131.16 16.749-193.56c1.748-18.178 0.5135-26.488-17.518-29.647-13.485-2.3625-2.0633-23.154-7.7722-34.474-3.2043-6.3536-12.514-11.516-14.542-15.629-6.0144-12.199 3.3278-28.239-1.8795-40.804-3.44-8.3008-17.101-9.3708-19.16-18.962-1.7598-8.1983 7.4479-23.568 7.4479-23.568-44.856-2.6663-86.892 7.9673-121.19 55.101 14.973-4.0346 32.86-31.659 44.021-12.446 7.5447 12.988-1.284 110.68 1.5659 167.04 2.0784 41.107 11.518 129.36 11.518 129.36 35.345 20.611 68.678 24.356 100.76 17.593z" style="fill-rule:evenodd;fill:#01a0e4"/><path d="m3003.4 585.31c-7.6519-41.182 19.88-97.269-14.929-128.85-15.124 31.696 0.6592 87.56-9.9438 123.74-8.7099 29.722 7.3727 56.811 22.985 81.744 14.144-21.915-6.1042-46.799-11.024-67.566-1.8292-7.7217 7.1488-8.3791 12.912-9.0708z" style="fill-rule:evenodd"/><circle cx="3069.4" cy="670.24" r="11.066" style="fill-rule:evenodd"/><path d="m3094.8 395.55c-1.8459-11.326-6.4851-16.972 6.0635-20.362-4.4118 10.109 0.032 22.8 5.6988 31.127 14.364 56.668 8.4408 107.48 11.122 160.78 0 0-5.6658-26.925-14.302-46.669-5.5453-12.678-14.629-17.025-16.578-27.127-2.1056-10.912 2.033-22.467 0.3904-31.568-2.7337-15.146-23.751-23.295-23.918-32.645-0.214-11.982 19.877-22.658 31.524-33.534z" style="fill-rule:evenodd;fill:#01a0e4"/><path d="m3127.8 476.81c0.9521 22.919 1.3178 45.837 0.5528 68.756 14.197-23.498 31.73-44.344 50.68-64.064-17.466-0.11929-34.78-0.8038-51.232-4.6914z" style="fill-rule:evenodd;fill:#e31e25"/><path d="m3126.3 446.81c0.2957 4.9156 0.5663 9.8305 0.8223 14.746 20.543 8.4292 43.319 6.3092 65.707 6.0195 4.8276-4.7654 9.7079-9.4893 14.625-14.184-28.47 1.7681-57.502 5.112-81.154-6.582z" style="fill-rule:evenodd;fill:#e31e25"/><path d="m3131.2 426.4c8.6286-3.7728 17.964-10.266 27.303-13.838-0.6906 5.8038 0.3191 10.301 4.8643 13.553 6.0224-7.2211 7.8219-18.294 17.05-18.769 6.412-0.3301 8.6105 12.924 14.153 15.197 1.0714-6.851-3.7068-13.157-0.723-19.025 7.1079-1.1536 14.458-3.2573 20.758-7.3096 5.3654 7.7569-13.676 25.932-5.1143 28.904 12.27 4.2605 7.1809-25.798 30.251-49.166 14.406 17.302-10.299 57.415-25.565 62.726-22.154 7.7068-81.727 10.062-92.782-9.0857-9.228-15.983 10.726-21.086 9.8058-3.1866z" style="fill-rule:evenodd;fill:#fbd5a6"/><path d="m2954.8 468.47c-0.5919-0.0828-1.2188-0.0658-1.8828 0.0586-5.9502 1.1142-14.859 10.777-27.865 33.16-25.876 44.533-22.803 77.735-25.814 126.97-2.0586 33.654-36.209 89.49-36.209 89.49s14.972-1.8329 0.9102 12.75c-18.148 18.82-37.321 46.859-54.148 74.754 21.547 0.10825 43.446-2.9343 58.981 8.2113-32.765 3.0498-55.198 2.5807-76.51 22.228-28.712 26.469-41.3 85.446 0.4824 86.848l27.512-52.496c50.355-33.67 80.812 6.3965 83.049 58.207l-16.166 32.861c23.717 0 54.021 10.19 66.326-15.726 4.7088-9.9174 4.3627-21.383 5.6307-32.676 1.9167-17.07-3.4477-44.949-54.646-79.572 23.281-2.682 33.835 20.403 57.281 17.984-0.2746-50.811-5.488-94.682-5.0996-106.31-16.204-5.5458-35.138-19.68-52.91-16.871 15.601-7.3369 31.043-7.2776 49.394-4.877 19.196-39.091-16.229-88.718 2.0918-129.7 2.386-23.398 17.944-122.73-0.4062-125.3z" style="fill-rule:evenodd;fill:#e31e25"/><path d="m2779.8 978.99 17.166-38.254c32.952-8.2653 53.131 8.6087 69.816 32.359-1.5474 12.085-14.892 24.674-22.442 37.015-21.575-28.032-43.059-29.989-64.541-31.12z" style="fill-rule:evenodd;fill:#01a0e4"/><path d="m2803.5 926.31 24.504-49.246c50.199-35.113 63.008 39.92 63.418 51.747l-13.819 26.233c-14.525-15.864-30.661-28.373-74.102-28.733z" style="fill-rule:evenodd;fill:#01a0e4"/><path d="m2695.4 1027.1c14.134-3.9373 22.119-17.113 27.919-29.073 18.677-1.3954 53.012-13.986 79.943-0.9958 36.388 17.552 43.826 37.404 18.127 63.294-7.7083-8.3481-16.553-16.062-27.046-22.857 1.4838-5.1305 7.0131-8.8292 12.129-12.674-32.484 13.107-55.622 12.75-62.861-10.514-16.074 15.552-32.148 33.289-48.212 12.82z" style="fill-rule:evenodd;fill:#fbd5a6"/><path d="m2982.7 785.73c-6.1157 12.453 3.3529 26.084 14.573 31.955 13.014 6.6404 26.807 13.914 39.614 19.813 17.017 7.8386 38.553 6.6883 38.7 20.79 0.1456 13.992-26.463 8.5842-41.728 5.3282-15.442-3.2938-30.39-24.556-47.305-20.608-15.638 3.6504-14.95 34.039 33.066 41.735 11.661 1.8692 54.17-7.3117 48.203 16.232-18.714 13.029-32.305 1.0935-55.301-0.13493-9.5814-0.51186-27.043-23.153-31.925 4.5472-3.0741 17.441 24.641 26.506 39.854 30.075 22.044 5.1718 39.789 11.404 63.022 12.918 7.6743 0.50026 11.731 0.4219 17.249 1.2763 0.3554-1.1484 2.2528-4.8016 4.3817-5.1378-3.7407-5.9772-5.0615-14.625-7.12-21.156-6.0233-19.11 11.863-43.463 29.722-47.608 14.796-4.2055 35.783-0.61683 41.164 15.677 1.8745 5.6757 6.5838 16.62-13.483 32.058 18.655-3.3469 13.524-20.111 43.256 0.55394 0 0 7.2437 1.5012 21.88 7.2794 8.4189-14.336 36.908-16.88 53.215-17.216 7.114-11.75 23.588-31.242-15.232-25.058-12.916 2.0573-33.621 14.454-39.118-0.68462-4.4692-12.308 21.618-10.066 32.792-9.2733 12.052 0.85486 34.707-9.2044 37.474-23.421 3.0888-15.87-14.697-28.541-29.748-19.56-14.07 8.3949-32.968 6.1732-48.294 7.0652-22.09 1.2856-19.666 21.724-23.109 32.527-14.653-11.005-13.041-27.405-15.585-38.387-4.9013-32.439-59.804-50.314-74.6-34.567-21.595 22.983 37.638 35.791 44.695 55.157-27.582 27.522-53.964-43.212-80.323-51.193-26.369-7.9831-54.926-8.8615-79.987-20.982z" style="fill-rule:evenodd;fill:#e31e25"/><path d="m3429.7 514.9c-22.345 1.6518-24.555 29.364-34.155 45.409-14.019 23.431-28.792 47.46-34.004 75.214-2.0246 10.779 2.0693 34.883 13.012 17.935 0.5932-14.09 25.99-8.0524 11.888 4.37-12.133 16.279-19.944 35.884-26.696 54.734 9.3591 12.921 32.911-7.838 47.142 4.6454 16.543 16.319-16.241 16.996-26.679 16.821-27.043 6.0492-46.142 29.071-59.789 51.788 11.756 21.702 51.522-15.879 75.6-17.842 24.275-1.9797 58.389 33.97 45.627 48.814-18.81-8.2861-30.633-32.879-51.696-33.144-37.067-0.46668-65.044 34.819-79.526 67.84-5.898 13.449 4.6584 41.048 18.903 26.436 18.701-17.932 45.919-29.017 71.64-20.979 27.291 8.5282 35.639 41.148 30.203 66.743-4.6982 22.122-25.179 37.924-41.683 50.937 6.9961 15.858 38.019 19.029 56.434 16.827 29.192-3.4906 43.694-34.026 48.485-59.907 7.6263-41.197 7.2698-85.951-13.85-123.34-4.7108-18.322-31.889-46.119-23.824-54.185 9.6376-9.6376 23.407 36.417 38.795 16.896 9.8236-12.462-0.7894-32.052-4.6689-47.273-12.697-49.816-26.633-50.217-35.356-77.553-4.148-12.999 18.79-11.855 16.971 1.5334 14.758 6.1866 7.1321-22.944 3.5792-31.203-10.503-24.415-14.046-103.91-46.354-101.52z" style="fill-rule:evenodd;fill:#e31e25"/><path d="m3233.2 936.06c33.653 19.673 41.386 48.599 22.635 86.982 70.92-7.9982 70.119-41.005 60.124-70.129-9.1381-26.628-46.869-32.757-82.759-16.853z" style="fill-rule:evenodd;fill:#01a0e4"/><path d="m3296.3 919.89c55.92-56.399 100.49-68.113 117.64-38.402 26.638 46.138-10.351 73.583-75.716 111.58-1.6306-23.881 2.3494-47.529-41.927-73.177z" style="fill-rule:evenodd;fill:#01a0e4"/><path d="m3109.8 980.53c11.061-6.0334 25.453-3.8856 38.17-3.8856 12.016-2.3505 23.915-21.629 14.883-30.899-1.7453-13.382 5.5204-20.711 18.414-20.153 19.699 15.097 48.841 16.349 64.454 35.991 7.7278 17.324 1.2695 45.878-14.343 55.815-13.891 13.533-38.47 21.958-55.35 27.695-12.765 2.5139-25.708 0.3455-35.214-3.2726-1.3597-4.0076 0.3429-5.6898 2.5318-8.2274 11.104-1.3983 21.126 2.0278 32.218-3.8793-4.264-1.7122-14.114 0.3114-25.475 0.5613-9.1375-1.4504-19.503-1.9175-24.524-6.3095-1.4003-1.5197-0.8173-7.2152 1.7232-7.9255 12.578-3.4206 35.99 4.2006 46.858-4.8326-9.4077 0.5515-24.702 1.9283-29.138 1.9283-2.3588 0-19.326-2.1942-27.512-3.1055-4.4599-2.9343-4.7586-9.3952 0.306-11.361 2.3034-1.7224 16.514-0.89951 28.961-0.70215 10.584 0.16783 21.73-3.289 22.381-8.713-3.6913-2.1127-18.095-1.2452-58.373-0.71608-4.8415-0.11552-2.7222-6.3147-0.9725-8.0088z" style="fill-rule:evenodd;fill:#fbd5a6"/><path transform="rotate(-25.337)" d="m2493 2313.6c-1.7922-0.8214-3.8482-1.2876-6.0376-1.2876l-71.373-3e-4c-7.006 0-12.645 4.7702-12.645 10.696 4.2374 22.925 67.438 12.129 84.018 10.696 7.006 0 12.646-4.7719 12.646-10.698 0-4.0738-2.6656-7.5995-6.6082-9.4066zm-13.75 25.622c-5.9001 6.3661-42.633 5.5438-53.152 4.3502 17.382 46.585 33.698 100.83 45.916 153.59 33.067 142.78 67.232 290.68 59.253 471.66 42.428-117.79 15.61-367.85-52.017-629.6z" style="fill-rule:evenodd;fill:#feed01"/><path d="m3102 976.56c-7.3158 4.1717-9.0314 4.3234-12.037 4.5703-5.8379 41.09 26.308 90.823 68.641 113.11-46.165 1.9937-57.231-51.224-83.59-77.826-10.625 34.786 2.7239 70.767 1.1172 101.35-2.9595 42.329-17.727 77.814-19.307 120.22-2.1393 57.437 10.483 117.46 11.479 172.05 1.2342 67.654-5.5749 126.28-7.3946 193.92-0.4078 15.161-10.992 34.774-0.2675 45.498 9.7268 9.7267 25.76-2.3803 41.268-0.2441 16.113 2.2196 43.415 13.879 52.982 13.432 17.045-0.7975 28.094-15.534 43.334-14.762 47.476 2.4063 81.075 42.748 177.1-2.9922 7.8929-29.609-2.1655-216.1 3.5468-319.42 25.251 70.589 6.8823 184.5 21.123 268.84 10.288 12.488 16.254-3.9259 23.5-12.9l-20.824-229.77c-15.156-23.64-31.018-46.415-47.44-68.582-14.758 116.83 5.8554 175.33-25.211 242.04 0 0 3.1221-78.991 4.9004-185.9 0.4975-29.914-0.028-56.964 1.1308-81.426-47.425-61.126-99.062-117.95-152.47-175.27-21.841 10.854-37.154-17.276-19.115-27.717-21.681 4.7612-42.304-5.9099-36.604-17.1-10.057-0.5479-15.253-6.9821-14.441-17.42-8.2473-4.0567-14.893-14.494-8.2579-23.592-6.2563-4.8635-10.516-12.426-3.166-20.105z" style="fill-rule:evenodd;fill:#01a0e4"/><path d="m3023 959.37c-3.4326 32.032 3.7804 43.565-17.152 43.565-22.658 0-13.724-18.591-12.382-43.378-4.5417 0.41138-10.029 1.9406-15.66 3.9492-2.4852 27.907-11.754 58.159-15.616 87.584-3.7269 28.392 29.649 46.443-11.447 80.189 8.5958-31.206-18.323-64.046-9.6222-90.148 5.609-16.827 15.602-31.364 21.354-48.305 2.4821-7.3117-1.6606-14.31-4.461-20.764-7.5638 3.7023-13.545 6.959-13.545 6.959s-67.29 404.62-131.77 620.58c-11 36.842 18.707 40.783 35.436 41.926 19.055 1.302 30.744-10.928 46.863-7.9102 72.203 13.517 102.13 25.791 112.35 10.549 7.8168-11.661-0.4085-39.424-2.2149-86.537 0 0 14.307-70.064 17.643-109.93 2.3047-27.545-5.0768-59.28-1.7402-93.695 6.0894-62.811 23.274-133.52 26.137-196.69 2.1104-46.575-4.9903-90.113-2.4922-122.42 2.9392-38.015 15.619-61.961 15.619-61.961s-13.796-13.555-37.296-13.561z" style="fill-rule:evenodd;fill:#01a0e4"/><path d="m2799.8 1568c32.604-89.454 30.123-183.18 60.446-286.02-50.97 91.644-43.836 160.52-79.458 250.16 3.1954 17.977 8.653 34.965 19.011 35.856z" style="fill-rule:evenodd;fill:#01a0e4"/><path d="m3373.3 1092.8c4.9847 9.7354-24.374 21.301-67.745 17.617l-49.982-58.435 4.7317-8.7073c19.997 25.204 40.677 37.933 60.996 42.754 25.572 6.0679 48.992 0.8957 52 6.7707z" style="fill-rule:evenodd;fill:#feed01"/><path d="m3314.9 1123.3 61.139 80.31c-5.1314-27.585-5.0991-57.968-5.026-88.373-32.155 14.699-39.195 7.1421-56.113 8.0627z" style="fill-rule:evenodd;fill:#01a0e4"/><path d="m3269.6 1036c33.575-3.3604 66.203-14.357 91.404-41.246 1.7756 28.4 0.2334 56.42-0.6104 84.519-31.253 2.7825-61.754-7.5318-90.794-43.274z" style="fill-rule:evenodd;fill:#01a0e4"/><path d="m3180.6 1093.5c-8.9789-0.2933-6.6029 13.317-3.7352 19.685 9.1417 20.299 24.722 36.391 39.112 52.867 8.1438 9.3244 18.776 18.484 31.382 19.756 8.2016 0.8278 8.8407-11.716 1.5879-14.155-20.176-6.7865-36.936-21.53-49.309-38.593-7.608-10.492-9.4778-39.247-19.038-39.559z" style="fill-rule:evenodd"/><path d="m3050.3 1414c-68.912 212.79 3.4287 214.39-46.279 244.31-40.558 24.406-97.371-32.05-144.96-5.7871 6.4992 57.491-44.357 120.71-8.1446 159.93 38.872 42.1 114.63 1.6501 171.83 4.9511 25.745 1.4855 56.685 18.452 77.072 6.6817 23.877-13.785 16.861-101.12 22.855-156.77-4.9862-1.8139-9.6546-3.948-14.812-4.4474-1.9073 9.5266-5.3755 19.694-7.829 27.82-5.7881 18.972-7.8331 38.744-10.162 58.381-0.9024 7.6088 1.5126 14.654 2.9258 21.875 1.2888 6.5847-6.1412 13.264-11.662 9.3789-6.0989-4.2918-8.5813-12.715-7.9883-19.996 1.6275-19.983 10.751-38.377 14.904-57.861 1.0879-5.1038 2.8226-10.367 1.9824-15.588-0.8676-5.3912-7.3302-8.8381-11.9-4.5644-13.68 12.793-22.546 29.996-37.207 41.799-3.4936 2.8124-9.3836 8.5736-13.238 4.4024-5.4782-5.9281-5.5638-16.376-1.1035-23.232 8.1172-12.477 23.149-17.346 34.602-26.078 3.0754-2.3447 13.281-11.562 12.412-15.49-11.21-0.5454-20.485-3.2839-25.58-13.92-12.102-25.265 0.3809-33.213 1.1035-52.525 1.255-33.543-10.644-70.071 1.1738-183.27z" style="fill-rule:evenodd;fill:#e31e25"/><path d="m2889.2 1669.8c-15.255 17.266-13.221 49.438-21.214 70.681-6.4823 17.228-14.091 36.121-8.8669 54.886 2.0921 7.5154 7.7179 14.407 15.985 14.664 17.507 0.5439 32.072-11.823 48.462-16.395 7.3581-2.0527 13.773 7.8554 21.233 10.612 11.194 4.1358 23.493 5.0073 35.082 2.6465 16.555-3.3723 32.954-12.294 50.096-9.3453 10.01 1.7221 18.16 10.726 29.555 8.0501 6.5911-1.5479 17.537-9.8297 5.9919-11.917-9.4744-1.7126-19.073-1.752-26.826-8.9352-7.7791-7.2078-20.063-3.2348-29.515-1.1489-18.05 3.9833-36.658 10.719-55.286 5.4138-14.054-4.0022-26.253-12.905-34.975-24.48-5.5876-7.4152-18.735 0.8168-9.6788 7.8914 7.0793 5.5305 8.5254 13.468-1.2582 17.135-9.6863 3.6312-19.684 10.357-29.882 7.4176-10.144-2.9236-8.0187-17.143-5.603-25.078 13.169-43.256 29.628-68.875 16.7-102.1z" style="fill-rule:evenodd"/><path d="m3390.1 1661.1c-10.721 6.919-21.528 16.252-18.148 31.298 4.4432 19.779 7.2246 44.434-6.5803 60.591-6.1852 7.239-30.262 13.288-32.696-0.1754 3.7684 0.02 6.4978-1.1975 8.5355-3.1638 9.1526-12.318 11.324-43.438 8.5833-55.314-8.4863-16.296-20.803 4.2861-32.374 2.1708-15.407-2.8165-27.747-18.508-38.718-3.5421 2.934 8.4405 8.9451 27.464-7.1603 24.709-16.515-4.2494-3.6852-22.823-19.173-30.3-13.296-6.419-32.19-16.586-42.576-10.59-14.696 8.4844 25.895 36.085 8.5808 45.237-24.791 13.105-41.911-36.529-50.404-50.56-10.241 4.6187-24.699-1.1233-32.434 0.095-3.7057 46.248-1.9931 120.25-0.4715 164.37 37.988 63.22 96.424-0.4876 136.33 0.6759 51.567 1.5035 70.704 42.319 126.71-15.336 14.534-14.962 21.92-38.189 16.731-57.844-8.3519-31.636-8.1674-78.791-24.732-102.32zm-242.59 54.992c8.5167 8.5868 4.7759 23.626 9.6025 34.501 5.7192 24.382 22.945 45.033 45.411 55.894 9.4419 7.3924 21.679 6.3742 31.673 0.8283 16.306-7.7652 31.884-23.445 51.412-18.382 23.734 7.2063 38.394 32.078 63.747 35.33 15.844 0.464 20.062-18.111 23.786-30.117 1.752-10.296 4.4233-30.205 19.475-21.335 2.6497 15.688-8.181 29.616-17.441 41.155-8.0921 8.5846-17.309 17.945-29.232 20.379-18.705 0.5787-33.693-12.779-49.961-20.134-14.591-7.0887-32.002-14.594-47.91-6.9714-14.838 5.7312-30.29 17.456-46.846 10.73-23.422-9.1105-48.371-25.865-52.674-52.534-2.015-15.788-5.3742-31.961-3.2325-47.824l0.8298-1.0978z" style="fill-rule:evenodd;fill:#e31e25"/><path d="m3013.3 1828.4c-18.742 0.1737-36.983 3.5366-54.77 9.6113 18.144 29.948 11.557 36.461 16.314 52.83-38.65 21.592-54.069 46.125-138.49 72.898-0.8182 11.198 3.9976 21.097 19.805 29.266 56.625-2.0422 107.61-28.595 158.24-47.902 4.2593 8.4161 11.427 20.09 11.83 28.506 19.192-2.9795 38.691-5.1147 56.299-12.43 4.6072-23.88-2.112-48.455-20.557-73.75l-4.002-53.422c-2.0638-0.5356-4.1201-1.0256-6.1719-1.4824 9.8378 23.501-35.089 60.244 1.4649 76.086-32.091 0-33.324-20.799-21.451-44.545 6.3056-12.611-8.8192-23.49-9.3769-35.467-3.0564-0.1406-6.103-0.2273-9.1329-0.1992z" style="fill-rule:evenodd;fill:#c6c6c6"/><path d="m3271 1849.2c-6.1843 0.1664-12.149 1.0867-17.951 2.5566 4.7551 27.09-32.552 55.812 0.8769 76.736-10.129 2.1035-19.775 1.2242-29.715-4.127-2.7206-21.441 27.234-42.626 13.377-67.338-9.235 3.9024-18.15 8.8966-26.98 14.18l1.2265 33.902c-19.08 22.108-14.043 46.058-14.043 73.846 19.323 4.4688 41.108 5.2382 62.142-0.1387l-0.5097-15.504c40.527-2.7617 100.9 28.872 168.82 21.909 9.5583-2.0924 16.266-15.148 16.451-22.281-21.93-8.7652-53.38-12.406-75.178-22.839-20.789-9.9505-9.4855-12.961-68.785-40.307-8.8344-11.051 0.8467-29.548 2.3613-44.762-11.423-4.4162-22.045-6.1044-32.094-5.834z" style="fill-rule:evenodd;fill:#c6c6c6"/><path d="m3093.1 963.31c7.979-0.58415 15.985-4.3448 15.776-8.434l15.31 11.689c-5.0694 2.4739-23.695 11.992-31.086-3.2547z" style="fill-rule:evenodd;fill:#feed01"/><path d="m3137 906.91c-5.5556 7.4332 1.869 11.63 11.11 10.241 8.0505-1.2095 14.428-12.706 14.186-19.98-0.2538-7.6202-11.068-18.552-32.003-13.341-39.289 9.7812-9.9007 64.11-10.726 64.916l23.357 17.702c5.6915-1.3147 9.8136-4.9846 11.85-10.031-3.7106-7.1665-6.0209-13.956-3.6938-21.907-3.9048-13.47-21.837-8.6219-26.079-18.48-2.9863-6.9402 3.343-17.862 11.998-9.1207z" style="fill-rule:evenodd;fill:#feed01"/><path d="m3322.1 74.277c18.869-11.083 15.107 19.412 18.225 47.413 2.2706 20.39 13.179 37.33 14.674 46.353 8.3926 50.634-36.398 66.621 3.0382 130.5 23.971-42.808 8.2994-52.7 13.571-80.573 3.0643-16.202 16.735-19.531 20.958-29.991 1.8987-4.7027-3.2968-11.573-3.2323-20.443 0.6685-91.942-37.292-74.288-45.726-95.594-7.4901-18.922 5.9367-46.952-34.769-28.912 6.2904 2.8374 21.576 13.157 13.26 31.245z" style="fill-rule:evenodd;fill:#e31e25"/></g></g></svg>
