<?xml version="1.0" encoding="UTF-8" standalone="no"?>
<!-- Created with Inkscape (http://www.inkscape.org/) -->
<svg
   xmlns:dc="http://purl.org/dc/elements/1.1/"
   xmlns:cc="http://web.resource.org/cc/"
   xmlns:rdf="http://www.w3.org/1999/02/22-rdf-syntax-ns#"
   xmlns:svg="http://www.w3.org/2000/svg"
   xmlns="http://www.w3.org/2000/svg"
   xmlns:sodipodi="http://sodipodi.sourceforge.net/DTD/sodipodi-0.dtd"
   xmlns:inkscape="http://www.inkscape.org/namespaces/inkscape"
   width="350"
   height="436.18454"
   id="svg2"
   sodipodi:version="0.32"
   inkscape:version="0.45.1"
   sodipodi:docbase="C:\Documents and Settings\Peti\Asztal"
   sodipodi:docname="Kursk_city_COA.svg"
   version="1.0"
   inkscape:output_extension="org.inkscape.output.svg.inkscape">
  <sodipodi:namedview
     id="base"
     pagecolor="#ffffff"
     bordercolor="#666666"
     borderopacity="1.0"
     inkscape:pageopacity="0.0"
     inkscape:pageshadow="2"
     inkscape:zoom="1.5370721"
     inkscape:cx="-12.014667"
     inkscape:cy="275.18804"
     inkscape:document-units="px"
     inkscape:current-layer="layer1"
     showgrid="true"
     inkscape:grid-points="true"
     objecttolerance="10000"
     guidetolerance="10000"
     showguides="true"
     inkscape:guide-bbox="true"
     inkscape:window-width="1280"
     inkscape:window-height="737"
     inkscape:window-x="0"
     inkscape:window-y="22" />
  <defs
     id="defs4" />
  <metadata
     id="metadata7">
    <rdf:RDF>
      <cc:Work
         rdf:about="">
        <dc:format>image/svg+xml</dc:format>
        <dc:type
           rdf:resource="http://purl.org/dc/dcmitype/StillImage" />
      </cc:Work>
    </rdf:RDF>
  </metadata>
  <g
     inkscape:label="1. réteg"
     id="layer1"
     inkscape:groupmode="layer"
     transform="translate(-46.10931,-108.79609)">
    <path
       style="fill:#d1d3d4;fill-opacity:1;fill-rule:evenodd;stroke:#000000;stroke-width:4.94751024;stroke-linecap:butt;stroke-linejoin:round;stroke-miterlimit:4;stroke-dasharray:none;stroke-opacity:1"
       id="path6122"
       sodipodi:nodetypes="cccccccccc"
       d="M 218.97305,542.50687 C 218.01007,510.07057 180.93906,510.86466 180.93906,510.86466 C 180.93906,510.86466 86.889892,510.83576 86.889892,510.83576 C 86.889892,510.83576 48.639601,509.83997 48.639601,472.45275 C 48.639601,435.06553 48.59908,111.3085 48.59908,111.3085 L 393.6033,111.3085 L 393.63555,472.46607 C 393.63555,509.85329 355.38526,510.84908 355.38526,510.84908 C 355.38526,510.84908 257.00703,510.75088 257.00703,510.75088 C 257.00703,510.75088 219.93602,510.07057 218.97305,542.50687 z " />
    <path
       style="fill:#0095da;fill-opacity:1;fill-rule:evenodd;stroke:#000000;stroke-width:4.94751024;stroke-linecap:butt;stroke-linejoin:miter;stroke-miterlimit:4;stroke-dasharray:none;stroke-opacity:1"
       id="path3160"
       d="M 48.584819,111.26984 C 48.584819,111.26984 48.580874,171.46457 48.584819,203.57184 L 339.52162,510.81996 C 343.80544,510.82424 355.36912,510.81996 355.36912,510.81996 C 355.36912,510.81996 393.63499,509.82533 393.63502,472.4381 L 393.63502,404.6031 L 393.59636,404.56445 L 112.7865,111.26984 L 48.584819,111.26984 z " />
    <path
       style="fill:#bcbdc0;fill-opacity:1;fill-rule:nonzero;stroke:none"
       d="M 308.89782,431.97736 C 307.11808,428.85686 301.99029,423.84087 297.50271,420.83072 C 278.83452,408.30856 275.31537,399.9183 284.92213,390.83644 C 290.80214,385.27773 291.26074,379.08446 285.89686,377.67293 C 279.77176,376.06112 281.25707,374.25781 291.12459,371.32594 C 299.04717,368.97198 300.92148,369.00133 305.33183,371.54845 C 310.08293,374.29236 310.63484,374.186 313.8412,369.9085 C 320.40003,361.15855 336.88946,366.60846 348.82751,381.47174 C 362.3161,398.26553 362.44963,404.35876 349.30626,403.31715 C 345.52467,403.01747 342.43063,403.33907 342.43063,404.03181 C 342.43063,404.72456 344.24673,409.06648 346.46641,413.68054 C 350.23083,421.50576 351.08334,433.62678 347.79161,432.52263 C 346.98745,432.25289 343.03983,432.01216 339.01912,431.98765 C 332.77218,431.94958 331.26673,431.04032 328.67042,425.73732 C 324.31112,416.83329 321.55434,416.91973 318.83724,426.04562 C 315.4975,437.26278 312.82268,438.85909 308.89782,431.97736 z "
       id="path16147"
       sodipodi:nodetypes="cssssssssssssssc" />
    <path
       style="fill:#bcbdc0;fill-opacity:1;fill-rule:nonzero;stroke:none"
       d="M 217.13506,333.54104 C 215.35531,330.42053 210.22753,325.40455 205.73995,322.3944 C 187.07176,309.87224 183.55261,301.48198 193.15937,292.40012 C 199.03938,286.8414 199.49797,280.64813 194.13409,279.23661 C 188.009,277.6248 189.49431,275.82149 199.36183,272.88962 C 207.2844,270.53566 209.15872,270.56501 213.56907,273.11212 C 218.32017,275.85604 218.87208,275.74968 222.07844,271.47217 C 228.63726,262.72223 245.1267,268.17213 257.06474,283.03542 C 270.55334,299.82921 270.68687,305.92244 257.5435,304.88083 C 253.76191,304.58115 250.66787,304.90275 250.66787,305.59549 C 250.66787,306.28824 252.48397,310.63016 254.70364,315.24422 C 258.46807,323.06944 259.32057,335.19045 256.02885,334.08631 C 255.22469,333.81657 251.27707,333.57583 247.25635,333.55133 C 241.00942,333.51326 239.50396,332.60399 236.90766,327.30099 C 232.54836,318.39697 229.79158,318.4834 227.07448,327.6093 C 223.73474,338.82645 221.05992,340.42277 217.13506,333.54104 z "
       id="path16145"
       sodipodi:nodetypes="cssssssssssssssc" />
    <path
       style="fill:#bcbdc0;fill-opacity:1;fill-rule:nonzero;stroke:none"
       d="M 124.3724,238.19966 C 122.59266,235.07915 117.46488,230.06317 112.9773,227.05302 C 94.309101,214.53086 90.789951,206.14059 100.39672,197.05873 C 106.27673,191.50002 106.73532,185.30675 101.37144,183.89523 C 95.24635,182.28342 96.731654,180.48011 106.59918,177.54824 C 114.52175,175.19428 116.39606,175.22363 120.80641,177.77074 C 125.55752,180.51466 126.10943,180.4083 129.31578,176.13079 C 135.87461,167.38085 152.36404,172.83075 164.30209,187.69404 C 177.79069,204.48783 177.92422,210.58106 164.78085,209.53945 C 160.99926,209.23976 157.90522,209.56137 157.90522,210.2541 C 157.90522,210.94685 159.72131,215.28878 161.94099,219.90284 C 165.70541,227.72805 166.55792,239.84907 163.26619,238.74492 C 162.46204,238.47519 158.51442,238.23445 154.4937,238.20995 C 148.24676,238.17188 146.74131,237.26261 144.14501,231.95961 C 139.7857,223.05559 137.02893,223.14202 134.31183,232.26792 C 130.97209,243.48507 128.29726,245.08139 124.3724,238.19966 z "
       id="path15174"
       sodipodi:nodetypes="cssssssssssssssc" />
    <path
       style="fill:#000000;fill-opacity:1;fill-rule:nonzero;stroke:none;"
       d="M 108.76887,297.44686 C 107.29132,294.87239 103.0342,290.73412 99.308594,288.25069 C 83.810134,277.91968 80.888514,270.99758 88.864114,263.50489 C 93.745734,258.91885 94.126464,253.80929 89.673334,252.64477 C 84.588244,251.31499 85.821354,249.82723 94.013434,247.40839 C 100.5908,245.46633 102.14687,245.49054 105.80837,247.59196 C 109.75277,249.85573 110.21096,249.76798 112.8729,246.23897 C 118.31808,239.02012 132.00772,243.51637 141.91876,255.77885 C 153.11708,269.63402 153.22794,274.66103 142.31622,273.80169 C 139.17672,273.55444 136.60804,273.81977 136.60804,274.3913 C 136.60804,274.96282 138.11577,278.54499 139.95855,282.35166 C 143.08381,288.8076 143.79156,298.80765 141.05875,297.89671 C 140.39114,297.67417 137.1138,297.47556 133.77577,297.45535 C 128.58953,297.42394 127.33969,296.67378 125.18422,292.29871 C 121.5651,284.95274 119.2764,285.02405 117.02065,292.55307 C 114.24798,301.80742 112.02732,303.1244 108.76887,297.44686 z M 113.24991,288.29174 C 112.80064,287.12095 111.53624,286.16303 110.44013,286.16303 C 108.89008,286.16303 108.8788,286.59462 110.38934,288.10516 C 113.19713,290.91295 112.78152,293.40664 109.90381,291.01835 C 106.95798,288.57353 106.77536,289.94013 109.47107,294.25665 C 111.43392,297.39967 111.4869,297.39451 112.76639,293.93573 C 113.4816,292.00232 113.69919,289.46253 113.24991,288.29174 z M 139.84492,294.25522 C 139.84492,293.36508 138.38832,292.63678 136.60804,292.63678 C 134.82776,292.63678 133.37116,292.04769 133.37116,291.32768 C 133.37116,290.60767 132.27693,288.60485 130.93953,286.87697 C 128.91253,284.25814 128.67204,284.20667 129.49425,286.56764 C 130.84042,290.43314 129.0319,290.15136 126.89741,286.16303 C 125.43306,283.42686 125.6666,282.92615 128.40722,282.92615 C 130.27978,282.92615 132.66932,284.80625 134.0639,287.37686 C 137.25207,293.25358 137.31993,290.6158 134.13882,284.46422 C 132.78075,281.838 132.33871,279.68928 133.1565,279.68928 C 133.9743,279.68928 135.77622,282.42039 137.16077,285.75842 C 138.54531,289.09645 139.71565,290.96461 139.76152,289.90988 C 139.9484,285.61258 136.47734,279.80713 128.50695,271.08625 C 123.01388,265.07595 120.99681,261.88646 122.68892,261.88646 C 124.11345,261.88646 125.27897,261.15816 125.27897,260.26802 C 125.27897,259.37788 126.71271,258.64958 128.46505,258.64958 C 130.64283,258.64958 131.35409,257.87548 130.71251,256.20357 C 130.04088,254.45332 130.51568,254.04221 132.38175,254.75828 C 134.06565,255.40446 134.9896,254.8989 134.9896,253.33136 C 134.9896,248.42498 130.36613,249.13867 126.12445,254.6998 C 121.76407,260.41655 118.26984,261.71136 116.20758,258.37454 C 115.42073,257.10139 115.91965,256.81964 117.7305,257.51453 C 119.51812,258.2005 120.42366,257.71668 120.42366,256.07561 C 120.42366,254.60007 121.18708,254.07506 122.31713,254.77347 C 123.56637,255.54554 123.8798,255.08165 123.23834,253.41002 C 122.59536,251.73445 123.37957,250.58515 125.5538,250.01658 C 130.52266,248.71719 127.46237,245.70207 121.17467,245.70207 C 117.0601,245.70207 114.96379,246.73862 112.99186,249.74817 C 110.09314,254.17217 103.67988,255.51677 105.27244,251.36661 C 105.78481,250.0314 105.3978,248.93895 104.41243,248.93895 C 103.42705,248.93895 102.62083,250.0314 102.62083,251.36661 C 102.62083,254.50385 98.166644,254.54077 97.479584,251.40922 C 97.191154,250.09461 96.160284,249.54983 95.182674,250.1954 C 93.902724,251.04061 93.951914,254.04733 95.359414,260.99756 C 97.647684,272.29715 103.57416,278.40379 115.51253,281.76338 C 121.05776,283.32386 123.80754,285.30046 126.76396,289.85113 C 129.76066,294.4638 131.74974,295.87366 135.26076,295.87366 C 137.78205,295.87366 139.84492,295.14536 139.84492,294.25522 z M 130.13429,291.01835 C 130.13429,289.83149 130.61982,289.34596 131.21325,289.93939 C 131.80667,290.53281 131.80667,291.50388 131.21325,292.09731 C 130.61982,292.69073 130.13429,292.2052 130.13429,291.01835 z M 106.49903,285.20776 C 108.384,280.29561 104.41266,278.09449 99.391844,281.2686 C 97.316104,282.58086 97.431154,283.14526 100.20106,285.23844 C 104.33653,288.36354 105.28982,288.35889 106.49903,285.20776 z M 117.18678,285.52697 C 117.18678,285.17713 116.05651,284.45718 114.67506,283.92707 C 113.23477,283.37438 112.58514,283.6457 113.15214,284.56313 C 114.10258,286.10098 117.18678,286.83776 117.18678,285.52697 z M 96.823934,280.32534 C 100.00901,279.10311 100.17162,275.03463 97.082774,273.84932 C 95.817114,273.36365 93.136824,273.84652 91.126564,274.92238 C 87.602654,276.80832 87.580184,276.95793 90.500204,279.0931 C 94.022074,281.66836 93.559164,281.57815 96.823934,280.32534 z M 93.772704,269.89244 C 94.346224,268.96446 94.371604,267.0485 93.829094,265.63475 C 92.947374,263.33702 92.502864,263.37186 89.639584,265.96309 C 87.877864,267.55743 86.436454,270.23123 86.436454,271.90487 C 86.436454,274.41728 86.985114,274.65421 89.583194,273.26376 C 91.313904,272.33752 93.199184,270.82042 93.772704,269.89244 z M 135.79882,269.97865 C 134.50459,267.88454 131.75273,267.88454 131.75273,269.97865 C 131.75273,270.86879 132.88815,271.59709 134.2759,271.59709 C 135.66364,271.59709 136.34896,270.86879 135.79882,269.97865 z M 140.72068,268.46789 C 140.13395,267.51852 138.8794,266.74177 137.93279,266.74177 C 136.85962,266.74177 136.9824,267.6704 138.25894,269.20854 C 140.47869,271.88318 142.46256,271.2863 140.72068,268.46789 z M 147.37862,267.62079 C 146.85152,266.24719 145.6691,265.12333 144.75103,265.12333 C 142.37915,265.12333 142.67512,269.56367 145.10484,270.43143 C 147.85427,271.41336 148.51877,270.59197 147.37862,267.62079 z M 130.59899,263.32223 C 127.86738,260.59062 124.62139,263.19012 127.07392,266.14523 C 128.42825,267.7771 129.54266,267.98078 130.71307,266.81036 C 131.88349,265.63995 131.84855,264.57178 130.59899,263.32223 z M 136.60804,263.60041 C 136.60804,261.69088 133.45151,259.64819 132.2922,260.8075 C 131.1329,261.96681 133.17559,265.12333 135.08512,265.12333 C 135.92273,265.12333 136.60804,264.43802 136.60804,263.60041 z M 143.08179,262.19579 C 143.08179,259.25435 138.61584,254.98104 136.74813,256.13534 C 135.27122,257.04812 135.47491,258.12174 137.56267,260.42869 C 140.45285,263.62231 143.08179,264.46404 143.08179,262.19579 z "
       id="path12005"
       sodipodi:nodetypes="cssssssssssssssccsssssccssssssssssssssssssssssssssssssssssssccssccssccssccsssccssssccssccssccssccssccssccssc"
       transform="matrix(1.2368776,0,0,1.2368776,-10.922265,-129.09373)" />
    <path
       style="fill:#000000;fill-opacity:1;stroke:none;"
       d="M 184.20371,374.86848 C 182.72616,372.29401 178.46904,368.15574 174.74343,365.67231 C 159.24497,355.3413 156.32335,348.4192 164.29895,340.92651 C 169.18057,336.34047 169.5613,331.23091 165.10817,330.06639 C 160.02308,328.73661 161.25619,327.24885 169.44827,324.83001 C 176.02564,322.88795 177.58171,322.91216 181.24321,325.01358 C 185.18761,327.27735 185.6458,327.1896 188.30774,323.66059 C 193.75292,316.44174 207.44256,320.93799 217.3536,333.20047 C 228.55192,347.05564 228.66278,352.08265 217.75106,351.22331 C 214.61156,350.97606 212.04288,351.24139 212.04288,351.81292 C 212.04288,352.38444 213.55061,355.96661 215.39339,359.77328 C 218.51865,366.22922 219.2264,376.22927 216.49359,375.31833 C 215.82598,375.09579 212.54864,374.89718 209.21061,374.87697 C 204.02437,374.84556 202.77453,374.0954 200.61906,369.72033 C 196.99994,362.37436 194.71124,362.44567 192.45549,369.97469 C 189.68282,379.22904 187.46216,380.54602 184.20371,374.86848 z M 188.68475,365.71336 C 188.23548,364.54257 186.97108,363.58465 185.87497,363.58465 C 184.32492,363.58465 184.31364,364.01624 185.82418,365.52678 C 188.63197,368.33457 188.21636,370.82826 185.33865,368.43997 C 182.39282,365.99515 182.2102,367.36175 184.90591,371.67827 C 186.86876,374.82129 186.92174,374.81613 188.20123,371.35735 C 188.91644,369.42394 189.13403,366.88415 188.68475,365.71336 z M 215.27976,371.67684 C 215.27976,370.7867 213.82316,370.0584 212.04288,370.0584 C 210.2626,370.0584 208.806,369.46931 208.806,368.7493 C 208.806,368.02929 207.71177,366.02647 206.37437,364.29859 C 204.34737,361.67976 204.10688,361.62829 204.92909,363.98926 C 206.27526,367.85476 204.46674,367.57298 202.33225,363.58465 C 200.8679,360.84848 201.10144,360.34777 203.84206,360.34777 C 205.71462,360.34777 208.10416,362.22787 209.49874,364.79848 C 212.68691,370.6752 212.75477,368.03742 209.57366,361.88584 C 208.21559,359.25962 207.77355,357.1109 208.59134,357.1109 C 209.40914,357.1109 211.21106,359.84201 212.59561,363.18004 C 213.98015,366.51807 215.15049,368.38623 215.19636,367.3315 C 215.38324,363.0342 211.91218,357.22875 203.94179,348.50787 C 198.44872,342.49757 196.43165,339.30808 198.12376,339.30808 C 199.54829,339.30808 200.71381,338.57978 200.71381,337.68964 C 200.71381,336.7995 202.14755,336.0712 203.89989,336.0712 C 206.07767,336.0712 206.78893,335.2971 206.14735,333.62519 C 205.47572,331.87494 205.95052,331.46383 207.81659,332.1799 C 209.50049,332.82608 210.42444,332.32052 210.42444,330.75298 C 210.42444,325.8466 205.80097,326.56029 201.55929,332.12142 C 197.19891,337.83817 193.70468,339.13298 191.64242,335.79616 C 190.85557,334.52301 191.35449,334.24126 193.16534,334.93615 C 194.95296,335.62212 195.8585,335.1383 195.8585,333.49723 C 195.8585,332.02169 196.62192,331.49668 197.75197,332.19509 C 199.00121,332.96716 199.31464,332.50327 198.67318,330.83164 C 198.0302,329.15607 198.81441,328.00677 200.98864,327.4382 C 205.9575,326.13881 202.89721,323.12369 196.60951,323.12369 C 192.49494,323.12369 190.39863,324.16024 188.4267,327.16979 C 185.52798,331.59379 179.11472,332.93839 180.70728,328.78823 C 181.21965,327.45302 180.83264,326.36057 179.84727,326.36057 C 178.86189,326.36057 178.05567,327.45302 178.05567,328.78823 C 178.05567,331.92547 173.60148,331.96239 172.91442,328.83084 C 172.62599,327.51623 171.59512,326.97145 170.61751,327.61702 C 169.33756,328.46223 169.38675,331.46895 170.79425,338.41918 C 173.08252,349.71877 179.009,355.82541 190.94737,359.185 C 196.4926,360.74548 199.24238,362.72208 202.1988,367.27275 C 205.1955,371.88542 207.18458,373.29528 210.6956,373.29528 C 213.21689,373.29528 215.27976,372.56698 215.27976,371.67684 z M 205.56913,368.43997 C 205.56913,367.25311 206.05466,366.76758 206.64809,367.36101 C 207.24151,367.95443 207.24151,368.9255 206.64809,369.51893 C 206.05466,370.11235 205.56913,369.62682 205.56913,368.43997 z M 181.93387,362.62938 C 183.81884,357.71723 179.8475,355.51611 174.82668,358.69022 C 172.75094,360.00248 172.86599,360.56688 175.6359,362.66006 C 179.77137,365.78516 180.72466,365.78051 181.93387,362.62938 z M 192.62162,362.94859 C 192.62162,362.59875 191.49135,361.8788 190.1099,361.34869 C 188.66961,360.796 188.01998,361.06732 188.58698,361.98475 C 189.53742,363.5226 192.62162,364.25938 192.62162,362.94859 z M 172.25877,357.74696 C 175.44385,356.52473 175.60646,352.45625 172.51761,351.27094 C 171.25195,350.78527 168.57166,351.26814 166.5614,352.344 C 163.03749,354.22994 163.01502,354.37955 165.93504,356.51472 C 169.45691,359.08998 168.994,358.99977 172.25877,357.74696 z M 169.20754,347.31406 C 169.78106,346.38608 169.80644,344.47012 169.26393,343.05637 C 168.38221,340.75864 167.9377,340.79348 165.07442,343.38471 C 163.3127,344.97905 161.87129,347.65285 161.87129,349.32649 C 161.87129,351.8389 162.41995,352.07583 165.01803,350.68538 C 166.74874,349.75914 168.63402,348.24204 169.20754,347.31406 z M 211.23366,347.40027 C 209.93943,345.30616 207.18757,345.30616 207.18757,347.40027 C 207.18757,348.29041 208.32299,349.01871 209.71074,349.01871 C 211.09848,349.01871 211.7838,348.29041 211.23366,347.40027 z M 216.15552,345.88951 C 215.56879,344.94014 214.31424,344.16339 213.36763,344.16339 C 212.29446,344.16339 212.41724,345.09202 213.69378,346.63016 C 215.91353,349.3048 217.8974,348.70792 216.15552,345.88951 z M 222.81346,345.04241 C 222.28636,343.66881 221.10394,342.54495 220.18587,342.54495 C 217.81399,342.54495 218.10996,346.98529 220.53968,347.85305 C 223.28911,348.83498 223.95361,348.01359 222.81346,345.04241 z M 206.03383,340.74385 C 203.30222,338.01224 200.05623,340.61174 202.50876,343.56685 C 203.86309,345.19872 204.9775,345.4024 206.14791,344.23198 C 207.31833,343.06157 207.28339,341.9934 206.03383,340.74385 z M 212.04288,341.02203 C 212.04288,339.1125 208.88635,337.06981 207.72704,338.22912 C 206.56774,339.38843 208.61043,342.54495 210.51996,342.54495 C 211.35757,342.54495 212.04288,341.85964 212.04288,341.02203 z M 218.51663,339.61741 C 218.51663,336.67597 214.05068,332.40266 212.18297,333.55696 C 210.70606,334.46974 210.90975,335.54336 212.99751,337.85031 C 215.88769,341.04393 218.51663,341.88566 218.51663,339.61741 z "
       id="path12003"
       sodipodi:nodetypes="cssssssssssssssccsssssccssssssssssssssssssssssssssssssssssssccssccssccssccsssccssssccssccssccssccssccssccssc"
       transform="matrix(1.2368776,0,0,1.2368776,-10.922265,-129.09373)" />
    <path
       style="fill:#000000;fill-opacity:1;stroke:none;"
       d="M 258.72059,454.10697 C 257.24304,451.5325 252.98592,447.39423 249.26031,444.9108 C 233.76185,434.57979 230.84023,427.65769 238.81583,420.165 C 243.69745,415.57896 244.07818,410.4694 239.62505,409.30488 C 234.53996,407.9751 235.77307,406.48734 243.96515,404.0685 C 250.54252,402.12644 252.09859,402.15065 255.76009,404.25207 C 259.70449,406.51584 260.16268,406.42809 262.82462,402.89908 C 268.2698,395.68023 281.95944,400.17648 291.87048,412.43896 C 303.0688,426.29413 303.17966,431.32114 292.26794,430.4618 C 289.12844,430.21455 286.55976,430.47988 286.55976,431.05141 C 286.55976,431.62293 288.06749,435.2051 289.91027,439.01177 C 293.03553,445.46771 293.74328,455.46776 291.01047,454.55682 C 290.34286,454.33428 287.06552,454.13567 283.72749,454.11546 C 278.54125,454.08405 277.29141,453.33389 275.13594,448.95882 C 271.51682,441.61285 269.22812,441.68416 266.97237,449.21318 C 264.1997,458.46753 261.97904,459.78451 258.72059,454.10697 z M 263.20163,444.95185 C 262.75236,443.78106 261.48796,442.82314 260.39185,442.82314 C 258.8418,442.82314 258.83052,443.25473 260.34106,444.76527 C 263.14885,447.57306 262.73324,450.06675 259.85553,447.67846 C 256.9097,445.23364 256.72708,446.60024 259.42279,450.91676 C 261.38564,454.05978 261.43862,454.05462 262.71811,450.59584 C 263.43332,448.66243 263.65091,446.12264 263.20163,444.95185 z M 289.79664,450.91533 C 289.79664,450.02519 288.34004,449.29689 286.55976,449.29689 C 284.77948,449.29689 283.32288,448.7078 283.32288,447.98779 C 283.32288,447.26778 282.22865,445.26496 280.89125,443.53708 C 278.86425,440.91825 278.62376,440.86678 279.44597,443.22775 C 280.79214,447.09325 278.98362,446.81147 276.84913,442.82314 C 275.38478,440.08697 275.61832,439.58626 278.35894,439.58626 C 280.2315,439.58626 282.62104,441.46636 284.01562,444.03697 C 287.20379,449.91369 287.27165,447.27591 284.09054,441.12433 C 282.73247,438.49811 282.29043,436.34939 283.10822,436.34939 C 283.92602,436.34939 285.72794,439.0805 287.11249,442.41853 C 288.49703,445.75656 289.66737,447.62472 289.71324,446.56999 C 289.90012,442.27269 286.42906,436.46724 278.45867,427.74636 C 272.9656,421.73606 270.94853,418.54657 272.64064,418.54657 C 274.06517,418.54657 275.23069,417.81827 275.23069,416.92813 C 275.23069,416.03799 276.66443,415.30969 278.41677,415.30969 C 280.59455,415.30969 281.30581,414.53559 280.66423,412.86368 C 279.9926,411.11343 280.4674,410.70232 282.33347,411.41839 C 284.01737,412.06457 284.94132,411.55901 284.94132,409.99147 C 284.94132,405.08509 280.31785,405.79878 276.07617,411.35991 C 271.71579,417.07666 268.22156,418.37147 266.1593,415.03465 C 265.37245,413.7615 265.87137,413.47975 267.68222,414.17464 C 269.46984,414.86061 270.37538,414.37679 270.37538,412.73572 C 270.37538,411.26018 271.1388,410.73517 272.26885,411.43358 C 273.51809,412.20565 273.83152,411.74176 273.19006,410.07013 C 272.54708,408.39456 273.33129,407.24526 275.50552,406.67669 C 280.47438,405.3773 277.41409,402.36218 271.12639,402.36218 C 267.01182,402.36218 264.91551,403.39873 262.94358,406.40828 C 260.04486,410.83228 253.6316,412.17688 255.22416,408.02672 C 255.73653,406.69151 255.34952,405.59906 254.36415,405.59906 C 253.37877,405.59906 252.57255,406.69151 252.57255,408.02672 C 252.57255,411.16396 248.11836,411.20088 247.4313,408.06933 C 247.14287,406.75472 246.112,406.20994 245.13439,406.85551 C 243.85444,407.70072 243.90363,410.70744 245.31113,417.65767 C 247.5994,428.95726 253.52588,435.0639 265.46425,438.42349 C 271.00948,439.98397 273.75926,441.96057 276.71568,446.51124 C 279.71238,451.12391 281.70146,452.53377 285.21248,452.53377 C 287.73377,452.53377 289.79664,451.80547 289.79664,450.91533 z M 280.08601,447.67846 C 280.08601,446.4916 280.57154,446.00607 281.16497,446.5995 C 281.75839,447.19292 281.75839,448.16399 281.16497,448.75742 C 280.57154,449.35084 280.08601,448.86531 280.08601,447.67846 z M 256.45075,441.86787 C 258.33572,436.95572 254.36438,434.7546 249.34356,437.92871 C 247.26782,439.24097 247.38287,439.80537 250.15278,441.89855 C 254.28825,445.02365 255.24154,445.019 256.45075,441.86787 z M 267.1385,442.18708 C 267.1385,441.83724 266.00823,441.11729 264.62678,440.58718 C 263.18649,440.03449 262.53686,440.30581 263.10386,441.22324 C 264.0543,442.76109 267.1385,443.49787 267.1385,442.18708 z M 246.77565,436.98545 C 249.96073,435.76322 250.12334,431.69474 247.03449,430.50943 C 245.76883,430.02376 243.08854,430.50663 241.07828,431.58249 C 237.55437,433.46843 237.5319,433.61804 240.45192,435.75321 C 243.97379,438.32847 243.51088,438.23826 246.77565,436.98545 z M 243.72442,426.55255 C 244.29794,425.62457 244.32332,423.70861 243.78081,422.29486 C 242.89909,419.99713 242.45458,420.03197 239.5913,422.6232 C 237.82958,424.21754 236.38817,426.89134 236.38817,428.56498 C 236.38817,431.07739 236.93683,431.31432 239.53491,429.92387 C 241.26562,428.99763 243.1509,427.48053 243.72442,426.55255 z M 285.75054,426.63876 C 284.45631,424.54465 281.70445,424.54465 281.70445,426.63876 C 281.70445,427.5289 282.83987,428.2572 284.22762,428.2572 C 285.61536,428.2572 286.30068,427.5289 285.75054,426.63876 z M 290.6724,425.128 C 290.08567,424.17863 288.83112,423.40188 287.88451,423.40188 C 286.81134,423.40188 286.93412,424.33051 288.21066,425.86865 C 290.43041,428.54329 292.41428,427.94641 290.6724,425.128 z M 297.33034,424.2809 C 296.80324,422.9073 295.62082,421.78344 294.70275,421.78344 C 292.33087,421.78344 292.62684,426.22378 295.05656,427.09154 C 297.80599,428.07347 298.47049,427.25208 297.33034,424.2809 z M 280.55071,419.98234 C 277.8191,417.25073 274.57311,419.85023 277.02564,422.80534 C 278.37997,424.43721 279.49438,424.64089 280.66479,423.47047 C 281.83521,422.30006 281.80027,421.23189 280.55071,419.98234 z M 286.55976,420.26052 C 286.55976,418.35099 283.40323,416.3083 282.24392,417.46761 C 281.08462,418.62692 283.12731,421.78344 285.03684,421.78344 C 285.87445,421.78344 286.55976,421.09813 286.55976,420.26052 z M 293.03351,418.8559 C 293.03351,415.91446 288.56756,411.64115 286.69985,412.79545 C 285.22294,413.70823 285.42663,414.78185 287.51439,417.0888 C 290.40457,420.28242 293.03351,421.12415 293.03351,418.8559 z "
       id="path11018"
       sodipodi:nodetypes="cssssssssssssssccsssssccssssssssssssssssssssssssssssssssssssccssccssccssccsssccssssccssccssccssccssccssccssc"
       transform="matrix(1.2368776,0,0,1.2368776,-10.922265,-129.09373)" />
  </g>
</svg>
