<?xml version="1.0" encoding="utf-8"?>
<!-- Generator: Adobe Illustrator 17.1.0, SVG Export Plug-In . SVG Version: 6.00 Build 0)  -->
<!DOCTYPE svg PUBLIC "-//W3C//DTD SVG 1.1//EN" "http://www.w3.org/Graphics/SVG/1.1/DTD/svg11.dtd" [
	<!ENTITY ns_extend "http://ns.adobe.com/Extensibility/1.0/">
	<!ENTITY ns_ai "http://ns.adobe.com/AdobeIllustrator/10.0/">
	<!ENTITY ns_graphs "http://ns.adobe.com/Graphs/1.0/">
	<!ENTITY ns_vars "http://ns.adobe.com/Variables/1.0/">
	<!ENTITY ns_imrep "http://ns.adobe.com/ImageReplacement/1.0/">
	<!ENTITY ns_sfw "http://ns.adobe.com/SaveForWeb/1.0/">
	<!ENTITY ns_custom "http://ns.adobe.com/GenericCustomNamespace/1.0/">
	<!ENTITY ns_adobe_xpath "http://ns.adobe.com/XPath/1.0/">
]>
<svg version="1.1" id="Слой_2" xmlns:x="&ns_extend;" xmlns:i="&ns_ai;" xmlns:graph="&ns_graphs;"
	 xmlns="http://www.w3.org/2000/svg" xmlns:xlink="http://www.w3.org/1999/xlink" x="0px" y="0px" viewBox="0 0 800 946.3"
	 enable-background="new 0 0 800 946.3" xml:space="preserve">
<metadata>
	<sfw  xmlns="&ns_sfw;">
		<slices></slices>
		<sliceSourceBounds  width="795.2" height="942.7" x="3.3" y="168.6" bottomLeftOrigin="true"></sliceSourceBounds>
	</sfw>
</metadata>
<path fill="#ED1C24" stroke="#000000" stroke-width="5" stroke-miterlimit="10" d="M400.9,944.9c0-67.3,214.7-38.1,214.7-38.1
	C788.1,938.4,796,789.6,796,789.6V4.7H400.9c0,0-395.1,0-395.1,0v784.9c0,0,7.9,148.8,180.4,117.2
	C186.3,906.8,400.9,877.6,400.9,944.9z"/>
<g id="Слой_3">
	<g id="Слой_6">
		<polygon fill="#AEB0B3" stroke="#000000" stroke-width="3" stroke-miterlimit="10" points="611.8,232.5 575.1,198.3 145.8,672.4 
			145.8,707.9 172.1,707.9 		"/>
		<polygon fill="#AEB0B3" stroke="#000000" stroke-width="3" stroke-miterlimit="10" points="659.4,135.1 579.8,202.7 606.1,227.2 
					"/>
		<line fill="none" stroke="#84888B" stroke-width="3" stroke-miterlimit="10" x1="579.8" y1="206.8" x2="150.4" y2="683.9"/>
		<line fill="none" stroke="#84888B" stroke-width="3" stroke-miterlimit="10" x1="584.7" y1="211.5" x2="150" y2="695"/>
		<line fill="none" stroke="#84888B" stroke-width="3" stroke-miterlimit="10" x1="592.7" y1="218.4" x2="155.5" y2="704.2"/>
		<line fill="none" stroke="#84888B" stroke-width="3" stroke-miterlimit="10" x1="587.9" y1="207.3" x2="645.1" y2="152.5"/>
		<line fill="none" stroke="#84888B" stroke-width="3" stroke-miterlimit="10" x1="598.5" y1="216.9" x2="643" y2="154.6"/>
	</g>
	<g id="Слой_5">
		<polygon fill="#AEB0B3" stroke="#000000" stroke-width="3" stroke-miterlimit="10" points="182.5,237.8 219.2,203.5 648.5,677.6 
			648.5,713.2 622.2,713.2 		"/>
		<polygon fill="#AEB0B3" stroke="#000000" stroke-width="3" stroke-miterlimit="10" points="134.8,140.3 214.4,208 188.2,232.4 		
			"/>
		<line fill="none" stroke="#84888B" stroke-width="3" stroke-miterlimit="10" x1="214.4" y1="212.1" x2="643.9" y2="689.2"/>
		<line fill="none" stroke="#84888B" stroke-width="3" stroke-miterlimit="10" x1="209.5" y1="216.8" x2="644.3" y2="700.2"/>
		<line fill="none" stroke="#84888B" stroke-width="3" stroke-miterlimit="10" x1="201.6" y1="223.7" x2="638.8" y2="709.5"/>
		<line fill="none" stroke="#84888B" stroke-width="3" stroke-miterlimit="10" x1="206.3" y1="212.6" x2="149.2" y2="157.8"/>
		<line fill="none" stroke="#84888B" stroke-width="3" stroke-miterlimit="10" x1="195.8" y1="222.2" x2="151.3" y2="159.8"/>
	</g>
	<g id="Слой_4">
		<polygon fill="#AEB0B3" stroke="#000000" stroke-width="3" stroke-miterlimit="10" points="73.7,414.3 726.2,414.3 692,455.1 
			73.7,455.1 		"/>
		<line fill="none" stroke="#84888B" stroke-width="3" stroke-miterlimit="10" x1="73.7" y1="421.5" x2="715.5" y2="421.5"/>
		<line fill="none" stroke="#84888B" stroke-width="3" stroke-miterlimit="10" x1="67.4" y1="428.4" x2="709.6" y2="428.4"/>
		<line fill="none" stroke="#84888B" stroke-width="3" stroke-miterlimit="10" x1="93.7" y1="438.3" x2="701.9" y2="438.3"/>
		<line fill="none" stroke="#84888B" stroke-width="3" stroke-miterlimit="10" x1="92.2" y1="444.7" x2="695.7" y2="444.7"/>
		<circle fill="#AEB0B3" stroke="#000000" stroke-width="3" stroke-miterlimit="10" cx="73.7" cy="434.7" r="20.4"/>
		<path fill="none" stroke="#000000" stroke-width="3" stroke-miterlimit="10" d="M97,455.1c8.6-11.9,9.5-29.3,0-40.8"/>
		<path fill="none" stroke="#000000" stroke-width="3" stroke-miterlimit="10" d="M105,455.1c8.6-11.9,9.5-29.3,0-40.8"/>
		<path fill="none" stroke="#000000" stroke-width="3" stroke-miterlimit="10" d="M123.2,455.1c8.6-11.9,9.5-29.3,0-40.8"/>
		<path fill="none" stroke="#000000" stroke-width="3" stroke-miterlimit="10" d="M131.4,455.1c8.6-11.9,9.5-29.3,0-40.8"/>
		<path fill="none" stroke="#000000" stroke-width="3" stroke-miterlimit="10" d="M153.8,455.1c8.6-11.9,9.5-29.3,0-40.8"/>
		<path fill="none" stroke="#000000" stroke-width="3" stroke-miterlimit="10" d="M162,455.1c8.6-11.9,9.5-29.3,0-40.8"/>
		<path fill="none" stroke="#000000" stroke-width="3" stroke-miterlimit="10" d="M179.1,455.1c8.6-11.9,9.5-29.3,0-40.8"/>
		<path fill="none" stroke="#000000" stroke-width="3" stroke-miterlimit="10" d="M188.4,455.1c8.6-11.9,9.5-29.3,0-40.8"/>
		<circle stroke="#000000" stroke-width="3" stroke-miterlimit="10" cx="73.7" cy="434.7" r="6.3"/>
	</g>
</g>
<g id="Слой_7">
	<g id="Слой_8">
		<path fill="#D2AB67" stroke="#000000" stroke-width="3" stroke-miterlimit="10" d="M400.9,837.7c53.5,0,14.6-142.7,14.6-142.7
			c-6.5-17.6-7.3-93.1-7.3-93.1c0-8.1-10.3-11.9-10.3-11.9s-9.3,3.3-7.3,21.1c0,0,0,74.7-7.4,102.1
			C383.1,713.2,335.7,837.7,400.9,837.7z"/>
		<path fill="#D2AB67" stroke="#000000" stroke-width="3" stroke-miterlimit="10" d="M332.4,601.9c0,0,102.7,0,148.8,37.5
			c0,0,5.9,8.6,0,19.1c0,0-118.5-13.8-148.8,5.3C332.4,663.8,295.6,638.8,332.4,601.9z"/>
		<path fill="none" stroke="#000000" stroke-width="3" stroke-miterlimit="10" d="M332.4,601.9c30.3,21.1,21.7,52.3,0,61.9"/>
		<path fill="none" stroke="#3F3F3F" stroke-width="3" stroke-miterlimit="10" d="M467.6,651.1c0-21.6-53.9-39-120.5-39"/>
		<path fill="none" stroke="#3F3F3F" stroke-width="3" stroke-miterlimit="10" d="M467.6,651.1c0-16.9-51.7-30.6-115.5-30.6"/>
		<path fill="none" stroke="#3F3F3F" stroke-width="3" stroke-miterlimit="10" d="M467.6,651.1c0-13.2-50.4-23.9-112.8-23.9"/>
		<path fill="none" stroke="#3F3F3F" stroke-width="3" stroke-miterlimit="10" d="M467.6,651.1c0-8.5-50.4-15.3-112.8-15.3"/>
		<path fill="none" stroke="#3F3F3F" stroke-width="3" stroke-miterlimit="10" d="M467.6,651.1c0-2.3-47.4-15.3-115.5-4.1"/>
		<path fill="none" stroke="#3F3F3F" stroke-width="3" stroke-miterlimit="10" d="M395.5,669.9c8.9,73.6-23.7,92-16.7,147.2"/>
		<path fill="none" stroke="#3F3F3F" stroke-width="3" stroke-miterlimit="10" d="M395.5,669.9c0,84.4-30.6,98.3-22.5,142.2"/>
		<path fill="none" stroke="#3F3F3F" stroke-width="3" stroke-miterlimit="10" d="M405.4,669.9c10.1,99.3,8.7,131.9-13.3,150.3"/>
		<path fill="none" stroke="#3F3F3F" stroke-width="3" stroke-miterlimit="10" d="M406.7,683.9c13.5,83.3,15.7,117.5-9.5,140.6"/>
	</g>
	<g id="Слой_9">
		<path fill="#D2AB67" stroke="#000000" stroke-width="3" stroke-miterlimit="10" d="M398.8,303.7c53.5,0,14.6-142.7,14.6-142.7
			C406.8,143.5,406,68,406,68c0-8.1-10.3-11.9-10.3-11.9s-9.3,3.3-7.3,21.1c0,0,0,74.7-7.4,102.1C381,179.3,333.6,303.7,398.8,303.7
			z"/>
		<path fill="#D2AB67" stroke="#000000" stroke-width="3" stroke-miterlimit="10" d="M330.3,68c0,0,102.7,0,148.8,37.5
			c0,0,5.9,8.6,0,19.1c0,0-118.5-13.8-148.8,5.3C330.3,129.9,293.4,104.9,330.3,68z"/>
		<path fill="none" stroke="#000000" stroke-width="3" stroke-miterlimit="10" d="M330.3,68c30.3,21.1,21.7,52.3,0,61.9"/>
		<path fill="none" stroke="#3F3F3F" stroke-width="3" stroke-miterlimit="10" d="M465.5,117.2c0-21.6-53.9-39-120.5-39"/>
		<path fill="none" stroke="#3F3F3F" stroke-width="3" stroke-miterlimit="10" d="M465.5,117.2c0-16.9-51.7-30.6-115.5-30.6"/>
		<path fill="none" stroke="#3F3F3F" stroke-width="3" stroke-miterlimit="10" d="M465.5,117.2c0-13.2-50.4-23.9-112.8-23.9"/>
		<path fill="none" stroke="#3F3F3F" stroke-width="3" stroke-miterlimit="10" d="M465.5,117.2c0-8.5-50.4-15.3-112.8-15.3"/>
		<path fill="none" stroke="#3F3F3F" stroke-width="3" stroke-miterlimit="10" d="M465.5,117.2c0-2.3-47.4-15.3-115.5-4.1"/>
		<path fill="none" stroke="#3F3F3F" stroke-width="3" stroke-miterlimit="10" d="M393.3,136c8.9,73.6-23.7,92-16.7,147.2"/>
		<path fill="none" stroke="#3F3F3F" stroke-width="3" stroke-miterlimit="10" d="M393.3,136c0,84.4-30.6,98.3-22.5,142.2"/>
		<path fill="none" stroke="#3F3F3F" stroke-width="3" stroke-miterlimit="10" d="M403.2,136c10.1,99.3,8.7,131.9-13.3,150.3"/>
		<path fill="none" stroke="#3F3F3F" stroke-width="3" stroke-miterlimit="10" d="M404.5,150c13.5,83.3,15.7,117.5-9.5,140.6"/>
	</g>
</g>
</svg>
