<?xml version="1.0" encoding="UTF-8"?>
<!DOCTYPE svg PUBLIC "-//W3C//DTD SVG 1.1//EN" "http://www.w3.org/Graphics/SVG/1.1/DTD/svg11.dtd">
<!-- Creator: CorelDRAW X7 -->
<svg xmlns="http://www.w3.org/2000/svg" xml:space="preserve" width="238.57mm" height="287mm" version="1.1" style="shape-rendering:geometricPrecision; text-rendering:geometricPrecision; image-rendering:optimizeQuality; fill-rule:evenodd; clip-rule:evenodd"
viewBox="0 0 23857 28700"
 xmlns:xlink="http://www.w3.org/1999/xlink">
 <defs>
  <style type="text/css">
   <![CDATA[
    .str4 {stroke:#2B2A29;stroke-width:20}
    .str2 {stroke:#2B2A29;stroke-width:20}
    .str1 {stroke:#009622;stroke-width:20}
    .str5 {stroke:#2B2A29;stroke-width:17.63}
    .str3 {stroke:#2B2A29;stroke-width:17.64}
    .str0 {stroke:#2B2A29;stroke-width:17.64}
    .str6 {stroke:#2B2A29;stroke-width:7.62}
    .fil6 {fill:none}
    .fil5 {fill:#FEFEFE}
    .fil2 {fill:#FEFEFE}
    .fil7 {fill:#EBECEC}
    .fil4 {fill:#FECC00}
    .fil3 {fill:#0087EF}
    .fil1 {fill:#009622}
    .fil8 {fill:#009622}
    .fil0 {fill:#DB0B0B}
   ]]>
  </style>
   <clipPath id="id0">
    <path d="M23818 24036c39,1928 -1106,2774 -3034,2774l-6132 0c-1426,0 -2613,1166 -2694,1890 42,-706 -1366,-1970 -2711,-1890l-6392 0c-1949,0 -2834,-846 -2834,-2774l0 -60 -21 0 0 -23976 23857 0 0 23976 -39 0 0 60z"/>
   </clipPath>
 </defs>
 <g id="Слой_x0020_1">
  <metadata id="CorelCorpID_0Corel-Layer"/>
  <path class="fil0" d="M23818 24036c39,1928 -1106,2774 -3034,2774l-6132 0c-1426,0 -2613,1166 -2694,1890 42,-706 -1366,-1970 -2711,-1890l-6392 0c-1949,0 -2834,-846 -2834,-2774l0 -60 -21 0 0 -23976 23857 0 0 23976 -39 0 0 60z"/>
  <g style="clip-path:url(#id0)">
   <g id="_720383992">
    <rect class="fil1" x="-7915" y="-1222" width="39688" height="28481"/>
    <rect class="fil2 str0" x="20869" y="4696" width="915" height="12206"/>
    <rect class="fil2 str0" x="20640" y="16901" width="1403" height="2116"/>
    <rect class="fil2 str0" x="20346" y="16632" width="1961" height="270" rx="169" ry="135"/>
    <path class="fil2 str1" d="M20960 17711c0,-208 160,-378 356,-378 195,0 355,170 355,378l0 1284 -711 0 0 -1284z"/>
    <rect class="fil2 str0" x="20534" y="15544" width="1585" height="221" rx="137" ry="110"/>
    <path class="fil2 str2" d="M20587 16632l1479 0c0,-136 -267,-760 -282,-868l-915 0c-16,108 -282,732 -282,868z"/>
    <polygon class="fil3 str0" points="21784,4696 20869,4696 21326,2163 "/>
    <rect class="fil2 str0" x="20728" y="4613" width="1198" height="165" rx="103" ry="82"/>
    <rect class="fil2 str3" x="20752" y="6370" width="1146" height="435"/>
    <rect class="fil2 str3" x="20807" y="6805" width="1036" height="205"/>
    <polygon class="fil2 str4" points="20837,7010 21813,7010 21813,7199 20837,7199 "/>
    <rect class="fil2 str3" x="20869" y="7199" width="912" height="117"/>
    <rect class="fil2 str3" x="21524" y="6475" width="259" height="240"/>
    <rect class="fil2 str3" x="20869" y="6475" width="259" height="240"/>
    <rect class="fil2 str3" x="21197" y="6475" width="259" height="240"/>
    <rect class="fil2 str3" x="20753" y="9056" width="1146" height="435"/>
    <rect class="fil2 str3" x="20808" y="9491" width="1036" height="205"/>
    <polygon class="fil2 str4" points="20838,9696 21814,9696 21814,9886 20838,9886 "/>
    <rect class="fil2 str3" x="20870" y="9886" width="912" height="117"/>
    <rect class="fil2 str3" x="21526" y="9161" width="259" height="240"/>
    <rect class="fil2 str3" x="20870" y="9161" width="259" height="240"/>
    <rect class="fil2 str3" x="21198" y="9161" width="259" height="240"/>
    <rect class="fil2 str3" x="20753" y="11639" width="1146" height="435"/>
    <rect class="fil2 str3" x="20808" y="12073" width="1036" height="205"/>
    <polygon class="fil2 str4" points="20838,12279 21814,12279 21814,12468 20838,12468 "/>
    <rect class="fil2 str3" x="20870" y="12468" width="912" height="117"/>
    <rect class="fil2 str3" x="21526" y="11744" width="259" height="240"/>
    <rect class="fil2 str3" x="20870" y="11744" width="259" height="240"/>
    <rect class="fil2 str3" x="21198" y="11744" width="259" height="240"/>
    <path class="fil4 str4" d="M21268 1478l-3 118c-32,20 -54,57 -54,100 0,41 20,76 49,97l-3 121c-47,25 -78,76 -78,136 0,84 63,152 140,152 78,0 141,-68 141,-152 0,-60 -32,-111 -78,-136l-3 -121c29,-21 49,-56 49,-97 0,-43 -22,-80 -54,-100l-3 -118c30,-19 50,-54 50,-94 -2,-76 -86,-130 -102,-232 -19,102 -102,157 -101,232 0,40 20,75 50,94z"/>
    <rect class="fil2 str0" x="18652" y="4770" width="915" height="12206"/>
    <rect class="fil2 str0" x="18423" y="16976" width="1403" height="2116"/>
    <rect class="fil2 str0" x="18129" y="16706" width="1961" height="270" rx="169" ry="135"/>
    <path class="fil2 str1" d="M18743 17785c0,-207 160,-377 355,-377 196,0 356,170 356,377l0 1285 -711 0 0 -1285z"/>
    <rect class="fil2 str0" x="18317" y="15618" width="1585" height="221" rx="137" ry="110"/>
    <path class="fil2 str2" d="M18370 16706l1478 0c0,-135 -266,-760 -282,-867l-914 0c-16,107 -282,732 -282,867z"/>
    <polygon class="fil3 str0" points="19566,4770 18652,4770 19109,2238 "/>
    <rect class="fil2 str0" x="18510" y="4688" width="1198" height="165" rx="103" ry="82"/>
    <rect class="fil2 str3" x="18534" y="6444" width="1146" height="435"/>
    <rect class="fil2 str3" x="18590" y="6879" width="1036" height="205"/>
    <polygon class="fil2 str4" points="18620,7085 19596,7085 19596,7274 18620,7274 "/>
    <rect class="fil2 str3" x="18652" y="7274" width="912" height="117"/>
    <rect class="fil2 str3" x="19307" y="6550" width="259" height="240"/>
    <rect class="fil2 str3" x="18652" y="6550" width="259" height="240"/>
    <rect class="fil2 str3" x="18979" y="6550" width="259" height="240"/>
    <rect class="fil2 str3" x="18536" y="9131" width="1146" height="435"/>
    <rect class="fil2 str3" x="18591" y="9566" width="1036" height="205"/>
    <polygon class="fil2 str4" points="18621,9771 19597,9771 19597,9960 18621,9960 "/>
    <rect class="fil2 str3" x="18653" y="9960" width="912" height="117"/>
    <rect class="fil2 str3" x="19308" y="9236" width="259" height="240"/>
    <rect class="fil2 str3" x="18653" y="9236" width="259" height="240"/>
    <rect class="fil2 str3" x="18981" y="9236" width="259" height="240"/>
    <rect class="fil2 str3" x="18536" y="11713" width="1146" height="435"/>
    <rect class="fil2 str3" x="18591" y="12148" width="1036" height="205"/>
    <polygon class="fil2 str4" points="18621,12353 19597,12353 19597,12543 18621,12543 "/>
    <rect class="fil2 str3" x="18653" y="12543" width="912" height="117"/>
    <rect class="fil2 str3" x="19308" y="11818" width="259" height="240"/>
    <rect class="fil2 str3" x="18653" y="11818" width="259" height="240"/>
    <rect class="fil2 str3" x="18981" y="11818" width="259" height="240"/>
    <path class="fil4 str4" d="M19051 1553l-3 117c-32,20 -54,58 -54,101 0,40 19,76 49,97l-3 121c-47,24 -79,76 -79,136 0,83 63,151 141,151 78,0 141,-68 141,-151 0,-60 -32,-112 -78,-136l-3 -121c29,-21 48,-57 48,-97 0,-43 -21,-81 -53,-101l-3 -117c30,-19 50,-54 50,-94 -2,-77 -86,-131 -102,-232 -19,102 -103,157 -101,232 0,40 20,75 50,94z"/>
    <rect class="fil2 str0" x="1962" y="4696" width="915" height="12206"/>
    <rect class="fil2 str0" x="1703" y="16901" width="1403" height="2116"/>
    <rect class="fil2 str0" x="1440" y="16632" width="1961" height="270" rx="169" ry="135"/>
    <path class="fil2 str1" d="M2786 17711c0,-208 -160,-378 -355,-378 -196,0 -356,170 -356,378l0 1284 711 0 0 -1284z"/>
    <rect class="fil2 str0" x="1628" y="15544" width="1585" height="221" rx="137" ry="110"/>
    <path class="fil2 str2" d="M3159 16632l-1479 0c1,-136 267,-760 282,-868l915 0c16,108 282,732 282,868z"/>
    <polygon class="fil3 str0" points="1962,4696 2877,4696 2420,2163 "/>
    <rect class="fil2 str0" x="1821" y="4613" width="1198" height="165" rx="103" ry="82"/>
    <rect class="fil2 str3" x="1848" y="6370" width="1146" height="435"/>
    <rect class="fil2 str3" x="1903" y="6805" width="1036" height="205"/>
    <polygon class="fil2 str4" points="2909,7010 1933,7010 1933,7199 2909,7199 "/>
    <rect class="fil2 str3" x="1965" y="7199" width="912" height="117"/>
    <rect class="fil2 str3" x="1962" y="6475" width="259" height="240"/>
    <rect class="fil2 str3" x="2618" y="6475" width="259" height="240"/>
    <rect class="fil2 str3" x="2290" y="6475" width="259" height="240"/>
    <rect class="fil2 str3" x="1847" y="9056" width="1146" height="435"/>
    <rect class="fil2 str3" x="1902" y="9491" width="1036" height="205"/>
    <polygon class="fil2 str4" points="2908,9696 1932,9696 1932,9886 2908,9886 "/>
    <rect class="fil2 str3" x="1964" y="9886" width="912" height="117"/>
    <rect class="fil2 str3" x="1961" y="9161" width="259" height="240"/>
    <rect class="fil2 str3" x="2616" y="9161" width="259" height="240"/>
    <rect class="fil2 str3" x="2289" y="9161" width="259" height="240"/>
    <rect class="fil2 str3" x="1847" y="11639" width="1146" height="435"/>
    <rect class="fil2 str3" x="1902" y="12073" width="1036" height="205"/>
    <polygon class="fil2 str4" points="2908,12279 1932,12279 1932,12468 2908,12468 "/>
    <rect class="fil2 str3" x="1964" y="12468" width="912" height="117"/>
    <rect class="fil2 str3" x="1961" y="11744" width="259" height="240"/>
    <rect class="fil2 str3" x="2616" y="11744" width="259" height="240"/>
    <rect class="fil2 str3" x="2289" y="11744" width="259" height="240"/>
    <path class="fil4 str4" d="M2478 1478l3 118c32,20 54,57 54,100 0,41 -20,76 -49,97l3 121c47,25 79,76 79,136 0,84 -63,152 -141,152 -78,0 -141,-68 -141,-152 0,-60 32,-111 78,-136l3 -121c-29,-21 -48,-56 -48,-97 0,-43 21,-80 53,-100l3 -118c-30,-19 -50,-54 -50,-94 2,-76 86,-130 102,-232 19,102 103,157 101,232 0,40 -20,75 -50,94z"/>
    <rect class="fil2 str0" x="4180" y="4770" width="915" height="12206"/>
    <rect class="fil2 str0" x="3920" y="16976" width="1403" height="2116"/>
    <rect class="fil2 str0" x="3657" y="16706" width="1961" height="270" rx="169" ry="135"/>
    <path class="fil2 str1" d="M5003 17785c0,-207 -160,-377 -355,-377 -195,0 -355,170 -355,377l0 1285 710 0 0 -1285z"/>
    <rect class="fil2 str0" x="3845" y="15618" width="1585" height="221" rx="137" ry="110"/>
    <path class="fil2 str2" d="M5376 16706l-1478 0c0,-135 266,-760 282,-867l914 0c16,107 282,732 282,867z"/>
    <polygon class="fil3 str0" points="4180,4770 5094,4770 4637,2238 "/>
    <rect class="fil2 str0" x="4038" y="4688" width="1198" height="165" rx="103" ry="82"/>
    <rect class="fil2 str3" x="4065" y="6444" width="1146" height="435"/>
    <rect class="fil2 str3" x="4121" y="6879" width="1036" height="205"/>
    <polygon class="fil2 str4" points="5126,7085 4151,7085 4151,7274 5126,7274 "/>
    <rect class="fil2 str3" x="4183" y="7274" width="912" height="117"/>
    <rect class="fil2 str3" x="4180" y="6550" width="259" height="240"/>
    <rect class="fil2 str3" x="4835" y="6550" width="259" height="240"/>
    <rect class="fil2 str3" x="4507" y="6550" width="259" height="240"/>
    <rect class="fil2 str3" x="4064" y="9131" width="1146" height="435"/>
    <rect class="fil2 str3" x="4119" y="9566" width="1036" height="205"/>
    <polygon class="fil2 str4" points="5125,9771 4149,9771 4149,9960 5125,9960 "/>
    <rect class="fil2 str3" x="4181" y="9960" width="912" height="117"/>
    <rect class="fil2 str3" x="4178" y="9236" width="259" height="240"/>
    <rect class="fil2 str3" x="4834" y="9236" width="259" height="240"/>
    <rect class="fil2 str3" x="4506" y="9236" width="259" height="240"/>
    <rect class="fil2 str3" x="4064" y="11713" width="1146" height="435"/>
    <rect class="fil2 str3" x="4119" y="12148" width="1036" height="205"/>
    <polygon class="fil2 str4" points="5125,12353 4149,12353 4149,12543 5125,12543 "/>
    <rect class="fil2 str3" x="4181" y="12543" width="912" height="117"/>
    <rect class="fil2 str3" x="4178" y="11818" width="259" height="240"/>
    <rect class="fil2 str3" x="4834" y="11818" width="259" height="240"/>
    <rect class="fil2 str3" x="4506" y="11818" width="259" height="240"/>
    <path class="fil4 str4" d="M4696 1553l3 117c32,20 53,58 53,101 0,40 -19,76 -48,97l3 121c46,24 78,76 78,136 0,83 -63,151 -141,151 -78,0 -141,-68 -141,-151 0,-60 32,-112 78,-136l4 -121c-30,-21 -49,-57 -49,-97 0,-43 22,-81 54,-101l2 -117c-29,-19 -49,-54 -49,-94 1,-77 85,-131 101,-232 19,102 103,157 102,232 0,40 -21,75 -50,94z"/>
    <path class="fil4 str5" d="M11392 4380c1,304 231,549 513,547 282,-1 510,-249 509,-552 0,-13 -1,-26 -2,-38 97,231 49,513 -136,692 -229,221 -582,201 -787,-46 -151,-180 -181,-432 -96,-641 -1,13 -1,25 -1,38z"/>
    <ellipse class="fil4 str3" cx="11874" cy="7007" rx="507" ry="546"/>
    <ellipse class="fil4 str3" cx="11874" cy="6083" rx="351" ry="378"/>
    <ellipse class="fil4 str3" cx="11874" cy="5443" rx="243" ry="262"/>
    <path class="fil2 str4" d="M8968 9087l5799 0c152,264 243,573 252,904l-6303 0c8,-331 99,-640 252,-904z"/>
    <rect class="fil0" x="-7915" y="24844" width="39688" height="5078"/>
    <rect class="fil5" x="-7915" y="22430" width="39688" height="2415"/>
    <rect class="fil0" x="-7915" y="20015" width="39688" height="2415"/>
    <rect class="fil2 str0" x="7105" y="12619" width="9535" height="920"/>
    <rect class="fil2 str0" x="8747" y="10106" width="6253" height="1380"/>
    <rect class="fil2 str0" x="7105" y="11744" width="9535" height="760"/>
    <rect class="fil6 str0" x="1281" y="19017" width="6333" height="499"/>
    <rect class="fil2 str0" x="4995" y="13846" width="13755" height="4673"/>
    <rect class="fil2 str0" x="6826" y="11486" width="9815" height="258"/>
    <path class="fil3 str6" d="M9582 11486c-173,-531 -462,-1003 -835,-1380 -789,190 -1469,692 -1921,1380l2756 0z"/>
    <line class="fil6 str0" x1="6826" y1="11486" x2="6826" y2= "13053" />
    <polygon class="fil7 str2" points="7613,19516 7613,19017 4375,19017 1281,19017 1281,19516 "/>
    <polygon class="fil7 str2" points="8772,18519 4375,18519 4375,19017 8772,19017 "/>
    <path class="fil6 str2" d="M6789 18519l0 -2793c0,-438 -333,-796 -739,-796 -407,0 -739,358 -739,796l0 2793 1478 0z"/>
    <rect class="fil8 str0" x="5768" y="17108" width="495" height="871"/>
    <path class="fil8 str2" d="M5825 16218l0 -427c0,-49 -37,-88 -82,-88 -45,0 -81,39 -81,88l0 427 163 0z"/>
    <path class="fil8 str2" d="M5988 15524l0 694 163 0 0 -694c0,-49 -37,-88 -82,-88 -45,0 -81,39 -81,88z"/>
    <path class="fil8 str2" d="M6314 15791l0 427 163 0 0 -427c0,-49 -37,-88 -82,-88 -44,0 -81,39 -81,88z"/>
    <path class="fil6 str2" d="M8787 17764l0 -2792c0,-438 -332,-796 -739,-796 -406,0 -739,358 -739,796l0 2792 1478 0z"/>
    <path class="fil8 str2" d="M7823 15464l0 -428c0,-48 -36,-87 -81,-87 -45,0 -82,39 -82,87l0 428 163 0z"/>
    <path class="fil8 str2" d="M7986 14770l0 694 163 0 0 -694c0,-49 -36,-88 -81,-88 -45,0 -82,39 -82,88z"/>
    <path class="fil8 str2" d="M8312 15036l0 428 164 0 0 -428c0,-48 -37,-87 -82,-87 -45,0 -82,39 -82,87z"/>
    <path class="fil6 str2" d="M10729 17764l0 -2792c0,-438 -332,-796 -739,-796 -406,0 -739,358 -739,796l0 2792 1478 0z"/>
    <path class="fil8 str2" d="M9765 15464l0 -428c0,-48 -37,-87 -81,-87 -45,0 -82,39 -82,87l0 428 163 0z"/>
    <path class="fil8 str2" d="M9928 14770l0 694 163 0 0 -694c0,-49 -36,-88 -81,-88 -45,0 -82,39 -82,88z"/>
    <path class="fil8 str2" d="M10254 15036l0 428 163 0 0 -428c0,-48 -36,-87 -81,-87 -45,0 -82,39 -82,87z"/>
    <path class="fil6 str2" d="M12593 17764l0 -2792c0,-438 -333,-796 -739,-796 -407,0 -740,358 -740,796l0 2792 1479 0z"/>
    <path class="fil6 str2" d="M11628 15464l0 -428c0,-48 -36,-87 -81,-87 -45,0 -82,39 -82,87l0 428 163 0z"/>
    <path class="fil6 str2" d="M11792 14770l0 694 163 0 0 -694c0,-49 -37,-88 -82,-88 -45,0 -81,39 -81,88z"/>
    <path class="fil6 str2" d="M12118 15036l0 428 163 0 0 -428c0,-48 -37,-87 -82,-87 -45,0 -81,39 -81,87z"/>
    <path class="fil6 str2" d="M14959 17764l0 -2792c0,-438 332,-796 739,-796 406,0 739,358 739,796l0 2792 -1478 0z"/>
    <path class="fil6 str2" d="M13017 17764l0 -2792c0,-438 333,-796 739,-796 407,0 739,358 739,796l0 2792 -1478 0z"/>
    <polygon class="fil5 str2" points="16721,15464 7025,15464 7025,18519 10520,18519 16721,18519 "/>
    <polygon class="fil2 str2" points="6826,12505 6826,12619 16641,12619 16641,12505 "/>
    <path class="fil3 str2" d="M9131 13035c-259,-171 -547,-269 -605,-427 -99,268 -859,365 -1017,931l2034 0c-65,-233 -231,-386 -412,-504z"/>
    <rect class="fil2 str0" x="9582" y="11486" width="624" height="2053"/>
    <polygon class="fil3 str0" points="9582,11486 10206,11486 9894,10106 "/>
    <rect class="fil2 str0" x="6481" y="11486" width="624" height="2053"/>
    <polygon class="fil3 str0" points="6481,11486 7105,11486 6793,10106 "/>
    <path class="fil3 str2" d="M6826 13035c-259,-171 -547,-269 -605,-427 -99,268 -859,365 -1017,931l2033 0c-65,-233 -231,-386 -411,-504z"/>
    <path class="fil3 str2" d="M11411 13035c-259,-171 -547,-269 -605,-427 -99,268 -859,365 -1017,931l2034 0c-65,-233 -231,-386 -412,-504z"/>
    <rect class="fil6 str0" x="16133" y="19017" width="6333" height="499"/>
    <path class="fil3 str6" d="M14164 11486c173,-531 462,-1003 836,-1380 789,190 1468,692 1920,1380l-2756 0z"/>
    <line class="fil6 str0" x1="16920" y1="11486" x2="16920" y2= "13053" />
    <polygon class="fil7 str2" points="16133,19516 16133,19017 19371,19017 22465,19017 22465,19516 "/>
    <polygon class="fil7 str2" points="14974,18519 19371,18519 19371,19017 14974,19017 "/>
    <path class="fil6 str2" d="M16957 18519l0 -2793c0,-438 333,-796 739,-796 407,0 740,358 740,796l0 2793 -1479 0z"/>
    <rect class="fil8 str0" x="17484" y="17108" width="495" height="871"/>
    <path class="fil8 str2" d="M17922 16218l0 -427c0,-49 36,-88 81,-88 45,0 82,39 82,88l0 427 -163 0z"/>
    <path class="fil8 str2" d="M17758 15524l0 694 -163 0 0 -694c0,-49 37,-88 82,-88 45,0 81,39 81,88z"/>
    <path class="fil8 str2" d="M17432 15791l0 427 -163 0 0 -427c0,-49 37,-88 82,-88 45,0 81,39 81,88z"/>
    <path class="fil8 str2" d="M15923 15464l0 -428c0,-48 37,-87 81,-87 45,0 82,39 82,87l0 428 -163 0z"/>
    <path class="fil8 str2" d="M15760 14770l0 694 -163 0 0 -694c0,-49 36,-88 81,-88 45,0 82,39 82,88z"/>
    <path class="fil8 str2" d="M15434 15036l0 428 -163 0 0 -428c0,-48 36,-87 81,-87 45,0 82,39 82,87z"/>
    <path class="fil8 str2" d="M13981 15464l0 -428c0,-48 37,-87 82,-87 45,0 81,39 81,87l0 428 -163 0z"/>
    <path class="fil8 str2" d="M13818 14770l0 694 -163 0 0 -694c0,-49 37,-88 82,-88 44,0 81,39 81,88z"/>
    <path class="fil8 str2" d="M13492 15036l0 428 -163 0 0 -428c0,-48 37,-87 81,-87 45,0 82,39 82,87z"/>
    <path class="fil8 str2" d="M12118 15464l0 -428c0,-48 36,-87 81,-87 45,0 82,39 82,87l0 428 -163 0z"/>
    <path class="fil8 str2" d="M11955 14770l0 694 -163 0 0 -694c0,-49 36,-88 81,-88 45,0 82,39 82,88z"/>
    <path class="fil8 str2" d="M11628 15036l0 428 -163 0 0 -428c0,-48 37,-87 82,-87 45,0 81,39 81,87z"/>
    <path class="fil3 str2" d="M14615 13035c259,-171 547,-269 605,-427 99,268 859,365 1017,931l-2033 0c64,-233 231,-386 411,-504z"/>
    <rect class="fil2 str0" x="13540" y="11486" width="624" height="2053"/>
    <polygon class="fil3 str0" points="14164,11486 13540,11486 13852,10106 "/>
    <rect class="fil2 str0" x="16641" y="11486" width="624" height="2053"/>
    <polygon class="fil3 str0" points="17265,11486 16641,11486 16953,10106 "/>
    <path class="fil3 str2" d="M16920 13035c259,-171 547,-269 606,-427 99,268 858,365 1016,931l-2033 0c65,-233 231,-386 411,-504z"/>
    <path class="fil3 str2" d="M12335 13035c259,-171 547,-269 605,-427 99,268 859,365 1017,931l-2034 0c65,-233 232,-386 412,-504z"/>
    <path class="fil2 str0" d="M8111 18519l0 -1947c0,-341 259,-620 576,-620l0 0c317,0 576,279 576,620l0 1947 -1152 0z"/>
    <rect class="fil8 str0" x="8399" y="17102" width="576" height="1417"/>
    <polygon class="fil7 str2" points="14974,18519 8772,18519 8772,19017 14974,19017 "/>
    <polygon class="fil7 str2" points="16133,19017 9931,19017 7613,19017 7613,19516 16133,19516 "/>
    <path class="fil3 str2" d="M9003 8950c491,-1037 1453,-1773 2582,-1880 95,-10 191,-14 288,-14 97,0 193,4 288,14 1130,107 2091,843 2583,1880l-5741 0z"/>
    <path class="fil3 str2" d="M11936 10171c723,0 1324,570 1435,1315l-2996 0c111,-745 712,-1315 1436,-1315 21,0 41,1 62,2 21,-1 42,-2 63,-2z"/>
    <path class="fil2 str2" d="M4862 13846c-78,0 -142,-69 -142,-154 0,-84 64,-153 142,-153 4674,0 9348,0 14022,0 78,0 142,69 142,153 0,85 -64,154 -142,154 -4674,0 -9348,0 -14022,0z"/>
    <path class="fil2 str2" d="M16721 15272c99,0 179,43 179,96 0,53 -81,96 -179,96l-9696 0 -35 0c-98,0 -178,-43 -178,-96 0,-53 80,-96 178,-96l9731 0z"/>
    <path class="fil2 str0" d="M10268 18519l0 -1946c0,-342 259,-621 576,-621l0 0c317,0 576,280 576,621l0 1946 -1152 0z"/>
    <rect class="fil8 str0" x="10556" y="17102" width="576" height="1417"/>
    <path class="fil2 str0" d="M12326 18519l0 -1946c0,-342 259,-621 576,-621l0 0c317,0 577,280 577,621l0 1946 -1153 0z"/>
    <rect class="fil8 str0" x="12614" y="17102" width="576" height="1417"/>
    <path class="fil2 str0" d="M14483 18519l0 -1947c0,-341 259,-620 576,-620l0 0c317,0 577,279 577,620l0 1947 -1153 0z"/>
    <rect class="fil8 str0" x="14771" y="17102" width="576" height="1417"/>
    <path class="fil8 str2" d="M9191 9991l0 -601c0,-68 -49,-123 -109,-123 -59,0 -108,55 -108,123l0 601 217 0z"/>
    <path class="fil8 str2" d="M10055 9991l0 -601c0,-68 -48,-123 -108,-123 -59,0 -108,55 -108,123l0 601 216 0z"/>
    <path class="fil8 str2" d="M9623 9991l0 -601c0,-68 -49,-123 -108,-123 -60,0 -108,55 -108,123l0 601 216 0z"/>
    <path class="fil8 str2" d="M10488 9991l0 -601c0,-68 -49,-123 -108,-123 -60,0 -108,55 -108,123l0 601 216 0z"/>
    <path class="fil8 str2" d="M10920 9991l0 -601c0,-68 -48,-123 -108,-123 -59,0 -108,55 -108,123l0 601 216 0z"/>
    <path class="fil8 str2" d="M11353 9991l0 -601c0,-68 -49,-123 -109,-123 -59,0 -108,55 -108,123l0 601 217 0z"/>
    <path class="fil8 str2" d="M12217 9991l0 -601c0,-68 -48,-123 -108,-123 -59,0 -108,55 -108,123l0 601 216 0z"/>
    <path class="fil8 str2" d="M11785 9991l0 -601c0,-68 -49,-123 -108,-123 -60,0 -108,55 -108,123l0 601 216 0z"/>
    <path class="fil8 str2" d="M12650 9991l0 -601c0,-68 -49,-123 -108,-123 -60,0 -108,55 -108,123l0 601 216 0z"/>
    <path class="fil8 str2" d="M13082 9991l0 -601c0,-68 -48,-123 -108,-123 -59,0 -108,55 -108,123l0 601 216 0z"/>
    <path class="fil8 str2" d="M13515 9991l0 -601c0,-68 -49,-123 -108,-123 -60,0 -109,55 -109,123l0 601 217 0z"/>
    <path class="fil8 str2" d="M14380 9991l0 -601c0,-68 -49,-123 -109,-123 -59,0 -108,55 -108,123l0 601 217 0z"/>
    <path class="fil8 str2" d="M13947 9991l0 -601c0,-68 -49,-123 -108,-123 -59,0 -108,55 -108,123l0 601 216 0z"/>
    <path class="fil8 str2" d="M14781 9991l0 -601c0,-68 -49,-123 -108,-123 -60,0 -108,55 -108,123l0 601 216 0z"/>
    <path class="fil8 str2" d="M7575 12388l0 -421c0,-47 -48,-86 -108,-86 -59,0 -108,39 -108,86l0 421 216 0z"/>
    <path class="fil8 str2" d="M8440 12388l0 -421c0,-47 -49,-86 -108,-86 -59,0 -108,39 -108,86l0 421 216 0z"/>
    <path class="fil8 str2" d="M8008 12388l0 -421c0,-47 -49,-86 -108,-86 -60,0 -109,39 -109,86l0 421 217 0z"/>
    <path class="fil8 str2" d="M8873 12388l0 -421c0,-47 -49,-86 -109,-86 -59,0 -108,39 -108,86l0 421 217 0z"/>
    <path class="fil8 str2" d="M9305 12388l0 -421c0,-47 -49,-86 -108,-86 -60,0 -108,39 -108,86l0 421 216 0z"/>
    <path class="fil8 str2" d="M10473 12388l0 -421c0,-47 -48,-86 -108,-86 -59,0 -108,39 -108,86l0 421 216 0z"/>
    <path class="fil8 str2" d="M10906 12388l0 -421c0,-47 -49,-86 -109,-86 -59,0 -108,39 -108,86l0 421 217 0z"/>
    <path class="fil8 str2" d="M11338 12388l0 -421c0,-47 -49,-86 -108,-86 -60,0 -108,39 -108,86l0 421 216 0z"/>
    <path class="fil8 str2" d="M11770 12388l0 -421c0,-47 -48,-86 -108,-86 -59,0 -108,39 -108,86l0 421 216 0z"/>
    <path class="fil8 str2" d="M12635 12388l0 -421c0,-47 -48,-86 -108,-86 -59,0 -108,39 -108,86l0 421 216 0z"/>
    <path class="fil8 str2" d="M12203 12388l0 -421c0,-47 -49,-86 -108,-86 -60,0 -108,39 -108,86l0 421 216 0z"/>
    <path class="fil8 str2" d="M13037 12388l0 -421c0,-47 -49,-86 -108,-86 -60,0 -109,39 -109,86l0 421 217 0z"/>
    <path class="fil8 str2" d="M16171 12388l0 -421c0,-47 49,-86 108,-86 59,0 108,39 108,86l0 421 -216 0z"/>
    <path class="fil8 str2" d="M15306 12388l0 -421c0,-47 49,-86 108,-86 60,0 108,39 108,86l0 421 -216 0z"/>
    <path class="fil8 str2" d="M15738 12388l0 -421c0,-47 49,-86 109,-86 59,0 108,39 108,86l0 421 -217 0z"/>
    <path class="fil8 str2" d="M14874 12388l0 -421c0,-47 48,-86 108,-86 59,0 108,39 108,86l0 421 -216 0z"/>
    <path class="fil8 str2" d="M14441 12388l0 -421c0,-47 49,-86 108,-86 60,0 108,39 108,86l0 421 -216 0z"/>
    <path class="fil8 str2" d="M13469 12388l0 -421c0,-47 -49,-86 -108,-86 -60,0 -108,39 -108,86l0 421 216 0z"/>
    <path class="fil2 str4" d="M8716 10128c-35,0 -64,-30 -64,-68 0,-38 29,-69 64,-69 2105,0 4210,0 6314,0 35,0 64,31 64,69 0,38 -29,68 -64,68 -2104,0 -4209,0 -6314,0zm131 -1041c-35,0 -63,-30 -63,-68 0,-38 28,-69 63,-69l6052 0c35,0 64,31 64,69 0,38 -29,68 -64,68l-6052 0z"/>
    <polygon class="fil2 str2" points="17292,19516 9403,19516 6455,19516 6455,20015 17292,20015 "/>
    <polygon class="fil2 str2" points="6455,19516 -4006,19516 -7915,19516 -7915,20015 6455,20015 "/>
    <polygon class="fil2 str2" points="31772,19516 21231,19516 17292,19516 17292,20015 31772,20015 "/>
   </g>
  </g>
  <path class="fil6" d="M23818 24036c39,1928 -1106,2774 -3034,2774l-6132 0c-1426,0 -2613,1166 -2694,1890 42,-706 -1366,-1970 -2711,-1890l-6392 0c-1949,0 -2834,-846 -2834,-2774l0 -60 -21 0 0 -23976 23857 0 0 23976 -39 0 0 60z"/>
 </g>
</svg>
