<?xml version="1.0" encoding="UTF-8"?>
<!DOCTYPE svg PUBLIC "-//W3C//DTD SVG 1.1//EN" "http://www.w3.org/Graphics/SVG/1.1/DTD/svg11.dtd">
<!-- Creator: CorelDRAW X8 -->
<svg xmlns="http://www.w3.org/2000/svg" xml:space="preserve" width="1874px" height="2408px" version="1.1" style="shape-rendering:geometricPrecision; text-rendering:geometricPrecision; image-rendering:optimizeQuality; fill-rule:evenodd; clip-rule:evenodd"
viewBox="0 0 187400000 240800045"
 xmlns:xlink="http://www.w3.org/1999/xlink">
 <defs>
  <style type="text/css">
   <![CDATA[
    .str1 {stroke:white;stroke-width:312520}
    .str0 {stroke:black;stroke-width:625040}
    .fil3 {fill:none}
    .fil0 {fill:black}
    .fil1 {fill:#0074C1}
    .fil4 {fill:#FF3300}
    .fil2 {fill:white}
   ]]>
  </style>
 </defs>
 <g id="Слой_x0020_1">
  <metadata id="CorelCorpID_0Corel-Layer"/>
  <g id="_2774208249792">
   <g id="ramka">
    <g>
     <g>
      <path class="fil0" d="M181708499 5616855l0 188565277c0,12349853 -10024615,22343522 -22412735,22343522l-33645265 0c-17660920,0 -31950735,10857175 -31950735,24274273 0,-13416980 -14289815,-24274273 -31950027,-24274273l-33644556 0c-12388475,0 -22413680,-9993433 -22413680,-22343522l0 -188565277 176016998 0 0 0zm5616973 -5616855l-5616973 0 -176016998 0 -5616973 0 0 5616855 0 188565277c0,7476502 2916852,14501705 8212566,19780882 5291461,5274690 12329537,8179614 19818087,8179614l33644556 0c7321423,0 14140051,2116891 19199307,5961383 4600280,3495003 7133628,8003865 7133628,12696152l11233711 0c0,-4692051 2533230,-9200795 7133510,-12696152 5059964,-3844138 11878356,-5961383 19200016,-5961383l33644792 0c7488549,0 14526626,-2904924 19817851,-8179614 5295713,-5279177 8211975,-12304498 8211975,-19780882l0 -188565277 0 -5616855 945 0z"/>
     </g>
    </g>
   </g>
   <path class="fil1" d="M91203384 240799927c0,-12008042 -13213004,-21777774 -29453647,-21777774l-33644556 0c-13735523,0 -24910178,-11143474 -24910178,-24840376l0 -191061538 181009876 0 0 191061656c0,13696902 -11174537,24840258 -24909588,24840258l-33645028 0c-16241116,0 -29454001,9769732 -29454001,21777774l-4992878 0z"/>
   <g>
    <path class="fil2" d="M181708499 5616501l0 188565276c0,12350089 -10024969,22343877 -22413090,22343877l-33645146 0c-17660566,0 -31950499,10857175 -31950499,24274273 0,-13416980 -14290052,-24274273 -31950027,-24274273l-33644556 0c-12388711,0 -22413680,-9993433 -22413680,-22343877l0 -188565276 176016998 0 0 0zm4992760 -4992760l-4992760 0 -181009876 0 0 193558036c0,7309849 2851656,14177847 8028904,19339150 5173469,5157288 12055168,7997606 19377418,7997606l33644438 0c7456778,0 14409342,2162127 19577260,6088351 4759138,3616066 7380006,8301503 7380006,13193043l9985757 0c0,-4891776 2620868,-9576977 7380006,-13193043 5167918,-3926224 12120364,-6088351 19577261,-6088351l33644792 0c7322250,0 14203949,-2840318 19377181,-7997606 5177603,-5161303 8028786,-12029301 8028786,-19339150l-118 -188565276 0 -4992760 945 0z"/>
   </g>
   <line class="fil3 str0" x1="88365901" y1="240487879" x2="99033981" y2= "240487879" />
   <g id="utki">
    <path class="fil2" d="M81988179 140553189c-2730475,-3120475 -3275318,-6096619 -4991697,-8202881 -1716261,-2106262 -5619335,-3608861 -5619335,-5091146 0,-1482285 4566499,-1698781 7265084,-1001694 2591932,669686 3722248,1446025 6050439,3452247 2258269,1945632 4645161,5722682 5837839,7099258 1205789,1391458 4767170,4083783 6241068,5538903 1415198,1397717 3507759,4019885 4173665,3783664 1209214,-428977 2314490,-6071934 4030752,-8568196 1503190,-2186931 6657053,-4914925 8373314,-6553234 1716261,-1638308 4934532,-7443668 6006973,-7755715 973938,-283347 3158625,5440871 1521262,11136505 -897167,3120475 -8932567,9520048 -9790639,11625246 -858189,2105081 -616654,3525830 -1170237,5069532 -643701,1794332 -2828152,2945081 -2574451,3666736 120827,343819 2886499,546024 3744688,546024 858072,0 5519651,-877796 6070635,-376064 423426,385512 -803859,3068743 -2286970,4237681 -2301262,1813230 -1209096,3704885 -1521143,4562957 -311929,858189 -3901184,2354529 -6943116,2418427 -11155994,234331 -18535291,-8067763 -24418013,-9751544 -5655949,-1619056 -5496500,-778937 -7957329,-1072796 -2613546,-312166 -2340475,-721890 -3978665,-1267914 -1638190,-546025 -5850950,233976 -5850950,-858072 0,-1092166 2028309,-468189 4056736,-1326261 2028309,-858190 1902285,-1586812 3172562,-2366341 1144253,-702047 3146459,-520157 4238625,-52086 1092048,468071 6319021,3101105 8503354,3569294 2184450,468071 7392171,1954372 7723235,409725 312047,-1456419 -1456301,-4056736 -3978547,-7099258 -2187640,-2638467 -5929139,-5772997 -5929139,-5772997z"/>
    <path class="fil2" d="M39159127 103210835c-2730474,-3120475 -3275435,-6096501 -4991697,-8202881 -1716261,-2106262 -5619335,-3609216 -5619335,-5091500 0,-1482285 4566500,-1698781 7265085,-1001694 2591931,669685 3722247,1446143 6050438,3452247 2258269,1945749 4645161,5722800 5837839,7099258 1205789,1391458 4767170,4083783 6241069,5539020 1415198,1397718 3507758,4019885 4173665,3783665 1209213,-429095 2314490,-6072053 4030751,-8568315 1503190,-2186931 6657053,-4914807 8373314,-6553233 1716261,-1638309 4934532,-7443668 6006974,-7755716 973937,-283346 3158624,5440989 1521261,11136506 -897166,3120475 -8932567,9520165 -9790638,11625246 -858190,2105080 -616654,3525830 -1170238,5069532 -643701,1794332 -2828152,2945081 -2574451,3666735 120827,343819 2886499,546024 3744689,546024 858071,0 5519650,-877796 6070635,-375945 423425,385394 -803859,3068624 -2286971,4237917 -2301380,1813938 -1209331,3705593 -1521261,4563783 -311929,858072 -3901184,2354412 -6943116,2418309 -11155994,233977 -18535291,-8068117 -24418013,-9751898 -5656067,-1619056 -5496618,-778937 -7957447,-1072796 -2613428,-312047 -2340357,-721772 -3978547,-1267914 -1638190,-546024 -5850950,233976 -5850950,-858072 0,-1092166 2028309,-468189 4056736,-1326261 2028309,-858190 1902285,-1586812 3172562,-2366222 1144253,-702166 3146459,-520276 4238625,-52205 1092048,468189 6319021,3101105 8503354,3569294 2184451,468072 7392172,1954372 7723235,409725 312047,-1456300 -1456301,-4056736 -3978547,-7099258 -2187640,-2638821 -5929021,-5773351 -5929021,-5773351z"/>
    <path class="fil2" d="M124999239 103210835c-2730475,-3120475 -3275436,-6096501 -4991697,-8202881 -1716261,-2106262 -5619336,-3608861 -5619336,-5091146 0,-1482285 4566855,-1698781 7264849,-1001694 2592286,669686 3722247,1446143 6050792,3452247 2258270,1945750 4645162,5722800 5837840,7099258 1205434,1391458 4767169,4083783 6241068,5539020 1415198,1397718 3507759,4019886 4173665,3783665 1209096,-429567 2314490,-6072525 4030752,-8568787 1503190,-2186931 6657052,-4914807 8373314,-6553234 1716261,-1638308 4934531,-7443667 6006973,-7755715 973938,-283346 3158625,5440989 1521261,11136506 -897166,3120475 -8932566,9520165 -9790638,11625246 -858189,2105080 -616654,3525829 -1170237,5069531 -643701,1794333 -2828152,2945082 -2574451,3666736 120827,343819 2886499,546024 3744688,546024 858072,0 5519651,-877796 6070635,-375945 423426,385394 -803859,3068624 -2286970,4237562 -2301380,1813939 -1209332,3705594 -1521261,4563784 -311930,858071 -3901185,2354411 -6943116,2418309 -11155994,234331 -18535292,-8067763 -24418013,-9751544 -5656068,-1619056 -5496501,-778937 -7957448,-1072796 -2613427,-312047 -2340356,-721772 -3978546,-1267914 -1638191,-546025 -5850950,233976 -5850950,-858072 0,-1092166 2028309,-468189 4056736,-1326261 2028308,-858190 1902285,-1586812 3172561,-2366222 1144253,-702166 3146460,-520276 4238626,-52205 1092048,468189 6319021,3101105 8503354,3569294 2184450,468071 7392171,1954372 7723234,409725 312048,-1456301 -1455946,-4056736 -3978546,-7099258 -2187640,-2638703 -5929139,-5773233 -5929139,-5773233z"/>
    <path class="fil2" d="M39159127 177479204c-2730474,-3120475 -3275435,-6096619 -4991697,-8202881 -1716261,-2106379 -5619335,-3609215 -5619335,-5091382 0,-1482166 4566500,-1698899 7265085,-1001694 2591931,669686 3722247,1446025 6050438,3452247 2258269,1945632 4645161,5722682 5837839,7099258 1205789,1391458 4767170,4083783 6241069,5538903 1415198,1397717 3507758,4019885 4173665,3783664 1209213,-429095 2314490,-6071934 4030751,-8568314 1503190,-2186813 6657053,-4914807 8373314,-6553116 1716261,-1638308 4934532,-7443668 6006974,-7755715 973937,-283347 3158624,5440871 1521261,11136505 -897166,3120475 -8932567,9520048 -9790638,11625246 -858190,2105081 -616654,3525830 -1170238,5069532 -643701,1794332 -2828152,2945081 -2574451,3666617 120827,343938 2886499,546143 3744689,546143 858071,0 5519650,-877914 6070635,-376064 423425,385512 -803859,3068743 -2286971,4237681 -2301380,1813939 -1209331,3705594 -1521261,4563665 -311929,858190 -3901184,2354530 -6943116,2418428 -11155994,234330 -18535291,-8067763 -24418013,-9751662 -5656067,-1618939 -5496618,-778820 -7957447,-1072678 -2613428,-312166 -2340357,-721891 -3978547,-1267915 -1638190,-546024 -5850950,233977 -5850950,-858189 0,-1092049 2028309,-468072 4056736,-1326143 2028309,-858190 1902285,-1586813 3172562,-2366341 1144253,-702048 3146459,-520158 4238625,-52086 1092048,468071 6319021,3101104 8503354,3569294 2184451,468071 7392172,1954372 7723235,409725 312047,-1456419 -1456301,-4056736 -3978547,-7099258 -2187640,-2638821 -5929021,-5773470 -5929021,-5773470z"/>
    <path class="fil2" d="M124999239 177479204c-2730475,-3120475 -3275082,-6096619 -4991343,-8202881 -1716261,-2106379 -5619690,-3608861 -5619690,-5091146 0,-1482284 4566500,-1698899 7265085,-1001693 2591695,669685 3722247,1446024 6050438,3452247 2257916,1945631 4645162,5722682 5837840,7099258 1205788,1391457 4767169,4083782 6241068,5538902 1415198,1397718 3507759,4019885 4173665,3783664 1209214,-429567 2314608,-6072288 4030870,-8568786 1503190,-2186813 6657052,-4914808 8373314,-6553116 1716261,-1638309 4934531,-7443668 6006973,-7755715 973938,-283347 3158625,5440870 1521261,11136505 -897166,3120475 -8932566,9520048 -9790638,11625246 -858189,2105081 -616654,3525830 -1170237,5069532 -643701,1794332 -2828152,2945081 -2574451,3666617 120827,343938 2886499,546142 3744688,546142 858072,0 5519651,-877914 6070635,-376063 423426,385512 -803859,3068743 -2286970,4237681 -2301380,1813938 -1209332,3705594 -1521261,4563665 -311930,858190 -3901185,2354530 -6943116,2418427 -11155994,234331 -18535292,-8067762 -24418013,-9751543 -5656068,-1619057 -5496501,-778938 -7957448,-1072796 -2613427,-312166 -2340356,-721891 -3978546,-1267915 -1638191,-546024 -5850950,233977 -5850950,-858190 0,-1092048 2028309,-468071 4056736,-1326142 2028308,-858190 1902639,-1586813 3172561,-2366341 1144253,-702048 3146460,-520158 4238626,-52087 1092048,468072 6319021,3101105 8503354,3569295 2184450,468071 7392171,1954371 7723234,409724 312048,-1456418 -1456300,-4056735 -3978546,-7099258 -2187640,-2638584 -5929139,-5773233 -5929139,-5773233z"/>
   </g>
   <g id="volna">
    <polygon class="fil2" points="5249296,5616501 5249296,71132540 10371387,71132540 16495289,76655852 23282500,71132540 30343608,75906560 37364677,70731792 45790196,75906560 52123863,71132540 58636467,76655852 65364504,71132540 72405651,76655852 78776287,71132540 84900544,75906560 93364330,69561673 101959574,75906560 108123162,71132540 114635411,76655852 121364157,71132540 128404596,76655852 134775586,71132540 141122126,75906560 149325598,70731792 156672769,75906560 163407657,71132540 170194631,76655852 176318770,71132540 181708499,71132540 181708499,5616501 "/>
   </g>
   <polygon class="fil4" points="49066695,36613968 42825627,36613968 49794727,30684947 56868001,36613968 49066695,43270903 54891778,48094647 37624638,62410092 20357852,48094647 26182935,43270903 18381630,36613968 25454667,30684947 32424122,36613968 26182935,36613968 31903846,41294680 37624638,36613968 43345903,41294680 "/>
   <polygon class="fil1" points="105065994,36613968 98824926,36613968 105794262,30684947 112867300,36613968 105065994,43270903 110891314,48094647 93624291,62410092 76357505,48094647 82182589,43270903 74381283,36613968 81454202,30684947 88423539,36613968 82182589,36613968 87903499,41294680 93624291,36613968 99345438,41294680 "/>
   <polygon class="fil4" points="161027143,36613968 154786075,36613968 161755530,30684947 168828567,36613968 161027143,43270903 166852699,48094647 149585559,62410092 132318418,48094647 138143856,43270903 130342550,36613968 137415470,30684947 144384924,36613968 138143856,36613968 143864294,41294680 149585559,36613968 155306705,41294680 "/>
   <polygon class="fil4" points="181708617,66378009 176578849,66378009 170454946,71901675 163667618,66378009 158635999,70809626 153277452,66378009 175069635,48094647 169244670,43270784 177253850,36613968 161235726,22987578 151770009,30684947 151770009,27044314 159571197,20491080 153954224,20491080 149585677,24235768 145216776,20491080 139599802,20491080 147401108,27044314 147401108,30684947 137935273,22987578 121916913,36613968 129926212,43270784 124101364,48094647 145893666,66378009 140873977,70809626 135035783,66378009 128664911,71901675 121624472,66378009 114895726,71901675 108383477,66378009 103351622,70809626 97316184,66378009 119108250,48094647 113283520,43270784 121292700,36613968 105274459,22987578 95808742,30684947 95808742,27044314 103609811,20491080 97992956,20491080 93624291,24235768 89255508,20491080 83638653,20491080 91439959,27044314 91439959,30684947 81974478,22987578 65955764,36613968 73964944,43270784 68140097,48094647 89932398,66378009 84874560,70809626 79036366,66378009 72665612,71901675 65624819,66378009 58896427,71901675 52383824,66378009 47352087,70809626 41316885,66378009 63108833,48094647 57283985,43270784 65293401,36613968 49274923,22987578 39809089,30684947 39809089,27044314 47610394,20491080 41993421,20491080 37624638,24235768 33255737,20491080 27639000,20491080 35440187,27044314 35440187,30684947 25974825,22987578 9956347,36613968 17965291,43270784 12140561,48094647 33932745,66378009 28574552,70809626 23542815,66378009 16755605,71901675 10631584,66378009 5691619,66378009 5691619,5616501 181708381,5616501 "/>
   <polygon class="fil2 str1" points="83743417,43192950 82612274,43192950 82066250,43739092 82066250,52255556 83743417,52255556 "/>
   <polygon class="fil2 str1" points="90394328,43192950 90394328,56708906 89418973,56708906 88511885,55801700 88511885,49824136 84523654,49824136 84523654,47724253 88853342,43192950 "/>
   <ellipse class="fil2 str1" cx="95198595" cy="49824096" rx="3744624" ry="3130152"/>
   <g>
    <path class="fil2" d="M91453660 49824136c0,-4774138 1675985,-6527249 6241068,-6527249l0 1326261c-2401892,0 -3740673,805040 -3740673,2249057l-2500395 2951931zm0 0l0 0 0 0z"/>
    <path id="1" class="fil3 str1" d="M91453660 49824136c0,-4774138 1675985,-6527249 6241068,-6527249l0 1326261c-2401892,0 -3740673,805040 -3740673,2249057m-2500395 2951931l0 0 0 0z"/>
   </g>
   <ellipse class="fil2 str1" cx="102063700" cy="46323138" rx="3744624" ry="3130152"/>
   <g>
    <path class="fil2" d="M105808317 46323110c0,4774138 -1676104,6527249 -6240714,6527249l0 -1326261c2401892,0 3740555,-805040 3740555,-2249057l2500159 -2951931zm0 0l0 0 0 0z"/>
    <path id="1" class="fil3 str1" d="M105808317 46323110c0,4774138 -1676104,6527249 -6240714,6527249l0 -1326261c2401892,0 3740555,-805040 3740555,-2249057m2500159 -2951931l0 0 0 0z"/>
   </g>
   <polygon class="fil1" points="86517947,48471891 88511885,48471891 88511885,45663464 86517947,47724253 "/>
   <ellipse class="fil1" cx="95198595" cy="49824096" rx="1742459" ry="1482164"/>
   <ellipse class="fil1" cx="102063700" cy="46323138" rx="1742459" ry="1482164"/>
  </g>
 </g>
</svg>
