<?xml version="1.0" encoding="UTF-8" standalone="no"?>
<svg
   xmlns="http://www.w3.org/2000/svg"
   xmlns:xlink="http://www.w3.org/1999/xlink"
   version="1.1"
   width="776.45129"
   height="922.89941">
  <defs
     id="defs4">
    <clipPath
       id="clipPath5318">
      <path
         d="m 809.65769,22.223874 0,0.40625 0,219.093746 0,0.40625 0.40625,0 201.31246,0 0.375,0 0.031,-0.40625 c 0.1324,-5.39217 0.2597,-10.73816 0.3437,-16.34375 1.009,-67.57403 1.0646,-135.174392 0,-202.749996 l 0,-0.40625 -0.4063,0 -201.65616,0 -0.40625,0 z" />
    </clipPath>
    <clipPath
       id="clipPath7560">
      <path
         d="m 1012.3275,5.20074 0,0.40625 0,254.09375 0,0.625 -0.5625,-0.25 C 936.70711,226.18114 878.3467,191.62822 843.29626,143.88824 816.80766,107.80981 811.69166,62.44162 810.23376,5.60699 l 0,-0.40625 0.4063,0 201.28124,0 0.4062,0 z" />
    </clipPath>
  </defs>
  <g
     transform="translate(459.63712,507.03897)">
    <g
       transform="matrix(-1.8844245,0,0,1.8844245,1468.9486,-497.29102)">
      <path
         d="m 817.21875,3.875 0,0.40625 0,219.09375 0,0.40625 0.40625,0 201.3125,0 0.375,0 0.031,-0.40625 c 0.1324,-5.39217 0.2597,-10.73816 0.3437,-16.34375 1.009,-67.57403 1.0646,-135.174396 0,-202.75 l 0,-0.40625 -0.4063,0 -201.6562,0 -0.40625,0 z"
         fill="#1353b4" />
      <g
         transform="translate(7.5286514,-18.348874)"
         clip-path="url(#clipPath5318)">
        <g
           transform="matrix(-0.56661308,0,0,0.62753748,1317.1383,-227.35872)"
           id="fleur">
          <g
             transform="matrix(0.9025,0,0,0.9025,94.775256,354.65945)">
            <path
               d="m 502.0459,263.91545 c 0.574,-5.39646 0.2684,-15.5749 -2.5708,-20.19983 -0.9594,-1.56279 -3.3097,-3.38275 -5.1418,-3.30542 -1.8055,0.0762 -4.29,0.60986 -5.1418,2.20361 -0.7808,1.46083 -1.2877,4.59767 -1.1018,6.24359 0.2582,2.28612 2.9382,6.97812 2.9382,6.97812 0,0 -9.6038,-1.92736 -12.8545,-4.40724 -3.2162,-2.45361 -6.6875,-7.10482 -7.7126,-11.01809 -0.3517,-1.34254 -1.7247,-5.68443 0.009,-10.89262 1.0064,-3.02315 4.0336,-7.06875 6.3762,-9.08505 6.1173,-5.2652 17.9963,-3.73456 20.4255,-2.42577 3.2127,1.73091 7.1281,5.41194 8.4472,8.81447 1.024,2.64119 3.1525,10.43714 3.6727,13.22171 1.0616,5.68278 1.3699,7.82674 1.8364,13.58897 0.3202,3.9551 1.2029,7.50631 0.3672,11.38536 -0.4502,2.08989 -1.0125,6.88623 -2.2337,10.04454 -1.2278,3.17525 -3.1176,4.71065 -4.7444,6.11532 -3.3233,2.86953 -13.9563,4.40725 -13.9563,4.40725 0,0 5.8421,-7.36967 7.3454,-10.65082 1.7852,-3.89624 3.5866,-6.7564 4.0399,-11.0181 z"
               fill="#fee46e" />
            <path
               d="m 528.08801,263.91545 c -0.574,-5.39646 -0.2684,-15.5749 2.5708,-20.19983 0.9594,-1.56279 3.3097,-3.38275 5.1418,-3.30542 1.8055,0.0762 4.29,0.60986 5.1418,2.20361 0.7808,1.46083 1.2877,4.59767 1.1018,6.24359 -0.2582,2.28612 -2.9382,6.97812 -2.9382,6.97812 0,0 9.6038,-1.92736 12.8545,-4.40724 3.2162,-2.45361 6.6875,-7.10482 7.7126,-11.01809 0.3517,-1.34254 1.7247,-5.68443 -0.009,-10.89262 -1.0064,-3.02315 -4.0336,-7.06875 -6.3762,-9.08505 -6.1173,-5.2652 -17.9963,-3.73456 -20.4255,-2.42577 -3.2127,1.73091 -7.1281,5.41194 -8.4472,8.81447 -1.024,2.64119 -3.1525,10.43714 -3.6727,13.22171 -1.0616,5.68278 -1.3699,7.82674 -1.8364,13.58897 -0.3202,3.9551 -1.2029,7.50631 -0.3672,11.38536 0.4502,2.08989 1.0125,6.88623 2.2337,10.04454 1.2278,3.17525 3.1176,4.71065 4.7444,6.11532 3.3233,2.86953 13.9563,4.40725 13.9563,4.40725 0,0 -5.8421,-7.36967 -7.3454,-10.65082 -1.7852,-3.89624 -3.5866,-6.7564 -4.0399,-11.0181 z"
               fill="#fee46e" />
          </g>
          <path
             d="m 580.2891,611.85415 -2.52823,-0.0402 -8.09738,-2.5449 -9.71686,-8.56007 -7.17196,6.82493 -4.85842,2.31353 -5.55248,1.85083 -3.68592,0.25061 c 0,0 6.52693,-4.39347 8.7795,-6.86397 1.61101,-1.76687 3.25365,-4.55927 4.30994,-6.70435 1.82012,-3.69621 4.62919,-12.92982 4.72695,-12.99321 l 2.0689,-0.31037 3.99068,0.31925 c 0,0 2.80907,9.23361 4.62919,12.92982 1.05629,2.14508 2.69893,4.93748 4.30994,6.70435 2.25257,2.4705 8.79615,6.82377 8.79615,6.82377 z"
             fill="#e4c900" />
          <path
             d="m 581.58581,585.32483 c 0,0 4.92949,-2.07922 6.39807,-3.75059 1.56606,-1.78232 2.61593,-4.95555 3.08872,-7.28057 0.35611,-1.75121 -0.51281,-5.46748 -1.32374,-7.05994 -1.22552,-2.40665 -2.72661,-3.7979 -5.29496,-4.63308 -1.76239,-0.5731 -4.44052,-0.64621 -6.17744,0 -1.80322,0.67088 -4.32663,2.23794 -5.51557,3.75059 -1.79265,2.28074 -2.84909,4.90193 -3.52998,7.72182 -0.41944,1.73712 -1.36094,7.03826 -1.32374,8.82492 0.0331,1.58952 0.22063,6.61869 0.22063,6.61869 l 3.30935,5.51558 0.0824,-0.25118 -0.24721,-9.14656 0,-3.83167 1.73044,-5.9329 2.84284,-3.83167 3.33726,-0.4944 3.21365,1.60682 1.35962,3.46086 -0.2472,4.20247 -1.92314,4.51081 z"
             fill="#e4c900" />
          <path
             d="m 537.67315,585.31444 c 0,0 -4.92948,-2.07923 -6.39807,-3.7506 -1.56606,-1.78232 -2.61593,-4.95555 -3.08872,-7.28056 -0.35611,-1.75121 0.51282,-5.46748 1.32374,-7.05994 1.22552,-2.40666 2.72662,-3.7979 5.29496,-4.63309 1.76239,-0.57309 4.44053,-0.64621 6.17744,0 1.80322,0.67089 4.32663,2.23794 5.51558,3.75059 1.79265,2.28074 2.84908,4.90193 3.52997,7.72182 0.41945,1.73712 1.36094,7.03827 1.32374,8.82493 -0.0331,1.58952 -0.22062,6.61869 -0.22062,6.61869 l -3.30935,5.51557 -0.0824,-0.25118 0.2472,-9.14656 0,-3.83167 -1.73043,-5.9329 -2.84285,-3.83166 -3.33726,-0.49441 -3.21364,1.60683 -1.35963,3.46085 0.2472,4.20247 1.92314,4.51082 z"
             fill="#e4c900" />
          <g
             transform="matrix(0.9025,0,0,0.9025,94.775256,354.65945)">
            <path
               d="m 502.0459,263.91545 c 0.574,-5.39646 0.2684,-15.5749 -2.5708,-20.19983 -0.9594,-1.56279 -3.3097,-3.38275 -5.1418,-3.30542 -1.8055,0.0762 -4.29,0.60986 -5.1418,2.20361 -0.7808,1.46083 -1.2877,4.59767 -1.1018,6.24359 0.2582,2.28612 2.9382,6.97812 2.9382,6.97812 0,0 -9.6038,-1.92736 -12.8545,-4.40724 -3.2162,-2.45361 -6.6875,-7.10482 -7.7126,-11.01809 -0.3517,-1.34254 -1.7247,-5.68443 0.009,-10.89262 1.0064,-3.02315 4.0336,-7.06875 6.3762,-9.08505 6.1173,-5.2652 17.9963,-3.73456 20.4255,-2.42577 3.2127,1.73091 7.1281,5.41194 8.4472,8.81447 1.024,2.64119 3.1525,10.43714 3.6727,13.22171 1.0616,5.68278 1.3699,7.82674 1.8364,13.58897 0.3202,3.9551 1.2029,7.50631 0.3672,11.38536 -0.4502,2.08989 -1.0125,6.88623 -2.2337,10.04454 -1.2278,3.17525 -3.1176,4.71065 -4.7444,6.11532 -3.3233,2.86953 -13.9563,4.40725 -13.9563,4.40725 0,0 5.8421,-7.36967 7.3454,-10.65082 1.7852,-3.89624 3.5866,-6.7564 4.0399,-11.0181 z"
               style="fill:none;stroke:#806600;stroke-width:2.25770712;stroke-linecap:butt;stroke-linejoin:miter;stroke-miterlimit:4" />
            <path
               d="m 528.08801,263.91545 c -0.574,-5.39646 -0.2684,-15.5749 2.5708,-20.19983 0.9594,-1.56279 3.3097,-3.38275 5.1418,-3.30542 1.8055,0.0762 4.29,0.60986 5.1418,2.20361 0.7808,1.46083 1.2877,4.59767 1.1018,6.24359 -0.2582,2.28612 -2.9382,6.97812 -2.9382,6.97812 0,0 9.6038,-1.92736 12.8545,-4.40724 3.2162,-2.45361 6.6875,-7.10482 7.7126,-11.01809 0.3517,-1.34254 1.7247,-5.68443 -0.009,-10.89262 -1.0064,-3.02315 -4.0336,-7.06875 -6.3762,-9.08505 -6.1173,-5.2652 -17.9963,-3.73456 -20.4255,-2.42577 -3.2127,1.73091 -7.1281,5.41194 -8.4472,8.81447 -1.024,2.64119 -3.1525,10.43714 -3.6727,13.22171 -1.0616,5.68278 -1.3699,7.82674 -1.8364,13.58897 -0.3202,3.9551 -1.2029,7.50631 -0.3672,11.38536 0.4502,2.08989 1.0125,6.88623 2.2337,10.04454 1.2278,3.17525 3.1176,4.71065 4.7444,6.11532 3.3233,2.86953 13.9563,4.40725 13.9563,4.40725 0,0 -5.8421,-7.36967 -7.3454,-10.65082 -1.7852,-3.89624 -3.5866,-6.7564 -4.0399,-11.0181 z"
               style="fill:none;stroke:#806600;stroke-width:2.25770712;stroke-linecap:butt;stroke-linejoin:miter;stroke-miterlimit:4" />
          </g>
          <path
             d="m 524.39362,572.71798 c 0,0 0.42901,-3.39708 0.80824,-5.05147 0.46643,-2.03481 1.49305,-4.85211 3.0309,-6.26385 1.62546,-1.49217 4.08801,-2.66415 6.26383,-3.03089 1.91373,-0.32256 4.5843,-0.27327 6.4659,0.20206 1.44559,0.36519 3.17279,1.44562 4.4453,2.22265 0.96233,0.58763 3.0309,2.22266 3.0309,2.22266 0,0 -3.75979,-5.96247 -6.26384,-7.4762 -2.44202,-1.47624 -6.44216,-2.09505 -9.29473,-2.02059 -2.07275,0.0541 -4.33533,1.07438 -6.06178,2.22266 -2.04962,1.36321 -4.25011,4.13843 -5.05148,6.4659 -0.5723,1.66214 -0.50191,4.17496 0,5.85971 0.53763,1.80468 2.62676,4.64736 2.62676,4.64736 z"
             fill="#fff2ac" />
          <path
             d="m 576.92905,558.16971 c 0,0 5.13389,-0.84705 7.27414,-0.40411 2.65466,0.54939 6.14332,2.14669 8.08237,4.04118 1.66804,1.6297 3.63707,6.87001 3.63707,6.87001 0,0 0.16312,-5.49943 -0.60618,-7.67825 -0.46463,-1.31591 -1.56351,-2.93526 -2.62677,-3.83913 -1.63225,-1.38754 -4.32381,-3.00066 -6.4659,-3.03088 -1.12483,-0.0159 -3.69993,-0.073 -5.22518,0.62513 -2.59728,1.1888 -4.06955,3.41605 -4.06955,3.41605 z"
             fill="#fff2ac" />
          <g
             transform="matrix(0.9025,0,0,0.9025,99.287747,-141.71555)">
            <path
               d="m 510,854 c 0,0 8.58079,-7.03775 10,-15 1.27665,-7.16228 -4.4103,-15.5515 -4.84132,-18.92499 -1.72367,-13.49216 1.92936,-31.46657 2.25863,-32.93573 1.30797,-5.83607 2.95399,-8.33308 3.83033,-10.24414 0.63083,-1.37567 2.43333,-4.1112 4.23574,-6.76319 1.03432,-1.52175 3.33777,-4.35506 4.51118,-7.23688 1.24372,-3.0544 1.32896,-6.16333 1.34698,-7.82303 0.0307,-2.8265 -0.50296,-5.23079 -1.25324,-7.53217 -0.71305,-2.18762 -3.03665,-5.76776 -6.40372,-7.82555 -3.63004,-2.21837 -6.56481,-4.00185 -7.68157,-4.70812 C 512.31404,732.67317 510.04353,725 510,725 c -0.0434,0 -2.31409,7.67317 -6.00305,10.0062 -1.11676,0.70627 -3.91757,2.48975 -7.54761,4.70812 -3.36709,2.05779 -5.69067,5.63793 -6.40372,7.82555 -0.75028,2.30138 -1.28395,4.70567 -1.25324,7.53217 0.018,1.6597 0.10326,4.76863 1.34698,7.82303 1.1734,2.88182 3.47686,5.71513 4.51118,7.23688 1.80241,2.65199 3.60491,5.38752 4.23574,6.76319 0.87634,1.91106 2.52236,4.40807 3.83033,10.24414 0.32927,1.46916 3.9823,19.44357 2.25863,32.93573 C 504.54422,823.4485 498.72335,831.83772 500,839 c 1.41921,7.96225 10,15 10,15 z"
               fill="#fee46e" />
            <path
               d="M 510,854 509.9892,726.04466"
               style="fill:none;stroke:#d4aa00;stroke-width:2.25770712;stroke-linecap:butt;stroke-linejoin:miter;stroke-miterlimit:4" />
          </g>
          <path
             d="m 559.79788,628.78449 6.31402,-7.04255 2.42847,-4.61409 -0.4857,-6.31401 -1.69992,-6.55686 -2.67132,-5.82832 0,-9.47102 0.97138,-9.47102 1.21424,-10.44241 2.67132,-8.25678 4.37124,-6.07117 3.64269,-6.31401 1.45708,-3.39985 0.72854,-6.07118 -0.97138,-5.82831 -3.07469,-4.92703 -5.91064,-4.0583 c 0,0 3.50187,3.93691 5.79901,7.63948 1.23337,1.98797 1.21806,4.42689 1.24354,4.98854 0.10894,2.40172 -0.0738,3.51503 -0.72854,5.82833 -0.60573,2.14006 -1.88953,4.48636 -3.157,6.31401 -1.42011,2.04775 -3.95949,4.34106 -5.09979,6.55686 -1.63485,3.17684 -2.738,7.90281 -3.39985,11.41379 -0.81256,4.31048 -0.92432,10.194 -1.21423,14.5708 -0.29408,4.43974 -1.08047,10.37812 -0.72854,14.81364 0.22377,2.82028 1.44391,6.77471 1.94277,9.22818 0.34505,1.697 1.23672,3.86783 1.45708,5.58548 0.21321,1.66201 0.22802,3.92541 0,5.58547 -0.25738,1.87381 -0.97778,4.32305 -1.69992,6.07116 -0.79702,1.92936 -3.39986,6.07117 -3.39986,6.07117 z"
             fill="#e4c900" />
          <path
             d="m 551.29825,618.09924 c 0,0 0.14806,-3.76905 0.4857,-5.34263 0.46884,-2.18512 1.64229,-4.95055 2.42846,-7.04255 0.74719,-1.98828 2.23049,-4.47907 2.67131,-6.55686 0.96815,-4.56337 0.75753,-10.88518 0.4857,-15.54219 -0.20174,-3.45602 -1.21312,-7.98629 -1.69993,-11.41379 -0.3825,-2.69307 -1.09789,-6.88546 -1.94278,-9.47102 -0.90119,-2.75787 -2.37702,-6.27873 -3.88554,-8.75712 -1.28175,-2.10581 -3.01783,-4.17789 -4.61409,-6.05653 -1.23464,-1.45307 -4.61408,-4.37124 -4.61408,-4.37124 l 0.4696,0.17702 0.55737,2.60109 2.22951,3.71585 2.22951,4.08743 3.71585,5.75956 2.4153,6.13115 1.30054,6.50273 1.11476,8.91803 0.55737,8.91803 0,8.36066 -2.04371,4.27322 -2.4153,6.50273 -0.74317,5.38798 1.29762,3.21845 z"
             fill="#e4c900" />
          <path
             d="m 559.56275,629.01945 c 0,0 7.74416,-6.35157 9.025,-13.5375 1.15217,-6.46396 -3.9803,-14.03523 -4.36929,-17.0798 -1.55562,-12.17668 1.74124,-28.39858 2.03841,-29.7245 1.18044,-5.26705 2.66598,-7.5206 3.45687,-9.24533 0.56933,-1.24155 2.19608,-3.71036 3.82276,-6.10378 0.93347,-1.37338 3.01233,-3.93045 4.07134,-6.53129 1.12245,-2.75659 1.19938,-5.5624 1.21565,-7.06028 0.0277,-2.55092 -0.45392,-4.72079 -1.13105,-6.79779 -0.64353,-1.97432 -2.74058,-5.2054 -5.77936,-7.06255 -3.27611,-2.00208 -5.92474,-3.61167 -6.93262,-4.24908 -3.32929,-2.10556 -5.37843,-9.0306 -5.41771,-9.0306 -0.0392,0 -2.08847,6.92504 -5.41776,9.0306 -1.00787,0.63741 -3.5356,2.247 -6.81171,4.24908 -3.0388,1.85715 -5.13583,5.08823 -5.77936,7.06255 -0.67713,2.077 -1.15877,4.24687 -1.13105,6.79779 0.0163,1.49788 0.0932,4.30369 1.21565,7.06028 1.05899,2.60084 3.13787,5.15791 4.07134,6.53129 1.62667,2.39342 3.25343,4.86223 3.82275,6.10378 0.7909,1.72473 2.27643,3.97828 3.45688,9.24533 0.29716,1.32592 3.59402,17.54782 2.03841,29.7245 -0.38899,3.04457 -5.64233,10.61584 -4.49015,17.0798 1.28083,7.18593 9.025,13.5375 9.025,13.5375 z"
             style="fill:none;stroke:#806600;stroke-width:2.03758073;stroke-linecap:butt;stroke-linejoin:miter;stroke-miterlimit:4" />
          <path
             d="m 555.26936,555.23611 0.66377,-29.86935 c 0,0 -3.71709,2.7878 -5.31011,3.98258 -1.19478,0.89608 -3.23766,1.69252 -3.98258,2.98694 -1.70014,2.95426 -2.44652,6.20835 -0.99564,9.29268 0.85814,1.82427 3.94113,4.16203 5.3101,5.642 1.84535,1.99497 4.31446,7.96515 4.31446,7.96515 z"
             fill="#fff2ac" />
          <path
             d="m 562.90265,550.58977 0,-21.57231 c 0,0 1.18391,2.2742 1.99128,2.98693 0.66762,0.58936 1.99375,0.73111 2.65506,1.32753 0.964,0.86944 2.07032,2.3774 2.32317,3.6507 0.33477,1.68583 -0.16587,4.13681 -0.99565,5.64199 -0.71458,1.29621 -2.75693,2.139 -3.65069,3.31882 -0.94105,1.24223 -2.32317,4.64634 -2.32317,4.64634 z"
             fill="#fff2ac" />
          <path
             d="m 557.47458,619.62118 c -0.2774,-2.87575 -0.21393,-9.62458 -0.21393,-9.62458 0,0 -2.45446,3.63006 -2.86497,5.27213 -0.21733,0.86932 -0.43471,2.74928 -0.20993,3.61671 0.51426,1.98462 3.86462,6.05784 3.86462,6.05784 0,0 -0.44825,-3.99989 -0.57579,-5.3221 z"
             fill="#fff2ac" />
          <g
             transform="matrix(0.9025,0,0,0.9025,113.20291,-150.41434)">
            <g>
              <path
                 d="m 513.85885,820.35686 -4.1277,-5.71831 -30.1496,0 -4.1434,5.71831 4.1434,5.6925 30.1496,0 4.1277,-5.6925 z"
                 fill="#fee46e" />
              <g>
                <g>
                  <g>
                    <path
                       d="m 477.69652,817.99066 34.196,0.18484 -2.52619,-3.57363 -29.88299,-0.0616 -1.78682,3.45041 z"
                       fill="#fff2ac" />
                    <path
                       d="m 511.75052,822.80242 -34.196,-0.18484 2.52619,3.57363 29.88299,0.0616 1.78682,-3.45041 z"
                       fill="#e4c900" />
                    <path
                       d="m 1104.2203,376.98337 -4.1277,-5.71831 -30.1496,0 -4.1434,5.71831 4.1434,5.6925 30.1496,0 4.1277,-5.6925 z"
                       transform="translate(-590.36145,443.37349)"
                       style="fill:none;stroke:#806600;stroke-width:2.25770712;stroke-linecap:butt;stroke-linejoin:miter;stroke-miterlimit:4" />
                  </g>
                </g>
              </g>
            </g>
          </g>
        </g>
        <use
           transform="translate(-177.5357,0)"
           xlink:href="#fleur" />
        <use
           transform="translate(-118.35713,0)"
           xlink:href="#fleur" />
        <use
           transform="translate(-59.178565,0)"
           xlink:href="#fleur" />
        <use
           transform="translate(-148.91515,67.65977)"
           xlink:href="#fleur" />
        <use
           transform="translate(-88.767848,67.65977)"
           xlink:href="#fleur" />
        <use
           transform="translate(-28.620545,67.65977)"
           xlink:href="#fleur" />
        <use
           transform="translate(-88.767851,-63.8209)"
           xlink:href="#fleur" />
        <use
           transform="translate(-149.1591,-63.8209)"
           xlink:href="#fleur" />
        <use
           transform="translate(-28.3766,-63.8209)"
           xlink:href="#fleur" />
      </g>
      <g
         transform="translate(530.66599,0)">
        <path
           d="m 489.02097,3.8815868 0,0.3979994 c 1.0646,67.5756018 1.009,135.1735438 0,202.7475738 -0.084,5.60559 -0.21585,10.95898 -0.34825,16.35115 l -0.0332,0.398 -0.36483,0 -201.32141,0 -0.398,0 0,-0.398 0,-219.0987238 0,-0.3979994 0.398,0 201.66966,0 0.398,0 z m -16.84865,16.9647282 -168.65228,0 0,185.965265 168.5362,0 c 10e-5,-0.0106 -2e-4,-0.0226 0,-0.0332 0.9255,-61.98571 0.92778,-123.965171 0.11608,-185.932095 z"
           fill="#ce0f25" />
        <path
           d="m 488.63961,223.77631 -0.36488,0 -39.33562,0 0,-0.398 0,-16.56673 23.11719,0 z m 0.38137,-219.8947232 -16.84864,16.9647282 -23.23325,0 0,-16.5667288 0,-0.3979994 39.68389,0 z M 303.52005,137.5265 l 0,44.57594 -16.96475,0 0,-44.57594 16.96475,0 z m 169.19955,0 16.99787,0 -0.36483,44.57594 -16.98131,0 z m -169.19955,-89.151887 0,44.575944 -16.96475,0 0,-44.575944 16.96475,0 z m 186.0316,0 c 0.12317,14.85626 0.18992,29.719546 0.21561,44.575944 l -17.03109,0 c -0.0393,-14.859794 -0.13113,-29.717567 -0.26533,-44.575944 l 17.08081,0 z m -81.47384,158.436967 0,16.56673 0,0.398 -41.39195,0 0,-0.398 0,-16.56673 41.39195,0 z m 0,-202.9299932 0,0.3979994 0,16.5667288 -41.39195,0 0,-16.5667288 0,-0.3979994 41.39195,0 z M 303.52005,206.81158 l 22.30453,0 0,16.56673 0,0.398 -38.87128,0 -0.398,0 z m 22.30453,-202.9299932 0,0.3979994 0,16.5667288 -22.30453,0 -16.96475,-16.9647282 0.398,0 z"
           fill="#fff" />
      </g>
    </g>
    <g
       transform="matrix(1.8844245,0,0,1.8844245,-1609.9355,-497.29102)">
      <path
         d="m 817.21875,3.875 0,0.40625 0,219.09375 0,0.40625 0.40625,0 201.3125,0 0.375,0 0.031,-0.40625 c 0.1324,-5.39217 0.2597,-10.73816 0.3437,-16.34375 1.009,-67.57403 1.0646,-135.174396 0,-202.75 l 0,-0.40625 -0.4063,0 -201.6562,0 -0.40625,0 z"
         fill="#fee46e" />
      <path
         d="m 7.0625,17.0625 0,0.75 c -2.0061583,127.34112 -1.9013843,254.72434 0,382.0625 0.1582917,10.56331 0.4067522,20.65136 0.65625,30.8125 l 0.0625,0.75 0.6875,0 379.375,0 0.75,0 0,-0.75 0,-412.875 0,-0.75 -0.75,0 -380.03125,0 -0.75,0 z m 31.75,31.96875 317.8125,0 0,350.4375 -317.59375,0 c -1.88e-4,-0.02 3.77e-4,-0.0425 0,-0.0625 C 37.287215,282.59886 37.282913,165.80324 38.8125,49.03125 z"
         transform="matrix(-0.53066599,0,0,0.53066599,1023.4348,-5.1729017)"
         fill="#ce0f25" />
      <path
         d="M 891.42848,20.846315 1003.3326,144.34224 c 0.106,-20.65853 0.1202,-41.31539 0.033,-61.971837 l -55.76964,-61.524088 -56.16768,0 z m -57.24559,-4.43e-4 0,61.988509 112.35743,123.976929 56.17878,9e-5 z m 0,123.977018 0,61.98851 56.17865,-1.8e-4 z"
         fill="#1353b4" />
    </g>
    <g
       transform="matrix(-1.8844245,0,0,1.8844245,1468.9486,-497.29102)">
      <path
         d="m 817.21875,224.34375 0,0.40625 0,254.09375 0,0.625 0.5625,-0.25 c 75.0579,-33.8946 133.41831,-68.44752 168.46875,-116.1875 26.4886,-36.07843 31.6046,-81.44662 33.0625,-138.28125 l 0,-0.40625 -0.4063,0 -201.2812,0 -0.40625,0 z"
         fill="#1353b4" />
      <path 
        d="m 25.84375,464.46875 0,90.8125 164.59375,181.65625 131.25,144.78125 c 21.10605,10.45577 43.05142,20.80121 65.84375,31.09375 l 1.0625,0.46875 0,-1.1875 0,-47.34375 L 272.75,736.9375 25.84375,464.46875 z m 83.875,0 246.90625,272.46875 0,-90.84375 -164.625,-181.625 -82.28125,0 z m 164.59375,0 82.3125,90.8125 0,-90.8125 -82.3125,0 z"
        transform="matrix(-0.53066599,0,0,0.53066599,1023.4349,-5.1729056)"
        fill="#fee46e" />
      <path
         d="m 1019.3056,224.34014 0,0.41458 c -1.4579,56.83463 -6.562,102.19323 -33.05059,138.27166 -35.05044,47.73998 -93.41196,82.30467 -168.46986,116.19927 l -0.56384,0.24875 0,-0.63017 0,-254.08951 0,-0.41458 0.398,0 201.28829,0 0.398,0 z m -17.5949,16.96473 -167.52466,0 0,211.50356 c 62.43371,-29.97377 109.80905,-60.9289 138.37116,-99.83154 20.67527,-28.16047 27.01552,-64.21088 29.1535,-111.67202 z"
         fill="#ce0f25" />
    </g>
    <g
       transform="matrix(-1.8844245,0,0,1.8844245,468.94834,-497.29102)">
      <path
         d="m 285.99042,224.34375 0,0.40625 0,254.09375 0,0.625 -0.5625,-0.25 C 210.37002,445.32415 152.00961,410.77123 116.95917,363.03125 90.47057,326.95282 85.35457,281.58463 83.89667,224.75 l 0,-0.40625 0.4063,0 201.2812,0 0.40625,0 z"
         fill="#1353b4" />
      <g
         transform="translate(-726.33691,219.14301)"
         clip-path="url(#clipPath7560)">
        <use
           transform="translate(-177.5357,0)"
           xlink:href="#fleur" />
        <use
           transform="translate(-118.35713,0)"
           xlink:href="#fleur" />
        <use
           transform="translate(-59.178565,0)"
           xlink:href="#fleur" />
        <use
           transform="translate(-148.91515,67.65977)"
           xlink:href="#fleur" />
        <use
           transform="translate(-88.767848,67.65977)"
           xlink:href="#fleur" />
        <use
           transform="translate(-28.620545,67.65977)"
           xlink:href="#fleur" />
        <use
           transform="translate(-88.767851,-63.8209)"
           xlink:href="#fleur" />
        <use
           transform="translate(-149.1591,-63.8209)"
           xlink:href="#fleur" />
        <use
           transform="translate(-28.3766,-63.8209)"
           xlink:href="#fleur" />
        <use
           xlink:href="#fleur" />
        <use
           transform="translate(-177.5357,-131.48067)"
           xlink:href="#fleur" />
        <use
           transform="translate(-118.35713,-131.48067)"
           xlink:href="#fleur" />
        <use
           transform="translate(-59.178565,-131.48067)"
           xlink:href="#fleur" />
        <use
           transform="translate(0,-131.48067)"
           xlink:href="#fleur" />
      </g>
      <path
         d="m 83.90361,224.34014 0,0.41458 c 1.4579,56.83463 6.56195,102.19323 33.05055,138.27166 35.05044,47.73998 93.41196,82.30467 168.46986,116.19927 l 0.56384,0.24875 0,-0.63017 0,-254.08951 0,-0.41458 -0.398,0 -201.28825,0 -0.398,0 z m 17.5949,16.96473 167.52462,0 0,211.50356 C 206.58942,422.83466 159.21408,391.87953 130.65197,352.97689 109.9767,324.81642 103.63645,288.76601 101.49851,241.30487 z"
         fill="#ce0f25" />
      <path
         d="m 1389.6562,432.5 31.9688,31.96875 47.5312,0 0,-31.96875 -79.5,0 z m 155.5,0 0,31.96875 76,0 0,-31.96875 -76,0 z m 151,0 0,31.96875 41.1563,0 33.1563,-31.96875 -0.75,0 -73.5626,0 z m 37.4688,84.875 c -2.5844,25.67965 -6.3725,49.32899 -11.9688,71.15625 l 29.3126,14.6875 c 7.298,-26.30542 11.9084,-54.56131 14.8437,-84.875 L 1733.625,517.375 z m -343.9688,3.53125 0,96 31.9688,0 0,-96 -31.9688,0 z m 304.6563,135.8125 c -3.6745,6.24279 -7.6278,12.31754 -11.9375,18.1875 -11.5672,15.75493 -24.7907,30.8107 -39.5625,45.3125 l 21.1563,24.25 c 16.3982,-16.02875 31.1589,-32.8371 44.2187,-50.625 4.4307,-6.03471 8.5247,-12.21808 12.3437,-18.53125 l -26.2187,-18.59375 z m -304.6563,56.1875 0,95 31.9688,0 0,-95 -31.9688,0 z m 199.5626,52.75 c -20.606,15.30135 -43.1305,30.06405 -67.5,44.46875 l 14.7812,28.71875 c 25.56,-15.02451 49.3679,-30.5505 71.2812,-46.8125 l -18.5624,-26.375 z M 1453,847.5625 c -3.1953,1.61785 -6.4143,3.23052 -9.6562,4.84375 -1.952,0.97218 -3.8754,1.93575 -5.8438,2.90625 -1.6385,0.80717 -3.2561,1.60003 -4.9062,2.40625 -3.6345,1.77718 -7.2726,3.53802 -10.9688,5.3125 l -31.9688,50.25 1.0626,-0.46875 c 5.8928,-2.66111 11.7191,-5.33359 17.5,-8 0.6876,-0.31718 1.3763,-0.62021 2.0624,-0.9375 2.2143,-1.02401 4.3962,-2.03724 6.5938,-3.0625 1.007,-0.46976 1.9964,-0.93619 3,-1.40625 3.2737,-1.53351 6.5449,-3.08785 9.7812,-4.625 4.0421,-1.91954 8.079,-3.82365 12.0626,-5.75 0.1891,-0.0915 0.3735,-0.18975 0.5624,-0.28125 1.9533,-0.94538 3.8735,-1.89649 5.8126,-2.84375 3.0815,-1.50581 6.1417,-3.01994 9.1874,-4.53125 3.0458,-1.51131 6.084,-3.01376 9.0938,-4.53125 L 1453,847.5625 z"
         transform="matrix(-0.53066599,0,0,0.53066599,1023.4348,-5.1729017)"
         fill="#fff" />
    </g>
    <path
       d="m 311.91007,-75.066867 -764.81667,-1.5e-4 m 382.408147,482.139087 1.89e-4,-897.58791"
       style="fill:none;stroke:#554400;stroke-width:2.26900005;stroke-linecap:butt;stroke-linejoin:miter;stroke-miterlimit:4" />
    <path
       d="m 312.11717,-490.51602 c 2.02745,127.77885 1.90779,255.57528 0,383.35011 C 310.2791,15.941848 304.13814,112.01075 248.98669,187.129 182.5513,277.61643 71.872645,342.91633 -70.498453,407.07187 -212.86936,342.91633 -323.54802,277.61643 -389.98341,187.129 c -55.15145,-75.11825 -61.29241,-171.187152 -63.13048,-294.29491 -1.90779,-127.77483 -2.02745,-255.57126 0,-383.35011 l 765.23106,0 z"
       style="fill:none;stroke:#554400;stroke-width:2.57099986;stroke-miterlimit:4" />
  </g>
</svg>