<?xml version="1.0" encoding="UTF-8" standalone="no"?>
<!-- Created with Inkscape (http://www.inkscape.org/) -->

<svg
   xmlns:dc="http://purl.org/dc/elements/1.1/"
   xmlns:cc="http://creativecommons.org/ns#"
   xmlns:rdf="http://www.w3.org/1999/02/22-rdf-syntax-ns#"
   xmlns:svg="http://www.w3.org/2000/svg"
   xmlns="http://www.w3.org/2000/svg"
   xmlns:xlink="http://www.w3.org/1999/xlink"
   xmlns:sodipodi="http://sodipodi.sourceforge.net/DTD/sodipodi-0.dtd"
   xmlns:inkscape="http://www.inkscape.org/namespaces/inkscape"
   version="1.1"
   width="100%"
   height="100%"
   viewBox="0 0 137 138"
   id="svg2"
   xml:space="preserve"
   sodipodi:docname="Peacock_symbol_Burma.svg"
   inkscape:version="0.92.3 (2405546, 2018-03-11)"><metadata
   id="metadata216"><rdf:RDF><cc:Work
       rdf:about=""><dc:format>image/svg+xml</dc:format><dc:type
         rdf:resource="http://purl.org/dc/dcmitype/StillImage" /></cc:Work></rdf:RDF></metadata><sodipodi:namedview
   pagecolor="#ffffff"
   bordercolor="#666666"
   borderopacity="1"
   objecttolerance="10"
   gridtolerance="10"
   guidetolerance="10"
   inkscape:pageopacity="0"
   inkscape:pageshadow="2"
   inkscape:window-width="1920"
   inkscape:window-height="1017"
   id="namedview214"
   showgrid="false"
   inkscape:zoom="4.8370203"
   inkscape:cx="37.205662"
   inkscape:cy="63.414848"
   inkscape:window-x="-4"
   inkscape:window-y="-4"
   inkscape:window-maximized="1"
   inkscape:current-layer="svg2" /><defs
   id="defs414"><linearGradient
     id="linearGradient3998"><stop
       id="stop4000"
       style="stop-color:#1d7f6f;stop-opacity:1"
       offset="0" /><stop
       id="stop4002"
       style="stop-color:#54d8c3;stop-opacity:1"
       offset="1" /></linearGradient><radialGradient
     cx="137.787"
     cy="131.799"
     r="95.617996"
     fx="137.787"
     fy="131.799"
     id="radialGradient4218"
     xlink:href="#linearGradient3998"
     gradientUnits="userSpaceOnUse"
     gradientTransform="matrix(0.80501508,-3.4147871e-8,3.3973858e-8,0.80091282,26.866384,26.239502)" /></defs>
	
	
	
	
	
		
				
				
					
				
				
		
				
				
					
				
				
		
				
				
					
				
				
		
				
				
					
				
				
		
				
				
					
				
				
		
				
				
					
				
				
		
				
				
					
				
				
		
				
				
					
				
				
		
				
				
					
				
				
		
				
				
					
				
				
		
				
				
					
				
				
		
				
				
					
				
				
		
				
				
					
				
				
		
				
				
					
				
				
		
				
				
					
				
				
		
				
				
					
				
				
		
				
				
					
				
				
				
				
				
				
				
				
				
				
				
				
				
				
				
				
				
				
				
				
				
				
				
				
				
				
				
				
				
				
				
				
				
				
				
				
				
				
				
				
				
				
				
				
				
				
				
				
				
				
				
				
				
				
				
				
				
				
				
				
				
				
				
				
				
				
		
		
		
		
		
		
		
		
		
		
		
		
		
		
		
		
		
			
		
	
		
		
		
		
		
	
	
	
	
	
	
	
	
<g
   style="fill-rule:evenodd"
   id="g1059"
   transform="matrix(0.34061406,0,0,0.34061406,-84.760564,-32.375883)"><path
     style="fill:#dbb957;fill-opacity:1"
     id="path4096"
     transform="matrix(-0.4616505,0,0,0.404124,917.61564,4.7174412)"
     d="m 1446.1495,730.67316 a 433.22816,494.89762 0 1 1 -866.45632,0 433.22816,494.89762 0 1 1 866.45632,0 z"
     inkscape:connector-curvature="0" /><path
     style="fill:#dbb957;fill-opacity:1;stroke:none"
     id="path3653"
     d="m 450.00031,229.26516 c -39.04046,0 -70.72547,31.68501 -70.72547,70.72547 0,39.04046 31.68501,70.72547 70.72547,70.72547 39.04048,0 70.7255,-31.68501 70.7255,-70.72547 0,-39.04046 -31.68502,-70.72547 -70.7255,-70.72547 z m 0,6.73576 c 35.32233,0 63.98974,28.66739 63.98974,63.98971 0,35.32232 -28.66741,63.98971 -63.98974,63.98971 -35.32232,0 -63.98971,-28.66739 -63.98971,-63.98971 0,-35.32232 28.66739,-63.98971 63.98971,-63.98971 z"
     inkscape:connector-curvature="0" /><path
     style="fill:#ffffff;fill-opacity:1"
     id="path3733"
     transform="matrix(-0.4501097,0,0,-0.3940213,905.92571,587.90079)"
     d="m 1446.1495,730.67316 a 433.22816,494.89762 0 1 1 -866.45632,0 433.22816,494.89762 0 1 1 866.45632,0 z"
     inkscape:connector-curvature="0" /><path
     style="fill:#dbb957;fill-opacity:1;stroke:none"
     id="path4142"
     transform="matrix(0.9090909,0,0,0.9090909,-39.090904,35.454548)"
     d="m 626,291 a 88,88 0 1 1 -176,0 88,88 0 1 1 176,0 z"
     inkscape:connector-curvature="0" /><path
     style="fill:#ffffff;fill-opacity:1;fill-rule:evenodd;stroke:none"
     id="path4147"
     transform="matrix(0.8522727,0,0,0.8522727,-8.5227126,51.988644)"
     d="m 626,291 a 88,88 0 1 1 -176,0 88,88 0 1 1 176,0 z"
     inkscape:connector-curvature="0" /><path
     style="fill:#dbb957;fill-opacity:1;stroke:none"
     id="rect3413"
     d="M 449.96875,105 424.9375,154.03125 449.96875,240.9375 475,154.03125 Z m 0,26.25 11.625,22.78125 h -23.25 z"
     inkscape:connector-curvature="0" /><polygon
     style="fill:#dbb957;fill-rule:evenodd;stroke:none"
     id="polygon2972"
     transform="matrix(223.13357,0,0,223.13357,-70.643945,2.4801613)"
     points="2.29882,1.19252 2.34822,1.15832 2.34063,1.26852 " /><path
     style="fill:#dbb957;fill-opacity:1;fill-rule:evenodd;stroke:none"
     id="polygon4257"
     d="m 436.42301,291.46556 -1.70499,5.93589 -13.57676,5.93589 24.59604,3.3784 -3.3784,56.6751 -0.18944,0.15787 -16.95517,9.3143 -43.25621,-5.0834 -23.74355,26.26946 35.61533,95.82671 31.38443,-64.44228 16.10267,67.85225 -15.25018,-9.34586 -1.70499,9.75632 19.05619,2.81952 3.83487,-1.55656 V 430.5169 h 1.16823 3.15739 1.16823 v 64.44227 l 9.37392,1.86152 13.51714,-3.12448 -1.70499,-9.75632 -15.25018,9.34586 16.10268,-67.85225 31.38442,64.44228 35.61533,-95.82671 -23.74355,-26.26946 -43.2562,5.0834 -16.95517,-9.3143 -0.22102,-0.15787 v -0.0316 l -4.2309,-66.81031 -16.95517,-5.0834 z"
     inkscape:connector-curvature="0" /><use
     xlink:href="#path2537"
     height="600"
     width="900"
     y="0"
     x="0"
     id="use3105"
     transform="matrix(-1,0,0,1,899.9375,0)" /><use
     xlink:href="#path2543"
     height="600"
     width="900"
     y="0"
     x="0"
     id="use3103"
     transform="matrix(-1,0,0,1,899.9375,0)" /><use
     xlink:href="#path2549"
     height="600"
     width="900"
     y="0"
     x="0"
     id="use3101"
     transform="matrix(-1,0,0,1,899.9375,0)" /><use
     xlink:href="#path2555"
     height="600"
     width="900"
     y="0"
     x="0"
     id="use3099"
     transform="matrix(-1,0,0,1,899.9375,0)" /><path
     style="fill:#dbb957;fill-opacity:1;fill-rule:evenodd;stroke:none"
     id="path2537"
     d="m 352.46875,131.09375 2.84375,54.96875 65.125,62.75 -21.78125,-87.78125 z m 13.125,22.71875 21.46875,13.9375 -20.15625,11.625 z"
     inkscape:connector-curvature="0" /><path
     style="fill:#dbb957;fill-opacity:1;fill-rule:evenodd;stroke:none"
     id="path2543"
     d="m 281.0625,202.46875 29.96875,46.1875 87.78125,21.78125 -62.78125,-65.125 z m 22.75,13.125 25.53125,1.3125 -11.625,20.125 z"
     inkscape:connector-curvature="0" /><path
     style="fill:#dbb957;fill-opacity:1;fill-rule:evenodd;stroke:none"
     id="path2549"
     d="M 303.96875,274.90625 254.9375,299.9375 303.96875,324.96875 390.875,299.9375 Z m 0,13.40625 v 23.25 l -22.78125,-11.625 z"
     inkscape:connector-curvature="0" /><path
     style="fill:#dbb957;fill-opacity:1;fill-rule:evenodd;stroke:none"
     id="path2555"
     d="M 398.78125,329.46875 311,351.25 281.03125,397.46875 336,394.59375 Z M 317.6875,362.875 329.3125,383 l -25.53125,1.3125 z"
     inkscape:connector-curvature="0" /></g></svg>