<?xml version="1.0" encoding="UTF-8" standalone="no"?>
<!-- Created with Inkscape (http://www.inkscape.org/) -->

<svg
   version="1.1"
   width="648.71472"
   height="771.99994"
   id="svg2"
   style="display:inline"
   sodipodi:docname="Arms_of_Languedoc.svg"
   inkscape:version="1.3.2 (091e20e, 2023-11-25, custom)"
   xmlns:inkscape="http://www.inkscape.org/namespaces/inkscape"
   xmlns:sodipodi="http://sodipodi.sourceforge.net/DTD/sodipodi-0.dtd"
   xmlns:xlink="http://www.w3.org/1999/xlink"
   xmlns="http://www.w3.org/2000/svg"
   xmlns:svg="http://www.w3.org/2000/svg"
   xmlns:rdf="http://www.w3.org/1999/02/22-rdf-syntax-ns#"
   xmlns:cc="http://creativecommons.org/ns#"
   xmlns:dc="http://purl.org/dc/elements/1.1/">
  <sodipodi:namedview
     id="namedview1"
     pagecolor="#ffffff"
     bordercolor="#000000"
     borderopacity="0.25"
     inkscape:showpageshadow="2"
     inkscape:pageopacity="0.0"
     inkscape:pagecheckerboard="0"
     inkscape:deskcolor="#d1d1d1"
     inkscape:zoom="0.49028214"
     inkscape:cx="-4.0792838"
     inkscape:cy="549.6835"
     inkscape:window-width="1366"
     inkscape:window-height="705"
     inkscape:window-x="-8"
     inkscape:window-y="-8"
     inkscape:window-maximized="1"
     inkscape:current-layer="g23393" />
  <defs
     id="defs4" />
  <metadata
     id="metadata7">
    <rdf:RDF>
      <cc:Work
         rdf:about="">
        <dc:format>image/svg+xml</dc:format>
        <dc:type
           rdf:resource="http://purl.org/dc/dcmitype/StillImage" />
        <dc:title />
      </cc:Work>
    </rdf:RDF>
  </metadata>
  <g
     transform="matrix(3.0586809,0,0,3.0586809,-1477.777,-1928.1872)"
     id="g23393"
     style="display:inline">
    <g
       transform="translate(-0.036616)"
       id="g3352">
      <g
         id="g5117">
        <g
           transform="matrix(0.8316,0,0,0.8316,81.251756,127.43546)"
           id="g15867">
          <path
             d="m 612.08897,905.58068 c 0,0 -91.53557,-37.5573 -117.2247,-130.1523 -4.19319,-15.1141 -6.63201,-31.6946 -6.63201,-49.81751 0,-129.15104 0,-116.98036 0,-116.98036 l 247.73185,0.0552 -0.0184,116.92516 c 0,30.79441 -7.04155,57.13551 -17.76671,79.39611 -0.43575,0.9045 -0.8776,1.8022 -1.3253,2.6932 -1.01473,2.0194 -2.05953,4.0044 -3.13178,5.9552 -35.64459,64.85 -101.63295,91.9253 -101.63295,91.9253 z"
             id="path1411-7-1-9"
             style="display:inline;fill:#ce0f25;fill-opacity:1;stroke:none" />
          <path
             d="m 612.08897,905.20989 c 0,0 -91.53557,-37.5573 -117.22471,-130.15228 -4.19319,-15.1141 -6.63201,-31.69459 -6.63201,-49.81749 0,-129.15104 0,-116.98036 0,-116.98036 l 247.73186,0.0552 -0.0184,116.92516 c 0,30.79442 -7.04155,57.13547 -17.76671,79.39609 -0.43575,0.90448 -0.8776,1.80218 -1.3253,2.6932 -1.01473,2.01946 -2.05953,4.00445 -3.13178,5.95526 -35.64459,64.85 -101.63295,91.92522 -101.63295,91.92522 z"
             id="path1411-7-1"
             style="display:inline;fill:none;stroke:#554400;stroke-width:0.976565;stroke-linecap:butt;stroke-linejoin:miter;stroke-miterlimit:4;stroke-dasharray:none;stroke-opacity:1" />
          <g
             transform="matrix(0.57005841,0,0,0.57005841,443.85809,511.81027)"
             id="g3277"
             style="fill:#ffe24b;fill-opacity:1;stroke:#8b7c37;stroke-width:3.44828;stroke-miterlimit:4;stroke-dasharray:none;stroke-opacity:1">
            <path
               d="m 299.981,226.6149 c -5.78664,0 -11.47169,0.32187 -17.11332,0.87664 -0.34979,15.83127 -13.31934,28.58627 -29.23349,28.58625 -6.23157,-10e-5 -11.99492,-1.99996 -16.73218,-5.3361 -2.69006,-2.99101 -5.46234,-5.91891 -8.30888,-8.76645 -6.68638,3.02866 -13.15993,6.47075 -19.36199,10.29104 2.20952,2.06457 4.36672,4.1703 6.4794,6.3271 1.1405,1.36293 2.38052,2.61692 3.65896,3.84961 0.0832,0.0802 0.1449,0.18713 0.22869,0.2668 27.29583,29.4621 45.92847,67.02002 51.83525,108.70397 -46.75492,-6.62259 -88.34959,-29.25983 -119.10668,-62.16556 -3.81837,6.19754 -7.30109,12.64301 -10.329,19.32431 2.44016,2.43788 4.92448,4.84007 7.47038,7.16561 4.11718,5.03827 6.59369,11.4843 6.59381,18.48577 -1.2e-4,15.94038 -12.79538,28.88749 -28.66185,29.19608 -0.51835,5.45598 -0.7624,10.9891 -0.76228,16.58003 0,5.96856 0.28686,11.87152 0.87656,17.68535 15.81305,0.37017 28.54745,13.33255 28.54757,29.2342 -1.2e-4,5.686 -1.63836,10.99128 -4.45941,15.47469 -3.28575,2.92609 -6.48795,5.93061 -9.60478,9.03331 3.13232,6.91169 6.7331,13.57931 10.71014,19.97226 30.69049,-32.65299 72.06845,-55.12412 118.57308,-61.74635 -6.81762,46.33789 -29.36534,87.55502 -62.04984,118.08031 6.21169,3.82626 12.70256,7.25892 19.40016,10.29105 2.48566,-2.47388 4.91594,-4.9919 7.27975,-7.58495 5.01594,-4.04555 11.36167,-6.47942 18.29479,-6.47954 15.92708,1.2e-4 28.86662,12.77516 29.19544,28.62442 5.46831,0.52068 10.97566,0.80035 16.57972,0.80035 5.96837,0 11.87125,-0.32505 17.68497,-0.91476 0,-3.7e-4 0.038,3.6e-4 0.038,0 0.39066,-15.7951 13.30739,-28.51001 29.19544,-28.51001 5.70725,1.2e-4 11.01847,1.69523 15.51252,4.53574 2.90912,3.26459 5.908,6.44125 8.99494,9.52875 6.92263,-3.1358 13.60755,-6.72727 20.00988,-10.71038 -32.40191,-30.45394 -54.77888,-71.44616 -61.59248,-117.50852 46.04946,6.81766 87.06103,29.16296 117.50601,61.55571 3.97789,-6.39868 7.54013,-13.09228 10.67196,-20.01031 -2.83277,-2.83646 -5.74396,-5.58704 -8.7282,-8.27101 -3.32526,-4.74427 -5.29781,-10.51151 -5.29781,-16.73248 1.2e-4,-15.90152 12.73439,-28.82699 28.54744,-29.19608 0.5547,-5.64173 0.83851,-11.36499 0.83851,-17.15175 0,-5.77386 -0.28625,-11.48414 -0.83851,-17.11363 -15.81316,-0.37011 -28.54744,-13.33252 -28.54744,-29.2342 1.2e-4,-6.25082 1.98108,-12.02507 5.33598,-16.7706 2.96425,-2.66757 5.8736,-5.41393 8.69003,-8.23283 -3.03206,-6.69768 -6.46465,-13.18866 -10.29083,-19.40054 -2.15488,2.31175 -4.36855,4.5777 -6.63186,6.78447 -1.33893,1.14388 -2.6397,2.34259 -3.84959,3.62093 -29.18495,27.01401 -66.34692,45.53799 -107.55815,51.6077 6.6265,-46.505 29.11995,-87.89682 61.78312,-118.57575 -6.40099,-3.98391 -13.08859,-7.57352 -20.01,-10.71031 -2.8163,2.82552 -5.56149,5.72397 -8.23266,8.69022 -4.77018,3.3847 -10.60305,5.41222 -16.88451,5.41233 -15.91415,-2.1e-4 -28.8465,-12.755 -29.19544,-28.58625 -5.64163,-0.55477 -11.36485,-0.87664 -17.15137,-0.87664 z m 0,17.57101 c 6.69004,17.87251 23.44088,30.8078 43.33573,32.01659 -22.67457,33.92735 -36.33931,74.35937 -37.46615,117.92779 43.56539,-1.1196 84.03995,-14.73133 117.96325,-37.39081 1.23136,19.86442 14.20591,36.56384 32.05406,43.26052 -17.86584,6.6879 -30.83758,23.41249 -32.05406,43.29863 -33.92318,-22.65946 -74.39773,-36.30903 -117.96325,-37.42892 1.12635,43.55744 14.80195,84.00587 37.46615,117.92785 -19.64507,1.41531 -36.12344,14.35514 -42.76408,32.05465 -6.74517,-18.01932 -23.68298,-31.06976 -43.7931,-32.09283 22.63505,-33.91149 36.22564,-74.34692 37.35187,-117.88967 -43.55808,1.127 -83.9664,14.80247 -117.88715,37.46704 -1.41528,-19.64559 -14.35506,-36.12424 -32.05394,-42.76503 18.02708,-6.74823 31.07956,-23.70943 32.09212,-43.83224 33.9116,22.64681 74.30992,36.26446 117.84897,37.39081 -1.1272,-43.57095 -14.72682,-84.00142 -37.39005,-117.92779 19.87339,-1.22339 36.56069,-14.16172 43.25963,-32.01659 z"
               id="path14367"
               style="fill:#ffe24b;fill-opacity:1;fill-rule:evenodd;stroke:#8b7c37;stroke-width:3.44828;stroke-linecap:butt;stroke-linejoin:miter;stroke-miterlimit:4;stroke-dasharray:none;stroke-opacity:1" />
            <path
               d="m 300.00004,209.99999 c -10.69972,0 -19.38348,8.68369 -19.38348,19.38366 0,10.69997 8.68376,19.38366 19.38348,19.38366 10.69973,0 19.38348,-8.68369 19.38348,-19.38366 0,-10.69997 -8.68375,-19.38366 -19.38348,-19.38366 z m -85.83426,22.86216 c -3.12478,0.0806 -6.26827,0.91902 -9.16397,2.59089 -9.26624,5.34999 -12.45075,17.21818 -7.10088,26.48461 5.34986,9.26642 17.21812,12.42694 26.48435,7.07695 9.26624,-5.34999 12.45075,-17.19419 7.10088,-26.46062 -3.67803,-6.37066 -10.44586,-9.8692 -17.32038,-9.69183 z m 170.73294,0 c -6.54594,0.14765 -12.87396,3.61073 -16.3848,9.69183 -5.34986,9.26645 -2.16535,21.11062 7.10088,26.46062 9.26624,5.35001 21.13449,2.18948 26.48435,-7.07695 5.34987,-9.26644 2.16537,-21.13461 -7.10087,-26.48461 -3.18527,-1.83906 -6.67074,-2.66822 -10.09956,-2.59089 z"
               id="path14388"
               style="fill:#ffe24b;fill-opacity:1;fill-rule:evenodd;stroke:#8b7c37;stroke-width:3.44828;stroke-linecap:butt;stroke-linejoin:miter;stroke-miterlimit:4;stroke-dasharray:none;stroke-opacity:1" />
            <use
               transform="matrix(1,0,0,-1,0,799.99998)"
               id="use2211"
               style="fill:#ffe24b;fill-opacity:1;stroke:#8b7c37;stroke-width:3.44828;stroke-miterlimit:4;stroke-dasharray:none;stroke-opacity:1"
               x="0"
               y="0"
               width="600"
               height="660"
               xlink:href="#path14388" />
            <use
               transform="matrix(0,-1.0000094,0.9999906,0,-99.998019,700.00285)"
               id="use2213"
               style="fill:#ffe24b;fill-opacity:1;stroke:#8b7c37;stroke-width:3.44828;stroke-miterlimit:4;stroke-dasharray:none;stroke-opacity:1"
               x="0"
               y="0"
               width="600"
               height="660"
               xlink:href="#path14388" />
            <use
               transform="matrix(0,1.0000094,-0.9999906,0,699.99806,99.997143)"
               id="use2215"
               style="fill:#ffe24b;fill-opacity:1;stroke:#8b7c37;stroke-width:3.44828;stroke-miterlimit:4;stroke-dasharray:none;stroke-opacity:1"
               x="0"
               y="0"
               width="600"
               height="660"
               xlink:href="#path14388" />
          </g>
        </g>
      </g>
    </g>
  </g>
  <style
     type="text/css"
     id="style33631" />
  <style
     type="text/css"
     id="style3" />
</svg>
