<?xml version="1.0" encoding="UTF-8"?>
<svg xmlns="http://www.w3.org/2000/svg" xmlns:xlink="http://www.w3.org/1999/xlink" width="1000" height="1000">
  <filter id="d" color-interpolation-filters="sRGB">
    <feFlood result="flood"/>
    <feComposite in="flood" in2="SourceGraphic" operator="in" result="composite1"/>
    <feGaussianBlur in="composite1" result="blur" stdDeviation="6"/>
    <feOffset dy="6" result="offset"/>
    <feComposite in="SourceGraphic" in2="offset" result="composite2"/>
  </filter>
  <radialGradient id="a" cx="500" cy="500" r="500" gradientTransform="matrix(.765 0 0 .768 117.38 115.97)" gradientUnits="userSpaceOnUse">
    <stop offset="0" stop-color="#256df0"/>
    <stop offset=".9" stop-color="#1864ee"/>
    <stop offset="1" stop-color="#2d44ad"/>
  </radialGradient>
  <filter id="f" color-interpolation-filters="sRGB">
    <feFlood result="flood"/>
    <feComposite in="flood" in2="SourceGraphic" operator="in" result="composite1"/>
    <feGaussianBlur in="composite1" result="blur" stdDeviation="7"/>
    <feOffset result="offset"/>
    <feComposite in="SourceGraphic" in2="offset" result="composite2"/>
  </filter>
  <filter id="c" color-interpolation-filters="sRGB">
    <feFlood result="flood"/>
    <feComposite in="flood" in2="SourceGraphic" operator="in" result="composite1"/>
    <feGaussianBlur in="composite1" result="blur" stdDeviation="6"/>
    <feOffset result="offset"/>
    <feComposite in="SourceGraphic" in2="offset" result="composite2"/>
  </filter>
  <filter id="b" color-interpolation-filters="sRGB">
    <feFlood result="flood"/>
    <feComposite in="flood" in2="SourceGraphic" operator="in" result="composite1"/>
    <feGaussianBlur in="composite1" result="blur" stdDeviation="6"/>
    <feOffset result="offset"/>
    <feComposite in="SourceGraphic" in2="offset" result="composite2"/>
  </filter>
  <circle cx="500" cy="500" r="380" fill="url(#a)"/>
  <g filter="url(#b)">
    <circle cx="862.5" cy="499.96" r="15" fill="#fff"/>
    <circle cx="862.5" cy="500" r="15" fill="#fff" transform="rotate(-90 499.98 500)"/>
    <circle cx="862.5" cy="500" r="15" fill="#fff" transform="rotate(180 500 500)"/>
    <path fill="none" stroke="#fff" stroke-width="25" d="M499.7 499.98l63.96 134.57c.97 42.4 47.8 69.9 79.57 64.19.55 41.5-46.7 72.8-77.92 61.88 8.77 30.7-24.6 74.35-65.46 74.35-40.86 0-74.23-43.65-65.46-74.35-31.22 10.92-78.47-20.38-77.92-61.88 31.77 5.71 78.6-21.79 79.57-64.19L500 499.98m0-.28l-134.57 63.96c-42.4.97-69.9 47.8-64.19 79.57-41.5.55-72.8-46.7-61.88-77.92-30.7 8.77-74.35-24.6-74.35-65.46 0-40.86 43.65-74.23 74.35-65.46-10.92-31.22 20.38-78.47 61.88-77.92-5.71 31.77 21.79 78.6 64.19 79.57L500 500m-.02-.02l63.96-134.57c.97-42.4 47.8-69.9 79.57-64.19.55-41.5-46.7-72.8-77.92-61.88 8.77-30.7-24.6-74.35-65.46-74.35-40.86 0-74.23 43.65-65.46 74.35-31.22-10.92-78.47 20.38-77.92 61.88 31.77-5.71 78.6 21.79 79.57 64.19l63.96 134.57m-.28-.02l134.57 63.96c42.4.97 69.9 47.8 64.19 79.57 41.5.55 72.8-46.7 61.88-77.92 30.7 8.77 74.35-24.6 74.35-65.46 0-40.86-43.65-74.23-74.35-65.46 10.92-31.22-20.38-78.47-61.88-77.92 5.71 31.77-21.79 78.6-64.19 79.57L500 500.26"/>
    <circle cx="862.5" cy="500" r="15" fill="#fff" transform="rotate(90 500.01 499.99)"/>
  </g>
  <circle cx="500" cy="500" r="202.5" fill="none" stroke="#fff" stroke-width="15" filter="url(#c)"/>
  <circle cx="500" cy="500" r="202.5" fill="#01d0ff"/>
  <path fill="#ecde7d" d="M323.78 590h352.66v15H323.78z"/>
  <path fill="#2fbb3d" d="M331.28 605h338.75l-20 30H351.28z"/>
  <path fill="#2b97e1" d="M351.28 635h298.75l-46.16 40h-209.3z"/>
  <path fill="#6d5340" d="M394.57 675h209.3l-72.37 28h-64z"/>
  <g>
    <path fill="#889347" d="M323.78 590h352.66L700 542l1-40-138-74-54-14-66 25-145 79 7 41z"/>
    <path fill="#fff" stroke="#fff" d="M439.75 485.46s9.92-18.7 24.41-18.22 23.8 24.8 23.83 24.77 11.7-9.74 17.12-11.35 24-1.55 27.88 1.85 3 16.5 3 16.5 28.1-4.61 41.9-2.1c11.1 2.03 31.1 13.6 31.05 13.55l28.55-3.45s-33.4-25.5-29.5-32.5 42.4.36 42.38.36l-42.38-22.86-45-24-54-14-66 25-17.2 9.37s-3.8 16.1-2.1 22.73 16.1 14.4 16.06 14.35z"/>
  </g>
  <g filter="url(#d)">
    <g id="e">
      <g fill="#fff">
        <path d="M502.25 673.94c16.5-4.5 14.6 3.57 23.75 3.56 9.14-.01 19.7-9.29 28-20.5-11.5 10.8-17.3 1-26.5 1s-20.8 11.2-25.25 15.94z"/>
        <path d="M502.25 674c13.8-18 21-20 33.75-20.5 9.64-.38 19-15.5 26-40.25-12 21-17.8 13.3-30.25 16.75-12.45 3.45-20 18.5-29.5 44z"/>
        <path d="M547.97 650.31c11-13.2 12.4-18.9 16.43-27.5 4.03-8.6 14.7-10.3 30.01-9.94-14.1 7.01-12.1 9.03-17.57 19.02-5.48 10-20.4 15-28.87 18.42z"/>
        <path d="M547.94 650.36c21.5-4.87 24.9-7.4 32.19-16.39 7.31-9 21.5-9.6 38.65 3.4-23-5.77-22.7 22.6-39.48 22.19-16.8-.44-14.8-7.65-31.36-9.2z"/>
        <path d="M594.15 625.42c7.77-12.2 9.04-19.2 10.55-28.52 1.51-9.37 11.9-18.6 29.58-23.58-12.7 9.61-12.6 13.8-15.1 24.94s-14.1 17.4-25.03 27.16z"/>
        <path d="M594.11 625.47c19.3-10.7 23.2-14 28.81-24.02 5.56-9.97 18.7-18.8 38.76-11.06-23.7 2.64-18.7 30.9-34.89 35.16-16.2 4.26-16.3-3.23-32.68-.08z"/>
        <path d="M642.02 556.35c-9.55-1.41-12.7-3.95-12.7-3.95 1.06-6.01 1.77-12.7 8.13-20.86 2.89-.59 5.47-.61 7.84-.98 4.09-1.46 11.4-3.26 16.91-3.97 1.71 4.38 3.44 7.72 3.79 11.07 1.36 2.33 2.82 5.36 4.07 7.94-.83 4.35-1.6 11.9-3.08 17.21.53 4.1.08 7.55.37 11.36-3.06.3-10.5 1.03-15.17.82-3.95.96-5.88 1.28-9.07 2.16-5.3-4.24-11.6-11.3-13.83-20.24 7 2.75 9.99.69 12.74-.56z"/>
      </g>
      <path fill="#ebe254" d="M644.53 562.65c3.07 4.89 12.4 7.78 15.2 3.18 2.83-4.6 2.47-13.4-1.77-19.8-4.34-6.51-11.3-7.26-15.91-1.06-4.62 6.2-.59 12.8 2.47 17.68z"/>
    </g>
    <use transform="matrix(-1 0 0 1 1001.4 0)" xlink:href="#e"/>
  </g>
  <circle cx="500" cy="500" r="202.5" fill="none" stroke="#fff" stroke-width="15"/>
  <circle cx="500" cy="500" r="439.29" fill="none" stroke="#3292f9" stroke-width="121.4"/>
  <g fill="#fff" filter="url(#f)">
    <path d="M245.62 912.08q-12.3-7.45-16.89-16.9-4.47-9.48-1.8-22.05l16.73 3.47q-3.18 16.1 9.15 23.57 6.74 4.07 11.91 3.42 5.2-.71 8.27-5.77 3.19-5.28.4-10.1-2.71-4.84-11.54-10.18l-3.08-1.86 7.16-11.86 3.08 1.86q7.89 4.77 13.17 4.53 5.28-.24 8.43-5.46 2.87-4.75 1.15-9.22-1.67-4.43-7.31-7.84-11.1-6.69-22.84 3.81l-12.08-11.65q10.1-8.53 20.41-9.35 10.4-.79 21.62 6 12.1 7.29 16.23 16.93 4.19 9.59-1.11 18.37-4.07 6.74-10.5 8.99-6.42 2.25-14.74-.27 7.19 5.91 8.76 13 1.62 7.11-2.54 14.01-6.06 10-17.44 11.28-11.4 1.25-24.6-6.73z"/>
    <path d="M360.5 962.28l.05-23.26-30.94-10.81-14.45 18.23-17-5.94 57.98-70.84 20.05 7.01 1.13 91.49-16.83-5.88zm1.3-76.61l-.79 1.15q-1.3 1.87-3.03 4.24-1.73 2.37-20.1 25.69l23.34 8.15.15-26.13.26-8.7.18-4.4z"/>
    <path d="M485.83 959.13q-1.39 11.6-10.88 16.95-9.49 5.32-25 3.46l-42.73-5.12 10.22-85.39 39.09 4.68q15.6 1.87 22.98 8.28 7.41 6.36 6.14 16.96-.87 7.27-5.53 11.82-4.59 4.49-13.05 5.26 10.2 2.45 14.97 8.43 4.82 5.93 3.78 14.65zm-18.46-39.89q.69-5.76-2.72-8.62-3.35-2.86-10.56-3.72l-20.36-2.44-2.53 21.15 20.48 2.45q7.58.91 11.28-1.29 3.77-2.25 4.4-7.53zm.69 36.35q1.44-12-15.77-14.06l-22.67-2.71-2.93 24.48 23.33 2.79q8.61 1.03 12.92-1.59 4.38-2.67 5.12-8.91z"/>
    <path d="M572.57 977.08l-25.05-31.81-17.93 36.3-18.94 1.98 24.92-48.08-31.38-37.71 18.94-1.98 22.16 28.24 15.84-32.22 18.82-1.97-21.74 43.27 33.17 42.01-18.82 1.97z"/>
    <path d="M673.57 950.8l-14-18.57-31.2 10.06-.52 23.25-17.14 5.52 3.48-91.48 20.22-6.52 56.13 72.27-16.96 5.47zm-45.21-61.87l.06 1.39q.09 2.28.14 5.21.05 2.93-.52 32.62l23.53-7.58-15.66-20.93-5.04-7.1-2.51-3.62z"/>
    <path d="M764.4 904.76l-18.67-31.79-32.31 18.98 18.67 31.79-15.53 9.12L673 858.71l15.53-9.12 17.34 29.52 32.31-18.98-17.34-29.52 15.53-9.12 43.56 74.15z"/>
  </g>
</svg>
