<?xml version="1.0" encoding="UTF-8"?>
<svg id="Layer_2" data-name="Layer 2" xmlns="http://www.w3.org/2000/svg" width="53.07mm" height="26.54mm" xmlns:xlink="http://www.w3.org/1999/xlink" viewBox="0 0 150.44 75.22">
  <defs>
    <style>
      .cls-1 {
        fill: url(#GradientFill_1-2);
      }

      .cls-1, .cls-2, .cls-3 {
        fill-rule: evenodd;
      }

      .cls-2 {
        fill: url(#GradientFill_1);
      }

      .cls-3 {
        fill: url(#GradientFill_2);
      }
    </style>
    <linearGradient id="GradientFill_1" data-name="GradientFill 1" x1="35.27" y1="54.57" x2="85.51" y2="18.64" gradientUnits="userSpaceOnUse">
      <stop offset="0" stop-color="#00a0dc"/>
      <stop offset=".2" stop-color="#332883"/>
      <stop offset=".51" stop-color="#e4007c"/>
      <stop offset=".81" stop-color="#e31c1f"/>
      <stop offset="1" stop-color="#f39100"/>
    </linearGradient>
    <linearGradient id="GradientFill_2" data-name="GradientFill 2" x1="149.38" y1="33.4" x2="55.94" y2="31.77" gradientUnits="userSpaceOnUse">
      <stop offset="0" stop-color="#e4007c"/>
      <stop offset=".47" stop-color="#e31c1f"/>
      <stop offset="1" stop-color="#f39100"/>
    </linearGradient>
    <linearGradient id="GradientFill_1-2" data-name="GradientFill 1" x1="2.29" y1="37.61" x2="150.44" y2="37.61" xlink:href="#GradientFill_1"/>
  </defs>
  <g id="Katman_1" data-name="Katman 1">
    <g>
      <path class="cls-2" d="M12.2,75.22h0c2.26,0,4.46-.67,6.35-1.93h0l54.56-36.42-12.11-8.08L0,70.42l7.04,3.57c1.6,.81,3.38,1.23,5.16,1.23Z"/>
      <path class="cls-3" d="M100.26,2l-22.97,15.68,12.15,8.29,9.83-6.56c1.14-.76,2.45-1.16,3.8-1.16h0c2.65,0,5.02,1.49,6.21,3.88h0l12.92,26.19,25.95,17.71L117.04,6.47c-1.97-3.99-5.93-6.47-10.34-6.47-2.3,0-4.52,.69-6.44,2Z"/>
      <path class="cls-1" d="M33.4,6.47L2.29,66.03l25.95-17.71,12.93-26.19c1.18-2.39,3.56-3.88,6.21-3.88h0c1.35,0,2.66,.4,3.8,1.16h0l80.71,53.88c1.89,1.26,4.09,1.93,6.35,1.93,1.78,0,3.57-.43,5.16-1.23h0l7.04-3.57L50.18,2c-1.91-1.31-4.14-2-6.44-2-4.41,0-8.37,2.48-10.34,6.47Z"/>
    </g>
  </g>
</svg>