<?xml version="1.0" encoding="utf-8"?>
<!-- Generator: Adobe Illustrator 20.1.0, SVG Export Plug-In . SVG Version: 6.00 Build 0)  -->
<svg version="1.0" id="Layer_1" xmlns="http://www.w3.org/2000/svg" xmlns:xlink="http://www.w3.org/1999/xlink" x="0px" y="0px"
	 viewBox="0 0 220.5 259.1" style="enable-background:new 0 0 220.5 259.1;" xml:space="preserve">
<path style="fill:none;stroke:#FFFFFF;stroke-miterlimit:10;" d="M127.2,47c-30.4-7.6-61,5.9-76.6,31.2
	c12.3-15.7,33.1-23.5,53.7-18.4c28,7,45.1,35.4,38.1,63.4c-7,28-35.4,45.1-63.4,38.1c-20.6-5.1-35.3-21.8-38.8-41.5
	c2,29.6,22.7,55.9,53.1,63.4c37.6,9.4,75.7-13.5,85.1-51.2S164.8,56.3,127.2,47z"/>
<line style="fill:none;stroke:#FFFFFF;stroke-miterlimit:10;" x1="91.7" y1="110.4" x2="91.7" y2="58.1"/>
<line style="fill:none;stroke:#FFFFFF;stroke-miterlimit:10;" x1="91.7" y1="110.4" x2="41.9" y2="94.3"/>
<line style="fill:none;stroke:#FFFFFF;stroke-miterlimit:10;" x1="91.7" y1="110.4" x2="60.9" y2="152.8"/>
<line style="fill:none;stroke:#FFFFFF;stroke-miterlimit:10;" x1="91.7" y1="110.4" x2="122.4" y2="152.8"/>
<line style="fill:none;stroke:#FFFFFF;stroke-miterlimit:10;" x1="91.7" y1="110.4" x2="141.4" y2="94.3"/>
<path style="fill:#1150AF;stroke:#003380;stroke-width:3;stroke-linecap:round;stroke-linejoin:round;" d="M219,1.5v147.4
	c0,60.1-48.7,108.8-108.8,108.8S1.5,208.9,1.5,148.9V1.5H219z"/>
<g>
	<path style="fill:#FEE46E;" d="M178.4,132c-9.4,37.6-47.5,60.5-85.1,51.2c-30.4-7.5-51.1-33.8-53.1-63.4
		c3.6,19.6,18.2,36.3,38.8,41.5c28,7,56.4-10.1,63.4-38.1c7-28-10.1-56.4-38.1-63.4c-20.6-5.1-41.4,2.8-53.7,18.4
		C66.2,52.9,96.8,39.4,127.2,47C164.8,56.3,187.7,94.4,178.4,132z"/>
	<path style="fill:#FFD42A;" d="M160.4,127.5c-8.2,32.8-41.4,52.8-74.2,44.6c-25.5-6.3-43.2-27.8-46-52.5
		c3.6,19.6,18.2,36.3,38.8,41.5c28,7,56.4-10.1,63.4-38.1c7-28-10.1-56.4-38.1-63.4c-20.6-5.1-41.4,2.8-53.7,18.4
		c14-20.5,39.7-31.1,65.2-24.8C148.6,61.5,168.6,94.7,160.4,127.5z"/>
	<path style="fill:none;stroke:#AC8800;stroke-width:1.5;stroke-linecap:round;stroke-linejoin:round;stroke-miterlimit:10;" d="
		M40.2,119.7c2,29.6,22.7,55.9,53.1,63.4c37.6,9.4,75.7-13.5,85.1-51.2S164.8,56.3,127.2,47c-30.4-7.6-61,5.9-76.6,31.2"/>
	<path style="fill:none;stroke:#AC8800;stroke-linecap:round;stroke-linejoin:round;stroke-miterlimit:10;" d="M50.6,78.1
		c14-20.5,39.7-31.1,65.2-24.8c32.8,8.2,52.8,41.4,44.6,74.2s-41.4,52.8-74.2,44.6c-25.5-6.3-43.2-27.8-46-52.4"/>
	<path style="fill:none;stroke:#AC8800;stroke-width:1.5;stroke-linecap:round;stroke-linejoin:round;stroke-miterlimit:10;" d="
		M50.6,78.1c12.3-15.7,33.1-23.5,53.7-18.4c28,7,45.1,35.4,38.1,63.4c-7,28-35.4,45.1-63.4,38.1c-20.6-5.1-35.3-21.8-38.8-41.5"/>
</g>
<g>
	<polygon style="fill:#FEE46E;" points="110.7,116.6 141.4,94.3 103.4,94.3 91.7,58.1 79.9,94.3 41.9,94.3 72.7,116.6 60.9,152.8 
		91.7,130.4 122.4,152.8 	"/>
	<polygon style="fill:#FFD42A;" points="103.4,94.3 91.7,110.3 91.7,110.3 91.7,58.1 	"/>
	<polygon style="fill:#FFD42A;" points="122.4,152.8 91.7,130.4 91.7,110.4 91.8,110.5 122,151.5 	"/>
	<polygon style="fill:#FFD42A;" points="141.4,94.3 110.7,116.6 91.8,110.5 91.8,110.4 	"/>
	<polygon style="fill:#FFD42A;" points="91.7,110.4 60.9,152.8 72.7,116.6 	"/>
	<polygon style="fill:#FFD42A;" points="91.7,110.3 91.7,110.4 41.9,94.3 79.9,94.3 	"/>
	<polygon style="fill:none;stroke:#AC8800;stroke-linecap:round;stroke-linejoin:round;stroke-miterlimit:10;" points="110.7,116.6 
		141.4,94.3 103.4,94.3 91.7,58.1 79.9,94.3 41.9,94.3 72.7,116.6 60.9,152.8 91.7,130.4 122.4,152.8 	"/>
	
		<line style="fill:none;stroke:#AC8800;stroke-linecap:round;stroke-linejoin:round;stroke-miterlimit:10;" x1="91.7" y1="58.1" x2="91.7" y2="130.4"/>
	
		<line style="fill:none;stroke:#AC8800;stroke-linecap:round;stroke-linejoin:round;stroke-miterlimit:10;" x1="141.4" y1="94.3" x2="72.7" y2="116.6"/>
	
		<line style="fill:none;stroke:#AC8800;stroke-linecap:round;stroke-linejoin:round;stroke-miterlimit:10;" x1="122" y1="151.5" x2="79.9" y2="94.3"/>
	
		<line style="fill:none;stroke:#AC8800;stroke-linecap:round;stroke-linejoin:round;stroke-miterlimit:10;" x1="60.9" y1="152.8" x2="103.4" y2="94.3"/>
	
		<line style="fill:none;stroke:#AC8800;stroke-linecap:round;stroke-linejoin:round;stroke-miterlimit:10;" x1="41.9" y1="94.3" x2="110.7" y2="116.6"/>
</g>
<g>
	<polygon style="fill:#FEE46E;" points="194.4,42.9 213.4,29.1 189.9,29.1 182.7,6.7 175.4,29.1 151.9,29.1 170.9,42.9 163.7,65.2 
		182.7,51.4 201.7,65.2 	"/>
	<polygon style="fill:#FFD42A;" points="189.9,29.1 182.7,39 182.7,38.9 182.7,6.7 	"/>
	<polygon style="fill:#FFD42A;" points="201.7,65.2 182.7,51.4 182.7,39.1 182.8,39.1 201.4,64.5 	"/>
	<polygon style="fill:#FFD42A;" points="213.4,29.1 194.4,42.9 182.8,39.1 182.7,39 	"/>
	<polygon style="fill:#FFD42A;" points="182.7,39.1 163.7,65.2 170.9,42.9 	"/>
	<polygon style="fill:#FFD42A;" points="182.7,38.9 182.7,39.1 151.9,29.1 175.4,29.1 	"/>
	<polygon style="fill:none;stroke:#AC8800;stroke-linecap:round;stroke-linejoin:round;stroke-miterlimit:10;" points="194.4,42.9 
		213.4,29.1 189.9,29.1 182.7,6.7 175.4,29.1 151.9,29.1 170.9,42.9 163.7,65.2 182.7,51.4 201.7,65.2 	"/>
	
		<line style="fill:none;stroke:#AC8800;stroke-linecap:round;stroke-linejoin:round;stroke-miterlimit:10;" x1="182.7" y1="6.7" x2="182.7" y2="51.4"/>
	
		<line style="fill:none;stroke:#AC8800;stroke-linecap:round;stroke-linejoin:round;stroke-miterlimit:10;" x1="213.4" y1="29.1" x2="170.9" y2="42.9"/>
	
		<line style="fill:none;stroke:#AC8800;stroke-linecap:round;stroke-linejoin:round;stroke-miterlimit:10;" x1="201.4" y1="64.5" x2="175.4" y2="29.1"/>
	
		<line style="fill:none;stroke:#AC8800;stroke-linecap:round;stroke-linejoin:round;stroke-miterlimit:10;" x1="163.7" y1="65.2" x2="189.9" y2="29.1"/>
	
		<line style="fill:none;stroke:#AC8800;stroke-linecap:round;stroke-linejoin:round;stroke-miterlimit:10;" x1="151.9" y1="29.1" x2="194.4" y2="42.9"/>
</g>
<g>
	<polygon style="fill:#FEE46E;" points="49.6,42.9 68.6,29.1 45.1,29.1 37.8,6.7 30.6,29.1 7.1,29.1 26.1,42.9 18.8,65.2 37.8,51.4 
		56.8,65.2 	"/>
	<polygon style="fill:#FFD42A;" points="45.1,29.1 37.9,39 37.8,38.9 37.8,6.7 	"/>
	<polygon style="fill:#FFD42A;" points="56.8,65.2 37.8,51.4 37.8,39.1 37.9,39.1 56.6,64.5 	"/>
	<polygon style="fill:#FFD42A;" points="68.6,29.1 49.6,42.9 37.9,39.1 37.9,39 	"/>
	<polygon style="fill:#FFD42A;" points="37.8,39.1 18.8,65.2 26.1,42.9 	"/>
	<polygon style="fill:#FFD42A;" points="37.8,38.9 37.8,39.1 7.1,29.1 30.6,29.1 	"/>
	<polygon style="fill:none;stroke:#AC8800;stroke-linecap:round;stroke-linejoin:round;stroke-miterlimit:10;" points="49.6,42.9 
		68.6,29.1 45.1,29.1 37.8,6.7 30.6,29.1 7.1,29.1 26.1,42.9 18.8,65.2 37.8,51.4 56.8,65.2 	"/>
	
		<line style="fill:none;stroke:#AC8800;stroke-linecap:round;stroke-linejoin:round;stroke-miterlimit:10;" x1="37.8" y1="6.7" x2="37.8" y2="51.4"/>
	
		<line style="fill:none;stroke:#AC8800;stroke-linecap:round;stroke-linejoin:round;stroke-miterlimit:10;" x1="68.6" y1="29.1" x2="26.1" y2="42.9"/>
	
		<line style="fill:none;stroke:#AC8800;stroke-linecap:round;stroke-linejoin:round;stroke-miterlimit:10;" x1="56.6" y1="64.5" x2="30.6" y2="29.1"/>
	
		<line style="fill:none;stroke:#AC8800;stroke-linecap:round;stroke-linejoin:round;stroke-miterlimit:10;" x1="18.8" y1="65.2" x2="45.1" y2="29.1"/>
	
		<line style="fill:none;stroke:#AC8800;stroke-linecap:round;stroke-linejoin:round;stroke-miterlimit:10;" x1="7.1" y1="29.1" x2="49.6" y2="42.9"/>
</g>
<g>
	<polygon style="fill:#FEE46E;" points="181.4,196.8 200.4,182.9 176.9,182.9 169.7,160.6 162.4,182.9 138.9,182.9 157.9,196.8 
		150.7,219.1 169.7,205.3 188.7,219.1 	"/>
	<polygon style="fill:#FFD42A;" points="176.9,183 169.7,192.9 169.7,192.8 169.7,160.6 	"/>
	<polygon style="fill:#FFD42A;" points="188.7,219.1 169.7,205.3 169.7,192.9 169.8,193 188.4,218.3 	"/>
	<polygon style="fill:#FFD42A;" points="200.4,183 181.4,196.8 169.8,193 169.7,192.9 	"/>
	<polygon style="fill:#FFD42A;" points="169.7,192.9 150.7,219.1 157.9,196.8 	"/>
	<polygon style="fill:#FFD42A;" points="169.7,192.8 169.7,192.9 138.9,183 162.4,183 	"/>
	<polygon style="fill:none;stroke:#AC8800;stroke-linecap:round;stroke-linejoin:round;stroke-miterlimit:10;" points="181.4,196.8 
		200.4,182.9 176.9,182.9 169.7,160.6 162.4,182.9 138.9,182.9 157.9,196.8 150.7,219.1 169.7,205.3 188.7,219.1 	"/>
	
		<line style="fill:none;stroke:#AC8800;stroke-linecap:round;stroke-linejoin:round;stroke-miterlimit:10;" x1="169.7" y1="160.6" x2="169.7" y2="205.3"/>
	
		<line style="fill:none;stroke:#AC8800;stroke-linecap:round;stroke-linejoin:round;stroke-miterlimit:10;" x1="200.4" y1="182.9" x2="157.9" y2="196.8"/>
	
		<line style="fill:none;stroke:#AC8800;stroke-linecap:round;stroke-linejoin:round;stroke-miterlimit:10;" x1="188.4" y1="218.3" x2="162.4" y2="182.9"/>
	
		<line style="fill:none;stroke:#AC8800;stroke-linecap:round;stroke-linejoin:round;stroke-miterlimit:10;" x1="150.7" y1="219.1" x2="176.9" y2="182.9"/>
	
		<line style="fill:none;stroke:#AC8800;stroke-linecap:round;stroke-linejoin:round;stroke-miterlimit:10;" x1="138.9" y1="182.9" x2="181.4" y2="196.8"/>
</g>
<g>
	<polygon style="fill:#FEE46E;" points="62.6,196.8 81.6,182.9 58.1,182.9 50.8,160.6 43.6,182.9 20.1,182.9 39.1,196.8 31.8,219.1 
		50.8,205.3 69.8,219.1 	"/>
	<polygon style="fill:#FFD42A;" points="58.1,183 50.9,192.9 50.8,192.8 50.8,160.6 	"/>
	<polygon style="fill:#FFD42A;" points="69.8,219.1 50.8,205.3 50.8,192.9 50.9,193 69.6,218.3 	"/>
	<polygon style="fill:#FFD42A;" points="81.6,183 62.6,196.8 50.9,193 50.9,192.9 	"/>
	<polygon style="fill:#FFD42A;" points="50.8,192.9 31.8,219.1 39.1,196.8 	"/>
	<polygon style="fill:#FFD42A;" points="50.8,192.8 50.8,192.9 20.1,183 43.6,183 	"/>
	<polygon style="fill:none;stroke:#AC8800;stroke-linecap:round;stroke-linejoin:round;stroke-miterlimit:10;" points="62.6,196.8 
		81.6,182.9 58.1,182.9 50.8,160.6 43.6,182.9 20.1,182.9 39.1,196.8 31.8,219.1 50.8,205.3 69.8,219.1 	"/>
	
		<line style="fill:none;stroke:#AC8800;stroke-linecap:round;stroke-linejoin:round;stroke-miterlimit:10;" x1="50.8" y1="160.6" x2="50.8" y2="205.3"/>
	
		<line style="fill:none;stroke:#AC8800;stroke-linecap:round;stroke-linejoin:round;stroke-miterlimit:10;" x1="81.6" y1="182.9" x2="39.1" y2="196.8"/>
	
		<line style="fill:none;stroke:#AC8800;stroke-linecap:round;stroke-linejoin:round;stroke-miterlimit:10;" x1="69.6" y1="218.3" x2="43.6" y2="182.9"/>
	
		<line style="fill:none;stroke:#AC8800;stroke-linecap:round;stroke-linejoin:round;stroke-miterlimit:10;" x1="31.8" y1="219.1" x2="58.1" y2="182.9"/>
	
		<line style="fill:none;stroke:#AC8800;stroke-linecap:round;stroke-linejoin:round;stroke-miterlimit:10;" x1="20.1" y1="182.9" x2="62.6" y2="196.8"/>
</g>
<g>
</g>
<g>
</g>
<g>
</g>
<g>
</g>
<g>
</g>
<g>
</g>
</svg>
