<?xml version="1.0" encoding="UTF-8" standalone="no"?>
<svg
   xmlns:dc="http://purl.org/dc/elements/1.1/"
   xmlns:cc="http://creativecommons.org/ns#"
   xmlns:rdf="http://www.w3.org/1999/02/22-rdf-syntax-ns#"
   xmlns:svg="http://www.w3.org/2000/svg"
   xmlns="http://www.w3.org/2000/svg"
   version="1.1"
   id="svg833"
   width="1643.1746"
   height="2283.1746"
   viewBox="0 0 1643.1746 2283.1746">
  <metadata
     id="metadata839">
    <rdf:RDF>
      <cc:Work
         rdf:about="">
        <dc:format>image/svg+xml</dc:format>
        <dc:type
           rdf:resource="http://purl.org/dc/dcmitype/StillImage" />
        <dc:title></dc:title>
      </cc:Work>
    </rdf:RDF>
  </metadata>
  <defs
     id="defs837" />
  <g
     id="g841">
    <g
       id="g845"
       transform="translate(-0.44181844,1.8739632)">
      <path
         id="path859"
         style="fill:#f3c800;stroke-width:2.53968;fill-opacity:1"
         d="m 669.47852,631.01758 c -10.18064,0.14066 -20.57208,1.18887 -30.02692,5.20585 -9.59056,4.01815 -17.76909,10.68483 -25.25737,17.77549 -10.01397,9.74101 -17.8717,21.7548 -22.4961,34.95288 -1.67538,4.8075 -2.73457,9.81035 -3.35552,14.85803 -0.34011,2.21127 -0.8738,4.66604 -2.80406,6.05743 -2.91973,2.40876 -6.41112,3.96616 -9.73903,5.7146 -7.24832,3.62801 -14.55825,7.14634 -21.60613,11.15879 -33.15778,18.56906 -62.53069,43.18479 -89.30956,69.9936 -20.56567,20.55 -39.7623,42.42627 -58.26215,64.83987 -20.69421,25.21128 -40.02096,51.51513 -58.62597,78.29583 -27.39173,39.52364 -53.15481,80.17585 -77.28426,121.77075 -15.42481,26.6297 -30.09902,53.6988 -43.71908,81.2976 -5.62533,11.261 -11.25379,22.5204 -16.87714,33.7824 50.98222,53.8547 102.01931,107.6545 153.17855,161.3414 41.98836,44.0315 84.00697,88.0341 125.91508,132.142 33.27771,34.98 66.55579,69.957 99.92765,104.8471 12.89875,13.3688 25.81886,26.724 39.21404,39.5981 2.19416,2.0713 4.36201,4.2077 6.8389,5.9405 1.54156,0.9539 3.70339,0.9108 5.04094,-0.3865 5.08991,-4.0895 9.91983,-8.4897 14.84427,-12.7747 31.5005,-27.6948 62.62703,-55.8083 93.88783,-83.7755 17.79568,-15.9282 35.55071,-31.8752 53.53313,-47.5827 5.64887,-4.8781 11.24829,-9.8378 17.27196,-14.254 0.62396,-0.4466 1.24932,-0.8969 1.93359,-1.248 3.1595,2.5372 6.17682,5.1348 9.3096,7.7337 24.02981,20.1761 47.92384,40.5141 71.83525,60.8306 30.54434,25.9883 61.09065,51.9758 91.48614,78.1331 6.62164,5.6619 13.13034,11.4532 19.57604,17.3143 14.7633,-15.5491 29.4056,-31.2126 43.9915,-46.9271 49.955,-53.6819 99.8182,-107.4485 149.6913,-161.2057 73.2884,-79.033 146.5715,-158.071 219.8563,-237.1075 -2.6122,-9.123 -5.0609,-18.3069 -8.3701,-27.2102 -6.1214,-16.9911 -13.241,-33.6025 -20.618,-50.0808 -15.4837,-34.3624 -32.4714,-68.0682 -51.4343,-100.6496 -26.2602,-45.15624 -56.1311,-88.26651 -89.8602,-128.17655 -34.2457,-40.47841 -72.5334,-77.70882 -115.1961,-109.27324 -24.2397,-17.92353 -49.9318,-33.92152 -76.9378,-47.33977 -3.5661,-1.89439 -7.3288,-3.60272 -10.3334,-6.35849 -1.4026,-1.38615 -1.7088,-3.42361 -1.7227,-5.30779 -0.049,-2.53468 -0.2035,-5.08143 -0.8679,-7.53999 -1.7937,-7.47222 -5.2157,-14.43466 -8.9812,-21.09085 -4.4726,-7.75906 -9.7136,-15.1387 -16.0625,-21.4802 -7.545,-7.33753 -16.8108,-12.70245 -26.512,-16.65944 -10.38909,-4.18347 -21.52413,-6.76341 -32.75693,-6.75918 -9.42732,0.0935 -18.65247,2.61318 -27.3989,5.97697 -8.83593,3.49032 -17.27348,8.05041 -24.91162,13.70926 -5.05605,3.74369 -9.53295,8.1802 -14.23571,12.34166 -0.4423,0.47762 -0.90273,0.89799 -1.58501,0.61767 -8.63101,-1.01969 -17.24197,-2.21833 -25.89239,-3.05959 -15.08641,-1.31764 -30.23674,-1.69657 -45.37406,-1.90201 -18.98562,-0.18388 -37.98797,0.0279 -56.93957,1.23779 -6.37642,0.42184 -12.7607,1.13872 -19.05852,2.02203 -3.49478,0.45376 -6.98955,0.90751 -10.48433,1.36127 -6.26852,-6.00148 -12.19075,-12.44246 -19.29094,-17.49593 -7.93121,-5.7814 -16.95449,-10.06936 -26.48488,-12.43898 -8.6976,-2.19204 -17.70931,-2.91544 -26.65972,-2.76626 z m -0.36719,26.01172 c 2.44227,-0.002 4.95,0.0456 7.29785,0.17196 9.00968,0.42981 17.98824,1.87979 26.6084,4.55851 0.68243,0.21005 1.39212,0.43503 2.08545,0.66995 3.67611,1.22402 7.14163,2.62269 10.65574,4.30397 12.34509,5.86857 23.30941,14.58115 31.84829,25.25223 2.59189,3.22471 4.97318,6.61635 7.15466,10.13127 0.31371,0.53381 0.81431,1.32721 1.18803,1.97412 2.80926,4.78346 5.18938,9.80031 7.7909,14.69679 1.46713,2.83114 2.93605,5.66136 4.40193,8.49315 7.34148,0.73827 14.6651,1.66796 22.01928,2.26613 11.32924,0.70295 22.69347,0.38384 34.02503,-0.1013 12.06628,-0.58275 24.14062,-1.43082 36.08986,-3.25488 5.21071,-0.78163 10.51024,-1.96173 15.00673,-4.8388 6.27946,-3.9295 11.08134,-9.68867 15.90942,-15.20233 7.78803,-9.02533 15.73175,-17.97788 24.70011,-25.86023 4.44753,-3.89294 9.19457,-7.47585 14.3609,-10.36406 0.79947,-0.43835 1.84381,-1.00182 2.76198,-1.44471 7.05453,-3.52475 14.83462,-5.37367 22.6552,-6.12452 3.29251,-0.33415 6.6588,-0.49143 9.88717,-0.54818 5.13389,-0.0334 10.28512,-0.0744 15.39841,0.44803 2.26943,0.2582 4.49667,0.64844 6.63168,1.27119 6.16585,1.79019 11.81689,4.92285 17.47295,7.88962 5.1095,2.77091 10.1263,6.00091 13.8041,10.58331 3.3784,4.13207 6.0348,8.79558 8.531,13.49596 4.3583,8.46686 7.141,17.70232 8.4864,27.11875 0.061,0.48144 0.1798,1.32168 0.2629,1.94058 0.5411,4.21506 0.85,8.52605 1.0025,12.69556 0.1884,6.29733 0.055,12.60829 0.6116,18.89048 0.5981,7.93027 1.3941,15.8961 3.3834,23.61537 1.1061,4.20404 2.9222,8.22199 5.4622,11.7569 3.9895,5.72845 8.9486,10.68672 13.8672,15.60827 11.0863,10.91036 22.7034,21.26033 34.2226,31.70702 16.0232,14.44855 32.1985,28.72893 48.0874,43.32564 14.5866,13.46123 29.0425,27.25248 41.0192,43.15126 9.8382,12.92553 18.2059,26.87124 26.8791,40.58104 7.008,10.92851 14.368,21.64688 22.4113,31.84252 3.1939,4.04203 6.6153,7.97373 10.7894,11.03823 7.7021,5.9892 16.0176,11.1424 24.4927,15.9553 7.3757,4.0666 14.9915,7.695 22.2099,12.0465 1.2678,0.7526 2.3718,1.4338 3.617,2.2125 1.2501,0.7903 2.679,1.7171 3.9667,2.6087 6.8735,4.6704 13.1902,10.2554 18.1667,16.9411 5.9459,7.8944 10.3644,16.787 14.6402,25.6576 6.6827,14.1235 12.2433,28.8039 16.2088,43.9254 0.4296,1.6964 0.9117,3.5969 1.3133,5.3842 1.4238,6.2042 2.4894,12.4941 3.089,18.8326 0.05,0.5613 0.1221,1.462 0.1805,2.1534 0.4515,6.9579 0.4262,14.0773 -1.4641,20.8397 -1.6292,3.8731 -3.9835,7.3805 -6.1526,10.9625 -10.422,16.5458 -21.9474,32.3572 -33.5233,48.1053 -18.1921,24.7982 -36.2581,49.6929 -54.1386,74.7205 -17.7582,24.7454 -35.7995,49.3756 -54.7261,73.1971 -13.043,16.3986 -26.5336,32.4368 -40.2832,48.2461 -15.2011,17.4719 -30.7544,34.7522 -46.2968,51.9214 -25.4251,28.0333 -50.8957,56.0213 -77.1663,83.2663 -4.7236,4.8943 -9.4744,9.6965 -14.376,14.4445 -0.3219,0.2149 -0.9097,1.0556 -1.0585,0.8266 -0.2538,-5.3975 -0.056,-10.803 0.108,-16.1597 0.3724,-10.1216 0.9277,-20.2384 0.9695,-30.3692 0,-4.1422 0.035,-8.3035 -0.4438,-12.4228 -0.2112,-1.855 -1.381,-3.712 -3.2771,-4.1789 -1.7934,-0.5403 -3.415,0.6462 -4.972,1.3437 -10.5435,5.0684 -21.02673,10.265 -31.6304,15.2069 -4.87344,2.2049 -9.7847,4.3862 -14.91908,5.9162 0.60208,-5.2587 1.66712,-10.3918 2.67006,-15.5861 1.55505,-7.7679 3.27623,-15.4051 5.16001,-23.1014 0.99232,-4.0198 2.07072,-8.2205 3.19288,-12.1882 0.88695,-3.0086 1.75515,-6.2213 3.02716,-9.1749 0.68328,-1.3472 1.62682,-2.6792 1.52771,-4.2682 0.0677,-2.2061 -1.83153,-4.1711 -4.01943,-4.2636 -2.51699,-0.1264 -4.65962,1.4523 -6.76401,2.6074 -5.68219,3.3967 -11.08441,7.2331 -16.55674,10.9522 -6.74342,4.6777 -13.46961,9.2406 -20.54887,13.3751 -1.57337,0.9119 -3.16331,1.7993 -4.78448,2.6223 -0.2014,-4.0736 0.21885,-8.1465 0.49909,-12.2071 0.66951,-8.2513 1.5137,-16.4755 2.57487,-24.7087 0.54596,-4.4121 1.21147,-8.9014 2.00516,-13.3291 0.55849,-3.5068 1.1413,-7.0554 0.97557,-10.6165 -0.16943,-1.8367 -1.34777,-3.7809 -3.29535,-4.0741 -1.81558,-0.4583 -3.50306,0.5565 -5.03549,1.3879 -3.98364,2.2415 -7.75181,4.8415 -11.54432,7.3877 -10.02386,6.8297 -19.70183,14.1867 -30.09737,20.4574 -0.43755,0.2447 -0.0285,-0.8749 -0.0846,-1.1672 0.20052,-1.6547 0.64316,-3.2674 1.10591,-4.8647 0.1399,-0.4662 0.39244,-1.2748 0.5755,-1.8722 0.56519,-1.7581 1.19251,-3.4824 1.81581,-5.1416 3.47628,-9.1387 7.73066,-17.9514 11.60652,-26.922 12.03106,-27.1375 23.73849,-54.4177 35.72701,-81.5744 4.17213,-9.4326 8.43954,-18.8779 12.84742,-28.23 1.7428,-3.6582 3.57207,-7.4334 5.45222,-11.0857 3.91899,-7.6603 8.26518,-15.236 13.06697,-22.4343 8.59265,-13.1396 18.08283,-25.6798 28.19956,-37.6812 6.67851,-7.9262 13.72301,-15.7599 20.88721,-23.3379 18.5375,-19.5941 38.2908,-38.1948 58.3497,-56.2441 12.2995,-11.1115 24.9744,-21.8424 36.517,-33.7598 1.5265,-1.7224 3.3792,-3.3512 4.082,-5.6113 0.5289,-2.219 -0.9155,-4.301 -2.5281,-5.6749 -4.1433,-3.7526 -8.8757,-6.7715 -13.5461,-9.8134 -6.5271,-4.1378 -13.4571,-7.8062 -19.133,-13.1276 -3.1687,-3.0612 -5.4319,-7.0072 -6.5304,-11.2706 -0.1787,-0.6538 -0.3031,-1.1217 -0.4619,-1.8225 -1.4476,-6.5836 -1.6943,-13.3525 -1.9411,-20.0664 -0.3217,-12.3524 -0.1498,-24.8806 -0.3588,-37.3001 -0.578,-38.67603 -1.7632,-77.33821 -3.2299,-115.98956 -0.6065,-16.57598 -1.2131,-33.15196 -1.8195,-49.72794 -3.072,-4.34592 -5.9864,-8.80656 -9.1816,-13.06265 -5.0084,-6.19122 -10.8349,-11.66288 -16.797,-16.91912 -5.7529,-4.92655 -11.8475,-9.43468 -17.625,-14.3323 -6.7181,-5.53089 -13.3301,-11.2268 -19.7104,-17.18692 -2.0712,-1.90592 -4.1423,-3.81184 -6.21334,-5.71776 0.19843,-10.27141 0.55496,-20.54099 0.60707,-30.81445 -0.0521,-8.50817 -0.30739,-17.04544 -1.52691,-25.47633 -0.46287,-3.0427 -1.48829,-5.98603 -3.03999,-8.64515 -3.36401,-6.04428 -8.22509,-11.17432 -13.72875,-15.32109 -3.98182,-2.9541 -8.49414,-5.50568 -13.47978,-6.15568 -3.87694,-0.36473 -7.76926,0.4097 -11.48222,1.47316 -8.79722,2.62457 -16.73065,7.61147 -23.66556,13.54832 -7.01498,6.06337 -13.12568,13.37303 -16.96621,21.86392 -2.87399,6.57 -4.32793,13.64169 -5.63243,20.65966 -2.01131,11.38138 -3.14013,22.91994 -3.39608,34.47425 -0.0791,5.9464 -0.0678,11.96133 1.16538,17.80486 0.55304,2.61378 1.66375,5.44635 4.14743,6.77407 1.8997,0.91824 4.06142,0.51432 6.09196,0.67501 15.83486,0.34365 31.73735,0.45219 47.53109,0.86992 2.91196,0.0981 5.85997,0.21834 8.6898,0.42546 5.6891,0.39033 11.41533,1.22397 16.73492,3.3664 4.82215,1.8431 9.48012,4.09601 14.06672,6.45848 6.704,3.56267 13.0033,8.12273 17.7201,14.13412 1.5674,1.94089 3.0899,4.18021 4.345,6.17804 2.3283,3.91539 4.6416,7.87812 6.3037,12.13076 1.8634,5.2689 2.0997,10.9159 2.4914,16.43892 0.5984,10.38824 0.7101,20.75838 0.8888,31.18604 0.2856,21.868 0.5281,43.737 0.6146,65.60677 0.064,20.25529 -0.076,40.51389 -0.7047,60.76059 -0.3535,10.2354 -0.8084,20.5284 -1.6598,30.7813 -0.3435,4.0867 -0.7234,8.0562 -1.2485,12.1704 -0.9033,6.6904 -1.8333,13.4663 -4.2462,19.8096 -1.9927,4.485 -4.6919,8.6124 -7.3742,12.708 -4.5243,6.782 -9.5992,13.4137 -14.6513,19.9018 -11.86992,15.1825 -24.38536,29.8427 -36.67355,44.6846 -14.51042,17.6554 -28.58917,35.7096 -41.21061,54.7774 -6.47405,9.8518 -12.61984,19.99 -17.29397,30.8361 -3.0521,7.1427 -5.21559,14.668 -6.29924,22.3633 -1.52463,10.0751 -2.11523,20.2601 -2.78368,30.4194 -0.9621,15.2834 -1.79319,30.5319 -3.29489,45.7741 -0.0882,0.7781 -0.18284,1.5556 -0.29526,2.3306 -2.93292,0.8367 -6.01549,0.9256 -9.04264,1.125 -6.06989,0.3032 -12.28684,0.1378 -18.43234,0.184 -4.81628,0 -9.63257,5e-4 -14.44885,0 -0.48797,13.9682 -0.98224,27.9361 -1.47265,41.9042 -21.19141,0 -42.38282,0 -63.57422,0 -1.16331,-13.9924 -2.76653,-27.9423 -4.26172,-41.9023 -9.7603,-0.046 -19.52241,0.089 -29.28145,-0.088 -1.79465,-0.051 -3.49697,-0.1091 -5.3123,-0.2185 -1.18007,-0.081 -2.6088,-0.1835 -3.87917,-0.3345 -0.54025,-0.1234 -1.3395,-0.023 -1.71769,-0.3143 -0.43624,-13.1468 -0.61005,-26.3013 -1.05794,-39.4473 -0.46383,-11.4426 -1.18292,-22.891 -2.71393,-34.2451 -1.06531,-7.645 -3.80099,-14.9488 -7.09522,-21.8912 -5.48571,-11.3178 -12.65218,-21.7175 -20.10622,-31.8112 -14.52161,-19.4833 -30.72732,-37.6143 -46.4667,-56.1036 -7.17592,-8.452 -14.41114,-16.9724 -21.30688,-25.5853 -4.494,-5.6387 -8.91819,-11.3423 -12.94141,-17.33 -2.15979,-3.2069 -4.36088,-6.7115 -6.3358,-10.1865 -3.94909,-7.0471 -7.51794,-14.3518 -10.93178,-21.628 -0.63682,-1.387 -1.22493,-2.7818 -1.74078,-4.1326 -1.3487,-3.5007 -2.48613,-7.3994 -3.27508,-11.0623 -2.28197,-10.9787 -3.37415,-22.156 -4.62859,-33.2859 -1.62488,-15.2426 -3.10053,-30.551 -4.60127,-45.8309 -0.76799,-8.1093 -1.50836,-16.2316 -2.07256,-24.29663 -1.18793,-16.4043 -1.92646,-32.86354 -1.58012,-49.3733 0.0843,-4.00884 0.24557,-8.08212 0.49411,-12.14141 0.25293,-3.9439 0.58948,-8.06741 1.05134,-12.06456 1.36801,-11.95829 3.77186,-24.07844 8.29458,-35.35056 0.9164,-2.26599 1.8938,-4.49145 2.94119,-6.60246 3.56835,-7.22884 8.18089,-13.93632 13.5539,-19.94059 6.46622,-7.25139 14.54254,-13.00448 23.40896,-16.95109 3.33375,-1.49003 6.69075,-2.75681 10.14336,-3.84015 2.29936,-0.73521 4.72138,-1.41503 6.96538,-1.98157 2.91513,-0.74502 5.85624,-1.38498 8.80926,-1.96042 0.88867,-0.16012 1.9184,-0.36412 2.85112,-0.52375 13.98855,-2.54479 28.28487,-3.13246 42.16602,-6.303 5.01893,-1.19817 10.21248,-2.89299 13.92043,-6.66219 3.49898,-3.623 5.08708,-8.59223 6.11849,-13.41003 1.8023,-8.99546 1.607,-18.26036 0.75448,-27.35299 -0.95315,-9.30943 -2.80391,-18.58214 -6.14159,-27.34442 -2.57011,-6.40064 -6.15776,-12.33895 -10.01771,-18.03428 -6.15438,-8.89272 -13.61421,-17.00823 -22.56674,-23.14122 -5.91576,-3.94693 -12.50292,-6.95363 -19.43644,-8.57817 -6.04703,-1.35655 -12.50515,-1.13094 -18.31951,1.10325 -5.6337,2.07714 -10.35796,5.88337 -15.34206,9.12102 -1.03332,0.69548 -2.06735,1.3899 -3.09978,2.08671 -0.58513,18.69952 -1.08512,37.3917 -1.75658,56.07963 -0.2431,5.70163 -0.53101,11.3666 -1.09693,17.01412 -0.0885,0.74426 -0.20218,1.79316 -0.30078,2.6543 -0.82402,6.6007 -2.16212,13.33504 -5.6793,19.08336 -3.07981,5.05153 -7.53346,9.07559 -12.06281,12.80338 -9.63602,7.75373 -19.93132,14.68866 -29.11597,22.99828 -5.26432,4.71302 -10.20477,9.87075 -14.01454,15.85173 -2.23056,3.4776 -4.16105,7.16332 -5.63726,11.02413 -2.24087,6.16969 -2.57252,12.79552 -3.02906,19.28169 -0.64441,12.46507 -0.70087,24.95116 -0.8359,37.42994 -0.17838,26.20232 -0.1323,52.40557 -0.17141,78.60835 -0.0228,17.9679 -0.0324,35.9377 -0.38243,53.9027 -0.13292,6.1798 -0.32596,12.3017 -0.86845,18.4849 -0.41009,5.0297 -1.33165,10.1066 -3.62665,14.6471 -2.13621,4.6176 -4.50945,9.4344 -8.69048,12.5471 -3.55555,2.6044 -7.90749,3.7384 -12.15723,4.6245 -0.52172,0.096 -1.38234,0.2738 -2.03596,0.3963 -5.92501,1.0542 -11.83395,2.089 -17.76482,3.1349 25.26215,28.217 50.63428,56.3371 75.62173,84.8029 7.90746,9.0302 15.75348,18.086 23.49155,27.2752 5.31556,6.3308 10.68424,12.856 15.79059,19.329 3.52505,4.4631 6.93521,8.9285 10.24569,13.4649 4.31382,5.9037 8.50951,12.0223 12.36802,18.1573 6.57019,10.4265 12.45342,21.423 17.92195,32.5243 5.48221,11.0707 10.73079,22.4101 16.26068,33.5181 12.43807,25.1734 25.21839,50.1811 38.49315,74.9244 5.80132,10.9931 11.64832,22.0599 17.10646,33.2647 0.63648,1.3599 1.37435,2.7648 1.89354,4.1259 -2.8874,-0.1198 -5.66671,-1.0446 -8.41776,-1.8589 -8.25771,-2.6826 -16.22069,-6.1706 -24.31763,-9.2874 -3.72393,-1.4292 -7.44157,-2.894 -11.23586,-4.1234 -1.22103,-0.3245 -2.54878,-0.2594 -3.73773,0.1252 -1.40822,0.5768 -1.62998,2.255 -1.75286,3.5863 -0.0166,1.8556 0.46544,3.6726 0.70962,5.5047 2.47907,15.1257 5.75358,30.1118 8.03347,45.2723 0.35976,2.5086 0.72815,5.1562 0.97656,7.7324 -4.16619,-1.0205 -7.92214,-3.1937 -11.68398,-5.1828 -10.71342,-5.8852 -20.90198,-12.7077 -31.92094,-18.0373 -1.58153,-0.6471 -3.15773,-1.571 -4.91265,-1.5533 -1.16507,0.07 -2.42251,0.5043 -3.16422,1.4254 -1.17138,1.6146 -1.08866,3.7083 -0.84555,5.5902 0.0284,0.496 0.14116,1.3255 0.22348,1.9494 1.81047,14.0318 5.23766,27.7831 7.5467,41.7307 0.44857,3.0434 1.04051,6.103 0.93983,9.191 0.0502,0.6293 -0.87715,0.048 -1.24628,0.1267 -4.24035,-0.7655 -8.27047,-2.3517 -12.35971,-3.6639 -10.05622,-3.422 -19.80971,-7.6017 -29.85948,-11.038 -2.6286,-0.8562 -5.26106,-1.7604 -7.97855,-2.2867 -1.8604,-0.3302 -4.11574,0.3383 -4.87927,2.2134 -0.89562,2.0406 -0.43269,4.3316 -0.35799,6.4798 0.86092,12.5449 2.89709,24.9663 4.17049,37.4695 0.31694,3.6615 0.75843,7.4677 0.39062,11.1875 -5.02132,-4.2821 -9.60676,-9.0406 -14.25952,-13.712 -18.19533,-18.4809 -35.90114,-37.435 -53.59464,-56.3942 -27.30684,-29.3391 -54.34453,-58.8935 -81.13578,-88.7008 -18.30598,-20.3984 -36.55456,-40.8547 -54.25906,-61.7796 -9.46422,-11.2978 -18.67402,-22.9329 -27.8006,-34.5602 -11.56959,-14.7791 -22.82438,-29.6672 -33.6353,-44.9804 -7.64475,-10.8161 -15.07133,-21.8845 -22.05728,-33.1795 -4.37094,-7.0784 -8.63672,-14.4 -12.59961,-21.7812 -0.91983,-1.7415 -1.94717,-3.657 -2.87016,-5.4855 -5.59005,-10.9004 -10.6828,-22.3208 -14.60376,-34.0287 -5.81978,-17.1554 -9.06001,-35.2504 -8.85395,-53.3905 0.0334,-9.2242 1.14801,-18.58 4.62452,-27.1866 1.85707,-4.6279 4.25359,-9.0325 7.06468,-13.149 0.33285,-0.4771 0.85067,-1.2366 1.27524,-1.8091 7.84379,-10.8604 17.64031,-20.1043 27.55757,-29.0362 16.76115,-14.97 34.85288,-28.6272 51.51332,-43.8099 8.26556,-7.5474 15.88715,-15.81523 22.53216,-24.8296 10.17225,-13.60158 19.09665,-28.10808 28.77489,-42.01613 9.23064,-13.30876 19.17347,-26.25126 30.10383,-38.27754 8.22074,-9.0991 16.86126,-17.69079 25.79021,-26.10217 10.50096,-9.85278 21.40297,-19.46567 32.32568,-28.92296 6.72836,-5.80025 13.32597,-11.75118 19.73717,-17.89973 12.78156,-12.19387 25.15232,-24.82747 36.89026,-38.03099 5.10177,-5.79107 10.17292,-11.64842 14.50481,-18.04882 1.60568,-2.36605 2.89032,-4.99999 3.30212,-7.85442 1.53354,-7.83571 2.28153,-15.79648 3.05387,-23.7352 0.81687,-9.55477 1.25881,-19.15478 2.74568,-28.63995 1.55209,-10.14398 3.9848,-20.28603 8.59748,-29.5086 3.9998,-8.11091 9.8376,-15.23405 16.67125,-21.12323 4.56184,-3.93474 9.73776,-7.21816 15.44143,-9.21911 6.11693,-2.23606 12.65682,-3.02295 19.13615,-3.19492 0.34088,-0.003 0.93463,-0.018 1.36133,-0.0234 z m -0.0332,2 c -6.28356,0.17463 -12.66609,0.97751 -18.50528,3.41429 -5.83896,2.63138 -11.06374,6.43657 -15.96906,10.51322 -7.82346,6.63203 -14.27295,15.03772 -17.94705,24.65991 -4.0604,10.40228 -5.60192,21.56041 -6.6886,32.60964 -1.19623,12.63759 -1.44657,25.40865 -3.95101,37.88878 -1.15237,5.62549 -3.19051,11.0803 -6.20997,15.97515 -1.13618,1.88595 -2.33807,3.57591 -3.6538,5.37172 -0.43406,0.58827 -0.98309,1.31855 -1.46182,1.93205 -4.63708,5.97294 -9.71804,11.58329 -14.76319,17.20944 -9.83808,10.74127 -20.24272,20.94777 -30.82678,30.94923 -6.03424,5.6478 -12.30722,11.23183 -18.64267,16.61786 -23.22589,20.11008 -46.02549,40.90569 -65.90241,64.39961 -13.51653,15.86934 -25.53992,32.9404 -36.94975,50.36559 -6.82178,10.25075 -13.53069,20.57813 -21.28462,30.18951 -6.91929,8.5456 -14.99783,16.0659 -23.40219,23.1247 -11.08259,9.3814 -22.66426,18.344 -33.97535,27.519 -11.51299,9.4444 -22.91339,19.2081 -32.36974,30.7743 -6.27719,7.7576 -11.43127,16.5805 -14.05578,26.2609 -3.08514,11.164 -3.08026,22.9002 -2.26698,34.3698 1.17676,15.5584 5.04294,30.8296 10.63766,45.3672 8.53215,22.4419 20.30931,43.4916 33.18393,63.7009 14.46957,22.6044 30.3979,44.2403 46.8911,65.4003 24.45179,31.2489 50.25493,61.4145 76.61181,91.0659 20.51508,23.0396 41.38146,45.7627 62.53042,68.2229 7.02882,7.4211 14.06124,14.8459 21.37162,21.992 1.2491,1.108 2.68015,2.5147 4.50185,2.2427 0.78681,-0.1129 1.56165,-0.3063 2.35157,-0.41 0.90932,-1.5015 1.63511,-3.2149 1.40638,-5.0088 -0.25806,-7.0009 -1.0218,-13.9704 -1.68497,-20.941 -0.70541,-6.8337 -1.47213,-13.636 -1.9968,-20.4936 -0.13322,-1.8595 -0.28114,-3.858 -0.39449,-5.7826 -0.10895,-1.8147 -0.1918,-3.6317 -0.21098,-5.4498 6.41546,1.652 12.68107,3.8288 18.93737,5.994 10.5995,3.7494 21.12012,7.7434 31.88996,10.9953 1.56893,0.3895 3.13229,0.9712 4.75861,1.0126 1.03576,-0.057 2.08637,-0.4381 2.95562,-0.9432 1.14072,-1.5394 1.3291,-3.5018 1.23518,-5.3559 -0.57531,-18.3765 -3.27175,-36.6202 -3.67908,-55.0056 1.85151,0.5151 3.67913,1.1111 5.50976,1.6954 1.04559,0.36 2.34514,0.7783 3.48293,1.1825 9.60713,3.3569 19.01418,7.2532 28.64818,10.6169 2.7511,0.9338 5.49065,1.9305 8.30249,2.6634 1.73218,0.4222 3.75013,-0.1525 4.70117,-1.7363 1.31754,-1.9858 1.20787,-4.479 1.40898,-6.7581 0.41718,-9.0913 -0.0592,-18.1923 -0.50689,-27.2733 -0.44889,-8.2589 -0.83053,-16.431 -0.78138,-24.7044 0.1163,-0.4244 -0.20745,-1.5149 0.21939,-1.5019 9.80887,3.6032 19.29256,8.0536 29.20932,11.3662 2.44582,0.7356 4.88622,1.6418 7.447,1.8595 1.93976,0.1855 3.9636,-0.934 4.60279,-2.8184 0.83138,-2.2577 -0.12688,-4.6395 -0.833,-6.7957 -2.21842,-6.2302 -5.10793,-12.1919 -7.91297,-18.1721 -7.50538,-15.6726 -15.57129,-31.0723 -23.91255,-46.3141 -6.09148,-11.0771 -12.30271,-22.1037 -19.19184,-32.7089 -2.38224,-3.6669 -5.10895,-7.0895 -7.9563,-10.402 -12.46877,-14.8977 -25.27923,-29.5026 -38.06607,-44.1273 -24.09781,-27.4584 -48.33397,-54.8005 -72.92225,-81.825 -5.70054,-6.2243 -11.35665,-12.505 -17.34044,-18.4622 -14.37398,-13.6217 -29.78716,-26.1652 -46.17793,-37.2852 -7.86532,-5.2811 -15.98218,-10.2426 -24.57531,-14.2557 -5.48689,-2.5091 -11.12285,-4.8082 -16.1675,-8.1602 -0.89742,-0.6076 -1.77382,-1.2527 -2.55477,-2.0069 3.26706,0.4781 6.36544,1.7082 9.45385,2.8303 5.56043,2.1127 11.0404,4.7017 16.40506,7.4066 9.25754,4.6905 18.25012,9.9939 26.38402,16.4676 8.27312,6.3551 16.32643,12.9064 24.22777,19.6705 6.393,5.5216 12.73895,11.1848 19.12489,16.7836 0.98051,0.8632 1.96089,1.7265 2.94152,2.5895 7.28238,-0.8867 14.59066,-1.5676 21.86352,-2.6265 4.98441,-0.7716 10.14191,-2.3577 13.74509,-6.0712 3.91355,-3.9415 5.72662,-9.402 6.86183,-14.7162 1.90769,-9.1811 2.29972,-18.584 2.67321,-27.9273 0.62427,-19.0858 0.40502,-38.1858 0.29776,-57.278 -0.20843,-27.50086 -0.59863,-55.00101 -0.58628,-82.5031 0.0685,-9.58064 0.0567,-19.18156 0.92763,-28.73084 0.37592,-3.78558 1.03428,-7.77113 2.16942,-11.50569 1.26853,-4.13755 2.67087,-8.20454 4.19127,-12.20885 0.78503,-2.06851 1.52398,-3.99854 2.45425,-6.02596 0.36423,-0.79531 0.67756,-1.44791 1.09446,-2.2663 2.22228,-4.45261 5.16761,-8.53885 8.74139,-12.00587 5.89902,-5.84573 12.69888,-10.66155 19.35876,-15.58426 8.12348,-5.92952 16.4402,-11.76695 23.30615,-19.1811 4.51217,-4.95095 8.02342,-10.89241 9.68106,-17.41296 2.3011,-8.5545 2.22876,-17.50114 2.06982,-26.28914 -0.28504,-10.32402 -1.13258,-20.63135 -1.06203,-30.96519 0.0169,-3.4873 0.13695,-6.97624 0.45878,-10.44962 0.0703,-0.63677 0.15892,-1.59687 0.26133,-2.35432 0.67219,-5.41795 1.97771,-11.05986 5.5668,-15.341 2.67535,-3.13236 6.2786,-5.28991 9.9707,-7.01953 0.5884,-0.26565 1.47331,-0.66842 2.19027,-0.94983 7.90664,-3.17755 16.7609,-3.82718 25.0711,-1.98633 11.40237,2.46646 21.55717,9.00723 29.79444,17.11165 10.0548,9.84026 17.97625,21.78688 23.49107,34.71123 0.19827,0.47559 0.52218,1.23677 0.71046,1.72017 1.55873,3.85309 2.89288,7.79682 3.99266,11.80522 0.13405,0.5025 0.3531,1.29657 0.47494,1.80085 0.34703,1.35586 0.6461,2.65165 0.94959,4.07301 0.67908,3.1417 1.19931,6.48228 1.52664,9.57536 0.14454,1.44101 0.28147,2.98355 0.34332,4.31405 0.23775,4.40404 0.12732,8.83039 -0.39214,13.21134 -0.14632,1.19162 -0.37698,2.76461 -0.59961,3.9375 -0.25976,1.40488 -0.5704,2.83682 -0.95068,4.29132 -1.27061,4.76454 -3.05318,9.45383 -5.74854,13.60321 -2.11769,3.17282 -5.08977,5.76246 -8.56671,7.34585 -3.33511,1.61189 -6.92292,2.6197 -10.5329,3.40025 -0.58202,0.11271 -1.48855,0.3024 -2.19531,0.44336 -11.04278,2.12564 -22.30885,2.63648 -33.41739,4.31047 -11.49725,1.68477 -23.1236,3.91436 -33.61506,9.11475 -9.45093,4.7208 -17.5793,11.7991 -24.30978,19.88492 -8.4299,10.28483 -14.083,22.58382 -17.82561,35.27865 -2.03286,6.73978 -3.62266,13.62931 -4.38199,20.63549 -1.27066,10.99058 -1.37362,22.07728 -1.23517,33.12833 0.32485,20.48738 1.87341,40.93196 3.7104,61.33211 1.614,17.5244 3.46136,35.029 5.65651,52.4907 1.90223,14.6368 4.20307,29.346 9.11635,43.3189 3.56936,10.0863 8.6038,19.6106 14.56552,28.4808 8.38326,12.5763 18.10823,24.1777 27.81496,35.7378 12.68367,14.9576 25.65017,29.6786 38.00553,44.9123 9.36755,11.5512 18.57273,23.2755 26.66129,35.7706 3.89494,6.0646 7.49142,12.3395 10.43217,18.9264 0.2325,0.5508 0.61238,1.4097 0.89844,2.0801 2.35326,5.4748 3.83056,11.1497 5.87695,16.7363 1.26584,3.2008 2.46139,6.5482 4.73242,9.1973 1.72291,2.0504 4.46695,3.2834 7.15105,2.815 3.02469,-0.4482 5.56639,-2.3267 7.96809,-4.0904 1.84875,-1.4636 3.16048,-3.5456 3.66212,-5.8512 1.02042,-3.9978 0.96153,-8.1637 1.04589,-12.26 0.0823,-11.5406 -0.46217,-23.0721 -0.86533,-34.6028 -1.10035,-28.2477 -2.21321,-56.4989 -3.8722,-84.7191 -0.51407,-8.1282 -0.97781,-16.2636 -1.78627,-24.3686 -0.12749,-1.7215 -0.71716,-3.4013 -0.50257,-5.1397 0.0945,-1.6369 0.0998,-3.6728 -1.41601,-4.6972 -1.54805,-0.7922 -3.30506,-1.1038 -4.99999,-1.4471 -5.8206,-1.0703 -11.83349,-0.7245 -17.59436,-2.1584 -10.54804,-2.8642 -21.04213,-6.0042 -31.19862,-10.0664 -0.65276,-0.2669 -1.63688,-0.6637 -2.31525,-0.9531 -10.8081,-4.4862 -21.15743,-10.288 -30.04323,-17.9541 -8.66986,-7.4268 -15.71564,-16.5435 -21.8073,-26.15 -2.53377,-4.0272 -5.04794,-8.0762 -7.25414,-12.2944 1.46942,-1.1081 3.08016,-2.0299 4.6134,-2.8882 6.33749,-3.5414 12.97363,-6.5792 19.62104,-9.3733 8.25388,-3.4455 16.72688,-6.4994 25.54386,-8.1354 3.31096,-0.6343 6.75855,-1.0975 10.02903,-1.3444 1.92055,-0.1435 3.66104,-0.2223 5.59266,-0.2372 4.00955,-0.03 8.08154,0.2344 11.97046,0.8407 7.07993,1.0959 14.00414,3.3153 20.32291,6.7062 0.70809,0.3781 1.65692,0.9089 2.43783,1.3857 6.67789,4.0326 12.57035,9.3904 17.08664,15.7613 3.99003,5.5341 7.3298,11.5031 10.47748,17.5463 4.52019,8.7822 8.47794,18.0722 11.7273,27.4794 2.19821,6.4397 3.87859,13.0468 5.21606,19.7159 1.62051,7.9982 2.94689,16.2092 4.04037,24.3549 1.09407,8.1408 2.04794,16.4933 2.82747,24.701 1.98697,20.6795 3.18299,41.3851 3.91275,62.1743 0.85073,20.4611 -0.57964,41.1142 -0.0111,61.6546 0.0408,1.8262 1.31869,3.2653 1.83093,4.944 0.0745,0.694 0.11964,1.3918 0.18274,2.0873 13.00391,0 26.00782,0 39.01172,0 1.0158,-16.0405 2.29078,-32.0677 2.86182,-48.1328 0.50178,-12.5126 0.71487,-25.0355 0.76784,-37.5577 0.11365,-7.9478 0.38616,-15.8965 0.82737,-23.79 0.35449,-6.2337 0.80692,-12.4758 1.37273,-18.7343 0.57533,-6.2851 1.23506,-12.4469 2.04741,-18.7445 1.32009,-10.2798 2.95216,-20.3966 5.01164,-30.5692 1.61338,-7.9629 3.55134,-16.0652 5.85408,-23.9735 2.25278,-7.7567 4.93932,-15.5886 8.27824,-23.0391 4.97228,-10.8763 12.37562,-20.5261 20.99645,-28.7636 0.72777,-0.674 1.65399,-1.5379 2.47774,-2.263 6.4248,-5.704 13.78616,-10.5343 22.03075,-13.1289 7.33286,-2.4056 15.17306,-3.1906 22.94659,-2.7175 0.4625,0.04 1.14128,0.075 1.62705,0.1201 3.22612,0.2647 6.43403,0.7284 9.61123,1.3447 1.32881,0.2663 2.88084,0.5957 4.28631,0.9399 3.50787,0.8457 6.96715,1.8816 10.38556,3.0348 0.66698,0.2287 1.62543,0.5684 2.4043,0.8398 0.66463,0.2513 1.61453,0.5972 2.38867,0.8848 0.6647,0.2551 1.60322,0.6233 2.37305,0.9218 0.97838,0.4057 2.21305,0.8906 3.28075,1.3497 8.75011,3.682 17.1475,8.1307 25.55127,12.5292 -1.52054,3.6412 -3.66843,6.9776 -5.75585,10.3125 -5.59009,8.5653 -11.81327,16.7636 -19.05345,24.0092 -2.13608,2.1504 -4.29861,4.2774 -6.5735,6.2819 -0.67037,0.5768 -1.55421,1.3424 -2.32384,1.9711 -5.44563,4.5149 -11.52881,8.23 -17.97786,11.1279 -8.25684,3.7507 -16.89211,6.5817 -25.53502,9.2909 -9.16528,2.8657 -18.44876,5.414 -27.38733,8.9489 -3.72847,1.5306 -7.64073,3.3681 -9.98527,6.7991 -1.87598,2.7792 -1.99959,6.2271 -2.33902,9.4494 -1.06439,10.6882 -1.70797,21.4112 -2.40881,32.1278 -1.52055,24.4808 -2.65271,48.9805 -4.0719,73.4575 -0.52535,9.5521 -1.13683,19.0999 -1.69413,28.6497 -0.18436,5.579 -0.0877,11.3883 2.18781,16.5869 1.60062,3.5434 4.75183,6.4409 8.58606,7.328 2.27518,0.5783 4.73624,0.8304 7.02237,0.1892 3.19161,-1.028 5.14502,-4.0659 6.34201,-7.0243 1.88398,-4.4623 2.95881,-9.35 4.17282,-13.9256 0.24358,-0.8697 0.47494,-1.7729 0.70136,-2.526 4.51261,-15.3381 12.56239,-29.3334 21.29214,-42.621 9.81549,-14.8034 20.66012,-28.8915 31.70767,-42.7884 9.75938,-12.2579 19.83427,-24.2592 29.80921,-36.3409 9.94779,-12.1453 19.79283,-24.3883 29.05493,-37.0693 2.7448,-3.7714 5.2394,-7.7569 6.9772,-12.1009 4,-9.5538 5.5532,-19.895 6.6893,-30.1233 1.559,-14.5276 2.0471,-29.1438 2.4647,-43.7411 0.7535,-29.7968 0.7099,-59.60568 0.7498,-89.40978 -0.024,-15.78743 -0.047,-31.58198 -0.724,-47.3574 -0.394,-8.20533 -0.9395,-16.44888 -2.657,-24.49978 -1.3199,-6.03154 -3.6859,-11.92716 -7.5926,-16.76196 -3.1144,-3.91033 -6.6756,-7.45307 -10.4274,-10.7492 -6.8948,-5.89124 -15.24262,-9.96596 -24.01883,-12.17151 -11.06379,-2.87518 -22.54957,-3.52893 -33.93227,-3.76406 -10.46144,-0.14796 -20.92464,0.19234 -31.38523,-0.0848 -4.08642,-0.0821 -8.11347,-0.181 -12.22189,-0.55518 -1.98,-0.0371 -3.21982,-1.91948 -3.94262,-3.5474 -1.86218,-4.07872 -2.34493,-8.60655 -2.77668,-13.02068 -0.82161,-10.50006 -0.24113,-21.04584 0.47288,-31.53436 0.27478,-3.86056 0.64343,-7.67351 1.11186,-11.4442 1.15421,-9.44613 3.09199,-18.98207 7.58142,-27.46168 1.18348,-2.21793 2.53421,-4.34346 3.98792,-6.39353 0.33841,-0.45674 0.86621,-1.20101 1.29947,-1.75144 0.86955,-1.14302 1.77273,-2.25285 2.64887,-3.27787 6.78147,-7.81686 14.61269,-14.91822 23.83847,-19.73086 7.03175,-3.66426 14.99395,-5.93065 22.97333,-5.2656 7.55828,0.56538 14.78023,3.98966 20.30568,9.1248 5.43144,5.02795 8.53909,12.03788 10.3497,19.09964 2.03512,8.01483 2.72922,16.40133 3.03572,24.57672 0.2664,10.18111 0.094,20.3674 0.1425,30.55078 0,1.80339 0,3.60678 0,5.41016 5.7738,5.36079 11.3763,10.94859 17.5369,15.85514 6.0027,4.97126 12.2773,9.59786 18.5165,14.26372 3.1224,2.4114 6.1621,4.93025 9.099,7.56473 5.9318,5.32235 11.6725,11.19005 16.4687,17.66313 2.8825,3.96636 5.6683,8.1618 6.9922,12.93648 0.096,0.68612 0.2131,1.39211 0.2751,1.95955 0.7348,6.26562 1.0347,12.57243 1.4534,18.86467 1.2435,21.01568 2.0674,42.1175 2.8479,63.18531 1.0579,30.08711 1.816,60.18756 2.6994,90.28976 0.5443,19.0519 1.0877,38.1039 1.6324,57.1558 8.9212,5.4151 17.7571,10.9706 26.7464,16.2723 5.2508,2.9868 10.5659,5.9514 16.2654,8.0011 2.0197,0.7674 4.5234,1.1454 6.3695,-0.2449 3.4003,-2.2508 6.4932,-4.9216 9.6923,-7.4417 4.7644,-3.8301 9.3401,-7.8943 14.1782,-11.6326 9.6686,-7.3141 20.0164,-13.689 30.6111,-19.5636 6.11,-3.3013 12.3084,-6.5007 18.8281,-8.9211 1.6013,-0.5164 3.2277,-1.1313 4.9223,-1.1941 0.6937,-0.1057 0.6848,0.7599 0.4043,1.166 -1.341,1.6927 -3.2861,2.7886 -5.1562,3.8125 -4.1851,2.1354 -8.5571,3.8803 -12.9309,5.586 -2.1791,0.8129 -4.3594,1.6514 -6.6435,2.1125 -2.0426,0.6261 -3.8224,1.8703 -5.6488,2.9442 -6.2104,3.984 -12.0688,8.4851 -17.9148,12.9787 -10.2583,7.9788 -20.2566,16.2968 -29.9239,24.9828 -6.6379,6.0545 -12.9862,12.4149 -19.5538,18.5448 -8.1895,7.7429 -16.5053,15.3512 -24.9238,22.844 -18.3868,16.6968 -36.0479,34.1792 -53.3973,51.9475 -13.6505,14.0499 -27.1414,28.2716 -39.90617,43.1352 -4.83513,5.6384 -9.45284,11.4788 -13.49791,17.7146 -7.09091,10.5683 -13.76771,21.4229 -19.84672,32.6056 -3.05336,5.7624 -5.98466,11.5977 -8.58818,17.5782 -1.97005,4.6695 -3.2598,9.6998 -3.09384,14.7986 0.0736,5.6621 0.85334,11.2831 1.44961,16.9062 0.46597,3.7623 0.82039,7.5578 1.67775,11.2547 0.38719,1.4702 1.56556,2.7735 3.12695,2.9531 2.05716,0.3642 4.052,-0.4861 6.04098,-0.8741 10.8456,-2.6979 21.43262,-6.3317 32.27933,-9.0262 0.63739,-0.1541 1.50743,-0.3725 2.13259,-0.5071 0.81184,-0.1837 1.62424,-0.3647 2.44163,-0.5222 -1.13349,12.6154 -3.95815,24.9993 -5.43023,37.5714 -0.23604,2.3734 -0.6768,4.7568 -0.51866,7.1468 0.0976,1.1324 0.55614,2.2695 1.31475,3.1017 1.50274,0.9663 3.42704,1.1783 5.09182,0.5177 4.9294,-1.4776 9.6208,-3.6241 14.3637,-5.5971 8.2604,-3.6036 16.4072,-7.5441 25.0094,-10.2885 0.8648,-0.5458 0.5567,0.4805 0.6079,1.0253 -0.03,10.2252 -1.2453,20.2477 -2.1203,30.4504 -0.574,6.7972 -1.1763,13.5982 -1.4232,20.4166 -0.073,4.058 -0.088,8.1168 -0.1334,12.1752 15.0494,-4.3933 30.085,-8.8347 45.0823,-13.399 1.5803,-0.4524 3.3836,-0.8951 4.8649,-1.1967 0.4723,0.01 1.4039,-0.6019 1.2547,0.2714 0.926,8.0957 1.3802,16.2368 1.8547,24.3692 0.7101,13.7342 1.3884,27.5395 2.0899,41.3008 19.1555,-21.2701 38.378,-42.4762 57.4637,-63.807 19.0871,-21.3721 37.7017,-43.1821 55.2484,-65.8427 19.2781,-24.7913 37.5719,-50.323 56.1733,-75.6209 20.737,-28.386 41.5915,-56.6851 61.9846,-85.3215 7.082,-9.9937 14.132,-20.0219 20.6855,-30.372 3.6685,-5.8591 7.2895,-11.8358 9.6186,-18.3753 1.3982,-4.0891 1.8533,-8.5157 1.0907,-12.783 -1.302,-8.8135 -2.9804,-17.5767 -5.2603,-26.1922 -4.0928,-15.5496 -9.5686,-30.7446 -16.4234,-45.2912 -4.4283,-9.2495 -9.402,-18.306 -15.6627,-26.4551 -2.8392,-3.6467 -6.0354,-7.0491 -9.7759,-9.7848 -5.9401,-4.4943 -12.2981,-8.4001 -18.6933,-12.2051 -5.4803,-3.2214 -11.1145,-6.1663 -16.7335,-9.1342 -4.6196,-2.5185 -9.239,-5.1982 -13.5935,-7.958 -5.1632,-3.3058 -10.2761,-6.7271 -14.9972,-10.648 -2.3638,-1.9608 -4.3871,-4.2766 -6.2524,-6.7061 -6.3071,-7.95387 -12.0723,-16.43173 -17.7708,-24.878 -6.3076,-9.40505 -12.1806,-19.08987 -18.2634,-28.63889 -7.3974,-11.5815 -15.3444,-22.855 -24.4903,-33.13357 -11.8219,-13.42407 -24.9123,-25.64911 -37.9903,-37.82684 -15.4807,-14.34293 -31.2808,-28.43032 -46.8481,-42.61743 -12.5658,-11.56468 -25.0861,-23.20037 -36.9231,-35.51774 -2.5198,-2.691 -5.0992,-5.35073 -7.3031,-8.31239 -1.2528,-1.56924 -1.6161,-3.6002 -2.1597,-5.48351 -2.1255,-8.92878 -3.4211,-18.03147 -4.5086,-27.13754 -0.1352,-1.27265 -0.301,-2.82435 -0.4386,-4.1754 -1.4138,-13.6785 -2.588,-27.41575 -5.2618,-40.92193 -1.4998,-7.15988 -3.5293,-14.3516 -7.4253,-20.61331 -2.7356,-4.48317 -6.2259,-8.46529 -9.9806,-12.11884 -5.5539,-5.34544 -12.2211,-9.57246 -19.54989,-12.01188 -10.05878,-3.40581 -20.81808,-3.90204 -31.3506,-3.5937 -9.34709,0.31111 -18.80567,1.84055 -27.32581,5.84675 -9.80834,4.54894 -18.04844,11.80055 -25.4767,19.53568 -7.02202,7.32759 -13.50889,15.14905 -19.84575,23.07001 -6.27945,7.96589 -12.0748,16.54171 -15.30015,26.23925 -3.71085,10.95702 -4.57725,22.59371 -5.22794,34.06502 -0.68849,13.44913 -0.77552,26.95242 -1.30347,40.36679 -0.22494,5.46535 -0.41487,10.99554 -0.79077,16.35844 -0.47801,-2.78181 -0.77375,-5.49743 -1.01951,-8.23694 -0.12061,-1.45723 -0.25164,-3.15356 -0.34712,-4.7044 -0.60679,-10.24339 -0.70106,-20.68099 -0.50146,-31.00367 0.15976,-8.21336 0.53994,-16.47826 1.26652,-24.71319 0.55431,-5.41067 1.06637,-10.87298 2.56134,-16.12184 1.1105,-3.86346 2.2683,-7.72967 2.96424,-11.69345 0.28795,-1.58809 0.38568,-3.39969 -0.71405,-4.72008 -1.19799,-1.64741 -3.44257,-1.68656 -5.28227,-1.55781 -6.30634,0.46624 -12.5087,1.73433 -18.7844,2.45255 -8.67044,0.9129 -17.30291,1.30685 -26.00384,1.61886 -10.37831,0.33514 -20.9367,0.21482 -31.38906,0.2438 -5.92591,0.004 -11.85183,0.006 -17.77774,0.0104 1.15911,4.74721 2.4843,9.3941 3.5392,14.1554 0.3119,2.27009 0.53726,4.66135 0.68752,6.84389 0.39398,6.00971 0.65342,12.28158 0.81143,18.36559 0.41878,15.43201 0.3812,30.87341 0.16786,46.30841 -0.0551,2.81625 -0.13887,5.59991 -0.29585,8.4478 -0.0374,0.45497 -0.0683,1.12655 -0.125,1.66602 -0.59367,-12.294 -0.132,-24.73237 -0.61616,-37.09904 -0.36693,-10.62086 -1.02554,-21.24367 -2.3905,-31.7865 -0.7091,-5.42895 -1.97642,-10.7696 -3.62961,-15.98566 -3.8172,-12.22127 -9.14841,-23.94251 -15.45917,-35.07112 -4.27848,-7.46818 -9.04974,-14.71465 -14.85529,-21.09302 -7.9845,-8.50122 -18.11784,-14.70614 -28.74432,-19.351 -11.82797,-5.10306 -24.54192,-8.32874 -37.43813,-8.84635 -1.38979,-0.0431 -2.7792,-0.0514 -4.16956,-0.0368 z m 262.26758,377.998 c -7.25018,0.146 -14.6374,0.7568 -21.46791,3.36 -5.71658,2.3318 -10.52827,6.383 -14.86877,10.6882 -8.21751,8.3101 -14.74879,18.1597 -20.04977,28.5403 -4.45657,8.8656 -7.72585,18.2726 -10.5716,27.7615 -7.36556,25.0062 -10.32763,51.042 -12.23266,76.961 -2.11204,29.5261 -2.50069,59.1354 -3.21377,88.7185 -0.26224,11.5631 -0.52197,23.1263 -0.78692,34.6893 -16.01888,0 -32.03776,0 -48.05664,0 -0.65967,-27.3074 -1.24267,-54.617 -1.99719,-81.922 -0.69186,-21.996 -1.48505,-44.024 -4.00651,-65.8999 -1.55585,-13.2759 -3.95534,-26.4477 -7.09799,-39.4389 -3.30606,-13.9786 -7.54088,-27.8267 -13.9804,-40.7077 -5.4325,-10.8829 -12.5006,-21.16 -21.90154,-28.9933 -7.11638,-5.9277 -15.60231,-10.2731 -24.68817,-12.1826 -7.74511,-1.6952 -15.82115,-1.7231 -23.60237,-0.2381 -10.97138,1.948 -21.65142,5.3821 -31.8735,9.7914 -3.48985,1.5442 -6.99382,3.1319 -10.18077,5.2469 -2.84343,1.9534 -5.20819,5.0429 -5.24423,8.6184 -0.12332,4.0931 2.0424,7.7864 4.25958,11.064 3.40653,4.9079 7.33108,9.438 11.42754,13.7777 6.97359,7.2475 15.19034,13.2704 24.14696,17.838 13.45693,6.961 28.0883,11.1294 42.45868,15.7237 5.12866,1.5672 10.25494,3.2085 15.52493,4.2376 2.36771,0.3992 5.03435,0.5895 7.15927,-0.7316 1.92898,-1.2391 2.89449,-3.5677 2.83049,-5.8108 0.22982,-6.5382 -2.00579,-12.8729 -4.79899,-18.6888 -3.91607,-8.0026 -9.27869,-15.3045 -15.74888,-21.4291 -4.39217,-4.1447 -9.51244,-7.6537 -15.3089,-9.4904 -6.16035,-2.1448 -12.73236,-3.6842 -19.28884,-2.9528 -3.4789,0.4045 -7.13139,1.8723 -9.01476,4.9875 -1.8024,2.9889 -1.31864,6.8278 0.30449,9.7828 2.64319,5.072 7.68709,8.4249 12.9451,10.3395 6.92241,2.5441 14.52859,2.8553 21.74189,1.5062 1.02212,-0.1376 2.0402,-0.3099 3.06692,-0.4101 -0.0967,0.6392 -0.21691,1.2965 -0.39649,1.9062 -1.64268,0.5634 -3.42674,0.5116 -5.14294,0.6472 -3.59736,0.1264 -7.20091,0.1198 -10.79846,0.01 -0.55387,-0.031 -1.44757,-0.075 -2.12864,-0.1272 -5.42747,-0.3693 -11.04487,-1.5947 -15.41899,-5.0078 -5.10714,-3.9551 -8.45286,-9.6234 -11.66517,-15.1139 -1.18059,-2.152 -2.47962,-4.3065 -3.07236,-6.7082 0.66593,-0.6416 1.75794,-0.8569 2.66964,-1.1113 5.16141,-1.2285 10.46837,-1.6437 15.7288,-2.2344 6.96388,-0.6636 14.33749,-0.6685 20.96484,1.3223 0.9233,0.2816 1.84041,0.5951 2.64327,0.9036 7.08899,2.7422 12.92813,7.8438 18.13095,13.2559 4.55657,4.5922 8.89775,9.6296 11.3211,15.7088 2.38388,5.7582 3.55577,11.9211 4.53945,18.0477 0.0944,0.631 0.22891,1.5838 0.3387,2.3383 1.72311,12.3926 2.57545,24.8464 3.49953,37.3348 1.31593,18.967 2.42123,38.0169 3.59419,57.0198 0.83323,13.9431 1.69784,27.8855 2.3917,41.8359 0.14111,8.1009 -2.26622,16.0547 -1.71293,24.1662 0.3976,4.6527 2.45816,8.9865 2.46565,13.6846 -0.23713,2.9861 -0.48821,6.1562 -2.14129,8.7474 -1.47266,1.9148 -3.36527,3.4764 -5.28473,4.9269 -2.10966,1.4934 -4.38095,2.8554 -6.8734,3.5872 -1.91222,0.3723 -3.93987,0.6988 -5.47859,1.9995 -2.64335,1.3439 -5.90034,1.5243 -8.13672,3.625 -1.0789,1.0087 -1.20463,2.5448 -1.15239,3.9328 0.0973,6.3395 2.58669,12.3392 3.01495,18.6381 -0.0236,5.5789 0.68826,11.1201 1.3975,16.643 0.51321,4.0714 0.98427,8.1009 1.01986,12.2481 0.0119,0.7711 0.0243,1.5423 0.0365,2.3134 13.5827,0.8487 27.16537,1.698 40.74805,2.5469 0.4967,13.1999 0.99377,26.3997 1.49024,39.5996 19.35677,0 38.71354,0 58.07031,0 0.49514,-13.1634 0.99093,-26.3268 1.48633,-39.4902 14.86329,-0.4905 29.72647,-0.9846 44.58984,-1.4727 0.0323,-8.936 -0.17361,-17.8837 0.45762,-26.8053 0.5811,-10.3011 1.84274,-20.5095 2.87529,-30.7932 0.2932,-0.771 -0.11251,-1.0968 -0.8527,-1.2093 -5.49705,-1.9202 -11.01114,-3.7299 -16.47547,-5.7446 -0.75484,-0.2904 -1.31431,-0.5081 -2.08287,-0.8538 -2.47201,-1.0686 -4.83256,-2.7454 -5.95703,-5.2754 -1.67469,-3.5814 -1.95964,-7.6007 -2.27148,-11.4863 -0.39123,-6.0329 -0.26001,-12.1157 -0.10115,-18.2153 0.34996,-12.4939 1.06177,-25.1499 1.69765,-37.7024 1.55499,-29.5983 2.97738,-59.1862 4.80285,-88.7629 0.71403,-10.2845 1.28011,-20.6117 2.83149,-30.8322 0.27112,-1.7238 0.62807,-3.4339 1.06994,-5.122 0.10794,-0.3684 0.30646,-1.0921 0.47068,-1.5931 1.07532,-3.4395 2.85417,-6.5967 4.52481,-9.7715 4.39299,-8.094 10.23302,-15.4231 17.23534,-21.412 4.62008,-3.8529 9.76439,-7.2736 15.55479,-9.065 2.79084,-0.8964 5.7256,-1.1366 8.61279,-1.1243 7.39687,-0.023 14.78603,0.669 22.09709,1.761 2.55943,0.4257 5.1336,0.837 7.62559,1.574 -0.24251,0.6245 -0.51018,1.2392 -0.80273,1.8418 -9.12868,-0.4301 -18.25078,-1.0277 -27.38477,-1.3261 -6.13489,-0.079 -12.5124,0.6813 -17.90033,3.8244 -6.26855,3.565 -10.92014,9.2374 -15.37838,14.7727 -2.89579,3.5793 -5.45152,7.4402 -7.4439,11.5962 -2.74524,5.5743 -4.98182,11.4774 -5.91215,17.6445 -0.38128,2.7457 -0.37437,5.8289 1.30664,8.17 1.02868,1.426 2.85334,2.1262 4.57838,1.8546 3.64162,-0.3214 7.15571,-1.4158 10.68752,-2.3009 12.3562,-3.3406 24.55141,-7.2592 36.6367,-11.4691 4.67113,-1.6707 9.35298,-3.3585 13.82869,-5.5077 6.16466,-3.1463 11.56963,-7.5587 16.71065,-12.1441 6.98501,-6.3452 13.46911,-13.2966 18.91947,-21.0136 2.33639,-3.3907 4.62999,-6.9844 5.48012,-11.0708 0.49973,-2.5803 -0.34301,-5.6055 -2.71729,-6.987 -3.2036,-2.117 -6.76512,-3.6055 -10.22426,-5.2443 -5.9795,-2.7562 -12.06589,-5.3656 -18.4719,-6.9635 -9.5897,-2.4989 -19.51175,-3.6493 -29.41363,-3.7017 -0.41237,10e-4 -0.82474,0 -1.23711,0 z m 26.67383,32.3594 c -2.77759,5.1142 -5.95777,10.0279 -9.63783,14.5407 -0.4258,0.5063 -0.71153,0.8173 -1.1831,1.3345 -2.35118,2.5552 -5.23131,4.7539 -8.63719,5.6476 -4.00673,1.132 -8.2134,1.3541 -12.30008,1.6773 -4.78008,0.2838 -9.56663,0.6223 -14.35726,0.5637 -0.49687,-0.086 -1.40682,0.1395 -1.21966,-0.629 0.007,-0.8528 -0.0463,-1.7086 0.007,-2.5606 5.09416,-0.1357 10.15353,0.6842 15.23879,0.8558 3.9281,0.2376 8.06573,-0.035 11.56014,-2.0179 4.33136,-2.5831 7.56472,-6.5478 11.12236,-10.0424 3.228,-3.3036 6.45665,-6.6066 9.68418,-9.9107 -0.0924,0.1803 -0.1849,0.3607 -0.27735,0.541 z" />
      <path
         id="path857"
         style="fill:#008acf;stroke-width:2.53968"
         d="M 10.699219,12.699219 V 1175.334 c 40.045692,-0.014 86.624613,11.721 125.638721,6.5062 18.57116,-0.068 32.33329,-3.5255 50.89698,-4.095 5.46379,-0.2298 11.79499,-1.2634 17.20952,-2.087 1.63239,-0.3239 2.10613,-2.7787 3.0123,-4.3642 0.368,-0.8279 0.30916,-1.7799 0.70348,-2.6134 2.10588,-5.6716 6.50706,-10.0768 9.1025,-15.5359 8.57316,-17.6617 15.98067,-36.1019 25.22271,-53.4021 9.88085,-18.3686 19.9097,-36.6448 30.60854,-54.5612 25.96893,-43.1362 53.28127,-85.4985 82.66939,-126.41558 19.52501,-27.16124 40.01488,-53.75582 61.79887,-79.19536 20.3002,-23.68649 41.82697,-46.53101 65.03834,-67.46424 15.10649,-13.59381 30.91257,-26.35833 47.75188,-37.73236 9.99715,-6.75608 20.54676,-13.08222 31.37987,-18.60402 5.07425,-2.68528 10.26015,-5.20809 15.02876,-8.42329 2.83322,-1.90291 5.41277,-4.45985 6.46507,-7.787 1.2166,-3.63967 1.36255,-7.52596 2.39744,-11.21387 0.96523,-3.86602 2.36861,-7.766 3.97016,-11.31298 6.08672,-13.4059 15.87824,-24.94486 27.46742,-33.93731 2.91276,-2.24686 5.94545,-4.33799 9.08336,-6.258 0.34785,-0.20937 1.03339,-0.61133 1.51049,-0.89442 4.73098,-2.73177 9.72505,-5.00419 14.88795,-6.78917 0.46705,-0.15591 1.26323,-0.42713 1.86281,-0.61812 19.25323,-6.18736 40.49775,-5.44599 59.4725,1.40084 8.5719,3.06826 16.70086,7.36054 24.08852,12.68017 0.51845,0.3817 1.30107,0.94484 1.91085,1.41505 4.55594,3.49783 8.82616,7.34796 13.24122,11.0188 0.57569,0.42197 1.0846,1.0466 1.70163,1.34696 15.59301,-0.98069 31.18079,-2.04784 46.77723,-2.97142 5.65223,-0.31115 11.30267,-0.54382 16.91722,-0.6867 9.77047,-0.25742 19.54821,-0.22439 29.31708,0.0863 8.28736,0.26941 16.7365,0.7574 25.06945,1.38951 12.58948,0.94766 25.17897,1.89515 37.76844,2.84291 3.80968,-3.40117 7.53716,-6.89657 11.40441,-10.23193 5.43413,-4.4061 11.31315,-8.25845 17.4406,-11.62839 5.13715,-2.72364 10.53829,-5.16165 16.33254,-6.03848 2.01224,-0.33474 4.04712,-0.54183 6.00409,-0.68713 1.61522,-0.10973 3.28724,-0.19391 4.80544,-0.2485 6.06654,-0.20583 12.30252,-0.18458 18.45508,-0.15555 4.12489,0.0306 8.25189,0.0865 12.37034,0.33373 0.64954,0.0503 1.35036,0.088 2.0413,0.15334 4.78467,0.36121 9.54923,1.38679 13.91188,3.42444 17.4527,7.93225 32.39,21.13565 42.7304,37.2484 4.7411,7.43472 8.5025,15.53202 10.7754,24.06445 0.2923,1.08781 0.611,2.42535 0.9327,3.60821 0.9042,3.5564 2.2235,7.15374 4.8447,9.82148 3.3146,3.37943 7.5178,5.67597 11.5767,8.02887 6.9187,3.90664 13.9536,7.60279 20.7878,11.60567 17.0707,9.88437 33.6228,20.7427 49.5261,32.3635 33.6931,24.62905 64.7939,52.87209 93.2148,83.45984 22.8095,24.54136 43.9456,50.61558 63.5625,77.77063 22.0511,30.54649 42.257,62.57367 60.7171,95.46942 10.5213,18.7288 20.7117,37.6616 29.8122,57.1282 3.5123,7.4913 6.9566,15.1849 10.2265,22.7901 11.339,26.3937 22.1357,59.0477 32.5098,85.8305 l 198.3637,-5.2968 -0.5394,-1165.173371 H 10.699219 v 2 z m 893.894531,75.722656 15.69531,15.695315 c -22.42102,22.46635 -44.84038,44.93435 -67.26172,67.40039 9.92502,9.85942 19.79468,19.77488 29.76368,29.58984 5.95963,5.74632 11.92521,11.50655 18.31805,16.77429 1.25368,0.91578 2.43486,2.10745 3.97957,2.48764 1.61413,0.22622 2.98559,-0.93427 4.24781,-1.77557 6.4766,-4.85048 11.78861,-11.00725 17.52443,-16.66634 15.12257,-15.26256 30.4944,-30.27443 45.8149,-45.3376 10.08082,9.99275 20.1622,19.98494 30.24412,29.97657 -22.4153,22.46293 -44.83038,44.9261 -67.24802,67.38671 17.81578,17.88474 35.63341,35.76763 53.44921,53.65235 22.40461,-22.36165 44.81181,-40.59449 67.21871,-62.95386 6.9362,6.40941 13.8874,8.67519 20.8607,15.0432 2.4725,2.39244 5.156,4.7329 6.7484,7.83897 1.0125,1.89069 0.694,4.1804 -0.2697,6.01986 -1.9964,3.8854 -5.0659,7.06982 -7.9849,10.2691 -6.6475,7.03524 -13.6154,13.75814 -20.4329,20.62695 -11.5349,11.55925 -23.0711,23.11718 -34.6052,34.67726 12.1559,12.14948 24.3706,24.24023 36.4844,36.43164 7.0027,7.16318 14.02,14.32727 20.565,21.91597 0.6963,0.8267 1.392,1.65677 2.0171,2.53911 -1.566,2.49092 -3.6289,4.7268 -5.5083,6.87833 -4.0173,4.45846 -8.3271,8.87153 -12.6939,13.08104 -2.3433,2.26512 -4.5873,4.35043 -7.0687,6.48516 -1.3025,1.09779 -2.6087,2.2073 -4.0573,3.11016 -3.6188,-2.6886 -6.892,-5.80784 -10.2276,-8.83278 -12.262,-11.31529 -23.9958,-23.30447 -35.8588,-35.08724 -5.06467,-5.05229 -10.1316,-10.10236 -15.19482,-15.15615 -16.96702,17.03363 -33.93177,34.06954 -50.89453,51.10742 20.2515,20.30254 40.4998,40.60827 60.75195,60.91016 -9.99235,10.08381 -19.98519,20.16714 -29.97851,30.25 -11.37818,-11.31944 -22.694,-22.70178 -34.11827,-33.97472 -7.11512,-6.92185 -14.23642,-13.85115 -21.75524,-20.33705 -1.42041,-1.13074 -2.75222,-2.46822 -4.44057,-3.18601 -1.42292,-0.50456 -2.69771,0.63536 -3.78553,1.40012 -5.14171,4.06663 -9.88425,8.60778 -14.65407,13.09622 -9.2311,8.78031 -18.14252,17.89041 -27.19884,26.85036 -3.33618,3.32311 -6.67193,6.64664 -10.00842,9.96943 20.33357,20.37998 40.6644,40.76268 60.99805,61.14258 -10.08336,9.99347 -20.1667,19.98695 -30.25,29.98047 -20.30783,-20.25401 -40.61471,-40.50898 -60.92188,-60.76367 -20.03935,19.98669 -40.07815,39.97393 -60.11719,59.96094 -6.96921,-7.09137 -14.06661,-14.05855 -20.90795,-21.2743 -2.79452,-3.01534 -5.6565,-5.98806 -8.15845,-9.255 3.23891,-4.38832 7.47337,-7.8884 11.21281,-11.82545 15.65947,-16.07014 30.62917,-32.79105 45.81878,-49.30194 0.48459,-0.4471 -0.64042,-0.85989 -0.84853,-1.29222 -17.33061,-17.39458 -34.66075,-34.78963 -51.9897,-52.18586 -19.91237,19.86433 -39.82848,39.72491 -59.74219,59.58789 -10.08367,-9.99184 -20.16635,-19.98468 -30.24805,-29.97851 19.88479,-19.93683 39.7698,-39.87344 59.6543,-59.81055 -17.42145,-17.42295 -34.84319,-34.84561 -52.26563,-52.26758 -19.48596,19.43005 -38.97191,38.86011 -58.45703,58.29102 -10.45847,-10.46015 -20.91746,-20.91978 -31.37695,-31.37891 19.42128,-19.47781 38.84319,-38.95498 58.26563,-58.43164 -12.22161,-12.27027 -24.50722,-24.52812 -36.6877,-36.80661 -7.87697,-8.02259 -15.72732,-16.08413 -23.14302,-24.53912 -1.0027,-1.18602 -2.02843,-2.35759 -2.931,-3.62302 2.21156,-3.28916 4.9508,-6.18348 7.61233,-9.108 5.78151,-6.20801 11.95201,-12.03621 17.94307,-18.03865 0.91773,-0.90815 1.83546,-1.8163 2.75319,-2.72444 21.59235,21.54437 43.18396,43.08948 64.77734,64.63281 18.27214,-18.27214 36.54428,-36.54427 54.81641,-54.81641 -21.54333,-21.59338 -43.08844,-43.185 -64.63281,-64.77734 6.00446,-6.01944 11.9088,-12.13974 17.99352,-18.07827 3.67954,-3.47798 7.35062,-7.0055 11.46715,-9.96947 0.41099,-0.52262 0.80263,0.0602 1.17917,0.30721 5.29007,4.27894 10.20695,8.99498 15.16142,13.65198 12.21576,11.59772 23.98777,23.61499 35.9447,35.47952 4.36056,4.35097 8.72276,8.70027 13.08216,13.05239 17.03984,-16.96471 34.07769,-33.93142 51.11328,-50.90039 -21.57409,-21.61992 -43.14613,-43.24188 -64.7207,-64.86133 10.47056,-10.470194 20.94061,-20.940897 31.41016,-31.412109 21.56771,21.567708 43.13541,43.135419 64.70312,64.703129 22.45393,-22.4061 44.90581,-44.814247 67.35938,-67.220708 z M 820.20898,204.30078 c -44.92813,44.90325 -89.85671,89.80604 -134.7832,134.71094 45.37539,45.3987 90.74861,90.79957 136.125,136.19726 45.39882,-45.37591 90.8004,-90.74908 136.19922,-136.125 -45.37652,-45.39821 -90.75043,-90.79904 -136.12695,-136.19726 -0.47136,0.47135 -0.94271,0.94271 -1.41407,1.41406 z" />
      <path
         id="path855"
         style="fill:#43a648;stroke-width:2.53968"
         d="m 8.1582031,1186.0312 v 491.795 c 12.6644579,84.1109 -17.6345177,254.2758 7.0237859,351.1645 22.050279,33.7062 17.269053,36.4739 46.332933,66.6114 5.07128,5.2068 80.890588,16.0017 86.082048,21.0893 0.4734,0.2444 0.89373,0.9898 1.4068,0.882 2.03229,-0.8651 183.47784,2.7315 185.25036,1.4524 14.4273,-11.2149 43.24817,6.4958 57.4954,-4.9436 38.87138,2.0114 38.74937,2.451 84.87231,4.4096 1.70047,-1.3766 3.40094,-2.7531 5.10141,-4.1297 21.03746,3.4705 98.7373,1.3312 124.49277,-3.3246 66.71752,33.5968 68.96117,-35.8689 151.62719,41.8336 14.09491,14.6273 27.3984,24.2073 41.48254,38.842 4.95225,5.076 17.71252,46.0092 22.83181,50.918 -2.84387,-10.0986 0.77141,6.8881 1.47482,7.2714 2.65888,-2.3025 -3.96346,-4.791 -1.47482,-7.2714 28.39396,-29.3488 13.07178,-41.9856 41.32932,-71.4645 62.76445,-65.4979 60.22368,-32.9084 98.28682,-55.0339 20.22294,-3.8299 43.8238,0.094 206.731,-1.1059 22.784,-0.9022 58.6277,3.9469 64.223,-1.0001 0.8847,-0.7185 1.7414,-1.4944 2.748,-2.041 3.457,2.053 6.6137,4.567 9.8404,6.9562 13.8864,10.5883 30.8207,-14.8374 44.3,-3.7386 16.7924,13.9184 29.591,-11.428 46.3596,2.5187 8.5536,7.1125 3.6211,-9.655 12.2262,-2.6051 1.5824,1.2245 69.767,4.2648 52.1038,-1.7881 3.7238,-2.0808 138.937,3.098 142.1671,0.3452 9.8888,-8.7761 50.9428,-21.196 60.404,-30.4275 23.5094,-23.1135 32.9404,-145.7132 32.8501,-186.1039 -0.3539,-72.4833 -3.5506,-51.0847 -0.6597,-126.1588 0.7515,-25.2934 -2.8401,-30.1309 0.7315,-52.6022 1.2064,-12.1888 0.9348,-25.8547 -0.7831,-40.4812 v -493.8692 c -68.3131,0 -136.6263,1e-4 -204.9394,0 -113.2026,122.0438 -226.4555,244.0408 -339.5502,366.1846 -22.195,23.942 -44.2363,48.0314 -66.896,71.5369 -2.8194,2.8896 -5.6183,5.8027 -8.5558,8.5735 -5.321,-4.06 -10.3951,-8.3154 -15.57522,-12.5663 -24.83926,-20.5964 -49.41436,-41.5095 -73.95851,-62.4563 -27.09085,-23.1587 -54.2132,-46.2914 -81.59729,-69.0995 -6.44224,-5.3221 -12.83518,-10.7085 -19.4539,-15.8109 -0.96989,-0.7469 -2.10631,-1.6313 -3.41116,-1.2428 -2.09911,0.5844 -3.80082,2.0537 -5.54871,3.2905 -7.29322,5.614 -14.18905,11.7201 -21.15901,17.7253 -24.09577,21.0305 -47.91691,42.369 -71.78837,63.6522 -16.35514,14.6028 -32.67036,29.256 -49.06055,43.8144 -10.92407,9.604 -21.90427,19.2433 -33.21514,28.4286 -1.7211,1.3668 -3.5423,2.8307 -5.25361,4.0167 -6.87132,-6.7117 -13.50509,-13.6625 -20.19876,-20.5509 -35.42073,-36.6437 -70.42205,-73.6827 -105.55305,-110.6134 -61.42322,-64.6204 -122.91276,-129.1776 -184.37678,-193.7591 -28.2334,-29.7054 -56.49364,-59.3851 -84.63689,-89.1751 -9.9657,-10.5777 -19.93534,-21.1516 -29.89858,-31.7316 -67.41015,-0.072 -134.820309,-0.1475 -202.2304669,-0.2187 z M 848.79297,1629.1074 c 0.0327,18.3455 0.13315,36.6962 0.79496,55.0312 0.1952,4.0084 0.26203,8.0389 0.8359,12.0157 0.15749,0.9484 0.58667,2.0246 1.61462,2.2643 0.56471,0.4019 1.24808,-0.013 1.80514,-0.2439 2.16264,-1.3965 3.99402,-3.2427 5.9308,-4.9269 14.15796,-13.0081 27.61654,-26.75 41.25478,-40.2966 4.02999,-4.0195 8.05998,-8.0391 12.08997,-12.0586 9.93083,10.019 19.86117,20.0386 29.79102,30.0586 -31.37135,31.2094 -62.74291,62.4185 -94.11719,93.625 0.017,18.7779 -0.0355,37.5561 0.0292,56.3339 0.10858,11.2322 0.26429,22.4731 1.02402,33.6829 0.23609,2.4714 0.48081,8.4173 1.21921,10.8038 0.30335,0.9637 1.02981,-1.7624 2.02068,-1.7536 1.5578,-0.3469 2.59947,-1.6807 3.77914,-2.6537 7.481,-6.9389 14.66846,-14.1861 21.90054,-21.3815 17.88548,-17.8777 35.52326,-35.9951 53.16997,-54.1096 15.9459,-16.2764 31.94871,-32.5015 48.3216,-48.35 3.23453,-3.1015 6.44284,-6.1825 9.82399,-9.1714 0.52231,-0.4472 1.03752,-0.9041 1.58475,-1.3208 3.21487,1.9987 6.00245,4.5983 8.82743,7.099 6.069,5.5423 11.6938,11.5429 17.5127,17.3417 0.97,0.9801 1.9399,1.9601 2.9098,2.9402 -44.45942,45.7247 -88.88831,91.4795 -133.51512,137.0411 -19.34745,19.7784 -38.7963,39.4556 -58.20552,59.1738 -65.78385,-65.8165 -131.5677,-131.6329 -197.35156,-197.4493 5.6141,-5.8408 11.13489,-11.7722 16.81936,-17.5448 2.87539,-2.8692 5.82498,-5.669 8.93064,-8.2891 0.4976,-0.4033 1.23902,-1.0215 1.8488,-1.4826 0.64019,-0.4871 1.29262,-0.9613 1.98323,-1.3749 3.70655,2.9911 7.12454,6.3209 10.60631,9.5665 14.96123,14.2025 29.58048,28.7602 44.16469,43.3481 15.35084,15.394 30.54798,30.9369 45.98627,46.2429 11.58328,11.4814 23.16624,22.9726 35.08448,34.1106 2.40784,2.1767 4.72478,4.4819 7.36395,6.3809 0.6462,0.4187 1.43699,0.7012 2.17589,0.3614 0.73778,-0.035 1.03284,-0.8515 1.30568,-1.4289 0.57581,-2.3777 0.55751,-4.8542 0.74231,-7.2837 0.64475,-14.001 0.72501,-28.0214 0.76283,-42.0353 0.002,-16.467 3.2e-4,-32.9341 9.5e-4,-49.4011 -31.46933,-30.8413 -62.93905,-61.6821 -94.4082,-92.5235 5.95607,-6.0124 11.81618,-12.1208 17.84689,-18.0586 2.93896,-2.8401 5.86396,-5.5915 9.0455,-8.1969 0.73409,-0.5911 1.47639,-1.1746 2.26776,-1.6878 1.59371,1.2882 2.99847,2.5475 4.55558,3.9083 15.87601,14.1472 31.2329,28.8611 46.76373,43.3829 3.7524,3.5239 7.50542,7.0471 11.25687,10.572 0.46223,-45.4199 0.92172,-90.8398 1.38281,-136.2597 13.48765,-0.4447 26.97528,-0.89 40.46289,-1.336 v 65.334 z" />
      <path
         id="path847"
         style="fill:#2a2828;stroke-width:2.53968"
         transform="translate(0.44181844,-1.8739631)"
         d="m 889.94727,75.525391 c -1.56356,0 -17.66833,14.856464 -35.78711,33.015629 l -32.94336,33.01757 -32.42188,-32.35156 -32.42187,-32.349608 -15.83789,15.835937 -15.83594,15.835941 32.35742,32.42773 32.35547,32.42774 -25.4082,25.31445 -25.40821,25.3125 -32.43359,-32.36133 -32.43359,-32.36133 -15.1211,15.28125 -15.12109,15.28125 31.05078,31.12696 c 17.0787,17.11983 31.05273,32.23427 31.05273,33.58593 0,3.27182 -48.71253,52.07227 -51.97851,52.07227 -1.40284,0 -16.55792,-13.97404 -33.67774,-31.05274 l -31.12695,-31.05273 -15.28125,15.12109 -15.28125,15.12305 32.36328,32.43555 32.36524,32.43554 -29.13477,29.2168 -29.13281,29.2168 15.83008,15.83203 15.83203,15.83203 29.21093,-29.12695 29.20899,-29.12696 24.13086,24.0293 c 13.27226,13.21707 24.13281,25.1795 24.13281,26.58203 0,1.40257 -12.84317,15.42937 -28.53906,31.16992 l -28.53711,28.61914 15.83203,15.83008 15.83008,15.83203 28.61914,-28.53711 c 15.74054,-15.69589 29.7668,-28.53906 31.16797,-28.53906 1.40117,0 13.92162,11.41806 27.82422,25.37305 l 25.27734,25.37305 -11.85351,12.08789 c -6.52013,6.64818 -20.10719,20.529 -30.19336,30.8457 l -18.33985,18.75586 15.8418,15.31055 15.83984,15.31054 30.29688,-30.21875 30.29883,-30.21875 30.45507,30.37696 30.45703,30.37695 15.2793,-15.11914 15.27735,-15.11914 -29.22657,-29.30469 c -16.07489,-16.1169 -29.22656,-30.40695 -29.22656,-31.75781 0,-2.57257 48.3615,-52.07227 50.875,-52.07227 0.79553,0 14.98253,13.25159 31.52734,29.44727 l 30.08204,29.44726 15.4707,-15.47265 15.4707,-15.47071 -30.39844,-30.47851 -30.40039,-30.48047 25.31055,-25.40625 25.31055,-25.40625 30.57421,30.5 30.5742,30.5 15.8028,-15.94531 15.8027,-15.94532 -30.4648,-30.38476 -30.4649,-30.38477 33.0195,-33.08789 c 18.1603,-18.19777 33.0196,-34.17755 33.0196,-35.51172 0,-3.28026 -25.8244,-29.25195 -29.086,-29.25195 -1.4258,0 -17.4823,14.85963 -35.6816,33.02149 l -33.08985,33.02148 -26.58789,-26.67773 -26.58594,-26.67774 34.21484,-34.28515 34.21484,-34.28516 -15.83788,-15.83789 -15.8379,-15.83789 -34.2832,34.21289 -34.28515,34.21484 -25.41016,-25.31445 -25.41016,-25.31445 33.02344,-33.0918 c 18.16246,-18.19994 33.02344,-34.00078 33.02344,-35.11328 0,-3.21809 -25.83211,-29.654299 -28.97656,-29.654299 z m -0.40625,12.697265 c 3.35578,0 16.68359,13.032984 16.68359,16.314454 0,1.46597 -14.85773,17.55465 -33.01758,35.75195 l -33.01758,33.08594 31.75,31.67383 31.74805,31.67187 34.28125,-34.20898 34.28125,-34.21094 9.48828,9.48828 9.48828,9.48828 -34.21094,34.28125 -34.21093,34.28321 32.94531,33.01758 32.94336,33.01757 33.08594,-33.01757 c 18.1969,-18.15956 34.284,-33.01758 35.75,-33.01758 3.2435,0 16.3145,13.3104 16.3145,16.61328 0,1.30167 -14.8593,17.25535 -33.0196,35.45312 l -33.0176,33.08789 30.4454,30.36524 30.4453,30.36719 -9.4121,9.63867 -9.4102,9.63867 -30.5938,-30.51953 -30.59175,-30.51953 -31.66992,31.74609 -31.66992,31.74609 30.34961,30.42774 30.34766,30.42773 -8.58594,8.85938 -8.58399,8.85742 -31.49804,-29.55078 -31.49805,-29.55274 -31.57422,31.49805 c -17.36569,17.32399 -31.57422,32.64226 -31.57422,34.03906 0,1.39682 13.16489,15.73807 29.25586,31.8711 l 29.25781,29.33398 -8.98828,8.71094 -8.98828,8.71289 -30.42773,-30.34766 -30.42578,-30.34765 -29.88086,29.80078 C 776.10148,572.59008 762.03972,586 761.28711,586 c -0.75263,0 -5.26645,-4.02148 -10.03125,-8.9375 l -8.66211,-8.9375 29.98242,-30.0625 29.98242,-30.06055 -28.98632,-28.9375 c -15.94246,-15.91537 -30.97237,-30.56312 -33.40039,-32.55078 -3.9984,-3.27304 -7.15553,-0.88115 -33.4668,25.35547 l -29.05078,28.96875 -9.4961,-9.49609 -9.49609,-9.4961 29.48828,-29.49023 29.48828,-29.48828 -31.88086,-31.58203 -31.88281,-31.58399 -28.74609,28.66406 -28.74414,28.66211 -9.48243,-9.48046 -9.48242,-9.48243 28.77539,-28.85937 28.77735,-28.85742 -32.36328,-32.31641 -32.36329,-32.31641 9.26172,-9.26172 9.26172,-9.25976 31.14453,31.07031 c 17.13013,17.08899 32.28988,31.07031 33.6875,31.07031 1.39761,0 16.79255,-14.28578 34.21094,-31.74609 L 719.48242,255.8418 688.4082,224.69531 c -17.09014,-17.13128 -31.07226,-32.22109 -31.07226,-33.53125 0,-1.31015 3.67606,-6.17412 8.16797,-10.80859 l 8.16601,-8.42578 32.4668,32.39453 32.4668,32.39648 31.74804,-31.67187 31.75,-31.67383 -32.34375,-32.41406 -32.34375,-32.41406 9.48828,-9.488286 9.48633,-9.486328 32.41406,32.341794 32.41407,32.3418 32.94336,-33.01563 c 18.11878,-18.15909 34.04031,-33.017574 35.38086,-33.017574 z m -68.36329,104.126954 -74.30273,74.26953 -74.30078,74.26953 74.26953,74.30274 74.26953,74.30273 74.30274,-74.27148 74.30078,-74.26954 -74.26953,-74.30078 z m 0.002,12.69922 67.91992,67.95312 67.91992,67.95508 -67.95508,67.91797 -67.95312,67.91992 -67.91992,-67.95508 -67.91993,-67.95312 67.95508,-67.91992 z M 671.50781,625.29492 c -10.88065,0.0178 -21.84623,2.07198 -32.57812,6.21875 -27.29298,10.54596 -51.34274,38.95499 -56.55664,66.80664 -1.57008,8.387 -3.31736,10.16839 -15.37696,15.68946 C 508.03066,741.00599 431.57501,814.44444 359.98633,912.85156 310.57661,980.7711 258.12758,1066.7614 225.97656,1132.5605 l -21.97461,44.9707 -97.14257,0.1075 -96.601979,-0.4307 c -0.0075,0.1211 -5.9771228,4.3603 -0.4836373,4.4814 3.2907233,0.072 -0.3317706,2.9449 -0.6923736,6.2168 H 109.66602 209.61523 l 13.65039,14.6036 c 14.28586,15.283 205.99674,216.7736 335.84766,352.9804 l 75.74805,79.4551 8.33203,-7.0117 c 4.58347,-3.8564 44.60692,-39.5831 88.93945,-79.3926 44.33254,-39.8096 82.49627,-73.7538 84.8086,-75.4316 3.60475,-2.6155 16.69703,7.6493 91.82226,71.9883 48.19047,41.2715 91.77283,78.3494 96.84763,82.3945 l 9.2266,7.3535 61.8828,-66.5898 c 34.0364,-36.6248 84.6843,-91.1864 112.5488,-121.2481 27.8646,-30.0616 93.3758,-100.6567 145.5821,-156.8789 l 94.9218,-102.2227 h 101.4004 l 98.843,-0.5158 c -0.1657,-0.8521 0.052,-3.4413 -0.1484,-4.4985 -0.4803,-2.5328 3.0469,-2.5894 2.7058,-5.1458 h -99.1133 -99.1093 l -2.5645,-6.9824 c -50.4755,-137.491 -122.8436,-255.53703 -210.6445,-343.60354 -47.6103,-47.75436 -92.5894,-81.53275 -149.2324,-112.06641 -10.4442,-5.63002 -12.8114,-8.24013 -13.9727,-15.39648 -2.4635,-15.18108 -12.704,-33.33265 -26.4023,-46.80274 -33.82217,-33.25844 -88.73404,-34.13737 -123.71098,-1.98047 l -9.82813,9.03516 -17.32421,-2.68945 c -19.45415,-3.01841 -97.18841,-3.26007 -120.38086,-0.375 l -15.14063,1.88281 -14.49414,-11.67969 c -17.91613,-14.437 -38.37627,-21.82701 -59.14844,-21.79297 z m 0.91602,9.09961 c 7.83391,0.014 15.73592,1.17722 23.50586,3.53516 16.06428,4.87502 21.18721,7.83914 34.06445,19.70898 l 10.9707,10.11328 37.52735,-3.15039 c 30.01229,-2.51948 46.17728,-2.50904 80.72461,0.0527 l 43.19922,3.20508 10.05078,-9.2129 c 14.51207,-13.29955 29.7323,-19.83857 49.45898,-21.25 42.32662,-3.02844 78.94462,23.35347 86.62892,62.41211 l 2.8515,14.48829 21.9063,11.4082 c 112.284,58.47149 218.3361,173.94293 294.9219,321.12116 17.1105,32.8819 40.7784,86.0785 50.0215,112.4258 l 7.3222,20.871 -12.8633,13.4141 c -14.8331,15.4703 -95.4072,102.1046 -163.6484,175.9551 -25.8145,27.9366 -70.3724,75.9379 -99.0176,106.668 -28.6453,30.7302 -70.8043,76.204 -93.6855,101.0527 -22.8811,24.8486 -42.4716,44.8486 -43.5352,44.4433 -1.0636,-0.4039 -44.40076,-37.1208 -96.30466,-81.5917 -51.9039,-44.4709 -95.78777,-80.311 -97.51953,-79.6465 -1.73174,0.6645 -21.38711,17.6213 -43.67969,37.6816 -22.29259,20.0604 -61.67374,55.3798 -87.51367,78.4883 -25.83992,23.1085 -48.24955,42.7908 -49.79883,43.7383 -2.77475,1.6971 -35.90559,-32.3937 -242.35156,-249.3867 -53.72963,-56.4746 -116.26058,-122.1761 -138.95899,-146.002 -22.69842,-23.8259 -41.26953,-44.9034 -41.26953,-46.8398 0,-13.9046 55.50171,-115.4148 103.57227,-189.42782 89.23455,-137.39221 174.97745,-228.89625 247.09961,-263.70117 l 22.20312,-10.71289 2.86524,-12.69922 c 4.43991,-19.67703 12.09031,-33.14893 25.85156,-45.52148 15.80297,-14.20823 35.38039,-21.67653 55.40039,-21.64063 z m -0.73438,20.74024 c -26.08843,0.34439 -48.71423,15.02903 -59.95117,40.4707 -3.25753,7.37539 -6.21704,22.19108 -7.86133,39.36523 -1.45011,15.14626 -3.18625,31.13288 -3.85937,35.52539 -2.2159,14.46034 -31.73805,46.61955 -87.96875,95.82813 -43.52945,38.09349 -59.28623,55.9307 -83.42188,94.43945 -23.27514,37.13585 -30.53096,45.22073 -66.90625,74.55273 -63.0237,50.8206 -74.65757,71.8661 -66.34765,120.0195 5.63667,32.6628 17.72351,62.5323 38.64843,95.5118 21.8078,34.3709 75.05665,102.8481 115.95704,149.1211 44.81577,50.7012 168.18567,181.5878 171.16015,181.5878 3.88744,0 3.90845,-1.8643 0.34571,-32.0742 -1.56129,-13.2282 -2.27286,-24.6158 -1.58399,-25.3047 0.68883,-0.6889 7.39228,1.1636 14.89844,4.1153 28.65122,11.2667 40.25403,14.7799 41.60156,12.5996 0.76737,-1.2417 -1.49402,-14.8028 -5.02539,-30.1367 -3.53138,-15.334 -6.41992,-28.5346 -6.41992,-29.334 0,-3.4394 6.28031,-0.616 28.19726,12.6738 14.16793,8.5911 24.21094,13.2109 25.63086,11.791 1.41993,-1.4199 -0.0506,-13.915 -3.75195,-31.8887 -3.34738,-16.2547 -5.63084,-30.0098 -5.07422,-30.5664 0.5566,-0.5566 10.37329,2.8454 21.81445,7.5586 22.76181,9.3767 27.17069,10.2677 27.11329,5.4864 -0.0209,-1.7461 -8.62651,-19.1749 -19.125,-38.7305 -10.49846,-19.5555 -26.59802,-50.9816 -35.77539,-69.8399 -9.17755,-18.8568 -20.57765,-42.2893 -25.33399,-52.0703 -13.61247,-27.9929 -44.46611,-66.4099 -122.3418,-152.3359 -12.63995,-13.9465 -22.44017,-26.2315 -21.77929,-27.3008 0.66088,-1.0694 5.45048,-1.9433 10.64453,-1.9433 11.84188,0 20.07477,-5.6559 25.44531,-17.4766 3.64391,-8.0204 4.18929,-21.9758 4.27148,-109.50782 0.0923,-98.29142 0.21073,-100.61204 5.8711,-114.85351 5.87086,-14.77105 11.29386,-20.49591 43.33008,-45.74609 22.02108,-17.35661 24.35547,-24.04509 24.35547,-69.78907 0,-36.37127 0.32608,-38.96985 5.5625,-44.22265 8.30585,-8.33184 29.62873,-9.52606 43.52343,-2.4375 14.03182,7.1585 31.1638,29.41459 38.38282,49.86328 10.57402,29.9522 4.39785,60.17696 -13.26368,64.90039 -3.69679,0.98867 -18.33696,3.06109 -32.5332,4.60547 -49.41341,5.3756 -73.14,23.81265 -86.8457,67.48632 -7.80534,24.87205 -7.28109,77.28296 1.52734,152.88088 8.50519,72.9949 11.39707,79.0964 69.00195,145.5664 64.57036,74.5074 70.24269,86.0873 70.30469,143.4922 0.0185,17.1655 1.17907,31.8624 2.65625,33.6504 1.66283,2.0129 9.44008,3.1738 21.25195,3.1738 h 18.63086 l 0.74219,19.6836 0.74024,19.6816 34.92187,0.7071 34.91992,0.707 v -20.3906 -20.3887 h 20.37305 c 18.76333,0 20.55022,-0.4498 22.63281,-5.7129 1.24363,-3.1429 3.28272,-24.0456 4.53321,-46.4492 2.1215,-38.0091 2.81196,-41.8844 10.32226,-57.9336 9.99078,-21.3498 29.54253,-48.5883 67.17578,-93.5918 37.03029,-44.2825 47.76859,-59.9716 50.38669,-73.6113 8.2754,-43.1132 9.1874,-202.26145 1.3028,-227.34183 -10.5536,-33.57024 -37.8113,-47.14459 -95.45707,-47.53906 l -29.20507,-0.20117 0.22656,-31.7461 c 0.25775,-36.09753 2.59095,-44.04012 17.93945,-61.07812 18.70872,-20.7681 41.07551,-25.10423 54.87695,-10.63672 9.97938,10.46085 12.03516,18.6809 12.03516,48.11719 v 26.86328 l 12.06442,11.71484 c 6.635,6.44304 19.1701,17.10859 27.8575,23.70117 8.6874,6.59258 18.9208,16.70902 22.7402,22.48047 6.2346,9.42108 7.132,13.64446 8.7851,41.33203 1.0128,16.96165 2.6264,67.98193 3.586,113.37892 1.3216,62.5202 2.5802,83.8749 5.1836,88.0449 1.8905,3.0279 11.4626,10.4563 21.2715,16.5078 9.809,6.0515 17.8396,12.7172 17.8496,14.8125 0.01,2.0952 -9.9654,12.3812 -22.1641,22.8574 -57.3109,49.2184 -108.53632,104.4857 -130.77929,141.1016 -5.109,8.4103 -19.18105,38.1038 -31.27148,65.9844 -12.09044,27.8807 -27.58202,63.4309 -34.42578,79.0019 -6.84376,15.5709 -12.44336,29.5712 -12.44336,31.1114 0,5.4623 6.14891,2.6168 26.86914,-12.4375 11.53531,-8.3809 22.23061,-15.2383 23.76758,-15.2383 1.57271,0 2.24975,2.4969 1.54882,5.7148 -3.63446,16.6857 -9.28429,60.8895 -7.95312,62.2207 0.84904,0.8491 12.66343,-6.1139 26.25586,-15.4726 13.59243,-9.3588 25.10156,-15.8555 25.57422,-14.4375 0.47266,1.418 -2.66285,15.1904 -6.9668,30.6094 -8.28909,29.6929 -9.4363,38.0312 -5.23437,38.0312 1.42474,0 12.83009,-5.142 25.3457,-11.4277 12.51558,-6.2857 24.08788,-11.4278 25.71678,-11.4278 2.1891,0 2.5092,8.145 1.2266,31.2285 -0.9543,17.1757 -0.8345,32.134 0.2636,33.2403 2.1862,2.2 3.6636,0.6695 79.5254,-82.3457 77.4247,-84.7255 108.0069,-121.9223 158.6133,-192.918 12.4458,-17.4603 36.7568,-50.9692 54.0254,-74.4648 42.4572,-57.7676 41.2439,-55.5089 41.2539,-76.6973 0.012,-21.7809 -6.7034,-47.004 -20.4199,-76.6934 -12.932,-27.9913 -26.2267,-40.9031 -58.7441,-57.0586 -29.5933,-14.7026 -39.7102,-25.1164 -66.9375,-68.89448 -26.2553,-42.2155 -35.855,-53.30165 -78.6504,-90.83399 -58.4016,-51.21922 -74.8757,-66.67311 -80.3067,-75.33594 -3.7189,-5.93197 -5.8073,-15.51214 -7.4765,-34.28515 -4.9132,-55.25625 -11.0467,-71.37405 -32.6934,-85.91211 -16.54582,-11.11233 -35.41003,-14.03267 -58.41211,-9.04102 -23.98144,5.20416 -33.54525,11.63373 -55.13476,37.0625 -12.25981,14.43997 -20.03402,21.32697 -26.29492,23.29883 -4.88889,1.53976 -28.94969,3.35667 -53.46875,4.03711 l -44.58008,1.23828 -8.44922,-16.14648 c -15.36977,-29.36701 -34.45418,-44.75243 -67.38672,-54.32617 -7.6738,-2.23095 -15.24993,-3.25855 -22.55469,-3.16211 z m 2.04688,8.54492 c 4.25991,0.0575 8.67,0.50236 13.21094,1.34179 37.60886,6.95238 58.79118,26.7813 77.68164,72.72071 7.9068,19.22839 8.09818,20.62114 8.17968,59.6875 0.0576,27.58037 0.95926,39.99949 2.9043,40 7.9964,0.002 7.81677,-62.40378 -0.27148,-94.35352 l -1.70508,-6.73242 46.5625,-0.98828 c 25.60891,-0.54179 46.91413,-0.77804 47.3457,-0.52344 0.43156,0.25461 -0.99818,9.85465 -3.17578,21.33399 -5.96312,31.43508 -4.67396,81.26567 2.10156,81.26367 1.95644,-5.1e-4 2.8525,-12.34169 2.9043,-40 0.0693,-37.03264 0.55455,-41.15174 6.55273,-55.53711 9.91159,-23.77092 37.67873,-55.10747 57.54883,-64.94531 29.53734,-14.62415 63.64707,-9.3074 81.94533,12.77343 10.2705,12.39376 14.5269,28.77351 16.6074,63.89844 1.2035,20.31782 3.1319,31.98276 6.332,38.32813 4.5798,9.08084 30.4114,33.96243 97.0508,93.47461 36.5152,32.60978 34.2528,29.75218 79.6778,100.5625 14.6906,22.90032 27.6221,34.41522 53.8671,47.96292 13.0811,6.7526 28.2603,16.3217 33.7325,21.2656 20.4931,18.5142 39.7588,64.2187 42.0175,99.6777 l 1.377,21.586 -11.0918,15.7714 c -55.5552,79.0048 -140.3721,192.8005 -166.1816,222.959 -33.0635,38.6347 -77.8939,87.6192 -80.1895,87.6192 -1.1979,0 -2.1777,-13.7147 -2.1777,-30.4766 0,-23.6061 -0.7591,-30.4766 -3.3653,-30.4766 -1.8505,0 -11.7661,2.8576 -22.0332,6.3497 -10.2671,3.4921 -20.753,6.3496 -23.3007,6.3496 -5.4102,0 -5.4851,-1.3368 -2.0528,-36.6368 1.3481,-13.8645 2.0566,-25.6035 1.5742,-26.0859 -0.4824,-0.4824 -10.9236,3.7423 -23.2031,9.3887 -12.2796,5.6463 -22.85615,9.7376 -23.50194,9.0918 -0.64579,-0.6458 0.66426,-11.9531 2.91015,-25.1289 2.24589,-13.1758 4.08203,-24.5558 4.08203,-25.2891 0,-0.7334 -10.3566,1.8851 -23.01562,5.8203 -16.03088,4.9834 -23.28794,6.2542 -23.91211,4.1875 -0.49288,-1.632 -1.5216,-9.8632 -2.28516,-18.2929 -1.69785,-18.7448 3.25906,-30.7327 28.31446,-68.4825 18.02778,-27.1615 65.59129,-76.6863 137.48629,-143.1562 39.6475,-36.6556 56.1602,-48.842 79.8457,-58.918 15.6297,-6.649 21.3774,-12.5293 12.2442,-12.5293 -12.8419,0 -46.0337,19.0325 -68.3164,39.1738 l -13.2891,12.0118 -21.5371,-13.0078 c -18.6426,-11.262 -21.7048,-14.1023 -22.7871,-21.1485 -0.6876,-4.4771 -1.9813,-40.712 -2.8731,-80.5215 -0.8918,-39.80907 -2.3945,-89.01592 -3.3398,-109.34763 -1.6738,-36.00155 -1.9196,-37.24127 -9.4668,-47.5039 -4.2623,-5.79576 -19.3827,-19.73347 -33.5996,-30.97266 -14.217,-11.23918 -26.0447,-21.86297 -26.2852,-23.60742 -0.2404,-1.74444 -0.526,-15.17122 -0.6347,-29.83789 -0.1748,-23.5538 -0.9408,-27.97531 -6.54886,-37.8711 -9.17979,-16.19833 -17.69429,-21.64475 -33.71484,-21.56445 -7.58375,0.038 -16.86083,1.96135 -21.6543,4.48828 -9.78182,5.15662 -27.3774,22.64731 -32.1582,31.9668 -5.48772,10.69755 -9.39503,34.62369 -9.58398,58.69531 -0.25478,32.43967 0.33366,32.92138 39.75781,32.5918 46.71799,-0.39055 68.87227,7.75811 82.04887,30.17383 l 7.0507,11.99609 0.7578,91.37305 c 0.8097,97.70349 -1.2228,127.95969 -9.6894,144.20309 -5.6027,10.749 -18.7876,27.7236 -55.70508,71.7246 -40.0565,47.7423 -62.91411,86.008 -65.59766,109.8164 -1.24813,11.0734 -1.43773,11.2774 -9.04492,9.7559 -9.8276,-1.9655 -11.73538,-5.0717 -11.83008,-19.2559 -0.10225,-15.3314 4.9585,-117.1682 6.66406,-134.1132 1.54197,-15.3182 -1.59584,-13.2364 39.04883,-25.9239 29.9807,-9.3587 39.8022,-14.8654 54.94727,-30.8105 10.43956,-10.991 23.78318,-30.5044 23.78318,-34.7793 0,-1.2302 -9.36952,-6.5196 -20.82029,-11.7539 -25.6754,-11.7365 -53.43103,-14.8771 -71.26953,-8.0645 -11.99894,4.5824 -27.43284,18.3044 -36.20899,32.1934 -20.07815,31.7753 -31.69436,102.2451 -31.69921,192.3008 l -0.002,43.8086 h -18.6543 -18.65429 l -1.55469,-61.586 c -1.70883,-67.7419 -4.35881,-94.4793 -12.39648,-125.08 -10.75748,-40.9556 -24.70889,-63.5436 -47.5,-76.9004 -17.10738,-10.0258 -42.10371,-9.4334 -70.12891,1.6621 -11.1746,4.4241 -22.39399,9.6293 -24.93164,11.5683 -4.44625,3.3972 -4.42928,3.8839 0.43164,13.4121 7.08044,13.8788 26.94985,35.2995 39.39648,42.4688 11.41295,6.5739 56.92293,21.7578 65.21289,21.7578 2.82084,0 5.62481,1.4278 6.23047,3.1738 1.40114,4.0393 8.89844,128.2259 8.89844,147.3965 0,12.5355 -0.81641,14.9264 -6.33008,18.5391 -8.81542,5.7761 -12.98783,3.2376 -14.96093,-9.1016 -3.60117,-22.5203 -16.56419,-41.8338 -69.88868,-104.1348 -56.85382,-66.423 -59.94588,-73.5143 -66.42578,-152.3808 -1.43459,-17.4603 -3.67794,-44.31852 -4.98633,-59.6836 -4.33798,-50.94329 3.66812,-89.28372 23.30274,-111.58985 15.77166,-17.91757 32.23728,-24.4785 70.7168,-28.17773 41.2818,-3.96861 46.98437,-9.81467 46.98437,-48.16797 0,-22.66438 -0.76235,-26.95251 -7.09766,-39.85352 -14.22967,-28.97688 -43.19239,-52.85022 -64.01367,-52.76562 -12.39838,0.0504 -28.37465,8.72554 -33.17773,18.01367 -3.59522,6.95243 -4.08385,13.19425 -2.94531,37.66016 2.25521,48.46204 -2.0686,58.17158 -36.22852,81.36914 -17.5647,11.92795 -25.65273,21.84119 -32.13477,39.38476 -4.30377,11.64815 -4.62191,20.21526 -3.84375,103.57422 0.97585,104.53604 0.21194,114.14154 -9.87695,124.23044 -6.09966,6.0997 -9.14577,7.1172 -21.32812,7.1172 -13.98075,0 -14.55476,-0.2969 -35.11719,-18.1484 -25.4683,-22.1106 -42.68046,-33.4273 -61.61524,-40.5117 -10.3169,-3.86 -15.14031,-4.6 -17.11718,-2.6231 -1.97686,1.9768 -0.29985,3.7846 5.95117,6.4141 4.787,2.0136 13.85951,5.8813 20.16016,8.5957 14.62581,6.301 43.80029,29.4835 70.57812,56.082 34.20142,33.9723 130.47202,145.8434 141.63281,164.584 11.81755,19.8434 42.34802,84.8844 40.64453,86.5879 -0.62283,0.6228 -9.91793,-2.415 -20.65429,-6.75 -10.73635,-4.335 -20.08865,-7.8828 -20.78321,-7.8828 -0.69455,0 -0.4387,14.2858 0.56836,31.7461 1.19385,20.6984 0.94745,31.7461 -0.70898,31.7461 -1.39731,0 -12.8977,-3.9998 -25.55664,-8.8887 -12.65895,-4.8889 -23.7199,-8.8887 -24.57813,-8.8887 -0.85821,0 -0.74335,14.3216 0.25391,31.8262 l 1.8125,31.8281 -25.10938,-9.2363 c -13.81075,-5.0795 -27.21489,-9.8478 -29.78515,-10.5957 -4.40035,-1.2805 -4.5728,0.1804 -2.96485,25.0273 0.9392,14.5133 2.26189,28.3896 2.93946,30.834 h -0.002 c 0.67883,2.4445 0.68857,4.4434 0.0195,4.4434 -1.66011,0 -67.27192,-69.603 -92.16993,-97.7774 -50.10618,-56.6997 -95.84684,-114.9704 -121.85547,-155.2363 -37.73458,-58.4199 -51.41371,-113.4505 -36.22265,-145.7168 8.97917,-19.072 20.56199,-31.1107 60.64453,-63.0352 35.90649,-28.5983 40.06557,-33.4348 74.89062,-87.0937 18.74634,-28.88442 44.51344,-56.55429 81.66016,-87.6875 32.4318,-27.18156 69.45034,-65.46298 78.9082,-81.60157 5.59926,-9.55444 6.66709,-15.18671 8.23633,-43.38671 1.62182,-29.14443 2.54996,-33.7785 9.21289,-46.03321 11.3751,-20.92148 30.01209,-31.88887 53.01563,-31.57812 z M 2.875,1001.8828 c -0.3074737,0.1771 -0.4891934,0.285 -0.7773438,0.4531 v 0.7754 c 0.4684262,-0.3527 1.0766549,-0.8056 1.5117188,-1.1328 -0.2595451,-0.039 -0.4923153,-0.066 -0.734375,-0.096 z m 930.59766,38.8086 c 15.64198,0.16 34.11788,4.9009 51.16601,13.7168 l 8.13086,4.2051 -5.77148,10.2656 c -7.03195,12.5117 -23.43554,27.9922 -36.99219,34.9082 -11.44655,5.8396 -61.75451,21.2767 -63.53516,19.4961 -5.38334,-5.3834 11.87237,-38.1002 25.2793,-47.9297 7.50138,-5.4999 29.28298,-8.4022 34.8457,-4.6426 9.52812,6.4399 -6.87177,18.6782 -24.84375,18.5391 -15.45631,-0.1198 -20.2919,6.1024 -6.7207,8.6484 12.2767,2.3031 23.33118,-0.8044 32.97461,-9.2714 8.21224,-7.2105 16.11649,-21.448 13.41016,-24.1543 -0.75112,-0.7511 -9.84482,-2.0073 -20.20899,-2.7911 -22.48769,-1.7008 -33.6336,2.4476 -44.81836,16.6836 -13.53169,17.2231 -15.80527,24.5154 -18.19336,58.336 -9.3312,132.1504 -9.8204,160.0858 -2.91406,166.3359 2.5361,2.2952 8.28587,4.9066 12.7793,5.8067 l 8.16992,1.6347 -0.7168,26.9668 -0.71679,26.9688 -21.5879,1.2695 -21.58789,1.2695 -0.73632,20.9531 -0.73829,20.9512 h -26.44921 -26.44922 l -1.38086,-8.2539 c -0.7598,-4.5397 -1.66842,-13.9671 -2.01953,-20.9512 l -0.63868,-12.6992 -19.87695,-1.2695 -19.87695,-1.2695 -1.0293,-25.6446 -1.02734,-25.6425 10.07031,-3.0176 c 5.53874,-1.6594 11.382,-5.4667 12.98437,-8.461 5.1799,-9.6786 -2.84082,-174.6912 -9.5371,-196.2168 -4.67469,-15.027 -15.49109,-29.4202 -27.85352,-37.0605 -7.79373,-4.8168 -11.60745,-5.3883 -29.11328,-4.375 -11.07955,0.6414 -20.79817,1.8196 -21.59766,2.6191 -1.92389,1.9239 5.77098,16.9415 12.38672,24.1758 6.61839,7.2372 22.00454,11.4886 33.66602,9.3008 13.68881,-2.568 8.97676,-7.239 -9.06446,-8.9844 -12.58616,-1.2177 -17.16206,-2.8369 -20.83203,-7.3691 -7.20564,-8.8986 -4.41302,-11.3902 12.74414,-11.3672 14.62387,0.019 16.12743,0.6009 25.70899,9.957 10.77186,10.5184 16.31504,20.3043 19.16601,33.8321 1.46425,6.9479 1.00476,8.2461 -2.90625,8.2011 -7.4609,-0.086 -46.33164,-12.087 -59.02734,-18.2246 -13.18837,-6.3757 -33.2181,-25.2777 -39.34961,-37.1347 -3.95837,-7.6546 -3.89563,-8.0621 1.77734,-11.7793 11.02507,-7.2239 36.05413,-14.477 51.31836,-14.8711 56.49897,-1.459 80.95644,58.2449 84.33594,205.8711 l 1.46875,64.1269 h 26.30469 26.30273 l 0.0137,-28.5703 c 0.018,-39.4582 4.62068,-121.8868 7.83594,-140.3184 8.93951,-51.246 26.78388,-85.4677 51.09766,-98 6.42486,-3.3116 14.78864,-4.8655 24.17383,-4.7695 z m 709.05664,223.0684 c -1.605,0.2125 -3.1926,0.4654 -4.666,0.959 -1.4814,0.4949 3.7217,0.684 4.6523,-0.5704 0,-0.01 0.01,-0.013 0.014,-0.02 z M 2.0976562,1422.1504 v 207.0098 c 2.1051047,-0.094 3.703989,2.8189 4.8925782,6.5097 1.0873286,2.112 1.9717732,3.7577 2.7480468,5.2754 l -0.00977,-207.3262 v -9.6171 c -2.7642872,1.0548 -5.3012789,0.2303 -7.6308594,-1.8516 z M 1632.5742,1516.9551 v 0.6855 c 1.1805,0.9562 1.9086,1.405 1.1172,0.4864 -0.3513,-0.4079 -0.7296,-0.7942 -1.1172,-1.1719 z m -825.31443,46.8242 -0.67579,69.2051 -0.67578,69.207 -31.16797,-30.3965 -31.16601,-30.3945 -15.81641,15.8613 -15.81836,15.8613 47.61914,45.8653 47.61914,45.8652 v 50.5742 c 0,27.8154 -0.8501,50.5723 -1.88867,50.5723 -1.03861,0 -33.91783,-32.0141 -73.06445,-71.1426 l -71.17578,-71.1426 -14.97266,15.1309 -14.9707,15.1289 97.55859,99.0449 c 53.65803,54.4746 98.89548,99.1095 100.52735,99.1875 1.63185,0.078 14.77539,-12.3339 29.20703,-27.584 14.43162,-15.25 57.01828,-59.3181 94.63672,-97.9277 l 68.39644,-70.1992 -15.6972,-15.6973 -15.69729,-15.6953 -69.70703,71.084 -69.70703,71.084 -0.13477,-50.8203 -0.13672,-50.8184 46.96094,-46.9101 46.95898,-46.9082 -14.49804,-14.6524 c -7.97491,-8.059 -15.66245,-14.6523 -17.08203,-14.6523 -1.41956,0 -16.02726,13.4098 -32.46094,29.8007 l -29.87891,29.8008 v -69.166 -69.166 h -21.54687 z m 7.61328,10.1582 h 12.40429 12.4043 l 1.72266,31.1113 c 0.94707,17.1111 1.34781,50.2556 0.89062,73.6543 -0.45722,23.3987 -0.24397,42.5391 0.47461,42.5391 0.71855,0 16.12962,-14.8608 34.24805,-33.0195 18.11842,-18.1587 34.16409,-33.0157 35.65625,-33.0157 1.4922,0 6.34429,3.7464 10.7832,8.3262 l 8.07227,8.3281 -45.03321,44.9766 -45.0332,44.9766 0.71875,63.1738 0.71875,63.1719 48.95313,-49.8106 c 26.92464,-27.3952 59.95938,-61.2368 73.41015,-75.2051 l 24.45508,-25.3984 9.08203,8.7871 c 4.99442,4.832 8.77822,9.552 8.41012,10.4902 -0.3682,0.9383 -40.06719,42.4145 -88.22067,92.168 -48.15347,49.7535 -88.73301,90.4609 -90.17773,90.4609 -2.34479,0 -63.20057,-60.5964 -153.62109,-152.9668 l -31.64649,-32.33 8.72266,-9 8.72461,-9.002 76.90234,76.8711 76.90235,76.8711 v -65.1699 -65.1699 l -45.07422,-43.3477 -45.07618,-43.3477 9.38282,-9.3828 9.38086,-9.3808 35.05859,34.039 35.05859,34.0411 0.67188,-74.2208 z m -812.7753938,55.916 v 0.098 c 1.4224367,1.2004 2.5314535,2.737 3.6914063,4.2187 0.1134549,-1.29 -2.4709608,-3.4223 -3.6914063,-4.3164 z" />
    </g>
    <path
       style="opacity:1;fill:#ffffff;fill-rule:evenodd;stroke:#ffffff;stroke-width:0"
       d="m 852.72102,556.08688 c -16.30811,-16.31468 -30.06956,-29.66305 -30.581,-29.66305 -0.51145,0 -14.12481,13.12955 -30.2519,29.17677 -16.12709,16.04723 -29.94466,29.17678 -30.70571,29.17678 -0.76106,0 -5.08794,-3.72356 -9.61532,-8.27458 l -8.23158,-8.27456 30.13563,-30.21789 30.13564,-30.21788 -31.53839,-31.0705 c -17.34611,-17.08879 -32.54479,-31.32311 -33.77484,-31.63183 -3.39892,-0.85308 -7.84539,2.88168 -35.67109,29.96141 l -25.1247,24.45115 -8.9086,-8.90859 -8.90858,-8.9086 29.48262,-29.49451 29.48261,-29.4945 -32.33551,-31.84148 -32.33551,-31.84148 -28.77416,28.76217 -28.77417,28.76219 -9.21606,-9.25455 -9.21606,-9.25454 28.92133,-28.92133 28.92134,-28.92132 -32.32306,-32.33387 -32.32306,-32.33386 8.68308,-8.72349 8.68308,-8.7235 25.34362,25.0191 c 13.93899,13.76051 28.54169,27.76066 32.45044,31.11143 l 7.10683,6.09234 3.10504,-2.18383 c 4.2305,-2.97537 62.91743,-61.15629 62.91743,-62.37494 0,-0.53506 -13.04827,-14.14046 -28.99617,-30.2342 -15.94789,-16.09375 -29.78871,-30.47171 -30.75738,-31.95103 -1.73452,-2.6489 -1.72304,-2.74475 0.75681,-6.32164 1.38492,-1.99757 4.94723,-6.03029 7.91623,-8.96161 l 5.39819,-5.32965 32.32906,32.31825 32.32906,32.31826 32.0503,-32.06135 32.0503,-32.06134 -31.03204,-31.39822 c -17.06763,-17.26903 -31.5792,-31.86736 -32.24793,-32.44074 -0.92952,-0.79698 0.94981,-3.1992 7.97937,-10.199533 l 9.19524,-9.157018 32.3307,32.270971 32.3307,32.27097 27.74338,-27.42052 c 15.25887,-15.08128 30.68996,-29.993846 34.29131,-33.139037 l 6.54791,-5.718529 3.97336,2.753544 c 4.44889,3.083076 11.55449,10.954652 11.56412,12.810722 0.0101,1.93952 -11.47125,14.43152 -39.39863,42.86684 l -26.09569,26.5703 32.01559,32.02662 32.01558,32.02661 34.2873,-34.27708 34.28728,-34.27709 8.99101,8.991 8.99099,8.991 -33.79054,33.80088 c -18.5848,18.59049 -33.79054,34.23865 -33.79054,34.77368 0,0.53504 14.87984,15.8478 33.06631,34.02837 l 33.06632,33.05559 26.01669,-25.83982 c 30.147,-29.94211 40.7231,-39.7958 42.7135,-39.7958 2.1893,0 8.0308,4.83035 12.1645,10.05875 l 3.7236,4.70968 -2.1453,3.07079 c -1.1799,1.68894 -16.1532,17.19972 -33.2739,34.46841 l -31.1286,31.39762 30.5842,30.59577 30.5842,30.59577 -8.7197,8.76029 c -4.7959,4.81817 -9.1665,8.75296 -9.7126,8.74399 -0.546,-0.009 -14.56,-13.57181 -31.1421,-30.13966 l -30.14938,-30.12335 -32.09064,32.0828 -32.09065,32.0828 30.52599,30.53752 30.52598,30.53752 -8.16093,8.41498 -8.16093,8.41499 -31.12189,-29.20186 c -17.11704,-16.06102 -31.56328,-29.21224 -32.10274,-29.22493 -1.84501,-0.0434 -60.47823,59.97372 -62.76481,64.24622 -1.32747,2.4804 4.34907,9.02437 33.33859,38.43309 l 24.08597,24.43427 -8.24421,7.91476 c -4.53431,4.35313 -8.5854,7.91478 -9.00242,7.91478 -0.41702,0 -14.1012,-13.34838 -30.40931,-29.66306 z m 43.51967,-140.77556 74.16002,-74.15528 -74.64157,-74.64629 -74.64158,-74.6463 -74.64627,74.64157 -74.64628,74.64155 74.15526,74.16 c 40.78539,40.788 74.59291,74.16001 75.12782,74.16001 0.53492,0 34.34459,-33.36987 75.1326,-74.15526 z"
       id="path921" />
    <path
       style="opacity:1;fill:#ffffff;fill-rule:evenodd;stroke:#ffffff;stroke-width:0"
       d="m 812.05941,1923.4985 c -13.44486,-12.7725 -91.96245,-91.9164 -154.20343,-155.4333 l -13.50092,-13.7777 8.3443,-8.5911 8.3443,-8.5912 76.87378,76.8299 76.87377,76.8298 -0.0708,-66.1317 -0.0708,-66.1317 -44.64262,-42.7926 -44.64262,-42.7926 8.90135,-8.9447 8.90135,-8.9446 20.27501,19.6428 c 11.15126,10.8035 26.97812,26.0781 35.1708,33.9436 l 14.89579,14.3008 0.63926,-25.4852 c 0.35159,-14.0169 0.64016,-44.7872 0.64125,-68.3784 9.7e-4,-23.5911 0.28317,-45.5831 0.62682,-48.8711 l 0.62486,-5.978 h 11.44919 11.44918 l 0.59306,7.0511 c 1.61415,19.1912 2.48779,52.3145 2.48911,94.3724 9.7e-4,43.9756 0.093,46.4227 1.70345,45.5202 0.93609,-0.5246 16.10359,-15.0037 33.70557,-32.176 17.60197,-17.1722 32.81617,-31.657 33.80932,-32.1885 2.42544,-1.2981 3.62941,-0.5098 12.13141,7.943 l 7.20431,7.1625 -44.80851,44.8163 -44.80852,44.8163 0.68778,63.4097 c 0.37827,34.8753 0.99912,63.4096 1.37964,63.4096 0.57652,0 38.30457,-38.3906 133.02929,-135.3657 l 13.95072,-14.2822 8.18975,8.1898 c 4.50439,4.5043 8.18979,8.7132 8.18979,9.3529 0,0.6398 -3.397,4.6943 -7.54875,9.0101 -4.1518,4.3158 -24.14936,25.1341 -44.43903,46.263 -49.89336,51.9569 -113.20759,116.5236 -120.22282,122.601 l -5.7265,4.9609 z"
       id="path923" />
    <path
       fill="none"
       stroke="#000000"
       stroke-width="21.0702"
       d="M 8.1518453,6.3433561 V 1964.7064 c 0,101.998 43.0585707,152.997 129.1757147,152.997 h 523.16166 c 86.11716,0 137.99931,65.6118 159.52859,126.8107 21.52932,-61.1989 77.2936,-126.8107 163.41074,-126.8107 h 523.16155 c 86.1172,0 129.1758,-50.999 129.1758,-152.997 V 6.3433561 Z"
       id="path1508"
       style="stroke:#2a2828;stroke-width:12.388;stroke-miterlimit:4;stroke-dasharray:none;stroke-opacity:1" />
  </g>
</svg>
