<?xml version="1.0" encoding="UTF-8" standalone="no"?>
<svg xmlns="http://www.w3.org/2000/svg" width="370" height="300">
  <path stroke="#000" stroke-linecap="round" stroke-linejoin="round" stroke-width="3" d="M160.63569519 175.00378788v35.49131016h-19.05659537v5.49955437h19.05659537v7.35405525l2.74977718 5.6913993 2.74977718-5.6913993v-7.35405525h16.11497327v7.35405525L185 229.04010696l2.74977718-5.6913993v-7.35405525h16.11497327v7.35405525l2.74977718 5.6913993 2.74977718-5.6913993v-7.35405525h19.05659537v-5.49955437H209.3643048v-35.49131016h-5.49955436v35.49131016h-16.11497327v-35.49131016h-5.49955436v35.49131016h-16.11497327v-35.49131016h-5.49955436z"/>
  <path fill="#e9e9e9" stroke="#000" stroke-linecap="round" stroke-linejoin="round" stroke-width="3" d="M70.5325312 93.27785205v37.09001783h229.19073083V93.27785205h-50.58311051v17.13814617h-32.42179145V93.27785205h-63.18092691v17.13814617H121.1156417V93.27785205z"/>
  <path fill="#e9e9e9" stroke="#000" stroke-linecap="round" stroke-linejoin="round" stroke-width="3" d="M70.53253174 130.36787415h42.87901306v24.60585594H70.53253174z"/>
  <path fill="#e9e9e9" stroke="#000" stroke-linecap="round" stroke-linejoin="round" stroke-width="3" d="M113.41156006 130.36787415h35.98130798v24.60585594h-35.98130798z"/>
  <path fill="#e9e9e9" stroke="#000" stroke-linecap="round" stroke-linejoin="round" stroke-width="3" d="M149.39291382 130.36787415h35.75473404v24.60585594h-35.75473404z"/>
  <path fill="#e9e9e9" stroke="#000" stroke-linecap="round" stroke-linejoin="round" stroke-width="3" d="M131.40220642 154.97373962h53.85870743v24.60585594h-53.85870743z"/>
  <path fill="#e9e9e9" stroke="#000" stroke-linecap="round" stroke-linejoin="round" stroke-width="3" d="M77.54348755 154.97373962h53.85870743v24.60585594H77.54348755z"/>
  <path fill="#e9e9e9" stroke="#000" stroke-linecap="round" stroke-linejoin="round" stroke-width="3" d="M70.53253174 179.57958984h42.87901306v24.60585594H70.53253174z"/>
  <path fill="#e9e9e9" stroke="#000" stroke-linecap="round" stroke-linejoin="round" stroke-width="3" d="M113.41149902 179.57958984H149.392807v24.60585594h-35.98130798z"/>
  <path fill="#e9e9e9" stroke="#000" stroke-linecap="round" stroke-linejoin="round" stroke-width="3" d="M77.54348755 204.18545532h53.85870743v24.60585594H77.54348755z"/>
  <path fill="#e9e9e9" stroke="#000" stroke-linecap="round" stroke-linejoin="round" stroke-width="3" d="M70.53253174 228.79130554h42.87901306v24.60585594H70.53253174z"/>
  <path fill="#e9e9e9" stroke="#000" stroke-linecap="round" stroke-linejoin="round" stroke-width="3" d="M113.41156006 228.79130554h35.98130798v24.60585594h-35.98130798z"/>
  <path fill="#e9e9e9" stroke="#000" stroke-linecap="round" stroke-linejoin="round" stroke-width="3" d="M77.54348755 253.39717102h53.85870743v24.60585594H77.54348755z"/>
  <path fill="#e9e9e9" stroke="#000" stroke-linecap="round" stroke-linejoin="round" stroke-width="3" d="M70.53457754 278.0245098V293.5h42.84536542v-15.4754902H70.53457754z"/>
  <path fill="#e9e9e9" stroke="#000" stroke-linecap="round" stroke-linejoin="round" stroke-width="3" d="M113.37994296 278.0245098V293.5h36.00289661v-15.4754902h-36.00289661z"/>
  <path fill="#e9e9e9" stroke="#000" stroke-linecap="round" stroke-linejoin="round" stroke-width="3" d="M299.7232666 130.36787415h-42.87901306v24.60585594h42.87901306z"/>
  <path fill="#e9e9e9" stroke="#000" stroke-linecap="round" stroke-linejoin="round" stroke-width="3" d="M256.84414673 130.36787415h-35.98130798v24.60585594h35.98130798z"/>
  <path fill="#e9e9e9" stroke="#000" stroke-linecap="round" stroke-linejoin="round" stroke-width="3" d="M220.86286926 130.36787415h-35.75473404v24.60585594h35.75473404z"/>
  <path fill="#e9e9e9" stroke="#000" stroke-linecap="round" stroke-linejoin="round" stroke-width="3" d="M238.85357666 154.97373962h-53.85870743v24.60585594h53.85870743z"/>
  <path fill="#e9e9e9" stroke="#000" stroke-linecap="round" stroke-linejoin="round" stroke-width="3" d="M292.71231079 154.97373962h-53.85870743v24.60585594h53.85870743z"/>
  <path fill="#e9e9e9" stroke="#000" stroke-linecap="round" stroke-linejoin="round" stroke-width="3" d="M299.7232666 179.57958984h-42.87901306v24.60585594h42.87901306z"/>
  <path fill="#e9e9e9" stroke="#000" stroke-linecap="round" stroke-linejoin="round" stroke-width="3" d="M256.84429932 179.57958984h-35.98130798v24.60585594h35.98130798z"/>
  <path fill="#e9e9e9" stroke="#000" stroke-linecap="round" stroke-linejoin="round" stroke-width="3" d="M292.71231079 204.18545532h-53.85870743v24.60585594h53.85870743z"/>
  <path fill="#e9e9e9" stroke="#000" stroke-linecap="round" stroke-linejoin="round" stroke-width="3" d="M299.7232666 228.79130554h-42.87901306v24.60585594h42.87901306z"/>
  <path fill="#e9e9e9" stroke="#000" stroke-linecap="round" stroke-linejoin="round" stroke-width="3" d="M256.84414673 228.79130554h-35.98130798v24.60585594h35.98130798z"/>
  <path fill="#e9e9e9" stroke="#000" stroke-linecap="round" stroke-linejoin="round" stroke-width="3" d="M292.71231079 253.39717102h-53.85870743v24.60585594h53.85870743z"/>
  <path fill="#e9e9e9" stroke="#000" stroke-linecap="round" stroke-linejoin="round" stroke-width="3" d="M256.81599465 278.0245098V293.5h42.90931373v-15.4754902h-42.90931373z"/>
  <path fill="#e9e9e9" stroke="#000" stroke-linecap="round" stroke-linejoin="round" stroke-width="3" d="M220.87704635 278.0245098V293.5h35.9389483v-15.4754902h-35.9389483z"/>
  <path fill="#e9e9e9" stroke="#000" stroke-linecap="round" stroke-linejoin="round" stroke-width="3" d="M49.94322282 41.73551693 18.7364492 47.1071747 7.1618057 293.5h85.56283423L81.21394474 47.10717469l-31.27072192-5.37165776z"/>
  <path fill="#e9e9e9" stroke="#000" stroke-linecap="round" stroke-linejoin="round" stroke-width="3" d="M9.90953654 6.5 7.15975936 41.28787879l10.87121212 13.30124777h63.82040998l10.87121212-13.30124777L89.9728164 6.5H70.27673797v20.3355615H60.10895722V6.5h-20.3355615v20.3355615H29.60561497V6.5H9.90953654z"/>
  <path fill="#e9e9e9" stroke="#000" stroke-linecap="round" stroke-linejoin="round" stroke-width="3" d="M6.5202763 116.36319073v27.24197861h86.84180035v-27.2419786H6.52027629z"/>
  <path fill="#e9e9e9" stroke="#000" stroke-linecap="round" stroke-linejoin="round" stroke-width="3" d="M62.30875675 165.73128342a12.35611335 12.35611335 0 0 1-24.7122267 0 12.35611335 12.35611335 0 1 1 24.7122267 0z"/>
  <path d="M49.94117647 58.29812834v2.04634581h27.81751337l-.0639483-2.0463458H49.94117646zm0 8.18538325v2.0463458h28.2012032l-.0639483-2.0463458h-28.1372549zm0 8.18538324v2.04634581h28.58489305l-.0639483-2.0463458H49.94117646zm0 8.18538324v2.04634582h29.0325312l-.12789662-2.04634582H49.94117647zm0 8.18538325v2.04634581H79.3573975l-.1278966-2.04634581H49.94117646zm0 8.18538324v2.04634581h29.79991087l-.1278966-2.0463458H49.94117646zm0 8.18538325v2.0463458h30.18360071l-.12789661-2.0463458h-30.0557041zm0 13.42914438v2.04634581h39.45610517v-2.0463458H49.94117647zm0 8.18538325v2.0463458h39.45610517v-2.0463458H49.94117647zm0 8.18538324v2.04634581h39.45610517v-2.0463458H49.94117647zm0 11.12700535v2.04634581h32.10204991l-.12789661-2.04634581h-31.9741533zm11.51069519 8.18538324c.51468501.64316199 1.00397632 1.3218109 1.40686274 2.04634581h19.56818182l-.12789661-2.0463458H61.45187166zm3.19741533 8.18538325c.02264296.33458458.0639483.68284614.0639483 1.0231729 0 .34032677-.04130534.68858832-.0639483 1.0231729h18.16131907l-.12789661-2.0463458H64.64928699zm-1.79055259 8.18538324c-.40288642.7245349-.89217773 1.40318383-1.40686274 2.04634581H83.1942959l-.12789661-2.0463458H62.8587344zm-12.91755793 8.18538325v2.0463458h33.63680927l-.12789661-2.0463458H49.94117647zm0 8.18538324v2.04634581h34.0204991l-.1278966-2.04634581h-33.8926025zm0 8.18538324v2.04634581h34.40418895l-.12789661-2.0463458H49.94117647zm0 8.18538325v2.0463458h34.78787879l-.12789661-2.0463458H49.94117647zm0 8.18538324v2.04634581H85.1127451l-.0639483-2.0463458H49.94117646zm0 8.18538325v2.0463458h35.55525847l-.0639483-2.0463458H49.94117646zm0 8.18538324v2.04634581h35.9389483l-.0639483-2.0463458h-35.875zm0 8.18538324v2.04634582h36.32263815l-.06394831-2.04634582H49.94117647zm0 8.18538325v2.04634581h36.70632799l-.06394831-2.04634581H49.94117647zm0 8.18538324v2.04634581H87.0311943l-.06394831-2.0463458H49.94117647zm0 8.18538325v2.0463458h37.47370767l-.06394831-2.0463458H49.94117647zm0 8.18538324v2.04634581h37.8573975l-.0639483-2.0463458h-37.7934492zm0 8.18538325v2.0463458h38.24108734l-.0639483-2.0463458H49.94117647z"/>
  <path fill="#e9e9e9" stroke="#000" stroke-linecap="round" stroke-linejoin="round" stroke-width="3" d="m320.06086988 41.73551693-31.20677362 5.37165776L277.27945276 293.5H362.842287L351.3315918 47.10717469l-31.27072192-5.37165776z"/>
  <path fill="#e9e9e9" stroke="#000" stroke-linecap="round" stroke-linejoin="round" stroke-width="3" d="m280.0271836 6.5-2.74977718 34.78787879 10.87121212 13.30124777h63.82040998l10.87121212-13.30124777L360.09046346 6.5h-19.69607843v20.3355615h-10.16778075V6.5h-20.3355615v20.3355615h-10.16778075V6.5H280.0271836z"/>
  <path fill="#e9e9e9" stroke="#000" stroke-linecap="round" stroke-linejoin="round" stroke-width="3" d="M276.63792335 116.36319073v27.24197861h86.84180036v-27.2419786h-86.84180036z"/>
  <path fill="#e9e9e9" stroke="#000" stroke-linecap="round" stroke-linejoin="round" stroke-width="3" d="M332.4264038 165.73128342a12.35611335 12.35611335 0 0 1-24.71222668 0 12.35611335 12.35611335 0 1 1 24.71222669 0z"/>
  <path d="M320.05882353 58.29812834v2.04634581h27.81751337l-.0639483-2.0463458h-27.75356507zm0 8.18538325v2.0463458h28.2012032l-.0639483-2.0463458h-28.1372549zm0 8.18538324v2.04634581h28.58489305l-.0639483-2.0463458h-28.52094475zm0 8.18538324v2.04634582h29.0325312l-.12789662-2.04634582h-28.90463458zm0 8.18538325v2.04634581h29.41622103l-.12789661-2.04634581h-29.28832442zm0 8.18538324v2.04634581h29.79991087l-.12789661-2.0463458h-29.67201426zm0 8.18538325v2.0463458h30.18360071l-.12789661-2.0463458h-30.0557041zm0 13.42914438v2.04634581h39.45610517v-2.0463458h-39.45610517zm0 8.18538325v2.0463458h39.45610517v-2.0463458h-39.45610517zm0 8.18538324v2.04634581h39.45610517v-2.0463458h-39.45610517zm0 11.12700535v2.04634581h32.10204991l-.12789661-2.04634581h-31.9741533zm11.51069519 8.18538324c.51468501.64316199 1.00397632 1.3218109 1.40686274 2.04634581h19.56818182l-.12789661-2.0463458h-20.84714795zm3.19741533 8.18538325c.02264296.33458458.0639483.68284614.0639483 1.0231729 0 .34032677-.04130534.68858832-.0639483 1.0231729h18.16131907l-.12789661-2.0463458h-18.03342246zm-1.79055259 8.18538324c-.40288642.7245349-.89217773 1.40318383-1.40686274 2.04634581h21.74242424l-.12789661-2.0463458h-20.20766489zm-12.91755793 8.18538325v2.0463458h33.63680927l-.12789661-2.0463458h-33.50891266zm0 8.18538324v2.04634581h34.0204991l-.1278966-2.04634581h-33.8926025zm0 8.18538324v2.04634581h34.40418895l-.12789662-2.0463458h-34.27629233zm0 8.18538325v2.0463458h34.78787879l-.12789662-2.0463458h-34.65998217zm0 8.18538324v2.04634581h35.17156863l-.06394831-2.0463458h-35.10762032zm0 8.18538325v2.0463458H355.614082l-.06394831-2.0463458h-35.49131016zm0 8.18538324v2.04634581h35.9389483l-.0639483-2.0463458h-35.875zm0 8.18538324v2.04634582h36.32263815l-.06394831-2.04634582h-36.25868984zm0 8.18538325v2.04634581h36.70632799l-.06394831-2.04634581h-36.64237968zm0 8.18538324v2.04634581h37.09001782l-.0639483-2.0463458h-37.02606952zm0 8.18538325v2.0463458h37.47370766l-.0639483-2.0463458h-37.40975936zm0 8.18538324v2.04634581h37.8573975l-.0639483-2.0463458h-37.7934492zm0 8.18538325v2.0463458h38.24108734l-.0639483-2.0463458h-38.17713904z"/>
  <path fill="#e9e9e9" stroke="#000" stroke-linecap="round" stroke-linejoin="round" stroke-width="3" d="M185.12789661 149.16867201c-5.72230508 0-11.26847332.79075517-16.5626114 2.17424243l7.8656417 29.35227273c2.7708657-.68267382 5.67135806-1.08712122 8.6969697-1.08712122 3.04779164 0 5.97192595.3946998 8.760918 1.08712122l7.86564172-29.35227273c-5.31219787-1.393636-10.8825912-2.17424243-16.62655972-2.17424243z"/>
  <path fill="#e9e9e9" stroke="#000" stroke-linecap="round" stroke-linejoin="round" stroke-width="3" d="M170.03609626 156.90641711c-10.10456434 2.6211451-19.12266974 7.8234818-26.34670232 14.83600713l17.32999109 17.32999109c4.17455514-4.01439826 9.47862766-6.9155026 15.41154189-8.37722816l-6.39483066-23.78877006z"/>
  <path fill="#e9e9e9" stroke="#000" stroke-linecap="round" stroke-linejoin="round" stroke-width="3" d="M143.68939394 171.74242424c-7.33094449 7.11630704-12.82374234 16.07536209-15.60338681 26.1548574l24.04456328 6.45877897c1.57800047-5.94675636 4.61739006-11.176094 8.88881462-15.28364528l-17.3299911-17.32999109z"/>
  <path fill="#e9e9e9" stroke="#000" stroke-linecap="round" stroke-linejoin="round" stroke-width="3" d="M128.08600713 197.89728164c-1.34691913 4.8841732-2.04634581 10.04139183-2.04634581 15.34759358h24.87589126c0-3.09259158.46700707-6.06990688 1.21501783-8.88881461l-24.04456328-6.45877897z"/>
  <path fill="#e9e9e9" stroke="#000" stroke-linecap="round" stroke-linejoin="round" stroke-width="3" d="m200.21969697 156.90641711-6.33088235 23.78877006c5.92238655 1.47034741 11.18243124 4.4255173 15.34759358 8.44117647l17.32999109-17.3299911c-7.22922642-7.02801511-16.2274507-12.27500041-26.34670232-14.89995543z"/>
  <path fill="#e9e9e9" stroke="#000" stroke-linecap="round" stroke-linejoin="round" stroke-width="3" d="m226.56639929 171.80637255-17.32999109 17.32999109c4.2559072 4.10314684 7.31456435 9.28707342 8.88881462 15.21969697l24.04456328-6.45877897c-2.7756631-10.06505812-8.28831222-18.9794352-15.60338681-26.0909091z"/>
  <path fill="#e9e9e9" stroke="#000" stroke-linecap="round" stroke-linejoin="round" stroke-width="3" d="m242.1697861 197.96122995-24.04456328 6.39483066c.74801076 2.81890773 1.21501782 5.79622303 1.21501782 8.88881461h24.87589127c0-5.28476759-.70992243-10.41714558-2.04634581-15.28364527z"/>
  <path fill="#e9e9e9" stroke="#000" stroke-linecap="round" stroke-linejoin="round" stroke-width="3" d="M126.03966132 213.24487522v16.88235294h24.87589126v-16.88235294h-24.87589126z"/>
  <path fill="#e9e9e9" stroke="#000" stroke-linecap="round" stroke-linejoin="round" stroke-width="3" d="M126.03966132 230.12722816v16.94630125h24.87589126v-16.94630125h-24.87589126z"/>
  <path fill="#e9e9e9" stroke="#000" stroke-linecap="round" stroke-linejoin="round" stroke-width="3" d="M126.03966132 247.07352941v16.88235294h24.87589126v-16.88235294h-24.87589126z"/>
  <path fill="#e9e9e9" stroke="#000" stroke-linecap="round" stroke-linejoin="round" stroke-width="3" d="M126.03966132 263.95588235v16.94630125h24.87589126v-16.94630125h-24.87589126z"/>
  <path fill="#e9e9e9" stroke="#000" stroke-linecap="round" stroke-linejoin="round" stroke-width="3" d="M126.04170766 280.9021836V293.5h24.87589127v-12.5978164h-24.87589127z"/>
  <path fill="#e9e9e9" stroke="#000" stroke-linecap="round" stroke-linejoin="round" stroke-width="3" d="M219.34024064 213.24487522v16.88235294h24.87589127v-16.88235294h-24.87589127z"/>
  <path fill="#e9e9e9" stroke="#000" stroke-linecap="round" stroke-linejoin="round" stroke-width="3" d="M219.34024064 230.12722816v16.94630125h24.87589127v-16.94630125h-24.87589127z"/>
  <path fill="#e9e9e9" stroke="#000" stroke-linecap="round" stroke-linejoin="round" stroke-width="3" d="M219.34024064 247.07352941v16.88235294h24.87589127v-16.88235294h-24.87589127z"/>
  <path fill="#e9e9e9" stroke="#000" stroke-linecap="round" stroke-linejoin="round" stroke-width="3" d="M219.34024064 263.95588235v16.94630125h24.87589127v-16.94630125h-24.87589127z"/>
  <path fill="#e9e9e9" stroke="#000" stroke-linecap="round" stroke-linejoin="round" stroke-width="3" d="M219.34228699 280.9021836V293.5h24.87589126v-12.5978164H219.342287z"/>
</svg>