<?xml version="1.0" encoding="utf-8"?>
<!-- Generator: Adobe Illustrator 16.0.0, SVG Export Plug-In . SVG Version: 6.00 Build 0)  -->
<!DOCTYPE svg PUBLIC "-//W3C//DTD SVG 1.1//EN" "http://www.w3.org/Graphics/SVG/1.1/DTD/svg11.dtd">
<svg version="1.1" id="Layer_1" xmlns="http://www.w3.org/2000/svg" xmlns:xlink="http://www.w3.org/1999/xlink" x="0px" y="0px"
	 width="246px" height="246.5px" viewBox="0 0 246 246.5" enable-background="new 0 0 246 246.5" xml:space="preserve">
<path fill="none" stroke="#009900" stroke-width="8" stroke-miterlimit="10" d="M185.217,185.389
	c9.514,24.795-21.101,22.662-10.352,51.912c-13.624,2.248-42.986,4.254-51.318-26.378c-10.806,24.261-30.946,1.104-44.028,29.39
	c-11.224-8.045-33.403-27.39-17.636-54.939c-24.795,9.514-22.663-21.102-51.913-10.352c-2.248-13.625-4.253-42.988,26.378-51.319
	c-24.26-10.805-1.104-30.945-29.389-44.027c8.044-11.225,27.39-33.405,54.94-17.637C52.385,37.244,83,39.375,72.25,10.125
	c13.625-2.25,42.989-4.252,51.318,26.378c10.806-24.26,30.945-1.105,44.027-29.39c11.223,8.045,33.402,27.391,17.637,54.941
	c24.795-9.514,22.662,21.1,51.914,10.35c2.246,13.624,4.25,42.987-26.379,51.32c24.26,10.805,1.104,30.945,29.39,44.027
	C232.111,178.975,212.768,201.154,185.217,185.389z"/>
<g>
	<path fill="#009900" d="M109.086,104.371c0,1.872-0.658,3.48-1.976,4.813c-2.128,2.132-4.785,4.028-7.975,5.699
		c-3.419,1.748-6.345,2.618-8.772,2.618c-2.682,0-4.693-0.962-6.032-2.887c-1.11-1.617-1.664-3.735-1.664-6.353
		c0-4.184,0.901-7.817,2.704-10.897c0.369-0.64,0.625-0.962,0.764-0.962c0.047,0.023,0.07,0.076,0.07,0.154
		c0,0.207-0.118,0.562-0.347,1.078c-1.387,3.311-2.081,6.098-2.081,8.355c0,1.979,0.472,3.658,1.421,5.044
		c1.227,1.825,3.108,2.734,5.652,2.734c2.033,0,4.472-0.654,7.315-1.963c2.219-1.002,4.403-2.234,6.552-3.697
		c1.895-1.31,2.844-2.118,2.844-2.426c0-0.385-0.542-0.731-1.629-1.04c-1.131-0.308-2.267-0.602-3.398-0.885
		c-1.409-0.361-2.44-0.756-3.086-1.193c-0.949-0.64-1.421-1.555-1.421-2.735c0-2.256,0.671-4.644,2.011-7.161
		c1.062-1.979,2.276-3.615,3.641-4.91c1.366-1.295,2.462-1.944,3.294-1.944c0.577,0,1.045,0.274,1.404,0.828
		c0.36,0.553,0.537,1.212,0.537,1.982c0,0.9-0.139,1.617-0.416,2.157c-0.23,0.438-0.416,0.655-0.555,0.655
		c-0.091,0-0.221-0.217-0.381-0.655c-0.299-0.794-0.75-1.195-1.352-1.195c-0.972,0-2.289,0.987-3.953,2.966
		c-0.763,0.923-1.456,1.938-2.08,3.042c-0.577,1.025-0.868,1.718-0.868,2.08c0,1.001,1.678,1.9,5.028,2.695
		c1.92,0.462,3.19,0.948,3.814,1.463S109.086,103.191,109.086,104.371L109.086,104.371L109.086,104.371z"/>
	<path fill="#009900" d="M86.146,133.443c-1.215,0-2.271-0.579-3.164-1.729c-0.945-1.206-1.416-2.678-1.416-4.422
		c0-2.437,0.918-5.601,2.755-9.483c0.2-0.403,0.35-0.604,0.447-0.604c0.05,0.026,0.074,0.081,0.074,0.161
		c0,0.403-0.396,1.763-1.191,4.079c-0.796,2.317-1.191,4.146-1.191,5.487c0,1.021,0.224,1.834,0.67,2.452
		c0.47,0.668,1.13,1.005,1.972,1.005c1.318,0,2.853-0.869,4.617-2.613c0.2-0.186,1.75-1.993,4.653-5.424
		c4.267-4.984,8.092-7.477,11.465-7.477c0.968,0,1.801,0.317,2.494,0.946c0.694,0.626,1.043,1.372,1.043,2.23
		c0,1.045-0.173,1.969-0.521,2.772c-0.098,0.266-0.173,0.402-0.223,0.402c-0.074,0-0.187-0.136-0.335-0.402
		c-0.694-1.366-1.75-2.049-3.165-2.049c-2.583,0-5.533,1.823-8.86,5.465c-1.861,2.196-3.722,4.382-5.584,6.551
		C89.073,132.559,87.561,133.443,86.146,133.443L86.146,133.443L86.146,133.443z"/>
	<path fill="#009900" d="M109.791,73.529c-0.071-1.168-0.302-2.112-0.692-2.835c-0.026-0.423,0.221-1.449,0.748-3.075
		c0.076-0.205,0.141-0.308,0.187-0.31c0.071-0.004,0.158,0.089,0.261,0.283c0.211,0.413,0.695,1.527,1.452,3.351
		c0.809,1.894,1.284,3.061,1.427,3.502c0.112,0.343,0.175,0.601,0.185,0.773c0.032,0.521-0.471,0.229-1.508-0.879
		c-0.129-0.166-0.178-0.087-0.159,0.234c0.006,0.097,0.48,3.807,1.424,11.128c0.947,7.321,1.445,11.44,1.501,12.358
		c0.173,2.831-0.068,5.336-0.719,7.522c-0.161,0.434-0.278,0.749-0.357,0.956l0,0c-0.142,0.308-0.233,0.364-0.267,0.166
		c-0.061-0.22-0.077-0.683-0.049-1.38c0.057-0.976,0.043-2.11-0.035-3.399c-0.072-1.169-0.641-5.939-1.707-14.309
		C110.418,79.245,109.854,74.551,109.791,73.529L109.791,73.529L109.791,73.529z"/>
	<path fill="#009900" d="M171.32,111.57c-0.28-0.8-0.551-1.19-0.801-1.19c-0.061,0-0.109,0.03-0.141,0.09
		c-0.449,0.72-0.641,1.65-0.57,2.82c0,0.23,0.142,0.53,0.422,0.9c0.289,0.37,0.43,0.64,0.43,0.8c0,0.23-0.271,0.45-0.801,0.68
		c-0.449,0.16-0.84,0.24-1.189,0.24c-1.01,0-2.22-0.14-2.6-1.5c-0.182-0.63,0.02-1.38-0.051-1.89c-0.029-0.2-0.051-0.3-0.149-0.3
		c-0.062,0.04-0.149,0.04-0.19,0.1c-0.52,0.76-0.55,1-0.89,1.75c-0.92,2.13-2.261,3.2-4.03,3.2c-1.318,0-2.529-0.86-2.72-1.99
		c-0.13-0.7,0-1.05-0.021-1.72c-0.021-0.45-0.16-0.61-0.289-0.61c-0.092,0-0.271,0.1-0.521,0.29c-2.46,1.68-4.17,2.74-5.109,3.16
		c-1.551,0.68-3.109,1.15-5.479,1.38c-1.03,0.1-2.812,0.13-4.21,0.16c0.96-1.12,1.55-2.05,1.76-2.79
		c0.16-0.56,0.165-0.951,0.141-1.81c-0.019-0.596-0.35-2.937-0.41-3.419c-0.285-2.281-0.584-3.436-0.891-3.46
		c-0.68,2.17-1.189,3.72-1.529,4.65c-0.931,2.63-1.631,4.6-2.101,5.9c-0.83,0.22-2.351,0.37-4.55,0.47
		c-0.96,0.03-1.641,0.09-3.12,0.09c-1.489,0-3.819,1.54-5.89,3.3c-3.55,3.029-6.16,7.13-7.11,8.42c-1.34,1.811-2.82,2.63-4.19,2.63
		c-0.77,0-1.38-0.36-1.81-1.08c-0.42-0.63-0.62-1.51-0.62-2.64c0-1.44,0.36-3.41,1.1-5.9c0.12-0.42,0.22-0.82,0.31-1.19
		c0.3,0.08,0.62,0.11,0.97,0.11c1.29,0,4.02-1.41,8.2-4.23c3.359-2.22,5.551-3.8,6.58-4.73c0.561-0.51,0.92-0.92,1.08-1.22
		c0.24-0.44,0.449-1.19,0.641-2.24c0.069-0.4,0.1-0.8,0.1-1.19c0-1.92-0.569-3.27-1.709-4.07c-0.471-0.35-2-1.13-4.59-2.34
		c-2.101-0.98-3.8-2.11-5.11-3.4c1.14,0.07,1.8,0,1.99-0.21c0.03-0.03,0.04-0.07,0.04-0.11c0-0.15-0.22-0.36-0.67-0.62
		c-0.12-0.07-0.24-0.14-0.38-0.21l-3.54-1.68c-0.28-0.14-0.45-0.18-0.52-0.11c-0.05,0.07-0.07,0.2-0.07,0.39v2.06
		c0,0.07,0,0.13,0.01,0.2c0.03,0.45,0.18,0.82,0.34,1.02c0.5,0.63,1.37,1.97,5,4.45c0.86,0.59,2.19,1.3,3.959,2.14
		c1.631,0.77,2.811,1.44,3.541,2c0.601,0.44,0.91,0.81,0.91,1.12c0,0.21-0.131,0.43-0.391,0.66c-0.609,0.58-2.859,2.15-6.76,4.69
		c-4.32,2.8-7.23,4.2-8.75,4.2c-0.7,0-1.28-0.22-1.75-0.66c-0.58-0.49-0.88-1.21-0.88-2.17c0-1.28,0.35-3.15,1.05-5.6
		c0.12-0.35,0.18-0.61,0.18-0.77c0-0.12-0.02-0.18-0.07-0.18c-0.12,0-0.28,0.27-0.49,0.81c-1,2.47-1.51,4.9-1.51,7.28
		c0,0.38,0.02,0.73,0.06,1.06c0,0.01,0,0.01,0,0.02c0,0.06,0.01,0.14,0.02,0.2c0.2,1.6,0.83,2.64,1.88,3.12
		c-1.07,3.05-1.6,5.6-1.6,7.65c0,1.9,0.44,3.5,1.31,4.801c0.82,1.27,1.79,1.899,2.92,1.899c1.3,0,2.75-0.89,4.05-2.79
		c2.2-3.2,4.05-5.54,5.21-6.65c2.95-2.8,4.938-4.96,7.399-4.892c2.896,0.082,4.541-0.168,5.75-0.519l-0.279,0.89
		c0.43,0.03,0.74,0.06,0.93,0.09c-0.13,0.71-0.109,1.351,0.04,1.91c1.149,4.06,3.091,6.09,5.82,6.09c0.46,0,0.96-0.21,1.479-0.63
		c0.529-0.42,0.869-0.92,1.029-1.51c0.34-1.34,0.37-2.48,0.09-3.44c-0.25-0.87-0.9-1.8-1.949-2.79
		c2.799,0.271,5.301-0.68,7.409-1.84c0.979-0.55,2.37-1.56,4.171-3.01c-0.091,1.45,0.239,2.57,1,3.35
		c0.689,0.68,1.569,1.02,2.649,1.02c1.45,0,2.54-0.52,3.271-1.56c0.561-0.81,0.989-1.52,1.271-2.13c0.42,0.48,0.84,0.98,1.28,1.5
		c0.6,0.58,1.279,0.88,2.039,0.88c2.399,0,3.601-1.79,3.601-5.35C171.75,113.13,171.609,112.36,171.32,111.57z M141.48,114.5
		c0.52-1.61,0.858-2.59,1.02-2.93c0.4,1.61,0.766,2.667,0.5,3.29c-0.373,0.874-1.34,1.271-2.27,1.641
		C141.01,115.79,141.26,115.12,141.48,114.5z M145.52,125.52c-0.31,0.15-0.619,0.23-0.93,0.23c-0.898,0-1.811-0.48-2.74-1.439
		c-0.84-0.871-1.379-1.75-1.629-2.65c1.459,0.22,2.561,0.59,3.299,1.109C143.891,123.05,144.561,123.971,145.52,125.52z"/>
	<path fill="#009900" d="M164.453,107.306c0,0.373-0.072,0.838-0.219,1.396c-0.231,0.651-0.492,0.978-0.781,0.978
		c-0.117,0-0.668-0.294-1.652-0.884c-1.017-0.652-1.521-1.101-1.521-1.349c0-0.187,0.361-1.179,1.087-2.979
		c0.437,0.496,1.13,1.04,2.088,1.628C164.119,106.5,164.453,106.903,164.453,107.306z M165.279,102.327
		c0,1.086-0.305,2.047-0.913,2.885c-0.87-0.496-1.74-0.977-2.61-1.442c-0.436-0.279-0.65-0.559-0.65-0.837
		c0,0.063,0.261-0.915,0.783-2.932c0.375,0.311,1.114,0.745,2.217,1.304C164.889,101.707,165.279,102.047,165.279,102.327z
		 M168.977,105.911c0,0.249-0.101,0.682-0.304,1.303c-0.233,0.775-0.479,1.303-0.739,1.582c-0.609-0.31-1.205-0.652-1.783-1.024
		c-0.813-0.495-1.219-0.868-1.219-1.117c0-0.093,0.146-0.527,0.436-1.302c0.29-0.869,0.521-1.303,0.695-1.303
		C168.005,104.949,168.977,105.569,168.977,105.911z"/>
</g>
<g>
	<path fill="#009900" d="M95.517,145.553c-0.932-0.414-1.555-0.754-1.876-1.035c-0.315,1.057-0.538,1.795-0.663,2.231
		c0,0.207,0.184,0.407,0.558,0.583c0.735,0.348,1.471,0.702,2.206,1.064c0.519-0.613,0.774-1.315,0.774-2.092
		C96.515,146.077,96.18,145.826,95.517,145.553z"/>
	<path fill="#009900" d="M110.448,171.523c-0.125-0.25-0.354-0.457-0.683-0.627c-0.499-0.28-0.978-0.672-1.431-1.174
		c-0.63,1.535-0.945,2.43-0.945,2.688c0,0.251,0.348,0.614,1.057,1.085c0.63,0.422,1.004,0.629,1.135,0.629
		c0.223,0,0.453-0.393,0.676-1.189C110.487,172.137,110.546,171.664,110.448,171.523z M111.544,168.591
		c-0.125,0-0.342,0.414-0.643,1.257c-0.224,0.752-0.342,1.174-0.342,1.256c0,0.28,0.794,0.908,2.382,1.892
		c0.23-0.28,0.44-0.754,0.644-1.425c0.203-0.563,0.302-0.969,0.302-1.219C113.887,170.068,113.105,169.484,111.544,168.591z"/>
	<path fill="#009900" d="M167.027,155.352c-0.524,0.437-2.35,1.551-3.451,2.039c-1.641,0.725-3.498,0.976-4.456,0.976
		c-0.92,0-6.157,0.487-7.356-8.104c-0.139-0.902-0.178-2.246-0.382-2.984c-0.452-1.625-0.688-1.463-0.919-0.48
		c-0.242,1.026-0.288,1.898-1.285,2.867c-1.294,1.255-2.39,1.434-3.014,1.572c-4.121,0.924-15.73,1.553-17.943,1.553
		c-4.148,0-7.2-0.391-7.908-0.717c0.997,1.439,1.424,2.313,1.522,2.748c0.283,1.294,0.079,3.443-1.522,5.525
		c-0.486,0.637-3.938,3.045-7.055,5.047c-3.466,2.224-8.585,4.463-11.184,5.201c-1.694,0.48-11.263,2.055-11.263,1.965
		c0-0.474,6.327-2.57,9.431-3.813c4.154-1.662,8.814-3.864,9.982-4.462c3.524-1.818,5.296-2.623,6.425-3.399
		c2.245-1.544,4.614-3.199,4.457-4.314c-0.217-1.551-2.389-5.047-3.853-6.391c0.072-0.894,0.184-1.781,0.335-2.645
		c0.053-0.362,0.112-0.54,0.453-0.082c0.216,0.296,1.155,1.33,1.372,1.5c1.253,0.997,3.465,1.183,8.801,1.072
		c7.601-0.155,18.521-0.703,20.53-2.623c1.563-1.493,1.104-2.586,1.391-3.918c0.354-1.609,1.037-1.823,1.903,0.977
		c0.224,0.725,0.813,3.749,1.451,6.083c0.006,0.03-0.007-0.028,0,0c0.202,0.761,1.181,2.959,2.25,3.979
		c0.63,0.598,1.661,0.539,3.177,0.539c3.715,0,5.264-0.511,6.031-0.797c0.439-0.171,0.847-0.377,1.279-0.593
		c0.873-0.42,1.621-0.938,1.701-1.373c0.071-0.399-0.258-0.769-0.748-1.331c-0.775-0.886-1.971-2.003-2.719-2.977
		c-0.945-1.176-1.68-2.165-2.304-3.067c-0.157-0.235-0.308-0.465-0.46-0.687c-0.145-0.215-0.393-0.674-0.393-0.85
		c0-0.008,0-0.008,0-0.015c0.07-0.532,0.149-1.256,0.223-2.181c0.031-0.17,0.072-0.295,0.117-0.377l0.053-0.059
		c0.072-0.06,0.158-0.037,0.25,0.059c0.656,0.502,1.443,1.146,2.375,1.929c0.047,0.037,0.086,0.073,0.132,0.11
		c0.335,0.267,0.795,0.578,0.795,0.754c0,0.141-0.53,0.059-0.735,0.059c-0.399,0-0.742-0.029-1.018-0.081
		c0.007,0.015,0.007,0.022,0.02,0.037c0,0.015,0.008,0.03,0.026,0.044l0.007,0.008c0.282,0.428,1.614,1.654,2.842,2.867
		c1.254,1.248,2.651,2.852,2.822,3.85C169.621,152.677,168.439,154.207,167.027,155.352z"/>
	<path id="_x31_" fill="#009900" d="M109.457,153.4c-0.532,0.437-2.717,1.619-3.813,1.772c-0.728,0.097-2.356,0.163-3.688,0.2
		c-0.656,0.014-1.241,0.021-1.615,0.029h-0.262c-0.27,0-0.604-0.021-0.991-0.066c0.315,1.301,0.919,2.469,1.043,3.186
		c0.099,0.554,0.157,1.02,0.184,1.418c0.073,1.138-0.131,1.744-0.486,2.313c-0.354,0.576-1.982,2.792-4.751,4.743
		c-3.118,2.194-5.907,2.771-8.703,3.385c-0.577,0.125-1.365,0.259-2.31,0.412c0,0.009,0,0.009-0.007,0.009
		c-1.765,0.288-4.089,0.65-6.688,1.219c-0.414,0.11-0.749,0.17-0.991,0.17c-0.171,0-0.262-0.037-0.262-0.104
		c0-0.391,1.555-0.664,4.548-1.734c3.853-1.39,6.209-2.24,7.325-2.742c3.189-1.434,5.493-2.549,6.589-3.168
		c0.572-0.326,1.149-0.637,1.687-0.961c0.735-0.444,1.405-0.91,1.884-1.484c0.459-0.533,0.761-1.16,0.807-1.944
		c0.085-1.374-1.995-5.297-2.855-6.257c0.079-0.732,0.184-1.439,0.335-2.127c0.045-0.325,0.197-0.348,0.439-0.066
		c0.223,0.198,0.453,0.851,1.142,1.233c0.309,0.17,0.742,0.155,1.247,0.133c0.25-0.015,0.525-0.028,0.814-0.028
		c0.459,0,1.47-0.045,2.605-0.119c0.269-0.014,0.544-0.037,0.82-0.059c1.522-0.119,3.091-0.289,3.807-0.503
		c0.446-0.14,0.912-0.317,1.345-0.53c0.873-0.422,1.622-0.938,1.7-1.375c0.072-0.399-0.256-0.769-0.748-1.33
		c-0.774-0.888-1.969-2.002-2.717-2.978c-0.945-1.175-1.68-2.165-2.303-3.065c-0.158-0.237-0.315-0.465-0.46-0.688
		c-0.144-0.214-0.394-0.673-0.394-0.85c0-0.008,0-0.008,0-0.016c0.072-0.531,0.151-1.255,0.223-2.179
		c0.033-0.17,0.072-0.296,0.118-0.377c0.02-0.021,0.033-0.044,0.052-0.06c0.072-0.059,0.158-0.037,0.25,0.06
		c0.656,0.503,1.444,1.146,2.376,1.928c0.04,0.037,0.085,0.074,0.131,0.112c0.335,0.265,0.794,0.576,0.794,0.753
		c0,0.142-0.532,0.06-0.735,0.06c-0.4,0-0.742-0.029-1.017-0.082c0.006,0.016,0.006,0.022,0.02,0.037c0,0.016,0.006,0.03,0.02,0.045
		l0.007,0.006c0.289,0.43,1.621,1.655,2.842,2.867c1.253,1.249,2.658,2.854,2.829,3.85
		C112.042,150.727,110.868,152.255,109.457,153.4z"/>
	<path fill="#009900" d="M149.751,166.264c-0.933-0.472-1.563-0.877-1.892-1.218c-0.459,1.795-0.694,2.697-0.715,2.697
		c0.006,0.251,0.211,0.509,0.604,0.791c0.729,0.392,1.478,0.798,2.231,1.219c0.524-0.672,0.793-1.515,0.793-2.519
		C150.773,166.952,150.434,166.626,149.751,166.264z"/>
	<path fill="#009900" d="M157.428,128.712c-0.098,0-0.287,0.377-0.563,1.138c-0.276,0.726-0.414,1.131-0.414,1.213
		c0,0.229,0.354,0.576,1.057,1.049c0.506,0.281,1.018,0.591,1.549,0.931c0.25-0.312,0.467-0.806,0.645-1.47
		c0.203-0.563,0.302-0.969,0.302-1.219C160.001,130.072,159.146,129.525,157.428,128.712z M155.243,130.561
		c-0.833-0.555-1.451-1.05-1.858-1.471c-0.623,1.596-0.938,2.482-0.938,2.645c0,0.252,0.466,0.688,1.396,1.309
		c0.801,0.523,1.268,0.791,1.398,0.791c0.223,0,0.427-0.289,0.604-0.879c0.178-0.532,0.264-0.975,0.264-1.346
		C156.109,131.307,155.82,130.951,155.243,130.561z"/>
</g>
</svg>
