<?xml version="1.0" encoding="UTF-8"?>
<!DOCTYPE svg PUBLIC "-//W3C//DTD SVG 1.1//EN" "http://www.w3.org/Graphics/SVG/1.1/DTD/svg11.dtd">
<svg xmlns="http://www.w3.org/2000/svg" version="1.1" width="1800px" height="2300px" style="shape-rendering:geometricPrecision; text-rendering:geometricPrecision; image-rendering:optimizeQuality; fill-rule:evenodd; clip-rule:evenodd" xmlns:xlink="http://www.w3.org/1999/xlink">
<g><path style="opacity:0.959" fill="#010000" d="M 1084.5,2122.5 C 1083.9,2121.86 1083.07,2121.53 1082,2121.5C 1076.28,2122.47 1070.78,2123.81 1065.5,2125.5C 1061.55,2126.38 1057.55,2127.05 1053.5,2127.5C 1043.63,2128.29 1033.96,2129.63 1024.5,2131.5C 1016.6,2131.78 1008.94,2132.78 1001.5,2134.5C 988.901,2136.22 976.234,2137.22 963.5,2137.5C 941.662,2137.95 919.828,2138.62 898,2139.5C 868.817,2138.48 839.65,2137.14 810.5,2135.5C 805.797,2135.56 801.13,2135.23 796.5,2134.5C 786.034,2132.67 775.367,2131.34 764.5,2130.5C 757.051,2128.65 749.385,2127.31 741.5,2126.5C 738.455,2126.49 735.455,2126.16 732.5,2125.5C 724.322,2123.41 715.989,2121.41 707.5,2119.5C 706.584,2119.54 705.917,2119.88 705.5,2120.5C 567.174,2090 444.174,2029.83 336.5,1940C 235.87,1854.32 163.036,1749.16 118,1624.5C 94.4953,1555.81 82.3287,1485.14 81.5,1412.5C 82.2259,995.835 82.8925,579.168 83.5,162.5C 627.833,162.5 1172.17,162.5 1716.5,162.5C 1716.18,579.169 1716.51,995.836 1717.5,1412.5C 1716.36,1501.37 1698.53,1586.71 1664,1668.5C 1621.39,1765.57 1561.23,1850.07 1483.5,1922C 1465.5,1937 1447.5,1952 1429.5,1967C 1326.39,2043.8 1211.39,2095.63 1084.5,2122.5 Z"/></g>
<g><path style="opacity:1" fill="#fefefe" d="M 705.5,177.5 C 705.5,355.5 705.5,533.5 705.5,711.5C 685.765,736.243 681.265,763.576 692,793.5C 695.752,802.013 700.252,810.013 705.5,817.5C 705.5,819.833 705.5,822.167 705.5,824.5C 676.5,824.5 647.5,824.5 618.5,824.5C 626.589,799.207 622.423,776.207 606,755.5C 566.103,703.744 517.103,693.078 459,723.5C 466.355,694.692 461.688,668.026 445,643.5C 427.088,621.474 405.255,604.641 379.5,593C 371.389,590.093 363.223,588.259 355,587.5C 353.833,587.833 352.667,588.167 351.5,588.5C 372.833,645.5 394.167,702.5 415.5,759.5C 403.226,765.016 395.393,774.349 392,787.5C 389.697,802.091 393.863,814.424 404.5,824.5C 302.5,824.5 200.5,824.5 98.5,824.5C 98.5,608.833 98.5,393.167 98.5,177.5C 300.833,177.5 503.167,177.5 705.5,177.5 Z"/></g>
<g><path style="opacity:1" fill="#dc2223" d="M 705.5,176.5 C 831.833,176.5 958.167,176.5 1084.5,176.5C 1084.5,176.833 1084.5,177.167 1084.5,177.5C 1084.5,357.833 1084.5,538.167 1084.5,718.5C 1065.72,698.948 1042.56,689.615 1015,690.5C 1010.5,690.667 1006,690.833 1001.5,691C 996.373,691.87 991.373,692.87 986.5,694C 997.078,660.222 991.911,629.056 971,600.5C 944.33,564.427 909.163,551.927 865.5,563C 838.329,575.173 819.829,595.339 810,623.5C 803.056,646.06 804.556,668.06 814.5,689.5C 814.167,689.833 813.833,690.167 813.5,690.5C 772.828,675.16 736.828,682.16 705.5,711.5C 705.5,533.5 705.5,355.5 705.5,177.5C 705.5,177.167 705.5,176.833 705.5,176.5 Z"/></g>
<g><path style="opacity:1" fill="#fefefe" d="M 1084.5,177.5 C 1289.83,177.5 1495.17,177.5 1700.5,177.5C 1700.5,393.167 1700.5,608.833 1700.5,824.5C 1600.17,824.5 1499.83,824.5 1399.5,824.5C 1418.2,807.052 1423.03,786.385 1414,762.5C 1412.21,759.705 1410.04,757.205 1407.5,755C 1400.53,752.399 1393.53,749.899 1386.5,747.5C 1402.76,703.872 1418.93,660.205 1435,616.5C 1437.14,611.746 1439.47,607.079 1442,602.5C 1443.26,598.091 1442.43,594.257 1439.5,591C 1402.99,588.008 1373.82,601.175 1352,630.5C 1340.84,648.61 1336.18,668.277 1338,689.5C 1339.73,699.748 1342.06,709.748 1345,719.5C 1341.89,715.519 1338.06,712.352 1333.5,710C 1308.37,701.103 1283.37,701.437 1258.5,711C 1239.93,717.926 1223.76,728.426 1210,742.5C 1200.73,754.032 1194.4,767.032 1191,781.5C 1189.9,796.648 1192.73,810.981 1199.5,824.5C 1161.17,824.5 1122.83,824.5 1084.5,824.5C 1084.5,822.833 1084.5,821.167 1084.5,819.5C 1093.92,799.814 1098.59,778.981 1098.5,757C 1098.87,742.276 1094.2,729.443 1084.5,718.5C 1084.5,538.167 1084.5,357.833 1084.5,177.5 Z"/></g>
<g><path style="opacity:1" fill="#969696" d="M 705.5,176.5 C 705.5,176.833 705.5,177.167 705.5,177.5C 503.167,177.5 300.833,177.5 98.5,177.5C 98.5,393.167 98.5,608.833 98.5,824.5C 98.1667,824.5 97.8333,824.5 97.5,824.5C 97.5,608.5 97.5,392.5 97.5,176.5C 300.167,176.5 502.833,176.5 705.5,176.5 Z"/></g>
<g><path style="opacity:1" fill="#969696" d="M 1084.5,177.5 C 1084.5,177.167 1084.5,176.833 1084.5,176.5C 1290.17,176.5 1495.83,176.5 1701.5,176.5C 1701.5,392.5 1701.5,608.5 1701.5,824.5C 1701.17,824.5 1700.83,824.5 1700.5,824.5C 1700.5,608.833 1700.5,393.167 1700.5,177.5C 1495.17,177.5 1289.83,177.5 1084.5,177.5 Z"/></g>
<g><path style="opacity:1" fill="#070401" d="M 1084.5,718.5 C 1094.2,729.443 1098.87,742.276 1098.5,757C 1098.59,778.981 1093.92,799.814 1084.5,819.5C 1077.74,833.424 1067.41,843.924 1053.5,851C 1019.18,867.646 985.852,866.146 953.5,846.5C 953.44,845.957 953.107,845.624 952.5,845.5C 951.192,849.315 951.192,852.981 952.5,856.5C 955.754,871.612 963.421,884.112 975.5,894C 999.668,911.91 1026.67,923.576 1056.5,929C 1115.57,940.242 1172.9,934.575 1228.5,912C 1243.35,904.827 1256.51,895.327 1268,883.5C 1272.14,878.048 1275.64,872.215 1278.5,866C 1252.06,866.188 1229.23,857.355 1210,839.5C 1206.28,834.62 1202.78,829.62 1199.5,824.5C 1192.73,810.981 1189.9,796.648 1191,781.5C 1194.4,767.032 1200.73,754.032 1210,742.5C 1223.76,728.426 1239.93,717.926 1258.5,711C 1283.37,701.437 1308.37,701.103 1333.5,710C 1338.06,712.352 1341.89,715.519 1345,719.5C 1342.06,709.748 1339.73,699.748 1338,689.5C 1336.18,668.277 1340.84,648.61 1352,630.5C 1373.82,601.175 1402.99,588.008 1439.5,591C 1442.43,594.257 1443.26,598.091 1442,602.5C 1439.47,607.079 1437.14,611.746 1435,616.5C 1418.93,660.205 1402.76,703.872 1386.5,747.5C 1393.53,749.899 1400.53,752.399 1407.5,755C 1410.04,757.205 1412.21,759.705 1414,762.5C 1423.03,786.385 1418.2,807.052 1399.5,824.5C 1385.48,835.288 1369.48,840.955 1351.5,841.5C 1325.24,913.952 1298.57,986.285 1271.5,1058.5C 1277.51,1059.76 1282.01,1063.09 1285,1068.5C 1289.67,1075.51 1291.67,1083.18 1291,1091.5C 1281.52,1109.81 1266.68,1121.15 1246.5,1125.5C 1243.8,1133.91 1240.8,1142.24 1237.5,1150.5C 1242.45,1153.62 1246.62,1157.62 1250,1162.5C 1253.7,1174.92 1249.54,1183.42 1237.5,1188C 1010.17,1189.24 782.834,1189.57 555.5,1189C 545.817,1181.97 541.984,1172.47 544,1160.5C 546.726,1153.22 551.892,1148.89 559.5,1147.5C 559.67,1146.18 559.337,1145.01 558.5,1144C 544.171,1139 532.004,1130.83 522,1119.5C 516.604,1111.77 511.604,1103.77 507,1095.5C 506.832,1090.83 507.166,1086.16 508,1081.5C 513.713,1072.7 519.88,1064.37 526.5,1056.5C 500.038,986.616 473.872,916.616 448,846.5C 439.145,846.438 430.978,843.938 423.5,839C 416.721,834.718 410.388,829.884 404.5,824.5C 393.863,814.424 389.697,802.091 392,787.5C 395.393,774.349 403.226,765.016 415.5,759.5C 394.167,702.5 372.833,645.5 351.5,588.5C 352.667,588.167 353.833,587.833 355,587.5C 363.223,588.259 371.389,590.093 379.5,593C 405.255,604.641 427.088,621.474 445,643.5C 461.688,668.026 466.355,694.692 459,723.5C 517.103,693.078 566.103,703.744 606,755.5C 622.423,776.207 626.589,799.207 618.5,824.5C 611.469,841.033 599.802,853.199 583.5,861C 566.375,868.948 548.375,873.448 529.5,874.5C 542.199,900.366 561.199,920.2 586.5,934C 631.079,957.161 678.079,963.828 727.5,954C 764.704,946.488 796.204,928.988 822,901.5C 836.464,884.438 844.464,864.771 846,842.5C 835.504,850.447 823.671,855.281 810.5,857C 777.79,860.407 748.123,852.741 721.5,834C 715.936,828.605 710.603,823.105 705.5,817.5C 700.252,810.013 695.752,802.013 692,793.5C 681.265,763.576 685.765,736.243 705.5,711.5C 736.828,682.16 772.828,675.16 813.5,690.5C 813.833,690.167 814.167,689.833 814.5,689.5C 804.556,668.06 803.056,646.06 810,623.5C 819.829,595.339 838.329,575.173 865.5,563C 909.163,551.927 944.33,564.427 971,600.5C 991.911,629.056 997.078,660.222 986.5,694C 991.373,692.87 996.373,691.87 1001.5,691C 1006,690.833 1010.5,690.667 1015,690.5C 1042.56,689.615 1065.72,698.948 1084.5,718.5 Z"/></g>
<g><path style="opacity:1" fill="#ecca25" d="M 882.5,568.5 C 920.728,567.028 949.562,582.695 969,615.5C 980.436,634.68 984.436,655.347 981,677.5C 979.406,682.701 978.406,688.034 978,693.5C 972.869,701.596 967.369,709.429 961.5,717C 967.56,713.467 973.893,710.133 980.5,707C 1005.27,698.176 1029.93,698.509 1054.5,708C 1081.62,721.066 1092.79,742.566 1088,772.5C 1086.58,793.321 1079.58,811.987 1067,828.5C 1053.1,841.533 1036.6,849.366 1017.5,852C 1006.78,852.875 996.116,852.541 985.5,851C 965.609,843.478 948.109,832.311 933,817.5C 934.545,843.689 942.545,867.689 957,889.5C 972.357,905.769 990.524,917.936 1011.5,926C 1082.25,950.837 1152.92,950.504 1223.5,925C 1248.85,915.077 1269.69,899.244 1286,877.5C 1293.36,869.802 1301.03,862.469 1309,855.5C 1310.47,850.967 1308.8,848.633 1304,848.5C 1273.07,861.18 1244.9,856.68 1219.5,835C 1195.16,807.204 1194.33,778.704 1217,749.5C 1243.13,723.456 1274.63,711.623 1311.5,714C 1321,715.32 1329.5,718.82 1337,724.5C 1339.87,727.736 1342.37,731.236 1344.5,735C 1347.89,736.168 1350.56,735.334 1352.5,732.5C 1354.42,731.692 1356.42,731.192 1358.5,731C 1359.8,730.196 1360.47,729.029 1360.5,727.5C 1349.12,707.216 1345.29,685.549 1349,662.5C 1358.31,629.854 1379.48,609.354 1412.5,601C 1418.17,600.333 1423.83,600.333 1429.5,601C 1411.75,650.925 1393.58,700.758 1375,750.5C 1367.85,755.778 1361.18,761.778 1355,768.5C 1346.03,779.75 1341.19,792.583 1340.5,807C 1341.21,816.314 1342.38,825.481 1344,834.5C 1322.72,892.164 1301.56,949.83 1280.5,1007.5C 1038.03,1003.66 795.531,1000.33 553,997.5C 540.456,997.509 527.956,997.843 515.5,998.5C 495.258,944.604 474.925,890.771 454.5,837C 457.177,827.805 457.01,818.638 454,809.5C 450.049,796.626 444.382,784.626 437,773.5C 434.297,770.462 431.297,767.795 428,765.5C 407.5,710.5 387,655.5 366.5,600.5C 367,600.167 367.5,599.833 368,599.5C 398.207,610.445 422.541,629.112 441,655.5C 455.78,681.453 456.114,707.453 442,733.5C 440.333,735.167 438.667,736.833 437,738.5C 436.5,743.333 438.667,745.5 443.5,745C 453.096,739.528 462.429,733.528 471.5,727C 526.844,704.953 570.678,718.786 603,768.5C 612.841,784.069 615.174,800.735 610,818.5C 603.127,836.372 590.627,848.538 572.5,855C 555.496,861.597 537.829,864.93 519.5,865C 516.797,866.82 515.964,869.32 517,872.5C 533.592,908.425 560.092,934.258 596.5,950C 647.925,970.698 700.258,973.032 753.5,957C 789.462,945.348 818.295,924.181 840,893.5C 853.91,870.058 859.244,844.725 856,817.5C 843.421,836.068 825.921,846.235 803.5,848C 776.07,849.229 751.07,842.229 728.5,827C 706.978,808.791 696.145,785.625 696,757.5C 698.339,737.309 707.505,721.142 723.5,709C 745.184,693.04 769.184,688.373 795.5,695C 803.761,697.865 812.094,700.531 820.5,703C 828.045,706.947 835.712,710.28 843.5,713C 832.574,701.406 824.074,688.239 818,673.5C 811.045,638.365 820.878,608.865 847.5,585C 853.566,580.605 859.9,576.605 866.5,573C 871.956,571.473 877.289,569.973 882.5,568.5 Z"/></g>
<g><path style="opacity:1" fill="#070501" d="M 887.5,734.5 C 909.398,731.701 925.898,739.701 937,758.5C 944.251,782.744 936.418,800.244 913.5,811C 888.978,818.386 870.145,811.22 857,789.5C 849.921,761.662 860.087,743.329 887.5,734.5 Z"/></g>
<g><path style="opacity:1" fill="#ebc825" d="M 888.5,744.5 C 905.821,741.759 918.988,747.759 928,762.5C 932.852,787.532 922.352,801.532 896.5,804.5C 877.551,802.711 866.551,792.545 863.5,774C 865.529,758.806 873.862,748.973 888.5,744.5 Z"/></g>
<g><path style="opacity:1" fill="#ebc825" d="M 1383.5,756.5 C 1388.06,755.658 1391.73,756.991 1394.5,760.5C 1402.96,762.466 1407.8,767.799 1409,776.5C 1409.47,802.035 1397.64,819.202 1373.5,828C 1367.93,829.971 1362.27,830.971 1356.5,831C 1353.77,828.374 1351.94,825.207 1351,821.5C 1349.97,813.669 1350.63,806.002 1353,798.5C 1359.23,781.467 1369.4,767.467 1383.5,756.5 Z"/></g>
<g><path style="opacity:1" fill="#eac825" d="M 419.5,769.5 C 424.644,771.467 429.144,774.467 433,778.5C 440.174,786.834 445.84,796.168 450,806.5C 451.515,813.767 451.848,821.101 451,828.5C 448.834,832.395 445.501,834.728 441,835.5C 427.001,830.993 415.334,822.993 406,811.5C 398.319,796.718 400.486,783.552 412.5,772C 414.927,771.098 417.26,770.264 419.5,769.5 Z"/></g>
<g><path style="opacity:1" fill="#dc2223" d="M 705.5,817.5 C 710.603,823.105 715.936,828.605 721.5,834C 748.123,852.741 777.79,860.407 810.5,857C 823.671,855.281 835.504,850.447 846,842.5C 844.464,864.771 836.464,884.438 822,901.5C 796.204,928.988 764.704,946.488 727.5,954C 678.079,963.828 631.079,957.161 586.5,934C 561.199,920.2 542.199,900.366 529.5,874.5C 548.375,873.448 566.375,868.948 583.5,861C 599.802,853.199 611.469,841.033 618.5,824.5C 647.5,824.5 676.5,824.5 705.5,824.5C 705.5,822.167 705.5,819.833 705.5,817.5 Z"/></g>
<g><path style="opacity:1" fill="#dc2223" d="M 1084.5,819.5 C 1084.5,821.167 1084.5,822.833 1084.5,824.5C 1122.83,824.5 1161.17,824.5 1199.5,824.5C 1202.78,829.62 1206.28,834.62 1210,839.5C 1229.23,857.355 1252.06,866.188 1278.5,866C 1275.64,872.215 1272.14,878.048 1268,883.5C 1256.51,895.327 1243.35,904.827 1228.5,912C 1172.9,934.575 1115.57,940.242 1056.5,929C 1026.67,923.576 999.668,911.91 975.5,894C 963.421,884.112 955.754,871.612 952.5,856.5C 952.187,852.958 952.521,849.625 953.5,846.5C 985.852,866.146 1019.18,867.646 1053.5,851C 1067.41,843.924 1077.74,833.424 1084.5,819.5 Z"/></g>
<g><path style="opacity:1" fill="#dc2223" d="M 97.5,824.5 C 97.8333,824.5 98.1667,824.5 98.5,824.5C 200.5,824.5 302.5,824.5 404.5,824.5C 410.388,829.884 416.721,834.718 423.5,839C 430.978,843.938 439.145,846.438 448,846.5C 473.872,916.616 500.038,986.616 526.5,1056.5C 519.88,1064.37 513.713,1072.7 508,1081.5C 507.166,1086.16 506.832,1090.83 507,1095.5C 511.604,1103.77 516.604,1111.77 522,1119.5C 532.004,1130.83 544.171,1139 558.5,1144C 559.337,1145.01 559.67,1146.18 559.5,1147.5C 551.892,1148.89 546.726,1153.22 544,1160.5C 541.984,1172.47 545.817,1181.97 555.5,1189C 782.834,1189.57 1010.17,1189.24 1237.5,1188C 1249.54,1183.42 1253.7,1174.92 1250,1162.5C 1246.62,1157.62 1242.45,1153.62 1237.5,1150.5C 1240.8,1142.24 1243.8,1133.91 1246.5,1125.5C 1266.68,1121.15 1281.52,1109.81 1291,1091.5C 1291.67,1083.18 1289.67,1075.51 1285,1068.5C 1282.01,1063.09 1277.51,1059.76 1271.5,1058.5C 1298.57,986.285 1325.24,913.952 1351.5,841.5C 1369.48,840.955 1385.48,835.288 1399.5,824.5C 1499.83,824.5 1600.17,824.5 1700.5,824.5C 1700.83,824.5 1701.17,824.5 1701.5,824.5C 1701.5,947.833 1701.5,1071.17 1701.5,1194.5C 1495.83,1194.5 1290.17,1194.5 1084.5,1194.5C 1084.5,1498.5 1084.5,1802.5 1084.5,2106.5C 1075.78,2109.3 1066.78,2111.46 1057.5,2113C 1034.59,2116.57 1011.59,2119.41 988.5,2121.5C 973.641,2121.88 958.974,2122.88 944.5,2124.5C 928.841,2125.28 913.174,2125.94 897.5,2126.5C 870.824,2125.29 844.157,2123.95 817.5,2122.5C 812.084,2120.88 806.417,2120.22 800.5,2120.5C 797.098,2120.66 793.764,2120.32 790.5,2119.5C 785.417,2117.92 780.084,2117.25 774.5,2117.5C 751.018,2115.06 728.018,2110.73 705.5,2104.5C 705.5,1801.17 705.5,1497.83 705.5,1194.5C 502.833,1194.5 300.167,1194.5 97.5,1194.5C 97.5,1071.17 97.5,947.833 97.5,824.5 Z"/></g>
<g><path style="opacity:1" fill="#5b0e0f" d="M 953.5,846.5 C 952.521,849.625 952.187,852.958 952.5,856.5C 951.192,852.981 951.192,849.315 952.5,845.5C 953.107,845.624 953.44,845.957 953.5,846.5 Z"/></g>
<g><path style="opacity:1" fill="#e9c725" d="M 1274.5,1023.5 C 1213.24,1024.5 1151.9,1024.83 1090.5,1024.5C 901.832,1024.83 713.165,1024.5 524.5,1023.5C 522.777,1018.39 520.777,1013.39 518.5,1008.5C 528.5,1008.17 538.5,1007.83 548.5,1007.5C 778.171,1010 1007.84,1012.83 1237.5,1016C 1250.51,1016.17 1263.51,1016.67 1276.5,1017.5C 1275.63,1019.45 1274.96,1021.45 1274.5,1023.5 Z"/></g>
<g><path style="opacity:1" fill="#41370b" d="M 1274.5,1023.5 C 1244.17,1024.83 1213.51,1025.5 1182.5,1025.5C 1151.66,1025.5 1121,1025.17 1090.5,1024.5C 1151.9,1024.83 1213.24,1024.5 1274.5,1023.5 Z"/></g>
<g><path style="opacity:1" fill="#ecc925" d="M 528.5,1034.5 C 775.5,1034.5 1022.5,1034.5 1269.5,1034.5C 1266.91,1043.28 1263.91,1051.95 1260.5,1060.5C 1240.24,1067.48 1219.9,1074.32 1199.5,1081C 1188.19,1085.96 1187.53,1092.29 1197.5,1100C 1210.36,1108.93 1223.36,1117.59 1236.5,1126C 1233.74,1132.79 1231.07,1139.63 1228.5,1146.5C 1009.17,1147.83 789.833,1147.83 570.5,1146.5C 568.801,1143.23 567.635,1139.9 567,1136.5C 578,1126.83 589,1117.17 600,1107.5C 601.128,1105.65 601.628,1103.65 601.5,1101.5C 604.141,1102.26 606.808,1102.43 609.5,1102C 612.978,1099.29 613.311,1096.29 610.5,1093C 596.616,1089.78 582.95,1085.78 569.5,1081C 559.5,1075 549.5,1069 539.5,1063C 535.537,1053.61 531.87,1044.11 528.5,1034.5 Z"/></g>
<g><path style="opacity:1" fill="#050300" d="M 899.5,1055.5 C 902.794,1055.26 905.794,1056.09 908.5,1058C 925.34,1067.59 942.34,1076.92 959.5,1086C 964.118,1088.95 968.452,1092.28 972.5,1096C 947.558,1110.3 922.225,1123.8 896.5,1136.5C 872.214,1124.61 848.047,1112.27 824,1099.5C 823.223,1096.57 823.39,1093.74 824.5,1091C 849.833,1079.66 874.833,1067.83 899.5,1055.5 Z"/></g>
<g><path style="opacity:1" fill="#050400" d="M 1006.5,1065.5 C 1060.85,1065.88 1115.18,1067.05 1169.5,1069C 1170.1,1070.06 1170.43,1071.23 1170.5,1072.5C 1165.98,1089.26 1161.14,1105.93 1156,1122.5C 1155.25,1123.13 1154.42,1123.63 1153.5,1124C 1103.17,1124.18 1052.83,1124.01 1002.5,1123.5C 1003.01,1104.04 1004.34,1084.71 1006.5,1065.5 Z"/></g>
<g><path style="opacity:1" fill="#080601" d="M 776.5,1066.5 C 783.841,1066.33 791.174,1066.5 798.5,1067C 799,1067.5 799.5,1068 800,1068.5C 800.5,1087.83 800.667,1107.16 800.5,1126.5C 749.479,1126.12 698.479,1126.79 647.5,1128.5C 646.167,1128.17 644.833,1127.83 643.5,1127.5C 637.341,1108.69 632.008,1089.69 627.5,1070.5C 677.342,1070.56 727.008,1069.22 776.5,1066.5 Z"/></g>
<g><path style="opacity:1" fill="#e7c524" d="M 943.5,1088.5 C 930.01,1089.5 916.344,1089.83 902.5,1089.5C 902.169,1081.8 902.503,1074.14 903.5,1066.5C 916.86,1073.85 930.194,1081.18 943.5,1088.5 Z"/></g>
<g><path style="opacity:1" fill="#e4c224" d="M 1267.5,1068.5 C 1271.27,1067.82 1274.11,1069.16 1276,1072.5C 1278.32,1076.63 1280.15,1080.96 1281.5,1085.5C 1280.97,1086.19 1280.31,1086.69 1279.5,1087C 1265.52,1088.78 1251.52,1088.95 1237.5,1087.5C 1226.63,1089.92 1215.63,1091.59 1204.5,1092.5C 1203.69,1092.19 1203.03,1091.69 1202.5,1091C 1224.27,1083.58 1245.94,1076.08 1267.5,1068.5 Z"/></g>
<g><path style="opacity:1" fill="#e7c524" d="M 528.5,1069.5 C 532.362,1070.43 536.029,1071.93 539.5,1074C 547.234,1079.4 555.234,1084.4 563.5,1089C 548.17,1088.8 532.836,1088.3 517.5,1087.5C 517.491,1085.69 517.991,1084.02 519,1082.5C 522.176,1078.14 525.343,1073.8 528.5,1069.5 Z"/></g>
<g><path style="opacity:1" fill="#e9c725" d="M 890.5,1070.5 C 892.456,1076.41 893.123,1082.75 892.5,1089.5C 879.163,1089.67 865.829,1089.5 852.5,1089C 865.381,1083.06 878.047,1076.89 890.5,1070.5 Z"/></g>
<g><path style="opacity:1" fill="#e9c725" d="M 1032.5,1075.5 C 1034.17,1075.5 1035.83,1075.5 1037.5,1075.5C 1033.17,1088.17 1028.83,1100.83 1024.5,1113.5C 1020.5,1113.5 1016.5,1113.5 1012.5,1113.5C 1013.03,1102.16 1013.7,1090.82 1014.5,1079.5C 1015.43,1078.43 1015.77,1077.1 1015.5,1075.5C 1021.17,1075.5 1026.83,1075.5 1032.5,1075.5 Z"/></g>
<g><path style="opacity:1" fill="#e7c525" d="M 1048.5,1075.5 C 1073.83,1076.24 1099.16,1076.91 1124.5,1077.5C 1124.06,1084.92 1123.06,1092.25 1121.5,1099.5C 1094.45,1099.52 1067.45,1098.52 1040.5,1096.5C 1043.46,1089.59 1046.12,1082.59 1048.5,1075.5 Z"/></g>
<g><path style="opacity:1" fill="#8d7816" d="M 740.5,1078.5 C 743.984,1077.83 747.651,1077.5 751.5,1077.5C 755.565,1077.51 759.232,1078.18 762.5,1079.5C 755.254,1078.54 747.92,1078.2 740.5,1078.5 Z"/></g>
<g><path style="opacity:1" fill="#e9c725" d="M 772.5,1076.5 C 778.5,1076.5 784.5,1076.5 790.5,1076.5C 790.5,1089.83 790.5,1103.17 790.5,1116.5C 785.5,1116.5 780.5,1116.5 775.5,1116.5C 774.405,1103.17 773.405,1089.84 772.5,1076.5 Z"/></g>
<g><path style="opacity:1" fill="#eac825" d="M 740.5,1078.5 C 747.92,1078.2 755.254,1078.54 762.5,1079.5C 763.957,1091.77 764.957,1104.11 765.5,1116.5C 733.499,1116.78 701.499,1117.11 669.5,1117.5C 673.371,1105.22 677.038,1092.89 680.5,1080.5C 700.468,1079.26 720.468,1078.6 740.5,1078.5 Z"/></g>
<g><path style="opacity:1" fill="#6b5b10" d="M 1032.5,1075.5 C 1026.83,1075.5 1021.17,1075.5 1015.5,1075.5C 1015.77,1077.1 1015.43,1078.43 1014.5,1079.5C 1014.5,1077.83 1014.5,1076.17 1014.5,1074.5C 1020.69,1074.18 1026.69,1074.51 1032.5,1075.5 Z"/></g>
<g><path style="opacity:1" fill="#e7c524" d="M 1148.5,1114.5 C 1141.65,1114.82 1134.98,1114.49 1128.5,1113.5C 1130.15,1101.6 1132.81,1089.93 1136.5,1078.5C 1143.8,1077.5 1151.14,1077.17 1158.5,1077.5C 1155.32,1089.89 1151.99,1102.23 1148.5,1114.5 Z"/></g>
<g><path style="opacity:1" fill="#ebc825" d="M 640.5,1081.5 C 650.522,1081.17 660.522,1081.5 670.5,1082.5C 666.697,1093.91 662.697,1105.24 658.5,1116.5C 655.833,1117.83 653.167,1117.83 650.5,1116.5C 646.696,1104.95 643.363,1093.28 640.5,1081.5 Z"/></g>
<g><path style="opacity:1" fill="#736212" d="M 943.5,1088.5 C 944.473,1088.99 945.473,1089.49 946.5,1090C 931.661,1090.83 916.994,1090.66 902.5,1089.5C 916.344,1089.83 930.01,1089.5 943.5,1088.5 Z"/></g>
<g><path style="opacity:1" fill="#e7c524" d="M 1232.5,1097.5 C 1246.17,1097.76 1259.84,1098.26 1273.5,1099C 1270.34,1103.58 1266.34,1107.25 1261.5,1110C 1255.41,1112.41 1249.41,1114.91 1243.5,1117.5C 1234.65,1112.91 1226.32,1107.58 1218.5,1101.5C 1223.28,1100.14 1227.95,1098.81 1232.5,1097.5 Z"/></g>
<g><path style="opacity:1" fill="#e9c725" d="M 584.5,1100.5 C 586.5,1101.17 588.5,1101.83 590.5,1102.5C 579.157,1113.56 567.49,1123.56 555.5,1132.5C 539.436,1125.72 527.769,1114.38 520.5,1098.5C 541.785,1098.55 563.118,1099.22 584.5,1100.5 Z"/></g>
<g><path style="opacity:1" fill="#eac825" d="M 892.5,1099.5 C 892.825,1107.35 892.492,1115.02 891.5,1122.5C 876.132,1115.32 860.799,1107.82 845.5,1100C 861.163,1099.5 876.83,1099.33 892.5,1099.5 Z"/></g>
<g><path style="opacity:1" fill="#837014" d="M 938.5,1101.5 C 927.012,1100.51 915.345,1100.17 903.5,1100.5C 903.5,1107.5 903.5,1114.5 903.5,1121.5C 902.508,1114.35 902.175,1107.02 902.5,1099.5C 915.171,1099.33 927.838,1099.5 940.5,1100C 939.956,1100.72 939.289,1101.22 938.5,1101.5 Z"/></g>
<g><path style="opacity:1" fill="#836f14" d="M 584.5,1100.5 C 587.187,1100.34 589.854,1100.5 592.5,1101C 591.956,1101.72 591.289,1102.22 590.5,1102.5C 588.5,1101.83 586.5,1101.17 584.5,1100.5 Z"/></g>
<g><path style="opacity:1" fill="#eac725" d="M 938.5,1101.5 C 926.833,1108.17 915.167,1114.83 903.5,1121.5C 903.5,1114.5 903.5,1107.5 903.5,1100.5C 915.345,1100.17 927.012,1100.51 938.5,1101.5 Z"/></g>
<g><path style="opacity:1" fill="#debd23" d="M 1101.5,1108.5 C 1107.17,1109.17 1112.83,1109.83 1118.5,1110.5C 1118.5,1111.83 1118.5,1113.17 1118.5,1114.5C 1090.47,1114.93 1062.47,1114.43 1034.5,1113C 1035.26,1111.56 1035.93,1110.06 1036.5,1108.5C 1041.33,1108.17 1046.17,1107.83 1051,1107.5C 1067.83,1108.23 1084.66,1108.56 1101.5,1108.5 Z"/></g>
<g><path style="opacity:1" fill="#42390c" d="M 1101.5,1108.5 C 1107.54,1108.17 1113.54,1108.5 1119.5,1109.5C 1119.38,1110.11 1119.04,1110.44 1118.5,1110.5C 1112.83,1109.83 1107.17,1109.17 1101.5,1108.5 Z"/></g>
<g><path style="opacity:1" fill="#907b16" d="M 892.5,1099.5 C 893.82,1107.34 893.82,1115.34 892.5,1123.5C 891.893,1123.38 891.56,1123.04 891.5,1122.5C 892.492,1115.02 892.825,1107.35 892.5,1099.5 Z"/></g>
<g><path style="opacity:1" fill="#594c0e" d="M 1128.5,1113.5 C 1134.98,1114.49 1141.65,1114.82 1148.5,1114.5C 1141.66,1115.82 1134.66,1115.82 1127.5,1114.5C 1127.62,1113.89 1127.96,1113.56 1128.5,1113.5 Z"/></g>
<g><path style="opacity:1" fill="#ebc825" d="M 558.5,1157.5 C 781.834,1157.33 1005.17,1157.5 1228.5,1158C 1233.41,1159.71 1237.58,1162.54 1241,1166.5C 1242.76,1174.41 1239.59,1178.57 1231.5,1179C 1007.5,1179.67 783.5,1179.67 559.5,1179C 557.333,1178.17 555.833,1176.67 555,1174.5C 553.156,1169.79 553.156,1165.12 555,1160.5C 556.145,1159.36 557.312,1158.36 558.5,1157.5 Z"/></g>
<g><path style="opacity:1" fill="#fefefe" d="M 97.5,1194.5 C 300.167,1194.5 502.833,1194.5 705.5,1194.5C 705.5,1497.83 705.5,1801.17 705.5,2104.5C 683.628,2099.99 661.961,2094.65 640.5,2088.5C 637.916,2086.53 634.916,2085.53 631.5,2085.5C 499.148,2043.42 384.648,1972.76 288,1873.5C 222.868,1803.3 172.868,1723.3 138,1633.5C 114.891,1569.83 101.558,1504.17 98,1436.5C 98.7656,1355.83 98.5989,1275.17 97.5,1194.5 Z"/></g>
<g><path style="opacity:1" fill="#fefefe" d="M 1701.5,1194.5 C 1700.4,1275.17 1700.23,1355.83 1701,1436.5C 1693.36,1569.11 1651.02,1689.11 1574,1796.5C 1525.42,1864.42 1466.92,1922.25 1398.5,1970C 1303.82,2037.48 1199.16,2082.98 1084.5,2106.5C 1084.5,1802.5 1084.5,1498.5 1084.5,1194.5C 1290.17,1194.5 1495.83,1194.5 1701.5,1194.5 Z"/></g>
<g><path style="opacity:1" fill="#848484" d="M 631.5,2085.5 C 634.916,2085.53 637.916,2086.53 640.5,2088.5C 637.215,2088.07 634.215,2087.07 631.5,2085.5 Z"/></g>
<g><path style="opacity:1" fill="#961718" d="M 774.5,2117.5 C 780.084,2117.25 785.417,2117.92 790.5,2119.5C 784.949,2119.47 779.616,2118.81 774.5,2117.5 Z"/></g>
<g><path style="opacity:1" fill="#6b1112" d="M 800.5,2120.5 C 806.417,2120.22 812.084,2120.88 817.5,2122.5C 811.611,2122.55 805.944,2121.88 800.5,2120.5 Z"/></g>
<g><path style="opacity:0.639" fill="#901617" d="M 705.5,2120.5 C 705.917,2119.88 706.584,2119.54 707.5,2119.5C 715.989,2121.41 724.322,2123.41 732.5,2125.5C 723.325,2124.73 714.325,2123.06 705.5,2120.5 Z"/></g>
<g><path style="opacity:1" fill="#430e0d" d="M 988.5,2121.5 C 974.064,2123.65 959.397,2124.65 944.5,2124.5C 958.974,2122.88 973.641,2121.88 988.5,2121.5 Z"/></g>
<g><path style="opacity:0.478" fill="#a91a1b" d="M 1084.5,2122.5 C 1078.32,2124.25 1071.99,2125.25 1065.5,2125.5C 1070.78,2123.81 1076.28,2122.47 1082,2121.5C 1083.07,2121.53 1083.9,2121.86 1084.5,2122.5 Z"/></g>
<g><path style="opacity:0.931" fill="#590e0f" d="M 741.5,2126.5 C 749.385,2127.31 757.051,2128.65 764.5,2130.5C 763.5,2130.5 762.5,2130.5 761.5,2130.5C 754.54,2130.04 747.873,2128.71 741.5,2126.5 Z"/></g>
<g><path style="opacity:0.897" fill="#751213" d="M 1053.5,2127.5 C 1045.8,2129.89 1037.8,2131.23 1029.5,2131.5C 1027.83,2131.5 1026.17,2131.5 1024.5,2131.5C 1033.96,2129.63 1043.63,2128.29 1053.5,2127.5 Z"/></g>
<g><path style="opacity:0.674" fill="#a91a1b" d="M 1024.5,2131.5 C 1026.17,2131.5 1027.83,2131.5 1029.5,2131.5C 1020.4,2133.36 1011.07,2134.36 1001.5,2134.5C 1008.94,2132.78 1016.6,2131.78 1024.5,2131.5 Z"/></g>
<g><path style="opacity:0.227" fill="#ab1a1b" d="M 761.5,2130.5 C 762.5,2130.5 763.5,2130.5 764.5,2130.5C 775.367,2131.34 786.034,2132.67 796.5,2134.5C 784.597,2134.03 772.93,2132.7 761.5,2130.5 Z"/></g>
<g><path style="opacity:0.467" fill="#731212" d="M 810.5,2135.5 C 839.65,2137.14 868.817,2138.48 898,2139.5C 919.828,2138.62 941.662,2137.95 963.5,2137.5C 912.442,2141.86 861.442,2141.19 810.5,2135.5 Z"/></g>
</svg>
