<svg id="Layer_2" data-name="Layer 2" xmlns="http://www.w3.org/2000/svg" viewBox="0 0 497.42383 534.28252"><defs><style>.cls-1{fill:#231f20;}</style></defs><path class="cls-1" d="M362.77222,180.99146c-.19269,2.31207-.19269,6.93615-.77069,6.93615-1.6377-.09637-4.91309.289-4.91309-.289.19269-2.31207-.09631-6.83978.578-6.93616C359.40051,180.70245,362.77222,180.22083,362.77222,180.99146Zm-7.0437,7.64886c.57806,0,.57806-4.624.77069-6.9361,0-.77069-3.37171-.289-5.10572-.289-.67437.09632-.38537,4.62409-.578,6.9361C350.9118,189.0257,354.09088,188.544,355.72852,188.64032Zm3.828-8.98157c.57806,0,.57806-4.62408.77069-6.93609-.09631-.67438-3.468-.19269-5.10571-.289-.67438.09632-.38538,4.624-.578,6.9361C354.64349,179.94775,357.91882,179.56244,359.55652,179.65875Zm-171.74616,2.26184c-.545-.40875-3.54223,2.9972-5.31329,4.49585-.40875.40869,2.17981,2.45227,3.26971,3.67841.4087.40875,3.67841-2.861,5.44953-4.35962C191.76123,185.19031,189.0365,183.14673,187.81036,181.92059Zm-6.13116-2.82531c-.545-.4087-3.54218,2.99725-5.31329,4.49585-.4087.545,2.17981,2.45227,3.26971,3.6784.40869.40875,3.67841-2.861,5.44952-4.35962C185.63007,182.365,182.90533,180.32141,181.6792,179.09528ZM185.97,181.668c.40869.40869,3.67841-2.861,5.44952-4.35962.4087-.545-2.316-2.5885-3.40594-3.81464-.545-.40875-3.54218,2.9972-5.31329,4.49585C182.29156,178.39825,184.88007,180.44183,185.97,181.668Zm170.37842,32.72967c-.56134-.14459-1.813,3.50769-2.71954,5.26154-.18879.45416,2.51086,1.22113,3.76629,1.83173.45416.18878,1.96442-3.44477,2.871-5.19861C360.51782,215.68671,357.711,214.964,356.34839,214.39764Zm-7.09436.47748c-.56134-.14459-1.813,3.50769-2.71961,5.26154-.14453.56134,2.51087,1.22113,3.7663,1.83172.45416.18879,1.96442-3.44476,2.871-5.1986C353.4234,216.16418,350.61658,215.44147,349.254,214.87512Zm5.001.88446c.45423.18878,1.96448-3.44482,2.871-5.19867.14453-.56134-2.66223-1.28405-3.91767-1.89465-.56134-.14453-1.813,3.50769-2.71954,5.2616C350.3,214.382,352.99957,215.149,354.255,215.75958Zm-15.12731-19.92981c1.68273-.15808,2.56951-3.4693,3.12762-5.55316a20.7537,20.7537,0,0,0,.70215-5.42554q-1.78721-.19152-3.57446-.383c-.67682,2.043-1.29084,3.66022-1.71418,4.73212-.97821,2.47692-1.45276,3.345-1.09436,4.45935C336.939,194.79285,338.08362,195.92786,339.12769,195.82977Zm-90.06385,44.42554a7.67973,7.67973,0,0,1-5.93615-1.78723,8.81238,8.81238,0,0,1-2.659-3.75794,11.45889,11.45889,0,0,1-.59631-5.6889,82.99372,82.99372,0,0,1,2.29785-11.74463,44.51447,44.51447,0,0,0,1.13348-11.87378,4.72187,4.72187,0,0,0-3.62372.70056c-1.80645,1.45356-.81787,4.31214-1.46722,9.57746-.22974,1.863-.3053,1.15008-1.31378,6.00427-1.32172,6.36224-1.97541,9.59625-1.62238,12.18719a15.37447,15.37447,0,0,0,3.42059,8.08857c.88819,1.039,3.1092,3.6372,6.42328,3.95672a11.19013,11.19013,0,0,0,3.56147-.43365c3.15246-.67066,4.32775-1.53882,5.935-1.97333,2.99134-.80865,5.0318.54633,8.93622,1.78723a49.47352,49.47352,0,0,0,31.21277-1.44678,39.95087,39.95087,0,0,0,7.14893-4,11.47457,11.47457,0,0,0,8.74469-.55322,10.015,10.015,0,0,0,2.74469-2.17023c.14746.05311,3.477,1.19056,5.95739-.93615a5.78307,5.78307,0,0,0,1.87238-3.40424,7.39656,7.39656,0,0,0,5.70209-.766c3.95282-2.7063,2.46173-9.6286,2.21344-10.78119a13.79088,13.79088,0,0,0-3.29853-6.51666c-1.32171-1.41687-2.73455-2.19867-5.55658-3.76557-4.02282-2.23364-6.01049-2.62109-6.571-4.50036a5.17011,5.17011,0,0,1,.19147-2.84046c.27935-1.11975.78735-2.17974,2.55316-4.43615a49.46137,49.46137,0,0,1,3.86169-4.37232,20.79672,20.79672,0,0,1,1.11707,2.10633c.56347,1.22723.65118,1.758,1.02124,2.48938a8.96309,8.96309,0,0,0,2.36169,2.80853c2.19257,1.90845,4.22113,4.00262,6.44684,5.87231,6.5249,5.48139,6.38373,6.11988,8.48938,6.89362a13.59747,13.59747,0,0,0,7.53192.383c.33344-.298,4.97949-4.5849,3.89362-10.21276-.77289-4.00568-4.27631-7.79242-7.40491-7.7165a3.3331,3.3331,0,0,0-2.73651,1.33149c-.305.58886.38574,2.06958,1.05786,2.70947a13.2104,13.2104,0,0,0,2.18427,1.74841c1.49456.94818,1.78833.8017,2.11206,1.28882.76513,1.15149.131,3.4856-1.4043,4.65961a4.85968,4.85968,0,0,1-4.21277.57446c-1.183-.35028-1.70013-.97156-3.72864-2.93463-.00006-.00012-.74047-.71662-4.12243-3.83136-1.90778-1.757-3.12659-2.679-5.0047-4.26849-1.4986-1.26819-3.63275-3.10712-6.19739-5.4336a9.82769,9.82769,0,0,1,3.0957-3.12768c1.0022-.62861,3.59253-2.25342,5.68091-1.14893a4.00838,4.00838,0,0,1,1.743,2.06421c3.70777-3.34155,3.64618-3.75757.14325-7.27741a5.06993,5.06993,0,0,0-3.16394-1.6521c-1.94482-.16278-3.53869,1.19666-4.49426,2.05872a88.02164,88.02164,0,0,0-10.18555,11.12573c-4.48889,5.86231-5.5,7.30445-5.74469,9.82978-.08667.89434-.39416,4.0675,1.53192,6.25531,1.054,1.1972,1.99848,1.21533,5.55317,2.55322,4.1466,1.56055,6.21875,2.34381,7.46807,3.6383,1.06775,1.10633,2.46973,3.325,2.21277,7.9574a8.48534,8.48534,0,0,1-2.21277,1.74469c-3.33215,1.80841-6.55914.50049-7.53192,2.17023-.52887.90784.28339,1.4621-.25531,2.23407-1.23028,1.76306-5.92682-.46912-7.34039,1.46808-.45117.61822-.02142.91229-.44684,1.46808-1.58258,2.06762-8.11529-1.23932-9.44678.70208-.32318.47126-.11468.92316-.70214,1.72345a4.047,4.047,0,0,1-1.85108,1.3404,50.925,50.925,0,0,1-21.57446,3.51062c-3.13068-.30689-6.50018-.66553-9.63831-2.3617-3.44262-1.86072-3.702-2.04248-3.70208-2.04254-1.52723-1.07025-2.5185-2.095-4.21277-2.234a3.23189,3.23189,0,0,0-1.46814.12763c-1.4281.51507-1.52893,1.9168-2.80847,3.19152A6.35079,6.35079,0,0,1,249.06384,240.25531ZM211.61047,224.557c3.1211-.03882,6.29694-1.4632,9.31635-2.608a11.18556,11.18556,0,0,0,7.1427-12.7622,4.02164,4.02164,0,0,0-2.16718-2.52344c-.50677-.20337-1.8236.93231-2.3872,1.736a7.87227,7.87227,0,0,0-1.04554,3.05664c-.97821,5.31012-3.6878,7.54779-9.30157,7.60871-6.35236-.12879-10.532-3.65424-14.10516-8.58258-3.096-4.27021-3.00336-9.402.4505-13.05384,1.254-1.3258,4.72619-2.40423,2.37024-5.0592-2.4394-2.7489-4.04926.2124-5.684,1.66687-1.03509.921-1.95483,1.9715-2.92736,2.96289-3.15137,3.21277-4.41626,9.76526-2.37982,13.74725a30.39035,30.39035,0,0,0,4.42462,6.77265A21.25642,21.25642,0,0,0,211.61047,224.557Zm57.19806-10.57831c6.09473-.85968,8.98407-.62409,10.08509-2.72339a3.68422,3.68422,0,0,0-.29462-3.91516c-1.06372-1.14142-3.16644-.78235-3.76-.65851-.04144.00867-.07037.01489-.12317.0268-2.30572.51867-4.59045,1.1452-5.99243,1.483-.36688.08838-1.93915.462-4,.766-2.58411.381-3.43243.28326-5.60364.75622-1.98431.43226-2.98919.66449-3.61218,1.45288a3.70689,3.70689,0,0,0-.27356,4.13129C256.59735,217.07129,259.9129,215.23352,268.80853,213.9787Zm56.12561,23.7417c-1.09832-.03613-1.83844,1.15344-2.32507,1.50354-4.16992,3.00006-8.36267,5.96954-12.48956,9.02783a46.08573,46.08573,0,0,0-5.60785,4.69855c-.51331.52575-.35785,1.95367-.1214,2.86822.14075.54413,1.036.89319,1.79712,1.49115,1.532-.93176,2.96387-1.66083,4.23327-2.60754,2.65027-1.97663,4.33167-3.406,5.68482-4.59662,7.21435-6.34778,11.78772-7.2019,11.5116-9.74384A3.21215,3.21215,0,0,0,324.93414,237.7204ZM222,236.91486a16.97349,16.97349,0,0,0-4.85107-1.82978c-2.77973-.74823-6.05487-1.62982-7.10639-.25531-.6134.80188-.33539,2.19568.17023,3.10639,1.252,2.25506,3.75183,1.28228,8,3.40423,3.527,1.76178,4.67175,3.86487,7.31915,3.53192.50934-.064,1.4718-.185,1.82977-.85107C228.19873,242.46405,225.23047,238.8587,222,236.91486Zm14.617-35.21277c4.19678,1.305,6.65754.4881,9.19153,2.10638a16.75563,16.75563,0,0,0,2.80847,1.65961c1.11029.49469,1.78669.786,2.42554.57446,1.05121-.34808,1.65595-1.94348,1.65961-3.89361a53.23946,53.23946,0,0,0-5.87238-2.80854c-4.75427-1.924-9.94549-3.21771-11.04254-1.78723a4.30477,4.30477,0,0,0-.57446,1.14893,2.79012,2.79012,0,0,0-.12769,1.91491A2.32307,2.32307,0,0,0,236.617,201.70209ZM288.04254,252.617c-1.55426.25544-1.44067.495-5.02124,1.53193a25.24,25.24,0,0,1-4.51062,1.10638,24.26735,24.26735,0,0,0-4.25287.37726,2.35706,2.35706,0,0,0-1.67816.84137,2.79,2.79,0,0,0-.1629,1.91223,4.29983,4.29983,0,0,0,.39447,1.22247c.92608,1.66761,7.90808.17969,12.67816-.69378,1.98358-.36322,4.97009-.87391,8.68085-1.3617.17187-.58252.78552-2.8855-.42554-4.25531C292.49585,251.88525,290.03552,252.28955,288.04254,252.617Zm-31.57123-27.37152c2.85743.76264,5.89582.84748,10.034,1.33374.33826-.302,1.85748-1.03973,2.16089-2.11914.2569-.914-.65808-2.97741-1.46045-3.227a60.71515,60.71515,0,0,0-10.5332-2.25055c-.64124-.07946-2.159,1.83063-2.14112,2.80133C254.55383,222.999,255.5307,224.99445,256.47131,225.24548Zm-62.73956-45.66339c-.36584,2.04523,1.9267,3.96161,2.41028,4.3515a12.52938,12.52938,0,0,0,2.241-1.25274c1.99108-1.40009,1.93335-2.24152,3.57446-3.44684,2.143-1.574,3.57214-1.1164,4.08508-2.42548a2.62819,2.62819,0,0,0-.58539-2.66479,3.285,3.285,0,0,0-2.69293-.68378c-1.244.093-2.19763.55493-4.89184,2.4549C193.97339,178.66443,193.79449,179.23151,193.73175,179.58209Zm155.864-.02893c1.515-1.14593,1.69837-4.28161.51062-5.29785-.88617-.75824-1.862.23975-4.40423-.12769-2.687-.3883-3.93921-1.84179-4.78723-1.21276-.74079.5495-.40827,2.12072-.383,2.23407C341.294,178.56842,347.23706,181.33722,349.59576,179.55316Zm-53.4599,35.10291c.8191.26715,1.3631-1.0611,2.71521-.93268,1.09205.1037,1.1803,1.01208,2.50422,1.37048a3.35445,3.35445,0,0,0,3.17608-.67279,3.61039,3.61039,0,0,0,.59076-3.293,5.8652,5.8652,0,0,0-1.50506-2.51111,5.282,5.282,0,0,0-2.21277-1.87231,3.91271,3.91271,0,0,0-2.43732-.1366,4.3244,4.3244,0,0,0-1.23425.62934,6.86171,6.86171,0,0,0-2.20081,2.14557C294.4447,211.32172,295.02222,214.29291,296.13586,214.65607Zm-12.90179,14.89709a3.60211,3.60211,0,0,0,4.72339-.851c.77264-1.23505.14154-2.89362-.08508-3.48938-.38129-1.00214-.73841-1.03327-1.3617-2.46808a21.50275,21.50275,0,0,1-.766-2.29791c-.30042-.97382-.57123-1.85871-.80853-2.63825-1.18811,1.45148-3.38117,4.59876-3.06378,8.42548C281.96033,227.29449,282.10413,228.7666,283.23407,229.55316Zm-59.9953-41.76837a4.15619,4.15619,0,0,0-3.48254-1.34314c-2.61475.09039-2.73914,2.13568-2.77131,4.23737a36.24172,36.24172,0,0,1-1.062,5.34369,7.80992,7.80992,0,0,0,5.75794-2.29932C222.95758,192.33624,224.45355,189.51923,223.23877,187.78479Zm29.20355,41.47c-.51086-2.71564-.36658-4.9024-1.37085-6.20074-.62182-.804-2.98889-.258-4.57251-.318.24579,1.86316.0672,3.96.91156,5.49366C247.85046,229.02893,250.09338,228.83557,252.44232,229.25482Zm-45.43658-20.18408c.61767.95734,3.39514.52112,6.358.83881-.873-3.33875-.88367-6.07563-2.24793-7.60566-.84472-.94744-3.74609-.06109-5.72424.00208C205.86011,204.60577,205.82025,207.23358,207.00574,209.07074Z" transform="translate(-28.99316 -55.46748)"/><path class="cls-1" d="M289.50537,98.40771,271.02148,60.95459,252.53711,98.40771l-41.332,6.00586,29.9082,29.15332-7.06006,41.16456,36.96826-19.43506,36.96827,19.43506-7.06055-41.16456,29.9082-29.15332ZM253.754,103.4856l12.03076,16.55883-38.93219-12.6499Zm-28.13764,7.71368,38.93195,12.64984-19.46625,6.325Zm20.70185,22.77954,19.46637-6.325-24.06116,33.11743Zm22.7033,16.494L244.96,163.12244l24.06152-33.11792Zm0-32.77936-12.03112-16.55932L269.02148,76.757Zm46.16846-10.29895-38.932,12.64984,12.03058-16.55877ZM273.02148,76.75708l12.03064,24.37708-12.03064,16.55877Zm0,73.71576v-20.468l24.06141,33.1175Zm3.23676-22.819,19.46606,6.325,4.59522,26.79236Zm20.70221,2.52026-19.46625-6.325,38.932-12.64984Z" transform="translate(-28.99316 -55.46748)"/><path class="cls-1" d="M194.65576,155.63037a86.50438,86.50438,0,0,1-1.24347-8.6925c.02326.00366.04352.01635.06714.0188a9.53462,9.53462,0,0,0,2.82837,0l.11066-.02576.00665.00549c.29828,3.10925.72748,5.84729,1.174,8.11389Zm-3.50683,1.06348a111.82708,111.82708,0,0,1-.56324-21.0022,2.11893,2.11893,0,0,1-.54315.07428,2.05371,2.05371,0,0,1-.68335-.11938,2.07822,2.07822,0,0,1-.29535.0343c-.01581,0-.02881-.00409-.04443-.0044a2.03843,2.03843,0,0,1-1.43927.00153,114.97321,114.97321,0,0,0,.59027,21.37329Zm-33.30811,8.23242c0-50.94336,37.13715-96.98993,89.82373-109.14453,3.47229-.71912,6.19507-.11615,6.50568.92035.31384,1.04742-1.66925,3.09143-5.10431,4.3858a67.36658,67.36658,0,1,0,47.5747,1.751c-1.19537-.61676-9.11889-4.73889-8.59808-6.13678.5163-1.38568,9.06018.63086,10.39105.94977A111.21553,111.21553,0,1,1,157.84082,164.92627Zm5.5,0a105.70681,105.70681,0,1,0,204.30359-38.0434c.19519.74085.39337,1.4812.57776,2.22406a162.29526,162.29526,0,0,1,4.20849,25.59864l-2.98925.248A158.27711,158.27711,0,0,0,358.36151,108.47a106.53,106.53,0,0,0-9.3598-12.61645c.9873,2.18615,1.969,4.36865,2.91754,6.52746l-2.74713,1.20636q-1.75415-3.9949-3.59931-8.053c-.98724-2.17236-1.995-4.34771-3.006-6.511q-3.46774-3.3686-7.23791-6.42713a2.33274,2.33274,0,0,0-3.39923,3.10791,72.84034,72.84034,0,0,1,11.32794,42.82422c-1.9082,39.18207-35.0976,70.0387-74.3172,69.2049A72.92113,72.92113,0,0,1,197.67578,124.915c0-1.23889.03961-2.4704.10138-3.69721a85.95022,85.95022,0,0,0-1.73743,16.01349,4.254,4.254,0,0,0-1.35888-.22979,4.19,4.19,0,0,0-1.64844.32409,87.54485,87.54485,0,0,1,9.65881-38.9815,72.20325,72.20325,0,0,1,3.10315-6.81623c-.1983.27954-.40765.55255-.602.83441a84.60659,84.60659,0,0,0-14.12915,38.25007c-.01288-.0022-.02746-.0019-.0404-.004a2.05486,2.05486,0,0,0-.68238-.119,1.84175,1.84175,0,0,0-.21612.0199,1.80066,1.80066,0,0,0-.7901-.03437,1.78369,1.78369,0,0,0-.61084-.11316,2.05708,2.05708,0,0,0-.66077.11237,87.59786,87.59786,0,0,1,14.66-39.81488q1.77612-2.57594,3.76123-5.02393a62.50214,62.50214,0,0,0-13.73487,20.0625c-6.251,15.19971-7.87695,33.25147-7.89306,33.43213a118.05673,118.05673,0,0,0-.168,18.15088l-2.99317.2041a121.11551,121.11551,0,0,1,.17237-18.61425c.06592-.75538,1.67724-18.6792,8.10742-34.31348.01636-.03973.0343-.07855.05072-.11829a86.69056,86.69056,0,0,0-6.79877,13.66126,91.21952,91.21952,0,0,0-6.02588,37.8501l-2.99707.14257a94.20751,94.20751,0,0,1,6.229-39.08642,90.124,90.124,0,0,1,10.17383-18.94483,92.54128,92.54128,0,0,0-9.814,15.72852,97.47726,97.47726,0,0,0-9.88818,41.91357l-3-.0459a100.46164,100.46164,0,0,1,10.19677-43.19287,97.71555,97.71555,0,0,1,5.435-9.619A105.51035,105.51035,0,0,0,163.34082,164.92627ZM365.2583,147.814l-5.70215-28.68115-2.94238.585,5.70215,28.68116Zm-6.49048-3.46124-3.96679-27.3844-3.00763.42359,3.96673,27.3844Zm-9.80578-8.1311,2.98059-.33869-1.24549-10.95562-2.98059.33862Zm3.36462,1.74371-2.95117.53711.85107,4.68067,2.95117-.53614Zm-2.78247-31.01306-2.38281-5.44678-2.74805,1.20215,2.38281,5.44678Zm-4.19263,6.6322.085,4.085,2.999-.0625-.085-4.085Z" transform="translate(-28.99316 -55.46748)"/><path class="cls-1" d="M41.87231,310.27655a34.75532,34.75532,0,0,0,5.69233,2.49609c-.28284,6.28785-.75422,12.62232-1.426,18.86506-.46655,4.33844-1.04388,8.71673-1.69952,13.03869a24.44424,24.44424,0,0,0-2.503,4.34485,16.43611,16.43611,0,0,0-1.40424,4.27661c-.54065,3.27918-.27936,9.12317,3.25531,10.91492a7.03494,7.03494,0,0,0,4.72339.25531,8.08439,8.08439,0,0,0,4.27661-2.42554c2.87933-3.50879.3288-9.611-.82977-12.383a24.7364,24.7364,0,0,0-3.37232-5.71839c.58063-3.9461,1.106-7.92511,1.53058-11.87573.64887-6.0271,1.11157-12.13745,1.40253-18.21161a38.44023,38.44023,0,0,0,7.65442.83673c.16962,6.33246.29309,12.74835.35907,19.09558.038,3.61151.05218,7.1886.05652,10.75-.09668.07263-.19489.12787-.29041.20856-1.85773,1.57019-2.238,3.71448-2.68085,6.44678-.47345,2.92114-1.1806,7.28436,1.27662,10.6596a6.473,6.473,0,0,0,2.29785,2.04255,6.22371,6.22371,0,0,0,5.10638.19146c4.67084-2.20269,3.163-12.82214,1.91492-16.34039a6.97533,6.97533,0,0,0-2.17023-3.25537,6.04848,6.04848,0,0,0-1.45892-.84461c-.00647-3.28363-.017-6.57385-.05188-9.89959-.06427-6.1651-.18439-12.39179-.34656-18.548q2.83474.991,5.66956,1.982c.46832,1.02118,1.06646,2.40784,1.70337,4.07477a56.03677,56.03677,0,0,1,3.61377,15.47168A61.2402,61.2402,0,0,0,75.8418,346.29c3.85547,14.2959,13.35351,23.78418,16.477,26.90527,1.38476,1.38184,3.70117,3.35449,8.31592,7.28223,3.87353,3.29785,9.91894,8.34961,16.72363,13.68945l.20264.15918c8.18847,6.43848,13.72265,12.542,19.07421,18.44434,6.68848,7.376,13.6045,15.0039,25.49854,23.02539,13.9043,9.37793,27.61767,14.49023,38.79394,14.48926q.62769,0,1.24463-.02149a55.41889,55.41889,0,0,0,17.666-3.74121c19.26758-7.45605,28.438-23.0293,31.89014-28.89258a74.48776,74.48776,0,0,0,9.29437-25.83929,30.64576,30.64576,0,0,0,2.52936,2.19195,102.56266,102.56266,0,0,1-4.38135,18.4159c-1.40235,4.11718-2.939,7.73828-4.29492,10.93359-3.25928,7.68262-5.61426,13.23242-2.64356,17.85547,1.49347,2.32422,4.05805,3.87842,7.60767,4.63538-.00153.11224-.00855.22509-.00952.33728a15.86306,15.86306,0,0,0,4.3081,13.38086l.3291.339a10.84126,10.84126,0,0,0,7.45313,5.67957,10.38941,10.38941,0,0,0,1.96338.1875,11.10549,11.10549,0,0,0,9.91845-6.3916l.04688-.10547c.01562-.03809.03125-.07617.04639-.11426a22.86851,22.86851,0,0,0,5.17431-1.7334c2.44336-1.15918,4.37354-2.07519,5.0542-4.28125a5.27332,5.27332,0,0,0-.72656-4.2373,7.36989,7.36989,0,0,1-.83447-2.15625,7.4978,7.4978,0,0,1,1.12158-4.916l6.30615-3.76269-.65039-1.5918c-2.16992-5.3125-4.12549-10.7832-5.8125-16.25879-1.22046-3.96106-2.31586-7.98486-3.28564-12.04065,6.05572,13.31171,18.09521,31.78986,40.19433,39.66468a60.83384,60.83384,0,0,0,20.56543,3.54c29.38672,0,53.10986-20.37207,56.2417-23.18261,9.793-8.791,13.5708-16.61621,18.35352-26.52442a175.961,175.961,0,0,1,25.05859-39.62207l.49121-.59765a106.99287,106.99287,0,0,0,25.05536-57.19849q3.21671-1.32788,6.43335-2.65582c-.01184,5.63189-.28186,11.29626-.83929,16.8797a174.44825,174.44825,0,0,1-2.6579,17.47839c-5.34009,2.69177-8.87268,7.031-9.05384,11.65637a9.05729,9.05729,0,0,0,2.46808,6.89362,8.55882,8.55882,0,0,0,9.95746,1.10638c3.28986-1.96258,3.81409-5.77429,4.08508-7.74463a13.72041,13.72041,0,0,0-1.44683-8.08514,14.22837,14.22837,0,0,0-2.08783-3.045,175.542,175.542,0,0,0,3.57647-36.79151l6.22162-2.56842a39.95012,39.95012,0,0,0,4.67017-.63794c-.31824,3.62628-.6521,7.2602-1.00885,10.84436-.28028,2.81543-.53418,5.23047-.76172,7.39844-.67578,6.42969-1.123,10.67676-1.374,16.80371-.08265,2.02429-.12482,4.05426-.14826,6.0763A9.21447,9.21447,0,0,0,492.12769,339c-4.955,3.64893-6.80451,12.87073-2.46808,16.5957a8.46057,8.46057,0,0,0,9.617.42554c4.38947-2.86639,3.80609-9.45758,2.63831-12.51062a14.40936,14.40936,0,0,0-2.04254-3.48938,12.7022,12.7022,0,0,0-1.6399-1.65381c.01966-2.13922.06122-4.28992.14838-6.43384.24707-5.999.6875-10.19629,1.35547-16.5498.22851-2.17481.4834-4.5957.76465-7.41992.40387-4.05884.78241-8.18079,1.13629-12.28217a37.56661,37.56661,0,0,0,13.40179-7.47711c.12274-.14764,1.40546-1.72943.83325-3.077a2.5923,2.5923,0,0,0-2.74145-1.5451,40.38008,40.38008,0,0,0-21.7674,8.98608q-23.35263,9.6406-46.70532,19.28119a192.74178,192.74178,0,0,0,7.46784-67.35071q4.63888-3.12871,9.27777-6.25738a44.34976,44.34976,0,0,0,5.42273-1.221c-.06861,4.8078-.117,9.6294-.12433,14.40167-.006,3.52814.01068,7.13587.03924,10.75318a13.33126,13.33126,0,0,0-3.08178,4.12231c-2.90857,5.36676-4.24945,14.80982.6383,17.93616,3.0456,1.94806,8.27234,1.29193,10.53192-1.53192.89392-1.11713,1.08295-2.27295,1.40369-4.23426a17.91834,17.91834,0,0,0-.89307-9.61676c-.50878-1.30352-2.15-5.50427-4.60125-6.99725-.02686-3.507-.04291-7.00378-.037-10.42511.00812-5.24109.06293-10.54309.14526-15.81775a34.47411,34.47411,0,0,0,12.47174-8.56842,32.89774,32.89774,0,0,0,3.82978-5.10638,5.11842,5.11842,0,0,0-2.04255-2.68085,5.53838,5.53838,0,0,0-3.31243-.79633c-4.90729.15357-10.60236,4.37073-10.60242,4.37079a82.96159,82.96159,0,0,0-11.96643,10.85071q-22.74968,15.3435-45.49933,30.68707a226.1629,226.1629,0,0,0,3.66394-71.35681q4.40873-4.39416,8.8175-8.78833a38.91,38.91,0,0,0,3.8794-2.00482c.0116,1.77356.00482,3.55957-.02313,5.34735-.02832,1.855-.07032,3.16846-.10743,4.33838-.042,1.3418-.07812,2.49854-.084,4.04736-.00977,2.92572.10425,5.91346.329,8.91864a6.91573,6.91573,0,0,0-.94574.72644c-4.38226,3.94318-2.1781,12.6839-1.78723,14.234.73395,2.91046,1.53583,3.68878,2.17023,4.08509,1.95147,1.21917,4.81823.3858,6.51062-.9574,3-2.381,2.7398-6.7052,2.61706-8.74469a13.99294,13.99294,0,0,0-3.383-8.10639,8.207,8.207,0,0,0-1.16108-1.06c-.24206-3.06238-.36016-6.10578-.34985-9.08155.00586-1.50537.041-2.63037.082-3.93554.03809-1.187.08008-2.52.10938-4.40284.04187-2.71807.0249-5.4212-.02246-8.09362a36.45868,36.45868,0,0,0,11.085-14.16663,2.67817,2.67817,0,0,0-3.5293-3.541,47.67317,47.67317,0,0,0-19.2583,19.19451Q361.30053,241.8556,300.26263,302.69147q-.64-.2462-1.28021-.49225a31.65039,31.65039,0,0,0-39.16022,12.501L120.519,188.70648a40.70258,40.70258,0,0,0-3.71051-5.53625,42.80533,42.80533,0,0,0-15.94037-12.23712,2.73132,2.73132,0,0,0-2.78308.40728c-1.40094,1.14453-.85559,3.76471-.76593,4.17023a30.46231,30.46231,0,0,0,5.70215,7.91492,33.11608,33.11608,0,0,0,4.17017,3.48932c.25873.1892.53625.38684.8255.5888a154.29139,154.29139,0,0,0-3.14,18.198q-.41674,3.744-.63665,7.29462c-5.64753,6.28332-7.64673,13.4945-5.04883,17.83349.21734.36292,2.75793,4.473,6.6383,4.42554a6.45643,6.45643,0,0,0,3.82984-1.44678c4.6925-3.6687,2.96454-12.1333,2.80847-12.85107a17.7204,17.7204,0,0,0-3.40424-7.14893q.30534-3.6859.78284-7.55316c.70172-5.63464,1.63477-10.95166,2.70978-15.95331a50.1329,50.1329,0,0,0,4.7987,2.28406l5.75916,5.20892a181.4642,181.4642,0,0,0,3.56708,69.15033q-19.97488-12.03369-39.94983-24.0675A43.38882,43.38882,0,0,0,63.46045,228.8584a2.50013,2.50013,0,1,0-2.58008,4.2832,35.26973,35.26973,0,0,0,11.67285,10.11371c.0448.024.0882.043.13294.06671a64.77838,64.77838,0,0,0-3.61023,25.28955,18.911,18.911,0,0,0-2.37378,3.75012c-.60871,1.27558-4.71192,9.87476-.44684,13.91486,2.99408,2.83618,9.27759,2.63507,11.87238-.57446a7.25945,7.25945,0,0,0,1.40423-4.53186c-.02569-2.1637-.973-3.71875-2.55322-6.06385-1.0567-1.56817-2.33521-3.38684-3.80463-5.36828a60.493,60.493,0,0,1,3.163-24.74976,35.3835,35.3835,0,0,0,7.56317,2.02143l4.97516,2.99725a124.57242,124.57242,0,0,0-1.51068,13.56329,122.52412,122.52412,0,0,0,3.89843,38.42774,114.94079,114.94079,0,0,0,7.8125,20.44842q-18.07314-6.31824-36.14624-12.63641a36.37282,36.37282,0,0,0-26.23169-9.17041,3.24728,3.24728,0,0,0-1.97436,1.84967,3.2832,3.2832,0,0,0,.324,2.871A35.0779,35.0779,0,0,0,41.87231,310.27655ZM262.37939,428.27637a51.71484,51.71484,0,0,0-1.58642,6.82226c-.36621,2.20887-.61615,4.438-.77423,6.66608a7.12136,7.12136,0,0,1-4.42108-2.73932c-1.82813-2.84473.18066-7.57812,2.96045-14.13086,1.11883-2.63592,2.35571-5.57544,3.55578-8.84888a11.51449,11.51449,0,0,0,1.37146,3.00415c.1322.22352.25324.43378.37122.644-.03589.69305-.09253,1.45593-.18567,2.32769A30.93,30.93,0,0,1,262.37939,428.27637Zm9.96241-19.11719a14.6015,14.6015,0,0,1,3.38116.779l-.00122.72138a15.21834,15.21834,0,0,0-6.80994-.83179c.10608-.22455.21283-.44531.32227-.65564A14.5496,14.5496,0,0,1,272.3418,409.15918Zm-.99768-4.06775a17.36781,17.36781,0,0,0,.86145-2.75452,21.12831,21.12831,0,0,0,.49054-3.54345c.06079.01837.12847.03949.18231.05517a22.59323,22.59323,0,0,0,2.86188.61957l-.01038,6.281a18.595,18.595,0,0,0-2.96576-.56855C272.29248,405.13074,271.8186,405.1051,271.34412,405.09143Zm.61242,8.74353a11.74863,11.74863,0,0,1,3.75806,1.15735l-.01874,11.26831c-.705-.04395-1.41449-.07214-2.1319-.06921-.78857.0039-1.31.03613-1.71728.06152-.23438.01465-.416.02441-.60352.02441a4.69115,4.69115,0,0,1-2.82714-1.582,9.57114,9.57114,0,0,0,.26416-2.41406,8.69257,8.69257,0,0,0-.78785-3.46161c.033-1.3468-.0094-2.40027-.04663-3.262-.025-.574-.0429-1.05554-.03814-1.50885A11.75512,11.75512,0,0,1,271.95654,413.835Zm-3.65136-12.38476a14.82953,14.82953,0,0,1-1.86719,4.50292c-.04352.07679-.08978.16065-.13416.2392a10.6493,10.6493,0,0,0-1.45129,1.25025,108.16762,108.16762,0,0,0,2.37054-11.04462c.28437.16.56433.32672.85456.478.21911.11425.4309.21917.64129.32257A17.41286,17.41286,0,0,1,268.30518,401.4502ZM265.122,433.68213c2.32989,1.6784,5.83575,3.74829,8.96985,3.74756a6.12347,6.12347,0,0,0,1.58587-.20014l-.01587,9.54633c-4.18878-.23865-7.429-.4093-9.64959-.50928-.92285-.0412-1.624-.068-2.17865-.08533a67.43856,67.43856,0,0,1,.9057-10.42834C264.86676,434.984,264.99438,434.30212,265.122,433.68213Zm1.15539,22.24267a11.91571,11.91571,0,0,1-2.03515-3.75683,11.70136,11.70136,0,0,1-.42682-1.78424c1.83722.14563,4.88263.26245,10.05157.3775a14.30172,14.30172,0,0,1-7.5896,5.16357Zm13.895,1.75a6.99314,6.99314,0,0,1-7.49756,3.957,6.65847,6.65847,0,0,1-3.85412-2.34833,18.297,18.297,0,0,0,3.53772-1.75031,18.64835,18.64835,0,0,0,6.16839-6.58569c.57752.03363,1.16071.06757,1.77936.10425a9.26575,9.26575,0,0,1-.13379,6.623Zm-.51025-10.8609.0744-45.02142a124.539,124.539,0,0,0,3.13995,16.19092c.271,1.01465.54346,1.98047.82569,2.97949.62549,2.21387,1.272,4.50293,2.05224,7.85156.9712,4.17188,1.77686,8.40235,2.39649,12.58008a6.565,6.565,0,0,1-1.69727,3.77051C285.33838,446.28772,283.76929,446.73853,279.66211,446.8139Zm3.80658-47.37671c.2727-.04229.53674-.092.8017-.14086a199.75163,199.75163,0,0,0,4.82031,19.9743l-1.65351.19806c-.23638-.837-.46759-1.66071-.69647-2.51752A121.6631,121.6631,0,0,1,283.46869,399.43719Zm6.83307,52.50519c-.16211.52539-1.45215,1.1377-2.94629,1.84668a18.88272,18.88272,0,0,1-2.51514.97852c.00488-.1084.0083-.21582.01026-.32422a13.33936,13.33936,0,0,0-.54053-4.00586,9.02279,9.02279,0,0,0,4.54492-2.043,12.78089,12.78089,0,0,0,.99072,2.32813C290.24316,451.49121,290.35791,451.75977,290.30176,451.94238Zm4.69238-15.56933-3.2749,1.9541c-.46808-2.84375-1.03736-5.69586-1.66248-8.53259l2.51837.16265Q293.73429,433.18748,294.99414,436.37305Zm-4.71979-13.21656c.178.5586.35157,1.11756.53485,1.6756l-1.94244-.12549c-.1189-.4638-.236-.91308-.34961-1.3396ZM470.83478,306.45306a101.59267,101.59267,0,0,1-23.54767,51.80475l-.49609.60352a180.302,180.302,0,0,0-25.69581,40.62012c-4.54345,9.41113-8.13183,16.8457-17.19091,24.97753-1.43994,1.292-35.69287,31.51661-71.78858,18.6543-30.17187-10.75195-40.24218-43.17676-42.043-49.9668q-.793-5.734-1.30981-11.53021Zm-22.54962-59.36352a188.87843,188.87843,0,0,1-8.422,66.73974q-75.75192,31.2724-151.50391,62.5448-.46252-6.6393-.53991-13.90728c-.02192-2.394.006-4.79132.05651-7.18946Q368.08054,301.18341,448.28516,247.08954Zm-34.559-50.42737a221.21851,221.21851,0,0,1-4.83887,70.96869q-60.39981,40.73676-120.79975,81.47345c.22455-4.84088.61005-9.96924,1.20386-15.35q.84495-7.65665,2.18079-15.24255Q352.59918,257.58694,413.72614,196.66217ZM125.44531,229.65088a178.66293,178.66293,0,0,1,1.26648-28.602Q191.99842,260.0983,257.2851,319.14764a42.56078,42.56078,0,0,0-2.61219,6.79694,43.8126,43.8126,0,0,0-1.45611,7.42554l4.9707.53711c1.47119-13.59375,9.60352-24.58789,20.71826-28.00684a26.79287,26.79287,0,0,1,14.09473-.33008l-15.17188,12.88574,3.23633,3.81055,5.49927-4.67035a244.58194,244.58194,0,0,0-1.4231,76.38617l.0008.004a23.40543,23.40543,0,0,1-4.536.7243,74.81157,74.81157,0,0,1-4.44678-13.14917c-3.14648-13.32129-1.84277-24.79-.98047-32.3789.3042-2.67578.7063-5.35669,1.19147-8.02491-.02216-.12036-.04627-.2398-.06574-.361a9.17947,9.17947,0,0,1-.09-2.02234c.01544-.25055.05444-.49841.082-.74755a12.30768,12.30768,0,0,1-.03247-1.42914c.00909-1.04016.08044-2.07837.09234-3.11811l-2.3421-.56848a129.23057,129.23057,0,0,0-2.81006,15.82032c-.89355,7.86425-2.24414,19.75,1.0625,33.75a78.76648,78.76648,0,0,0,3.88934,11.98785,17.52452,17.52452,0,0,1-1.88348-.42242,19.3141,19.3141,0,0,1-1.96692-.70685,78.50041,78.50041,0,0,1-4.95056-55.74482,26.48923,26.48923,0,0,0,.22919-2.91534,24.936,24.936,0,0,0-.18744-5.78326l-1.17066-.465a82.67364,82.67364,0,0,0,.133,61.37982,26.6026,26.6026,0,0,1-4.50281-4.57342l.008-.0857-.69336-.80566a26.35129,26.35129,0,0,1-4.66846-7.69434c-1.52051-3.9375-1.57861-7.07226-1.66553-11.8164-.05127-2.78418-.10937-5.94043-.47461-9.97656a107.4864,107.4864,0,0,0-1.56884-10.9795l-.21338-1.08789Q192.085,306.34722,131.58984,269.9024A178.61569,178.61569,0,0,1,125.44531,229.65088ZM95.11963,300.9375A118.43269,118.43269,0,0,1,91.35889,263.791c.21277-3.86164.62542-7.73627,1.21008-11.55884q77.76242,46.84725,155.52478,93.69458c.40161,2.06964.92218,5.33111,1.28906,9.38379.34912,3.85644.40528,6.917.45508,9.61718a43.18088,43.18088,0,0,0,1.06372,10.59583q-73.16135-25.57664-146.32269-51.1532A111.27259,111.27259,0,0,1,95.11963,300.9375Zm158.21442,80.73407a31.86071,31.86071,0,0,0,3.35052,5.10187,70.0326,70.0326,0,0,1-9.26465,28.31933c-3.21094,5.45313-11.74023,19.93848-29.38623,26.76758a50.33791,50.33791,0,0,1-16.03613,3.40723c-5.99756.20117-18.77686-1.28125-37.06787-13.61621-11.39258-7.68457-17.80323-14.75391-24.59033-22.23926-5.49073-6.05566-11.16846-12.31738-19.688-19.0166l-.20606-.16211c-6.73974-5.28809-12.73047-10.29395-16.56933-13.5625-4.51416-3.84375-6.78028-5.77246-8.02588-7.01563-2.88721-2.88379-11.67334-11.66113-15.18115-24.668a56.344,56.344,0,0,1-1.52979-8.83593A60.3524,60.3524,0,0,0,75.229,319.46875c-.00909-.02386-.01947-.04736-.02862-.07123ZM132.709,259.80615c-.95459-6.04541-1.625-12.20947-1.99267-18.3208a191.8096,191.8096,0,0,1,.064-23.93506l2.69434.17578a189.02582,189.02582,0,0,0-.063,23.59717c.36231,6.0249,1.023,12.10156,1.96436,18.062Zm2.92725-14.68554a111.053,111.053,0,0,1-.582-11.18116c-.0083-3.46093.14355-6.96.45215-10.40039l2.68945.24121c-.30127,3.3584-.44971,6.77393-.44141,10.15235a107.76289,107.76289,0,0,0,.56641,10.90381,102.33113,102.33113,0,0,0,1.95313,11.78027l-2.63282.59668A104.91681,104.91681,0,0,1,135.63623,245.12061Zm6,9.12939a148.752,148.752,0,0,1-.8374-15.07373c-.019-4.32227.15429-8.70068.51562-13.0127l2.69043.22559c-.35449,4.2334-.5249,8.53174-.50586,12.77539a145.87912,145.87912,0,0,0,.82178,14.79834Zm6.28967-8.79645c.01386.97876.01361,1.96094.0409,2.93463l-2.69922.0752c-.02832-1.01453-.02851-2.03784-.04248-3.05768.05383.0105.09527.01709.10534.019a7.37713,7.37713,0,0,0,1.41425.10547A8.716,8.716,0,0,0,147.9259,245.45355Zm-2.59546-4.24c-.028.0058-.07672.01349-.13018.023.00885-1.61957.0224-3.24.06732-4.84833.05713-2.03808.14355-4.0913.25732-6.10254l2.69531.15235c-.11181,1.98584-.19726,4.01269-.25341,6.02539-.04389,1.56525-.05664,3.14227-.0658,4.71838a8.08972,8.08972,0,0,0-1.15631-.07367A7.33493,7.33493,0,0,0,145.33044,241.2135ZM105.79883,309.375l-2.61914.6543a183.20737,183.20737,0,0,1-3.8584-20.1919c-.458-3.44922-.82568-7.019-1.09277-10.60986-.37647-5.05762-.54981-10.18408-.51465-15.23682l2.70019.01856c-.03467,4.98.13574,10.03271.50684,15.01806.26318,3.53907.62549,7.05664,1.07715,10.45459A180.45133,180.45133,0,0,0,105.79883,309.375Zm1.583-3.03125a172.14537,172.14537,0,0,1-3.66748-39.88672l2.69921.06445a169.46278,169.46278,0,0,0,3.60889,39.26172c.54736,2.57325,1.165,5.17285,1.83643,7.72461l-2.61133.6875C108.56543,311.60156,107.9375,308.96,107.38184,306.34375Zm2.7207-19.94482c-.44385-4.86133-.74609-9.80616-.89844-14.69727l2.69824-.084c.15137,4.8374.4502,9.728.88868,14.53613.46826,5.13476,1.10937,10.32471,1.90478,15.42529l-2.668.416C111.22363,296.83789,110.57568,291.59082,110.10254,286.39893Zm5.99707.47656c-.16065-2.438-.24707-4.91358-.2583-7.35889l2.70019-.01172c.01075,2.38965.09571,4.81006.25245,7.19336.17773,2.70606.45361,5.44483.82031,8.1416l-2.67578.36328C116.564,292.44531,116.28174,289.64307,116.09961,286.87549ZM88.15918,348.79883a76.28469,76.28469,0,0,1-5.0249-17.76074l2.668-.416a73.42346,73.42346,0,0,0,15.62744,35.09961l-2.09375,1.70508A76.23662,76.23662,0,0,1,88.15918,348.79883Zm7.646,4.13574a74.27336,74.27336,0,0,1-3.72754-13.08984l2.65332-.49805a71.38178,71.38178,0,0,0,10.19043,25.55957l-2.26856,1.46484A74.31123,74.31123,0,0,1,95.80518,352.93457Zm8.26416,2.834a15.5065,15.5065,0,0,0-2.27-2.9746l1.93359-1.88477a18.23784,18.23784,0,0,1,2.66553,3.49219,13.41415,13.41415,0,0,1,1.144,2.46582,10.6284,10.6284,0,0,0,.90186,1.96582,12.07133,12.07133,0,0,0,1.45361,2.01172,7.48668,7.48668,0,0,1,1.5332,2.4375,9.50389,9.50389,0,0,1,.50342,4.65527l-2.67773-.34375a6.8332,6.8332,0,0,0-.34717-3.34473,4.91423,4.91423,0,0,0-1.062-1.64843,14.67558,14.67558,0,0,1-1.73877-2.41211,13.39912,13.39912,0,0,1-1.10254-2.39453A10.6459,10.6459,0,0,0,104.06934,355.76855Zm112.51025-42.71679-.085-12,2.5-.01758.085,12ZM176.32471,318.415l-.07227-8.085,2.5-.02149.07227,8.085Zm5.53174,8.082-.085-14.38281,2.5-.01563.085,14.38282Zm6.21289,7.06152-.08545-18.63769,2.5-.01172.08545,18.6377Zm3.65918,1.19336-.085-15.40429,2.5-.01368.085,15.4043Zm3.31933,2.97754-.085-18.89355,2.5-.01172.085,18.89355Zm-9.87256-12.75683-.085-6.89356,2.5-.03125.085,6.89356Zm13.27686,12.67382-.085-13.70214,2.5-.01563.085,13.70215Zm6.17041,4.50977-.08545-16.08594,2.5-.01367.08545,16.08594Zm2.936-2.043-.085-15.1914,2.5-.01368.085,15.19141Zm3.4043,3.48926-.08545-15.06348,2.5-.01367.08545,15.06348Zm3.48926-.12793-.085-14.76563,2.5-.01367.085,14.76563Zm3.064,3.44727-.08545-15.74512,2.5-.01367.08545,15.74511Zm2.97852-3.22364-.085-5.915,2.5-.03515.085,5.915Zm3.14892,7.69434-.085-11.27637,2.5-.01953.085,11.27637Zm4.979-.20606-.08545-6.5957,2.5-.0332.08545,6.5957ZM176.835,395.69336l-.085-8.2334,2.5-.02539.085,8.2334Zm2.93439,3.07623-.01935-9.34088,2.5-.00586.02472,11.9317C181.42261,400.5105,180.595,399.64038,179.76935,398.76959Zm1.32513,11.14887a9.39973,9.39973,0,0,0,1.19989.93377l.04059,19.61261-2.5.00586-.04553-22.00164A11.17613,11.17613,0,0,0,181.09448,409.91846Zm1.40015-9.96826-.085-7.83008,2.5-.02735.01221,1.12427,1.562-.02075.00164.12579,2.42414-.00567.02814,12.77691a26.19314,26.19314,0,0,1-2.503-1.37512L186.424,399.794l-1.43054.019.00122.10992Zm6.35126,13.3977c.03588.0094.07214.01721.108.02655l.04071,18.49469-2.5.00586-.0423-19.184C187.24377,412.92749,188.04645,413.13812,188.84589,413.3479Zm3.67132-5.76654-.02258-9.68488,2.5-.00586.02454,10.50831C194.17554,408.156,193.34332,407.87689,192.51721,407.58136Zm.01624,6.94928c.82623.45856,1.65692.90625,2.50317,1.32117l.043,18.44311-2.5.00586Zm5.38434-5.42407-.01886-8.14661,2.5-.00586.01989,8.57758c-.49237-.05762-.984-.12293-1.473-.21149C198.60162,409.25781,198.26044,409.17822,197.91779,409.10657Zm.66009,8.13873c.616.16986,1.237.32,1.85986.46246l.04615,19.94849-2.5.00586-.04773-20.62415C198.15021,417.10681,198.35956,417.18512,198.57788,417.2453Zm5.74683,19.35626-.08545-17.51074,2.5-.01172.08545,17.51074Zm-3.02491-26.97571-.08154-8.69909,2.5-.02344.08368,8.92633C202.9679,409.76208,202.13287,409.70331,201.2998,409.62585Zm9.64368-.33673-.02307-9.39264,2.5-.00586.02161,8.78406A13.78239,13.78239,0,0,0,210.94348,409.28912Zm.02545,10.37592a24.58429,24.58429,0,0,0,2.50043.148l.036,14.67334-2.5.00586Zm-3.66571-10.52539-.085-9.10645,2.5-.02343.085,9.10644Zm8.53253-.8952-.02179-8.43293,2.5-.00586.02015,7.80719C217.50647,407.84662,216.67517,408.06158,215.83575,408.24445Zm.02961,11.47094q1.25592-.10959,2.49914-.336l.03443,13.31983-2.5.00586Zm4.87225-12.75512-.03009-11.78742,2.5-.00586.02765,10.83777C222.40845,406.33856,221.57471,406.65491,220.73761,406.96027Zm1.55957,11.424c.32275-.10407.64587-.2027.96887-.30237l.02643,10.36243-2.5.00586-.02454-9.61463C221.27789,418.69745,221.78754,418.54858,222.29718,418.38428Zm3.92548-13.67658-.02588-8.93817,2.5-.00781.02209,7.62713C227.90466,403.86249,227.07452,404.30811,226.22266,404.7077Zm1.76495,11.77185a7.77455,7.77455,0,0,0,.76813-.37365l.026,8.97515-2.5.00782-.02307-7.96009C226.83929,416.92938,227.41724,416.71979,227.98761,416.47955Zm2.15344-13.97021-.02923-9.29254,2.5-.00782.02356,7.49085c-.07392.05963-.14557.12384-.21973.1828C231.68616,401.46289,230.92139,401.99786,230.14105,402.50934Zm1.28223,10.57342c.41089-.42028.8302-.812,1.24725-1.2005l.02625,8.34821-2.5.00781-.01721-5.47821A12.35585,12.35585,0,0,1,231.42328,413.08276Zm2.24609-13.2431-.02582-7.13263,2.5-.00976.01593,4.40557a6.65467,6.65467,0,0,1-1.08721,1.45911C234.62012,398.99951,234.14911,399.42468,233.66937,399.83966Zm1.53626,9.21112c.31384-.499.65417-.98614.99176-1.47528l.03113,8.611-2.5.00977-.01929-5.32465A10.71988,10.71988,0,0,0,235.20563,409.05078Zm3.33148,2.38965-.085-7.48926,2.5-.02929.085,7.48925Zm3.27685-5.52832-.08544-5.70215,2.5-.03711.08544,5.70215Zm-69.1914,19.19922-.08545-20.63867,2.5-.00977.08545,20.63867Zm-5.48975-3.70215-.085-20.63867,2.5-.00977.085,20.63867ZM161.55859,394.835l2.5-.00976.085,20.63769-2.5.00977Zm-2.479,2.668.08545,13.23437-2.5.01563-.08545-13.23438Zm-3.63818-.11523.085,6.57421-2.5.03321-.085-6.57422Zm-3.57422-3.21192.085,6.85156-2.5.03125-.085-6.85156Zm-3.12793.75879.08545,4.80859-2.5.04493-.08545-4.8086Zm85.50049-42.97168-.085-4,2.499-.05273.085,4Zm3.02148.30469-.08545-3.19141,2.499-.0664.08545,3.1914Zm-17.27734-35.58887-.085-5.57422,2.5-.03906.085,5.57422Zm2.415-7.97656h-2.5v-14.8086h2.5Zm3.48925.93652h-2.5V295.17041h2.5Zm4.08545,6.042h-2.5V301.80859h2.5Zm4.085-1.02148h-2.5v-7.91406h2.5Zm3.65967,6.80859h-2.5V306.06348h2.5Zm3.65918,2h-2.5V308.06348h2.5Zm3.74512,3.10645h-2.5v-15.4043h2.5Zm3.74463-.16992h-2.5v-9.65918h2.5Zm3.74463,3.87207h-2.5v-10.127h2.5ZM403.0791,265.70215c1.75244-9.34912,3.12061-18.88428,4.06641-28.34082,1.02295-10.22071,1.57861-20.61133,1.65234-30.88281l3,.02148c-.07422,10.36377-.63525,20.84766-1.667,31.16016-.95459,9.541-2.335,19.16162-4.10352,28.59472Zm-2.32031-27.26807c.43066-6.59863.60107-13.30176.50732-19.92383l3-.042c.09473,6.7002-.07812,13.4834-.51416,20.16113-.51953,7.96729-1.42724,16.00391-2.69677,23.88575l-2.96192-.47754C399.34814,254.249,400.24463,246.30762,400.75879,238.43408Zm-9.02246,20.92481a126.34685,126.34685,0,0,0,3.15381-18.04053c.40332-4.00732.61572-8.082.63134-12.11133l3,.01172c-.01611,4.12549-.23339,8.29736-.646,12.3999a129.38064,129.38064,0,0,1-3.229,18.46973Zm-.87891-1.94385-2.99121-.23438,1.53174-19.53173,2.99121.23437ZM438.05078,299.959c1.24024-7.90087,2.22363-15.9414,2.92285-23.89892.54395-6.18457.92871-12.47119,1.14453-18.68652l2.99805.10449c-.21777,6.26758-.60547,12.60791-1.1543,18.84472-.70507,8.02491-1.69726,16.13379-2.94824,24.10108ZM436.374,275.86963c.17871-4.01856.17871-8.09668,0-12.12207l2.9961-.13379c.18359,4.11426.18359,8.28223,0,12.38916a139.94282,139.94282,0,0,1-2.83887,22.4541l-2.93555-.61621A136.95973,136.95973,0,0,0,436.374,275.86963Zm-5.99511,3.37012a87.57215,87.57215,0,0,0,.376-10.291l3-.06738a90.46306,90.46306,0,0,1-2.5957,23.62549l-2.91406-.71582A87.61461,87.61461,0,0,0,430.37891,279.23975Zm-3.91309,10.936-2.97461-.39453,1.915-14.42529,2.97461.39453Zm20.96777,58.27246c2.46094-4.15234,4.03711-6.64453,5.1875-8.46386a43.624,43.624,0,0,0,3.41993-6.07813,108.50067,108.50067,0,0,0,4.53125-12.47266c.71582-2.21972,1.39746-4.47754,2.02636-6.71191l2.88867.8125c-.63964,2.27051-1.332,4.56543-2.05957,6.82031a110.46855,110.46855,0,0,1-4.66015,12.80371,46.43185,46.43185,0,0,1-3.61133,6.42969c-1.14063,1.80371-2.70313,4.27441-5.14258,8.38965-1.44043,2.43164-2.85254,4.87012-4.19726,7.25l-2.61133-1.47656C444.55957,353.35449,445.98145,350.89746,447.43359,348.44824ZM431.1875,367.91113l14.29785-26.80859,2.64649,1.41211L433.834,369.32324Zm-5.48145.11231,13.02149-23.74512,2.63086,1.44336L428.33691,369.4668Zm-.80468-1.26074-2.6543-1.39844,8.80859-16.72266L433.71,350.04Zm-126.59278-38.335-3-.04687.12745-8.043,3,.04688Zm4.78711-3.40625h-3v-8.043h3Zm4.65967-2.68066h-3V311.36133h3Zm5.29785-3.12793h-3V304.5957h3Zm6.25537-7.53223h-3v-13.021h3Zm5.68067-7.21289h-3V292.915h3Zm5.87256-5.55273h-3V291h3Zm5.5-8.42578h-2V288.064h2Zm-14.18116,58.21289h-3v-8.55274h3Zm6.51075-2.8086h-3V334.4043h3Zm5.80859-4.7871h-3v-13.4043h3Zm6.12744-2.68067h-3V326.043h3Zm6-6.63867h-3v-9.12793h3Zm6.064-4.27637h-3v-8.93652h3Zm6.3833-5.043h-3V315.957h3ZM307.33105,405.6416a46.56093,46.56093,0,0,1-.52783-11.959l2.98926.252a43.34982,43.34982,0,0,0,2.30322,18.09961l-2.83008.99609A46.57055,46.57055,0,0,1,307.33105,405.6416Zm4.14942-6.13867a62.37321,62.37321,0,0,1,0-6.36719l2.99609.1543a59.17576,59.17576,0,0,0,1.66016,17.26465l-2.91211.7207A62.55141,62.55141,0,0,1,311.48047,399.50293Zm6.581,5.75293a48.83037,48.83037,0,0,1-.96582-10.53613l3,.05078a45.64141,45.64141,0,0,0,3.04883,17.22265l-2.7998,1.07813A48.8787,48.8787,0,0,1,318.06152,405.25586Zm5.811,1.54394a33.35194,33.35194,0,0,1-1.15869-7.57519l2.998-.10938a30.323,30.323,0,0,0,3.40577,12.89454l-2.66114,1.38476A33.41253,33.41253,0,0,1,323.87256,406.7998Zm6.03174,2.42774c-.499-2.04688-.93555-4.1416-1.29737-6.22559l2.95606-.51367c.3501,2.01856.77246,4.04688,1.25586,6.02832.44385,1.82129.95068,3.65137,1.50732,5.44238l-2.86523.89063C330.88623,412.999,330.36279,411.10742,329.9043,409.22754Zm9.13037,7.57519L335.29,404.63281l2.86719-.88281,3.74463,12.16992Zm5.27295-.01171-3.23389-10.8086,2.874-.85937,3.23389,10.80859Zm6.25976.09863-1.87207-10.12793,2.9502-.54492,1.87207,10.12793Zm5.53565.10156-1.7876-9.10644,2.94336-.57813,1.7876,9.10645Zm6.03271-.13769-1.61719-10.12793,2.9629-.47266,1.61718,10.12793Zm4.5-1.86817-1.021-9.78711,2.98339-.31054,1.021,9.7871Zm3.23242-3.76269-.5957-6.46778,2.98731-.27539.5957,6.46778Zm5.88086-5.46778.34034,3.65918-2.98731.27735-.34033-3.65918Zm4.34668.9043h-3V403.5957h3Zm-55.42334,15.25293,2.46826,15.40332-2.96191.47461-2.46826-15.40332Zm4.76123.05566,2.55323,14.127-2.95215.5332L326.48145,422.501Zm6.88477,2.33789,3.23389,15.2334-2.93457.623-3.23389-15.2334Zm7.584,2.0918,2.3833,13.44727-2.9541.52343-2.3833-13.44726Zm6.92481,14.25781-2.46826-12.33984,2.9414-.58789,2.46826,12.33984Zm8.15625-11.74316,1.02148,11.65918-2.98828.26172-1.02148-11.65918Zm3.40674.18848,2.96484-.457,1.70215,11.06446-2.96484.457Zm9.6875-1.39747,1.44677,9.19141-2.96386.4668-1.44678-9.19141Zm6.95312-3.61621,2.12744,8.59571-2.91211.7207-2.12744-8.5957Zm6.48682-1.44336,1.1914,6.46778-2.95019.543-1.19141-6.46778Zm5.5249-1.43066h2v2.80859h-2Zm6.82764-7.25977.5957,4.50977-2.97461.39258-.5957-4.50977Zm3.65136-4.57031h3v3.915h-3Zm3.40381-.85058h3V413.043h-3Zm8.10645-4.51075h-3v-3.83007h3ZM155.87238,264.70209a17.59545,17.59545,0,0,1,5.95739-10.80847,19.325,19.325,0,0,0-1.19146,12.85107,14.29,14.29,0,0,0,4.93615,8.08508c3.88263,2.95392,8.33142,2.62574,10.46808,2.46808a19.90916,19.90916,0,0,0,11.48938-4.93616,18.653,18.653,0,0,1-9.19147,8.85108c-.71826.30517-10.05865,4.09076-17.19152-1.87238C154.77069,274.00812,155.7572,265.56189,155.87238,264.70209Zm10.93621,1.88922,2.61078-3.54694-1.44183-4.1615,4.18011,1.38691,3.51227-2.65723-.02728,4.40411,3.61249,2.51923-4.197,1.335-1.27967,4.21417-2.56652-3.579Zm-35.505,42.5517a17.59584,17.59584,0,0,1,3.65845-11.78693,19.32487,19.32487,0,0,0,1.4212,12.8277,14.28975,14.28975,0,0,0,6.46344,6.92523c4.398,2.11145,8.68951.89392,10.75067.3092a19.90894,19.90894,0,0,0,10.25971-7.14911A18.65287,18.65287,0,0,1,156.6366,320.79c-.64209.4436-9.02863,6.03284-17.21631,1.62854C132.09875,318.48016,131.364,310.0083,131.30359,309.143Zm12.93548-4.35224-2.25036-3.78583,4.37378.51661,2.90509-3.31019.86029,4.31934,4.04584,1.74-3.84211,2.1529-.4046,4.38555-3.23486-2.98877-4.2959.9704Zm-14.015,56.55695a17.59546,17.59546,0,0,1,3.075-11.95233,19.32512,19.32512,0,0,0,2.04968,12.74237,14.28968,14.28968,0,0,0,6.79578,6.59936c4.4964,1.89282,8.723.466,10.75287-.2193a19.90928,19.90928,0,0,0,9.89618-7.64441,18.6532,18.6532,0,0,1-6.69495,10.86292c-.6195.47461-8.72137,6.469-17.11554,2.47223C131.47693,370.63458,130.3269,362.20905,130.22406,361.34772Zm12.70612-4.98242-2.43366-3.67066,4.39386.30109,2.739-3.44885,1.07142,4.27185,4.12646,1.53918-3.73175,2.339-.18866,4.40015-3.37775-2.82624-4.2431,1.18024ZM376.286,373.79175a17.59581,17.59581,0,0,1-3.53424-11.82471,19.32537,19.32537,0,0,0,8.33148,9.85681,14.28988,14.28988,0,0,0,9.22662,2.14563c4.82825-.69909,7.71216-4.10241,9.09723-5.737a19.90878,19.90878,0,0,0,4.53162-11.65484,18.65312,18.65312,0,0,1-.12866,12.75964c-.28571.72626-4.13184,10.04187-13.38446,10.95026C382.15173,381.09985,376.81854,374.4765,376.286,373.79175Zm9.16327-12.69715-3.97882-1.88824,3.91894-2.00958.56629-4.36762,3.12225,3.1062,4.32886-.81115-1.98932,3.92932,2.10913,3.86633-4.35175-.67773-3.02532,3.20062Zm-14.54981-52.78881a19.3253,19.3253,0,0,0,10.783,7.092,14.28974,14.28974,0,0,0,9.45649-.55677c4.43219-2.03857,6.23358-6.11956,7.09869-8.07959a19.90894,19.90894,0,0,0,1.04333-12.4613,18.653,18.653,0,0,1,3.49225,12.27313c-.06823.77741-1.11706,10.80109-9.733,14.29407-7.70453,3.12353-14.69592-1.71716-15.40069-2.2229A17.59615,17.59615,0,0,1,370.89941,308.30579Zm8.43012-1.033,3.1889-3.03766-.69452-4.34912,3.87445,2.09417,3.92157-2.00451-.79437,4.332,3.11823,3.11023-4.36542.58313L385.584,311.9278l-1.90362-3.97156Zm-28.76306-34.20526a19.32517,19.32517,0,0,0,11.41235,6.02722,14.28975,14.28975,0,0,0,9.35974-1.45935c4.21674-2.45349,5.61914-6.68824,6.29273-8.72205a19.90927,19.90927,0,0,0-.1543-12.50391,18.65278,18.65278,0,0,1,4.651,11.88245c.00653.7804-.078,10.8584-8.32007,15.16016-7.37018,3.84662-14.79284-.30261-15.54278-.73859A17.59548,17.59548,0,0,1,350.56647,273.06757Zm11.28619-6.3302-2.59912-3.55549,4.403.09968,2.57824-3.57062,1.26587,4.21832,4.19263,1.34869-3.62073,2.50739.01288,4.40417-3.50354-2.66864-4.18463,1.37323Z" transform="translate(-28.99316 -55.46748)"/><path class="cls-1" d="M516.51172,435.49316a66.39242,66.39242,0,0,1-32.3711,3.86524,84.958,84.958,0,0,0,15.78126-33.90235l1.47753-6.7998-5.72753,3.95215A130.67041,130.67041,0,0,1,463.499,418.94824c-5.3457,1.81446-10.39062,3.10645-16.77832,4.74317-7.31054,1.873-16.40722,4.2041-30.11035,8.335-13.01562,3.92578-23.82373,7.78222-24.24951,15.24316a7.9898,7.9898,0,0,0,.91138,4.06763l-.02271.0105c1.63281,3.52343,3.17871,7.14453,4.59375,10.76074,1.643,4.19745,3.14289,8.49817,4.4903,12.81238q-1.77942.65186-3.58942,1.31262c-13.99365,5.11328-29.854,10.9082-42.98584,17.4082-9.04394,4.47754-20.8501,11.30664-44.39941,24.92774l-.00928.00586c-.13281.07617-13.39063,7.64648-23.06006,7.9746-.75.0254-4.88037.13477-9.96777.168-.00586-.001-3.353.02246-6.25879,0-14.50879-.10839-32.48877-10.57812-32.668-10.68359-26.769-15.75781-44.45361-26.168-66.44043-33.10449-2.0918-.65918-4.16113-1.26758-6.23975-1.87891q-.681-.20013-1.36529-.40185a54.87171,54.87171,0,0,0,7.52222-18.26508,14.21163,14.21163,0,0,0,1.13507-7.28619c-.93946-7.81055-9.83545-14.51075-27.19727-20.48536-13.3667-4.5996-22.40674-5.48144-31.14893-6.334a125.03753,125.03753,0,0,1-22.64453-3.7627A120.81843,120.81843,0,0,1,61.13184,410.5293l-9.91163-6.124,6.12745,9.91016c3.77929,6.1123,7.86621,12.13379,12.14648,17.89844a256.24758,256.24758,0,0,0,16.84424,20.38379,92.58887,92.58887,0,0,1-43.61279-5.52832l-13.73243-5.24219,10.90821,9.85254a159.57955,159.57955,0,0,0,63.05371,34.99511c-.6294,1.39844-1.27051,2.79883-1.91651,4.18555-.62793,1.34863-1.18115,2.51465-1.66845,3.542-2.17139,4.5752-3.16211,6.66309-3.66358,9.97266a25.734,25.734,0,0,0,.18555,8.5752l.208,1.11914.938.64453c5.82324,4.001,11.90039,7.82129,18.0625,11.35254,9.73632,5.58007,16.42138,8.55859,29.73974,14.49316,3.08936,1.37695,6.54834,2.918,10.501,4.69434,4.86279,2.18457,19.66064,8.832,35.52783,16.31836,13.54346,6.38964,19.438,9.40429,23.33887,11.39941a94.39871,94.39871,0,0,0,10.18115,4.66894c13.53857,5.37891,30.3877,12.07227,52.585,12.10938h.12744a130.6025,130.6025,0,0,0,24.76172-2.77832c17.43018-3.5166,26.249-8.18457,40.85938-15.91895,8.95166-4.73828,20.09179-10.63476,36.82812-18.13964,31.10742-13.94727,48.24219-21.63086,50.16211-22.44532,1.07227-.45507,6.30371-3.09375,17.76563-8.87695l.10156-.05078a72.41571,72.41571,0,0,0,12.57031-8.14356c2.665-2.1455,4.13281-3.32714,4.97656-4.96972,2.38086-4.63477.40723-9.2461-2.08984-15.085-.8418-1.9668-1.79492-4.19532-2.71-6.69239a86.03214,86.03214,0,0,1-3.47949-12.31836,168.8092,168.8092,0,0,0,24.9541-8.375c8.36426-3.56347,17.01367-7.248,26.36133-14.86718A85.90582,85.90582,0,0,0,519.59375,439.834l6.82324-8.10937Zm-22.32257,18.5127q-.90673.51471-1.80976.99914l-2.99676-9.67718c.82928.03845,1.65881.04535,2.48852.05542Zm.77936-8.6546c.40026-.01282.80072-.02332,1.2005-.04285l2.55206,5.91333c-.62018.4118-1.23822.8122-1.85321,1.19482Zm4.36828-.27332c.58228-.05438,1.16559-.09729,1.74628-.166l1.64459,3.45465q-.74918.57165-1.49176,1.11169Zm4.85864-.6076c.53669-.08741,1.07068-.19269,1.60566-.2923l.50787,1.285c-.38715.33307-.77905.65992-1.172.98511Zm-18.02117.63611,3.49609,11.28967q-1.832.90454-3.66461,1.73236l-4.64-13.63147C482.96283,444.75092,484.56543,444.96033,486.17426,445.10645Zm-18.31092-21.87372q1.37457-.50025,2.74237-1.03736l6.01642,17.67542-2.257,2.628Zm5.52893-2.16065c.76276-.31836,1.52606-.634,2.28553-.96808l5.62628,13.84882q-1.17362,1.62927-2.43592,3.20654Zm17.15778-3.86413c-.24011.5935-.48169,1.18634-.73609,1.77362l-1.29278-5.37915c.35712-.20459.71588-.40338,1.072-.61158Zm-2.77863,6.10937c-.36572.72119-.7301,1.44306-1.118,2.15351l-3.14349-9.1316c.766-.398,1.53167-.79748,2.29333-1.21161Zm-3.111,5.5788q-.64572,1.05459-1.32263,2.09253l-4.929-12.13257c.80182-.3747,1.60053-.76178,2.3982-1.15393Zm7.7868-16.88544-.14678-.64709c.14965-.092.30108-.17823.45056-.27082C492.655,411.40088,492.54694,411.704,492.4472,412.01068Zm-59.43255,26.54205-.092,1.29133c-.74524.013-1.39411.04388-1.87476.069-.6737.03521-1.30395.09466-1.91113.1676l-.15625-5.9466c.87036-.24707,1.72443-.488,2.5506-.71881l.03338,1.03687,2.998-.0957-.05676-1.76343q2.19974-.60242,4.20031-1.13489l1.09491,9.104a22.05894,22.05894,0,0,0-3.87725-.63073l.08313-1.16578Zm-9.03571,2.71473-.23437-5.62317q1.15264-.33756,2.25824-.65717l.148,5.63465C425.39288,440.8092,424.67651,441.0285,423.97894,441.26746Zm-3.20068-4.74817.24579,5.8955c-.39478.16785-.79151.33912-1.19544.51392-.68383.296-1.38122.597-2.11572.90076v-6.391c.16449-.04969.32867-.09925.48535-.14649Q419.51734,436.8943,420.77826,436.51929Zm-20.72669,8.07208q.25186-.18649.52674-.37122l.06592,3.65339c-.24079.01916-.48084.03985-.72278.05633Zm3.588,2.96631-.09034-5.00769q.45108-.21891.92347-.43317l.094,5.32269C404.26007,447.48413,403.9483,447.5177,403.63953,447.55768Zm3.91882-.64234-.10687-6.048c.68493-.26666,1.37982-.52539,2.07623-.77576l.20959,6.34235Q408.65837,446.69525,407.55835,446.91534Zm5.15363-1.28906-.21668-6.55469c.75916-.25012,1.50348-.48883,2.21759-.71289v6.61359Q413.72312,445.31836,412.712,445.62628Zm-9.74665,14.47821c-.87622-2.239-1.81341-4.47076-2.77691-6.68976a61.72245,61.72245,0,0,0,16.78326-3.40106c1.96191-.7041,3.59814-1.41211,5.042-2.03711,3.17871-1.376,5.47559-2.37011,9.32324-2.57129,2.208-.11425,8.90332-.46191,10.94629,2.92871a4.05479,4.05479,0,0,1,.23828.463l-.03027.01068.32727.9281a7.30154,7.30154,0,0,1,.06531,2.33264A49.88583,49.88583,0,0,1,431.876,462.16113a48.10588,48.10588,0,0,1-6.61133,3.707c-4.75318,2.21375-10.94916,4.61719-17.7638,7.1482C406.13623,468.66766,404.62122,464.33478,402.96533,460.10449ZM159.84021,478.96643a100.14282,100.14282,0,0,1-21.21033-9.399,112.95048,112.95048,0,0,1-17.124-12.39941,5.25368,5.25368,0,0,1,.87549-3.45508c2.5664-3.291,11.189-1.415,14.4375-.70605a40.62254,40.62254,0,0,1,10.40185,3.92382,91.86682,91.86682,0,0,0,12.27832,5.18457c2.38227.80848,4.80872,1.53376,7.24158,2.16694-.38342,1.36212-.81946,2.7088-1.31482,4.02642A50.08413,50.08413,0,0,1,159.84021,478.96643ZM145.02,439.81348c.56177.19329,1.09711.38928,1.64032.58453l-4.08691,8.50916c-.60651-.208-1.24622-.40638-1.91352-.59711l3.86225-8.66284C144.69012,439.70428,144.85046,439.75513,145.02,439.81348Zm23.52588,15.9414a8.15656,8.15656,0,0,1-.29688,3.23828q-1.75744-.45519-3.5061-.97766l2.67242-5.20862A7.10173,7.10173,0,0,1,168.5459,455.75488Zm-6.70038,1.33679c-.19183-.06378-.38715-.11956-.57843-.18444-.52069-.17688-1.00763-.35089-1.492-.52472l3.59637-7.7146a22.42641,22.42641,0,0,1,1.94336,1.662Zm-4.8833-1.7749c-1.027-.4107-1.97284-.8117-2.84876-1.20239l4.16724-8.66351q1.38044.7477,2.58069,1.50177Zm-5.56848-2.46856q-.70643-.34168-1.37494-.671l4.50268-8.60193c.37244.17144.72583.34393,1.08429.51617Zm-4.0741-1.98334c-.63745-.30152-1.28186-.59308-1.93854-.87457l4.10114-8.5387q1.176.45767,2.28277.92078Zm-54.33655.77142c-.45123-.47717-.89294-.96533-1.34082-1.44653L100.623,431.8717c1.10595.203,2.1889.38807,3.24249.55042Zm-6.11285-6.71954L95.226,430.745c.8028.18933,1.58069.35839,2.35254.5227l-8.12121,16.56482C88.58459,446.87024,87.7287,445.89343,86.87024,444.91675Zm5.32416-14.9361L84.794,442.53229q-1.17024-1.36569-2.32056-2.74536l6.70373-10.64722c.8.23492,1.60028.46747,2.40247.68451C91.79059,429.88135,91.98566,429.92535,92.1944,429.98065Zm-18.28424-1.04608c-.35144-.47321-.69373-.95728-1.04242-1.434l2.21539-3.4812q1.48746.64526,2.98322,1.24847l-3.2638,4.83C74.50928,429.7077,74.20081,429.32605,73.91016,428.93457Zm7.023-2.55145q.31164.11673.62353.232l-4.25,6.74695c-.195-.25061-.38531-.50384-.57928-.75507Zm3.52282,1.25824c.5835.19824,1.16718.39489,1.75214.58355l-5.73767,9.1128c-.39771-.49024-.80512-.97315-1.19891-1.46607ZM72.3158,422.77905l-1.34455,2.1128q-1.46767-2.062-2.897-4.15845C69.48047,421.44708,70.89606,422.12244,72.3158,422.77905Zm5.95373,35.88288q1.51044-.03754,3.0199-.12256l-5.93964,11.17346c-.37048-.19415-.74267-.38489-1.11157-.58209Zm-12.03644-.44623c.92108.09082,1.84442.16235,2.76862.227L66.84906,464.901q-.844-.51315-1.68054-1.03821Zm-3.79016,3.90918c-.28106-.18415-.55737-.37531-.83722-.56128l-.08526-3.9281c.574.08484,1.15033.15338,1.72583.228Zm-3.93365-4.98541.05157,2.37512q-2.28442-1.5976-4.512-3.27436C55.5285,456.5777,57.01672,456.87109,58.50928,457.13947Zm10.97766,9.33422,2.61889-7.857q1.46916.05549,2.93995.06805l-3.45826,8.98072C70.88507,467.272,70.183,466.87811,69.48694,466.47369Zm14.4718,7.41529,4.19067-7.24445-2.59668-1.50195L81.2146,472.642q-1.6083-.75743-3.19757-1.55451l6.8125-12.81543c1.57013-.144,3.13782-.31854,4.69989-.5379l-.15393.27173,2.61035,1.47852,1.33258-2.35279,4.20258-.71948-2.38379-2.49182L107.056,432.8764c1.60052.20624,3.1499.37659,4.678.53485l-13.7818,25.90613,2.64844,1.40821,14.35846-26.99018.16741.01654c8.01136.782,15.63038,1.53394,26.52875,4.9588l-3.95025,8.86017c-.6709-.146-1.42774-.30591-2.25019-.46478l2.04767-4.69794-2.75-1.19922-2.35284,5.39814c-5.02533-.65271-11.06507-.495-14.35517,3.723a10.83643,10.83643,0,0,0-1.99115,7.66382l-10.80841,23.59588A154.23692,154.23692,0,0,1,83.95874,473.889Zm374.02173,21.6159c2.332,5.45313,3.40234,8.17285,2.25391,10.40821a18.95235,18.95235,0,0,1-3.53321,3.20019,66.82484,66.82484,0,0,1-11.59863,7.5166l-.10156.05078c-10.3086,5.20118-16.53028,8.33985-17.43653,8.72461-1.89062.80176-16.77539,7.47364-50.26367,22.48926-16.90039,7.57813-28.1289,13.52149-37.15088,18.29785-14.17138,7.501-22.72558,12.02832-39.37451,15.38867A122.39011,122.39011,0,0,1,277.09326,584.25h-.11035c-21.14941-.03516-37.4585-6.51465-50.563-11.7207a88.89415,88.89415,0,0,1-9.708-4.45508c-3.93164-2.01074-9.873-5.04883-23.49609-11.47656-15.91357-7.50782-30.74658-14.1709-35.62061-16.36133-3.95849-1.77832-7.42236-3.32227-10.51611-4.7002-13.56006-6.042-19.749-8.7998-29.24365-14.24121-5.69141-3.26172-11.30908-6.77539-16.71289-10.45117a19.88928,19.88928,0,0,1,.02148-5.64453c.38037-2.50781,1.147-4.12305,3.19483-8.43945.49267-1.03711,1.05127-2.21485,1.686-3.57715,1.10791-2.37934,2.20093-4.79633,3.24933-7.18274l10.55164-23.0354a118.2525,118.2525,0,0,0,16.012,11.34118c11.53027,6.793,20.57715,9.45118,29.32617,12.02246,2.04395.60059,4.0791,1.19825,6.13623,1.84766,21.39014,6.74805,38.86035,17.03125,65.30469,32.59863.78516.46192,19.41895,11.32422,35.4165,11.44336,2.94629.02442,6.33741,0,6.33692,0,5.895-.03808,10.0791-.16992,10.11767-.17187,11.02393-.373,25.02686-8.36426,25.65723-8.72754,23.42236-13.54785,35.1792-20.34863,44.06543-24.74707,12.86133-6.36719,28.57178-12.10742,42.43311-17.17188,10.292-3.75976,20.01318-7.31152,26.9541-10.54492a53.49863,53.49863,0,0,0,7.34765-4.12109,55.06959,55.06959,0,0,0,10.59906-9.30127l5.437,15.41736a92.18906,92.18906,0,0,0,4.19342,15.6925C456.12793,491.17578,457.1123,493.47559,457.98047,495.50488ZM455.446,469.00476l-7.36523-20.88525a9.838,9.838,0,0,0-1.08661-2.62342,10.09907,10.09907,0,0,0-4.0246-3.71081l-1.335-11.10016c2.32019-.60718,4.45587-1.15472,6.45038-1.66559,6.41132-1.64276,11.49481-2.94714,16.95056-4.78638L477.682,461.70679A163.69705,163.69705,0,0,1,455.446,469.00476Zm25.01093-8.455-5.85028-17.33544,3.38574.68188,5.25952,15.45172Q481.86084,459.95258,480.45691,460.5498ZM93.353,466.13184l2.65527,1.39648-2.63818,5.01953-2.65528-1.39453Zm365.3208-31.46778L464.29,453.89844l-2.87891.84179-5.61621-19.23437Zm13.35449,23.8916-2.86523.88868-7.57422-24.42579,2.86523-.88867Z" transform="translate(-28.99316 -55.46748)"/><path class="cls-1" d="M129.30811,493.10352l-3.20752,6.9414a7.47137,7.47137,0,0,1-2.11719,2.82617,5.12234,5.12234,0,0,1-2.85791,1.10059,6.92839,6.92839,0,0,1-3.38184-.7207,7.3256,7.3256,0,0,1-2.791-2.10254,5.0767,5.0767,0,0,1-1.07959-2.85156,6.99738,6.99738,0,0,1,.72754-3.37208l5.55859-12.03222a7.881,7.881,0,0,1,2.1582-2.91406,5.1579,5.1579,0,0,1,2.89112-1.15235,7.632,7.632,0,0,1,6.0708,2.77539,5.05608,5.05608,0,0,1,.98681,2.86719,7.54425,7.54425,0,0,1-.78808,3.44043l-.82569,1.78809-4.01318-1.8545.82568-1.78711a2.12519,2.12519,0,0,0,.187-1.52148,1.58845,1.58845,0,0,0-.91211-1.00195,1.70721,1.70721,0,0,0-1.49024-.04,2.36867,2.36867,0,0,0-1.124,1.2334l-5.5586,12.03222a1.71093,1.71093,0,0,0-.07324,1.418,2.03963,2.03963,0,0,0,1.10791,1.05371,2.06133,2.06133,0,0,0,1.57129.15528,1.90082,1.90082,0,0,0,1.08838-1.0752l1.46729-3.17578-1.91993-.88672,1.7544-3.79785Zm17.03857,1.39941-6.0166,12.71a6.4724,6.4724,0,0,1-2.07715,2.60547,5.022,5.022,0,0,1-2.87793.91309,8.84208,8.84208,0,0,1-6.28418-2.97461,5.0186,5.0186,0,0,1-1.11816-2.80469,6.47213,6.47213,0,0,1,.69824-3.25781l6.0166-12.71094a6.51029,6.51029,0,0,1,2.08447-2.62012,4.966,4.966,0,0,1,2.874-.90527,8.94307,8.94307,0,0,1,6.28418,2.97461,4.964,4.964,0,0,1,1.12207,2.79687A6.51287,6.51287,0,0,1,146.34668,494.50293Zm-3.96094-3.08105a2.34416,2.34416,0,0,0-2.78955-1.32032,2.2708,2.2708,0,0,0-1.18555,1.22852l-5.5498,11.72461a2.29241,2.29241,0,0,0-.20605,1.71191,2.00772,2.00772,0,0,0,1.13867,1.18067,2.029,2.029,0,0,0,1.65088.13964,2.2935,2.2935,0,0,0,1.19287-1.24414l5.55029-11.72558A2.26587,2.26587,0,0,0,142.38574,491.42188Zm16.98633,2.98925-9.86279,14.832,5.5249-16.93359-4.10352-1.98828-6.96093,25.02832,4.18213,2.02539,15.32421-20.97656Zm3.58527,18.43647,5.40887,2.67486,1.87744-3.79785L164.83533,509.05l2.87506-5.81378,6.18561,3.05871,1.88574-3.81347-7.739-3.82685-2.301-1.138-11.3291,22.91016,1.70953.84558-.00006.00012,1.367.676.77753.38458.00006-.00006,6.18549,3.05865,1.88574-3.8125-6.18555-3.05939Zm17.85028,7.89263c-.01477-.00024-.03028-.00341-.04511-.00378l-1.85919,11.94226-4.11621-2.08008,2.09235-11.05462-1.287-.65039-4.87518,9.64837-3.76026-1.89941,11.53418-22.82813,1.791.90509,3.74908,1.89374a8.21127,8.21127,0,0,1,2.813,2.17969,4.88958,4.88958,0,0,1,1.081,2.76269,6.12025,6.12025,0,0,1-.73828,3.15235l-1.34765,2.667a6.427,6.427,0,0,1-2.13916,2.543A4.978,4.978,0,0,1,180.80762,520.74023Zm-3.32831-5.58093,2.01141,1.01648a1.82722,1.82722,0,0,0,1.37842.19434,1.63444,1.63444,0,0,0,.97656-.89551l1.28418-2.541a1.90815,1.90815,0,0,0,.20069-1.43457,1.7336,1.7336,0,0,0-.95411-1.03418L180.365,509.4483Zm23.92206.36511L194.18005,529.469l2.37171-16.45629-3.002-1.55469-11.74511,22.68066,3.49463,1.80957,6.81976-13.16974L190.103,538.43555l3.0332,1.57031,11.74512-22.67969Zm18.085,9.49414L209.209,535.292l2.79786-14.22851-3.648-1.92969-11.94776,22.59473,3.46387,1.83105,7.12524-13.47375-2.08618,11.02844,1.90039,1.00488,8.30237-8.42987-7.40979,14.0119,3.38721,1.792L223.042,526.89844Zm3.68164,18.92926,5.32568,2.83539,1.99073-3.73925-5.32581-2.83545,3.048-5.72577,6.09131,3.24286,1.999-3.75489-6.09144-3.243.00013-.00018-3.79541-2.02051L214.3999,551.26855l3.79541,2.02051.00019-.00036,6.09063,3.24255,1.999-3.75488-6.09076-3.24262Zm23.40234-4.63922-7.166,13.97321,2.30664-16.46539-3.0083-1.543L227.04736,558l3.50244,1.7959,6.76728-13.19605-1.9538,15.6648,3.03906,1.55859,11.65479-22.72656Zm4.019,6.7959,3.83953,1.60395-8.23944,19.7232,3.96778,1.65723,8.239-19.72315,3.8396,1.604,1.61279-3.86035-11.647-4.86524Zm30.78955,5.99121a6.51267,6.51267,0,0,1,.53369,3.30567l-.981,14.02832a6.47186,6.47186,0,0,1-.98682,3.18164,5.019,5.019,0,0,1-2.34863,1.89746,8.84677,8.84677,0,0,1-6.936-.48438,5.01982,5.01982,0,0,1-2.06153-2.20605,6.47291,6.47291,0,0,1-.53467-3.28809l.98047-14.02832a6.514,6.514,0,0,1,.98877-3.20019,4.96564,4.96564,0,0,1,2.34766-1.88867,8.94171,8.94171,0,0,1,6.93555.48535A4.96369,4.96369,0,0,1,281.37891,552.0957Zm-4.27637,1.877a2.02954,2.02954,0,0,0-1.50733-.6875,2.00586,2.00586,0,0,0-1.57128.47168,2.26768,2.26768,0,0,0-.65772,1.57519l-.90478,12.94141a2.29528,2.29528,0,0,0,.43066,1.66894,2.00549,2.00549,0,0,0,1.49023.68555,2.02931,2.02931,0,0,0,1.58887-.4707,2.29254,2.29254,0,0,0,.65869-1.59278l.90479-12.94043A2.26539,2.26539,0,0,0,277.10254,553.97266Zm17.81055,4.99121-5.98627.8822-.99481-6.74719,6.84387-1.009-.61035-4.13867-6.84375,1.009V548.96l-4.25391.62695,3.728,25.28614,4.2539-.62793-1.51269-10.25971,5.98633-.88287Zm18.31073,4.23309-2.5138-5.80743,5.53705-2.39637-1.68311-3.88769-5.5368,2.39624-2.57666-5.95245,6.3327-2.74164-1.68994-3.90332-8.52832,3.6914.00006.00013-1.75055.75769,10.15284,23.45507,1.75018-.7575.0003.00067,8.52832-3.69238-1.68994-3.90333Zm6.98907-26.779,16.64795,20.30469-3.83008,1.87695-2.44189-3.2273-4.46588,2.18781,1.05377,3.90765-3.83008,1.877-5.84277-25.59961Zm2.52051,8.57226,2.308,8.55878,3.04077-1.48968Zm22.5459-1.68847a7.0728,7.0728,0,0,0-1.519-2.1084,5.3232,5.3232,0,0,0-1.74316-1.07031,7.24084,7.24084,0,0,0-1.854-.4043q-.94118-.07617-1.85889-.08594-1.06494-.03369-2.01025-.04a4.84915,4.84915,0,0,1-1.67383-.27832,2.07537,2.07537,0,0,1-1.13282-1.07324l-.76757-1.52246a1.84153,1.84153,0,0,1-.16407-1.46191,1.981,1.981,0,0,1,1.06739-1.09961,1.75656,1.75656,0,0,1,1.48-.126,2.23062,2.23062,0,0,1,1.1333,1.15137l.65674,1.30273,3.80078-1.97461-.64893-1.28711a6.32821,6.32821,0,0,0-3.54394-3.41015,6.07262,6.07262,0,0,0-4.78467.56054,6.26119,6.26119,0,0,0-3.39063,3.54,6.19337,6.19337,0,0,0,.60205,4.834l.59327,1.17773a7.19265,7.19265,0,0,0,1.59716,2.18652,5.87675,5.87675,0,0,0,1.87989,1.14942,7.94966,7.94966,0,0,0,2.01367.45117q1.02685.09228,1.98389.10254.9873-.0044,1.8623.03613a4.48719,4.48719,0,0,1,1.52637.31348,1.96835,1.96835,0,0,1,1.00781.97754l1.00488,1.99414a2.0963,2.0963,0,0,1,.21533,1.56445,1.88668,1.88668,0,0,1-1.04736,1.1377,1.979,1.979,0,0,1-1.58056.17675,2.08742,2.08742,0,0,1-1.16456-1.11621l-.61718-1.22363-3.80811,1.958.6167,1.22461a7.12591,7.12591,0,0,0,2.2085,2.70605,5.11813,5.11813,0,0,0,2.90429.94727,7.19267,7.19267,0,0,0,3.37891-.86621,6.17338,6.17338,0,0,0,3.36279-3.55469,6.33547,6.33547,0,0,0-.62939-4.88965Zm7.16845-18.40528-1.88379-3.73632-11.27,5.68359,1.88378,3.73633,3.71552-1.87378,9.62482,19.08472,3.83935-1.93555L348.73267,526.77Zm27,4.46094a4.85772,4.85772,0,0,1-2.41015,7.14746l-3.66114,1.82-2.51757,1.25226-11.3794-22.88574,2.20465-1.09662-.00006-.00006.94379-.46936.71734-.35682v.00007l1.97168-.98053a5.45987,5.45987,0,0,1,4.17725-.53516,5.19417,5.19417,0,0,1,2.999,2.85645l1.22071,2.45605a4.21854,4.21854,0,0,1,.41015,2.98633,4.42235,4.42235,0,0,1-1.7998,2.47461,4.69843,4.69843,0,0,1,3.28076-.041,4.35737,4.35737,0,0,1,2.29346,2.25586ZM365.161,518.42023l2.79395,5.61908,1.568-.77954a1.48379,1.48379,0,0,0,.84424-.96973,2.09232,2.09232,0,0,0-.24561-1.44824l-1.22119-2.45508a1.63753,1.63753,0,0,0-.9165-.88867,1.57083,1.57083,0,0,0-1.23926.13476ZM375.40234,530.918l-1.52636-3.06934a2.20162,2.20162,0,0,0-1.061-1.12109,1.61424,1.61424,0,0,0-1.39892.10644l-1.661.82563,3.14612,6.32739,1.7229-.85712a1.70066,1.70066,0,0,0,.91846-.9375A1.602,1.602,0,0,0,375.40234,530.918Zm17.55909-7.0166L386.769,526.947l-2.79266-5.67859,5.41424-2.6629-1.86962-3.80078-5.41413,2.66217-2.86242-5.82056,6.19207-3.04474-1.87744-3.81738-8.33887,4.10059.00007.00012-1.71149.84167,11.2793,22.93555,3.85839-1.89746-.00012-.00025,6.19251-3.04565Zm1.23974-24.29981,6.86756,14.126-11.77918-11.73737-3.04053,1.47754,11.16651,22.97071,3.54-1.72071L394.472,511.381l11.34833,10.97156,3.07178-1.49316-11.167-22.97071Zm23.436,1.76074-5.70508,2.73926,1.811,3.77149,1.90674-.915,1.51416,3.15332a1.89654,1.89654,0,0,1,.13574,1.52344,2.38892,2.38892,0,0,1-2.63818,1.29589,1.71361,1.71361,0,0,1-1.04736-.959l-5.73682-11.94824a2.36948,2.36948,0,0,1-.23486-1.65235,1.70591,1.70591,0,0,1,.97949-1.123,1.587,1.587,0,0,1,1.354-.06543,2.11972,2.11972,0,0,1,1.05323,1.11328l.85205,1.77441,3.98584-1.91406-.85205-1.77441a7.5558,7.5558,0,0,0-2.15186-2.79883,5.05031,5.05031,0,0,0-2.83838-1.06446,7.62618,7.62618,0,0,0-6.00586,2.91309,5.15362,5.15362,0,0,0-.95263,2.96289,7.87142,7.87142,0,0,0,.87255,3.51953l5.73682,11.94824a6.99132,6.99132,0,0,0,2.13672,2.708,5.07121,5.07121,0,0,0,2.88623.9834,7.32052,7.32052,0,0,0,3.39844-.8125,6.92576,6.92576,0,0,0,2.709-2.14941,5.117,5.117,0,0,0,.97168-2.90332,7.47447,7.47447,0,0,0-.83105-3.43262Zm4.51025-15.16308L438.54,506.71094l-3.85352,1.82812-2.401-3.25732-4.49255,2.13165,1.00488,3.92059-3.85351,1.82813-5.52246-25.66992Zm2.41309,8.60254,2.20092,8.58709,3.0589-1.45141Zm26.085,6.23047-1.77637-3.78711-5.93378,2.78265-9.077-19.352-3.89258,1.82617,10.85352,23.13965,2.67657-1.25567Z" transform="translate(-28.99316 -55.46748)"/></svg>