<?xml version="1.0" encoding="utf-8"?>
<svg xmlns="http://www.w3.org/2000/svg" x="0px" y="0px" width="250px" height="250px">
<ellipse fill="#FFFFFF" stroke="#0D280B" stroke-width="1.2393" cx="125" cy="125" rx="123.6" ry="123.24"/>
<ellipse fill="none" stroke="#0D280B" stroke-width="3.7106" cx="125" cy="125" rx="117.65" ry="117.31"/>
<ellipse fill="#0D280B" cx="125" cy="125" rx="88.87" ry="88.61"/>
<ellipse fill="#0D280B" cx="23.48" cy="114.27" rx="2.52" ry="2.51"/>
<ellipse fill="#0D280B" cx="226.57" cy="114.27" rx="2.52" ry="2.51"/>
<path fill="none" stroke="#FFCC00" stroke-width="0.25" stroke-miterlimit="10" d="M97.25,109.8l-1,1.32 M110.92,100.32l-6.38,3.26"
	/>
<path fill="#0D280B" d="M221.49,96.77l1.31,0.69l-3.59,5.18c-0.32,0.47-0.56,0.68-0.91,0.77c0,0-0.04-0.01-0.07,0
	c0.12,0.39,0.37,1.21,0.45,1.52c0.08,0.31,0.26,1.13,0.35,1.55l0.36-0.1c-0.26-1.2-0.2-1.48,0.64-2.71l3.86-5.57l4.62,2.63
	c0.91,0.52,1.06,0.72,1.41,1.8l0.36-0.09c-0.16-0.49-0.41-1.35-0.51-1.74c-0.08-0.31-0.33-1.4-0.45-1.92l-0.36,0.09
	c0.14,0.66,0.07,0.92-0.2,0.99c-0.17,0.05-0.41,0-0.62-0.13l-6.01-3.13l3.73-0.97c1.76-0.46,2.13-0.32,2.49,0.92l0.36-0.09
	c-0.16-0.53-0.48-1.62-0.58-2.02c-0.1-0.38-0.36-1.51-0.47-2.01l-0.36,0.1c0.22,1.12-0.07,1.42-1.76,1.87l-6.58,1.71
	c-1.72,0.43-2.08,0.3-2.46-0.78l-0.36,0.1c0.12,0.39,0.43,1.45,0.58,2.02c0.14,0.55,0.37,1.49,0.47,2.01l0.36-0.09
	c-0.29-1.27-0.04-1.55,1.73-2.01 M223.87,83.67c0.2,0.38,0.31,0.59,0.44,0.93c0.38,0.96,0.41,1.62,0.13,2.32
	c-0.3,0.75-0.94,1.36-1.72,1.67c-1.45,0.56-2.78-0.08-3.4-1.66c-0.18-0.45-0.25-0.78-0.34-1.36 M216.26,95.12
	c-0.52-1.31-0.34-1.7,2.24-4.97l1-1.27c0.08-0.13,0.19-0.25,0.28-0.36c0.52,0.64,0.81,0.9,1.34,1.16c0.73,0.35,1.55,0.37,2.33,0.06
	c1.06-0.42,1.86-1.4,2-2.47c0.09-0.55-0.05-1.2-0.45-2.21c-0.08-0.2-0.14-0.37-0.22-0.52l-0.36-0.82c-0.15-0.34-0.29-0.65-0.4-0.92
	l-0.37-0.94l-0.24-0.6c0-0.02-0.05-0.12-0.09-0.27l-0.35,0.14c0.38,1.11,0.15,1.41-1.52,2.09l-6.33,2.48
	c-1.65,0.63-2.05,0.55-2.54-0.5l-0.35,0.13c0.18,0.41,0.63,1.46,0.81,1.92c0.19,0.48,0.55,1.5,0.69,1.91l0.35-0.13
	c-0.39-1.13-0.15-1.45,1.51-2.12l2.91-1.14c0.08,0.29,0.11,0.43,0.18,0.69c0.28,0.92,0.23,1.13-0.56,2.19
	c-1.62,2.09-1.79,2.33-2.13,2.84c-0.73,1.15-0.82,1.85-0.37,2.99c0.11,0.27,0.19,0.44,0.37,0.74 M218.94,72.99
	c1.39,2.57,0.04,5.74-3.15,7.45c-1.35,0.73-2.73,0.92-3.94,0.56c-1.09-0.32-2.05-1.12-2.59-2.13c-1.37-2.54-0.07-5.72,2.98-7.36
	C214.9,70.09,217.71,70.7,218.94,72.99 M219.48,72.96c-1.62-3.01-5.37-4.09-8.45-2.44c-2.99,1.61-4.02,5.28-2.37,8.35
	c0.81,1.5,1.99,2.49,3.57,2.96c1.57,0.47,3.37,0.31,4.75-0.43C220.04,79.76,221.15,76.05,219.48,72.96 M207.48,67.5l6.38-0.83
	c0.93-0.13,1.23-0.02,1.82,0.72l0.3-0.22c-0.31-0.37-0.73-0.94-0.91-1.19c-0.21-0.29-0.62-0.91-0.85-1.3l-0.31,0.22
	c0.41,0.67,0.45,0.88,0.23,1.04c-0.13,0.09-0.39,0.16-0.67,0.21l-5.84,0.82l2.43-5.02c0.17-0.34,0.34-0.57,0.53-0.7
	c0.35-0.25,0.54-0.16,1.05,0.46l0.31-0.21c-0.36-0.44-0.95-1.25-1.23-1.64c-0.32-0.45-0.86-1.25-1.1-1.65l-0.31,0.22
	c0.5,0.8,0.52,1.07,0.13,1.89l-3.02,6.35l-1.52,1.07c-1.47,1.01-1.88,1.02-2.63,0.04L202,68c0.25,0.32,0.96,1.26,1.26,1.69
	c0.27,0.38,0.87,1.29,1.14,1.7l0.31-0.21c-0.63-1.02-0.48-1.39,0.97-2.4 M194.22,58.86l9.36-4.88c1.28-0.65,1.64-0.64,2.46,0.08
	l0.26-0.27c-0.34-0.31-1.03-0.93-1.28-1.17c-0.24-0.24-0.92-0.94-1.23-1.27l-0.26,0.27c0.61,0.67,0.71,0.99,0.37,1.33
	c-0.16,0.17-0.32,0.28-0.78,0.51l-7.07,3.83l4.61-9.34l-0.32-0.31l-9.23,5.2l3.61-7.48c0.16-0.34,0.42-0.74,0.57-0.89
	c0.29-0.29,0.66-0.19,1.22,0.34l0.26-0.27c-0.38-0.35-1.18-1.07-1.5-1.38c-0.31-0.3-1.02-1.04-1.41-1.44L193.61,42
	c0.69,0.72,0.69,1.31,0,2.71l-4.38,9.32l0.31,0.3l9.11-5.05l-4.69,9.33 M185.76,50.7l1.97-2.13l-0.26-0.19
	c-1.42,1.41-2.24,1.36-4.52-0.31c-1.57-1.15-1.6-1.26-0.72-2.52l2.33-3.24l0.63,0.46c2.22,1.62,2.3,1.75,1.7,2.77l0.26,0.19
	c0.18-0.31,0.57-0.86,0.91-1.32c0.31-0.42,0.64-0.83,0.91-1.14l-0.26-0.19c-0.81,0.98-1.04,0.94-3.18-0.61l-0.7-0.52l2.93-3.97
	l1.47,1.08c1.83,1.3,2.2,2.34,1.28,3.68l0.29,0.21l1.43-2.24l-6.41-4.7l-0.22,0.3c0.95,0.76,0.93,1.15-0.13,2.6l-4.02,5.45
	c-1.08,1.44-1.46,1.59-2.46,0.9l-0.23,0.32 M176.38,44.18l4.96-8.14c0.91-1.47,1.3-1.68,2.28-1.2l0.19-0.32
	c-0.35-0.18-1.24-0.64-1.58-0.84c-0.37-0.21-1.22-0.74-1.51-0.92l-0.19,0.32c0.97,0.64,0.99,1.08,0.17,2.6l-3.61,6.57l-2.17-12.81
	l-2.28-1.3l-0.19,0.32c1.2,0.7,1.25,1.08,0.34,2.7l-3.38,5.88c-0.9,1.54-1.26,1.72-2.34,1.17l-0.19,0.32
	c0.39,0.18,1.08,0.55,1.59,0.85c0.5,0.28,1.09,0.64,1.49,0.91l0.19-0.32c-1-0.65-1.03-1.04-0.17-2.6l3.78-6.75l2.28,13.37
	 M164.28,30.11l0.43-0.46l-2.47-0.95l0.88-2.27c0.38-0.98,0.77-1.65,1.12-1.92c0.45-0.36,1.05-0.44,1.6-0.23
	c0.9,0.35,1.19,1.07,0.9,2.16l0.32,0.12l0.72-1.84c-0.41-0.29-0.71-0.45-1.11-0.6c-2.2-0.85-3.85-0.04-4.78,2.36l-0.7,1.81
	l-1.4-0.54l-0.21,0.55l1.4,0.54l-1.75,4.53c-0.49,1.3-0.56,1.35-1.74,0.97l-0.14,0.35c0.77,0.24,1.19,0.38,1.69,0.58
	c0.53,0.2,1.19,0.49,1.72,0.74l0.13-0.35c-1.12-0.51-1.15-0.59-0.63-1.88l1.76-4.53 M154.41,26.19c1.62,0.49,2.29,2.59,1.58,4.94
	c-0.48,1.6-1.62,2.34-2.95,1.94c-1.61-0.48-2.34-2.55-1.68-4.73C151.88,26.6,153.04,25.78,154.41,26.19 M154.87,25.9
	c-2.1-0.63-4.12,0.47-4.77,2.64c-0.65,2.13,0.47,4.2,2.58,4.83c2.03,0.61,4.02-0.46,4.64-2.53C158.01,28.6,156.97,26.54,154.87,25.9
	 M142.73,25.84l3.91-5.1c0.56-0.75,0.86-0.88,1.8-0.78l0.06-0.37c-0.48-0.05-1.19-0.15-1.49-0.2c-0.35-0.06-1.09-0.2-1.52-0.31
	l-0.06,0.37c0.76,0.18,0.94,0.3,0.9,0.57c-0.03,0.16-0.16,0.39-0.32,0.61l-3.54,4.71l-1.86-5.26c-0.12-0.36-0.16-0.64-0.12-0.87
	c0.07-0.42,0.27-0.5,1.07-0.42l0.06-0.37c-0.57-0.06-1.56-0.21-2.03-0.29c-0.54-0.09-1.49-0.27-1.94-0.38l-0.06,0.37
	c0.92,0.21,1.13,0.39,1.44,1.24l2.39,6.62l-0.31,1.82c-0.32,1.75-0.6,2.05-1.83,1.89l-0.05,0.37c0.41,0.05,1.57,0.21,2.08,0.3
	c0.46,0.08,1.53,0.3,2.02,0.4l0.06-0.37c-1.17-0.27-1.32-0.64-1.03-2.38 M132.1,17.94l2.12,0.12c1.5,0.05,2.02,0.67,2.01,2.36
	l0.46,0.03l0-2.84l-10.46-0.61l-0.22,2.82l0.41,0.02c0.17-1.7,0.88-2.21,2.87-2.08l1.5,0.09l-0.51,8.73
	c-0.12,1.79-0.36,2.12-1.62,2.08l-0.02,0.37c0.57,0,1.65,0.02,2.21,0.06c0.48,0.03,1.33,0.11,2.03,0.19l0.02-0.37
	c-1.21-0.12-1.4-0.47-1.32-2.25 M124.53,28.59c-1.23-0.02-1.46-0.35-1.5-2.13l-0.19-6.78c-0.05-1.78,0.17-2.12,1.39-2.21l-0.01-0.37
	c-0.34,0.03-1.48,0.09-2.14,0.11c-0.55,0.01-1.66,0.01-2.07,0l0.01,0.37c1.21,0.02,1.44,0.35,1.5,2.13l0.18,6.78
	c0.03,1.78-0.17,2.12-1.39,2.21l0.01,0.37c0.57-0.05,1.57-0.1,2.2-0.12c0.64-0.02,1.5-0.02,2.02,0 M117.8,20.16l-0.26-2.6
	c-1.85-0.23-2.2-0.25-3.05-0.16c-1.15,0.11-1.98,0.45-2.59,1.04c-0.64,0.64-0.96,1.53-0.87,2.45c0.13,1.3,0.87,2.1,2.57,2.72
	c2.2,0.78,2.2,0.78,2.77,1.1c0.82,0.47,1.32,1.14,1.4,1.92c0.13,1.35-0.92,2.46-2.48,2.61c-1,0.1-1.88-0.17-2.52-0.77
	c-0.41-0.37-0.6-0.73-0.81-1.49L111.63,27l0.34,2.54c0.94,0.23,1.86,0.28,2.91,0.18c2.59-0.26,4.05-1.69,3.84-3.8
	c-0.15-1.47-0.93-2.32-2.74-2.95c-2.18-0.77-2.18-0.77-2.71-1.05c-0.67-0.36-1.08-0.98-1.16-1.71c-0.13-1.26,0.76-2.24,2.13-2.38
	c0.91-0.09,1.83,0.16,2.36,0.64c0.45,0.4,0.68,0.9,0.8,1.73 M101.65,20.07c0.41-0.14,0.63-0.2,1-0.27c1.01-0.2,1.67-0.11,2.31,0.29
	c0.69,0.43,1.18,1.17,1.34,1.99c0.3,1.52-0.57,2.71-2.24,3.03c-0.47,0.09-0.81,0.11-1.4,0.1 M111.6,29.57
	c-1.38,0.27-1.74,0.03-4.51-3.09l-1.07-1.2c-0.11-0.11-0.21-0.23-0.3-0.34c0.72-0.39,1.04-0.64,1.38-1.11
	c0.47-0.66,0.64-1.45,0.48-2.27c-0.22-1.12-1.05-2.08-2.08-2.4c-0.53-0.18-1.2-0.16-2.27,0.05c-0.21,0.04-0.39,0.08-0.56,0.13
	l-0.87,0.21c-0.36,0.09-0.69,0.17-0.97,0.23l-1,0.2l-0.63,0.12c-0.02,0-0.12,0.02-0.28,0.04l0.07,0.37c1.17-0.18,1.42,0.1,1.79,1.86
	l1.32,6.65c0.33,1.73,0.18,2.11-0.94,2.4l0.07,0.37c0.44-0.1,1.55-0.36,2.04-0.46c0.51-0.1,1.59-0.28,2.01-0.34l-0.07-0.37
	c-1.18,0.18-1.46-0.11-1.82-1.85l-0.6-3.06c0.3-0.02,0.45-0.03,0.72-0.05c0.96-0.12,1.16-0.03,2.06,0.94
	c1.77,1.96,1.98,2.17,2.42,2.59c1,0.93,1.68,1.14,2.89,0.9c0.28-0.06,0.47-0.11,0.79-0.23 M99.69,32.24l-0.56-2.85l-0.31,0.1
	c0.3,1.98-0.23,2.61-2.92,3.45c-1.86,0.58-1.96,0.54-2.46-0.91l-1.24-3.79L92.96,28c2.62-0.82,2.78-0.81,3.25,0.28l0.31-0.1
	c-0.14-0.33-0.36-0.97-0.53-1.51c-0.15-0.49-0.3-1.01-0.38-1.41l-0.31,0.1c0.31,1.23,0.14,1.39-2.38,2.2l-0.83,0.26L90.6,23.1
	l1.74-0.54c2.14-0.7,3.19-0.38,3.73,1.15l0.34-0.11l-0.96-2.48l-7.6,2.37l0.11,0.36c1.17-0.31,1.47-0.07,2.03,1.64l2.02,6.46
	c0.52,1.72,0.42,2.11-0.73,2.5l0.12,0.37 M87.15,23.6c-0.44,0.24-1.1,0.55-1.46,0.71c-0.41,0.18-1.25,0.52-1.62,0.67l0.15,0.34
	c0.66-0.24,1-0.21,1.14,0.11c0.1,0.23,0.18,0.61,0.18,0.96l0.26,9.31l-6.44-6.17c-0.27-0.25-0.57-0.62-0.65-0.79
	c-0.2-0.45,0.01-0.84,0.65-1.21c0.03-0.01,0.12-0.07,0.21-0.13l-0.15-0.34c-0.4,0.2-1.49,0.73-2.01,0.96
	c-0.47,0.21-1.58,0.67-2.06,0.86l0.15,0.34c1.23-0.31,1.32-0.3,2.43,0.75l8.03,7.59l0.31-0.14L86.23,26
	c-0.01-1.28,0.16-1.61,1.07-2.06 M79.63,39.78c-1.1,0.55-1.46,0.36-2.32-1.2l-3.3-5.94c-0.87-1.56-0.82-1.96,0.21-2.6l-0.18-0.33
	c-0.29,0.18-1.27,0.76-1.85,1.08c-0.48,0.27-1.47,0.77-1.84,0.96l0.18,0.32c1.09-0.54,1.44-0.35,2.32,1.2l3.3,5.93
	c0.85,1.57,0.83,1.97-0.21,2.6l0.18,0.33c0.48-0.31,1.35-0.8,1.89-1.11c0.56-0.31,1.32-0.71,1.79-0.93 M73.92,43.62l-5.21-7.99
	c-0.94-1.45-0.96-1.89-0.1-2.57l-0.21-0.31c-0.31,0.24-1.12,0.83-1.44,1.05c-0.35,0.24-1.2,0.78-1.49,0.96l0.21,0.31
	c1-0.6,1.4-0.42,2.43,0.97l4.38,6.09l-12.52-3.6l-2.16,1.48l0.21,0.31c1.16-0.77,1.52-0.65,2.59,0.86l3.86,5.59
	c1,1.48,1.01,1.88,0.04,2.61l0.21,0.31c0.33-0.27,0.97-0.73,1.46-1.06c0.47-0.32,1.06-0.7,1.47-0.95l-0.21-0.31
	c-1.02,0.62-1.38,0.48-2.42-0.97l-4.47-6.31l13.07,3.74 M55.95,41.56c-0.29,0.29-1.01,1.01-1.23,1.22c-0.26,0.24-1.02,0.9-1.32,1.15
	l0.26,0.27c0.63-0.47,0.95-0.57,1.28-0.41c0.48,0.26,1.82,1.5,3.51,3.31c1.35,1.45,1.86,2.12,2.11,2.84
	c0.53,1.43,0.1,3.04-1.08,4.14c-1.14,1.05-2.69,1.38-3.91,0.8c-0.53-0.26-1.17-0.76-1.73-1.38l-3.2-3.53
	c-1.19-1.33-1.25-1.71-0.44-2.56l-0.25-0.28c-0.3,0.31-1.1,1.1-1.44,1.41c-0.37,0.34-1.18,1.04-1.5,1.32l0.26,0.27
	c0.9-0.71,1.27-0.62,2.47,0.68l3.14,3.41c0.53,0.6,1.17,1.1,1.71,1.36c1.64,0.79,3.65,0.38,5.17-1.03c1.22-1.13,1.77-2.62,1.55-4.09
	c-0.14-0.94-0.76-1.97-2.07-3.42l-2.59-2.9c-1.14-1.3-1.16-1.45-0.41-2.32 M51.35,62.9l-2.09-2.02l-0.2,0.25
	c1.38,1.45,1.31,2.27-0.42,4.49c-1.19,1.54-1.3,1.56-2.54,0.65l-3.2-2.4l0.48-0.62c1.68-2.17,1.81-2.25,2.82-1.63l0.2-0.25
	c-0.3-0.19-0.85-0.59-1.3-0.94c-0.41-0.32-0.82-0.66-1.13-0.94l-0.2,0.25c0.96,0.83,0.91,1.06-0.69,3.16l-0.53,0.69l-3.91-3.02
	l1.12-1.43c1.35-1.8,2.4-2.13,3.72-1.18l0.22-0.28l-2.21-1.48l-4.88,6.28l0.3,0.23c0.79-0.93,1.17-0.9,2.61,0.19l5.36,4.14
	c1.41,1.12,1.55,1.49,0.84,2.47l0.31,0.24 M33.33,68.72l1.1-1.81c0.75-1.3,1.54-1.46,3.03-0.66l0.24-0.39l-2.51-1.33l-5.44,8.93
	l2.4,1.52l0.21-0.35c-1.43-0.95-1.55-1.81-0.5-3.51l0.78-1.28l7.49,4.54c1.53,0.95,1.71,1.31,1.08,2.41l0.32,0.19
	c0.27-0.51,0.79-1.44,1.09-1.92c0.25-0.41,0.73-1.12,1.12-1.7l-0.32-0.19c-0.67,1.01-1.08,1.01-2.61,0.11 M33.96,79.88l-1.58,3.43
	l-3.79-3.62 M40.45,77.61c-0.49,0.93-0.84,1.14-1.86,1.12l-11.73-0.35l-0.07,0.16l7.69,7.73c1.06,1.07,1.22,1.62,0.78,2.57
	l0.34,0.16c0.13-0.33,0.53-1.29,0.71-1.66c0.15-0.32,0.59-1.2,0.81-1.63l-0.34-0.16c-0.37,0.75-0.62,0.91-1.02,0.73
	c-0.2-0.09-0.46-0.29-0.72-0.53l-2.3-2.1l1.74-3.77l3.25,0.1c0.39,0.02,0.74,0.06,0.9,0.14c0.41,0.19,0.39,0.47-0.01,1.42l0.34,0.16
	c0.12-0.34,0.67-1.63,0.91-2.13c0.17-0.37,0.68-1.39,0.92-1.83 M23.92,88.12l0.69-2c0.45-1.42,1.19-1.76,2.82-1.29l0.15-0.44
	l-2.74-0.77l-3.4,9.88l2.67,0.97l0.13-0.39c-1.6-0.62-1.9-1.44-1.23-3.32l0.49-1.41l8.29,2.84c1.7,0.6,1.95,0.91,1.57,2.12
	l0.35,0.12c0.15-0.55,0.47-1.57,0.65-2.11c0.16-0.46,0.47-1.25,0.73-1.9l-0.35-0.12c-0.45,1.13-0.83,1.22-2.53,0.66 M23.61,96.42
	l-2.55-0.63c-0.84,1.67-0.97,1.98-1.18,2.81c-0.28,1.12-0.24,2.01,0.12,2.78c0.39,0.81,1.12,1.42,2.02,1.64
	c1.27,0.31,2.27-0.12,3.43-1.5c1.48-1.8,1.48-1.8,1.97-2.23c0.72-0.61,1.52-0.85,2.28-0.67c1.32,0.33,2.01,1.69,1.63,3.21
	c-0.24,0.97-0.79,1.71-1.57,2.1c-0.49,0.26-0.89,0.31-1.68,0.26L28,104.51l2.52,0.53c0.53-0.8,0.89-1.65,1.14-2.67
	c0.63-2.52-0.24-4.37-2.3-4.88c-1.44-0.36-2.51,0.1-3.71,1.58c-1.46,1.79-1.46,1.79-1.9,2.19c-0.57,0.5-1.29,0.69-2.01,0.51
	c-1.23-0.31-1.86-1.47-1.53-2.8c0.22-0.88,0.76-1.66,1.4-2c0.53-0.29,1.08-0.34,1.9-0.17 M233.37,122.87c0,1.33-0.36,1.58-2.29,1.66
	l-7.36,0.32c-1.93,0.08-2.31-0.15-2.42-1.46l-0.41,0.02c0.04,0.37,0.13,1.6,0.16,2.31c0.03,0.6,0.04,1.79,0.04,2.24l0.4-0.02
	c0-1.31,0.36-1.56,2.29-1.66l7.36-0.32c1.93-0.07,2.31,0.15,2.42,1.46l0.4-0.02c-0.07-0.62-0.13-1.69-0.16-2.37
	c-0.03-0.69-0.05-1.62-0.04-2.18 M227.52,132.89l3.52,0.37c1.92,0.22,2.26,0.49,2.21,1.74l0.4,0.04c0.05-0.67,0.14-1.88,0.18-2.21
	c0.04-0.37,0.23-1.76,0.3-2.22l-0.4-0.06c-0.2,1.3-0.59,1.49-2.53,1.3l-7.31-0.77c-1.9-0.22-2.22-0.47-2.19-1.72l-0.4-0.04
	c-0.03,0.44-0.12,1.69-0.18,2.25c-0.05,0.48-0.22,1.72-0.3,2.3l0.4,0.04c0.21-1.43,0.54-1.61,2.52-1.42l3.27,0.35l-0.84,7.86
	l-3.27-0.35c-1.92-0.22-2.26-0.49-2.18-1.8l-0.4-0.04c-0.05,0.62-0.15,1.94-0.2,2.42c-0.06,0.56-0.15,1.24-0.27,2.03l0.4,0.04
	c0.21-1.24,0.6-1.43,2.5-1.25l7.31,0.77c1.92,0.22,2.26,0.49,2.2,1.74l0.4,0.05c0.04-0.52,0.13-1.75,0.18-2.23
	c0.05-0.46,0.22-1.7,0.29-2.22l-0.4-0.04c-0.2,1.3-0.59,1.49-2.53,1.3l-3.52-0.37 M232.01,145.7l-2.9-0.85l-0.1,0.37
	c1.03,0.42,1.26,0.54,1.57,0.96c0.45,0.59,0.45,1.49,0,3.21c-0.61,2.33-0.96,2.62-2.68,2.17l-7.39-1.91
	c-1.87-0.48-2.16-0.82-1.89-2.1l-0.39-0.1c-0.1,0.45-0.34,1.54-0.5,2.16c-0.14,0.56-0.45,1.58-0.59,2.04l0.39,0.1
	c0.37-1.06,0.85-1.18,2.63-0.74l7.13,1.85c1.87,0.5,2.16,0.84,1.89,2.1l0.4,0.1 M228.74,157.58l-2.83-1.38l-0.12,0.33
	c1.91,1.03,2.11,1.9,1.08,4.77c-0.71,1.98-0.81,2.04-2.39,1.52l-4.1-1.4l0.29-0.8c1-2.79,1.11-2.92,2.35-2.62l0.12-0.33
	c-0.38-0.09-1.07-0.32-1.66-0.53c-0.53-0.19-1.07-0.4-1.47-0.59l-0.12,0.33c1.27,0.53,1.3,0.79,0.35,3.48l-0.32,0.89l-5.04-1.8
	l0.67-1.85c0.78-2.3,1.75-3,3.43-2.47l0.13-0.36l-2.78-0.79l-2.9,8.1l0.38,0.14c0.5-1.21,0.9-1.32,2.75-0.68l6.92,2.47
	c1.83,0.68,2.1,1.01,1.69,2.26l0.4,0.14 M209.42,171.86c0.18-0.75,0.43-1.42,0.83-2.24c1.59-3.2,5.28-4.39,8.57-2.76
	c2.12,1.04,3.26,2.83,3.13,4.94c-0.04,0.95-0.32,1.99-0.79,2.94c-0.36,0.73-0.77,1.34-1.07,1.6c-0.45,0.38-0.9,0.33-1.99-0.21
	 M219.04,179.98c0.26-0.61,0.8-1.78,1.04-2.26c0.16-0.31,0.29-0.54,0.59-1.06c0.51-0.85,0.72-1.24,0.96-1.72
	c0.57-1.14,0.92-2.24,1.02-3.24c0.27-2.55-1.21-5.16-3.68-6.37c-1.74-0.86-3.9-0.91-5.55-0.13c-1.29,0.61-2.4,1.79-3.24,3.48
	c-0.14,0.3-0.33,0.72-0.56,1.23c-0.57,1.29-0.91,2-1.06,2.31c-0.14,0.28-0.81,1.54-1.09,2.07l0.36,0.18
	c0.64-1.21,1.08-1.27,2.84-0.43l6.61,3.26c1.74,0.88,1.96,1.27,1.38,2.51 M209.18,181.72l-0.36-0.6l-1.69,2.45l-2.23-1.53
	l-0.06,0.08c0.82,1.8,0.98,2.49,0.96,4.22l0.13,0.09l1.03-1.49l3.79,2.6c1.08,0.74,1.79,0.9,2.61,0.57c0.57-0.22,1.11-0.66,1.49-1.2
	c0.07-0.11,0.09-0.17,0.14-0.3l-0.2-1.85l-0.25,0.06c0,0.58-0.11,0.98-0.37,1.36c-0.32,0.46-0.86,0.79-1.37,0.82
	c-0.45,0.04-0.89-0.14-1.62-0.64l-3.52-2.42 M208.83,192.31c0.02,0.9-0.12,1.51-0.42,1.88c-0.48,0.6-1.48,0.7-2.13,0.18
	c-0.51-0.41-0.54-0.83-0.13-2.18l0.49-1.63 M210.97,190.85l-0.3-0.24c-0.06,0.3-0.12,0.45-0.24,0.6c-0.3,0.37-0.66,0.29-1.42-0.32
	l-2.04-1.63c-0.83-0.66-1.58-1.09-2.04-1.16c-0.7-0.11-1.49,0.22-2,0.85c-0.3,0.38-0.47,0.83-0.61,1.71c-0.16,1-0.06,1.58,0.38,1.93
	c0.2,0.16,0.4,0.22,0.81,0.25l0.21-1.09c-0.34-0.05-0.49-0.1-0.66-0.23c-0.5-0.4-0.52-1.21-0.07-1.76c0.66-0.81,1.64-0.81,2.64-0.02
	l0.68,0.54c-0.28,0.81-0.72,2.22-0.9,2.79c-0.36,1.27-0.28,1.98,0.31,2.45c0.86,0.69,2.1,0.56,2.78-0.28
	c0.52-0.65,0.74-1.48,0.69-2.71c0.53,0.33,0.82,0.43,1.19,0.46 M196.76,200.07l-1.91-6.68c-0.29-0.98-0.22-1.31,0.48-2.06
	l-0.28-0.29c-0.35,0.39-0.9,0.93-1.14,1.16c-0.28,0.27-0.88,0.81-1.26,1.11l0.28,0.29c0.65-0.54,0.87-0.62,1.07-0.41
	c0.12,0.12,0.24,0.39,0.33,0.68l1.81,6.11l-5.78-1.8c-0.39-0.13-0.67-0.27-0.84-0.45c-0.32-0.33-0.26-0.55,0.33-1.19l-0.28-0.29
	c-0.42,0.45-1.19,1.21-1.57,1.57c-0.43,0.41-1.2,1.12-1.6,1.44l0.28,0.29c0.78-0.66,1.07-0.72,2.01-0.44l7.3,2.22l1.39,1.45
	c1.32,1.41,1.39,1.85,0.47,2.81l0.29,0.28c0.31-0.32,1.2-1.23,1.61-1.61c0.36-0.35,1.24-1.13,1.65-1.49l-0.28-0.29
	c-0.99,0.84-1.41,0.73-2.74-0.65 M191.16,206.9c-0.67-0.95-0.61-1.39,0.24-2.02l-0.28-0.39c-0.29,0.26-1.2,0.97-1.66,1.3
	c-0.39,0.29-1.3,0.9-1.7,1.15l0.28,0.39c0.98-0.62,1.31-0.57,1.94,0.33l1.6,2.18c-0.56,1.13-1.18,1.91-2.01,2.52
	c-2.67,1.95-6.67,1.23-8.73-1.59c-2.02-2.75-1.55-6.06,1.15-8.03c1.36-0.99,2.8-1.44,3.91-1.23c0.58,0.1,0.88,0.29,1.37,0.82
	l0.38-0.27l-1.48-2.02c-1.55,0.46-2.93,1.16-4.34,2.18c-1.62,1.18-2.73,2.61-3.11,4.06c-0.52,1.93-0.12,4.05,1.1,5.72
	c0.97,1.32,2.36,2.24,3.95,2.61c1.83,0.41,3.8-0.07,5.61-1.39c1.37-1,2.39-2.1,3.57-3.92c-0.26-0.31-0.51-0.63-0.9-1.16
	 M169.54,210.35c2.81-1.47,6.23,0.03,8.05,3.5c0.77,1.47,0.96,2.96,0.55,4.26c-0.37,1.17-1.25,2.2-2.34,2.77
	c-2.78,1.45-6.22,0-7.96-3.31C166.33,214.67,167.03,211.65,169.54,210.35 M169.52,209.77c-3.29,1.72-4.51,5.75-2.76,9.1
	c1.7,3.24,5.68,4.41,9.03,2.66c1.64-0.86,2.73-2.12,3.26-3.81c0.53-1.69,0.38-3.64-0.41-5.14
	C176.9,209.25,172.89,208.01,169.52,209.77 M168.47,224.78l-0.97-2.85l-0.36,0.13c0.24,1.08,0.28,1.34,0.11,1.83
	c-0.23,0.71-0.96,1.23-2.62,1.85c-2.26,0.85-2.7,0.73-3.33-0.93l-2.7-7.13c-0.68-1.8-0.58-2.23,0.63-2.75l-0.14-0.38
	c-0.43,0.18-1.46,0.61-2.06,0.84c-0.54,0.2-1.55,0.54-2.01,0.69l0.14,0.38c1.08-0.3,1.45,0.01,2.12,1.72l2.6,6.87
	c0.66,1.81,0.56,2.24-0.63,2.75l0.14,0.38 M147.49,218.33c3.08-0.73,6.04,1.56,6.95,5.37c0.39,1.61,0.2,3.1-0.51,4.27
	c-0.65,1.04-1.75,1.82-2.95,2.11c-3.05,0.72-6.03-1.52-6.9-5.16C143.31,221.74,144.74,218.98,147.49,218.33 M147.61,217.77
	c-3.61,0.86-5.79,4.47-4.91,8.14c0.85,3.56,4.41,5.67,8.1,4.79c1.8-0.43,3.17-1.39,4.1-2.9c0.93-1.51,1.27-3.43,0.87-5.08
	C154.9,219.07,151.31,216.89,147.61,217.77 M140.64,232.74l-0.78-10.29c-0.13-1.87,0.07-2.29,1.24-2.49l-0.04-0.4
	c-0.42,0.06-1.49,0.21-1.92,0.25c-0.46,0.05-1.54,0.12-1.91,0.14l0.04,0.4c1.26-0.05,1.55,0.33,1.8,2.18l0.98,8.06l-10.02-9.91
	l-2.83,0.29l0.04,0.4c1.5-0.13,1.79,0.17,2.01,2.16l0.75,7.31c0.18,1.92-0.02,2.31-1.32,2.5l0.04,0.4c0.46-0.09,1.3-0.19,1.94-0.25
	c0.61-0.06,1.37-0.12,1.89-0.14l-0.04-0.4c-1.3,0.06-1.56-0.27-1.8-2.18l-0.95-8.31l10.47,10.33 M123.76,227.43l-0.09,3.53
	c-0.07,1.93-0.31,2.29-1.57,2.33l-0.01,0.41c0.68,0,1.9-0.01,2.22,0c0.37,0.01,1.78,0.09,2.24,0.12l0.03-0.4
	c-1.31-0.09-1.54-0.46-1.5-2.41l0.19-7.32c0.07-1.91,0.29-2.25,1.55-2.31l0.01-0.41c-0.44,0.01-1.7,0.01-2.26,0
	c-0.48-0.01-1.74-0.08-2.32-0.12l-0.01,0.4c1.45,0.1,1.65,0.41,1.62,2.4l-0.08,3.28l-7.92-0.2l0.08-3.28
	c0.07-1.93,0.31-2.29,1.63-2.31l0.01-0.4c-0.62,0-1.95,0.01-2.44,0c-0.56-0.01-1.26-0.05-2.05-0.11l-0.01,0.4
	c1.26,0.11,1.48,0.48,1.45,2.39l-0.19,7.32c-0.07,1.92-0.31,2.29-1.57,2.33l-0.01,0.41c0.52-0.01,1.76-0.01,2.24,0
	c0.47,0.01,1.72,0.08,2.24,0.11l0.01-0.4c-1.32-0.09-1.54-0.46-1.51-2.41l0.09-3.53 M111.34,229.74c-1.76,1.86-3.57,2.61-5.54,2.28
	c-3.09-0.52-4.96-3.62-4.35-7.22c0.6-3.58,2.95-5.41,6.19-4.87c1.98,0.33,3.25,1.3,3.95,3.06l0.2-0.02l0.3-2.24
	c-1.52-0.65-2.82-1.06-4.12-1.28c-1.85-0.31-3.46-0.07-4.76,0.69c-1.67,0.97-2.96,2.92-3.32,5.03c-0.61,3.65,1.64,6.71,5.41,7.34
	c2.1,0.35,4.11-0.18,5.98-1.54 M96.58,230.53l1.27-2.88l-0.33-0.1c-0.95,1.94-1.82,2.18-4.73,1.27c-2.01-0.63-2.08-0.73-1.62-2.32
	l1.24-4.14l0.81,0.25c2.84,0.89,2.97,0.99,2.72,2.24l0.33,0.1c0.08-0.38,0.28-1.08,0.47-1.67c0.17-0.53,0.36-1.08,0.53-1.49
	l-0.33-0.1c-0.48,1.28-0.74,1.32-3.48,0.49l-0.9-0.28l1.6-5.09l1.88,0.59c2.34,0.69,3.07,1.63,2.61,3.32l0.37,0.12l0.68-2.8
	l-8.23-2.57l-0.12,0.39c1.24,0.45,1.35,0.85,0.79,2.71l-2.2,6.99c-0.6,1.85-0.93,2.13-2.2,1.78l-0.13,0.4 M86.07,213.81l2.1,0.94
	c1.5,0.63,1.78,1.46,1.11,3.16l0.46,0.21l1.11-2.86l-10.34-4.66l-1.32,2.77l0.4,0.18c0.83-1.65,1.75-1.9,3.72-0.99l1.48,0.67
	l-3.91,8.62c-0.82,1.77-1.19,2-2.45,1.48l-0.17,0.37c0.58,0.22,1.65,0.66,2.21,0.92c0.48,0.21,1.31,0.63,1.98,0.98l0.17-0.37
	c-1.17-0.59-1.23-1.02-0.46-2.79 M73.39,212.74l0.55-0.4l-2.42-1.53l1.42-2.23c0.61-0.96,1.17-1.59,1.6-1.79
	c0.55-0.29,1.21-0.24,1.75,0.1c0.88,0.56,1.04,1.39,0.5,2.49l0.31,0.19l1.15-1.81c-0.37-0.39-0.66-0.62-1.05-0.87
	c-2.16-1.36-4.09-0.84-5.58,1.5l-1.13,1.77l-1.37-0.86l-0.34,0.54l1.37,0.86l-2.82,4.45c-0.79,1.28-0.88,1.32-2.05,0.67l-0.22,0.34
	c0.77,0.42,1.19,0.66,1.67,0.97c0.52,0.33,1.15,0.78,1.67,1.15l0.22-0.34c-1.09-0.78-1.09-0.87-0.27-2.13l2.82-4.45 M64.32,206.03
	c1.47,1.1,1.37,3.48-0.24,5.61c-1.09,1.45-2.52,1.78-3.73,0.87c-1.45-1.09-1.43-3.46,0.05-5.43
	C61.6,205.51,63.09,205.1,64.32,206.03 M64.9,205.91c-1.9-1.42-4.36-1.05-5.83,0.91c-1.45,1.93-1.09,4.44,0.82,5.87
	c1.84,1.38,4.26,1.02,5.67-0.84C67.09,209.81,66.8,207.33,64.9,205.91 M51.16,205.1l2.47-1.95l-0.24-0.25
	c-1.76,1.27-2.63,1.08-4.78-1.09c-1.48-1.49-1.5-1.61-0.34-2.81l3.04-3.08l0.6,0.6c2.09,2.11,2.16,2.26,1.35,3.25l0.25,0.25
	c0.25-0.3,0.76-0.83,1.2-1.26c0.4-0.39,0.82-0.79,1.17-1.07l-0.25-0.25c-1.03,0.91-1.27,0.83-3.3-1.19l-0.67-0.67l3.81-3.76
	l1.39,1.4c1.74,1.7,1.95,2.87,0.74,4.15l0.27,0.27l1.91-2.16l-6.07-6.11l-0.29,0.29c0.88,0.97,0.8,1.38-0.57,2.76l-5.22,5.16
	c-1.4,1.36-1.82,1.45-2.78,0.55l-0.3,0.3 M45.31,193.44c0.93-0.69,1.38-0.65,2.03,0.19l0.38-0.29c-0.27-0.28-1.01-1.17-1.35-1.61
	c-0.29-0.38-0.94-1.27-1.19-1.67l-0.38,0.3c0.65,0.96,0.61,1.29-0.28,1.94l-2.14,1.65c-1.15-0.53-1.95-1.13-2.58-1.94
	c-2.02-2.61-1.41-6.61,1.36-8.75c2.71-2.09,6.03-1.7,8.08,0.93c1.03,1.33,1.52,2.75,1.34,3.87c-0.09,0.58-0.27,0.89-0.79,1.39
	l0.28,0.37l1.99-1.53c-0.51-1.54-1.24-2.89-2.31-4.27c-1.23-1.59-2.69-2.65-4.15-2.99c-1.95-0.47-4.07-0.01-5.7,1.25
	c-1.3,1-2.18,2.41-2.51,4.01c-0.36,1.84,0.17,3.79,1.55,5.56c1.04,1.34,2.17,2.33,4.02,3.46c0.31-0.26,0.62-0.53,1.14-0.93
	 M33.54,183.86l2.87-1.3l-0.18-0.3c-2.01,0.81-2.81,0.41-4.37-2.21c-1.07-1.81-1.06-1.93,0.35-2.81l3.7-2.25l0.43,0.73
	c1.52,2.55,1.55,2.72,0.52,3.48l0.18,0.3c0.31-0.23,0.94-0.62,1.47-0.93c0.48-0.28,0.99-0.56,1.4-0.75l-0.18-0.3
	c-1.22,0.63-1.44,0.49-2.91-1.95l-0.48-0.81l4.61-2.72l1,1.69c1.28,2.07,1.2,3.26-0.29,4.2l0.2,0.33l2.38-1.63l-4.4-7.4l-0.35,0.21
	c0.62,1.16,0.44,1.53-1.23,2.54l-6.32,3.74c-1.69,0.98-2.12,0.96-2.83-0.14l-0.37,0.21 M27.97,174.24l2.79-1.14l-0.16-0.35
	c-1.07,0.31-1.32,0.36-1.83,0.23c-0.72-0.19-1.29-0.88-2.01-2.5c-0.99-2.2-0.89-2.64,0.73-3.37l6.97-3.12
	c1.76-0.79,2.2-0.71,2.79,0.46l0.37-0.17c-0.2-0.41-0.7-1.42-0.96-2c-0.24-0.53-0.64-1.51-0.82-1.96l-0.37,0.17
	c0.37,1.06,0.08,1.44-1.59,2.21l-6.72,3.01c-1.77,0.77-2.21,0.69-2.79-0.46L24,165.41 M23.42,163.88l2.88-0.88l-0.13-0.37
	c-1.09,0.21-1.35,0.24-1.84,0.06c-0.7-0.25-1.2-0.99-1.77-2.67c-0.78-2.28-0.64-2.72,1.04-3.29l7.23-2.46
	c1.83-0.62,2.26-0.5,2.74,0.72l0.39-0.13c-0.17-0.43-0.57-1.48-0.77-2.08c-0.19-0.55-0.49-1.56-0.63-2.03l-0.39,0.13
	c0.27,1.09-0.06,1.44-1.79,2.05l-6.97,2.37c-1.84,0.61-2.27,0.49-2.74-0.72l-0.39,0.13 M30.61,143.2c0.63,3.1-1.77,5.96-5.61,6.74
	c-1.63,0.33-3.12,0.1-4.26-0.66c-1.03-0.68-1.77-1.81-2.01-3.02c-0.62-3.06,1.73-5.95,5.41-6.7
	C27.34,138.92,30.05,140.44,30.61,143.2 M31.17,143.34c-0.73-3.63-4.28-5.92-7.99-5.18c-3.6,0.73-5.83,4.2-5.08,7.91
	c0.37,1.82,1.28,3.21,2.76,4.19c1.48,0.98,3.4,1.38,5.07,1.04C29.62,150.56,31.93,147.06,31.17,143.34 M20.34,137.14
	c-2.22-1.28-3.37-2.87-3.5-4.85c-0.21-3.12,2.39-5.65,6.04-5.89c3.63-0.24,5.96,1.61,6.18,4.88c0.14,2-0.52,3.46-2.08,4.54
	l0.07,0.19l2.25-0.23c0.28-1.62,0.38-2.98,0.29-4.29c-0.13-1.87-0.73-3.37-1.77-4.46c-1.34-1.4-3.54-2.2-5.68-2.05
	c-3.7,0.25-6.16,3.14-5.91,6.95c0.14,2.11,1.12,3.94,2.89,5.45"/>
<path fill="#FFFFFF" d="M142.81,136.58c1.27-1.05,2.52-1.58,3.87-1.58c1.8,0,3.12,1.17,3.12,2.78c0,1.56-1.42,2.97-2.98,2.97h-0.34
	l-0.46,1.1c1.18,0.09,1.75,0.29,2.47,0.74c1.13,0.74,1.75,1.87,1.75,3.16c0,2.06-1.54,3.52-3.7,3.52c-1.49,0-2.98-0.77-4.11-2.13
	l0.24,2.3c0.94,0.41,1.9,0.6,3.12,0.6c3.46,0,5.91-2.04,5.91-4.93c0-1.39-0.65-2.68-1.73-3.45c-0.55-0.41-0.99-0.57-1.92-0.81
	c0.98-0.38,1.37-0.57,1.9-0.93c0.87-0.62,1.34-1.51,1.34-2.51c0-2.11-1.8-3.52-4.49-3.52c-1.32,0-2.57,0.24-4.01,0.79
	 M138.48,133.94c-1.06,0.17-2.26,0.26-4.32,0.34v0.6c0.6-0.14,1.22-0.22,1.61-0.22c0.41,0,0.74,0.17,0.91,0.45
	c0.19,0.29,0.22,0.46,0.22,1.46v10.8c0.02,1.94-0.07,2.04-2.14,2.06v0.5c0.62-0.07,1.25-0.1,2.57-0.1c1.51,0,2.43,0.02,3.07,0.1
	v-0.5c-1.87-0.05-1.97-0.17-1.92-2.06 M110.46,134.52c0.97,0,1.98,0.55,2.58,1.41c0.69,0.98,1.15,2.42,1.15,3.66
	c0,2.18-1.24,3.76-2.95,3.76c-2.05,0-3.69-2.28-3.69-5.13C107.55,136.07,108.78,134.52,110.46,134.52 M114.36,142.37
	c0,3.97-2.05,6.99-4.8,6.99c-1.4,0-2.51-0.81-2.95-2.2h-0.19v2.32c0.81,0.31,1.73,0.48,2.68,0.48c3.96,0,6.78-3.71,6.78-8.93
	c0-4.21-2.05-7.04-5.14-7.04c-2.58,0-4.61,2.3-4.61,5.22c0,2.8,1.89,4.79,4.54,4.79c1.68,0,2.86-0.77,3.69-2.37 M101.88,133.94
	c-1.06,0.17-2.26,0.26-4.32,0.34v0.6c0.6-0.14,1.23-0.22,1.61-0.22c0.41,0,0.74,0.17,0.91,0.45c0.19,0.29,0.21,0.46,0.21,1.46v10.8
	c0.02,1.94-0.07,2.04-2.14,2.06v0.5c0.63-0.07,1.25-0.1,2.57-0.1c1.51,0,2.43,0.02,3.07,0.1v-0.5c-1.87-0.05-1.97-0.17-1.92-2.06
	 M197.38,114.86c-0.12-0.34-0.18-0.53-0.22-0.87c-0.1-0.77,0-1.39,0.31-1.88c0.38-0.57,1.1-1,1.87-1.11
	c1.29-0.17,2.14,0.53,2.32,1.88c0.07,0.56,0.04,0.85-0.2,1.43 M202.08,114.23c0.02-0.5,0-0.77-0.06-1.26
	c-0.15-1.1-0.42-1.79-0.92-2.34c-0.55-0.6-1.3-0.85-2.15-0.74c-1.69,0.22-2.47,1.52-2.19,3.63c0.04,0.3,0.11,0.74,0.23,1.35
	c0.06,0.33,0.11,0.61,0.13,0.7c0.04,0.27,0.16,1.33,0.19,1.66l0.31-0.04c-0.1-1.01,0.17-1.25,1.66-1.46l5.69-0.76
	c1.5-0.18,1.8-0.04,1.99,0.98l0.31-0.04c-0.09-0.43-0.2-1.12-0.28-1.72c-0.08-0.57-0.17-1.37-0.2-1.84l-0.31,0.04
	c0.1,1.06-0.15,1.28-1.66,1.49 M207.04,118.11c0.01,1.05-0.26,1.24-1.77,1.33l-5.73,0.32c-1.5,0.08-1.8-0.1-1.9-1.12l-0.32,0.02
	c0.03,0.29,0.12,1.25,0.15,1.81c0.03,0.47,0.05,1.41,0.05,1.76l0.32-0.02c-0.01-1.03,0.26-1.23,1.77-1.33l5.73-0.32
	c1.5-0.07,1.8,0.1,1.9,1.12l0.32-0.02c-0.06-0.48-0.12-1.33-0.15-1.86c-0.03-0.55-0.06-1.27-0.05-1.72 M202.63,125.9l2.75,0.17
	c1.5,0.11,1.78,0.31,1.78,1.29l0.32,0.02c0.02-0.53,0.05-1.49,0.06-1.74c0.02-0.29,0.12-1.39,0.15-1.75l-0.32-0.04
	c-0.11,1.03-0.4,1.19-1.93,1.11l-5.71-0.35c-1.49-0.11-1.75-0.29-1.76-1.28l-0.32-0.02c0,0.35-0.04,1.34-0.07,1.77
	c-0.02,0.38-0.11,1.36-0.15,1.82l0.31,0.02c0.12-1.13,0.37-1.29,1.92-1.21l2.56,0.16l-0.38,6.21l-2.56-0.16
	c-1.5-0.11-1.78-0.31-1.76-1.34l-0.32-0.02c-0.01,0.49-0.05,1.53-0.07,1.91c-0.03,0.44-0.08,0.99-0.14,1.61l0.32,0.02
	c0.12-0.98,0.42-1.15,1.91-1.07l5.72,0.35c1.5,0.11,1.78,0.31,1.78,1.3l0.32,0.02c0.01-0.41,0.04-1.38,0.06-1.76
	c0.02-0.36,0.11-1.35,0.15-1.75l-0.32-0.02c-0.11,1.03-0.4,1.19-1.92,1.11l-2.75-0.17 M199.09,135.23l-2.18-0.38
	c-0.61,1.46-0.7,1.74-0.83,2.46c-0.17,0.97-0.09,1.73,0.26,2.36c0.37,0.67,1.02,1.13,1.8,1.27c1.08,0.19,1.91-0.24,2.8-1.48
	c1.14-1.62,1.14-1.62,1.53-2.01c0.57-0.56,1.23-0.82,1.88-0.7c1.13,0.2,1.79,1.31,1.56,2.63c-0.15,0.84-0.57,1.5-1.2,1.89
	c-0.4,0.25-0.73,0.32-1.4,0.32l-0.05,0.27l2.15,0.3c0.4-0.72,0.65-1.46,0.81-2.34c0.38-2.18-0.45-3.7-2.22-4.01
	c-1.23-0.22-2.11,0.23-3.03,1.57c-1.13,1.61-1.13,1.61-1.48,1.98c-0.45,0.46-1.05,0.66-1.66,0.56c-1.05-0.18-1.65-1.14-1.45-2.29
	c0.14-0.76,0.55-1.46,1.06-1.79c0.43-0.28,0.89-0.35,1.59-0.26 M194.18,147.1c0.07-0.36,0.11-0.56,0.2-0.86
	c0.26-0.84,0.59-1.3,1.14-1.62c0.59-0.34,1.34-0.42,2.02-0.21c1.26,0.38,1.79,1.51,1.37,2.89c-0.12,0.39-0.25,0.65-0.49,1.09
	 M205.26,143.45c-0.35,1.15-0.67,1.32-4.11,2.14l-1.33,0.33c-0.13,0.04-0.26,0.06-0.38,0.09c0-0.7-0.06-1.04-0.27-1.48
	c-0.3-0.62-0.82-1.06-1.5-1.27c-0.92-0.28-1.97-0.05-2.62,0.6c-0.35,0.32-0.6,0.83-0.87,1.72c-0.05,0.17-0.1,0.32-0.13,0.47
	l-0.2,0.74c-0.08,0.31-0.15,0.59-0.22,0.82l-0.26,0.83l-0.16,0.52c0,0.01-0.03,0.1-0.08,0.23l0.3,0.09c0.34-0.95,0.65-1.03,2.1-0.6
	l5.49,1.67c1.42,0.45,1.64,0.71,1.41,1.67l0.3,0.09c0.1-0.37,0.35-1.3,0.48-1.71c0.13-0.42,0.43-1.3,0.55-1.64l-0.3-0.09
	c-0.34,0.96-0.67,1.05-2.11,0.62l-2.52-0.77c0.1-0.24,0.15-0.35,0.25-0.56c0.3-0.76,0.44-0.88,1.52-1.17
	c2.17-0.55,2.41-0.62,2.9-0.78c1.09-0.38,1.52-0.8,1.83-1.81c0.07-0.23,0.11-0.4,0.15-0.68 M202.09,153.79l-2.13-1.22l-0.11,0.25
	c1.43,0.9,1.54,1.59,0.59,3.79c-0.66,1.52-0.74,1.56-1.95,1.08l-3.12-1.3l0.27-0.61c0.93-2.15,1.02-2.24,1.97-1.94l0.11-0.25
	c-0.29-0.09-0.82-0.3-1.26-0.49c-0.4-0.17-0.81-0.37-1.12-0.53l-0.11,0.25c0.96,0.48,0.97,0.68,0.09,2.75l-0.3,0.68l-3.83-1.65
	l0.61-1.42c0.73-1.77,1.53-2.27,2.8-1.77l0.12-0.28l-2.12-0.75l-2.69,6.21l0.29,0.13c0.45-0.93,0.77-0.99,2.18-0.4l5.26,2.26
	c1.39,0.62,1.58,0.9,1.2,1.86l0.3,0.13 M186.16,163.96c0.2-0.57,0.44-1.09,0.81-1.69c1.47-2.4,4.43-3.08,6.88-1.59
	c1.57,0.95,2.33,2.43,2.08,4.08c-0.1,0.74-0.4,1.54-0.83,2.25c-0.34,0.54-0.7,0.99-0.95,1.18c-0.38,0.27-0.73,0.2-1.54-0.29
	 M193.05,170.95c0.24-0.46,0.75-1.34,0.97-1.7c0.14-0.23,0.27-0.41,0.54-0.79c0.46-0.63,0.65-0.92,0.87-1.28
	c0.53-0.85,0.88-1.69,1.04-2.46c0.4-1.98-0.57-4.12-2.39-5.23c-1.29-0.79-2.97-0.98-4.3-0.48c-1.05,0.39-1.99,1.24-2.77,2.51
	c-0.14,0.22-0.31,0.54-0.53,0.92c-0.54,0.97-0.85,1.51-1,1.74c-0.13,0.21-0.74,1.15-1,1.54l0.27,0.16c0.59-0.9,0.94-0.92,2.24-0.14
	l4.9,2.99c1.29,0.8,1.43,1.12,0.89,2.06 M186.53,172.02l-2.04,2.5l-2.33-3.77 M192.34,171.5c-0.6,0.67-0.94,0.76-1.77,0.54
	l-9.54-2.72l-0.1,0.12l4.64,7.95c0.63,1.1,0.65,1.59,0.08,2.28l0.24,0.2c0.18-0.25,0.72-0.95,0.94-1.22
	c0.19-0.24,0.74-0.87,1.02-1.17l-0.24-0.2c-0.46,0.54-0.7,0.62-1,0.38c-0.14-0.11-0.31-0.33-0.48-0.58l-1.43-2.2l2.24-2.74
	l2.65,0.76c0.31,0.1,0.59,0.21,0.71,0.3c0.29,0.24,0.22,0.47-0.31,1.17l0.24,0.2c0.17-0.25,0.9-1.2,1.2-1.57
	c0.22-0.27,0.86-1,1.15-1.31 M184.83,180.84l-1.48-1.95l-0.2,0.19c0.97,1.39,0.8,2.07-0.94,3.72c-1.2,1.14-1.3,1.15-2.21,0.24
	l-2.36-2.41l0.48-0.46c1.7-1.61,1.81-1.66,2.58-1.02l0.2-0.19c-0.23-0.2-0.64-0.6-0.97-0.95c-0.3-0.31-0.6-0.65-0.82-0.92l-0.2,0.19
	c0.7,0.81,0.63,1-1,2.56l-0.54,0.51l-2.88-3.02l1.12-1.07c1.37-1.34,2.29-1.49,3.28-0.53l0.22-0.21l-1.66-1.51l-4.91,4.67l0.22,0.23
	c0.78-0.68,1.1-0.61,2.16,0.48l3.95,4.14c1.04,1.11,1.1,1.44,0.38,2.17l0.23,0.24 M178.42,186.8l-1.37-1.91l-0.24,0.18
	c0.42,0.75,0.51,0.93,0.49,1.34c-0.01,0.58-0.45,1.14-1.56,1.99c-1.51,1.15-1.87,1.16-2.71,0.06l-3.62-4.71
	c-0.92-1.19-0.94-1.54-0.14-2.2l-0.19-0.25c-0.28,0.23-0.96,0.79-1.36,1.1c-0.36,0.28-1.04,0.76-1.36,0.98l0.19,0.25
	c0.75-0.48,1.09-0.32,1.98,0.8l3.49,4.54c0.91,1.2,0.92,1.55,0.14,2.2l0.19,0.25 M161.43,189.64c-1.03,0.56-1.41,1.82-0.85,2.85
	c0.54,1,1.82,1.4,2.82,0.85c1.01-0.54,1.37-1.8,0.81-2.83C163.67,189.51,162.41,189.11,161.43,189.64 M156.67,200.02l-0.59-2.38
	l-0.26,0.09c0.33,1.66-0.09,2.21-2.32,3.02c-1.54,0.56-1.63,0.53-2.11-0.67l-1.2-3.14l0.62-0.23c2.18-0.8,2.31-0.8,2.75,0.1
	l0.26-0.09c-0.13-0.27-0.34-0.8-0.51-1.25c-0.15-0.41-0.29-0.84-0.38-1.17l-0.26,0.09c0.31,1.02,0.17,1.17-1.92,1.95l-0.69,0.25
	l-1.44-3.91l1.44-0.53c1.77-0.68,2.68-0.45,3.19,0.82l0.28-0.1l-0.91-2.05l-6.31,2.3l0.11,0.3c0.98-0.31,1.24-0.12,1.78,1.3
	l1.97,5.36c0.51,1.43,0.44,1.76-0.51,2.14l0.11,0.31 M147.8,200.3c-0.67,1.88-1.72,2.98-3.23,3.37c-2.36,0.6-4.68-1.03-5.38-3.78
	c-0.7-2.74,0.39-4.78,2.87-5.41c1.52-0.39,2.73-0.09,3.79,0.94l0.13-0.08l-0.49-1.69c-1.29,0.02-2.34,0.13-3.34,0.38
	c-1.42,0.36-2.49,1.04-3.18,1.99c-0.88,1.22-1.19,3.02-0.77,4.63c0.72,2.79,3.29,4.27,6.18,3.53c1.61-0.41,2.87-1.42,3.78-2.98
	 M138.19,204.99c-1.03,0.12-1.26-0.13-1.5-1.61l-0.93-5.65c-0.25-1.48-0.1-1.79,0.9-2.01l-0.05-0.31c-0.28,0.06-1.23,0.25-1.78,0.34
	c-0.46,0.08-1.39,0.2-1.73,0.24l0.05,0.31c1.02-0.12,1.24,0.13,1.5,1.61l0.93,5.65c0.23,1.48,0.1,1.79-0.9,2.01l0.05,0.31
	c0.47-0.11,1.3-0.26,1.82-0.35c0.53-0.09,1.25-0.19,1.69-0.23 M133.31,196.14c-0.42,0.05-1.03,0.1-1.37,0.12
	c-0.38,0.02-1.14,0.03-1.47,0.04l0.02,0.31c0.59,0.01,0.85,0.13,0.87,0.43c0.01,0.21-0.05,0.53-0.15,0.8l-2.62,7.41l-3.2-6.8
	c-0.14-0.28-0.26-0.66-0.27-0.81c-0.02-0.42,0.27-0.66,0.88-0.75c0.03,0,0.12-0.02,0.21-0.04l-0.02-0.31
	c-0.37,0.04-1.4,0.12-1.88,0.15c-0.44,0.02-1.45,0.05-1.88,0.06l0.02,0.31c1.06,0.12,1.13,0.16,1.69,1.32l4.03,8.4l0.28-0.02
	l3.42-9.01c0.38-1.02,0.61-1.22,1.47-1.3 M117.85,196.68c0.36-0.02,0.56-0.02,0.87,0.01c0.87,0.06,1.38,0.28,1.82,0.75
	c0.46,0.5,0.69,1.21,0.64,1.92c-0.1,1.3-1.08,2.07-2.5,1.97c-0.4-0.03-0.69-0.1-1.16-0.24 M123.8,206.65
	c-1.19-0.09-1.42-0.36-2.97-3.52l-0.6-1.22c-0.07-0.11-0.12-0.24-0.17-0.35c0.67-0.16,0.99-0.29,1.37-0.59
	c0.53-0.43,0.85-1.04,0.9-1.74c0.07-0.96-0.39-1.92-1.15-2.42c-0.39-0.27-0.94-0.4-1.86-0.47c-0.18-0.01-0.33-0.03-0.48-0.02
	l-0.75-0.03c-0.32-0.01-0.6-0.01-0.84-0.03l-0.86-0.06l-0.54-0.04c-0.02,0-0.11-0.01-0.24-0.03l-0.02,0.31
	c0.99,0.12,1.13,0.4,1.03,1.92l-0.43,5.71c-0.13,1.48-0.33,1.75-1.31,1.74l-0.02,0.31c0.38,0.01,1.34,0.06,1.76,0.08
	c0.43,0.03,1.35,0.13,1.71,0.18l0.02-0.31c-1-0.12-1.16-0.42-1.07-1.92l0.2-2.62c0.25,0.05,0.37,0.07,0.6,0.12
	c0.81,0.12,0.95,0.24,1.46,1.23c1,1.99,1.12,2.21,1.39,2.65c0.61,0.98,1.11,1.3,2.15,1.38c0.24,0.02,0.41,0.02,0.7-0.01
	 M113.38,205.94l0.71-2.35l-0.27-0.05c-0.55,1.6-1.2,1.86-3.54,1.43c-1.62-0.3-1.68-0.37-1.47-1.65l0.56-3.32l0.65,0.12
	c2.28,0.42,2.39,0.49,2.32,1.48l0.27,0.05c0.02-0.3,0.11-0.87,0.2-1.34c0.08-0.43,0.18-0.87,0.27-1.2l-0.27-0.05
	c-0.25,1.04-0.45,1.1-2.64,0.71l-0.73-0.13l0.75-4.09l1.51,0.27c1.87,0.31,2.54,0.97,2.33,2.32l0.3,0.06l0.26-2.23l-6.61-1.21
	l-0.06,0.31c1,0.23,1.13,0.53,0.87,2.02l-1.03,5.62c-0.29,1.49-0.52,1.74-1.53,1.58l-0.06,0.32 M106.76,196.88l0.62-2.12
	c-1.38-0.76-1.64-0.89-2.33-1.09c-0.94-0.27-1.69-0.27-2.36,0c-0.7,0.3-1.23,0.89-1.45,1.64c-0.31,1.05,0.02,1.92,1.15,2.93
	c1.47,1.3,1.47,1.3,1.82,1.73c0.49,0.63,0.67,1.31,0.48,1.94c-0.32,1.1-1.5,1.63-2.77,1.26c-0.81-0.24-1.42-0.73-1.73-1.4
	c-0.21-0.42-0.23-0.75-0.16-1.42l-0.26-0.08l-0.54,2.1c0.66,0.47,1.37,0.8,2.22,1.05c2.11,0.62,3.7-0.05,4.21-1.76
	c0.35-1.2,0.01-2.11-1.2-3.17c-1.46-1.29-1.46-1.29-1.78-1.68c-0.4-0.49-0.54-1.11-0.36-1.7c0.3-1.03,1.31-1.51,2.42-1.19
	c0.74,0.21,1.38,0.7,1.65,1.25c0.23,0.46,0.25,0.92,0.08,1.6 M94.4,192.88c-1.06-0.5-2.31-0.05-2.81,1.01
	c-0.49,1.03-0.05,2.29,0.99,2.77c1.04,0.49,2.27,0.03,2.77-1.03C95.83,194.6,95.41,193.35,94.4,192.88 M85.55,185.16
	c0.33,0.12,0.51,0.2,0.8,0.38c0.64,0.41,1.05,0.88,1.22,1.42c0.19,0.65,0.05,1.48-0.37,2.14c-0.69,1.09-1.76,1.3-2.9,0.59
	c-0.47-0.29-0.67-0.51-0.95-1.06 M83.01,189.16c0.36,0.33,0.58,0.49,0.99,0.75c0.92,0.58,1.62,0.81,2.35,0.78
	c0.8-0.05,1.47-0.46,1.93-1.18c0.91-1.44,0.44-2.85-1.33-3.97c-0.25-0.16-0.62-0.38-1.16-0.68c-0.29-0.16-0.53-0.3-0.61-0.35
	c-0.23-0.14-1.1-0.71-1.37-0.9l-0.17,0.27c0.83,0.56,0.83,0.92,0.04,2.19l-3.07,4.83c-0.82,1.26-1.12,1.41-2,0.91l-0.17,0.26
	c0.38,0.21,0.97,0.56,1.47,0.88c0.48,0.3,1.14,0.74,1.51,1.01l0.17-0.26c-0.86-0.6-0.87-0.92-0.06-2.21 M77.78,191.12
	c-0.79-0.66-0.76-0.99,0.15-2.19l3.46-4.57c0.91-1.2,1.24-1.31,2.07-0.74l0.19-0.25c-0.23-0.16-1.01-0.71-1.45-1.04
	c-0.37-0.28-1.09-0.86-1.35-1.08l-0.19,0.25c0.78,0.65,0.75,0.98-0.14,2.19l-3.47,4.57c-0.92,1.19-1.24,1.31-2.07,0.74l-0.19,0.25
	c0.4,0.26,1.07,0.75,1.49,1.07c0.43,0.32,0.99,0.76,1.32,1.05 M75.44,183.5l-1.87,2.03c-1.03,1.1-1.35,1.19-2.11,0.58l-0.21,0.23
	c0.4,0.34,1.11,0.95,1.3,1.12c0.21,0.19,0.99,0.95,1.24,1.2l0.22-0.22c-0.72-0.72-0.66-1.05,0.36-2.18l3.87-4.21
	c1.02-1.09,1.32-1.17,2.09-0.58l0.21-0.23c-0.26-0.22-1-0.85-1.32-1.14c-0.27-0.25-0.97-0.93-1.29-1.24l-0.21,0.23
	c0.79,0.79,0.75,1.07-0.29,2.22l-1.73,1.88l-4.51-4.12l1.73-1.88c1.03-1.1,1.35-1.19,2.13-0.54l0.21-0.23
	c-0.36-0.31-1.14-0.98-1.42-1.23c-0.32-0.29-0.7-0.66-1.13-1.1l-0.21,0.23c0.67,0.7,0.61,1.03-0.39,2.14l-3.87,4.21
	c-1.03,1.1-1.35,1.19-2.11,0.58l-0.21,0.23c0.31,0.26,1.03,0.88,1.3,1.13c0.27,0.24,0.96,0.92,1.25,1.2l0.21-0.23
	c-0.72-0.72-0.66-1.05,0.36-2.17l1.87-2.03 M70.67,175.26l1.66-1.46c-0.75-1.36-0.9-1.61-1.38-2.14c-0.64-0.73-1.27-1.12-1.98-1.24
	c-0.75-0.11-1.52,0.11-2.1,0.62c-0.82,0.73-1.01,1.63-0.61,3.08c0.53,1.87,0.53,1.87,0.59,2.41c0.07,0.79-0.14,1.45-0.64,1.89
	c-0.86,0.76-2.13,0.59-3-0.39c-0.55-0.62-0.8-1.36-0.7-2.08c0.05-0.46,0.21-0.76,0.63-1.29l-0.18-0.2l-1.58,1.49
	c0.3,0.74,0.72,1.39,1.3,2.05c1.44,1.63,3.13,1.9,4.48,0.72c0.94-0.82,1.14-1.78,0.69-3.3c-0.54-1.85-0.54-1.85-0.6-2.35
	c-0.07-0.63,0.15-1.22,0.61-1.63c0.8-0.71,1.91-0.59,2.67,0.27c0.5,0.57,0.78,1.32,0.71,1.92c-0.06,0.51-0.28,0.91-0.8,1.4
	 M64.56,164.39c0.24,0.26,0.37,0.41,0.55,0.67c0.5,0.7,0.66,1.23,0.57,1.86c-0.09,0.67-0.49,1.3-1.07,1.71
	c-1.07,0.76-2.28,0.51-3.11-0.64c-0.23-0.33-0.36-0.58-0.55-1.03 M60.66,175.27c-0.68-0.96-0.62-1.31,0.83-4.5l0.56-1.24
	c0.04-0.12,0.11-0.24,0.16-0.35c0.55,0.41,0.85,0.56,1.33,0.66c0.67,0.13,1.34-0.02,1.92-0.43c0.78-0.56,1.24-1.52,1.14-2.42
	c-0.04-0.47-0.29-0.97-0.81-1.71c-0.1-0.14-0.19-0.26-0.29-0.38l-0.46-0.59c-0.2-0.25-0.37-0.47-0.51-0.66l-0.5-0.69l-0.31-0.44
	c-0.01-0.01-0.06-0.08-0.13-0.2l-0.26,0.18c0.54,0.83,0.41,1.12-0.82,2.01l-4.67,3.33c-1.22,0.85-1.56,0.87-2.17,0.12l-0.26,0.19
	c0.23,0.29,0.81,1.05,1.05,1.39c0.25,0.35,0.76,1.11,0.95,1.41l0.26-0.18c-0.54-0.84-0.41-1.15,0.8-2.04l2.14-1.53
	c0.12,0.22,0.18,0.33,0.28,0.53c0.42,0.69,0.42,0.87-0.01,1.89c-0.9,2.03-0.99,2.26-1.16,2.75c-0.37,1.09-0.3,1.68,0.3,2.51
	c0.14,0.19,0.25,0.32,0.45,0.52 M57.19,162.23l-1.51-2.77l4.36-0.74 M55.45,167.72c-0.38-0.79-0.35-1.13,0.18-1.81l6.16-7.71
	l-0.07-0.13l-9.11,1.33c-1.26,0.18-1.71,0.01-2.13-0.75l-0.28,0.15c0.16,0.25,0.6,1,0.76,1.3c0.14,0.26,0.51,0.99,0.69,1.35
	l0.28-0.15c-0.32-0.62-0.3-0.87,0.03-1.05c0.16-0.09,0.43-0.17,0.72-0.22l2.57-0.5l1.67,3.04l-1.72,2.14
	c-0.21,0.25-0.41,0.46-0.55,0.54c-0.33,0.18-0.52,0.03-0.96-0.72l-0.28,0.15c0.17,0.25,0.76,1.26,0.98,1.67
	c0.16,0.3,0.59,1.15,0.77,1.53 M50.04,158.24l2.22-0.77l-0.11-0.28c-0.85,0.19-1.04,0.22-1.43,0.1c-0.55-0.18-0.96-0.74-1.45-2.01
	c-0.66-1.74-0.57-2.08,0.73-2.57l5.56-2.11c1.41-0.54,1.74-0.46,2.15,0.47l0.3-0.11c-0.14-0.33-0.48-1.12-0.65-1.58
	c-0.16-0.42-0.42-1.19-0.54-1.55l-0.3,0.11c0.24,0.83-0.01,1.12-1.34,1.64l-5.36,2.04c-1.41,0.52-1.75,0.44-2.15-0.47l-0.3,0.11
	 M55.19,142.64c0.57,2.37-1.21,4.65-4.19,5.37c-1.26,0.3-2.42,0.17-3.33-0.38c-0.82-0.49-1.42-1.34-1.65-2.27
	c-0.57-2.34,1.18-4.65,4.02-5.33C52.52,139.45,54.68,140.53,55.19,142.64 M55.63,142.74c-0.67-2.78-3.49-4.44-6.36-3.75
	c-2.78,0.67-4.43,3.42-3.74,6.25c0.34,1.39,1.08,2.43,2.27,3.14c1.18,0.71,2.68,0.96,3.97,0.65
	C54.62,148.35,56.32,145.58,55.63,142.74 M48.92,136.19l-2.74,0.31c-1.5,0.16-1.8,0.01-1.97-0.94l-0.31,0.04
	c0.07,0.51,0.21,1.44,0.24,1.69c0.03,0.28,0.13,1.36,0.15,1.72l0.32-0.02c-0.07-1.01,0.19-1.22,1.7-1.41l5.69-0.65
	c1.48-0.16,1.77-0.02,1.96,0.93l0.32-0.04c-0.06-0.34-0.2-1.3-0.25-1.72c-0.04-0.37-0.12-1.33-0.16-1.78l-0.31,0.04
	c0.08,1.11-0.14,1.3-1.68,1.49l-2.54,0.29l-0.7-6.06l2.54-0.29c1.5-0.16,1.8-0.01,1.96,0.99l0.32-0.04
	c-0.07-0.47-0.22-1.49-0.26-1.86c-0.05-0.43-0.1-0.96-0.14-1.57l-0.31,0.04c0.05,0.97-0.21,1.18-1.69,1.36l-5.69,0.65
	c-1.5,0.16-1.8,0.01-1.97-0.94l-0.32,0.04c0.06,0.4,0.2,1.34,0.24,1.71c0.04,0.36,0.12,1.32,0.15,1.72l0.31-0.03
	c-0.07-1.01,0.19-1.22,1.7-1.41l2.74-0.31 M45.82,127.47c-1.67-1.07-2.51-2.34-2.54-3.87c-0.04-2.41,2.08-4.26,4.93-4.31
	c2.83-0.05,4.57,1.47,4.62,4c0.02,1.55-0.54,2.64-1.8,3.42l0.05,0.15l1.76-0.09c0.28-1.24,0.41-2.28,0.4-3.29
	c-0.02-1.44-0.44-2.63-1.2-3.51c-0.99-1.13-2.67-1.83-4.34-1.8c-2.89,0.05-4.92,2.18-4.87,5.12c0.03,1.64,0.71,3.08,2.03,4.31
	 M50.63,117.09l2.21,0.09c0.41-1.5,0.46-1.78,0.49-2.5c0.04-0.97-0.15-1.69-0.58-2.26c-0.46-0.6-1.17-0.97-1.95-1
	c-1.1-0.04-1.86,0.48-2.57,1.8c-0.91,1.72-0.91,1.72-1.24,2.15c-0.49,0.62-1.11,0.96-1.77,0.93c-1.14-0.05-1.95-1.04-1.9-2.35
	c0.03-0.83,0.36-1.53,0.94-1.99c0.36-0.3,0.68-0.4,1.35-0.5l0.01-0.27l-2.17-0.01c-0.3,0.75-0.45,1.5-0.48,2.38
	c-0.08,2.17,0.95,3.53,2.74,3.6c1.25,0.05,2.05-0.5,2.79-1.92c0.9-1.71,0.9-1.71,1.2-2.11c0.38-0.5,0.95-0.78,1.57-0.76
	c1.07,0.04,1.79,0.89,1.74,2.03c-0.03,0.76-0.34,1.49-0.81,1.87c-0.39,0.33-0.83,0.46-1.54,0.46"/>
<path fill="#FFCC00" stroke="#FFCC00" stroke-width="0.989" stroke-miterlimit="10" d="M106.17,83.46
	c2.98,4.63,6.78,11.61,8.94,17.25c3.64,9.43,5.97,17,6.96,25.47c0.8,6.81,0.79,22.43,0.6,30.44c-0.19,8.04-0.4,26.29-0.61,26.49
	c-1.4,1.29-5.67,0.91-5.42-0.52c0.12-0.67,1.3-4.62,1.58-6.23c0.33-1.95,0.93-11.96,0.96-14.1c0.01-0.44-0.04-14.88,0.08-20.4
	c0.07-3.18,0.52-12-0.6-17.47c-1.83-8.94-6.45-21.32-8.21-25.34c-3.45-7.88-4.6-9.79-10.42-19.24c-2.06-3.35-6.36-8.47-8.18-10.92
	c-1.17-1.57-6.2-7.62-5.99-7.9c0.38-0.5,6.23,3.64,7.99,6.13C98.31,72.32,102.41,77.76,106.17,83.46z M157.55,66.28
	c-9.41,10.7-16.3,21.6-21.75,35.02c-3.81,9.37-5.84,17.59-7.69,25.25c-1.61,6.67-1.07,22.04-1.01,30.05
	c0.06,8.09,0.59,26.2,1.11,26.59c1.54,1.17,5.18,0.81,4.92-0.62c-0.12-0.67-1.3-4.62-1.58-6.23c-0.33-1.95-0.79-12.01-0.82-14.15
	c-0.01-0.44-0.08-18.23-0.13-20.8c-0.13-7.04-0.58-11.36,0.81-16.82c2.12-8.36,6.98-20.72,8.92-25.17
	c4.63-11.82,11.05-22.56,19.26-32.19c1.17-1.58,2.97-3.99,2.5-4.34C161.59,62.5,158.7,64.97,157.55,66.28z"/>
<path fill="#FFCC00" d="M130.24,126.86c0.77-1.61,1.19-1.75,1.75-2.27c0.33-0.3,1.35-0.7,2.06-0.93c1.28-0.42,3.24-0.77,3.33-0.63
	c0.07,0.11-1.21,2.44-1.86,3.59c-0.65,1.16-1.55,2.16-2.13,2.82c-0.67,0.77-3.98,3.03-3.98,3.12
	C129.41,132.64,130.24,126.86,130.24,126.86 M137.42,116.54c-0.92,0-2.38,0.13-3.63,0.66l-2.06,6.12c1.32-0.52,2.57-0.85,2.85-1.03
	c0.9-0.6,1.38-1.16,2.31-2.11c0.45-0.46,3.25-3.31,3.25-3.43C140.14,116.6,138.77,116.54,137.42,116.54z M141.23,86.69
	c-0.12-0.68-0.36-1.43-0.91-2.33c-0.68-1.11-3.36-3.13-3.46-3.03c-0.1,0.1-0.52,1.74-0.62,3.3c-0.09,1.36,0.14,3.57,0.63,4.46
	c0.73,1.35,2.31,2.54,3.03,3.15l1.47-2.35C141.75,89.22,141.47,87.98,141.23,86.69z M162.55,60.53c-0.18,0.69-0.45,0.72-1.2,1.31
	l-2.94,2.3c-0.53-1.43-0.08-3.65,0.33-4.9c0.4-1.25,0.89-2.54,1.81-2.54c0.67,0,1.12,0.95,1.36,1.58
	C162.21,59.12,162.76,59.72,162.55,60.53z M148.37,96.69c-1.55,0-2.87,0.11-4.16,0.52c-1.1,0.35-3.44,1.12-3.61,1.44l0.32,0.88
	l5.65,3.08c0.66,0.4,1.32-0.31,2.61-1.9c0.88-1.08,1.97-3.39,2.04-3.5C151.59,96.63,149.72,96.69,148.37,96.69z M151.87,88.69
	c-1.69-0.04-6.42,0.77-7.65,2.16l-2.09,5.09c3.24,0.37,5.06-0.65,7.04-1.42c0.89-0.34,2.77-1.43,4.27-2.8
	c1.1-1.01,2.42-2.39,2.31-2.49C155.48,88.96,153.31,88.72,151.87,88.69z M157.73,81.97c-1.25-0.21-2.36-0.48-4.11-0.31
	c-1.21,0.12-3.92,0.77-4.37,1.5l-2.39,3.9c1.14,0.32,5.15,0.49,6.77,0.08c1.38-0.36,3.39-1.81,4.79-2.94
	c0.88-0.71,1.6-1.18,1.6-1.31C160.03,82.56,159.07,82.2,157.73,81.97z M161.32,75.43c-0.67-0.27-1.64-0.97-2.4-0.85
	c-1.26,0.2-2.66-0.29-3.99-0.02l-3.97,4.52c2.35,1.12,3.81,1.26,5.41,0.99c1.06-0.18,2.08-0.38,3.47-1.31
	c0.42-0.28,2.73-2.29,2.73-2.42C162.57,76.15,161.93,75.67,161.32,75.43z M164.32,70.44c-0.41-0.32-1.93-0.48-3.27-0.65
	c-0.94-0.12-2.3,0.01-3.04,0.32c-1.27,0.53-1.37,0.86-2.07,1.49l-1.28,1.62c0.54,0.51,3.2,0.86,4.32,0.73
	c0.89-0.1,2.29-0.61,3.49-1.22C163.32,72.29,164.66,70.7,164.32,70.44z M166.97,65c-1.18-0.26-3.71-0.29-5.12,0.17
	c-1.28,0.42-1.42,0.62-2.55,2.03l-0.89,1.25c1.23,0.32,2.38,0.36,3.33,0.27c0.88-0.08,1.18-0.02,2.82-0.47
	c2-0.56,3.07-0.89,3.51-1.98C168.24,65.82,168.3,65.29,166.97,65z M165.81,56.88c-1.78,0.81-2.53,2.22-2.94,4.6
	c0,0,0.27,1.22,0.79,1.36c0.82,0.22,3.36-0.73,3.95-1.16c0.83-0.59,1.48-1.08,2.12-2.24c0.65-1.16,1.06-2.86,1.01-2.98
	C170.62,56.1,167.67,56.03,165.81,56.88z M153.28,71.07c0.61-0.85,0.79-1.13,0.55-2.52c-0.13-0.71-0.76-2.39-1.31-3.53
	c-0.57-1.17-1.8-2.8-2.22-2.53c-0.53,0.36-0.9,1.21-1.07,2.54c-0.14,1.12,0.18,2.9,0.32,3.75c0.14,0.85,1.67,4.7,2.29,3.96
	C152.06,72.48,153.28,71.07,153.28,71.07 M149.07,73.52c-0.38-1.25-0.33-1.25-0.86-2.51c-0.54-1.3-2.1-3.22-2.23-3.16
	c-0.64,0.26-1.84,2.66-1.86,4.01c-0.03,1.94,0.57,4.04,1,4.83c0.43,0.8,1.27,1.71,2.07,2.51l1.97-2.79
	C149.62,75.49,149.32,74.32,149.07,73.52z M144.93,78.99c-0.46-0.99-0.72-1.36-1.23-2.29c-0.74-1.33-2.33-2.63-2.46-2.62
	c-0.37,0.01-1.17,1.71-1.39,3.45c-0.14,1.14-0.1,3.36,0.91,4.95c0.6,0.94,1.81,2.17,2.71,2.73l1.81-3.22
	C145.67,81.45,145.39,79.96,144.93,78.99z M157.68,63.68c-0.17-1.24-0.6-1.92-1.02-2.54c-0.62-0.91-1.32-1.9-2.01-1.6
	c-0.41,0.18-0.88,1.78-0.89,3.11c-0.01,1.32,0.09,2.08,0.24,2.92c0.15,0.84,0.49,1.53,0.99,2.53l2.44-2.45
	C158.19,64.38,157.82,64.71,157.68,63.68z M118.33,92.24c-0.15,0.84-0.19,1-0.5,1.42c-0.64,0.86-5.22,2.68-5.22,2.68
	c-0.64-1.65-0.39-0.93-0.53-1.23c-0.56-1.19,1.15-3.46,1.96-4.47c0.81-1.02,2.26-1.85,2.35-1.76L118.33,92.24z M117.59,117.36
	c-1.08-0.91-1.67-1.3-2.59-1.3c-1.35,0-3.36,0.33-3.36,0.47s0.78,1.9,1.22,2.41c0.93,1.06,1.27,1.32,2.13,1.74
	c0.8,0.4,2.47,0.8,3.58,0.95L117.59,117.36z M110.74,99.7l-6.93,2.98c-0.87-0.09-3.19-1.73-4.77-3.05
	c-1.02-0.85-2.13-2.25-2.14-2.38c-0.05-0.51,2.61-0.69,3.96-0.69c1.55,0,4.28,0.27,5.61,0.54c1.86,0.37,3.4,0.81,3.57,1.14
	L110.74,99.7z M114.91,108.7c-1.12-0.77-1.34-0.87-2.68-0.99c-1.34-0.13-4.38-0.12-4.38,0.01c0,0.13,0.71,2.8,1.35,3.96
	c0.65,1.16,1.03,1.39,1.77,1.87c0.74,0.48,4.85,1.02,5.95,1.15L114.91,108.7z M97.4,93.76c-1.13-0.7-2.49-1.78-2.64-2.25
	c-0.1-0.29,1.99-1.29,3.32-1.52c1.69-0.29,3.19-0.39,4.54-0.23c1.41,0.17,3.37,0.68,3.9,1.67l1.09,2.16
	c-0.99,0.77-4.17,1.64-5.93,1.45C100.8,94.94,98.64,94.53,97.4,93.76z M97.16,88.05c-1.43-0.17-3.02-0.73-4.58-1.63
	c-0.98-0.57-2.59-2.3-2.59-3.17c0-0.33,2.42-0.97,3.77-1.06c1.46-0.09,3.18-0.02,4.4,0.24c0.88,0.19,3.66,1.45,4.11,2.18l1.54,2.57
	C102.66,87.5,98.82,88.24,97.16,88.05z M93.94,80.66c-0.77,0-2.8-0.31-4.2-1.39c-0.41-0.32-2.33-2.08-2.33-2.23
	c0-0.41,2.32-1.31,3.67-1.45c1.08-0.11,1.23-0.22,2.59-0.3c1.05-0.06,3.81,0.12,4.58,1.98l0.88,1.45
	C96.75,80.66,95.56,80.66,93.94,80.66z M90.32,73.85c-1.27-0.01-2.23-0.17-3.43-0.78c-0.85-0.43-2.37-1.79-2.45-1.9
	c-0.45-0.69,2.12-1.79,3.46-1.96c0.94-0.12,2.06-0.16,2.8,0.15c1.27,0.53,1.39,0.77,2.09,1.41l1.48,1.86
	C93.74,73.13,91.45,73.85,90.32,73.85z M85.3,67.61c-0.81-0.06-2.73-0.68-3.76-1.75c-0.81-0.84-1.24-1.28-1.24-1.78
	c0-0.11,1.6-0.65,2.83-0.88c1.1-0.21,2.36-0.19,3.5,0.3c1.12,0.49,0.82,0.23,1.86,1.34l1.82,2.02
	C88.66,67.57,86.18,67.68,85.3,67.61z M79.61,58.86c-0.82-1.08-0.89-1.72-0.84-1.84c0.14-0.37,2.37-0.81,3.71-0.49
	c0.85,0.2,1.16,0.3,2.05,1.05c1.05,0.9,1.62,1.71,1.97,3.29c0,0-1.37,0.61-2.09,0.61c-1.29,0-2.24-0.3-2.85-0.73
	C80.7,60.14,80.46,59.98,79.61,58.86z M87.86,55.38c-0.13,0.01-0.68,0.73-0.81,1.38c-0.17,0.8-0.16,1.6,0,2.15
	c0.31,1.04,0.31,1.04,0.95,2.68l1.53,0.99c0.54-1.33,0.72-2.02,0.76-2.86c0.05-0.98,0.23-1.24-0.17-2.48
	C89.71,56,88.65,55.29,87.86,55.38z M95.21,60c0.25,1.29,0.26,1.94,0.11,2.78c-0.15,0.84-1.09,2.08-1.74,2.93l-1.6-1.15
	c-0.64-1.65-0.58-1.76-0.47-3.08c0.1-1.25,0.44-2.04,0.75-2.72c0.54-1.18,1.22-1.55,1.35-1.55C94.29,57.22,94.97,58.74,95.21,60z
	 M99.97,63.81c0.4,1.25,0.46,2.73,0.31,3.57c-0.15,0.84-0.32,1.74-0.75,2.87c-0.84,2.24-1.18,1.36-1.18,1.36
	c-1.1-0.93-2.01-2.77-2.18-4.24c-0.07-0.57-0.07-3.52,0.49-4.65c0.58-1.17,1.33-1.4,1.45-1.38C98.8,61.49,99.56,62.56,99.97,63.81z
	 M105.29,73.85c-0.3,0.8-1.69,3.27-2.34,4.12l-1.83-1.99c-0.29-0.52-0.47-2.67-0.35-3.82c0.12-1.23,0.4-2.49,0.94-3.68
	c0.54-1.22,1.45-2.25,1.57-2.31c0.62-0.28,1.88,2.06,2.16,3.35C105.83,71.37,105.63,72.94,105.29,73.85z M109.32,80.66
	c-0.33,0.73-1.75,2.37-2.4,3.22l-1.46-2.04c-0.36-0.5-0.43-2.34-0.37-3.52c0.07-1.32,0.45-2.08,1.05-3.24
	c0.69-1.35,1.82-2.8,1.95-2.8c0.66,0,1.67,2.01,2.04,3.65C110.39,77.03,110.12,78.88,109.32,80.66z M113.97,87.11
	c-0.75,1.33-2.21,3.06-2.86,3.91l-1.82-3.14c-0.22-0.66-0.12-1.03-0.11-2.18c0-0.58,0.03-1.83,0.59-2.72
	c0.7-1.1,3.65-4.17,3.91-3.33c0.04,0.12,0.5,2.06,0.64,3.57C114.5,85.12,114.46,86.23,113.97,87.11z M116.83,96.81l-1.98,2.18
	l-0.73-0.67l1.98-2.18L116.83,96.81z M125.72,97.57c-21.59,0-39.16,17.51-39.16,39.04c0,21.53,17.57,39.04,39.16,39.04
	c21.59,0,39.16-17.51,39.16-39.04C164.88,115.09,147.31,97.57,125.72,97.57z M159.05,136.59c0,18.34-14.96,33.26-33.35,33.26
	c-18.39,0-33.35-14.92-33.35-33.26c0-18.34,14.96-33.26,33.35-33.26C144.09,103.33,159.05,118.25,159.05,136.59z M98.78,104.02
	c-2.11,0.16-4.57,0.03-6.12-0.32c-1.22-0.28-3.43-0.94-3.73-1.11l-0.6-0.27l-0.35,0.38c-0.57,0.61,0.29,2.02,0.57,2.44
	c0.59,0.91,1.73,1.9,3.27,2.88c1.81,1.13,5.05,1.9,6.95,1.9l7.96-6.93C105.1,103.54,100.51,103.89,98.78,104.02z"/>
<path fill="#FFCC00" stroke="#0D280B" stroke-width="0.989" stroke-miterlimit="10" d="M123.94,90.23
	c-0.77-1.61-1.03-2.96-2.15-3.74c-1.12-0.77-2.06-1.25-3.14-1.59c-0.56-0.18-2.48-0.69-2.98-0.29c-0.1,0.08,0.4,4.3,0.95,5.55
	c0.54,1.21,1.71,2.12,2.33,2.74c0.69,0.7,3.88,2.26,4.99,2.3C124.01,95.21,123.94,90.23,123.94,90.23z"/>
<path fill="#FFCC00" stroke="#FFCC00" stroke-width="0.989" stroke-miterlimit="10" d="M119.79,126.81
	c-0.77-1.61-1.26-1.81-1.81-2.33c-0.79-0.75-1.59-1.32-2.3-1.55c-1.29-0.42-2.1-0.35-2.19-0.21c-0.07,0.11,0.32,2.47,0.96,3.62
	c0.65,1.16,1.3,1.71,1.88,2.37c0.67,0.77,3.99,3.03,3.98,3.12C120.32,131.91,119.79,126.81,119.79,126.81z"/>
<path fill="#FFCC00" stroke="#FFCC00" stroke-width="0.989" stroke-miterlimit="10" d="M137.53,98.49c0.64-1.65,0.97-2.39,1.11-2.69
	c0.56-1.2-2.67-3.77-3.48-4.79c-0.81-1.02-1.68-2.04-1.78-1.96c-0.09,0.09-0.46,0.84-1.24,1.71c-0.74,0.83-1.56,1.08-1.56,1.08
	c0.15,0.84,0.47,1.78,0.78,2.2C132,94.89,137.53,98.49,137.53,98.49z"/>
<path fill="none" stroke="#0D280B" stroke-width="1.3187" stroke-miterlimit="10" d="M141.03,107.11c1.18,0.55,4.21,2.29,5.45,2.69
	c1.24,0.39,2.4,0.71,4.94,0.68c1.72-0.02,3.75-0.12,6.48-1.15c1.78-0.67,4.53-2.2,4.77-4.31c0.12-1.06,0,0-0.36-0.69
	c-0.21-0.39-3,0.41-4.54,0.69c-1.76,0.31-3.43,0.17-5.35-0.2c-2.17-0.42-5.37-2.28-6.92-3.03c-1.65-0.8-7.95-3.66-11.24-4.51
	l-3.07,5.91c0,0.23,3.07,1.12,3.46,1.24C136.81,105.23,138.99,106.09,141.03,107.11z M107.19,109.91c4.75-4.2,10.8-4.94,15.82-5.77
	l-4.17-6.43c-11.28,1.2-19.95,8.67-23.13,12.72"/>
<path fill="none" stroke="#0D280B" stroke-width="1.3187" stroke-miterlimit="10" d="M131.74,168.52
	c-4.27,0.76-8.49,1.13-13.88-0.39 M117.59,175.61c7.5,1.3,14.68,0.29,14.68,0.29"/>
<path fill="#FFCC00" d="M139,108.42c-1.24,0.38-2.56,1.24-3.68,2.01l-2.1,5.43c1.11-0.13,3.57-0.64,4.6-0.69
	c0.88-0.04,2-1.96,2.7-2.85c0.83-1.04,1.89-4.16,1.89-4.29C142.42,107.92,140.3,108.03,139,108.42z"/>
<path fill="#FFCC00" stroke="#FFCC00" stroke-width="0.989" stroke-miterlimit="10" d="M124.21,59.85c0.12-1.74-0.2-1.87,0.65-1.87
	c1.03,0,0.82,0.19,0.84,2.15c0.03,3.05-0.01,5.23,0.07,9.16c0.47,22.83,0.97,54.74,1.01,58.92c0.05,4.85-0.57,21.83-0.62,27.5
	c-0.05,6.49,0.54,23.98,0.76,27.17c0.17,2.45,0.43,4.82,0.36,5.25c-0.18,1.01-1.09,1.2-2.48,1.2c-1.39,0-2.13-0.22-2.35-1.2
	c-0.07-0.32,0.06-1.33,0.25-5.27c0.15-3.19,0.51-19.15,0.69-27.23s0-20.56,0.21-27.26c0.11-3.56,0.22-55.13,0.4-59.09
	C124.17,65.34,124.13,60.97,124.21,59.85z M126.37,121.51c1.14-0.13,2.35-0.57,3.24-1.02c0,0,0.62-0.81,0.98-2.1
	c0.64-2.31,0.82-2.42,1.06-3.09c0.04-0.12-0.1,0.18-1.06,0.52c-1.36,0.48-1.18,0.38-2.42,0.82c-1.31,0.46-1.52,1.75-1.86,3.53
	L126.37,121.51z M126.55,112.33c0.64-1.57,0.83-2.42,2.22-3.98c0.42-0.47,1.26-0.87,2.65-1c1.39-0.13,2.06-0.1,2.06,0.03
	c0,0.13,0,1.35-0.67,2.51c-0.67,1.16-1.64,2.48-2.4,2.96c-0.76,0.48-2,1.2-3.14,1.33L126.55,112.33z M122.63,54.01l-0.21-0.2
	c0,0-0.42-0.51-1.04-1.14c-0.56-0.57-1.56-1.79-2.49-1.1c-0.46,0.34-0.77,1.32-0.15,2.43c0.64,1.16,1.46,1.54,3.68,2.91
	L122.63,54.01z M124.11,51.73c-0.58-0.61-1.15-2.04-1.15-3.57c0-1.71,1.29-3.12,2.27-3.12c1.03,0,2.08,2.09,2.07,3.1
	c-0.01,2.38-1.43,3.15-1.43,3.15L124.11,51.73z M126.65,54.44c0.91-2.15,3.26-3.35,3.81-3.35c0.54,0,0.27,1.9,0.12,2.36
	c-0.38,1.22-0.4,1.24-0.67,1.74c-0.6,1.08-0.63,0.87-1.15,1.51c-0.54,0.66-2.1,1.42-2.1,1.42L126.65,54.44z M123.06,61.4L123,64.36
	c-0.7-0.04-1.39-0.21-2.37-0.64c-0.8-0.35-1.9-1.13-2.81-2.25c-0.8-0.98-1.15-3.53-1.15-3.65c0-0.12,0.71-0.09,1.59-0.05
	c0.73,0.03,2.51,0.82,3.27,1.46C122.34,59.88,122.61,60.45,123.06,61.4z M124.03,71.36c-1.11,0.03-2.74-0.61-3.53-0.99
	c-0.79-0.39-2.34-1.59-2.99-2.74c-0.65-1.16-0.59-2.43-0.59-2.56c0-0.13,0.75,0.08,1.78,0.31c0.49,0.11,1.83,0.55,2.95,1.32
	c1.12,0.77,2.18,1.7,2.39,2.78C124.04,69.47,124.21,71.36,124.03,71.36z M123.8,77.61c-0.8,0-3.08-0.58-3.82-1.06
	c-0.74-0.48-2.24-1.7-2.89-2.86c-0.64-1.16-0.92-2.82-0.92-2.95c0-0.13,1.85,0.63,2.93,1.16c1.21,0.6,1.26,0.68,2.38,1.45
	c1.12,0.77,2.39,1.49,2.39,2.02C123.87,75.37,124.08,77.61,123.8,77.61z M123.98,82.71l-1.26,1.9c-1.11,0.08-2.56-0.55-3.3-1.03
	c-0.74-0.48-1.85-1.45-2.5-2.6c-0.65-1.16-1.26-3.72-1.26-3.85c0-0.13,1.93,0.68,2.86,1.16c0.74,0.39,1.49,0.64,2.61,1.41
	C122.25,80.47,123.75,81.39,123.98,82.71z M126.58,68.14c0.02-0.23,0.4-0.47,1.13-1.46c0.54-0.74,1.52-1.67,2.16-2.26
	c1.09-0.99,2.02-1.33,2.05-1.2c0.07,0.34,0.1,2.23-0.54,3.57c-0.53,1.1-1.34,2.16-2.09,2.74c-0.71,0.55-1.68,1.04-2.74,1.49
	L126.58,68.14z M126.55,75.11c0.51-0.95,1.99-2.33,2.71-2.87c0.28-0.21,1.74-1.17,2.3-1.39c0.77-0.3,1.8-0.39,1.8-0.26
	c0,0.13-0.58,2.07-1.25,3.23c-0.67,1.16-1.59,2.19-2.32,2.81c-0.69,0.58-2.14,1.58-3.28,1.71L126.55,75.11z M126.5,83.55
	c0.8-1.85,2.47-3.33,3.62-4.11c1.16-0.77,1.97-1.38,3.03-1.6c0.92-0.18,1.07-0.04,1.07,0.09c0,0.13-0.08,1.16-0.68,2.35
	c-0.57,1.13-1.42,2.24-2.35,3.28c-0.69,0.76-3.36,2.37-4.68,2.93L126.5,83.55z M126.48,62.72c0.14-1.06-0.46-1.21,0.39-2.31
	c0.65-0.85,1.52-1.79,2.34-2.02c1.34-0.38,2-0.48,2.14-0.37c0.1,0.08-0.1,1.23-0.77,2.39s-1.6,2.21-2.36,2.69
	c-0.76,0.48-0.2,0.14-1.31,0.64C125.87,64.21,126.48,62.72,126.48,62.72z"/>
<path fill="none" stroke="#0D280B" stroke-width="0.823" stroke-linecap="round" stroke-miterlimit="10" d="M126.48,53.13
	c-0.04,8.07,0.8,96.29,0.75,100.55c-0.06,4.95,0.2,24.6,0.82,31.13 M123.19,58.62c0.04,8.07-0.54,92.47-0.48,96.73
	c0.06,4.95-0.42,22.94-1.03,29.48 M131.38,54.44c-0.49,1.3-2.02,2.54-2.86,3.12c-0.55,0.38-1.87,1.38-1.87,1.38"/>
<path fill="#FFCC00" d="M118.99,169.17c5.87,1.51,12.37,0.17,12.37,0.17c0.27,0.87,0.76,5.81,0.76,5.81
	c-3.79,0.49-7.62,0.49-7.62,0.49s-3.56,0.09-6.58-0.68C117.62,174.88,118.99,169.17,118.99,169.17"/>
<path fill="#FFCC00" stroke="#0D280B" stroke-width="0.989" stroke-miterlimit="10" d="M127.06,103.71
	c0.62-1.62,0.59-1.71,1.52-2.74c0.7-0.79,1.73-2.08,3.07-2.48c1.42-0.43,4.39-1.3,4.46-1.19c0.51,0.75-1.28,5.04-1.94,6.2
	c-0.67,1.16-2.95,2.43-3.71,2.91c-0.76,0.48-2.25,1.08-3.39,1.21V103.71z"/>
<path fill="none" stroke="#0D280B" stroke-width="0.989" stroke-linecap="round" stroke-miterlimit="10" d="M85.52,62.06
	c9.15,7.64,24.05,34.49,25,37.28 M114.65,98.23C113.7,95.44,98,66.49,86.92,60.79 M136.23,97.91c0.89-2.61,14.32-27.69,24.86-35.52
	c0.7-0.52,2.5,0.18,1.49,1.87c-8.55,8.65-21.27,32.66-22.22,35.45"/>
<path fill="none" stroke="#0D280B" stroke-width="0.823" stroke-miterlimit="10" d="M112.91,106.2c2.17,6.45,3.5,11.06,4.26,15.17
	c0.4,2.15,0.9,5.02,1.14,7.13c0.22,1.92,0.13,3.12,0.13,3.12 M127.07,129.37c0,0,0.1-2.71,0.9-5.85c0.56-2.21,1.6-5.54,2.14-7.47
	c1.14-4.02,1.89-5.3,4.06-11.75 M131.42,132.41c-0.12-3.04-0.27-5.4,0.5-8.89c0.41-1.88,1.37-5.18,2.05-7.06
	c1.41-3.94,1.54-4.27,3.98-10.63"/>
<path fill="#FFCC00" stroke="#0D280B" stroke-width="0.823" stroke-miterlimit="10" d="M122.98,101.66c-1.1-0.13-3.4-1.23-4.14-1.71
	c-0.74-0.48-1.97-2.35-2.64-3.46c-0.54-0.9-1.29-2.96-1.09-3.31c0.26-0.44,2.9,0.19,4.17,0.58c1.26,0.39,1.97,1.03,2.63,1.76
	c0.92,1,1.08,1.03,1.08,2.47L122.98,101.66z M126.93,93.77c1.34-0.1,4.03-1.72,4.98-2.77c0.84-0.93,1.47-1.95,1.86-2.78
	c0.57-1.21,0.75-3.77,0.75-3.9c0-0.13-0.97-0.13-2.19,0.29c-1.32,0.46-1.95,0.81-2.86,1.55c-1.07,0.88-1.77,2.39-2.57,4
	L126.93,93.77z M127.06,101.45c1.34-0.1,3.77-1.72,4.72-2.77c0.84-0.93,1.48-1.95,1.87-2.78c0.56-1.21,0.75-3.77,0.75-3.9
	c0-0.13-0.97-0.13-2.19,0.29c-1.32,0.46-1.95,0.81-2.86,1.55c-1.07,0.88-1.48,2.19-2.28,3.8V101.45z M122.82,105.46
	c-0.77-1.61-0.99-1.82-1.95-2.78c-0.61-0.61-2.11-1.4-2.98-1.65c-1.3-0.36-3.59,0.16-3.59,0.28c0,0.13,1.1,2.8,1.74,3.96
	c0.65,1.16,2.43,2.43,3.17,2.91c0.74,0.48,2.56,0.94,3.66,1.07L122.82,105.46z M122.91,113.02c-0.35-2.5-0.31-2.96-1.43-3.73
	c-1.12-0.77-2.03-1.04-3.15-1.19c-1.34-0.18-2.68-0.21-2.64,0.29c0.01,0.13,0.16,1.63,0.81,2.79c0.65,1.16,1.24,1.97,1.98,2.45
	c0.74,0.48,3.31,1.48,4.42,1.61L122.91,113.02z M122.88,118.01c-0.62-1.51-0.84-1.85-1.65-2.53c-1.05-0.87-1.81-1.14-2.85-1.37
	c-1.32-0.3-2.18-0.15-2.18-0.02c0,0.13,0.05,1.74,0.58,2.96c0.63,1.44,1.96,3.08,2.76,3.45c0.86,0.39,2.14,0.58,3.24,0.71
	L122.88,118.01z M122.78,126.54c-1.1-0.13-2.03-0.17-2.77-0.65c-0.74-0.48-1.63-1.1-2.25-2.29c-0.49-0.94-1.02-2.87-0.97-2.98
	c0.12-0.25,1-0.09,1.94,0.1c0.44,0.09,2,0.29,3.12,1.06c1.12,0.77,0.93,2.16,0.93,4.04V126.54z"/>
<path fill="none" stroke="#0D280B" stroke-width="0.6593" stroke-linecap="round" stroke-miterlimit="10" d="M82.55,61.7
	c1.99,0.36,3.96-1.4,5.09-0.62 M86.92,60.63c-1.99-1.17-3.25-2.74-5.96-2.44 M88.65,65.5c-1.82-0.46-2.49-0.73-4.48-0.63
	 M92.78,65.37c0.2-1.12,0.25-1.03,0.25-1.81 M88.52,61.86c0.2-1.12,0.25-0.64,0.25-1.42 M97.72,70.72c0.2-1.12,0.43-2.32,0.43-3.09
	 M106.32,83.04c0.2-1.12,0.73-2.75,0.73-3.53 M110.39,90.08c0.2-1.12,0.58-2.02,0.58-2.8 M113.08,95.03
	c0.5-0.54,1.28-1.31,2.33-2.16 M102.24,76.82c0.2-1.12,0.82-3.74,0.82-4.52 M93.91,71.69c-1.92-0.46-2.62-0.73-4.72-0.63
	 M98.02,77.83c-1.37-0.37-2.57-0.43-4.35-0.36 M102.85,85.59c-1.34-0.16-2.8-0.33-4.68-0.49 M108.07,100.4
	c-0.47-0.07-1.21-0.47-2.98-0.94 M116.67,118.91c-0.26-0.06-0.65-0.36-1.61-0.73 M122.79,125.26c-0.26-0.06-0.36-0.24-1.12-0.8
	 M122.8,120.28c-0.26-0.06-1.23-1.03-2.04-1.67 M123.01,107.03c-0.26-0.06-1.23-1.03-2.04-1.67 M123.01,99.9
	c-0.22-0.05-1.05-0.87-1.74-1.42 M123.01,92.12c-0.22-0.05-1.05-0.87-1.74-1.41 M137.38,95.2c-0.15-0.03-0.72-0.59-1.19-0.95
	 M140.07,89.83c-0.15-0.03-0.73-1.42-0.98-2.07 M148.02,77.04c-0.15-0.03-0.53-0.9-0.77-1.55 M152.99,77.08
	c0.15-0.03,0.94-0.11,2.24-0.3 M143.76,92.66c0.15-0.03,0.94-0.11,2.24-0.3 M160.51,62.87c-0.15-0.03-0.07-1.24-0.04-1.82
	 M156.46,66.66c-0.15-0.03-0.2-0.54-0.4-1.27 M161.77,66.19c-0.47,0-0.76,0.17-1.09,0.18 M157.55,71.53c-0.47,0-0.76,0.16-1.09,0.18
	 M152.52,71.01c-0.15-0.03-0.48-0.72-0.61-1.42 M144.13,83.17c-0.15-0.03-1.02-2.04-1.26-2.69 M123.15,83.39
	c-0.18-0.04-0.88-0.77-1.46-1.24 M123.19,76.53c-0.19-0.04-0.88-0.77-1.46-1.24 M123.1,62.58c-0.15-0.04-0.71-0.65-1.17-1.05
	 M127.93,54.84c-0.35,0.53-0.84,0.95-1.32,1.64 M127.38,61.4c-0.56,0.44-0.48,0.41-0.9,0.82 M128.19,67.77
	c-0.52,0.62-0.93,0.91-1.46,1.68 M128.98,82.32c-0.52,0.62-1.45,1.45-2.14,2.19 M129.41,89.83c-0.6,0.69-1.69,1.64-2.5,2.47
	 M130.73,96.02c-0.6,0.69-2.62,2.77-3.44,3.61 M128.6,111.61c-0.32,0.34-1.24,1.22-1.66,1.63 M128.6,117.29
	c-0.27,0.52-1.17,2.08-1.53,2.71 M127.76,75.5c-0.31,0.37-0.55,0.56-0.86,1.03 M125.13,52.31c-0.15-0.04,0-3.78,0-5.26
	 M162.75,62.84c-0.15-0.04,2.76-3.44,5.4-4.74 M147.87,85.3c1.53-0.37,1.98-0.46,3.57-0.81 M123.15,69.45
	c-0.16-0.03-0.76-0.59-1.27-0.95 M106.68,92.3c-1.37-0.37-2.48-0.19-4.35-0.36 M133.7,100.4c-3.12,1.67-4.91,4.08-6.63,5.55
	 M146.01,99.34c-1.31,0.74-1.41,0.85-2.26,1.27 M114.04,110.72c-1.37-0.37-1.95-0.42-3.83-0.59 M118.21,127.76
	c-0.91-0.95-0.71-0.8-1.76-2.04 M131.33,128.5c0.47-0.93,0.77-1.11,1.17-1.48 M135.08,113.39c0.91-0.95,1.3-1.04,2.3-1.91
	 M132.76,120.28c0.56-0.31,0.91-0.44,1.41-0.68 M122.79,113.56c-0.63-0.38-2.39-1.81-3.24-2.41 M122.55,108.23
	c-0.62-0.38-3.36-2.28-4.21-2.87"/>
<path fill="none" stroke="#FFCC00" stroke-width="2.1416" stroke-linecap="round" stroke-linejoin="round" stroke-miterlimit="10" d="
	M125.13,53.97c-0.23,2.39-0.33,3.9-0.33,5.35h0.2C125.05,57.86,124.91,56.36,125.13,53.97"/>
</svg>
