<?xml version="1.0" encoding="utf-8"?>
<!-- Generator: Adobe Illustrator 26.0.3, SVG Export Plug-In . SVG Version: 6.00 Build 0)  -->
<svg version="1.1" id="Layer_1" xmlns="http://www.w3.org/2000/svg" xmlns:xlink="http://www.w3.org/1999/xlink" x="0px" y="0px"
	 viewBox="0 0 605.5 613.1" style="enable-background:new 0 0 605.5 613.1;" xml:space="preserve">
<style type="text/css">
	.st0{fill:url(#SVGID_1_);}
	.st1{fill:#FFFFFF;}
	
		.st2{fill:none;stroke:url(#SVGID_00000032623531320392326120000003924586703889412799_);stroke-width:10;stroke-linecap:round;stroke-miterlimit:10;}
	.st3{fill:#AB732D;}
	.st4{opacity:0.9;fill:#C79539;}
	.st5{fill:#C79539;}
</style>
<g>
	
		<linearGradient id="SVGID_1_" gradientUnits="userSpaceOnUse" x1="5.9985" y1="304.1424" x2="599.7626" y2="304.1424" gradientTransform="matrix(6.123234e-17 1 -1 6.123234e-17 608.1968 2.4016)">
		<stop  offset="0" style="stop-color:#FFFFFF"/>
		<stop  offset="0.4553" style="stop-color:#DFAC51"/>
	</linearGradient>
	<ellipse class="st0" cx="304.1" cy="305.3" rx="291.8" ry="296.9"/>
	<ellipse class="st1" cx="304.1" cy="306.2" rx="278.2" ry="283.9"/>
	
		<linearGradient id="SVGID_00000177475595263238133060000015644411362317337768_" gradientUnits="userSpaceOnUse" x1="-980.8052" y1="1184.8707" x2="-595.5027" y2="1184.8707" gradientTransform="matrix(1 0 0 -1 1091.0516 1490.1699)">
		<stop  offset="0" style="stop-color:#DFAC51"/>
		<stop  offset="1" style="stop-color:#FFFFFF"/>
	</linearGradient>
	
		<ellipse style="fill:none;stroke:url(#SVGID_00000177475595263238133060000015644411362317337768_);stroke-width:10;stroke-linecap:round;stroke-miterlimit:10;" cx="302.9" cy="305.3" rx="187.7" ry="191.8"/>
	<g>
		<path class="st3" d="M147.2,340.2c2.1,12.1,7,28.6,19.7,43.2c1.9,2.2,3.8,4.2,5.8,6c5.6-0.1,13.4,0.3,22.3,3
			c13.4,4,22.5,11.1,27.5,15.6c43.8,0,87.6,0,131.4,0c2.8-3.6,32.5-41.6,49.3-55.7c4.6-3.9,8.9-6.7,8.9-6.7
			c6.9-4.6,12.5-6.9,23.5-11.4c12.1-5,20-8.2,23.2-9.5c0-2.9,0-5.8,0-8.7c-10.3,5.9-22.6,12-36.8,17.6c-3.9,1.5-19.5,7.5-41.2,12.6
			c-13.2,3.1-24.7,4.9-33.7,6c0-49.2,0-98.4,0-147.6c-2.5,2.2-5.1,4.4-7.6,6.6c0,49.7,0,99.3,0,149c-3.4,5-12.5,16.6-28.8,22.8
			c-9.8,3.7-18.5,4.1-24,3.8c0-61.4,0-122.7,0-184.1c-2.6,1.6-5.2,3.2-7.9,4.8c0,59.8,0,119.6,0,179.5c-6.5-0.2-24.2-1.7-38.6-15
			c-4.6-4.2-7.8-8.7-10.1-12.6c0-52,0-103.9,0-155.9c-2.5,2.9-5.1,5.9-7.6,8.8c0,47.7,0,95.5,0,143.2c-17.3-1.8-36.1-4.9-56.1-9.9
			C159.6,343.8,153.3,342,147.2,340.2z"/>
		<path class="st4" d="M389.6,269.2c-3.1-23.8-14-40.3-19.5-47.7c-16.8,8.7-33.5,17.4-50.3,26.2c-4.5-12.4-10.6-21.3-14.3-26.2
			c-13.7,7.1-27.3,14.2-41,21.4c-4.2-9.9-9.2-17.1-12.4-21.4c-18.8,9.8-37.5,19.5-56.3,29.3c2.6,6.2,4.9,13.6,6.3,22.1
			c4.7,29.8-5.7,54.2-11.5,65.5c20.4-6.5,40.9-12.9,61.3-19.4c-2.5,8.2-5.6,14.9-8,19.4c24.5-7.8,49.1-15.5,73.6-23.3
			c-2.7,10-6.4,18.1-9.1,23.3c25.5-8.1,51.1-16.2,76.6-24.2C388,305.6,392.2,289.4,389.6,269.2z"/>
	</g>
	<g>
		<path class="st5" d="M80.6,236.1c-6.4,6.7-10.3,13.7-12.5,17.1c2-8.2,4.2-15.1,5.6-19.5c4.4-2,9.9-5.1,15.5-10
			c9.8-8.7,14.6-18.5,16.8-24.1c-7.3,3.6-15.4,8.7-23.2,16.1c-1.5,1.4-2.9,2.9-4.2,4.3c1.4-5.2,3.2-15.4-0.7-26.7
			c-1.1-3.3-2.6-6.1-4-8.4c-4.1,7.6-5.3,14.2-5.7,18.3c-0.5,5.7,0.1,10.2,0.8,14.7c0.9,6.2,2.4,11.4,3.7,15.2c-0.9,2.1-2,4.7-3,7.7
			c0.3-7.4-0.7-17.1-5.9-26.5c-0.7-1.3-1.5-2.5-2.3-3.7c-1.6,3.1-4,8.8-4.1,16.3c0,3.8,0.6,6.5,1.5,10.4c1.3,5.8,3.2,13.6,5.7,22.8
			c-0.6,4.1-1.3,9.4-2,16.4c-0.3-4.7-1.3-11-4.7-17.5c-3.1-6.1-7.1-10.2-10-12.7c-0.5,5.3-0.5,13,1.6,21.9
			c2.8,11.5,7.9,19.8,11.6,24.8c-0.6,7.8-1.1,14.3-1.3,20.3c-0.2-0.9-0.5-1.8-0.7-2.6c-1.1-6.2-4.2-17.6-13.7-27.3
			c-2.6-2.6-5.2-4.7-7.7-6.4c0.5,5.2,1.7,12.6,5.4,20.7c4.9,11,12,18.3,16.6,22.4c0,3.8,0.2,7.5,0.5,11.3c-1-3-2.2-6.3-4.5-9.7
			c-5-7.3-10.3-12.8-14.7-16.5c0.1,4.6,1,13.5,6.1,23.2c4.8,9,11.1,14.6,14.9,17.5c0.4,2.5,0.9,5.5,1.6,9.1c0.5,3,1.1,5.8,1.6,8.6
			c-1.1-3.1-3.6-7-6.3-11.1c-4.8-7.4-10.7-11.9-14.5-14.2c0.4,2.4,1.1,5.8,2.3,9.8c1.9,6.5,4.2,13.9,9.8,21c2.3,2.9,5.4,7.4,12,11.2
			c1.2,5.4,2.3,10.1,3.2,14c0.7-0.3,1.3-0.5,2-0.8c-0.4-2.4-1.1-6-2-10.4c-0.2-1.2-0.4-2.3-0.7-3.3c3.6-5.2,10-15.2,10.3-28.5
			c0.2-7.4-1.2-13.5-2.6-17.8c-2,2.5-4.1,5.7-5.9,9.7c-3.9,8.3-4.7,16-4.7,21c-0.1,0-0.2,0-0.3,0c-1.6-7.3-2.7-12.1-3.4-15.8
			c-0.2-0.9-0.4-1.9-0.5-2.8c4.6-3.8,12-11.2,16.4-22.8c2.9-7.5,3.6-14.3,3.6-19c-3.7,3.1-8.9,8.2-13.4,15.6
			c-3.4,5.6-6.6,10.8-8.2,15c-0.5-4.7-0.7-9.4-0.7-14.1c3.6-2.2,9.1-6.2,13.6-13c1.2-1.8,5.9-9.2,7-20c0.4-4.1,0.2-7.5-0.1-10
			c-4.4,4.3-10.9,11.7-15.6,22.4c-2.6,5.8-4,11.2-4.8,15.8c0.1-6.1,0.4-12.4,0.7-19.4c0-1,0.1-2,0.1-3c5.3-4.3,13.2-12,18.8-23.7
			c3.4-7.1,5-13.6,5.9-18.7c-7,6.2-14.6,14.5-21.2,25.1c-1,1.6-1.9,3.2-2.7,4.7c0.5-6.3,1.4-12.9,2.9-20.4c7.3-4,12.8-8.2,16.7-11.5
			c12.3-10.5,13.4-16.8,13.6-18.7c0.3-2.5,0.1-4.6-0.2-6.1C92.4,226.2,86.4,230,80.6,236.1z"/>
		<path class="st5" d="M91.3,158.6c-2.9,3.6-7.1,9.9-9.4,18.8c-3.5,13.9,0.1,25.5,1.8,30.1c2.7-4.6,6.2-11.8,8.1-21.1
			C94.1,174.4,92.6,164.4,91.3,158.6z"/>
		<path class="st5" d="M118.3,177c-4.1,1-13.5,3.7-22,12c-7.1,6.9-10.1,14.5-11.4,18.5c4.8-1.1,20.5-5.5,29.2-20.1
			C116.2,183.7,117.5,180.1,118.3,177z"/>
		<path class="st5" d="M117.7,139.9c-5.3,4.3-15.9,14.4-19.5,30.5c-0.9,4.1-1.2,7.9-1.2,11.3c3.6-2.4,8.8-6.6,13.2-13.3
			C117.9,156.5,118,144.5,117.7,139.9z"/>
	</g>
	<g>
		<path class="st5" d="M530.2,396.3c5.3-10.6,10.5-27.9,13.5-49.2c0.4-2.6,1.2-9,1.5-17.9c1.2-38.9-9.8-74.3-14.4-87.6
			c-11-31.9-17.9-52.1-30.9-62.8c0,0-11.8-9.7-15.5-21.8c-1.7-5.5-1.3-10.8-1.3-10.8c0.2-3.8,1.2-6.8,2-8.8
			c5.2,6.6,11.2,16.1,15.2,28.5c1.3,4.2,2.3,8.2,2.9,11.8c4.5,7.2,10.3,16.9,16.2,28.7c3.9,7.9,12.9,26.1,19.7,48.8
			c6.9,23.1,16.3,54.7,9.1,92.8C544.4,367.8,537.3,383.9,530.2,396.3"/>
		<circle class="st5" cx="550.6" cy="378.3" r="8"/>
		<circle class="st5" cx="535.7" cy="340.8" r="8"/>
		<circle class="st5" cx="551.8" cy="276.1" r="8"/>
		<ellipse class="st5" cx="491.3" cy="181.6" rx="8" ry="7.2"/>
		<path class="st5" d="M533.4,252.8c0,4.1-0.4,7.3-4.3,7.3c-3.8,0-8.7-4.1-8.7-8.2c0-4.1,3.1-7.4,7-7.4
			C531.3,244.5,533.4,248.7,533.4,252.8z"/>
		<path class="st5" d="M545.5,379.7c-1,0.1-11.1,7.5-11.1,7.5l-1,2.2l13.9-7.6L545.5,379.7z"/>
		<path class="st5" d="M542.6,362.7c0-0.2-5.7-18.4-5.7-18.4l2.8,0.5l3.5,17.4L542.6,362.7z"/>
		<path class="st5" d="M537,371.8c-2.9-3.2-8.1-8.7-10.6-16.4c-0.2-0.5-0.9-2.8-1.5-6.3c-0.8-4.9-1.5-12.5,0.2-22.4
			c2.5,4.7,5,10.5,7,17.4C535.4,355,537.1,364.7,537,371.8z"/>
		<path class="st5" d="M550.1,349.8c0.2,3.6-0.1,9.5-2.9,15.8c-1.1,2.6-2.5,4.7-3.7,6.5c5.3-2.2,15.4-7.3,23.5-17.9
			c4.1-5.4,6.5-10.6,8-14.7c-3.4,0.1-8.9,0.7-15,3.6C555.5,345.2,552.2,347.8,550.1,349.8z"/>
		<path class="st5" d="M567.6,295.7c1,3.3,3.5,13-0.6,24.3c-4.7,13.2-15.1,19.3-17.8,20.8c0.5-5.2,1.6-11.4,3.8-18.3
			C557,310.4,563,301.4,567.6,295.7z"/>
		<path class="st5" d="M551,286.2c3.1-4.3,9.1-11.2,18.4-13.5c1.1-0.3,2.2-0.5,3.2-0.6c-0.6,4.8-2.3,12.3-6.7,20.4
			c-5.5,9.8-12.5,15.7-16.7,18.8c0.3-1.3,0.7-2.6,0.9-4C551.6,299.5,551.6,292.3,551,286.2z"/>
		<path class="st5" d="M524.6,293.7c3.9,4.1,7.4,7.1,9.9,9c4.6,3.5,7.4,4.9,9.5,8.9c1.5,2.8,1.8,5.4,2,7.5c0.7,7-1.5,12.7-3.2,16.1
			c-4.3-4.2-11.4-12.2-14.2-21.3c-0.6-1.8-1.6-5.6-2.4-10C525.3,299.7,524.9,296.2,524.6,293.7z"/>
		<path class="st5" d="M518.8,271.1c4.1,4,8.3,8.3,12.6,12.8c2.2,2.3,4.3,4.6,6.3,6.9c0,0,0.5,0.5,1.2,1.4c4,4.9,9,11,7.3,14.7
			c-0.2,0.3-0.4,0.8-1,1.3c-5.2-3.2-15.2-10.2-21.6-22.9C521,280,519.6,275.1,518.8,271.1z"/>
		<polygon class="st5" points="549.9,279.6 545.6,292.5 546.9,293.1 552.8,278.1 		"/>
		<path class="st5" d="M543.1,284.6c-2.1,2.1-19-9.9-26.1-17.8c-0.9-1-1.9-2.2-3-4.1c-3.4-5.8-3.8-11.6-3.7-15.1
			c5.1,3.5,12.4,9.1,19.3,17.5C534.1,270.6,545,282.7,543.1,284.6z"/>
		<polygon class="st5" points="530,257.3 539.4,265.9 537.8,260.1 528.8,254.3 		"/>
		<path class="st5" d="M543.1,272.2c0.4-2.4,0.7-5.8,0.1-9.8c-0.7-5.1-2.4-9-3.7-11.4c0.8-3.2,2.9-9.2,8.3-14.7
			c3.2-3.2,6.4-5.2,8.8-6.4c0.9,3.9,2.1,12-0.6,21.5C552.9,262.6,546.1,269.5,543.1,272.2z"/>
		<path class="st5" d="M533,245.6c-1.9-1.4-4.4-3-7.6-4.3c-6.6-2.7-12.6-2.6-16.1-2.3c-2.5-2.1-7.9-7.2-10-15.6
			c-0.8-3.2-0.9-6.2-0.7-8.4c10,3,16,7.7,19.2,10.8c2.8,2.7,5.2,5.7,7,7.9C528.5,238.3,531.2,242.5,533,245.6z"/>
		<path class="st5" d="M534.8,244.8c0.3-2.1,0.5-4.8,0-8.1c-0.9-6-3.8-10.3-5.4-12.5c0.1-2.8,0.7-10.2,6.1-16.9
			c2.8-3.5,6-5.7,8.2-6.9c1.3,4,3.3,12.5,1.3,22.9C543,234.3,537.6,241.6,534.8,244.8z"/>
		<path class="st5" d="M525.2,222.2c-2-2-6.2-5.9-12.8-8.1c-6.1-2-11.4-1.7-14.1-1.3c-2.7-2.5-7.9-8-9.9-16.6
			c-0.7-2.9-0.8-5.6-0.7-7.8c4,1.2,10.5,3.7,17,8.9c5.6,4.5,9.2,9.4,11.2,12.8C519,214.2,522.1,218.2,525.2,222.2z"/>
		<path class="st5" d="M523.6,217.8c0.7-1.7,1.7-5.2,1-9.5c-1.1-7-6.1-11-7.3-11.9c-0.2-2.7-0.2-8.4,2.9-14.7
			c2.8-5.7,6.7-9.1,8.9-10.6c1.6,4.5,3.3,11.2,3.2,19.4c-0.2,13.6-5.5,23.6-8.4,28.4C523.8,218.5,523.7,218.2,523.6,217.8z"/>
		<path class="st5" d="M511.5,192.7c0.6-1.7,1.4-4.8,0.8-8.6c-1.4-7.8-8-11.8-9-12.4c0-4.4,0.5-11.8,4.7-19.4
			c1.4-2.5,2.9-4.6,4.3-6.3c2.1,4.3,4.6,10.8,5.3,19c1.3,13.6-2.9,24.1-5.3,29.1C512.1,193.7,511.8,193.2,511.5,192.7z"/>
		<path class="st5" d="M493.6,183.8c0.1,0.3,18,9.4,18,9.4l-2.3-4.1l-15.7-6.7V183.8z"/>
	</g>
	<g>
		<path d="M143.7,127c-1.8-0.4-3.5-0.8-5.3-1.2c0.2-1.8,0.3-3.6,0.5-5.4c0.8,0.5,4.4,2.6,7.6,1.2c0.6-0.3,1-0.6,1.2-0.7
			c0.9-0.7,34.3-20.7,33.2-23.2c-0.1-0.3-1.4-0.9-2.7-0.1c-6.1,3.8-12.7,7.7-19.1,12.6c-1,0.7-1.9,1.5-2.9,2.2
			c-0.8,0.6-6.4,4.7-8.4,3.1c-0.7-0.5-0.7-1.5-0.7-2.4c0.1-5.2,3.3-10.3,7.7-16.3c1.5-2,3.4-4.5,5.8-7.5c0,2.4,0,4.7,0,7.1
			c-2.3,0.8-3.9,2-4.8,2.7c-0.7,0.6-3.4,3-4.8,7.2c-0.6,1.9-1,3-0.5,3.4c1.1,1,5.7-3,11.7-7.4c10.7-7.9,17.5-13,21.3-10.9
			c3,1.6,4.5,8,2.5,10.3c-0.2,0.2-0.3,0.3-0.4,0.4c-2.5,1.9-23.8,15.5-38.1,24.6c0.3,0.6,1.8,6-1.1,11.3c-2.5,4.7-7.1,7.3-12.8,6.3
			c1.1-0.5,6.7-2.8,9.2-9C144.3,131.8,144,128.6,143.7,127z"/>
		<polygon points="131.9,109.5 130.5,115.9 135.5,115.9 137.7,109.5 		"/>
		<path d="M197,92.2c-0.2,1.5-1.1,5.7-4.8,9.3c-3.1,3.1-6.6,4.1-8.1,4.4c0,0.4,0,0.8,0,1.3c5.4,1.6,11,0,14.1-4
			c3.1-4.1,2.2-9,2.1-9.9c2.5,1.1,5.2,0.4,6.5-1.4c1.2-1.7,0.8-3.7,0.7-4.1c4,0.4,7.9,0.9,11.9,1.3c0.6-1,1.8-2.5,3.7-3.8
			c2.4-1.7,4.8-2.1,6.1-2.3c0-2.5-0.1-5.1-0.1-7.6c-1.3-1.5-2.7-3.6-2.4-5.9c0.5-3,3.8-4.3,3.2-5.8c-0.4-1.1-2.3-0.5-5.9-2.2
			c-1.7-0.8-2.2-1.4-3-1.2c-1.4,0.4-2.2,3-1.8,5.2c0.5,2.5,2.3,2.6,4.5,5.9c1,1.4,3.5,5.3,2.1,7.5c-1.2,1.9-4.8,2.4-6.9,1
			c-2.3-1.5-1.5-4.5-3.4-5.2c-2-0.8-5.3,1.6-6.8,4.4c-1.6,2.8-0.5,4.6-2,6.4c-2.4,3-7.7,2-7.9,1.9c-2.8-0.6-4.6-2.3-5.3-3
			c-1.5,1.6-1.8,4-0.7,5.7C193.6,91.4,195.3,92.3,197,92.2z"/>
		<ellipse class="st1" cx="212.8" cy="81.9" rx="1.9" ry="1.2"/>
		<path d="M232.5,63.6c1.1-1.9,2.1-3.8,3.2-5.6c1.8,3.4,4.4,9.6,3.9,17.3c-0.1,2.2-0.5,4.1-1,5.8C236.6,75.2,234.6,69.4,232.5,63.6z
			"/>
		<path d="M272.6,74.4c1.4,0,2.7,0,4.1,0c0.5-0.2,0.9-0.3,1.4-0.5c0.3,0.1,0.6,0.2,0.8,0.3c2.2,0,4.4,0,6.6,0
			c0.4-0.5,0.8-1.1,1.2-1.6c0.2,0.5,0.5,1.1,0.7,1.6c1.6,0,3.2,0,4.8,0c0.4-1,0.9-2,1.3-2.9c0.3,1,0.7,2,1,3
			c5.9,0.1,11.9,0.2,17.8,0.3c0.8-1.1,2-3.3,2.3-6.2c0.1-1.2,0.4-4.1-1.2-7c-0.8-1.4-1.2-2.6-2.3-2.9c-1.9-0.4-4.9,2.2-4.4,4.6
			c0.3,1.2,1.9,1.1,2.9,2.7c0.7,1.2,0.7,2.5,0.5,3.4c-4.2,0-8.4,0-12.6,0c-0.6-6.7-1.1-13.5-1.7-20.2c-1.5,1.7-2.9,3.4-4.4,5.1
			c0.7,5.1,1.5,10.1,2.2,15.2c-1.8,0-3.6,0-5.4,0c-0.5-2.2-0.9-4.4-1.4-6.6c-1,1.1-2,2.2-2.9,3.4c0,1,0,2,0,3c-1.3,0-2.6,0-3.8,0
			c0.2-2.3,0.3-4.7,0.5-7c-1.3,1.6-2.6,3.2-3.9,4.9c0,0.7,0,1.5,0,2.2c-1.2,0.2-2.5,0.4-3.7,0.6c-1.5-2-3-4-4.5-6
			c-1,1.8-2,3.5-3,5.3c1.4,2.1,2.9,4.3,4.3,6.4c-0.7,0.8-3.4,3.6-7.7,3.8c-0.7,0-5.1,0.3-6.6-2.2c-2-3.2,2.5-8.7,2-9
			c-0.5-0.3-5.3,3.8-5.4,9.6c0,0.7-0.1,5.1,3,7.4c4,3.1,10.9,0.8,14.4-3.2C272.1,79,272.5,75.8,272.6,74.4"/>
		<path d="M305.4,76.6c-0.3,0-4.7,3.5-4.7,3.5l4.6,4.2l3.8-3.8L305.4,76.6z"/>
		<polygon points="322.3,53 318,57.7 318,76.3 322.6,68.3 		"/>
		<path d="M334.8,75.2c-0.7,0.9-3.6,4.1-8.5,4.9c-4.5,0.8-7.9-0.9-9-1.5c0.9,1.1,2.3,2.5,4.3,3.9c1.9,1.3,4.2,2.9,6.8,2.8
			c5-0.2,8-6.4,8.2-6.8c9.1,2.6,18.2,5.2,27.3,7.8c1.6-2.1,3.2-4.1,4.9-6.2c-1.5-2.8-3.1-5.6-4.6-8.4c-5.5,0.5-11.1,1-16.6,1.5
			c0.8-2.3,1.6-4.6,2.4-6.9c1.4-1.1,2.8-2.3,4.2-3.4c-1.8-2.2-3.6-4.5-5.5-6.7c-1.4,1.1-2.7,2.1-4.1,3.2c0,5.2,0,10.4,0,15.6
			c-1.2,0-2.4,0-3.6,0c-2-2.9-4-5.7-6-8.6c-1.5,1.3-3.1,2.6-4.6,3.9C331.9,71.9,333.3,73.6,334.8,75.2z"/>
		<polygon class="st1" points="349.1,76.2 363.9,80.9 359.2,74.7 350.4,74.7 		"/>
		<path d="M378.3,80.6c-0.5,1.2-5.3,12.5-1.4,16.7c0.4,0.4,1,1,1.9,1.2c2.8,0.5,4.3-4.2,8.7-5.9c1-0.4,4.4-1.9,6.1-0.4
			c1.3,1.2,1.4,3.8,0.2,6.6c5.6,3.4,11.2,6.8,16.8,10.2c1.5-2.8,2.9-5.5,4.4-8.3c0-2.7-0.1-5.3-0.1-8c-1.8,0.9-3.6,1.8-5.4,2.7
			c0.5,2.2,1.1,4.3,1.6,6.5c-4.6-2.4-9.2-4.8-13.8-7.2c-0.1-2.6-0.2-5.2-0.3-7.7c-1.4-0.2-4.3-0.4-7.7,0.8c-3.4,1.3-4.2,4.6-6.5,4.5
			c-1.7,0-3.1-1.7-4-3C378.6,86.5,378.4,83.5,378.3,80.6z"/>
		<polygon points="402.2,109.2 399.6,105.2 395.5,107 398.4,111.3 400.9,110.6 403.4,114.3 408.1,113.5 405.6,108.5 		"/>
		<polygon points="389.2,73 386.3,68.8 381.5,70.6 384.8,75.3 387.7,74.5 390.6,78.5 396.1,77.6 393.2,72.3 		"/>
		<path d="M428.4,114.7c-3.1-2.3-6.3-4.6-9.4-6.9c1.5-2.7,2.1-4.1,1.8-4.3c-0.4-0.3-2.8,2.2-7.2,7.4c3.8,2.7,7.5,5.4,11.3,8.1
			c0.9-0.4,1.8-0.9,2.6-1.3c0.2,1.3,0.4,2.6,0.6,4c1.8,1.4,3.6,2.8,5.4,4.3c1.1-0.6,2.2-1.2,3.2-1.8c-0.4,1.1-0.7,2.2-1.1,3.4
			c5.3,4.6,10.6,9.2,15.9,13.7c2-2.2,4-4.3,6-6.5c0.4-3,0.7-5.9,1.1-8.9c-2,0.4-4.1,0.9-6.1,1.3c0,2.3,0,4.6-0.1,6.9
			c-3.6-3-7.1-6-10.7-8.9c2.9-5.8,5.9-11.6,8.8-17.4c-2.1,0.5-4.1,1-6.2,1.5c-2.1,4.4-4.3,8.8-6.4,13.2c-1.8-1.4-3.6-2.8-5.3-4.3
			c1.3-5.1,2.6-10.3,3.9-15.4c-2.1,1-4.2,2-6.3,3C429.6,108.7,429,111.7,428.4,114.7z"/>
		<polygon points="444.4,136.8 438.1,136.8 440.4,143.3 444.4,143.3 		"/>
	</g>
	<g>
		<path d="M87.3,431.5l16.9-3.3l5.7,8.6l-0.5,0.4l-0.5-0.7c-0.4-0.6-0.8-1.1-1.3-1.3c-0.3-0.2-0.7-0.2-1.1-0.1c-0.3,0-1,0.4-1.9,1.1
			l-13.1,9.1c-1,0.7-1.6,1.2-1.8,1.5c-0.2,0.3-0.2,0.7-0.2,1.2s0.3,1,0.7,1.6l0.5,0.7l-0.5,0.4l-7.3-11.1l0.5-0.4l0.5,0.7
			c0.4,0.6,0.8,1.1,1.3,1.3c0.3,0.2,0.7,0.2,1.1,0.1c0.3,0,1-0.4,2-1.1l14.7-10.2l-23.4,4.4l-0.2-0.4l12.5-20.7l-13.9,9.7
			c-1,0.7-1.6,1.1-1.7,1.3c-0.4,0.5-0.6,1-0.6,1.7c0,0.7,0.3,1.5,1,2.5l-0.5,0.4l-4.8-7.2l0.5-0.4l0.1,0.2c0.3,0.5,0.7,0.9,1.1,1.2
			c0.4,0.3,0.8,0.5,1.2,0.5c0.4,0,0.9-0.1,1.4-0.3c0.1-0.1,0.6-0.4,1.5-1l12.5-8.7c1-0.7,1.6-1.2,1.8-1.5c0.2-0.3,0.2-0.7,0.2-1.2
			c0-0.5-0.3-1-0.7-1.6l-0.4-0.7l0.5-0.4l5.7,8.7L87.3,431.5z"/>
		<path d="M116.8,455.8l-9.7,8.7c-0.9,0.8-1.5,1.5-1.5,1.9c-0.1,0.4,0.1,0.9,0.5,1.5l-0.5,0.4l-4.6-5.4l1.7-1.5
			c-1.3,0-2.3-0.2-3.2-0.5c-0.9-0.3-1.6-0.9-2.3-1.7c-0.6-0.7-1-1.6-1.1-2.6c-0.1-1,0.1-1.8,0.5-2.5c0.4-0.7,1.3-1.7,2.8-3l4.9-4.4
			c0.9-0.8,1.4-1.5,1.5-1.8s-0.1-0.9-0.5-1.6l0.5-0.4l4.6,5.4l-8.5,7.6c-0.9,0.8-1.4,1.3-1.6,1.7c-0.2,0.3-0.3,0.6-0.2,0.9
			c0,0.3,0.2,0.6,0.4,0.9c0.3,0.3,0.6,0.6,1,0.7c0.6,0.2,1.4,0.2,2.6,0.1l6.6-5.9c0.9-0.8,1.4-1.5,1.5-1.8c0.1-0.4-0.1-0.9-0.5-1.6
			l0.5-0.4L116.8,455.8z"/>
		<path d="M125.4,464.7l-1.5,1.6c1.3-0.1,2.3,0.1,3.2,0.3c0.9,0.3,1.6,0.7,2.3,1.4c0.8,0.8,1.3,1.7,1.4,2.6c0.1,1,0,1.9-0.5,2.7
			c-0.3,0.6-1.1,1.7-2.5,3.1l-4.4,4.8c-0.9,0.9-1.3,1.6-1.4,2c0,0.4,0.2,0.9,0.7,1.5l-0.4,0.5l-6.3-6.2l0.4-0.5
			c0.5,0.4,1,0.5,1.5,0.4c0.3-0.1,0.9-0.5,1.7-1.4l5.1-5.4c0.9-1,1.5-1.7,1.6-2c0.2-0.3,0.2-0.7,0.2-1c-0.1-0.3-0.2-0.6-0.4-0.8
			c-0.8-0.7-2-0.9-3.6-0.5l-6.1,6.5c-0.9,0.9-1.3,1.6-1.4,2c-0.1,0.4,0.1,0.9,0.5,1.4l-0.4,0.5l-6.3-6.2l0.4-0.5
			c0.6,0.5,1.1,0.7,1.6,0.6c0.3,0,0.9-0.5,1.8-1.5l6.4-6.9c0.9-0.9,1.3-1.6,1.4-2c0-0.4-0.2-0.9-0.7-1.5l0.5-0.5L125.4,464.7z"/>
		<path d="M141.4,479.3l-8.4,10.3c-0.7,0.9-1.1,1.6-1.1,2c0,0.4,0.3,0.9,0.9,1.5l-0.4,0.5l-7.1-6.1l0.4-0.5c0.6,0.5,1.2,0.7,1.7,0.6
			c0.4-0.1,0.9-0.5,1.7-1.4l6.2-7.6c0.7-0.9,1.1-1.6,1.1-2c0-0.4-0.3-0.9-0.9-1.5l0.4-0.5L141.4,479.3z M144.6,471.4
			c0.6,0.5,1,1.2,1,2c0.1,0.8-0.1,1.5-0.6,2.1c-0.5,0.6-1.1,0.9-1.9,1c-0.8,0-1.5-0.2-2.1-0.7c-0.6-0.5-0.9-1.2-1-1.9
			c-0.1-0.8,0.1-1.5,0.6-2.1c0.5-0.6,1.1-0.9,1.9-1C143.3,470.6,144,470.9,144.6,471.4z"/>
		<path d="M149,501l0.2,0.7c-1.5,0.7-3,1-4.4,0.8c-1.4-0.2-2.6-0.6-3.7-1.5c-1.8-1.4-2.8-3.2-2.9-5.4c-0.1-2.2,0.5-4.3,1.9-6.2
			c1.3-1.8,3-3.1,5-3.7c2.4-0.8,4.7-0.4,6.9,1.3c1.4,1.1,2.3,2.3,2.6,3.6c0.3,1.3,0.2,2.5-0.4,3.3c-0.4,0.6-0.9,0.9-1.5,0.9
			c-0.6,0.1-1.1-0.1-1.7-0.5c-0.6-0.4-0.9-1-1-1.7c-0.1-0.7,0.1-1.5,0.8-2.6c0.4-0.7,0.5-1.2,0.5-1.6c-0.1-0.4-0.2-0.7-0.5-1
			c-0.5-0.4-1.1-0.4-1.7-0.2c-1.1,0.4-2.1,1.3-3.2,2.8c-0.9,1.3-1.6,2.7-2,4.1c-0.4,1.5-0.5,2.8-0.2,3.9c0.2,0.8,0.7,1.5,1.5,2.1
			c0.5,0.4,1,0.6,1.6,0.7C147.1,501.2,148,501.2,149,501z"/>
		<path d="M164.9,496.7l-7.2,11.2c-0.6,1-0.9,1.7-0.9,2.1c0.1,0.4,0.4,0.9,1.1,1.4l-0.3,0.5l-7.8-5.2l0.3-0.5
			c0.7,0.4,1.2,0.5,1.8,0.4c0.4-0.1,0.8-0.6,1.5-1.6l5.3-8.3c0.6-1,0.9-1.7,0.9-2.1c-0.1-0.4-0.4-0.9-1.1-1.4l0.4-0.6L164.9,496.7z
			 M167.1,488.4c0.7,0.4,1.1,1.1,1.3,1.8c0.2,0.8,0,1.5-0.4,2.1c-0.4,0.6-1,1-1.8,1.2c-0.8,0.1-1.5,0-2.1-0.5
			c-0.7-0.4-1.1-1-1.2-1.8c-0.2-0.8-0.1-1.5,0.4-2.1c0.4-0.6,1-1,1.8-1.2C165.7,487.8,166.4,488,167.1,488.4z"/>
		<path d="M167.2,515.9l-3,5.5c-0.4,0.8-0.6,1.3-0.7,1.6c0,0.3,0.1,0.7,0.2,0.9c0.2,0.3,0.7,0.6,1.4,1.1l-0.3,0.6l-8.6-4.9l0.3-0.6
			c0.7,0.4,1.3,0.5,1.8,0.3c0.3-0.1,0.8-0.7,1.4-1.7l8.5-15.5c0.6-1,0.8-1.8,0.7-2.2c-0.1-0.4-0.5-0.9-1.2-1.3l0.3-0.6l6.3,3.6
			l-1.1,1.9c0.9-0.5,1.8-0.7,2.5-0.7c1.1,0,2,0.2,3,0.7c1.1,0.6,1.9,1.6,2.4,2.8c0.5,1.2,0.7,2.5,0.5,4c-0.2,1.5-0.7,2.9-1.4,4.3
			c-0.8,1.5-1.8,2.7-3,3.7c-1.2,1-2.4,1.5-3.7,1.6c-1.3,0.1-2.5-0.2-3.6-0.8c-0.8-0.5-1.5-1.1-2-1.9
			C167.8,517.7,167.5,516.9,167.2,515.9z M168.1,514.3c0.2,1.8,0.8,3,1.9,3.6c0.6,0.3,1.2,0.3,1.9-0.1c1-0.6,2.2-2.1,3.6-4.6
			c1.4-2.5,2-4.5,1.9-5.7c-0.1-0.9-0.4-1.5-1.1-1.9c-1.1-0.6-2.4-0.4-3.9,0.8L168.1,514.3z"/>
		<path d="M190.6,527.3c-2.7,0.8-4.7,0.8-6.3,0.1c-0.9-0.4-1.5-1.1-1.8-1.9c-0.3-0.9-0.3-1.7,0.1-2.6c0.5-1.2,1.5-2,3-2.4
			c1.4-0.5,4.2-0.6,8.4-0.6l0.7-1.5c0.5-1.2,0.8-1.9,0.8-2.3c0-0.4-0.1-0.7-0.4-1.1c-0.3-0.4-0.6-0.7-1.1-0.9
			c-0.7-0.3-1.4-0.5-2-0.4c-0.4,0.1-0.6,0.2-0.7,0.5c-0.1,0.2-0.1,0.6,0.1,1.1c0.2,0.7,0.2,1.2,0,1.7c-0.2,0.5-0.6,0.9-1.2,1.1
			s-1.2,0.1-1.9-0.2c-0.7-0.3-1.2-0.8-1.5-1.5c-0.3-0.6-0.3-1.2-0.1-1.8c0.4-0.8,1-1.4,2-1.8c1-0.4,2.1-0.5,3.4-0.4
			c1.3,0.2,2.6,0.5,3.8,1.1c1.5,0.7,2.5,1.6,3.1,2.6c0.6,1,0.8,2,0.8,2.8c-0.1,0.5-0.4,1.6-1.2,3.3l-2.7,6c-0.3,0.7-0.5,1.2-0.5,1.4
			c0,0.2,0,0.4,0.1,0.5s0.2,0.2,0.3,0.3c0.3,0.1,0.7,0.1,1.2-0.2l0.3,0.6c-0.9,0.5-1.8,0.9-2.5,0.9c-0.8,0.1-1.5,0-2.3-0.4
			c-0.9-0.4-1.5-1-1.8-1.6C190.3,528.9,190.3,528.2,190.6,527.3z M191.1,526.1l2.3-5.1c-1.7,0.1-3.1,0.5-4.1,1.1
			c-0.7,0.4-1.2,0.9-1.5,1.5c-0.2,0.5-0.2,1,0,1.6c0.1,0.4,0.5,0.8,1,1C189.3,526.3,190.1,526.3,191.1,526.1z"/>
		<path d="M214.8,513.7l-7.4,19.6c-0.4,1.1-0.6,1.9-0.4,2.3c0.1,0.4,0.6,0.8,1.3,1.1l-0.2,0.6l-8.7-3.4l0.2-0.6
			c0.7,0.3,1.3,0.3,1.8,0c0.3-0.2,0.7-0.8,1.1-1.9l6.2-16.3c0.4-1.1,0.6-1.9,0.4-2.3c-0.1-0.4-0.6-0.8-1.3-1.1l0.2-0.6L214.8,513.7z
			"/>
		<path d="M222.8,524.7l-4.2,12.7c-0.4,1.1-0.5,1.9-0.3,2.3c0.2,0.4,0.6,0.8,1.4,1.1l-0.2,0.6l-8.8-3l0.2-0.6
			c0.7,0.2,1.3,0.2,1.8-0.1c0.3-0.2,0.7-0.8,1-2l3.1-9.3c0.4-1.1,0.5-1.9,0.3-2.3c-0.2-0.4-0.6-0.8-1.4-1.1l0.2-0.6L222.8,524.7z
			 M222.9,516.1c0.8,0.3,1.3,0.7,1.7,1.4c0.4,0.7,0.4,1.4,0.2,2.1c-0.2,0.7-0.7,1.3-1.4,1.6c-0.7,0.3-1.4,0.4-2.2,0.1
			s-1.3-0.7-1.7-1.4c-0.4-0.7-0.4-1.4-0.2-2.1c0.2-0.7,0.7-1.3,1.4-1.6C221.5,515.9,222.2,515.8,222.9,516.1z"/>
		<path d="M235.5,522.1l-1.6,5.9l3.9,1.1l-0.5,1.7l-3.9-1.1l-2.8,10c-0.3,0.9-0.4,1.6-0.4,1.9c0,0.3,0.1,0.6,0.3,0.8
			c0.2,0.2,0.4,0.4,0.6,0.4c0.8,0.2,1.7-0.1,2.7-1.1l0.4,0.5c-1.6,1.9-3.4,2.6-5.6,2c-1.1-0.3-1.9-0.8-2.4-1.6
			c-0.6-0.8-0.9-1.6-0.9-2.3c0-0.4,0.2-1.5,0.7-3.2l2.4-8.8l-2.2-0.6l0.2-0.6c1.8-0.6,3.3-1.3,4.7-2.1c1.4-0.8,2.6-1.8,3.8-3
			L235.5,522.1z"/>
		<path d="M244.3,548.7l-2.9-13.4c-0.4-2-0.8-3.3-1.1-3.8c-0.3-0.5-0.7-0.9-1.2-1.2l0.1-0.7l9,2l-0.1,0.7c-0.6-0.1-1-0.1-1.3,0.1
			c-0.3,0.1-0.5,0.4-0.5,0.6c-0.1,0.4,0,1.4,0.3,2.8l1.5,7.1l3-4.6c1.1-1.6,1.7-2.8,1.8-3.5c0.1-0.4,0-0.8-0.2-1.1
			c-0.2-0.3-0.7-0.6-1.5-0.8l0.1-0.7l5.6,1.2l-0.1,0.7c-0.6-0.1-1.1,0-1.5,0.3c-0.4,0.3-1.3,1.4-2.5,3.3l-7.4,11.2
			c-1.9,2.8-3.1,4.5-3.9,5.1c-1,0.8-2.2,1.1-3.4,0.8c-1-0.2-1.7-0.7-2.2-1.4c-0.5-0.7-0.7-1.4-0.5-2.2c0.1-0.7,0.5-1.2,1-1.6
			c0.5-0.4,1.1-0.5,1.7-0.3c0.6,0.1,1,0.4,1.3,0.9c0.3,0.5,0.4,1.1,0.2,1.9c-0.1,0.4-0.1,0.8,0,0.9c0.1,0.2,0.2,0.2,0.4,0.3
			c0.3,0.1,0.6,0,1-0.3c0.6-0.4,1.4-1.4,2.4-3L244.3,548.7z"/>
		<path d="M277.8,535.8c1.5,0.1,2.8,0.7,4.1,1.5c1.2,0.9,2.1,2,2.6,3.5c0.5,1.5,0.7,3,0.6,4.7c-0.2,2.4-1,4.3-2.4,5.8
			c-1.7,1.8-3.8,2.6-6.5,2.3c-2.6-0.3-4.5-1.3-5.7-3.2c-1.2-1.9-1.7-4-1.5-6.4c0.2-2.4,1.1-4.4,2.7-6.1
			C273.3,536.2,275.3,535.5,277.8,535.8z M277.8,537c-0.6-0.1-1.2,0.1-1.7,0.5c-0.5,0.4-0.9,1.3-1.1,2.6c-0.3,1.3-0.5,3.2-0.7,5.7
			c-0.1,1.3-0.1,2.5-0.1,3.6c0.1,0.9,0.3,1.5,0.7,2c0.4,0.5,0.9,0.8,1.4,0.8c0.6,0.1,1-0.1,1.4-0.3c0.5-0.4,0.9-0.9,1.1-1.6
			c0.4-1.1,0.7-3.4,1-6.9c0.2-2,0.2-3.4,0-4.2c-0.2-0.8-0.5-1.4-0.9-1.8C278.7,537.3,278.3,537.1,277.8,537z"/>
		<path d="M296.8,539.2l-0.4,11.7c0,1.1,0.1,1.8,0.3,2.1c0.4,0.5,1.1,0.7,2.2,0.7l0,0.6l-10.2-0.3l0-0.7c0.8,0,1.3-0.1,1.7-0.2
			c0.3-0.2,0.6-0.4,0.7-0.7c0.1-0.3,0.2-0.9,0.2-1.8l0.4-11.7l-2.5-0.1l0.1-1.8l2.5,0.1l0-1.2l0-0.8c0.1-1.7,0.7-3.2,2.1-4.3
			s3.1-1.6,5.3-1.6c1.5,0,2.6,0.4,3.3,0.9c0.7,0.6,1.1,1.2,1,1.9c0,0.5-0.3,1-0.7,1.4c-0.5,0.4-1.1,0.6-1.8,0.5
			c-0.6,0-1.1-0.2-1.5-0.5c-0.4-0.3-0.5-0.7-0.5-1.1c0-0.1,0-0.3,0.1-0.7c0.1-0.2,0.1-0.4,0.1-0.6c0-0.3-0.1-0.4-0.2-0.6
			c-0.2-0.2-0.4-0.3-0.7-0.3c-0.4,0-0.7,0.1-0.9,0.4c-0.2,0.3-0.4,0.7-0.4,1.4l-0.1,3.2l-0.1,2.1l2.5,0.1l-0.1,1.8L296.8,539.2z"/>
		<path d="M336.1,527.3l0.7,8.5l-0.7,0.1c-0.7-2.2-1.9-3.8-3.4-4.8c-1.6-1-3.3-1.5-5.1-1.3c-1.6,0.1-2.9,0.7-4.2,1.7
			c-1.2,1-2.1,2.2-2.6,3.7c-0.6,1.9-0.8,3.9-0.6,6.1c0.2,2.2,0.6,4.1,1.3,5.9c0.7,1.7,1.7,3,3,3.8c1.3,0.8,2.9,1.1,4.8,1
			c1.6-0.1,3-0.6,4.2-1.4c1.2-0.8,2.5-2.1,3.8-3.8l0.2,2.1c-1.3,1.6-2.6,2.7-4.1,3.5c-1.5,0.8-3.2,1.3-5.2,1.4
			c-2.7,0.2-5.1-0.1-7.2-0.9c-2.2-0.9-3.9-2.2-5.2-4.1c-1.3-1.9-2-3.9-2.2-6.1c-0.2-2.3,0.2-4.6,1.3-6.8c1.1-2.2,2.6-4,4.6-5.3
			c2-1.3,4.2-2.1,6.6-2.3c1.8-0.2,3.6,0.1,5.6,0.6c1.2,0.3,1.9,0.5,2.2,0.5c0.4,0,0.7-0.2,1-0.5c0.3-0.3,0.4-0.8,0.4-1.4
			L336.1,527.3z"/>
		<path d="M356.6,539.8l-9.3,1.7c0.5,2.2,1.4,3.8,2.7,4.9c1,0.8,2.1,1.1,3.3,0.9c0.7-0.1,1.4-0.4,1.9-1c0.5-0.5,1-1.3,1.5-2.5
			l0.7,0.3c-0.6,2-1.4,3.5-2.4,4.5c-1,1-2.2,1.6-3.7,1.8c-2.5,0.5-4.6-0.2-6.2-1.8c-1.3-1.3-2.1-3.1-2.5-5.4c-0.5-2.8-0.1-5.1,1.2-7
			c1.2-1.9,2.9-3.1,5-3.4c1.7-0.3,3.3,0.1,4.8,1.3C355,535.2,356.1,537.1,356.6,539.8z M352,539.5c-0.3-1.9-0.7-3.2-1-3.9
			c-0.3-0.7-0.8-1.2-1.3-1.4c-0.3-0.2-0.6-0.2-1.1-0.1c-0.6,0.1-1.1,0.5-1.4,1.2c-0.5,1.2-0.6,2.7-0.3,4.5l0.1,0.6L352,539.5z"/>
		<path d="M365.1,529.8l0.5,2.1c0.6-1.1,1.3-2,2-2.6c0.7-0.6,1.5-1,2.4-1.3c1.1-0.3,2.1-0.2,2.9,0.2c0.9,0.4,1.5,1,2,1.8
			c0.4,0.6,0.8,1.9,1.2,3.8l1.6,6.4c0.3,1.3,0.6,2,0.9,2.3c0.3,0.2,0.8,0.3,1.6,0.2l0.2,0.6l-8.4,2.2l-0.2-0.6
			c0.6-0.2,1-0.6,1.2-1.1c0.1-0.3,0-1.1-0.3-2.2l-1.8-7.3c-0.3-1.3-0.6-2.2-0.8-2.5c-0.2-0.3-0.4-0.5-0.7-0.7
			c-0.3-0.1-0.6-0.1-0.9-0.1c-1,0.3-1.8,1.2-2.3,2.9l2.2,8.8c0.3,1.2,0.6,2,0.9,2.2c0.3,0.3,0.8,0.4,1.4,0.3l0.2,0.6l-8.4,2.2
			l-0.2-0.6c0.7-0.3,1.1-0.6,1.3-1.1c0.1-0.3,0.1-1.1-0.3-2.4l-2.3-9.2c-0.3-1.2-0.6-2-0.9-2.2c-0.3-0.2-0.8-0.3-1.6-0.2l-0.2-0.6
			L365.1,529.8z"/>
		<path d="M383.9,517.7l1.9,5.9l3.9-1.3l0.5,1.7l-3.9,1.3l3.2,9.9c0.3,0.9,0.5,1.5,0.7,1.7c0.2,0.2,0.4,0.4,0.7,0.5
			c0.3,0.1,0.5,0.1,0.7,0c0.8-0.3,1.3-1.1,1.6-2.4l0.6,0.2c-0.2,2.5-1.4,4.1-3.5,4.9c-1,0.4-2,0.4-2.9,0c-0.9-0.3-1.6-0.8-2-1.4
			c-0.2-0.3-0.6-1.4-1.2-3.1l-2.8-8.7l-2.1,0.7l-0.2-0.6c1.1-1.5,2-3,2.7-4.5c0.7-1.5,1.2-3,1.5-4.7L383.9,517.7z"/>
		<path d="M398.7,518.7l1.4,3.6c0.4-2.1,0.9-3.5,1.5-4.4c0.6-0.9,1.3-1.4,2-1.7c0.6-0.3,1.2-0.3,1.8,0c0.5,0.2,0.9,0.7,1.2,1.4
			c0.3,0.7,0.3,1.4,0.1,2c-0.2,0.6-0.6,1-1.1,1.2c-0.6,0.2-1.2,0.3-1.8,0.1c-0.6-0.2-0.9-0.3-1-0.3c-0.1,0-0.3,0-0.4,0.1
			c-0.3,0.1-0.6,0.4-0.8,0.8c-0.3,0.6-0.5,1.3-0.4,2.1c0.1,1.2,0.3,2.5,0.9,3.8l1.4,3.6l0.4,0.9c0.2,0.6,0.4,1,0.6,1.2
			c0.3,0.2,0.5,0.4,0.9,0.4c0.3,0,0.8-0.1,1.5-0.3l0.2,0.6l-8.6,3.5l-0.2-0.6c0.7-0.3,1.1-0.7,1.2-1.1c0.1-0.4-0.1-1.3-0.6-2.7
			l-3.4-8.7c-0.3-0.9-0.6-1.4-0.8-1.7c-0.2-0.3-0.5-0.4-0.8-0.5c-0.3-0.1-0.7,0-1.3,0.2l-0.2-0.6L398.7,518.7z"/>
		<path d="M423.1,523.3c-1.1,2.6-2.4,4.2-3.9,5c-0.9,0.4-1.8,0.5-2.6,0.2c-0.9-0.3-1.5-0.8-1.9-1.7c-0.6-1.2-0.5-2.5,0-3.9
			c0.6-1.4,2.2-3.8,4.9-7l-0.7-1.5c-0.5-1.1-1-1.8-1.2-2.1c-0.3-0.2-0.6-0.4-1.1-0.4c-0.5,0-0.9,0-1.4,0.3c-0.7,0.4-1.2,0.8-1.5,1.4
			c-0.2,0.3-0.2,0.6-0.1,0.9c0.1,0.2,0.4,0.4,0.9,0.6c0.6,0.3,1.1,0.6,1.3,1c0.3,0.5,0.3,1.1,0,1.7c-0.2,0.6-0.7,1-1.3,1.4
			c-0.7,0.3-1.4,0.4-2,0.3c-0.7-0.2-1.1-0.5-1.4-1.1c-0.4-0.8-0.4-1.7-0.1-2.7c0.3-1,0.9-2,1.9-2.9c0.9-0.9,2-1.7,3.2-2.3
			c1.5-0.7,2.8-1,3.9-0.8c1.1,0.2,2,0.6,2.6,1.2c0.4,0.4,0.9,1.4,1.7,3l2.8,5.9c0.3,0.7,0.6,1.1,0.7,1.3c0.1,0.2,0.3,0.2,0.4,0.3
			c0.2,0,0.3,0,0.4-0.1c0.3-0.1,0.5-0.5,0.6-1l0.7,0.1c-0.2,1.1-0.5,1.9-0.9,2.6c-0.4,0.7-1,1.2-1.8,1.5c-0.9,0.4-1.7,0.6-2.4,0.4
			C424.2,524.5,423.6,524,423.1,523.3z M422.5,522.1l-2.4-5.1c-1,1.4-1.6,2.8-1.8,4c-0.2,0.8-0.1,1.5,0.2,2.1c0.2,0.5,0.6,0.8,1.2,1
			c0.4,0.2,0.9,0.1,1.4-0.1C421.6,523.7,422.1,523.1,422.5,522.1z"/>
		<path d="M428.2,495.5l10.1,18.2c0.6,1,1.1,1.6,1.5,1.8c0.4,0.1,1,0,1.7-0.3l0.3,0.6l-8.1,4.7l-0.3-0.6c0.7-0.4,1-0.9,1.2-1.4
			c0.1-0.4-0.2-1.1-0.7-2.1l-8.4-15.2c-0.6-1-1.1-1.6-1.5-1.8c-0.4-0.1-1,0-1.7,0.3l-0.3-0.6L428.2,495.5z"/>
		<path d="M457.9,474.9l3.8,5.4l-0.5,0.4c-1.2-1-2.2-1.6-3-1.9c-0.8-0.3-1.6-0.3-2.5-0.1c-0.5,0.1-1.2,0.5-2.2,1.2L452,481
			l10.9,15.3c0.7,1,1.2,1.6,1.5,1.8c0.3,0.2,0.7,0.2,1.1,0.2s1-0.3,1.6-0.7l0.7-0.5l0.4,0.5l-10.6,7.9l-0.4-0.5l0.7-0.5
			c0.6-0.4,1-0.9,1.2-1.4c0.2-0.3,0.2-0.7,0.1-1.2c-0.1-0.3-0.4-1-1.1-2l-10.9-15.3l-1.5,1.1c-1.4,1-2.1,2-2.4,3.1
			c-0.3,1.4,0,3,0.8,4.6l-0.6,0.4l-3.8-5.4L457.9,474.9z"/>
		<path d="M468.1,475.8l2.4,2.9c-0.2-2.1-0.2-3.6,0.1-4.6c0.3-1,0.7-1.8,1.3-2.3c0.5-0.5,1.1-0.7,1.6-0.6c0.6,0,1.1,0.4,1.6,0.9
			c0.5,0.6,0.8,1.2,0.7,1.8c0,0.6-0.2,1.1-0.7,1.5c-0.5,0.4-1.1,0.7-1.7,0.7c-0.6,0-1,0-1.1,0c-0.1,0-0.3,0.1-0.4,0.2
			c-0.3,0.2-0.4,0.6-0.5,1c-0.1,0.6,0,1.3,0.2,2.1c0.4,1.1,1.1,2.3,2,3.3l2.5,3l0.7,0.8c0.4,0.5,0.7,0.8,0.9,0.9
			c0.3,0.1,0.6,0.2,1,0.1c0.3-0.1,0.7-0.3,1.3-0.8l0.4,0.5l-7.1,6.2l-0.4-0.5c0.5-0.5,0.8-1,0.8-1.5c0-0.4-0.5-1.2-1.4-2.3l-5.9-7.1
			c-0.6-0.7-1-1.2-1.3-1.3c-0.3-0.2-0.6-0.2-0.9-0.2c-0.3,0-0.7,0.2-1.1,0.6l-0.4-0.5L468.1,475.8z"/>
		<path d="M473.4,459.8c0.6-0.6,1.2-0.8,2-0.8c0.8,0,1.4,0.3,1.9,0.8c0.5,0.6,0.8,1.2,0.7,2c0,0.8-0.3,1.5-0.9,2
			c-0.6,0.6-1.2,0.8-2,0.8c-0.8,0-1.4-0.3-1.9-0.8c-0.5-0.6-0.8-1.2-0.7-2C472.6,461.1,472.9,460.4,473.4,459.8z M480.8,463.9
			l9.1,9.6c0.8,0.9,1.4,1.3,1.9,1.3c0.4,0,1-0.2,1.6-0.8l0.4,0.5l-6.7,6.6l-0.4-0.5c0.5-0.6,0.8-1.1,0.8-1.7c0-0.4-0.4-1-1.2-1.9
			l-6.7-7.1c-0.8-0.9-1.4-1.3-1.9-1.3c-0.4,0-1,0.2-1.6,0.8l-0.5-0.5L480.8,463.9z"/>
		<path d="M499.6,465.8l4.5,4.2c0.6,0.6,1.1,0.9,1.4,1c0.3,0.1,0.6,0.1,0.9,0c0.3-0.1,0.7-0.5,1.3-1.2l0.5,0.4l-6.6,7.4l-0.5-0.5
			c0.5-0.6,0.7-1.2,0.7-1.7c0-0.4-0.5-0.9-1.3-1.7l-12.9-12c-0.9-0.8-1.5-1.2-1.9-1.2c-0.4,0-0.9,0.3-1.5,0.9l-0.5-0.4l4.9-5.5
			l1.6,1.5c-0.2-1-0.3-1.9-0.1-2.7c0.2-1.1,0.6-2,1.4-2.8c0.9-1,1.9-1.6,3.2-1.8c1.3-0.3,2.6-0.1,3.9,0.4c1.4,0.5,2.6,1.3,3.8,2.4
			c1.2,1.1,2.2,2.4,2.8,3.8c0.6,1.4,0.9,2.7,0.7,4c-0.2,1.3-0.7,2.4-1.6,3.4c-0.6,0.7-1.4,1.3-2.2,1.6
			C501.5,465.7,500.6,465.8,499.6,465.8z M498.3,464.6c1.8,0.2,3.1-0.2,3.9-1.1c0.4-0.5,0.6-1.1,0.4-1.9c-0.3-1.2-1.5-2.7-3.5-4.6
			c-2.1-2-3.8-3-5-3.2c-0.8-0.1-1.5,0.1-2,0.7c-0.8,0.9-0.9,2.3-0.2,4.1L498.3,464.6z"/>
		<path d="M503.2,437.1c0.9-1.2,2-2.1,3.4-2.7c1.4-0.6,2.8-0.7,4.3-0.4c1.5,0.3,2.9,1,4.2,2c1.9,1.5,3,3.2,3.5,5.2
			c0.6,2.4,0.1,4.7-1.5,6.8c-1.6,2.1-3.5,3.2-5.7,3.3c-2.2,0.1-4.3-0.6-6.1-2c-1.9-1.5-3.1-3.3-3.6-5.6
			C501.2,441.3,501.7,439.1,503.2,437.1z M504.3,437.8c-0.4,0.5-0.5,1.1-0.4,1.7c0.1,0.6,0.6,1.4,1.6,2.4c1,0.9,2.4,2.2,4.3,3.6
			c1,0.8,2,1.4,3,2c0.7,0.4,1.4,0.6,2,0.5c0.6-0.1,1.1-0.4,1.4-0.8c0.3-0.5,0.5-0.9,0.5-1.4c0-0.6-0.3-1.2-0.8-1.8
			c-0.7-0.9-2.5-2.4-5.2-4.5c-1.6-1.2-2.8-2-3.5-2.3c-0.7-0.3-1.4-0.3-1.9-0.2C505,437.1,504.6,437.4,504.3,437.8z"/>
		<path d="M508,417.9l17.1,11.6c1,0.7,1.7,1,2.1,0.9c0.4-0.1,0.9-0.4,1.4-1.1l0.5,0.4l-5.1,7.9l-0.5-0.4c0.4-0.7,0.5-1.3,0.4-1.8
			c-0.1-0.4-0.6-0.9-1.6-1.5l-14.2-9.7c-1-0.7-1.7-0.9-2.1-0.9c-0.4,0.1-0.9,0.4-1.4,1.1L504,424L508,417.9z"/>
		<path d="M511.9,410.2c0.4-0.7,1-1.2,1.7-1.4c0.7-0.2,1.4-0.1,2.1,0.3c0.6,0.4,1.1,1,1.2,1.7c0.2,0.8,0.1,1.5-0.3,2.2
			c-0.4,0.7-1,1.1-1.7,1.4c-0.7,0.2-1.4,0.1-2.1-0.3c-0.6-0.4-1.1-1-1.2-1.7C511.4,411.6,511.5,410.9,511.9,410.2z M520.1,412.1
			l11.2,6.8c1,0.6,1.7,0.9,2.1,0.8c0.4-0.1,0.9-0.5,1.3-1.2l0.5,0.3l-4.8,8.2l-0.5-0.3c0.4-0.7,0.5-1.3,0.3-1.8
			c-0.1-0.4-0.7-0.8-1.7-1.5l-8.3-5c-1-0.6-1.7-0.9-2.1-0.8c-0.4,0.1-0.9,0.5-1.3,1.2l-0.6-0.3L520.1,412.1z"/>
	</g>
</g>
</svg>
