<svg xmlns="http://www.w3.org/2000/svg" xmlns:xlink="http://www.w3.org/1999/xlink" width="600" height="770.406"><g stroke="#270080"><g fill="#270080"><path d="m -34.931685,98.392746 9.514418,5.202584 c -8.635673,10.14571 -13.412535,20.87797 -19.994335,31.33587 l -0.06183,-0.009 0.971771,-6.55333 c 0.0025,0.20968 -0.0026,0.42222 0.0011,0.63198 L -33.80756,97.236212 Z" transform="rotate(36.357 -12.704 568.463) scale(1.81919)"/><path d="m -35.281249,86.375 -13.902386,-0.619985 c 1.44855,13.56361 1.291256,30.749805 -0.910114,43.994985 -2.409402,-11.04279 -5.612213,-22.0037 -3.598734,-33.502894 l -10.364209,5.591494 13.994193,33.9114 4.96875,-0.5 1.09375,-4.90625 c -2.53444,-14.0581 3.56255,-29.05695 8.71875,-43.96875 z" transform="rotate(36.357 -12.704 568.463) scale(1.81919)"/></g><path d="m 141.0678,310.51798 12.37437,21.92031" fill="none" stroke-width="5.9" transform="rotate(29.139 347.897 255.59) scale(1.81919)"/><path d="m 128.56412,288.51236 c -3.07272,10.2242 -1.35166,21.49391 14.74669,26.8764 4.10841,-16.46964 -4.47241,-23.9755 -14.74669,-26.8764 z" fill="#5aa02c" transform="rotate(29.139 347.897 255.59) scale(1.81919)"/><path d="m 133.5,307.5625 8.75,-5 v 0 0" fill="none" transform="rotate(29.139 347.897 255.59) scale(1.81919)"/><path d="M136.84375 291.40625l1.40625 13.03125 6.34375-2.8125c-1.26253-4.61836-4.12073-7.90917-7.75-10.21875zM126.77707 297.07334l10.19365 8.23897-5.79973 3.81005c-3.19887-3.56235-4.41764-7.74724-4.39392-12.04902z" fill="#5aa02c" transform="rotate(29.139 347.897 255.59) scale(1.81919)"/><path d="m 134.5,311.0625 9.5625,-5.25" fill="none" transform="rotate(29.139 347.897 255.59) scale(1.81919)"/><path d="m 128.85623,335.19499 25.13025,-1.44753" fill="none" stroke-width="5.9" transform="rotate(29.139 347.897 255.59) scale(1.81919)"/><g><path d="m 128.56412,288.51236 c -3.07272,10.2242 -1.35166,21.49391 14.74669,26.8764 4.10841,-16.46964 -4.47241,-23.9755 -14.74669,-26.8764 z" fill="#5aa02c" transform="rotate(-33.739 72.796 832.27) scale(1.81919)"/><path d="m 133.5,307.5625 8.75,-5 v 0 0" fill="none" transform="rotate(-33.739 72.796 832.27) scale(1.81919)"/><path d="M136.84375 291.40625l1.40625 13.03125 6.34375-2.8125c-1.26253-4.61836-4.12073-7.90917-7.75-10.21875zM126.77707 297.07334l10.19365 8.23897-5.79973 3.81005c-3.19887-3.56235-4.41764-7.74724-4.39392-12.04902z" fill="#5aa02c" transform="rotate(-33.739 72.796 832.27) scale(1.81919)"/><path d="m 134.5,311.0625 9.5625,-5.25" fill="none" transform="rotate(-33.739 72.796 832.27) scale(1.81919)"/></g><g><path d="M77.5 294.25c.926195 3.36381 2.698179 7.61138 6.875 10L101.5 306.875 93.625 295.5C88.158548 294.82769 80.822222 291.85913 77.5 294.25zM93.677527 275.74415c3.461933.43368 7.919903 1.57751 10.883413 5.36814l5.05634 16.57075-12.387726-6.16038c-1.450133-5.3133-5.44118-12.14745-3.552027-15.77851z" fill="#5aa02c" transform="rotate(29.139 347.897 255.59) scale(1.81919)"/><path d="m 85.383144,283.8247 c 2.327317,7.51024 4.251222,15.30286 11.136931,19.62222 -9.179015,-5.08891 -19.860931,-1.16042 -30.405591,1.94454 l 41.197856,14.84924 c 10.34005,3.79115 20.38272,-6.25061 15.19391,-17.85444 L 106.9499,265.26315 c -4.64502,10.07627 -3.8235,20.15254 0,30.22881 C 98.896859,287.5703 92.039047,285.22638 85.383144,283.8247 Z" fill="#5aa02c" stroke-width="1.2" transform="rotate(29.139 347.897 255.59) scale(1.81919)"/><path d="M100.76272 317.76583c3.78992-8.06346 8.7661-15.53379 19.09188-20.32932v0 0M106.31578 319.82509c3.78337-7.79101 8.37106-12.67495 15.7817-18.21646l-.35355.26516-.13258.17678" fill="none" stroke-width="2" transform="rotate(29.139 347.897 255.59) scale(1.81919)"/></g><path d="m 121.3572,316.44 c 10.65317,8.73939 28.83066,14.9179 40.11263,19.48542" fill="none" stroke-width="6.2" transform="rotate(29.139 347.897 255.59) scale(1.81919)"/><g><path d="m 141.0678,310.51798 12.37437,21.92031" fill="none" stroke-width="5.9" transform="translate(-40.13 6.62) scale(1.81919)"/><path d="m 128.56412,288.51236 c -3.07272,10.2242 -1.35166,21.49391 14.74669,26.8764 4.10841,-16.46964 -4.47241,-23.9755 -14.74669,-26.8764 z" fill="#5aa02c" transform="translate(-40.13 6.62) scale(1.81919)"/><path d="m 133.5,307.5625 8.75,-5 v 0 0" fill="none" transform="translate(-40.13 6.62) scale(1.81919)"/><path d="M136.84375 291.40625l1.40625 13.03125 6.34375-2.8125c-1.26253-4.61836-4.12073-7.90917-7.75-10.21875zM126.77707 297.07334l10.19365 8.23897-5.79973 3.81005c-3.19887-3.56235-4.41764-7.74724-4.39392-12.04902z" fill="#5aa02c" transform="translate(-40.13 6.62) scale(1.81919)"/><path d="m 134.5,311.0625 9.5625,-5.25" fill="none" transform="translate(-40.13 6.62) scale(1.81919)"/><path d="m 128.85623,335.19499 25.13025,-1.44753" fill="none" stroke-width="5.9" transform="translate(-40.13 6.62) scale(1.81919)"/><g><path d="m 128.56412,288.51236 c -3.07272,10.2242 -1.35166,21.49391 14.74669,26.8764 4.10841,-16.46964 -4.47241,-23.9755 -14.74669,-26.8764 z" fill="#5aa02c" transform="rotate(-62.879 265.822 640.747) scale(1.81919)"/><path d="m 133.5,307.5625 8.75,-5 v 0 0" fill="none" transform="rotate(-62.879 265.822 640.747) scale(1.81919)"/><path d="M136.84375 291.40625l1.40625 13.03125 6.34375-2.8125c-1.26253-4.61836-4.12073-7.90917-7.75-10.21875zM126.77707 297.07334l10.19365 8.23897-5.79973 3.81005c-3.19887-3.56235-4.41764-7.74724-4.39392-12.04902z" fill="#5aa02c" transform="rotate(-62.879 265.822 640.747) scale(1.81919)"/><path d="m 134.5,311.0625 9.5625,-5.25" fill="none" transform="rotate(-62.879 265.822 640.747) scale(1.81919)"/></g><g><path d="M77.5 294.25c.926195 3.36381 2.698179 7.61138 6.875 10L101.5 306.875 93.625 295.5C88.158548 294.82769 80.822222 291.85913 77.5 294.25zM93.677527 275.74415c3.461933.43368 7.919903 1.57751 10.883413 5.36814l5.05634 16.57075-12.387726-6.16038c-1.450133-5.3133-5.44118-12.14745-3.552027-15.77851z" fill="#5aa02c" transform="translate(-40.13 6.62) scale(1.81919)"/><path d="m 85.383144,283.8247 c 2.327317,7.51024 4.251222,15.30286 11.136931,19.62222 -9.179015,-5.08891 -19.860931,-1.16042 -30.405591,1.94454 l 41.197856,14.84924 c 10.34005,3.79115 20.38272,-6.25061 15.19391,-17.85444 L 106.9499,265.26315 c -4.64502,10.07627 -3.8235,20.15254 0,30.22881 C 98.896859,287.5703 92.039047,285.22638 85.383144,283.8247 Z" fill="#5aa02c" stroke-width="1.2" transform="translate(-40.13 6.62) scale(1.81919)"/><path d="M100.76272 317.76583c3.78992-8.06346 8.7661-15.53379 19.09188-20.32932v0 0M106.31578 319.82509c3.78337-7.79101 8.37106-12.67495 15.7817-18.21646l-.35355.26516-.13258.17678" fill="none" stroke-width="2" transform="translate(-40.13 6.62) scale(1.81919)"/></g><path d="m 121.3572,316.44 c 10.65317,8.73939 22.39399,13.64048 33.67596,18.208" fill="none" stroke-width="6.2" transform="translate(-40.13 6.62) scale(1.81919)"/></g><g><path d="m 141.0678,310.51798 12.37437,21.92031" fill="none" stroke-width="5.9" transform="rotate(84.843 297.492 368.555) scale(1.81919)"/><path d="m 128.56412,288.51236 c -3.07272,10.2242 -1.35166,21.49391 14.74669,26.8764 4.10841,-16.46964 -4.47241,-23.9755 -14.74669,-26.8764 z" fill="#5aa02c" transform="rotate(84.843 297.492 368.555) scale(1.81919)"/><path d="m 133.5,307.5625 8.75,-5 v 0 0" fill="none" transform="rotate(84.843 297.492 368.555) scale(1.81919)"/><path d="M136.84375 291.40625l1.40625 13.03125 6.34375-2.8125c-1.26253-4.61836-4.12073-7.90917-7.75-10.21875zM126.77707 297.07334l10.19365 8.23897-5.79973 3.81005c-3.19887-3.56235-4.41764-7.74724-4.39392-12.04902z" fill="#5aa02c" transform="rotate(84.843 297.492 368.555) scale(1.81919)"/><path d="m 134.5,311.0625 9.5625,-5.25" fill="none" transform="rotate(84.843 297.492 368.555) scale(1.81919)"/><path d="m 128.85623,335.19499 25.13025,-1.44753" fill="none" stroke-width="5.9" transform="rotate(84.843 297.492 368.555) scale(1.81919)"/><path d="m 128.56412,288.51236 c -3.07272,10.2242 -1.35166,21.49391 14.74669,26.8764 4.10841,-16.46964 -4.47241,-23.9755 -14.74669,-26.8764 z" fill="#5aa02c" transform="rotate(21.965 767.886 -77.127) scale(1.81919)"/><path d="m 133.5,307.5625 8.75,-5 v 0 0" fill="none" transform="rotate(21.965 767.886 -77.127) scale(1.81919)"/><path d="M136.84375 291.40625l1.40625 13.03125 6.34375-2.8125c-1.26253-4.61836-4.12073-7.90917-7.75-10.21875zM126.77707 297.07334l10.19365 8.23897-5.79973 3.81005c-3.19887-3.56235-4.41764-7.74724-4.39392-12.04902z" fill="#5aa02c" transform="rotate(21.965 767.886 -77.127) scale(1.81919)"/><path d="m 134.5,311.0625 9.5625,-5.25" fill="none" transform="rotate(21.965 767.886 -77.127) scale(1.81919)"/><g><path d="M77.5 294.25c.926195 3.36381 2.698179 7.61138 6.875 10L101.5 306.875 93.625 295.5C88.158548 294.82769 80.822222 291.85913 77.5 294.25zM93.677527 275.74415c3.461933.43368 7.919903 1.57751 10.883413 5.36814l5.05634 16.57075-12.387726-6.16038c-1.450133-5.3133-5.44118-12.14745-3.552027-15.77851z" fill="#5aa02c" transform="rotate(84.843 297.492 368.555) scale(1.81919)"/><path d="m 85.383144,283.8247 c 2.327317,7.51024 4.251222,15.30286 11.136931,19.62222 -9.179015,-5.08891 -19.860931,-1.16042 -30.405591,1.94454 l 41.197856,14.84924 c 10.34005,3.79115 20.38272,-6.25061 15.19391,-17.85444 L 106.9499,265.26315 c -4.64502,10.07627 -3.8235,20.15254 0,30.22881 C 98.896859,287.5703 92.039047,285.22638 85.383144,283.8247 Z" fill="#5aa02c" stroke-width="1.2" transform="rotate(84.843 297.492 368.555) scale(1.81919)"/><path d="M100.76272 317.76583c3.78992-8.06346 8.7661-15.53379 19.09188-20.32932v0 0M106.31578 319.82509c3.78337-7.79101 8.37106-12.67495 15.7817-18.21646l-.35355.26516-.13258.17678" fill="none" stroke-width="2" transform="rotate(84.843 297.492 368.555) scale(1.81919)"/></g><path d="m 121.3572,316.44 c 10.65317,8.73939 25.81241,14.70203 37.09438,19.26955" fill="none" stroke-width="6.2" transform="rotate(84.843 297.492 368.555) scale(1.81919)"/><g><path d="m 128.56412,288.51236 c -3.07272,10.2242 -1.35166,21.49391 14.74669,26.8764 4.10841,-16.46964 -4.47241,-23.9755 -14.74669,-26.8764 z" fill="#5aa02c" transform="matrix(.0939 1.55537 -1.72277 .3747 690.161 -128.433)"/><path d="m 133.5,307.5625 8.75,-5 v 0 0" fill="none" transform="matrix(.0939 1.55537 -1.72277 .3747 690.161 -128.433)"/><path d="M136.84375 291.40625l1.40625 13.03125 6.34375-2.8125c-1.26253-4.61836-4.12073-7.90917-7.75-10.21875zM126.77707 297.07334l10.19365 8.23897-5.79973 3.81005c-3.19887-3.56235-4.41764-7.74724-4.39392-12.04902z" fill="#5aa02c" transform="matrix(.0939 1.55537 -1.72277 .3747 690.161 -128.433)"/><path d="m 134.5,311.0625 9.5625,-5.25" fill="none" transform="matrix(.0939 1.55537 -1.72277 .3747 690.161 -128.433)"/></g><g><path d="m 128.56412,288.51236 c -3.07272,10.2242 -1.35166,21.49391 14.74669,26.8764 4.10841,-16.46964 -4.47241,-23.9755 -14.74669,-26.8764 z" fill="#5aa02c" transform="matrix(.53435 1.15005 -1.1932 .79688 429.555 -200.167)"/><path d="m 133.5,307.5625 8.75,-5 v 0 0" fill="none" transform="matrix(.53435 1.15005 -1.1932 .79688 429.555 -200.167)"/><path d="M136.84375 291.40625l1.40625 13.03125 6.34375-2.8125c-1.26253-4.61836-4.12073-7.90917-7.75-10.21875zM126.77707 297.07334l10.19365 8.23897-5.79973 3.81005c-3.19887-3.56235-4.41764-7.74724-4.39392-12.04902z" fill="#5aa02c" transform="matrix(.53435 1.15005 -1.1932 .79688 429.555 -200.167)"/><path d="m 134.5,311.0625 9.5625,-5.25" fill="none" transform="matrix(.53435 1.15005 -1.1932 .79688 429.555 -200.167)"/></g><g><path d="m 128.56412,288.51236 c -3.07272,10.2242 -1.35166,21.49391 14.74669,26.8764 4.10841,-16.46964 -4.47241,-23.9755 -14.74669,-26.8764 z" fill="#5aa02c" transform="matrix(-.08762 1.2651 -1.4297 .1214 627.64 23.527)"/><path d="m 133.5,307.5625 8.75,-5 v 0 0" fill="none" transform="matrix(-.08762 1.2651 -1.4297 .1214 627.64 23.527)"/><path d="M136.84375 291.40625l1.40625 13.03125 6.34375-2.8125c-1.26253-4.61836-4.12073-7.90917-7.75-10.21875zM126.77707 297.07334l10.19365 8.23897-5.79973 3.81005c-3.19887-3.56235-4.41764-7.74724-4.39392-12.04902z" fill="#5aa02c" transform="matrix(-.08762 1.2651 -1.4297 .1214 627.64 23.527)"/><path d="m 134.5,311.0625 9.5625,-5.25" fill="none" transform="matrix(-.08762 1.2651 -1.4297 .1214 627.64 23.527)"/></g></g></g><g fill="#270080"><path d="m -34.931685,98.392746 9.514418,5.202584 c -8.635673,10.14571 -13.412535,20.87797 -19.994335,31.33587 l -0.06183,-0.009 0.971771,-6.55333 c 0.0025,0.20968 -0.0026,0.42222 0.0011,0.63198 L -33.80756,97.236212 Z" transform="scale(-1.8192 1.8192) rotate(36.357 -173.414 -189.222)"/><path d="m -35.281249,86.375 -13.902386,-0.619985 c 1.44855,13.56361 1.291256,30.749805 -0.910114,43.994985 -2.409402,-11.04279 -5.612213,-22.0037 -3.598734,-33.502894 l -10.364209,5.591494 13.994193,33.9114 4.96875,-0.5 1.09375,-4.90625 c -2.53444,-14.0581 3.56255,-29.05695 8.71875,-43.96875 z" transform="scale(-1.8192 1.8192) rotate(36.357 -173.414 -189.222)"/></g><g stroke="#270080"><path d="m 141.0678,310.51798 12.37437,21.92031" fill="none" stroke-width="5.9" transform="scale(-1.8192 1.8192) rotate(29.139 24.405 -493.472)"/><path d="m 128.56412,288.51236 c -3.07272,10.2242 -1.35166,21.49391 14.74669,26.8764 4.10841,-16.46964 -4.47241,-23.9755 -14.74669,-26.8764 z" fill="#5aa02c" transform="scale(-1.8192 1.8192) rotate(29.139 24.405 -493.472)"/><path d="m 133.5,307.5625 8.75,-5 v 0 0" fill="none" transform="scale(-1.8192 1.8192) rotate(29.139 24.405 -493.472)"/><path d="M136.84375 291.40625l1.40625 13.03125 6.34375-2.8125c-1.26253-4.61836-4.12073-7.90917-7.75-10.21875zM126.77707 297.07334l10.19365 8.23897-5.79973 3.81005c-3.19887-3.56235-4.41764-7.74724-4.39392-12.04902z" fill="#5aa02c" transform="scale(-1.8192 1.8192) rotate(29.139 24.405 -493.472)"/><path d="m 134.5,311.0625 9.5625,-5.25" fill="none" transform="scale(-1.8192 1.8192) rotate(29.139 24.405 -493.472)"/><path d="m 128.85623,335.19499 25.13025,-1.44753" fill="none" stroke-width="5.9" transform="scale(-1.8192 1.8192) rotate(29.139 24.405 -493.472)"/><g><path d="m 128.56412,288.51236 c -3.07272,10.2242 -1.35166,21.49391 14.74669,26.8764 4.10841,-16.46964 -4.47241,-23.9755 -14.74669,-26.8764 z" fill="#5aa02c" transform="scale(-1.8192 1.8192) rotate(-33.739 -123.245 1001.808)"/><path d="m 133.5,307.5625 8.75,-5 v 0 0" fill="none" transform="scale(-1.8192 1.8192) rotate(-33.739 -123.245 1001.808)"/><path d="M136.84375 291.40625l1.40625 13.03125 6.34375-2.8125c-1.26253-4.61836-4.12073-7.90917-7.75-10.21875zM126.77707 297.07334l10.19365 8.23897-5.79973 3.81005c-3.19887-3.56235-4.41764-7.74724-4.39392-12.04902z" fill="#5aa02c" transform="scale(-1.8192 1.8192) rotate(-33.739 -123.245 1001.808)"/><path d="m 134.5,311.0625 9.5625,-5.25" fill="none" transform="scale(-1.8192 1.8192) rotate(-33.739 -123.245 1001.808)"/></g><g><path d="M77.5 294.25c.926195 3.36381 2.698179 7.61138 6.875 10L101.5 306.875 93.625 295.5C88.158548 294.82769 80.822222 291.85913 77.5 294.25zM93.677527 275.74415c3.461933.43368 7.919903 1.57751 10.883413 5.36814l5.05634 16.57075-12.387726-6.16038c-1.450133-5.3133-5.44118-12.14745-3.552027-15.77851z" fill="#5aa02c" transform="scale(-1.8192 1.8192) rotate(29.139 24.405 -493.472)"/><path d="m 85.383144,283.8247 c 2.327317,7.51024 4.251222,15.30286 11.136931,19.62222 -9.179015,-5.08891 -19.860931,-1.16042 -30.405591,1.94454 l 41.197856,14.84924 c 10.34005,3.79115 20.38272,-6.25061 15.19391,-17.85444 L 106.9499,265.26315 c -4.64502,10.07627 -3.8235,20.15254 0,30.22881 C 98.896859,287.5703 92.039047,285.22638 85.383144,283.8247 Z" fill="#5aa02c" stroke-width="1.2" transform="scale(-1.8192 1.8192) rotate(29.139 24.405 -493.472)"/><path d="M100.76272 317.76583c3.78992-8.06346 8.7661-15.53379 19.09188-20.32932v0 0M106.31578 319.82509c3.78337-7.79101 8.37106-12.67495 15.7817-18.21646l-.35355.26516-.13258.17678" fill="none" stroke-width="2" transform="scale(-1.8192 1.8192) rotate(29.139 24.405 -493.472)"/></g><path d="m 121.3572,316.44 c 10.65317,8.73939 26.47892,17.37389 39.31071,19.07382" fill="none" stroke-width="6.2" transform="scale(-1.8192 1.8192) rotate(29.139 24.405 -493.472)"/></g><g stroke="#270080"><path d="m 141.0678,310.51798 12.37437,21.92031" fill="none" stroke-width="5.9" transform="matrix(-1.8192 0 0 1.8192 640.13 8.439)"/><path d="m 128.56412,288.51236 c -3.07272,10.2242 -1.35166,21.49391 14.74669,26.8764 4.10841,-16.46964 -4.47241,-23.9755 -14.74669,-26.8764 z" fill="#5aa02c" transform="matrix(-1.8192 0 0 1.8192 640.13 8.439)"/><path d="m 133.5,307.5625 8.75,-5 v 0 0" fill="none" transform="matrix(-1.8192 0 0 1.8192 640.13 8.439)"/><path d="M136.84375 291.40625l1.40625 13.03125 6.34375-2.8125c-1.26253-4.61836-4.12073-7.90917-7.75-10.21875zM126.77707 297.07334l10.19365 8.23897-5.79973 3.81005c-3.19887-3.56235-4.41764-7.74724-4.39392-12.04902z" fill="#5aa02c" transform="matrix(-1.8192 0 0 1.8192 640.13 8.439)"/><path d="m 134.5,311.0625 9.5625,-5.25" fill="none" transform="matrix(-1.8192 0 0 1.8192 640.13 8.439)"/><path d="m 128.85623,335.19499 25.13025,-1.44753" fill="none" stroke-width="5.9" transform="matrix(-1.8192 0 0 1.8192 640.13 8.439)"/><g><path d="m 128.56412,288.51236 c -3.07272,10.2242 -1.35166,21.49391 14.74669,26.8764 4.10841,-16.46964 -4.47241,-23.9755 -14.74669,-26.8764 z" fill="#5aa02c" transform="scale(-1.8192 1.8192) rotate(-62.879 -17.97 622.462)"/><path d="m 133.5,307.5625 8.75,-5 v 0 0" fill="none" transform="scale(-1.8192 1.8192) rotate(-62.879 -17.97 622.462)"/><path d="M136.84375 291.40625l1.40625 13.03125 6.34375-2.8125c-1.26253-4.61836-4.12073-7.90917-7.75-10.21875zM126.77707 297.07334l10.19365 8.23897-5.79973 3.81005c-3.19887-3.56235-4.41764-7.74724-4.39392-12.04902z" fill="#5aa02c" transform="scale(-1.8192 1.8192) rotate(-62.879 -17.97 622.462)"/><path d="m 134.5,311.0625 9.5625,-5.25" fill="none" transform="scale(-1.8192 1.8192) rotate(-62.879 -17.97 622.462)"/></g><g><path d="M77.5 294.25c.926195 3.36381 2.698179 7.61138 6.875 10L101.5 306.875 93.625 295.5C88.158548 294.82769 80.822222 291.85913 77.5 294.25zM93.677527 275.74415c3.461933.43368 7.919903 1.57751 10.883413 5.36814l5.05634 16.57075-12.387726-6.16038c-1.450133-5.3133-5.44118-12.14745-3.552027-15.77851z" fill="#5aa02c" transform="matrix(-1.8192 0 0 1.8192 640.13 8.439)"/><path d="m 85.383144,283.8247 c 2.327317,7.51024 4.251222,15.30286 11.136931,19.62222 -9.179015,-5.08891 -19.860931,-1.16042 -30.405591,1.94454 l 41.197856,14.84924 c 10.34005,3.79115 20.38272,-6.25061 15.19391,-17.85444 L 106.9499,265.26315 c -4.64502,10.07627 -3.8235,20.15254 0,30.22881 C 98.896859,287.5703 92.039047,285.22638 85.383144,283.8247 Z" fill="#5aa02c" stroke-width="1.2" transform="matrix(-1.8192 0 0 1.8192 640.13 8.439)"/><path d="M100.76272 317.76583c3.78992-8.06346 8.7661-15.53379 19.09188-20.32932v0 0M106.31578 319.82509c3.78337-7.79101 8.37106-12.67495 15.7817-18.21646l-.35355.26516-.13258.17678" fill="none" stroke-width="2" transform="matrix(-1.8192 0 0 1.8192 640.13 8.439)"/></g><path d="m 121.3572,316.44 c 10.65317,8.73939 22.39399,13.64048 33.67596,18.208" fill="none" stroke-width="6.2" transform="matrix(-1.8192 0 0 1.8192 640.13 8.439)"/></g><g stroke="#270080"><path d="m 141.0678,310.51798 12.37437,21.92031" fill="none" stroke-width="5.9" transform="scale(-1.8192 1.8192) rotate(84.843 -1.926 22.632)"/><path d="m 128.56412,288.51236 c -3.07272,10.2242 -1.35166,21.49391 14.74669,26.8764 4.10841,-16.46964 -4.47241,-23.9755 -14.74669,-26.8764 z" fill="#5aa02c" transform="scale(-1.8192 1.8192) rotate(84.843 -1.926 22.632)"/><path d="m 133.5,307.5625 8.75,-5 v 0 0" fill="none" transform="scale(-1.8192 1.8192) rotate(84.843 -1.926 22.632)"/><path d="M136.84375 291.40625l1.40625 13.03125 6.34375-2.8125c-1.26253-4.61836-4.12073-7.90917-7.75-10.21875zM126.77707 297.07334l10.19365 8.23897-5.79973 3.81005c-3.19887-3.56235-4.41764-7.74724-4.39392-12.04902z" fill="#5aa02c" transform="scale(-1.8192 1.8192) rotate(84.843 -1.926 22.632)"/><path d="m 134.5,311.0625 9.5625,-5.25" fill="none" transform="scale(-1.8192 1.8192) rotate(84.843 -1.926 22.632)"/><path d="m 128.85623,335.19499 25.13025,-1.44753" fill="none" stroke-width="5.9" transform="scale(-1.8192 1.8192) rotate(84.843 -1.926 22.632)"/><path d="m 128.56412,288.51236 c -3.07272,10.2242 -1.35166,21.49391 14.74669,26.8764 4.10841,-16.46964 -4.47241,-23.9755 -14.74669,-26.8764 z" fill="#5aa02c" transform="scale(-1.8192 1.8192) rotate(21.965 254.618 -891.68)"/><path d="m 133.5,307.5625 8.75,-5 v 0 0" fill="none" transform="scale(-1.8192 1.8192) rotate(21.965 254.618 -891.68)"/><path d="M136.84375 291.40625l1.40625 13.03125 6.34375-2.8125c-1.26253-4.61836-4.12073-7.90917-7.75-10.21875zM126.77707 297.07334l10.19365 8.23897-5.79973 3.81005c-3.19887-3.56235-4.41764-7.74724-4.39392-12.04902z" fill="#5aa02c" transform="scale(-1.8192 1.8192) rotate(21.965 254.618 -891.68)"/><path d="m 134.5,311.0625 9.5625,-5.25" fill="none" transform="scale(-1.8192 1.8192) rotate(21.965 254.618 -891.68)"/><g><path d="M77.5 294.25c.926195 3.36381 2.698179 7.61138 6.875 10L101.5 306.875 93.625 295.5C88.158548 294.82769 80.822222 291.85913 77.5 294.25zM93.677527 275.74415c3.461933.43368 7.919903 1.57751 10.883413 5.36814l5.05634 16.57075-12.387726-6.16038c-1.450133-5.3133-5.44118-12.14745-3.552027-15.77851z" fill="#5aa02c" transform="scale(-1.8192 1.8192) rotate(84.843 -1.926 22.632)"/><path d="m 85.383144,283.8247 c 2.327317,7.51024 4.251222,15.30286 11.136931,19.62222 -9.179015,-5.08891 -19.860931,-1.16042 -30.405591,1.94454 l 41.197856,14.84924 c 10.34005,3.79115 20.38272,-6.25061 15.19391,-17.85444 L 106.9499,265.26315 c -4.64502,10.07627 -3.8235,20.15254 0,30.22881 C 98.896859,287.5703 92.039047,285.22638 85.383144,283.8247 Z" fill="#5aa02c" stroke-width="1.2" transform="scale(-1.8192 1.8192) rotate(84.843 -1.926 22.632)"/><path d="M100.76272 317.76583c3.78992-8.06346 8.7661-15.53379 19.09188-20.32932v0 0M106.31578 319.82509c3.78337-7.79101 8.37106-12.67495 15.7817-18.21646l-.35355.26516-.13258.17678" fill="none" stroke-width="2" transform="scale(-1.8192 1.8192) rotate(84.843 -1.926 22.632)"/></g><path d="m 121.3572,316.44 c 10.65317,8.73939 22.39399,13.64048 33.67596,18.208" fill="none" stroke-width="6.2" transform="scale(-1.8192 1.8192) rotate(84.843 -1.926 22.632)"/><g><path d="m 128.56412,288.51236 c -3.07272,10.2242 -1.35166,21.49391 14.74669,26.8764 4.10841,-16.46964 -4.47241,-23.9755 -14.74669,-26.8764 z" fill="#5aa02c" transform="matrix(-.0939 1.55537 1.72277 .3747 -90.161 -126.614)"/><path d="m 133.5,307.5625 8.75,-5 v 0 0" fill="none" transform="matrix(-.0939 1.55537 1.72277 .3747 -90.161 -126.614)"/><path d="M136.84375 291.40625l1.40625 13.03125 6.34375-2.8125c-1.26253-4.61836-4.12073-7.90917-7.75-10.21875zM126.77707 297.07334l10.19365 8.23897-5.79973 3.81005c-3.19887-3.56235-4.41764-7.74724-4.39392-12.04902z" fill="#5aa02c" transform="matrix(-.0939 1.55537 1.72277 .3747 -90.161 -126.614)"/><path d="m 134.5,311.0625 9.5625,-5.25" fill="none" transform="matrix(-.0939 1.55537 1.72277 .3747 -90.161 -126.614)"/></g><g><path d="m 128.56412,288.51236 c -3.07272,10.2242 -1.35166,21.49391 14.74669,26.8764 4.10841,-16.46964 -4.47241,-23.9755 -14.74669,-26.8764 z" fill="#5aa02c" transform="matrix(-.53435 1.15005 1.1932 .79688 170.445 -198.347)"/><path d="m 133.5,307.5625 8.75,-5 v 0 0" fill="none" transform="matrix(-.53435 1.15005 1.1932 .79688 170.445 -198.347)"/><path d="M136.84375 291.40625l1.40625 13.03125 6.34375-2.8125c-1.26253-4.61836-4.12073-7.90917-7.75-10.21875zM126.77707 297.07334l10.19365 8.23897-5.79973 3.81005c-3.19887-3.56235-4.41764-7.74724-4.39392-12.04902z" fill="#5aa02c" transform="matrix(-.53435 1.15005 1.1932 .79688 170.445 -198.347)"/><path d="m 134.5,311.0625 9.5625,-5.25" fill="none" transform="matrix(-.53435 1.15005 1.1932 .79688 170.445 -198.347)"/></g><g><path d="m 128.56412,288.51236 c -3.07272,10.2242 -1.35166,21.49391 14.74669,26.8764 4.10841,-16.46964 -4.47241,-23.9755 -14.74669,-26.8764 z" fill="#5aa02c" transform="matrix(.08762 1.2651 1.4297 .1214 -27.64 25.346)"/><path d="m 133.5,307.5625 8.75,-5 v 0 0" fill="none" transform="matrix(.08762 1.2651 1.4297 .1214 -27.64 25.346)"/><path d="M136.84375 291.40625l1.40625 13.03125 6.34375-2.8125c-1.26253-4.61836-4.12073-7.90917-7.75-10.21875zM126.77707 297.07334l10.19365 8.23897-5.79973 3.81005c-3.19887-3.56235-4.41764-7.74724-4.39392-12.04902z" fill="#5aa02c" transform="matrix(.08762 1.2651 1.4297 .1214 -27.64 25.346)"/><path d="m 134.5,311.0625 9.5625,-5.25" fill="none" transform="matrix(.08762 1.2651 1.4297 .1214 -27.64 25.346)"/></g></g><path d="m -198.04129,218.76961 c -3.74194,0 -6.74675,2.52581 -6.74675,5.625 0,0.53606 0.10126,1.03994 0.26986,1.53125 -0.53252,1.26631 -0.84334,2.70926 -0.84334,4.25 0,2.92741 1.07654,5.52532 2.76617,7.15625 0.51269,1.40056 3.08243,2.46875 6.20701,2.46875 1.78142,0 3.40394,-0.34926 4.55407,-0.90625 0.13891,0.0568 0.28967,0.10524 0.43853,0.15625 0.77541,0.38568 1.6159,0.59375 2.49631,0.59375 0.20238,0 0.40893,-0.0406 0.60721,-0.0625 0.19913,0.009 0.40282,0.0312 0.60721,0.0312 1.87975,0 3.56357,-0.38813 4.72272,-1 0.91865,0.48408 2.16557,0.81521 3.57578,0.9375 0.0348,0.006 0.0663,0.0263 0.10116,0.0312 0.25007,0.0355 0.51809,0.0625 0.77587,0.0625 0.0946,0 0.1763,-0.0264 0.26988,-0.0312 0.15138,-0.008 0.28987,-0.011 0.43854,-0.0312 1.67466,-0.0559 3.15318,-0.38726 4.21672,-0.9375 0.91533,0.44829 2.14657,0.73342 3.50831,0.84375 0.55103,0.18222 1.12301,0.3125 1.72042,0.3125 0.93696,0 1.81178,-0.25508 2.63124,-0.6875 0.58556,-0.16685 1.11259,-0.35075 1.55176,-0.59375 1.15399,0.63812 2.87183,1.02641 4.79019,1.03125 0.0115,3e-5 0.0222,0 0.0337,0 0.50809,0.15351 1.03931,0.25 1.58549,0.25 1.33083,0 2.58599,-0.47918 3.64324,-1.3125 1.16145,0.64198 2.85817,1.0625 4.7902,1.0625 0.30361,0 0.58491,-0.0117 0.87707,-0.0312 0.54344,0.17568 1.10176,0.28125 1.6867,0.28125 0.95764,0 1.87178,-0.27128 2.69869,-0.71875 0.008,-0.004 0.0255,0.005 0.0337,0 0.98062,0.29361 2.12663,0.46875 3.37338,0.46875 0.54615,0 1.08283,-0.0316 1.58549,-0.0937 0.59287,0.21161 1.20831,0.34375 1.85535,0.34375 0.69289,0 1.36261,-0.12917 1.9903,-0.375 0.62406,0.0965 1.26596,0.125 1.95656,0.125 0.72354,0 1.41134,-0.0509 2.05776,-0.15625 0.66484,0.27066 1.35921,0.40625 2.09149,0.40625 3.83881,0 6.94916,-3.97588 6.94916,-8.90625 0,-2.12956 -0.58673,-4.08842 -1.55176,-5.625 0.0141,-0.14773 0.0337,-0.28671 0.0337,-0.4375 0,-3.09919 -3.03855,-5.625 -6.78049,-5.625 -1.47859,0 -2.83295,0.39675 -3.94686,1.0625 -1.11186,-0.66166 -2.47323,-1.0625 -3.94685,-1.0625 -1.79772,0 -3.4424,0.58501 -4.65526,1.53125 -1.21324,-0.94799 -2.85567,-1.53125 -4.65526,-1.53125 -2.17852,0 -4.12423,0.86435 -5.36367,2.1875 -1.23924,-1.32612 -3.18228,-2.1875 -5.36367,-2.1875 -2.06873,0 -3.88476,0.78959 -5.12754,2 -1.24279,-1.21118 -3.12551,-2 -5.195,-2 -1.92085,0 -3.65843,0.68642 -4.8914,1.75 -1.23941,-1.12941 -3.00471,-1.875 -4.99261,-1.875 -2.01027,0 -3.81924,0.75461 -5.06006,1.90625 -1.24092,-1.15373 -3.04771,-1.90625 -5.06007,-1.90625 -1.7005,0 -3.26319,0.51801 -4.45286,1.375 -1.23125,-1.05025 -2.95059,-1.6875 -4.85766,-1.6875 z" fill="#270080" transform="translate(597.21 195.815) scale(1.81919)"/><g fill="green" transform="translate(597.21 195.815) scale(1.81919)"><ellipse transform="translate(-23.264 28.19) scale(.87234)" cx="-165.993" cy="230.615" rx="5.48" ry="8.309"/><path d="M-195.72881 223.14461c-2.66561 0-4.815 2.54224-4.815 5.66615 0 3.12392 2.14939 5.63838 4.815 5.63838.20591 0 .41174-.0262.61086-.0556v-11.19343c-.19912-.0293-.40495-.0556-.61086-.0556zM-186.03642 223.38205c-2.66561 0-4.815 2.54224-4.815 5.66615 0 3.12392 2.14939 5.63838 4.815 5.63838.20591 0 .41174-.0262.61086-.0556v-11.19343c-.19912-.0293-.40495-.0556-.61086-.0556zM-177.12436 223.38205c-2.66561 0-4.815 2.54224-4.815 5.66615 0 3.12392 2.14939 5.63838 4.815 5.63838.20591 0 .41174-.0262.61086-.0556v-11.19343c-.19912-.0293-.40495-.0556-.61086-.0556zM-158.8224 223.55883c2.66561 0 4.815 2.54224 4.815 5.66615 0 3.12392-2.14939 5.63838-4.815 5.63838-.20591 0-.41174-.0262-.61086-.0556v-11.19343c.19912-.0293.40495-.0556.61086-.0556zM-149.27278 223.57139c2.66561 0 4.815 2.54224 4.815 5.66615 0 3.12392-2.14939 5.63838-4.815 5.63838-.20591 0-.41174-.0262-.61086-.0556v-11.19343c.19912-.0293.40495-.0556.61086-.0556zM-140.09816 223.38573c2.66561 0 4.815 2.54224 4.815 5.66615 0 3.12392-2.14939 5.63838-4.815 5.63838-.20591 0-.41174-.0262-.61086-.0556v-11.19343c.19912-.0293.40495-.0556.61086-.0556zM-131.39321 223.32507c2.66561 0 4.815 2.54224 4.815 5.66615 0 3.12392-2.14939 5.63838-4.815 5.63838-.20591 0-.41174-.0262-.61086-.0556v-11.19343c.19912-.0293.40495-.0556.61086-.0556z"/></g><path d="m -168.29141,98.38595 c -24.82365,-29.037317 -73.18556,10.01735 -153.79573,-10.960155 16.40697,5.929265 17.93343,16.198675 54.44722,16.263455 4.09049,3.5644 6.59833,7.50119 26.16296,7.42462 2.05933,3.00023 13.11156,3.30259 24.39518,3.53554 2.8016,1.94081 3.14549,4.61892 14.84924,3.88908 -3.08891,0.5451 0.0154,3.91455 14.4073,2.60746 3.93488,-0.35737 6.17049,6.93849 4.33103,6.93849 l -14.84924,7.57474 c -0.32997,3.44389 1.94657,8.46894 7.24785,8.60033 1.68531,2.2804 1.43896,2.52141 7.60139,2.56325 2.47487,1.68895 4.94975,2.67866 7.42462,1.06066 2.02371,2.55657 4.40284,3.09915 7.42462,0 1.79455,2.73917 4.66637,1.88741 7.42462,1.41422 2.69639,1.73229 4.64692,1.59995 6.01041,0 3.05426,1.57775 5.36452,0.67547 7.42462,-1.06066 8.53938,2.4803 9.5175,0.27982 11.31371,-1.41422 6.99015,-0.31485 5.71506,-2.69602 4.94975,-4.94974 l -9.19239,-13.43504 c 3.60544,-3.03437 4.86286,-4.69176 13.08148,-4.41941 4.94346,-0.23947 8.18359,-2.45554 8.48528,-5.48008 l 37.123104,1.06066 c 21.812916,-0.14312 29.701105,-3.56265 35.708892,-7.42462 10.259941,-1.34075 18.675655,-4.90411 19.79899,-9.89949 C -12.619043,95.675374 -9.5506827,91.550585 -5.3033008,84.950922 -55.071786,111.48365 -127.63724,66.91314 -147.4961,93.725417 c -13.10389,-2.907548 -18.32954,1.06152 -20.79531,4.660533 z" fill="#270080" stroke="#270080" stroke-width="1.1" transform="translate(587.205 209.46) scale(1.81919)"/><path d="M-171.54874 132.80035l-3.05035 12.76409c-.56063 3.0615 5.85104 3.04976 5.70415-.0421l-1.28246-12.67456c-.26502-1.17019-1.10054-.95226-1.37134-.0474zM-164.54874 132.80035l-3.05035 12.76409c-.56063 3.0615 5.85104 3.04976 5.70415-.0421l-1.28246-12.67456c-.26502-1.17019-1.10054-.95226-1.37134-.0474zM-154.91705 134.92753l.62322 11.33802c.27764 2.68045 5.07964 1.20816 4.2649-1.33621l-3.84969-10.27507c-.46528-.91522-1.04173-.54292-1.03833.27372z" fill="#dcdadd" transform="translate(587.205 209.46) scale(1.81919)"/><path d="m -112.5625,111.25 c 7.66234,3.91728 7.58262,8.94058 7.25,14 -3.77856,-7.12148 -9.22418,-6.74119 -14.625,-6.5625 -0.24742,-3.52355 2.87022,-5.16268 6.75,-6.375 z" fill="#1c005c" transform="translate(587.205 209.46) scale(1.81919)"/><path d="M-230.34003 92.552319c3.82944-1.283453 6.20295 3.833963 1.37001 5.214913-27.23774 8.238498-57.9197 2.687598-78.8424-4.949748 24.10056 2.842093 51.60407 6.385832 77.47239-.265165zM-224.375 99.875001c-15.49202 4.158689-26.89251 4.225839-39.25 5.249999 10.28262 1.32784 26.46457 6.30839 42.375-1.25 2.95997-1.31665 1.6018-5.298905-3.125-3.999999zM-212.00063 105.1783c-15.49202 4.15869-15.13686 4.22584-27.49435 5.25 10.54779.82236 14.00181 4.15874 31.50323-.98483 2.95997-.43277.71792-5.56407-4.00888-4.26517zM-202.0517 110.40317c-3.9752 3.10762-8.00943 3.81153-12.0208 5.44682 5.48328-.53791 14.99897.51886 17.42268-2.21937.49173-1.93507-1.51029-4.29052-5.40188-3.22745zM-189.67733 114.11548c-3.9752 3.10762-8.00943 3.81153-12.0208 5.44682 6.102-.40533 15.30833.9608 17.42268-2.21937.49173-1.93507-1.51029-4.29052-5.40188-3.22745zM-212.59375 92.28125c-3.21276-.02066-6.31581.135095-9.25.4375 2.64859 2.655709 7.33761 5.897301 12.65625 8.96875l4.5625-2.9375c5.31328-3.293017 9.83471 1.49175 5.9375 3l-6.78125 2c9.87555 5.28177 20.6981 9.52043 24.4375 8.4375 3.24375-.76603 9.13579-3.05367 8.3125-4.96875-10.2539-11.253549-25.95302-14.847966-39.875-14.9375zm23.375 7.71875c2.00022-.09611 4.19495 2.95246.6875 3.96875l-7.0625 1.84375c-3.60586 1.24118-4.16997-1.27319-2.75-2.21875l8.3125-3.34375c.26127-.1568.52675-.23627.8125-.25zm9.09375 4.625c1.88394-.12107 3.30088 3.79485-.0937 4l-6.34375.1875c-3.30876.38634-3.11036-2.15708-1.6875-2.75l7.75-1.375c.12864-.0463.2494-.0544.375-.0625z" fill="#dcdadd" transform="translate(587.205 209.46) scale(1.81919)"/><path d="m -199.40625,89.5 c -0.72322,0.02183 -1.44294,0.05282 -2.125,0.125 14.16988,4.07886 25.73714,9.641771 30.9375,15.75 -1.39632,4.86136 0.3369,8.57614 2.21875,13.4375 -0.30141,0.33846 -0.55853,0.67105 -0.8125,1 l -10.875,1.8125 c 1.95328,-2.09197 6.87458,-5.19153 4.625,-5.8125 l -8.6875,5.5625 c 1.36549,1.27785 1.86884,2.54918 2.80936,4.3125 0.91022,2.56014 0.16428,4.41747 -0.30936,5.59375 l -7.1875,10.5 c -1.33432,3.86763 3.8825,4.1147 4.4375,2.75 l 5.46875,-14.15625 v -1.3125 c -0.70315,-1.029 -1.43568,-2.00731 -0.53125,-5.5625 l 7.6875,-2.125 c 1.35311,0.94281 0.34391,1.86969 -0.59375,2.8125 -2.40592,0.66788 -4.55703,1.4052 -3.71875,3 l 5.96875,-1.53125 c 0.16466,0.1935 0.34117,0.37948 0.5625,0.5625 1.62045,1.16513 3.25455,0.93985 4.875,-0.25 1.44368,-1.44014 2.86882,-1.60607 4.3125,0.25 0.94281,0.72261 1.90094,0.43461 2.84375,-0.25 2.30653,-1.44959 2.75076,-0.32436 2.71875,1.5 0.82183,1.02659 0.76248,3.54123 2.84375,2.46875 L -143,127.46875 c 3.00521,-3.09547 5.99479,-3.98732 9,-5.5625 2.48468,-0.40261 6.14496,0.92893 9.46875,-1.78125 l 1.9375,-2.8125 7.15625,-6.8125 c -0.37229,-2.38503 -2.85457,-5.38981 -10.78125,-3.09375 -6.01001,2.85143 -10.45869,2.13476 -13,0.625 L -147.59375,99 c -3.08002,-3.05932 -13.70498,-4.656007 -20.78125,3 -5.17535,-7.611675 -20.18291,-12.82743 -31.03125,-12.5 z m 76.0625,19.3125 c 1.09835,0 2,1.0433 2,2.3125 0,1.2692 -0.90165,2.28125 -2,2.28125 -1.09835,0 -2,-1.01205 -2,-2.28125 0,-1.2692 0.90165,-2.3125 2,-2.3125 z" fill="#dcdadd" transform="translate(587.205 209.46) scale(1.81919)"/><path d="M-195.86858 136.21616c-1.00961 1.37575-.2435 6.59535 4.5962 5.56847l7.51301-10.69499zM-176.15798 132.76902l-5.83363 11.75565c-1.23255 2.85795 5.01862 4.28359 5.56847 1.23743l1.59099-12.63953c.004-1.19982-.85911-1.17471-1.32583-.35355zM-159.17715 134.30923l-1.23763 11.28749c-.16404 2.68979 4.81398 2.02187 4.42591-.62143l-2.11915-10.76598c-.3095-.97894-.93903-.70583-1.0691.10039zM-149.83503 133.20753l3.87279 12.62473c1.07858 2.96624 6.6841.63671 4.97075-2.10104l-7.61905-10.97685c-.83174-.96045-1.45128-.46152-1.22425.45366zM-144.35802 132.81022l6.18587 11.66694c1.61902 2.70937 6.68415-.63623 4.48489-3.00142l-9.5538-9.34163c-.99806-.78622-1.5123-.17933-1.11663.67656zM-145.5 96.125001c-.30826.875 3.11703 2.9375 3.625 2.625 9.82563-13.778698 40.80462-2.788912 60.75-4.375-8.03996-1.875622-54.8529-14.984126-64.375 1.75zM-140.84683 99.800163l3.27037 3.911187c.31608.14123.49248.56183 1.19324-.0663l4.64039-3.22618c.58105-.41294 1.15636-1.041715-.7513-1.060659l-7.42462-.04419c-.85071-.12152-1.3109-.03848-.92808.486135z" fill="#dcdadd" transform="translate(587.205 209.46) scale(1.81919)"/><path d="M-132.37186 96.908472l4.43436 1.966529c.43232-.053 3.70271-.45956 1.125-1.75l-2.625-1.75c-.29624-.477412-5.09022.09982-2.93436 1.533471zM-125.20209 93.171037c-.30246 1.568976 2.98633 4.136786 3.97747 3.844894 8.29238-1.760257 30.954766 4.552269 37.609244.176776-13.436414-.458059-30.352664-5.14726-41.586714-4.02167zM-115.59375 98.40625c-7.90051.145393-14.21769 1.99455-18.84375 6.03125l-.21875.0625c.10825 1.11381.89928 1.72005 2.65625 1.65625l4-1.375c2.4674-.52757 5.16024-.70935 7.9375-.75 5.75054.82881 6.78329 3.59507 8.25 5.9375.97228 1.97163 3.39698 2.08775 5.5625.9375l5.5625-2.1875c.008-.92808 1.107503-1.85317-1.96875-2.78125-1.02475-.13893-1.07813-.57395-.9375-1.0625l.3125-.625c3.03988-.45339 6.886759-3.2359 8.09375 1.59375 2.833155 1.74453 2.566084.85888 3.21875.75.678883-.0561 1.561759-1.34918 2.59375-3.40625 1.100695-1.41493.377585-2.04216-1.34375-2.28125L-109.875 98.5625c-1.98938-.143925-3.89555-.189802-5.71875-.15625zM-77.914328 98.739504l6.098796-5.480078c20.684345 4.049518 40.71447 2.268951 59.750523-2.474873-12.614908 10.484347-32.054518 12.792757-65.849319 7.954951z" fill="#dcdadd" transform="translate(587.205 209.46) scale(1.81919)"/><path d="M-80.345008 101.83309l-8.308504 5.30331c28.948722 2.88098 52.694235 1.74747 61.253124-5.21491-16.947461 2.50572-34.364245 1.37153-52.94462-.0884zM-91.128387 108.99255l-6.452349 4.5962c22.759006 3.20241 36.160857 2.18404 48.260038-3.35876-14.142136.76258-27.665553.55976-41.807689-1.23744zM-103.50275 115.53329l13.258247.61872c-2.193234 1.63959-6.305578 2.47955-14.142137 1.76776z" fill="#dcdadd" transform="translate(587.205 209.46) scale(1.81919)"/><g stroke="#270080"><path d="m -270.46834,246.52482 c 82.00978,50.39662 148.52691,33.65847 210.894594,-1.06066 l 6.363961,31.99658 -2.651651,19.26866 -3.005203,1.94455 C -148.08274,345.074 -218.68009,332.95796 -281.60527,296.7294 l -4.94975,-32.17336 -0.17678,-21.56675 z" fill="#b6d1f5" stroke-width="4" transform="translate(611.764 168.527) scale(1.81919)"/><g transform="translate(611.764 168.527) scale(1.81919)"><path d="m -272.58966,244.04995 c -10.05269,17.38304 -5.36223,38.12484 -6.8943,57.45242 0.42853,4.10986 -7.93838,4.58001 -8.66205,-2.29809 -2.89548,-15.5334 -6.56728,-29.43652 -4.94975,-54.44723 1.26419,-4.93482 7.12836,-10.4804 20.5061,-0.7071 z" fill="#b6d1f5" stroke-width="2.625"/><ellipse transform="matrix(1.05763 .05508 -.04815 .92456 27.464 32.435)" cx="-282.489" cy="245.111" rx="9.546" ry="5.834" fill="#b6d1f5" stroke-width="2.651"/><ellipse transform="matrix(.61876 .03222 -.02817 .5409 -98.406 121.962)" cx="-282.489" cy="245.111" rx="9.546" ry="5.834"/></g><g transform="matrix(-1.8192 0 0 1.8192 .665 173.03)"><path d="m -272.58966,244.04995 c -10.05269,17.38304 -5.36223,38.12484 -6.8943,57.45242 0.42853,4.10986 -7.93838,4.58001 -8.66205,-2.29809 -2.89548,-15.5334 -6.56728,-29.43652 -4.94975,-54.44723 1.26419,-4.93482 7.12836,-10.4804 20.5061,-0.7071 z" fill="#b6d1f5" stroke-width="2.625"/><ellipse transform="matrix(1.05763 .05508 -.04815 .92456 27.464 32.435)" cx="-282.489" cy="245.111" rx="9.546" ry="5.834" fill="#b6d1f5" stroke-width="2.651"/><ellipse transform="matrix(.61876 .03222 -.02817 .5409 -98.406 121.962)" cx="-282.489" cy="245.111" rx="9.546" ry="5.834"/></g></g><text x="116.517" y="655.817" style="line-height:0%;text-align:start" transform="skewY(16.4) scale(1.0529 .94976)" font-weight="400" font-size="12.878" font-family="Calibri" fill="#270080" stroke-width="1.783"></text><path d="m 135.95505,654.86448 c -0.77378,1.58793 -1.5936,3.14559 -2.37661,4.73918 -1.00407,-1.08202 -2.04499,-2.14981 -3.05829,-3.24289 -0.56191,1.37414 -1.16066,2.73749 -1.72257,4.12003 -1.32649,-1.40282 -2.68982,-2.77469 -4.01629,-4.16916 0.73692,-1.50674 1.51992,-2.98319 2.24764,-4.49264 1.05935,1.0481 2.13711,2.06814 3.18725,3.10518 0.61717,-1.31609 1.27121,-2.60458 1.87919,-3.92337 1.28042,1.29725 2.58847,2.56915 3.85968,3.86367 z m 4.98353,42.48259 c -0.94879,-0.27924 -1.88838,-0.55579 -2.82799,-0.83233 -0.51585,-0.15175 -0.99486,-0.4351 -1.4278,-0.85533 -0.82906,-0.80459 -1.52914,-2.05654 -2.10949,-3.72508 -0.75534,-2.29736 -1.27121,-5.26056 -1.5015,-8.92621 -0.95801,1.36635 -1.75944,2.28515 -2.29371,2.80565 -0.783,0.77362 -1.43702,1.0664 -1.98051,0.90644 -0.28557,-0.084 -0.62639,-0.23448 -1.03171,-0.47935 -0.87511,-0.49184 -1.75944,-0.97803 -2.63454,-1.46986 -1.11462,-0.66276 -1.81469,-1.06125 -2.07263,-1.28776 -0.25793,-0.22649 -0.3869,-0.49038 -0.3869,-0.84181 0,-0.52712 0.51587,-2.04037 1.51072,-4.55893 0.97645,-2.49889 1.71337,-3.99725 2.15553,-4.54487 0.35926,-0.42139 1.00407,-0.90099 1.91604,-1.48603 0.53427,-0.34479 1.32647,-0.77264 2.33055,-1.27199 0.37768,-0.19842 0.76458,-0.37741 1.15147,-0.57311 -0.046,-0.27295 -0.0736,-0.57393 -0.092,-0.87216 -0.0276,-0.27589 -0.046,-0.54069 -0.046,-0.80845 0,-0.72794 0.1382,-1.62437 0.38688,-2.68911 0.23951,-1.04234 0.7001,-2.27899 1.33569,-3.76537 0.68168,6.29191 1.40018,12.58633 2.07263,18.87555 0.32242,2.95644 0.76458,5.01937 1.28965,6.19471 0.35004,0.78079 0.82905,1.23971 1.4278,1.41594 0.93961,0.27653 1.8792,0.55306 2.82799,0.83232 0,2.65241 0,5.3048 0,7.95719 z m -8.39185,-19.00339 c -0.1382,-1.21209 -0.28556,-2.4185 -0.42372,-3.63055 -0.46059,0.15728 -0.82907,0.28311 -1.07779,0.38561 -0.7922,0.32745 -1.43702,0.65644 -1.90682,1.0202 -0.33162,0.28728 -0.62639,0.56868 -0.85668,0.82722 -0.27636,0.36211 -0.43295,0.63397 -0.43295,0.83481 0,0.26774 0.25793,0.56957 0.75536,0.87496 0.49743,0.28868 0.98565,0.51599 1.4923,0.66509 0.3224,0.0951 0.64482,0.0811 0.98563,-0.0865 0.34085,-0.1341 0.8475,-0.41994 1.46467,-0.89092 z" fill="#270080" fill-rule="evenodd"/><path d="M152.92296 700.87432c-4.4953-1.32305-8.99979-2.64882-13.4951-3.97187 0-2.65239 0-5.30479 0-7.95718 3.77679 1.11157 7.56279 2.22587 11.33957 3.33744-.14748-1.35704-.46059-2.58712-.86589-3.61843-.21187-.55602-.71852-1.57533-1.5015-3.07758.56191-2.15234 1.16066-4.2938 1.72257-6.45449 1.05936 1.98521 1.82392 3.93387 2.22002 5.85777.37768 1.9352.58033 4.68069.58033 8.25347 0 2.54363 0 5.08724 0 7.63087zm-.34082 5.05386c-.783 1.76093-1.59362 3.50537-2.37662 5.2663-1.01328-1.08475-2.04499-2.14981-3.05828-3.24291-.56192 1.38252-1.16067 2.74587-1.72258 4.12005-1.32648-1.39449-2.68981-2.76631-4.01628-4.16916.73694-1.67409 1.51072-3.32895 2.24763-5.0114 1.05013 1.037 2.12791 2.05707 3.18725 3.09679.58955-1.39952 1.21594-2.79654 1.8147-4.20172 1.28964 1.38362 2.62533 2.74735 3.92418 4.14205zM172.028 707.17503c0 1.1965-.50664 2.59532-1.51072 4.26609-.99485 1.67346-2.19238 3.0279-3.52807 4.08231-1.47387 1.18945-2.78193 1.57424-3.84126 1.26244-1.27123-.37413-2.64376-1.25502-4.08078-2.65692-1.26201-1.23326-3.26095-3.45319-5.92312-6.78034.29478-.52401.59876-1.02865.90275-1.54159 1.28041 1.55662 2.33055 2.63547 3.12275 3.27863.80142.65423 1.64889 1.10447 2.57006 1.3756.98565.29008 1.98972.2175 2.97538-.26225.98565-.47968 2.3674-1.45358 4.05313-3.04922 2.35821-2.22609 3.58335-4.07443 3.58335-5.62235 0-.78652-.24871-1.88052-.69087-3.2741-.51585-1.59097-1.16067-2.9689-1.90683-4.1591.40533-2.51634.81985-5.02165 1.21595-7.54072.95801 1.66253 1.73179 3.42983 2.25686 5.37493.53429 1.94784.80142 4.03458.80142 6.29372 0 2.97871 0 5.96577 0 8.95287" fill="#270080" fill-rule="evenodd"/><path d="m 206.09282,716.52321 c -7.60887,-2.23944 -15.21771,-4.47886 -22.82656,-6.71828 -1.01329,-0.29823 -1.84234,-0.88531 -2.44111,-1.77274 -0.61717,-0.85937 -1.15144,-2.14619 -1.57518,-3.81883 -0.91197,1.45521 -1.79628,2.38308 -2.62534,2.76661 -0.74614,0.341 -1.76864,0.32454 -3.02142,-0.0442 -1.0225,-0.29314 -2.05421,-0.58788 -3.08593,-0.8831 0,-2.65239 0,-5.30478 0,-7.95717 1.03172,0.29582 2.06343,0.59058 3.08593,0.88309 1.65809,0.488 2.94773,0.31536 3.7952,-0.58151 1.00407,-1.03488 1.66733,-3.10718 1.93446,-6.28339 0.49743,0.24686 0.98565,0.48254 1.47386,0.72665 -0.046,0.68929 -0.0645,1.24444 -0.092,1.67145 -0.0645,1.26953 -0.0829,2.28495 -0.0829,3.07982 0,1.11284 0.22107,2.02297 0.64482,2.76686 0.42374,0.73553 0.99485,1.19646 1.70417,1.40523 0.70929,0.20876 1.36331,0.20042 1.96208,-0.007 0.58033,-0.2141 1.54756,-0.73267 2.80035,-1.60229 2.55164,-1.76751 5.17696,-3.44643 7.71939,-5.22502 0.90275,-0.61285 1.60283,-1.00924 2.05421,-1.26127 1.04092,-0.55546 2.06341,-0.68125 3.03985,-0.39387 1.62126,0.47718 2.90169,1.60707 3.8597,3.44532 1.1054,2.12428 1.67653,5.00334 1.67653,8.60121 0,3.73177 0,7.47189 0,11.20364 z m -3.01222,-11.82244 c 0,-0.87855 -0.52507,-1.73593 -1.53836,-2.59476 -0.82905,-0.68747 -1.78706,-1.19533 -2.83719,-1.50441 -0.94881,-0.27926 -2.01737,-0.20044 -3.19646,0.2892 -1.1699,0.50914 -2.92931,1.48903 -5.17697,3.0364 1.8884,0.55581 3.76758,1.10889 5.65598,1.66467 4.71637,1.38812 7.093,1.0919 7.093,-0.8911 z" fill="#270080" fill-rule="evenodd"/><path d="m 224.42406,721.89335 c -1.51072,-0.44464 -3.27936,-1.35845 -5.32435,-2.77194 -1.78707,-1.23717 -3.39912,-2.5065 -4.74401,-3.88129 -0.82906,1.4629 -1.86076,2.25535 -3.08592,2.43025 -0.58033,0.0968 -1.40018,-0.0357 -2.41347,-0.33383 -1.4278,-0.42021 -2.8464,-0.83773 -4.26501,-1.25526 0,-2.65239 0,-5.30478 0,-7.95718 1.41861,0.41754 2.83721,0.83504 4.26501,1.25527 1.28965,0.37959 2.33056,0.48514 3.08592,0.26396 0.95801,-0.27864 1.66731,-0.99863 2.02657,-2.24001 0.80142,-2.25755 1.8884,-3.93738 3.14119,-5.19188 1.13304,-1.11403 2.09105,-1.51821 2.89247,-1.28232 0.73692,0.21688 1.65811,1.97737 2.71745,5.30132 1.12382,3.52702 1.70415,6.61797 1.70415,9.27873 0,2.12527 0,4.25889 0,6.38414 z m -4.0255,-10.02051 c 0,-0.44347 -0.31319,-1.25522 -0.93039,-2.49952 -0.68165,-1.38036 -1.29884,-2.13936 -1.78705,-2.28305 -0.57113,-0.16817 -1.05014,0.56949 -1.42782,2.21543 0.74614,0.60448 1.31727,1.05706 1.70415,1.3801 1.16069,0.93568 1.81472,1.41267 1.96211,1.45606 0.3224,0.0949 0.479,-0.009 0.479,-0.26902 z" fill="#270080" fill-rule="evenodd"/><path d="M234.76879 724.9631c-3.95181-1.16309-7.90364-2.3262-11.85545-3.48928 0-2.6524 0-5.30479 0-7.95718 3.09512.91095 6.18105 1.81919 9.27617 2.73016-.85668-6.87059-1.75943-13.76306-2.6069-20.63092-.46058-.55392-.93039-1.0938-1.38175-1.63665 0-1.14631.12893-2.27138.38688-3.36688.3132-1.40552.89355-2.98344 1.67653-4.81133.33162.34025.66324.66375.99485 1.004 0 .10878-.0185.42965-.0829.90435 0 .65265.30398 1.34454.90275 2.13993.53427.72624 1.39096 1.53899 2.54242 2.56398-.12893 1.21714-.33162 2.36234-.56191 3.49107-.24872 1.13166-.54349 2.0908-.85669 2.93573-.25793-.20976-.52507-.42226-.783-.64044.7738 6.26884 1.58442 12.54854 2.34898 18.80628 0 2.6524 0 5.30479 0 7.95718M242.75532 718.80427c0 1.72362-.15657 3.25895-.46059 4.60028-.29477 1.344-.89353 3.1006-1.74101 5.27764-.43294-.3617-.86589-.71502-1.29885-1.07676.34084-2.38472.52507-4.38046.52507-5.93676 0-1.19648-.0737-2.94179-.22107-5.30291-.14748-2.35273-.32242-4.68844-.53429-7.00158-.21187-2.31311-.57111-5.07959-1.05934-8.35262-.16584-1.13653-.25793-1.92506-.25793-2.33506 0-.61917.22109-1.57488.67245-2.90629.44217-1.30063 1.08698-2.85959 1.86998-4.71258.42373 3.572.86589 7.15775 1.28963 10.73811.46981 4.08757.80142 7.58224.99486 10.53422.14747 2.2607.22109 4.42434.22109 6.47431M287.39175 685.35392c-.80238 1.80612-1.65055 3.59496-2.45306 5.40944-1.00077-.7987-2.02958-1.57264-3.02099-2.3796-.58618 1.53258-1.2092 3.06473-1.80469 4.60559-1.31039-1.0284-2.64904-2.0153-3.95955-3.03535.76409-1.71453 1.56475-3.41189 2.32883-5.12644 1.03842.74896 2.10498 1.4648 3.15272 2.20551.63155-1.49022 1.30891-2.96315 1.94968-4.45324 1.25657.93571 2.55049 1.83838 3.80706 2.77409zm4.33534 41.07229c-.9395-.0107-1.879-.0228-2.8185-.0342-.52502-.007-.99252-.15426-1.42081-.45237-.82933-.5707-1.51282-1.62497-2.06025-3.12947-.73174-2.08411-1.20314-4.90146-1.3766-8.5018-.98394 1.63656-1.80354 2.78141-2.33923 3.45274-.79879.99448-1.46962 1.47168-2.01306 1.46509-.27633-.004-.62553-.0576-1.02884-.18817-.87133-.24487-1.74278-.48136-2.62332-.72633-1.10924-.34817-1.79699-.54895-2.05252-.70269-.25552-.15371-.38091-.38117-.37536-.73256.009-.52707.55041-2.18573 1.58959-4.98476 1.01112-2.7743 1.7751-4.48046 2.23712-5.15267.36754-.52273 1.01365-1.18434 1.94822-2.02655.54215-.49552 1.34471-1.14686 2.36125-1.92951.38253-.30497.77399-.59311 1.15653-.89807-.0419-.25993-.0558-.55298-.0786-.84613-.0143-.26795-.0283-.52753-.0242-.79525.0107-.72786.15515-1.66335.43111-2.79805.24786-1.10993.73927-2.47631 1.40124-4.14189.58542 6.09895 1.1986 12.1899 1.78399 18.28889.26797 2.86508.68879 4.80316 1.19769 5.83022.3301.6818.80404 1.00554 1.41194 1.01292.9395.0107 1.87902.0228 2.81852.0342-.0419 2.65214-.0838 5.30426-.12572 7.95641zm-8.12075-16.63349c-.11966-1.17299-.25788-2.33779-.37754-3.51076-.45597.28736-.82808.51715-1.08876.68972-.80098.55094-1.4447 1.06196-1.92239 1.55824-.34688.38075-.63824.7454-.88288 1.06877-.28331.44008-.44493.75611-.44809.95689-.004.26774.25931.49688.74498.66174.49513.14819.99119.23794 1.48859.24395.32237.004.65568-.10075 1.00071-.36443.34449-.23011.85795-.65902 1.48538-1.30412z" fill="#270080" fill-rule="evenodd"/><path d="M303.71955 726.57151c-4.50409-.0546-8.99894-.10896-13.49382-.16353.0419-2.65214.0838-5.30428.12572-7.95642 3.77643.0458 7.55286.0915 11.3385.13731-.13588-1.3154-.42181-2.45691-.81269-3.37376-.20406-.49618-.70612-1.37254-1.46897-2.6537.59848-2.31068 1.23377-4.62091 1.83237-6.93996 1.04202 1.68623 1.77009 3.41885 2.14683 5.23091.34884 1.82842.50905 4.51648.45265 8.08892-.0401 2.54338-.0804 5.08676-.12055 7.63014zm-.43139 5.14942c-.80515 1.98183-1.65624 3.95474-2.46139 5.93654-1.00077-.79869-2.02956-1.57265-3.03019-2.37972-.58631 1.54096-1.20011 3.07324-1.79549 4.60572-1.31051-1.02004-2.64917-2.00694-3.95955-3.03534.75753-1.88198 1.57017-3.75492 2.32783-5.64526 1.04775.74068 2.11429 1.45651 3.16205 2.19723.61434-1.56572 1.26563-3.13939 1.88009-4.71349 1.28287 1.01968 2.6031 2.00637 3.87665 3.03432zM323.66516 724.79649c-.0531 3.36326-1.19193 6.63808-3.298 9.90954-2.11514 3.263-4.24096 4.86898-6.28576 4.84421-1.18819-.0143-2.50636-.54917-3.8808-1.60347-1.39301-1.04614-3.59018-3.08943-6.43388-6.19494.30373-.56531.62575-1.12207.92935-1.67907 1.51588 1.43257 2.79099 2.36014 3.77821 2.84906.80435.40304 1.7316.60675 2.76321.61923 1.40003.0178 2.79894-.47653 4.16983-1.53102 1.62278-1.25228 3.34848-3.18946 5.0966-5.96318-.60977.10985-1.09887.16246-1.51334.15746-1.42767-.0178-2.55056-.66687-3.35038-1.94013-.80888-1.28171-1.22431-2.97709-1.19009-5.14397.0462-2.91986.59697-5.71645 1.6164-8.43206 1.106-2.94886 2.37247-4.38953 3.75408-4.37279 1.14214.0143 2.12959 1.07179 2.88789 3.22317.73988 2.15118 1.12343 4.69968 1.07585 7.71156-.0396 2.50991-.0793 5.02818-.11912 7.54647zm-2.48521-5.97137c-.35586-3.13393-1.15986-4.72522-2.3849-4.74006-.45132-.005-.80505.22455-1.07034.68995-.28426.49862-.42153 1.02414-.43025 1.57633-.0107.70279.26531 1.28351.82938 1.73384.55433.4837 1.30605.71873 2.22713.7299.28554.004.55266.007.82898.009z" fill="#270080" fill-rule="evenodd"/><path d="m 346.75243,727.0929 c -8.20683,-0.0995 -16.41367,-0.19887 -24.62048,-0.29831 0.0419,-2.65214 0.0838,-5.30428 0.12572,-7.9564 5.10277,0.0619 10.21478,0.12376 15.32678,0.18569 -1.68385,-2.46385 -3.28694,-4.20709 -4.74336,-5.32092 -1.29248,-0.99473 -2.57473,-1.47049 -3.81817,-1.48556 -0.36844,-0.005 -0.70978,0.0248 -1.01411,0.0462 -0.32333,0.0546 -0.78572,0.1662 -1.35954,0.33497 0.81255,-2.45033 1.75294,-4.24643 2.72938,-5.40609 0.97654,-1.16807 2.10016,-1.73185 3.3252,-1.71701 0.95794,0.0107 1.86492,0.33222 2.73002,0.9703 0.86524,0.62972 1.84403,1.65409 2.89989,3.04761 0.83942,1.09799 2.07436,2.82002 3.59426,5.16473 1.0332,1.66101 1.855,2.7086 2.41816,3.21749 0.55392,0.50881 1.39499,0.92064 2.53197,1.26078 -0.0419,2.65214 -0.0838,5.30426 -0.12572,7.95641 z m -8.07776,6.31198 c -0.92834,2.1979 -1.90245,4.37851 -2.82171,6.58487 -1.62011,-1.24972 -3.28705,-2.44979 -4.90728,-3.69115 0.9099,-2.19812 1.85639,-4.37907 2.75711,-6.57728 1.64785,1.24168 3.32401,2.44188 4.97188,3.68356 z" fill="#270080" fill-rule="evenodd"/><path d="M357.09616 727.21823c-3.95144-.048-7.90287-.0958-11.85429-.14373.0419-2.65213.0838-5.30427.12572-7.95641 3.09482.0374 6.18044.0749 9.27526.11235-.75207-6.62819-1.55007-13.26528-2.30217-19.89346-.44473-.42376-.90813-.83105-1.35301-1.24648.0182-1.14618.16531-2.30754.44185-3.47571.3368-1.49378.9447-3.23531 1.76012-5.28395.32777.24662.65579.47654.98353.72318-.002.10878-.0346.43473-.0975.92767-.0107.65257.28415 1.25863.86385 1.88486.53445.5755 1.38222 1.14645 2.52273 1.84643-.14872 1.25341-.37042 2.45569-.61961 3.64929-.26771 1.20175-.57898 2.24399-.90694 3.17721-.2558-.13695-.52079-.27407-.77646-.41944.6691 6.04978 1.39347 12.10024 2.0627 18.14164-.0419 2.65214-.0838 5.30428-.12572 7.95642M365.21629 718.80637c-.0273 1.72349-.21801 3.3027-.53532 4.72979-.31732 1.42708-.95578 3.35234-1.84148 5.76831-.42-.23939-.84934-.47052-1.27854-.71003.38003-2.48066.58741-4.52831.61198-6.08445.0189-1.19638-.0184-2.92065-.12911-5.23991-.11092-2.31091-.24985-4.59705-.42613-6.85017-.17636-2.25311-.50272-4.91808-.93228-8.0529-.14872-1.08963-.2287-1.85209-.22223-2.26205.009-.61912.24697-1.63712.71221-3.09587.46472-1.4253 1.14629-3.16596 1.9621-5.2397.36926 3.45209.75682 6.91277 1.12596 10.3732.40737 3.95461.68531 7.35537.83302 10.25248.11253 2.21886.15229 4.36155.11984 6.4113M414.74846 689.05136c-.77378 2.30137-1.59363 4.59557-2.36741 6.89695-1.01327-.39156-2.05421-.74723-3.06748-1.14715-.56191 1.76696-1.16068 3.53153-1.72259 5.29849-1.32649-.4954-2.68059-.93817-4.00708-1.42518.72772-2.18301 1.51071-4.37081 2.24764-6.54905 1.05014.31862 2.1279.60138 3.18725.92474.58955-1.81955 1.21595-3.63672 1.80548-5.44791 1.29885.49779 2.63456.95611 3.92419 1.44911zm7.61807 24.8012c-6.03367 2.35185-12.05811 4.70009-18.09177 7.05193-1.75021.68221-2.89245 1.10229-3.45436 1.22932-.58035.1341-1.18831.1787-1.85156.11092-1.1791-.10932-2.17394-.81769-2.9109-2.20387-.74614-1.38261-1.14224-3.09407-1.14224-5.16912 0-.7949.0184-1.53.092-2.20297.0553-.64072.16584-1.43686.34084-2.35851.23029-1.34484.52506-2.5391.81062-3.50387.30399-.9636.85669-2.34205 1.60284-4.10551.39611.23887.81063.46217 1.20673.70104-.61719 1.79686-1.04092 3.15017-1.25281 4.14476-.23029 1.00179-.34082 1.91508-.34082 2.79363 0 1.11281.26714 1.99603.79221 2.67826.50664.71456 1.21594 1.00704 2.05421.95643.49742-.0182 1.16066-.13446 1.9805-.37035.7922-.2168 1.65811-.49574 2.54244-.84043 5.19538-2.0251 10.39077-4.05019 15.59537-6.07888-.40532-1.33972-.73694-2.25636-.99485-2.77499-.304-.60945-.81065-1.3742-1.46466-2.26557.62637-2.50329 1.29885-5.02454 1.93444-7.53979 1.06856 1.66691 1.8055 3.3041 2.11869 4.90566.27636 1.41512.43295 3.61321.43295 6.56683 0 2.76115 0 5.52232 0 8.27511zM430.33463 702.2373c0 1.72362-.15657 3.36605-.44216 4.90816-.30398 1.54926-.90275 3.71549-1.75022 6.47228-.43296-.0654-.8659-.12269-1.28964-.19178.33161-2.61432.51586-4.73608.51586-6.29238 0-1.19649-.0738-2.89136-.22109-5.15167-.14748-2.25183-.33162-4.4643-.53427-6.63608-.21187-2.16818-.57113-4.6889-1.05935-7.62791-.17494-1.01954-.25792-1.74861-.25792-2.15861 0-.61917.22107-1.72612.66324-3.36274.45136-1.60671 1.0962-3.6068 1.87918-5.99541.42374 3.28209.87511 6.5618 1.29885 9.85226.46058 3.76978.80142 7.03398.98565 9.85722.14748 2.1598.21187 4.27669.21187 6.32666M456.27572 697.29682c0 3.3636-1.08698 7.00679-3.15041 10.97715-2.06341 3.96201-4.16366 6.27933-6.20867 6.94704-1.18831.38797-2.51478.30228-3.90575-.2811-1.4094-.56901-3.6294-1.86065-6.53109-3.98402.29478-.66519.60797-1.32806.90275-1.98493 1.53836.91181 2.82799 1.40276 3.81364 1.55789.81984.12554 1.75022.0143 2.78193-.32259 1.40938-.46018 2.80035-1.4247 4.14524-2.93481 1.60285-1.79514 3.307-4.30945 5.00195-7.6575-.59875.31265-1.1054.53663-1.51072.66896-1.41858.46317-2.55162.1972-3.38068-.79557-.82905-1.00111-1.28043-2.54391-1.28043-4.711 0-2.92014.51587-5.89156 1.4923-8.93805 1.05934-3.30787 2.30292-5.16977 3.68468-5.62091 1.14224-.37293 2.15553.34211 2.92931 2.23147.7922 1.88334 1.21595 4.28862 1.21595 7.30079 0 2.51015 0 5.02866 0 7.54718zm-2.58848-5.09555c-.40532-2.99698-1.23437-4.30768-2.45953-3.9077-.45137.14748-.80141.49593-1.05014 1.04574-.28555.59525-.41452 1.16448-.41452 1.71672 0 .70284.28556 1.18693.85669 1.44392.5527.29649 1.31727.27277 2.24765-.031.26714-.0872.54349-.17744.81985-.26769z" fill="#270080" fill-rule="evenodd"/><path d="m 467.89166,660.32845 c -0.77379,2.24401 -1.58443,4.48336 -2.35821,6.74412 -1.01327,-0.45571 -2.06341,-0.88261 -3.0767,-1.33829 -0.55269,1.72002 -1.16067,3.45807 -1.71337,5.17808 -1.32648,-0.57097 -2.68981,-1.09643 -4.0163,-1.66738 0.73694,-2.14833 1.51072,-4.27523 2.24766,-6.42354 1.05012,0.39346 2.13711,0.74139 3.18725,1.13484 0.58953,-1.78226 1.21593,-3.55979 1.80548,-5.32531 1.30805,0.577 2.63454,1.11448 3.92419,1.69748 z m 2.70822,34.30806 c -5.2875,1.72635 -10.55658,3.4467 -15.82568,5.16704 0,-2.64403 0,-5.30478 0,-7.94881 1.28965,-0.42105 2.57927,-0.84211 3.86892,-1.26318 0.68166,-0.22255 1.30805,-0.41037 1.87918,-0.49639 1.58441,-0.28301 3.3899,-0.62151 5.41647,-0.98197 -2.13711,0.0451 -3.64783,-0.29832 -4.4953,-1.10937 -0.84746,-0.77756 -1.28965,-2.18949 -1.28965,-4.1976 0,-3.01219 0.53429,-5.93105 1.56599,-8.71113 0.99487,-2.75129 2.17397,-4.34113 3.44518,-4.75617 1.43702,-0.4692 2.72667,0.79992 3.81364,3.85881 1.05012,3.08767 1.62125,6.9844 1.62125,11.80386 0,2.89504 0,5.75661 0,8.63493 z m -2.94774,-11.16996 c -0.49742,-1.51102 -1.1054,-2.6178 -1.71337,-3.37316 -0.60797,-0.73861 -1.27121,-0.9739 -1.8976,-0.76939 -0.27635,0.0902 -0.55271,0.2809 -0.75538,0.61478 -0.22107,0.33993 -0.33162,0.66053 -0.33162,1.02869 0,0.83671 0.49745,1.4608 1.41862,1.96328 0.90273,0.49179 2.02657,0.67707 3.27935,0.5358 z" fill="#270080" fill-rule="evenodd"/><path d="M480.95381 691.25599c-3.96101 1.29327-7.92204 2.58652-11.86465 3.87377 0-2.64402 0-5.30478 0-7.94881 3.07671-1.00453 6.17183-2.01508 9.26696-3.02563-.84747-6.3501-1.75022-12.68216-2.61612-19.00951-.44215-.27398-.92117-.5192-1.38176-.78719 0-1.13792.14748-2.35747.40532-3.61308.3132-1.59161.88433-3.53516 1.67653-5.85216.33162.14285.66324.25202.99486.39477 0 .1004-.0367.44707-.092.95041 0 .65266.31321 1.15282.90275 1.5795.53427.39455 1.38175.6868 2.54243.99395-.12893 1.29719-.31321 2.56223-.55271 3.82855-.25793 1.28908-.55269 2.43958-.8659 3.47896-.25792-.0498-.51585-.0993-.77377-.16567.77377 5.78846 1.58439 11.56489 2.35819 17.35335 0 2.64402 0 5.3048 0 7.94881M488.91272 680.15636c0 1.72364-.14748 3.34484-.44217 4.8802-.29477 1.51866-.90274 3.65834-1.75023 6.36152-.42374-.0959-.86589-.18585-1.28963-.28178.33162-2.60167.51585-4.70342.51585-6.2597 0-1.18815-.0736-2.88775-.22107-5.16567-.14748-2.2612-.33162-4.47694-.53429-6.66992-.22107-2.17021-.57111-4.71668-1.05012-7.70634-.18424-1.01085-.25793-1.75656-.25793-2.15817 0-.61917.22107-1.71216.66324-3.32915.44216-1.56678 1.08697-3.53441 1.87918-5.86812.42374 3.30893.8659 6.61184 1.28964 9.93749.46059 3.79893.81063 7.08171.99486 9.91658.1473 2.16083.20267 4.28475.20267 6.34306" fill="#270080" fill-rule="evenodd"/><g transform="matrix(.34 0 0 .34 100.856 -344.337)"><path d="m 588,1822.8784 c 85.56,0 167.416,-6.8 215.422,-20.3 20.315,-3.7 20.315,-14.2 20.315,-27.7 20.315,-6.8 9.845,-30.8 24,-30.8 -14.155,3.7 -17.228,-24 -34.462,-20.3 0,-24 -24.005,-27 -44.315,-20.3 -40.626,13.6 -112.637,16.6 -180.957,16.6 -68.316,-3 -139.716,-3 -180.955,-16.6 -20.31,-6.7 -44.305,-3.7 -44.305,20.3 -17.238,-3.7 -20.315,24 -34.467,20.3 14.152,0 3.688,24 24,30.8 0,13.5 0,24 20.927,27.7 47.384,13.5 129.25,20.3 214.797,20.3 z" fill="#f8c300" fill-rule="evenodd" stroke="#000" stroke-width="10.2" stroke-linecap="round" stroke-linejoin="round"/><path d="m 591.454,1430.6784 293.821,272.8 -20.918,-495.37 c -3.073,-75.08 -68.316,-57.85 -115.708,-30.77 -48.011,30.77 -102.78,30.77 -160.646,10.45 -57.853,20.32 -112.63,20.32 -160.641,-10.45 -47.388,-27.08 -112.625,-44.31 -115.706,30.77 l -20.931,495.37 z" fill="#f8c300" fill-rule="evenodd" stroke="#000" stroke-width="5.45" stroke-linecap="round" stroke-linejoin="round"/><use transform="matrix(-1 0 0 1 1176.005 .004)" width="900" height="600" xlink:href="#a" fill="#270080" fill-rule="evenodd"/><path d="m 601.544,1484.9784 41.239,187.8 -13.547,13.5 -14.154,-10.5 -23.39,-167.4 9.849,167.4 -13.544,17.3 -13.54,-17.3 9.85,-167.4 -23.384,167.4 -14.167,10.5 -13.533,-13.5 41.234,-187.8 h 27.086 z" fill-rule="evenodd" stroke="#000" stroke-width="4.607" stroke-linecap="square"/><path d="m 345.499,1190.8684 -20.31,481.91 -34.47,30.7 20.93,-495.37 c 9.845,-6.77 27.084,-17.24 33.85,-17.24 z" id="b" fill="#270080" fill-opacity="1" fill-rule="evenodd" stroke-width="0"/><path d="m 386.734,1225.3284 -17.235,403.05 -34.459,35.3 20.924,-465.42 c 6.774,6.77 27.087,23.38 30.77,27.07 z" id="c" fill="#270080" fill-opacity="1" fill-rule="evenodd" stroke-width="0"/><path d="m 424.279,1256.0784 -13.533,336.2 -27.695,27.1 17.236,-383.6 c 6.756,6.8 20.297,16.6 23.992,20.3 z" id="d" fill="#270080" fill-opacity="1" fill-rule="evenodd" stroke-width="0"/><path d="m 464.904,1273.3784 -13.54,286.5 -27.085,21.9 13.541,-318.9 c 6.775,3.1 20.313,10.5 27.085,10.5 z" id="e" fill="#270080" fill-opacity="1" fill-rule="evenodd" stroke-width="0"/><path d="m 502.454,1273.3784 -9.857,238.7 -27.69,27.1 10.465,-262.8 c 6.761,0 23.997,0 27.082,-3 z" id="a" fill="#270080" fill-opacity="1" fill-rule="evenodd" stroke-width="0"/><use transform="matrix(-1 0 0 1 1175.99 -.004)" width="900" height="600" xlink:href="#b" fill="#270080" fill-rule="evenodd"/><use transform="matrix(-1 0 0 1 1176.008 -.004)" width="900" height="600" xlink:href="#c" fill="#270080" fill-rule="evenodd"/><use transform="matrix(-1 0 0 1 1176.014 -.004)" width="900" height="600" xlink:href="#d" fill="#270080" fill-rule="evenodd"/><use transform="matrix(-1 0 0 1 1176 -.004)" width="900" height="600" xlink:href="#e" fill="#270080" fill-rule="evenodd"/><path d="m 495.679,1402.5784 -81.854,290.5 112.636,17.2 47.998,-218.5 z m 184.65,0 81.851,290.5 -112.626,17.2 -48.01,-218.5 z" fill="#f8c300" fill-rule="evenodd" stroke="#000" stroke-width="5.1" stroke-linecap="round" stroke-linejoin="round"/><use transform="matrix(-1 0 0 1 1175.98 .004)" width="218" height="300" xlink:href="#f" fill-rule="evenodd"/><use transform="matrix(-1 0 0 1 1175.112 .004)" width="218" height="300" xlink:href="#g" fill-rule="evenodd"/><path d="m 468.597,1501.6784 9.849,24 53.218,-50.9" id="f" fill="none" fill-rule="evenodd" stroke="#000" stroke-width="5.45" stroke-linecap="round" stroke-linejoin="round"/><path d="m 505.467,1441.4784 11.136,104.5 33.85,-44.3" id="i" fill="none" fill-rule="evenodd" stroke="#000" stroke-width="5.45" stroke-linecap="round" stroke-linejoin="round"/><path d="m 536.916,1518.8784 18.49,63.8" id="j" fill="none" fill-rule="evenodd" stroke="#000" stroke-width="5.45" stroke-linecap="round" stroke-linejoin="round"/><path d="m 562.648,1559.2784 -37.4,56.8 m 11.665,56.7 -11.97,-56.7 -10.45,-57.6 -25.056,34 -10.989,-39.1 -35.07,35.9 17.836,65.5 24.614,-40.5 13.539,41.2 25.27,-39.3" id="g" fill="none" fill-rule="evenodd" stroke="#000" stroke-width="5.451" stroke-linecap="round" stroke-linejoin="round"/><path d="m 437.82,1686.2784 22.736,-31.9 14.813,49.1 20.31,-34.5 13.546,41.3" id="h" fill="none" fill-rule="evenodd" stroke="#000" stroke-width="5.45" stroke-linecap="round" stroke-linejoin="round"/><use transform="matrix(-1 0 0 1 1176.915 -.004)" width="218" height="300" xlink:href="#h" fill-rule="evenodd"/><path d="m 471.676,1693.0784 c 27.69,3.6 58.468,6.7 82.478,3.6 13.528,0 23.379,23.4 -3.7,27.1 -23.995,3.1 -61.544,0 -81.857,-3.7 -17.233,-3 -54.774,-9.8 -78.785,-16.6 -24.003,-10.4 -6.761,-30.7 6.767,-27.7 20.931,6.8 48.016,13.6 75.097,17.3 z m 232.653,0 c -27.7,3.6 -58.465,6.7 -81.86,3.6 -14.159,0 -24.007,23.4 3.077,27.1 24.006,3.1 61.55,0 81.849,-3.7 17.241,-3 54.782,-9.8 78.782,-16.6 24.011,-10.4 6.78,-30.7 -6.766,-27.7 -20.926,6.8 -48.006,13.6 -75.082,17.3 z" fill="#f8c300" fill-rule="evenodd" stroke="#000" stroke-width="5.45" stroke-linecap="round" stroke-linejoin="round"/><path d="m 386.732,1679.4784 c -20.923,-3.7 -30.77,20.3 -23.994,33.9 3.073,-6.8 17.231,-6.8 20.312,-13.6 3.682,-10.4 -3.08,-10.4 3.682,-20.3 z m 81.862,63 c 0,-13.6 13.534,-11.9 13.534,-25.4 0,-6.8 -3.685,-17.3 -10.454,-17.3 -6.772,0 -13.546,6.8 -13.546,13.6 -3.08,13.5 10.467,15.5 10.467,29.1 z m 97.43,-39 c 20.294,0 18.283,27.1 8.433,40.6 0,-9.8 -17.231,-13.5 -17.231,-20.3 0,-10.4 15.556,-10.4 8.798,-20.3 z m 223.242,-24 c 20.925,-3.7 30.777,20.3 24.004,33.9 -3.081,-6.8 -17.234,-6.8 -20.31,-13.6 -3.694,-10.4 3.079,-10.4 -3.694,-20.3 z m -81.872,63 c 0,-13.6 -13.527,-11.9 -13.527,-25.4 0,-6.8 3.687,-17.3 10.46,-17.3 6.766,0 13.54,6.8 13.54,13.6 3.08,13.5 -10.472,15.5 -10.472,29.1 z m -97.415,-39 c -20.302,0 -18.289,27.1 -8.44,40.6 0,-9.8 17.228,-13.5 17.228,-20.3 0,-10.4 -15.557,-10.4 -8.788,-20.3 z" fill="#f8c300" fill-rule="evenodd" stroke="#000" stroke-width="5.45" stroke-linecap="round" stroke-linejoin="round"/><path d="m 393.508,1686.2784 c 6.779,0 17.236,3.1 20.315,6.8 z m 33.848,10.4 c 3.698,0 17.24,3.1 24.007,6.8 z m 123.098,13.6 c -6.768,0 -20.31,0 -23.994,3.1 z m -37.546,0 c -3.684,-3.7 -17.23,-3.7 -23.996,0 z" fill="none" stroke="#000" stroke-width="3.825" stroke-linecap="round" stroke-linejoin="round"/><path d="m 782.497,1686.2784 c -6.768,0 -16.622,3.1 -20.314,6.8 z m -33.851,10.4 c -3.69,0 -17.233,3.1 -24.004,6.8 z m -123.097,13.6 c 6.776,0 20.314,0 24.004,3.1 z m 37.543,0 c 3.69,-3.7 17.239,-3.7 24.004,0 z" fill="#fff" fill-rule="evenodd" stroke="#000" stroke-width="3.825" stroke-linecap="round" stroke-linejoin="round"/><use transform="matrix(-1 0 0 1 1176.657 -.004)" width="218" height="300" xlink:href="#i" fill-rule="evenodd"/><use transform="matrix(-1 0 0 1 1174.655 -.004)" width="218" height="300" xlink:href="#j" fill-rule="evenodd"/><path d="m 387.806,1740.3784 c -2.29,-0.5 -3.494,-2.3 -2.917,-4.4 0.702,-2.6 2.795,-4.1 4.773,-3.4 1.257,0.4 3.56,2.7 3.568,3.6 0.011,0.9 -1.203,3.2 -1.727,3.2 -0.226,0 -0.576,0.2 -0.778,0.4 -0.429,0.5 -1.773,0.8 -2.919,0.6 z m 235.641,16.8 c -0.852,-0.3 -2.21,-2.2 -2.209,-3.1 0.01,-1.7 2.464,-4.4 3.985,-4.4 0.752,0 2.81,1.1 3.579,1.9 1.394,1.4 1.09,3.8 -0.662,5.2 -0.862,0.6 -3.433,0.9 -4.693,0.4 z m 1.56,10.6 c -1.803,-0.6 -2.463,-1.4 -2.61,-3.4 -0.152,-2.1 0.05,-2.5 2.251,-3.7 l 1.568,-0.8 1.487,0.7 c 2.058,0.9 2.974,1.9 3.047,3.2 0.078,1.5 -1.028,3.1 -2.746,3.8 -1.509,0.7 -1.598,0.7 -2.998,0.2 z m -232.781,-13.1 c 1.103,-1 1.124,-1.9 0.053,-2.4 -0.677,-0.3 -1.073,-0.2 -2.408,0.4 -1.343,0.7 -1.583,0.9 -1.51,1.6 0.083,0.7 0.66,0.9 2.666,1.1 0.177,0 0.717,-0.3 1.199,-0.7 z m 36.172,18.9 c -0.972,-0.3 -3.367,-0.9 -5.323,-1.3 -4.51,-0.9 -11.504,-2.4 -13.396,-3 -0.799,-0.3 -2.25,-0.6 -3.226,-0.9 -1.792,-0.4 -2.713,-0.6 -5.65,-1.6 -0.887,-0.3 -3.066,-0.9 -4.84,-1.3 -1.775,-0.5 -3.848,-1.1 -4.609,-1.4 -0.76,-0.3 -1.66,-0.6 -1.998,-0.6 -0.34,0 -1.099,-0.2 -1.687,-0.5 -0.589,-0.4 -2.001,-0.7 -3.139,-0.8 -2.377,-0.2 -4.148,-1.1 -5.156,-2.4 -0.855,-1.2 -0.876,-2.1 -0.084,-3.7 0.335,-0.7 0.61,-1.5 0.613,-1.8 0,-0.3 0.292,-0.8 0.643,-1.1 0.35,-0.3 0.636,-0.7 0.635,-0.8 0,-0.4 1.492,-2.6 2.375,-3.5 1.16,-1.2 3.559,-2.3 4.915,-2.4 0.798,0 1.499,-0.2 1.843,-0.5 0.383,-0.4 1.256,-0.6 2.801,-0.7 l 2.245,-0.2 0.876,-1.6 c 0.482,-0.8 0.882,-1.9 0.89,-2.5 0.01,-0.5 0.234,-1.3 0.505,-1.8 0.27,-0.5 0.685,-1.8 0.922,-2.8 0.897,-3.9 1.546,-6 1.93,-6.4 0.56,-0.5 0.505,-0.8 -0.462,-2 -0.523,-0.6 -1.132,-1 -1.572,-1 -1.073,0 -2.833,0.6 -3.386,1.2 -1.103,1.2 -2.562,1.9 -3.671,1.9 -1.529,0.1 -3.493,-1 -4.225,-2.3 -0.576,-1 -0.573,-1.1 0.096,-2.4 0.436,-0.9 1.006,-1.5 1.567,-1.8 1.333,-0.5 4.738,-0.2 5.525,0.5 0.557,0.4 0.97,0.5 2.753,0.3 1.154,-0.2 2.168,-0.4 2.255,-0.5 0.087,-0.1 0.797,-0.4 1.579,-0.5 0.781,-0.1 1.496,-0.4 1.588,-0.6 0.092,-0.3 0.676,-0.6 1.297,-0.7 0.621,-0.1 1.295,-0.4 1.497,-0.6 0.203,-0.3 0.781,-0.5 1.286,-0.5 0.708,0 1.042,0.2 1.464,1 0.482,0.9 0.5,1.2 0.159,3 -0.214,1.1 -0.653,2.6 -0.976,3.2 -0.323,0.6 -0.582,1.7 -0.574,2.3 0.01,0.8 -0.222,1.5 -0.623,2 -0.35,0.4 -0.632,1 -0.628,1.4 0,0.4 -0.214,0.9 -0.484,1.2 -0.271,0.2 -0.642,1.3 -0.825,2.4 -0.184,1.1 -0.51,2.2 -0.727,2.6 -0.217,0.3 -0.482,1.2 -0.59,2 -0.108,0.8 -0.404,1.6 -0.658,1.8 -0.255,0.3 -0.458,0.9 -0.452,1.4 0.01,0.5 -0.254,1.5 -0.577,2.1 -0.323,0.6 -0.68,1.9 -0.793,2.8 -0.114,0.9 -0.39,1.9 -0.616,2.2 -0.225,0.4 -0.507,1.4 -0.626,2.2 -0.119,0.9 -0.425,1.9 -0.68,2.3 -0.419,0.6 -0.4,0.8 0.19,1.5 0.953,1.3 3.748,2.2 6.595,2.2 2.215,0 2.336,-0.1 3.13,-1.1 0.479,-0.5 0.914,-1.6 1.038,-2.4 0.117,-0.8 0.416,-1.9 0.664,-2.4 0.249,-0.4 0.444,-1.6 0.434,-2.6 -0.015,-1.6 -0.096,-1.8 -1.168,-2.6 -1.064,-0.8 -1.122,-1 -0.771,-1.7 0.36,-0.8 1.822,-1.5 3.202,-1.5 0.286,0 0.862,-0.3 1.28,-0.6 0.42,-0.3 1.075,-0.7 1.457,-0.8 0.383,-0.1 1.244,-0.7 1.913,-1.3 1.405,-1.3 2.273,-1.3 2.984,-0.1 0.443,0.7 0.439,1 -0.046,2.3 -0.296,0.8 -0.531,2.1 -0.522,2.9 0.01,0.7 -0.182,1.6 -0.425,1.8 -0.243,0.3 -0.585,1.2 -0.76,1.9 -0.175,0.8 -0.534,2 -0.797,2.7 -0.264,0.6 -0.48,1.8 -0.48,2.4 0,0.7 -0.284,1.8 -0.63,2.5 -0.912,1.8 -0.797,2.8 0.358,3.4 0.266,0.1 0.849,0.4 1.294,0.6 0.445,0.3 1.388,0.5 2.096,0.5 0.708,0 1.914,0.2 2.68,0.5 0.767,0.4 2.31,0.7 3.43,0.8 1.993,0.2 2.053,0.2 2.943,-0.8 0.557,-0.6 1.061,-1.7 1.304,-2.8 0.218,-0.9 0.478,-2 0.578,-2.4 0.308,-1.2 -0.205,-2.7 -1.209,-3.7 -1.765,-1.6 -1.032,-3.8 1.287,-3.8 1,0 3.716,-1.1 4.432,-1.8 1.937,-1.8 3.146,-2.3 4.328,-1.7 0.935,0.5 1.237,1.8 0.654,2.8 -0.242,0.4 -0.636,1.6 -0.875,2.6 -0.239,1 -0.722,2.9 -1.072,4.1 -0.35,1.2 -0.86,3.3 -1.132,4.6 -0.272,1.4 -0.764,3.3 -1.094,4.3 -0.33,1 -0.596,2.1 -0.592,2.4 0,0.3 -0.297,1.3 -0.667,2.1 -1.079,2.5 -2.678,3 -6.037,1.9 z m -41.515,0.1 c -2.128,-2 -1.785,-3.4 1.361,-5.8 1.347,-1 2.164,-0.9 3.703,0.5 2.37,2.2 2.465,3.6 0.373,5.4 -1.034,0.9 -1.486,1.1 -2.69,1.1 -1.259,0.1 -1.615,-0.1 -2.747,-1.2 z m 13.076,4 c -2.08,-0.5 -3.28,-2.6 -2.67,-4.7 0.55,-1.8 0.87,-2 3.604,-2 3.067,-0.1 3.662,0.5 3.691,3.2 0.016,1.5 -0.1,1.8 -0.856,2.5 -0.889,0.9 -2.597,1.3 -3.769,1 z m 382.278,0.3 c -0.974,-0.8 -1.17,-1.1 -1.181,-2.2 -0.015,-1.7 1.002,-3 3.2,-4 2.926,-1.3 4.118,-1.2 5.22,0.8 1.465,2.6 1.395,3.6 -0.36,5.4 -0.968,0.9 -1.15,1 -3.367,1 -2.178,0 -2.427,0 -3.512,-1 z m -364.907,5 c -1.561,-0.4 -2.37,-1.6 -2.391,-3.5 -0.016,-1.4 0.086,-1.6 1.088,-2.4 0.649,-0.5 1.674,-1 2.482,-1.1 1.145,-0.1 1.563,0 2.485,0.6 2.362,1.7 2.863,3.3 1.496,4.9 -1.457,1.7 -2.838,2.1 -5.16,1.5 z m 94.029,4.2 -1.203,-1 0.163,-2.6 c 0.09,-1.4 0.376,-3.2 0.635,-3.8 0.26,-0.7 0.467,-2.3 0.462,-3.5 -0.01,-1.2 0.193,-2.8 0.44,-3.6 0.249,-0.7 0.659,-3.4 0.912,-6 0.254,-2.6 0.596,-5.1 0.762,-5.5 0.165,-0.5 0.292,-1.6 0.281,-2.6 -0.01,-0.9 0.242,-2.6 0.56,-3.8 0.37,-1.3 0.578,-3.1 0.573,-4.9 0,-1.6 0.14,-3.4 0.32,-4 0.18,-0.6 0.324,-1.4 0.32,-1.8 -0.01,-0.8 1.098,-2.6 1.585,-2.6 0.156,0 0.808,0.8 1.451,1.7 0.643,0.9 1.933,2.3 2.868,3.2 4.123,3.8 3.94,3.5 2.6,4.7 -0.49,0.5 -1.038,0.9 -1.217,0.9 -0.178,0 -0.709,0.4 -1.18,0.9 -0.708,0.7 -0.854,1.1 -0.85,2.5 0,0.9 -0.218,2.3 -0.489,2.9 -0.447,1.2 -0.906,5.3 -1.07,9.8 -0.036,0.9 -0.198,1.9 -0.363,2.1 -0.165,0.3 -0.362,2.5 -0.438,5 -0.076,2.5 -0.27,4.7 -0.433,5 -0.163,0.2 -0.307,1 -0.32,1.6 -0.047,2.6 -0.599,4.8 -1.353,5.6 -0.592,0.6 -1.06,0.8 -2.279,0.8 -1.296,0 -1.722,-0.1 -2.737,-1 z m 124.636,-2.9 1.678,-0.5 -0.114,-1.6 -0.114,-1.6 h -1.34 c -1.12,-0.1 -1.475,0 -2.173,0.8 -1.237,1.3 -1.377,2.2 -0.435,2.9 0.427,0.3 0.786,0.5 0.798,0.5 0.014,0 0.778,-0.2 1.7,-0.5 z m -9.773,6.7 c -0.675,-0.9 -0.704,-1.1 -0.394,-2.8 0.184,-1.1 0.353,-2.8 0.375,-3.9 0.017,-1.1 0.209,-2.3 0.414,-2.7 0.206,-0.4 0.369,-1.1 0.363,-1.7 -0.014,-0.8 0.275,-1.3 1.262,-2.3 0.7,-0.6 1.272,-1.3 1.27,-1.5 0,-0.4 2.509,-2.4 3.04,-2.4 0.206,0 0.633,-0.2 0.95,-0.6 0.316,-0.3 0.964,-0.6 1.44,-0.6 0.476,0 1.247,-0.3 1.712,-0.7 0.796,-0.7 0.845,-0.9 0.818,-3.4 -0.014,-1.7 -0.235,-3.3 -0.548,-4.1 -0.285,-0.8 -0.487,-1.8 -0.45,-2.1 0.037,-0.4 -0.06,-2.2 -0.215,-3.9 -0.254,-2.9 -0.377,-3.4 -1.126,-4.1 -0.463,-0.5 -1.022,-0.9 -1.242,-0.9 -0.404,0 -1.92,-1.7 -1.708,-2 2.216,-2.3 6.164,-6 6.606,-6.2 0.906,-0.3 2.27,0.3 2.617,1.2 0.172,0.4 0.411,2.3 0.533,4.1 0.123,1.8 0.371,4.2 0.553,5.2 0.182,1 0.5,4.2 0.707,7.1 0.208,2.9 0.521,5.7 0.697,6.3 0.175,0.6 0.436,3.2 0.58,5.9 0.142,2.6 0.406,5.3 0.586,5.9 0.617,2.3 3.205,3.6 5.047,2.7 0.305,-0.2 1.682,-0.5 3.059,-0.7 3.203,-0.5 3.26,-0.6 2.976,-5.2 -0.198,-3.2 -0.301,-3.6 -1.075,-4.6 -0.47,-0.5 -1.216,-1.1 -1.656,-1.2 -0.883,-0.2 -1.435,-1 -1.446,-2 0,-0.7 1.655,-2.3 2.698,-2.7 0.357,-0.1 1.314,-0.7 2.128,-1.4 1.82,-1.5 3.019,-1.6 4.149,-0.4 0.724,0.8 0.804,1.2 1.046,5.4 0.186,3.2 0.412,4.7 0.787,5.4 0.384,0.6 0.537,1.7 0.563,4 0.014,2.1 0.2,3.5 0.55,4.3 0.454,1 0.461,1.3 0.06,2.1 -0.25,0.5 -0.548,1.3 -0.66,1.7 -0.262,0.8 -0.749,1 -3.708,1.1 -1.327,0 -2.99,0.2 -3.696,0.4 -0.706,0.2 -2.586,0.4 -4.178,0.4 -6.794,0.2 -16.075,0.9 -16.58,1.4 -0.377,0.3 -1.466,0.5 -4.339,0.5 h -3.835 z m -144.904,-25.5 c 0.85,-0.6 0.918,-1.4 0.135,-1.6 -0.992,-0.2 -1.796,-1.6 -1.864,-3.1 -0.124,-2.9 -1.439,-3 -3.883,-0.5 -0.705,0.7 -1.779,1.7 -2.387,2.1 l -1.106,0.9 0.804,0.8 c 1.346,1.3 2.85,1.9 5.33,1.9 1.573,0 2.477,-0.1 2.971,-0.5 z m 9.977,30.6 c -0.488,-0.2 -0.889,-0.4 -0.89,-0.5 0,-0.3 -3.052,-2.2 -3.521,-2.2 -0.193,0 -0.436,-0.3 -0.54,-0.8 -0.104,-0.5 -0.491,-1.8 -0.86,-2.9 -0.649,-1.9 -0.639,-3.4 0.024,-3.8 0.48,-0.3 0.304,-1.3 -0.33,-1.8 -0.387,-0.4 -1.398,-0.6 -2.823,-0.7 -3.025,-0.2 -3.371,-0.3 -4.436,-1.2 -0.76,-0.6 -0.976,-1.1 -1.208,-2.8 -0.166,-1.1 -0.518,-2.2 -0.85,-2.6 -0.59,-0.6 -1.592,-0.7 -1.887,-0.3 -0.094,0.2 -0.609,0.4 -1.145,0.5 -0.655,0.1 -1.077,0.5 -1.283,1 -0.17,0.4 -0.682,1.3 -1.14,1.9 -0.793,1 -0.92,1 -2.893,1.1 -1.135,0 -2.546,-0.2 -3.136,-0.4 -1.266,-0.5 -2.663,-0.7 -6.16,-1 -5.016,-0.3 -7.336,0.1 -7.724,1.3 -0.537,1.6 -4.59,5.1 -6.359,5.4 -0.708,0.1 -1.91,0.4 -2.673,0.7 -0.763,0.2 -1.527,0.3 -1.697,0.2 -0.171,-0.1 -1.865,-0.3 -3.764,-0.6 -3.586,-0.4 -4.907,-1 -4.92,-2.2 -0.01,-0.7 2.194,-1.8 3.04,-1.5 0.912,0.3 2.417,0.3 2.413,-0.1 0,-0.1 0.78,-0.4 1.737,-0.6 0.958,-0.2 1.913,-0.6 2.122,-0.8 0.21,-0.3 0.801,-0.5 1.314,-0.5 0.761,0 1.107,-0.3 1.875,-1.5 0.519,-0.8 0.94,-1.6 0.938,-1.9 0,-0.2 0.28,-0.7 0.63,-1.2 0.378,-0.5 0.63,-1.2 0.622,-1.9 -0.01,-0.7 0.205,-1.8 0.47,-2.5 0.454,-1.3 0.44,-1.5 -0.257,-3.5 -0.406,-1.2 -0.92,-2.3 -1.142,-2.4 -0.222,-0.2 -0.577,-0.8 -0.79,-1.3 -0.56,-1.6 0.043,-3 2.322,-5.5 0.24,-0.2 0.534,-0.9 0.652,-1.4 0.222,-1.1 0.944,-1.7 2.036,-1.7 0.802,0 2.32,1.7 2.33,2.6 0,0.3 0.242,1 0.529,1.4 0.316,0.4 0.642,1.8 0.826,3.5 0.315,2.9 0.833,5.9 1.22,7.1 0.33,1 2.083,2.3 3.029,2.3 0.454,0 1.697,0.2 2.762,0.5 1.064,0.2 2.771,0.4 3.793,0.4 1.852,0 1.864,0 3.76,-1.9 1.045,-1.1 1.895,-2.1 1.887,-2.3 -0.049,-1.2 -4.191,-3.5 -7.526,-4 -1.167,-0.2 -1.986,-1.7 -1.731,-3.1 0.216,-1.1 1.772,-3.2 3.286,-4.3 0.58,-0.4 2.502,-1.1 4.273,-1.6 l 3.22,-0.9 0.89,-1.8 c 1.694,-3.3 5.26,-5.9 8.112,-5.9 1.424,0 1.726,0.1 2.865,1.6 0.315,0.3 0.909,1.1 1.319,1.6 1.263,1.5 1.976,3.4 1.785,4.6 -0.179,1.1 0.305,2.9 0.787,2.9 0.442,0 5.134,4.6 5.358,5.2 0.113,0.4 0.333,0.6 0.49,0.6 0.398,0 0.977,2.1 0.996,3.6 0.027,2.2 -0.466,2.5 -3.9,2.6 -1.643,0 -3.637,0.2 -4.43,0.5 l -1.444,0.4 -0.076,1.7 c -0.103,2.3 0.48,3 3.003,3.3 1.05,0.2 2.06,0.5 2.243,0.6 0.183,0.2 0.71,0.3 1.172,0.3 0.462,0 1.123,0.2 1.469,0.5 0.566,0.4 0.633,0.8 0.672,4.4 l 0.043,3.9 1.05,0.3 c 0.577,0.2 1.225,0.5 1.439,0.7 0.761,0.7 1.769,0.4 2.174,-0.6 0.21,-0.6 0.504,-1.3 0.653,-1.7 0.148,-0.3 0.403,-2.4 0.565,-4.6 0.162,-2.2 0.493,-4.6 0.736,-5.3 0.242,-0.6 0.583,-2.9 0.758,-4.9 0.174,-2 0.479,-3.9 0.676,-4.1 0.2,-0.3 0.422,-2.2 0.502,-4.4 0.116,-3.2 0.256,-4.1 0.701,-4.6 0.468,-0.5 0.55,-1.2 0.512,-4.4 l -0.045,-3.9 -1.293,-1 c -0.861,-0.7 -1.294,-1.3 -1.299,-1.9 -0.01,-1.1 0.293,-1.4 1.904,-2 0.791,-0.3 2.015,-0.7 2.72,-1 0.706,-0.2 1.427,-0.6 1.604,-0.8 0.556,-0.7 2.344,-1.8 2.81,-1.8 0.245,0 0.688,0.2 0.984,0.5 0.692,0.8 0.755,3.7 0.105,4.9 -0.279,0.6 -0.463,1.8 -0.45,3 0.012,1.1 -0.2,2.6 -0.469,3.4 -0.28,0.7 -0.633,3.6 -0.827,6.6 -0.186,2.9 -0.51,5.5 -0.719,5.9 -0.209,0.4 -0.373,1.6 -0.364,2.8 0.01,1.1 -0.194,3.3 -0.452,4.7 -0.258,1.5 -0.601,3.9 -0.763,5.4 -0.161,1.6 -0.496,3.3 -0.743,3.9 -0.247,0.5 -0.532,2 -0.633,3.2 -0.1,1.2 -0.446,2.7 -0.767,3.3 -0.32,0.6 -0.58,1.3 -0.577,1.6 0.01,0.8 -1.654,3.7 -2.12,3.7 -0.215,0 -0.533,0.3 -0.706,0.6 -0.174,0.3 -0.756,0.6 -1.293,0.7 -0.538,0.2 -1.371,0.5 -1.853,0.9 -1.032,0.7 -4.028,1 -5.299,0.6 z m 270.713,-24.3 c 1.993,-0.9 2.555,-1.9 1.775,-3.4 -0.67,-1.2 -1.652,-1.6 -3.249,-1.5 -1.853,0.1 -3.371,1.3 -3.357,2.6 0.016,0.9 0.23,1.2 1.39,2 0.757,0.5 1.484,0.9 1.615,0.9 0.13,0 0.953,-0.3 1.826,-0.6 z m -25.681,0.2 c 1.375,-0.6 1.538,-0.8 1.54,-1.7 0,-1.4 -1.271,-3.1 -3.152,-4.1 -1.994,-1.1 -2.71,-1.1 -3.598,0.1 -0.695,0.9 -0.701,1 -0.196,2.4 0.287,0.7 0.524,1.6 0.527,1.8 0,0.7 1.951,2.2 2.728,2.2 0.337,0 1.305,-0.3 2.15,-0.7 z m -11.44,1.1 c 0.113,-0.5 0.1,-1.7 -0.034,-2.7 -0.19,-1.3 -0.445,-1.9 -1.217,-2.5 -1.162,-1 -1.764,-0.9 -3.14,0.5 -0.888,0.9 -1.018,1.2 -1.05,2.8 -0.053,2.6 0.296,2.9 3.043,2.9 2.185,0 2.188,0 2.396,-1 z m -25.558,4.8 c 1.108,-0.6 1.372,-1.2 1.09,-2.6 -0.425,-2 -3.009,-2.6 -4.262,-1 -0.382,0.5 -0.693,1.1 -0.691,1.2 0,0.2 -0.21,0.5 -0.469,0.7 -0.372,0.3 -0.393,0.5 -0.101,1 0.204,0.4 0.53,0.8 0.726,0.9 0.605,0.4 2.754,0.3 3.707,-0.2 z m 40.671,3.6 c 0.902,-0.7 0.978,-1.6 0.183,-2.3 -0.934,-0.8 -2.644,-0.8 -4.397,0 -1.045,0.5 -1.339,0.8 -1.332,1.4 0,0.5 0.252,0.9 0.736,1.1 1.086,0.4 4.231,0.3 4.81,-0.2 z m -49.883,14.9 c -0.37,-0.3 -0.258,-1.8 0.164,-2.2 0.219,-0.1 0.76,-0.4 1.2,-0.5 0.441,-0.1 1.017,-0.4 1.28,-0.7 0.263,-0.2 1.201,-0.5 2.085,-0.6 3.175,-0.5 5.942,-3 5.95,-5.4 0.012,-0.7 -0.093,-1.4 -0.216,-1.6 -0.363,-0.5 -5.922,-0.2 -8.93,0.6 -0.714,0.2 -1.066,0 -1.94,-0.8 l -1.067,-1 -0.153,-4.6 -0.152,-4.5 1.389,-1.5 c 0.764,-0.9 1.732,-2.1 2.15,-2.8 0.42,-0.7 0.856,-1.3 0.97,-1.3 0.116,-0.1 0.767,-0.6 1.45,-1.2 1.345,-1.2 3.565,-2.4 5.062,-2.8 0.519,-0.1 1.096,-0.4 1.282,-0.7 0.186,-0.2 0.758,-0.4 1.27,-0.5 0.788,-0.1 1.069,0.1 1.836,1.3 0.499,0.8 0.929,1.8 0.956,2.3 0.019,0.5 0.267,1.5 0.533,2.2 0.267,0.7 0.585,2 0.709,3 0.123,1 0.386,1.9 0.585,2.2 0.488,0.5 4.38,0.8 5.056,0.3 0.378,-0.2 0.546,-1.1 0.647,-3.2 0.079,-1.6 0.345,-3.2 0.625,-3.8 0.268,-0.5 0.582,-1.4 0.696,-1.9 0.313,-1.5 2.852,-5.1 4.37,-6.1 0.737,-0.5 1.52,-1 1.74,-1.2 0.221,-0.2 0.725,-0.5 1.12,-0.6 0.96,-0.3 1.187,-0.7 1.178,-2.1 -0.012,-1.2 -0.987,-2.5 -3.017,-4.2 -0.491,-0.4 -0.896,-0.9 -0.899,-1.2 -0.015,-0.9 0.933,-2.6 2.416,-4.3 0.76,-0.9 1.386,-1.7 1.392,-1.9 0.011,-0.1 0.511,-0.5 1.122,-0.9 0.874,-0.6 1.284,-0.6 1.917,-0.4 0.861,0.3 1.101,0.7 1.897,3.4 1.052,3.5 1.296,4.5 1.554,6.5 0.146,1.1 0.362,2.1 0.483,2.3 0.12,0.2 1.543,0.6 3.16,1 1.617,0.3 3.25,0.8 3.628,1 0.379,0.2 1.049,0.5 1.489,0.6 1.1,0.4 2.595,1.4 2.6,1.9 0,0.2 0.126,0.4 0.273,0.4 0.347,0 1.969,2.4 3.46,5.1 1.68,3 1.579,2.9 4.258,2.9 2.156,0 2.404,-0.1 3.008,-0.9 0.362,-0.4 0.654,-1.2 0.649,-1.6 -0.015,-1 0.815,-2.1 2.832,-3.9 0.778,-0.7 1.723,-1.6 2.102,-1.9 1.249,-1.1 2.668,-2 3.214,-2 0.296,0 1.888,0.5 3.538,1.2 2.438,1 3.169,1.4 3.901,2.4 1.593,2.2 4.991,3.1 6.675,1.8 0.447,-0.4 0.97,-0.6 1.163,-0.6 0.193,0 0.35,-0.3 0.346,-0.5 0,-0.7 -1.318,-4.2 -1.718,-4.7 -0.18,-0.2 -0.478,-1.4 -0.663,-2.8 -0.185,-1.3 -0.635,-3 -0.999,-3.7 -0.444,-1 -0.728,-2.4 -0.864,-4.4 -0.11,-1.6 -0.49,-3.9 -0.84,-5.2 -0.35,-1.2 -0.641,-2.7 -0.646,-3.1 -0.03,-2.3 -1.96,-5.3 -3.928,-6.1 -0.444,-0.2 -1.172,-0.6 -1.617,-0.8 -1.164,-0.6 -2.696,-0.5 -3.376,0.2 -0.317,0.3 -0.88,0.6 -1.25,0.6 -0.684,0 -2.747,1.7 -2.741,2.2 0,0.2 -0.473,0.3 -1.054,0.3 -0.862,0.1 -1.251,-0.2 -2.106,-1.2 -0.576,-0.7 -1.05,-1.5 -1.054,-1.6 0,-0.2 -0.589,-0.9 -1.3,-1.4 -1.053,-0.9 -1.295,-1.3 -1.307,-2.2 -0.015,-0.9 0.147,-1.2 0.785,-1.5 0.44,-0.2 0.8,-0.5 0.797,-0.6 0,-0.2 0.539,-0.4 1.201,-0.6 0.663,-0.1 2.36,-0.5 3.771,-0.8 3.555,-1 9.95,-1 11.507,-0.1 0.576,0.3 1.418,0.6 1.871,0.7 1.054,0.3 3.844,2.8 4.416,4.1 0.241,0.5 0.573,1.1 0.739,1.2 0.165,0.1 0.407,0.7 0.537,1.4 0.13,0.8 0.434,1.8 0.676,2.3 0.361,0.7 0.845,3.9 1.338,8.8 0.088,0.8 0.738,3.8 1.247,5.7 0.186,0.6 0.549,2.2 0.808,3.5 0.26,1.2 0.701,2.5 0.982,2.8 0.28,0.3 0.512,0.7 0.515,1 0.015,1.2 3.342,3.3 5.276,3.2 1.687,0 4.21,-1.1 5.79,-2.6 0.899,-0.8 1.98,-1.6 2.402,-1.7 0.868,-0.2 2.28,0.5 2.783,1.4 0.613,1 1.627,1.9 2.974,2.7 1.453,0.8 1.98,1.9 1.428,2.9 -0.184,0.3 -0.583,0.6 -0.886,0.6 -0.304,0 -1.322,0.4 -2.264,0.8 -0.942,0.4 -1.982,0.8 -2.31,0.8 -0.33,0 -2.156,0.5 -4.059,1.1 -1.903,0.6 -5.266,1.5 -7.473,2 -3.904,0.8 -9.14,2.2 -9.784,2.7 -0.175,0.1 -0.897,0.3 -1.604,0.4 -2.189,0.4 -2.376,0.5 -2.583,1.6 -0.256,1.4 -3.203,4.5 -5.382,5.7 -1.51,0.8 -1.822,0.8 -5.583,0.8 -2.19,0 -4.244,-0.1 -4.564,-0.2 -0.32,0 -0.68,-0.5 -0.8,-1 -0.12,-0.5 -0.653,-1.2 -1.19,-1.6 -1.026,-0.7 -2.198,-0.7 -4.822,0.1 l -1.168,0.3 -0.194,3.1 c -0.107,1.7 -0.387,3.4 -0.623,3.8 -0.235,0.4 -0.566,1 -0.735,1.3 -0.17,0.4 -1.045,1.3 -1.947,2 -0.902,0.8 -2.214,2 -2.916,2.6 -1.45,1.4 -2.698,1.6 -3.568,0.6 -0.32,-0.4 -0.956,-0.6 -1.494,-0.6 -1.08,0 -3.582,-1 -5.156,-2.1 -0.966,-0.7 -2.99,-4 -3,-4.9 0,-0.2 -0.296,-0.6 -0.653,-0.9 -0.516,-0.5 -1.067,-0.7 -2.661,-0.6 -1.106,0 -2.66,0.2 -3.455,0.3 -0.795,0.2 -2.73,0.5 -4.3,0.7 -1.57,0.2 -3.32,0.5 -3.886,0.8 -0.566,0.2 -1.644,0.5 -2.396,0.6 -1.975,0.4 -2.576,1.1 -2.554,3.1 0.015,1.1 -0.146,1.8 -0.44,2 -0.252,0.2 -0.543,0.8 -0.646,1.3 -0.271,1.2 -2.904,3.8 -4.78,4.6 -0.88,0.4 -2.133,1 -2.784,1.3 -0.976,0.6 -1.826,0.7 -4.846,0.7 -2.015,0 -3.76,-0.1 -3.88,-0.2 z m -25.529,2.8 -0.735,-0.5 0.645,-0.9 c 0.355,-0.5 1.184,-1 1.842,-1.3 2.243,-0.7 3.756,-1.6 5.589,-3.3 1.007,-1 1.828,-2 1.825,-2.3 0,-0.3 0.387,-1 0.868,-1.6 0.837,-0.9 0.871,-1.1 0.808,-4.2 -0.065,-3.2 -0.231,-3.9 -1.423,-5.7 -0.568,-0.9 -2.487,-2.3 -4.445,-3.3 -1.298,-0.6 -1.763,-1.9 -1.091,-3 0.28,-0.4 1.17,-2.1 1.977,-3.8 0.806,-1.6 1.64,-3.3 1.852,-3.7 0.58,-1.1 2.022,-1.2 2.994,-0.1 0.92,1 2.406,3.7 2.412,4.2 0,0.3 0.283,0.7 0.624,1 0.735,0.7 2.32,3.4 2.326,4 0,0.3 0.387,1.1 0.853,1.8 0.58,0.9 0.858,1.8 0.88,2.8 0.022,0.8 0.25,2 0.516,2.7 0.776,1.8 0.526,8 -0.394,9.7 -0.387,0.7 -0.809,1.3 -0.938,1.3 -0.129,0 -0.663,0.6 -1.186,1.3 -0.998,1.3 -4.405,3.7 -5.307,3.7 -0.29,0 -0.739,0.3 -0.999,0.7 -0.443,0.7 -0.733,0.7 -4.615,0.9 -3.432,0.1 -4.268,0 -4.878,-0.4 z m -29.37,1.9 c -1.041,-1 -1.267,-1.5 -1.278,-2.5 -0.014,-1.1 0.191,-1.5 1.21,-2.6 1.881,-1.9 2.8,-1.9 6.046,-0.3 3.102,1.6 4.15,1.7 4.428,0.6 0.269,-1 2.055,-2 3.751,-2 1.073,0 1.68,0.2 2.54,0.8 1.078,0.9 1.13,1 1.157,3 0.017,1.9 -0.01,2 -1.246,3.1 -1.189,1.1 -1.38,1.1 -2.854,1 -1.876,-0.2 -3.001,-1.1 -3.307,-2.5 -0.221,-1.1 -0.598,-1.4 -0.88,-0.6 -0.09,0.2 -0.552,0.5 -1.025,0.6 -0.873,0.2 -2.355,1.2 -3.407,2.1 -0.398,0.4 -1.095,0.6 -2.225,0.6 -1.526,0 -1.738,-0.1 -2.91,-1.3 z m -27.068,-16.7 c 0.711,-0.3 0.863,-0.5 0.708,-1 -0.11,-0.3 -0.36,-1.3 -0.557,-2.1 -0.309,-1.2 -0.469,-1.4 -1.15,-1.4 -0.734,0 -2.099,0.7 -3.34,1.9 -0.615,0.5 -0.995,1.8 -0.663,2.3 0.732,1 2.883,1.1 5.002,0.3 z m -24.845,9.4 c 0.714,-0.6 0.73,-0.7 0.702,-6.4 l -0.03,-5.8 -0.868,-0.8 c -0.832,-0.7 -1.13,-0.7 -7.057,-1 -3.403,-0.1 -6.746,-0.4 -7.429,-0.6 -0.895,-0.3 -1.695,-0.3 -2.868,-0.1 -1.06,0.2 -2.321,0.2 -3.616,0 -4.812,-0.8 -8.015,-0.2 -9.175,1.7 -0.547,0.9 -0.549,1 -0.026,1.8 0.304,0.5 0.917,1 1.362,1.1 0.445,0 1.482,0.3 2.305,0.5 0.912,0.3 2.86,0.5 4.992,0.5 1.923,0 5.162,0.1 7.199,0.2 2.036,0.1 4.867,0.3 6.291,0.3 1.856,0 2.849,0.2 3.505,0.6 l 0.916,0.6 -0.188,3 c -0.18,2.8 -0.156,3 0.563,3.6 0.866,0.7 1.902,1.3 2.368,1.3 0.177,0 0.65,-0.2 1.053,-0.5 z m -2.72,9.8 c 0,-0.1 -0.806,-0.6 -1.787,-1 -1.896,-0.9 -3.522,-2.2 -4.514,-3.7 -0.692,-1 -1.504,-3.6 -1.523,-4.9 0,-0.6 -0.207,-0.8 -0.739,-1 -2.188,-0.4 -7.745,-1.1 -11.838,-1.3 -2.568,-0.1 -7.376,-0.5 -10.686,-0.8 -7.188,-0.7 -9.932,-0.6 -10.891,0.4 -0.363,0.4 -0.816,1.2 -1.007,1.7 -0.19,0.6 -0.893,1.7 -1.56,2.6 -0.668,0.9 -1.213,1.8 -1.211,2 0,0.1 -0.142,0.3 -0.318,0.3 -0.177,0 -0.583,0.2 -0.901,0.5 -0.818,0.8 -2.471,2 -3.327,2.3 -0.399,0.2 -1.085,0.6 -1.524,0.8 -1.155,0.7 -9.205,0.7 -10.5,0.1 -0.51,-0.2 -1.37,-0.4 -1.91,-0.4 -0.542,0 -1.265,-0.2 -1.607,-0.5 -0.516,-0.3 -0.569,-0.5 -0.31,-1.3 0.371,-1 1.447,-1.3 5.604,-1.3 2.31,-0.1 2.986,-0.2 4.334,-0.9 1.614,-0.9 4.37,-2.9 4.585,-3.4 0.064,-0.1 0.385,-0.5 0.714,-0.7 0.329,-0.3 0.685,-1 0.791,-1.6 0.107,-0.6 0.473,-1.7 0.814,-2.3 0.716,-1.5 0.629,-2.3 -0.588,-5.8 -1.252,-3.6 -1.696,-4.4 -3.123,-5.6 -1.797,-1.5 -1.754,-2.2 0.256,-4.2 0.88,-0.9 2.114,-2.4 2.741,-3.4 1.022,-1.5 1.247,-1.6 2.146,-1.6 0.857,0.1 1.137,0.4 1.921,1.8 1.208,2.2 2.867,6.1 2.874,6.7 0,0.2 0.215,0.9 0.47,1.4 0.256,0.5 0.636,1.5 0.844,2.1 0.513,1.5 0.8,1.7 3.464,1.9 2.796,0.3 2.83,0.2 3.076,-3.5 0.094,-1.5 0.317,-2.8 0.495,-3 0.178,-0.1 0.32,-0.6 0.317,-0.9 -0.01,-0.7 -1.612,-5.1 -2.02,-5.6 -0.545,-0.5 -0.324,-2.1 0.487,-3.4 0.442,-0.8 0.922,-1.4 1.066,-1.4 0.145,0 0.812,-0.3 1.483,-0.8 1.677,-1.1 4.19,-1.4 5.265,-0.6 0.698,0.6 0.806,0.9 0.964,3.4 0.162,2.4 0.261,2.8 1.028,3.4 0.467,0.4 1.2,0.7 1.629,0.7 0.428,0 1.042,0.2 1.363,0.5 0.486,0.4 1.62,0.5 6.788,0.5 7.146,0.1 11.141,0.3 11.649,0.6 0.195,0.1 1.44,0.2 2.768,0.2 1.327,0 4.222,0.1 6.434,0.2 3.872,0.2 4.058,0.3 4.999,1.2 l 0.977,0.9 0.071,4.1 c 0.085,4.7 0.361,5.3 2.434,5.3 1.821,0 2.336,-0.5 2.479,-2.7 0.068,-1 0.31,-1.9 0.537,-2.1 0.227,-0.2 0.627,-0.8 0.889,-1.5 0.542,-1.2 2.782,-3.5 3.823,-3.8 0.384,-0.1 0.984,-0.5 1.335,-0.8 0.35,-0.3 1.071,-0.6 1.601,-0.7 2.315,-0.4 4.863,-1.3 5.465,-1.8 0.418,-0.4 1.192,-0.7 2.152,-0.7 1.231,-0.1 1.616,0.1 2.153,0.7 0.77,0.8 0.91,1.5 1.213,5.7 0.126,1.8 0.388,3.6 0.584,4 0.196,0.5 0.442,2.7 0.548,4.9 l 0.191,4 -1.004,1.3 -1.005,1.3 -10.407,0.1 c -5.724,0.1 -10.909,0.2 -11.52,0.3 -1.21,0.3 -1.497,0.9 -1.472,3.3 0.014,0.7 -0.205,1.3 -0.596,1.7 -0.334,0.3 -0.691,0.8 -0.793,1.2 -0.193,0.8 -2.324,2.4 -3.696,2.8 -0.44,0.2 -1.017,0.5 -1.28,0.7 -0.754,0.6 -3.17,1.7 -3.69,1.7 -0.26,0 -0.475,-0.1 -0.477,-0.3 z" fill-rule="evenodd"/><g fill-rule="evenodd"><path d="m 256.43,-352.13 c 2.86,0.167 -3.868,-15.307 -3.868,-15.307 7.569,7.737 36.163,9.587 36.163,9.587 -17.156,-7.568 -34.313,-64.756 -32.294,-110.338 1.85,-45.75 -6.56,-63.747 -13.288,-70.475 -8.578,-8.578 -36.163,-16.147 -54.328,-17.156 -10.26,-0.505 -8.578,7.737 -8.578,7.737 -19.007,-4.878 -38.013,-6.728 -46.591,-1.01 -8.074,5.383 -9.756,32.295 -3.87,27.585 14.298,-11.437 26.745,-1.009 35.323,11.438 7.569,10.933 7.064,41.881 -3.869,78.044 -11.437,38.013 -42.722,76.025 -42.722,76.025 16.988,0 40.872,-15.138 40.872,-15.138 l -5.719,23.716 c 17.997,-8.578 32.295,-21.866 32.295,-21.866 l 17.156,17.997 c 5.718,-7.569 17.156,-17.997 17.156,-17.997 0,0 14.297,15.138 36.163,17.156 z" fill="#f8c300" stroke="#000" stroke-width="5.442" transform="translate(384.384 1571.312)"/><path d="m 186.965,-461.628 c 0,0 -9.588,70.475 -27.585,90.49 m 42.722,-92.34 c 0,0 -3.7,71.316 -16.146,94.191 m 29.602,-91.332 c 0,0 0,78.044 4.71,91.332 m 12.278,-87.463 c 0,0 3.869,65.597 20.016,89.313" fill="none" stroke="#000" stroke-width="5.677" transform="translate(384.384 1571.312)"/><path d="m 169.64,-495.772 c -0.84,-6.224 -2.355,-11.102 -4.541,-14.297 -8.578,-12.447 -21.025,-22.875 -35.322,-11.438 0,0 4.878,-15.138 15.306,-15.642 8.073,-0.505 26.407,6.055 42.554,33.64 0,0 -11.942,-2.692 -14.801,-0.169 -5.382,4.71 -3.196,7.906 -3.196,7.906 z" stroke="#000" stroke-width="1.583" transform="translate(384.384 1571.312)"/><path d="m 128.263,-540.177 c 1.178,-3.868 3.028,-7.4 5.383,-8.914 8.578,-5.72 27.584,-3.869 46.59,1.009 0,0 -1.681,-8.242 8.579,-7.737 18.165,1.009 45.75,8.578 54.328,17.156 2.018,2.187 4.373,5.382 6.392,10.26 h -0.337 c -4.205,-5.887 -16.147,-5.55 -19.006,-5.214 -4.542,0.504 -7.401,0.336 -13.456,1.85 -2.86,0.673 -7.233,1.514 -9.588,3.364 -1.85,1.514 -3.363,7.065 -6.223,7.065 -4.541,0 -4.205,-1.178 -5.382,-2.523 -1.514,-1.85 -2.355,-4.542 -3.869,-4.374 -4.71,0.841 -12.279,-2.859 -21.866,-10.428 -9.587,-7.569 -13.287,-9.42 -25.734,-8.578 -12.279,1.01 -16.147,7.905 -16.147,7.905 z" stroke="#000" stroke-width="1.583" transform="translate(384.384 1571.312)"/><path d="m 198.57,-529.076 c 2.86,0 5.046,-2.186 5.046,-5.046 0,-2.86 -2.187,-5.045 -5.046,-5.045 -2.691,0 -5.046,2.186 -5.046,5.045 0,2.86 2.355,5.046 5.046,5.046 z" fill="#f8c300" stroke="#1f1a17" stroke-width="1.583" transform="translate(384.384 1571.312)"/></g><path d="m 708.893,1280.0824 a 60.898,60.898 0 0 1 -3.765,0.114 c -27.557,0 -91.564,-14.136 -116.23,-35.333 -25.842,19.58 -90.903,35.333 -118.014,35.333 -1.269,0 -2.527,-0.156 -3.774,-0.383 -0.06,6.176 0.259,12.577 0.642,18.401 1.435,21.761 5.25,43.6 11.048,64.616 18.24,66.142 55.58,122.35 109.115,164.991 53.58,-42.675 90.96,-98.932 109.243,-165.126 5.802,-21.01 9.63,-42.849 11.078,-64.613 0.382,-5.7 0.698,-11.952 0.657,-18 z" fill="none"/><path d="m 708.893,1280.0824 a 60.898,60.898 0 0 1 -3.765,0.114 c -27.557,0 -91.564,-14.136 -116.23,-35.333 -25.842,19.58 -90.903,35.333 -118.014,35.333 -1.269,0 -2.527,-0.156 -3.774,-0.383 -0.06,6.176 0.259,12.577 0.642,18.401 1.435,21.761 5.25,43.6 11.048,64.616 18.24,66.142 55.58,122.35 109.115,164.991 53.58,-42.675 90.96,-98.932 109.243,-165.126 5.802,-21.01 9.63,-42.849 11.078,-64.613 0.382,-5.7 0.698,-11.952 0.657,-18 z" fill="none"/><g fill="#fff" stroke="#000"><path d="m 203.786,-34.077 c 140.088,-107.747 127.803,-265.577 127.803,-265.577 -3.697,0.74 -7.208,1.11 -10.904,1.11 -29.386,0 -100.55,-16.811 -116.9,-38.165 -17.515,19.327 -88.059,38.165 -117.258,38.165 -3.697,0 -7.393,-0.37 -10.904,-1.11 0,0 -11.926,157.83 128.163,265.577 z" fill="#f8c300" stroke-width="4.844" transform="translate(384.384 1571.312)"/><path d="m 324.448,-291.2 a 60.618,60.618 0 0 1 -3.763,0.116 c -27.545,0 -91.528,-14.133 -116.189,-35.322 -25.832,19.575 -90.87,35.323 -117.97,35.323 -1.273,0 -2.527,-0.156 -3.772,-0.385 -0.063,6.175 0.258,12.573 0.642,18.394 1.433,21.755 5.248,43.587 11.042,64.594 18.236,66.118 55.56,122.305 109.075,164.93 53.562,-42.659 90.926,-98.9 109.202,-165.065 5.804,-21.004 9.631,-42.834 11.078,-64.588 0.38,-5.702 0.698,-11.95 0.655,-17.997 z" stroke-width="1.058" transform="translate(384.384 1571.312)"/></g><path d="m 467.064,1279.6604 c 0,0 0.076,6.956 0.148,8.412 0.071,1.452 0.313,6.714 0.497,9.18 0.188,2.467 0.9,11.536 1.128,13.319 0.228,1.783 1.184,10.209 1.526,12.162 0.342,1.955 1.555,9.88 1.797,11.036 0.242,1.156 1.41,7.442 1.895,9.625 0.486,2.182 2.909,12.548 3.366,14.26 0.456,1.71 2.466,9.01 3.122,11.135 0.657,2.125 3.68,11.692 4.349,13.688 0.671,1.997 3.936,10.88 4.806,13.147 0.87,2.267 4.463,10.979 5.404,12.918 0.94,1.94 5.703,12.263 6.573,13.931 0.87,1.668 6.118,11.194 7.243,13.19 1.126,1.997 7.388,12.69 8.084,13.66 0.699,0.968 6.333,9.724 7.615,11.464 1.283,1.74 7.428,10.167 9.14,12.377 1.71,2.21 6.874,8.769 8.897,11.02 2.026,2.254 2.475,2.796 3.274,3.695 0.797,0.899 1.498,1.723 1.498,1.723 v -224.366 c -26.786,7.732 -53.245,14.345 -80.362,14.426 z" fill="#ce1126" fill-rule="evenodd"/><path d="m 708.924,1279.7724 c 0,0 -0.042,5.304 -0.17,7.927 a 729.368,729.368 0 0 1 -0.57,10.268 c -0.2,3.035 -0.841,10.309 -1.096,12.404 -0.258,2.096 -1.07,9.497 -1.399,11.45 -0.327,1.953 -1.882,11.977 -2.153,13.232 -0.27,1.255 -2.096,10.424 -2.538,12.063 -0.443,1.64 -2.782,11.579 -3.58,14.415 -0.798,2.838 -3.549,12.348 -4.433,14.915 -0.885,2.566 -5.063,14.615 -5.618,16.028 -0.555,1.41 -4.633,11.278 -5.875,14.13 -1.24,2.851 -5.902,12.718 -6.859,14.6 -0.954,1.882 -6.972,13.175 -7.6,14.331 -0.626,1.155 -8.256,13.973 -9.323,15.528 -1.071,1.553 -8.9,12.845 -10.467,15.027 -1.569,2.182 -9.096,12.136 -11.122,14.46 -2.026,2.323 -5.918,6.944 -6.545,7.67 l -1.04,1.202 v -223.93 c 26.748,7.646 53.246,15.793 80.387,14.28 z" fill-rule="evenodd"/><path d="m 708.832,1280.1124 a 60.613,60.613 0 0 1 -3.763,0.116 c -27.547,0 -92.23,-14.133 -116.89,-35.322 -25.833,19.574 -90.17,35.322 -117.268,35.322 -1.274,0 -2.528,-0.155 -3.773,-0.384 -0.063,6.175 0.258,12.572 0.642,18.394 1.433,21.755 5.248,43.585 11.042,64.592 18.236,66.12 55.831,122.308 109.346,164.93 53.561,-42.657 90.654,-98.898 108.931,-165.064 5.804,-21.005 9.631,-42.834 11.078,-64.589 0.38,-5.7 0.698,-11.948 0.655,-17.997 z" fill="none" stroke="#000" stroke-width="2.5"/></g></svg>