<?xml version="1.0" encoding="UTF-8" standalone="no"?>
<!-- Created with Inkscape (http://www.inkscape.org/) -->
<svg
   xmlns:dc="http://purl.org/dc/elements/1.1/"
   xmlns:cc="http://web.resource.org/cc/"
   xmlns:rdf="http://www.w3.org/1999/02/22-rdf-syntax-ns#"
   xmlns:svg="http://www.w3.org/2000/svg"
   xmlns="http://www.w3.org/2000/svg"
   xmlns:sodipodi="http://sodipodi.sourceforge.net/DTD/sodipodi-0.dtd"
   xmlns:inkscape="http://www.inkscape.org/namespaces/inkscape"
   id="svg2"
   sodipodi:version="0.32"
   inkscape:version="0.45.1"
   width="735.98425"
   height="875.24774"
   version="1.0"
   sodipodi:docbase="E:\WIKIPEDIA\SVG\Herby gmin"
   sodipodi:docname="POL_gmina_Żółkiewka_COA.svg"
   inkscape:output_extension="org.inkscape.output.svg.inkscape">
  <metadata
     id="metadata7">
    <rdf:RDF>
      <cc:Work
         rdf:about="">
        <dc:format>image/svg+xml</dc:format>
        <dc:type
           rdf:resource="http://purl.org/dc/dcmitype/StillImage" />
      </cc:Work>
    </rdf:RDF>
  </metadata>
  <defs
     id="defs5" />
  <sodipodi:namedview
     inkscape:window-height="707"
     inkscape:window-width="836"
     inkscape:pageshadow="2"
     inkscape:pageopacity="0.0"
     guidetolerance="10.0"
     gridtolerance="10.0"
     objecttolerance="10.0"
     borderopacity="1.0"
     bordercolor="#666666"
     pagecolor="#ffffff"
     id="base"
     inkscape:zoom="0.48639399"
     inkscape:cx="372.17209"
     inkscape:cy="461.49339"
     inkscape:window-x="66"
     inkscape:window-y="27"
     inkscape:current-layer="svg2"
     width="744.09449px"
     height="1052.3622px"
     showguides="true"
     inkscape:guide-bbox="true" />
  <g
     id="g2211">
    <g
       transform="translate(743.64343,-5.9966588)"
       id="g3170">
      <path
         sodipodi:nodetypes="cccccccccc"
         id="path3168"
         d="M -743.59089,6.0492006 L -7.6591733,6.0492006 L -7.6591733,768.90246 C -8.2383911,808.15367 -37.625186,839.25738 -76.698996,839.24264 L -275.31526,839.21108 C -315.29358,839.21534 -351.09634,851.47225 -375.31056,881.24442 C -397.62329,848.21231 -431.49797,838.92043 -469.07787,840.22256 L -659.58827,840.5794 C -703.43246,840.05452 -740.73538,809.12541 -743.59089,768.90246 L -743.59089,6.0492006 z "
         style="fill:#000000;fill-opacity:1;fill-rule:nonzero;stroke:none;stroke-width:5.36103582;stroke-linejoin:round;stroke-miterlimit:4;stroke-opacity:1" />
      <path
         style="fill:#007cc2;fill-opacity:1;fill-rule:nonzero;stroke:none;stroke-width:5.25595188;stroke-linejoin:round;stroke-miterlimit:4;stroke-opacity:1"
         d="M -743.64343,5.9966588 L -26.551453,5.9966588 L -26.551453,758.5011 C -27.115843,797.21983 -55.750341,827.90159 -93.823868,827.88705 L -287.35558,827.85592 C -326.31047,827.86012 -361.19668,839.95075 -384.79102,869.31903 C -406.53255,836.73503 -439.54004,827.5692 -476.1579,828.85367 L -661.79126,829.20567 C -704.51305,828.68791 -740.86102,798.17838 -743.64343,758.5011 L -743.64343,5.9966588 z "
         id="rect2194"
         sodipodi:nodetypes="cccccccccc" />
    </g>
    <g
       transform="translate(836.30363,0)"
       id="g3184"
       style="stroke:#000000;stroke-opacity:1">
      <path
         style="fill:#000000;fill-opacity:1;fill-rule:nonzero;stroke:#000000;stroke-width:3.58062649;stroke-linejoin:round;stroke-miterlimit:4;stroke-opacity:1"
         d="M -542.71875,39.03125 L -485.84375,135.25 L -582.40625,78.71875 L -582.40625,232.125 L -485.375,173.875 L -542.71875,271.8125 L -389.3125,271.8125 L -450.28125,170.28125 L -349.625,232.125 L -349.625,78.71875 L -450.25,138.1875 L -389.3125,39.03125 L -542.71875,39.03125 z "
         id="rect3174" />
      <path
         id="path3182"
         d="M -543.81467,38.983947 L -488.4424,132.66043 L -582.45355,77.622835 L -582.45355,226.97583 L -487.98604,170.26489 L -543.81467,265.61472 L -394.46167,265.61472 L -453.81952,166.7661 L -355.82278,226.97583 L -355.82278,77.622835 L -453.7891,135.52032 L -394.46167,38.983947 L -543.81467,38.983947 z "
         style="fill:#ffffff;fill-opacity:1;fill-rule:nonzero;stroke:#000000;stroke-width:3.48602009;stroke-linejoin:round;stroke-miterlimit:4;stroke-opacity:1" />
    </g>
    <g
       transform="translate(836.30363,327.86707)"
       id="g3188"
       style="stroke:#000000;stroke-opacity:1">
      <path
         id="path3190"
         d="M -542.71875,39.03125 L -485.84375,135.25 L -582.40625,78.71875 L -582.40625,232.125 L -485.375,173.875 L -542.71875,271.8125 L -389.3125,271.8125 L -450.28125,170.28125 L -349.625,232.125 L -349.625,78.71875 L -450.25,138.1875 L -389.3125,39.03125 L -542.71875,39.03125 z "
         style="fill:#000000;fill-opacity:1;fill-rule:nonzero;stroke:#000000;stroke-width:3.58062649;stroke-linejoin:round;stroke-miterlimit:4;stroke-opacity:1" />
      <path
         style="fill:#ffffff;fill-opacity:1;fill-rule:nonzero;stroke:#000000;stroke-width:3.48602009;stroke-linejoin:round;stroke-miterlimit:4;stroke-opacity:1"
         d="M -543.81467,38.983947 L -488.4424,132.66043 L -582.45355,77.622835 L -582.45355,226.97583 L -487.98604,170.26489 L -543.81467,265.61472 L -394.46167,265.61472 L -453.81952,166.7661 L -355.82278,226.97583 L -355.82278,77.622835 L -453.7891,135.52032 L -394.46167,38.983947 L -543.81467,38.983947 z "
         id="path3192" />
    </g>
    <g
       style="fill:#000000;fill-opacity:1"
       transform="translate(6,4)"
       id="g2205">
      <path
         sodipodi:nodetypes="cccccccccccc"
         d="M 476.65171,338.77622 C 501.70214,353.93086 512.41965,376.25197 518.4702,400.90655 L 520.85983,739.03894 L 588.96423,739.03894 C 605.79187,639.32208 629.03185,554.75954 628.39309,446.30949 C 619.50384,299.76924 487.01788,264.3492 367.93007,264.69775 C 250.23114,265.04364 116.3563,299.76924 107.46705,446.30949 C 106.82829,554.75954 130.06827,639.32208 146.89591,739.03894 L 215.00031,739.03894 L 217.38994,400.90655 C 223.44049,376.25197 234.158,353.93086 259.20843,338.77622 L 476.65171,338.77622 z "
         style="fill:#000000;fill-opacity:1;fill-rule:evenodd;stroke:#000000;stroke-width:3.54330707;stroke-linecap:butt;stroke-linejoin:miter;stroke-miterlimit:4;stroke-dasharray:none;stroke-opacity:1"
         id="path2207" />
      <path
         sodipodi:nodetypes="cccccccccccccccccccccccc"
         d="M 466.65853,356.90551 C 487.61597,358.55139 501.68884,377.35867 504.12905,400.62112 L 501.00651,740.97837 C 502.12845,763.72864 517.72585,772.66143 543.16084,772.2038 L 672.7464,772.2038 C 680.44349,773.02275 689.09726,769.92945 688.35912,759.71363 L 688.35912,737.85583 C 688.13596,724.98732 682.01352,719.62698 669.62386,722.24311 L 540.0383,725.36565 C 528.05865,725.06131 525.06742,717.23442 524.42558,708.19166 L 522.86431,395.93731 C 511.72161,316.63474 426.76414,316.29039 366.54898,313.1899 C 306.33382,316.29039 221.37635,316.63474 210.23365,395.93731 L 208.67238,708.19166 C 208.03054,717.23442 205.03931,725.06131 193.05966,725.36565 L 63.4741,722.24311 C 51.08444,719.62698 44.962,724.98732 44.73884,737.85583 L 44.73884,759.71363 C 44.0007,769.92945 53.48402,771.36365 60.35156,772.2038 L 189.93712,772.2038 C 215.37211,772.66143 230.96951,763.72864 232.09145,740.97837 L 228.96891,400.62112 C 231.40912,377.35867 245.48199,358.55139 266.43943,356.90551 L 466.65853,356.90551 z "
         style="fill:#000000;fill-opacity:1;fill-rule:evenodd;stroke:#000000;stroke-width:3.54330707;stroke-linecap:butt;stroke-linejoin:miter;stroke-miterlimit:4;stroke-dasharray:none;stroke-opacity:1"
         id="path2209" />
    </g>
    <g
       id="g2201">
      <path
         id="path3201"
         style="fill:#c2c2c0;fill-opacity:1;fill-rule:evenodd;stroke:#000000;stroke-width:3.54330707;stroke-linecap:butt;stroke-linejoin:miter;stroke-miterlimit:4;stroke-dasharray:none;stroke-opacity:1"
         d="M 476.65171,338.77622 C 501.70214,353.93086 512.41965,376.25197 518.4702,400.90655 L 520.85983,739.03894 L 588.96423,739.03894 C 605.79187,639.32208 629.03185,554.75954 628.39309,446.30949 C 619.50384,299.76924 487.01788,264.3492 367.93007,264.69775 C 250.23114,265.04364 116.3563,299.76924 107.46705,446.30949 C 106.82829,554.75954 130.06827,639.32208 146.89591,739.03894 L 215.00031,739.03894 L 217.38994,400.90655 C 223.44049,376.25197 234.158,353.93086 259.20843,338.77622 L 476.65171,338.77622 z "
         sodipodi:nodetypes="cccccccccccc" />
      <path
         id="path3194"
         style="fill:#ffffff;fill-opacity:1;fill-rule:evenodd;stroke:#000000;stroke-width:3.54330707;stroke-linecap:butt;stroke-linejoin:miter;stroke-miterlimit:4;stroke-dasharray:none;stroke-opacity:1"
         d="M 466.65853,356.90551 C 487.61597,358.55139 501.68884,377.35867 504.12905,400.62112 L 501.00651,740.97837 C 502.12845,763.72864 517.72585,772.66143 543.16084,772.2038 L 672.7464,772.2038 C 680.44349,773.02275 689.09726,769.92945 688.35912,759.71363 L 688.35912,737.85583 C 688.13596,724.98732 682.01352,719.62698 669.62386,722.24311 L 540.0383,725.36565 C 528.05865,725.06131 525.06742,717.23442 524.42558,708.19166 L 522.86431,395.93731 C 511.72161,316.63474 422.51074,313.10034 366.54898,313.1899 C 308.46052,313.10034 221.37635,316.63474 210.23365,395.93731 L 208.67238,708.19166 C 208.03054,717.23442 205.03931,725.06131 193.05966,725.36565 L 63.4741,722.24311 C 51.08444,719.62698 44.962,724.98732 44.73884,737.85583 L 44.73884,759.71363 C 44.0007,769.92945 53.48402,771.36365 60.35156,772.2038 L 189.93712,772.2038 C 215.37211,772.66143 230.96951,763.72864 232.09145,740.97837 L 228.96891,400.62112 C 231.40912,377.35867 245.48199,358.55139 266.43943,356.90551 L 466.65853,356.90551 z "
         sodipodi:nodetypes="cccccccccccccccccccccccc" />
    </g>
    <g
       transform="translate(1000.1919,0)"
       style="fill:#a1a09e;fill-opacity:1;stroke:#000000;stroke-width:3.54330707;stroke-miterlimit:4;stroke-dasharray:none;stroke-opacity:1"
       id="g3218">
      <path
         style="fill:#a1a09e;fill-opacity:1;fill-rule:evenodd;stroke:#000000;stroke-width:4.96062994;stroke-linecap:butt;stroke-linejoin:miter;stroke-miterlimit:4;stroke-dasharray:none;stroke-opacity:1"
         d="M -401.67512,614.18558 L -417.2077,697.82256 L -441.10398,675.12109 L -433.43472,626.52186 L -401.67512,614.18558 z "
         id="path3208"
         sodipodi:nodetypes="ccccc" />
      <path
         sodipodi:nodetypes="ccccc"
         id="path3210"
         d="M -385.6523,496.25002 L -397.41025,580.50058 L -422.30266,558.89603 L -417.64536,512.05614 L -385.6523,496.25002 z "
         style="fill:#a1a09e;fill-opacity:1;fill-rule:evenodd;stroke:#000000;stroke-width:4.96062994;stroke-linecap:butt;stroke-linejoin:miter;stroke-miterlimit:4;stroke-dasharray:none;stroke-opacity:1" />
      <path
         style="fill:#a1a09e;fill-opacity:1;fill-rule:evenodd;stroke:#000000;stroke-width:4.96062994;stroke-linecap:butt;stroke-linejoin:miter;stroke-miterlimit:4;stroke-dasharray:none;stroke-opacity:1"
         d="M -405.14104,377.68746 C -390.72373,403.92818 -384.96485,432.07493 -384.10207,460.11177 L -415.32411,449.54896 C -414.56603,430.04292 -421.51138,416.31445 -427.92797,402.18941 L -405.14104,377.68746 z "
         id="path3212"
         sodipodi:nodetypes="ccccc" />
      <path
         sodipodi:nodetypes="ccccc"
         id="path3214"
         d="M -501.68667,296.57713 C -472.99735,305.14203 -449.13577,321.14294 -428.83799,340.50292 L -458.4876,354.90046 C -471.64205,340.47754 -486.22613,335.57718 -500.71208,330.02321 L -501.68667,296.57713 z "
         style="fill:#a1a09e;fill-opacity:1;fill-rule:evenodd;stroke:#000000;stroke-width:4.96062994;stroke-linecap:butt;stroke-linejoin:miter;stroke-miterlimit:4;stroke-dasharray:none;stroke-opacity:1" />
    </g>
    <path
       sodipodi:nodetypes="cccc"
       id="path3216"
       d="M 268.25021,274.55555 C 325.81702,263.79826 402.23205,263.11236 469.63834,274.55555 C 469.44092,310.89595 403.60021,305.83841 370.33316,306.61927 C 334.83955,306.31134 268.63588,307.86028 268.25021,274.55555 z "
       style="fill:#ffffff;fill-opacity:1;fill-rule:evenodd;stroke:#000000;stroke-width:3.54330707;stroke-linecap:butt;stroke-linejoin:miter;stroke-miterlimit:4;stroke-dasharray:none;stroke-opacity:1" />
    <g
       style="fill:#a1a09e;fill-opacity:1;stroke:#000000;stroke-width:3.54330707;stroke-miterlimit:4;stroke-dasharray:none;stroke-opacity:1"
       transform="matrix(-1,0,0,1,-272.7755,0)"
       id="g3224">
      <path
         sodipodi:nodetypes="ccccc"
         id="path3226"
         d="M -408.82516,615.97309 L -424.35774,699.61007 L -448.25402,676.9086 L -440.58476,628.30937 L -408.82516,615.97309 z "
         style="fill:#a1a09e;fill-opacity:1;fill-rule:evenodd;stroke:#000000;stroke-width:4.96062994;stroke-linecap:butt;stroke-linejoin:miter;stroke-miterlimit:4;stroke-dasharray:none;stroke-opacity:1" />
      <path
         style="fill:#a1a09e;fill-opacity:1;fill-rule:evenodd;stroke:#000000;stroke-width:4.96062994;stroke-linecap:butt;stroke-linejoin:miter;stroke-miterlimit:4;stroke-dasharray:none;stroke-opacity:1"
         d="M -392.80234,498.03753 L -404.56029,582.28809 L -429.4527,560.68354 L -424.7954,513.84365 L -392.80234,498.03753 z "
         id="path3228"
         sodipodi:nodetypes="ccccc" />
      <path
         sodipodi:nodetypes="ccccc"
         id="path3230"
         d="M -412.29108,379.47497 C -397.87377,405.71569 -392.11489,433.86244 -391.25211,461.89928 L -422.47415,451.33647 C -421.71607,431.83043 -428.66142,418.10196 -435.07801,403.97692 L -412.29108,379.47497 z "
         style="fill:#a1a09e;fill-opacity:1;fill-rule:evenodd;stroke:#000000;stroke-width:4.96062994;stroke-linecap:butt;stroke-linejoin:miter;stroke-miterlimit:4;stroke-dasharray:none;stroke-opacity:1" />
      <path
         style="fill:#a1a09e;fill-opacity:1;fill-rule:evenodd;stroke:#000000;stroke-width:4.96062994;stroke-linecap:butt;stroke-linejoin:miter;stroke-miterlimit:4;stroke-dasharray:none;stroke-opacity:1"
         d="M -508.83671,298.36464 C -480.14739,306.92954 -456.28581,322.93045 -435.98803,342.29043 L -465.63764,356.68797 C -478.79209,342.26505 -493.37617,337.36469 -507.86212,331.81072 L -508.83671,298.36464 z "
         id="path3232"
         sodipodi:nodetypes="ccccc" />
    </g>
  </g>
</svg>
