<?xml version="1.0" encoding="UTF-8"?>
<svg id="Layer_1" xmlns="http://www.w3.org/2000/svg" version="1.1" viewBox="0 0 434.7 506.6">
  <!-- Generator: Adobe Illustrator 29.0.0, SVG Export Plug-In . SVG Version: 2.1.0 Build 186)  -->
  <defs>
    <style>
      .st0, .st1, .st2, .st3, .st4, .st5, .st6, .st7, .st8, .st9 {
        fill-rule: evenodd;
      }

      .st0, .st10, .st4 {
        fill: #fff;
      }

      .st0, .st3, .st11, .st7, .st12, .st9, .st13 {
        stroke: #000;
      }

      .st0, .st11, .st7, .st9, .st13 {
        stroke-miterlimit: 10;
      }

      .st1, .st3, .st14 {
        fill: #fff008;
      }

      .st15, .st2 {
        fill: #0093d0;
      }

      .st3, .st16, .st12 {
        stroke-linecap: round;
        stroke-linejoin: round;
      }

      .st3, .st7 {
        stroke-width: 2px;
      }

      .st16 {
        stroke: #543019;
        stroke-width: 1.9px;
      }

      .st16, .st12 {
        fill: none;
      }

      .st17 {
        fill: #794500;
      }

      .st18, .st11, .st13 {
        fill: #e8d3ac;
      }

      .st5 {
        fill: #ce1126;
      }

      .st6 {
        fill: #00aa4f;
      }

      .st11 {
        stroke-width: .6px;
      }

      .st7 {
        fill: #58585a;
      }

      .st19 {
        fill: #543019;
      }

      .st12 {
        stroke-width: 5.1px;
      }

      .st20 {
        fill: #939598;
      }

      .st9 {
        fill: #08338f;
      }

      .st9, .st13 {
        stroke-width: 4.8px;
      }
    </style>
  </defs>
  <path id="path48" class="st9" d="M259.9,2.4H2.5v436.3c0,30,26.6,54.5,59.1,54.5h133.7c8,0,17.9,3.9,21.9,9.2,4.5-5.5,13.3-9.2,21.1-9.2h135c32.5,0,59.1-24.6,59.1-54.5V2.4h-172.3Z"/>
  <path id="path481" class="st8" d="M250.8,40.8H43.6v351c0,24.1,21.4,43.9,47.5,43.9h107.6c6.4,0,14.4,3.1,17.6,7.4,3.6-4.4,10.7-7.4,17-7.4h108.7c26.2,0,47.5-19.8,47.5-43.9V40.8h-138.7Z"/>
  <path class="st1" d="M48,250.9v138c0,23.4,20.5,42.7,45.5,42.7h103.3c6.2,0,13.8.3,16.9,4.5v-185.2H48Z"/>
  <polygon class="st5" points="222.4 44.7 385.8 240.7 385.8 44.7 222.4 44.7"/>
  <polygon class="st6" points="48 44.7 48 240.3 211.2 44.7 48 44.7"/>
  <polygon class="st4" points="216.8 44.7 48 246.8 385.8 246.8 216.8 44.7"/>
  <g>
    <path d="M230.3,87.5c.9-.7,1.4-1.7,1.1-2.6-.2-.5-.5-.8-.7-1,.9-2.3,2.1-3.4,3.1-4,.4-.2,1.1-.6,1.8-1.4.4-.5,1.2-1.4,1-2.3-.2-.8-1.2-1.2-2.2-1.6-1.2-.5-1.6-.4-1.8-.7-.3-.7.9-1.3,1-2.8,0-.3.1-1.6-.6-2.1-.6-.4-1.3-.2-2.1,0-1.2.3-1.2.6-1.7.7-1.7.2-2.3-2.7-4.3-2.8-1,0-2,.6-2.3,1.4-.4,1,.3,2.1,1,3,1.6,2.4,3.1,2.5,3.8,4.2.3.7.5,1.8-.1,3.4-.1-.1-.9-1-1.8-.9-1.2,0-2,1.5-2,2.6,0,1,.9,1.4,1.1,2.7.1.7,0,1.3-.1,1.6-1-.7-2.6-1.7-4.7-2.1-4.4-1.1-8,.4-9.3,1,.6-1,1.3-2.9,1-4.8-.2-1.1-.6-1.4-.7-1.4-.4-.2-1.1-.1-2.4,0-.6,0-.7.1-.8,0-.6-.4.4-2.6.4-2.8,1.4-3,3.1-3,3.6-5.2.2-1.2.1-2.9-.9-3.5-.9-.5-2.5,0-3.1.9-.6.8-.4,1.5-.9,1.7-.7.3-1.4-1.2-3-1.4-.9,0-2.1.2-2.4,1-.5,1.2,1.6,2.4,1.2,3.9,0,.3-.8.9-2.1,2.1-1,.9-1.4,1.2-1.4,1.7,0,.2,0,.8.9,1.9,1.4,1.6,2.6,1.7,3.6,2.5.9.7,1.6,2.3,1.2,5.5-.2,0-1.8-.7-3.5.3-1,.7-1.8,1.8-1.8,3.1,0,1.7,1.5,2.8,2.8,3.7,3.3,2.5,5.4,1.6,6.2,3.2.8,1.7-1,2.9-.9,6.7,0,1.6.4,2.8.7,3.6-1.3,3.1-2,5-2.4,6.2-.3.9-.6,1.7-1.1,2.9-.6,1.3-.7,1.3-.7,1.7-.1,1.5,1.2,2.1,1.2,3.8,0,.5,0,1.2-.7,2.1-9-.3-14,1.8-16.9,4.1-.5.4-3.4,2.6-6.6,5-3.9,2.9-4.7,3.6-6.2,4.2-.7.3-2.1.6-3.3,1.7-.4.4-.6.6-1.3,1.3s-1.3,1-2,1.6c-1.8,1.4-2.6,2-3.1,2.6-.9,1.2-.4,1.5-1.4,3.3-.9,1.5-1.4,1.5-2.1,2.9-.9,1.5-.7,2.4-1.1,4.1-.6,2.6-1.8,4.1-2.5,5.3-2.1,3.9.5,6.7.6,16.1,0,7.2-.9,13.7-.9,13.7-.4,2.6-.7,3.8-.2,5.3,1.2,4.3,6.4,6.6,10.6,7.9-.4,2.1-.6,3.9-.6,5.2,0,1.9-.1,2.9.1,4.1.6,2.5,1.5,2.8,1.4,4.7,0,.8-.1,2.5-1.2,3.4-.4.4-.9.6-1.1,1.3,0,.2-.3.8,0,1.4s.7.6,1,1.2c0,.1.3.6.2,1.2-.1.6-.6.6-.7,1.1-.1.7.9,1,1,2,0,.4-.1.5-.4,1.2,0,0-.3.9-.5,2.1-.2,1.5.9,2.8,2.1,4.2.4.4,1.7,1.9,4.1,3.6,2.4,1.6,3.6,2.5,5.5,2.6,1.7.2,2.9-.3,4.8-.9,2.5-.9,3.7-1.2,3.9-2.1.4-1.3-1.5-2.1-4.8-6.6-2.2-2.9-2.4-4-2.3-4.8.1-1.2.6-1.5.8-3.1.1-1.6-.4-2-.4-3.6,0-1.3.2-1.8.9-4.7.2-1.2.7-2.8,1-4.8-.2,2.1-.4,4-.4,5.3s0,1.7.3,3.2c.3,1.4.5,2.3,1.2,2.6s2-.2,2.3-.4c.1.2.6,1,1.6,1.3s2.1,0,2.9-.9c.5,1.2,1.5,2,2.5,2,.5,0,.9-.2,1.2-.4.2.2.9.9,2.1,1,1.3.1,2.2-.6,2.3-.7.2.4.7.7,1.2.8.7,0,1.2-.5,1.2-.6-.3.9-.1,2,.5,2.6s.9.6,1.2.6c-.2.7-.6,1.9-.6,3.4.1,3.1,1.8,5.3,2.9,6.8,1.3,1.6,2.5,2.6,3.2,3.1,1.8,1.4,2.9,2.2,4.8,2.3,2,.1,3.5-.9,3.7-1,.4-.3,1-.7,1.4-1.2,1.3-2-.6-5.5-1.8-7.7-1.5-2.8-2.7-3.7-2.5-5.6.1-.8.3-.7.6-2.1.2-1.3.2-2.3.2-4.3,0-1.5-.1-2-.5-2.7-.2-.5-.6-.8-.8-1,.6-.8,1.4-1.9,1.9-3.4.6-1.6.9-2.9.9-4,1,.5,3.4,1.5,6.2,1,4.2-.7,8.3-4.5,8.5-9.6.2-5-3.4-9.5-8.5-10.4-.1-.4-.4-1.3-1.2-2-.2-.2-.5-.4-.7-.5.1-.6,1.1-6.5,1.2-11.2,0-1.8,0-3.7-.9-5.7-.2-.4-.3-.6-.3-.7-1.6-3.4.7-10.4,1.4-12.5,2.1-6.4,3.1-9.6,3.4-12.5.2-2.3.6-5-.1-8.5-.9-4.2-2.2-4.2-2-6.5.4-4.3,5.2-7.6,4.6-10.1,0-.1-.2-.9-.5-2.2-.2-.9-.3-1.4-.4-1.7-.3-1.8.5-2.5.4-4,0-.7-.2-1.2-1-2.9-.5-1.1-1.3-2.9-2.3-5.2.2-.9.6-2.2,1-3.8,1-4.2.8-4.4,1.3-5,1.7-2.2,4.6-.7,7.2-3.2.3-.3,2-1.9,1.6-3.4-.4-1.4-2.5-2.3-5.2-2.1h0ZM213.3,188.5c-5.2-4.6-9.4-8.6-12.8-11.7-1.2-1.2-3.1-2.9-4-5.8-.6-1.8-.6-3.4-.5-4.5,1-1,2.3-2.5,3.3-4.3,1.8-3.1,2.3-6.1,2.5-8,.9,0,2.1,0,3.4-.4,2.6-.7,4.4-2.2,5.3-3.1.2.4.4.9.5,1.5.2,1.3-.2,2.3-.6,3.3,0,0-.1.4-.6,4.1-.6,3.9.9,5.6,1.1,10.8.2,5.7-1.5,7,0,9.9.6,1,1.4,2.1,1.8,4.1.4,1.7.4,3.1.4,4.1h0Z"/>
    <g>
      <path class="st14" d="M169,146.4c1.2,2.5,5.2,4.4,6.1,4.8,3.4,1.7,3.7.6,5.3,2,1.8,1.6,2,3.4,4.2,4.5.8.4,1.5.5,2.1.6,0-.7.1-1.3.2-1.9,0-1.9.4-4.8,1.6-9.2-.9-.4-4.2-1.8-6.1-5.5-1.5-2.9-1.4-5.7-1.4-6.8-.5.3-1.2.8-2,1.5-2.1,1.8-2,2.5-3.4,3.1-1.8.9-2.9,0-3.7,1.1-.6.8,0,1.5-.8,2.1-.7.7-1.4,0-2.5.8-.4.2-.7.6-.9.9.8,1,1.2,1.8,1.3,2h0ZM176.9,139.4c.2-.1.7,1.6,2.5,3.3,1.2,1.2,2.4,1.8,2.3,2,0,.2-.9,0-1.4-.2-1.9-.7-2.8-2.5-2.9-2.9-.5-.9-.7-2.1-.5-2.1ZM172,142.9c0-.3.4-.7.7-.7s.7.7,1,1.2c1.4,2.3,3.9,2.8,3.7,3.4,0,.2-.6.4-.8.4-2.2.2-5-2.7-4.6-4.3h0Z"/>
      <path class="st14" d="M184.7,158.4c-2.4-1.2-2.3-3-4.3-4.3-1.4-.9-1.6-.1-4.2-1-2.8-.9-4.6-2.5-6-3.6-1.6-1.4-2.7-2.3-3.3-4-.2-.6-.3-1.1-.4-1.5h0c-.3,0-.7.4-.7.5-.7.9.4,2,0,3.3-.4,1.4-1.7,1.3-1.9,2.5-.1,1,.7,2,.7,2,1,1.2,2.8.9,4.1,1,2.5.1,2.4,1.4,7.6,4.1,1.1.6,8.5,4.4,8.5,5.6s0,.4.2.6c.2.3.6.6.8.5.5-.1.5-1.5.7-2.8.1-.9.2-1.7.3-2.3-.6.1-1.8-.5-2-.6h0Z"/>
    </g>
    <path class="st18" d="M224.2,137.1c-.1-.2-.7-1.2-1-2.8-.3-1.2-.3-2.3-.2-2.9-1.2,2.3-2.8,3.1-3.3,3.3-4.2,1.7-9.5-2.3-10.6-5.8-.2-.7-.4-2-.2-2.1.2-.1,1,1.1,1.5,2,.6.8,3.8,5.9,6.8,5.6,1.9-.2,3.1-2,4.4-4.1,3.2-4.9,4.5-11.6,2.7-12.6-.3-.2-.7-.1-1.4,0-2.1.3-2.7,1.9-4.2,2-.6,0-.7-.2-2.5-1.2-2.6-1.3-4.2-2.1-5.4-1.5-.9.5-1.2,1.8-1.4,2.3-.4,1.7.4,2.5-.2,3.8-.1.2-.7,1.3-1.5,1.3s-1.3-1-1.4-1.1c-.1.4-.3,1-.8,1.6-1.7,2-4.8.9-9,1.6-3.3.6-5.6,2-7.7,3.4-2.6,1.7-5.7,3.7-6.1,7-.1,1.2.1,2,.3,2.8,1.1,4.1,4.8,6.3,6.1,6.9.3-.7.6-1.5.9-2.3.9-2,1.8-3.7,2.8-5.3-.2.9-.5,2.4-1,4.1-1,3.4-2,5.4-2.5,6.8-2,4.9-.9,6.4-2.5,14.2-1.2,6-1.8,4.5-2.5,8.9-.9,5.6-.6,12.7-1.8,16.9-.2.5-.2.8-.4,1.4-.3,1.2-1.2,5-.1,5.6.4.2.9-.2,1.3.2.4.3.1.7.6,1,.4.3.7.1,1.2.4.2.1.6.4.8,1,.3-.6.9-1.5,1.8-2.4.9-.9,1.7-1.4,2.3-1.7.1-.4.2-.9,0-1.5-.3-1-1.2-1.5-1.5-1.8-.9-.7-1.5-2.6.4-10,1.8-6.8,2.9-7.7,2.9-10.9s0-2.1.4-4.1c.4-1.7,1-2.9,1.4-3.5,1.3-2.5,4.3-8.2,8.5-15.7-.6,1.7-1.2,3.5-1.9,5.2,2.1-.2,6.3-1.2,9.9-4.5,1-1,1.8-2,2.4-2.9-.1.4-.3.8-.5,1.2-.5,1-1,1.8-1.5,2.5,1.8-.6,2.8-1.5,3.4-2.1,1.8-2,1.7-4.1,3.9-6.1.7-.7,1.5-1.1,2-1.4-.3.5-.8,1.2-1.4,2.1-1.2,2.2-1.5,3.3-2.1,4.2-.7,1.2-2,2.6-4.8,3.7.2.1.6.4.9.8.7,1,.6,2.2.3,3.3-.6,2.9-1,3.7-1.2,5.2-.3,2,.2,3.4.6,5,1.5,6.3-.6,7.4.7,14.1.9,4.4,2,5,2.3,9.5.2,2.5.1,4.5,0,5.9.7-.6,2.2-1.5,4.2-1.7.7,0,1.4,0,1.8.1,0-.3.1-.7,0-1.2-.2-.6-.9-.9-1-1-1.8-1,1.4-9.3-.1-16.4-.4-2-.7-1.4-1.2-3.4-1-4.2,0-7.3,2.1-14.7,1.5-5.3,4.6-15.4,2.9-18.5h0ZM204.5,136.7c-.2.2-.4.4-.6.5-.2-2.3-1.5-4.2-3.6-5-2.2-.9-4.2,0-4.6.1,0-.4,0-.8.2-1.2,1.1-1.5,5.7-1.1,7.7,1.4.9,1.1,1.6,3.1.9,4.2h0ZM215.5,140.4c-.6.7-1,1.2-1.7,1.3-.5,0-1.2-.1-1.2-.4s.4-.4.9-.7c.6-.4.7-.7,2.3-2.6,1-1.3,1.6-2,1.7-1.9.2.1-.6,2.5-2,4.4Z"/>
    <path class="st14" d="M200.9,153.9c-.2-.1-.6,0-.8.2-1.4.8-1.1,2.4-1.9,4.4-1.2,3.1-4.1,4.3-3.6,5.4,0,0,.2.4.5.5.4,0,.9-.6,1-.9,1.5-2.2,5.8-8.9,4.7-9.6h0Z"/>
    <path class="st15" d="M186.1,205.3c-.4-2-.3-3.6-.1-4.7-.4,0-1-.2-1.4-.7-.4-.4-.4-.7-.8-1-.6-.4-1-.2-1.7-.5s-.7-.6-1-1.5-.7-2-.7-3.5,0-.9.2-1.8c.2-1.7.6-3.2.8-4.2.1-.4.1-.5.2-.9.4-1.5.4-2.1.4-2.6v-.4c-.1-1.5-.1-4.7,0-6.5.2-4,1.4-7.4,2.3-10.1.4-1,.7-1.8.9-2.5-3.3-1.8-5.8-3.4-7.6-4.6-4.5-3.1-4.5-3.7-6.8-4.5-2.4-.8-4.4-.7-6.8-2.4-.9-.7-1.6-1.4-2-1.8-.9,2.6-1.7,5.2-2.6,7.8.9-1.6,1.8-3.3,2.7-4.8-.7,1.8-1.6,4.4-2.1,7.7-.4,2.3-.4,3.8-.2,10.7.5,14.5.8,15.7,0,18.6-.2.7-.5,1.5-.3,2.6.5,3.6,5.1,5.8,9,7.2,1.4-12.4-.4-19.6-2.3-23.9-.6-1.4-2.6-5.2-2.3-10.2.2-3.1,1.1-5.6,1.9-7.2-.6,2.4-1,6.1-.3,10.4.6,3.3,1.6,5.6,1.9,6.3,1.7,3.9,3.3,11.8,2.6,29,2.6,1.5,4.8,2.5,6.4,3.3,1,.4,2,.9,3.2.7s1.7-.8,2.8-1.2c1-.4,2.5-.6,4.7.1-.4-.5-.9-1.5-1.2-2.8h-.1ZM164.8,182.4c1,5.8.2,10.7-.7,14.1-.4-3.4-.6-7.1-.6-11.1,0-2.6,0-5.2.1-7.6.5,1.4.9,2.9,1.2,4.6Z"/>
    <path class="st14" d="M196,194.5c-4.5-.1-8.5,3.4-8.8,8-.3,4.7,3.4,8.9,8,9.1,5.1.3,9.4-4.4,9-9.3-.4-4.1-3.8-7.7-8.2-7.9h0Z"/>
    <path class="st14" d="M220.8,192.8c-4.2.4-7.6,3.9-7.6,8.2s4,8.3,8.5,8.2c4.4-.1,8.1-3.9,8-8.3,0-4.7-4.4-8.4-9-8h0Z"/>
    <path class="st14" d="M178.7,219.7c.1,0,0,.3,0,.6,0,.9,1.2,1.3,1.1,1.8s-1.2.5-1.2,1,.6.4.7,1c.1.4-.2,1-.6,1.2-.5.2-.9,0-1,.1-.1.2.6.9.6,1,.4.4.7.5.7.6,0,.2-.6.1-1.5.4-.2,0-.3.1-.4.1-.4.4,0,1.2-.3,1.4-.2.2-.7-.1-1-.4-.4-.4-.4-.7-.7-.8-.4,0-.6,1-1,1s-.3-.7-.9-1.1c-.3-.2-.6-.2-1.7-.3-1.1-.2-1.7-.2-1.8-.5-.1-.4.4-1.1.9-1.2.2,0,.3,0,.5-.1.1-.1.2-.3.2-.5-.1-.3-.9-.1-1-.4-.2-.4.6-.8.5-1.5,0-.3-.2-.6-.5-.7-.6-.2-1,.3-1.4,0-.3-.2-.4-.9-.1-1.4.5-1,2.2-1,2.5-1,1.6,0,1.6.9,3.2,1,.4,0,2.2,0,3.4-.9.1-.2.6-.6.7-.5h0Z"/>
    <path class="st18" d="M170.1,207.1c1.4,1,3.9,2.5,7.4,2.9,1.4.1,2.5,0,3.5,0-.7,3.3-1.5,6.5-2.2,9.8-.7.5-1.4.9-1.5.8,0,0,.7-.6.6-.9s-1.3.2-2.9,0c-1.4-.1-2.1-.7-2.3-.4-.2.2,0,.7.1,1-.5-.1-.9-.2-1.4-.4.1-.9.2-2.3,0-3.9-.3-1.8-.8-2.5-1.1-4.1-.3-1-.5-2.7-.1-4.8h0Z"/>
    <path class="st18" d="M170.7,227.9c.2-.1.4,0,.7-.1s.6-.3.7-.5c-.1,1,.1,1.5.4,1.7.5.4,1.2,0,2.5.5.5.2.5.2.8.2.7,0,1-.4,2-.7.4-.1.7-.2,1-.2.4.9,1.1,2.2,2,3.8.7,1.2,1,1.8,1.3,2.1,1.5,1.7,3.1,1.7,3.4,3.1.1.4.1,1-.1,1.2-.5.3-1.4-.8-2.3-.6-.6.2-.6.9-1.1,1.4-1.3,1.1-4.6-.3-6.8-2.1-1.4-1.2-.7-1.2-2.9-3.3-1.5-1.4-2.5-2.1-2.4-3.2,0-.7.6-.8.7-1.8,0-.7-.2-1.4.2-1.5h0Z"/>
    <path class="st14" d="M205.4,225.9c-.2.1-.6.3-1,.3s-1.2-.4-1.2-.6.3-.2,1.1-.8c.6-.4.7-.6.7-.7.1-.3.2-.8,0-.9-.2-.2-.7.3-1,.1s-.4-.6-.2-.8.3-.2.6-.4c.4-.4.4-1.1,0-1.4-.2-.2-.6,0-.7-.1-.3-.3.2-1.8,1.3-2.3,1-.4,1.5.6,3.3.9,2.4.4,3.6-1,4.8-.1.6.4,1,1.2.8,1.4-.2.3-1,0-1.6.4-.3.2-.5.7-.4,1,.2.4,1.2-.2,1.7.2.4.4.2,1.5-.3,1.7-.4.2-.9-.2-1,0s0,.6.3.8.6-.1.9,0c.2.2.2.9,0,1.2-.5.4-1.2-.2-1.8.1-.5.4-.2,1-.6,1.2-.4.2-.8-.5-1.4-.3-.4.1-.4.7-.8.7s-.5-.7-.9-.7-.5.6-1,.7c-.3,0-.7-.2-.9-.5-.1-.3.1-.6,0-.9,0-.1-.3-.2-.5-.2h0Z"/>
    <path class="st18" d="M204.1,208.5c.8-.1,1.7-.4,2.7-.9,2.3-1.1,3.7-2.8,4.4-3.8h.9c.2.7.6,1.8,1.4,2.9.9,1.3,2,2.1,2.6,2.5-1.2,1.8-1.5,3.1-1.6,3.9,0,.2,0,.7-.3,1.2-.4.8-1,.9-1.4,1.4-.4.4-.8,1.3-.4,3.1-.1-.4-.3-.9-.7-1.1-.5-.2-1.1.2-1.5.4-.8.4-2,.6-4.2-.3-.2.1-.5.3-.7.4,0-.4,0-1,.3-1.7s.5-.7.7-1.1c.3-.7.2-1.5-.6-3.4-.2-1-.8-2.3-1.4-3.6h0Z"/>
    <path class="st18" d="M205.5,225.9c-.2.1-.5.3-.7.7-.4.7-.2,1.4-.2,1.7.4,2.1-.2,2.5.3,4.4.9,3.5,3.7,5.7,4.3,6.1,1,.7,1.5.9,2.7,1.9.7.6.9,1,1.5,1,1,0,2-1,1.9-1.5,0-.2-.3-.4-.2-.6,0-.1,0-.2.2-.2.4-.2,1.3.9,1.6.7.4-.2,0-2.1-.9-4-1.4-2.8-2.7-3.4-3.2-5.6-.2-1.2-.1-2.2,0-2.8-.1.1-.7.9-1.8,1-.7,0-1.4-.3-1.5-.4-.2.2-.5.4-1,.6-1.1.3-2.5-.3-2.9-1.5-.3-.6-.2-1.1-.1-1.5h0Z"/>
    <path class="st10" d="M224.4,109.5c-.6-1.4-1.2-2.5-1.7-3.4-1.4,2.8-4,4.3-6.1,3.7-.4-.1-1.4-.4-2.2-1.6-1,.3-1.6.1-2,0-.6-.4-.7-1.1-1.2-1.2-.1,0-.4,0-.9.4-1.2,1-4.7,6-3.1,7.6.3.3,1.6.4,4.2.6,2.6.1,2.9,0,3.7.4,1.8.7,1.8,1.7,3.2,1.8,1.2.2,1.5-.6,4-1.3,2.5-.7,3.1-.2,3.6-.9.8-1-.1-3.1-1.5-6.2h0ZM215,115.2c-1.5-1-1.8-2.4-3.7-3.1-1.2-.4-2-.3-2-.5s1.7-.8,3.2-.3c1.1.4,1.5,1,2.5,2,.9.8,2.1,1.8,4,2.8-2,.1-3.3-.4-4-.8h0ZM224.2,112.5c-.2,0-.2-.2-.5-.4-.7-.4-1.8,1-3.3,1.2-1.2.1-2.5-.7-2.5-1s1.5,0,3.5-.9c.8-.3,1.4-.7,2.1-.6,0,0,.9.2.9.8.1.4,0,.9-.3.9h0Z"/>
    <path class="st17" d="M228.6,88.2c-2.9-.9-2.9-1.5-5.3-2.3-1.4-.5-4.9-1.8-8.9-1.1-4.7.7-5.5,3.4-9.6,3.1-1.7-.1-3.1-.7-3.4,0-.4.7.7,2.3,2,3.4,2.7,2.2,5.3,1.2,6.4,3.2.2.4.2,1.2.3,2.9,0,2.1,0,2.9-.2,5.8,0,.4-.1,4.3.3,4.4.2,0,.2-.9.9-1.1.5-.2,1.1.1,1.4.3.5.3.8.7,1,.9-.6-1.3-1.2-2.9-1.7-4.7-.7-2.5-.9-4.7-.9-6.5.7,3.4,1.6,6.1,2.3,8,.7,2,1.4,3.3,2.8,3.9.2.1,1.4.7,2.6.3,1.1-.3,2.3-1.4,4.4-7.6,1.8-5.4,1.8-7.4,3.7-9,1.4-1.1,2.9-1.4,4.1-1.5,0,.2,0,.4-.1.7-.4.9-1.4,1.2-1.5,1.2.4,0,2,.2,3.3-.9.4-.4,1-.8.9-1.4.1-.9-2-1.1-4.7-2h0ZM208.4,92.2c-2.3-.4-3.3-.2-4.2-.9-.4-.3-1-.9-1.3-2.1,1.2.8,2.3,1.2,3.1,1.4,1.9.4,3.4.1,4.3,1.2.3.3.4.7.5.9-.5-.1-1.4-.3-2.4-.5Z"/>
    <path d="M211.1,94.6c0-.2.3-.7,1-1,.4-.2.9-.1,1.3,0,.5,0,1.2.2,1.7.9.2.3.5,1,.1,1.5-.4.5-1.3.4-1.7,0s-.1-1-.5-1.2-.3,0-.9,0c-.5,0-.8,0-1,0h0Z"/>
    <path d="M213,121.9c0-.2.2-.5.5-.7s.7-.2,1.4-.2c.7,0,1,0,1.2.2.5.4.8,1.3.3,1.8s-1.1.4-1.4,0,0-.8-.4-1c-.1-.1-.2,0-.7,0-.4,0-.6,0-.8,0h0Z"/>
    <path d="M224.1,121.9c0-.2-.2-.5-.5-.7s-.7-.2-1.4-.2c-.7,0-1,0-1.2.2-.5.4-.8,1.3-.3,1.8s1.1.4,1.4,0,0-.8.4-1c.1-.1.2,0,.7,0,.4,0,.6,0,.8,0h0Z"/>
    <path d="M224.3,94.6c0-.2-.3-.7-1-1-.4-.2-.9-.1-1.3,0-.5,0-1.2.2-1.7.9-.2.3-.5,1-.1,1.5.4.5,1.3.4,1.7,0s.1-1,.5-1.2.3,0,.9,0c.5,0,.8,0,1,0h0Z"/>
    <path d="M215.9,103.3c.2-.2.6-.2,1.4-.2,1.2,0,1.8,0,2,.2.4.7-1,2.8-2.1,2.6-1-.2-1.7-2.1-1.2-2.6h0Z"/>
    <path class="st11" d="M210.1,68.8c-.2.4-.9,1.4-2.1,1.8-2.1.8-4.1-.6-4.2-.7.2.2,1.4,1.4,1.2,3.1-.2,1.7-1.8,3.1-3.9,3.3,1.5.3,2.2.9,2.6,1.5,1,1.2.5,2.2,1.7,3.6.7.8,1.1.8,1.4,1.5.3.9,0,2,.4,2.1.2.1.3,0,.6,0,.6.2,0,2,.5,2.9.3.6,1.2,1,3.3.9-.5-.5-2-2.1-2.3-4.7-.2-2,.4-3.6.8-4.3-1,.8-1.8.7-2,.7-1.5-.2-2.1-2.3-2.3-3.4,0-.4-.2-1.4.3-2.5.9-2.2,3.3-2.4,4.1-4.8,0-.2.1-.6.2-.7h0Z"/>
    <path class="st11" d="M225.5,69.2c.2.4.9,1.4,2.1,1.8,2.1.8,4.1-.6,4.2-.7-.2.2-1.4,1.4-1.2,3.1.2,1.7,1.8,3.1,3.9,3.3-1.5.3-2.2.9-2.6,1.5-1,1.2-.5,2.2-1.7,3.6-.7.8-1.1.8-1.4,1.5-.3.9,0,2-.4,2.1-.2.1-.3,0-.6,0-.6.2,0,2-.5,2.9-.3.6-1.2,1-3.3.9.5-.5,2-2.1,2.3-4.7.2-2-.4-3.6-.8-4.3,1,.8,1.8.7,2,.7,1.5-.2,2.1-2.3,2.3-3.4,0-.4.2-1.4-.3-2.5-.9-2.2-3.3-2.4-4.1-4.8,0-.2-.1-.6-.2-.7Z"/>
    <path d="M219.6,124c-.1,0-.2.6-.3,1.7,0,.8,0,.9-.2,1.2-.3.7-.7.9-.6,1.2s.7.4,1,.2.4-.4.6-.9c.3-1.7-.2-3.4-.5-3.4h0Z"/>
    <path class="st20" d="M184.9,209.7c-1.2,0-1.4-.1-1.4-.2,0-.2,2.2-.9,4.2-.3s2.6,1.9,3.8,2.7c1.6,1,4.5,1.4,10.4-1.8.1,1.3.2,2.7.2,4.2-.1,2.9,0,8-1.5,8.4-.2,0-.6,0-.8-.2-.4-.4-.1-1.3.2-3.7.2-1.1.2-1.5,0-1.7-.4-.3-1.2-.3-1.7.1-1.2,1,.6,3.7-.7,5.2-.4.5-1.1.7-1.4.5-.4-.4.9-1.7.9-4s0-1.7-.7-2.2c-.6-.4-1.4-.4-2,0-1.1.9.6,3.3-.7,4.7-.6.6-1.5.9-1.8.6-.2-.2,0-.6.3-1.6.9-2.6,1.3-3.3,1-4.2,0-.2-.2-.7-.7-1-.5-.3-1.3-.2-1.7,0-1.6,1-.2,4.5-1.7,5.3-.4.2-.9.1-1.2-.1-.4-.5.3-1.5.7-3.7.2-1.1.2-1.8-.2-2.2-.5-.5-1.5-.5-2.1-.1-1.3.7-1.8,3.1-1.4,4.8.1.5.4,1,.2,1.2-.2.2-1-.2-1.4-.7-1-1.4.9-3.5,1.2-7.1.1-1.3,0-2.3-.2-2.9h0Z"/>
    <path d="M221.1,129.6c0-.3-.7-.2-2.6-.3-1.5,0-2.1,0-2.3.3-.1.2,0,.6,0,.7.3.3.9-.1,1.4.1h0c0,.6.4.9.9.9h0c.1,0,.2,0,.3,0h0c.2-.1.4-.4.4-.7.4,0,1,0,1.4-.3.2-.2.5-.5.4-.7h.1Z"/>
    <path class="st15" d="M194.6,166.5c-.2,0-.6.2-.9.5-1.3,1.2-.2,3.6-.2,5.9,0,2.6-1.2,2.5-3.1,7.6-1.6,4.2-2.6,9.4-1,10.9.2.2.8.7,1.1,1.5.2.7.1,1.5,0,1.9.9-.4,2.4-1,4.3-1.2,1.4,0,5.8,0,8.4,3.4,2.1,2.8,2.3,6.8.5,10.1,1.4-.1,2.3-.6,2.8-1,1.4-1,1.5-2.5,3.1-3.2.6-.3,1.2-.4,1.6-.4,0-.9,0-2.6.7-4.5.8-2,2-3.3,2.6-3.8-.4-1.5-.7-2.3-.7-2.3l-5-5c-10.2-10.1-14.2-12.7-14.5-17.8,0-1.1.1-2.1.2-2.6h0Z"/>
  </g>
  <g>
    <path d="M91.4,149.4c-1.5.4-3.6,1-6.1,1.6-3.7.9-5.6,1.3-7.3,1.4-4.7.2-5.2-1.6-12.3-2.8-5.3-.9-6.3,0-8.6-1.5-2.9-1.8-4.7-5-5-8.1-.4-2.9.7-5,3.5-10.4,6-11,10-17.6,10-17.6,3-4.9,5.5-8.8,6.9-11.2,3.4-4.2,6.6-7.4,8.8-9.6,5.8-5.6,7.5-5.8,9.3-9.4,1.9-3.7,1.4-5.8,4.2-9.9,1-1.4,2.5-3.1,3.6-4.5,2.1-2.6,2.4-2.6,3.9-4.5,2.9-3.6,2.7-4.1,4.1-5.3,2.3-1.9,5.2-2.1,6.5-2.2h.6c5,.1,9.3,3.3,10.9,4.5,1.6,1.2,1.5,1.4,3.2,2.6,1.8,1.3,2.6,1.5,4.3,2.8,0,0,1.7,1.2,3.3,2.8,5.3,5.3,2.4,14.9,8.2,18.4.9.5.8.2,1.7.8,3.6,2.1,3,5.4,6.6,10,1.6,2,2.1,2,2.9,3.6.9,1.8.7,3.1,1.7,5.3.6,1.5,1.4,2.6,1.8,3.3-10.6,13.9-21.1,27.8-31.7,41.7-1.2-.1-2.4-.2-3.6-.4,0,0-.8,0-1.4,0-2.9-.1-6.6,1-6.6,1-1.7.6-4.7.6-10.7.6-6.9,0-9.5-.6-11.8-2.1-.4-.4-.7-.6-1-.8Z"/>
    <path class="st17" d="M78.7,147.7c.4-2.5.9-4.4,1.3-5.9,1.2-4.1,2-6.6,4.1-7.6,1.6-.7,3.3-.4,3.6-.3,3.8,1,6.5,6.8,7,14.4,4.8.5,9,.7,12.5.9,6.6.2,9.2,0,11.8-1.6,1.8-1.2,3.1-2.6,3.8-3.7-.2,0-.6,0-1,0-1.8-.2-2.8-1.7-5-3.6-.7-.7-.2-.2-2.3-1.8-4.2-3.5-8-7-8-7-6.9-6.4-9.9-8.6-23.3-21-2.1-1.9-4.8-4.5-8.2-7.6-.8.9-1.9,2.1-3,3.9-1.7,2.6-2.4,4.7-3,6.1-1,2.3-2.6,5.6-5.3,9.3,0,0-4,5.6-7.3,15.3-.5,1.5-1.3,4.1,0,5.8.4.6,1,1,5.3,2,5.2,1.2,5.5.7,7.6,1.6,2.6,1,2.9,2,4.9,2.2,1.8.1,3.5-.7,4.6-1.4h0Z"/>
    <path class="st10" d="M121.6,143.9c-1.8-.2-2.8-1.7-5-3.6-.7-.7-.2-.2-2.3-1.8-4.2-3.5-8-7-8-7-6.9-6.4-9.9-8.6-23.3-21-1.3-1.2-2.8-2.6-4.6-4.3-.7.7-1.7,1.6-2.6,2.8-2,2.6-1.8,4.1-3.9,8.5-1.8,4.1-2.5,4.1-4,7.7-1,2.6-1.5,4.7-1.9,6.2-1.7,5.7-3,10.5-3.9,14,4.6,1,5,.6,7,1.5,2.6,1,2.9,2,4.9,2.2,1.9.2,3.6-.6,4.7-1.4.4-2.5.9-4.4,1.3-5.9,1.2-4.1,2-6.6,4.1-7.6,1.6-.7,3.3-.4,3.6-.3,3.8,1,6.5,6.8,7,14.4,4.8.5,9,.7,12.5.9,6.6.2,9.2,0,11.8-1.6,1.8-1.2,3.1-2.6,3.8-3.7-.4.1-.7.1-1.2,0h0Z"/>
    <path class="st17" d="M79.4,97.3c4.5,4,9,8,13.4,12,6.9-6.1,13.8-12.3,20.7-18.4-4.3-2.7-6.9-6.4-6.2-9.3.6-2.3,3-3.5,6.9-5.4,3.3-1.7,6.3-2.5,8.5-3,0-1.1,0-2.5-.3-4.1-.1-.6-.2-1-.4-1.5-.7-.2-1.4-.4-2-.7,0-.4-.1-.9-.5-1.4-.6-.8-1.1-.7-1.6-1.4-.8-1.1,0-2.6-.6-2.8-.2-.1-.7,0-.9.3-.7.8.4,2-.1,3.5-.2.7-.6.8-1.1,1.5-1.8,2.7.9,6.5-.8,8-.1,0-.4.4-.7.3-.6-.1-.9-1.3-1.2-3.4-.2-1.3-.4-3.1-.5-5.2-.9.6-1.4,1.2-1.7,1.7-1.2,1.9-.4,3.3-1.8,5.2-.7,1-1.2.8-1.4,1.6-.5,1.4.7,2.3.4,4.1,0,.6-.4,1.1-1,2.3-1.2,2.3-1.7,2.2-2.1,3.4-.9,2.3.4,3.9-.6,4.5-.6.4-1.5.2-2-.3-.4-.3-.9-1.1-.2-3.8.7-2.9,1.8-4.4,2.8-6.3,1.7-3.4.6-3.7,2-7,2.3-5.3,7.1-8.6,6.6-11.4,0-.4-.2-.7-.4-.8-.9-1-3.3-.6-4.8.4-2.5,1.5-1.9,3.9-4.6,7.2-1.5,1.8-2.4,2.1-3.8,3.4-.7.7-3.5,3.4-5.2,11.8-2.1,10.9-.1,20.1-3,21.9-.2.1-.7.4-1.2.3-1-.3-.9-2.3-1.6-5.9-.8-3.9-1.4-4.4-1.8-4.7-1.2-.7-2.8,0-3.7.4-1.8.8-2.9,2.1-3.4,2.8h0Z"/>
    <path class="st17" d="M131.7,73.4c-.6-.1-1.3-.2-2.2-.3-2.5-.2-3.6.2-3.9-.2-.2-.4.4-1.2,1.8-2.9.7-1,1.3-1.5,2-1.5s.4,0,.7.2c.6.4.5,1.3.7,2.3.1.6.3,1.5.9,2.5h0Z"/>
    <path class="st20" d="M114.4,88.8c-1-.2-1.5-1-2.2-1.9-.9-1-2.1-2.4-3.4-4.2,2.7-2.6,9.4-8.1,18.2-7.9,2.3,0,4.7.1,6.5,1.8,4.1,3.8,2.1,13.1-1.7,18.8-2,3.1-4.5,4.9-6,5.9-1.2-.9-3.2-2.5-4.9-4.2-.4-.4-.9-.9-.9-1.7s.8-1.8,1-2.1c1-1,2.1-3,3.1-7.3-4.1.4-6.3,1.4-7.6,2.1-.4.3-1.2.9-2.3.7Z"/>
    <path class="st13" d="M63.5,141.1c-.4,0-.8-.2-1.1-.5-.6-.6-.5-1.5.1-2l56.7-50.2c.6-.6,1.5-.5,2,.1.6.6.5,1.5-.1,2l-56.7,50.2c-.2.2-.6.4-.9.4Z"/>
    <g>
      <path class="st13" d="M123.1,139.5l-27.6-25-2.1,1.9,27.9,25.2c.2.2.6.4.9.4s.8-.2,1-.5c.5-.6.5-1.5-.1-2h0Z"/>
      <path class="st13" d="M89.7,113.2l2.1-1.9-24.3-22c-.6-.6-1.5-.5-2,.1s-.5,1.5.1,2l24.1,21.8Z"/>
    </g>
    <path class="st18" d="M63.5,141.1c-.4,0-.8-.2-1.1-.5-.6-.6-.5-1.5.1-2l56.7-50.2c.6-.6,1.5-.5,2,.1.6.6.5,1.5-.1,2l-56.7,50.2c-.2.2-.6.4-.9.4Z"/>
    <g>
      <path class="st18" d="M123.1,139.5l-27.6-25-2.1,1.9,27.9,25.2c.2.2.6.4.9.4s.8-.2,1-.5c.5-.6.5-1.5-.1-2h0Z"/>
      <path class="st18" d="M89.7,113.2l2.1-1.9-24.3-22c-.6-.6-1.5-.5-2,.1s-.5,1.5.1,2l24.1,21.8Z"/>
    </g>
    <g>
      <path class="st20" d="M54.1,106.3c1.5-4.2,4.7-11.5,11.5-18.5,6.1-6.3,12.5-9.6,16.5-11.4-1.7,0-3.7.3-5.8.9-6.2,1.7-10.4,5.2-12.6,7.4-.3-.2-.7-.6-1.2-.9-.5-.3-.7-.5-.9-.6-1-.2-2.6,1.4-2.4,2.2,0,.2.1.2.5.6.6.5,1.2,1,1.7,1.3-2.1,2.3-5.3,6.8-6.6,13-.5,2.3-.6,4.2-.6,6Z"/>
      <path d="M54,107.6c-.7,0-1.3-.6-1.4-1.4,0-2.1.1-4.2.6-6.2.9-4.5,2.9-8.8,5.9-12.5-.2-.1-.3-.2-.5-.4-.4-.4-.8-.7-1-1.3-.2-.9,0-1.9.9-2.8.7-.8,2-1.5,3.3-1.3.4.1.8.3,1.4.7,0,0,.2.1.2.2,3.6-3.3,7.9-5.7,12.4-6.9,2-.6,4.1-.9,6.1-.9.2,0,.6.2.8.6.4.6.4,1.5-.2,2.3-6,2.6-11.4,6.3-16,11-4.9,5.1-8.8,11.3-11.1,17.9-.3.7-.9,1.1-1.5,1h0ZM60.7,85.1c.4.4.9.7,1.4,1.1l1.3.9-1,1.2c-1.9,2.1-3.4,4.5-4.5,7.1,2-3.1,4.2-6,6.8-8.7,2.2-2.3,4.5-4.3,7.1-6.1-2.6,1.3-4.9,3-7.1,5.2l-.9.9-1-.8c-.4-.3-.7-.6-1.2-.9-.1,0-.2-.2-.4-.2,0,.1-.2.2-.4.4ZM61.2,84.7h0Z"/>
    </g>
    <path class="st20" d="M54.1,106.3c1.5-4.2,4.7-11.5,11.5-18.5,6.1-6.3,12.5-9.6,16.5-11.4-1.7,0-3.7.3-5.8.9-6.2,1.7-10.4,5.2-12.6,7.4-.3-.2-.7-.6-1.2-.9-.5-.3-.7-.5-.9-.6-1-.2-2.6,1.4-2.4,2.2,0,.2.1.2.5.6.6.5,1.2,1,1.7,1.3-2.1,2.3-5.3,6.8-6.6,13-.5,2.3-.6,4.2-.6,6Z"/>
    <path class="st17" d="M118.6,96h0c-6.8,6-13.6,12-20.3,17.9,5.3,5,10.6,9.9,15.8,14.9-.9-2.3-1.5-4.1-2-5.3-.4-1-.5-1.6-1.1-2.1-1.2-1.1-2.4-.6-3.2-1.5-.7-1,0-2-.7-2.8-.4-.6-1.5-1-4-.5-.2-3.3.6-4.8,1.4-5.6.5-.4,1.1-.7,1.7-1.7s.6-1.4,1.3-2.3c.3-.4,1.2-1.5,1.8-1.4.7.2.1,1.8,1.2,3.1s2.7.8,3.4,2.1c.3.5.2,1,.2,1.8-.2,2.8-.5,5.1-.5,5.2-.3,3,.9,7.3,3.6,8.8,1.2.7,2.3.6,2.9,1.7.6,1,.4,2.2,1.4,3.1.4.3.5.2.8.5.8.9-.3,2.2.1,3.7s2,1.4,2.6,2.8c.3.7.4,2-.7,4.1.6,0,1.4-.2,2-.8.8-.9.3-2.1.2-4.2-.2-4.1,1.5-4.7.8-8-.3-1.4-1-2.8-1.2-3.2-.8-1.7-1.2-1.9-1.7-3-.7-1.7,0-2.1-.3-5.2-.2-2.6-.7-2.6-1-5.8-.2-2.8.1-2.6-.2-3.9-.8-2.7-2.7-3.4-2.6-5.3,0-.7.3-1.6,1.4-2.6-.7-.6-1.6-1.5-2.3-2.9-.5-.6-.7-1.2-.9-1.7h0Z"/>
    <path class="st17" d="M124,102.8c.4.4,1.4,1,2.5.9.8-.1,1.4-.7,1.7-1,1.2-1.3,2.7-2.8,4.4-4.7.7,6.6.6,11.6.1,15-.4,3.1.1,6.2,0,9.3,0,1.4-.2,4.2,1.4,5.3.2.2.9.6,1.6,1.4.6.6.9,1.2,1.2,1.5.3-.7.7-1.8.7-3.2,0-2-.8-3.1-1.3-4.7-.8-2.5.2-2.8.1-7.6-.1-4.4-.7-5.5-.5-8.3.2-3.5,1.2-2.9,1.2-6s-.9-4.5.3-6.6c.2-.4.7-1.3,1.4-1.2,1,0,1.7,2.3,1.9,2.8,1.5,4.7-1,7.4-.1,11.7.6,2.9,2.3,5.4,2.9,5.2.4-.1.1-1.4-.1-4.7-.4-4.9,0-4.3-.4-10.7-.2-4-.5-5.6-.1-5.7.5-.1,1.5,2.5,2.5,4.9,1.4,3.6,2.1,5.4,2.6,7.9.5,2.6.4,4.7.4,8.8,0,3.1,0,4.6-.2,5.8-.7,4.3-3.1,6.3-9,13.3-6.3,7.4-8.2,10.6-9.3,10-.9-.4-.6-2.9-.2-7.1.5-4.7,1.2-5.6.5-7.8-.9-2.5-2.2-2.3-2.6-4.7-.4-2,.5-2.9-.2-5.4-.2-.7-.3-.9-.8-2.3-.4-1.4-.5-1.9-.9-3.1-.5-1.7-.9-2.3-1.1-3.1-.4-1.2-.7-3.2,0-6h0Z"/>
  </g>
  <g>
    <path class="st12" d="M307.3,138.9c1.4-.8,0-3.6,1.6-7.5.5-1.2.7-1.1,1.6-3,1.2-2.4,1.8-4.5,2.1-6,.1,4.2-.9,6.9-1.8,8.7,0,0-2.3,4.4-2.3,7,0,.2,0,.8.4,1.4.4.7,1.1,1.4,1.5,1.3.2-.1.1-.8.1-1.4,0-1.9,1.1-3.3,1.5-3.9.8-1.3,2.2-5.2,4.9-15.9v3.5c.1-.5,2.8-8.8,3.1-10.8.1-.9-.2-1.2-.3-1.3-.4-.4-.9-.3-1.1-.3-1.1,0-3.9-.2-8.1-.7-1.1,3.7-2,6.8-2.6,8.8-2.1,7.1-2,7.1-2.5,8-1.2,2.4-3.6,5.8-3.1,7.5.1.4.3,1.1.9,1.4s.6,0,.9.2c0,0,.4.2.7.6.6.8,0,1.8.4,2.3.5.3,1.4.4,2,.1h0ZM320,120.3c-3.4,9.8-5.1,14.7-6.3,16.5-.4.7-1.8,2.8-1,4.1.6,1,2.2.6,2.8,1.8.6,1-.2,2,.3,2.7.5.6,1.5.6,2.3.4.1-1.5.4-3.3.9-5.4.1-.6.7-2.9,1.8-6.1.7-2,1.8-4.5,3.4-7.3-.5,4.1-1.5,7.1-2.3,9.1-.9,2.1-1.4,4.4-2.2,6.4-.4,1-.9,2.1-.6,3.4.2,1.4,1.2,2.8,2.1,2.8s.6-.3,1.7-.8c.6-.2,1-.4,1.4-.6,0-2.1.1-4.7.5-7.9.2-2.1.7-5.2,1.8-9,.6-2.1,1.6-4.7,3.1-7.7-.4,1.9-.8,3.9-1.2,5.9-.8,4.2-1.5,8.4-2.2,12.5.1-.3.2-.6.4-.9,2.8-6.8,4.8-14.5,5.8-23.5-.2,0-1-.2-1.5-1-.6-.9-.6-1.8-.6-2-1,0-2.2-.2-3.4-.4-1.8-.3-3.5-.7-5-1.1-.6,3.4-1.5,6.1-2.1,7.9h0ZM332.2,130.3c-1.8,6-4,10.8-4.7,18.7-.1,1.2-.1,2.3-.2,2.9.4,0,1.3,0,2.3.3.4.2.8.4,1,.7,0-.2,0-.5.2-.8.4-.6.9-.7,1.1-.8v3.9c1,0,2,.1,2.9.2-.1-.9-.1-1.9,0-3.1.4-2.8,1.5-4.8,2.3-5.9.6,2.2.4,3.9.1,5.1-.4,1.8-1.1,2.7-.7,4.2.1.4.4,1.7,1.7,2.2,1.4.5,2.6-.4,2.7-.4-.2-2-.4-4.2-.6-6.4-.3-4.6-.4-9-.2-13,.5,1.5.9,3.2,1.3,5,1,5.5,1,10.4.6,14.3.8.5,1.5,1,2.3,1.5.1-1,.2-2,.4-3.1.2-1.2.4-2.2.7-3.2.2.4.3.8.5,1.2.7,2.3.6,4.5.2,6,.6-.3,1.4-.7,2.5-.9s2-.4,2.7-.4c-.9-3.7-.9-6.6-.7-8.5,0-.9.2-1.4.4-2.9.4-3.1.5-5.6.6-7.3.1.5.3,1.2.4,2.1.5,2.7.5,4.8.6,6.6,0,3.7,0,7-.1,9.8.6-.2,1.4-.4,2,0,.7.4.7,1.1,1.3,1.4.4.1.9.1,1.7-.6-.1-3.5-.3-7.1-.7-10.9-.6-6.6-1.5-12.6-2.6-18.2.8,2.1,1.7,4.8,2.5,8,.8,3.1,1.4,5.3,1.7,8.2.7,7.4-1.2,11.4,1.1,13.3.1.1,1.5,1.2,2.9.8.9-.3,1.5-1.2,2-2,.3-.5.7-1.1.9-1.8.2-1.4-.6-2.6-1-3.3-1.3-2.1-.3-2.6-1.5-6.8-1.2-4.3-2.5-5-2.7-8.3,0-1.5,0-2.7.2-3.4.8,2.2,1.4,4,1.8,5.3,2.3,6.9,3.4,10.3,3.6,12.2.2,2.5-.1,4.5,1,5.1.7.4,1.8,0,2.5-.6.8-.9.9-2.3.2-3.4.4,0,2.5.1,3.3-1.2.5-.9.2-1.9,0-2.5-.9-2.9-1.4-4.4-3.1-8.3-.8-1.7-1.7-4.2-2-7.7-.8-.1-2-.5-3.4-1.3-1.7-1-2-2-4.5-4.7-1.7-1.8-2.5-2.6-3.5-3.2-1.9-1-3.3-.8-4-2-.5-.9-.3-1.9-.1-2.6-.5-.3-1-.6-1.5-1-.7-.5-1.3-.9-1.9-1.4-1.6,0-4.3.2-7.6,0,0,0-2.9-.1-5.8-.6h-.1c-1,5.8-2.1,10.3-3.1,13.4h.1ZM309.2,105.1c-.3.4-.8.4-1,.8-.2.5.3,1.1.4,1.4,1.2,1.7,8.7,2,9.9,2.1,0-.7.1-1.4.2-2.1-1.7-.2-3.4-.5-5-.8,2,0,3.9-.1,5.8-.2.2-.6.3-1.3.5-1.9-3.6-.1-7.1-.2-10.7-.4,0,.3,0,.7-.2,1.1h0ZM321.7,105.6c-.1.7-.4,1.1-.6,1.4-.3.5-.6.7-.7,1.2,0,0-.1.4,0,1,.3,1.1,2.5,1.7,3.9,2.1,5.9,1.5,6.6,1.2,7,.8.4-.4.7-1.2.5-1.7-.4-.8-1.9.1-4.1-.8-.4-.2-1-.5-1.4-.2-.3.2-.1.7-.4,1-.5.5-2.1,0-3.1-.9-1.5-1.4-1.2-3.6-1.2-3.9h0ZM326.5,108.7c1.4,0,2.7,0,4.1,0,.1-.8.2-1.6.3-2.4-.8.2-2,.3-3.3-.1-.3-.1-.6-.2-.8-.3-.1.4-.2.8-.2,1.4v1.4h0ZM332.6,107.9c1,.7,1.3,1.3,1.4,1.7.2,1-.6,1.5-1,3-.2,1-.2,1.8,0,2.5,2.6.3,4.8.5,6.5.6,1.8.1,7.3.6,7.4-.2,0-.2-.3-.3-.4-.7-.2-.6.2-1.4.8-2-1,.2-2.6.3-4.5,0-1.9-.4-3.3-1-4.2-1.5,2.5.4,4.5.4,6,.4,2.5,0,3.5-.3,4-1,.4-.6.4-1.3.3-1.8-2.5,0-5.2,0-8-.2s-5.5-.4-8.1-.7h0ZM338.1,94c6,0,11.5,4.7,12.6,10.7.9,5-1.8,9-2.5,9.9,1.7,1.4,3.3,2.8,5,4.2.6-.5,1.2-1,1.8-1.5-1.2-1.2-2.3-2.5-3.4-3.7,1-1.5,2.7-4.5,2.6-8.5-.1-6.8-5.5-13.8-13.1-14.9-5.5-.8-11.4,1.6-14.6,6.4-3.3,5-2.3,10.4-2.1,11.5.3-8,6.8-14.2,13.8-14.1h0ZM354.9,122.1c1.3,1.1,2.5,1.2,3.5,1.7.7.3.9.6,3.6,3.4,3.6,3.8,4,4.3,4.8,4.3,1.7,0,3.7-1.8,3.7-3.4-.1-2.6-5.9-4.7-6.6-5-1.7-.6-2.9-.8-3.7-2-.6-.9-.7-1.7-1.6-2.6-.7-.7-1.4-1-1.9-1.2,0,.4-.2,1.2-.8,2-.7,1-1.7,1.5-2.1,1.7.2.2.6.7,1.2,1.2h0ZM354.8,111.3c1.5,0,2.9.1,4.4.1-.4.3-1,.8-2,1.1-1.4.4-2.6.1-3.1,0-.1.4-.2.8-.4,1.2.1.2.3.6.7.9.8.7,1.8.6,4.7.2,3.3-.4,3.7-.6,4.2-.9,1-.6,2.2-1.8,2-2.8-.1-.5-.6-.7-.9-1.6-.1-.4-.2-.8-.2-1.1-2.8,0-5.6.1-8.5.2-.2.9-.5,1.8-.8,2.6h0ZM310.5,102.8c3.4.1,6.9.2,10.4.3-3.9-8.6-7.9-17.2-11.8-25.8,1.5,7,1.7,8.7,1.4,8.7-.4.1-2.5-5.6-3.8-11.8-.5-2.3-.8-4.2-.9-5.6-.5.1-1.2.3-2.1.2-.8-.1-1.3-.4-1.5-.1-.3.3,0,1,.3,1.5,0,0,.5,1,1.7,4.2.4,1,.7,2.5.4,4.6-.8-1.7-1.5-3.7-2.2-5.9-.3-1.1-.6-2.2-.9-3.2-2.1-.4-2.8-.1-2.9.2-.1.2.2.5.2,1.1s-.6,1.4-.9,1.7c-.9.9-1.6.9-2,1.3-1.6,1.5,4.7,10.5,7.6,15.2,1.9,3.1,4.5,7.7,7,13.6h0ZM314.2,62.9c-.4,0-1.1-.1-1.9.2-.4.1-.7.2-1,.5-.6.7,0,1.5-.4,2.5-.5,1.2-2.1.9-2.8,1.8-1.2,1.5,1,5,1.2,5.5,2.5,4.2,7.1,13.4,13.3,26.9.4-1.5,1.4-4.8,4.3-7.6,1.6-1.5,3.3-2.4,4.4-2.9-.7-5.3-.9-9.6-.9-12.6s0-6.8-.7-12.2c-.2-1.2-.4-2.3-.5-2.9l-2.2.6c.5,3.1.9,6.4,1.2,9.9.3,3.8.5,7.4.5,10.7-1.7-4.5-3.1-10.6-2.8-17.6,0-1.2.2-2.5.4-3.6-.6-.2-1.3-.5-2.2-1-.7-.4-1-.7-1.4-.7-.6-.1-1.4,0-2.5,1,.5,2,1.2,4.8,1.9,8.3.6,3.1,2.5,13.3,1.9,13.4-.6.1-3.3-7.2-4.3-15.6-.3-2.5-.4-4.5-.4-6-.8.6-1.4.6-1.7.5-.6-.1-.8-.4-1.4-.4-.4,0-.9.3-1,.6-.7.9,1.2,2.8,2.1,5.2.6,1.3,1,3.3.6,6.2-.9-1.4-1.9-3.3-2.6-5.7-.6-1.8-.8-3.6-.9-5ZM334.2,88.8c7-1.6,14.1.6,18.1,5.8,3.7,4.8,3.4,10.3,3.3,11.8,2.1,0,4.4,0,6.5.1,2.1-5.2,4.1-9.1,5.6-11.6,0,0,7.9-13.9,13.2-25.9.3-.7.8-1.8.3-2.9-.6-1.3-2-1.1-2.7-2.5-.6-1.2,0-2.1-.6-2.9-.6-.8-1.9-.9-3.1-.7-.2,2.8-.9,6.6-3.4,10.4-.5.7-.9,1.4-1.4,2,0-1.4,0-3.1.2-4.9.6-3.7,2-6.5,3.1-8.3-.6-.3-1-.4-1.3-.6-.9-.2-1.3,0-2.2-.3-.4-.1-.8-.2-1-.4,0,3.9-.6,9.1-2.3,14.9-1.2,4.1-2.8,7.6-4.2,10.3,1.2-5.7,2.5-11.5,3.7-17.2.6-2.8,1.2-5.5,1.9-8.2-.7-.7-1.4-1-1.9-1-.8,0-1.3.3-2.8,1-.9.4-1.7.7-2.3.9.3,4.1.2,9.5-1.1,15.6-.7,3.4-1.7,6.4-2.8,8.8.4-6.3,1.1-12.8,2-19.5.2-1.5.4-3,.6-4.5-.8-.2-1.7-.5-2.6-.9-.7-.3-1.4-.7-2-1,0,.7-.1,1.6-.2,2.8-.1,1.5-.5,6.1-.9,9.6-.4,2.8-1,6.7-2.1,11.5.2-5.1.5-10.3.9-15.5.2-2.5.4-4.8.6-7.2-.3.4-.9,1-1.6,1.3-1.2.4-2-.2-3.4-.3-.9,0-2.1.2-3.6,1.2.9,5,1.4,11.1.6,18.1-.2,2.3-.6,4.5-1,6.4-.4-6.3-.7-12.7-.9-19.3v-5.4c-.6-.2-1.5-.5-2.5-1-.7-.4-.9-.6-1.2-.6-1.2-.1-1.8,1.4-3.1,2-.8.3-2.1.3-4.2-1,.5,1.5.9,3.1,1.4,4.7,1.7,6.6,2.6,12.8,3.1,18.5-1.4-4.7-2.9-9.4-4.3-14.1,0,2.9,0,6,.3,9.3.3,3.9.9,7.5,1.5,10.8h0Z"/>
    <path class="st14" d="M334.2,88.8c7-1.6,14.1.6,18.1,5.8,3.7,4.8,3.4,10.3,3.3,11.8,2.1,0,4.4,0,6.5.1,2.1-5.2,4.1-9.1,5.6-11.6,0,0,7.9-13.9,13.2-25.9.3-.7.8-1.8.3-2.9-.6-1.3-2-1.1-2.7-2.5-.6-1.2,0-2.1-.6-2.9-.6-.8-1.9-.9-3.1-.7-.2,2.8-.9,6.6-3.4,10.4-.5.7-.9,1.4-1.4,2,0-1.4,0-3.1.2-4.9.6-3.7,2-6.5,3.1-8.3-.6-.3-1-.4-1.3-.6-.9-.2-1.3,0-2.2-.3-.4-.1-.8-.2-1-.4,0,3.9-.6,9.1-2.3,14.9-1.2,4.1-2.8,7.6-4.2,10.3,1.2-5.7,2.5-11.5,3.7-17.2.6-2.8,1.2-5.5,1.9-8.2-.7-.7-1.4-1-1.9-1-.8,0-1.3.3-2.8,1-.9.4-1.7.7-2.3.9.3,4.1.2,9.5-1.1,15.6-.7,3.4-1.7,6.4-2.8,8.8.4-6.3,1.1-12.8,2-19.5.2-1.5.4-3,.6-4.5-.8-.2-1.7-.5-2.6-.9-.7-.3-1.4-.7-2-1,0,.7-.1,1.6-.2,2.8-.1,1.5-.5,6.1-.9,9.6-.4,2.8-1,6.7-2.1,11.5.2-5.1.5-10.3.9-15.5.2-2.5.4-4.8.6-7.2-.3.4-.9,1-1.6,1.3-1.2.4-2-.2-3.4-.3-.9,0-2.1.2-3.6,1.2.9,5,1.4,11.1.6,18.1-.2,2.3-.6,4.5-1,6.4-.4-6.3-.7-12.7-.9-19.3v-5.4c-.6-.2-1.5-.5-2.5-1-.7-.4-.9-.6-1.2-.6-1.2-.1-1.8,1.4-3.1,2-.8.3-2.1.3-4.2-1,.5,1.5.9,3.1,1.4,4.7,1.7,6.6,2.6,12.8,3.1,18.5-1.4-4.7-2.9-9.4-4.3-14.1,0,2.9,0,6,.3,9.3.3,3.9.9,7.5,1.5,10.8h0Z"/>
    <path class="st14" d="M305.5,138.6c-.5-.6.2-1.5-.4-2.3-.2-.4-.7-.6-.7-.6-.4-.2-.7-.1-.9-.2-.6-.2-.8-1-.9-1.4-.5-1.7,1.9-5.1,3.1-7.5.4-.9.4-.9,2.5-8,.6-2.1,1.5-5.1,2.6-8.8,4.2.5,7,.7,8.1.7.2,0,.7,0,1.1.3,0,0,.4.4.3,1.3-.2,2-2.9,10.3-3.1,10.8v-3.5c-2.7,10.7-4.1,14.6-4.9,15.9-.4.7-1.5,2.1-1.5,3.9s.1,1.2-.1,1.4c-.3.2-1.1-.6-1.5-1.3-.4-.7-.4-1.2-.4-1.4,0-2.6,2.3-7,2.3-7,.9-1.8,1.9-4.5,1.8-8.7-.4,1.4-1,3.6-2.1,6-.9,1.9-1.1,1.8-1.6,3-1.5,3.9-.2,6.7-1.6,7.5-.7.4-1.6.3-2-.1h0Z"/>
    <path class="st14" d="M322.3,112.5c1.5.4,3.1.8,5,1.1,1.2.2,2.3.3,3.4.4,0,.2-.1,1.1.6,2,.6.7,1.3.9,1.5,1-.9,9-3.1,16.7-5.8,23.5-.1.3-.2.6-.4.9.7-4.1,1.4-8.3,2.2-12.5.4-2,.8-3.9,1.2-5.9-1.5,2.9-2.5,5.6-3.1,7.7-1.2,3.9-1.6,6.9-1.8,9-.4,3.1-.5,5.8-.5,7.9-.3.1-.8.2-1.4.6-1.1.6-1.3.8-1.7.8-.9,0-1.9-1.5-2.1-2.8s.2-2.5.6-3.4c.9-2.1,1.4-4.4,2.2-6.4.9-2,1.8-5,2.3-9.1-1.6,2.8-2.6,5.3-3.4,7.3-1.2,3.1-1.7,5.5-1.8,6.1-.5,2.1-.7,3.9-.9,5.4-.8.1-1.8.2-2.3-.4-.6-.7.2-1.7-.3-2.7-.6-1.2-2.2-.9-2.8-1.8-.7-1.2.6-3.3,1-4.1,1.1-1.8,2.8-6.7,6.3-16.5.4-1.8,1.3-4.5,2.1-7.9h0Z"/>
    <path class="st14" d="M335.1,116.9h.1c2.9.4,5.8.6,5.8.6,3.2.2,6,0,7.6,0,.6.5,1.2.9,1.9,1.4.5.4,1,.7,1.5,1-.2.7-.4,1.8.1,2.6.7,1.2,2.1,1,4,2,1,.5,1.8,1.4,3.5,3.2,2.5,2.6,2.8,3.6,4.5,4.7,1.3.8,2.6,1.2,3.4,1.3.3,3.4,1.2,6,2,7.7,1.8,3.9,2.3,5.3,3.1,8.3.2.6.5,1.7,0,2.5-.8,1.2-2.8,1.2-3.3,1.2.7,1.2.6,2.6-.2,3.4-.6.6-1.7,1-2.5.6-1.1-.6-.8-2.6-1-5.1-.1-1.8-1.2-5.3-3.6-12.2-.4-1.3-1-3.1-1.8-5.3-.2.8-.3,2-.2,3.4.2,3.3,1.5,4,2.7,8.3,1.2,4.2.2,4.7,1.5,6.8.4.7,1.2,1.8,1,3.3-.1.7-.5,1.4-.9,1.8-.5.7-1.1,1.7-2,2-1.4.4-2.8-.7-2.9-.8-2.4-1.9-.4-5.9-1.1-13.3-.2-2.8-.9-5-1.7-8.2s-1.7-5.8-2.5-8c1.1,5.6,2,11.7,2.6,18.2.4,3.8.6,7.4.7,10.9-.9.6-1.4.7-1.7.6-.6-.2-.6-1-1.3-1.4-.6-.4-1.4-.2-2,0,0-2.8.1-6.1.1-9.8s0-3.9-.6-6.6c-.2-.9-.3-1.7-.4-2.1,0,1.7-.2,4.2-.6,7.3-.2,1.5-.3,2-.4,2.9-.2,2-.2,4.8.7,8.5-.7,0-1.7,0-2.7.4-1,.2-1.8.6-2.5.9.3-1.5.5-3.6-.2-6-.1-.4-.3-.9-.5-1.2-.2,1-.5,2.1-.7,3.2-.2,1.1-.4,2.1-.4,3.1-.8-.5-1.5-1-2.3-1.5.4-3.9.6-8.8-.6-14.3-.4-1.8-.8-3.5-1.3-5-.1,4-.1,8.3.2,13,.1,2.2.4,4.3.6,6.4-.1,0-1.4,1-2.7.4-1.2-.5-1.6-1.8-1.7-2.2-.4-1.5.3-2.5.7-4.2.2-1.2.4-2.9-.1-5.1-.8,1.1-2,3.1-2.3,5.9-.1,1.2-.1,2.3,0,3.1-1,0-2-.1-2.9-.2v-3.9c-.2,0-.7.2-1.1.8-.2.3-.2.6-.2.8-.2-.2-.6-.5-1-.7-.9-.4-1.8-.4-2.3-.3,0-.7,0-1.7.2-2.9.7-7.9,2.9-12.7,4.7-18.7,1.1-3,2.3-7.6,3.1-13.4h-.1Z"/>
    <path class="st18" d="M309.3,104c3.6.1,7.1.2,10.7.4-.2.6-.3,1.3-.5,1.9-2,0-3.9.1-5.8.2,1.7.2,3.4.5,5,.8,0,.7-.1,1.4-.2,2.1-1.2,0-8.7-.5-9.9-2.1-.1-.2-.7-.9-.4-1.4.2-.4.7-.3,1-.8.2-.4.2-.8.2-1.1h0Z"/>
    <path class="st18" d="M321.7,105.6c-.1.7-.4,1.1-.6,1.4-.3.5-.6.7-.7,1.2,0,0-.1.4,0,1,.3,1.1,2.5,1.7,3.9,2.1,5.9,1.5,6.6,1.2,7,.8.4-.4.7-1.2.5-1.7-.4-.8-1.9.1-4.1-.8-.4-.2-1-.5-1.4-.2-.3.2-.1.7-.4,1-.5.5-2.1,0-3.1-.9-1.5-1.4-1.2-3.6-1.2-3.9h0Z"/>
    <path class="st18" d="M326.5,108.7c1.4,0,2.7,0,4.1,0,.1-.8.2-1.6.3-2.4-.8.2-2,.3-3.3-.1-.3-.1-.6-.2-.8-.3-.1.4-.2.8-.2,1.4v1.4h0Z"/>
    <path class="st18" d="M332.6,107.9c1,.7,1.3,1.3,1.4,1.7.2,1-.6,1.5-1,3-.2,1-.2,1.8,0,2.5,2.6.3,4.8.5,6.5.6,1.8.1,7.3.6,7.4-.2,0-.2-.3-.3-.4-.7-.2-.6.2-1.4.8-2-1,.2-2.6.3-4.5,0-1.9-.4-3.3-1-4.2-1.5,2.5.4,4.5.4,6,.4,2.5,0,3.5-.3,4-1,.4-.6.4-1.3.3-1.8-2.5,0-5.2,0-8-.2s-5.5-.4-8.1-.7h0Z"/>
    <path class="st20" d="M324.4,108.3c-.2-1.2-1.2-6.5,2.1-11.5,3.2-4.8,9.1-7.2,14.6-6.4,7.6,1.1,12.9,8,13.1,14.9,0,3.9-1.7,7-2.6,8.5,1.2,1.2,2.3,2.5,3.4,3.7-.6.5-1.2,1-1.8,1.5-1.7-1.4-3.3-2.8-5-4.2.7-.9,3.3-4.9,2.5-9.9-1-6-6.7-10.6-12.6-10.7-7.1-.2-13.5,6-13.8,14.1h0Z"/>
    <path class="st17" d="M353.7,120.9c.4-.2,1.4-.6,2.1-1.7.6-.8.7-1.6.8-2,.5.2,1.2.6,1.9,1.2.9,1,1,1.8,1.6,2.6.9,1.2,2.1,1.4,3.7,2,.8.3,6.5,2.5,6.6,5,0,1.6-2,3.4-3.7,3.4-.8,0-1.2-.5-4.8-4.3-2.7-2.9-3-3.1-3.6-3.4-1.1-.4-2.2-.6-3.5-1.7-.6-.4-.9-.9-1.2-1.2h0Z"/>
    <path class="st18" d="M354.8,111.3c1.5,0,2.9.1,4.4.1-.4.3-1,.8-2,1.1-1.4.4-2.6.1-3.1,0-.1.4-.2.8-.4,1.2.1.2.3.6.7.9.8.7,1.8.6,4.7.2,3.3-.4,3.7-.6,4.2-.9,1-.6,2.2-1.8,2-2.8-.1-.5-.6-.7-.9-1.6-.1-.4-.2-.8-.2-1.1-2.8,0-5.6.1-8.5.2-.2.9-.5,1.8-.8,2.6h0Z"/>
    <path class="st14" d="M310.5,102.8c3.4.1,6.9.2,10.4.3-3.9-8.6-7.9-17.2-11.8-25.8,1.5,7,1.7,8.7,1.4,8.7-.4.1-2.5-5.6-3.8-11.8-.5-2.3-.8-4.2-.9-5.6-.5.1-1.2.3-2.1.2-.8-.1-1.3-.4-1.5-.1-.3.3,0,1,.3,1.5,0,0,.5,1,1.7,4.2.4,1,.7,2.5.4,4.6-.8-1.7-1.5-3.7-2.2-5.9-.3-1.1-.6-2.2-.9-3.2-2.1-.4-2.8-.1-2.9.2-.1.2.2.5.2,1.1s-.6,1.4-.9,1.7c-.9.9-1.6.9-2,1.3-1.6,1.5,4.7,10.5,7.6,15.2,1.9,3.1,4.5,7.7,7,13.6h0Z"/>
    <path class="st14" d="M314.2,62.9c-.4,0-1.1-.1-1.9.2-.4.1-.7.2-1,.5-.6.7,0,1.5-.4,2.5-.5,1.2-2.1.9-2.8,1.8-1.2,1.5,1,5,1.2,5.5,2.5,4.2,7.1,13.4,13.3,26.9.4-1.5,1.4-4.8,4.3-7.6,1.6-1.5,3.3-2.4,4.4-2.9-.7-5.3-.9-9.6-.9-12.6s0-6.8-.7-12.2c-.2-1.2-.4-2.3-.5-2.9l-2.2.6c.5,3.1.9,6.4,1.2,9.9.3,3.8.5,7.4.5,10.7-1.7-4.5-3.1-10.6-2.8-17.6,0-1.2.2-2.5.4-3.6-.6-.2-1.3-.5-2.2-1-.7-.4-1-.7-1.4-.7-.6-.1-1.4,0-2.5,1,.5,2,1.2,4.8,1.9,8.3.6,3.1,2.5,13.3,1.9,13.4-.6.1-3.3-7.2-4.3-15.6-.3-2.5-.4-4.5-.4-6-.8.6-1.4.6-1.7.5-.6-.1-.8-.4-1.4-.4-.4,0-.9.3-1,.6-.7.9,1.2,2.8,2.1,5.2.6,1.3,1,3.3.6,6.2-.9-1.4-1.9-3.3-2.6-5.7-.6-1.8-.8-3.6-.9-5Z"/>
  </g>
  <g>
    <path d="M187.9,281.4c-1.8-.9-6.7-3-13.4-4.5-3.3-.7-5-.8-6.6-.9-1.5,0-2.8-.1-5.5-.7-4.3-.9-6.6-1.9-8.7-2.8-1.3-.6-2.5-1.1-4.1-1.5-1.8-.6-3.3-.7-4.3-.8h-.2c-9.5-1.1-18.8,2-22.8,4h0c-.3.1-.7.4-1.4.6-1.9.6-4,.6-6.2,0-.2,0-.4-.1-.6-.2-.8-.2-1.8-.6-3.3-.7-1.8-.1-3.3.2-4.4.4-2.8.7-4.8,1.7-6.5,2.6-.6.3-1.2.6-1.7.9-1.7.8-2.5.9-3.7,1-.5,0-1,.1-1.7.2-.3,0-.6.1-.9.2-1,.2-1.9.4-2.8.7-1.2.4-2.1.6-2.8.7-1,.2-1.8.4-3.1,1-2.8,1.5-4.5,3.8-5.2,4.7h0c-.2.4-.7,1-1.1,1.8-.4.9-.6,1.7-.9,2.7-.3,1.2-.7,2.6-1.5,4.8-1.3,3.3-2.9,5.9-6,11.1-2.2,3.7-3.6,5.7-4.7,7.2-1.3,1.9-2,2.9-2.7,5-1.4,3.8-1.6,7.6-.9,13.6,1.2,10.1,4.3,21.1,9.3,32.8.4,1.1.9,2,1.2,2.6s4.2,9.2,10.3,15.5c.4.4.9.9,1.5,1.2,2.9,1.7,6.4.4,7.6.1,6.4-1.8,17.4,3.1,23.3,8.8,6,5.8,5.3,11,11.8,13.7,1.2.5,3.9,1.5,6.9.8,2.5-.6,4.5-2.3,10-10.2,2-2.8,4.6-6.9,7.3-11.9,2.1-3.4,5-11.7,7.1-15.2.6-.9,1-1.7,1.5-2.3,1.2-1.8,2-3,2.3-5.2,0-.3,0-.6.1-.9.2-1.3.4-2.6,1.3-4.2.4-.6.9-1.2,1.4-1.7,1.4-1.3,2.8-1.7,4.2-2.1.5-.1,1-.3,1.6-.5,6.1-2.3,8.2-10.3,8.9-13.6.4-1.8.9-5-.4-8.2-.5-1.2-.9-1.7-1.4-2.1-.4-.4-.7-.8-1.2-1.7-.6-1-2.3-4.7-1.3-8.5.3-1.1.7-1.8.9-2.3h0c1.9-3.6,2.9-8.3,3.3-14.4,5.6.9,11.4.5,16.5-1.2,3.9-1.3,8.3-2.8,9-6.3.8-4.1-4.3-8.8-15.2-14.1h0Z"/>
    <path class="st19" d="M121.3,276.1c.8-.2,1.4-.5,1.6-.7,3.3-1.6,12.5-4.9,22-3.8,1,.1,2.5.2,4.3.8,3.9,1.1,5.8,2.9,12.9,4.4,5.8,1.2,5.9.2,12.1,1.5,7.1,1.5,12,3.8,13.1,4.4,2.6,1.3,15.4,7.4,14.5,12.6-.5,2.6-4.5,4-8,5.2-7.4,2.5-13.9,1.7-17.5.9-.2,8.2-1.7,12.7-3.1,15.4-.2.4-.7,1.4-1.1,2.7-1.2,4.5,1,8.7,1.4,9.6,1.2,2.2,1.8,1.9,2.5,3.7,1.2,2.8.7,5.5.3,7.4-.2,1.3-2,10.3-8,12.5-1.8.7-4.1.8-6.3,2.9-.9.8-1.4,1.6-1.6,1.9-1.4,2.1-1.4,4.1-1.7,5.6-.4,2.6-1.5,3.5-3.6,7-4.2,7.1-3.1,8.5-7.1,15.2-2.8,4.5-4.1,6.8-6.4,8-5,2.6-12.5,1.3-17.1-2.5-4.1-3.3-4.4-7.1-9.1-8.7-2.4-.8-3,0-5.4-1-4.7-2-6.6-6.8-6.8-7.4-1.5-4.1.7-4.6-.7-9.1-1.5-5-4.8-6-5.8-10.6-.1-.6-.4-2.1-1.5-3.7-1.2-1.9-1.8-2.3-2-2.4-1.4-.5-2.8.6-3.6,1.1-3.3,2.3-2.6,4.8-5.8,7.8-1.8,1.7-3.8,2.6-4.4,2.8-2.6,1.1-4.1.9-6,2.2-1.4.9-2.3,2.1-2.7,2.9-3.2-7.4-7.7-19.5-9.2-32.4-.7-5.9-.4-9.5.8-13,1.2-3.4,2.1-3.4,7.2-11.8,3.2-5.3,4.8-8,6.1-11.4,1.7-4.2,1.5-5.8,2.3-7.4.4-.8.8-1.3,1-1.5.6-.9,2.1-2.9,4.7-4.2,2-1,2.8-.7,5.8-1.7.3-.1,1.3-.4,2.6-.7.2,0,.5-.1.8-.1,2.2-.4,3.1,0,5.8-1.3,2.4-1.2,4.4-2.5,8-3.4,1-.2,2.3-.5,3.9-.4,1.7.1,2.6.6,3.6.8,1.8.4,4.4.8,7.1,0h0Z"/>
    <path class="st18" d="M117.9,290.1c-2.3.1-4.7.5-7.4,1.2-11.9,3.2-19.1,11.8-22.1,16.1v-1.6s0-5.8,3.3-11.7c3.7-6.6,14.6-16.9,21.3-13.6.9.5,4,2.3,5,9.6h0Z"/>
    <path class="st18" d="M176.1,290c-.2-.4-.6-1.2-.9-2.1-.5-1.8-.1-2.7-.5-4.3-.2-.7-.6-1.8-1.4-2.9,6.3.6,19,2.8,24.2,12.2.3.5.6,1,.8,1.6-2.7-1.2-5.8-2.4-9.2-3.7-3.3-1.3-4.8-1.8-7-1.9-2.6,0-4.7.7-6.1,1.2h0Z"/>
    <path class="st10" d="M176.7,292.4c.2.3.7.7,1.2.8.9,0,1.4-.8,2.1-1.2.9-.5,1.8-.4,4.2.2,6.4,1.7,8.3,3.2,9.2,3.9,1.3,1.2,1.4,1.6,1.3,1.9-.2,1.4-4,1.8-5.5,1.9-2.9.3-7.4.3-13.1-1.4.2-.6.4-1.3.5-2.1.2-1.7.2-3.1.1-4.1h0Z"/>
    <path class="st10" d="M154.2,357.2c-.7-.6-2-.6-4.7-.6-1.8,0-2.4.1-3.6-.2-1.3-.3-2.2-.8-3.1-1.4-5.5-3.2-6-4.8-8.6-5.2-1.7-.2-2.1.3-3.6-.3-.2-.1-2.4-.9-3.3-3.1-.6-1.2-.5-2.3-.5-2.7,0-3.6-5-6.4-11.8-13-6.2-6-9.3-9-9.8-10-.2-.4-1.1-2.2-2.5-2.3-.4,0-.9,0-1.2.4-.6.8.6,2.5,1.4,3.4,1.5,1.7,2.5,1.5,3.6,3,.8,1.2,1,2.3,1,2.7.3,2.1-.7,3.5-2.3,6.9-1.2,2.5-1.8,3.7-2.1,5-.3,1-2.1,7.6,1,11.1,1.5,1.7,2.6.9,5.7,3.2,1.4,1,3.3,2.5,4.4,5,1.5,3.5-.7,4.6.9,7.9.8,1.7,1.5,1.7,4.6,6.2.7,1,1.1,1.6,1.4,2.1,2.1,3.7,1.6,5.8,2.6,7.6,2.3,4,10.3,3.4,10.7,3.3,7-.6,12.3-6,14.5-10.3.8-1.5.8-2.1,2.3-4.8,2.3-4.3,3.3-5,3.9-7.6.1-.4,1-4.8-1-6.4h0ZM142.9,373.4c-.6,2.4-1.4,3-1.8,3s-.7-.8-1.7-1.1c-.2,0-.5-.1-1.3,0-2.1.1-2.3.5-2.8.3-1.1-.4-.5-2.4-2.1-5-.5-.8-1-1.5-1.8-1.7-1.2-.2-1.8,1-2.8.7s-.7-1.7-1.7-2c-1-.4-1.7.6-2.5.2-.7-.4-.1-1.7-.7-3.3-.6-1.5-1.4-1.5-2.5-3.2-.3-.5-.4-.7-1.6-4.4-1.2-3.7-1.4-4.3-1.4-5.3.1-1.8.8-2.9,1-3.3.5-.7.7-1,1-1.2,2.3-.6,5.4,9.9,9.7,9.8,1.5,0,2.3-1.4,3.6-.9,1.4.6,1,2.2,2.5,3.2,1.7,1.2,3.1-.2,4.8.5,3.5,1.5,3,9.5,2,13.5h0Z"/>
    <path class="st10" d="M169.3,324.4c-6.4-1-11.5-.2-14.5.5-1.8.4-16.5,4.4-19,14.5-.2,1-1.4,5.6,1.2,8.3.9,1,2.6,2.3,4.3,1.9.9-.2,1.4-1,1.8-1.5,1.4-1.7,3.2-2.3,6.8-3.6,3.7-1.4,11.7-1.7,20.9,1.6,4.4-8,4-11.5,2.7-13.2-.9-1.2-2.5-2-3.6-4.5-.6-1.6-.6-3.1-.6-4.1h0Z"/>
    <path d="M151.3,336.3c-.8-.5-2,.9-2.8.4-.4-.2-.6-1-.4-1.5.4-1.1,2.3-1.4,3.4-1.2.6,0,2.1.2,2.9,1.4.8,1.4.1,3.1-.7,4.1-1.1,1.2-3.3,1.9-4.1,1.1s-.6-1.5-.2-2c.6-.6,1.7,0,2.2-.6.3-.4.1-1.4-.4-1.7h0Z"/>
    <path d="M168.5,336.3c.8-.5,2,.9,2.8.4.4-.2.6-1,.4-1.5-.4-1.1-2.3-1.4-3.4-1.2-.6,0-2.1.2-2.9,1.4-.8,1.4-.1,3.1.7,4.1,1.1,1.2,3.3,1.9,4.1,1.1.5-.5.6-1.5.2-2-.6-.6-1.7,0-2.2-.6-.3-.4-.1-1.4.4-1.7h0Z"/>
    <path class="st10" d="M171.9,287.8c1,3.2,3.7,3.6,3.7,5.9s-.5,1.3-1.2,2.8c-1.3,2.7-.5,4-.9,10.9-.2,4.1-.6,5.3-.7,5.9-.4,1.2-1.1,3.9-2.9,5.3-4,3.1-8-1.5-16,0-4.1.8-7.1,2.8-13.2,6.9-2,1.4-3.1,2.1-4.1,3.5-.9,1.3-1,2.1-1.9,2.6-1.9,1-4.4-.3-4.8-.6-1.8-.9-1.8-1.8-3.8-3.7-2.3-2.2-2.8-1.7-5.5-4-2-1.8-3.7-3.3-4.2-5.5-.3-1.4.2-1.4,0-4.1,0-1.5-.2-6.2-2.2-6.9-.5-.2-.9,0-1.7,0-1.5.3-2.3,1-2.9,1.4-2.3,1.4-6.2.3-8.5-1.4-1-.7-2.6-2-2.6-3.7,0-2.9,4.3-5.1,6.7-5.8.7-.2,2.8-.9,5.3-.5,3.9.5,5.8,2.7,7.6,1.6.7-.4,1.2-1.2,1.1-1.8-.2-.8-1.7-.9-1.8-1.5,0-.4.5-.9,1.5-1.5,2.9-1.7,5.1-1.6,5.5-2.7.2-.5,0-1-.4-1.6-1.7-3.2-5.2-3.3-5.8-5.6-.2-.9,0-1.8.3-2.3.8-1.8,3.1-3.7,13.8-5.2,8.4-1.2,12.6-1.8,17.2-.7,1.7.4,2.9.9,2.9.9,2.3.7,3,1.1,4.7,1.6,1.5.4,2.8.7,3.3.9,3.1.6,5.3.7,7.3,1.7.6.3,1,.6,1.1.7,0,0,1.2.8,2,1.9,1,1.5.2,2.7,1,4.8h0Z"/>
    <path d="M122,310.9c-.6.1-1.4-.2-1.6-.7-.4-.9,1.1-2.3,2.3-2.9,1.7-1,4.3-1.4,6.5-.3.4.2,3.1,1.6,2.9,3.7-.1,1.4-1.4,2.5-2.6,2.8-1,.2-1.9,0-3-.6-.9-.4-2.1-.9-2.3-1.9-.1-.6,0-1.2.4-1.4.3-.2.7.1,1.8.8,1.8,1,2.3.9,2.5.8.3-.1.6-.4.6-.7,0-.9-2.3-1.4-2.5-1.4-1-.2-1.8-.4-2.7,0-1.3.6-1.2,1.7-2.3,1.8h0Z"/>
    <path class="st17" d="M158.8,288.2c0-.5,2.1-.4,2.1-1,0-.4-.6-.7-1.1-1-3.3-2.1-3.3-3.1-5.3-3.7-.9-.2-1.5-.4-2.2-.2-2.5.6-3.6,4.1-3.7,4.4-.2.6-.2,1-.7,2.7-.3,1.2-.4,1.2-.4,1.5-.2,1.7.6,2.1.3,3.1-.3,1-1.4,1-1.7,2-.3.9.3,2,.6,2.3.5.8.8.8,1.2,1.4.7,1.2.2,2.1.5,3.3.4,1.8,2.4,2.2,4,3.5,1.4,1.1,2.8,3.2,3.2,7.6.4,0,1-.1,1.8,0,1.5.2,2.1.8,2.8.5.6-.2.4-.7,1.1-1.5,1-1.2,2-1,2.1-1.7.2-1-1.8-1.8-1.6-2.9.2-1.2,2.5-1.2,2.6-2.5,0-.5-.3-1-.7-1.5-.8-1-1.5-1-1.5-1.5s1.7-.7,1.8-1.7c.1-.6-.6-1.3-.7-1.5-.8-.8-1.7-.6-1.8-1-.3-.8,2.1-1.8,2-2.9-.1-1.2-3.1-1.3-3.4-2.7-.2-1.1,1.4-1.8,1.1-2.9-.3-1.2-2.5-1.3-2.5-1.8h0Z"/>
    <path class="st16" d="M126.3,293.3c0,.2.2.6.5,1,.7,1,1.7,1.2,4.1,2.1,2.2.8,2.6,1.1,3.1,1.5s1.4,1.7,1,2.3c-.6,1-3.8-.3-4.7,1-.4.6-.1,1.5,0,1.7.4,1.2,1.8,1.5,3.4,2.5.5.2,4.5,2.6,4.2,4.4-.1.8-1.2,1.8-2.3,2-.5,0-.9,0-1,.2-.3.4,0,1.3.5,1.9.9,1.3,2,.9,2.5,1.9.6,1.2-.2,2.8-.2,2.8-.3.6-.6.7-.7,1.1-.2.7.1,1.5,1.4,2.7"/>
    <path class="st10" d="M145.9,348.8c1.6,1,4.7,2.7,8.9,3,7.1.6,12.2-3.1,13.6-4.1-2-.9-5.7-2.2-10.4-2.1-5.7,0-10,2.1-12,3.3Z"/>
  </g>
  <g>
    <path class="st14" d="M54.8,445v9.3h5.2c1.4,0,2.2-.2,2.7-.6.6-.6.9-1.5,1-2.8h.6v8.2h-.6c-.2-1.2-.3-1.9-.5-2.2-.2-.4-.6-.7-1-1-.5-.2-1.2-.4-2.2-.4h-5.2v7.7c0,1,0,1.7.1,1.9.1.2.2.4.5.6s.7.2,1.3.2h4c1.4,0,2.3-.1,2.9-.3s1.2-.6,1.7-1.1,1.5-1.8,2.2-3.3h.7l-2,5.9h-18.1v-.6h.9c.6,0,1.1-.1,1.6-.4.4-.2.6-.5.7-.9.1-.4.2-1.1.2-2.3v-15.3c0-1.5-.1-2.4-.4-2.8-.4-.5-1.1-.7-2.1-.7h-.9v-.6h18.1l.2,5.2h-.7c-.2-1.2-.5-2.1-.8-2.6s-.7-.8-1.3-1c-.5-.2-1.3-.2-2.5-.2h-6.3s0,.1,0,.1Z"/>
    <path class="st14" d="M85.4,443.1v8.2h-.6c-.2-1.5-.6-2.8-1.1-3.7-.6-.9-1.3-1.7-2.3-2.2-1-.6-2-.8-3.1-.8s-2.2.4-3,1.1-1.2,1.6-1.2,2.5.2,1.4.7,2c.7.9,2.4,2,5.1,3.5,2.2,1.2,3.7,2.1,4.5,2.7s1.4,1.4,1.8,2.2c.4.9.7,1.8.7,2.7,0,1.8-.7,3.3-2.1,4.6-1.4,1.3-3.2,2-5.3,2s-1.4,0-1.9-.2c-.4,0-1.1-.2-2.2-.6s-1.8-.6-2.1-.6-.5,0-.7.2c-.2.2-.3.6-.4,1.1h-.6v-8h.6c.3,1.7.7,2.9,1.2,3.8.5.9,1.3,1.5,2.3,2.1s2.2.9,3.4.9,2.6-.4,3.4-1.2c.9-.7,1.2-1.7,1.2-2.7s-.2-1.2-.5-1.8-.8-1.2-1.5-1.7c-.4-.4-1.7-1.1-3.7-2.2s-3.4-2-4.3-2.7c-.9-.7-1.5-1.4-2-2.2-.4-.8-.7-1.7-.7-2.7,0-1.7.7-3.1,2-4.4s2.9-1.8,5-1.8,2.6.3,4,.9c.7.3,1.1.4,1.4.4s.6,0,.7-.2c.2-.2.4-.6.4-1.1h.6,0Z"/>
    <path class="st14" d="M109.5,443.7l.2,5.5h-.7c-.1-1-.3-1.7-.5-2.1-.4-.7-.9-1.2-1.4-1.5-.6-.3-1.4-.5-2.3-.5h-3.3v18c0,1.5.2,2.3.5,2.7.4.5,1.1.7,2,.7h.8v.6h-10v-.6h.9c1,0,1.7-.3,2.1-.9.2-.4.4-1.2.4-2.5v-18h-2.8c-1.1,0-1.9,0-2.3.2-.6.2-1.1.6-1.5,1.3-.4.6-.7,1.5-.7,2.5h-.7l.3-5.5h19.2Z"/>
    <path class="st14" d="M124,459.3h-9.1l-1.6,3.7c-.4.9-.6,1.6-.6,2s.2.7.5.9c.4.2,1.1.4,2.2.6v.6h-7.4v-.6c1-.2,1.6-.4,1.9-.7.6-.6,1.2-1.7,2-3.4l8.3-19.3h.6l8.2,19.6c.7,1.6,1.2,2.6,1.8,3.1s1.3.7,2.3.8v.6h-9.3v-.6c.9,0,1.6-.2,1.9-.5.3-.2.5-.6.5-1s-.2-1.3-.7-2.4l-1.4-3.4h0ZM123.5,458l-4-9.5-4.1,9.5h8.1Z"/>
    <path class="st14" d="M134,467.2v-.6h.9c1,0,1.7-.3,2.1-1,.2-.4.4-1.2.4-2.6v-15.2c0-1.5-.2-2.4-.5-2.8-.4-.5-1.1-.7-2-.7h-.9v-.6h9.6c3.5,0,6.2.4,8,1.2s3.3,2.1,4.4,4,1.7,4,1.7,6.4-1,6-3,8.2c-2.2,2.5-5.6,3.7-10.2,3.7h-10.4ZM140.7,465.5c1.5.3,2.7.5,3.7.5,2.7,0,4.9-.9,6.7-2.8s2.6-4.4,2.6-7.7-.9-5.8-2.6-7.7c-1.8-1.9-4.1-2.8-6.8-2.8s-2.2.2-3.6.5v20h0Z"/>
    <path class="st14" d="M172.1,443.1c3.1,0,5.7,1.2,7.9,3.5s3.4,5.2,3.4,8.7-1.1,6.6-3.4,8.9-5,3.6-8.2,3.6-6-1.2-8.2-3.4c-2.2-2.3-3.3-5.3-3.3-9s1.3-6.8,3.8-9.1c2.2-2,4.8-3.1,7.9-3.1h0ZM171.7,444.4c-2.1,0-3.8.8-5.1,2.3-1.6,2-2.4,4.8-2.4,8.5s.8,6.8,2.5,8.8c1.3,1.6,2.9,2.3,5,2.3s4.1-.9,5.5-2.6,2.1-4.4,2.1-8.2-.8-7-2.4-9c-1.1-1.5-2.9-2.3-5.2-2.3h0Z"/>
  </g>
  <g>
    <path class="st14" d="M199.6,467.2v-.4h.6c.7,0,1.2-.2,1.5-.7.2-.2.2-.9.2-1.8v-10.7c0-1-.1-1.7-.4-2-.3-.4-.8-.6-1.4-.6h-.6v-.4h6.8c2.5,0,4.4.3,5.6.9s2.3,1.5,3.1,2.8c.8,1.3,1.2,2.8,1.2,4.5s-.7,4.2-2.1,5.8c-1.6,1.7-4,2.6-7.2,2.6h-7.3ZM204.4,466c1,.2,1.9.4,2.6.4,1.9,0,3.5-.7,4.7-2s1.9-3.1,1.9-5.4-.6-4.1-1.9-5.5c-1.2-1.4-2.9-2-4.8-2s-1.6.1-2.5.4v14.1h0Z"/>
    <path class="st14" d="M222.6,451.5v6.6h3.7c.9,0,1.6-.1,1.9-.4.4-.4.7-1,.7-2h.4v5.8h-.4c-.1-.8-.2-1.4-.4-1.5-.1-.3-.4-.5-.7-.7-.3-.2-.9-.2-1.5-.2h-3.7v5.5c0,.7,0,1.2.1,1.4s.2.3.4.4c.2.1.5.1.9.1h2.8c.9,0,1.6,0,2-.2.4-.1.9-.4,1.2-.8.5-.5,1-1.3,1.5-2.3h.5l-1.4,4.2h-12.8v-.4h.6c.4,0,.7-.1,1.1-.3.2-.1.4-.3.6-.6.1-.2.1-.8.1-1.6v-10.8c0-1-.1-1.7-.3-2-.3-.3-.8-.5-1.5-.5h-.6v-.4h12.8l.2,3.6h-.5c-.2-.9-.4-1.5-.6-1.8s-.5-.6-.9-.7c-.3-.1-.9-.2-1.7-.2h-4.6Z"/>
  </g>
  <g>
    <path class="st14" d="M260,443.7v8.2h-.6c-.2-1.5-.6-2.8-1.1-3.7s-1.3-1.7-2.3-2.2c-1-.6-2-.8-3.1-.8s-2.2.4-3,1.1-1.2,1.6-1.2,2.5.2,1.4.7,2c.7.9,2.4,2,5.1,3.5,2.2,1.2,3.7,2.1,4.5,2.7s1.4,1.4,1.8,2.2c.4.9.7,1.8.7,2.7,0,1.8-.7,3.3-2.1,4.6s-3.2,2-5.3,2-1.4,0-1.9-.2c-.4,0-1.1-.2-2.2-.6-1.1-.4-1.8-.6-2.1-.6s-.5,0-.7.2c-.2.2-.3.6-.4,1.1h-.6v-8h.6c.3,1.7.7,2.9,1.2,3.8.5.9,1.3,1.5,2.3,2.1,1,.6,2.2.9,3.4.9s2.6-.4,3.4-1.2c.9-.7,1.2-1.7,1.2-2.7s-.2-1.2-.5-1.8-.8-1.2-1.5-1.7c-.4-.4-1.7-1.1-3.7-2.2s-3.4-2-4.3-2.7c-.9-.7-1.5-1.4-2-2.2-.4-.8-.7-1.7-.7-2.7,0-1.7.7-3.1,2-4.4s2.9-1.8,5-1.8,2.6.3,4,.9c.7.3,1.1.4,1.4.4s.6,0,.7-.2c.2-.2.4-.6.4-1.1h.6,0Z"/>
    <path class="st14" d="M276.4,443.7c3.1,0,5.7,1.2,7.9,3.5s3.4,5.2,3.4,8.7-1.1,6.6-3.4,8.9-5,3.6-8.2,3.6-6-1.2-8.2-3.4c-2.2-2.3-3.3-5.3-3.3-9s1.3-6.8,3.8-9.1c2.2-2.1,4.8-3.1,7.9-3.1h0ZM276.1,444.9c-2.1,0-3.8.8-5.1,2.3-1.6,2-2.4,4.8-2.4,8.5s.8,6.8,2.5,8.8c1.3,1.6,2.9,2.3,5,2.3s4.1-.9,5.5-2.6,2.1-4.4,2.1-8.2-.8-7-2.4-9c-1.2-1.5-2.9-2.3-5.2-2.3h0Z"/>
    <path class="st14" d="M288.7,444.2h6.4l14.4,17.7v-13.6c0-1.5-.2-2.3-.5-2.7-.4-.5-1.1-.7-2-.7h-.8v-.6h8.2v.6h-.9c-1,0-1.7.3-2.1.9-.2.4-.4,1.2-.4,2.5v19.8h-.6l-15.5-19v14.5c0,1.5.2,2.3.5,2.7.4.5,1.1.7,2,.7h.9v.6h-8.2v-.6h.8c1,0,1.7-.3,2.1-.9.2-.4.4-1.2.4-2.5v-16.4c-.7-.8-1.2-1.4-1.5-1.6-.4-.2-.9-.5-1.5-.7-.3-.1-.9-.2-1.5-.2v-.6h0Z"/>
    <path class="st14" d="M327.8,443.7c3.1,0,5.7,1.2,7.9,3.5s3.4,5.2,3.4,8.7-1.1,6.6-3.4,8.9-5,3.6-8.2,3.6-6-1.2-8.2-3.4c-2.2-2.3-3.3-5.3-3.3-9s1.3-6.8,3.8-9.1c2.2-2.1,4.8-3.1,7.9-3.1h0ZM327.5,444.9c-2.1,0-3.8.8-5.1,2.3-1.6,2-2.4,4.8-2.4,8.5s.8,6.8,2.5,8.8c1.3,1.6,2.9,2.3,5,2.3s4.1-.9,5.5-2.6,2.1-4.4,2.1-8.2-.8-7-2.4-9c-1.1-1.5-2.9-2.3-5.2-2.3h0Z"/>
    <path class="st14" d="M364.5,467.7h-6.3l-8-11h-2.5v6.8c0,1.5.2,2.4.5,2.8.4.5,1.1.7,2,.7h.9v.6h-10.1v-.6h.9c1,0,1.7-.3,2.1-1,.2-.4.4-1.2.4-2.6v-15.2c0-1.5-.2-2.4-.5-2.8-.4-.5-1.1-.7-2-.7h-.9v-.6h8.6c2.5,0,4.4.2,5.5.6,1.2.4,2.2,1,3,2s1.2,2.1,1.2,3.5-.5,2.7-1.4,3.7c-.9,1-2.4,1.8-4.4,2.3l4.8,6.8c1.1,1.5,2.1,2.6,2.9,3.1s1.8.9,3.1,1v.6h0ZM347.8,455.6h1c2.3,0,3.9-.5,5.1-1.5,1.2-1,1.7-2.2,1.7-3.7s-.4-2.6-1.4-3.6-2.1-1.4-3.7-1.4-1.6.1-2.7.3v9.8h0,0Z"/>
    <path class="st14" d="M380.4,459.8h-9.1l-1.6,3.7c-.4.9-.6,1.6-.6,2s.2.7.5.9c.4.2,1.1.4,2.2.6v.6h-7.4v-.6c1-.2,1.6-.4,1.9-.7.6-.6,1.2-1.7,2-3.4l8.3-19.3h.6l8.2,19.6c.7,1.6,1.2,2.6,1.8,3.1s1.3.7,2.3.8v.6h-9.3v-.6c.9,0,1.6-.2,1.9-.5.3-.2.5-.6.5-1s-.2-1.3-.7-2.4l-1.4-3.4h0ZM379.9,458.5l-4-9.5-4.1,9.5h8.1Z"/>
  </g>
  <path class="st2" d="M388.3,250.9v138c0,23.4-21.1,42.7-46.9,42.7h-106.2c-6.3,0-14.2.8-17.4,5v-185.6h170.5Z"/>
  <path class="st3" d="M228.4,250.5c-.2.6-.4,1.4-.1,2.3.4,1.8,1.8,1.8,2.1,3.3.4,1.8-1.7,2.6-1.8,5.7,0,.8,0,1.5.4,2.1,1,1.3,2.9.4,4.7,1,2.6.9,2.5,4.5,4.7,9.8.4.9,2.3,5.5,6,9.8,3.6,4.2,6,4.7,7.9,9,.8,1.7,1.5,3.5,1,5.5-.5,2-2.1,2.7-2.5,5.2-.1.8-.2,1.7.2,2.5.9,1.7,3.2,2,4.2,2.1,2.8.4,3.7-.6,5.3.2,1.2.6,1.7,1.6,2.3,2.8,4.2,8.4,6.2,12.6,4.8,13.7-.2.2-.7.3-.9.8-.3.7.3,1.4.7,2.4.8,1.9-.2,2.6.4,5.9.2,1.2.5,1.7.9,2,.7.4,1.3,0,2.1.2,1.4.4,1.7,2.2,2.8,4,.7,1.1,1.8,2.5,4.1,3.8,5.5,6,11,12.3,16.7,19.1,3.4,4.2,6.8,8.3,9.9,12.4,0,.7.3,1.6,1,2.3.9.9,1.7.4,3.7,1,2.7.7,2.6,2,5.1,2.3,1,.1,1.8,0,2.1.5.2.5-.6.9-.7,1.7-.3,1.5,1.8,2.2,3.2,5.1,1,2,.5,2.8,1.6,3.7,1,.9,1.9.7,2.5,1.6.5.9-.2,1.5.3,2.5.5,1.1,1.4.9,2.1,2,.5.8.2,1,.7,2.9.5,2,1.2,2.9,1.5,3.3.9,1.1,1.5,1.2,1.6,1.2.7.1,1-.2,1.5-.1,1,.2.7,2.1,1.9,3.6.9,1.1,1.4.7,3.9,2.3,2.5,1.6,2.5,2.4,3.7,2.5,1.5.1,1.8-1,4.2-1.4,1.2-.2,2.6-.4,3.5.4,1.2,1,.1,2.8,1.4,4.4,1,1.3,2.8,1.9,4.3,1.5,1.2-.4,2.2-1.5,2-2.1-.2-.7-1.8-.5-1.9-1-.1-.7,2.5-1.4,2.6-2.8,0-.7-.5-1.3-.3-1.5.2-.2.7,0,1,.3.3.9.7,1.6,1.1,2.3,4.3,6.8,13,7.5,15.1,7.4,2.7-2.6,5.9-6.3,8.7-11.3,5.6-10,6.3-19.6,6.2-24.8v-134.9c-26.6,0-53.3,0-79.9-.1-26.6,0-53.3-.1-79.9-.2Z"/>
  <path class="st3" d="M259.1,317.1c-.5-.2-.7.2-3.7,1.2-2,.7-2.9,1-4.1,1.4-1.4.3-1.8.2-2.5.7-.9.7-1,1.8-1.2,2.9-1.4,8.3-1.1,9.5-.7,10.5.4.8.6,1,.7,1.8.3,2.4-1.7,4.4-2.2,4.8-1.4,1.4-3,2-4,2.1,1.4,1.9,2.5,2.4,3.4,2.5.7,0,1.4-.2,2,.2.8.5.6,1.3,1.2,2,.8,1,1.8.5,3.8,1,2.3.7,2.4,1.7,5.4,2.6,2.2.7,2.7.3,2.9.1.5-.5.2-1.3.2-2.5,0-1.8.7-2.6,1.5-4.4.3-.8.3-1,1.6-8.4.8-4.7.9-4.9.7-5.5-.6-3.2-2.9-3.1-4.1-6.6-1.2-3.4.2-6-1-6.6h0Z"/>
  <path class="st3" d="M242.6,354.8c-.1-.2-.7-1-1.5-1s-2,1.2-2.2,2.2c-.2.9-.2,2.4.9,3.1.8.4,1.8.2,2.5-.2,1.2-.9,1.2-2.9.4-4.1Z"/>
  <path class="st7" d="M297.1,334.5c-9,4.1-16.1,8.7-21.2,12.5-8.2,6.1-15.8,13.5-19.3,18.4-.4.5-16.1,19.4-15.8,23.6,0,.6.2,2.8,1.8,4.4,2,2,5.8,1.4,13.3.3,5.4-.8,8.1-1.2,10.3-2.6.7-.5,2-1.5,4-2.1,2-.7,3.4-.6,4.6-.7,2.3-.2,4.3-1,8.2-2.6,10.3-4.4,15.4-6.6,16.8-7.3,13.4-6.8,25-15.6,29.5-19,2.3,0,7.2,0,12.6-2.8,4.6-2.4,7.4-5.6,8.8-7.4-2.2.1-4.4.2-6.6.3,1.9-1.4,13.9-10.4,17.1-21.5.7-2.3,1.7-7.2,2-12.8,0-.9.2-3.4,0-6.6-.2-5-.4-7.6-1.5-9.9-2-4-4.1-2.7-6.2-6.9-1.7-3.3-1.6-6.6-4.1-7.7-.7-.3-1.2-.2-1.4-.2-.4,0-1.8.5-2.8,4.8-1,4.2-2.5,10.8,1.7,17.1,2.3,3.5,5.5,5.3,7.4,6.3-2.9.6-4.6,1.8-5.6,2.7-2.6,2.4-2.4,4.9-5.3,7.8,0,0-1.4,1.4-4.1,2.8-7.8,4.1-22.5,1.8-23.6,1.6-.4-4.5-.8-9-1.2-13.4-2,.6-4.3,1.4-6.6,2.8-9.1,5.5-12,15.2-12.8,18.5h0Z"/>
  <path class="st4" d="M266.4,371.3c.5.6,5.6-3.9,14.5-9.3,8.3-5,9.5-4.5,18.7-9.8,8.5-4.9,17.1-10.9,16.7-11.6,0-.1-.7-.1-7.7,3.1-8.7,3.9-17.3,8.3-27.5,14.4-2,1.2-5.3,3.3-9,6.6-2.8,2.5-6.1,6.1-5.7,6.6Z"/>
  <path class="st4" d="M360.8,319.5c-14.1,12.5-26.6,20.7-35,25.8-19.1,11.4-51.6,26.9-57.9,30,0,0-25.2,12-23.9,15.2,0,0,.1.2.3.5.2.3,1.2,1.4,3.8,1.4,10.6.2,18.6-4.7,18.6-4.8,1.6-1,3.7-2.5,6.1-4.7.5.6,1.3,1.4,2.5,1.7,2.1.6,4-.7,7.4-2.4,3.3-1.5,4.2-1.6,6.6-2.6,4.8-2.1,18.2-9.5,35.5-20.6-2.3.7-5.2,1.4-8.7,1.6-3.2.2-6,0-8.2-.3,7.9-4.1,16.6-9.3,25.7-15.7,8.5-6,15.8-12.1,22-17.7-5,5.6-9.3,9.9-12.5,12.9-3.3,3.1-7.3,6.6-6.4,8.2.3.6,1.2.7,1.8.8,3.3-2.2,5.8-4.2,7.6-5.6,7.2-6.1,15.1-12.8,15.1-21.4-.1-.9-.2-1.7-.3-2.1h0ZM275.8,378.2c-.5,0-1-.4-1.1-.9,0-.6.7-1.2,1.4-1.1.6,0,1.1.6,1,1.1,0,.6-.7,1-1.3.9h0Z"/>
  <path class="st4" d="M350.5,287.7c-.9,1.5-2.6,5.1-2.1,9.7,1.2,9.1,10.5,13,10.9,13.1.4-1.9.6-4.1.5-6.5,0-.6,0-1.2-.1-1.8-.4.4-1,1-1.4,2-.6,1.5-.3,2.8-.2,3.4-1.4-.5-2.4-1.1-3.3-1.7-6.8-5.3-4.6-17.2-4.4-18.2h0Z"/>
  <path class="st4" d="M310.9,317.8c.2.1-1.1,1.5-4.6,6.9-4.4,6.7-5.5,9.4-4.4,11,.1.2.2.2.2.3,1.8,1.3,6.6-5.8,13.2-5.6h1.1c-2.3,1.3-4.1,2.3-5.2,3.1,0,0-8.4,5.3-10.3,4.7-.8-.2-1.2-.7-1.2-.7h0c-1.6-2.1,2.8-9.2,2.8-9.2,3.4-5.8,8.2-10.7,8.5-10.4h0Z"/>
  <path class="st0" d="M189.6,204.8c.4-.3,2.7.4,4,1.4.4.3.7.7.9.9.3-.3,1.6-1.6,4.4-2.1.4,0,2.6-.5,2.9-.1.6.6-3.1,3.8-7.4,3.2-3.5-.4-5.3-3.1-4.7-3.4Z"/>
  <path class="st0" d="M215.7,202.7c.4-.2,2.7.4,4,1.4.4.3.7.6.9.9.3-.3,1.6-1.5,4.4-2,.3,0,2.6-.4,2.9,0,.5.5-3.7,3.4-7.8,2.8-3.2-.4-4.9-2.7-4.3-3Z"/>
</svg>