<svg xmlns="http://www.w3.org/2000/svg">
<defs>
<font
   vert-adv-y="1024"
   vert-origin-y="768"
   vert-origin-x="512"
   horiz-origin-y="0"
   horiz-origin-x="0"
   id="font6932"
   horiz-adv-x="0"><font-face
   id="font-face6934"
   descent="-270"
   ascent="703"
   units-per-em="1000"
   font-family="fnt0" />
<missing-glyph
   id="missing-glyph6936"
   horiz-adv-x="0" />
<glyph
   id="glyph6938"
   d="M0 0 Z"
   horiz-adv-x="199"
   unicode=" " />
<glyph
   id="glyph6940"
   d="M192,290L405,290L298,555L192,290M202,-14C192,-6,183,1,175,6C167,12,156,16,144,21C123,30,101,34,77,34C35,34,1,21,-25,-6C-52,-34,-65,-69,-65,-113C-65,-155,-50,-188,-19,-214C12,-240,52,-253,101,-253C109,-253,118,-252,128,-251C137,-250,145,-250,150,-249C168,-246,184,-242,200,-236L204,-254C196,-258,187,-260,178,-262C168,-265,160,-267,154,-268C148,-269,140,-270,130,-271C119,-272,109,-272,99,-272C44,-272,-1,-256,-36,-225C-70,-194,-87,-153,-87,-103C-87,-53,-71,-11,-39,25C-8,60,37,82,93,92L220,413C213,425,206,433,198,438C190,443,179,446,166,447C154,447,145,445,138,440C129,436,122,429,116,419L109,408C106,400,101,395,95,394L89,397L87,403C87,431,96,457,115,481C134,506,155,518,178,518C190,518,202,516,213,510C224,504,236,494,247,481L287,584C283,592,278,598,273,603C268,608,261,613,253,617C240,624,226,628,211,628C206,628,201,628,195,627C190,626,183,623,173,620C164,616,153,609,141,597L125,576C120,566,115,561,111,561L105,563L102,571C102,575,105,583,110,597L128,631C146,655,165,673,186,685C207,697,230,703,254,703C264,703,272,703,279,701C286,700,292,698,298,694L310,686C316,683,320,679,323,675L334,703L353,693L340,661L583,52L623,84L631,68L545,-10L539,-14L534,-15L527,-12C525,-11,523,-8,521,-2L430,227L168,227L116,94C144,94,169,91,191,85C214,78,235,68,255,54L308,94L319,83L202,-14 Z"
   horiz-adv-x="626"
   unicode="A" />
<glyph
   id="glyph6942"
   d="M599,135C562,88,519,51,470,25C421,-1,369,-14,314,-14C274,-14,237,-6,202,8C167,22,136,44,109,72C81,101,60,135,46,175C31,215,24,260,24,308C24,387,44,459,83,525C122,590,175,641,244,677L251,665C201,631,164,589,140,540C116,492,104,434,104,368C104,267,128,189,175,133C223,77,290,49,378,49L391,49C396,49,403,50,412,51L445,58L445,591L440,591C424,591,410,594,398,599C391,601,385,604,378,609C372,613,364,618,355,624L320,595L320,267C320,227,314,198,300,178C286,158,262,143,226,132L220,142C229,152,235,163,239,177C243,191,245,208,245,228L245,531L163,468L156,483L414,697C427,685,440,675,452,669C465,663,478,660,490,660C501,660,512,663,523,668C534,673,547,681,560,693L570,687C556,659,541,637,524,620C508,605,488,595,465,589L465,62C483,70,502,81,523,95C543,109,564,127,587,147L599,135 Z"
   horiz-adv-x="608"
   unicode="C" />
<glyph
   id="glyph6944"
   d="M313,124L331,124C340,124,347,124,353,124C359,124,369,123,385,120C393,120,402,118,413,116C423,114,433,112,441,109L441,325C431,348,418,365,404,378C390,390,376,396,360,396C355,396,349,395,341,392L313,379L313,124M485,-12C449,13,411,32,373,45C335,58,297,64,259,64C198,64,148,47,111,14C72,-20,53,-65,53,-121C53,-166,66,-201,93,-226C106,-238,122,-248,140,-254C159,-261,180,-264,205,-264C227,-264,247,-261,266,-255C285,-250,304,-242,323,-230L329,-247C317,-255,308,-261,300,-263C293,-267,283,-270,269,-273C248,-279,225,-282,199,-282C149,-282,109,-268,80,-238C66,-224,56,-206,48,-186C41,-167,37,-144,37,-117C37,-54,60,-1,104,40C149,82,212,109,293,122L293,501C293,533,295,559,299,577C303,595,310,611,319,623C325,633,333,643,343,652C353,661,364,669,376,675C388,682,400,687,412,691C424,695,435,697,445,697C455,697,464,696,472,694C480,692,490,689,502,684C521,675,541,661,561,642L583,656L594,641L511,571C500,582,490,592,481,599C472,606,462,612,451,619C433,629,415,634,399,634C372,634,351,625,336,605C321,586,313,558,313,521L313,397L368,423C400,439,420,447,428,447C442,447,456,443,471,433C485,423,499,409,512,391L548,416L558,402L461,325L461,105C475,100,489,93,504,85C517,80,532,72,548,61L586,88L594,75L485,-12M150,442L150,449C150,477,153,496,158,507C163,518,171,528,183,538C188,542,193,546,198,550C200,552,205,555,215,561L236,571L241,569L242,566L240,560C230,542,225,519,225,490L225,235C225,225,225,215,225,203C225,191,222,180,217,171C212,161,204,151,192,139C183,131,173,124,162,117C151,110,144,106,139,106L135,107L133,112L136,117C145,135,150,158,150,187L150,326L126,326C113,326,104,324,97,319C90,315,84,306,80,295L77,283C75,275,72,270,67,269C63,269,60,273,59,279C57,287,56,300,56,320C56,344,63,361,75,372C88,383,109,388,138,388L150,388L150,442M300,691C290,662,274,639,252,622C230,604,207,595,181,595C162,595,135,601,101,612C90,616,78,620,65,623C52,626,43,628,39,629C23,629,11,624,1,613C-8,602,-13,587,-13,569C-13,554,-10,541,-3,532C0,526,3,521,7,518C11,515,16,512,23,508L19,494C3,501,-9,511,-17,524C-25,537,-29,552,-29,569C-29,600,-16,629,10,656C38,683,67,696,96,696C113,696,138,691,172,679C206,667,229,661,243,661C250,661,258,664,267,669C271,671,275,675,279,680C283,685,288,691,292,697L300,691 Z"
   horiz-adv-x="598"
   unicode="E" />
<glyph
   id="glyph6946"
   d="M306,388L500,388L500,519L447,505C441,504,434,503,426,502C418,501,411,501,403,501C393,501,383,501,373,501C365,503,358,505,353,506C349,507,342,509,332,511C323,514,314,517,306,519L306,388M150,442L150,449C150,477,153,496,158,507C163,518,171,529,183,539C188,543,193,546,198,550C200,552,205,555,215,561L236,571L241,569L242,566L240,560C230,542,225,519,225,490L225,267C225,235,223,213,218,203C213,193,204,182,192,171L160,147L139,137L135,139L133,144L136,149C145,167,150,190,150,219L150,326L126,326C113,326,104,324,97,319C90,315,84,306,80,295L77,283C75,275,72,270,67,269C62,269,60,273,59,279C57,287,56,300,56,320C56,344,63,361,75,372C88,383,109,388,138,388L150,388L150,442M500,326L306,326L306,187L360,201C374,204,383,205,386,206C389,206,395,206,403,206C411,206,418,206,426,205C434,205,444,203,455,201C466,199,473,197,477,196C481,195,489,192,500,187L500,326M235,-14C204,4,177,16,156,23C134,32,113,36,93,36C57,36,27,23,4,-3C-20,-30,-32,-62,-32,-100C-32,-141,-18,-174,11,-199C39,-225,76,-237,122,-237L133,-236L150,-236L150,-252L133,-254L116,-255C66,-255,25,-240,-4,-211C-35,-184,-51,-147,-51,-100C-51,-43,-32,6,7,45C44,84,90,104,147,104C158,104,168,103,177,102C186,101,197,98,209,94C221,90,234,86,247,81C259,76,272,69,286,62L286,663C269,641,251,624,234,612C216,600,198,594,181,594C162,594,136,600,103,612C70,623,49,629,39,629C23,629,11,624,1,613C-8,602,-13,587,-13,569C-13,555,-10,543,-3,534C3,525,13,517,26,511L19,494C3,501,-9,511,-17,524C-25,537,-29,552,-29,569C-29,600,-16,629,10,656C38,683,67,696,96,696C113,696,138,691,172,679C206,667,229,661,243,661C250,661,258,664,267,669C271,671,275,675,279,680C283,685,288,691,292,697L306,697L306,539L357,524C364,523,372,522,380,521C389,520,397,520,405,520C414,520,422,520,431,520C439,522,445,523,449,524C465,528,482,533,500,539L500,594L456,628L417,606L405,618L520,697L597,631L646,663L657,648L575,589L575,91L611,60L649,80L660,67L536,-14L471,47L418,18L408,36L500,90L500,168C484,174,468,178,451,181C434,184,422,185,416,186C410,186,404,186,400,186C394,186,387,186,379,185C371,184,363,183,354,181C346,179,338,178,332,176C325,174,316,172,306,168L306,65L334,88L345,73L235,-14 Z"
   horiz-adv-x="670"
   unicode="H" />
<glyph
   id="glyph6948"
   d="M235,107L235,290L195,317C186,312,178,309,171,306C164,303,155,300,143,297C132,294,118,292,102,292L91,292L188,189L178,176L142,211C120,198,104,184,93,171C83,157,77,141,77,123C77,106,82,90,92,76C103,63,119,51,140,41L235,107M235,85L94,-14C66,-3,46,12,32,29C19,46,12,66,12,89C12,118,22,143,40,163C58,184,88,204,131,224L60,299L56,303C45,316,39,328,39,339C39,351,44,362,52,371C60,380,69,384,80,384C92,384,101,380,109,371C117,362,121,352,121,341C121,335,120,329,117,323C114,317,110,312,105,309C127,309,150,316,174,328C198,340,223,359,249,384L319,329L358,353L365,341L300,297L300,76L331,44L359,64L367,51L286,-14C272,-5,261,8,251,25C243,42,238,62,235,85 Z"
   horiz-adv-x="377"
   unicode="a" />
<glyph
   id="glyph6950"
   d="M126,307L126,81L213,46L241,58L269,66L269,292L210,356C200,346,188,337,173,327C165,323,156,318,146,314C143,313,136,310,126,307M78,590L335,312L375,342L385,331L335,285L335,69L345,68L360,65L360,45L343,48L320,50C294,50,266,45,235,34C205,22,177,6,150,-14L50,45L12,24L4,38L61,78L61,301L43,302L33,304L37,324L58,321L74,321C97,321,119,325,141,333C160,341,179,354,196,370L38,543L78,590 Z"
   horiz-adv-x="395"
   unicode="d" />
<glyph
   id="glyph6952"
   d="M126,162L245,237L213,285L175,336L150,324L126,315L126,162M40,48L8,27L-2,39L61,86L61,301L43,302L33,304L37,324L45,324L54,323C77,323,102,329,131,339C160,349,189,364,218,384L262,322L308,254L126,138L126,86L201,40L287,95L297,79L149,-14L40,48 Z"
   horiz-adv-x="311"
   unicode="e" />
<glyph
   id="glyph6954"
   d="M137,384L206,384L218,411L234,407L206,334L137,334L137,76L167,52L196,72L204,58L111,-14L50,37L21,17L14,31L71,76L71,334L29,334L17,307L2,312L31,384L71,384L71,543L61,569C84,577,103,588,119,601C135,615,150,633,163,655C168,649,173,642,180,634C186,626,190,621,192,619C200,611,206,607,211,607L220,610L237,624L237,619L238,611C238,596,234,582,225,571C216,559,206,553,195,553C187,553,179,557,170,563C166,566,161,570,156,575C150,580,144,586,137,592L137,384 Z"
   horiz-adv-x="220"
   unicode="f" />
<glyph
   id="glyph6956"
   d="M31,516L114,584L161,542L183,556L195,542L112,474L64,517L40,502L31,516M153,334L184,355L196,343L127,291L127,74L154,46L183,65L195,54L105,-14C87,1,76,13,70,22C65,31,62,41,62,53L62,291L37,317L2,292L-6,306L98,384L153,334 Z"
   horiz-adv-x="205"
   unicode="i" />
<glyph
   id="glyph6958"
   d="M71,294L43,322L9,300L0,311L86,384C103,370,115,356,123,343C131,331,135,319,135,307L135,284L272,384C295,366,311,351,317,341C323,331,326,319,326,307L326,284L463,384C475,374,485,366,492,360C499,354,504,348,507,342C515,334,518,324,519,315L569,349L575,331L519,291L519,76L549,44L577,64L586,51L502,-14L468,23C460,37,456,45,456,46L456,290L417,325L326,259L326,76L357,52L386,72L394,58L301,-14L231,50L264,76L264,290L224,325L135,259L135,76L165,52L194,72L202,58L109,-14L50,37L21,17L14,31L71,76L71,294 Z"
   horiz-adv-x="596"
   unicode="m" />
<glyph
   id="glyph6960"
   d="M71,294L43,322L9,300L0,311L88,384C105,370,117,356,125,343C133,331,137,319,137,307L137,263L275,384L354,319L405,354L412,341L337,287L337,76L368,44L396,64L405,51L325,-14L296,11L268,41L271,63L273,94L273,291L233,323L137,241L137,76L167,52L196,72L204,58L111,-14L50,37L21,17L14,31L71,76L71,294 Z"
   horiz-adv-x="415"
   unicode="n" />
<glyph
   id="glyph6962"
   d="M126,79L213,44L241,54L269,61L269,288L189,329L161,318L126,309L126,79M61,78L61,301L43,302L33,304L37,324L47,323L64,323C93,323,124,329,156,339C188,349,220,364,252,384L335,324L374,344L382,330L335,299L335,69L349,67L364,64L358,46L349,46L332,47C298,47,266,42,236,32C206,22,177,6,150,-14L50,45L12,24L4,38L61,78 Z"
   horiz-adv-x="395"
   unicode="o" />
<glyph
   id="glyph6964"
   d="M139,99L149,99C173,99,195,95,214,87C234,80,252,69,270,52L282,57L282,288L219,328L139,270L139,99M74,81L74,290L44,322L10,300L3,311L89,384C105,370,118,357,127,343C135,329,139,317,139,307L139,292L268,384L359,323L392,340L396,327L348,295L348,70L375,67L375,50L366,50L353,51C326,51,303,46,282,36C261,25,242,9,224,-14C217,-2,210,7,205,14C199,20,191,27,181,36C167,46,153,52,139,54L139,-197L19,-270L12,-255L74,-216L74,55C62,53,50,49,40,43C29,37,18,28,8,18L-1,31C4,37,8,41,11,44C14,47,21,52,31,59C42,67,56,74,74,81 Z"
   horiz-adv-x="407"
   unicode="p" />
<glyph
   id="glyph6966"
   d="M126,79L201,39L267,78L267,275L196,332L162,319L126,309L126,79M344,313L380,342L391,332L332,279L332,-197L212,-270L205,-255L267,-216L267,55L151,-14L50,45L12,24L4,38L61,78L61,301L43,302L33,304L37,324L47,323L64,323C93,323,124,329,156,339C188,349,220,364,252,384L344,313 Z"
   horiz-adv-x="383"
   unicode="q" />
<glyph
   id="glyph6968"
   d="M137,275L233,384C238,369,244,357,252,348C260,339,269,335,278,335L292,338L301,342L303,340C303,326,296,312,281,297C265,283,248,276,230,276C219,276,210,278,203,282C196,286,188,291,181,299L137,249L137,76L167,52L196,72L204,58L111,-14L50,37L21,17L14,31L71,76L71,252C71,264,69,274,64,283C59,292,49,303,33,318L9,300L0,311L88,384C105,370,117,356,125,343C133,331,137,319,137,307L137,275 Z"
   horiz-adv-x="292"
   unicode="r" />
<glyph
   id="glyph6970"
   d="M44,38C50,41,57,45,67,50C77,55,87,59,98,63C116,69,131,71,144,71C153,71,163,69,175,63C185,60,196,53,207,42L235,53L242,182L167,182L44,38M105,203L172,203L274,323C270,321,263,317,254,313C245,309,240,306,238,305C228,301,218,299,208,299C202,299,197,300,193,300C190,301,184,303,177,306C166,311,153,319,139,329L123,323L111,319L105,203M0,-14L-14,0L138,177L3,177L3,196L40,196L45,314L32,317L21,322L29,338L49,334L70,333C93,333,114,337,133,346C155,355,174,367,189,384C195,379,202,374,210,369C217,363,226,358,236,353C246,349,256,346,267,344C276,344,284,347,291,351C297,354,305,360,315,370L326,384L340,371L201,207L338,207L338,189L309,189L303,61L322,56L322,39L302,42L289,43C277,43,266,42,255,40C244,38,233,35,221,30C209,25,198,19,189,13C180,6,169,-3,156,-14C140,0,124,11,109,17C94,24,80,27,69,27C59,27,48,25,38,20C28,16,20,9,14,1L0,-14 Z"
   horiz-adv-x="350"
   unicode="s" />
<glyph
   id="glyph6972"
   d="M51,37L23,17L14,31L73,76L73,334L26,334L9,308L-3,312L25,384L73,384L73,523L136,579L136,384L183,384L200,410L212,407L185,334L136,334L136,76L167,52L195,72L203,58L111,-14L51,37 Z"
   horiz-adv-x="214"
   unicode="t" />
<glyph
   id="glyph6974"
   d="M343,76L372,48L406,71L415,60L327,-14C311,2,299,16,292,28C283,40,279,52,279,63L279,108L140,-14L61,52L10,16L3,30L77,84L77,294L48,326L19,306L10,320L90,384C111,367,125,353,132,342C140,330,143,312,143,287L143,276L143,80L182,48L279,130L279,294L248,318L219,298L211,312L304,384L365,333L404,363L416,350L343,294L343,76 Z"
   horiz-adv-x="415"
   unicode="u" />
</font>
<font
   vert-adv-y="1024"
   vert-origin-y="768"
   vert-origin-x="512"
   horiz-origin-y="0"
   horiz-origin-x="0"
   id="font6976"
   horiz-adv-x="0"><font-face
   id="font-face6978"
   descent="-318"
   ascent="682"
   units-per-em="1000"
   font-family="fnt1" />
<missing-glyph
   id="missing-glyph6980"
   horiz-adv-x="0" />
<glyph
   id="glyph6982"
   d="M0 0 Z"
   horiz-adv-x="205"
   unicode=" " />
<glyph
   id="glyph6984"
   d="M143,-169C146,-169,149,-165,149,-162C149,-149,94,-105,94,10C94,179,222,426,448,607C553,691,620,712,620,723C620,726,617,729,612,729C603,729,522,692,400,605C167,438,48,246,48,67C48,-6,71,-78,114,-139C128,-159,139,-169,143,-169 Z"
   horiz-adv-x="324"
   unicode="(" />
<glyph
   id="glyph6986"
   d="M234,728C231,728,228,725,228,722C228,709,283,664,283,549C283,380,156,134,-70,-47C-175,-131,-244,-153,-244,-164C-244,-166,-240,-169,-235,-169C-226,-169,-145,-133,-23,-46C210,121,329,313,329,492C329,565,306,637,263,698C249,718,238,728,234,728 Z"
   horiz-adv-x="324"
   unicode=")" />
<glyph
   id="glyph6988"
   d="M130,40C130,58,117,70,100,70C74,70,60,51,60,13C60,-30,41,-56,-3,-74C-32,-86,-48,-84,-48,-96C-48,-100,-45,-103,-41,-103C-29,-103,14,-93,53,-66C104,-30,130,10,130,40 Z"
   horiz-adv-x="204"
   unicode="," />
<glyph
   id="glyph6990"
   d="M50,24C50,8,63,-5,79,-5C100,-5,119,20,119,41C119,57,107,70,91,70C69,70,50,45,50,24 Z"
   horiz-adv-x="204"
   unicode="." />
<glyph
   id="glyph6992"
   d="M18,24C18,8,31,-5,47,-5C68,-5,87,20,87,41C87,57,75,70,59,70C37,70,18,45,18,24M134,221C134,205,146,192,162,192C183,192,203,217,203,238C203,254,191,267,175,267C153,267,134,242,134,221 Z"
   horiz-adv-x="227"
   unicode=":" />
<glyph
   id="glyph6994"
   d="M90,40C90,58,76,69,59,69C33,69,19,50,19,12C19,-31,0,-56,-44,-74C-73,-86,-89,-84,-89,-96C-89,-100,-85,-103,-81,-103C-69,-103,-27,-93,12,-66C63,-30,90,10,90,40M134,221C134,205,146,192,162,192C183,192,203,217,203,238C203,254,191,267,175,267C153,267,134,242,134,221 Z"
   horiz-adv-x="227"
   unicode=";" />
<glyph
   id="glyph6996"
   d="M858,348C867,332,871,315,871,299C871,284,867,269,860,252C798,202,770,160,770,140C770,124,778,115,792,115C818,115,842,155,870,235C891,255,918,271,950,284C920,218,904,163,904,115C904,41,943,-2,1006,-2C1093,-2,1179,101,1179,189C1179,261,1129,313,1049,313L1038,313C1160,545,1258,660,1258,699C1258,711,1250,719,1237,719C1207,719,1133,658,1014,535L870,386C849,411,826,422,795,422C729,422,685,367,685,334C685,330,687,329,690,329C702,329,711,399,780,399C806,399,827,387,847,362C644,138,496,11,304,11C164,11,80,93,80,211C80,348,197,474,334,474C419,474,478,431,478,374C478,355,469,337,469,319C469,294,482,277,502,277C524,277,536,291,536,319C536,400,443,498,309,498C153,498,27,380,27,235C27,98,134,-5,295,-5C410,-5,503,29,601,101C659,143,742,227,858,348M875,257C886,277,892,297,892,317C892,337,889,354,880,373L1028,526C1141,643,1206,700,1223,700C1227,700,1228,696,1228,690C1228,667,1111,547,961,303C926,292,898,277,875,257M1028,294C1097,293,1131,256,1131,180C1131,84,1070,13,1010,13C974,13,958,33,958,76C958,120,979,195,1028,294 Z"
   horiz-adv-x="1220"
   unicode="A" />
<glyph
   id="glyph6998"
   d="M705,646C779,677,837,693,881,693C926,693,950,679,950,653C950,623,919,579,856,529C807,572,757,612,705,646M684,634C739,606,788,564,842,517C729,441,614,403,506,403C488,403,459,406,418,411C473,490,562,564,684,634M344,426C228,454,164,524,164,593C164,666,240,717,371,717C466,717,554,695,647,650C497,585,396,510,344,426M352,124C431,144,505,154,575,154C739,154,840,107,840,56C840,0,755,-66,629,-66C488,-66,386,4,352,124M297,126C202,91,154,64,154,52C154,48,156,47,161,47C176,47,218,84,307,110C384,-19,519,-93,659,-93C780,-93,858,-32,858,38C858,116,772,180,613,180C533,180,445,167,348,141C343,165,340,188,340,210C340,268,357,325,391,380L398,380C574,380,725,419,859,502C879,485,885,469,899,469C901,469,903,471,903,473C903,479,898,485,891,492L873,510C951,568,990,615,990,652C990,689,958,708,897,708C829,708,759,689,679,662C581,718,491,748,400,748C238,748,132,659,132,559C132,472,196,411,318,391C289,339,275,290,275,234C275,197,282,162,297,126 Z"
   horiz-adv-x="889"
   unicode="C" />
<glyph
   id="glyph7000"
   d="M403,210C370,158,331,117,284,84C204,100,143,109,99,109C35,109,2,90,2,53C2,21,35,-5,94,-5C143,-5,189,10,239,37C339,13,418,-4,478,-4C597,-4,711,42,785,117C851,184,888,272,888,359C888,468,835,559,728,645C767,680,791,692,791,701C791,705,787,708,782,708C772,708,750,690,710,657C634,706,560,730,479,730C308,730,193,614,193,463C193,344,273,244,403,210M427,245C305,285,228,393,228,504C228,617,301,687,423,687C508,687,590,662,665,613C581,516,516,386,427,245M307,81C352,116,394,155,430,204C453,202,470,201,480,201C567,201,648,240,692,298C717,331,728,366,728,378C728,384,726,388,721,388C708,388,708,367,696,340C667,276,593,233,507,233C495,233,478,234,455,237C537,348,584,487,683,603C800,520,859,422,859,321C859,175,739,51,559,51C504,51,420,62,307,81M209,43C167,21,130,10,99,10C49,10,23,25,23,51C23,65,35,77,59,77C84,77,136,67,209,43 Z"
   horiz-adv-x="887"
   unicode="D" />
<glyph
   id="glyph7002"
   d="M211,208C220,149,245,98,287,54C354,-17,462,-62,576,-62C706,-62,783,0,783,97C783,189,665,274,464,274C398,274,332,264,265,245C263,261,262,273,262,281C262,374,334,434,476,449C500,382,563,341,635,341C679,341,702,361,702,391C702,433,646,464,540,466C536,480,533,492,532,505C694,541,777,602,777,666C777,701,750,720,703,720C663,720,620,706,573,679C494,738,421,767,352,767C249,767,166,700,166,619C166,541,246,488,384,488C406,488,434,491,467,494C468,484,471,473,474,462C298,442,208,365,208,235L208,224C88,173,28,132,28,122C28,120,31,116,34,116C45,116,97,162,211,208M270,228C322,241,373,248,423,248C622,248,753,149,753,59C753,7,698,-40,610,-40C460,-40,314,69,270,228M543,451C636,449,686,422,686,387C686,371,675,359,656,359C611,359,574,390,543,451M533,524C535,634,601,705,690,705C724,705,744,688,744,655C744,591,674,550,533,524M468,518C451,517,438,516,428,516C290,516,190,579,190,644C190,700,249,743,347,743C418,743,489,719,559,672C505,630,475,582,468,518 Z"
   horiz-adv-x="824"
   unicode="E" />
<glyph
   id="glyph7004"
   d="M431,279C432,271,432,264,432,257C432,176,392,129,339,129C306,129,283,150,283,178C283,221,333,257,431,279M476,308C460,386,397,433,309,433C245,433,173,406,122,361C70,315,42,255,42,194C42,84,130,-2,247,-2C401,-2,572,112,689,342L856,384C817,310,798,240,798,173C798,75,853,6,938,-2L949,-55C952,-69,955,-76,962,-76C965,-76,969,-73,969,-69C969,-63,963,-42,960,-3C1103,5,1202,108,1202,209C1202,276,1159,323,1099,323C1010,323,931,235,931,74C931,56,932,38,933,20C889,28,864,74,864,153C864,232,890,313,937,405C1068,440,1171,474,1246,525C1311,569,1343,614,1343,659C1343,701,1317,725,1275,725C1197,725,1015,627,866,405L702,363C765,489,836,591,911,666C954,676,975,690,975,712C975,723,967,730,957,730C936,730,920,708,889,672C845,650,810,638,784,638C722,638,649,711,576,711C512,711,466,661,466,585C466,504,519,407,536,407C538,407,540,410,540,414C540,429,484,500,484,583C484,629,502,655,533,655C582,655,642,604,732,604C787,604,835,621,884,656C808,591,737,492,661,353L476,308M951,426C1061,619,1197,706,1259,706C1287,706,1300,694,1300,670C1300,595,1184,493,951,426M959,17C960,202,1012,304,1079,304C1120,304,1151,265,1151,200C1151,99,1073,17,963,17L959,17M650,333C542,134,439,37,296,37C180,37,99,120,99,231C99,333,185,410,280,410C349,410,401,370,425,296C304,265,244,220,244,165C244,125,269,101,309,101C385,101,477,183,477,284L477,290L650,333 Z"
   horiz-adv-x="1222"
   unicode="H" />
<glyph
   id="glyph7006"
   d="M532,359C635,576,733,684,849,684C913,684,950,639,950,562C950,425,836,313,677,313C624,313,577,328,532,359M502,378C466,421,450,464,450,515C450,624,516,706,623,706L646,706C653,706,657,707,657,712C657,719,644,722,617,722C484,722,399,639,399,525C399,458,429,403,490,356C396,154,299,50,194,44C127,60,75,72,37,72C8,72,-6,61,-6,41C-6,16,19,1,65,1C110,1,152,9,196,25C371,-51,494,-110,594,-110C730,-110,845,-15,845,113C845,147,838,169,831,169C827,169,825,166,825,161C825,153,830,134,830,104C830,13,753,-52,620,-52C529,-52,401,-16,227,36C345,66,423,167,520,338C572,312,623,299,676,299C865,299,1006,430,1006,566C1006,647,949,700,860,700C731,700,606,592,502,378 Z"
   horiz-adv-x="898"
   unicode="L" />
<glyph
   id="glyph7008"
   d="M1063,473C1204,596,1326,661,1444,661C1537,661,1591,621,1591,560C1591,522,1568,489,1521,454C1457,406,1367,377,1278,377C1214,377,1167,399,1125,425C1165,481,1204,507,1231,507C1260,507,1278,482,1303,482C1327,482,1345,500,1345,524C1345,545,1332,557,1309,557C1268,557,1193,520,1107,437C1091,447,1077,459,1063,473M1034,509C960,615,988,714,963,714C954,714,949,707,949,693C949,652,970,567,1023,496C937,396,869,287,806,174C850,297,869,411,869,504C869,640,808,713,705,713C654,713,595,692,546,651C493,608,466,553,466,501C466,433,511,387,577,387C657,387,716,462,716,492C716,496,712,498,709,498C700,498,674,413,596,413C551,413,519,454,519,524C519,624,602,698,691,698C758,698,799,648,799,556C799,458,755,334,666,220C568,94,458,32,333,32C178,32,70,143,70,276C70,378,150,451,249,451C341,451,412,385,412,291C412,244,393,208,361,190C341,179,326,177,326,169C326,164,329,163,335,163C380,163,462,237,462,328C462,417,394,486,297,486C154,486,32,369,32,223C32,90,129,-6,279,-6C417,-6,593,86,728,246C782,311,828,398,855,497C852,363,822,231,775,132C719,76,696,30,696,11C696,-1,706,-12,719,-12C744,-12,770,27,790,107C856,236,945,356,1053,461C1067,448,1080,437,1094,426C993,320,945,214,945,124C945,43,984,-6,1035,-6C1084,-6,1137,23,1199,78C1232,107,1249,132,1249,137C1249,140,1246,142,1243,142C1237,142,1228,126,1204,101C1152,47,1099,21,1075,21C1036,21,1012,60,1012,132C1012,227,1048,328,1115,411C1185,370,1246,347,1316,347C1393,347,1470,375,1531,426C1581,468,1606,513,1606,557C1606,632,1524,696,1397,696C1272,696,1154,634,1034,509 Z"
   horiz-adv-x="1238"
   unicode="M" />
<glyph
   id="glyph7010"
   d="M873,540C927,448,953,352,953,244C953,216,951,185,946,154C905,81,888,32,888,14C888,1,896,-8,906,-8C934,-8,952,41,961,141C1035,333,1146,480,1312,597C1409,613,1457,635,1457,666C1457,682,1443,695,1424,695C1392,695,1343,666,1282,608C1242,601,1206,596,1173,596C1133,596,1109,601,1103,601C1097,601,1094,599,1094,595C1094,587,1123,585,1185,585C1204,585,1228,588,1259,591C1125,481,1026,340,959,168C971,228,977,286,977,348C977,465,942,552,896,617C911,661,920,689,920,703C920,712,914,717,905,717C885,717,891,689,878,636C820,691,754,718,674,718C594,718,515,689,451,635C385,579,350,505,350,426C350,327,419,260,505,260C567,260,626,292,669,349C694,382,703,407,703,415C703,418,700,420,697,420C690,420,688,402,671,373C637,317,593,288,550,288C468,288,401,363,401,464C401,596,493,689,621,689C706,689,790,646,856,565C738,220,533,33,347,33C187,33,73,148,73,236C73,270,86,285,115,294C141,302,160,309,160,337C160,360,148,374,128,374C89,374,60,318,60,229C60,84,146,0,302,0C519,0,717,181,873,540 Z"
   horiz-adv-x="1116"
   unicode="N" />
<glyph
   id="glyph7012"
   d="M589,146C558,208,542,267,542,329C542,338,542,346,543,355C589,350,636,332,693,302C658,239,626,185,589,146M714,288C792,233,831,165,831,101C831,50,804,22,756,22C709,22,645,61,597,133C636,172,674,224,714,288M544,371C552,463,579,534,630,589C692,655,785,697,870,697C995,697,1080,614,1080,485C1080,395,1028,341,953,341C913,341,891,358,891,380C891,396,904,410,904,428C904,446,889,460,865,460C841,460,825,439,825,410C825,363,875,326,953,326C1060,326,1149,413,1149,528C1149,633,1049,723,903,723C718,723,542,585,494,376L471,376C332,376,261,325,261,239C261,167,321,121,407,121C417,121,422,123,422,129C422,137,406,131,370,143C330,157,310,186,310,230C310,305,373,358,474,358L490,358C488,340,487,322,487,305C487,234,506,167,544,102C484,58,425,36,360,36C203,36,78,145,78,256C78,309,95,298,135,305C162,310,177,327,177,347C177,377,162,394,138,394C96,394,63,339,63,253C63,91,160,-6,308,-6C394,-6,474,26,552,92C598,27,663,-8,726,-8C799,-8,845,39,845,116C845,180,804,240,721,300C781,413,820,500,857,553C899,612,939,632,939,640C939,643,936,646,933,646C916,646,806,558,699,315C653,343,603,360,544,371 Z"
   horiz-adv-x="995"
   unicode="P" />
<glyph
   id="glyph7014"
   d="M471,649C576,643,654,547,654,425C654,313,591,241,509,241C425,241,359,319,359,442C359,527,397,599,471,649M476,666L461,666C285,666,172,563,172,403C172,377,175,366,183,366C186,366,188,368,188,374C188,379,186,389,186,404C186,548,289,648,451,651C354,588,300,488,300,398C300,293,375,216,475,216C592,216,702,328,702,458C702,571,626,651,502,665C539,678,573,686,605,686C712,686,783,608,783,478C783,316,679,171,483,81C375,193,299,266,186,266C97,266,38,211,38,132C38,55,102,-5,211,-5C282,-5,360,11,445,44C590,-146,684,-249,829,-249C913,-249,977,-228,1038,-178C1064,-157,1076,-140,1076,-134C1076,-132,1075,-131,1071,-131C1063,-131,1009,-218,901,-218C786,-218,668,-117,498,68C711,176,820,329,820,481C820,609,733,699,607,699C572,699,523,689,476,666M432,58C381,38,330,28,275,28C147,28,72,94,72,164C72,214,112,250,177,250C262,250,343,186,432,58 Z"
   horiz-adv-x="750"
   unicode="Q" />
<glyph
   id="glyph7016"
   d="M681,380C698,432,714,480,729,525C756,505,779,479,801,450C761,418,722,395,681,380M736,542C774,643,841,696,925,696C1004,696,1063,637,1063,559C1063,492,1017,444,960,444C921,444,892,464,874,505C902,546,920,572,920,592C920,606,911,616,899,616C880,616,858,586,858,548C858,543,859,530,862,511C845,492,828,475,810,460C788,486,765,514,736,542M614,362C579,356,547,352,517,352C348,352,230,453,230,548C230,625,285,677,385,677C481,677,584,640,680,566C647,517,630,449,614,362M607,330C574,128,479,22,344,22C209,22,79,136,79,274C79,305,89,326,97,326C104,326,118,318,136,318C164,318,182,336,182,359C182,380,165,396,146,396C107,396,55,324,55,224C55,88,151,-5,295,-5C471,-5,604,118,673,353C718,370,761,399,810,436C854,378,865,344,873,344C877,344,879,346,879,350C879,361,860,394,820,447L865,492C886,449,919,429,968,429C1053,429,1116,494,1116,577C1116,654,1053,711,956,711C855,711,755,663,690,579C593,661,497,711,407,711C293,711,212,631,212,524C212,401,319,311,473,311C513,311,557,318,607,330 Z"
   horiz-adv-x="859"
   unicode="S" />
<glyph
   id="glyph7018"
   d="M268,567C177,542,130,512,130,504C130,501,133,497,137,497C146,497,180,530,264,551C258,523,255,497,255,473C255,333,349,225,467,225C573,225,659,319,659,408C659,504,558,585,407,585C370,585,330,580,284,571C300,630,352,665,423,665C573,665,713,610,841,610C880,610,919,615,962,623C876,560,817,463,747,346C630,149,537,33,377,33C311,33,245,56,192,99C138,143,107,206,107,257C107,304,132,302,153,305C183,310,199,327,199,352C199,372,185,386,165,386C122,386,94,335,94,249C94,91,194,-5,346,-5C476,-5,610,89,726,280C816,428,882,553,991,625C1074,632,1114,645,1114,672C1114,681,1105,689,1093,689C1061,689,1020,640,950,640C908,640,828,650,713,678C625,699,552,724,487,724C387,724,296,660,268,567M278,554C302,559,326,562,349,562C507,562,631,470,631,371C631,308,585,268,511,268C377,268,273,380,273,505C273,520,275,535,278,554 Z"
   horiz-adv-x="780"
   unicode="T" />
<glyph
   id="glyph7020"
   d="M254,449C294,464,329,472,362,472C478,472,566,382,566,299C566,240,520,191,454,191C358,191,253,286,253,409C253,420,253,434,254,449M212,443C145,401,111,346,111,340C111,337,114,334,117,334C126,334,144,370,204,420C201,402,199,385,199,367C199,245,284,156,400,156C506,156,588,225,588,330C588,429,511,498,387,498C341,498,298,489,255,469C269,595,376,683,496,683C620,683,712,577,712,401C712,197,560,37,379,37C280,37,218,87,175,87C154,87,140,76,140,59C140,19,218,-5,363,-5C725,-5,951,144,1071,445C1108,385,1175,357,1201,357C1209,357,1213,360,1213,366C1213,378,1188,373,1153,392C1111,415,1088,441,1080,478C1093,537,1101,586,1101,626C1101,685,1091,711,1062,711C1037,711,1017,677,1017,620C1017,587,1028,548,1045,498C949,177,752,20,441,20C426,20,412,20,397,21C620,50,776,236,776,447C776,612,681,715,534,715C390,715,244,601,212,443 Z"
   horiz-adv-x="1028"
   unicode="V" />
<glyph
   id="glyph7022"
   d="M716,144C608,60,529,19,486,19C453,19,436,43,436,87C436,153,475,226,531,322C601,441,653,526,653,606C653,683,611,725,532,725C458,725,386,689,330,621C269,547,234,446,234,339C234,230,269,146,277,146C281,146,283,149,283,151C283,159,248,221,248,323C248,443,287,535,376,611C440,665,518,693,564,693C613,693,640,665,640,615C640,565,590,505,512,403C439,308,381,233,381,132C381,46,414,1,476,1C529,1,600,41,698,111C593,-83,494,-172,341,-172C249,-172,180,-143,122,-79C84,-38,66,6,66,37C66,74,84,73,110,84C142,98,158,118,158,141C158,161,144,176,125,176C85,176,52,111,52,13C52,-133,143,-215,287,-215C452,-215,619,-93,754,153C1051,374,1187,586,1187,677C1187,703,1174,718,1152,718C1078,718,907,534,716,144M770,183C948,531,1083,703,1155,703C1165,703,1173,693,1173,680C1173,650,1133,585,1054,483C954,354,863,252,770,183 Z"
   horiz-adv-x="924"
   unicode="Y" />
<glyph
   id="glyph7024"
   d="M268,214C271,223,272,230,272,236C272,263,252,282,219,282C172,282,107,252,39,184C8,153,-8,133,-8,128C-8,125,-6,124,-2,124C3,124,10,130,19,144C14,127,12,112,12,97C12,32,35,-5,70,-5C106,-5,149,24,196,83C193,67,191,55,191,45C191,13,205,-5,232,-5C269,-5,304,28,357,82C387,112,403,131,403,138C403,141,400,142,397,142C391,142,380,125,351,96C296,39,260,11,243,11C232,11,228,16,228,27C228,46,243,70,265,105L375,278L309,274L268,214M54,44C54,74,72,128,113,186C152,240,192,267,223,267C242,267,256,253,256,236C256,198,229,140,171,76C133,34,99,13,78,13C63,13,54,25,54,44 Z"
   horiz-adv-x="394"
   unicode="a" />
<glyph
   id="glyph7026"
   d="M371,611L302,602L174,383C69,204,-7,139,-7,128C-7,125,-6,124,-2,124C3,124,9,133,20,145L44,172C22,126,5,91,5,59C5,19,26,-5,63,-5C111,-5,166,22,217,76C226,74,234,74,240,74C277,74,311,91,342,126L353,139C354,140,354,141,354,144C354,148,353,150,350,150C348,150,345,149,343,146L329,132C302,104,270,88,248,88C243,88,237,90,231,91C275,150,294,204,294,241C294,268,284,282,265,282C225,282,235,240,225,178C207,68,132,10,71,10C50,10,41,15,41,29C41,50,70,100,122,188L371,611 Z"
   horiz-adv-x="338"
   unicode="b" />
<glyph
   id="glyph7028"
   d="M20,144C16,129,14,116,14,103C14,40,49,-5,98,-5C144,-5,187,24,240,77C273,111,291,130,291,137C291,140,289,142,285,142C278,142,265,120,227,83C180,36,143,9,104,9C78,9,63,26,63,56C63,161,171,268,221,268C234,268,242,260,242,251C242,232,211,234,211,210C211,193,223,184,241,184C261,184,278,203,278,230C278,262,253,282,213,282C161,282,96,247,32,178C5,149,-8,133,-8,129C-8,126,-6,125,-2,125C3,125,10,131,20,144 Z"
   horiz-adv-x="281"
   unicode="c" />
<glyph
   id="glyph7030"
   d="M268,214C271,223,272,230,272,236C272,263,252,282,219,282C172,282,107,252,39,184C8,153,-8,133,-8,128C-8,125,-6,124,-2,124C3,124,10,130,19,144C14,127,12,112,12,97C12,32,35,-5,70,-5C106,-5,149,24,196,83C193,67,191,55,191,45C191,13,205,-5,232,-5C269,-5,304,28,357,82C387,112,403,131,403,138C403,141,400,142,397,142C391,142,382,128,358,103C300,43,262,14,249,14C240,14,233,20,233,28C233,46,250,82,282,137L555,611L490,608L268,214M54,44C54,74,72,128,113,186C152,240,192,267,223,267C242,267,256,253,256,236C256,198,229,140,171,76C133,34,99,13,78,13C63,13,54,25,54,44 Z"
   horiz-adv-x="394"
   unicode="d" />
<glyph
   id="glyph7032"
   d="M20,145C16,130,14,116,14,103C14,40,50,-5,99,-5C144,-5,187,24,240,77C273,111,291,130,291,137C291,140,289,142,285,142C278,142,265,121,227,83C180,37,142,10,104,10C79,10,64,26,64,56C64,65,66,78,69,96C199,126,270,184,270,236C270,262,249,282,215,282C160,282,96,248,32,178C6,150,-7,133,-7,129C-7,126,-6,125,-2,125C3,125,10,132,20,145M74,112C112,215,185,270,219,270C229,270,237,261,237,250C237,210,178,134,74,112 Z"
   horiz-adv-x="281"
   unicode="e" />
<glyph
   id="glyph7034"
   d="M184,285C290,502,363,612,424,612C441,612,451,601,451,583C451,542,374,413,184,285M50,14L167,252C370,400,473,505,473,578C473,604,453,626,427,626C351,626,263,516,150,299C43,198,-7,137,-7,128C-7,126,-6,124,-3,124C9,124,38,174,120,247L18,56C12,59,7,61,2,61C-15,61,-29,47,-29,28C-29,19,-24,9,-13,0L-172,-294L-101,-286L37,-10L41,-10C72,-10,111,12,157,55C205,100,230,130,230,137C230,140,227,142,224,142C218,142,203,121,165,82C119,36,81,14,55,14L50,14 Z"
   horiz-adv-x="220"
   unicode="f" />
<glyph
   id="glyph7036"
   d="M268,214C271,223,272,230,272,236C272,263,252,282,219,282C172,282,107,252,39,184C8,153,-8,133,-8,128C-8,125,-6,124,-2,124C3,124,10,130,19,144C14,127,12,112,12,97C12,32,35,-5,70,-5C109,-5,151,29,204,91L153,-19C-23,-122,-114,-196,-114,-266C-114,-299,-96,-316,-63,-316C1,-316,94,-220,197,-25C318,49,378,129,378,137C378,140,376,142,373,142C362,142,322,70,211,-2C254,81,307,175,370,278L309,274L268,214M54,44C54,74,72,128,113,186C152,240,192,267,223,267C242,267,256,253,256,236C256,198,229,140,171,76C133,34,99,13,78,13C63,13,54,25,54,44M142,-40C56,-214,-5,-302,-58,-302C-77,-302,-87,-290,-87,-268C-87,-213,-13,-130,142,-40 Z"
   horiz-adv-x="369"
   unicode="g" />
<glyph
   id="glyph7038"
   d="M-42,-1L19,6C158,183,249,267,276,267C284,267,287,263,287,255C287,240,270,223,243,189C205,141,179,106,179,66C179,24,198,-5,227,-5C247,-5,284,23,339,79C370,111,387,129,387,137C387,140,385,142,382,142C376,142,365,125,336,95C281,38,244,10,228,10C217,10,212,16,212,28C212,46,229,72,258,112C292,159,320,191,320,234C320,263,305,283,282,283C246,283,190,228,99,128L382,611L317,602L189,383C84,204,-7,145,-7,128C-7,125,-5,124,-1,124C2,124,11,131,22,143L102,229L-42,-1 Z"
   horiz-adv-x="377"
   unicode="h" />
<glyph
   id="glyph7040"
   d="M212,435C212,418,224,406,240,406C261,406,280,430,280,451C280,468,269,480,253,480C232,480,212,456,212,435M89,219C41,146,8,100,8,58C8,19,30,-5,62,-5C94,-5,130,27,184,82C214,113,230,130,230,137C230,140,228,142,224,142C217,142,206,126,178,96C124,39,88,9,61,9C52,9,44,18,44,28C44,45,63,75,93,122L192,278L120,273C35,185,-7,136,-7,128C-7,126,-6,125,-3,125C7,125,29,160,89,219 Z"
   horiz-adv-x="220"
   unicode="i" />
<glyph
   id="glyph7042"
   d="M180,435C180,418,191,406,207,406C228,406,247,430,247,451C247,468,236,480,220,480C199,480,180,456,180,435M-25,-40C-111,-214,-172,-302,-225,-302C-244,-302,-254,-290,-254,-268C-254,-213,-180,-130,-25,-40M108,240L-13,-19C-189,-122,-280,-196,-280,-266C-280,-299,-262,-316,-229,-316C-165,-316,-72,-220,31,-25C154,54,211,129,211,138C211,141,208,142,205,142C195,142,156,75,44,-2C91,86,138,179,185,278L114,273L16,161C1,144,-7,134,-7,128C-7,126,-5,124,-2,124C8,124,36,165,108,240 Z"
   horiz-adv-x="201"
   unicode="j" />
<glyph
   id="glyph7044"
   d="M88,219C40,146,8,100,8,58C8,19,30,-5,62,-5C94,-5,130,27,184,82C214,113,230,130,230,137C230,140,228,142,224,142C217,142,206,124,178,96C123,41,90,9,58,9C48,9,40,17,40,28C40,45,59,75,89,122L397,611L332,602L135,296C132,292,104,257,48,196L16,161C1,144,-7,134,-7,128C-7,126,-5,124,-2,124C8,124,29,159,88,219 Z"
   horiz-adv-x="220"
   unicode="l" />
<glyph
   id="glyph7046"
   d="M13,-1L84,6C220,173,293,267,335,267C345,267,349,264,349,255C349,240,337,222,318,194L188,-1L258,6C394,182,481,267,507,267C515,267,518,263,518,255C518,240,501,223,474,189C436,141,410,106,410,66C410,24,429,-5,458,-5C478,-5,515,23,570,79C601,111,619,129,619,137C619,140,616,142,613,142C607,142,596,125,567,95C512,38,475,10,459,10C448,10,443,16,443,28C443,46,460,72,489,112C523,159,551,191,551,234C551,263,536,283,513,283C477,283,424,229,337,130C364,169,379,204,379,241C379,265,363,283,339,283C299,283,246,230,165,128C191,170,205,204,205,236C205,265,190,283,166,283C133,283,99,251,48,196L16,161C1,144,-7,134,-7,128C-7,126,-5,124,-2,124C7,124,18,144,45,173C102,234,138,267,162,267C172,267,176,263,176,254C176,240,163,222,144,194L13,-1 Z"
   horiz-adv-x="609"
   unicode="m" />
<glyph
   id="glyph7048"
   d="M14,-1L84,6C223,182,313,266,341,266C349,266,352,263,352,255C352,240,335,223,308,189C270,141,244,106,244,66C244,24,263,-5,292,-5C312,-5,349,23,404,79C435,111,453,129,453,137C453,140,450,142,447,142C441,142,430,125,401,95C346,38,309,10,293,10C282,10,277,16,277,28C277,46,294,72,323,112C357,159,385,191,385,234C385,263,370,282,347,282C311,282,255,229,165,128C191,170,205,204,205,236C205,265,190,283,166,283C133,283,99,251,48,196L16,161C1,144,-7,134,-7,128C-7,126,-5,124,-2,124C7,124,18,144,45,173C102,234,138,267,162,267C172,267,176,263,176,254C176,239,163,222,144,194L14,-1 Z"
   horiz-adv-x="443"
   unicode="n" />
<glyph
   id="glyph7050"
   d="M224,91C259,136,279,174,279,212C279,256,252,284,210,284C163,284,98,250,34,180C7,150,-7,134,-7,129C-7,126,-6,125,-2,125C3,125,10,132,20,145C15,128,12,113,12,99C12,31,37,-5,79,-5C115,-5,162,22,211,76C220,74,228,74,234,74C271,74,308,92,336,126L347,139C348,140,348,142,348,144C348,148,347,150,344,150C341,150,337,148,336,147L323,132C295,101,263,88,240,88C234,88,229,90,224,91M56,47C56,78,72,129,112,186C150,240,184,267,214,267C237,267,252,249,252,217C252,177,228,121,181,71C143,30,106,11,87,11C66,11,56,23,56,47 Z"
   horiz-adv-x="332"
   unicode="o" />
<glyph
   id="glyph7052"
   d="M-125,-257L7,-33C128,173,255,267,276,267C284,267,287,263,287,255C287,240,270,223,243,189C205,141,179,106,179,66C179,24,198,-5,227,-5C247,-5,284,23,339,79C370,111,387,129,387,137C387,140,385,142,382,142C376,142,365,125,336,95C281,38,244,10,228,10C217,10,212,16,212,28C212,46,229,72,258,112C292,159,320,191,320,234C320,263,305,283,282,283C246,283,190,228,99,128L313,477L253,472L195,381C86,209,-7,145,-7,128C-7,125,-5,124,-1,124C2,124,11,131,22,143L102,229L-190,-264L-125,-257 Z"
   horiz-adv-x="377"
   unicode="p" />
<glyph
   id="glyph7054"
   d="M268,210C270,220,271,228,271,236C271,265,252,283,219,283C172,283,102,250,34,179C6,150,-8,134,-8,128C-8,125,-6,125,-2,125C3,125,10,131,20,144C15,128,12,112,12,98C12,32,35,-4,70,-4C106,-4,149,25,196,84L-12,-284L50,-280C234,-5,374,119,374,139C374,141,372,142,369,142C362,142,338,113,289,55L225,-20C207,-41,174,-82,127,-141L362,278L309,275L268,210M54,44C54,74,72,128,113,186C152,240,192,267,223,267C242,267,256,253,256,236C256,198,229,140,171,76C133,34,99,13,78,13C63,13,54,25,54,44 Z"
   horiz-adv-x="363"
   unicode="q" />
<glyph
   id="glyph7056"
   d="M14,0L84,7C141,79,189,133,232,169C224,148,219,132,219,121C219,96,234,82,261,82C296,82,341,126,341,138C341,141,338,143,335,143C326,143,300,95,259,95C244,95,234,106,234,122C234,157,251,178,275,196C319,229,348,248,348,267C348,276,339,283,325,283C284,283,265,254,243,196C212,169,184,142,157,116C185,163,205,198,205,240C205,264,190,283,166,283C133,283,99,251,48,196L16,161C1,144,-7,134,-7,128C-7,126,-5,124,-2,124C7,124,18,144,45,173C102,234,138,267,162,267C172,267,176,263,176,254C176,240,163,222,144,194L14,0 Z"
   horiz-adv-x="330"
   unicode="r" />
<glyph
   id="glyph7058"
   d="M123,258C124,245,125,232,125,220C125,87,58,11,24,11C14,11,9,16,9,22C9,36,21,49,21,60C21,70,12,79,0,79C-16,79,-31,64,-31,47C-31,16,-4,-5,37,-5C90,-5,133,30,189,89C214,115,228,131,228,137C228,140,226,142,222,142C215,142,194,112,143,61C152,81,156,99,156,120C156,159,137,200,137,239C137,270,146,268,162,275C176,281,183,289,183,300C183,312,176,319,163,319C148,319,134,306,122,277C38,185,-8,138,-8,128C-8,126,-6,124,-3,124C9,124,41,175,123,258 Z"
   horiz-adv-x="218"
   unicode="s" />
<glyph
   id="glyph7060"
   d="M89,219C41,146,8,100,8,58C8,19,30,-5,62,-5C94,-5,130,27,184,82C214,113,230,130,230,137C230,140,228,142,224,142C217,142,207,126,178,96C124,40,89,9,61,9C52,9,44,18,44,28C44,42,60,73,91,122L240,361L356,361L364,375L249,375L313,477L248,472L187,375L138,375L130,361L178,361L135,296C85,221,-7,149,-7,128C-7,126,-6,125,-3,125C7,125,29,160,89,219 Z"
   horiz-adv-x="220"
   unicode="t" />
<glyph
   id="glyph7062"
   d="M249,87L369,277L302,273C197,97,109,10,59,10C50,10,43,18,43,28C43,45,62,74,92,122L191,277L119,273C35,185,-8,136,-8,128C-8,126,-6,125,-3,125C7,125,29,160,88,219C40,147,7,100,7,58C7,19,30,-5,62,-5C91,-5,137,27,193,92C191,83,189,73,189,63C189,24,207,-5,236,-5C257,-5,298,26,358,89C383,115,397,130,397,138C397,140,395,142,391,142C383,142,374,124,345,95C290,39,255,10,237,10C226,10,221,16,221,28C221,43,232,60,249,87 Z"
   horiz-adv-x="388"
   unicode="u" />
<glyph
   id="glyph7064"
   d="M298,91C358,163,383,222,383,250C383,272,374,283,356,283C314,283,332,229,314,170C283,70,192,10,141,10C125,10,116,18,116,35C116,52,138,84,173,137C195,170,212,197,212,231C212,263,194,284,168,284C132,284,99,251,48,196L16,161C1,144,-7,134,-7,128C-7,126,-5,124,-2,124C6,124,17,141,45,172C102,234,139,267,162,267C171,267,175,264,175,256C175,239,161,215,135,179C107,141,81,110,81,64C81,24,101,-4,134,-4C174,-4,226,22,284,76C293,74,301,74,307,74C344,74,378,91,409,126L420,139C421,140,421,141,421,144C421,148,421,150,418,150C415,150,410,148,409,147L396,132C371,105,338,88,315,88C310,88,304,90,298,91 Z"
   horiz-adv-x="405"
   unicode="v" />
<glyph
   id="glyph7066"
   d="M128,87L128,84C128,28,155,-5,183,-5C205,-5,243,23,297,79C329,111,345,129,345,137C345,140,342,142,339,142C333,142,323,124,294,95C239,38,201,10,185,10C172,10,168,16,168,30C168,55,180,106,212,157C254,225,293,259,309,259C330,259,318,221,351,221C365,221,378,232,378,247C378,270,362,283,335,283C295,283,260,249,213,183C213,189,214,195,214,200C214,255,196,283,165,283C133,283,99,251,48,196L16,161C1,144,-7,134,-7,128C-7,126,-5,124,-2,124C6,124,17,142,45,172C102,234,138,267,160,267C172,267,175,262,175,248C175,217,156,152,125,106C85,46,32,17,21,17C-2,17,21,63,-18,63C-35,63,-48,49,-48,31C-48,11,-29,-5,-2,-5C34,-5,75,27,128,87 Z"
   horiz-adv-x="334"
   unicode="x" />
<glyph
   id="glyph7068"
   d="M291,133L212,-19C36,-122,-55,-196,-55,-266C-55,-299,-37,-316,-4,-316C60,-316,153,-220,256,-25C377,49,437,129,437,137C437,140,435,142,432,142C421,142,381,70,270,-2C313,81,366,175,429,278L368,274C262,95,158,17,131,17C123,17,115,26,115,37C115,52,136,83,170,135C193,169,211,198,211,231C211,263,194,284,168,284C132,284,99,251,48,196L16,161C1,144,-7,134,-7,128C-7,126,-5,124,-2,124C6,124,17,142,45,172C102,234,138,267,160,267C171,267,175,264,175,254C175,239,161,215,135,179C107,141,81,109,81,62C81,26,101,3,123,3C158,3,215,46,291,133M201,-40C113,-213,56,-302,1,-302C-18,-302,-28,-290,-28,-268C-28,-213,46,-130,201,-40 Z"
   horiz-adv-x="427"
   unicode="y" />
<glyph
   id="glyph7070"
   d="M10,57C-21,40,-37,26,-37,9C-37,2,-32,-3,-24,-3C-3,-3,6,30,41,57C77,85,122,98,137,98C142,98,144,97,144,94C144,83,136,71,136,51C136,15,153,-5,177,-5C203,-5,238,25,292,80C324,112,340,130,340,137C340,140,337,142,334,142C327,142,315,121,280,86C229,36,198,10,186,10C182,10,179,15,179,21C179,33,200,58,200,85C200,106,184,122,161,122C138,122,112,108,78,92C134,140,192,185,251,227C281,243,298,249,298,268C298,274,292,279,284,279C259,279,245,219,157,219C135,219,125,227,125,236C125,242,133,252,133,265C133,278,123,287,106,287C86,287,73,275,73,256C73,252,75,246,78,239C53,203,27,174,5,147L-6,133C-7,131,-7,130,-7,129L-7,125C-7,124,-5,122,-2,122C0,122,3,124,6,128L22,146C27,152,49,178,86,224C101,210,118,204,141,204C160,204,181,209,206,216C142,168,77,115,10,57 Z"
   horiz-adv-x="330"
   unicode="z" />
<glyph
   id="glyph7072"
   d="M268,214C271,223,272,230,272,236C272,263,252,282,219,282C172,282,107,252,39,184C8,153,-8,133,-8,128C-8,125,-6,124,-2,124C3,124,10,130,19,144C14,127,12,112,12,97C12,32,35,-5,70,-5C106,-5,149,24,196,83C193,67,191,55,191,45C191,13,205,-5,232,-5C269,-5,304,28,357,82C387,112,403,131,403,138C403,141,400,142,397,142C391,142,380,125,351,96C296,39,260,11,243,11C232,11,228,16,228,27C228,46,243,70,265,105L375,278L309,274L268,214M54,44C54,74,72,128,113,186C152,240,192,267,223,267C242,267,256,253,256,236C256,198,229,140,171,76C133,34,99,13,78,13C63,13,54,25,54,44M229,296C243,296,266,309,302,330C363,366,394,404,394,436C394,455,382,466,364,466C328,466,327,414,303,379C266,326,221,317,221,303C221,298,223,296,229,296 Z"
   horiz-adv-x="394"
   unicode="á" />
<glyph
   id="glyph7074"
   d="M89,219C41,146,8,100,8,58C8,19,30,-5,62,-5C94,-5,130,27,184,82C214,113,230,130,230,137C230,140,228,142,224,142C217,142,206,126,178,96C124,39,88,9,61,9C52,9,44,18,44,28C44,45,63,75,93,122L192,278L120,273C35,185,-7,136,-7,128C-7,126,-6,125,-3,125C7,125,29,160,89,219M142,296C156,296,179,309,215,330C276,366,307,404,307,436C307,455,295,466,277,466C241,466,240,414,216,379C179,326,134,317,134,303C134,298,136,296,142,296 Z"
   horiz-adv-x="220"
   unicode="í" />
<glyph
   id="glyph7076"
   d="M249,87L369,277L302,273C197,97,109,10,59,10C50,10,43,18,43,28C43,45,62,74,92,122L191,277L119,273C35,185,-8,136,-8,128C-8,126,-6,125,-3,125C7,125,29,160,88,219C40,147,7,100,7,58C7,19,30,-5,62,-5C91,-5,137,27,193,92C191,83,189,73,189,63C189,24,207,-5,236,-5C257,-5,298,26,358,89C383,115,397,130,397,138C397,140,395,142,391,142C383,142,374,124,345,95C290,39,255,10,237,10C226,10,221,16,221,28C221,43,232,60,249,87M226,296C240,296,263,309,299,330C360,366,391,404,391,436C391,455,379,466,361,466C325,466,324,414,300,379C263,326,218,317,218,303C218,298,220,296,226,296 Z"
   horiz-adv-x="388"
   unicode="ú" />
</font>
</defs>
</svg>
