<?xml version="1.0" encoding="UTF-8" standalone="no"?>
<svg
   xmlns:dc="http://purl.org/dc/elements/1.1/"
   xmlns:cc="http://creativecommons.org/ns#"
   xmlns:rdf="http://www.w3.org/1999/02/22-rdf-syntax-ns#"
   xmlns:svg="http://www.w3.org/2000/svg"
   xmlns="http://www.w3.org/2000/svg"
   xmlns:sodipodi="http://sodipodi.sourceforge.net/DTD/sodipodi-0.dtd"
   xmlns:inkscape="http://www.inkscape.org/namespaces/inkscape"
   width="1141.8518"
   height="1123.3673"
   viewBox="0 0 913.48145 898.69385"
   version="1.1"
   id="svg2"
   inkscape:version="0.48.2 r9819"
   sodipodi:docname="318756_325581784199957_16711675_n2.svg">
  <metadata
     id="metadata171">
    <rdf:RDF>
      <cc:Work
         rdf:about="">
        <dc:format>image/svg+xml</dc:format>
        <dc:type
           rdf:resource="http://purl.org/dc/dcmitype/StillImage" />
        <dc:title></dc:title>
      </cc:Work>
    </rdf:RDF>
  </metadata>
  <defs
     id="defs169" />
  <sodipodi:namedview
     pagecolor="#ffffff"
     bordercolor="#666666"
     borderopacity="1"
     objecttolerance="10"
     gridtolerance="10"
     guidetolerance="10"
     inkscape:pageopacity="0"
     inkscape:pageshadow="2"
     inkscape:window-width="1680"
     inkscape:window-height="988"
     id="namedview167"
     showgrid="false"
     inkscape:zoom="0.27812867"
     inkscape:cx="1257.7427"
     inkscape:cy="694.27537"
     inkscape:window-x="-8"
     inkscape:window-y="-8"
     inkscape:window-maximized="1"
     inkscape:current-layer="svg2"
     fit-margin-top="0"
     fit-margin-left="0"
     fit-margin-right="0"
     fit-margin-bottom="0" />
  <path
     sodipodi:type="arc"
     style="fill:#008000;fill-opacity:1;stroke:#bdc400;stroke-width:1.25399995;stroke-miterlimit:4;stroke-opacity:1;stroke-dasharray:none;stroke-dashoffset:0"
     id="path3150-1"
     sodipodi:cx="-967.17828"
     sodipodi:cy="495.29019"
     sodipodi:rx="650.77795"
     sodipodi:ry="611.22791"
     d="m -316.40033,495.29019 a 650.77795,611.22791 0 1 1 -1301.55587,0 650.77795,611.22791 0 1 1 1301.55587,0 z"
     transform="matrix(0.70116113,0,0,0.73439571,1134.895,85.603)" />
  <path
     sodipodi:type="arc"
     style="fill:#ffffff;fill-opacity:1;stroke:#bdc400;stroke-width:1.25399995;stroke-miterlimit:4;stroke-opacity:1;stroke-dasharray:none;stroke-dashoffset:0"
     id="path3150"
     sodipodi:cx="-967.17828"
     sodipodi:cy="495.29019"
     sodipodi:rx="650.77795"
     sodipodi:ry="611.22791"
     d="m -316.40033,495.29019 a 650.77795,611.22791 0 1 1 -1301.55587,0 650.77795,611.22791 0 1 1 1301.55587,0 z"
     transform="matrix(0.67037124,0,0,0.70431485,1105.6089,100.19929)" />
  <g
     id="#fefefdff"
     transform="translate(-7.2813772,-20.51943)" />
  <g
     id="#010101ff"
     transform="translate(-7.2813772,-20.51943)">
    <path
       d="m 451.21,116.57 c -1.69,-4.94 2.93,-8.73 4.79,-12.89 0.05,8.97 -0.8,18.09 1.25,26.92 0.84,3.31 1.49,6.68 2.02,10.06 5.87,0.08 11.75,0.27 17.63,0.09 -0.36,-1.96 -0.75,-3.91 -1.06,-5.87 -1.25,1.98 -2.24,4.98 -4.98,5.14 -3.97,0.76 -6.55,-3.65 -7.06,-7.01 -0.42,-5.46 1.39,-11.12 4.76,-15.42 1.39,-1.88 3.92,-2.06 5.98,-1.33 3.84,3.16 5.21,8.29 6.27,12.95 1.34,8.92 0.12,17.95 -1.61,26.73 -7.89,-0.35 -15.78,0.11 -23.67,-0.1 -1.83,-13.05 -2.09,-26.29 -4.32,-39.27 m 17.49,9.15 c 0.23,1.8 -0.3,4.17 1.69,5.15 1.67,1.05 3.37,-0.2 4.99,-0.73 -0.77,-1.41 -1.39,-2.92 -2.37,-4.19 -1.26,-1.03 -2.89,-0.3 -4.31,-0.23 z"
       id="path6"
       inkscape:connector-curvature="0"
       style="fill:#010101" />
    <path
       d="m 465.07,108.53 c 1.69,-1.59 3.38,-3.17 5.13,-4.71 1.68,1.91 3.39,3.81 5.19,5.61 -1.69,1.42 -3.32,2.89 -4.95,4.36 -1.8,-1.75 -3.58,-3.52 -5.37,-5.26 z"
       id="path8"
       inkscape:connector-curvature="0"
       style="fill:#010101" />
    <path
       d="m 403.93,110.36 c 3.61,13.32 6.94,26.72 10.75,39.98 0.81,4.1 -0.24,8.22 -1.11,12.22 -4.27,-13.65 -8.82,-27.22 -13.42,-40.76 0.24,-3.97 2.81,-7.56 3.78,-11.44 z"
       id="path10"
       inkscape:connector-curvature="0"
       style="fill:#010101" />
    <path
       d="m 513.54,118.98 c 1.75,-3.55 4.59,-6.45 6.92,-9.63 0.2,4.79 0.75,9.89 4.29,13.5 -1.34,2.24 -2.76,4.46 -4.82,6.12 -2.5,10.2 -2.46,20.83 -4,31.19 -5.87,-0.9 -11.72,-1.92 -17.58,-2.88 0.07,-1.42 0.17,-2.83 0.31,-4.25 -0.91,1.34 -1.47,3.02 -2.82,3.97 -3.89,0.1 -7.71,-0.78 -11.55,-1.18 -0.62,-7.38 -0.45,-14.87 1.13,-22.12 0.37,2.35 0.67,4.71 1.09,7.06 4.07,1.02 8.24,1.32 12.42,1.6 1.14,-5.55 0.75,-11.35 2.56,-16.77 0.97,-2.75 2.14,-5.42 3.28,-8.1 2.83,8.49 -1.46,17.02 -0.26,25.59 2.99,0.63 6.03,0.94 9.07,1.23 0.2,-6.62 0.38,-13.24 1.09,-19.83 0.31,-1.92 -0.78,-3.67 -1.13,-5.5 z"
       id="path12"
       inkscape:connector-curvature="0"
       style="fill:#010101" />
    <path
       d="m 527.59,119.48 c 1.93,-3.2 5.39,-5.31 8.06,-7.94 -1.83,13.11 -5.12,25.96 -7.08,39.04 -1.23,4.38 -3.75,8.27 -6.64,11.74 2.1,-14.25 3.92,-28.54 5.66,-42.84 z"
       id="path14"
       inkscape:connector-curvature="0"
       style="fill:#010101" />
    <path
       d="m 389.34,115.5 c 2.13,4.35 5.02,8.74 9.81,10.42 -0.41,2.67 -1.17,5.26 -1.9,7.85 2.6,10.15 6.98,19.73 10.09,29.72 -14.39,3.46 -28.26,8.67 -41.77,14.68 -0.99,-0.56 -1.95,-1.14 -2.91,-1.73 -0.39,2.09 -1.31,4.05 -3.47,4.75 -3.66,1.42 -6.86,5.47 -11.12,3.96 -1.08,4.36 -5.96,5.35 -9.12,7.79 1.74,4.22 3.56,8.49 4.3,13.02 -1.4,4.19 -4.43,7.71 -7.65,10.66 -3.28,3.05 -8.53,3.49 -12.2,0.89 -6.22,-4.21 -10.23,-10.91 -13.44,-17.55 -1.4,-2.2 -0.29,-4.74 0.13,-7.04 2.14,4.33 4.43,8.68 7.67,12.31 1.68,1.91 4.25,3.51 6.88,2.61 4.95,-1.75 8.59,-5.96 10.87,-10.56 -2.7,-0.34 -5.28,0.44 -7.74,1.46 -2.26,-4.17 -4.16,-8.81 -4.12,-13.61 4.79,-3.82 10.22,-6.8 15.46,-9.98 -1.46,-3.12 -4.96,-5.42 -4.83,-9.11 -0.13,-3.06 -0.08,-6.13 -0.06,-9.19 3.69,4.89 6.63,10.31 10.62,14.98 3.65,-1.97 7.43,-3.7 10.98,-5.84 -2.02,-4.01 -6.12,-0.92 -8.96,0.27 -1.71,-4.16 -4.08,-8.79 -2.03,-13.28 2.01,-5.89 10.5,-6.61 14.43,-2.24 3.76,3.01 2.65,8.3 2.61,12.49 3.03,-1.19 6.1,-2.29 9.12,-3.55 -2.46,-3.75 -2.08,-8.12 -0.95,-12.27 3.24,2.86 3.95,7.36 3.82,11.46 1.69,-0.72 3.41,-1.38 5.13,-2.06 -0.54,-1.83 -1.33,-3.59 -1.66,-5.47 0.46,-2.9 1.06,-5.79 1.6,-8.68 1.6,4.09 3.08,8.22 4.39,12.41 1.07,-0.33 2.15,-0.66 3.23,-0.98 -1.21,-4.83 -0.17,-9.68 1.2,-14.33 1.47,4.09 2.03,8.46 3.83,12.44 2.24,-0.6 4.47,-1.24 6.68,-1.95 -2.8,-6.42 -5.15,-13.03 -8.06,-19.4 -0.71,-1.52 -2.03,-2.58 -3.18,-3.74 0.71,-3.88 1.49,-7.75 2.32,-11.61 z"
       id="path16"
       inkscape:connector-curvature="0"
       style="fill:#010101" />
    <path
       d="m 428.72,121.76 c 2.45,-3.68 7.79,-4.04 11.32,-1.76 2.13,1.17 2.76,3.69 3.79,5.72 -2.82,-0.44 -5.68,-1.1 -8.52,-0.62 -3,0.75 -4.2,3.85 -5.3,6.38 3.39,1.35 7.14,2.49 10.8,1.69 2.68,-1.52 5.16,-3.37 7.94,-4.74 -0.25,3.96 -0.52,7.92 -0.39,11.9 -5.77,2.11 -12.83,5.17 -14.04,11.94 -0.72,3.29 0.18,7.56 3.13,9.51 5.11,2.29 10.38,-0.64 15.54,-1.12 -1.83,3.15 -3.51,6.4 -4.5,9.92 -0.74,2.89 -2.98,5.37 -5.95,6.01 -3.28,1.29 -6.69,-1 -8.27,-3.81 -3.14,-3.91 -3.97,-8.95 -4.45,-13.79 -0.84,-5.59 0.01,-11.57 3.18,-16.33 -3.17,-1.41 -7.24,-3.6 -7.03,-7.62 -0.28,-4.55 -0.39,-9.59 2.75,-13.28 z"
       id="path18"
       inkscape:connector-curvature="0"
       style="fill:#010101" />
    <path
       d="m 368.15,124.75 c 2.79,0.92 5.51,2.05 8.23,3.16 -0.73,1.68 -1.49,3.35 -2.42,4.93 3.1,-1.89 6.38,0.5 9.43,1.3 -1.08,1.92 -2.11,3.85 -3.04,5.84 -1.8,-0.46 -3.6,-0.9 -5.39,-1.33 -0.44,1.1 -0.89,2.19 -1.35,3.28 -2.03,0.25 -3.84,-1.38 -5.72,-2 0.61,-2.11 1.17,-4.24 1.64,-6.39 1.73,0.99 3.48,1.97 5.3,2.8 -1.69,-2.66 -5.09,-3.28 -7.59,-4.97 0.33,-2.2 0.62,-4.41 0.91,-6.62 z"
       id="path20"
       inkscape:connector-curvature="0"
       style="fill:#010101" />
    <path
       d="m 556.89,135.57 c 1.74,-1.06 3.44,-2.18 5.15,-3.3 0.74,1.45 1.48,2.91 2.23,4.37 1.26,-0.75 2.53,-1.5 3.81,-2.23 0.68,2.27 1.38,4.53 2.12,6.79 -1.88,1 -3.74,2.02 -5.6,3.05 -0.37,-1.69 -0.74,-3.37 -1.12,-5.04 -1.43,1.03 -2.83,2.08 -4.24,3.13 -0.72,-2.28 -1.46,-4.56 -2.35,-6.77 z"
       id="path22"
       inkscape:connector-curvature="0"
       style="fill:#010101" />
    <path
       d="m 588.6,139.54 c 2.93,-2.39 6.5,-3.84 9.76,-5.72 -4.01,9.75 -8.24,19.41 -12.61,29 -1.66,3.6 -2.62,7.6 -5.17,10.72 -2.04,2.57 -4.43,4.87 -7.07,6.82 5.19,-13.55 10.09,-27.21 15.09,-40.82 z"
       id="path24"
       inkscape:connector-curvature="0"
       style="fill:#010101" />
    <path
       d="m 544.2,147.23 c 1.03,-2.9 3.65,-4.67 5.83,-6.66 -1.4,3.31 -3.86,6.97 -2.35,10.67 1.69,2.19 4.42,3.15 6.92,4.13 4.87,1.74 9.69,3.61 14.47,5.61 0.33,-3.68 0.32,-7.39 -0.25,-11.04 3.37,-2.02 6.8,-3.93 10.33,-5.65 -1.63,11.46 -6.95,22.1 -13.54,31.49 -6.06,-2.5 -12.17,-4.89 -18.36,-7.05 -2.58,-0.81 -4.72,-2.78 -5.5,-5.39 -1.6,-5.45 0.33,-11.09 2.45,-16.11 z"
       id="path26"
       inkscape:connector-curvature="0"
       style="fill:#010101" />
    <path
       d="m 621.81,153.19 c 2.27,-0.74 4.56,-1.4 6.88,-1.97 0.14,1.63 0.28,3.25 0.42,4.88 1.53,-0.55 3.08,-1.09 4.64,-1.61 0.27,2.41 0.63,4.81 1.05,7.2 -2.16,0.54 -4.3,1.11 -6.45,1.63 -0.19,-1.66 -0.36,-3.32 -0.53,-4.97 -1.42,0.62 -2.83,1.26 -4.22,1.91 -0.62,-2.35 -1.2,-4.71 -1.79,-7.07 z"
       id="path28"
       inkscape:connector-curvature="0"
       style="fill:#010101" />
    <path
       d="m 601.14,159.11 c 2.13,-1.28 5.55,-1.84 6.84,0.9 2.24,5.24 -0.13,10.97 -1.82,16.03 0.14,1.63 0.49,3.23 0.62,4.86 3.89,2.47 7.62,5.17 11.53,7.63 0.78,-1.92 1.47,-3.88 2.1,-5.86 -1.71,0.82 -3.25,2.68 -5.31,2.32 -2.26,-0.72 -5.05,-2.17 -4.84,-4.95 -0.46,-8.08 7.19,-13.45 13.97,-15.88 3.67,-0.49 7.41,2.76 6.67,6.68 -0.94,12.85 -10.12,23.14 -18.97,31.69 -5.03,-3.75 -10.33,-7.11 -15.5,-10.67 -3.5,4.41 -7.86,8.21 -12.88,10.77 -2.53,1.29 -5.02,-0.72 -6.51,-2.63 -2.31,-3.05 -4.52,-6.18 -6.53,-9.44 3.09,0.87 6.07,2.71 9.4,2.35 4.3,-0.52 8.51,-1.69 12.47,-3.46 -3.15,-2.4 -7.4,-4.4 -8.29,-8.65 1.89,-9.39 8.69,-17.29 17.05,-21.69 m -6.32,9.94 c 0.68,3.03 3.93,4.16 6.38,5.46 0.59,-3.26 1.3,-7.22 -2.07,-9.24 -1.62,0.96 -4.46,1.36 -4.31,3.78 m 22.05,6.72 c 1.36,1.81 3.5,2.6 5.6,3.18 0.4,-2.32 1.3,-5.12 -0.87,-6.86 -2.35,-0.99 -4.7,1.43 -4.73,3.68 z"
       id="path30"
       inkscape:connector-curvature="0"
       style="fill:#010101" />
    <path
       d="m 350.73,189.93 c 2.1,0.98 4.23,1.9 6.34,2.86 -0.48,1.89 -0.99,3.78 -1.46,5.67 -2.17,-0.71 -4.3,-1.5 -6.41,-2.35 0.51,-2.06 1,-4.12 1.53,-6.18 z"
       id="path32"
       inkscape:connector-curvature="0"
       style="fill:#010101" />
    <path
       d="m 339.04,214.68 c 2.01,0.73 4.02,1.45 6.04,2.16 -0.04,1.85 -0.05,3.71 -0.04,5.56 -0.9,-0.29 -2.69,-0.87 -3.59,-1.16 0.06,0.91 0.16,2.73 0.22,3.64 -1.99,-0.69 -3.98,-1.36 -5.96,-2.04 -0.07,-1.74 -0.14,-3.48 -0.2,-5.21 0.88,0.07 2.62,0.21 3.49,0.29 0.01,-0.81 0.03,-2.43 0.04,-3.24 z"
       id="path34"
       inkscape:connector-curvature="0"
       style="fill:#010101" />
    <path
       d="m 613.28,366.21 c 1.31,-5.37 1.65,-10.94 3.4,-16.2 2.43,3.27 4.84,6.56 7.28,9.83 1.37,-2.59 2.73,-5.18 4.26,-7.67 1.73,4.92 2.96,10 4.69,14.92 0.31,1.95 2.75,1.12 4.07,1.13 3.84,-0.42 7.47,-2.79 11.41,-1.92 3.86,0.77 8.21,0.3 11.52,2.82 2.23,1.17 4.3,3.36 7.03,2.99 9.42,-0.55 18.84,-1.11 28.27,-1.54 2.14,3.35 3.95,7.19 3.01,11.26 -1.42,3.2 -3,6.41 -5.11,9.21 -5.41,2.17 -11.16,3.39 -16.54,5.65 -11.43,5.73 -22.38,12.45 -33.82,18.12 -5.29,-0.33 -10.48,-1.45 -15.75,-1.92 -3.31,3.38 -7.82,5.99 -9.41,10.7 -5.83,14.16 -11.7,28.31 -17.57,42.46 -1.74,3.41 0.75,6.98 1.34,10.39 9.39,1.51 18.66,3.71 27.8,6.33 3.18,1.4 6.62,2.46 9.5,4.42 2.39,4.47 3.98,9.32 6.2,13.88 -10.07,19.51 -19.7,39.26 -30.32,58.48 -1.19,2.05 -2.02,4.52 -4.13,5.83 -3.93,3.14 -9.05,4.06 -13.18,6.84 -3.46,5.5 -9.56,8.42 -14.51,12.39 -0.19,-7.9 -0.18,-15.81 -0.12,-23.71 5.52,-0.06 11.5,0.23 16.27,-3.08 4.41,-1.76 6.37,-6.29 9.19,-9.75 3.2,-3.79 4.21,-8.75 5.76,-13.32 -1.26,-0.96 -2.52,-1.89 -3.78,-2.82 -11.44,7.34 -21.02,17.11 -31.91,25.18 -4.47,2.01 -9.35,3.04 -13.75,5.26 -4.35,2.79 -9.65,0.84 -14.42,0.87 3.27,-6.97 7.11,-13.66 10.55,-20.55 3.03,1.85 6.11,4.71 9.96,3.79 5.7,-1.09 9.76,-5.47 14.3,-8.71 5.71,-5.35 9.99,-12.01 13.46,-18.99 -1.03,-2.37 -2.03,-4.74 -2.95,-7.14 -3.49,-0.85 -7.02,-1.53 -10.54,-2.19 -7.84,5.2 -15.23,11.05 -23.11,16.18 -12.04,6.32 -24.11,12.6 -36.14,18.92 -5.67,3.4 -12.33,4.24 -18.46,6.48 -6.38,1.26 -12.36,4.85 -19.01,4.33 -9.69,-0.16 -19.39,-0.19 -29.08,-0.36 -5.54,-0.75 -10.87,-2.6 -16.32,-3.81 -3.64,-1.02 -7.45,-1.51 -10.93,-3.02 -4.28,-2.2 -9.13,-2.75 -13.72,-4.02 -10.02,7.89 -19.76,16.12 -29.73,24.06 -8.95,5.84 -18.39,10.95 -27.34,16.74 -3.46,6.66 -6.16,13.7 -9.52,20.42 -6.72,11.64 -13.89,23.02 -20.18,34.91 -4.72,8.65 -8.88,17.69 -14.82,25.61 -0.82,-7.58 -1.89,-15.18 -2.01,-22.79 5.07,-7.44 10.64,-14.54 15.83,-21.89 1.96,-2.97 3.36,-6.28 4.41,-9.66 -5.34,6.68 -10.8,13.34 -15.43,20.53 -4.63,9.67 -10.2,18.86 -16.35,27.64 -0.98,-7.79 -1.87,-15.63 -2.14,-23.46 4.24,-3.93 8.86,-7.48 12.84,-11.69 3.77,-5.26 7.59,-10.49 11.23,-15.85 3.54,-6.17 6.85,-12.47 10.35,-18.67 3.15,-4.69 1.59,-10.61 2.54,-15.88 0.77,-3.94 -0.5,-8.72 2.71,-11.78 3.42,-4.32 7.09,-8.45 10.2,-13 2.93,-10.71 5.09,-21.63 7.75,-32.42 0.34,-4.41 -0.76,-8.83 -1.18,-13.23 -4.49,-1.46 -8.6,1.13 -12.66,2.69 -4.52,3.43 -8.08,7.95 -11.87,12.14 -6.85,7.81 -13.65,15.67 -21.05,22.97 -6.43,7.28 -14.23,13.13 -21.53,19.48 -5.01,4.81 -11.84,6.8 -17.79,10.13 -6.4,3 -12.43,7.07 -19.47,8.46 -6.63,1.68 -13.06,4.31 -19.83,5.37 -9.31,-2.76 -18.78,-5.31 -27.76,-9.02 6.16,-1.37 12.3,-2.85 18.47,-4.17 6.52,-1.23 12.57,-4.06 18.82,-6.17 2.91,-1.08 5.95,-1.92 8.62,-3.54 11.65,-7.84 23.93,-15.06 33.79,-25.22 6.69,-6.97 13.59,-13.75 20.59,-20.4 5.34,-4.1 11.1,-7.6 16.53,-11.57 4.67,-3.67 10.68,-4.74 16.21,-6.53 7.31,-2.41 14.71,-4.56 21.99,-7.07 6.12,-5.56 10.99,-12.45 17.19,-17.91 9.46,-4.72 19.13,-9.06 28.75,-13.44 6.29,-0.41 12.62,-0.02 18.89,0.68 15.79,0.75 31.66,0.7 47.35,-1.39 7.93,-1.99 15.95,-3.69 23.81,-5.92 3.76,-1.91 7.08,-4.59 10.55,-6.97 -3.75,-1.83 -7.57,-3.5 -11.24,-5.47 4.43,-1.08 8.98,-1.68 13.34,-3.05 -4.04,-2.06 -8.41,-3.32 -12.54,-5.18 4.48,-2.08 9.29,-3.28 13.83,-5.23 -2,-0.97 -4.01,-1.89 -5.98,-2.88 7.15,-2.6 14.45,-4.79 21.63,-7.32 -2.99,-1.81 -5.97,-3.62 -8.95,-5.43 8.83,-3.59 17.89,-6.58 26.8,-9.96 -3.2,-1.2 -6.47,-2.19 -9.66,-3.37 5.65,-2.22 11.44,-4.08 17.09,-6.31 -1.41,-1.64 -2.81,-3.27 -4.15,-4.94 4.53,-1.61 9.18,-2.87 13.7,-4.54 -1.7,-1.19 -3.39,-2.38 -5.02,-3.64 3.64,-0.81 7.29,-1.52 10.98,-2.08 -1.2,-1.79 -2.42,-3.55 -3.62,-5.33 8.88,1.08 17.75,2.19 26.61,3.43 -0.36,-2.24 -0.74,-4.48 -1.07,-6.72 3.17,0.41 6.35,0.77 9.54,1.12 -0.73,-1.38 -1.46,-2.74 -2.17,-4.12 5.82,0.26 11.6,2.1 17.43,0.89 z"
       id="path36"
       inkscape:connector-curvature="0"
       style="fill:#010101" />
    <path
       d="m 326.22,754.49 c 1.93,-1.27 3.81,-2.62 5.75,-3.87 -0.18,1.82 -0.38,3.64 -0.58,5.46 1.76,-1.21 3.52,-2.43 5.32,-3.58 -0.28,2.01 -0.48,4.07 -1.04,6.04 -1.78,1.71 -3.83,3.1 -5.72,4.67 0.06,-1.84 0.15,-3.66 0.26,-5.47 -1.63,1.17 -3.26,2.34 -4.91,3.48 0.27,-2.26 0.57,-4.5 0.92,-6.73 z"
       id="path38"
       inkscape:connector-curvature="0"
       style="fill:#010101" />
    <path
       d="m 316.78,769.81 c 2.57,-2.05 5.43,-3.7 8.52,-4.84 0.54,1.51 1.33,3.12 0.62,4.74 -2.45,7.77 -7,14.79 -12.42,20.82 -3.29,3.4 -7.98,7.31 -13,5.14 -3.15,-2.93 -1.53,-7.6 0.53,-10.64 4.26,-5.99 9.99,-10.73 15.75,-15.22 m -9.18,13.12 c 0.17,3.84 4.6,2.73 7.17,2.63 0.73,-3.58 2.36,-7.42 0.42,-10.9 -3.43,1.62 -7.35,4.04 -7.59,8.27 z"
       id="path40"
       inkscape:connector-curvature="0"
       style="fill:#010101" />
    <path
       d="m 353.93,774.92 c 1.58,-3.68 5.01,-5.96 8.09,-8.27 -4.93,10.15 -10.14,20.17 -15,30.36 -1.74,3.77 -4.2,7.41 -4.22,11.72 2.93,1.83 6.02,3.4 9.27,4.58 3.66,-4.41 7.61,-8.56 11.47,-12.79 1.98,-2.07 4.2,-4.31 7.29,-4.28 0.05,5.03 -2.43,9.6 -4.56,14 -1.55,3.35 -4.74,5.36 -7.82,7.13 5.07,1.44 9.79,3.87 14.82,5.43 2.92,1.05 4.74,-2.35 6.85,-3.72 -0.25,2.25 -2.49,6.17 1.13,6.72 4.88,0.55 7.5,-4.14 9.83,-7.58 -0.16,3.79 -1.75,9 2.48,11.21 -0.39,-6.24 1.51,-12.18 4.64,-17.51 1.66,6.33 -0.4,12.76 -2.61,18.68 -1.32,3.45 -3.45,6.7 -6.88,8.36 -3.26,-0.97 -3.72,-4.23 -3.92,-7.18 -1.26,1.76 -2.36,3.76 -4.27,4.92 -2.23,0.94 -5.06,0.04 -6.3,-2.02 -0.34,-1.63 -0.38,-3.29 -0.52,-4.91 -1.24,1.5 -2.5,2.99 -3.8,4.45 -4.58,-1.48 -9,-3.38 -13.39,-5.32 -0.07,7.58 -2.79,15.89 -9.48,20.11 -3.2,1.64 -6.18,-1.97 -5.96,-5.03 0.3,-6.9 2.9,-13.43 5.23,-19.85 -3.43,-2.04 -7.73,-3.11 -10.15,-6.48 -1.13,-4.4 1.52,-8.46 3,-12.42 4.66,-10.24 9.86,-20.2 14.78,-30.31 m 1.08,38.03 c 3.05,-0.73 6.22,-1.23 8.95,-2.88 -0.02,-1.63 -0.07,-3.25 -0.16,-4.86 -3.95,1.13 -5.98,5.06 -8.79,7.74 m -6.74,11.95 c -0.82,3.88 -2.25,7.77 -1.97,11.8 0.34,3.45 6.08,3.73 6.86,0.5 2.29,-4.73 -2.1,-8.96 -4.89,-12.3 z"
       id="path42"
       inkscape:connector-curvature="0"
       style="fill:#010101" />
    <path
       d="m 612.79,774.67 c 3.94,-0.19 7.19,-2.63 10.07,-5.07 1.65,2.5 3.28,5.02 4.98,7.5 -2.98,3.13 -6.48,6.35 -6.82,10.96 -1.57,5.8 -0.18,12.23 -3.18,17.64 -3.19,2.74 -6.99,4.65 -10.41,7.08 6.19,4.21 11.23,11.01 10.96,18.8 0.04,4.21 -5.7,4.3 -8.16,2.15 -5.17,-4.2 -9.18,-9.63 -12.86,-15.12 -3.22,1.41 -6.07,3.67 -9.49,4.55 -3.6,0.66 -6.07,-2.66 -7.8,-5.29 -6.79,-10.47 -12.29,-21.7 -18.52,-32.49 -2.35,-3.6 -2.72,-7.99 -2.56,-12.16 6.64,11.93 13.04,24 19.94,35.79 1.01,1.43 2.02,3.36 4.05,3.35 3.24,-1.03 6.3,-2.74 8.7,-5.18 -1.6,-6 -3.1,-12.05 -4.19,-18.16 -0.44,-2.21 -0.04,-4.41 0.66,-6.5 4.82,2.23 6.88,7.52 9.43,11.82 2.01,3.08 1.33,6.84 1.41,10.32 4.57,-4.1 10.31,-6.67 14.78,-10.88 1.59,-2.59 1.91,-5.75 2.89,-8.59 -2.12,0.15 -4.34,-0.01 -6.28,0.95 -1.63,1.2 -2.43,3.15 -3.58,4.76 -1.68,-4.02 -4.39,-8.16 -3.74,-12.67 1.54,-3.87 6.38,-3.1 9.72,-3.56 m -21.28,18.77 c -0.46,3.82 0.62,7.59 1.76,11.21 1.07,-2.49 2.25,-4.95 2.84,-7.6 -0.68,-2.07 -2.73,-2.95 -4.6,-3.61 m 7.56,23.92 c 2.68,2.92 5.24,6.17 8.74,8.15 2.66,1.45 4.53,-1.46 5.64,-3.44 -1.35,-1.8 -2.56,-4.05 -4.9,-4.65 -3.08,-0.9 -6.35,-0.33 -9.48,-0.06 z"
       id="path44"
       inkscape:connector-curvature="0"
       style="fill:#010101" />
    <path
       d="m 331.2,780.53 c 2.92,-2.84 6.05,-5.47 8.96,-8.34 0.2,6.28 0.23,12.78 -2.36,18.64 -2.82,6.38 -6.28,13.01 -12.21,17.01 -5.49,2.5 -11.13,-1.33 -15.1,-4.89 2.87,-3.42 5.89,-6.7 8.8,-10.08 3.29,2.12 6.48,5.17 10.61,5.27 1.92,0.26 2.68,-1.83 3.05,-3.31 0.77,-4.86 -1.19,-9.54 -1.75,-14.3 z"
       id="path46"
       inkscape:connector-curvature="0"
       style="fill:#010101" />
    <path
       d="m 393.85,790.9 c 0.97,-1.58 2.01,-3.11 3.04,-4.64 0.63,1.9 1.21,3.83 1.74,5.77 -1.44,2.15 -2.89,4.3 -4.37,6.43 -0.36,-2.47 -2.29,-5.29 -0.41,-7.56 z"
       id="path48"
       inkscape:connector-curvature="0"
       style="fill:#010101" />
    <path
       d="m 550.82,793.72 c 6.15,4.17 12.25,8.9 15.73,15.66 2.84,5.61 6.17,11.76 5.2,18.26 -1.82,5.22 -7.55,7.15 -12.38,8.53 -1.01,-4.36 -2.06,-8.71 -3.23,-13.03 3.88,-1.75 9.38,-2.62 11.02,-7.09 -1.16,-4.45 -5.98,-5.95 -9.7,-7.61 -1.8,-1.03 -4.91,-1.19 -5.01,-3.81 -0.47,-3.65 -0.82,-7.32 -1.63,-10.91 z"
       id="path50"
       inkscape:connector-curvature="0"
       style="fill:#010101" />
    <path
       d="m 627.74,797.51 c 2.05,0.43 4.13,0.89 6.07,1.73 1.46,2.03 1.79,4.66 2.76,6.96 -2.18,-0.42 -4.35,-0.87 -6.52,-1.29 -0.87,-2.44 -1.61,-4.93 -2.31,-7.4 z"
       id="path52"
       inkscape:connector-curvature="0"
       style="fill:#010101" />
    <path
       d="m 387.41,804.4 c 1.25,-2.13 2.82,-4.06 4.27,-6.05 0.51,1.76 1.05,3.54 1.61,5.31 1.04,-1.65 2.11,-3.28 3.18,-4.91 0.61,1.97 1.3,3.94 1.97,5.92 -1.56,2.03 -3.01,4.14 -4.51,6.22 -0.57,-1.79 -1.09,-3.58 -1.61,-5.36 -1.19,1.65 -2.37,3.3 -3.56,4.96 -0.55,-2.01 -1.21,-4.01 -1.35,-6.09 z"
       id="path54"
       inkscape:connector-curvature="0"
       style="fill:#010101" />
    <path
       d="m 500.23,801.82 c 1.38,1.34 2.75,2.69 4.12,4.06 -0.25,2.03 -0.46,4.08 -0.89,6.1 -1.85,0.22 -2.84,-1.62 -4.13,-2.56 0.32,-2.54 0.59,-5.07 0.9,-7.6 z"
       id="path56"
       inkscape:connector-curvature="0"
       style="fill:#010101" />
    <path
       d="m 482.79,820.69 c 0.99,-2.77 4.07,-4.31 6.91,-3.64 4.55,2.99 4.43,9.18 4.47,14.01 0.09,3.63 -2.17,6.62 -4.21,9.4 5.44,-2 11.24,-2.37 16.89,-3.42 0.25,-0.51 0.76,-1.54 1.01,-2.05 -1.27,-2.53 -3.23,-4.95 -3.2,-7.9 0.14,-3.32 0.43,-6.64 0.83,-9.93 3.94,8.3 6.44,17.47 5.39,26.72 -0.68,2.97 -3.25,5.16 -6.23,5.62 -9.11,1.16 -18.27,2.06 -27.47,2.45 -0.29,2.14 -0.6,4.29 -1.12,6.41 -0.83,-1.94 -1.08,-4.04 -1.17,-6.11 -1.42,-0.29 -2.88,-0.44 -4.23,-0.97 -1.4,-1.21 -1.98,-3.03 -2.87,-4.58 -0.86,1.7 -1.01,4.38 -3.22,4.91 -2.62,0.64 -5.36,0.34 -8.03,0.43 -1.2,6.87 -2.63,13.78 -5.28,20.26 -1.41,3.51 -4.95,6.71 -8.99,5.54 -3.47,-1.38 -5.77,-4.66 -7.78,-7.65 3.64,0.35 7.95,1.12 10.73,-1.95 3.56,-4 6.36,-8.68 8.7,-13.49 -0.56,-4 -2.43,-7.72 -2.99,-11.72 0.68,-3.41 2.49,-6.48 3.57,-9.76 0.8,2.3 1.67,4.59 2.66,6.83 3.27,0.07 6.55,0.06 9.82,-0.17 1.08,-1.8 2.04,-3.66 3,-5.51 0.39,1.87 0.75,3.76 1.16,5.65 1.94,0.03 3.88,0.04 5.83,0.02 1.92,-6.46 3.04,-13.22 5.82,-19.4 m 1.8,8.88 c -2.74,2.9 -3.48,7.08 -5.05,10.65 4.7,-1.04 10.52,-2.39 12.61,-7.29 0.21,-3.74 -4.92,-6.14 -7.56,-3.36 z"
       id="path58"
       inkscape:connector-curvature="0"
       style="fill:#010101" />
    <path
       d="m 529.33,832.79 c 4.86,-0.62 6.16,5.04 5.87,8.83 -0.68,0.52 -2.03,1.57 -2.7,2.09 -3.95,-2.13 -4.65,-7.02 -3.17,-10.92 z"
       id="path60"
       inkscape:connector-curvature="0"
       style="fill:#010101" />
    <path
       d="m 413.39,836.05 c 1.19,-1.08 3.09,-0.36 3.46,1.16 0.67,3.23 0.47,7.46 -2.92,9.11 -4.76,-0.74 -3.34,-7.86 -0.54,-10.27 z"
       id="path62"
       inkscape:connector-curvature="0"
       style="fill:#010101" />
  </g>
  <g
     id="#15fe14ff"
     transform="translate(-7.2813772,-20.51943)">
    <path
       d="m 192.5,159.2 c 1.92,-1.61 5.01,-0.31 5.72,1.95 5.82,15.69 6.18,33.43 0.5,49.22 -2.26,5.64 -5.69,10.7 -9.43,15.46 -2.22,-0.32 -4.48,-1.24 -5.47,-3.42 -6.42,-11.51 -6.33,-25.42 -3.77,-38.02 1.96,-9.13 4.32,-19.49 12.45,-25.19 z"
       id="path65"
       inkscape:connector-curvature="0"
       style="fill:#15fe14" />
    <path
       d="m 736.16,158.82 c 3.28,-1.34 5.99,1.85 8,4.02 5.89,7.63 7.79,17.39 9.28,26.69 1.62,11.37 0.81,23.82 -5.2,33.87 -1.22,2.97 -5.28,2.74 -6.76,0.12 -12.31,-15.66 -14.39,-37.45 -9.09,-56.21 0.96,-2.92 1.32,-6.37 3.77,-8.49 z"
       id="path67"
       inkscape:connector-curvature="0"
       style="fill:#15fe14" />
    <path
       d="m 253.45,162.55 c 5.53,-1.95 12.14,-3.46 17.4,0.05 -0.24,2.22 -0.04,4.64 -1.43,6.55 -8.74,13.69 -21.34,25.6 -37.02,30.71 -5.26,1.35 -10.77,3.17 -16.23,2.24 -2.65,-0.76 -1.77,-3.92 -1.65,-5.98 2.16,-6.36 6.49,-11.72 11.3,-16.3 7.73,-7.77 17.29,-13.66 27.63,-17.27 z"
       id="path69"
       inkscape:connector-curvature="0"
       style="fill:#15fe14" />
    <path
       d="m 661.1,163.7 c 3.85,-4.01 9.86,-2.42 14.8,-2.17 9.91,2.76 19.1,7.9 27,14.46 6.56,6.17 13.74,12.9 15.68,22.08 0.82,2.83 -2.02,4.75 -4.59,4.37 -17.47,-0.87 -33.21,-11.1 -44.2,-24.25 -3.45,-4.46 -7.09,-8.99 -8.69,-14.49 z"
       id="path71"
       inkscape:connector-curvature="0"
       style="fill:#15fe14" />
    <path
       d="m 160.07,190.12 c 1.89,-1.62 5.24,-0.93 6.26,1.42 9.27,19.69 10.92,44.63 -1.43,63.4 -1.12,2.31 -4.64,2.1 -6.02,0.15 -4.41,-4.77 -6.53,-11.19 -7.69,-17.47 -2.37,-12.44 -1.54,-25.44 2.43,-37.47 1.24,-3.83 3.38,-7.4 6.45,-10.03 z"
       id="path73"
       inkscape:connector-curvature="0"
       style="fill:#15fe14" />
    <path
       d="m 767.66,189.33 c 5.31,-0.98 8.19,4.36 10.2,8.35 4.88,11.51 5.38,24.39 4.05,36.67 -0.79,7.18 -3.45,14.14 -7.52,20.08 -1.11,1.86 -3.52,1.79 -5.37,2.26 -4.67,-6.47 -7.9,-14 -9.15,-21.89 -2.01,-15.48 -0.03,-31.77 7.79,-45.47 z"
       id="path75"
       inkscape:connector-curvature="0"
       style="fill:#15fe14" />
    <path
       d="m 194.85,224.59 c 10.25,-6.86 23.05,-8.81 35.16,-8.87 8.71,0.51 18.29,1.14 25.35,6.9 2.12,1.52 1.09,4.42 1.14,6.61 -13.59,7.5 -29.21,12.39 -44.86,10.56 -6.35,-0.29 -12.53,-2.22 -18.21,-5 -1.7,-0.81 -3.3,-2 -4.07,-3.78 0.52,-2.95 3.25,-4.76 5.49,-6.42 z"
       id="path77"
       inkscape:connector-curvature="0"
       style="fill:#15fe14" />
    <path
       d="m 701.31,216.16 c 6.22,0.17 12.58,-0.32 18.66,1.33 7.69,1.87 15.64,4.37 21.39,10.1 1.99,1.72 1.91,5.75 -0.93,6.58 -19.56,10.11 -43.7,6.47 -62.24,-4.23 -2.91,-1.1 -3.63,-4.96 -1.12,-6.91 6.69,-5.59 15.8,-6.77 24.24,-6.87 z"
       id="path79"
       inkscape:connector-curvature="0"
       style="fill:#15fe14" />
    <path
       d="m 129.62,226.6 c 1.61,-0.04 3.23,-0.06 4.85,-0.07 7.48,11.15 12.74,23.98 13.8,37.45 0.54,9.86 -0.6,20.31 -5.86,28.89 -1.9,-0.39 -4.29,0.15 -5.62,-1.6 -6.43,-6.46 -9.9,-15.31 -11.65,-24.12 -1.14,-4.28 -1.83,-8.69 -1.66,-13.13 0.2,-6.14 -0.66,-12.5 1.45,-18.41 1.08,-3.23 2.83,-6.17 4.69,-9.01 z"
       id="path81"
       inkscape:connector-curvature="0"
       style="fill:#15fe14" />
    <path
       d="m 799.11,226.57 c 3.1,-1.05 4.89,1.97 6.29,4.2 1.99,3.4 3.23,7.25 3.22,11.2 0.18,8.91 0.91,18.04 -1.62,26.72 -2.16,7.99 -4.9,16.38 -10.93,22.35 -1.86,2.36 -6.51,2.57 -7.46,-0.75 -6.42,-14.56 -5.34,-31.58 0.3,-46.21 2.46,-6.26 5.26,-12.8 10.2,-17.51 z"
       id="path83"
       inkscape:connector-curvature="0"
       style="fill:#15fe14" />
    <path
       d="m 193.09,244.38 c 8.37,-1.43 17.02,-2.82 25.44,-0.98 3.66,0.55 7.36,1.5 10.34,3.8 2.44,1.15 2.28,4.84 0.99,6.72 -14.39,10.24 -32.36,16.41 -50.15,14.14 -5.01,-0.79 -9.98,-2.11 -14.51,-4.42 0.27,-2.02 -0.5,-4.57 1.27,-6.06 6.97,-7.45 16.95,-10.88 26.62,-13.2 z"
       id="path85"
       inkscape:connector-curvature="0"
       style="fill:#15fe14" />
    <path
       d="m 714.35,243.29 c 12.26,-1.84 24.93,0.32 36.5,4.55 6.29,2.16 11.95,6.02 16.48,10.86 0.6,1.94 1.09,5.24 -1.53,5.87 -20.65,8.53 -44.51,2.32 -62.17,-10.13 -1.5,-1.22 -2.75,-3.25 -1.87,-5.21 3.04,-3.78 8.04,-5.06 12.59,-5.94 z"
       id="path87"
       inkscape:connector-curvature="0"
       style="fill:#15fe14" />
    <path
       d="m 102.72,265.14 c 4.62,0.59 7.31,4.84 9.9,8.23 11.49,15.84 17.26,36.93 11.22,56.02 0.8,-0.02 2.38,-0.05 3.18,-0.07 4.01,-8.49 12.23,-13.65 19.81,-18.59 10.65,-5.65 22.65,-10.64 34.94,-8.76 2.93,0.31 5.78,2.79 4.74,5.96 -2.22,3.8 -5.45,6.88 -8.53,9.98 -9.9,8.82 -21.6,16.47 -34.97,18.39 -5.36,0.49 -10.89,1.82 -16.13,-0.1 -1.52,-1.57 -0.71,-4.26 -2.11,-5.92 -2.17,-0.64 -4.71,0.98 -6.72,-0.44 -5.98,-4.17 -10.19,-10.43 -13.07,-17.03 -5.37,-11.74 -8.37,-24.93 -6.73,-37.83 0.21,-3.74 2.56,-6.79 4.47,-9.84 z"
       id="path89"
       inkscape:connector-curvature="0"
       style="fill:#15fe14" />
    <path
       d="m 826.66,265.62 c 3.27,-1.27 4.98,2.24 6.06,4.67 2.7,4.81 1.67,10.51 1.8,15.77 -0.9,12.1 -4.67,24.01 -11,34.37 -2.72,3.78 -5.74,7.61 -9.83,9.96 -1.71,0.14 -3.84,0.56 -4.92,-1.14 -1.91,-4.48 -2.48,-9.39 -2.42,-14.22 -0.68,-15.35 5.19,-30.43 14.2,-42.65 1.78,-2.46 3.62,-4.97 6.11,-6.76 z"
       id="path91"
       inkscape:connector-curvature="0"
       style="fill:#15fe14" />
    <path
       d="m 189.41,271.67 c 5.8,-0.33 12.21,-0.71 17.27,2.65 2.29,1.45 2.31,5 0.27,6.67 -11.27,10.53 -25.52,18.31 -40.9,20.5 -7.11,-0.09 -15.02,1.16 -21.4,-2.66 -1.32,-4.23 2.41,-7.49 4.95,-10.3 10.88,-9.91 25.36,-15.12 39.81,-16.86 z"
       id="path93"
       inkscape:connector-curvature="0"
       style="fill:#15fe14" />
    <path
       d="m 724.02,275.65 c 3.48,-2.46 7.57,-4.27 11.92,-4.14 15.21,-0.37 30.49,4.75 42.84,13.55 4.42,3.57 10.19,7.9 9,14.35 -5.5,2.43 -11.57,2.13 -17.43,2.25 -6.35,0.12 -12.43,-2.02 -18.39,-3.92 -9.9,-3.92 -19.12,-9.7 -26.62,-17.29 -1.27,-1.22 -0.87,-3.24 -1.32,-4.8 z"
       id="path95"
       inkscape:connector-curvature="0"
       style="fill:#15fe14" />
    <path
       d="m 746.33,304.47 c 3.85,-3.62 9.77,-2.81 14.64,-2.71 14.19,2.56 27.68,9.22 38.22,19.09 4.03,4.14 8.58,9.21 7.32,15.47 -11.8,1.5 -24.08,-0.14 -34.6,-5.91 -9.45,-5.19 -17.77,-12.28 -24.7,-20.53 -1.33,-1.46 -1.18,-3.61 -0.88,-5.41 z"
       id="path97"
       inkscape:connector-curvature="0"
       style="fill:#15fe14" />
    <path
       d="m 80.43,312.4 c 1.57,0.22 3.31,-0.08 4.76,0.68 9.25,6.17 16.44,14.93 22.07,24.44 5.34,10.22 8.63,21.86 6.97,33.45 -1.43,2.28 -4.65,2.04 -6.74,0.91 -9.23,-4.39 -15.37,-13.04 -20.51,-21.54 -4.27,-7.93 -7.67,-16.45 -8.94,-25.41 -0.91,-4.33 0.78,-8.59 2.39,-12.53 z"
       id="path99"
       inkscape:connector-curvature="0"
       style="fill:#15fe14" />
    <path
       d="m 845.85,314.04 c 1.76,-1.6 4.17,-1.55 6.41,-1.62 3.68,7.53 2.26,16.14 -0.59,23.68 -3.95,11.67 -10.37,22.61 -19.46,31.02 -3.74,3.28 -8.3,6.47 -13.55,5.39 -1.94,-9.27 -0.34,-18.98 3.32,-27.62 4.77,-12.31 13.42,-22.9 23.87,-30.85 z"
       id="path101"
       inkscape:connector-curvature="0"
       style="fill:#15fe14" />
    <path
       d="m 157.3,332.97 c 4.25,-0.82 9.89,-2.75 13.25,0.99 1.26,5.22 -3.03,9.31 -5.18,13.62 -5.75,8.22 -12.77,15.74 -21.31,21.11 4.36,-1.63 9.07,-1.57 13.63,-1.09 0.93,5.74 -1.9,10.95 -4.15,16.02 -8.26,15.7 -21.84,29.92 -39.7,33.9 -2.21,0.68 -4.61,-1.35 -4.38,-3.62 -0.1,-5.75 2.18,-11.26 4.99,-16.18 6.61,-11.21 16.18,-20.65 27.26,-27.43 -2.31,0.19 -3.93,2.2 -6.09,2.89 -5.66,2.13 -11.78,4.36 -17.9,3.12 -1.93,-6.76 2.07,-13.3 6.04,-18.48 8.73,-11.02 20.31,-19.96 33.54,-24.85 z"
       id="path103"
       inkscape:connector-curvature="0"
       style="fill:#15fe14" />
    <path
       d="m 761.36,333.7 c 7.9,-4.3 16.86,0.02 23.97,3.95 11.88,6.98 23.01,16.48 28.74,29.3 1.84,3.35 2.29,7.52 -0.37,10.57 -5.35,-1.06 -10.62,-2.54 -16.02,-3.26 3.56,4.17 8.26,7.18 11.73,11.45 6.24,7.41 12.01,15.79 13.54,25.57 0.58,2.1 -0.39,4.16 -0.71,6.22 -5.46,0.65 -10.45,-2.08 -15.18,-4.37 -12.84,-6.32 -22.1,-18.03 -28.49,-30.54 -2.19,-4.7 -4.67,-9.6 -4.15,-14.96 3.7,-0.4 7.41,-0.32 11.13,-0.18 -6.94,-6.97 -14.94,-13.26 -19.68,-22.05 -2.08,-3.65 -4.78,-7.28 -4.51,-11.7 z"
       id="path105"
       inkscape:connector-curvature="0"
       style="fill:#15fe14" />
    <path
       d="m 64.73,359.48 c 2.41,-0.07 5.11,-0.81 7.26,0.68 15.9,9.22 29.02,24.27 33.35,42.41 1.05,3.82 1.33,7.8 1.06,11.76 -7.62,1.72 -14.21,-3.37 -19.69,-7.94 -9.88,-8.82 -17.52,-20.23 -21.63,-32.84 -1.74,-4.54 -1.36,-9.42 -0.35,-14.07 z"
       id="path107"
       inkscape:connector-curvature="0"
       style="fill:#15fe14" />
    <path
       d="m 861.25,359.76 c 2.19,-1.5 5.8,-1.49 6.71,1.5 1.87,7.12 -0.9,14.33 -3.96,20.71 -3.84,7.48 -8.37,14.73 -14.45,20.6 -4.34,4.72 -9.46,8.81 -15.42,11.26 -2.38,1.13 -5.09,0.64 -7.62,0.65 -1.52,-11.27 3.22,-22.33 9.21,-31.63 6.57,-9.52 15.42,-17.48 25.53,-23.09 z"
       id="path109"
       inkscape:connector-curvature="0"
       style="fill:#15fe14" />
    <path
       d="m 782.92,404.34 c 8.16,-0.53 15.26,4.42 20.76,9.94 10.83,10.24 19.77,23.63 21.44,38.74 0.28,2.23 -0.25,4.75 -1.87,6.4 -4.38,1.04 -8.06,-2.7 -12.11,-3.67 2.61,6.48 6.62,12.35 8.58,19.13 2.45,6.95 3.5,14.62 1.22,21.76 -3.06,0.17 -6.01,-0.65 -8.91,-1.42 5.63,11.25 12.2,23.56 9.55,36.58 0.07,2.99 -3.77,3.4 -5.78,2.16 -5.94,-3.32 -11.2,-7.8 -15.78,-12.82 5.98,8.43 10.09,18.15 12.39,28.22 1.46,6.2 1.78,12.95 -0.15,19.08 -0.52,2.59 -3.69,2.64 -5.69,1.87 -13.22,-8.57 -21.42,-23.24 -24.41,-38.48 -1.66,-6.76 -2.1,-13.78 -1.39,-20.69 1.18,-2.43 4.18,-2.25 6.36,-1.46 2.85,1.32 5.46,3.13 7.93,5.08 -5.65,-10.81 -10.15,-22.51 -10.65,-34.82 0.04,-1.59 0.66,-3.07 1.09,-4.56 3.25,0.11 6.42,0.87 9.61,1.49 -4.16,-7.89 -8.01,-16.1 -9.47,-24.97 -0.66,-4.49 -2.04,-9.17 -0.44,-13.62 2.72,-0.08 5.43,0.09 8.16,0.26 -5.06,-9.33 -10.05,-18.91 -11.69,-29.51 0.01,-1.65 0.78,-3.15 1.25,-4.69 z"
       id="path111"
       inkscape:connector-curvature="0"
       style="fill:#15fe14" />
    <path
       d="m 136.18,407.99 c 4.4,-2.99 10.27,-5.1 15.25,-2.15 -1.22,11.42 -5.7,22.31 -12,31.85 2.98,0.1 6.72,-0.83 8.75,2.03 0.7,4.33 -0.62,8.65 -1.27,12.91 -1.5,8.58 -5.26,16.48 -9.15,24.19 2.89,-0.62 5.8,-1.99 8.8,-1.28 1.05,1.01 2,2.36 1.87,3.9 -0.11,5.01 -1.35,9.91 -2.41,14.78 -1.57,6.53 -4.83,12.47 -6.97,18.8 3.74,-1.77 7.31,-4.55 11.72,-3.77 1.39,3.07 1.82,6.43 1.19,9.76 -0.35,11.17 -3.45,22.23 -8.52,32.17 -3.89,7.18 -9.69,13.17 -16.06,18.21 -2.14,1.82 -7.01,2.19 -7.31,-1.51 -2.97,-14.43 1.96,-29.12 9.06,-41.59 1.01,-2.1 3.28,-3.6 3.61,-5.98 -2.1,3.61 -5.11,6.57 -8.59,8.86 -3.82,2.51 -7.53,6.47 -12.55,5.34 -4.43,-13.28 2.3,-26.78 8.34,-38.37 -2.93,-0.1 -6.75,1.75 -9.08,-0.77 -2.85,-14.2 3.94,-28.03 11.09,-39.87 -4.44,1.5 -8.45,4.8 -13.39,4.25 -2.49,-7.02 -0.47,-14.73 2.58,-21.26 5.38,-12.21 14.26,-22.7 25.04,-30.5 z"
       id="path113"
       inkscape:connector-curvature="0"
       style="fill:#15fe14" />
    <path
       d="m 56.88,408.61 c 0.77,-2.4 3.39,-2.45 5.4,-1.71 16.34,6.44 30.9,18.6 38.32,34.73 2.16,4.99 4.97,10.57 3.04,16.08 -9.07,1.31 -17.21,-3.86 -23.92,-9.33 -8.9,-7.47 -16.5,-16.69 -21.34,-27.31 -1.76,-3.87 -2.29,-8.28 -1.5,-12.46 z"
       id="path115"
       inkscape:connector-curvature="0"
       style="fill:#15fe14" />
    <path
       d="m 863.99,409.61 c 3.59,-1.67 7.55,-4.23 11.54,-2.12 0.06,3.64 0.66,7.45 -0.52,10.98 -5.04,12.96 -14.4,23.81 -25.28,32.27 -6.1,4.43 -13.37,8.09 -21.12,7.6 -0.33,-3.19 -0.68,-6.5 0.35,-9.6 5.55,-17.22 18.97,-31.17 35.03,-39.13 z"
       id="path117"
       inkscape:connector-curvature="0"
       style="fill:#15fe14" />
    <path
       d="m 56.34,450.27 c 1.61,0.07 3.24,0.04 4.81,0.42 17.23,4.75 33.02,15.73 42.05,31.33 2.2,4.19 4.28,8.58 4.65,13.37 -6.49,2.5 -13.61,0.57 -19.57,-2.44 -9.17,-4.73 -17.52,-11.16 -24.05,-19.18 -3.82,-4.88 -7.96,-9.88 -9.19,-16.13 -1.02,-2.56 0.29,-5.07 1.3,-7.37 z"
       id="path119"
       inkscape:connector-curvature="0"
       style="fill:#15fe14" />
    <path
       d="m 842.64,465.65 c 8.99,-6.94 19.14,-12.83 30.32,-15.3 3.3,-0.89 5.47,2.68 4.65,5.61 -1.15,8.37 -6.99,15.14 -12.54,21.14 -6.85,7.5 -15.31,13.54 -24.67,17.5 -4.76,2.1 -10.03,2.12 -15.12,1.68 -0.03,-2.79 -0.08,-5.67 1.11,-8.26 3.56,-8.6 9.39,-16.13 16.25,-22.37 z"
       id="path121"
       inkscape:connector-curvature="0"
       style="fill:#15fe14" />
    <path
       d="m 54.55,489.38 c 2,-0.68 4.08,-2.13 6.24,-1.2 13.7,3.8 26.59,11.25 35.77,22.23 5.52,6.24 9.85,13.75 11.41,22.01 -5.37,3.78 -11.91,1.03 -17.44,-0.84 -8.38,-3.72 -15.95,-9.2 -22.15,-15.95 C 61.4,508.59 54,499.93 54.55,489.38 z"
       id="path123"
       inkscape:connector-curvature="0"
       style="fill:#15fe14" />
    <path
       d="m 844.67,501.65 c 7.3,-5.77 15.82,-9.76 24.56,-12.82 2.56,-0.89 5.31,-0.54 7.97,-0.43 2.24,9.32 -4.26,17.27 -9.78,23.96 -8.98,10.04 -20.35,18.88 -33.78,21.72 -2.31,0.49 -4.73,0.66 -7.03,0.14 -2.26,-1.25 -1.24,-4.39 -0.94,-6.46 3.34,-10.47 10.68,-19.16 19,-26.11 z"
       id="path125"
       inkscape:connector-curvature="0"
       style="fill:#15fe14" />
    <path
       d="m 60.35,532.09 c 1.72,-0.93 3.51,-2.16 5.58,-1.61 16.4,2.78 32.34,10.65 43.02,23.64 3.88,4.96 8.51,10.52 7.68,17.26 -8.45,1.79 -17.35,-0.25 -24.89,-4.23 -9.95,-4.65 -18.6,-11.84 -25.66,-20.21 -3.54,-4.11 -6,-9.32 -5.73,-14.85 z"
       id="path127"
       inkscape:connector-curvature="0"
       style="fill:#15fe14" />
    <path
       d="m 865.52,530.67 c 2.02,-0.54 4.08,-0.06 6.09,0.3 1.62,7.64 -3.32,14.14 -8.13,19.44 -8.75,9.06 -19.48,16.36 -31.54,20.2 -4.9,1.52 -10.12,1.34 -15.16,0.89 -0.35,-0.68 -1.06,-2.03 -1.41,-2.7 1.6,-5.84 4.84,-11.06 8.97,-15.44 10.12,-12.57 25.62,-19.67 41.18,-22.69 z"
       id="path129"
       inkscape:connector-curvature="0"
       style="fill:#15fe14" />
    <path
       d="m 145.04,551.16 c 3.42,-4.2 8.13,-9.1 14.12,-7.61 2.61,13.2 1.45,27.03 -2.93,39.72 -3.16,8.42 -8.42,15.89 -14.79,22.18 -1.26,1 -2.53,2.54 -4.32,2.17 -1.93,0.34 -2.58,-1.74 -3.28,-3.08 -3.26,-7.83 -2.25,-16.52 -0.98,-24.66 1.97,-10.28 6.22,-20.13 12.18,-28.72 z"
       id="path131"
       inkscape:connector-curvature="0"
       style="fill:#15fe14" />
    <path
       d="m 774.28,543.2 c 8.02,-0.45 12.93,7.05 16.64,13.05 6.11,11.21 10.26,23.88 9.75,36.78 0.17,4.97 -0.63,10.11 -3.47,14.31 -1.16,0.3 -2.46,0.57 -3.59,0.08 -9.95,-7.95 -16.71,-19.51 -19.55,-31.86 -2.09,-10.6 -3.79,-22.02 0.22,-32.36 z"
       id="path133"
       inkscape:connector-curvature="0"
       style="fill:#15fe14" />
    <path
       d="m 70.31,575.43 c 1.54,-0.72 2.97,-1.98 4.73,-1.98 12.62,0.26 25.05,4.16 35.83,10.65 7.92,5.21 15.29,11.81 19.58,20.41 1.38,2.54 -1,5.2 -3.63,5.12 -5.64,0.16 -11.52,0.78 -16.94,-1.18 C 99.6,605.4 90,600.2 81.8,593.29 76.11,588.86 71.23,582.8 70.31,575.43 z"
       id="path135"
       inkscape:connector-curvature="0"
       style="fill:#15fe14" />
    <path
       d="m 811.35,592.36 c 11.92,-12.09 28.97,-18.17 45.72,-18.88 2.59,-0.59 5.26,1.72 4.55,4.42 -1.1,5.82 -5.42,10.25 -9.58,14.15 -9.27,8.38 -20.69,14.3 -32.8,17.33 -5.95,1.15 -12.64,1.72 -18,-1.65 1.24,-6.24 5.72,-11.07 10.11,-15.37 z"
       id="path137"
       inkscape:connector-curvature="0"
       style="fill:#15fe14" />
    <path
       d="m 155.7,590.85 c 3.2,-5.96 7.51,-11.63 13.56,-14.9 1.74,-1.03 4.21,-0.07 4.46,2.02 3.14,10.71 1.46,22.04 -0.62,32.77 2.8,-2.61 6.11,-5.11 10.2,-4.53 4.26,10.27 3.25,21.68 3.03,32.54 1.99,-2.62 4.34,-4.93 6.79,-7.11 5.45,3.35 6.18,10.21 7.66,15.86 2.54,8.64 2.19,17.78 1.55,26.66 -1.65,8.57 -4.47,17.28 -10.22,24.02 -1.1,1.81 -4.32,2.16 -5.35,0.1 -8.4,-10.77 -7.61,-25.23 -7.35,-38.12 -3.67,3.45 -6.12,8.01 -9.96,11.28 -1.31,0.23 -2.64,0.25 -3.96,0.35 -7.32,-12.08 -5.09,-26.72 -2.54,-39.84 -2.46,2.59 -4.75,5.38 -7.52,7.67 -1.67,1.74 -5.13,0.86 -5.85,-1.41 -2.59,-5.7 -2.5,-12.11 -2.29,-18.23 0.71,-10.16 3.7,-20.11 8.41,-29.13 z"
       id="path139"
       inkscape:connector-curvature="0"
       style="fill:#15fe14" />
    <path
       d="m 757.55,581.66 c 0.22,-2.4 0.74,-5.57 3.52,-6.2 2.04,-0.21 3.85,0.98 5.45,2.1 4.08,3.19 7.31,7.36 9.81,11.88 7.1,12.72 10.64,27.59 8.93,42.14 -0.58,3.09 -1.75,6.03 -2.94,8.93 -1.53,-0.06 -3.07,0.03 -4.56,-0.28 -2.73,-1.75 -4.78,-4.36 -7.41,-6.24 1.71,11.06 3.66,22.92 -0.95,33.58 -0.68,2.3 -2.49,3.89 -4.36,5.25 -4.97,-3.23 -8.2,-8.27 -11.6,-12.97 0.04,11.43 1.09,23.66 -4.56,34.08 -1.56,2.72 -3.47,7.07 -7.38,5.67 -6.8,-6.88 -9.53,-16.69 -11.56,-25.89 -0.61,-8.43 -0.69,-17.06 1.51,-25.29 1.62,-5.8 2.7,-11.94 6.36,-16.89 3.49,0.74 5.75,3.59 7.89,6.21 0.02,-10.47 -0.37,-21.13 2.98,-31.22 3.64,-1.56 6.93,0.89 10.05,2.51 -1.75,-9 -1.74,-18.25 -1.18,-27.37 z"
       id="path141"
       inkscape:connector-curvature="0"
       style="fill:#15fe14" />
    <path
       d="m 85.47,608.79 c 2.12,-0.69 4.24,-1.62 6.52,-1.42 18.39,0.78 36.98,8.36 49.01,22.61 2.72,3.5 6.17,7.32 5.45,12.11 -5.31,0.96 -10.78,1.87 -16.16,0.94 -15.55,-3.32 -30.37,-11.26 -40.7,-23.47 -2.64,-2.99 -3.69,-6.9 -4.12,-10.77 z"
       id="path143"
       inkscape:connector-curvature="0"
       style="fill:#15fe14" />
    <path
       d="m 833.32,608.09 c 4.23,-0.07 9.56,-2.35 12.97,1.1 0.9,5.12 -2.66,9.66 -5.83,13.28 -8.96,8.84 -20.19,15.46 -32.25,19.05 -6.31,1.75 -13.35,3.07 -19.66,0.77 -2.77,-0.66 -2.86,-4.14 -1.33,-6.04 9.61,-16.19 27.87,-25.6 46.1,-28.16 z"
       id="path145"
       inkscape:connector-curvature="0"
       style="fill:#15fe14" />
    <path
       d="m 98.47,644.7 c 10.94,-2.73 22.51,-0.61 33.04,2.89 12.15,4.22 23.58,11.92 30.06,23.29 -0.5,1.15 -0.99,2.32 -1.47,3.49 -10.75,3.16 -22.3,1 -32.58,-2.85 -9.58,-3.98 -19.03,-9.25 -25.62,-17.45 -2.2,-2.64 -3.29,-5.97 -3.43,-9.37 z"
       id="path147"
       inkscape:connector-curvature="0"
       style="fill:#15fe14" />
    <path
       d="m 819.28,643.66 c 4.57,0.43 10.13,-1.61 13.95,1.53 1.2,5.07 -2.84,9.53 -6.18,12.85 -10.58,9.37 -24.01,15.47 -37.95,17.63 -5.24,0.14 -10.82,0.73 -15.79,-1.26 -2.49,-0.59 -2.17,-3.79 -1.21,-5.56 10.57,-15.34 29,-23.64 47.18,-25.19 z"
       id="path149"
       inkscape:connector-curvature="0"
       style="fill:#15fe14" />
    <path
       d="m 212.65,661.59 c 2.4,-1.14 5.02,0.26 5.8,2.72 3.75,9.41 5.77,19.53 5.36,29.69 0.48,12.13 -3.68,24.22 -11.08,33.79 -1.45,-0.05 -2.9,-0.09 -4.35,-0.11 -6.18,-8.14 -8.25,-18.63 -8.04,-28.66 -0.25,-6.53 0.7,-13.04 2.11,-19.39 1.71,-6.75 4.39,-13.77 10.2,-18.04 z"
       id="path151"
       inkscape:connector-curvature="0"
       style="fill:#15fe14" />
    <path
       d="m 714.95,662.92 c 0.74,-2.17 3.17,-1.56 4.93,-1.38 6.79,4.69 9.37,13.13 11.15,20.79 1.83,12.49 2.45,25.7 -2.16,37.7 -1.52,3.75 -3.9,7.48 -7.87,8.93 -8.28,-9.53 -12.53,-22.38 -11.81,-34.96 -0.44,-10.6 1.16,-21.47 5.76,-31.08 z"
       id="path153"
       inkscape:connector-curvature="0"
       style="fill:#15fe14" />
    <path
       d="m 126.59,680.91 c 18.34,-2.15 38.45,1.16 52.55,13.89 1.98,2.1 5.43,4.17 4.37,7.56 -5.52,4.13 -12.86,4.85 -19.54,5.1 -11.19,-0.86 -22.49,-3.25 -32.4,-8.7 -5.27,-2.67 -10.71,-6.27 -13.12,-11.88 -1.56,-5.08 4.76,-5.33 8.14,-5.97 z"
       id="path155"
       inkscape:connector-curvature="0"
       style="fill:#15fe14" />
    <path
       d="m 783.92,681.05 c 9.76,-1.36 19.68,-0.59 29.39,0.9 0.31,2.09 1.67,4.5 0.09,6.41 -4.84,7.38 -13.28,11.23 -21.25,14.26 -13.64,4.77 -29.34,7.35 -42.8,0.61 0.11,-1.94 -0.48,-4.31 1.23,-5.74 8.65,-9.34 20.94,-14.46 33.34,-16.44 z"
       id="path157"
       inkscape:connector-curvature="0"
       style="fill:#15fe14" />
    <path
       d="m 142.87,710.33 c 12.86,-2.9 26.46,-2.11 38.92,2.17 8.69,2.91 16.77,8.02 22.67,15.08 0.22,1.26 0.23,2.54 0.31,3.82 -13.13,7.1 -28.94,4.43 -42.52,0.08 -8.58,-3.36 -18.06,-7.34 -22.62,-15.91 -1.15,-2.54 0.77,-4.78 3.24,-5.24 z"
       id="path159"
       inkscape:connector-curvature="0"
       style="fill:#15fe14" />
    <path
       d="m 730.59,724.56 c 12.55,-11.83 30.43,-16.74 47.38,-15.96 5.36,0.68 11.28,0.46 15.79,3.9 -1.26,6.4 -6.48,11.07 -12.08,13.89 -12.65,6.96 -27.32,10.49 -41.75,9.08 -4.48,-0.44 -8.67,-2.25 -12.61,-4.34 0.63,-2.39 1.27,-4.93 3.27,-6.57 z"
       id="path161"
       inkscape:connector-curvature="0"
       style="fill:#15fe14" />
    <path
       d="m 209.03,734 c 1.62,-1.85 3.32,-3.61 5.04,-5.35 6.66,4.27 12.06,10.17 18.41,14.86 10.05,8.65 20.6,16.68 30.67,25.31 2.61,2.09 5.13,4.38 8.09,5.98 4.58,2.14 9.96,2.12 14.39,4.58 1.48,2.08 1.97,4.67 2.77,7.06 -5.15,2.21 -10.63,3.49 -15.9,5.38 -3.2,0.92 -6.48,2.5 -9.88,1.74 -2.6,-4.79 -3.7,-10.22 -6.28,-14.99 -4.4,-5.23 -10.01,-9.28 -14.85,-14.08 C 230.88,754.1 219.33,744.7 209.03,734 z"
       id="path163"
       inkscape:connector-curvature="0"
       style="fill:#15fe14" />
    <path
       d="m 715.65,730.42 c 2.6,-3.01 7.53,1.06 7.11,4.26 -1.86,2.77 -4.72,4.68 -7.1,6.97 -12.12,11.59 -24.71,22.67 -36.79,34.3 -5.25,4.32 -5.2,11.86 -8.73,17.3 -1.2,0.96 -2.95,0.43 -4.33,0.23 -6.94,-2.09 -13.87,-4.27 -20.77,-6.51 0.31,-2.83 0.44,-6.24 2.96,-8.08 5.81,-2.66 13,-2.22 17.8,-6.96 16.5,-13.97 33.66,-27.17 49.85,-41.51 z"
       id="path165"
       inkscape:connector-curvature="0"
       style="fill:#15fe14" />
  </g>
</svg>
