<?xml version="1.0" encoding="UTF-8" ?>
<!DOCTYPE svg PUBLIC "-//W3C//DTD SVG 1.1//EN" "http://www.w3.org/Graphics/SVG/1.1/DTD/svg11.dtd">
<svg width="827pt" height="1024pt" viewBox="0 0 827 1024" version="1.1" xmlns="http://www.w3.org/2000/svg">
<g id="#000000ff">
<path fill="#000000" opacity="1.00" d=" M 0.00 0.00 L 827.00 0.00 L 827.00 841.13 C 825.47 862.72 817.30 883.82 803.39 900.45 C 784.41 923.63 755.02 937.84 725.03 938.05 C 661.37 938.10 597.70 938.06 534.03 938.07 C 520.85 938.20 507.65 937.82 494.49 938.25 C 467.88 943.67 443.88 960.38 429.21 983.19 C 421.20 995.46 415.84 1009.48 413.79 1024.00 L 413.65 1024.00 C 409.63 998.15 395.69 973.99 374.98 957.95 C 364.79 949.96 353.10 943.88 340.69 940.20 C 337.22 939.21 333.72 938.07 330.08 938.07 C 254.73 938.07 179.38 938.07 104.02 938.07 C 86.54 938.08 69.03 933.75 53.74 925.22 C 37.01 916.01 22.91 902.09 13.50 885.47 C 4.92 870.66 0.65 853.64 0.00 836.60 L 0.00 0.00 M 5.87 6.21 C 5.60 9.46 5.79 12.72 5.76 15.97 C 5.76 105.29 5.76 194.61 5.76 283.93 C 5.68 327.53 5.92 371.13 5.64 414.72 C 7.10 414.89 8.56 415.19 10.04 415.20 C 95.06 415.18 180.10 415.20 265.12 415.19 C 265.55 415.06 266.41 414.82 266.83 414.70 C 268.72 411.44 269.89 407.81 271.68 404.49 C 288.02 371.49 316.47 345.55 348.85 328.64 C 374.29 315.45 402.34 307.08 430.96 305.04 C 461.90 302.59 493.00 302.13 524.02 303.41 C 541.00 303.74 557.88 305.83 574.62 308.66 C 574.92 310.41 575.22 312.18 575.21 313.98 C 575.26 328.42 575.46 342.87 575.62 357.32 C 567.42 360.90 558.83 363.67 551.03 368.12 C 544.71 371.41 539.73 376.85 536.43 383.11 C 535.73 384.65 537.38 385.78 538.15 386.91 C 544.80 394.58 550.29 403.20 554.74 412.32 C 555.47 413.53 556.11 415.56 557.97 415.17 C 642.65 415.22 727.33 415.17 812.01 415.20 C 815.18 415.26 818.36 415.31 821.50 414.70 C 821.25 386.49 821.47 358.27 821.39 330.06 C 821.47 222.12 821.24 114.17 821.51 6.24 C 814.70 5.39 807.82 6.04 800.98 5.83 C 538.99 5.83 277.00 5.83 15.02 5.83 C 11.98 5.95 8.83 5.38 5.87 6.21 M 462.02 308.40 C 440.24 309.30 418.21 310.19 397.02 315.76 C 367.65 323.28 339.67 336.94 316.45 356.54 C 295.52 374.14 278.69 396.98 269.63 422.89 C 260.94 447.18 258.44 473.65 262.50 499.13 C 267.83 533.17 284.92 565.47 310.91 588.22 C 338.38 612.31 374.32 627.10 411.03 627.20 C 449.20 627.59 487.09 612.93 515.60 587.67 C 541.83 564.76 560.30 532.55 564.75 497.84 C 568.21 472.17 563.83 445.74 553.50 422.06 C 547.76 408.29 539.42 395.75 529.47 384.67 C 532.53 378.37 536.40 372.28 541.98 367.92 C 549.45 362.09 558.45 358.76 567.15 355.23 C 568.48 354.66 570.31 353.81 570.18 352.07 C 570.34 340.36 569.85 328.66 569.78 316.96 C 569.94 315.17 569.25 313.19 567.26 312.89 C 555.98 310.56 544.45 309.68 532.97 308.94 C 509.34 307.71 485.66 307.57 462.02 308.40 M 77.24 419.25 C 88.22 431.50 98.37 444.45 108.80 457.17 C 113.68 463.11 119.66 468.53 127.13 470.89 C 135.46 473.49 144.31 473.46 152.96 473.66 C 164.78 473.74 176.60 473.74 188.42 473.66 C 181.65 465.74 175.03 457.69 168.60 449.50 C 159.98 438.90 151.93 425.88 137.89 422.12 C 128.17 419.39 117.99 419.49 107.98 419.24 C 97.74 419.18 87.49 419.11 77.24 419.25 M 149.48 419.25 C 158.46 429.40 167.13 439.84 175.53 450.48 C 180.91 457.01 186.14 464.07 193.62 468.36 C 201.02 472.54 209.73 473.14 218.04 473.50 C 230.45 473.84 242.87 473.70 255.28 473.67 C 255.33 471.64 255.39 469.63 255.47 467.62 C 249.29 460.10 243.16 452.56 237.19 444.89 C 231.87 438.27 226.73 431.21 219.58 426.43 C 211.19 420.88 200.81 419.98 191.02 419.53 C 177.18 419.03 163.32 419.16 149.48 419.25 M 221.75 419.26 C 228.43 426.93 235.06 434.65 241.42 442.58 C 246.25 448.45 250.72 454.62 256.00 460.11 C 256.27 457.55 256.56 455.01 256.89 452.47 C 258.24 442.84 260.47 433.31 263.62 424.10 C 264.12 422.59 264.56 421.07 265.02 419.55 C 250.60 419.09 236.17 419.11 221.75 419.26 M 558.34 419.81 C 558.95 421.40 559.57 422.99 560.19 424.60 L 560.36 424.58 C 564.14 434.47 567.20 444.65 569.07 455.09 C 569.34 457.07 569.63 459.05 569.92 461.04 C 574.41 457.12 577.77 452.12 581.58 447.57 C 589.20 437.90 597.21 428.56 605.24 419.23 C 589.61 419.20 573.96 418.93 558.34 419.81 M 634.02 419.63 C 625.81 420.10 617.30 420.97 609.95 424.96 C 604.45 427.83 600.14 432.43 596.12 437.07 C 588.21 446.68 580.82 456.70 572.69 466.12 C 570.42 468.07 570.81 471.02 571.19 473.71 C 584.47 473.64 597.76 473.91 611.04 473.40 C 619.38 473.01 628.15 471.99 635.26 467.23 C 642.75 462.16 648.01 454.62 653.70 447.74 C 661.40 438.02 669.35 428.51 677.57 419.22 C 663.05 419.22 648.52 418.96 634.02 419.63 M 704.47 419.71 C 695.80 420.32 686.73 421.63 679.39 426.63 C 671.95 431.70 666.70 439.16 661.12 446.07 C 653.85 455.45 646.32 464.61 638.63 473.64 C 650.43 473.76 662.23 473.72 674.03 473.66 C 682.67 473.47 691.50 473.48 699.84 470.92 C 707.79 468.40 714.01 462.47 719.12 456.11 C 729.18 443.67 739.20 431.21 749.74 419.19 C 734.65 419.27 719.55 418.91 704.47 419.71 M 6.22 429.00 C 7.08 432.41 10.65 434.41 14.03 434.19 C 37.71 434.17 61.39 434.22 85.07 434.17 C 83.91 432.53 82.75 430.89 81.54 429.31 C 79.84 426.82 77.93 424.49 76.18 422.05 L 75.05 422.18 L 76.29 421.40 C 75.74 421.00 74.64 420.21 74.09 419.81 C 54.09 419.35 34.04 419.75 14.02 419.61 C 9.10 419.00 4.41 424.20 6.22 429.00 M 750.93 422.34 L 750.63 422.34 C 748.59 425.30 746.43 428.17 744.27 431.05 C 743.48 432.11 742.70 433.17 741.94 434.25 C 765.96 434.24 789.99 434.31 814.01 434.22 C 818.79 434.35 822.69 428.82 820.68 424.43 C 819.53 421.35 816.25 419.43 813.02 419.72 C 792.91 419.70 772.80 419.79 752.70 419.68 C 752.10 420.56 751.51 421.45 750.93 422.34 M 6.47 443.25 C 4.28 447.69 8.03 453.43 12.94 453.35 C 42.17 453.47 71.40 453.37 100.63 453.39 C 99.83 452.42 99.03 451.46 98.23 450.51 C 95.76 447.68 93.40 444.75 91.08 441.79 C 89.92 440.58 89.14 438.36 87.07 438.85 C 63.06 438.82 39.05 438.85 15.05 438.83 C 11.68 438.57 7.76 439.83 6.47 443.25 M 736.11 441.80 L 736.02 441.79 C 733.75 444.68 731.43 447.52 729.13 450.37 L 728.92 450.37 C 728.17 451.39 727.43 452.43 726.72 453.48 C 755.48 453.54 784.24 453.49 813.00 453.51 C 817.62 454.11 822.06 449.58 821.07 444.98 C 820.47 441.22 816.77 438.67 813.05 439.07 C 788.68 438.68 764.30 439.00 739.93 438.91 C 737.97 438.55 737.17 440.64 736.11 441.80 M 6.06 464.96 C 5.45 469.32 9.69 473.13 13.94 472.63 C 50.03 472.59 86.13 472.71 122.22 472.56 C 120.81 471.60 119.36 470.70 117.88 469.87 C 114.31 466.95 110.71 464.03 107.56 460.65 L 107.36 460.67 C 106.34 459.77 105.61 458.04 104.02 458.21 C 74.03 458.13 44.04 458.20 14.05 458.19 C 10.12 457.69 5.81 460.77 6.06 464.96 M 719.40 460.89 C 716.30 463.98 713.06 466.92 709.59 469.58 C 708.00 470.65 706.40 471.70 704.78 472.72 C 741.20 472.72 777.62 472.81 814.03 472.68 C 818.74 472.94 822.55 467.49 820.77 463.17 C 819.73 459.94 816.29 457.95 812.98 458.26 C 783.01 458.29 753.04 458.22 723.07 458.29 C 721.37 458.17 720.53 459.98 719.40 460.89 M 118.36 483.34 C 110.73 489.04 105.31 497.05 99.29 504.32 C 92.20 513.29 84.72 521.95 77.27 530.62 C 90.84 530.61 104.41 530.76 117.97 530.29 C 127.09 529.77 136.64 529.28 144.85 524.85 C 153.53 520.18 159.31 511.94 165.33 504.43 C 172.85 494.86 180.43 485.33 188.45 476.18 C 174.63 476.08 160.81 476.00 147.00 476.26 C 137.16 476.60 126.58 477.28 118.36 483.34 M 193.56 481.44 C 185.24 486.22 179.74 494.33 173.74 501.55 C 165.95 511.45 157.75 521.02 149.56 530.59 C 163.38 530.64 177.21 530.76 191.03 530.26 C 199.83 529.75 209.02 529.16 216.94 524.91 C 224.16 521.10 229.39 514.64 234.43 508.40 C 241.34 499.63 248.22 490.83 255.42 482.30 C 255.36 480.24 255.32 478.19 255.28 476.14 C 243.19 476.13 231.10 475.98 219.02 476.26 C 210.37 476.62 201.27 477.07 193.56 481.44 M 571.23 476.15 C 571.24 478.08 571.25 480.03 571.28 481.98 C 581.44 493.47 590.07 506.24 600.49 517.51 C 607.42 525.26 617.70 528.96 627.88 529.66 C 644.39 531.10 661.00 530.50 677.55 530.61 C 667.87 519.51 658.46 508.16 649.32 496.61 C 644.54 490.77 639.62 484.70 632.84 481.10 C 625.25 477.03 616.43 476.62 608.02 476.26 C 595.76 475.99 583.50 476.11 571.23 476.15 M 638.61 476.20 C 646.09 484.83 653.29 493.70 660.33 502.69 C 666.57 510.37 672.28 518.96 680.95 524.13 C 689.07 529.01 698.78 529.76 708.02 530.25 C 721.91 530.77 735.82 530.63 749.72 530.61 C 739.27 518.58 729.21 506.22 719.23 493.80 C 714.51 488.10 709.15 482.49 702.13 479.71 C 694.16 476.59 685.45 476.43 677.01 476.18 C 664.21 476.08 651.41 476.02 638.61 476.20 M 8.08 479.11 C 3.05 483.47 7.39 492.61 13.98 491.54 C 44.36 491.56 74.75 491.52 105.13 491.56 C 105.89 490.63 106.65 489.70 107.41 488.77 L 107.77 488.78 C 110.61 485.88 113.70 483.25 116.78 480.61 L 116.96 480.63 C 118.68 479.40 120.45 478.25 122.25 477.15 C 86.52 477.04 50.79 477.16 15.07 477.09 C 12.62 477.08 9.84 477.12 8.08 479.11 M 704.83 477.39 C 705.94 478.12 707.04 478.83 708.17 479.57 C 712.08 478.88 716.03 479.68 719.97 479.59 C 742.64 479.63 765.32 479.62 787.99 479.61 C 795.67 479.44 803.37 479.95 811.04 479.26 C 812.30 479.20 813.73 479.13 814.82 479.93 C 801.88 479.43 788.90 479.88 775.94 479.75 C 753.57 479.86 731.19 479.53 708.83 479.85 C 712.43 482.79 716.04 485.76 719.29 489.12 C 721.60 493.00 726.22 491.67 729.98 491.84 C 757.64 491.82 785.30 491.85 812.96 491.84 C 816.28 492.17 819.76 490.23 820.73 486.95 C 822.60 482.55 818.65 477.25 813.98 477.39 C 777.60 477.36 741.21 477.36 704.83 477.39 M 244.01 503.99 C 236.82 513.06 229.31 521.89 221.67 530.59 C 236.13 530.62 250.61 530.81 265.07 530.17 C 264.58 528.68 264.07 527.22 263.57 525.75 C 260.52 516.62 258.25 507.22 256.92 497.68 C 256.58 495.06 256.28 492.44 255.96 489.82 C 251.55 494.16 247.94 499.22 244.01 503.99 M 570.29 496.87 C 569.07 506.68 566.91 516.37 563.66 525.71 C 563.14 527.20 562.62 528.69 562.12 530.19 C 576.53 530.81 590.95 530.61 605.37 530.60 C 593.42 517.44 582.79 503.18 571.21 489.72 C 570.74 492.08 570.44 494.47 570.29 496.87 M 6.10 501.90 C 4.84 506.08 8.50 510.88 12.90 510.71 C 38.21 510.84 63.52 510.74 88.82 510.76 C 89.45 509.94 90.08 509.13 90.70 508.32 C 93.07 505.39 95.43 502.45 97.84 499.57 C 98.77 498.47 99.69 497.39 100.61 496.30 C 71.74 496.32 42.86 496.29 13.99 496.32 C 10.44 495.93 6.79 498.33 6.10 501.90 M 726.42 496.60 C 727.24 497.62 728.10 498.67 728.94 499.70 L 729.08 499.70 C 731.50 502.70 733.98 505.65 736.31 508.73 L 736.68 508.71 C 737.42 509.87 738.16 511.59 739.92 511.15 C 764.62 511.14 789.33 511.23 814.03 511.11 C 818.59 511.19 822.32 506.23 820.90 501.90 C 819.95 498.51 816.41 496.28 812.95 496.61 C 784.10 496.61 755.26 496.62 726.42 496.60 M 5.94 521.95 C 5.18 526.49 9.51 530.55 13.98 530.07 C 33.31 530.14 52.64 530.10 71.97 530.08 C 74.08 530.46 75.43 529.02 76.28 527.33 L 76.53 527.34 C 78.54 524.35 80.70 521.47 82.87 518.61 C 83.62 517.60 84.36 516.59 85.11 515.60 C 61.41 515.48 37.71 515.57 14.01 515.55 C 10.15 515.13 6.32 518.04 5.94 521.95 M 744.12 518.94 C 746.39 521.84 748.55 524.84 750.74 527.81 L 751.01 527.79 C 751.44 528.42 752.30 529.68 752.73 530.30 C 772.81 530.51 792.89 530.33 812.97 530.39 C 816.46 530.71 820.00 528.42 820.94 525.01 C 822.25 520.71 818.60 515.83 814.09 515.89 C 790.09 515.72 766.08 515.89 742.08 515.81 C 742.75 516.85 743.42 517.89 744.12 518.94 M 113.54 534.49 C 118.54 556.09 125.49 577.39 136.07 596.93 C 136.66 598.20 138.33 598.01 139.44 597.71 C 155.90 593.36 172.27 588.68 188.75 584.44 C 200.33 604.92 214.17 624.22 230.34 641.34 C 220.83 655.47 211.28 669.57 201.70 683.64 C 201.02 684.79 199.49 686.59 201.12 687.72 C 220.82 705.51 241.94 722.26 266.09 733.63 C 267.34 734.46 268.55 733.18 269.28 732.29 C 279.87 719.13 290.52 706.02 301.08 692.84 C 322.31 702.31 344.28 710.62 367.21 714.89 C 367.68 728.59 368.21 742.29 368.69 756.00 C 368.89 760.43 368.57 764.93 369.52 769.31 C 397.71 772.46 426.41 773.09 454.46 768.25 C 455.64 765.30 455.29 762.07 455.50 758.98 C 456.16 744.22 457.00 729.47 457.63 714.71 C 480.49 710.22 502.66 702.61 523.86 693.00 C 528.92 699.64 534.17 706.12 539.30 712.71 C 545.55 720.28 551.10 728.45 557.82 735.61 C 581.25 722.23 604.21 707.33 622.96 687.72 C 624.47 686.51 623.02 684.78 622.35 683.61 C 613.25 669.72 603.88 656.00 595.03 641.98 C 596.95 638.77 599.94 636.37 602.26 633.45 C 614.97 618.35 626.81 602.38 636.19 584.98 C 650.94 588.55 665.42 593.20 680.07 597.18 C 683.05 597.84 685.99 599.41 689.09 599.13 C 690.73 596.57 691.70 593.66 692.95 590.91 C 700.83 572.72 707.84 554.00 711.56 534.46 C 710.98 534.54 709.83 534.70 709.25 534.78 C 669.55 534.54 629.84 534.76 590.14 534.67 C 588.11 534.66 586.08 534.66 584.06 534.69 C 579.62 545.19 574.01 555.21 567.38 564.49 C 564.99 567.86 561.42 571.02 557.02 570.82 C 551.88 570.93 547.67 567.08 545.53 562.69 C 543.92 564.02 542.65 565.68 541.49 567.40 C 522.95 592.28 496.99 611.37 467.97 622.23 C 466.11 622.86 464.25 623.49 462.38 624.08 C 464.78 628.27 467.74 633.24 465.42 638.14 C 462.54 644.34 455.12 645.42 449.15 646.63 C 422.83 652.32 395.27 651.72 369.12 645.38 C 364.64 644.62 361.63 640.30 361.61 635.91 C 360.94 631.86 363.18 628.29 365.12 624.96 C 363.19 624.30 361.26 623.64 359.34 623.00 C 330.35 612.34 304.41 593.44 285.77 568.78 L 285.94 568.60 C 284.87 567.17 283.81 565.76 282.77 564.33 C 278.31 567.54 273.86 572.33 268.04 572.24 C 262.91 572.09 259.82 567.46 257.25 563.64 C 250.98 554.55 245.93 544.70 241.48 534.62 C 239.33 534.65 237.18 534.66 235.04 534.67 C 195.33 534.75 155.61 534.54 115.91 534.78 C 115.31 534.71 114.13 534.57 113.54 534.49 Z" />
</g>
<g id="#e21d24ff">
<path fill="#e21d24" opacity="1.00" d=" M 5.87 6.21 C 8.83 5.38 11.98 5.95 15.02 5.83 C 277.00 5.83 538.99 5.83 800.98 5.83 C 807.82 6.04 814.70 5.39 821.51 6.24 C 821.24 114.17 821.47 222.12 821.39 330.06 C 821.47 358.27 821.25 386.49 821.50 414.70 C 818.36 415.31 815.18 415.26 812.01 415.20 C 727.33 415.17 642.65 415.22 557.97 415.17 C 556.11 415.56 555.47 413.53 554.74 412.32 C 550.29 403.20 544.80 394.58 538.15 386.91 C 537.38 385.78 535.73 384.65 536.43 383.11 C 539.73 376.85 544.71 371.41 551.03 368.12 C 558.83 363.67 567.42 360.90 575.62 357.32 C 575.46 342.87 575.26 328.42 575.21 313.98 C 575.22 312.18 574.92 310.41 574.62 308.66 C 557.88 305.83 541.00 303.74 524.02 303.41 C 493.00 302.13 461.90 302.59 430.96 305.04 C 402.34 307.08 374.29 315.45 348.85 328.64 C 316.47 345.55 288.02 371.49 271.68 404.49 C 269.89 407.81 268.72 411.44 266.83 414.70 C 266.41 414.82 265.55 415.06 265.12 415.19 C 180.10 415.20 95.06 415.18 10.04 415.20 C 8.56 415.19 7.10 414.89 5.64 414.72 C 5.92 371.13 5.68 327.53 5.76 283.93 C 5.76 194.61 5.76 105.29 5.76 15.97 C 5.79 12.72 5.60 9.46 5.87 6.21 Z" />
</g>
<g id="#eaecebff">
<path fill="#eaeceb" opacity="1.00" d=" M 462.02 308.40 C 485.66 307.57 509.34 307.71 532.97 308.94 C 544.45 309.68 555.98 310.56 567.26 312.89 C 569.25 313.19 569.94 315.17 569.78 316.96 C 569.85 328.66 570.34 340.36 570.18 352.07 C 570.31 353.81 568.48 354.66 567.15 355.23 C 558.45 358.76 549.45 362.09 541.98 367.92 C 536.40 372.28 532.53 378.37 529.47 384.67 C 539.42 395.75 547.76 408.29 553.50 422.06 C 563.83 445.74 568.21 472.17 564.75 497.84 C 560.30 532.55 541.83 564.76 515.60 587.67 C 487.09 612.93 449.20 627.59 411.03 627.20 C 374.32 627.10 338.38 612.31 310.91 588.22 C 284.92 565.47 267.83 533.17 262.50 499.13 C 258.44 473.65 260.94 447.18 269.63 422.89 C 278.69 396.98 295.52 374.14 316.45 356.54 C 339.67 336.94 367.65 323.28 397.02 315.76 C 418.21 310.19 440.24 309.30 462.02 308.40 M 468.34 313.46 C 442.23 314.77 416.15 318.61 391.08 326.12 C 359.32 335.50 328.66 351.45 306.19 376.20 C 298.53 383.78 292.76 392.95 287.07 402.03 C 284.89 405.73 283.24 409.70 281.34 413.54 C 266.77 444.88 264.03 481.38 273.33 514.63 C 282.17 546.07 301.74 574.84 328.99 593.11 C 347.35 606.43 369.02 614.92 391.36 618.56 C 427.87 624.15 466.25 614.66 496.40 593.47 C 524.18 574.48 545.68 545.84 554.28 513.14 C 563.87 477.56 556.73 438.58 537.67 407.35 C 533.82 400.12 527.76 394.48 522.96 387.95 C 521.02 385.66 522.11 382.63 523.33 380.30 C 527.17 373.20 531.89 366.34 538.47 361.50 C 544.19 357.64 550.26 354.28 556.73 351.83 C 558.79 350.79 561.58 350.07 562.48 347.71 C 563.19 342.83 562.69 337.87 562.72 332.96 C 562.49 328.75 562.86 324.41 561.65 320.33 C 558.27 317.88 553.90 317.89 549.95 317.23 C 522.94 313.48 495.58 312.10 468.34 313.46 Z" />
</g>
<g id="#feffffff">
<path fill="#feffff" opacity="1.00" d=" M 468.34 313.46 C 495.58 312.10 522.94 313.48 549.95 317.23 C 553.90 317.89 558.27 317.88 561.65 320.33 C 562.86 324.41 562.49 328.75 562.72 332.96 C 562.69 337.87 563.19 342.83 562.48 347.71 C 561.58 350.07 558.79 350.79 556.73 351.83 C 550.26 354.28 544.19 357.64 538.47 361.50 C 531.89 366.34 527.17 373.20 523.33 380.30 C 522.11 382.63 521.02 385.66 522.96 387.95 C 527.76 394.48 533.82 400.12 537.67 407.35 C 556.73 438.58 563.87 477.56 554.28 513.14 C 545.68 545.84 524.18 574.48 496.40 593.47 C 466.25 614.66 427.87 624.15 391.36 618.56 C 369.02 614.92 347.35 606.43 328.99 593.11 C 301.74 574.84 282.17 546.07 273.33 514.63 C 264.03 481.38 266.77 444.88 281.34 413.54 C 283.24 409.70 284.89 405.73 287.07 402.03 C 292.76 392.95 298.53 383.78 306.19 376.20 C 328.66 351.45 359.32 335.50 391.08 326.12 C 416.15 318.61 442.23 314.77 468.34 313.46 Z" />
</g>
<g id="#f2b805ff">
<path fill="#f2b805" opacity="1.00" d=" M 77.24 419.25 C 87.49 419.11 97.74 419.18 107.98 419.24 C 117.99 419.49 128.17 419.39 137.89 422.12 C 151.93 425.88 159.98 438.90 168.60 449.50 C 175.03 457.69 181.65 465.74 188.42 473.66 C 176.60 473.74 164.78 473.74 152.96 473.66 C 144.31 473.46 135.46 473.49 127.13 470.89 C 119.66 468.53 113.68 463.11 108.80 457.17 C 98.37 444.45 88.22 431.50 77.24 419.25 M 87.90 424.00 C 90.97 428.87 95.21 432.81 98.67 437.38 C 105.22 445.15 110.94 453.69 118.40 460.66 C 123.92 465.82 131.52 467.90 138.89 468.47 C 151.93 469.43 165.04 469.42 178.10 468.98 C 173.04 462.05 167.25 455.68 162.17 448.76 C 155.29 440.12 148.40 430.13 137.33 426.70 C 128.49 424.17 119.17 424.00 110.04 423.78 C 102.66 423.90 95.26 423.28 87.90 424.00 Z" />
<path fill="#f2b805" opacity="1.00" d=" M 149.48 419.25 C 163.32 419.16 177.18 419.03 191.02 419.53 C 200.81 419.98 211.19 420.88 219.58 426.43 C 226.73 431.21 231.87 438.27 237.19 444.89 C 243.16 452.56 249.29 460.10 255.47 467.62 C 255.39 469.63 255.33 471.64 255.28 473.67 C 242.87 473.70 230.45 473.84 218.04 473.50 C 209.73 473.14 201.02 472.54 193.62 468.36 C 186.14 464.07 180.91 457.01 175.53 450.48 C 167.13 439.84 158.46 429.40 149.48 419.25 M 159.87 423.95 C 168.62 434.30 176.82 445.10 185.65 455.38 C 188.57 458.76 191.75 462.01 195.63 464.29 C 200.68 467.14 206.51 468.25 212.24 468.59 C 224.87 469.32 237.54 469.47 250.17 469.00 C 246.45 463.43 241.81 458.56 237.87 453.14 C 230.52 444.57 224.57 434.16 214.33 428.64 C 205.54 424.40 195.50 424.39 185.95 423.85 C 177.26 423.86 168.55 423.28 159.87 423.95 Z" />
<path fill="#f2b805" opacity="1.00" d=" M 221.75 419.26 C 236.17 419.11 250.60 419.09 265.02 419.55 C 264.56 421.07 264.12 422.59 263.62 424.10 C 253.19 423.66 242.74 423.52 232.30 423.86 C 239.63 433.63 247.77 442.78 255.21 452.48 C 255.63 452.48 256.47 452.47 256.89 452.47 C 256.56 455.01 256.27 457.55 256.00 460.11 C 250.72 454.62 246.25 448.45 241.42 442.58 C 235.06 434.65 228.43 426.93 221.75 419.26 Z" />
<path fill="#f2b805" opacity="1.00" d=" M 558.34 419.81 C 573.96 418.93 589.61 419.20 605.24 419.23 C 597.21 428.56 589.20 437.90 581.58 447.57 C 577.77 452.12 574.41 457.12 569.92 461.04 C 569.63 459.05 569.34 457.07 569.07 455.09 C 575.59 448.22 581.27 440.62 587.25 433.29 C 589.85 430.31 592.41 427.28 594.60 423.97 C 583.20 423.56 571.71 423.32 560.36 424.58 L 560.19 424.60 C 559.57 422.99 558.95 421.40 558.34 419.81 Z" />
<path fill="#f2b805" opacity="1.00" d=" M 634.02 419.63 C 648.52 418.96 663.05 419.22 677.57 419.22 C 669.35 428.51 661.40 438.02 653.70 447.74 C 648.01 454.62 642.75 462.16 635.26 467.23 C 628.15 471.99 619.38 473.01 611.04 473.40 C 597.76 473.91 584.47 473.64 571.19 473.71 C 570.81 471.02 570.42 468.07 572.69 466.12 C 580.82 456.70 588.21 446.68 596.12 437.07 C 600.14 432.43 604.45 427.83 609.95 424.96 C 617.30 420.97 625.81 420.10 634.02 419.63 M 628.02 424.70 C 621.38 425.54 614.40 426.77 608.96 430.94 C 600.01 437.75 594.05 447.46 586.91 455.96 C 583.72 460.42 579.59 464.16 576.89 468.97 C 588.24 469.44 599.64 469.37 610.99 468.88 C 618.38 468.36 626.26 467.70 632.63 463.54 C 639.55 458.50 644.73 451.56 650.06 444.96 C 655.55 437.84 661.73 431.26 667.04 424.00 C 654.05 423.35 640.98 423.63 628.02 424.70 Z" />
<path fill="#f2b805" opacity="1.00" d=" M 704.47 419.71 C 719.55 418.91 734.65 419.27 749.74 419.19 C 739.20 431.21 729.18 443.67 719.12 456.11 C 714.01 462.47 707.79 468.40 699.84 470.92 C 691.50 473.48 682.67 473.47 674.03 473.66 C 662.23 473.72 650.43 473.76 638.63 473.64 C 646.32 464.61 653.85 455.45 661.12 446.07 C 666.70 439.16 671.95 431.70 679.39 426.63 C 686.73 421.63 695.80 420.32 704.47 419.71 M 683.57 429.41 C 677.74 432.78 673.39 438.07 669.30 443.29 C 662.46 451.69 655.90 460.31 648.96 468.62 C 650.95 469.08 652.98 469.38 655.04 469.29 C 668.01 468.99 681.10 469.74 693.96 467.71 C 702.34 466.41 709.36 460.99 714.50 454.48 C 722.76 444.34 731.06 434.22 739.14 423.94 C 727.45 423.39 715.71 423.68 704.03 424.36 C 696.99 424.78 689.79 425.92 683.57 429.41 Z" />
<path fill="#f2b805" opacity="1.00" d=" M 6.22 429.00 C 4.41 424.20 9.10 419.00 14.02 419.61 C 34.04 419.75 54.09 419.35 74.09 419.81 C 74.64 420.21 75.74 421.00 76.29 421.40 L 75.05 422.18 C 69.07 422.95 63.03 422.44 57.03 422.56 C 42.34 422.67 27.63 422.42 12.94 422.64 C 8.90 422.34 7.37 428.26 10.65 430.33 C 12.94 431.30 15.54 430.94 17.97 431.07 C 39.01 430.81 60.06 431.32 81.09 430.85 C 81.20 430.46 81.42 429.69 81.54 429.31 C 82.75 430.89 83.91 432.53 85.07 434.17 C 61.39 434.22 37.71 434.17 14.03 434.19 C 10.65 434.41 7.08 432.41 6.22 429.00 Z" />
<path fill="#f2b805" opacity="1.00" d=" M 750.93 422.34 C 751.51 421.45 752.10 420.56 752.70 419.68 C 772.80 419.79 792.91 419.70 813.02 419.72 C 816.25 419.43 819.53 421.35 820.68 424.43 C 822.69 428.82 818.79 434.35 814.01 434.22 C 789.99 434.31 765.96 434.24 741.94 434.25 C 742.70 433.17 743.48 432.11 744.27 431.05 C 766.54 431.33 788.82 431.06 811.09 431.21 C 813.56 431.07 817.73 431.46 817.92 428.00 C 818.87 424.84 816.06 422.20 813.01 422.50 C 792.32 422.32 771.62 422.66 750.93 422.34 Z" />
<path fill="#f2b805" opacity="1.00" d=" M 6.47 443.25 C 7.76 439.83 11.68 438.57 15.05 438.83 C 39.05 438.85 63.06 438.82 87.07 438.85 C 89.14 438.36 89.92 440.58 91.08 441.79 C 70.41 442.03 49.73 441.86 29.05 441.90 C 23.39 441.98 17.69 441.58 12.05 442.29 C 8.33 442.44 7.83 448.52 11.03 449.91 C 13.21 450.86 15.66 450.65 17.97 450.73 C 44.73 450.46 71.48 450.90 98.23 450.51 C 99.03 451.46 99.83 452.42 100.63 453.39 C 71.40 453.37 42.17 453.47 12.94 453.35 C 8.03 453.43 4.28 447.69 6.47 443.25 Z" />
<path fill="#f2b805" opacity="1.00" d=" M 736.11 441.80 C 737.17 440.64 737.97 438.55 739.93 438.91 C 764.30 439.00 788.68 438.68 813.05 439.07 C 816.77 438.67 820.47 441.22 821.07 444.98 C 822.06 449.58 817.62 454.11 813.00 453.51 C 784.24 453.49 755.48 453.54 726.72 453.48 C 727.43 452.43 728.17 451.39 728.92 450.37 L 729.13 450.37 C 756.40 450.83 783.68 450.31 810.96 450.64 C 813.01 450.48 815.60 450.97 817.09 449.16 C 819.33 446.75 817.62 441.90 814.07 442.22 C 788.10 441.79 762.08 442.61 736.11 441.80 Z" />
<path fill="#f2b805" opacity="1.00" d=" M 6.06 464.96 C 5.81 460.77 10.12 457.69 14.05 458.19 C 44.04 458.20 74.03 458.13 104.02 458.21 C 105.61 458.04 106.34 459.77 107.36 460.67 C 99.25 461.38 91.12 460.93 83.00 461.05 C 60.67 460.99 38.34 461.16 16.01 461.01 C 14.09 461.18 11.78 460.80 10.26 462.25 C 8.55 463.70 8.41 466.48 9.88 468.15 C 11.30 470.01 13.91 469.54 15.95 469.74 C 47.95 469.61 79.95 469.76 111.95 469.66 C 113.93 469.66 115.91 469.70 117.88 469.87 C 119.36 470.70 120.81 471.60 122.22 472.56 C 86.13 472.71 50.03 472.59 13.94 472.63 C 9.69 473.13 5.45 469.32 6.06 464.96 Z" />
<path fill="#f2b805" opacity="1.00" d=" M 719.40 460.89 C 720.53 459.98 721.37 458.17 723.07 458.29 C 753.04 458.22 783.01 458.29 812.98 458.26 C 816.29 457.95 819.73 459.94 820.77 463.17 C 822.55 467.49 818.74 472.94 814.03 472.68 C 777.62 472.81 741.20 472.72 704.78 472.72 C 706.40 471.70 708.00 470.65 709.59 469.58 C 718.05 470.21 726.54 469.86 735.01 469.93 C 760.35 469.95 785.69 469.92 811.03 469.95 C 813.10 469.76 815.77 470.15 817.16 468.21 C 818.50 466.31 818.35 463.04 816.14 461.84 C 814.55 461.13 812.74 461.26 811.05 461.17 C 783.70 461.31 756.34 461.14 728.99 461.25 C 725.78 461.25 722.58 461.10 719.40 460.89 Z" />
<path fill="#f2b805" opacity="1.00" d=" M 118.36 483.34 C 126.58 477.28 137.16 476.60 147.00 476.26 C 160.81 476.00 174.63 476.08 188.45 476.18 C 180.43 485.33 172.85 494.86 165.33 504.43 C 159.31 511.94 153.53 520.18 144.85 524.85 C 136.64 529.28 127.09 529.77 117.97 530.29 C 104.41 530.76 90.84 530.61 77.27 530.62 C 84.72 521.95 92.20 513.29 99.29 504.32 C 105.31 497.05 110.73 489.04 118.36 483.34 M 127.60 483.57 C 116.58 487.84 110.19 498.37 103.02 507.09 C 98.82 511.88 95.13 517.11 90.74 521.73 C 89.57 522.98 88.67 524.44 87.82 525.91 C 93.18 526.42 98.57 526.27 103.94 526.07 C 113.95 525.58 124.08 526.14 133.94 523.99 C 140.80 522.65 147.02 518.80 151.70 513.66 C 157.15 507.73 161.90 501.20 166.96 494.94 C 170.51 490.16 174.64 485.84 178.05 480.96 C 172.03 480.28 165.98 480.72 159.94 480.63 C 149.14 480.89 137.99 480.02 127.60 483.57 Z" />
<path fill="#f2b805" opacity="1.00" d=" M 193.56 481.44 C 201.27 477.07 210.37 476.62 219.02 476.26 C 231.10 475.98 243.19 476.13 255.28 476.14 C 255.32 478.19 255.36 480.24 255.42 482.30 C 248.22 490.83 241.34 499.63 234.43 508.40 C 229.39 514.64 224.16 521.10 216.94 524.91 C 209.02 529.16 199.83 529.75 191.03 530.26 C 177.21 530.76 163.38 530.64 149.56 530.59 C 157.75 521.02 165.95 511.45 173.74 501.55 C 179.74 494.33 185.24 486.22 193.56 481.44 M 202.64 482.68 C 195.78 484.55 189.85 489.02 185.43 494.50 C 176.88 504.87 168.40 515.31 160.03 525.82 C 169.34 526.76 178.68 525.84 188.00 525.78 C 195.11 525.62 202.30 525.15 209.17 523.18 C 214.85 521.57 219.75 517.97 223.84 513.80 C 230.15 506.72 235.75 499.06 241.71 491.70 C 244.55 488.12 247.76 484.82 250.13 480.89 C 240.77 480.38 231.38 480.67 222.01 480.71 C 215.51 480.70 208.97 481.18 202.64 482.68 Z" />
<path fill="#f2b805" opacity="1.00" d=" M 571.23 476.15 C 583.50 476.11 595.76 475.99 608.02 476.26 C 616.43 476.62 625.25 477.03 632.84 481.10 C 639.62 484.70 644.54 490.77 649.32 496.61 C 658.46 508.16 667.87 519.51 677.55 530.61 C 661.00 530.50 644.39 531.10 627.88 529.66 C 617.70 528.96 607.42 525.26 600.49 517.51 C 590.07 506.24 581.44 493.47 571.28 481.98 C 571.25 480.03 571.24 478.08 571.23 476.15 M 576.89 480.97 C 582.94 489.23 589.62 497.00 595.83 505.14 C 600.59 510.70 605.00 516.94 611.57 520.51 C 619.87 525.14 629.66 525.54 638.93 525.74 C 648.29 525.97 657.66 526.58 667.03 525.98 C 663.74 521.03 659.50 516.82 655.93 512.09 C 649.92 505.06 644.55 497.49 638.13 490.83 C 634.43 487.27 630.10 484.15 625.07 482.84 C 614.93 480.16 604.35 480.83 593.98 480.63 C 588.28 480.68 582.56 480.34 576.89 480.97 Z" />
<path fill="#f2b805" opacity="1.00" d=" M 638.61 476.20 C 651.41 476.02 664.21 476.08 677.01 476.18 C 685.45 476.43 694.16 476.59 702.13 479.71 C 709.15 482.49 714.51 488.10 719.23 493.80 C 729.21 506.22 739.27 518.58 749.72 530.61 C 735.82 530.63 721.91 530.77 708.02 530.25 C 698.78 529.76 689.07 529.01 680.95 524.13 C 672.28 518.96 666.57 510.37 660.33 502.69 C 653.29 493.70 646.09 484.83 638.61 476.20 M 649.26 481.51 C 658.47 492.41 666.63 504.21 676.37 514.67 C 683.32 522.38 694.05 525.11 704.09 525.43 C 715.75 525.74 727.44 526.77 739.11 525.93 C 732.95 517.52 726.02 509.69 719.61 501.47 C 714.78 495.68 710.25 489.27 703.60 485.43 C 697.67 481.98 690.65 481.53 683.97 480.93 C 674.33 480.43 664.67 480.74 655.02 480.56 C 653.03 480.44 651.09 480.79 649.26 481.51 Z" />
<path fill="#f2b805" opacity="1.00" d=" M 8.08 479.11 C 9.84 477.12 12.62 477.08 15.07 477.09 C 50.79 477.16 86.52 477.04 122.25 477.15 C 120.45 478.25 118.68 479.40 116.96 480.63 L 116.78 480.61 C 110.20 479.77 103.56 480.20 96.95 480.16 C 72.31 480.13 47.67 480.17 23.03 480.15 C 19.13 480.21 15.17 479.78 11.31 480.49 C 7.30 481.90 8.64 488.73 12.90 488.56 C 44.39 488.82 75.91 488.37 107.41 488.77 C 106.65 489.70 105.89 490.63 105.13 491.56 C 74.75 491.52 44.36 491.56 13.98 491.54 C 7.39 492.61 3.05 483.47 8.08 479.11 Z" />
<path fill="#f2b805" opacity="1.00" d=" M 704.83 477.39 C 741.21 477.36 777.60 477.36 813.98 477.39 C 818.65 477.25 822.60 482.55 820.73 486.95 C 819.76 490.23 816.28 492.17 812.96 491.84 C 785.30 491.85 757.64 491.82 729.98 491.84 C 726.22 491.67 721.60 493.00 719.29 489.12 C 745.85 488.62 772.43 489.05 799.00 488.90 C 804.49 488.71 810.09 489.49 815.52 488.43 C 819.51 487.02 818.27 481.26 814.82 479.93 C 813.73 479.13 812.30 479.20 811.04 479.26 C 803.37 479.95 795.67 479.44 787.99 479.61 C 765.32 479.62 742.64 479.63 719.97 479.59 C 716.03 479.68 712.08 478.88 708.17 479.57 C 707.04 478.83 705.94 478.12 704.83 477.39 Z" />
<path fill="#f2b805" opacity="1.00" d=" M 244.01 503.99 C 247.94 499.22 251.55 494.16 255.96 489.82 C 256.28 492.44 256.58 495.06 256.92 497.68 C 256.50 497.64 255.64 497.57 255.21 497.53 C 247.45 506.94 239.67 516.32 232.07 525.86 C 242.56 526.70 253.07 525.86 263.57 525.75 C 264.07 527.22 264.58 528.68 265.07 530.17 C 250.61 530.81 236.13 530.62 221.67 530.59 C 229.31 521.89 236.82 513.06 244.01 503.99 Z" />
<path fill="#f2b805" opacity="1.00" d=" M 570.29 496.87 C 570.44 494.47 570.74 492.08 571.21 489.72 C 582.79 503.18 593.42 517.44 605.37 530.60 C 590.95 530.61 576.53 530.81 562.12 530.19 C 562.62 528.69 563.14 527.20 563.66 525.71 C 573.98 525.82 584.32 526.74 594.63 525.85 C 590.24 519.52 584.92 513.92 580.24 507.82 C 577.03 504.08 574.51 499.61 570.29 496.87 Z" />
<path fill="#f2b805" opacity="1.00" d=" M 6.10 501.90 C 6.79 498.33 10.44 495.93 13.99 496.32 C 42.86 496.29 71.74 496.32 100.61 496.30 C 99.69 497.39 98.77 498.47 97.84 499.57 C 90.23 498.94 82.59 499.29 74.97 499.24 C 55.30 499.20 35.63 499.27 15.96 499.19 C 14.26 499.27 12.47 499.18 10.86 499.86 C 8.43 501.41 8.36 505.58 10.81 507.16 C 12.43 507.92 14.28 507.91 16.03 508.06 C 40.92 508.31 65.82 507.78 90.70 508.32 C 90.08 509.13 89.45 509.94 88.82 510.76 C 63.52 510.74 38.21 510.84 12.90 510.71 C 8.50 510.88 4.84 506.08 6.10 501.90 Z" />
<path fill="#f2b805" opacity="1.00" d=" M 726.42 496.60 C 755.26 496.62 784.10 496.61 812.95 496.61 C 816.41 496.28 819.95 498.51 820.90 501.90 C 822.32 506.23 818.59 511.19 814.03 511.11 C 789.33 511.23 764.62 511.14 739.92 511.15 C 738.16 511.59 737.42 509.87 736.68 508.71 C 761.79 508.09 786.93 508.60 812.04 508.45 C 813.95 508.37 816.20 508.17 817.42 506.47 C 818.81 504.40 817.94 501.37 815.99 499.99 C 813.75 499.20 811.30 499.48 808.98 499.41 C 782.35 499.72 755.71 499.13 729.08 499.70 L 728.94 499.70 C 728.10 498.67 727.24 497.62 726.42 496.60 Z" />
<path fill="#f2b805" opacity="1.00" d=" M 5.94 521.95 C 6.32 518.04 10.15 515.13 14.01 515.55 C 37.71 515.57 61.41 515.48 85.11 515.60 C 84.36 516.59 83.62 517.60 82.87 518.61 C 66.95 517.94 50.99 518.55 35.05 518.34 C 27.73 518.51 20.39 518.01 13.08 518.48 C 10.05 518.43 7.69 522.02 9.35 524.69 C 10.14 526.52 12.15 527.00 13.96 526.95 C 34.73 527.25 55.52 526.51 76.28 527.33 C 75.43 529.02 74.08 530.46 71.97 530.08 C 52.64 530.10 33.31 530.14 13.98 530.07 C 9.51 530.55 5.18 526.49 5.94 521.95 Z" />
<path fill="#f2b805" opacity="1.00" d=" M 744.12 518.94 C 743.42 517.89 742.75 516.85 742.08 515.81 C 766.08 515.89 790.09 515.72 814.09 515.89 C 818.60 515.83 822.25 520.71 820.94 525.01 C 820.00 528.42 816.46 530.71 812.97 530.39 C 792.89 530.33 772.81 530.51 752.73 530.30 C 752.30 529.68 751.44 528.42 751.01 527.79 C 772.28 526.89 793.61 527.85 814.89 527.31 C 820.17 526.41 818.28 517.70 812.97 518.79 C 790.03 518.70 767.06 518.49 744.12 518.94 Z" />
<path fill="#f2b805" opacity="1.00" d=" M 113.54 534.49 C 114.13 534.57 115.31 534.71 115.91 534.78 C 121.03 555.80 127.57 576.71 138.09 595.71 C 155.35 591.19 172.44 586.05 189.79 581.92 C 201.95 603.17 216.27 623.25 233.12 641.05 C 223.48 656.34 212.70 670.89 202.92 686.09 C 222.19 703.81 243.08 720.29 266.93 731.40 C 277.99 718.25 288.44 704.59 299.41 691.38 C 300.23 690.00 301.77 690.50 302.94 691.04 C 322.04 699.66 341.78 707.21 362.33 711.53 C 364.64 712.16 367.38 712.21 369.23 713.90 C 370.53 731.54 370.42 749.31 371.42 766.98 C 379.86 768.48 388.46 768.59 396.99 769.18 C 415.63 769.76 434.41 769.52 452.80 766.10 C 453.80 748.43 454.56 730.75 455.40 713.08 C 472.57 709.19 489.64 704.62 506.01 698.05 C 512.32 695.72 518.31 692.62 524.60 690.26 C 535.74 704.36 546.73 718.58 558.01 732.56 C 572.21 725.02 585.66 716.10 598.51 706.46 C 606.45 700.16 614.37 693.71 621.09 686.08 C 611.59 671.09 601.34 656.56 592.02 641.46 C 605.56 626.90 617.70 611.06 628.28 594.22 C 630.87 590.43 632.52 586.08 635.29 582.42 C 639.44 582.89 643.35 584.48 647.38 585.53 C 660.86 589.24 674.25 593.30 687.76 596.92 C 696.79 576.92 704.85 556.34 709.25 534.78 C 709.83 534.70 710.98 534.54 711.56 534.46 C 707.84 554.00 700.83 572.72 692.95 590.91 C 691.70 593.66 690.73 596.57 689.09 599.13 C 685.99 599.41 683.05 597.84 680.07 597.18 C 665.42 593.20 650.94 588.55 636.19 584.98 C 626.81 602.38 614.97 618.35 602.26 633.45 C 599.94 636.37 596.95 638.77 595.03 641.98 C 603.88 656.00 613.25 669.72 622.35 683.61 C 623.02 684.78 624.47 686.51 622.96 687.72 C 604.21 707.33 581.25 722.23 557.82 735.61 C 551.10 728.45 545.55 720.28 539.30 712.71 C 534.17 706.12 528.92 699.64 523.86 693.00 C 502.66 702.61 480.49 710.22 457.63 714.71 C 457.00 729.47 456.16 744.22 455.50 758.98 C 455.29 762.07 455.64 765.30 454.46 768.25 C 426.41 773.09 397.71 772.46 369.52 769.31 C 368.57 764.93 368.89 760.43 368.69 756.00 C 368.21 742.29 367.68 728.59 367.21 714.89 C 344.28 710.62 322.31 702.31 301.08 692.84 C 290.52 706.02 279.87 719.13 269.28 732.29 C 268.55 733.18 267.34 734.46 266.09 733.63 C 241.94 722.26 220.82 705.51 201.12 687.72 C 199.49 686.59 201.02 684.79 201.70 683.64 C 211.28 669.57 220.83 655.47 230.34 641.34 C 214.17 624.22 200.33 604.92 188.75 584.44 C 172.27 588.68 155.90 593.36 139.44 597.71 C 138.33 598.01 136.66 598.20 136.07 596.93 C 125.49 577.39 118.54 556.09 113.54 534.49 Z" />
<path fill="#f2b805" opacity="1.00" d=" M 235.04 534.67 C 237.18 534.66 239.33 534.65 241.48 534.62 C 245.93 544.70 250.98 554.55 257.25 563.64 C 259.82 567.46 262.91 572.09 268.04 572.24 C 273.86 572.33 278.31 567.54 282.77 564.33 C 283.81 565.76 284.87 567.17 285.94 568.60 L 285.77 568.78 C 283.20 571.52 280.66 574.44 277.32 576.28 C 274.08 577.97 270.33 578.05 266.80 578.61 C 271.93 586.45 278.63 593.16 285.31 599.69 C 300.64 614.05 318.19 626.12 337.43 634.62 C 343.64 637.30 349.88 640.05 356.54 641.46 C 356.12 638.35 355.23 635.16 356.01 632.05 C 356.78 628.91 358.15 625.98 359.34 623.00 C 361.26 623.64 363.19 624.30 365.12 624.96 C 363.18 628.29 360.94 631.86 361.61 635.91 C 361.63 640.30 364.64 644.62 369.12 645.38 C 395.27 651.72 422.83 652.32 449.15 646.63 C 455.12 645.42 462.54 644.34 465.42 638.14 C 467.74 633.24 464.78 628.27 462.38 624.08 C 464.25 623.49 466.11 622.86 467.97 622.23 C 469.37 625.10 471.08 627.92 471.57 631.13 C 471.90 634.45 471.40 637.77 471.10 641.08 C 506.49 629.46 538.15 606.66 560.35 576.74 C 556.42 576.27 552.27 576.20 548.74 574.24 C 545.74 572.66 543.61 569.95 541.49 567.40 C 542.65 565.68 543.92 564.02 545.53 562.69 C 547.67 567.08 551.88 570.93 557.02 570.82 C 561.42 571.02 564.99 567.86 567.38 564.49 C 574.01 555.21 579.62 545.19 584.06 534.69 C 586.08 534.66 588.11 534.66 590.14 534.67 C 577.77 567.29 555.74 595.92 528.21 617.22 C 500.24 638.65 466.20 651.95 431.14 655.32 C 407.12 657.59 382.30 656.56 359.34 648.61 C 318.31 636.90 281.80 610.56 257.25 575.72 C 248.13 563.04 241.11 549.02 235.04 534.67 Z" />
</g>
<g id="#feed01ff">
<path fill="#feed01" opacity="1.00" d=" M 10.65 430.33 C 7.37 428.26 8.90 422.34 12.94 422.64 C 27.63 422.42 42.34 422.67 57.03 422.56 C 63.03 422.44 69.07 422.95 75.05 422.18 L 76.18 422.05 C 77.93 424.49 79.84 426.82 81.54 429.31 C 81.42 429.69 81.20 430.46 81.09 430.85 C 60.06 431.32 39.01 430.81 17.97 431.07 C 15.54 430.94 12.94 431.30 10.65 430.33 Z" />
<path fill="#feed01" opacity="1.00" d=" M 750.93 422.34 C 771.62 422.66 792.32 422.32 813.01 422.50 C 816.06 422.20 818.87 424.84 817.92 428.00 C 817.73 431.46 813.56 431.07 811.09 431.21 C 788.82 431.06 766.54 431.33 744.27 431.05 C 746.43 428.17 748.59 425.30 750.63 422.34 L 750.93 422.34 Z" />
<path fill="#feed01" opacity="1.00" d=" M 87.90 424.00 C 95.26 423.28 102.66 423.90 110.04 423.78 C 119.17 424.00 128.49 424.17 137.33 426.70 C 148.40 430.13 155.29 440.12 162.17 448.76 C 167.25 455.68 173.04 462.05 178.10 468.98 C 165.04 469.42 151.93 469.43 138.89 468.47 C 131.52 467.90 123.92 465.82 118.40 460.66 C 110.94 453.69 105.22 445.15 98.67 437.38 C 95.21 432.81 90.97 428.87 87.90 424.00 Z" />
<path fill="#feed01" opacity="1.00" d=" M 159.87 423.95 C 168.55 423.28 177.26 423.86 185.95 423.85 C 195.50 424.39 205.54 424.40 214.33 428.64 C 224.57 434.16 230.52 444.57 237.87 453.14 C 241.81 458.56 246.45 463.43 250.17 469.00 C 237.54 469.47 224.87 469.32 212.24 468.59 C 206.51 468.25 200.68 467.14 195.63 464.29 C 191.75 462.01 188.57 458.76 185.65 455.38 C 176.82 445.10 168.62 434.30 159.87 423.95 Z" />
<path fill="#feed01" opacity="1.00" d=" M 232.30 423.86 C 242.74 423.52 253.19 423.66 263.62 424.10 C 260.47 433.31 258.24 442.84 256.89 452.47 C 256.47 452.47 255.63 452.48 255.21 452.48 C 247.77 442.78 239.63 433.63 232.30 423.86 Z" />
<path fill="#feed01" opacity="1.00" d=" M 560.36 424.58 C 571.71 423.32 583.20 423.56 594.60 423.97 C 592.41 427.28 589.85 430.31 587.25 433.29 C 581.27 440.62 575.59 448.22 569.07 455.09 C 567.20 444.65 564.14 434.47 560.36 424.58 Z" />
<path fill="#feed01" opacity="1.00" d=" M 628.02 424.70 C 640.98 423.63 654.05 423.35 667.04 424.00 C 661.73 431.26 655.55 437.84 650.06 444.96 C 644.73 451.56 639.55 458.50 632.63 463.54 C 626.26 467.70 618.38 468.36 610.99 468.88 C 599.64 469.37 588.24 469.44 576.89 468.97 C 579.59 464.16 583.72 460.42 586.91 455.96 C 594.05 447.46 600.01 437.75 608.96 430.94 C 614.40 426.77 621.38 425.54 628.02 424.70 Z" />
<path fill="#feed01" opacity="1.00" d=" M 683.57 429.41 C 689.79 425.92 696.99 424.78 704.03 424.36 C 715.71 423.68 727.45 423.39 739.14 423.94 C 731.06 434.22 722.76 444.34 714.50 454.48 C 709.36 460.99 702.34 466.41 693.96 467.71 C 681.10 469.74 668.01 468.99 655.04 469.29 C 652.98 469.38 650.95 469.08 648.96 468.62 C 655.90 460.31 662.46 451.69 669.30 443.29 C 673.39 438.07 677.74 432.78 683.57 429.41 Z" />
<path fill="#feed01" opacity="1.00" d=" M 11.03 449.91 C 7.83 448.52 8.33 442.44 12.05 442.29 C 17.69 441.58 23.39 441.98 29.05 441.90 C 49.73 441.86 70.41 442.03 91.08 441.79 C 93.40 444.75 95.76 447.68 98.23 450.51 C 71.48 450.90 44.73 450.46 17.97 450.73 C 15.66 450.65 13.21 450.86 11.03 449.91 Z" />
<path fill="#feed01" opacity="1.00" d=" M 736.02 441.79 L 736.11 441.80 C 762.08 442.61 788.10 441.79 814.07 442.22 C 817.62 441.90 819.33 446.75 817.09 449.16 C 815.60 450.97 813.01 450.48 810.96 450.64 C 783.68 450.31 756.40 450.83 729.13 450.37 C 731.43 447.52 733.75 444.68 736.02 441.79 Z" />
<path fill="#feed01" opacity="1.00" d=" M 10.26 462.25 C 11.78 460.80 14.09 461.18 16.01 461.01 C 38.34 461.16 60.67 460.99 83.00 461.05 C 91.12 460.93 99.25 461.38 107.36 460.67 L 107.56 460.65 C 110.71 464.03 114.31 466.95 117.88 469.87 C 115.91 469.70 113.93 469.66 111.95 469.66 C 79.95 469.76 47.95 469.61 15.95 469.74 C 13.91 469.54 11.30 470.01 9.88 468.15 C 8.41 466.48 8.55 463.70 10.26 462.25 Z" />
<path fill="#feed01" opacity="1.00" d=" M 709.59 469.58 C 713.06 466.92 716.30 463.98 719.40 460.89 C 722.58 461.10 725.78 461.25 728.99 461.25 C 756.34 461.14 783.70 461.31 811.05 461.17 C 812.74 461.26 814.55 461.13 816.14 461.84 C 818.35 463.04 818.50 466.31 817.16 468.21 C 815.77 470.15 813.10 469.76 811.03 469.95 C 785.69 469.92 760.35 469.95 735.01 469.93 C 726.54 469.86 718.05 470.21 709.59 469.58 Z" />
<path fill="#feed01" opacity="1.00" d=" M 11.31 480.49 C 15.17 479.78 19.13 480.21 23.03 480.15 C 47.67 480.17 72.31 480.13 96.95 480.16 C 103.56 480.20 110.20 479.77 116.78 480.61 C 113.70 483.25 110.61 485.88 107.77 488.78 L 107.41 488.77 C 75.91 488.37 44.39 488.82 12.90 488.56 C 8.64 488.73 7.30 481.90 11.31 480.49 Z" />
<path fill="#feed01" opacity="1.00" d=" M 708.83 479.85 C 731.19 479.53 753.57 479.86 775.94 479.75 C 788.90 479.88 801.88 479.43 814.82 479.93 C 818.27 481.26 819.51 487.02 815.52 488.43 C 810.09 489.49 804.49 488.71 799.00 488.90 C 772.43 489.05 745.85 488.62 719.29 489.12 C 716.04 485.76 712.43 482.79 708.83 479.85 Z" />
<path fill="#feed01" opacity="1.00" d=" M 127.60 483.57 C 137.99 480.02 149.14 480.89 159.94 480.63 C 165.98 480.72 172.03 480.28 178.05 480.96 C 174.64 485.84 170.51 490.16 166.96 494.94 C 161.90 501.20 157.15 507.73 151.70 513.66 C 147.02 518.80 140.80 522.65 133.94 523.99 C 124.08 526.14 113.95 525.58 103.94 526.07 C 98.57 526.27 93.18 526.42 87.82 525.91 C 88.67 524.44 89.57 522.98 90.74 521.73 C 95.13 517.11 98.82 511.88 103.02 507.09 C 110.19 498.37 116.58 487.84 127.60 483.57 Z" />
<path fill="#feed01" opacity="1.00" d=" M 202.64 482.68 C 208.97 481.18 215.51 480.70 222.01 480.71 C 231.38 480.67 240.77 480.38 250.13 480.89 C 247.76 484.82 244.55 488.12 241.71 491.70 C 235.75 499.06 230.15 506.72 223.84 513.80 C 219.75 517.97 214.85 521.57 209.17 523.18 C 202.30 525.15 195.11 525.62 188.00 525.78 C 178.68 525.84 169.34 526.76 160.03 525.82 C 168.40 515.31 176.88 504.87 185.43 494.50 C 189.85 489.02 195.78 484.55 202.64 482.68 Z" />
<path fill="#feed01" opacity="1.00" d=" M 576.89 480.97 C 582.56 480.34 588.28 480.68 593.98 480.63 C 604.35 480.83 614.93 480.16 625.07 482.84 C 630.10 484.15 634.43 487.27 638.13 490.83 C 644.55 497.49 649.92 505.06 655.93 512.09 C 659.50 516.82 663.74 521.03 667.03 525.98 C 657.66 526.58 648.29 525.97 638.93 525.74 C 629.66 525.54 619.87 525.14 611.57 520.51 C 605.00 516.94 600.59 510.70 595.83 505.14 C 589.62 497.00 582.94 489.23 576.89 480.97 Z" />
<path fill="#feed01" opacity="1.00" d=" M 649.26 481.51 C 651.09 480.79 653.03 480.44 655.02 480.56 C 664.67 480.74 674.33 480.43 683.97 480.93 C 690.65 481.53 697.67 481.98 703.60 485.43 C 710.25 489.27 714.78 495.68 719.61 501.47 C 726.02 509.69 732.95 517.52 739.11 525.93 C 727.44 526.77 715.75 525.74 704.09 525.43 C 694.05 525.11 683.32 522.38 676.37 514.67 C 666.63 504.21 658.47 492.41 649.26 481.51 Z" />
<path fill="#feed01" opacity="1.00" d=" M 255.21 497.53 C 255.64 497.57 256.50 497.64 256.92 497.68 C 258.25 507.22 260.52 516.62 263.57 525.75 C 253.07 525.86 242.56 526.70 232.07 525.86 C 239.67 516.32 247.45 506.94 255.21 497.53 Z" />
<path fill="#feed01" opacity="1.00" d=" M 570.29 496.87 C 574.51 499.61 577.03 504.08 580.24 507.82 C 584.92 513.92 590.24 519.52 594.63 525.85 C 584.32 526.74 573.98 525.82 563.66 525.71 C 566.91 516.37 569.07 506.68 570.29 496.87 Z" />
<path fill="#feed01" opacity="1.00" d=" M 10.86 499.86 C 12.47 499.18 14.26 499.27 15.96 499.19 C 35.63 499.27 55.30 499.20 74.97 499.24 C 82.59 499.29 90.23 498.94 97.84 499.57 C 95.43 502.45 93.07 505.39 90.70 508.32 C 65.82 507.78 40.92 508.31 16.03 508.06 C 14.28 507.91 12.43 507.92 10.81 507.16 C 8.36 505.58 8.43 501.41 10.86 499.86 Z" />
<path fill="#feed01" opacity="1.00" d=" M 729.08 499.70 C 755.71 499.13 782.35 499.72 808.98 499.41 C 811.30 499.48 813.75 499.20 815.99 499.99 C 817.94 501.37 818.81 504.40 817.42 506.47 C 816.20 508.17 813.95 508.37 812.04 508.45 C 786.93 508.60 761.79 508.09 736.68 508.71 L 736.31 508.73 C 733.98 505.65 731.50 502.70 729.08 499.70 Z" />
<path fill="#feed01" opacity="1.00" d=" M 9.35 524.69 C 7.69 522.02 10.05 518.43 13.08 518.48 C 20.39 518.01 27.73 518.51 35.05 518.34 C 50.99 518.55 66.95 517.94 82.87 518.61 C 80.70 521.47 78.54 524.35 76.53 527.34 L 76.28 527.33 C 55.52 526.51 34.73 527.25 13.96 526.95 C 12.15 527.00 10.14 526.52 9.35 524.69 Z" />
<path fill="#feed01" opacity="1.00" d=" M 744.12 518.94 C 767.06 518.49 790.03 518.70 812.97 518.79 C 818.28 517.70 820.17 526.41 814.89 527.31 C 793.61 527.85 772.28 526.89 751.01 527.79 L 750.74 527.81 C 748.55 524.84 746.39 521.84 744.12 518.94 Z" />
<path fill="#feed01" opacity="1.00" d=" M 115.91 534.78 C 155.61 534.54 195.33 534.75 235.04 534.67 C 241.11 549.02 248.13 563.04 257.25 575.72 C 281.80 610.56 318.31 636.90 359.34 648.61 C 382.30 656.56 407.12 657.59 431.14 655.32 C 466.20 651.95 500.24 638.65 528.21 617.22 C 555.74 595.92 577.77 567.29 590.14 534.67 C 629.84 534.76 669.55 534.54 709.25 534.78 C 704.85 556.34 696.79 576.92 687.76 596.92 C 674.25 593.30 660.86 589.24 647.38 585.53 C 643.35 584.48 639.44 582.89 635.29 582.42 C 632.52 586.08 630.87 590.43 628.28 594.22 C 617.70 611.06 605.56 626.90 592.02 641.46 C 601.34 656.56 611.59 671.09 621.09 686.08 C 614.37 693.71 606.45 700.16 598.51 706.46 C 585.66 716.10 572.21 725.02 558.01 732.56 C 546.73 718.58 535.74 704.36 524.60 690.26 C 518.31 692.62 512.32 695.72 506.01 698.05 C 489.64 704.62 472.57 709.19 455.40 713.08 C 454.56 730.75 453.80 748.43 452.80 766.10 C 434.41 769.52 415.63 769.76 396.99 769.18 C 388.46 768.59 379.86 768.48 371.42 766.98 C 370.42 749.31 370.53 731.54 369.23 713.90 C 367.38 712.21 364.64 712.16 362.33 711.53 C 341.78 707.21 322.04 699.66 302.94 691.04 C 301.77 690.50 300.23 690.00 299.41 691.38 C 288.44 704.59 277.99 718.25 266.93 731.40 C 243.08 720.29 222.19 703.81 202.92 686.09 C 212.70 670.89 223.48 656.34 233.12 641.05 C 216.27 623.25 201.95 603.17 189.79 581.92 C 172.44 586.05 155.35 591.19 138.09 595.71 C 127.57 576.71 121.03 555.80 115.91 534.78 Z" />
<path fill="#feed01" opacity="1.00" d=" M 467.97 622.23 C 496.99 611.37 522.95 592.28 541.49 567.40 C 543.61 569.95 545.74 572.66 548.74 574.24 C 552.27 576.20 556.42 576.27 560.35 576.74 C 538.15 606.66 506.49 629.46 471.10 641.08 C 471.40 637.77 471.90 634.45 471.57 631.13 C 471.08 627.92 469.37 625.10 467.97 622.23 Z" />
<path fill="#feed01" opacity="1.00" d=" M 285.77 568.78 C 304.41 593.44 330.35 612.34 359.34 623.00 C 358.15 625.98 356.78 628.91 356.01 632.05 C 355.23 635.16 356.12 638.35 356.54 641.46 C 349.88 640.05 343.64 637.30 337.43 634.62 C 318.19 626.12 300.64 614.05 285.31 599.69 C 278.63 593.16 271.93 586.45 266.80 578.61 C 270.33 578.05 274.08 577.97 277.32 576.28 C 280.66 574.44 283.20 571.52 285.77 568.78 Z" />
</g>
</svg>
