<?xml version="1.0" encoding="UTF-8"?>
<svg width="200" height="244" version="1.1" viewBox="0 0 200 244" xml:space="preserve" xmlns="http://www.w3.org/2000/svg">
 <path d="m1.26 1.228-2.969e-4 184.8c-4e-5 24.85 16.51 26.77 16.51 26.77l54.95 12.34c27.31 4.816 27.31 17.92 27.31 17.92s1.2e-4 -13.11 27.31-17.92l54.95-12.34s16.51-1.922 16.51-26.77l-6.3e-4 -184.8z" fill="#fbc700"/><path d="m100 140.2a208.4 80.52 0 0 0-98.77 9.695v36.14c0 24.85 16.51 26.77 16.51 26.77l54.95 12.34c27.31 4.816 27.31 17.92 27.31 17.92s1.2e-4 -13.11 27.31-17.92l54.95-12.34s16.51-1.922 16.51-26.77v-36.19a208.4 80.52 0 0 0-98.77-9.639z" fill="#007cc3"/><path d="m100 138.8-0.0167 4.8e-4c-34.48 0.0256-68.41 3.348-98.77 9.676l1.503e-4 2.814c0.08596-0.0141 0.1722-0.0283 0.2587-0.0426 0.01931-3e-3 0.03856-6e-3 0.05772-0.0105 30.23-6.315 64.07-9.639 98.5-9.667h0.0199c34.39 9e-3 68.23 3.316 98.5 9.612 0.0113 2e-3 0.0225 4e-3 0.0339 6e-3 0.0714 0.0127 0.1426 0.0254 0.2138 0.0381l2e-5 -2.822c-30.37-6.298-64.28-9.593-98.68-9.602z" fill="#1a1a1a"/><path d="m0 0v186c0 12.7 4.284 19.81 8.676 23.63 4.391 3.816 8.916 4.359 8.916 4.359l-0.1262-0.0216 54.95 12.34c0.01853 5e-3 0.03717 9e-3 0.0559 0.0127 13.47 2.375 19.99 6.748 23.19 10.37 1.993 2.134 3.366 5.12 4.338 7.31 1.042-2.193 2.499-5.18 4.334-7.31 3.187-3.621 9.721-7.994 23.19-10.37 0.0187-4e-3 0.0374-8e-3 0.0559-0.0127l54.95-12.34-0.1262 0.0216s4.524-0.5424 8.916-4.359c4.391-3.817 8.677-10.93 8.677-23.63l-4e-4 -184.8v-1.228zm2.454 2.454h195.1v183.6c1e-5 12.15-3.97 18.42-7.832 21.77-3.861 3.352-7.591 3.774-7.591 3.774-0.0424 5e-3 -0.0845 0.0122-0.1262 0.0216l-54.95 12.34 0.0559-0.0108c-13.84 2.441-20.96 7.028-24.6 11.16-1.214 1.379-1.958 2.641-2.511 3.799-0.5532-1.16-1.26-2.42-2.474-3.799-3.64-4.136-10.76-8.723-24.6-11.16l0.0559 0.0108-54.95-12.34c-0.04166-9e-3 -0.08379-0.0166-0.1262-0.0216 0 0-3.729-0.4184-7.591-3.774-3.862-3.356-7.832-9.621-7.832-21.77z" fill="#1a1a1a"/><path d="m18.18 58.36 13.19-0.5649c5.389-3.783 9.053-3.16 12.72-3.223 2.178-2.432 3.53-4.323 4.655-5.888 6.969 8.919 10.94 20.83 21.44 26.41 14.63 7.76 47.45-0.7749 63.86 6.233 28.19-5.699 36.59 30.68 58.08 41.71-10.45 6.54-19.79 4.225-26.44-0.5352-16.43-11.76-9.794-15.83-24.62-31.91 0.9058 3.183 2.384 6.685 2.333 9.87-0.0711 4.39-2.785 7.638-2.502 10.89 0.4015 4.591 4.737 6.543 12.04 9.307 3.416 8.02 6.601 16.12 9.324 24.39-0.0364 1.629-0.1618 3.256-1.295 4.884-1.519 0.1258-2.958 0.0921-4.418 0.0997-0.0731-1.352 0.5325-2.768 1.628-3.555-1.965-5.639-2.583-11.13-8.904-17-2.701-2.512-11.26-4.752-21.82-7.173l1.488 1.256c-0.2034 3.003-0.4309 5.932-0.6976 8.746l-22.22 17.66-4.582-0.1561c0.2267-1.233-0.507-2.644 2.42-3.37l16.89-16.32-3.767-10.47c-7.975-2.987-9.822-8.991-9.536-16.05-11.59 2.304-20.02 7.308-34.83 6.838-0.6419-1.2-1.086-2.697-2.186-3.21 5.242 13.03 10.92 26.01 15.25 39.18-0.06484 1.023-0.1386 2.047-0.8837 3.07l-5.772 0.0465c-0.7906-1.913 1.345-3.034 2.051-3.349-3.023-12.35-12.19-23.36-21.25-34.37-9.767-0.4731-18.44 1.827-27.11 4.14-3.752 2.597-7.148 5.761-10.27 9.353-2.09 0.9409-4.276 0.3089-5.767-0.1861 4.201-4.186 7.87-8.266 12.6-12.56 9.619-4.303 15.48-5.748 23.12-8.546-10.8-13.53-9.104-27.11-14.9-33.75-3.26-3.737-8.844-3.881-13.13-6.11-4.981-2.591-6.77-4.816-6.19-5.778z" fill="#1a1a1a"/><path d="m34.83 58.36c0.61-0.4441 0.9133-0.7809 1.644-1.196 0.4056-0.2304 1.799-0.3216 2.286-0.01934 0.5666 0.3514 1.214 0.8584 1.978 1.239-2.398 0.9172-3.837 0.7385-5.908-0.02415z" fill="#fff"/><ellipse cx="37.65" cy="57.99" rx="1.104" ry="1.115" fill="#1a1a1a"/><path d="m48.81 51.11c0.3349 3.022-0.581 5.134-1.517 6.592 3.263 0.127 2.077-5.277 1.517-6.592z" fill="#fff"/><path d="m48.14 59.49c0.1195 0.4794 0.208 0.9926 0.2641 1.53l2.758-0.2136zm0.3179 2.223c0.02936 0.5709 0.02341 1.158-0.01773 1.75l4.023-0.291zm-0.05913 2.248c-0.0086 0.09196-0.018 0.184-0.02825 0.276-0.0592 0.4827-0.1412 0.9621-0.245 1.43l4.504-0.3253zm-0.4005 2.227c-0.1432 0.5544-0.3162 1.087-0.5157 1.586l4.699-0.2399zm-0.6667 1.941c-0.2332 0.5316-0.4954 1.016-0.7803 1.442l4.46-0.2221z" fill="#fff"/><path d="m183.3 118c0.2784 1.172 0.9905 2.353 0.6901 2.795-1.475 0.3902-2.744-0.1152-3.639 0.2613 0.6327 0.9187 1.795 1.721 2.496 2.639-1.065 1.227-2.303 1.237-3.169 2.404 3.79-0.0173 7.921-1.078 10.54-3.095-2.182-0.877-5.634-3.875-6.922-5.006z" fill="#fff"/>
</svg>