<?xml version="1.0" encoding="UTF-8"?>
<svg width="400" height="500.6" version="1.1" viewBox="0 0 400 500.6" xml:space="preserve" xmlns="http://www.w3.org/2000/svg">
<style type="text/css">
	.st0{fill-rule:evenodd;clip-rule:evenodd;}
	.st1{fill-rule:evenodd;clip-rule:evenodd;fill:#008BD2;}
	.st2{fill-rule:evenodd;clip-rule:evenodd;fill:#FFCC00;}
	.st3{fill-rule:evenodd;clip-rule:evenodd;fill:#805B38;}
	.st4{fill-rule:evenodd;clip-rule:evenodd;fill:#52AE32;}
	.st5{fill-rule:evenodd;clip-rule:evenodd;fill:#009640;}
	.st6{fill-rule:evenodd;clip-rule:evenodd;fill:#B92123;}
</style>
<path class="st0" d="m394 4.4e-6h-394v406.5l0.01769 0.2273c0.1252 1.742 3.423 42.87 31.11 55.39 21.59 9.766 55.7 8.499 85.8 7.382 16.49-0.6111 32.07-1.191 42.12 0.3117 20.18 3.013 35.98 24.05 36.13 24.27l5.051 6.496 4.581-6.496c0.1579-0.2096 15.95-21.25 36.13-24.27 10.05-1.503 25.63-0.9228 42.13-0.3117 30.1 1.116 64.2 2.383 85.79-7.382 27.69-12.52 30.99-53.64 31.11-55.39l0.0177-0.2273v-406.5z" stroke-width="1.361"/><polygon class="st1" transform="matrix(1.361 0 0 1.361 -216.4 -288.5)" points="448.5 216.5 163.4 216.5 163.4 375.6 448.5 375.6"/><path class="st2" d="m6.026 228s0.1865 164.4 0.4424 163.7c0.4165-1.143 20.07-0.3117 23.29-0.9351s5.51-3.951 8.629-4.055c3.12-0.1048 11.33 0.9351 15.6-0.7282 4.263-1.663 10.92-3.638 15.7-3.638 4.783 0 11.54 1.04 17.05 0.9364 5.51-0.1048 15.7-1.768 17.16-1.768 1.455 0 3.118 1.352 4.575 1.56 1.456 0.2082 4.678-0.9364 6.134-0.7282 1.455 0.2082 2.078 2.391 3.535 1.975s1.456-1.247 2.183-1.352c0.7282-0.1034 11.75 1.352 11.75 1.352s16.64 1.976 16.84 0.7282c0.2082-1.248-0.1034-2.911 0.6234-4.678 0.7282-1.767 9.044-10.08 8.421-11.33-0.6234-1.247-7.589-7.485-12.27-12.89-4.678-5.406-7.798-13.72-14.87-15.18-7.069-1.456-19.65-0.2082-19.65-4.055 0-3.846 4.99-5.095 6.03-7.174 1.04-2.08 0.7282-3.95 4.055-6.861 3.326-2.91 6.341-3.431 7.693-4.158 1.352-0.7282 3.846-5.198 5.51-4.991 1.663 0.2082-0.9351 4.886 0.3117 5.198 1.248 0.3117 5.926 1.352 6.965 1.143 1.04-0.2082 3.535-3.743 4.575-2.807 1.04 0.9351-0.4165 3.638-0.3117 4.783 0.1048 1.143 16.84 11.12 16.84 11.12s9.461 7.069 20.38 8.214c10.92 1.143 30.88-1.352 43.67-1.352 12.79 0 25.57 6.134 27.55 6.446 1.976 0.3117 11.44-1.247 28.38 11.54 10.81 9.669 23.39 21.1 24.54 21.62 1.143 0.5199 13.1 0.5199 16.01 0.5199 2.91 0 14.35-3.431 32.85-3.12 17.96 0.3022 36.51 4.719 37.77 5.737v-154.8z" stroke-width="1.361"/><path class="st3" d="m134.8 320.4c-3.12-1.455-9.669 0.5199-11.44 1.663-1.768 1.143-2.183 4.47-3.118 6.03-0.9364 1.56-7.174 7.486-6.55 8.734 0.6234 1.247 2.598-1.04 3.431-1.04s-0.1034 1.455 0.5199 1.976c0.6234 0.5199 1.456-1.663 2.08-1.56 0.6234 0.1048 0.2082 0.9364 0.6234 1.455 0.4165 0.5199 1.352-1.558 2.08-1.352 0.7282 0.2082-0.1034 1.248 0.6234 1.871 0.7282 0.6234 1.56-2.183 2.391-2.08s0.2082 1.143 0.4165 1.767c0.2082 0.6234 1.143-1.663 1.975-1.558 0.8316 0.1034 0.5199 1.871 1.56 2.287 1.04 0.4151 2.598-1.975 2.598-1.975s3.431-2.495 3.951-1.768c0.5199 0.7282-2.6 3.12-2.183 3.743 0.4165 0.6234 2.911-2.287 3.431-1.871 0.5199 0.4165-0.2082 1.767 0.3117 2.287s3.431-3.638 4.47-3.015c1.04 0.6234-1.038 1.976-0.4151 2.807 0.6234 0.8316 1.247-1.247 1.871-1.352 0.6234-0.1034 1.768 3.846 2.703 4.678 0.9351 0.8316 0.6234-1.871 1.558-1.56 0.9364 0.3117 1.248 5.303 1.975 5.823 0.7282 0.5199 1.663-3.431 2.391-2.911 0.7268 0.5199-0.313 3.223 0.1034 4.575 0.4165 1.352 1.56-1.455 2.288-0.8316 0.7282 0.6234 0.7282 5.095 1.352 6.861 0.6234 1.768 4.158 5.095 5.095 5.406 0.9351 0.3117 1.04-4.471 1.56-4.471s2.08 9.669-2.598 16.43c-4.678 6.758-6.134 6.03-8.733 9.564-2.6 3.535-4.575 21.21-3.743 21.42 0.8316 0.2082 0.6234-2.703 1.352-3.12s0.8316 2.703 1.352 2.808c0.5199 0.1034 1.56-3.016 1.768-4.575 0.2082-1.56-0.9364-2.703-1.248-3.846-0.3117-1.143 1.455-1.455 1.871-3.326 0.4151-1.871-1.04-2.6-0.9351-4.47 0.9351-4.471 3.431-3.431 4.783-4.678 1.352-1.248 0.8316-2.183 1.767-3.535 0.9351-1.352 7.694-4.99 7.694-4.99l8.421-8.734s8.006-9.876 8.318-9.564c0.3117 0.3117-1.975 6.55-5.613 10.6-3.64 4.055-9.981 9.149-10.08 9.876-0.1034 0.7282 3.846 5.614 4.678 12.37s1.038 8.421 0.7282 10.71c-0.313 2.287-5.095 6.134-4.679 7.069 0.4165 0.9364 4.055-3.015 4.679-2.703 0.6234 0.3117-0.7282 4.47 0.6234 3.95 1.352-0.5199 3.12-4.158 3.431-5.821s-1.143-18.19-1.143-18.19-1.248-4.263-0.4165-7.383c0.8316-3.118 11.44-1.871 12.37-2.391 0.9364-0.5199-2.078-7.901-1.247-9.773 0.8316-1.871 6.341 8.941 7.486 7.901 1.143-1.04-0.1048-7.069 2.183-8.318 2.287-1.247 0.8316 2.287 2.703 3.12 1.871 0.8316 0.9364-1.56 1.663-2.495 0.7282-0.9351 4.991 2.183 6.238 1.976 1.248-0.2082 0.7282-2.183 2.495-2.495 1.768-0.3117 3.64 3.015 5.095 3.118 1.456 0.1048 1.56-4.99 2.911-5.406s7.798 3.223 9.981 4.158 3.951 0.1034 5.821 0.4165c1.871 0.3117 7.693 8.316 7.693 8.316s11.54 9.981 14.35 13.93c2.808 3.95 1.56 8.733-0.1034 11.75-1.663 3.016-6.03 8.109-6.03 9.357s3.535-2.495 3.95-1.663c0.4165 0.8316-1.248 2.808-0.8316 3.326 0.4165 0.5199 4.158-1.558 5.095-3.12 0.9364-1.56 2.287-4.47 2.183-5.718s-1.663-1.663-1.767-2.911c-0.1034-1.248 4.781-8.213 4.781-10.71 0-2.495-6.133-5.303-7.901-8.733-1.768-3.431-3.951-14.56-3.951-14.56s0.7282-12.79-0.4165-14.56c-1.143-1.767-0.7282 2.288-1.767 3.12-1.04 0.8316-1.248-3.431-2.808-3.12s-0.2082 3.743-1.455 3.638c-1.247-0.1034-8.629-9.981-10.08-10.29-1.455-0.3117-0.6234 2.703-1.871 2.807-1.248 0.1048-4.575-1.456-5.198-1.143-0.6234 0.3117 0.1034 0.9351-1.145 1.143-1.247 0.2082-2.703-2.183-3.95-2.288-1.248-0.1034-1.352 1.663-2.6 1.663-1.247 0-1.975-2.08-4.783-2.08-2.807 0-14.35 1.352-14.35 1.352s-8.733 2.287-14.14 2.495c-5.406 0.2082-19.86-9.046-19.86-9.046s-19.03-11.64-20.38-12.27c-1.352-0.6234 0.2082-4.991-1.143-5.095-1.352-0.1048-5.406 4.366-6.238 3.846-0.8316-0.5199-0.8371-2.801-2.917-3.736z" stroke-width="1.361"/><path class="st0" d="m133.3 326.2c0 0.5744-1.233 1.04-2.755 1.04-1.522 0-2.755-0.4655-2.755-1.04 0-0.5757 1.233-1.04 2.755-1.04 1.522 1e-3 2.755 0.4655 2.755 1.04z" stroke-width="1.361"/><path class="st2" d="m165.6 376.4c-1.04-0.1034-2.495 1.455-4.055 3.12-1.56 1.663-4.679 2.495-4.679 3.223s5.095-0.9351 6.446-0.4165c1.352 0.5199 4.678 3.951 5.718 2.391 1.04-1.56-2.39-8.214-3.43-8.318z" stroke-width="1.361"/><path class="st2" d="m177.1 375.2c-1.145 1.247-0.6234 5.301-0.2082 6.238 0.4165 0.9351 3.846 0.8316 4.783 0.6234 0.9364-0.2082 4.47-2.288 10.29-2.391 5.821-0.1048 7.798 2.183 8.941 2.287 1.143 0.1034 3.638-1.248 6.758-1.871 3.118-0.6234 13.1 2.08 18.51 2.391 5.406 0.3117 12.37 0.9351 13.1-0.6234 0.7282-1.56-13.52-14.45-14.76-14.66-1.247-0.2082-6.863 2.703-20.17 5.198-13.31 2.496-26.1 1.56-27.24 2.808z" stroke-width="1.361"/><path class="st3" d="m229.5 368.2c-0.2082 1.663 14.66 14.24 15.7 16.01 2.391 6.343-6.03 15.7-4.99 17.47 1.04 1.768 3.95-4.783 4.886-4.263 0.9351 0.5199-2.391 3.743-0.7282 4.678s1.663-2.391 2.6-4.471c0.9364-2.08 1.975-1.663 2.287-4.886s-1.04-9.461-1.663-10.5c-0.6234-1.04-1.56 0.2082-2.391-0.3117s-1.352-3.12-2.08-4.055c-0.7268-0.9351-0.8316 0.4151-1.975-0.1034-1.143-0.5199-1.975-5.406-3.015-6.238-1.04-0.8316-0.6234 1.56-1.663 1.247-1.041-0.3103-6.759-6.236-6.966-4.573z" stroke-width="1.361"/><path class="st4" d="m250 385c-0.5199 1.352 1.04 7.278 1.143 8.421 0.1034 1.143-3.431 4.575-1.975 5.925 1.455 1.352 4.679-0.2082 5.51-4.678 0.6247-8.005-4.158-11.02-4.678-9.668z" stroke-width="1.361"/><path class="st2" d="m252.9 352.1c-0.5199 1.558 1.455 5.406 0.7282 9.044-0.7282 3.638-1.56 6.446-0.8316 9.981 0.7268 3.535 5.821 10.6 8.005 11.33 2.183 0.7282 2.183-0.5199 7.694-0.8316 5.51-0.3117 13.72 0.4165 14.14-0.6234 0.4151-1.04-9.773-11.54-11.02-13.52-8.836-17.47-18.19-16.95-18.71-15.39z" stroke-width="1.361"/><path class="st3" d="m260.9 351.1c0 1.143 10.92 8.213 10.92 8.213s6.965 3.223 7.381 4.366c0.4165 1.143-5.821-1.871-5.926-1.143-0.1034 0.7282 1.56 3.951 2.703 4.47 1.143 0.5199 1.663 0.4165 3.12 1.04 1.455 0.6234 3.743 2.598 4.055 3.431 0.3117 0.8316-2.808 0.3117-1.663 2.08 1.143 1.768 7.486 4.886 7.486 4.886s5.613 4.47 7.381 4.575c1.768 0.1048 6.134-3.015 6.343-4.471 0.2082-1.455-6.654 1.456-7.069 0.6234-0.4165-0.8316 3.95-3.015 3.846-4.263-0.1048-1.248-7.798 0.3117-8.524-0.8316-0.7282-1.143 3.328-2.078 3.12-3.535-0.2082-1.456-4.471-5.095-7.069-5.303-2.6-0.2082 1.871 6.03-0.2082 6.654-2.08 0.6234-3.743-5.614-5.303-8.318s-5.406-3.638-6.03-5.198c-0.6234-1.558 0.3117-2.598-0.5199-3.431-0.8316-0.8316-2.183 2.495-2.807 1.871-0.6234-0.6234-2.391-6.446-5.095-6.134-0.4165 0 2.08 3.118 1.663 3.95-0.4178 0.8343-6.76-7.378-7.799-3.532z" stroke-width="1.361"/><path class="st4" d="m147.8 387c-0.8316-0.5199-3.846 1.04-7.589 0.8316-3.743-0.2082-18.92-4.366-20.17-3.64-1.248 0.7282-0.9351 1.04-2.495 1.56-1.558 0.5199-2.495-1.248-4.366-1.248-1.871 0-10.92 3.12-12.58 3.015-1.663-0.1034 3.12-3.223 2.287-3.846-0.8316-0.6234-12.06 0.5199-12.06 0.5199s-9.773 2.6-11.33 2.703c-1.56 0.1034 0.1048-1.56-0.3117-2.288-0.4165-0.7282-9.981-1.247-16.32 0.9351-6.343 2.183-9.773 5.406-10.29 5.406s-0.2082-1.768-1.352-1.976c-4.783-1.04-15.91 6.861-16.01 5.926-0.1034-0.9351 6.134-4.99 4.055-5.303-2.08-0.3117-7.589 2.6-12.48 3.328-4.886 0.7268-18.82 3.015-19.55 4.158-0.7282 1.143-0.6234 11.44 0.8316 12.37 1.456 0.9351 14.04-1.871 25.16-2.391 11.12-0.5199 23.18-0.4165 29.42-0.5199 6.238-0.1034 15.08-2.287 21-2.807s12.79 3.535 15.08 3.743c2.288 0.2082 0.9364-2.183 7.693-4.159 6.758-1.975 13 0.5199 13.93 0.5199 0.9364 0 9.773-3.12 13.2-3.431 3.431-0.3117 10.92 2.287 11.23 1.871 0.3117-0.4165 1.455-6.654 1.455-6.654s2.387-8.105 1.556-8.625z" stroke-width="1.361"/><path class="st4" d="m154.4 387c-0.5199 0.6234-1.352 3.223-1.871 6.55s1.352 8.005 2.183 9.044c0.8316 1.04 2.183-2.495 6.758-3.015 4.575-0.5199 5.095 0.9351 6.55 1.143 1.456 0.2082 3.328-3.118 3.328-5.51s-1.143-8.941-1.143-8.941-4.055-1.04-8.941-1.04-6.343 1.145-6.863 1.768z" stroke-width="1.361"/><path class="st4" d="m176.6 385.2c-0.9351 1.663 0.9364 13.83 3.223 15.91 2.288 2.08 3.638-1.56 5.095-2.08 1.456-0.5199 5.406 2.288 6.446 0.9351 1.04-1.352-3.535-1.87-3.431-2.598 0.1048-0.7282 9.876-1.768 9.876-1.768s5.303-1.975 7.589-2.08c2.288-0.1034 4.263 0.1048 6.55 0.4165 2.287 0.3117 3.326 0.8316 5.51 1.04 2.183 0.2082 5.718-1.558 7.174-1.767 1.456-0.2082 2.288 0.6234 3.846 0.7268 1.56 0.1048 13.62-2.287 14.66-3.326 1.04-1.04 0-4.991-1.143-5.823-3.846-2.183-16.01 0.8316-17.15 0.9364-1.143 0.1034-0.3117-1.248-1.352-1.871-1.04-0.6234-5.718 0.5199-6.341 0.2082-0.6234-0.3117 0.3117-1.04-0.6234-1.558-0.9351-0.5199-5.095-1.768-10.5 0.4165-5.406 2.183-8.421 6.341-9.876 6.55-1.456 0.2082 3.95-5.095 3.846-5.821-0.1034-0.7268-13.83 2.6-13.83 1.871s7.381-2.183 7.069-3.12c-0.313-0.9378-15.7 1.142-16.64 2.805z" stroke-width="1.361"/><path class="st4" d="m261.8 383.7c-0.4165 0.5199 1.04 4.471 1.871 5.406 0.8316 0.9351 9.044-1.455 9.253-0.3117 0.2082 1.145-10.4 1.56-12.27 4.991-1.871 3.431-2.703 3.743-2.183 4.99 0.5199 1.248 16.12-2.911 16.12-2.911s23.5-3.223 23.29-4.783c-0.2082-1.56-11.33 0.7282-11.85 0.7282-0.5199 0-18.61 2.807-19.13 1.56-0.5199-1.248 12.37-1.663 13-2.391 0.6234-0.7282-0.2082-0.3117 0.3117-1.143s16.43 0.8316 17.15-0.4165c0.7282-1.248-6.03-5.406-12.48-6.238-6.446-0.8303-22.66 1e-3 -23.08 0.5199z" stroke-width="1.361"/><path class="st0" d="m23.1 399.4c-0.4165-0.6234-8.214 2.288-8.006 2.808 0.2069 0.5186 8.421-2.185 8.006-2.808z" stroke-width="1.361"/><path class="st0" d="m24.56 401.4c-0.4165-0.6234-8.214 2.288-8.006 2.807 0.2082 0.5199 8.422-2.183 8.006-2.807z" stroke-width="1.361"/><path class="st0" d="m38.39 397.2c-0.4165-0.6234-8.213 2.287-8.006 2.807 0.2082 0.5199 8.421-2.183 8.006-2.807z" stroke-width="1.361"/><path class="st0" d="m41.92 399.1c-0.4165-0.6234-8.213 2.288-8.006 2.808 0.2082 0.5199 8.422-2.183 8.006-2.808z" stroke-width="1.361"/><path class="st0" d="m48.89 400.3c-0.4165-0.6234-8.213 2.288-8.006 2.807 0.2082 0.5213 8.421-2.183 8.006-2.807z" stroke-width="1.361"/><path class="st0" d="m66.77 391.4c-0.4165-0.6234-8.213 2.287-8.005 2.808 0.2069 0.5186 8.42-2.185 8.005-2.808z" stroke-width="1.361"/><path class="st0" d="m67.81 394.7c-0.4165-0.6234-8.213 2.288-8.006 2.807 0.2082 0.5213 8.421-2.182 8.006-2.807z" stroke-width="1.361"/><path class="st0" d="m75.19 395c-0.4165-0.6234-8.213 2.288-8.006 2.808 0.2082 0.5199 8.421-2.183 8.006-2.808z" stroke-width="1.361"/><path class="st0" d="m92.13 392.5c-0.4165-0.6234-8.213 2.287-8.006 2.807 0.2096 0.5199 8.422-2.182 8.006-2.807z" stroke-width="1.361"/><path class="st0" d="m102.4 393.3c-0.4165-0.6234-8.213 2.287-8.006 2.807 0.2096 0.5199 8.422-2.183 8.006-2.807z" stroke-width="1.361"/><path class="st0" d="m112.3 400.2c0.0599-0.7472-7.864-3.295-8.024-2.758-0.1565 0.5363 7.964 3.505 8.024 2.758z" stroke-width="1.361"/><path class="st0" d="m121.2 399.2c0.0599-0.7472-7.864-3.294-8.024-2.759-0.1565 0.5376 7.964 3.508 8.024 2.759z" stroke-width="1.361"/><path class="st0" d="m121.4 394.2c0.0599-0.7472-7.864-3.295-8.024-2.759-0.1579 0.5363 7.964 3.506 8.024 2.759z" stroke-width="1.361"/><path class="st0" d="m135.4 394c0.0599-0.7472-7.864-3.295-8.024-2.759-0.1579 0.5363 7.962 3.506 8.024 2.759z" stroke-width="1.361"/><path class="st0" d="m166.9 395.7c0 0.3444-1.489 0.6234-3.326 0.6234s-3.326-0.279-3.326-0.6234 1.489-0.6234 3.326-0.6234 3.326 0.279 3.326 0.6234z" stroke-width="1.361"/><path class="st0" d="m204.7 386.7c-0.4165-1.04-5.926 3.015-5.51 3.431 0.4151 0.4151 5.926-2.391 5.51-3.431z" stroke-width="1.361"/><path class="st5" d="m144.2 404c-1.56-1.04-6.55-3.535-11.54-1.558-4.99 1.975-4.886 3.431-6.03 3.431s2.495-3.12 0.9351-3.12c-1.558 0-4.055 3.223-5.614 3.431-1.558 0.2082-1.352-1.455-3.326-1.247-1.976 0.2082-3.846 3.535-5.51 3.431-1.663-0.1048 2.495-3.328 1.663-3.743-0.8316-0.4165-11.44 2.183-11.64 3.431-0.2082 1.248 6.134 0.5199 6.03 1.145-0.1034 0.6234-4.158 1.038-4.158 1.975 0 0.9351 5.51-0.4165 5.51 0.2082 0 0.6247-2.911 1.248-8.629 1.975-5.718 0.7268-13.72 0.1034-13.62-0.6234 0.1034-0.7282 7.381-1.352 7.798-2.703s-3.431-1.247-4.678-1.87c-1.247-0.6234-1.247-2.391-2.495-3.015-1.248-0.6234-12.58 0.3117-12.79 1.143-0.2082 0.8316 4.263 2.288 4.158 3.638-0.1034 1.352-3.326 1.768-12.27 3.12-8.941 1.352-8.421-2.808-9.564-3.12s-4.366 4.055-5.406 3.64c-1.04-0.4165 0.3117-3.223-1.56-4.679-1.871-1.455-7.381 1.352-11.54 2.495-4.159 1.143-10.5 0.3117-14.14 0.6234-3.638 0.3117-11.02 3.431-11.44 2.495-0.4165-0.9351 4.886-1.455 5.095-2.495s-6.446-0.6234-6.446-0.6234-5.198-0.8316-5.614-0.4165c-0.4165 0.4165 1.768 14.76 6.238 25.06 5.614 12.68 23.49 21.52 23.49 21.52s12.79 8.213 46.68 7.901c33.89-0.3117 41.3-3.133 57.49-3.846 6.668-0.294 21.92 1.499 34.04 6.884 12.11 7.178 24.89 20.64 24.89 20.64s11.01-13.46 20.88-19.29c9.872-5.831 18.49-10.19 19.01-9.675 0.5199 0.5199-5.172 4.116-4.652 4.741 0.5199 0.6234 7.875-4.636 8.29-4.221 0.4165 0.4165-0.6234 0.9351-0.3117 1.455 0.3117 0.5199 14.15 0.6928 30.16 1.42 16.01 0.7282 28.27 1.345 28.27 1.345l17.05-1.795s8.382-13.66 6.407-14.6c-1.975-0.9351-8.213 6.341-8.733 4.991-0.5199-1.352 9.876-8.941 11.12-8.941s1.04 1.456 1.455 2.183c0.4151 0.7282 2.911-1.456 3.743-0.8316 0.8316 0.6234-4.575 10.08-5.926 10.4-1.352 0.3117 3.846-8.629 3.015-8.421-0.8316 0.2082-6.91 13.6-6.599 14.33 0.3117 0.7282 6.111 1.799 13.91 0.4478 7.798-1.352 14.11-12.9 15.15-13.21 1.04-0.3117-1.759 10.04-1.237 10.97 0.5199 0.9351 21.81-5.048 30.96-19.29 2.703-4.471 8.124-20.79 8.019-22.04-0.1034-1.248-3.743 2.598-3.743 1.663 0-0.9364 4.575-4.366 6.03-7.486 1.456-3.12 1.456-28.8 0.3117-29.84-1.143-1.04-18.51-2.911-19.34-2.183s3.638 3.535 2.183 4.055c-1.455 0.5199-9.044-7.798-12.16-5.821-0.3117 0.8316 2.08 3.223 1.455 3.223-0.6234 0-4.678-3.431-9.461-4.263-11.64-1.56-28.8 2.183-28.59 2.703 0.2082 0.5199 6.03 1.456 5.303 2.598-0.7282 1.145-12.27-2.183-16.95-2.287-4.678-0.1048-5.613-0.2082-6.238 0.2082-0.6234 0.4165 1.663 6.03 0.1034 7.173-1.56 1.145-7.589 1.56-7.381 2.391 0.2082 0.8316 17.26-4.47 22.66-4.678 5.406-0.2082 19.65 2.91 19.44 3.535-0.2082 0.6234-4.678-1.663-18.09-1.248-13.41 0.4165-17.78 3.12-17.78 3.12s-15.28 3.638-15.49 4.886c-0.2082 1.248 6.55 2.287 7.693 2.287 1.145 0 4.991-3.015 5.51-2.598 0.5199 0.4165-4.471 3.535-3.431 4.055 1.04 0.5199 7.901-3.95 11.23-3.95 3.326 0 4.575 2.495 4.575 2.495s-1.04 0.6234-0.9351 1.352c0.1034 0.7282 4.366-0.1034 4.366 0.5199 0 0.6234-6.03 1.04-6.03 1.04s-2.911 2.08-3.638 1.767c-0.7282-0.3117 3.743-3.223 3.638-4.263-0.1048-1.038-0.6234-1.455-2.598-1.558-1.976-0.1034-9.981 5.095-11.33 4.263-1.352-0.8316-0.5199-1.04-1.976-1.56-1.455-0.5199-5.821-0.6234-5.614 0 0.2069 0.6234 4.263 1.975 3.64 2.495-0.6234 0.5199-2.495-1.247-4.886-1.143-2.391 0.1048-12.16 7.278-15.08 9.149-2.911 1.871-22.98 12.16-23.7 11.75-0.7268-0.4165 14.87-14.56 14.76-15.18-0.1034-0.6234-3.743-1.04-6.446-0.7282s-19.03 8.213-19.34 6.653c-0.3117-1.56 5.199-1.871 5.51-3.015 0.3117-1.143-1.143-2.598-2.183-3.846-1.04-1.247-9.669-1.143-9.669-4.263s7.069-8.838 5.926-9.564c-1.143-0.7282-12.06 2.495-12.06 2.495s-5.095 0.8316-6.446 0.8316c-1.352 0-0.4165-0.3117-0.6234-1.04-0.2082-0.7282-6.238 0.8316-6.238 0.8316s-12.89 0.2082-12.79 1.976c0.1048 1.767 5.614 1.87 6.03 2.495 0.4165 0.6234 0.9364 1.768 1.248 2.288 0.3117 0.5199 7.069-1.871 7.486-1.352 0.4165 0.5199-1.456 2.703-1.352 3.326 0.1034 0.6234 4.055-2.183 9.253-3.118 5.198-0.9364 7.173-1.248 7.278-0.4165 0.1048 0.8316-12.06 3.015-12.06 3.015s-4.678 2.6-5.303 2.6c-0.6234 0-1.455-3.12-3.015-2.703s0.7282 2.6 0.3117 3.223c-0.4165 0.6234-13.1 1.455-13.1 1.455s-8.526 0.9364-16.11 0.313c-15.6-0.8316-19.03-4.055-21.42-5.095-2.391-1.04-5.198 4.471-6.343 4.679-1.143 0.2082-1.352-1.143-2.598-1.352-1.248-0.2082-10.29 4.366-10.5 3.223-0.2082-1.143 1.247-1.352 2.08-2.287 0.833-0.9473-0.4138-3.339-1.974-4.379z" stroke-width="1.361"/><path class="st0" d="m28.61 438.2c-0.6234 1.143 0.2082 10.92 6.55 10.81 6.343-0.1048 5.821-3.015 6.861-3.015s0.7282 2.391 1.456 3.12c0.7282 0.7282 13.62-4.99 13.62-4.99s16.01-3.12 16.22-3.846c-3.431-3.015-21.94 3.431-22.56 2.6-0.6234-0.8316-0.2082 0 5.926-6.446s5.406-9.149 4.366-8.836c-1.04 0.3117-11.54 18.19-16.63 16.95-0.4151-1.04 7.381-11.02 5.823-11.12-1.56-0.1048-4.783 9.357-8.214 8.524-2.287-1.04-0.4165-2.495-1.455-3.015-2.183-0.5199-3.846 6.861-4.575 6.55-0.7268-0.3117-3.638-13.72-4.886-13-1.248 0.7282 3.535 12.06 3.223 13-1.04 2.494-5.095-8.422-5.718-7.279z" stroke-width="1.361"/><path class="st0" d="m40.05 425.1c0 0.7282 11.54-0.9351 11.54-1.871 0.0014-0.9351-11.54 1.145-11.54 1.871z" stroke-width="1.361"/><path class="st0" d="m39.32 422.3c-0.6234-0.4165-4.263 2.91-3.951 3.431 0.3117 0.5199 4.575-3.015 3.951-3.431z" stroke-width="1.361"/><path class="st0" d="m36.51 420.3c-0.6234-0.4165-4.263 2.911-3.951 3.431 0.313 0.5186 4.575-3.016 3.951-3.431z" stroke-width="1.361"/><path class="st0" d="m35.47 415.3c-0.6234-0.4165-4.263 2.911-3.951 3.431 0.313 0.5199 4.575-3.015 3.951-3.431z" stroke-width="1.361"/><path class="st0" d="m51.8 416.1c-0.6234-0.4165-4.263 2.911-3.95 3.431 0.3117 0.5199 4.575-3.015 3.95-3.431z" stroke-width="1.361"/><path class="st0" d="m52.32 418.9c-0.6234-0.4165-4.263 2.91-3.95 3.431 0.3117 0.5186 4.575-3.016 3.95-3.431z" stroke-width="1.361"/><path class="st0" d="m83.82 418.5c-0.6234-0.4165-4.263 2.911-3.951 3.431 0.3117 0.5199 4.575-3.015 3.951-3.431z" stroke-width="1.361"/><path class="st0" d="m89.54 419.1c-0.6234-0.4165-4.262 2.91-3.95 3.431 0.3103 0.5199 4.573-3.015 3.95-3.431z" stroke-width="1.361"/><path class="st0" d="m96.29 419.5c-0.6234-0.4151-4.263 2.911-3.95 3.431 0.3103 0.5186 4.573-3.016 3.95-3.431z" stroke-width="1.361"/><path class="st0" d="m76.02 429.6c-0.6234-0.4151-4.263 2.911-3.95 3.431 0.3103 0.5199 4.573-3.016 3.95-3.431z" stroke-width="1.361"/><path class="st0" d="m77.16 431.5c-0.6234-0.4165-4.263 2.911-3.951 3.431 0.313 0.5199 4.576-3.015 3.951-3.431z" stroke-width="1.361"/><path class="st0" d="m106.8 448.5c-0.8316-0.7717-5.691 5.403-5.274 6.37 0.4151 0.965 6.107-5.599 5.274-6.37z" stroke-width="1.361"/><path class="st0" d="m126 449.2c-1.748-0.8507-11.96 5.959-11.09 7.023 0.8738 1.063 12.84-6.172 11.09-7.023z" stroke-width="1.361"/><path class="st0" d="m131.1 450.8c-1.748-0.8507-11.96 5.959-11.09 7.022 0.8738 1.064 12.84-6.171 11.09-7.022z" stroke-width="1.361"/><path class="st0" d="m140.8 451.5c-1.748-0.8507-11.96 5.959-11.09 7.023 0.8752 1.063 12.84-6.171 11.09-7.023z" stroke-width="1.361"/><path class="st0" d="m164.7 444.8c-1.748-0.8507-11.96 5.959-11.09 7.022 0.8738 1.066 12.84-6.17 11.09-7.022z" stroke-width="1.361"/><path class="st0" d="m168 446.8c-1.748-0.8507-11.96 5.959-11.09 7.022 0.8724 1.064 12.84-6.171 11.09-7.022z" stroke-width="1.361"/><path class="st0" d="m175.6 447.2c-1.748-0.8507-11.96 5.959-11.09 7.023 0.8752 1.063 12.84-6.172 11.09-7.023z" stroke-width="1.361"/><path class="st0" d="m194.3 451.2c-1.748-0.8507-11.96 5.959-11.09 7.022 0.8724 1.064 12.84-6.17 11.09-7.022z" stroke-width="1.361"/><path class="st0" d="m217.1 419.8c-1.748-0.8507-11.96 5.959-11.09 7.022 0.8738 1.066 12.84-6.17 11.09-7.022z" stroke-width="1.361"/><path class="st0" d="m218.9 410.1c-1.044-0.4219-7.155 2.956-6.633 3.484 0.5227 0.5281 7.681-3.061 6.633-3.484z" stroke-width="1.361"/><path class="st0" d="m212 410.1c-1.044-0.4219-7.155 2.956-6.633 3.484 0.524 0.5281 7.681-3.061 6.633-3.484z" stroke-width="1.361"/><path class="st0" d="m204.3 410.2c-1.045-0.4219-7.155 2.956-6.633 3.484 0.5226 0.5295 7.681-3.061 6.633-3.484z" stroke-width="1.361"/><path class="st0" d="m228.5 420.1c-1.045-0.4219-7.157 2.956-6.633 3.484 0.5227 0.5281 7.681-3.062 6.633-3.484z" stroke-width="1.361"/><path class="st0" d="m255.8 411.3c-1.044-0.4219-7.155 2.956-6.633 3.484 0.524 0.5281 7.681-3.061 6.633-3.484z" stroke-width="1.361"/><path class="st0" d="m246.8 419.4c-2.134-0.4219-14.63 2.956-13.56 3.484 1.068 0.5281 15.7-3.061 13.56-3.484z" stroke-width="1.361"/><path class="st0" d="m299 411.7c-2.134-0.4219-14.63 2.956-13.56 3.484s15.7-3.062 13.56-3.484z" stroke-width="1.361"/><path class="st0" d="m335.7 393.1c-2.134-0.4219-14.63 2.956-13.56 3.484s15.7-3.061 13.56-3.484z" stroke-width="1.361"/><path class="st0" d="m337.4 395.7c-2.134-0.4219-14.63 2.956-13.56 3.484 1.068 0.5281 15.7-3.062 13.56-3.484z" stroke-width="1.361"/><path class="st0" d="m345.9 414.4c-2.134-0.4219-14.63 2.956-13.56 3.484 1.068 0.5281 15.7-3.062 13.56-3.484z" stroke-width="1.361"/><path class="st0" d="m353.6 423.4c-2.134-0.4219-14.63 2.956-13.56 3.484 1.07 0.5281 15.7-3.061 13.56-3.484z" stroke-width="1.361"/><path class="st0" d="m346.4 431.9c-1.975 0.9133-10.1 10.99-8.923 10.79 1.176-0.2001 10.91-11.7 8.923-10.79z" stroke-width="1.361"/><path class="st0" d="m349.6 433.4c-1.975 0.9133-10.1 10.99-8.923 10.79 1.175-0.2001 10.9-11.7 8.923-10.79z" stroke-width="1.361"/><path class="st0" d="m349.6 439.5c-1.975 0.9133-10.1 10.99-8.923 10.79 1.175-0.2001 10.9-11.7 8.923-10.79z" stroke-width="1.361"/><path class="st0" d="m352 441.2c-1.975 0.9133-10.1 10.99-8.923 10.79 1.175-0.2001 10.9-11.7 8.923-10.79z" stroke-width="1.361"/><path class="st0" d="m360.8 430.3c-1.436 0.6982-7.573 7.909-6.732 7.73 0.8425-0.1824 8.172-8.431 6.732-7.73z" stroke-width="1.361"/><path class="st0" d="m361.6 432c-1.436 0.6982-7.573 7.909-6.732 7.73 0.8425-0.1824 8.172-8.432 6.732-7.73z" stroke-width="1.361"/><path class="st0" d="m363.1 435.4c-1.436 0.6982-7.573 7.909-6.732 7.73 0.8412-0.1824 8.171-8.431 6.732-7.73z" stroke-width="1.361"/><path class="st0" d="m365.1 439.4c-1.436 0.6982-7.573 7.909-6.732 7.73 0.8425-0.1824 8.172-8.431 6.732-7.73z" stroke-width="1.361"/><path class="st0" d="m372.9 427.2c-1.436 0.6982-7.573 7.909-6.732 7.73 0.8412-0.1824 8.171-8.431 6.732-7.73z" stroke-width="1.361"/><path class="st0" d="m379.4 428.9c-1.436 0.6982-7.573 7.909-6.732 7.73 0.8411-0.181 8.171-8.431 6.732-7.73z" stroke-width="1.361"/><path class="st0" d="m387.1 422.8c-1.436 0.6982-7.573 7.909-6.732 7.73 0.8425-0.1824 8.172-8.432 6.732-7.73z" stroke-width="1.361"/><path class="st0" d="m388.1 413.1c-1.436 0.6982-7.573 7.909-6.732 7.73 0.8412-0.1824 8.171-8.432 6.732-7.73z" stroke-width="1.361"/><path class="st0" d="m374.1 392.1c-1.436 0.6982-7.573 7.909-6.732 7.73 0.8425-0.181 8.172-8.431 6.732-7.73z" stroke-width="1.361"/><path class="st0" d="m371.5 391c-1.436 0.6982-7.573 7.909-6.732 7.73 0.8412-0.1824 8.171-8.431 6.732-7.73z" stroke-width="1.361"/><path class="st0" d="m363.8 416.7c-1.301-0.901-10.84-0.6547-10.29 0.0966 0.5458 0.75 11.6 0.8071 10.29-0.0966z" stroke-width="1.361"/><path class="st0" d="m370.3 402.2c-1.301-0.9024-10.84-0.6547-10.29 0.0953 0.5458 0.75 11.6 0.8071 10.29-0.0953z" stroke-width="1.361"/><path class="st0" d="m373 406.2c-1.301-0.901-10.84-0.6547-10.29 0.0966 0.5458 0.75 11.6 0.8071 10.29-0.0966z" stroke-width="1.361"/><path class="st0" d="m376.6 409.8c-1.301-0.901-10.84-0.6547-10.29 0.0966 0.5444 0.75 11.6 0.8058 10.29-0.0966z" stroke-width="1.361"/><path class="st0" d="m378.5 412.4c-1.301-0.901-10.84-0.6547-10.29 0.0966 0.5458 0.75 11.6 0.8071 10.29-0.0966z" stroke-width="1.361"/><path class="st0" d="m383.9 399.4c-1.301-0.901-10.84-0.6547-10.29 0.0953 0.5458 0.7513 11.6 0.8085 10.29-0.0953z" stroke-width="1.361"/><path class="st0" d="m389.8 394.4c-1.301-0.901-10.84-0.6547-10.29 0.0966 0.5458 0.75 11.6 0.8071 10.29-0.0966z" stroke-width="1.361"/><path class="st0" d="m364.1 392.6c-1.301-0.901-10.84-0.6547-10.29 0.0953 0.5458 0.7513 11.6 0.8085 10.29-0.0953z" stroke-width="1.361"/><path class="st0" d="m357 397.5c-0.833-1.345-9.68-4.93-9.477-4.022 0.2014 0.9065 10.31 5.372 9.477 4.022z" stroke-width="1.361"/><path class="st0" d="m338.5 398.5c-1.319-0.181-9.038 1.277-8.377 1.504 0.6601 0.2287 9.7-1.323 8.377-1.504z" stroke-width="1.361"/><path class="st0" d="m338.9 405.7c-1.319-0.1824-9.039 1.277-8.377 1.504 0.6588 0.2287 9.699-1.323 8.377-1.504z" stroke-width="1.361"/><path class="st0" d="m340 408.3c-1.319-0.181-9.038 1.277-8.377 1.504 0.6601 0.23 9.7-1.322 8.377-1.504z" stroke-width="1.361"/><path class="st0" d="m341.1 410.5c-1.319-0.1824-9.038 1.277-8.377 1.504 0.6588 0.23 9.699-1.322 8.377-1.504z" stroke-width="1.361"/><path class="st0" d="m317.1 407.6c-1.319-0.1824-9.038 1.277-8.377 1.504 0.6601 0.2287 9.7-1.323 8.377-1.504z" stroke-width="1.361"/><path class="st0" d="m320.3 410.1c-1.319-0.181-9.039 1.277-8.377 1.505 0.6601 0.2273 9.699-1.324 8.377-1.505z" stroke-width="1.361"/><path class="st0" d="m275.5 415.4c-2.13 0.4478-12.31 8.437-11.12 8.505 1.191 0.0694 13.26-8.953 11.12-8.505z" stroke-width="1.361"/><path class="st0" d="m197.8 453.2c-1.748-0.8507-11.96 5.959-11.09 7.023 0.8724 1.064 12.84-6.171 11.09-7.023z" stroke-width="1.361"/><path class="st0" d="m202.2 453.9c-1.748-0.852-11.96 5.959-11.09 7.023 0.8752 1.063 12.84-6.171 11.09-7.023z" stroke-width="1.361"/><path class="st0" d="m206.1 455.3c-1.748-0.8507-11.96 5.959-11.09 7.022 0.8752 1.066 12.84-6.17 11.09-7.022z" stroke-width="1.361"/><path class="st0" d="m78.72 432.7c-0.6234-0.4151-4.263 2.911-3.951 3.431 0.313 0.5199 4.575-3.015 3.951-3.431z" stroke-width="1.361"/><path class="st0" d="m57.31 429c-0.6234-0.4165-4.263 2.911-3.951 3.431 0.3117 0.5199 4.575-3.016 3.951-3.431z" stroke-width="1.361"/><path class="st0" d="m47.74 432.1c-0.6234-0.4165-4.263 2.91-3.95 3.431 0.3117 0.5199 4.575-3.015 3.95-3.431z" stroke-width="1.361"/><path class="st0" d="m42.13 430.3c-0.6234-0.4165-4.263 2.911-3.951 3.431 0.3117 0.5186 4.575-3.016 3.951-3.431z" stroke-width="1.361"/><path class="st0" d="m30.33 413.2c-2.216-0.5145-15.14 3.6-14.04 4.242 1.108 0.6438 16.25-3.727 14.04-4.242z" stroke-width="1.361"/><path class="st0" d="m76.38 420.1c-2.216-0.5145-15.14 3.6-14.04 4.241 1.108 0.6438 16.25-3.727 14.04-4.241z" stroke-width="1.361"/><path class="st0" d="m70.14 443.4c-2.216-0.5145-15.14 3.6-14.04 4.242 1.108 0.6424 16.25-3.728 14.04-4.242z" stroke-width="1.361"/><path class="st0" d="m64.74 452.6c-2.216-0.5145-15.14 3.6-14.04 4.241 1.108 0.6438 16.25-3.727 14.04-4.241z" stroke-width="1.361"/><path class="st0" d="m80.85 449.7c-2.216-0.5145-15.14 3.6-14.04 4.241 1.108 0.6438 16.25-3.725 14.04-4.241z" stroke-width="1.361"/><path class="st0" d="m74.61 453.5c-1.218-0.3797-8.327 2.654-7.72 3.126 0.6111 0.4737 8.938-2.747 7.72-3.126z" stroke-width="1.361"/><path class="st0" d="m50.18 451.3c-1.218-0.3797-8.327 2.655-7.72 3.128 0.6111 0.4723 8.938-2.748 7.72-3.128z" stroke-width="1.361"/><path class="st0" d="m49.87 453.7c-1.218-0.3811-8.327 2.654-7.72 3.126 0.6125 0.4723 8.94-2.747 7.72-3.126z" stroke-width="1.361"/><path class="st0" d="m88.81 444.4c-0.9351 0.5199-2.495 9.669-3.328 10.29-0.8316 0.6234-1.247-1.768-3.223-1.663-1.975 0.1034-8.524 4.366-12.48 4.99-3.95 0.6234-9.773-0.9351-9.981-0.2082-0.2082 0.7282 6.134 1.767 6.134 2.183s-4.366 0.3117-4.158 1.248c0.5199 1.56 9.253-2.08 9.253-2.08s8.006-4.263 10.5-4.263 3.95 2.08 4.055 3.016c0.1034 0.9351-1.456 1.247-1.352 1.871 0.1034 0.6234 1.871-0.3117 4.055 0.1034 2.183 0.4165 2.91 2.08 4.263 2.495 1.352 0.4165 10.92-2.495 11.02-3.535 0.1048-1.04-8.524 1.975-8.733 0.8316-0.2082-1.145 4.055-1.456 4.055-2.183 0-0.7282-10.29 2.078-10.92 0.3117-0.6234-1.768 4.886-7.486 4.366-8.733-0.5199-1.248-3.015 3.535-3.431 2.911-0.4165-0.6234 1.455-2.703 1.247-3.326-0.2082-0.6234-1.975 2.703-2.391 3.015-0.4151 0.3103 1.976-7.799 1.04-7.279z" stroke-width="1.361"/><path class="st0" d="m82.57 440.2c0.3117 1.04 13.52-0.5199 15.08 0.7282 1.56 1.248 0.6234 2.391 1.56 3.535 0.9351 1.143 7.693-4.783 9.773-4.575s-1.56 3.328-1.04 4.055c0.5199 0.7268 9.564-5.303 10.08-4.158 0.5199 1.143-6.238 9.356-5.095 9.773s7.486-10.29 6.341-11.33c-1.143-1.04-5.614 2.807-6.758 2.183-1.143-0.6234-0.1048-2.391-1.455-2.598-1.352-0.2082-9.669 5.614-10.29 4.263-0.6234-1.352 0.3117-1.352-1.04-2.808-1.35-1.456-17.47-0.1034-17.15 0.9351z" stroke-width="1.361"/><path class="st0" d="m142 417.4c0.358 1.04 15.46-0.5199 17.24 0.7282 1.783 1.247 0.7132 2.391 1.783 3.535 1.071 1.143 8.801-4.781 11.18-4.575 2.379 0.2082-1.783 3.326-1.19 4.055 0.5948 0.7282 10.94-5.301 11.54-4.158 0.5948 1.143-7.135 9.357-5.827 9.773 1.308 0.4165 8.563-10.29 7.255-11.33-1.309-1.04-6.423 2.807-7.731 2.183-1.308-0.6234-0.1184-2.391-1.665-2.6-1.546-0.2082-11.06 5.614-11.77 4.263-0.7132-1.352 0.358-1.352-1.188-2.807-1.546-1.456-19.98-0.1048-19.62 0.9351z" stroke-width="1.361"/><path class="st0" d="m162.6 430.1c0.358 1.04 15.46-0.5199 17.24 0.7282 1.783 1.248 0.7132 2.391 1.783 3.535 1.07 1.143 8.802-4.783 11.18-4.575s-1.783 3.326-1.19 4.055c0.5948 0.7268 10.94-5.303 11.54-4.159 0.5948 1.145-7.135 9.357-5.827 9.773 1.308 0.4165 8.563-10.29 7.255-11.33-1.309-1.04-6.423 2.807-7.731 2.183-1.308-0.6234-0.1184-2.391-1.665-2.598-1.546-0.2082-11.06 5.614-11.77 4.263-0.7132-1.352 0.358-1.352-1.19-2.807-1.546-1.456-19.98-0.1048-19.62 0.9351z" stroke-width="1.361"/><path class="st0" d="m114 416.3c0.1497 1.04 6.461-0.5199 7.206 0.7282 0.7459 1.248 0.2981 2.391 0.7459 3.535 0.4478 1.143 3.676-4.783 4.671-4.575 0.9936 0.2082-0.7459 3.326-0.4968 4.055 0.2491 0.7282 4.571-5.303 4.82-4.158 0.2491 1.143-2.981 9.356-2.435 9.773 0.5472 0.4165 3.578-10.29 3.031-11.33-0.5458-1.038-2.683 2.808-3.23 2.183-0.5458-0.6234-0.049-2.391-0.6955-2.6-0.6465-0.2082-4.622 5.614-4.919 4.263-0.2994-1.352 0.1497-1.352-0.4968-2.808-0.6465-1.455-8.349-0.1034-8.201 0.9364z" stroke-width="1.361"/><path class="st0" d="m112.5 433.5c-0.1919-1.033-6.434 0.7785-7.23-0.4383-0.7935-1.217-0.3906-2.376-0.8874-3.501-0.4927-1.126-3.482 4.926-4.482 4.757-1.002-0.1674 0.6111-3.354 0.3321-4.071-0.2777-0.7159-4.353 5.481-4.647 4.35-0.2954-1.134 2.602-9.47 2.04-9.864-0.5635-0.3934-3.163 10.43-2.575 11.45 0.588 1.017 2.57-2.914 3.14-2.314 0.5703 0.603 0.1443 2.387 0.799 2.57 0.6533 0.1824 4.394-5.795 4.743-4.458 0.3525 1.339-0.0966 1.358 0.6098 2.786 0.7064 1.429 8.346-0.2314 8.157-1.263z" stroke-width="1.361"/><path class="st0" d="m162.5 439.4c-0.1919-1.033-6.434 0.7785-7.23-0.4396-0.7949-1.217-0.3906-2.376-0.8874-3.501-0.4927-1.126-3.482 4.926-4.482 4.757-1.002-0.1674 0.6098-3.354 0.3335-4.071-0.2777-0.7159-4.354 5.481-4.648 4.35-0.2954-1.134 2.602-9.47 2.04-9.862-0.5635-0.3934-3.163 10.43-2.574 11.45 0.588 1.017 2.57-2.914 3.14-2.312 0.5703 0.603 0.1443 2.387 0.799 2.57 0.6533 0.181 4.392-5.797 4.743-4.458 0.3525 1.338-0.0953 1.358 0.6098 2.786 0.705 1.428 8.345-0.2327 8.156-1.264z" stroke-width="1.361"/><path class="st0" d="m176.8 440.5c0.2178 1.03 6.415-0.9323 7.241 0.2627 0.8234 1.198 0.4478 2.367 0.9704 3.48 0.5199 1.112 3.362-5.01 4.365-4.866 1.004 0.1456-0.5295 3.367-0.2341 4.078 0.294 0.7105 4.218-5.585 4.541-4.459 0.3226 1.124-2.372 9.529-1.799 9.909 0.5716 0.3797 2.907-10.5 2.295-11.5-0.6125-1.002-2.499 2.974-3.083 2.387-0.5839-0.588-0.2014-2.385-0.8616-2.551-0.6574-0.1647-4.251 5.9-4.634 4.572-0.3825-1.33 0.064-1.358-0.6751-2.77-0.7404-1.411-8.337 0.4342-8.124 1.46z" stroke-width="1.361"/><path class="st0" d="m232.4 454.4c-0.5485 0.901-7.106-3.337-8.403-2.506-1.296 0.8316-1.205 2.095-2.13 2.963-0.9228 0.8656-2.409-6.079-3.604-6.325-1.199-0.245-0.3702 3.426-0.9174 3.995-0.5458 0.5689-3.227-6.956-3.924-6.002-0.701 0.9555-0.0463 10.03-0.8139 10.18-0.769 0.1456-0.2872-11.17 0.7078-11.89 0.9963-0.7255 2.008 3.802 2.85 3.461 0.8412-0.3416 0.9242-2.206 1.731-2.115 0.8058 0.0926 3.174 7.271 4.002 6.144 0.8289-1.127 0.3212-1.326 1.582-2.394 1.263-1.07 9.465 3.595 8.921 4.496z" stroke-width="1.361"/><path class="st0" d="m303.2 453.8c-0.5485 0.9024-7.106-3.337-8.403-2.506s-1.205 2.095-2.13 2.963c-0.9228 0.8656-2.409-6.079-3.604-6.325-1.199-0.245-0.3702 3.426-0.9174 3.995-0.5458 0.5676-3.227-6.956-3.924-6.002-0.701 0.9555-0.0449 10.03-0.8139 10.18-0.769 0.1456-0.2872-11.17 0.7078-11.89 0.9963-0.7268 2.008 3.802 2.85 3.461 0.8425-0.3416 0.9242-2.206 1.731-2.115 0.8058 0.0926 3.174 7.271 4.002 6.144 0.8289-1.127 0.3212-1.326 1.582-2.394 1.263-1.07 9.465 3.593 8.921 4.494z" stroke-width="1.361"/><path class="st0" d="m332.9 432.7c-0.9187 0.5186-4.566-6.389-6.104-6.295-1.537 0.0912-2.076 1.237-3.306 1.541-1.228 0.3035 0.8711-6.479-0.0517-7.279-0.9242-0.8003-1.998 2.808-2.753 3.037-0.754 0.2287 0.5866-7.647-0.4873-7.155-1.078 0.49-4.946 8.729-5.689 8.48-0.7404-0.2491 5.212-9.88 6.435-10.03 1.222-0.1456-0.1075 4.297 0.7935 4.411 0.8997 0.1143 1.884-1.471 2.544-0.9977 0.6574 0.475-0.7867 7.894 0.4859 7.317 1.274-0.5785 0.9296-0.999 2.552-1.316 1.624-0.3144 6.498 7.762 5.582 8.284z" stroke-width="1.361"/><path class="st0" d="m322.4 444.2c-0.8929 0.5499-3.407-4.973-4.811-4.716-1.402 0.2545-2.023 1.301-3.171 1.704s1.53-5.674 0.7867-6.256c-0.7459-0.5839-2.131 2.645-2.843 2.928-0.7078 0.2831 1.406-6.646 0.3784-6.1-1.033 0.5458-5.482 8.075-6.126 7.947-0.6438-0.1293 5.853-9.099 6.978-9.366 1.124-0.2654-0.5894 3.71 0.215 3.708 0.803-4e-3 1.876-1.482 2.419-1.15 0.5431 0.3348-1.616 6.883-0.3974 6.238 1.22-0.6424 0.9568-0.965 2.462-1.422 1.509-0.4587 4.999 5.932 4.11 6.486z" stroke-width="1.361"/><path class="st0" d="m267.8 451.1c-1.285 1.35-14.31-9.696-17.14-8.857-2.831 0.8398-2.836 3.174-4.899 4.267-2.058 1.096-4.086-12.24-6.541-13.3-2.462-1.062-1.301 6.012-2.533 6.759-1.225 0.7472-5.657-14.25-7.257-12.88-1.609 1.368-1.646 18.13-3.272 18.01-1.625-0.1334 1.127-20.36 3.317-21.17 2.189-0.8017 3.6 7.913 5.413 7.731 1.809-0.1838 2.269-3.517 3.938-2.936 1.667 0.5812 5.497 14.79 7.396 13.18 1.903-1.614 0.8752-2.235 3.671-3.524 2.797-1.288 19.18 11.37 17.91 12.72z" stroke-width="1.361"/><path class="st0" d="m110.5 462.2c0 0.3158-1.769 0.5717-3.951 0.5717s-3.95-0.2559-3.95-0.5717c0-0.3144 1.769-0.5716 3.95-0.5716 2.182 0 3.951 0.2572 3.951 0.5716z" stroke-width="1.361"/><path class="st0" d="m130.2 430.9c0 0.3144-2.164 0.5716-4.835 0.5716-2.67 0-4.835-0.2572-4.835-0.5716 0-0.3158 2.164-0.5717 4.835-0.5717 2.67 0 4.835 0.2559 4.835 0.5717z" stroke-width="1.361"/><path class="st0" d="m275.9 430.2c-9.357-0.7282-22.98-0.5199-22.98 0.9351 0 1.455 15.91 2.703 21.31 4.678s13.31 7.798 14.35 6.863c1.04-0.9351-4.886-2.703-4.783-3.743 0.1034-1.04 17.99 1.975 17.78 1.038-0.2082-0.9351-30.25-5.51-30.67-6.653-0.6234-4.158 21.73 3.12 21.52 2.287-0.2069-0.8303-7.172-4.677-16.53-5.405z" stroke-width="1.361"/><path class="st0" d="m296.1 419.2c-9.356-0.7268-22.98-0.5199-22.98 0.9364 0 1.455 15.91 2.703 21.31 4.678 5.406 1.975 13.31 7.798 14.35 6.861 1.04-0.9364-4.886-2.703-4.783-3.743 0.1048-1.04 17.99 1.975 17.78 1.04-0.2082-0.9351-30.25-5.51-30.67-6.654-0.6234-4.158 21.73 3.118 21.52 2.287-0.2096-0.8289-7.176-4.677-16.53-5.405z" stroke-width="1.361"/><path class="st5" d="m272.9 399.9c0 0.2872-1.117 0.5199-2.495 0.5199-1.377 0-2.495-0.2328-2.495-0.5199 0-0.2872 1.117-0.5199 2.495-0.5199 1.377 1e-3 2.495 0.2328 2.495 0.5199z" stroke-width="1.361"/><path class="st5" d="m280 398.6c0 0.3444-1.21 0.6234-2.703 0.6234-1.492 0-2.703-0.279-2.703-0.6234 0-0.3444 1.211-0.6234 2.703-0.6234 1.493-1e-3 2.703 0.2777 2.703 0.6234z" stroke-width="1.361"/><path class="st5" d="m287.8 397.6c0 0.4301-1.35 0.7799-3.015 0.7799s-3.015-0.3498-3.015-0.7799 1.35-0.7799 3.015-0.7799 3.015 0.3484 3.015 0.7799z" stroke-width="1.361"/><path class="st5" d="m285.2 403.8c-0.6234-1.455-13.62 0.4165-13.72 1.768-0.1034 1.352 1.975 1.352 2.08 2.183 0.1034 0.8316-4.159 2.287-3.743 3.638 0.4165 1.352 16.01-6.134 15.39-7.589z" stroke-width="1.361"/><path class="st4" d="m203.6 395.4c-0.7282-1.248-9.253 2.808-8.838 3.95 0.4165 1.143 3.743 1.352 4.886 0.9364 1.145-0.4165 4.679-3.64 3.951-4.886z" stroke-width="1.361"/><path class="st5" d="m202.8 401.2c-0.6234 1.663 6.965 4.783 7.381 3.326 0.4165-1.455-6.758-4.99-7.381-3.326z" stroke-width="1.361"/><path class="st0" d="m202 28.85c-4.362 0-6.544 7.098-6.544 12.43 0 5.325 4.143 11.54 4.143 12.87 0 1.332-20.06 40.6-20.06 40.6l-48.41-50.14s-1.089-8.432-2.617-11.31c-1.526-2.887-14.39-6.658-14.61-5.326-0.2191 1.328 2.617 10.87 4.361 13.31 1.745 2.439 9.812 5.991 10.25 7.099 0.4356 1.109-1.745 9.984 1.527 28.4 3.269 18.42 9.812 34.39 9.375 35.5-0.4355 1.107-34.89-36.84-36.85-39.27-1.964-2.44-3.927-14.87-3.927-14.87s-10.9-6.656-11.99-5.104c-1.09 1.553 0.8725 11.98 1.526 13.98 0.6547 1.998 10.25 6.88 10.69 8.211 0.4369 1.328 2.18 28.18 7.851 47.7s14.61 30.84 14.18 31.95c-0.4369 1.111-44.49-49.7-46.45-53.25-1.961-3.55-3.272-12.42-4.143-13.53-0.8725-1.109-16.79-11.98-17.66-11.32-0.8725 0.6669 4.796 18.64 4.796 18.64s12.21 7.102 12.65 8.431c0.4369 1.332 2.617 31.51 12.43 59.47 9.813 27.96 33.8 57.69 33.37 58.36-0.4356 0.6669-19.84 0.2232-19.84 0.2232s-33.58-50.81-32.93-52.14c0.6547-1.332 5.888 2.443 8.286-1.109 2.398-3.55 2.398-9.097 0.4369-11.76-6.324-9.319-12.87-1.554-16.14-3.106-3.269-1.554-5.887-5.993-5.887-5.993s-1.745-7.765-2.4-9.984c-0.6547-2.217-4.361-3.106-7.415-5.325-3.053-2.219-6.541-7.544-7.415-6.434-0.8697 1.107 0.4369 15.53 0.8738 16.64s12.87 12.43 12.43 14.87c-0.4383 2.438-16.36-6.213-17.01-4.882-0.6547 1.332 0.2178 9.763 7.415 21.3 7.196 11.54 15.7 15.09 16.57 14.2 0.8725-0.8888-2.18-19.3-0.4342-20.41 1.744-1.109 35.55 56.58 36.2 57.47 0.6533 0.8888 216.3 1.778 216.3 1.778s41.21-55.47 42.09-55.69c0.8725-0.2246-5.885 8.652-1.527 11.98 4.362 3.331 10.47 0.2232 12.65-3.993 5.885-9.984-2.62-15.75-2.838-17.75-0.2178-1.998 5.451-4.215 5.891-5.103 0.4355-0.8888 4.577-14.87 3.924-15.76-0.6547-0.8861-12.43 5.768-13.3 6.435-0.8697 0.6656-1.742 7.323-2.835 7.765-1.092 0.4451 0.8725-18.19 0.6547-19.08-0.2191-0.8847-9.596 0.8874-19.19 12.21-11.56 13.98-10.25 26.84-8.941 28.18 1.309 1.328 18.1-12.65 18.1-10.43 0 2.22-44.49 57.69-44.49 57.69s-8.504 1.33-8.504-0.2219c0-1.554 19.63-27.07 30.09-55.69 10.47-28.62 17.88-61.24 17.88-61.24s7.851-2.885 8.941-3.993c1.089-1.112 8.288-16.87 8.068-18.42-0.2164-1.554-14.61 5.327-15.7 6.432-1.089 1.109-3.921 10.87-3.921 10.87s-45.58 52.59-45.8 51.7c-0.2164-0.8874 10.69-21.52 17.45-40.6 6.758-19.08 10.69-31.51 10.69-31.51s5.45-2.439 6.978-4.217c1.527-1.772 7.195-16.86 7.195-18.19 0-1.332-17.44 9.319-17.88 10.21-0.4355 0.8874-2.4 10.43-2.4 10.43l-44.71 39.72s12.87-25.07 17.23-36.83c4.362-11.76 7.849-24.85 7.849-24.85s6.106-3.548 6.98-4.215c0.8725-0.6669 5.885-17.75 5.669-18.64-0.2205-0.8861-13.52 7.102-13.96 7.769-0.4356 0.6656-2.4 8.431-3.054 10.43-0.6547 1.998-54.3 47.04-55.39 47.26-1.092 0.2205-22.03-41.27-21.81-44.6 0.2164-3.328 3.052-10.43 2.832-14.42-0.2205-3.995-3.493-11.76-7.852-11.76z" stroke-width="1.361"/><path class="st2" d="m206.4 42.38c0 5.329-1.61 9.653-3.596 9.653-1.989 0-3.599-4.324-3.599-9.653 0-5.331 1.61-9.653 3.599-9.653 1.986 0 3.596 4.321 3.596 9.653z" stroke-width="1.361"/><path class="st2" d="m117.1 30.62c-0.2178 0.8901 2.835 9.543 2.835 9.543s8.941 5.326 9.159 4.659c0.2178-0.6656-3.272-9.984-3.272-9.984s-8.504-5.105-8.722-4.218z" stroke-width="1.361"/><path class="st2" d="m88.77 56.06c-0.294 0.867 1.989 9.764 1.989 9.764s8.439 6.111 8.714 5.472c0.2763-0.6452-2.382-10.24-2.382-10.24s-8.024-5.854-8.32-4.992z" stroke-width="1.361"/><path class="st2" d="m57.58 82.47c-0.3212 0.8915 2.277 10.1 2.277 10.1s9.425 6.381 9.726 5.715c0.3022-0.6601-2.719-10.6-2.719-10.6s-8.961-6.107-9.284-5.217z" stroke-width="1.361"/><path class="st2" d="m36.22 133.1c-0.6329 0.7935 0.7241 11.28 0.7241 11.28s11.12 10.14 11.67 9.578c0.5553-0.5703-1.2-11.96-1.2-11.96s-10.56-9.69-11.2-8.895z" stroke-width="1.361"/><path class="st2" d="m62.39 155.1c-10.25 0.8874-11.12 3.77-16.57 4.436-5.452 0.6669-12.65-3.993-13.96-2.661-1.309 1.332 1.526 8.654 5.233 14.87 3.709 6.209 12.65 13.76 13.09 12.87 0.4342-0.8874-3.709-13.98 1.963-19.53 5.669-5.548 10.9-4.438 12.65-2.881 1.745 1.549-1.09 2.439-0.4369 4.436 0.6547 1.995 4.362 2.884 5.889 0.8888 1.527-1.997 2.4-13.32-7.851-12.43z" stroke-width="1.361"/><path class="st0" d="m32.95 158.4c-0.2178 0.8833 8.07 3.772 8.07 2.881 0-0.8861-7.851-3.769-8.07-2.881z" stroke-width="1.361"/><path class="st0" d="m34.48 161.8c-0.2164 0.8874 8.07 3.772 8.07 2.884-0.0014-0.8888-7.852-3.772-8.07-2.884z" stroke-width="1.361"/><path class="st0" d="m36 164.9c-0.2178 0.8874 8.068 3.77 8.068 2.884 0.0014-0.8874-7.849-3.774-8.068-2.884z" stroke-width="1.361"/><path class="st0" d="m38.4 168.2c-0.2178 0.8874 8.068 3.776 8.068 2.884 0-0.8861-7.849-3.77-8.068-2.884z" stroke-width="1.361"/><path class="st0" d="m39.93 171.1c-0.2178 0.8901 8.07 3.772 8.07 2.884 0-0.8874-7.851-3.77-8.07-2.884z" stroke-width="1.361"/><polygon class="st2" transform="matrix(1.361 0 0 1.361 -216.4 -288.5)" points="201 333.6 199.6 334.6 225.7 375.8 227.4 375.3"/><path class="st6" d="m132 49.48c-0.4369 0.8888 0.2178 26.4 4.361 42.82 4.143 16.42 7.415 24.63 8.067 26.4 0.656 1.776 13.3 15.09 14.61 15.53 1.308 0.4437 17.44-33.73 17.66-34.84 0.2178-1.108-44.27-50.81-44.7-49.92z" stroke-width="1.361"/><path class="st0" d="m139.2 60.13c-0.8724-0.4451-1.09 3.993-0.4356 4.659 0.6533 0.6656 1.308-4.217 0.4356-4.659z" stroke-width="1.361"/><path class="st0" d="m142 63.68c-0.8724-0.4437-1.09 3.992-0.4342 4.659 0.652 0.6656 1.307-4.215 0.4342-4.659z" stroke-width="1.361"/><path class="st0" d="m144.6 66.34c-0.8711-0.4396-1.089 3.997-0.4369 4.66 0.6547 0.6669 1.309-4.217 0.4369-4.66z" stroke-width="1.361"/><path class="st0" d="m147 69.23c-0.8725-0.4451-1.09 3.993-0.4369 4.659 0.6547 0.6656 1.309-4.214 0.4369-4.659z" stroke-width="1.361"/><path class="st0" d="m149.6 72.78c-0.8738-0.4437-1.092 3.995-0.4369 4.66s1.309-4.217 0.4369-4.66z" stroke-width="1.361"/><path class="st0" d="m152.5 76.33c-0.8738-0.4451-1.093 3.993-0.4369 4.659 0.6533 0.6656 1.307-4.214 0.4369-4.659z" stroke-width="1.361"/><path class="st0" d="m154.9 78.99c-0.8724-0.4437-1.092 3.993-0.4355 4.659 0.6547 0.6656 1.307-4.214 0.4355-4.659z" stroke-width="1.361"/><path class="st0" d="m157.7 83.43c-0.8711-0.4451-1.089 3.993-0.4356 4.659 0.6533 0.6669 1.308-4.215 0.4356-4.659z" stroke-width="1.361"/><path class="st0" d="m160.5 86.76c-0.8725-0.4437-1.09 3.993-0.4356 4.659 0.6533 0.6656 1.308-4.214 0.4356-4.659z" stroke-width="1.361"/><path class="st0" d="m163.8 90.31c-0.8738-0.4437-1.09 3.995-0.4369 4.66 0.6547 0.6656 1.308-4.217 0.4369-4.66z" stroke-width="1.361"/><path class="st0" d="m137.8 73.22c-1.308 0.4451-0.4369 13.76 0.4356 13.76 0.8724 0 0.8724-14.2-0.4356-13.76z" stroke-width="1.361"/><path class="st0" d="m143.1 76.1c-1.311 0.4437-0.4369 13.76 0.4356 13.76 0.8711 0 0.8711-14.2-0.4356-13.76z" stroke-width="1.361"/><path class="st0" d="m146.6 80.54c-1.308 0.4437-0.4356 13.76 0.4369 13.76 0.8724 0 0.8724-14.2-0.4369-13.76z" stroke-width="1.361"/><path class="st0" d="m149.6 90.08c-1.308 0.4451-0.4369 13.76 0.4355 13.76 0.8725 0 0.8725-14.2-0.4355-13.76z" stroke-width="1.361"/><path class="st0" d="m164.9 100.7c-1.307 0.4424-0.4369 13.76 0.4356 13.76 0.8738 0 0.8738-14.2-0.4356-13.76z" stroke-width="1.361"/><path class="st0" d="m152.9 95.86c-1.309 0.8221-0.4356 25.51 0.4342 25.51 0.8738-1e-3 0.8738-26.33-0.4342-25.51z" stroke-width="1.361"/><path class="st0" d="m156.8 98.08c-1.309 0.8235-0.4369 25.51 0.4356 25.51 0.8738 0 0.8738-26.33-0.4356-25.51z" stroke-width="1.361"/><path class="st0" d="m160.7 96.31c-1.308 0.8221-0.4369 25.51 0.4356 25.51 0.8738 0 0.8738-26.33-0.4356-25.51z" stroke-width="1.361"/><path class="st6" d="m102.5 76.1s1.963 33.51 10.47 57.91c8.505 24.41 25.08 41.05 25.95 40.83 0.8724-0.2205 18.97-37.94 18.97-37.94z" stroke-width="1.361"/><path class="st6" d="m73.08 106.7c-0.4355 1.107 2.398 35.94 20.28 71.89 17.88 35.94 27.7 42.82 28.78 42.6 1.092-0.2232-5.016-11.76-3.052-25.3 1.964-13.54 15.92-13.31 15.92-13.31l2.835-5.104s-64.33-71.89-64.77-70.78z" stroke-width="1.361"/><path class="st2" d="m200.9 57.02c-0.6547 0.8888-63.02 125.4-63.02 125.4l11.34 0.6669s47.76-101 50.59-101.2c2.836-0.2232 53.86 99.85 53.86 99.85l11.34-0.6656c1e-3 -1e-3 -63.46-124.9-64.11-124z" stroke-width="1.361"/><path class="st2" d="m199.6 86.76c-1.744 0.8888-46.88 96.07-46.88 96.07l7.414 0.6669s38.38-82.09 39.91-82.09c1.527 0 43.83 80.98 44.7 81.43 0.8738 0.4437 6.329 0 6.981-0.8847 0.6547-0.8874-50.38-96.08-52.12-95.19z" stroke-width="1.361"/><path class="st0" d="m161 177c0 0.3049-0.7813 0.5499-1.745 0.5499-0.9636 0-1.744-0.245-1.744-0.5499 0-0.3103 0.7799-0.5553 1.744-0.5553 0.9636 0 1.745 0.245 1.745 0.5553z" stroke-width="1.361"/><path class="st0" d="m161.8 173.2c0 0.3076-0.7813 0.5526-1.745 0.5526-0.9636 0-1.745-0.245-1.745-0.5526 0-0.3076 0.7813-0.5526 1.745-0.5526 0.9636 0 1.745 0.245 1.745 0.5526z" stroke-width="1.361"/><path class="st0" d="m166.4 167c0 0.3049-0.7813 0.5553-1.746 0.5553-0.9636 0-1.745-0.2504-1.745-0.5553 0-0.309 0.7813-0.5553 1.745-0.5553 0.965-1e-3 1.746 0.2464 1.746 0.5553z" stroke-width="1.361"/><path class="st0" d="m167.8 160.6c0.1838 0.245-0.2858 0.9269-1.048 1.527-0.7636 0.5962-1.531 0.8861-1.714 0.6452-0.1838-0.245 0.2858-0.9269 1.048-1.527 0.7622-0.5975 1.53-0.8874 1.714-0.6452z" stroke-width="1.361"/><path class="st0" d="m174.2 149.6c0.1837 0.2436-0.2858 0.9269-1.048 1.526-0.7636 0.5989-1.531 0.8861-1.715 0.6438-0.1851-0.2423 0.2858-0.9228 1.048-1.523 0.7636-0.6016 1.531-0.8847 1.715-0.6465z" stroke-width="1.361"/><path class="st0" d="m173.8 145.8c0.1838 0.2423-0.2872 0.9255-1.049 1.524-0.7636 0.5975-1.53 0.8861-1.714 0.6438-0.1838-0.2423 0.2858-0.9242 1.048-1.526 0.7649-0.5989 1.531-0.8861 1.715-0.6424z" stroke-width="1.361"/><path class="st0" d="m177.7 139.1c0.1837 0.2423-0.2858 0.9242-1.048 1.523-0.7622 0.5962-1.53 0.8861-1.715 0.6411-0.1837-0.2423 0.2845-0.9228 1.048-1.52 0.7636-0.6002 1.533-0.8861 1.715-0.6438z" stroke-width="1.361"/><path class="st0" d="m240.7 162c0.1865 0.2423-0.2858 0.9228-1.045 1.523-0.7636 0.5975-1.534 0.8833-1.716 0.6452-0.1824-0.245 0.2858-0.9242 1.051-1.526 0.7595-0.5989 1.526-0.8874 1.711-0.6424z" stroke-width="1.361"/><path class="st0" d="m241.4 165.8c0.1851 0.2436-0.2858 0.9242-1.048 1.526-0.7636 0.5962-1.534 0.8874-1.715 0.6438-0.1838-0.245 0.2872-0.9228 1.051-1.524 0.7608-0.6002 1.526-0.8874 1.712-0.6452z" stroke-width="1.361"/><path class="st0" d="m242.7 169.3c0.1865 0.2436-0.2831 0.9269-1.043 1.524-0.7663 0.5975-1.534 0.8888-1.716 0.6465-0.1851-0.2464 0.2845-0.9255 1.051-1.524 0.7595-0.6002 1.526-0.8888 1.708-0.6465z" stroke-width="1.361"/><path class="st0" d="m244.7 171.8c0.1838 0.2436-0.2845 0.9214-1.047 1.52-0.7636 0.6016-1.53 0.8888-1.716 0.6452-0.1851-0.2423 0.2858-0.9242 1.051-1.52 0.7636-0.6002 1.53-0.8902 1.712-0.6452z" stroke-width="1.361"/><path class="st0" d="m189.9 112.5c0.1838 0.2436-0.2858 0.9296-1.048 1.526-0.7649 0.5989-1.531 0.8888-1.715 0.6452-0.1838-0.2436 0.2872-0.9242 1.049-1.524 0.7622-0.6002 1.528-0.8847 1.714-0.6465z" stroke-width="1.361"/><path class="st0" d="m197.1 98.54c0.1837 0.2423-0.2858 0.9255-1.048 1.523-0.7636 0.5989-1.533 0.8874-1.715 0.6452-0.1837-0.2423 0.2872-0.9242 1.048-1.526 0.7636-0.5989 1.53-0.8833 1.715-0.6424z" stroke-width="1.361"/><path class="st0" d="m199.5 90.31c0.4165 0.0041 0.7472 1.247 0.7404 2.779-5e-3 1.533-0.3484 2.771-0.7636 2.771-0.4138-0.0027-0.7418-1.248-0.7377-2.778 7e-3 -1.534 0.3484-2.774 0.7608-2.773z" stroke-width="1.361"/><path class="st2" d="m199.1 106.9c-1.526 2.44-35.33 74.33-34.89 75.66 0.4356 1.332 16.79 0.4451 16.79 0.4451s6.324 7.102 6.541 19.75c0.2178 12.65-3.925 21.08-3.271 21.08s38.16 0.2205 38.16 0.2205-4.802-11.76-3.056-23.96c1.745-12.2 8.504-15.75 8.504-15.75s11.78-0.8888 12.87-1.111c1.092-0.2191-40.13-78.77-41.65-76.33z" stroke-width="1.361"/><path class="st2" d="m179.5 185.7s-9.813-1.111-9.596 0.6656c0.2178 1.773 4.798 7.985 4.798 16.2 0 8.21-3.272 18.19-2.4 19.3 0.8724 1.109 8.288 1.332 9.378 0.4437 1.09-0.8888 4.143-8.431 3.706-17.75-0.4342-9.315-5.887-18.86-5.887-18.86z" stroke-width="1.361"/><path class="st2" d="m148 185s-8.848-1.111-8.651 0.6669c0.196 1.773 4.326 7.985 4.326 16.2s-2.949 18.19-2.163 19.3c0.7867 1.109 7.472 1.332 8.455 0.4437 0.9841-0.8888 3.736-8.431 3.343-17.75-0.3947-9.318-5.31-18.86-5.31-18.86z" stroke-width="1.361"/><path class="st2" d="m151.4 185.3c-0.8711 1.332 4.799 9.096 4.58 18.19-0.2178 9.097-5.016 19.08-4.143 19.53 0.8724 0.4437 15.7-0.2232 15.7-0.2232s4.361-5.77 5.016-17.97c0.6547-12.2-5.452-18.86-5.452-18.86s-14.83-1.997-15.7-0.6642z" stroke-width="1.361"/><path class="st0" d="m166.4 187.7c0-0.8874-9.16 1.776-9.813 3.331-0.6547 1.553 11.56 8.21 10.9 9.097-0.656 0.8874-9.815 4.437-10.03 5.989-0.2178 1.554 9.594 8.213 9.594 9.541 0 1.332-12.86 3.331-12.43 5.326 0.4356 1.998 14.61-3.105 14.83-4.66 0.2178-1.553-9.813-8.874-9.813-9.984 0-1.111 10.03-5.104 10.47-6.432 0.4369-1.332-11.12-7.547-10.9-8.435 0.2191-0.8874 7.197-2.884 7.197-3.773z" stroke-width="1.361"/><path class="st2" d="m142.4 204c0 10.23-4.688 18.53-10.47 18.53-5.782 0-10.47-8.296-10.47-18.53 0-10.23 4.688-18.53 10.47-18.53 5.779 0 10.47 8.292 10.47 18.53z" stroke-width="1.361"/><path class="st0" d="m139 204.4c0 8.697-3.467 15.75-7.743 15.75-4.275 0-7.742-7.053-7.742-15.75 0-8.701 3.465-15.76 7.742-15.76 4.277 1e-3 7.743 7.054 7.743 15.76z" stroke-width="1.361"/><path class="st2" d="m137.5 204.4c0 7.78-2.783 14.09-6.215 14.09-3.431 0-6.215-6.309-6.215-14.09 0-7.784 2.783-14.09 6.215-14.09 3.433 0 6.215 6.306 6.215 14.09z" stroke-width="1.361"/><path class="st0" d="m150.5 205.4c0 0.5512-0.5363 0.999-1.2 0.999-0.6615 0-1.199-0.4478-1.199-0.999 0-0.5499 0.5376-0.9963 1.199-0.9963 0.6642 0 1.2 0.4464 1.2 0.9963z" stroke-width="1.361"/><path class="st0" d="m147.6 211c0 0.5526-0.5363 1-1.2 1-0.6615 0-1.199-0.4478-1.199-1 0-0.5499 0.5363-0.999 1.199-0.999 0.6642 0 1.2 0.4492 1.2 0.999z" stroke-width="1.361"/><path class="st0" d="m151 211.7c0 0.5526-0.5363 1-1.199 1s-1.199-0.4478-1.199-1 0.5363-0.999 1.199-0.999 1.199 0.4464 1.199 0.999z" stroke-width="1.361"/><path class="st0" d="m148.2 215.4c0 0.5526-0.5363 0.999-1.199 0.999-0.6628 0-1.199-0.4478-1.199-0.999 0-0.5485 0.5363-0.9977 1.199-0.9977 0.6615 1e-3 1.199 0.4492 1.199 0.9977z" stroke-width="1.361"/><path class="st0" d="m144.7 218.8c0 0.5485-0.5376 0.9977-1.198 0.9977-0.6642 0-1.2-0.4492-1.2-0.9977 0-0.5526 0.5363-0.999 1.2-0.999 0.6601 0 1.198 0.4464 1.198 0.999z" stroke-width="1.361"/><path class="st0" d="m148.6 219.2c0 0.5526-0.5376 0.9977-1.199 0.9977-0.6628 0-1.2-0.4451-1.2-0.9977 0-0.5499 0.5376-0.9977 1.2-0.9977 0.6615 0 1.199 0.4478 1.199 0.9977z" stroke-width="1.361"/><path class="st0" d="m165.7 221.2c0 0.5526-0.5376 0.999-1.2 0.999-0.6615 0-1.199-0.4478-1.199-0.999 0-0.5526 0.5376-1 1.199-1 0.6628 0 1.2 0.4478 1.2 1z" stroke-width="1.361"/><path class="st0" d="m177.9 214.6c0 0.5526-0.5363 0.999-1.2 0.999-0.6615 0-1.199-0.4464-1.199-0.999 0-0.5485 0.5363-0.9963 1.199-0.9963 0.6642 0 1.2 0.4464 1.2 0.9963z" stroke-width="1.361"/><path class="st0" d="m179.8 218.6c0 0.5485-0.5376 0.9936-1.199 0.9936-0.6628 0-1.2-0.4451-1.2-0.9936 0-0.5526 0.5376-1 1.2-1 0.6615 0 1.199 0.4478 1.199 1z" stroke-width="1.361"/><path class="st0" d="m175.9 219.7c0 0.5526-0.5376 0.999-1.198 0.999-0.6642 0-1.199-0.4478-1.199-0.999 0-0.5485 0.5349-0.9963 1.199-0.9963 0.6615 0 1.198 0.4464 1.198 0.9963z" stroke-width="1.361"/><path class="st0" d="m182.9 217.4c0 0.5526-0.5363 0.999-1.198 0.999-0.6642 0-1.2-0.4464-1.2-0.999 0-0.5526 0.5363-0.999 1.2-0.999 0.6615 1e-3 1.198 0.4478 1.198 0.999z" stroke-width="1.361"/><path class="st0" d="m181.6 221c0 0.5526-0.5376 0.999-1.199 0.999-0.6642 0-1.2-0.4478-1.2-0.999 0-0.5512 0.5363-0.999 1.2-0.999 0.6615 0 1.199 0.4464 1.199 0.999z" stroke-width="1.361"/><path class="st2" d="m227.4 185.9s9.197-1.109 8.989 0.6669c-0.2001 1.773-4.493 7.99-4.493 16.2 0 8.209 3.067 18.19 2.246 19.3-0.8194 1.111-7.766 1.332-8.786 0.4451-1.022-0.8888-3.887-8.431-3.475-17.75 0.407-9.318 5.519-18.86 5.519-18.86z" stroke-width="1.361"/><path class="st2" d="m256.9 185.3s8.296-1.109 8.105 0.6656c-0.181 1.775-4.051 7.99-4.051 16.2 0 8.207 2.766 18.19 2.025 19.3-0.735 1.112-7.005 1.332-7.924 0.4451-0.9187-0.8888-3.502-8.431-3.13-17.75 0.3661-9.321 4.975-18.86 4.975-18.86z" stroke-width="1.361"/><path class="st2" d="m253.8 185.5c0.8194 1.33-4.494 9.097-4.293 18.19 0.2042 9.097 4.703 19.08 3.885 19.53-0.818 0.4437-14.71-0.2219-14.71-0.2219s-4.089-5.768-4.708-17.97c-0.6138-12.21 5.114-18.86 5.114-18.86s13.9-1.999 14.72-0.6669z" stroke-width="1.361"/><path class="st0" d="m239.7 187.9c0-0.8888 8.58 1.776 9.194 3.331 0.6152 1.552-10.83 8.209-10.21 9.096 0.6138 0.8861 9.193 4.438 9.401 5.99 0.2001 1.553-8.994 8.209-8.994 9.543 0 1.332 12.06 3.326 11.65 5.325-0.4083 1.998-13.7-3.106-13.9-4.659-0.2042-1.556 9.197-8.876 9.197-9.988 0-1.109-9.401-5.103-9.809-6.432-0.4124-1.332 10.42-7.544 10.22-8.435-0.2082-0.8833-6.747-2.881-6.747-3.77z" stroke-width="1.361"/><path class="st2" d="m262.2 204.2c0 10.23 4.394 18.53 9.813 18.53 5.417 0 9.809-8.294 9.809-18.53 0-10.23-4.391-18.53-9.809-18.53-5.418 0-9.813 8.293-9.813 18.53z" stroke-width="1.361"/><path class="st0" d="m265.3 204.6c0 8.697 3.25 15.75 7.257 15.75 4.006 0 7.257-7.056 7.257-15.75 0-8.7-3.25-15.75-7.257-15.75-4.007 0-7.257 7.053-7.257 15.75z" stroke-width="1.361"/><path class="st2" d="m266.8 204.6c0 7.781 2.608 14.09 5.825 14.09 3.218 0 5.824-6.309 5.824-14.09 0-7.783-2.606-14.09-5.824-14.09-3.218 0-5.825 6.307-5.825 14.09z" stroke-width="1.361"/><path class="st0" d="m254.6 205.6c0 0.5526 0.5022 0.9977 1.124 0.9977 0.6207 0 1.123-0.4451 1.123-0.9977 0-0.5485-0.5022-0.9977-1.123-0.9977-0.622 0-1.124 0.4492-1.124 0.9977z" stroke-width="1.361"/><path class="st0" d="m257.4 211.2c0 0.5526 0.5022 0.999 1.124 0.999 0.6206 0 1.124-0.4464 1.124-0.999s-0.5036-0.999-1.124-0.999c-0.6234 0-1.124 0.4478-1.124 0.999z" stroke-width="1.361"/><path class="st0" d="m254.1 211.9c0 0.5526 0.505 0.999 1.126 0.999 0.6206 0 1.12-0.4464 1.12-0.999s-0.5009-0.999-1.12-0.999c-0.6207 0-1.126 0.4464-1.126 0.999z" stroke-width="1.361"/><path class="st0" d="m256.7 215.7c0 0.5526 0.5036 1 1.124 1 0.622 0 1.124-0.4478 1.124-1 0-0.5499-0.5022-0.9977-1.124-0.9977-0.6207 0-1.124 0.4478-1.124 0.9977z" stroke-width="1.361"/><path class="st0" d="m260 219c0 0.5499 0.5036 0.9963 1.126 0.9963 0.622 0 1.124-0.4464 1.124-0.9963 0-0.5526-0.5022-0.999-1.124-0.999-0.622 1e-3 -1.126 0.4478-1.126 0.999z" stroke-width="1.361"/><path class="st0" d="m256.3 219.4c0 0.5526 0.5036 1 1.127 1 0.622 0 1.126-0.4478 1.126-1 0-0.5485-0.5036-0.9963-1.126-0.9963-0.6234 0-1.127 0.4478-1.127 0.9963z" stroke-width="1.361"/><path class="st0" d="m240.4 221.4c0 0.5526 0.505 1.002 1.126 1.002s1.124-0.4478 1.124-1.002c0-0.5526-0.5036-0.9977-1.124-0.9977s-1.126 0.4451-1.126 0.9977z" stroke-width="1.361"/><path class="st0" d="m228.9 214.8c0 0.5526 0.5036 0.999 1.126 0.999 0.6234 0 1.127-0.4464 1.127-0.999 0-0.5499-0.5036-0.9977-1.127-0.9977-0.622 0-1.126 0.4478-1.126 0.9977z" stroke-width="1.361"/><path class="st0" d="m227.1 218.8c0 0.5485 0.5036 0.9977 1.12 0.9977 0.6234 0 1.127-0.4492 1.127-0.9977 0-0.5526-0.5036-0.999-1.127-0.999-0.6166 0-1.12 0.4464-1.12 0.999z" stroke-width="1.361"/><path class="st0" d="m230.8 219.9c0 0.5526 0.5036 0.9963 1.126 0.9963 0.622 0 1.12-0.4451 1.12-0.9963 0-0.5485-0.4995-0.9977-1.12-0.9977-0.622 0-1.126 0.4492-1.126 0.9977z" stroke-width="1.361"/><path class="st0" d="m224.2 217.7c0 0.5526 0.5063 1 1.127 1 0.6179 0 1.126-0.4492 1.126-1 0-0.5499-0.5077-0.9977-1.126-0.9977-0.6206 0-1.127 0.4464-1.127 0.9977z" stroke-width="1.361"/><path class="st0" d="m225.5 221.2c0 0.5526 0.5036 0.999 1.127 0.999 0.6179 0 1.126-0.4478 1.126-0.999 0-0.5526-0.5063-1-1.126-1-0.6234 0-1.127 0.4478-1.127 1z" stroke-width="1.361"/><path class="st2" d="m297.5 39.49c-0.2178-0.8874-7.851 3.993-7.851 3.993s-3.271 8.654-2.834 9.543c0.4356 0.8874 7.632-3.772 7.632-3.772s3.271-8.876 3.053-9.764z" stroke-width="1.361"/><path class="st2" d="m322.3 64.35c-0.2164-0.8888-7.849 3.993-7.849 3.993s-3.272 8.654-2.836 9.54c0.4369 0.8901 7.632-3.77 7.632-3.77s3.275-8.876 3.054-9.763z" stroke-width="1.361"/><path class="st2" d="m345.5 88.75c-0.2178-0.8874-7.851 3.993-7.851 3.993s-3.269 8.655-2.834 9.543c0.4369 0.8847 7.632-3.772 7.632-3.772s3.269-8.88 3.053-9.764z" stroke-width="1.361"/><path class="st2" d="m361.8 144.7c-0.2205-0.931-8.013 4.189-8.013 4.189s-3.335 9.069-2.89 10c0.4424 0.931 7.787-3.954 7.787-3.954s3.339-9.303 3.116-10.24z" stroke-width="1.361"/><path class="st6" d="m284.6 54.81c-1.746 0.4437-55.61 47.71-55.61 47.71s16.57 30.62 17.44 31.73 7.414-7.768 21.37-34.17c13.95-26.4 18.54-45.71 16.79-45.26z" stroke-width="1.361"/><path class="st0" d="m237.3 105.8c0 4.045-0.2409 7.321-0.5404 7.321-0.3049 0-0.5499-3.276-0.5499-7.321 0-4.044 0.245-7.321 0.5499-7.321 0.3008 0 0.5404 3.277 0.5404 7.321z" stroke-width="1.361"/><path class="st0" d="m241 103.8c0 4.045-0.2464 7.324-0.5499 7.324-0.3008 0-0.5417-3.28-0.5417-7.324 0-4.045 0.2423-7.321 0.5417-7.321 0.3022 0 0.5499 3.276 0.5499 7.321z" stroke-width="1.361"/><path class="st0" d="m244.3 101.8c0 4.044-0.2396 7.321-0.5404 7.321-0.3022 0-0.5458-3.277-0.5458-7.321 0-4.045 0.2436-7.325 0.5458-7.325 0.3008 0.0014 0.5404 3.282 0.5404 7.325z" stroke-width="1.361"/><path class="st0" d="m247.8 97.85c0 2.94-0.2396 5.323-0.5458 5.323-0.3008 0-0.5458-2.383-0.5458-5.323 0-2.944 0.245-5.325 0.5458-5.325 0.3049-0.0014 0.5458 2.381 0.5458 5.325z" stroke-width="1.361"/><path class="st0" d="m242.5 116.5c0 2.94-0.245 5.322-0.5458 5.322s-0.5431-2.382-0.5431-5.322c0-2.944 0.2423-5.325 0.5431-5.325 0.3008-1e-3 0.5458 2.381 0.5458 5.325z" stroke-width="1.361"/><path class="st0" d="m251 93.85c0 2.944-0.2464 5.325-0.5485 5.325-0.3008 0-0.5417-2.382-0.5417-5.325 0-2.94 0.2409-5.322 0.5417-5.322 0.3022 0 0.5485 2.381 0.5485 5.322z" stroke-width="1.361"/><path class="st0" d="m254.3 88.2c0 2.266-0.2423 4.105-0.5403 4.105-0.3022 0-0.5472-1.839-0.5472-4.105 0-2.268 0.245-4.104 0.5472-4.104 0.2994 0 0.5403 1.836 0.5403 4.104z" stroke-width="1.361"/><path class="st0" d="m257.1 86.76c0 2.268-0.2423 4.105-0.5458 4.105-0.3008 0-0.5458-1.837-0.5458-4.105s0.245-4.102 0.5458-4.102c0.3035-0.0014 0.5458 1.835 0.5458 4.102z" stroke-width="1.361"/><path class="st0" d="m260.4 83.65c0 2.266-0.245 4.104-0.5458 4.104-0.3022 0-0.5431-1.839-0.5431-4.104 0-2.269 0.2409-4.104 0.5431-4.104 0.3008 0 0.5458 1.836 0.5458 4.104z" stroke-width="1.361"/><path class="st0" d="m269.6 79.66c0 2.263-0.245 4.104-0.5444 4.104-0.3022 0-0.5444-1.84-0.5444-4.104 0-2.269 0.2423-4.108 0.5444-4.108 0.2994 0 0.5444 1.839 0.5444 4.108z" stroke-width="1.361"/><path class="st0" d="m277 73.22c0 2.268-0.2464 4.105-0.5499 4.105-0.3008 0-0.5431-1.837-0.5431-4.105 0-2.268 0.2423-4.104 0.5431-4.104 0.3035 0 0.5499 1.836 0.5499 4.104z" stroke-width="1.361"/><path class="st0" d="m279.8 66.78c0 2.269-0.2436 4.105-0.5458 4.105-0.3008 0-0.5444-1.836-0.5444-4.105 0-2.265 0.2436-4.104 0.5444-4.104 0.3022 0 0.5458 1.839 0.5458 4.104z" stroke-width="1.361"/><path class="st0" d="m274.4 78.99c0 2.265-0.2409 4.105-0.5417 4.105-0.3035 0-0.5472-1.84-0.5472-4.105 0-2.268 0.2436-4.104 0.5472-4.104 0.3022 0 0.5417 1.836 0.5417 4.104z" stroke-width="1.361"/><path class="st0" d="m272 86.09c0 2.268-0.2409 4.105-0.5431 4.105-0.3008 0-0.5458-1.837-0.5458-4.105 0-2.268 0.245-4.104 0.5458-4.104 0.3022 0.0014 0.5431 1.837 0.5431 4.104z" stroke-width="1.361"/><path class="st0" d="m269.1 90.53c0 2.268-0.2464 4.104-0.5472 4.104-0.3008 0-0.5431-1.836-0.5431-4.104 0-2.265 0.2423-4.105 0.5431-4.105 0.2994 0 0.5472 1.842 0.5472 4.105z" stroke-width="1.361"/><path class="st0" d="m266.3 93.19c0 3.369-0.2423 6.1-0.5458 6.1-0.2994 0-0.5444-2.732-0.5444-6.1s0.245-6.103 0.5444-6.103c0.3035 0 0.5458 2.733 0.5458 6.103z" stroke-width="1.361"/><path class="st0" d="m263.2 97.24c0 5.118-0.2436 9.265-0.5444 9.265-0.2981 0-0.5458-4.147-0.5458-9.265 0-5.118 0.2477-9.262 0.5458-9.262 0.3008-0.0014 0.5444 4.144 0.5444 9.262z" stroke-width="1.361"/><path class="st0" d="m260.2 99.9c0 5.115-0.2477 9.262-0.5458 9.262-0.3008 0-0.5444-4.147-0.5444-9.262 0-5.12 0.2436-9.266 0.5444-9.266 0.2981 0 0.5458 4.146 0.5458 9.266z" stroke-width="1.361"/><path class="st0" d="m257.6 104.7c0 6.035-0.2436 10.93-0.5444 10.93-0.3049 0-0.5458-4.893-0.5458-10.93 0-6.036 0.2396-10.93 0.5458-10.93 0.3022 0 0.5444 4.889 0.5444 10.93z" stroke-width="1.361"/><path class="st0" d="m254.3 107.6c0 6.035-0.2423 10.93-0.5403 10.93-0.3022 0-0.5472-4.894-0.5472-10.93 0-6.036 0.245-10.93 0.5472-10.93 0.2994 0 0.5403 4.894 0.5403 10.93z" stroke-width="1.361"/><path class="st0" d="m251.5 112.3c0 6.032-0.245 10.93-0.5458 10.93s-0.5431-4.894-0.5431-10.93c0-6.036 0.2423-10.93 0.5431-10.93s0.5458 4.894 0.5458 10.93z" stroke-width="1.361"/><path class="st0" d="m248.6 115.6c0 6.038-0.2436 10.93-0.5444 10.93-0.3049 0-0.5458-4.889-0.5458-10.93 0-6.036 0.2409-10.93 0.5458-10.93 0.3022 0 0.5444 4.892 0.5444 10.93z" stroke-width="1.361"/><path class="st0" d="m246 118.9c0 6.036-0.2436 10.93-0.5444 10.93-0.3022 0-0.5472-4.89-0.5472-10.93 0-6.036 0.245-10.93 0.5472-10.93 0.3008 1e-3 0.5444 4.892 0.5444 10.93z" stroke-width="1.361"/><path class="st6" d="m310.8 81.21-64.12 55.69s20.72 36.83 21.59 37.94c0.8724 1.112 7.851-9.096 21.37-37.5 13.52-28.4 21.15-56.14 21.15-56.14z" stroke-width="1.361"/><path class="st6" d="m330.2 107.8c-1.309 0.8874-60.19 69.01-60.19 69.01l2.832 4.66s9.815-1.109 11.78 13.31-3.273 24.85-2.619 26.85c0.6547 1.998 14.83-15.75 30.53-53.25 15.7-37.5 18.97-61.46 17.67-60.57z" stroke-width="1.361"/><path class="st2" d="m346.1 141.8s-6.322 0-14.83 10.43c-8.504 10.43-9.157 19.31-7.849 19.97 1.307 0.6628 15.26-13.98 22.9-7.323 5.889 4.214 5.67 6.435 4.801 8.431-0.8724 1.998-2.836-0.4451-4.365 1.998-1.527 2.44-2.183 5.104 0.6533 7.098 2.839 1.998 7.633-0.6628 8.942-3.772 3.273-7.32-3.052-14.2-3.052-14.2s-6.326-6.876-7.853-10.87c-1.526-3.996 0.6547-11.76 0.6547-11.76z" stroke-width="1.361"/><path class="st2" d="m343.1 166.6s-43.83 54.8-44.49 56.14c-0.6533 1.33 4.144 0.8888 4.144 0.8888l43.18-55.69z" stroke-width="1.361"/><path class="st0" d="m204.4 37.5c0 1.347-0.343 2.44-0.7663 2.44-0.4192 0-0.7595-1.093-0.7595-2.44 0-1.352 0.3416-2.443 0.7595-2.443 0.4233 0.0014 0.7663 1.093 0.7663 2.443z" stroke-width="1.361"/><path class="st0" d="m203.3 47.59c0 1.41-0.3416 2.553-0.7636 2.553-0.4219 0-0.7636-1.145-0.7636-2.553 0-1.407 0.3403-2.551 0.7636-2.551 0.4219 0 0.7636 1.143 0.7636 2.551z" stroke-width="1.361"/><path class="st0" d="m110.6 91.41c0 1.959-0.4396 3.551-0.9813 3.551s-0.9813-1.592-0.9813-3.551 0.4396-3.548 0.9813-3.548 0.9813 1.59 0.9813 3.548z" stroke-width="1.361"/><path class="st0" d="m114.2 94.97c0 1.963-0.441 3.551-0.9827 3.551-0.5404 0-0.9813-1.588-0.9813-3.551 0-1.959 0.441-3.551 0.9813-3.551 0.5417 0 0.9827 1.592 0.9827 3.551z" stroke-width="1.361"/><path class="st0" d="m116.9 98.29c0 1.959-0.3158 3.55-0.705 3.55s-0.7064-1.591-0.7064-3.55c0-1.961 0.3171-3.552 0.7064-3.552s0.705 1.591 0.705 3.552z" stroke-width="1.361"/><path class="st0" d="m120.5 101.8c0 1.959-0.3158 3.55-0.7064 3.55-0.3893 0-0.705-1.591-0.705-3.55 0-1.963 0.3158-3.55 0.705-3.55 0.3906 0 0.7064 1.587 0.7064 3.55z" stroke-width="1.361"/><path class="st0" d="m123.6 106.3c0 1.959-0.3171 3.551-0.7064 3.551s-0.705-1.592-0.705-3.551c0-1.963 0.3158-3.548 0.705-3.548s0.7064 1.586 0.7064 3.548z" stroke-width="1.361"/><path class="st0" d="m127.3 111.4c0 1.959-0.3158 3.55-0.705 3.55s-0.7064-1.591-0.7064-3.55c0-1.961 0.3185-3.551 0.7064-3.551 0.3893 0 0.705 1.588 0.705 3.551z" stroke-width="1.361"/><path class="st0" d="m130.5 114.5c0 1.959-0.3158 3.55-0.705 3.55s-0.705-1.59-0.705-3.55c0-1.959 0.3158-3.55 0.705-3.55 0.3879 0 0.705 1.59 0.705 3.55z" stroke-width="1.361"/><path class="st0" d="m133.8 118c0 1.963-0.3158 3.552-0.705 3.552s-0.7037-1.59-0.7037-3.552c0-1.959 0.3144-3.55 0.7037-3.55 0.3906 0 0.705 1.59 0.705 3.55z" stroke-width="1.361"/><path class="st0" d="m137.3 122.5c0 1.963-0.3171 3.554-0.7064 3.554s-0.705-1.592-0.705-3.554c0-1.959 0.3158-3.548 0.705-3.548 0.3879 0 0.7064 1.59 0.7064 3.548z" stroke-width="1.361"/><path class="st0" d="m140.3 126c0 1.959-0.3158 3.548-0.705 3.548s-0.705-1.588-0.705-3.548c0-1.961 0.3158-3.554 0.705-3.554s0.705 1.592 0.705 3.554z" stroke-width="1.361"/><path class="st0" d="m110.2 110.1c0 4.169-0.3403 7.544-0.7622 7.544-0.4219 0-0.7649-3.375-0.7649-7.544s0.343-7.542 0.7649-7.542c0.4206 0 0.7622 3.374 0.7622 7.542z" stroke-width="1.361"/><path class="st0" d="m113.4 115.2c0 4.168-0.343 7.544-0.7649 7.544-0.4219 0-0.7622-3.375-0.7622-7.544s0.3403-7.544 0.7622-7.544c0.4219 0 0.7649 3.377 0.7649 7.544z" stroke-width="1.361"/><path class="st0" d="m117.1 125.7c0 6.803-0.3403 12.31-0.7622 12.31-0.4219 0-0.7649-5.51-0.7649-12.31 0-6.8 0.343-12.32 0.7649-12.32 0.4219 0 0.7622 5.516 0.7622 12.32z" stroke-width="1.361"/><path class="st0" d="m120.9 128.5c0 6.801-0.343 12.31-0.7649 12.31-0.4219 0-0.7636-5.512-0.7636-12.31 0-6.799 0.3416-12.31 0.7636-12.31 0.4219-1e-3 0.7649 5.514 0.7649 12.31z" stroke-width="1.361"/><path class="st0" d="m125.5 134.2c0 6.801-0.343 12.31-0.7649 12.31-0.4206 0-0.7636-5.511-0.7636-12.31 0-6.801 0.3416-12.32 0.7636-12.32 0.4219 0 0.7649 5.515 0.7649 12.32z" stroke-width="1.361"/><path class="st0" d="m129.2 140.4c0 6.804-0.3416 12.32-0.7636 12.32-0.4219 0-0.7622-5.512-0.7622-12.32 0-6.799 0.3403-12.31 0.7622-12.31 0.4219 0 0.7636 5.515 0.7636 12.31z" stroke-width="1.361"/><path class="st0" d="m132.9 144.4c0 6.803-0.3416 12.31-0.7622 12.31-0.4219 0-0.7636-5.51-0.7636-12.31 0-6.801 0.3416-12.32 0.7636-12.32 0.4206 0 0.7622 5.515 0.7622 12.32z" stroke-width="1.361"/><path class="st0" d="m138.4 149.8c0 6.805-0.3416 12.32-0.7636 12.32-0.4233 0-0.7622-5.511-0.7622-12.32 0-6.799 0.3389-12.31 0.7622-12.31 0.4219 0 0.7636 5.515 0.7636 12.31z" stroke-width="1.361"/><path class="st0" d="m142.3 151.3c0 6.801-0.3403 12.31-0.7622 12.31-0.4219 0-0.7649-5.511-0.7649-12.31 0-6.8 0.343-12.31 0.7649-12.31 0.4206 0 0.7622 5.514 0.7622 12.31z" stroke-width="1.361"/><path class="st0" d="m115.7 191.8c0 10.02-0.3416 18.14-0.7622 18.14-0.4219 0-0.7622-8.119-0.7622-18.14 0-10.02 0.3403-18.14 0.7622-18.14 0.4219 0 0.7622 8.126 0.7622 18.14z" stroke-width="1.361"/><path class="st0" d="m111.6 186.8c0 10.02-0.3416 18.14-0.7636 18.14-0.4219 0-0.7636-8.122-0.7636-18.14 0-10.02 0.3416-18.14 0.7636-18.14 0.4219 0 0.7636 8.123 0.7636 18.14z" stroke-width="1.361"/><path class="st0" d="m107 180.6c0 10.02-0.343 18.14-0.7649 18.14-0.4219 0-0.7636-8.119-0.7636-18.14 0-10.01 0.3416-18.14 0.7636-18.14 0.4219 0 0.7649 8.126 0.7649 18.14z" stroke-width="1.361"/><path class="st0" d="m101.5 170c0 7.95-0.343 14.4-0.7649 14.4-0.4219 0-0.7622-6.446-0.7622-14.4 0-7.949 0.3403-14.39 0.7622-14.39 0.4219 0 0.7649 6.445 0.7649 14.39z" stroke-width="1.361"/><path class="st0" d="m96.3 163.1c0 6.364-0.3416 11.52-0.7622 11.52-0.4219 0-0.7636-5.158-0.7636-11.52 0-6.364 0.3416-11.53 0.7636-11.53 0.4219 1e-3 0.7622 5.161 0.7622 11.53z" stroke-width="1.361"/><path class="st0" d="m90.63 152c0 4.402-0.3416 7.975-0.7636 7.975-0.4206 0-0.7622-3.573-0.7622-7.975 0-4.406 0.3416-7.976 0.7622-7.976 0.4219-1e-3 0.7636 3.57 0.7636 7.976z" stroke-width="1.361"/><path class="st0" d="m85.4 143.3c0 4.4-0.343 7.975-0.7649 7.975-0.4206 0-0.7622-3.573-0.7622-7.975 0-4.404 0.3416-7.975 0.7622-7.975s0.7649 3.57 0.7649 7.975z" stroke-width="1.361"/><path class="st0" d="m83.76 124c0 1.959-0.294 3.548-0.6547 3.548-0.362 0-0.6547-1.59-0.6547-3.548 0-1.961 0.2926-3.551 0.6547-3.551 0.3607 0 0.6547 1.591 0.6547 3.551z" stroke-width="1.361"/><path class="st0" d="m87.25 128.5c0 1.959-0.2926 3.55-0.6533 3.55-0.3607 0-0.6533-1.59-0.6533-3.55 0-1.959 0.2926-3.55 0.6533-3.55 0.3593 0 0.6533 1.591 0.6533 3.55z" stroke-width="1.361"/><path class="st0" d="m90.31 133.8c0 1.959-0.2926 3.547-0.6547 3.547-0.3607 0-0.6533-1.588-0.6533-3.547 0-1.963 0.2926-3.551 0.6533-3.551 0.362 0 0.6547 1.588 0.6547 3.551z" stroke-width="1.361"/><path class="st0" d="m94.23 137.1c0 1.963-0.2926 3.55-0.6533 3.55-0.362 0-0.6533-1.587-0.6533-3.55 0-1.959 0.2926-3.55 0.6533-3.55 0.362 0 0.6533 1.59 0.6533 3.55z" stroke-width="1.361"/><path class="st0" d="m99.03 142c0 1.961-0.294 3.55-0.6547 3.55-0.3607 0-0.6533-1.587-0.6533-3.55 0-1.959 0.2926-3.55 0.6533-3.55 0.362 0 0.6547 1.591 0.6547 3.55z" stroke-width="1.361"/><path class="st0" d="m103 146.2c0 1.963-0.2913 3.55-0.6533 3.55-0.362 0-0.656-1.587-0.656-3.55 0-1.959 0.294-3.55 0.656-3.55 0.362 0 0.6533 1.591 0.6533 3.55z" stroke-width="1.361"/><path class="st0" d="m108 151.8c0 1.959-0.2926 3.55-0.6533 3.55s-0.6547-1.59-0.6547-3.55c0-1.96 0.294-3.55 0.6547-3.55 0.362 0 0.6533 1.591 0.6533 3.55z" stroke-width="1.361"/><path class="st0" d="m112.3 157.1c0 1.96-0.2926 3.548-0.6533 3.548-0.362 0-0.6547-1.588-0.6547-3.548 0-1.961 0.2926-3.551 0.6547-3.551 0.3607 1e-3 0.6533 1.59 0.6533 3.551z" stroke-width="1.361"/><path class="st0" d="m116.5 162c0 1.959-0.294 3.551-0.6547 3.551-0.362 0-0.6547-1.592-0.6547-3.551 0-1.961 0.2926-3.547 0.6547-3.547 0.3607-1e-3 0.6547 1.584 0.6547 3.547z" stroke-width="1.361"/><path class="st0" d="m120 165.7c0 1.959-0.2926 3.551-0.6547 3.551-0.362 0-0.6533-1.592-0.6533-3.551 0-1.959 0.2926-3.548 0.6533-3.548 0.3607 0 0.6547 1.59 0.6547 3.548z" stroke-width="1.361"/><path class="st0" d="m124.5 170.2c0 1.959-0.294 3.55-0.656 3.55-0.362 0-0.6533-1.59-0.6533-3.55 0-1.959 0.2913-3.55 0.6533-3.55 0.362 0 0.656 1.59 0.656 3.55z" stroke-width="1.361"/><path class="st0" d="m201.1 112.5c0 1.105-0.5363 1.998-1.198 1.998-0.6642 0-1.2-0.8929-1.2-1.998 0-1.101 0.5363-1.995 1.2-1.995 0.6615 0 1.198 0.8929 1.198 1.995z" stroke-width="1.361"/><path class="st0" d="m198.4 119.2c0 1.101-0.5376 1.998-1.2 1.998-0.6615 0-1.199-0.8956-1.199-1.998 0-1.102 0.5376-1.998 1.199-1.998 0.6628 0 1.2 0.897 1.2 1.998z" stroke-width="1.361"/><path class="st0" d="m181 152c0 0.6111-0.3893 1.109-0.8711 1.109s-0.8724-0.4995-0.8724-1.109c0-0.6152 0.3906-1.112 0.8724-1.112s0.8711 0.4954 0.8711 1.112z" stroke-width="1.361"/><path class="st0" d="m178.6 156.6c0 0.6125-0.3906 1.111-0.8725 1.111-0.4818 0-0.8724-0.4995-0.8724-1.111 0-0.6138 0.3906-1.109 0.8724-1.109 0.4818 0 0.8725 0.4954 0.8725 1.109z" stroke-width="1.361"/><path class="st0" d="m177.5 159.8c0 0.6152-0.3906 1.109-0.8724 1.109-0.4818 0-0.8711-0.4954-0.8711-1.109 0-0.6125 0.3893-1.108 0.8711-1.108 0.4818 0 0.8724 0.4954 0.8724 1.108z" stroke-width="1.361"/><path class="st0" d="m176 162.6c0 0.6138-0.3893 1.108-0.8711 1.108-0.4832 0-0.8738-0.4941-0.8738-1.108s0.3906-1.109 0.8738-1.109c0.4818 0 0.8711 0.4954 0.8711 1.109z" stroke-width="1.361"/><path class="st0" d="m177.1 165.3c0 0.6152-0.3906 1.109-0.8738 1.109-0.4818 0-0.8697-0.4941-0.8697-1.109 0-0.6125 0.3893-1.109 0.8697-1.109 0.4832 0 0.8738 0.4968 0.8738 1.109z" stroke-width="1.361"/><path class="st0" d="m173.8 167.5c0 0.6111-0.3893 1.107-0.8724 1.107-0.4805 0-0.8724-0.4954-0.8724-1.107 0-0.6152 0.3906-1.112 0.8724-1.112 0.4832 0 0.8724 0.4954 0.8724 1.112z" stroke-width="1.361"/><path class="st0" d="m174.3 170.8c0 0.6125-0.3893 1.112-0.8711 1.112s-0.8724-0.4982-0.8724-1.112 0.3906-1.111 0.8724-1.111 0.8711 0.4968 0.8711 1.111z" stroke-width="1.361"/><path class="st0" d="m177.8 172.2c0 0.6125-0.3906 1.108-0.8724 1.108s-0.8724-0.4954-0.8724-1.108c0-0.6138 0.3906-1.111 0.8724-1.111 0.4818-1e-3 0.8724 0.4954 0.8724 1.111z" stroke-width="1.361"/><path class="st0" d="m181.2 174.2c0 0.6152-0.3893 1.111-0.8711 1.111-0.4832 0-0.8724-0.4954-0.8724-1.111 0-0.6111 0.3893-1.109 0.8724-1.109 0.4818 0 0.8711 0.4982 0.8711 1.109z" stroke-width="1.361"/><path class="st0" d="m177.3 176.8c0 0.6138-0.3906 1.108-0.8725 1.108-0.4818 0-0.8711-0.4941-0.8711-1.108s0.3893-1.109 0.8711-1.109c0.4818 0 0.8725 0.4941 0.8725 1.109z" stroke-width="1.361"/><path class="st0" d="m175.8 180.2c0 0.6125-0.3906 1.109-0.8724 1.109s-0.8724-0.4968-0.8724-1.109c0-0.6152 0.3906-1.109 0.8724-1.109s0.8724 0.4941 0.8724 1.109z" stroke-width="1.361"/><path class="st0" d="m178.4 180.6c0 0.6125-0.3893 1.111-0.8711 1.111s-0.8724-0.4995-0.8724-1.111c0-0.6138 0.3906-1.109 0.8724-1.109 0.4805 0 0.8711 0.4954 0.8711 1.109z" stroke-width="1.361"/><path class="st0" d="m181 179.3c0 0.6152-0.3893 1.112-0.8711 1.112s-0.8724-0.4954-0.8724-1.112c0-0.6111 0.3906-1.111 0.8724-1.111s0.8711 0.4995 0.8711 1.111z" stroke-width="1.361"/><path class="st0" d="m185.2 183.3c0 0.6152-0.3906 1.111-0.8711 1.111-0.4818 0-0.8724-0.4954-0.8724-1.111 0-0.6111 0.3906-1.109 0.8724-1.109 0.4805-1e-3 0.8711 0.4982 0.8711 1.109z" stroke-width="1.361"/><path class="st0" d="m189.5 184.6c0 0.6138-0.3893 1.111-0.8711 1.111-0.4832 0-0.8738-0.4968-0.8738-1.111 0-0.6152 0.3906-1.109 0.8738-1.109 0.4818 0 0.8711 0.4941 0.8711 1.109z" stroke-width="1.361"/><path class="st0" d="m193 186.6c0 0.6138-0.3906 1.108-0.8724 1.108-0.4818 0-0.8725-0.4941-0.8725-1.108 0-0.6138 0.3906-1.108 0.8725-1.108 0.4818-1e-3 0.8724 0.4941 0.8724 1.108z" stroke-width="1.361"/><path class="st0" d="m192.4 190.8c0 0.6111-0.3893 1.107-0.8711 1.107-0.4818 0-0.8725-0.4954-0.8725-1.107 0-0.6152 0.3906-1.111 0.8725-1.111 0.4818-1e-3 0.8711 0.4954 0.8711 1.111z" stroke-width="1.361"/><path class="st0" d="m196.5 194.4c0 0.6152-0.3893 1.112-0.8711 1.112-0.4832 0-0.8738-0.4968-0.8738-1.112 0-0.6138 0.3906-1.108 0.8738-1.108 0.4818 0 0.8711 0.4941 0.8711 1.108z" stroke-width="1.361"/><path class="st0" d="m200.7 192.1c0 0.6138-0.3893 1.111-0.8724 1.111-0.4818 0-0.8724-0.4968-0.8724-1.111 0-0.6125 0.3906-1.108 0.8724-1.108 0.4832 0 0.8724 0.4954 0.8724 1.108z" stroke-width="1.361"/><path class="st0" d="m206.8 188.2c0 0.6138-0.3934 1.109-0.8724 1.109-0.4818 0-0.8711-0.4954-0.8711-1.109 0-0.6125 0.3893-1.111 0.8711-1.111 0.4791-1e-3 0.8724 0.4982 0.8724 1.111z" stroke-width="1.361"/><path class="st0" d="m209.6 190.6c0 0.6125-0.3893 1.107-0.8738 1.107-0.4805 0-0.8724-0.4941-0.8724-1.107 0-0.6152 0.392-1.109 0.8724-1.109 0.4832 0 0.8738 0.4941 0.8738 1.109z" stroke-width="1.361"/><path class="st0" d="m212 194.8c0 0.6125-0.3879 1.108-0.8738 1.108-0.4832 0-0.8725-0.4954-0.8725-1.108 0-0.6138 0.3893-1.111 0.8725-1.111 0.4859 0 0.8738 0.4968 0.8738 1.111z" stroke-width="1.361"/><path class="st0" d="m208.5 196.8c0 0.6152-0.3879 1.111-0.8697 1.111-0.4832 0-0.8738-0.4954-0.8738-1.111 0-0.6111 0.3906-1.107 0.8738-1.107 0.4805 1e-3 0.8697 0.4954 0.8697 1.107z" stroke-width="1.361"/><path class="st0" d="m205.2 199.3c0 0.6111-0.3906 1.109-0.8724 1.109-0.4818 0-0.8725-0.4982-0.8725-1.109 0-0.6152 0.3906-1.112 0.8725-1.112 0.4818 1e-3 0.8724 0.4968 0.8724 1.112z" stroke-width="1.361"/><path class="st0" d="m198.7 199.9c0 0.6098-0.3893 1.108-0.8711 1.108-0.4832 0-0.8738-0.4982-0.8738-1.108 0-0.6166 0.3906-1.111 0.8738-1.111 0.4818-1e-3 0.8711 0.4941 0.8711 1.111z" stroke-width="1.361"/><path class="st0" d="m193.9 197.3c0 0.6138-0.3906 1.109-0.8738 1.109-0.4818 0-0.8724-0.4954-0.8724-1.109 0-0.6125 0.3906-1.111 0.8724-1.111s0.8738 0.4982 0.8738 1.111z" stroke-width="1.361"/><path class="st0" d="m189.7 193.9c0 0.6111-0.3906 1.109-0.8724 1.109s-0.8725-0.4982-0.8725-1.109c0-0.6179 0.3906-1.111 0.8725-1.111 0.4832 0 0.8724 0.4927 0.8724 1.111z" stroke-width="1.361"/><path class="st0" d="m190.6 197.9c0 0.6138-0.3906 1.109-0.8724 1.109-0.4845 0-0.8724-0.4954-0.8724-1.109 0-0.6125 0.3893-1.111 0.8724-1.111 0.4818-1e-3 0.8724 0.4982 0.8724 1.111z" stroke-width="1.361"/><path class="st0" d="m191.7 201.5c0 0.6166-0.392 1.109-0.8738 1.109-0.4818 0-0.8725-0.4941-0.8725-1.109 0-0.6125 0.3906-1.108 0.8725-1.108 0.4818 0 0.8738 0.4954 0.8738 1.108z" stroke-width="1.361"/><path class="st0" d="m191.5 204.8c0 0.6125-0.3906 1.107-0.8725 1.107-0.4832 0-0.8724-0.4941-0.8724-1.107 0-0.6152 0.3893-1.109 0.8724-1.109 0.4805 0 0.8725 0.4941 0.8725 1.109z" stroke-width="1.361"/><path class="st0" d="m194.8 206.4c0 0.6138-0.3893 1.109-0.8711 1.109-0.4818 0-0.8738-0.4954-0.8738-1.109 0-0.6125 0.3906-1.111 0.8738-1.111 0.4805 0 0.8711 0.4982 0.8711 1.111z" stroke-width="1.361"/><path class="st0" d="m200.9 204.4c0 0.6111-0.3906 1.107-0.8738 1.107-0.4805 0-0.8711-0.4954-0.8711-1.107 0-0.6152 0.3906-1.111 0.8711-1.111 0.4832 0 0.8738 0.4954 0.8738 1.111z" stroke-width="1.361"/><path class="st0" d="m203.7 203.7c0 0.6111-0.3906 1.109-0.8725 1.109-0.4845 0-0.8724-0.4982-0.8724-1.109 0-0.6152 0.3879-1.111 0.8724-1.111 0.4832-1e-3 0.8725 0.4954 0.8725 1.111z" stroke-width="1.361"/><path class="st0" d="m208.9 202.6c0 0.6152-0.3906 1.111-0.8724 1.111s-0.8724-0.4954-0.8724-1.111c0-0.6111 0.3906-1.109 0.8724-1.109s0.8724 0.4995 0.8724 1.109z" stroke-width="1.361"/><path class="st0" d="m214 201.2c0 0.6138-0.3906 1.111-0.8738 1.111-0.4818 0-0.8725-0.4968-0.8725-1.111 0-0.6111 0.3906-1.108 0.8725-1.108 0.4832 0 0.8738 0.4968 0.8738 1.108z" stroke-width="1.361"/><path class="st0" d="m216.6 199.3c0 0.6111-0.3906 1.109-0.8724 1.109-0.4805 0-0.8725-0.4982-0.8725-1.109 0-0.6152 0.392-1.112 0.8725-1.112 0.4805 1e-3 0.8724 0.4968 0.8724 1.112z" stroke-width="1.361"/><path class="st0" d="m216.1 196.1c0 0.6152-0.3906 1.111-0.8724 1.111-0.4791 0-0.8684-0.4954-0.8684-1.111 0-0.6111 0.3906-1.107 0.8684-1.107 0.4805 0 0.8724 0.4954 0.8724 1.107z" stroke-width="1.361"/><path class="st0" d="m219.2 194.1c0 0.6125-0.3879 1.111-0.8725 1.111-0.4791 0-0.8724-0.4982-0.8724-1.111 0-0.6138 0.3934-1.111 0.8724-1.111 0.4846 0 0.8725 0.4968 0.8725 1.111z" stroke-width="1.361"/><path class="st0" d="m221.6 188.6c0 0.6152-0.3893 1.109-0.8724 1.109-0.4846 0-0.8724-0.4941-0.8724-1.109 0-0.6125 0.3879-1.109 0.8724-1.109 0.4832-1e-3 0.8724 0.4954 0.8724 1.109z" stroke-width="1.361"/><path class="st0" d="m225.5 182.6c0 0.6166-0.392 1.112-0.8724 1.112s-0.8711-0.4954-0.8711-1.112c0-0.6098 0.3906-1.107 0.8711-1.107 0.4805 1e-3 0.8724 0.4968 0.8724 1.107z" stroke-width="1.361"/><path class="st0" d="m228.6 179.5c0 0.6152-0.3893 1.109-0.8724 1.109-0.4805 0-0.8724-0.4941-0.8724-1.109 0-0.6125 0.392-1.109 0.8724-1.109 0.4832-1e-3 0.8724 0.4968 0.8724 1.109z" stroke-width="1.361"/><path class="st0" d="m232.5 177.3c0 0.6111-0.392 1.108-0.8724 1.108-0.4832 0-0.8724-0.4968-0.8724-1.108 0-0.6152 0.3879-1.111 0.8724-1.111 0.4818-1e-3 0.8724 0.4941 0.8724 1.111z" stroke-width="1.361"/><path class="st0" d="m232.7 170.8c0 0.6125-0.3934 1.112-0.8738 1.112-0.4845 0-0.8724-0.4982-0.8724-1.112s0.3879-1.111 0.8724-1.111c0.4818 0 0.8738 0.4968 0.8738 1.111z" stroke-width="1.361"/><path class="st0" d="m231.4 167.7c0 0.6125-0.3906 1.108-0.8725 1.108-0.4832 0-0.8724-0.4954-0.8724-1.108 0-0.6138 0.3893-1.109 0.8724-1.109 0.4832 0 0.8725 0.4954 0.8725 1.109z" stroke-width="1.361"/><path class="st0" d="m235.5 179.3c0 0.6152-0.3879 1.112-0.8684 1.112-0.4818 0-0.8724-0.4954-0.8724-1.112 0-0.6111 0.3906-1.111 0.8724-1.111 0.4791 0 0.8684 0.4995 0.8684 1.111z" stroke-width="1.361"/><path class="st0" d="m231 182.4c0 0.6152-0.3906 1.111-0.8738 1.111-0.4832 0-0.8724-0.4954-0.8724-1.111 0-0.6125 0.3893-1.108 0.8724-1.108 0.4832 0 0.8738 0.4954 0.8738 1.108z" stroke-width="1.361"/><path class="st0" d="m234.5 181.7c0 0.6111-0.392 1.107-0.8724 1.107s-0.8697-0.4954-0.8697-1.107c0-0.6152 0.3879-1.111 0.8697-1.111 0.4805 0 0.8724 0.4954 0.8724 1.111z" stroke-width="1.361"/><path class="st0" d="m237.3 181.7c0 0.6111-0.3879 1.107-0.8724 1.107-0.4791 0-0.8724-0.4954-0.8724-1.107 0-0.6152 0.3934-1.111 0.8724-1.111 0.4845 0 0.8724 0.4954 0.8724 1.111z" stroke-width="1.361"/><path class="st0" d="m214.4 204.8c0 0.6125-0.3906 1.107-0.8725 1.107-0.4859 0-0.8738-0.4941-0.8738-1.107 0-0.6152 0.3879-1.109 0.8738-1.109 0.4818 0 0.8725 0.4941 0.8725 1.109z" stroke-width="1.361"/><path class="st0" d="m210 206.1c0 0.6152-0.3893 1.109-0.8752 1.109-0.4791 0-0.8725-0.4941-0.8725-1.109 0-0.6125 0.3934-1.107 0.8725-1.107 0.4859 0 0.8752 0.4941 0.8752 1.107z" stroke-width="1.361"/><path class="st0" d="m208.7 209.9c0 0.6152-0.3893 1.109-0.8724 1.109-0.4805 0-0.8697-0.4941-0.8697-1.109 0-0.6125 0.3879-1.107 0.8697-1.107 0.4818 1e-3 0.8724 0.4954 0.8724 1.107z" stroke-width="1.361"/><path class="st0" d="m206.1 209.2c0 0.6138-0.3879 1.108-0.8711 1.108-0.4818 0-0.8724-0.4941-0.8724-1.108 0-0.6138 0.3906-1.109 0.8724-1.109 0.4832 0 0.8711 0.4954 0.8711 1.109z" stroke-width="1.361"/><path class="st0" d="m202.8 207.5c0 0.6152-0.3893 1.109-0.8724 1.109-0.4845 0-0.8738-0.4941-0.8738-1.109 0-0.6152 0.3906-1.109 0.8738-1.109 0.4832 0 0.8724 0.4941 0.8724 1.109z" stroke-width="1.361"/><path class="st0" d="m201.1 211.5c0 0.6138-0.3879 1.109-0.8725 1.109-0.4805 0-0.8724-0.4954-0.8724-1.109 0-0.6125 0.392-1.112 0.8724-1.112 0.4846 0 0.8725 0.4995 0.8725 1.112z" stroke-width="1.361"/><path class="st0" d="m198 209.9c0 0.6152-0.3906 1.109-0.8738 1.109-0.4818 0-0.8711-0.4941-0.8711-1.109 0-0.6125 0.3893-1.107 0.8711-1.107 0.4832 1e-3 0.8738 0.4954 0.8738 1.107z" stroke-width="1.361"/><path class="st0" d="m195 211.2c0 0.6152-0.3906 1.109-0.8724 1.109-0.4818 0-0.8725-0.4941-0.8725-1.109 0-0.6125 0.3906-1.109 0.8725-1.109 0.4818 0 0.8724 0.4968 0.8724 1.109z" stroke-width="1.361"/><path class="st0" d="m192.1 208.8c0 0.6111-0.3893 1.107-0.8725 1.107-0.4818 0-0.8724-0.4954-0.8724-1.107 0-0.6179 0.3906-1.111 0.8724-1.111 0.4832-1e-3 0.8725 0.4927 0.8725 1.111z" stroke-width="1.361"/><path class="st0" d="m191.3 211.9c0 0.6152-0.3906 1.109-0.8724 1.109s-0.8724-0.4941-0.8724-1.109c0-0.6125 0.3906-1.109 0.8724-1.109 0.4818-1e-3 0.8724 0.4968 0.8724 1.109z" stroke-width="1.361"/><path class="st0" d="m193.2 213.7c0 0.6125-0.3906 1.108-0.8724 1.108s-0.8711-0.4954-0.8711-1.108c0-0.6138 0.3893-1.109 0.8711-1.109s0.8724 0.4954 0.8724 1.109z" stroke-width="1.361"/><path class="st0" d="m192.6 217.4c0 0.6125-0.3893 1.111-0.8711 1.111-0.4832 0-0.8738-0.4995-0.8738-1.111 0-0.6138 0.3906-1.111 0.8738-1.111s0.8711 0.4968 0.8711 1.111z" stroke-width="1.361"/><path class="st0" d="m192.1 221.2c0 0.6138-0.3893 1.109-0.8725 1.109-0.4818 0-0.8724-0.4954-0.8724-1.109 0-0.6125 0.3906-1.111 0.8724-1.111 0.4832 0 0.8725 0.4982 0.8725 1.111z" stroke-width="1.361"/><path class="st0" d="m195.4 219.4c0 0.6152-0.3893 1.111-0.8724 1.111-0.4818 0-0.8711-0.4954-0.8711-1.111 0-0.6111 0.3893-1.107 0.8711-1.107 0.4832 0 0.8724 0.4954 0.8724 1.107z" stroke-width="1.361"/><path class="st0" d="m197.4 215c0 0.6152-0.3906 1.112-0.8724 1.112s-0.8711-0.4954-0.8711-1.112c0-0.6111 0.3893-1.107 0.8711-1.107 0.4818 1e-3 0.8724 0.4968 0.8724 1.107z" stroke-width="1.361"/><path class="st0" d="m199.8 213.9c0 0.6125-0.3906 1.107-0.8724 1.107-0.4818 0-0.8711-0.4941-0.8711-1.107 0-0.6152 0.3893-1.109 0.8711-1.109 0.4818-1e-3 0.8724 0.4927 0.8724 1.109z" stroke-width="1.361"/><path class="st0" d="m199.1 217.4c0 0.6125-0.3879 1.111-0.8724 1.111-0.4818 0-0.8725-0.4995-0.8725-1.111 0-0.6138 0.3906-1.111 0.8725-1.111 0.4832 0 0.8724 0.4968 0.8724 1.111z" stroke-width="1.361"/><path class="st0" d="m197.2 221c0 0.6152-0.3893 1.109-0.8711 1.109s-0.8738-0.4941-0.8738-1.109c0-0.6125 0.392-1.109 0.8738-1.109s0.8711 0.4968 0.8711 1.109z" stroke-width="1.361"/><path class="st0" d="m200 221c0 0.6152-0.3893 1.109-0.8711 1.109s-0.8724-0.4941-0.8724-1.109c0-0.6125 0.3906-1.109 0.8724-1.109s0.8711 0.4968 0.8711 1.109z" stroke-width="1.361"/><path class="st0" d="m202.8 218.1c0 0.6125-0.3893 1.108-0.8724 1.108-0.4845 0-0.8738-0.4954-0.8738-1.108 0-0.6138 0.3906-1.111 0.8738-1.111 0.4832 0 0.8724 0.4968 0.8724 1.111z" stroke-width="1.361"/><path class="st0" d="m204.6 214.3c0 0.6125-0.3934 1.108-0.8738 1.108-0.4846 0-0.8724-0.4954-0.8724-1.108 0-0.6138 0.3879-1.109 0.8724-1.109 0.4791-1e-3 0.8738 0.4941 0.8738 1.109z" stroke-width="1.361"/><path class="st0" d="m206.5 215.9c0 0.6138-0.3906 1.108-0.8724 1.108-0.4818 0-0.8711-0.4941-0.8711-1.108s0.3879-1.111 0.8711-1.111c0.4805 0 0.8724 0.4968 0.8724 1.111z" stroke-width="1.361"/><path class="st0" d="m209.2 217.7c0 0.6138-0.3879 1.111-0.8725 1.111-0.4791 0-0.8697-0.4968-0.8697-1.111s0.3906-1.108 0.8697-1.108c0.4832 0 0.8725 0.4941 0.8725 1.108z" stroke-width="1.361"/><path class="st0" d="m208.3 220.6c0 0.6152-0.3879 1.109-0.8697 1.109-0.4805 0-0.8724-0.4954-0.8724-1.109 0-0.6125 0.392-1.111 0.8724-1.111s0.8697 0.4982 0.8697 1.111z" stroke-width="1.361"/><path class="st0" d="m212.2 220.1c0 0.6152-0.3879 1.111-0.8724 1.111-0.4832 0-0.8724-0.4954-0.8724-1.111 0-0.6111 0.3893-1.107 0.8724-1.107 0.4845-1e-3 0.8724 0.4941 0.8724 1.107z" stroke-width="1.361"/><path class="st0" d="m212.2 217c0 0.6138-0.3879 1.111-0.8724 1.111-0.4832 0-0.8724-0.4968-0.8724-1.111 0-0.6152 0.3893-1.108 0.8724-1.108 0.4845-1e-3 0.8724 0.4927 0.8724 1.108z" stroke-width="1.361"/><path class="st0" d="m212.9 213.2c0 0.6125-0.3906 1.109-0.8738 1.109-0.4845 0-0.8738-0.4968-0.8738-1.109 0-0.6152 0.3893-1.109 0.8738-1.109 0.4832 0 0.8738 0.4941 0.8738 1.109z" stroke-width="1.361"/><path class="st0" d="m213.1 210.3c0 0.6152-0.3879 1.112-0.8725 1.112-0.4832 0-0.8724-0.4954-0.8724-1.112 0-0.6111 0.3893-1.108 0.8724-1.108 0.4846 0 0.8725 0.4968 0.8725 1.108z" stroke-width="1.361"/><path class="st0" d="m216.4 211.7c0 0.6152-0.392 1.111-0.8725 1.111-0.4832 0-0.8738-0.4954-0.8738-1.111 0-0.6111 0.3906-1.109 0.8738-1.109 0.4805 0 0.8725 0.4982 0.8725 1.109z" stroke-width="1.361"/><path class="st0" d="m217.7 208.3c0 0.6111-0.3906 1.111-0.8697 1.111-0.4805 0-0.8724-0.5009-0.8724-1.111 0-0.6138 0.3906-1.111 0.8724-1.111 0.4791-1e-3 0.8697 0.4968 0.8697 1.111z" stroke-width="1.361"/><path class="st0" d="m218.8 213.7c0 0.6125-0.3906 1.108-0.8724 1.108-0.4805 0-0.8725-0.4954-0.8725-1.108 0-0.6138 0.392-1.109 0.8725-1.109 0.4832 0 0.8724 0.4954 0.8724 1.109z" stroke-width="1.361"/><path class="st0" d="m217.4 218.6c0 0.6098-0.3879 1.107-0.8711 1.107-0.4805 0-0.8725-0.4954-0.8725-1.107 0-0.6152 0.392-1.111 0.8725-1.111 0.4832-1e-3 0.8711 0.4941 0.8711 1.111z" stroke-width="1.361"/><path class="st0" d="m218.1 221.7c0 0.6125-0.3906 1.109-0.8738 1.109-0.4791 0-0.8684-0.4968-0.8684-1.109 0-0.6152 0.3893-1.109 0.8684-1.109 0.4832 0 0.8738 0.4941 0.8738 1.109z" stroke-width="1.361"/><path class="st0" d="m214.6 216.3c0 0.6166-0.3906 1.111-0.8684 1.111-0.4846 0-0.8724-0.4941-0.8724-1.111 0-0.6111 0.3879-1.109 0.8724-1.109 0.4777 0 0.8684 0.4982 0.8684 1.109z" stroke-width="1.361"/><path class="st0" d="m174 176.4c0 0.6125-0.3893 1.107-0.8711 1.107-0.4818 0-0.8725-0.4941-0.8725-1.107 0-0.6152 0.3906-1.109 0.8725-1.109 0.4832 0 0.8711 0.4941 0.8711 1.109z" stroke-width="1.361"/><path class="st0" d="m170.8 175.1c0 0.6152-0.3906 1.109-0.8724 1.109-0.4832 0-0.8725-0.4941-0.8725-1.109s0.3906-1.109 0.8725-1.109c0.4818 0 0.8724 0.4941 0.8724 1.109z" stroke-width="1.361"/><path class="st0" d="m169 178.2c0 0.6166-0.3893 1.111-0.8724 1.111-0.4818 0-0.8724-0.4941-0.8724-1.111 0-0.6111 0.392-1.107 0.8724-1.107 0.4832 0 0.8724 0.4954 0.8724 1.107z" stroke-width="1.361"/><path class="st0" d="m171.4 180.4c-0.1225 0.5989-0.6043 1.004-1.077 0.9065-0.4723-0.1007-0.7554-0.6669-0.6315-1.267 0.1225-0.6016 0.6043-1.004 1.077-0.9065 0.4723 0.098 0.7527 0.6656 0.6315 1.267z" stroke-width="1.361"/><path class="st0" d="m343.5 151c0 0.4301-1.806 0.7785-4.033 0.7785-2.229 0-4.033-0.3471-4.033-0.7785 0-0.4287 1.805-0.7772 4.033-0.7772 2.227 0 4.033 0.3471 4.033 0.7772z" stroke-width="1.361"/><path class="st0" d="m340.9 154.1c0 0.4288-1.808 0.7745-4.036 0.7745s-4.033-0.3444-4.033-0.7745c0-0.4315 1.805-0.7758 4.033-0.7758 2.227 0 4.036 0.3444 4.036 0.7758z" stroke-width="1.361"/><path class="st0" d="m337.6 157c0 0.4301-1.803 0.7772-4.034 0.7772-2.228 0-4.033-0.3484-4.033-0.7772s1.805-0.7772 4.033-0.7772c2.231 1e-3 4.034 0.3484 4.034 0.7772z" stroke-width="1.361"/><path class="st0" d="m335 160.5c0 0.4287-1.809 0.7772-4.038 0.7772-2.225 0-4.033-0.3471-4.033-0.7772 0-0.4288 1.808-0.7772 4.033-0.7772 2.231 0 4.038 0.3484 4.038 0.7772z" stroke-width="1.361"/><path class="st0" d="m333 164.5c0 0.4328-1.808 0.7785-4.038 0.7785-2.228 0-4.034-0.3457-4.034-0.7785 0-0.4287 1.806-0.7772 4.034-0.7772 2.229 1e-3 4.038 0.3498 4.038 0.7772z" stroke-width="1.361"/><path class="st0" d="m254.7 138.9c0 3.062-0.3403 5.546-0.7595 5.546-0.426 0-0.7649-2.484-0.7649-5.546 0-3.064 0.3389-5.549 0.7649-5.549 0.4192 0 0.7595 2.485 0.7595 5.549z" stroke-width="1.361"/><path class="st0" d="m257.8 135.8c0 3.064-0.343 5.548-0.7636 5.548-0.4233 0-0.7649-2.484-0.7649-5.548 0-3.06 0.343-5.545 0.7649-5.545 0.4219-1e-3 0.7636 2.485 0.7636 5.545z" stroke-width="1.361"/><path class="st0" d="m261.3 133.6c0 3.062-0.3376 5.548-0.7636 5.548-0.4219 0-0.7608-2.485-0.7608-5.548 0-3.064 0.3389-5.548 0.7608-5.548 0.426 0 0.7636 2.484 0.7636 5.548z" stroke-width="1.361"/><path class="st0" d="m265.2 130.7c0 3.06-0.343 5.544-0.7622 5.544-0.4246 0-0.7663-2.484-0.7663-5.544 0-3.064 0.343-5.548 0.7663-5.548 0.4192 1e-3 0.7622 2.484 0.7622 5.548z" stroke-width="1.361"/><path class="st0" d="m270 126.5c0 3.064-0.3389 5.548-0.7649 5.548-0.4206 0-0.7595-2.484-0.7595-5.548 0-3.061 0.3389-5.544 0.7595-5.544 0.426 0 0.7649 2.483 0.7649 5.544z" stroke-width="1.361"/><path class="st0" d="m274.8 122.3c0 3.064-0.3416 5.548-0.7622 5.548-0.4246 0-0.7636-2.484-0.7636-5.548 0-3.061 0.3403-5.546 0.7636-5.546 0.4219 0 0.7622 2.485 0.7622 5.546z" stroke-width="1.361"/><path class="st0" d="m279.4 116.3c0 2.204-0.3389 3.993-0.7636 3.993-0.4206 0-0.7595-1.788-0.7595-3.993 0-2.206 0.3389-3.995 0.7595-3.995 0.4233 1e-3 0.7636 1.79 0.7636 3.995z" stroke-width="1.361"/><path class="st0" d="m284.5 111.8c0 2.205-0.3389 3.993-0.7636 3.993-0.4219 0-0.7636-1.788-0.7636-3.993 0-2.206 0.3416-3.996 0.7636-3.996 0.4233 0 0.7636 1.79 0.7636 3.996z" stroke-width="1.361"/><path class="st0" d="m290 106.5c0 2.205-0.343 3.995-0.7636 3.995-0.4219 0-0.7649-1.79-0.7649-3.995s0.343-3.993 0.7649-3.993c0.4206 1e-3 0.7636 1.79 0.7636 3.993z" stroke-width="1.361"/><path class="st0" d="m308.7 140c0 2.202-0.343 3.995-0.7636 3.995-0.4219 0-0.7636-1.791-0.7636-3.995s0.3416-3.996 0.7636-3.996c0.4206 0 0.7636 1.793 0.7636 3.996z" stroke-width="1.361"/><path class="st0" d="m304.6 145.1c0 2.206-0.3403 3.999-0.7595 3.999-0.4233 0-0.7636-1.793-0.7636-3.999 0-2.201 0.3389-3.993 0.7636-3.993 0.4192 0 0.7595 1.793 0.7595 3.993z" stroke-width="1.361"/><path class="st0" d="m301.3 150.4c0 2.204-0.3376 3.993-0.7636 3.993-0.4206 0-0.7608-1.79-0.7608-3.993 0-2.205 0.3389-3.995 0.7608-3.995 0.426 0 0.7636 1.791 0.7636 3.995z" stroke-width="1.361"/><path class="st0" d="m297.8 155.5c0 2.205-0.3416 3.993-0.7636 3.993-0.4219 0-0.7636-1.788-0.7636-3.993 0-2.206 0.3403-3.995 0.7636-3.995 0.4219 0 0.7636 1.79 0.7636 3.995z" stroke-width="1.361"/><path class="st0" d="m293.2 159.1c0 2.206-0.3389 3.996-0.7636 3.996-0.4206 0-0.7595-1.79-0.7595-3.996 0-2.202 0.3389-3.993 0.7595-3.993 0.4247 0 0.7636 1.791 0.7636 3.993z" stroke-width="1.361"/><path class="st0" d="m290 163.5c0 2.205-0.343 3.996-0.7636 3.996-0.4219 0-0.7649-1.791-0.7649-3.996 0-2.204 0.343-3.995 0.7649-3.995 0.4206 0 0.7636 1.791 0.7636 3.995z" stroke-width="1.361"/><path class="st0" d="m286 168.4c0 2.206-0.3389 3.998-0.7608 3.998-0.4247 0-0.7636-1.791-0.7636-3.998 0-2.201 0.3389-3.993 0.7636-3.993 0.4219 0 0.7608 1.793 0.7608 3.993z" stroke-width="1.361"/><path class="st0" d="m281.2 171.7c0 2.204-0.3403 3.993-0.7636 3.993-0.4206 0-0.7636-1.788-0.7636-3.993 0-2.206 0.343-3.995 0.7636-3.995 0.4219 0 0.7636 1.788 0.7636 3.995z" stroke-width="1.361"/><path class="st0" d="m277.3 175.5c0 2.206-0.3376 3.995-0.7595 3.995-0.4247 0-0.7636-1.788-0.7636-3.995 0-2.204 0.3389-3.993 0.7636-3.993 0.4219 0 0.7595 1.79 0.7595 3.993z" stroke-width="1.361"/><path class="st0" d="m294.5 114.5c0 4.531-0.3389 8.21-0.7608 8.21-0.4247 0-0.7636-3.679-0.7636-8.21 0-4.534 0.3389-8.21 0.7636-8.21 0.4219 0 0.7608 3.676 0.7608 8.21z" stroke-width="1.361"/><path class="st0" d="m290.6 122.3c0 4.534-0.343 8.211-0.7663 8.211-0.4192 0-0.7595-3.678-0.7595-8.211 0-4.531 0.3416-8.21 0.7595-8.21 0.4233 0 0.7663 3.679 0.7663 8.21z" stroke-width="1.361"/><path class="st0" d="m286.5 129.5c0 6.306-0.3389 11.43-0.7608 11.43-0.4233 0-0.7636-5.12-0.7636-11.43 0-6.31 0.3389-11.43 0.7636-11.43 0.4219 0 0.7608 5.118 0.7608 11.43z" stroke-width="1.361"/><path class="st0" d="m282.8 134.2c0 6.307-0.343 11.42-0.7663 11.42-0.4219 0-0.7622-5.118-0.7622-11.42 0-6.311 0.3389-11.43 0.7622-11.43 0.4233 0 0.7663 5.116 0.7663 11.43z" stroke-width="1.361"/><path class="st0" d="m279 141.3c0 6.309-0.343 11.43-0.7622 11.43-0.4246 0-0.7676-5.119-0.7676-11.43 0-6.311 0.343-11.42 0.7676-11.42 0.4192 0 0.7622 5.114 0.7622 11.42z" stroke-width="1.361"/><path class="st0" d="m275.8 146.7c0 6.309-0.3389 11.43-0.7636 11.43-0.4246 0-0.7649-5.118-0.7649-11.43 0-6.311 0.3389-11.43 0.7649-11.43 0.4233 0 0.7636 5.115 0.7636 11.43z" stroke-width="1.361"/><path class="st0" d="m272.1 153.5c0 6.307-0.3416 11.43-0.7636 11.43-0.4219 0-0.7636-5.119-0.7636-11.43 0-6.309 0.3416-11.43 0.7636-11.43 0.4219-1e-3 0.7636 5.118 0.7636 11.43z" stroke-width="1.361"/><path class="st0" d="m267.9 157.8c0 6.306-0.3389 11.42-0.7622 11.42-0.4233 0-0.7636-5.119-0.7636-11.42 0-6.309 0.3389-11.43 0.7636-11.43 0.4233-1e-3 0.7622 5.119 0.7622 11.43z" stroke-width="1.361"/><path class="st0" d="m292.1 191.3c0 6.307-0.3403 11.42-0.7649 11.42-0.4206 0-0.7608-5.118-0.7608-11.42 0-6.313 0.3389-11.43 0.7608-11.43 0.4246 0 0.7649 5.115 0.7649 11.43z" stroke-width="1.361"/><path class="st0" d="m296.5 184.4c0 6.306-0.3416 11.43-0.7595 11.43-0.4246 0-0.7663-5.122-0.7663-11.43 0-6.31 0.343-11.43 0.7663-11.43 0.4178 1e-3 0.7595 5.122 0.7595 11.43z" stroke-width="1.361"/><path class="st0" d="m300 177.7c0 6.31-0.3416 11.43-0.7663 11.43-0.4192 0-0.7622-5.118-0.7622-11.43 0-6.311 0.343-11.43 0.7622-11.43 0.4233 0 0.7663 5.116 0.7663 11.43z" stroke-width="1.361"/><path class="st0" d="m304.3 168.6c0 6.311-0.3389 11.43-0.7622 11.43-0.4247 0-0.7636-5.118-0.7636-11.43 0-6.309 0.3389-11.42 0.7636-11.42 0.4233 0 0.7622 5.115 0.7622 11.42z" stroke-width="1.361"/><path class="st0" d="m307.8 161.1c0 6.306-0.343 11.43-0.7636 11.43-0.4219 0-0.7649-5.122-0.7649-11.43 0-6.31 0.343-11.43 0.7649-11.43 0.4206 0 0.7636 5.119 0.7636 11.43z" stroke-width="1.361"/><path class="st0" d="m311.8 152.7c0 6.306-0.3389 11.42-0.7636 11.42-0.4219 0-0.7622-5.119-0.7622-11.42 0-6.309 0.3389-11.43 0.7622-11.43 0.4233 0 0.7636 5.12 0.7636 11.43z" stroke-width="1.361"/><path class="st0" d="m316.3 146.2c0 4.626-0.3416 8.377-0.7636 8.377-0.4206 0-0.7636-3.751-0.7636-8.377 0-4.624 0.343-8.375 0.7636-8.375 0.4219 0 0.7636 3.752 0.7636 8.375z" stroke-width="1.361"/>
</svg>
