<?xml version="1.0" encoding="UTF-8"?>
<svg enable-background="new 0 0 283.46 283.4646" image-rendering="optimizeQuality" shape-rendering="geometricPrecision" text-rendering="geometricPrecision" version="1.1" viewBox="0 0 283.5 283.5" xml:space="preserve" xmlns="http://www.w3.org/2000/svg">
<style type="text/css">
	.st0{fill-rule:evenodd;clip-rule:evenodd;fill:#007CC3;}
	.st1{fill-rule:evenodd;clip-rule:evenodd;fill:#FDEE23;}
	.st2{fill:#FF0000;}
	.st3{fill-rule:evenodd;clip-rule:evenodd;fill:#FF0000;}
	.st4{fill-rule:evenodd;clip-rule:evenodd;fill:#FFFFFF;}
	.st5{fill-rule:evenodd;clip-rule:evenodd;}
	.st6{fill:#FFFFFF;}
	.st7{fill-rule:evenodd;clip-rule:evenodd;fill:#00FF00;}
	.st8{fill-rule:evenodd;clip-rule:evenodd;fill:#FF0974;}
</style>

		<circle class="st0" cx="141.7" cy="141.7" r="141.7"/>
		<circle class="st1" cx="141.7" cy="141.7" r="136.1"/>
		<circle class="st0" cx="141.7" cy="141.7" r="132.7"/>
		<circle class="st1" cx="141.7" cy="141.7" r="120.6"/>
		<circle class="st0" cx="141.7" cy="141.7" r="93.62"/>
		<circle class="st1" cx="268.4" cy="141.7" r="2.934"/>
		<circle class="st1" cx="268" cy="131.8" r="2.934"/>
		<circle class="st1" cx="266.9" cy="121.9" r="2.934"/>
		<circle class="st1" cx="264.9" cy="112.2" r="2.934"/>
		<circle class="st1" cx="262.2" cy="102.6" r="2.934"/>
		<circle class="st1" cx="258.8" cy="93.25" r="2.934"/>
		<circle class="st1" cx="254.6" cy="84.22" r="2.934"/>
		<circle class="st1" cx="249.8" cy="75.54" r="2.934"/>
		<circle class="st1" cx="244.2" cy="67.27" r="2.934"/>
		<circle class="st1" cx="238.2" cy="59.4" r="2.934"/>
		<circle class="st1" cx="231.3" cy="52.15" r="2.934"/>
		<circle class="st1" cx="224" cy="45.4" r="2.934"/>
		<circle class="st1" cx="216.2" cy="39.24" r="2.934"/>
		<circle class="st1" cx="207.9" cy="33.71" r="2.934"/>
		<circle class="st1" cx="199.2" cy="28.85" r="2.934"/>
		<circle class="st1" cx="190.2" cy="24.69" r="2.934"/>
		<circle class="st1" cx="180.9" cy="21.24" r="2.934"/>
		<circle class="st1" cx="171.3" cy="18.54" r="2.934"/>
		<circle class="st1" cx="161.5" cy="16.6" r="2.934"/>
		<circle class="st1" cx="151.7" cy="15.29" r="2.934"/>
		<circle class="st1" cx="141.7" cy="15.04" r="2.934"/>
		<circle class="st1" cx="131.8" cy="15.43" r="2.934"/>
		<circle class="st1" cx="121.9" cy="16.6" r="2.934"/>
		<circle class="st1" cx="112.2" cy="18.54" r="2.934"/>
		<circle class="st1" cx="102.6" cy="21.24" r="2.934"/>
		<circle class="st1" cx="93.25" cy="24.69" r="2.934"/>
		<circle class="st1" cx="84.21" cy="28.85" r="2.934"/>
		<circle class="st1" cx="75.53" cy="33.71" r="2.934"/>
		<circle class="st1" cx="67.26" cy="39.24" r="2.934"/>
		<circle class="st1" cx="59.4" cy="45.24" r="2.934"/>
		<circle class="st1" cx="52.15" cy="52.15" r="2.934"/>
		<circle class="st1" cx="45.39" cy="59.45" r="2.934"/>
		<circle class="st1" cx="39.24" cy="67.27" r="2.934"/>
		<circle class="st1" cx="33.71" cy="75.54" r="2.934"/>
		<circle class="st1" cx="28.85" cy="84.22" r="2.934"/>
		<circle class="st1" cx="24.68" cy="93.25" r="2.934"/>
		<circle class="st1" cx="21.24" cy="102.6" r="2.934"/>
		<circle class="st1" cx="18.54" cy="112.2" r="2.934"/>
		<circle class="st1" cx="16.6" cy="121.9" r="2.934"/>
		<circle class="st1" cx="15.28" cy="131.7" r="2.934"/>
		<circle class="st1" cx="15.04" cy="141.7" r="2.934"/>
		<circle class="st1" cx="15.43" cy="151.7" r="2.934"/>
		<circle class="st1" cx="16.6" cy="161.6" r="2.934"/>
		<circle class="st1" cx="18.54" cy="171.3" r="2.934"/>
		<circle class="st1" cx="21.24" cy="180.9" r="2.934"/>
		<circle class="st1" cx="24.68" cy="190.2" r="2.934"/>
		<circle class="st1" cx="28.85" cy="199.2" r="2.934"/>
		<circle class="st1" cx="33.71" cy="207.9" r="2.934"/>
		<circle class="st1" cx="39.23" cy="216.2" r="2.934"/>
		<circle class="st1" cx="45.24" cy="224.1" r="2.934"/>
		<circle class="st1" cx="231.3" cy="231.3" r="2.934"/>
		<circle class="st1" cx="238.1" cy="224" r="2.934"/>
		<circle class="st1" cx="244.2" cy="216.2" r="2.934"/>
		<circle class="st1" cx="249.8" cy="207.9" r="2.934"/>
		<circle class="st1" cx="254.6" cy="199.2" r="2.934"/>
		<circle class="st1" cx="258.8" cy="190.2" r="2.934"/>
		<circle class="st1" cx="262.2" cy="180.9" r="2.934"/>
		<circle class="st1" cx="264.9" cy="171.3" r="2.934"/>
		<circle class="st1" cx="266.9" cy="161.6" r="2.934"/>
		<circle class="st1" cx="268.2" cy="151.7" r="2.934"/>
		<circle class="st1" cx="141.7" cy="268.4" r="2.934"/>
		<circle class="st1" cx="151.7" cy="268" r="2.934"/>
		<circle class="st1" cx="161.5" cy="266.9" r="2.934"/>
		<circle class="st1" cx="171.3" cy="264.9" r="2.934"/>
		<circle class="st1" cx="180.9" cy="262.2" r="2.934"/>
		<circle class="st1" cx="190.2" cy="258.8" r="2.934"/>
		<circle class="st1" cx="199.2" cy="254.6" r="2.934"/>
		<circle class="st1" cx="207.9" cy="249.8" r="2.934"/>
		<circle class="st1" cx="216.2" cy="244.2" r="2.934"/>
		<circle class="st1" cx="224.1" cy="238.2" r="2.934"/>
		<circle class="st1" cx="52.15" cy="231.3" r="2.934"/>
		<circle class="st1" cx="59.45" cy="238.1" r="2.934"/>
		<circle class="st1" cx="67.26" cy="244.2" r="2.934"/>
		<circle class="st1" cx="75.53" cy="249.8" r="2.934"/>
		<circle class="st1" cx="84.21" cy="254.6" r="2.934"/>
		<circle class="st1" cx="93.25" cy="258.8" r="2.934"/>
		<circle class="st1" cx="102.6" cy="262.2" r="2.934"/>
		<circle class="st1" cx="112.2" cy="264.9" r="2.934"/>
		<circle class="st1" cx="121.9" cy="266.9" r="2.934"/>
		<circle class="st1" cx="131.7" cy="268.2" r="2.934"/>
	
		<path class="st2" d="m244.1 106.4c-2.134-4.427-4.968-10.31-4.987-10.35-.8929-1.854.7951-3.2 1.818-3.238-.9964-.9411-2.516-.659-3.258-.0751-.3892-.6165-1.284-1.737-2.11-2.047-.2741.8382.0439 2.237.2829 2.926-.9193.2157-2.087 1.227-1.974 2.593.6681-.777 2.772-1.256 3.665.5981.0193.0402 2.85 5.925 4.979 10.35z"/>
		<path class="st2" d="m247.2 116.8c.5105 4.889 1.191 11.38 1.196 11.43.2149 2.047 2.358 2.305 3.248 1.799-.3529 1.324-1.794 1.882-2.732 1.776-.007.7291-.1797 2.153-.7194 2.85-.6735-.5692-1.138-1.927-1.297-2.638-.8955.2996-2.42.0527-3.042-1.169.9768.3101 3.019-.3884 2.804-2.435-.004-.0448-.688-6.539-1.205-11.43z"/>
		<path class="st2" d="m39.39 106.4c2.134-4.427 4.968-10.31 4.987-10.35.8929-1.854-.7951-3.2-1.818-3.238.9964-.9411 2.516-.659 3.258-.0751.3892-.6165 1.284-1.737 2.11-2.047.2741.8382-.0439 2.237-.2829 2.926.9193.2157 2.087 1.227 1.974 2.593-.6681-.777-2.772-1.256-3.665.5981-.0193.0402-2.85 5.925-4.979 10.35z"/>
		<path class="st2" d="m36.29 116.8c-.5105 4.889-1.191 11.38-1.196 11.43-.2149 2.047-2.358 2.305-3.248 1.799.3529 1.324 1.794 1.882 2.732 1.776.0071.7291.1797 2.153.7194 2.85.6735-.5692 1.138-1.927 1.297-2.638.8955.2996 2.42.0527 3.042-1.169-.9768.3101-3.019-.3884-2.804-2.435.0045-.0448.688-6.539 1.205-11.43z"/>
		<path class="st2" d="m245.8 171.5c.7912-4.851 1.844-11.29 1.852-11.34.3322-2.031 2.487-2.165 3.346-1.609-.2764-1.342-1.682-1.983-2.625-1.93.0349-.7282-.0553-2.16-.5542-2.887-.705.5292-1.247 1.858-1.446 2.559-.8768-.3506-2.413-.1919-3.104.9915.993-.2531 2.991.5616 2.659 2.592-.007.0445-1.063 6.488-1.86 11.34z"/>
		<path class="st2" d="m242.4 181.8c-2.386 4.297-5.553 10.01-5.575 10.05-.9981 1.8.6094 3.241 1.629 3.337-1.049.8824-2.549.5134-3.256-.1125-.4241.5933-1.382 1.661-2.224 1.922-.2254-.8524.1723-2.231.4507-2.905-.9054-.2681-2.013-1.345-1.822-2.702.6222.8141 2.696 1.413 3.693-.3861.0218-.0394 3.187-5.751 5.567-10.05z"/>
		<path class="st2" d="m37.63 171.5c-.7911-4.851-1.844-11.29-1.852-11.34-.3322-2.031-2.487-2.165-3.346-1.609.2764-1.342 1.682-1.983 2.625-1.93-.0349-.7282.0553-2.16.5542-2.887.705.5292 1.247 1.858 1.446 2.559.8768-.3506 2.413-.1919 3.104.9915-.993-.2531-2.991.5616-2.659 2.592.0074.0445 1.063 6.488 1.86 11.34z"/>
		<path class="st2" d="m41.04 181.8c2.386 4.297 5.553 10.01 5.575 10.05.9981 1.8-.6095 3.241-1.629 3.337 1.049.8824 2.549.5134 3.256-.1125.4241.5933 1.382 1.661 2.224 1.922.2254-.8524-.1723-2.231-.4507-2.905.9054-.2681 2.013-1.345 1.822-2.702-.6222.8141-2.696 1.413-3.693-.3861-.0218-.0394-3.187-5.751-5.567-10.05z"/>
		<path class="st2" d="m208.5 227c3.491-3.459 8.131-8.054 8.163-8.085 1.463-1.448 3.285-.29 3.653.6653.5658-1.248-.1956-2.593-.9893-3.105.4561-.5686 1.225-1.78 1.248-2.661-.8816.0139-2.101.7699-2.674 1.22-.5031-.7991-1.84-1.574-3.094-1.022.9522.3787 2.09 2.212.6276 3.66-.032.0315-4.674 4.624-8.169 8.079z"/>
		<path class="st2" d="m199.7 233.3c-4.456 2.074-10.37 4.832-10.41 4.851-1.866.8694-1.412 2.98-.6437 3.656-1.367.0975-2.364-1.083-2.568-2.005-.6917.2307-2.094.5312-2.929.2478.3189-.8221 1.451-1.704 2.072-2.085-.5749-.7492-.8379-2.271.1145-3.257.0249 1.025 1.35 2.728 3.215 1.859.0408-.019 5.958-2.78 10.41-4.859z"/>
		<path class="st2" d="m75 227c-3.491-3.459-8.131-8.054-8.163-8.085-1.463-1.448-3.285-.29-3.653.6653-.5658-1.248.1956-2.593.9893-3.105-.4561-.5686-1.225-1.78-1.248-2.661.8816.0139 2.101.7699 2.674 1.22.5032-.7991 1.84-1.574 3.094-1.022-.9522.3787-2.09 2.212-.6276 3.66.032.0315 4.674 4.624 8.169 8.079z"/>
		<path class="st2" d="m83.8 233.3c4.456 2.074 10.37 4.832 10.41 4.851 1.866.8694 1.412 2.98.6437 3.656 1.367.0975 2.364-1.083 2.568-2.005.6917.2307 2.094.5312 2.929.2478-.3189-.8221-1.451-1.704-2.072-2.085.5749-.7492.8379-2.271-.1145-3.257-.0249 1.025-1.35 2.728-3.215 1.859-.0408-.019-5.958-2.78-10.41-4.859z"/>
		<path class="st2" d="m146.9 249.9c4.848-.8056 11.29-1.873 11.33-1.88 2.03-.3365 2.848 1.661 2.597 2.654 1.183-.6919 1.339-2.229.9867-3.106.701-.2004 2.028-.7447 2.557-1.45-.7276-.498-2.16-.5859-2.888-.5499.051-.9428-.5916-2.348-1.934-2.623.5581.8595.4272 3.014-1.603 3.349-.0442.007-6.486 1.073-11.34 1.872z"/>
		<path class="st2" d="m136.1 249.9c-4.835-.8824-11.26-2.052-11.3-2.06-2.025-.3685-2.874 1.616-2.638 2.612-1.172-.7106-1.303-2.25-.9374-3.121-.6976-.2115-2.016-.7767-2.534-1.49.7353-.4867 2.169-.5519 2.896-.5043-.0363-.9434.6287-2.338 1.976-2.591-.572.8504-.4751 3.006 1.549 3.375.0442.008 6.469 1.175 11.31 2.051z"/>
		<path class="st2" d="m45.85 115.1c-.6284-.9663-1.601-1.727-2.762-2.025-1.322-.3407-2.661-.0981-3.675.6681-.959.7243-1.638 1.854-1.913 3.181-.2611 1.256-.1633 2.719.2877 4.347 1.256 4.526 2.872 10.33 4.201 15.11.3572 2.202-.7016 3.217-2.832 4.796 3.708-.5083 6.427-.9607 5.014-6.021-1.308-4.684-2.837-10.09-4.065-14.52-.3385-1.218-.4241-2.308-.2477-3.157.1534-.7367.5204-1.372 1.009-1.741.4411-.3336 1.054-.4331 1.675-.2721.8912.2296 1.264.6386 1.473 1.487.0499.5933-.2565 1.227-.8107 1.387-.9045.2611-2.092-.3413-2.356-1.236-.3234 1.694-.0357 3.489 3.075 3.842-1.287 3.064-.9108 6.928 3.073 8.639-.8997-3.146-1.022-5.364-.6885-8.523.1936-1.898.6276-3.666-.1984-5.491-.0749-.1657-.1605-.3202-.2594-.4727z"/>
		<path class="st2" d="m116.9 255 17.24-3.634c1.236-.2608 2.331-.2775 3.167-.0485.726.1987 1.336.606 1.674 1.118.305.4612.3654 1.077.1655 1.688-.2072.6355-.6644 1.152-1.223 1.381-.7336.3835-1.758-.0471-1.936-.8218-.2152-.9366.4175-2.316 1.454-2.48-1.645-.5139-3.486.1131-4.19 3.165-3.255-1.406-8.806-2.029-10.57 2.068 4.244-1.175 7.756-.2438 10.18.2874 2.007.4399 3.903.8555 5.988-.001 1.249-.5128 2.214-1.571 2.648-2.902.4241-1.298.2653-2.65-.4348-3.711-.6622-1.003-1.747-1.752-3.054-2.11-1.237-.3393-2.703-.3345-4.357.0139l-17.24 3.634c-2.598.5488-3.913-1.104-5.483-3.548.45 3.868.8267 6.985 5.968 5.901z"/>
		<path class="st2" d="m140.6 241.2c.7526.8731 1.211 2.019 1.174 3.218-.042 1.364-.6489 2.583-1.668 3.342-.9632.7186-2.238 1.055-3.589.9488-1.279-.1003-2.656-.6026-4.094-1.49-3.996-2.47-9.118-5.642-13.34-8.252-2.015-.9578-3.285-.2242-5.396 1.38 1.523-3.419 2.717-5.903 7.182-3.134 4.133 2.564 8.9 5.542 12.8 7.956 1.075.6644 2.098 1.051 2.962 1.119.75.0584 1.462-.1168 1.953-.4825.4436-.3305.7101-.8912.7291-1.532.0284-.9198-.2605-1.392-1.016-1.829-.5559-.2135-1.25-.0964-1.558.3912-.5029.7957-.256 2.104.5298 2.608-1.717-.1621-3.361-.9397-2.831-4.025-3.302.3804-6.907-1.06-7.438-5.363 2.77 1.742 4.865 2.48 7.991 3.041 1.876.3438 3.696.4207 5.217 1.724.1383.1182.2628.2435.3815.3813z"/>
		<path class="st2" d="m166.6 255-17.24-3.64c-1.236-.2611-2.331-.2784-3.167-.0496-.726.1987-1.336.6055-1.674 1.117-.305.4612-.3657 1.077-.1661 1.688.2072.6355.6639 1.152 1.222 1.382.7336.3838 1.758-.0465 1.937-.8209.2151-.9366-.417-2.317-1.453-2.481 1.645-.5134 3.486.1142 4.189 3.166 3.256-1.405 8.806-2.026 10.57 2.071-4.244-1.176-7.756-.2466-10.18.2837-2.007.4394-3.903.8541-5.988-.003-1.248-.5131-2.213-1.571-2.647-2.903-.4235-1.298-.2645-2.65.4363-3.71.6624-1.003 1.748-1.752 3.055-2.109 1.238-.3387 2.704-.3333 4.357.0153l17.24 3.64c2.598.5496 3.913-1.103 5.484-3.546-.4512 3.868-.8293 6.985-5.97 5.899z"/>
		<path class="st2" d="m142.9 241.2c-.7526.8728-1.212 2.019-1.175 3.218.0414 1.364.648 2.583 1.666 3.343.9629.7191 2.237 1.056 3.588.9502 1.279-.0998 2.657-.6018 4.094-1.489 3.997-2.468 9.12-5.638 13.34-8.247 2.015-.9573 3.285-.2234 5.395 1.382-1.522-3.419-2.715-5.904-7.18-3.136-4.134 2.562-8.902 5.539-12.81 7.952-1.075.6642-2.099 1.051-2.963 1.118-.7503.0581-1.462-.1173-1.953-.4833-.4436-.3305-.7098-.8912-.7285-1.532-.0281-.9201.2611-1.392 1.017-1.829.5559-.2132 1.25-.0958 1.558.3917.5029.796.2554 2.104-.5304 2.608 1.717-.1618 3.361-.9388 2.832-4.024 3.301.3815 6.908-1.057 7.44-5.36-2.771 1.742-4.866 2.478-7.993 3.038-1.876.3433-3.696.4195-5.218 1.722-.1384.1178-.2628.2431-.3819.3809z"/>
		<path class="st3" d="m104.9 242.3c.2874-.9343 1.278-1.459 2.212-1.171.9343.2872 1.459 1.278 1.171 2.212-.2871.9343-1.278 1.459-2.212 1.172-.9344-.2875-1.459-1.278-1.172-2.212zm5.913-4.305c.9771-.0156 1.782.7645 1.798 1.742.0156.9774-.7642 1.782-1.742 1.798-.9774.0156-1.782-.7645-1.798-1.742-.0154-.977.7644-1.782 1.742-1.797zm-.0148-.9317c1.491-.0235 2.72 1.167 2.744 2.659.006.3702-.0635.724-.1933 1.047.2418-.1979.5227-.3566.8359-.4637 1.411-.4833 2.948.2693 3.431 1.68.4833 1.411-.2693 2.948-1.68 3.431-.2472.0848-.4992.1313-.7478.1431.199.1497.3815.3291.5383.538.8958 1.193.6545 2.887-.538 3.782-1.193.8958-2.887.6545-3.783-.538-.1987-.2648-.3419-.5542-.4309-.8541-.074.3407-.2157.6724-.4286.9757-.8575 1.22-2.543 1.515-3.763.6571-1.221-.8578-1.515-2.543-.6573-3.764.2908-.4139.6761-.7211 1.107-.9133-.4575.1122-.9505.1066-1.434-.0422-1.426-.4385-2.227-1.95-1.788-3.376.4385-1.426 1.95-2.227 3.376-1.788.3538.1089.669.2838.9363.5071-.1134-.2908-.1774-.6075-.1828-.938-.0234-1.491 1.167-2.72 2.659-2.744zm5.936 5.224c.3166.9247-.1763 1.931-1.101 2.248-.9247.3166-1.931-.1763-2.248-1.101s.1763-1.931 1.101-2.248c.9247-.3166 1.931.1764 2.248 1.101zm-2.106 6.848c.7815-.5871.9394-1.696.3526-2.478-.5871-.7818-1.696-.9397-2.478-.3526-.7818.5868-.9394 1.696-.3526 2.478.5868.7816 1.697.9397 2.478.3527zm-7.31.2233c.7997.5618 1.904.3691 2.466-.4306.5621-.7997.3693-1.904-.4303-2.466-.7997-.5618-1.904-.3691-2.466.4306-.5621.8-.3691 1.904.4306 2.466zm5.176-5.716c.3169.9247-.1763 1.931-1.101 2.248-.9247.3166-1.931-.1763-2.248-1.101s.1763-1.931 1.101-2.248c.9247-.3169 1.931.1763 2.248 1.101z"/>
		<path class="st2" d="m56.1 220 16.19 6.965c1.16.4992 2.065 1.116 2.616 1.785.4788.5808.743 1.265.724 1.878-.0164.5528-.3217 1.091-.8374 1.475-.5357.4-1.206.5584-1.795.4246-.8204-.1094-1.41-1.052-1.109-1.787.364-.8895 1.676-1.653 2.617-1.189-1.048-1.368-2.915-1.917-5.248.1721-1.85-3.025-6.028-6.732-9.827-4.398 4.146 1.485 6.479 4.27 8.154 6.1 1.387 1.516 2.697 2.948 4.895 3.449 1.316.3005 2.714-.008 3.836-.8459 1.094-.8167 1.744-2.013 1.782-3.283.0363-1.201-.4184-2.439-1.28-3.484-.8158-.9901-2.017-1.831-3.569-2.499l-16.19-6.965c-2.44-1.048-2.562-3.157-2.437-6.059-1.861 3.42-3.349 6.185 1.477 8.262z"/>
		<path class="st2" d="m83.37 222.3c.112 1.147-.1738 2.348-.8949 3.306-.8201 1.091-2.018 1.737-3.289 1.771-1.201.0323-2.437-.4269-3.48-1.292-.9876-.8186-1.824-2.023-2.487-3.577-1.843-4.321-4.202-9.865-6.145-14.43-1.095-1.944-2.555-2.076-5.205-1.981 3.215-1.916 5.622-3.259 7.675 1.576 1.901 4.477 4.081 9.658 5.881 13.88.4955 1.162 1.109 2.069 1.776 2.622.5794.4799 1.263.7472 1.874.731.553-.0144 1.094-.3192 1.479-.8322.5533-.7356.589-1.288.2231-2.081-.3314-.4949-.966-.7991-1.499-.5783-.8697.3606-1.422 1.572-1.07 2.436-1.309-1.122-2.205-2.704.0057-4.921-2.917-1.591-5.035-4.846-2.989-8.669 1.26 3.02 2.548 4.83 4.78 7.09 1.336 1.362 2.778 2.473 3.271 4.415.0449.1759.0744.3499.0923.5311z"/>
		<path class="st2" d="m96.73 248.6-11.99-12.91c-.8597-.9258-1.745-1.57-2.559-1.865-.7078-.256-1.441-.275-2.012-.0516-.5151.2013-.9196.6695-1.109 1.284-.197.6389-.121 1.324.203 1.833.3781.7362 1.464.9751 2.056.4448.7155-.6415.9941-2.134.2418-2.865 1.64.5284 2.784 2.102 1.6 5.001 3.47.7274 8.365 3.418 7.442 7.78-2.791-3.406-6.197-4.67-8.483-5.633-1.894-.7974-3.683-1.551-4.893-3.453-.7248-1.139-.9034-2.559-.491-3.898.4017-1.305 1.311-2.318 2.494-2.781 1.119-.4374 2.438-.4246 3.712.0366 1.207.436 2.402 1.285 3.552 2.523l11.99 12.91c1.807 1.946 3.834 1.354 6.525.2619-2.597 2.901-4.702 5.231-8.278 1.382z"/>
		<path class="st2" d="m85.32 223.7c-1.118.2798-2.154.9519-2.814 1.953-.752 1.139-.9584 2.484-.5638 3.692.3728 1.142 1.22 2.152 2.385 2.844 1.103.6554 2.518 1.039 4.204 1.142 4.689.2852 10.7.6466 15.65.9448 2.199.3787 2.813 1.71 3.614 4.238.7259-3.672 1.183-6.39-4.062-6.701-4.855-.2877-10.47-.6021-15.05-.8802-1.261-.0763-2.321-.3504-3.066-.7931-.6466-.3847-1.128-.9386-1.318-1.52-.1721-.5256-.0666-1.138.2874-1.672.5074-.7679 1.016-.9873 1.885-.9085.5771.1457 1.077.6418 1.048 1.218-.0476.9403-1.004 1.867-1.936 1.826 1.496.8569 3.288 1.17 4.633-1.657 2.479 2.214 6.255 3.116 9.169-.0944-3.268-.1732-5.405-.779-8.283-2.122-1.732-.8008-3.262-1.787-5.257-1.599-.1809.0165-.355.0471-.5313.0911z"/>
		<path class="st3" d="m55.38 198.8c.9771-.0278 1.792.7421 1.819 1.719.0278.9771-.7421 1.792-1.719 1.819-.9768.0278-1.792-.7424-1.819-1.719-.0275-.9769.7424-1.792 1.72-1.819zm5.974 4.219c.3283.9207-.1522 1.933-1.073 2.262s-1.933-.1522-2.262-1.073.1525-1.934 1.073-2.262c.9208-.3282 1.934.1523 2.262 1.073zm.8776-.3126c.5009 1.405-.2327 2.951-1.638 3.452-.3489.1244-.7061.1723-1.054.1531.265.1655.5054.3807.7075.6429.9105 1.182.6905 2.878-.491 3.789s-2.878.6905-3.789-.491c-.1596-.2069-.2843-.4306-.3753-.6622-.078.2364-.1894.4669-.337.6823-.8425 1.231-2.524 1.546-3.755.7038-1.231-.8422-1.546-2.524-.7038-3.755.1868-.273.415-.5015.6704-.682-.3464.0391-.7061.0113-1.062-.093-1.431-.4207-2.25-1.923-1.83-3.354.4207-1.431 1.922-2.251 3.354-1.83.485.1426.9.4091 1.22.7552-.2534-.3971-.4059-.866-.4201-1.371-.042-1.491 1.133-2.735 2.624-2.777 1.491-.0419 2.735 1.133 2.777 2.624.0105.3699-.0541.7248-.18 1.05.2392-.201.5185-.3631.8297-.4742 1.405-.5006 2.951.2327 3.452 1.638zm-3.044 7.298c-.7741.5967-1.886.4524-2.482-.3217s-.4524-1.886.3217-2.482c.7741-.5964 1.886-.4524 2.482.3217.5964.7741.4524 1.886-.3217 2.482zm-7.161.2021c.8065.5519 1.908.3456 2.46-.4612.5522-.8067.3458-1.908-.4609-2.46s-1.908-.3453-2.46.4612-.3456 1.908.4612 2.46zm-2.557-6.852c-.2755.9374.2614 1.921 1.199 2.197.9377.2755 1.922-.2611 2.197-1.199.2758-.9377-.2611-1.922-1.199-2.197-.9377-.2755-1.922.2614-2.197 1.199zm7.075 3.068c-.7741.5964-1.886.4524-2.482-.3217-.5967-.7741-.4527-1.886.3214-2.482.7741-.5967 1.886-.4527 2.482.3217.5968.7741.4528 1.886-.3214 2.482z"/>
		<path class="st3" d="m178.6 242.3c-.2869-.9343-1.277-1.459-2.212-1.172-.9343.2866-1.459 1.277-1.172 2.211.2869.9346 1.277 1.459 2.212 1.172.9342-.2869 1.459-1.278 1.172-2.212zm-5.911-4.307c-.9774-.0156-1.782.7639-1.798 1.741-.0159.9774.7639 1.783 1.741 1.798.9774.0159 1.783-.7639 1.798-1.741.0159-.9771-.7639-1.783-1.741-1.798zm.015-.9314c-1.491-.0241-2.721 1.166-2.745 2.658-.006.3702.0632.724.1927 1.048-.2415-.1982-.5224-.3569-.8356-.4643-1.411-.4836-2.948.2684-3.432 1.679-.4836 1.411.2684 2.948 1.68 3.432.2472.0847.4989.1315.7475.1434-.199.1497-.3816.3291-.5383.538-.8963 1.192-.6557 2.886.5366 3.782 1.192.896 2.886.6557 3.783-.5369.1987-.2645.3421-.5539.4312-.8535.074.3404.2154.6724.4283.9757.8569 1.221 2.542 1.515 3.763.6582 1.221-.8572 1.516-2.543.6588-3.763-.2908-.4139-.6761-.7214-1.106-.9136.4575.1125.9505.1069 1.434-.0417 1.426-.438 2.228-1.95 1.79-3.376-.4379-1.426-1.95-2.227-3.376-1.789-.354.1086-.6693.2835-.9366.5068.1137-.2911.1777-.6075.1831-.938.0242-1.491-1.166-2.72-2.657-2.744zm-5.938 5.222c-.3169.9247.1758 1.932 1.1 2.248.9244.3169 1.931-.1757 2.248-1.1.3169-.9244-.1757-1.931-1.1-2.248-.9247-.3168-1.932.1759-2.248 1.1zm2.104 6.848c-.7815-.5871-.9388-1.696-.3518-2.478.5873-.7815 1.697-.9388 2.478-.3518.7815.5873.9388 1.697.3518 2.478-.5873.7816-1.697.9389-2.478.3515zm7.31.2263c-.7999.5615-1.904.3685-2.466-.4314-.5615-.7999-.3685-1.904.4314-2.466.7997-.5618 1.904-.3685 2.466.4312.5616.7999.3686 1.904-.4314 2.466zm-5.174-5.718c-.3169.9247.1758 1.931 1.1 2.248.9244.3169 1.931-.1757 2.248-1.1.3172-.9244-.1758-1.931-1.1-2.248-.9248-.3171-1.931.1758-2.248 1.1z"/>
		<path class="st2" d="m227.4 220-16.19 6.965c-1.16.4992-2.065 1.116-2.616 1.785-.4788.5808-.743 1.265-.724 1.878.0164.5528.3217 1.091.8374 1.475.5358.4 1.206.5584 1.795.4246.8203-.1094 1.41-1.052 1.109-1.787-.364-.8895-1.676-1.653-2.617-1.189 1.048-1.368 2.915-1.917 5.248.1721 1.85-3.025 6.028-6.732 9.827-4.398-4.146 1.485-6.479 4.27-8.154 6.1-1.387 1.516-2.697 2.948-4.895 3.449-1.316.3005-2.714-.008-3.836-.8459-1.094-.8167-1.744-2.013-1.782-3.283-.0363-1.201.4184-2.439 1.28-3.484.8158-.9901 2.017-1.831 3.569-2.499l16.19-6.965c2.44-1.048 2.562-3.157 2.437-6.059 1.861 3.42 3.349 6.185-1.477 8.262z"/>
		<path class="st2" d="m200.1 222.3c-.112 1.147.1738 2.348.8949 3.306.8201 1.091 2.018 1.737 3.289 1.771 1.201.0323 2.437-.4269 3.48-1.292.9876-.8186 1.824-2.023 2.487-3.577 1.843-4.321 4.202-9.865 6.145-14.43 1.095-1.944 2.555-2.076 5.205-1.981-3.215-1.916-5.622-3.259-7.675 1.576-1.901 4.477-4.081 9.658-5.881 13.88-.4955 1.162-1.109 2.069-1.776 2.622-.5794.4799-1.262.7472-1.874.731-.553-.0144-1.094-.3192-1.479-.8322-.5533-.7356-.5891-1.288-.2231-2.081.3314-.4949.966-.7991 1.499-.5783.8697.3606 1.422 1.572 1.07 2.436 1.309-1.122 2.205-2.704-.006-4.921 2.917-1.591 5.035-4.846 2.989-8.669-1.26 3.02-2.548 4.83-4.78 7.09-1.336 1.362-2.778 2.473-3.271 4.415-.0449.1759-.0744.3499-.0923.5311z"/>
		<path class="st2" d="m186.7 248.6 11.99-12.91c.8598-.9258 1.745-1.57 2.559-1.865.7078-.256 1.441-.275 2.012-.0516.5151.2013.9196.6695 1.109 1.284.197.6389.121 1.324-.203 1.833-.3781.7362-1.464.9751-2.056.4448-.7155-.6415-.9941-2.134-.2418-2.865-1.64.5284-2.784 2.102-1.6 5.001-3.47.7274-8.365 3.418-7.442 7.78 2.791-3.406 6.197-4.67 8.483-5.633 1.894-.7974 3.683-1.551 4.893-3.453.7248-1.139.9034-2.559.491-3.898-.4017-1.305-1.311-2.318-2.494-2.781-1.119-.4374-2.438-.4246-3.712.0366-1.207.436-2.402 1.285-3.552 2.523l-11.99 12.91c-1.807 1.946-3.834 1.354-6.525.2619 2.597 2.901 4.702 5.231 8.278 1.382z"/>
		<path class="st2" d="m198.1 223.7c1.118.2798 2.154.9519 2.814 1.953.752 1.139.9584 2.484.5638 3.692-.3728 1.142-1.22 2.152-2.385 2.844-1.103.6554-2.518 1.039-4.204 1.142-4.689.2852-10.7.6466-15.65.9448-2.198.3787-2.813 1.71-3.614 4.238-.726-3.672-1.183-6.39 4.062-6.701 4.855-.2877 10.47-.6021 15.05-.8802 1.261-.0763 2.321-.3504 3.066-.7931.6466-.3847 1.128-.9386 1.318-1.52.1721-.5256.0666-1.138-.2874-1.672-.5074-.7679-1.016-.9873-1.885-.9085-.5771.1457-1.077.6418-1.048 1.218.0476.9403 1.004 1.867 1.936 1.826-1.496.8569-3.288 1.17-4.633-1.657-2.479 2.214-6.255 3.116-9.169-.0944 3.268-.1732 5.405-.779 8.283-2.122 1.732-.8008 3.262-1.787 5.257-1.599.1811.0165.3551.0471.5315.0911z"/>
		<path class="st3" d="m228.1 198.8c-.9771-.0278-1.792.7421-1.819 1.719-.0278.9771.7421 1.792 1.719 1.819.9768.0278 1.792-.7424 1.819-1.719.0274-.9769-.7424-1.792-1.72-1.819zm-5.974 4.219c-.3282.9207.1522 1.933 1.073 2.262s1.933-.1522 2.262-1.073c.3282-.9207-.1525-1.934-1.073-2.262-.9207-.3282-1.934.1523-2.262 1.073zm-.8776-.3126c-.5009 1.405.2327 2.951 1.638 3.452.3489.1244.7061.1723 1.054.1531-.265.1655-.5054.3807-.7076.6429-.9105 1.182-.6905 2.878.491 3.789s2.878.6905 3.789-.491c.1596-.2069.2843-.4306.3753-.6622.0779.2364.1894.4669.337.6823.8425 1.231 2.524 1.546 3.755.7038 1.231-.8422 1.546-2.524.7038-3.755-.1868-.273-.415-.5015-.6704-.682.3464.0391.7061.0113 1.062-.093 1.431-.4207 2.25-1.923 1.83-3.354-.4207-1.431-1.922-2.251-3.354-1.83-.485.1426-.9.4091-1.22.7552.2534-.3971.4059-.866.4201-1.371.042-1.491-1.133-2.735-2.624-2.777-1.491-.0419-2.735 1.133-2.777 2.624-.0105.3699.0541.7248.18 1.05-.2392-.201-.5185-.3631-.8297-.4742-1.405-.5006-2.951.2327-3.452 1.638zm3.044 7.298c.7742.5967 1.886.4524 2.482-.3217s.4524-1.886-.3217-2.482c-.7742-.5964-1.886-.4524-2.482.3217-.5964.7741-.4524 1.886.3217 2.482zm7.161.2021c-.8065.5519-1.908.3456-2.46-.4612-.5522-.8067-.3458-1.908.4609-2.46s1.908-.3453 2.46.4612c.5519.8064.3456 1.908-.4612 2.46zm2.557-6.852c.2755.9374-.2614 1.921-1.199 2.197-.9377.2755-1.922-.2611-2.197-1.199-.2758-.9377.2611-1.922 1.199-2.197.9377-.2755 1.922.2614 2.197 1.199zm-7.075 3.068c.7742.5964 1.886.4524 2.482-.3217.5967-.7741.4527-1.886-.3215-2.482-.7741-.5967-1.886-.4527-2.482.3217-.5967.7741-.4527 1.886.3215 2.482z"/>
		<path class="st2" d="m39.9 86.22-1.318 17.57c-.0941 1.26-.3835 2.316-.8362 3.055-.3934.6415-.9547 1.114-1.54 1.296-.5278.1641-1.136.0505-1.667-.3118-.5528-.3764-.9207-.9592-.9856-1.559-.1638-.8113.5355-1.675 1.329-1.63.9595.0547 2.108 1.047 1.977 2.088.9522-1.436.8637-3.38-1.871-4.906 2.258-2.734 4.404-7.89.9607-10.72-.0553 4.403-1.929 7.516-3.114 9.695-.9822 1.805-1.91 3.51-1.668 5.752.1443 1.342.8909 2.564 2.048 3.352 1.128.769 2.471.9935 3.684.6168 1.148-.3563 2.17-1.189 2.878-2.344.6707-1.094 1.075-2.503 1.201-4.188l1.319-17.57c.1976-2.649 2.152-3.45 4.936-4.276-3.84-.6469-6.939-1.154-7.332 4.086z"/>
		<path class="st2" d="m46.51 112.8c-1.048.479-2.277.5998-3.418.2296-1.298-.4204-2.299-1.343-2.744-2.533-.4215-1.125-.3895-2.443.0896-3.711.4527-1.2 1.32-2.383 2.572-3.516 3.486-3.149 7.96-7.184 11.64-10.51 1.482-1.668 1.131-3.092.1797-5.567 2.858 2.416 4.911 4.255 1.007 7.771-3.614 3.254-7.804 7.002-11.21 10.08-.938.8464-1.595 1.722-1.901 2.533-.2653.7041-.2957 1.437-.0814 2.01.1936.5182.6576.9306 1.268 1.128.8756.2838 1.409.138 2.04-.4663.36-.4742.4411-1.174.0587-1.606-.6236-.705-1.949-.8328-2.652-.2186.6347-1.603 1.84-2.965 4.655-1.596.5553-3.277 2.944-6.338 7.224-5.647-2.446 2.174-3.738 3.981-5.149 6.827-.8535 1.706-1.435 3.432-3.11 4.53-.152.0997-.307.1842-.4723.2602z"/>
		<path class="st3" d="m55.45 78.28c.8169.5363 1.045 1.634.508 2.451-.5363.8172-1.634 1.045-2.451.5083s-1.045-1.634-.508-2.451c.5363-.817 1.634-1.045 2.451-.508zm2.485 6.878c-.2577.9428-1.231 1.498-2.174 1.24s-1.498-1.231-1.241-2.174c.2577-.9431 1.231-1.499 2.174-1.241s1.498 1.231 1.24 2.174zm.8989.2455c-.3934 1.439-1.879 2.287-3.318 1.894-.3572-.0975-.6775-.2628-.9522-.4776.1227.2874.1967.6015.2126.932.0706 1.49-1.081 2.756-2.571 2.826-1.49.0706-2.756-1.081-2.826-2.57-.0125-.2611.013-.5159.0712-.758-.1993.1494-.4226.2744-.667.3668-1.395.5275-2.955-.1763-3.482-1.572-.5275-1.395.1763-2.955 1.572-3.482.3093-.1171.6273-.1738.94-.1755-.3061-.1664-.5854-.3949-.8172-.6837-.9329-1.164-.7455-2.865.4184-3.797 1.164-.9332 2.865-.7458 3.798.4181.3163.3946.504.8504.5683 1.318.0198-.4708.163-.9425.4405-1.365.8186-1.247 2.494-1.594 3.741-.7758 1.247.8186 1.594 2.494.7756 3.741-.2032.3095-.4592.5632-.7481.7577.311-.0278.6327-.0011.9516.0862 1.439.3932 2.287 1.879 1.894 3.318zm-6.672 4.244c-.9763.0462-1.806-.7081-1.852-1.684-.0462-.9763.7081-1.805 1.684-1.852s1.805.7078 1.852 1.684c.0463.9761-.7077 1.806-1.684 1.852zm-5.989-3.932c.3458.9142 1.367 1.375 2.281 1.03.9145-.3458 1.375-1.367 1.03-2.281-.3458-.9145-1.367-1.375-2.282-1.03-.9141.3459-1.375 1.368-1.03 2.282zm1.824-7.083c-.7625.6111-.8853 1.725-.2741 2.488.6114.7625 1.725.8853 2.488.2741.7625-.6112.8853-1.725.2741-2.488-.6115-.7625-1.726-.8852-2.488-.2738zm4.046 6.564c-.9763.0462-1.805-.7078-1.852-1.684-.0465-.9765.7078-1.806 1.684-1.852s1.805.7078 1.852 1.684c.0461.9763-.7082 1.806-1.684 1.852z"/>
		<path class="st2" d="m26.03 134 8.303-15.54c.5956-1.114.9173-2.161.9306-3.027.0119-.7526-.2089-1.452-.6058-1.919-.358-.4218-.9323-.6517-1.575-.6304-.6681.0215-1.291.3163-1.668.7883-.5729.5973-.4456 1.701.2486 2.089.8393.468 2.341.2458 2.788-.7036.034 1.723-1.082 3.316-4.209 3.14.4416 3.518-.51 9.022-4.935 9.569 2.313-3.748 2.399-7.379 2.566-9.855.1378-2.05.2682-3.987 1.673-5.75.841-1.056 2.126-1.687 3.526-1.733 1.365-.0448 2.619.4853 3.441 1.454.7781.9159 1.195 2.167 1.174 3.522-.0198 1.283-.4337 2.69-1.23 4.18l-8.303 15.54c-1.252 2.342-.0323 4.065 1.876 6.256-3.589-1.512-6.477-2.744-4-7.378z"/>
		<path class="st3" d="m34.91 149c.9771-.015 1.758-.8198 1.742-1.797-.0147-.9774-.8195-1.758-1.797-1.742-.9774.0147-1.758.8198-1.742 1.797.0151.9771.8198 1.758 1.797 1.742zm5.784-4.476c.2877-.934-.2364-1.925-1.17-2.212-.9343-.2877-1.925.2364-2.212 1.171-.2877.934.2364 1.925 1.17 2.212.9342.2877 1.925-.2367 2.212-1.171zm.8904.2741c.4391-1.425-.3611-2.938-1.787-3.377-.3538-.1088-.7129-.1412-1.06-.1069.2577-.1769.4887-.4022.6789-.6729.858-1.22.5644-2.906-.6557-3.764-1.22-.858-2.906-.5644-3.764.6559-.1505.2137-.2653.4425-.3461.6778-.0882-.2327-.2098-.4581-.3665-.667-.8952-1.193-2.589-1.435-3.782-.5392-1.193.8952-1.435 2.589-.5394 3.782.1987.2648.4365.4833.6999.6523-.3478-.0238-.7061.0196-1.056.1392-1.411.4827-2.164 2.019-1.682 3.43s2.019 2.164 3.43 1.682c.4785-.1636.8813-.4479 1.186-.8076-.2356.4079-.3677.883-.36 1.388.0232 1.491 1.252 2.682 2.743 2.66 1.492-.0233 2.683-1.252 2.66-2.743-.0057-.3702-.0859-.7217-.2256-1.041.2477.1899.5338.3399.8495.4374 1.426.4388 2.938-.3615 3.377-1.787zm-3.359-7.159c-.7994-.5621-1.904-.3699-2.466.4297-.5621.7994-.3699 1.904.4297 2.466.7994.5624 1.904.3699 2.466-.4297.5622-.7994.37-1.904-.4297-2.466zm-7.163.1105c.7815-.5865 1.891-.4283 2.478.3535.5868.7818.4286 1.891-.3532 2.478-.7818.5865-1.892.4283-2.478-.3535-.5869-.7817-.4284-1.892.3534-2.478zm-2.256 6.957c-.3163-.9247.1769-1.931 1.102-2.247.9249-.3163 1.932.1769 2.248 1.102.3163.9247-.1772 1.931-1.102 2.248-.925.3161-1.931-.1772-2.248-1.102zm6.934-3.374c-.7994-.5624-1.904-.3699-2.466.4295-.5624.7997-.3699 1.904.4297 2.466.7994.5621 1.904.3696 2.466-.4297.5621-.7997.3697-1.904-.4297-2.466z"/>
		<path class="st3" d="m65.42 79.67c-2.245 3.123-5.338 3.283-9.279 2.226 2.799-1.104 3.886-2.169 5.07-4.365.381.5709.4113 2.16-.4365 3.127 1.431-.1871 2.589-.3374 4.646-.9873z"/>
		<path class="st3" d="m51.66 69.84c-2.468 2.95-1.856 5.986.1451 9.541.3756-2.985 1.138-4.302 2.972-5.994-.6474-.2273-2.194.1372-2.921 1.198-.1738-1.432-.3155-2.592-.1959-4.746z"/>
		<path class="st3" d="m245.2 137.6c-.809.5482-1.02 1.649-.4717 2.458.5482.8093 1.649 1.02 2.458.472.8093-.5482 1.02-1.649.472-2.458-.5482-.809-1.649-1.02-2.458-.4717zm-2.384 6.914c.2716.9388 1.253 1.48 2.192 1.208.9391-.2716 1.48-1.253 1.208-2.192-.2716-.9391-1.253-1.48-2.192-1.209s-1.48 1.253-1.208 2.192zm-.8949.2588c.4144 1.433 1.913 2.259 3.346 1.844.3558-.1026.6735-.2727.9448-.4915-.1185.2891-.1877.6043-.1984.9352-.0488 1.491 1.121 2.739 2.612 2.788 1.491.0488 2.74-1.121 2.788-2.612.008-.2614-.0207-.5156-.0822-.7569.2013.1463.4263.2682.6721.3569 1.403.5068 2.952-.22 3.459-1.622.5068-1.403-.22-2.952-1.623-3.459-.3112-.1125-.6301-.1647-.9428-.1618.3039-.1706.5797-.4034.807-.6956.9156-1.178.7033-2.876-.4742-3.791-1.178-.9156-2.876-.7033-3.791.4742-.3104.3991-.4912.8578-.5491 1.326-.0264-.4706-.1766-.94-.4603-1.359-.8368-1.234-2.517-1.557-3.752-.7203-1.234.8368-1.557 2.518-.7203 3.752.2078.3064.4674.5567.7594.7467-.3115-.023-.6327.009-.9504.1001-1.433.4144-2.259 1.913-1.844 3.345zm6.734 4.145c.9771.0318 1.795-.7345 1.827-1.711.0318-.9771-.7347-1.795-1.712-1.827-.9768-.0317-1.795.7347-1.827 1.712-.0317.9767.7345 1.794 1.711 1.827zm5.93-4.02c-.3322.919-1.347 1.395-2.266 1.063s-1.395-1.347-1.063-2.266c.3322-.9193 1.347-1.395 2.266-1.063.919.3322 1.395 1.347 1.063 2.266zm-1.928-7.055c.7716.5998.9108 1.712.311 2.484-.6001.7716-1.712.9108-2.484.3107-.7716-.5998-.9108-1.712-.311-2.484.6001-.7716 1.712-.9108 2.484-.3107zm-3.949 6.624c.9768.0317 1.795-.7345 1.827-1.712.032-.9768-.7345-1.795-1.711-1.827-.9768-.0317-1.795.7345-1.827 1.712-.0317.9769.7345 1.795 1.711 1.827z"/>
		<path class="st3" d="m228 78.28c-.8169.5363-1.045 1.634-.508 2.451.5363.8172 1.634 1.045 2.451.5083.8172-.5363 1.045-1.634.508-2.451-.5364-.817-1.634-1.045-2.451-.508zm-2.485 6.878c.2577.9428 1.231 1.498 2.174 1.24s1.498-1.231 1.241-2.174c-.2577-.9431-1.231-1.499-2.174-1.241s-1.498 1.231-1.24 2.174zm-.8989.2455c.3934 1.439 1.879 2.287 3.318 1.894.3572-.0975.6775-.2628.9521-.4776-.1227.2874-.1967.6015-.2126.932-.0706 1.49 1.081 2.756 2.571 2.826 1.49.0706 2.756-1.081 2.826-2.57.0125-.2611-.013-.5159-.0712-.758.1993.1494.4227.2744.667.3668 1.395.5275 2.955-.1763 3.482-1.572.5275-1.395-.1763-2.955-1.572-3.482-.3093-.1171-.6273-.1738-.94-.1755.3061-.1664.5853-.3949.8172-.6837.9329-1.164.7455-2.865-.4184-3.797-1.164-.9332-2.865-.7458-3.798.4181-.3163.3946-.504.8504-.5683 1.318-.0199-.4708-.163-.9425-.4405-1.365-.8187-1.247-2.494-1.594-3.741-.7758-1.247.8186-1.594 2.494-.7756 3.741.2032.3095.4592.5632.7481.7577-.311-.0278-.6327-.0011-.9516.0862-1.439.3932-2.287 1.879-1.894 3.318zm6.672 4.244c.9763.0462 1.806-.7081 1.852-1.684.0462-.9763-.7081-1.805-1.684-1.852s-1.805.7078-1.852 1.684c-.0463.9761.7077 1.806 1.684 1.852zm5.989-3.932c-.3458.9142-1.367 1.375-2.281 1.03-.9145-.3458-1.375-1.367-1.03-2.281.3458-.9145 1.367-1.375 2.282-1.03.9141.3459 1.375 1.368 1.03 2.282zm-1.824-7.083c.7625.6111.8853 1.725.2741 2.488-.6114.7625-1.725.8853-2.488.2741-.7625-.6112-.8853-1.725-.2741-2.488.6115-.7625 1.726-.8852 2.488-.2738zm-4.046 6.564c.9762.0462 1.805-.7078 1.852-1.684.0465-.9765-.7078-1.806-1.684-1.852-.9762-.0462-1.805.7078-1.852 1.684-.0461.9763.7082 1.806 1.684 1.852z"/>
		<path class="st2" d="m243.6 86.22 1.318 17.57c.0941 1.26.3835 2.316.8362 3.055.3934.6415.9547 1.114 1.54 1.296.5278.1641 1.136.0505 1.667-.3118.5527-.3764.9207-.9592.9856-1.559.1638-.8113-.5355-1.675-1.329-1.63-.9595.0547-2.108 1.047-1.977 2.088-.9522-1.436-.8637-3.38 1.871-4.906-2.258-2.734-4.404-7.89-.9606-10.72.0553 4.403 1.929 7.516 3.114 9.695.9822 1.805 1.91 3.51 1.668 5.752-.1443 1.342-.8909 2.564-2.048 3.352-1.128.769-2.471.9935-3.684.6168-1.148-.3563-2.17-1.189-2.878-2.344-.6707-1.094-1.075-2.503-1.201-4.188l-1.319-17.57c-.1976-2.649-2.152-3.45-4.936-4.276 3.84-.6469 6.939-1.154 7.332 4.086z"/>
		<path class="st2" d="m236.9 112.8c1.048.479 2.277.5998 3.418.2296 1.298-.4204 2.299-1.343 2.744-2.533.4215-1.125.3895-2.443-.0896-3.711-.4527-1.2-1.32-2.383-2.572-3.516-3.486-3.149-7.96-7.184-11.64-10.51-1.482-1.668-1.131-3.092-.1797-5.567-2.858 2.416-4.911 4.255-1.007 7.771 3.614 3.254 7.804 7.002 11.21 10.08.938.8464 1.595 1.722 1.901 2.533.2653.7041.2957 1.437.0813 2.01-.1936.5182-.6576.9306-1.268 1.128-.8756.2838-1.409.138-2.04-.4663-.36-.4742-.4411-1.174-.0587-1.606.6236-.705 1.949-.8328 2.652-.2186-.6347-1.603-1.84-2.965-4.655-1.596-.5553-3.277-2.944-6.338-7.224-5.647 2.446 2.174 3.738 3.981 5.149 6.827.8535 1.706 1.435 3.432 3.11 4.53.1519.0997.3069.1842.4722.2602z"/>
		<path class="st2" d="m257.4 134-8.303-15.54c-.5956-1.114-.9173-2.161-.9306-3.027-.0119-.7526.2089-1.452.6058-1.919.358-.4218.9323-.6517 1.575-.6304.6681.0215 1.291.3163 1.668.7883.5729.5973.4456 1.701-.2486 2.089-.8393.468-2.341.2458-2.788-.7036-.034 1.723 1.082 3.316 4.209 3.14-.4416 3.518.51 9.022 4.935 9.569-2.313-3.748-2.399-7.379-2.566-9.855-.1378-2.05-.2681-3.987-1.673-5.75-.841-1.056-2.126-1.687-3.526-1.733-1.365-.0448-2.619.4853-3.441 1.454-.7781.9159-1.195 2.167-1.174 3.522.0199 1.283.4337 2.69 1.23 4.18l8.303 15.54c1.252 2.342.0323 4.065-1.876 6.256 3.589-1.512 6.477-2.744 4-7.378z"/>
		<path class="st2" d="m237.6 115.1c.6284-.9663 1.601-1.727 2.762-2.025 1.322-.3407 2.661-.0981 3.675.6681.959.7243 1.638 1.854 1.913 3.181.2611 1.256.1633 2.719-.2877 4.347-1.256 4.526-2.872 10.33-4.201 15.11-.3572 2.202.7016 3.217 2.832 4.796-3.708-.5083-6.427-.9607-5.014-6.021 1.308-4.684 2.837-10.09 4.065-14.52.3385-1.218.4241-2.308.2478-3.157-.1534-.7367-.5204-1.372-1.009-1.741-.4411-.3336-1.054-.4331-1.675-.2721-.8912.2296-1.264.6386-1.473 1.487-.0499.5933.2565 1.227.8107 1.387.9045.2611 2.092-.3413 2.356-1.236.3234 1.694.0357 3.489-3.075 3.842 1.287 3.064.9108 6.928-3.073 8.639.8997-3.146 1.022-5.364.6885-8.523-.1936-1.898-.6276-3.666.1984-5.491.0747-.1657.1603-.3202.2593-.4727z"/>
		<path class="st3" d="m218 79.67c2.245 3.123 5.338 3.283 9.279 2.226-2.799-1.104-3.886-2.169-5.07-4.365-.381.5709-.4113 2.16.4365 3.127-1.431-.1871-2.589-.3374-4.646-.9873z"/>
		<path class="st3" d="m231.8 69.84c2.468 2.95 1.856 5.986-.1451 9.541-.3756-2.985-1.138-4.302-2.972-5.994.6474-.2273 2.194.1372 2.921 1.198.1738-1.432.3155-2.592.1959-4.746z"/>
		<path class="st2" d="m257 154.7-8.999 15.15c-.6452 1.086-1.014 2.117-1.067 2.982-.0456.7512.1432 1.46.5185 1.945.3385.4377.9017.6934 1.545.701.6684.009 1.304-.2574 1.702-.7118.5995-.5706.5224-1.68-.1536-2.098-.8172-.5054-2.328-.3515-2.816.5766.0439-1.723 1.231-3.264 4.346-2.946-.2815-3.534.9184-8.99 5.364-9.335-2.48 3.639-2.731 7.263-3.01 9.728-.2305 2.042-.4485 3.971-1.932 5.668-.8881 1.016-2.2 1.589-3.601 1.571-1.365-.0173-2.594-.6035-3.372-1.608-.7359-.9502-1.095-2.219-1.013-3.571.0779-1.281.5553-2.667 1.418-4.12l8.999-15.15c1.358-2.283.2166-4.06-1.59-6.334 3.516 1.673 6.345 3.035 3.662 7.552z"/>
		<path class="st2" d="m236.3 172.6c.5839.9938 1.521 1.798 2.668 2.149 1.305.4 2.654.2183 3.702-.5012.9907-.68 1.72-1.778 2.055-3.091.3175-1.243.2863-2.709-.0907-4.356-1.05-4.578-2.4-10.45-3.512-15.28-.2574-2.216.8464-3.182 3.046-4.663-3.727.3399-6.464.6687-5.282 5.788 1.094 4.739 2.377 10.21 3.403 14.69.2826 1.231.3186 2.325.1043 3.165-.1865.7291-.5822 1.347-1.086 1.693-.4558.3135-1.072.3849-1.686.1962-.8802-.2699-1.234-.6953-1.404-1.552-.023-.595.3118-1.214.8728-1.349.9153-.2197 2.074.436 2.298 1.342.3997-1.677.1939-3.484-2.898-3.977 1.424-3.002 1.224-6.88-2.679-8.77.7563 3.184.7784 5.405.3016 8.545-.2792 1.887-.7928 3.634-.0505 5.495.0673.1689.1458.327.2379.4838z"/>
		<path class="st2" d="m241 201.7 2.113-17.49c.1514-1.254.4881-2.296.974-3.014.4221-.6231 1.004-1.07 1.597-1.225.5349-.14 1.137.001 1.652.3872.5349.4008.8762.9998.9139 1.602.1267.8181-.6109 1.65-1.402 1.568-.9558-.0981-2.058-1.142-1.88-2.175-1.016 1.392-1.016 3.337 1.646 4.986-2.38 2.629-4.757 7.683-1.446 10.67.2548-4.396 2.267-7.421 3.55-9.544 1.063-1.759 2.067-3.42 1.928-5.67-.0833-1.347-.7739-2.602-1.894-3.442-1.092-.8195-2.423-1.105-3.653-.7832-1.162.3042-2.222 1.09-2.981 2.212-.7194 1.062-1.187 2.452-1.39 4.129l-2.114 17.49c-.3172 2.637-2.305 3.349-5.124 4.048 3.807.8202 6.879 1.468 7.509-3.749z"/>
		<path class="st2" d="m235.6 174.9c1.069-.4311 2.302-.4961 3.425-.0745 1.278.4788 2.236 1.446 2.627 2.655.3699 1.143.2784 2.458-.2577 3.703-.5066 1.179-1.426 2.321-2.729 3.396-3.625 2.987-8.278 6.815-12.11 9.968-1.556 1.599-1.27 3.037-.4317 5.552-2.746-2.543-4.714-4.473-.6539-7.808 3.758-3.087 8.113-6.641 11.66-9.56.9754-.8033 1.672-1.648 2.014-2.444.2971-.6914.3606-1.422.1723-2.004-.1698-.5267-.6149-.9595-1.216-1.184-.8617-.3232-1.402-.2015-2.059.3733-.3813.4575-.4938 1.152-.1315 1.601.5913.7325 1.909.9201 2.639.3385-.7064 1.573-1.972 2.879-4.722 1.383-.7033 3.248-3.228 6.198-7.473 5.314 2.542-2.061 3.914-3.808 5.452-6.586.9301-1.666 1.589-3.363 3.312-4.385.1565-.0929.315-.1703.4836-.2386z"/>
		<path class="st2" d="m26.47 154.7 8.999 15.15c.6452 1.086 1.014 2.117 1.067 2.982.0456.7512-.1432 1.46-.5185 1.945-.3385.4377-.9017.6934-1.545.701-.6684.009-1.304-.2574-1.702-.7118-.5995-.5706-.5224-1.68.1536-2.098.8172-.5054 2.328-.3515 2.816.5766-.0439-1.723-1.231-3.264-4.346-2.946.2815-3.534-.9184-8.99-5.364-9.335 2.48 3.639 2.731 7.263 3.01 9.728.2305 2.042.4484 3.971 1.932 5.668.8881 1.016 2.2 1.589 3.601 1.571 1.365-.0173 2.594-.6035 3.372-1.608.7359-.9502 1.095-2.219 1.013-3.571-.078-1.281-.5553-2.667-1.418-4.12l-8.999-15.15c-1.358-2.283-.2166-4.06 1.59-6.334-3.516 1.673-6.345 3.035-3.662 7.552z"/>
		<path class="st2" d="m47.13 172.6c-.5839.9938-1.521 1.798-2.668 2.149-1.305.4-2.654.2183-3.702-.5012-.9907-.68-1.72-1.778-2.055-3.091-.3175-1.243-.2863-2.709.0907-4.356 1.05-4.578 2.4-10.45 3.512-15.28.2574-2.216-.8464-3.182-3.046-4.663 3.727.3399 6.464.6687 5.282 5.788-1.094 4.739-2.377 10.21-3.403 14.69-.2826 1.231-.3186 2.325-.1043 3.165.1865.7291.5822 1.347 1.086 1.693.4558.3135 1.072.3849 1.686.1962.8802-.2699 1.234-.6953 1.404-1.552.023-.595-.3118-1.214-.8728-1.349-.9153-.2197-2.074.436-2.298 1.342-.3997-1.677-.1939-3.484 2.898-3.977-1.424-3.002-1.224-6.88 2.679-8.77-.7563 3.184-.7784 5.405-.3016 8.545.2792 1.887.7928 3.634.0505 5.495-.0673.1689-.1458.327-.2379.4838z"/>
		<path class="st2" d="m42.5 201.7-2.113-17.49c-.1514-1.254-.4881-2.296-.974-3.014-.4221-.6231-1.004-1.07-1.597-1.225-.5349-.14-1.137.001-1.652.3872-.5349.4008-.8762.9998-.9139 1.602-.1267.8181.6109 1.65 1.402 1.568.9558-.0981 2.058-1.142 1.88-2.175 1.016 1.392 1.016 3.337-1.646 4.986 2.38 2.629 4.757 7.683 1.446 10.67-.2548-4.396-2.267-7.421-3.55-9.544-1.063-1.759-2.067-3.42-1.928-5.67.0833-1.347.7739-2.602 1.894-3.442 1.092-.8195 2.423-1.105 3.653-.7832 1.162.3042 2.222 1.09 2.981 2.212.7194 1.062 1.187 2.452 1.39 4.129l2.114 17.49c.3172 2.637 2.305 3.349 5.124 4.048-3.807.8202-6.879 1.468-7.509-3.749z"/>
		<path class="st2" d="m47.9 174.9c-1.069-.4311-2.302-.4961-3.425-.0745-1.278.4788-2.236 1.446-2.627 2.655-.3699 1.143-.2784 2.458.2577 3.703.5066 1.179 1.426 2.321 2.729 3.396 3.625 2.987 8.278 6.815 12.11 9.968 1.556 1.599 1.27 3.037.4317 5.552 2.746-2.543 4.714-4.473.654-7.808-3.758-3.087-8.113-6.641-11.66-9.56-.9754-.8033-1.672-1.648-2.014-2.444-.2971-.6914-.3606-1.422-.1723-2.004.1698-.5267.6148-.9595 1.216-1.184.8617-.3232 1.402-.2015 2.059.3733.3813.4575.4938 1.152.1315 1.601-.5913.7325-1.909.9201-2.639.3385.7064 1.573 1.972 2.879 4.722 1.383.7033 3.248 3.228 6.198 7.473 5.314-2.542-2.061-3.914-3.808-5.452-6.586-.93-1.666-1.589-3.363-3.312-4.385-.1566-.0929-.3151-.1703-.4837-.2386z"/>
	
		<path class="st2" d="m188.8 58.38c-.735-.2262-1.318-.6769-1.579-1.411-.3767-1.058-.4034-2.511-.2602-3.152.6038-2.704 2.238-5.835 3.422-8.376 1.559-3.348 4.259-4.41 7.889-3.907-2.579 1.499-3.556 2.35-4.836 5.042-.8107 1.704-1.596 2.948-2.16 4.554-1.4 3.989 2.905 4.388 4.509 1.109-.4547.0499-.8958.0221-1.306-.161-1.176-.5253-1.585-1.513-1.094-2.643.5151-1.184 1.798-1.386 2.743-.9748.7138.3104 1.089.8467 1.248 1.574.9882-.5369 1.332-1.854 1.167-2.892-.1678-1.055.3801-.716.7441-.0232.7787 1.482-.2492 4.173-1.949 4.531-.8117 3.596-4.408 7.999-8.538 6.729zm6.215-7.501c.3456.1545.7345.0978 1.121-.055.0303-.4816-.0386-.942-.5329-1.157-.8901-.3869-1.613.7543-.5885 1.212zm-13.37-3.249c1.097-2.424 2.501-4.993 3.685-6.52 1.674-2.159 4.185-3.09 7.135-2.681-2.579 1.499-3.822 2.814-5.102 5.506-.8107 1.704-1.48 3.128-2.045 4.734-.8356 2.379-.1854 3.145 1.119 2.868-.0459.0825-2.224 4.562-4.815 3.482-2.877-1.199-.8283-5.508.0229-7.388zm19.29-7.654c.3518.4158-.2769.6041-.5973.574-.5545-.0516-1.151-.3209-1.723-.6318-.1808-.0978-.1426-.1066-.3166-.2075-.2545-.1477-.7166-.3866-.9456-.5111.2529-.1233.5871-.3056.8799-.3458.1573-.0215.3328-.017.517.0085.7982.1105 1.764.6156 2.186 1.114zm-14.29-3.527c-3.63-.5032-6.33.559-7.889 3.907-.9403 2.019-1.763 4.566-2.932 6.425-.4808.7642-1.436.9598-2.199.6593-1.87-.7367-1.515-3.673-.7379-5.044.2458.4402.5598.7529.9505.9156.902.3756 1.971-.0116 2.334-.8453.362-.8331-.0969-1.902-.983-2.287-.3515-.1528-.7155-.193-1.256-.0414.1689-1.642.4799-2.971 1.677-4.128 4.298-4.155 12.66.0422 16.91 2.104 1.188.6443 1.279.6463 5.238 2.799 1.219.6432 4.302 2.141 5.19.1692.6812-1.516-1.709-2.604-2.721-3.018-1.452-.5958-2.944-.9349-4.464-.3694-.7651.2976-.6506.2993-1.42-.1077-5.043-2.671-14.54-7.589-19.68-2.504-1.541 1.523-2.078 3.566-2.089 5.715-1.911 1.323-3.434 5.719-2.626 7.925.3977 1.084 1.221 2.011 2.364 2.508 1.991.8657 4.535.2597 5.677-1.506 1.707-2.639 2.814-6.019 4.121-8.882 1.213-2.657 1.937-2.885 4.533-4.394zm-11.98 4.939c.5791.252.2679.9578-.3212.7126-.3022-.1256-.3813-.4337-.3676-.714.2353-.0938.4561-.0995.6888.0014z"/>
		<path class="st2" d="m128.1 34.22c-1.581 3.463-2.282 7.324-3.688 11.11-.8603-2.731-1.798-5.409-2.904-8.013-.7571-1.782-1.361-2.799-2.388-4.344-.6766.7946-.114 2.234.0745 3.363.4836 2.912 1.259 6.062 1.264 8.958.004 2.102-1.799 3.996-3.941 4.354-1.229.2058-2.424-.1225-3.349-.8155-1.88-1.41-2.996-5.926-2.114-8.076-1.16-1.808-1.823-3.815-1.361-5.931 1.544-7.066 11.71-8.033 17.4-8.54.8671-.0774.7705-.0167 1.25-.6829.9672-1.303 2.403-1.831 3.945-2.122 1.074-.203 3.671-.5936 3.926 1.049.33 2.137-3.072 2.56-4.444 2.685-4.493.3509-4.571.3991-5.918.5057-4.689.5871-13.52 1.544-14.86 7.369-.3736 1.623.089 2.906.8419 4.376.3711-.4215.6982-.5862 1.076-.6494.9527-.1596 1.92.4864 2.07 1.382.1502.8966-.5355 1.803-1.496 1.979-.4164.0765-.8501-.0147-1.296-.25.0952 1.574 1.396 4.23 3.366 3.829.8036-.1636 1.498-.8481 1.485-1.751-.0317-2.196-.7288-4.78-1.04-6.986-.4343-3.077.3501-6.525 3.661-7.48 1.926 3.076 3.443 6.943 4.694 10.34.6729-2.933 1.628-5.817 3.228-8.409 1.09-1.766 2.642-3.257 4.492-4.124-1.435 3.317-.8019 5.838-.4779 9.039.0927.9181.1976 1.791.4235 2.721.9975 4.108 4.827 2.098 4.386-1.525-.3546.2894-.7393.5063-1.183.5763-1.272.1996-2.153-.4065-2.356-1.621-.2129-1.273.7526-2.141 1.769-2.311.7679-.1284 1.374.1168 1.904.6406.5363-.9887.108-2.28-.5964-3.062-.7152-.7931-.0712-.8076.6114-.4249 1.46.8189 2.064 3.636.8334 4.862 1.278 3.457.6605 9.109-3.496 10.29-.7395.2106-1.474.15-2.093-.3234-.8921-.6823-1.705-1.886-1.935-2.502-.9663-2.596-1.3-6.113-1.692-8.889-.029-.2033-.0519-.4018-.0706-.5965zm-14.97 5.887c-.25.042-.4323.167-.5783.3739.1409.2426.3753.4578.697.3986.6273-.1151.504-.8768-.1187-.7725zm21.88-3.253c.3739-.0587.669-.318.9105-.6568-.2367-.4207-.5454-.769-1.077-.68-.9576.1601-.942 1.511.1664 1.337zm-3.963-11.57c-.2234.1928-.4141.472-.559.7129 1.001-.0782 2.362-.0334 3.239-.4932.2846-.1491.7189-.5936.1979-.7506-.7685-.2316-2.236-.0233-2.878.5309z"/>
		<path class="st2" d="m71.25 64.35c1.345 1.49 2.79 2.989 4.238 4.025.5343.3824 1.882.9252 3.003.9921.7775.0462 1.421-.3144 1.916-.9023 2.783-3.306.1347-8.337-2.858-10.49.3348-1.704-1.741-3.702-3.409-3.564-.7801.0643-1.306.4363-.2696.6939 1.021.2537 2.098 1.085 2.206 2.205-.7319-.1383-1.372-.0023-1.937.5335-.7478.7098-1.063 1.969-.1743 2.906.8476.8935 1.917.9031 2.86.0264.3288-.3061.5267-.7013.6588-1.14 2.392 2.758.3413 6.565-2.783 3.717-1.258-1.147-2.097-2.356-3.349-3.768-1.651-1.862-3.491-3.431-4.271-5.621.2786-.2163.561-.4371.8473-.6647 1.068-.8705 3.652-3.124 2.184-4.711-1.13-1.22-3.064.5564-3.842 1.326-1.115 1.104-1.491 1.851-1.564 3.472-.0249.8206-.5153 1.189-1.174 1.759-3.519 3.239-7.484 7.63-5.428 12.8.7999 2.013 2.471 3.306 4.445 4.156.4711 2.276 3.922 5.396 6.269 5.513 1.154.0578 2.328-.3385 3.232-1.196 1.575-1.495 2.011-4.073.8323-5.814-1.03-1.522-2.375-2.954-3.738-4.346.4748-.104.9462-.347 1.345-.7257.3651-.3464.6202-.76.76-1.187zm-2.876-14.27c.5281-.1312.3824.4226.2299.7058-.3705.6866-1.274 1.238-1.89 1.727-.0145-.2809-.0329-.6401.0445-.9249.1967-.7239.847-1.317 1.616-1.508zm-4.462 20.33c.4581-.4348.9862.1276.5304.574-.2336.229-.5482.1817-.8008.0595.0054-.2533.0865-.4589.2704-.6335zm4.526-7.034c.4992-.4737 1.16-.5871 1.476-.2543.3161.3334.1681.9873-.3311 1.461-.4989.4734-1.16.5871-1.476.2537-.3157-.3327-.1678-.9867.3311-1.46zm7.493-3.561c-.8212.7639-1.59-.347-.8855-1.015.3912-.3711.8419-.2546 1.273-.0383-.0108.4159-.1106.7957-.3878 1.054zm-8.4 2.605c-.4147.3934-.6868.8725-.8093 1.36-.1363-.1446-.271-.2891-.4031-.4334-1.972-2.155-1.614-3.856-1.56-6.679-1.994 3.027-2.672 6.835-.1996 9.578 1.491 1.654 3.514 3.406 4.768 5.21.5159.741.3226 1.697-.2523 2.282-1.409 1.434-3.972-.0403-4.931-1.292.5012-.0541.9116-.2211 1.214-.5173.6982-.6834.7594-1.818.1335-2.478-.625-.6588-1.788-.6537-2.489.0113-.2781.2639-.4572.5834-.5289 1.14-1.446-.7974-2.547-1.602-3.145-3.157-.6035-1.569-.4731-3.177.1052-4.746 1.27-3.445 3.317-5.344 5.818-7.314.7158 2.254 2.278 4.728 3.633 6.306-.4774.1031-.9525.3471-1.354.7281z"/>
		<path class="st2" d="m101 44.88c-1 .508-1.432-.7719-.5715-1.22.4782-.2489.8793-.0128 1.234.3141-.1247.3968-.3253.7344-.663.9059zm-4.58-11.44c.544.0196.2512.5117.0264.7415-.5454.5581-1.565.8388-2.293 1.14.0635-.2741.1449-.6245.2979-.877.3886-.6414 1.177-1.032 1.969-1.004zm-5.291 5.335c-2.751 2.36-4.453 5.834-2.832 9.152.9777 2.001 2.439 4.243 3.148 6.322.2914.8546-.1579 1.72-.8717 2.124-1.749.9899-3.808-1.134-4.384-2.601.4966.0862.9374.0388 1.31-.1624.8597-.4646 1.231-1.539.8116-2.345-.4192-.8056-1.539-1.121-2.396-.6752-.3402.1772-.6004.4348-.8229.9505-1.17-1.165-2.007-2.242-2.153-3.901-.1477-1.675.4209-3.184 1.409-4.533 2.17-2.961 4.661-4.222 7.608-5.427.0709 2.499.9831 5.497 1.903 7.379 1.23 2.519 2.635 5.76 4.356 7.93.4082.5148 1.554 1.408 2.613 1.782.735.2585 1.452.0893 2.09-.3396 3.587-2.411 2.427-7.977.1437-10.87.7914-1.546-.6531-4.038-2.295-4.366-.7673-.1531-1.375.0598-.4501.593.9111.5253 1.718 1.622 1.513 2.728-.6653-.3345-1.318-.3804-2.009-.021-.9145.4762-1.565 1.6-.9686 2.745.5686 1.092 1.594 1.396 2.742.8133.4005-.2035.6996-.5287.9471-.9136 1.539 3.31-1.481 6.405-3.7 2.806-.8932-1.449-1.366-2.843-2.18-4.545-1.073-2.244-2.41-4.26-2.556-6.58.3274-.131.6596-.2656.9978-.4054 1.267-.5423 4.372-1.996 3.397-3.927-.7498-1.484-3.099-.3098-4.058.2151-1.377.7537-1.943 1.369-2.461 2.906-.2503.7821-.8232 1.001-1.613 1.367-4.276 2.144-9.297 5.272-8.747 10.81.214 2.156 1.464 3.859 3.127 5.22-.1743 2.318 2.283 6.268 4.506 7.028 1.093.3736 2.332.3166 3.437-.2588 1.926-1.003 3.056-3.361 2.403-5.359-.9765-2.987-2.907-5.976-4.309-8.792-1.302-2.615-.4886-4.152.3419-6.851zm-4.601 12.98c.5601-.2917.9128.3943.3518.6979-.2877.1559-.5771.0235-.7863-.1636.0751-.242.2094-.4172.4345-.5343z"/>
		<path class="st3" d="m226.7 60.81c.2061.504-.4501.4887-.7455.3614-.5111-.2208-.995-.661-1.444-1.133-.1414-.1491-.1026-.1457-.237-.2954-.1964-.2188-.5618-.589-.7412-.7784.2786-.0388.6531-.1091.9436-.0567.1562.0281.322.0862.4893.1675.7248.3518 1.488 1.131 1.734 1.735zm-14.12-3.026c1.6 3.337 2.161 7.532-.7668 10.72-2.074 2.255-5.244 3.426-7.855 1.075-1.062-.9558-1.345-1.994-1.267-3.237-1.345.1828-2.81-.2333-3.864-1.166-.9334-.8257-1.43-1.961-1.473-3.116-.0873-2.348 2.719-6.058 4.946-6.726.6752-2.04 1.818-3.817 3.753-4.79 5.68-2.854 11.44 2.172 15.11 5.958.606.6253.498.5879 1.318.5417 1.621-.0683 2.934.7155 4.132 1.73.8339.7075 2.772 2.48 1.655 3.712-1.454 1.601-3.923-.7764-4.884-1.765-3.1-3.271-3.187-3.301-4.117-4.281-3.091-2.971-8.011-6.966-12.61-4.722-1.496.7311-2.202 1.898-2.871 3.408.5612.0232.8949.1738 1.182.4277.7234.6401.83 1.798.2279 2.479-.6024.6809-1.738.7189-2.48.0828-.3215-.2755-.5236-.6701-.6211-1.164-1.163 1.064-2.408 3.747-.8572 5.025.6327.5219 1.602.631 2.295.0527 1.687-1.407 3.256-3.575 4.774-5.205 2.517-2.702 4.595-3.602 7.892-2.001-3.102.6693-4.708 3.278-6.647 5.557-1.022 1.202-2.061 2.438-3.158 3.549-.72.7308-.722 1.981.1225 2.718 1.757 1.624 3.692-.2064 4.761-2.642 1.004-2.288 1.167-5.504 1.295-6.218zm-8.471-1.244c.4731.4187-.0411.9935-.5256.5786-.2486-.2126-.2288-.5304-.129-.7926.2526-.0167.4646.0462.6546.214zm6.769 19.27c-.629-.4422-1.044-1.051-1.066-1.83-.0312-1.123.3923-2.512.7268-3.078 1.409-2.385 3.932-4.858 5.842-6.909 2.517-2.702 4.595-3.602 7.892-2.001-3.1.6684-4.624 3.348-6.732 5.429-.739.7294-1.424 1.414-2.069 2.26-2.565 3.36 1.407 5.071 3.946 2.448-.4479-.0933-.8589-.2557-1.192-.5567-.9558-.8629-1.04-1.929-.2234-2.851.8555-.9669 2.138-.7625 2.91-.0794.5828.5156.7742 1.142.7004 1.883 1.106-.2052 1.84-1.352 2.004-2.39.1664-1.055.5828-.5635.7149.2078.2826 1.65-1.526 3.892-3.254 3.707-1.883 3.169-6.664 6.246-10.2 3.761zm8.229-5.214c.2812.2537.6684.32 1.083.2942.178-.4487.2545-.9077-.1491-1.265-.7271-.6432-1.767.2191-.9343.9706z"/>
		<path class="st2" d="m155.9 37.99c-.2772 1.989-.4963 4.058-.3591 5.834.0504.6551.5006 2.036 1.17 2.938.4646.6253 1.154.8861 1.923.8875 4.322.0071 6.473-5.256 6.198-8.931 1.521-.8393 1.717-3.713.5389-4.903-.5505-.5562-1.174-.7197-.7047.2398.4615.9451.5173 2.305-.2707 3.107-.3645-.6494-.8802-1.052-1.654-1.141-1.024-.1165-2.192.4513-2.338 1.734-.1395 1.223.5406 2.049 1.818 2.208.4462.0553.8756-.0473 1.296-.2279-.5751 3.605-4.81 4.481-4.636.2574.0697-1.701.4566-3.12.7339-4.987.3654-2.461.3847-4.88 1.56-6.884.345.0746.6956.1488 1.054.222 1.354.2588 4.74.7897 5.012-1.356.2081-1.65-2.396-1.99-3.485-2.091-1.563-.1451-2.376.0476-3.665 1.033-.6449.5083-1.242.3696-2.102.231-4.744-.6131-10.66-.8283-13.3 4.072-1.028 1.907-.9439 4.018-.3271 6.076-1.441 1.824-1.612 6.473-.1939 8.346.6973.921 1.756 1.566 2.994 1.707 2.158.2458 4.413-1.077 4.989-3.099.5034-1.768.737-3.718.9267-5.657.3847.2971.8736.502 1.42.5641.4999.0573.9807-.013 1.397-.1803zm9.084-11.38c.4402.3206-.0779.5649-.3929.6299-.7642.1576-1.767-.18-2.538-.3376.2058-.1916.4691-.4365.737-.5604.681-.3147 1.554-.1977 2.194.2681zm-18.44 9.649c.6276.0714.5363.8374-.0984.7753-.3257-.0317-.4918-.3033-.5604-.5751.1973-.1588.4071-.2289.6588-.2002zm8.297-1.054c.6837.078 1.195.5111 1.144.9672-.0522.4564-.648.7634-1.332.6854-.6834-.0777-1.195-.5108-1.143-.9675.0518-.4561.6479-.7631 1.331-.6851zm7.544 3.451c-1.113-.1378-.756-1.441.2084-1.331.5357.0609.7362.481.8478.9505-.3254.2594-.6806.4272-1.056.3804zm-7.395-4.76c-.5681-.0646-1.11.0349-1.562.2546.0233-.197.0473-.3934.0731-.5873.3832-2.896 1.916-3.715 4.114-5.488-3.6.4178-6.954 2.347-7.466 6.004-.3087 2.206-.3506 4.882-.9255 7.002-.2361.8717-1.093 1.338-1.91 1.274-2.004-.1576-2.523-3.069-2.18-4.608.3637.3492.7554.5564 1.177.5975.9726.0958 1.881-.5871 1.984-1.49.1029-.9026-.6486-1.79-1.608-1.9-.381-.0434-.7407.0247-1.214.3277-.3186-1.62-.4096-2.981.3969-4.438.8141-1.471 2.129-2.404 3.703-2.97 3.455-1.241 6.226-.894 9.342-.2443-1.266 1.997-2.157 4.785-2.496 6.837-.3858-.2996-.8782-.5069-1.428-.5695z"/>
	<path class="st4" d="m194.6 93.12-14.13-3.851-11.66 3.825-8.858-4.013-2.77 1.178-8.643-2.111-7.204 3.439-8.079-3.02-8.925-.1828-5.248 2.074-5.857 2.87-9.579-2.444-10.14.6463-4.893 1.557-5.332.4708 10.54-7.631 4.912-5.536 7.762 3.295 6.833-8.117 2.598 1.394 5.778-7.003 4.965 3.5 6.218-8.711 2.691.2415 3.328-3.712 7.957 4.383 9.102 7.134 2.943-2.114 4.255 2.276 1.901 3.421 2.49.0609 5.795 3.254 2.156 3.691 9.09-3.486 7.932 9.466 5.022 4.558z"/><path class="st5" d="m89.02 92.96v-.0034l9.442-4.169 4.042.1035 7.714-2.116 5.251.1661 2.328.9955 5.298-5.167 4.36 2.54 5.934-5.766 2.422.1525 3.055-2.742 7.102 3.131 7.726 4.582 2.735-1.541 3.785 1.608 1.682 2.482 2.242.0221 4.934-3.214 2.717 2.348 8.362-2.727 7.262 5.741 6.842 3.635v3e-4l-13.77-3.754-11.66 3.825-8.858-4.013-2.77 1.178-8.643-2.111-7.204 3.439-8.079-3.02-8.925-.1828-5.248 2.074-5.857 2.87-9.579-2.444-10.14.6466zm110.7 86.05c1.421 1.435 2.881 3.556 3.846 5.642.7033 1.521 1.047 2.96 1.32 4.464.4391 2.419.4513 4.597-.0363 6.991-.4207 2.064-1.057 4.141-1.504 6.232-.4876 2.278-.4527 3.8-.1732 4.637.1964.5891.4456.8056.7152.7897.8541-.0499 2.498-3.247 3.084-4.156 1.085-1.68 1.622-3.464 2.466-4.831 1.892-3.068 6-3.391 9.217-3.004 2.047.2463 4.022.7217 5.722 1.834 1.273.8331 2.384 1.956 3.531 3.06.7163.6891 2.728 2.651 5.102 4.577 1.709 1.387 3.604 2.537 5.161 4.074 1.25 1.234 2.313 2.742 2.496 4.541.066.6514.2018 1.496-.2271 1.937 1.532 1.629 2.256 3.506 1.917 5.188-.2469 1.228-1.102 2.334-2.413 3.264.1894 2.423-1.787 5.293-4.76 5.33.0757 1.444-.4859 2.025-1.12 2.679-1.21 1.248-3.196 1.639-5.094.9343-1.132-.4201-2.034-1.369-2.772-1.997-1.143-.1749-2.305-1.344-2.366-2.508-.0638-1.216-.0697-2.11.1318-2.974.2948-1.262.9428-2.407 1.754-3.945.6945-1.314.9156-2.292.9031-3.709-.006-.7053.0371-1.439-.2719-2.045-.4419-.8674-1.163-1.419-1.953-1.93-1.791-1.158-3.795-1.582-5.887-1.498-.6369.0255-1.417.0774-1.773.4728-.4037.4482-.7101 1.034-1.06 1.57-.8932 1.371-1.709 2.863-2.486 4.186-.432.735-.8388 1.514-1.339 2.13-.8076 1.021-1.846 1.621-2.89 2.356-2.626 1.85-5.034 3.588-7.964 4.946-3.706 1.73-7.76.5661-11.36-.9711.451 2.186 1.022 4.185 2.352 6.002 1.26 1.722 1.882 3.234 1.823 4.57-.0814 1.833-1.441 3.42-3.493 5.931-1.111 1.36-2.633 2.195-3.851 3.702-2.326 2.879-4.404 6.497-6.418 8.881-1.241 1.469-2.512 2.924-3.906 4.251-.0224 1.85-1.543 3.96-3.608 4.81-1.711.7044-4.206.2044-5.208-.3929-.7438.6741-2.087 1.195-3.457 1.325-1.37.1295-2.874-.1029-4.035-.2443-1.591.4995-3.169.9692-4.5.8441-4.039-.3796-4.058-4.241-3.482-7.396.9655-5.292 4.648-6.158 8.609-7.17 2.386-.6094 5.856-1.504 7.662-3.333 2.164-2.192 3.925-5.499 5.403-8.246.7557-1.404 1.202-2.678 1.074-3.802-.3473-3.053-3.637-5.642-8.426-10.12-2.336-2.186-4.598-5.141-5.852-8.779-1.21-3.508-1.524-7.512-.4425-10.95 1.257-4 4.656-6.951 6.709-10.54 1.392-2.434 1.568-3.949 1.062-4.277-.9343-.6049-2.512.0748-4.466 2.355-3.043 3.55-4.396 8.029-7.736 11.48-2.903 3.003-6.516 5.446-12.16 8.322-3.984 2.029-8.171 3.946-12.36 4.701-3.7.6664-8.277.0145-10.85-.9354.4638 2.304 1.088 4.967 1.641 7.251 1.363 5.626 3.233 11.56 5.842 16.73 1.698 3.365 3.392 6.714 5.212 10.01l.4671.845.1312 2.508c-.8427 1.697-1.59 2.557-2.932 3.912.1613 3.082-1.977 6.204-4.094 7.422-2.4 1.382-5.953.4079-7.898-1.183-2.385 1.119-4.939-.148-6.489-1.594-1.468.1607-2.943-.1275-4.298-.688-2.995-1.24-5.537-3.945-3.888-7.166.8892-1.738 3.417-2.98 5.11-3.819 2.32-1.149 4.722-2.023 5.759-2.509-3.342-5.538-7.133-10.87-9.88-16.75-1.372-2.935-1.782-6.265-3.289-9.417-.7722-1.615-1.94-3.121-4.159-5.623-2.364.3645-4.683.5071-7.082.3402-6.369-.4431-9.832-2.887-13.57-6.018-3.277-2.746-6.122-6.103-10.74-5.939-3.344.1185-6.437 1.636-9.175 3.438.3716.6639.7775 1.671.7461 2.453-.0335.8447-.87 1.547-1.477 2.022.5397.7889 1.124 1.543 1.196 2.536.0728 1.005-.3526 1.992-1.09 2.815-1.008 1.125-2.548 1.731-4.172 2.044-4.329.8328-9.059-.9695-11.44-4.695-1.112-1.743-1.232-3.066-1.218-5.152.0309-4.545 2.555-8.111 5.764-11 3.151-2.838 7.897-6.166 11.78-7.908 1.507-.6772 2.711-1.073 3.841-1.181.8685-.0828 2.008.0624 2.942.131 1.557.1145 2.934.2404 4.39.3824-8.369-6.542-12.65-15.91-14.71-26.14-4.034-20.08 1.482-45.44 20.04-56.79.1559-.0952.3163-.1857.4683-.2871-.1888-2.429-.1868-4.932.3206-7.339.1142-.5417.2957-.9587.627-1.194.3421-.2435.991.1298 1.621.5896 2.089 1.525 4.099 2.831 6.681 3.384 5.545 1.187 12.58-.5451 17.29 3.428 2.143 1.81 2.826 4.585 4.884 6.34 1.325 1.12 3.065 2.336 4.331 3.805 1.122 1.302 1.723 3.203.9215 4.968-.4255.9369-.978 1.114-1.94 1.247.0371 1.99-.7509 4.435-1.857 5.571-.032.286-.1613 1.969-.2007 2.197-.5924 3.422-3.602 4.924-7.116 2.929-1.167-.6857-3.36-2.112-4.756-1.325-3.075 1.566-6.93 1.361-10.22.824.6854 22.34 14.26 16.05 24.29 23.96 2.281 1.799 5.346 4.446 5.841 7.396 23.71 11.93 33.48-9.544 54.56-6.676 11.48 1.561 21.95 7.71 28.78 6.106 5.707-1.39 12.16-7.472 15.25-12.61 2.778-4.622 3.348-10.39 2.82-15.66-.5666-5.66-2.787-11.78-7.58-15.23-4.49-3.233-11.07-3.92-15.88-3.246-1.981.2775-3.936.79-5.528 1.987-2.292 1.723-5.792 7.389-4.204 10.4.5261.9972 1.561 1.628 2.987 1.953-.1638-3.259.5587-5.59 4.228-7.186 2.756-1.198 5.995-.7019 8.238.7869 1.989 1.32 3.256 3.736 3.871 6.196.8235 3.299.4224 7.14-4.012 11.28-7.095 6.62-17.66 4.691-23.81-1.141-5.604-5.308-8.214-15.47-4.792-23.6 4.62-10.98 17.94-16.64 27.26-16.13 7.49.4082 14.7 3.41 20.15 8.355 7.502 6.807 10.88 15.55 11.54 24.14.6211 8.182.0278 16.76-4.478 24.54-4.267 7.374-12.08 13.61-21.54 17.64-.8737.3715-1.755.7374-2.639 1.083z"/><path class="st6" d="m94.11 109.9c-.042-.1443.1071-.2191.2149-.2506.798-.2336 2.297.5207 2.898 1.069.7481.6823 1.32 1.602 1.608 2.156.3892.7489.6077 1.679.6259 2.396.0048.1945-1.074.4204-1.208.0884-.3849-.9601-.5264-2.081-1.068-2.98-.4946-.8215-1.161-1.388-1.863-1.798-.4212-.2454-1.089-.2704-1.209-.6808zm105.5 72.12c.6582 4.011.807 7.74.438 11.13-.5392 4.975-2.33 9.77-5.042 13.5-4.08 5.613-6.989 10.24-6.644 17.39 1.726.8283 3.636 1.457 5.42 1.964 2.609.7435 4.59.6933 6.315-.1114 1.488-.6894 4.258-2.409 6.642-4.071 1.342-.9363 2.621-1.717 3.337-2.623.4142-.5099 1.683-2.92 2.938-4.902.9754-1.542 2.047-2.752 2.03-3.079 1.086-1.206 2.487-1.159 3.343-1.192 2.761-.1114 5.371.5219 7.49 1.893 1.521.985 2.626 2.09 3.12 3.45.2078.5726.2092 1.411.2279 2.258.0193.9025.0439 1.818-.0748 2.464-.292 1.588-1.157 2.812-1.852 4.189-.6069 1.204-1.287 2.633-.866 4.021.0459.1519.167.2602.2407.3135.1035.0748.2166.0788.3274.0643.1157-.0153.2338-.0584.3501-.0244.0876.0258.161.0867.2154.1638.034.0476.0745.119.1125.1857l.599.5063c.2237.2001.5066.4833.7996.737.597.5176 1.284.8036 2.095.7761.5598-.019.8841-.2823 1.266-.6766.6259-.6449.3501-1.206.3033-2.1-.2078-.2497-.3291-.5496-.3631-.8991-.0349-.3589.0516-.4893.4646-.4833 1.183.0184 2.356.4799 3.492-.2375.5701-.36 1.093-1.001 1.098-1.635.003-.3937-.2781-.6131-.5533-.8708-1.209-1.13-.6491-.9377.7707-1.576.3725-.167.7404-.29 1.065-.4932 1.1-.6885 1.478-1.661 1.121-2.878-.3229-1.1-1.327-2.032-2.51-2.557-.413-.1823.1766-.7129.337-.9522.4394-.6545.7294-1.221.6474-1.803-.1125-.8008-.6857-1.673-1.73-2.911-.8478-.8374-1.86-1.577-2.93-2.36l-2.048-1.551c-2.327-1.889-4.294-3.785-5.133-4.595l-.5111-.4926c-.9508-.9193-1.848-1.787-2.781-2.397-1.141-.7469-2.574-1.192-4.644-1.441-1.581-.1902-5.406-.3926-6.776 1.828-.2979.4833-.5848 1.116-.8884 1.787-.601 1.328-1.293 2.562-2.036 3.811-.8513 1.463-3.512 5.881-5.995 4.624-.6401-.3237-1.464-1.326-1.872-2.55-.4751-1.425-.4419-3.43.0989-5.96l.7478-3.077.7517-3.132c.4107-2.015.4184-3.877.0261-6.04-.506-2.793-1.604-5.205-2.978-7.392zm-128.9 9.255.3107.5621c-.4088-3.412-.104-6.813 1.033-9.892.2806-.9269.5769-.4992.5046.3033-1.029 15.07 5.172 24.21 15.03 30.37 1.204.6888.6525 1.125-.4504.7795-7.747-2.94-13.36-10.19-15.43-17.96-3.296-.7092-7.69-1.41-10.66-1.133-.7798.0743-1.72.3745-3.049.9723-2.117.9507-4.552 2.516-6.796 4.052-3.176 2.174-6.049 4.57-7.781 7.497-1.125 1.902-1.72 4.353-1.536 6.579.3203 3.847 5.183 6.328 8.636 6.125.777-.0459 1.885-.3215 2.766-.7515 3.117-1.523.2582-3.824-1.214-4.926 2.072-.7707 2.726-1.384 2.687-2.202-.0317-.6766-.4612-1.084-1.041-1.36-.6579-.3138-1.51-.4598-2.196-.6423.6803-.2713 1.443-.3926 2.154-.6769 1.042-.4167 2.036-1.216 2.992-1.809 1.23-.7642 2.486-1.487 3.799-2.018 3.064-1.238 5.923-1.559 9.086-.6344 2.973.8694 5.042 2.569 7.335 4.604 2.023 1.763 3.646 3.542 5.374 4.602 1.382.8481 2.858 1.225 4.391 1.584 2.39.5607 5.839.8799 9.383.6216-.4955-1.279-1.081-3.028-1.567-4.578-.3144-.9882-.7971-2.092-.9556-3.11-.114-.7302.4878-.5309.7342-.3288 1.431 1.173 2.074 3.165 2.656 4.843.6851 1.977 1.913 3.557 3.295 5.104 1.426 1.758 3.377 3.413 4.228 5.543 1.116 2.792 1.04 6.001 2.912 9.279 1.094 1.917 2.679 3.307 4.23 5.839.7977 1.302 1.591 2.924 2.303 4.422.8935 1.879 1.815 3.672 2.825 5.443.669 1.174 1.419 2.337 2.075 3.512-4.71.8152-7.99 1.648-10.9 3.729-.8294.5933-2.246 1.758-2.031 2.986.1842 1.054 1.443 2.071 2.934 2.673 1.854.7492 2.877.4808 4.086-1.114.2163-.2852.6378-.1287.6361.176-.0105 1.978.4331 2.622 2.331 3.199 1.624.4935 1.922-.5236 2.544-2.076.0805-.2015.5204-.265.5842-.0102.5366 2.145.1667 1.928 2.154 2.893 1.162.5641 2.609.879 3.84.5522 1.394-.3699 1.835-1.512 2.383-2.65.6205-1.29 1.184-2.724-.9337-4.225-.2475-.1755-.1525-.6267.0734-.6514.758-.0819 2.859-.2634 3.291-.7007 2.025-2.053 1.033-3.016-.0573-5.022-1.557-2.864-2.922-5.628-4.325-8.407-2.372-4.704-4.337-10.53-5.973-17.29-.5658-2.334-1.162-4.479-1.633-6.82-.9958-4.789-3.039-9.778-3.523-14.58-.5275-5.236.7651-9.572-1.247-14.69-.3039-.773.0374-1.05.4759-.485 1.39 1.792 2.071 3.442 2.395 5.068.5769 2.899.0196 5.726.3274 9.16.309 3.446 1.862 7.321 3.311 11.91 3.589 1.279 6.633 1.631 10.1 1.175 4.455-.5862 8.708-2.438 12.8-4.569 3.107-1.617 6.161-3.344 8.727-5.484 3.339-2.784 5.758-5.955 7.802-9.091 1.283-1.969 2.285-3.831 3.355-5.125 2.441-2.953 5.372-3.305 6.683-2.372 1.486 1.057 1.756 3.066.9499 5.075-.6143 1.531-1.642 2.811-2.62 4.092-2.202 2.885-3.986 5.152-4.871 7.753-.667 1.96-.7449 4.111-.5525 6.849.1834 2.608 1.314 5.592 4.582 9.572 2.402 2.925 5.106 5.67 7.842 8.281.7379.7041 1.456 1.374 2.012 2.417 1.113 2.087 1.049 3.169-.1947 5.665-.7175 1.441-1.59 2.944-2.413 4.502-1.202 2.279-2.437 4.588-4.078 6.255-3 3.046-6.97 3.238-10.78 4.481-2.678.8722-4.328 3.129-4.664 5.667-.0822.6216-.0771 1.198-.0437 1.835-.0329 1.102.4141 1.632 1.11 1.826.6018.1667 1.108.034 1.704-.0346.2976-.0343.9479-.1332 1.208-.3093.5879-.3991.9598-1.159 1.12-1.787.1176-.4601.1786-.7999.2784-1.114l.4025.0924c.1009.5939.1877 1.22.3305 1.747.2333.862.4031 1.006 1.187 1.244 1.096.3339 2.33.2089 3.339-.3393.3223-.1754.5922-.3575.8561-.7396.5304-.7673.5822-1.923.7257-3.119l.4901-.0258c.4794 1.369.6352 2.66 2.266 3.057.6208.1511 1.29.2438 1.837.1678 1.484-.2069 2.583-1.369 2.777-3.207-.5074-.381-.8949-1.023-1.035-1.722 2.651.2395 3.531-.9227 5.333-2.812.7189-.7534 1.259-1.53 1.879-2.366 1.404-1.89 2.462-4.049 3.737-5.865.9303-1.326 2.012-2.343 3.259-3.57 1.524-1.499 3.593-3.217 4.2-5.36.3441-1.214.1094-2.495-1.1-3.714-1.235-1.963-1.979-3.548-2.562-5.865-.4618-1.836-.8169-3.33-.8595-5.189-.1656-7.333 2.949-12.27 6.985-17.82 2.543-3.498 4.223-8.008 4.732-12.7.4329-3.991.1157-8.488-.9428-13.4-.1834-.8513-.8711-1.694-.9859-1.839 2.837-1.296 5.913-2.511 8.746-3.933 3.056-1.534 6.13-3.394 8.822-5.588 3.446-2.808 5.916-5.946 7.877-9.335 3.559-6.148 4.877-13.49 4.147-23.09-.4737-6.244-2.719-15.21-10.72-22.47-5.06-4.592-11.66-7.329-18.6-7.707-8.773-.4782-20.75 4.967-24.8 14.6-2.276 5.409-1.768 11.7.5607 16.33 2.948 5.864 10.54 9.86 16.98 8.949 2.514-.356 4.948-1.418 7.026-3.357 2.467-2.303 3.347-4.326 3.527-6.051.2642-2.535-.9034-6.056-3.06-7.488-2.398-1.592-6.461-1.399-8.11 1.206-1.114 1.759-.8266 4.618.3132 6.246-3.39.0201-6.796-.7138-8.491-3.927-2.464-4.67 2.33-11.64 4.917-13.58 2.242-1.685 4.893-2.215 6.691-2.467 3.02-.4232 6.692-.1327 10.39.7656 4.465 1.083 7.946 3.212 10.51 6.153 3.094 3.55 4.856 8.285 5.407 13.8.4677 4.668.2979 11.44-3.167 17.21-3.298 5.486-10.31 12.17-16.83 13.76-4.586 1.079-9.955-.6313-16.17-2.611-4.344-1.384-8.836-2.814-13.52-3.451-8.25-1.123-14.61 1.809-21.34 4.913-9.275 4.278-18.86 8.699-32.99 2.018.1704 1.9-.2027 3.661-.7994 5.571l-.5556-.0368c-.2449-2.004-.3353-4.366-.7758-6.477-.5414-2.594-1.278-3.534-3.254-5.342-1.582-1.447-3.235-2.898-5.397-3.638-2.525-.8634-5.232-.9547-7.766-1.809-3.946-1.332-7.751-3.906-10.76-9.285-1.214-2.174-2.634-4.684-3.096-8.334-.1494-1.18.0652-3.243-.0456-4.85-4.645-3.378-4.794-8.061-4.822-11.86.0062-.4266 1.053-.8022 1.101-.4161.3929 2.851.5471 5.997 1.765 8 1.724 2.833 5.66 3.265 8.945 3.017 2.3-.1729 4.56-.7381 6.91-.8439 1.643-.074 2.583.5686 4.121 1.576 1.323.8657 3.384 1.242 4.135.3413.301-.3614.5315-2.102.8929-3.208-2.846-.2795-6.299-1.156-8.905-2.337-1.403-.6364-2.151-1.315-2.162-2.276-.0113-1.002.7441-1.224.9462-.4365.0712.2792.0116.5443.167.8039.3223.5391 1.246 1.016 2.327 1.435 1.301.5043 2.841.8546 3.284.9706 1.261.3294 2.305.3076 3.474.3226.8084.0105 1.25.0323 1.556-.2784.7282-.7373 1.234-3.316 1.242-4.265-1.376-.5236-2.14-.5661-2.525-2.162-.362-1.105 1.062-1.178 1.328-.8028.1885.2659.6197 1.694 1.964 1.525 1.104-.1392.8864-1.911.6262-2.811-.2568-.8884-.9573-1.328-1.847-2.119-1.289-1.144-3.103-2.066-4.195-3.441-1.288-1.62-1.352-2.895-2.209-3.928-1.887-2.274-4.417-3.281-9.666-3.524-2.819-.1304-5.452-.1834-7.89-.7055-2.488-.5321-5.01-1.423-6.747-2.73-.2149 1.212-.3025 3.12-.1392 4.64.0853.7948.1035 1.212.294 1.661.2631.6197.7376 1.133 1.188 1.621.6094.6608 1.081 1.064 2.021 1.019.1967.01.3124.3665-.0414.6701-.4836.4144-1.338.7719-1.943.3954-.6953-.4331-1.445-1.894-2.138-3.215-9.552 5.801-15.32 14.55-18.44 26.33-2.671 10.09-3.152 19.29-.5224 29.51 2.594 10.08 5.295 17.89 14.51 24.37zm8.617-80.18c-.5641-.813-1.003-1.833-.9079-2.812.0227-.2336.0964-.4683.3192-.5119.1738-.0337.3475.0553.5085.1945.4603.398.9255.9377 1.407 1.305.4093.313.8838.5139 1.375.6667.148.0459.2937.0927.43.1602.0989.0323.1471.1086.1613.1996.0371.2333-.1176.4445-.2514.6188-.3178.4141-.8881.8932-1.368 1.024-.6631.1806-1.319-.3339-1.673-.845zm15.65 5.136c-.1519.7418-.8087 1.3-1.595 1.3-.8986 0-1.628-.7294-1.628-1.628 0-1.061.1216-.9507-.8493-1.026-.2483-.0196-.3608.0689-.3243.3753.0516.4292.487 1.447.8323 2.054.157.2761.2673.608.1712.7053-.7665.7733-2.006-2.327-2.137-2.845-.0916-.3614-.7957-.6523-1.05-.9947-.9054-1.216 5.334-.3892 5.637-.3779.1811.006-.1429-.4816-.5431-.9454-.3535-.409-.7974-.7838-.5675-1.003.5204-.4955 2.047 1.08 2.842 1.96.8218.9096 1.004 1.862 1.398 3.026.4062 1.202.5185 2.212-.1054 2.148-2.932.1783-2.309-.7177-1.894-.9845.7673-.2027.7886-1.184.5066-1.695-.2391-.4331-.5867-.585-.6918-.0688z"/>
		<ellipse class="st5" cx="207.2" cy="210.1" rx="1.304" ry="1.211"/>
		<ellipse class="st5" cx="225.6" cy="205.1" rx="1.211" ry="1.118"/>
		<ellipse class="st5" cx="220.2" cy="200.5" rx="1.211" ry="1.118"/>
		<ellipse class="st5" cx="198.2" cy="218.3" rx="2.096" ry="1.77"/>
		<circle class="st5" cx="205.7" cy="217" r="1.351"/>
		<ellipse class="st5" cx="213.6" cy="204.7" rx="1.211" ry="1.118"/>
		<ellipse class="st5" cx="211.8" cy="210.7" rx="1.211" ry="1.118"/>
		<ellipse class="st5" cx="199.4" cy="210.1" rx="2.142" ry="1.956"/>
		<ellipse class="st5" cx="96.17" cy="202.6" rx="2.334" ry="1.849"/>
		<ellipse class="st5" cx="97.94" cy="209.3" rx="2.334" ry="1.849"/>
		<ellipse class="st5" cx="217.4" cy="118.2" rx="1.77" ry="1.49"/>
		<ellipse class="st5" cx="224.8" cy="133.1" rx="1.211" ry="1.304"/>
		<ellipse class="st5" cx="221.5" cy="157.2" rx="1.304" ry="1.397"/>
		<ellipse class="st5" cx="178.3" cy="138.7" rx="1.77" ry="2.068"/>
		<ellipse class="st5" cx="174.8" cy="130.7" rx="1.77" ry="2.049"/>
		<ellipse class="st5" cx="185.8" cy="143.1" rx="1.584" ry="1.863"/>
		<ellipse class="st5" cx="193.5" cy="134.5" rx="1.584" ry="1.584"/>
		<ellipse class="st5" cx="207.6" cy="112.5" rx="1.304" ry="1.211"/>
		<ellipse class="st5" cx="191.9" cy="115.1" rx="1.211" ry="1.118"/>
		<ellipse class="st5" cx="201.6" cy="114.1" rx="1.956" ry="1.77"/>
		<ellipse class="st5" cx="177" cy="120.6" rx="1.677" ry="1.77"/>
		<ellipse class="st5" cx="188.4" cy="111.6" rx="1.491" ry="1.211"/>
		<ellipse class="st5" cx="211.9" cy="119.1" rx="1.584" ry="1.398"/>
		<ellipse class="st5" cx="215.9" cy="165.4" rx="1.211" ry="1.304"/>
		<ellipse class="st5" cx="221.1" cy="152.3" rx="2.236" ry="2.05"/>
		<ellipse class="st5" cx="207.1" cy="168.7" rx="2.236" ry="2.05"/>
		<circle class="st5" cx="87.15" cy="164.5" r="1.211"/>
		<circle class="st5" cx="92.61" cy="159.4" r="1.211"/>
		<circle class="st5" cx="106.2" cy="177.9" r="1.211"/>
		<circle class="st5" cx="110.9" cy="194.8" r="1.211"/>
		<circle class="st5" cx="181.7" cy="186.5" r="1.211"/>
		<circle class="st5" cx="174.9" cy="199.5" r="1.211"/>
		<circle class="st5" cx="178" cy="208.7" r="1.211"/>
		<circle class="st5" cx="182.7" cy="220.9" r="1.211"/>
		<circle class="st5" cx="141.8" cy="197.7" r="1.211"/>
		<circle class="st5" cx="125.9" cy="199.5" r="1.211"/>
		<ellipse class="st5" cx="48.72" cy="208.4" rx="1.211" ry="1.397"/>
		<circle class="st5" cx="67.74" cy="141.9" r="1.211"/>
		<circle class="st5" cx="94.69" cy="194.5" r="1.211"/>
		<ellipse class="st5" cx="60.74" cy="157.5" rx="1.211" ry="1.304"/>
		<ellipse class="st5" cx="67.21" cy="165" rx="1.211" ry="1.397"/>
		
			<ellipse class="st5" transform="matrix(.8626 -.5059 .5059 .8626 -95.2 127.3)" cx="186.7" cy="238.9" rx="1.4" ry="1.301"/>
		<ellipse class="st5" cx="66.01" cy="197.4" rx="1.211" ry="1.118"/>
		
			<ellipse class="st5" transform="matrix(.9758 -.2188 .2188 .9758 -43.13 16.56)" cx="53.24" cy="203" rx="1.794" ry="1.373"/>
		<ellipse class="st5" cx="74.22" cy="134.9" rx="1.304" ry="1.397"/>
		<ellipse class="st5" cx="72.18" cy="143.1" rx="1.304" ry="1.397"/>
		
			<ellipse class="st5" transform="matrix(.5628 -.8266 .8266 .5628 -141.1 139.1)" cx="60.97" cy="202.9" rx="1.845" ry="1.694"/>
		<ellipse class="st5" cx="169.8" cy="204.7" rx="1.397" ry="1.49"/>
		<ellipse class="st5" cx="181.9" cy="212.5" rx="2.422" ry="2.236"/>
		<ellipse class="st5" cx="190.6" cy="200.9" rx="2.515" ry="2.236"/>
		<ellipse class="st5" cx="178.4" cy="226.5" rx="1.91" ry="1.723"/>
		
			<ellipse class="st5" transform="matrix(.9814 -.1918 .1918 .9814 -37.88 37.1)" cx="172.7" cy="214.2" rx="1.391" ry="1.868"/>
		
			<ellipse class="st5" transform="matrix(.9486 -.3166 .3166 .9486 -64.33 70.99)" cx="186.3" cy="233.5" rx="1.394" ry="1.68"/>
		<ellipse class="st5" cx="176.6" cy="192.1" rx="1.677" ry="1.863"/>
		<ellipse class="st5" cx="185" cy="193.8" rx="2.702" ry="2.422"/>
		<ellipse class="st5" cx="195.5" cy="189.2" rx="2.888" ry="2.143"/>
		<ellipse class="st5" cx="195.1" cy="182.8" rx="2.329" ry="1.677"/>
		<ellipse class="st5" cx="101.1" cy="183.6" rx="1.583" ry="1.863"/>
		<ellipse class="st5" cx="83.41" cy="177.1" rx="1.583" ry="1.863"/>
		<ellipse class="st5" cx="105.9" cy="200.5" rx="1.677" ry="1.956"/>
		<ellipse class="st5" cx="89.66" cy="200" rx="1.677" ry="1.956"/>
		<ellipse class="st5" cx="95.03" cy="165.1" rx="1.77" ry="2.049"/>
		
			<ellipse class="st5" transform="matrix(.9754 -.2204 .2204 .9754 -34.96 27.98)" cx="108" cy="170.7" rx="1.774" ry="2.325"/>
		<ellipse class="st5" cx="81.31" cy="148.4" rx="1.863" ry="2.049"/>
		<ellipse class="st5" cx="87.27" cy="157.3" rx="1.583" ry="1.584"/>
		<ellipse class="st5" cx="70.03" cy="153.9" rx="1.583" ry="1.584"/>
		<ellipse class="st5" cx="80.03" cy="140.1" rx="1.397" ry="1.863"/>
		<ellipse class="st5" cx="70.93" cy="163.5" rx="1.397" ry="1.863"/>
		
			<ellipse class="st5" transform="matrix(.2961 -.9552 .9552 .2961 -61.85 173.1)" cx="86.5" cy="128.5" rx="1.85" ry="1.598"/>
		<ellipse class="st5" cx="90.08" cy="130.1" rx="1.118" ry="1.304"/>
		<ellipse class="st5" cx="91.57" cy="124.3" rx="1.211" ry="1.304"/>
		
			<ellipse class="st5" transform="matrix(.191 -.9816 .9816 .191 -53.08 182.2)" cx="84.01" cy="123.3" rx="1.584" ry="1.397"/>
		
			<ellipse class="st5" transform="matrix(.9672 -.2541 .2541 .9672 -48.08 37.42)" cx="120.8" cy="204.8" rx="1.489" ry="1.678"/>
		
			<ellipse class="st5" transform="matrix(.9416 -.3368 .3368 .9416 -60.48 58.01)" cx="137" cy="203.3" rx="1.768" ry="1.864"/>
		
			<ellipse class="st5" transform="matrix(.9416 -.3368 .3368 .9416 -59.02 56.11)" cx="132.2" cy="198.2" rx="1.765" ry="2.24"/>
		
			<ellipse class="st5" transform="matrix(.9848 -.1738 .1738 .9848 -37.97 22.7)" cx="110.6" cy="228.2" rx="1.677" ry="2.142"/>
		
			<ellipse class="st5" transform="matrix(.9848 -.1737 .1737 .9848 -38.13 24.04)" cx="118.3" cy="229.9" rx="1.677" ry="2.142"/>
		
			<ellipse class="st5" transform="matrix(.9848 -.1737 .1737 .9848 -39.05 23.16)" cx="112.8" cy="234.8" rx="1.677" ry="2.142"/>
		
			<ellipse class="st5" transform="matrix(.9431 -.3325 .3325 .9431 -67.21 48.2)" cx="107.2" cy="220.5" rx="2.234" ry="2.051"/>
		
			<ellipse class="st5" transform="matrix(.9396 -.3423 .3423 .9396 -68.91 52.91)" cx="115.5" cy="221.7" rx="2.329" ry="2.142"/>
		
			<ellipse class="st5" transform="matrix(.9634 -.268 .268 .9634 -53.02 37.99)" cx="112.6" cy="213.2" rx="2.218" ry="2.504"/>
		
			<ellipse class="st5" transform="matrix(.4727 -.8812 .8812 .4727 -65.84 126.9)" cx="73.09" cy="118.4" rx="2.143" ry="1.677"/>
		
			<ellipse class="st5" transform="matrix(.9678 -.2517 .2517 .9678 -41.46 21.95)" cx="65.08" cy="173.1" rx="2.424" ry="3.071"/>
		
			<ellipse class="st5" transform="matrix(.9431 -.3325 .3325 .9431 -56.25 32.97)" cx="68.2" cy="180.8" rx="1.961" ry="2.511"/>
		
			<ellipse class="st5" transform="matrix(.9888 -.1492 .1492 .9888 -23.58 11.15)" cx="62.48" cy="162.7" rx="2.327" ry="2.889"/>
		
			<ellipse class="st5" transform="matrix(.2248 -.9744 .9744 .2248 -100.6 177.4)" cx="61.22" cy="152" rx="2.705" ry="2.25"/>
		
			<ellipse class="st5" transform="matrix(.3443 -.9388 .9388 .3443 -82.47 148.5)" cx="65.09" cy="133.3" rx="2.693" ry="2.152"/>
		
			<ellipse class="st5" transform="matrix(.3779 -.9259 .9259 .3779 -92.88 146.3)" cx="62.43" cy="142.3" rx="2.699" ry="2.144"/>
		
			<ellipse class="st5" transform="matrix(.4608 -.8875 .8875 .4608 -74.11 128.6)" cx="68.79" cy="125.3" rx="2.601" ry="2.057"/>
		
			<ellipse class="st5" transform="matrix(.6261 -.7798 .7798 .6261 -104.7 138.3)" cx="91.88" cy="178.3" rx="2.701" ry="2.143"/>
		
			<ellipse class="st5" transform="matrix(.6267 -.7793 .7793 .6267 -113.5 142.6)" cx="92.11" cy="189.8" rx="2.701" ry="2.144"/>
		
			<ellipse class="st5" transform="matrix(.626 -.7798 .7798 .626 -104.6 154.7)" cx="109" cy="186.4" rx="2.701" ry="2.143"/>
		
			<ellipse class="st5" transform="matrix(.0328 -.9995 .9995 .0328 -56.12 293.5)" cx="123.6" cy="175.8" rx="2.049" ry="2.422"/>
		
			<ellipse class="st5" transform="matrix(.9939 -.1105 .1105 .9939 -18.37 17.29)" cx="146.9" cy="174.4" rx="2.508" ry="2.057"/>
		
			<ellipse class="st5" transform="matrix(.9939 -.1104 .1104 .9939 -19.64 17.58)" cx="148.9" cy="186.1" rx="2.508" ry="2.057"/>
		
			<ellipse class="st5" transform="matrix(.9953 -.0963 .0963 .9953 -16.37 13.84)" cx="135.1" cy="176.4" rx="2.328" ry="1.957"/>
		
			<ellipse class="st5" transform="matrix(.0267 -.9996 .9996 .0267 -4.678 336.1)" cx="170.2" cy="170.4" rx="2.049" ry="2.515"/>
		
			<ellipse class="st5" transform="matrix(.0429 -.9991 .9991 .0429 -15.89 344.8)" cx="172" cy="180.7" rx="2.049" ry="2.329"/>
		
			<ellipse class="st5" transform="matrix(.9936 -.1127 .1127 .9936 -18.19 18.95)" cx="158.5" cy="170.3" rx="2.509" ry="2.055"/>
		
			<ellipse class="st5" transform="matrix(.0267 -.9996 .9996 .0267 -.9669 356.4)" cx="182.5" cy="178.7" rx="2.049" ry="2.515"/>
		
			<ellipse class="st5" transform="matrix(.9917 -.1287 .1287 .9917 -22.14 22.25)" cx="161.1" cy="182.4" rx="2.51" ry="2.055"/>
		
			<ellipse class="st5" transform="matrix(.0328 -.9995 .9995 .0328 5.171 347)" cx="181.8" cy="170.8" rx="2.049" ry="2.422"/>
		<ellipse class="st5" cx="124.3" cy="189.7" rx="2.919" ry="2.401"/>
		
			<ellipse class="st5" transform="matrix(.9973 -.0737 .0737 .9973 -13.52 10.56)" cx="136.4" cy="188.5" rx="2.514" ry="2.051"/>
	<path class="st7" d="m132 168.1c-.9346-2.001-1.749-3.329-3.793-4.37-.9454-.481-2.184-.8345-3.473-1.223-3.167-.9541-5.751-2.623-8.204-4.803-3.287-2.922-5.085-6.858-6.335-10.99-1.353-4.47-2.203-9.222-3.567-12.02-.5199-1.068-.9312-2.006-1.567-2.908.1942-.7838.4363-1.551.6126-2.341 2.072 2.687 3.378 5.978 4.264 9.234.3095 1.138.6024 2.288.9026 3.435.5006 1.914.6571 3.434 2.195 4.77 1.013.8793 2.212 1.395 3.408.7211 2.728-1.537.8393-6.019.8223-8.254-.0102-1.319.5165-2.14 1.469-2.956-.2594.6545-.6622 1.304-.6829 2.012-.0952 3.244 2.514 6.936-.013 9.868-1.227 1.424-3.285 1.56-4.974.949 1.057 2.601 2.454 5.036 4.535 7.129 2.918 2.937 6.083 4.008 9.827 2.26-.1344.3983-.3628.8161-.6197 1.202 1.071-.0686 2.16-.2673 3.253-.5899 1.852-.5468 3.805-1.133 4.405-3.16.3248-1.097.233-2.3-1.013-2.484-.4927-.0726-1.218.1913-1.857.6931.2395-1.523 2.086-2.21 3.248-1.521.9091.5391 1.238 1.842 1.062 3.01 3.472-3.773 3.12-9.248 3.874-13.9.3631 4.954.8975 10.76-2.301 14.57 3.857-.5975 7.868-2.13 11.39-3.719-1.432 1.48-3.791 2.953-7.228 4.051.8688.5675 1.438 1.624 1.465 2.639.0184.7101-.1888 1.483-.5695 2.089-.3858.6145-.9136 1.029-1.53 1.333-1.176.58-2.591.93-3.362 2.708-.2154-1.834.4-2.327 1.128-2.683-.5287-1.302-.256-2.663 1.318-3.078-.6004.5757-.9258 1.585-.4938 1.949.4728.3988 1.334.0434 1.9-.6403.9332-1.13.5624-2.53-.8663-2.851-1.825-.4093-3.932.4496-5.619 1.111-1.73.6778-3.357 1.462-5.198 1.81-.739.1395-1.518.2364-2.335.2991.9536.5369 2.449 1.235 3.753 3.048.7702 1.071.7016 2.341.7694 3.595zm-39.49-23.63c-1.527.7946-3.398-.2441-4.026-2.875-1.146 5.236 4.217 5.854 6.158 3.471 1.542 2.148 4.566 1.254 4.33-2.013-1.073 1.899-2.371 1.881-3.002 1.013-.6321-.8683-.5848-2.582-.4742-4.316.2378-3.735 1.59-9.35 2.369-10.42-.5482-.2061-1.096-.4357-1.644-.699-1.532 3.087-2.612 9.058-2.51 12.8.0368 1.358.1845 2.322-1.201 3.041z"/><g id="Flowers">
		<path class="st8" d="m149.2 116.8-1.505 1.492c-.6653.9156.1089 2.612 1.729 3.789 1.62 1.177 3.473 1.389 4.138.4734l.9539-1.893.9539 1.893c.6653.9156 2.519.7036 4.138-.4734 1.62-1.177 2.394-2.874 1.729-3.789l-1.505-1.492 2.095-.3226c1.076-.3495 1.447-2.178.8286-4.082-.6188-1.904-1.993-3.165-3.07-2.815l-1.884.9703.3407-2.092c0-1.132-1.624-2.049-3.626-2.049-2.002 0-3.626.9179-3.626 2.049l.3407 2.092-1.884-.9703c-1.076-.3498-2.451.9111-3.07 2.815-.6185 1.904-.2477 3.732.8286 4.082zm2.85-.4867-.9017.972c-.379.5216-.1704 1.32.4657 1.782.6364.4623 1.46.4141 1.839-.1077l.6494-1.156c-.9005-.1352-1.658-.705-2.052-1.49zm2.88 1.49.6497 1.156c.379.5219 1.202.57 1.839.1077.6361-.4623.8447-1.26.4655-1.782l-.902-.9726c-.3941.7849-1.152 1.355-2.052 1.49zm2.307-2.277 1.304-.2631c.6131-.1993.9136-.9675.6704-1.716-.2429-.7478-.9374-1.193-1.551-.9935l-1.209.5598c.5071.5.8218 1.195.8218 1.964-1e-4.1528-.0131.3027-.0369.4487zm-1.449-2.895.1534-1.327c0-.6452-.6378-1.168-1.424-1.168-.7863 0-1.424.523-1.424 1.168l.1573 1.324c.3793-.1964.8101-.3081 1.267-.3081.4586 0 .8906.1128 1.271.3109zm-3.205.4816-1.211-.5584c-.6131-.1993-1.308.2455-1.551.9935-.2429.7481.0573 1.516.6707 1.716l1.304.2631c-.0238-.1463-.0363-.2959-.0363-.4487 0-.7693.3152-1.465.8232-1.965zm-1.781 3.168-1.052 1.043c-.4652.6398.076 1.826 1.208 2.648s2.428.9706 2.892.3308l.6667-1.323.6667 1.323c.4649.6398 1.76.4918 2.892-.3308s1.673-2.009 1.208-2.648l-1.052-1.043 1.464-.2253c.752-.2441 1.011-1.522.5791-2.853-.4326-1.331-1.394-2.212-2.146-1.968l-1.317.678.2381-1.462c0-.7909-1.135-1.432-2.534-1.432s-2.534.6415-2.534 1.432l.2378 1.462-1.317-.678c-.752-.2446-1.713.6364-2.146 1.968-.4323 1.331-.1732 2.609.5791 2.853zm3.715.4369c.9054 0 1.64-.7342 1.64-1.64s-.7342-1.64-1.64-1.64-1.64.7342-1.64 1.64.7342 1.64 1.64 1.64z"/>
		<path class="st8" d="m119.7 116.8-1.505 1.492c-.6653.9156.1088 2.612 1.729 3.789 1.62 1.177 3.473 1.389 4.138.4734l.9541-1.893.9539 1.893c.6653.9156 2.519.7036 4.138-.4734 1.62-1.177 2.394-2.874 1.729-3.789l-1.505-1.492 2.095-.3226c1.076-.3495 1.447-2.178.8286-4.082-.6185-1.904-1.993-3.165-3.07-2.815l-1.884.9703.3407-2.092c0-1.132-1.624-2.049-3.626-2.049-2.002 0-3.626.9179-3.626 2.049l.3407 2.092-1.884-.9703c-1.076-.3498-2.451.9111-3.07 2.815-.6188 1.904-.2477 3.732.8286 4.082zm2.85-.4867-.9017.972c-.379.5216-.1704 1.32.4657 1.782.6364.4623 1.46.4141 1.839-.1077l.6497-1.156c-.9008-.1352-1.658-.705-2.052-1.49zm2.879 1.49.6497 1.156c.3793.5219 1.202.57 1.839.1077.6361-.4623.8447-1.26.4657-1.782l-.902-.9726c-.3939.7849-1.152 1.355-2.052 1.49zm2.307-2.277 1.304-.2631c.6134-.1993.9139-.9675.6707-1.716-.2429-.7478-.9374-1.193-1.551-.9935l-1.209.5598c.5071.5.822 1.195.822 1.964 0 .1528-.0131.3027-.0371.4487zm-1.449-2.895.1534-1.327c0-.6452-.6375-1.168-1.424-1.168s-1.424.523-1.424 1.168l.157 1.324c.3793-.1964.8104-.3081 1.267-.3081.4586 0 .8903.1128 1.271.3109zm-3.205.4816-1.21-.5584c-.6134-.1993-1.308.2455-1.551.9935-.2432.7481.0573 1.516.6707 1.716l1.304.2631c-.0238-.1463-.0363-.2959-.0363-.4487 0-.7693.3152-1.465.8229-1.965zm-1.781 3.168-1.052 1.043c-.4652.6398.076 1.826 1.208 2.648 1.132.8226 2.428.9706 2.893.3308l.6667-1.323.6664 1.323c.4652.6398 1.761.4918 2.893-.3308 1.132-.8226 1.673-2.009 1.208-2.648l-1.052-1.043 1.464-.2253c.752-.2441 1.011-1.522.5791-2.853-.4328-1.331-1.394-2.212-2.146-1.968l-1.317.678.2381-1.462c0-.7909-1.135-1.432-2.534-1.432-1.4 0-2.534.6415-2.534 1.432l.2378 1.462-1.317-.678c-.7523-.2446-1.713.6364-2.146 1.968-.4323 1.331-.1732 2.609.5791 2.853zm3.715.4369c.9054 0 1.64-.7342 1.64-1.64s-.7342-1.64-1.64-1.64c-.9057 0-1.64.7342-1.64 1.64s.734 1.64 1.64 1.64z"/>
		<path class="st8" d="m152.7 133-1.505 1.492c-.6653.9156.1088 2.612 1.729 3.789 1.62 1.177 3.473 1.389 4.138.4734l.9538-1.893.9539 1.893c.6653.9156 2.519.7036 4.138-.4734 1.62-1.177 2.394-2.874 1.729-3.789l-1.505-1.492 2.095-.3226c1.076-.3498 1.447-2.178.8286-4.082s-1.993-3.165-3.07-2.815l-1.884.9706.3407-2.092c0-1.132-1.624-2.049-3.626-2.049-2.002 0-3.626.9176-3.626 2.049l.3404 2.092-1.884-.9706c-1.076-.3495-2.451.9111-3.07 2.815-.6188 1.904-.248 3.732.8283 4.082zm2.85-.487-.9014.972c-.3793.5219-.1706 1.32.4657 1.782.6361.4623 1.46.4138 1.839-.1077l.6494-1.156c-.9005-.1353-1.658-.7051-2.052-1.49zm2.88 1.49.6497 1.156c.379.5219 1.202.5703 1.839.108.6361-.4623.8447-1.26.4655-1.782l-.9017-.9726c-.3941.785-1.152 1.355-2.052 1.49zm2.307-2.277 1.304-.2631c.6134-.1996.9136-.9675.6704-1.716-.2429-.7481-.9371-1.193-1.551-.9935l-1.209.5598c.5071.5.8221 1.195.8221 1.963-1e-4.1528-.0131.303-.0372.449zm-1.449-2.896.1534-1.327c0-.6449-.6378-1.168-1.424-1.168-.7863 0-1.424.523-1.424 1.168l.1573 1.324c.3793-.1962.8102-.3078 1.267-.3078.4586-1e-4.8906.1128 1.271.3106zm-3.205.4819-1.21-.5584c-.6134-.1996-1.308.2455-1.551.9935-.2432.7481.057 1.516.6704 1.716l1.304.2631c-.0238-.1463-.036-.2962-.036-.449 0-.769.315-1.465.8229-1.965zm-1.781 3.168-1.052 1.043c-.4649.6398.076 1.826 1.208 2.648 1.132.8223 2.428.9706 2.893.3308l.6664-1.323.6667 1.323c.4649.6398 1.76.4915 2.892-.3308 1.132-.8226 1.673-2.009 1.208-2.648l-1.052-1.043 1.464-.2253c.7523-.2444 1.011-1.522.5791-2.853-.4326-1.331-1.394-2.212-2.146-1.968l-1.317.6783.2381-1.462c0-.7909-1.135-1.432-2.534-1.432-1.399 0-2.534.6415-2.534 1.432l.2378 1.462-1.317-.6783c-.752-.2444-1.713.6367-2.146 1.968-.4323 1.331-.1729 2.609.5791 2.853zm3.715.4366c.9054 0 1.64-.7339 1.64-1.64 0-.9054-.7342-1.639-1.64-1.639s-1.64.7339-1.64 1.639c0 .9057.7342 1.64 1.64 1.64z"/>
		<path class="st8" d="m134.4 128.5-1.505 1.492c-.6653.9156.1089 2.612 1.729 3.789 1.62 1.177 3.473 1.389 4.138.4734l.9539-1.893.9539 1.893c.6653.9156 2.519.7036 4.138-.4734 1.62-1.177 2.394-2.874 1.729-3.789l-1.505-1.492 2.095-.3226c1.076-.3498 1.447-2.178.8286-4.082-.6188-1.904-1.993-3.165-3.07-2.815l-1.884.9706.3407-2.092c0-1.132-1.624-2.049-3.626-2.049s-3.626.9176-3.626 2.049l.3407 2.092-1.884-.9706c-1.076-.3495-2.451.9111-3.07 2.815-.6185 1.904-.2477 3.732.8286 4.082zm2.85-.487-.9017.972c-.379.5219-.1704 1.32.4657 1.782.6364.4623 1.46.4138 1.839-.1077l.6494-1.156c-.9005-.1353-1.658-.7051-2.052-1.49zm2.88 1.49.6497 1.156c.379.5219 1.202.5703 1.839.108.6361-.4623.8447-1.26.4655-1.782l-.902-.9726c-.394.785-1.152 1.355-2.052 1.49zm2.307-2.277 1.304-.2631c.6131-.1996.9136-.9675.6704-1.716-.2429-.7481-.9371-1.193-1.551-.9935l-1.209.5598c.5071.5.8218 1.195.8218 1.963 0 .1528-.0131.303-.0369.449zm-1.449-2.896.1534-1.327c0-.6449-.6378-1.168-1.424-1.168-.7863 0-1.424.523-1.424 1.168l.1573 1.324c.3793-.1962.8101-.3078 1.267-.3078.4586 0 .8906.1128 1.271.3106zm-3.205.4819-1.211-.5584c-.6131-.1996-1.308.2455-1.551.9935-.2429.7481.0573 1.516.6707 1.716l1.304.2631c-.0238-.1463-.036-.2962-.036-.449 0-.769.315-1.465.8229-1.965zm-1.781 3.168-1.052 1.043c-.4652.6398.076 1.826 1.208 2.648 1.132.8223 2.428.9706 2.892.3308l.6667-1.323.6667 1.323c.4649.6398 1.76.4915 2.892-.3308 1.132-.8226 1.673-2.009 1.208-2.648l-1.052-1.043 1.464-.2253c.752-.2443 1.011-1.522.5791-2.853-.4326-1.331-1.394-2.212-2.146-1.968l-1.317.6783.2381-1.462c0-.7909-1.135-1.432-2.534-1.432s-2.534.6415-2.534 1.432l.2378 1.462-1.317-.6783c-.752-.2444-1.713.6367-2.146 1.968-.4323 1.331-.1732 2.609.5791 2.853zm3.715.4366c.9054 0 1.64-.7339 1.64-1.64 0-.9054-.7342-1.639-1.64-1.639s-1.64.7339-1.64 1.639c0 .9057.7342 1.64 1.64 1.64z"/>
		<path class="st8" d="m116.2 133-1.505 1.492c-.6653.9156.1088 2.612 1.729 3.789 1.62 1.177 3.473 1.389 4.138.4734l.9538-1.893.9541 1.893c.6653.9156 2.518.7036 4.138-.4734 1.62-1.177 2.394-2.874 1.729-3.789l-1.505-1.492 2.095-.3226c1.076-.3498 1.447-2.178.8286-4.082s-1.993-3.165-3.07-2.815l-1.884.9706.341-2.092c0-1.132-1.624-2.049-3.626-2.049-2.002 0-3.626.9176-3.626 2.049l.3404 2.092-1.884-.9706c-1.076-.3495-2.451.9111-3.07 2.815s-.2477 3.732.8286 4.082zm2.85-.487-.9014.972c-.3793.5219-.1706 1.32.4657 1.782.6361.4623 1.46.4138 1.839-.1077l.6494-1.156c-.9005-.1353-1.658-.7051-2.052-1.49zm2.879 1.49.6497 1.156c.3793.5219 1.202.5703 1.839.108.6361-.4623.8447-1.26.4657-1.782l-.902-.9726c-.3939.785-1.152 1.355-2.052 1.49zm2.307-2.277 1.304-.2631c.6134-.1996.9136-.9675.6707-1.716-.2429-.7481-.9374-1.193-1.551-.9935l-1.209.5598c.5071.5.8221 1.195.8221 1.963-1e-4.1528-.0132.303-.0372.449zm-1.449-2.896.1534-1.327c0-.6449-.6378-1.168-1.424-1.168-.7863 0-1.424.523-1.424 1.168l.1573 1.324c.3793-.1962.8101-.3078 1.267-.3078.4589-1e-4.8906.1128 1.271.3106zm-3.205.4819-1.21-.5584c-.6134-.1996-1.308.2455-1.551.9935-.2432.7481.0573 1.516.6704 1.716l1.304.2631c-.0238-.1463-.036-.2962-.036-.449 0-.769.3149-1.465.8229-1.965zm-1.781 3.168-1.052 1.043c-.4649.6398.0763 1.826 1.208 2.648 1.132.8223 2.428.9706 2.893.3308l.6664-1.323.6667 1.323c.4652.6398 1.76.4915 2.893-.3308 1.132-.8226 1.673-2.009 1.208-2.648l-1.052-1.043 1.464-.2253c.7523-.2444 1.011-1.522.5791-2.853-.4326-1.331-1.393-2.212-2.146-1.968l-1.317.6783.2381-1.462c0-.7909-1.135-1.432-2.534-1.432-1.4 0-2.534.6415-2.534 1.432l.2381 1.462-1.317-.6783c-.752-.2444-1.713.6367-2.145 1.968-.4323 1.331-.1732 2.609.5788 2.853zm3.715.4366c.9057 0 1.64-.7339 1.64-1.64 0-.9054-.7339-1.639-1.64-1.639-.9054 0-1.64.7339-1.64 1.639 1e-4.9057.7343 1.64 1.64 1.64z"/>
		<path class="st8" d="m142.7 145.5-1.505 1.492c-.6653.9156.1088 2.612 1.729 3.789 1.62 1.177 3.473 1.389 4.138.4737l.9538-1.893.9539 1.893c.6653.9153 2.519.7033 4.138-.4737 1.62-1.177 2.394-2.874 1.729-3.789l-1.505-1.492 2.095-.3223c1.076-.3498 1.447-2.178.8286-4.082-.6188-1.904-1.993-3.165-3.07-2.815l-1.884.9706.3407-2.092c0-1.132-1.624-2.05-3.626-2.05-2.002 0-3.626.9179-3.626 2.05l.3407 2.092-1.884-.9706c-1.076-.3498-2.451.9111-3.07 2.815-.6185 1.904-.2477 3.732.8286 4.082zm2.85-.4867-.9017.972c-.379.5216-.1704 1.32.4657 1.782.6364.4621 1.46.4139 1.839-.1077l.6494-1.156c-.9005-.1352-1.658-.705-2.052-1.49zm2.88 1.49.6497 1.156c.379.5219 1.202.5701 1.839.108.6361-.4626.8447-1.26.4654-1.782l-.902-.9726c-.3939.7848-1.152 1.355-2.052 1.49zm2.307-2.277 1.304-.263c.6131-.1993.9136-.9675.6704-1.716-.2429-.7478-.9374-1.192-1.551-.9935l-1.209.5598c.5071.5.8218 1.195.8218 1.964-1e-4.1528-.0131.3027-.0369.4487zm-1.449-2.895.1534-1.327c0-.6449-.6378-1.168-1.424-1.168-.7863 0-1.424.523-1.424 1.168l.1573 1.324c.3793-.1964.8102-.3078 1.267-.3078.4586-1e-4.8906.1124 1.271.3106zm-3.205.4819-1.211-.5587c-.6131-.1993-1.308.2455-1.551.9935-.2429.7481.0573 1.516.6707 1.716l1.304.2631c-.0238-.146-.0363-.2959-.0363-.4487 0-.7693.3152-1.465.8232-1.965zm-1.781 3.167-1.052 1.043c-.4652.6398.076 1.826 1.208 2.648 1.132.8226 2.428.9709 2.892.3311l.6667-1.323.6667 1.323c.4649.6398 1.76.4915 2.892-.3311 1.132-.8223 1.673-2.009 1.208-2.648l-1.052-1.043 1.464-.2251c.752-.2443 1.011-1.522.5791-2.853-.4326-1.331-1.394-2.212-2.146-1.968l-1.317.6781.2381-1.462c0-.7909-1.135-1.432-2.534-1.432s-2.534.6415-2.534 1.432l.2378 1.462-1.317-.6781c-.752-.2443-1.713.6367-2.146 1.968-.4323 1.331-.1732 2.609.5791 2.853zm3.715.4368c.9054 0 1.64-.7342 1.64-1.64s-.7342-1.64-1.64-1.64-1.64.7342-1.64 1.64c0 .9055.7342 1.64 1.64 1.64z"/>
		<path class="st8" d="m126.2 145.5-1.505 1.492c-.6653.9156.1088 2.612 1.729 3.789 1.62 1.177 3.473 1.389 4.138.4737l.9541-1.893.9539 1.893c.6653.9153 2.519.7033 4.138-.4737 1.62-1.177 2.394-2.874 1.729-3.789l-1.505-1.492 2.095-.3223c1.076-.3498 1.447-2.178.8286-4.082-.6185-1.904-1.993-3.165-3.07-2.815l-1.884.9706.3407-2.092c0-1.132-1.624-2.05-3.626-2.05-2.002 0-3.626.9179-3.626 2.05l.3407 2.092-1.884-.9706c-1.076-.3498-2.451.9111-3.07 2.815s-.2477 3.732.8286 4.082zm2.85-.4867-.9017.972c-.379.5216-.1704 1.32.4657 1.782.6364.4621 1.46.4139 1.839-.1077l.6497-1.156c-.9008-.1352-1.658-.705-2.052-1.49zm2.879 1.49.6497 1.156c.3793.5219 1.202.5701 1.839.108.6361-.4626.8447-1.26.4657-1.782l-.902-.9726c-.3939.7848-1.152 1.355-2.052 1.49zm2.307-2.277 1.304-.263c.6134-.1993.9139-.9675.6707-1.716-.2429-.7478-.9374-1.192-1.551-.9935l-1.209.5598c.5071.5.8221 1.195.8221 1.964-1e-4.1528-.0131.3027-.0372.4487zm-1.449-2.895.1534-1.327c0-.6449-.6375-1.168-1.424-1.168s-1.424.523-1.424 1.168l.157 1.324c.3793-.1964.8104-.3078 1.267-.3078.4586-1e-4.8903.1124 1.271.3106zm-3.205.4819-1.21-.5587c-.6134-.1993-1.308.2455-1.551.9935-.2432.7481.0573 1.516.6707 1.716l1.304.2631c-.0238-.146-.0363-.2959-.0363-.4487 0-.7693.3152-1.465.8229-1.965zm-1.781 3.167-1.052 1.043c-.4652.6398.076 1.826 1.208 2.648 1.132.8226 2.428.9709 2.893.3311l.6667-1.323.6664 1.323c.4652.6398 1.761.4915 2.893-.3311 1.132-.8223 1.673-2.009 1.208-2.648l-1.052-1.043 1.464-.2251c.752-.2443 1.011-1.522.5791-2.853-.4328-1.331-1.394-2.212-2.146-1.968l-1.317.6781.2381-1.462c0-.7909-1.135-1.432-2.534-1.432-1.4 0-2.534.6415-2.534 1.432l.2378 1.462-1.317-.6781c-.7523-.2443-1.713.6367-2.146 1.968-.4323 1.331-.1732 2.609.5791 2.853zm3.715.4368c.9054 0 1.64-.7342 1.64-1.64s-.7342-1.64-1.64-1.64c-.9057 0-1.64.7342-1.64 1.64 1e-4.9055.734 1.64 1.64 1.64z"/>
		<path id="_152613672_1_" class="st8" d="m134.4 110-1.505 1.492c-.6653.9156.1088 2.612 1.729 3.789 1.62 1.177 3.473 1.389 4.138.4734l.9541-1.893.9539 1.893c.6653.9156 2.519.7036 4.138-.4734 1.62-1.177 2.394-2.874 1.729-3.789l-1.505-1.492 2.095-.3226c1.076-.3495 1.447-2.178.8286-4.082-.6185-1.904-1.993-3.165-3.07-2.815l-1.884.9703.3407-2.092c0-1.132-1.624-2.049-3.626-2.049-2.002 0-3.626.9179-3.626 2.049l.3407 2.092-1.884-.9703c-1.076-.3498-2.451.9111-3.07 2.815-.6188 1.904-.2477 3.732.8286 4.082zm2.85-.4867-.9017.972c-.379.5216-.1704 1.32.4657 1.782.6364.4623 1.46.4141 1.839-.1077l.6497-1.156c-.9008-.1352-1.658-.705-2.052-1.49zm2.879 1.49.6497 1.156c.3793.5219 1.202.57 1.839.1077.6361-.4623.8447-1.26.4657-1.782l-.902-.9726c-.3939.7849-1.152 1.355-2.052 1.49zm2.307-2.277 1.304-.2631c.6134-.1993.9139-.9675.6707-1.716-.2429-.7478-.9374-1.193-1.551-.9935l-1.209.5598c.5071.5.8221 1.195.8221 1.964-1e-4.1528-.0131.3027-.0372.4487zm-1.449-2.895.1534-1.327c0-.6452-.6375-1.168-1.424-1.168s-1.424.523-1.424 1.168l.157 1.324c.3793-.1964.8104-.3081 1.267-.3081.4586 0 .8903.1128 1.271.3109zm-3.205.4816-1.21-.5584c-.6134-.1993-1.308.2455-1.551.9935-.2432.7481.0573 1.516.6707 1.716l1.304.2631c-.0238-.1463-.0363-.2959-.0363-.4487 0-.7693.3152-1.465.8229-1.965zm-1.781 3.168-1.052 1.043c-.4652.6398.076 1.826 1.208 2.648 1.132.8226 2.428.9706 2.893.3308l.6667-1.323.6664 1.323c.4652.6398 1.761.4918 2.893-.3308 1.132-.8226 1.673-2.009 1.208-2.648l-1.052-1.043 1.464-.2253c.752-.2441 1.011-1.522.5791-2.853-.4328-1.331-1.394-2.212-2.146-1.968l-1.317.678.2381-1.462c0-.7909-1.135-1.432-2.534-1.432-1.4 0-2.534.6415-2.534 1.432l.2378 1.462-1.317-.678c-.7523-.2446-1.713.6364-2.146 1.968-.4323 1.331-.1732 2.609.5791 2.853zm3.715.4369c.9054 0 1.64-.7342 1.64-1.64s-.7342-1.64-1.64-1.64c-.9057 0-1.64.7342-1.64 1.64s.734 1.64 1.64 1.64z"/>
	</g>
</svg>
