<?xml version="1.0" encoding="UTF-8" standalone="no"?>
<!-- Created with Inkscape (http://www.inkscape.org/) -->

<svg
   xmlns:dc="http://purl.org/dc/elements/1.1/"
   xmlns:cc="http://creativecommons.org/ns#"
   xmlns:rdf="http://www.w3.org/1999/02/22-rdf-syntax-ns#"
   xmlns:svg="http://www.w3.org/2000/svg"
   xmlns="http://www.w3.org/2000/svg"
   xmlns:sodipodi="http://sodipodi.sourceforge.net/DTD/sodipodi-0.dtd"
   xmlns:inkscape="http://www.inkscape.org/namespaces/inkscape"
   width="218.31085mm"
   height="218.48326mm"
   viewBox="0 0 773.54239 774.15328"
   id="svg4510"
   version="1.1"
   inkscape:version="0.91 r13725"
   sodipodi:docname="Fukien Provincial Government Seal.svg">
  <defs
     id="defs4512" />
  <sodipodi:namedview
     id="base"
     pagecolor="#ffffff"
     bordercolor="#666666"
     borderopacity="1.0"
     inkscape:pageopacity="0.0"
     inkscape:pageshadow="2"
     inkscape:zoom="0.35"
     inkscape:cx="511.99943"
     inkscape:cy="204.45834"
     inkscape:document-units="px"
     inkscape:current-layer="layer1"
     showgrid="false"
     fit-margin-top="0"
     fit-margin-left="0"
     fit-margin-right="0"
     fit-margin-bottom="0"
     inkscape:window-width="1920"
     inkscape:window-height="1018"
     inkscape:window-x="-8"
     inkscape:window-y="-8"
     inkscape:window-maximized="1" />
  <metadata
     id="metadata4515">
    <rdf:RDF>
      <cc:Work
         rdf:about="">
        <dc:format>image/svg+xml</dc:format>
        <dc:type
           rdf:resource="http://purl.org/dc/dcmitype/StillImage" />
        <dc:title></dc:title>
      </cc:Work>
    </rdf:RDF>
  </metadata>
  <g
     inkscape:label="Layer 1"
     inkscape:groupmode="layer"
     id="layer1"
     transform="translate(558.20414,-88.100453)">
    <path
       style="fill:#f8cf01;fill-opacity:1;fill-rule:evenodd;stroke:none;stroke-width:1px;stroke-linecap:butt;stroke-linejoin:miter;stroke-opacity:1"
       d="m -472.24632,573.9287 c -48.043,-5.72909 -85.95782,-47.87225 -85.95782,-95.50353 0,-52.16769 33.83389,-81.9725 59.56286,-92.55085 15.27208,-6.27904 26.39496,-7.4318 26.39496,-7.4318 0,0 -82.1128,-40.42049 -70.84716,-57.49117 8.94518,-13.55452 72.26754,6.27374 89.52205,11.05371 0,0 -52.25059,-68.46919 8.74402,-129.46381 58.81215,-58.81215 129.47027,-9.46476 129.47027,-9.46476 0,0 -27.07862,-82.3823 -12.53742,-88.83597 18.99506,-8.430379 57.89456,71.1574 57.89456,71.1574 0,0 2.26627,-22.15413 17.29791,-44.14152 14.80705,-21.65888 42.08324,-43.155947 80.99771,-43.155947 38.70136,0 66.93171,23.455567 80.492645,43.155747 14.59337,21.20003 16.568878,42.53457 16.568878,42.53457 0,0 38.972188,-78.985816 58.074363,-70.71444 16.10273748,6.9726 -11.645792,89.28587 -11.645792,89.28587 0,0 24.0929697,-18.33897 55.464375,-19.88348 23.775694,-1.17055 51.300316,5.35268 74.673101,29.69426 28.91892,30.11763 31.96076,62.72131 26.51125,87.4447 -5.23757,23.7619 -18.25587,41.13738 -18.25587,41.13738 0,0 79.42932,-27.7857 88.90431,-11.37454 11.51791,19.94961 -69.79717,56.91026 -69.79717,56.91026 0,0 20.63574,2.77244 41.10722,16.0161 22.46227,14.53156 44.9453,41.30574 44.9453,82.20347 0,46.34894 -26.51352,72.33923 -50.0987,85.28434 -18.44603,10.12441 -35.3658,12.48458 -35.3658,12.48458 0,0 76.57432,36.57489 71.1864,56.68287 -4.57756,17.08368 -89.9887,-11.24279 -89.9887,-11.24279 0,0 12.26054,15.46525 17.4194,37.35062 6.34781,26.92929 3.68738,63.4872 -24.6256,91.80018 -61.249345,61.24935 -130.650944,10.13491 -130.650944,10.13491 0,0 28.1657617,80.18371 11.450755,89.83413 -18.219898,10.51926 -57.522184,-71.61984 -57.522184,-71.61984 0,0 -1.44899,20.48379 -15.199015,41.5767 -14.592842,22.38581 -42.626142,45.4577 -82.657392,45.4577 -38.84993,0 -66.48877,-21.79708 -81.30869,-43.47989 -14.43012,-21.11251 -16.54919,-42.12594 -16.54919,-42.12594 0,0 -37.97851,81.65648 -57.45888,70.40948 -14.73655,-8.50815 11.38745,-89.33805 11.38745,-89.33805 0,0 -16.32508,13.18593 -41.09886,18.25888 -25.34393,5.18969 -59.48002,1.93857 -89.53841,-28.11982 -28.97891,-28.97891 -31.12229,-69.37313 -25.02887,-92.00536 5.4788,-20.34936 17.45186,-36.70513 17.45186,-36.70513 0,0 -80.1507,29.0539 -90.52491,11.08524 -9.52212,-16.49279 71.13573,-56.30446 71.13573,-56.30446 z"
       id="path5069"
       inkscape:connector-curvature="0"
       sodipodi:nodetypes="csscscscscssscscssscscssscscsscscssscscssscsc" />
    <path
       style="opacity:1;fill:#89bf2b;fill-opacity:1;stroke:none;stroke-width:0.02;stroke-linecap:round;stroke-linejoin:miter;stroke-miterlimit:4;stroke-dasharray:none;stroke-opacity:1"
       d="m -171.78516,111.04102 a 75.25,75.25 0 0 0 -75.25,75.25 75.25,75.25 0 0 0 75.25,75.25 75.25,75.25 0 0 0 75.250004,-75.25 75.25,75.25 0 0 0 -75.250004,-75.25 z m 203.605472,83.9707 a 75.25,75.25 0 0 0 -75.25,75.25 75.25,75.25 0 0 0 75.25,75.25 75.25,75.25 0 0 0 75.249998,-75.25 75.25,75.25 0 0 0 -75.249998,-75.25 z m -407.597652,1 a 75.25,75.25 0 0 0 -75.25,75.25 75.25,75.25 0 0 0 75.25,75.25 75.25,75.25 0 0 0 75.25,-75.25 75.25,75.25 0 0 0 -75.25,-75.25 z m 492.5625,202.88672 a 75.25,75.25 0 0 0 -75.250004,75.25 75.25,75.25 0 0 0 75.250004,75.25 75.25,75.25 0 0 0 75.25,-75.25 75.25,75.25 0 0 0 -75.25,-75.25 z m -576.55274,1.42578 a 75.25,75.25 0 0 0 -75.25,75.25 75.25,75.25 0 0 0 75.25,75.25 75.25,75.25 0 0 0 75.25,-75.25 75.25,75.25 0 0 0 -75.25,-75.25 z M 33.214844,602.82617 a 75.25,75.25 0 0 0 -75.25,75.25 75.25,75.25 0 0 0 75.25,75.25 75.25,75.25 0 0 0 75.249996,-75.25 75.25,75.25 0 0 0 -75.249996,-75.25 z M -375,604.25586 a 75.25,75.25 0 0 0 -75.25,75.25 75.25,75.25 0 0 0 75.25,75.25 75.25,75.25 0 0 0 75.25,-75.25 75.25,75.25 0 0 0 -75.25,-75.25 z m 204.28516,83.92773 a 75.25,75.25 0 0 0 -75.25,75.25 75.25,75.25 0 0 0 75.25,75.25 75.25,75.25 0 0 0 75.249996,-75.25 75.25,75.25 0 0 0 -75.249996,-75.25 z"
       id="path5095"
       inkscape:connector-curvature="0" />
    <path
       style="opacity:1;fill:#6ec3f5;fill-opacity:1;stroke:none;stroke-width:0.02;stroke-linecap:round;stroke-linejoin:miter;stroke-miterlimit:4;stroke-dasharray:none;stroke-opacity:1"
       d="m -319.31055,119.39062 a 93.305311,10.131921 67.394308 0 0 -0.73242,0.10547 93.305311,10.131921 67.394308 0 0 26.85742,90.65821 93.305311,10.131921 67.394308 0 0 45.01367,81.55078 93.305311,10.131921 67.394308 0 0 -26.85546,-90.65625 93.305311,10.131921 67.394308 0 0 -44.28321,-81.65821 z m 293.9043,0 a 10.131921,93.305311 22.605692 0 0 -44.28125,81.65821 10.131921,93.305311 22.605692 0 0 -26.857422,90.6582 10.131921,93.305311 22.605692 0 0 45.015625,-81.55273 10.131921,93.305311 22.605692 0 0 26.855469,-90.65625 10.131921,93.305311 22.605692 0 0 -0.732422,-0.10743 z m -213.60156,184.02344 a 9.3374996,9.3375463 0 0 0 -9.33789,9.33594 9.3374996,9.3375463 0 0 0 9.33789,9.33789 9.3374996,9.3375463 0 0 0 9.33593,-9.33789 9.3374996,9.3375463 0 0 0 -9.33593,-9.33594 z m 134.90039,0 a 9.3374996,9.3375463 0 0 0 -9.33789,9.33594 9.3374996,9.3375463 0 0 0 9.33789,9.33789 9.3374996,9.3375463 0 0 0 9.337889,-9.33789 9.3374996,9.3375463 0 0 0 -9.337889,-9.33594 z m 284.23828,22.4961 a 10.131921,93.305311 67.572192 0 0 -85.480469,27.17187 10.131921,93.305311 67.572192 0 0 -83.06836,45.16211 10.131921,93.305311 67.572192 0 0 89.482419,-25.88672 10.131921,93.305311 67.572192 0 0 83.06836,-45.16406 10.131921,93.305311 67.572192 0 0 -4.00195,-1.2832 z m -702.98047,1.97851 a 93.305311,10.131921 22.427808 0 0 -4,1.28321 93.305311,10.131921 22.427808 0 0 83.06836,45.16406 93.305311,10.131921 22.427808 0 0 89.48047,25.88672 93.305311,10.131921 22.427808 0 0 -83.06836,-45.16211 93.305311,10.131921 22.427808 0 0 -85.48047,-27.17188 z m 188.56836,70.61524 a 9.3374996,9.3375463 0 0 0 -9.33594,9.33789 9.3374996,9.3375463 0 0 0 9.33594,9.33789 9.3374996,9.3375463 0 0 0 9.33789,-9.33789 9.3374996,9.3375463 0 0 0 -9.33789,-9.33789 z m 325.6953125,0 a 9.3374996,9.3375463 0 0 0 -9.3378905,9.33789 9.3374996,9.3375463 0 0 0 9.3378905,9.33789 9.3374996,9.3375463 0 0 0 9.33789062,-9.33789 9.3374996,9.3375463 0 0 0 -9.33789062,-9.33789 z M -334.28125,533.40234 a 9.3374996,9.3375463 0 0 0 -9.33594,9.33789 9.3374996,9.3375463 0 0 0 9.33594,9.33789 9.3374996,9.3375463 0 0 0 9.33789,-9.33789 9.3374996,9.3375463 0 0 0 -9.33789,-9.33789 z m 325.6953125,0 a 9.3374996,9.3375463 0 0 0 -9.3378905,9.33789 9.3374996,9.3375463 0 0 0 9.3378905,9.33789 9.3374996,9.3375463 0 0 0 9.33789062,-9.33789 9.3374996,9.3375463 0 0 0 -9.33789062,-9.33789 z m 24.1699215,15.8418 a 93.305311,10.131921 22.427808 0 0 -4.001953,1.2832 93.305311,10.131921 22.427808 0 0 83.06836,45.16211 93.305311,10.131921 22.427808 0 0 89.482419,25.88867 93.305311,10.131921 22.427808 0 0 -83.06836,-45.1621 93.305311,10.131921 22.427808 0 0 -85.480466,-27.17188 z m -373.886714,1.56055 a 10.131921,93.305311 67.572192 0 0 -85.47852,27.17187 10.131921,93.305311 67.572192 0 0 -83.06836,45.16211 10.131921,93.305311 67.572192 0 0 89.48047,-25.88867 10.131921,93.305311 67.572192 0 0 83.06836,-45.16211 10.131921,93.305311 67.572192 0 0 -4.00195,-1.2832 z m 119.29492,78.20898 a 9.3374996,9.3375463 0 0 0 -9.33789,9.33789 9.3374996,9.3375463 0 0 0 9.33789,9.33594 9.3374996,9.3375463 0 0 0 9.33593,-9.33594 9.3374996,9.3375463 0 0 0 -9.33593,-9.33789 z m 134.90039,0 a 9.3374996,9.3375463 0 0 0 -9.33789,9.33789 9.3374996,9.3375463 0 0 0 9.33789,9.33594 9.3374996,9.3375463 0 0 0 9.337889,-9.33594 9.3374996,9.3375463 0 0 0 -9.337889,-9.33789 z m -142.53711,28.48242 a 10.131921,93.305311 22.605692 0 0 -44.28125,81.65821 10.131921,93.305311 22.605692 0 0 -26.85742,90.6582 10.131921,93.305311 22.605692 0 0 45.01562,-81.55273 10.131921,93.305311 22.605692 0 0 26.85547,-90.65821 10.131921,93.305311 22.605692 0 0 -0.73242,-0.10547 z m 151.798827,0 a 93.305311,10.131921 67.394308 0 0 -0.732422,0.10743 93.305311,10.131921 67.394308 0 0 26.855469,90.65625 93.305311,10.131921 67.394308 0 0 45.015625,81.55273 93.305311,10.131921 67.394308 0 0 -26.857422,-90.6582 93.305311,10.131921 67.394308 0 0 -44.28125,-81.65821 z"
       id="path5095-1-7"
       inkscape:connector-curvature="0" />
    <path
       style="opacity:1;fill:#ffffff;fill-opacity:1;fill-rule:evenodd;stroke:none;stroke-width:0.2;stroke-linecap:butt;stroke-linejoin:miter;stroke-miterlimit:4;stroke-dasharray:none;stroke-opacity:1"
       d="m -248.81821,370.8902 c -1.009,0.0152 -1.92573,0.26412 -2.61523,0.7793 -10.64865,7.95638 -2.23822,16.62322 -2.64063,46.35937 -0.5056,37.3612 -4.36573,79.79316 -22.58398,105.52539 -5.03363,7.10972 -20.49008,13.3918 -11.38282,21.15039 5.44749,4.64081 19.25888,-4.01109 26.49415,-17.74023 11.83929,-22.46549 18.81698,-70.28309 32.30273,-83.54101 3.51334,-3.45399 17.90766,-6.10594 29.51172,-3.97071 5.01892,0.92351 8.97549,5.77317 12.75195,7.91211 4.13637,2.34279 8.53037,1.4812 9.32031,-3.74023 1.59297,-10.52935 6.87362,-65.50319 -5.82812,-69.63477 -1.98217,-0.64475 -4.33347,1.31742 -5.51172,3.26172 -1.56813,2.58768 -1.61497,5.24161 -4.22656,4.5293 -8.97805,-2.44878 -14.06791,-2.9699 -20.27735,-2.9961 -9.50458,-0.0401 -11.62211,0.36654 -17.51562,2.47461 -4.44037,1.58829 -6.12178,1.22757 -8.75391,1.10938 -2.02362,-0.0909 0.13399,-5.66689 -2.48437,-8.56446 -1.67546,-1.85411 -4.34075,-2.94757 -6.56055,-2.91406 z m 161.314452,0 c -2.2198,-0.0335 -4.885087,1.05995 -6.560547,2.91406 -2.61836,2.89757 -0.460755,8.47356 -2.484375,8.56446 -2.63213,0.11819 -4.31354,0.47891 -8.75391,-1.10938 -5.89351,-2.10807 -8.01104,-2.51471 -17.51562,-2.47461 -6.20944,0.0262 -11.29929,0.54732 -20.27734,2.9961 -2.61159,0.71231 -2.65844,-1.94162 -4.22657,-4.5293 -1.17825,-1.9443 -3.52954,-3.90647 -5.51171,-3.26172 -12.70174,4.13158 -7.4211,59.10542 -5.82813,69.63477 0.78994,5.22143 5.18394,6.08302 9.32031,3.74023 3.77646,-2.13894 7.73303,-6.9886 12.75195,-7.91211 11.60407,-2.13523 25.99838,0.51672 29.51172,3.97071 13.485753,13.25791 20.463445,61.07552 32.302737,83.54101 7.23527,13.72914 21.046651,22.38104 26.494141,17.74023 9.107261,-7.7586 -6.349183,-14.04067 -11.382812,-21.15039 -18.218252,-25.73223 -22.078385,-68.16419 -22.583985,-105.52539 -0.40241,-29.73615 8.008027,-38.40299 -2.640625,-46.35937 -0.6895,-0.51518 -1.606234,-0.7641 -2.615234,-0.7793 z m -125.007812,20.95117 c 18.12422,0.36822 22.17341,9.13817 20.63086,12.33594 -3.49411,7.24341 -5.97888,-2.43555 -19.55664,-2.43555 -16.91836,0 -17.27149,9.50309 -21.96875,2.77539 -4.92836,-7.05867 10.80488,-12.88077 20.89453,-12.67578 z m 88.70117,0 c 10.08965,-0.20499 25.822892,5.61711 20.89453,12.67578 -4.69726,6.72769 -5.05039,-2.77539 -21.96875,-2.77539 -13.57776,0 -16.06253,9.67896 -19.55664,2.43555 -1.54255,-3.19777 2.50664,-11.96772 20.63086,-12.33594 z m -86.96289,24.97461 c 18.12422,0.36823 22.84972,6.44317 20.13867,11.17383 -4.46826,7.79688 -6.87062,-1.27344 -19.06445,-1.27344 -16.91836,0 -18.09716,9.82594 -22.90625,3.17774 -5.68729,-7.86225 10.44827,-13.30941 21.83203,-13.07813 z m 85.22461,0 c 11.38376,-0.23128 27.519321,5.21588 21.83203,13.07813 -4.80909,6.6482 -5.98789,-3.17774 -22.90625,-3.17774 -12.19383,0 -14.59619,9.07032 -19.06445,1.27344 -2.71105,-4.73066 2.01445,-10.8056 20.13867,-11.17383 z m -42.42773,46.25196 c -12.55513,1.3e-4 -3.51598,24.42677 -9.16407,29.24023 -1.22881,1.04722 -4.64754,1.35798 -8.7871,1.44727 -7.13659,0.15393 -10.06175,-0.23618 -11.37305,-2.2168 -2.92526,-4.41842 2.20106,-17.06836 -8.6875,-17.06836 -6.80765,0 -7.66486,16.68977 -6.625,23.91211 5.71429,39.68861 33.80241,29.17731 36.25781,35.81055 0.63602,1.71821 0.58887,4.79989 0.57031,9.35742 -0.0281,6.8877 -0.52468,10.33594 -4.42578,10.33594 -8.64528,0 -21.0422,-7.03748 -28.09375,-12.82227 -2.75253,-2.25806 2.85356,-6.39115 -2.18945,-9.30273 -3.42002,-1.97455 -9.17865,4.69317 -9.75781,5.44921 -1.79672,2.34545 -6.45661,7.81212 -2.34571,10.18555 3.91653,2.26121 4.52634,-3.56594 6.17579,-1.76562 9.16775,10.00625 32.39463,22.15442 48.44531,22.15429 16.05068,-1.2e-4 39.27561,-12.14804 48.44336,-22.15429 1.64945,-1.80032 2.25925,4.02683 6.17578,1.76562 4.11089,-2.37343 -0.54703,-7.8401 -2.34375,-10.18555 -0.57916,-0.75604 -6.33975,-7.42376 -9.75977,-5.44921 -5.04301,2.91158 0.56308,7.04467 -2.18945,9.30273 -7.05155,5.78479 -19.44847,12.82031 -28.09375,12.82031 -3.9011,0 -4.39768,-3.44628 -4.42578,-10.33398 -0.0186,-4.55753 -0.0657,-7.63921 0.57031,-9.35742 2.4554,-6.63324 30.54352,3.87611 36.25781,-35.8125 1.03986,-7.22234 0.18265,-23.91016 -6.625,-23.91016 -10.88856,0 -5.76029,12.64994 -8.68555,17.06836 -1.3113,1.98062 -4.2384,2.37073 -11.37499,2.2168 -4.13956,-0.0893 -7.5583,-0.40005 -8.78711,-1.44727 -5.64809,-4.81346 3.39302,-29.24035 -9.16211,-29.24023 z m -14.32813,37.80859 c 2.31139,0.008 4.54505,0.17756 5.70313,1.37695 0.61405,0.63597 0.66015,1.56058 0.66015,2.9043 l 0,9.23828 c 0,2.35952 -2.51472,2.32197 -5.83007,2.41797 -5.97832,0.17312 -14.41993,-2.20375 -14.41993,-10.49414 0,-1.93191 0.21473,-3.60979 1.35743,-4.26953 1.80988,-1.04493 6.39398,-1.15316 10.22851,-1.16016 0.75077,-10e-4 1.53032,-0.0163 2.30078,-0.0137 z m 28.93946,0 c 0.77046,-0.003 1.55001,0.0122 2.30078,0.0137 3.83452,0.007 8.41863,0.11523 10.22851,1.16016 1.1427,0.65974 1.35742,2.33762 1.35742,4.26953 0,8.29039 -8.44161,10.66726 -14.41992,10.49414 -3.31535,-0.096 -5.83008,-0.0584 -5.83008,-2.41797 l 0,-9.23828 c 0,-1.34372 0.0461,-2.26833 0.66016,-2.9043 1.15808,-1.19939 3.39174,-1.36916 5.70313,-1.37695 z"
       id="path5399"
       inkscape:connector-curvature="0" />
  </g>
</svg>
