<svg id="Camada_1" data-name="Camada 1" xmlns="http://www.w3.org/2000/svg" viewBox="0 0 800 1221"><defs><style>.cls-1{fill:red;}</style></defs><title>Seal of the North Shanxi Autonomous Goverment</title><path class="cls-1" d="M-93,976V-181a13.4,13.4,0,0,0,1.66-2.8c4.33-15.07,14.13-24.51,29.18-28.66A7.9,7.9,0,0,0-60-214H674a19.42,19.42,0,0,0,4,2.25c10.67,3.09,18.85,9.21,23.79,19.3,1.85,3.76,3.48,7.63,5.21,11.45V973a29,29,0,0,0-2,4.44c-3.19,12-10.61,20.29-21.76,25.43-3.05,1.41-6.13,2.76-9.2,4.13H-61c-1.41-.8-2.8-1.62-4.22-2.39-4.61-2.48-9.51-4.54-13.79-7.49C-86.4,992-89.61,983.89-93,976ZM641,404.48H641q0-272.72,0-545.45a31,31,0,0,0-.77-8.41A6.79,6.79,0,0,0,636.4-153c-1.59-.64-3.61-.24-5.45-.24l-648.93,0c-11.25,0-11.26,0-11.26,11.17q0,538.69,0,1077.4a112.65,112.65,0,0,0,.95,12.83c.43,3.67,0,8.84,2.15,10.54,2.41,1.9,7.32.73,11.14.73H623c3.67,0,7.33,0,11,0,6,0,6.83-.87,7-7,.07-3.16.07-6.33.07-9.5Q641,673.71,641,404.48Z" transform="translate(93 214)"/><path class="cls-1" d="M145.41,441.42c0-4.51,0-8.15,0-11.8q-.48-48.48-1-97a30.32,30.32,0,0,1,.24-5.48c.83-4.75,3.79-7.12,8.34-6.73s6.65,3.27,6.73,7.72c.28,15.49.67,31,.8,46.47.17,19.83.13,39.66.19,59.49,0,7.31,0,7.36,7.54,7.24,17.15-.28,34.31-.83,51.46-.86,13.49,0,27,.85,40.46.81,12.74,0,12.51-.68,9.8-13-1.62-7.34-6.43-11.55-13.72-12.7-9.68-1.52-19.43-2.7-29.14-4.06-8.62-1.21-16.15-4.22-20.24-12.64a12.17,12.17,0,0,1-1.47-4.68c-.74-26.63-1.52-53.26-2-79.89-.16-10.1,5.43-15.56,15.93-15.87q25.23-.74,50.47-.75c10,0,15.23,4.81,15.57,15.59.76,24.13.88,48.28,1.09,72.43,0,4.43-1.81,8.69-6.66,9.21-2.4.26-5.82-1.57-7.44-3.54-1.44-1.75-1.36-5-1.37-7.61,0-13.66.3-27.33.23-41-.05-8.49-.68-17-.85-25.46-.07-3.23-1.54-4.6-4.55-4.54q-21.73.38-43.46.82c-3.14.06-3.83,2.07-3.77,4.72q.77,31.47,1.52,63c.05,2,.34,4,.39,6,.2,6.58,1.46,8.13,8,9.07,9.71,1.39,19.44,2.61,29.15,4,25.09,3.59,30.71,26.13,28.8,43.93-.66,6.21-6.71,10.78-14.73,11.19-12.46.63-25,.77-37.44.87q-34.22.24-68.45.14c-3.63,0-4.61,1.56-4.44,4.86a111.54,111.54,0,0,1,.11,12c-.21,3.87,1.16,5.18,5.14,5.15,24.33-.21,48.66-.09,73-.26,13.16-.09,26.32-.56,39.48-.82,2,0,4.45-.57,5.89.36,2.41,1.56,5.57,3.95,5.84,6.3s-2.35,5.27-4.34,7.33c-1,1.06-3.44,1-5.24,1.06-32.31.59-64.63,1.46-96.94,1.57-43.14.15-86.28-.26-129.43-.55-11-.08-22-.6-32.95-1-5.63-.2-8.62-2.88-8.65-7.55,0-4.84,3.07-7.52,9.13-7.47q58,.4,115.94.93c7.74.06,7.74,0,7.77-7.51.05-14.28.05-14.36-14.25-14.39-28.31-.05-56.63,0-84.94,0a124.24,124.24,0,0,1-14.93-1c-10.4-1.31-15.14-6.61-14.64-17.14a70.59,70.59,0,0,1,2.93-16.62C23.56,411,31,403.91,41.91,401.64s22-3.46,33-5.17c7.57-1.18,9-2.27,9.17-9.8.64-22.81.9-45.63,1.41-68.44.08-3.57-1.61-4.6-4.85-4.65-13.32-.2-26.64-.58-40-.77-6.18-.09-6.91.64-6.93,6.89-.08,21.65,0,43.3-.21,64.94a13.68,13.68,0,0,1-3,8.48c-3.93,4.29-10.57,2-12-3.68a14.85,14.85,0,0,1-.3-3.47c0-23,0-46,.18-69a36.45,36.45,0,0,1,1.33-8.85c1.75-6.72,6.61-10.54,14.54-10.52,17.15.05,34.32.3,51.46,1,10.08.38,15,5.68,14.86,15.72-.23,24.65-.92,49.3-1.13,73.95-.13,15.86-10.72,21.85-22.28,23.38-9.72,1.28-19.47,2.4-29.12,4.09-9.88,1.74-17,12.13-15.28,21.93a4.44,4.44,0,0,0,2.71,2.79,26.7,26.7,0,0,0,7.39.92c13.82-.22,27.64-.87,41.46-.84,18.15.05,36.31.59,54.46.91C140.83,441.45,142.79,441.42,145.41,441.42Z" transform="translate(93 214)"/><path class="cls-1" d="M499.15,226.51c-26.33,0-52.66.26-79-.07-26.64-.33-53.27-1.22-79.9-1.93-15.83-.42-24.66-8.76-24.82-24.5-.15-14.13.8-28.26,1.13-42.39.14-5.81-.53-11.67,0-17.42.31-3.14,1.65-7,3.89-8.95,4.23-3.71,10.77-.32,11.06,5.59.22,4.75,1.61,5.66,6.35,4.75,23.5-4.55,47.07-8.77,70.66-12.84,7.19-1.23,14.54-1.59,21.81-2.4,3.8-.42,7.43-.5,7.47-6.22,0-3.54,3.14-5.77,7-5.82,4,0,7.26,2,7.54,5.85.37,4.84,3.09,5.63,6.82,6,12.24,1.32,24.51,2.39,36.69,4.13,15.14,2.16,30.19,4.92,45.29,7.37,9.36,1.52,18.74,2.94,28.11,4.42,2.46.39,4.45.6,5.11-2.85.84-4.4,4-6.44,8.46-5.87,4.87.61,6.6,3.94,6.71,8.44.38,15.65.94,31.29,1,46.94.06,8.41-.54,16.84-1.08,25.24a25.56,25.56,0,0,1-1.82,6.7c-1.49,4.25-4.32,6.16-9.08,6.13-26.5-.16-53-.08-79.49-.08Zm-166.6-68.22-.51,1.4c1.9.57,3.79,1.6,5.71,1.64,41.44.77,82.89,1.4,124.34,2.11,35.29.59,70.58,1.28,105.87,1.78,2.33,0,6.08,2,6.52-2.9.4-4.46-2.61-4.49-5.77-4.87-5-.59-9.84-1.59-14.77-2.34-29.25-4.39-58.48-9-87.78-13a186.09,186.09,0,0,0-28.72-1.37c-6.76.13-13.45,2.12-20.23,2.72A535.06,535.06,0,0,0,332.55,158.29Zm242.24,46.09-243.27-4.76c-.11,7.91,2,9.56,11,9.75q45.23,1,90.44,1.93,66.46,1.47,132.93,3C574.58,214.48,574.58,214.47,574.79,204.38ZM348.41,176.94v-.41c-4.34,0-8.67.07-13,0-2.84-.06-4.75.37-4.83,4s1.92,3.93,4.72,4c26.48.55,53,1.21,79.44,1.73,29.65.59,59.29,1,88.94,1.59,22,.42,44,1,65.94,1.47,3.23.07,5.89-.06,5.83-4.63-.06-4-2.31-4.09-5.18-4.14-29-.52-58-1.16-86.94-1.61Q415.87,177.81,348.41,176.94Z" transform="translate(93 214)"/><path class="cls-1" d="M84,755.64q37.47,0,75,0c5.55,0,8.73,2.82,8.89,7.4s-2.29,7.52-7.81,7.83c-9.8.55-19.64.7-29.46.57-4.54-.06-6.24,1.3-6,6,.55,10,.78,20,.93,29.95.13,8.49-3.62,12.19-12,12.25-6.49.05-13,.08-19.49,0-3.16,0-4.45,1.26-4.41,4.48,0,4.49-.26,9-.5,13.48-.15,2.72.88,4,3.73,3.94,14.48-.41,29-.8,43.45-1.09,2.91-.05,3.13-1.73,3.12-3.92,0-6.67,0-13.33,0-20,.05-6,3.45-10,8.19-10,4.23.07,7.33,3.87,7.41,9.58.12,9.33.16,18.67,0,28-.13,7.55-4.31,11.4-12,11.55q-23.75.45-47.48.94c-6.55.14-6.88.43-6.87,6.79,0,11.92-1.43,11,11,10.8s24.65-.6,37-.7c3.66,0,5.45-1,5.59-5,.21-6,3.31-9.19,7.79-8.93,4.83.28,7.6,3.74,7.51,9.92q-.35,23.49-.94,47c-.13,5.28-3.5,8.64-8.76,9.07-1.32.11-2.66,0-4,0h-122c-9.63,0-12.52-2.85-12.55-12.47,0-12.5.08-25-.05-37.5,0-4.56,1.43-8,6-9.1s7.51,1.22,9.35,5.48a4.78,4.78,0,0,0,3.54,2.35c13.67.15,27.33,0,41,.08,2.9,0,4.06-1.09,4.23-4.11.72-12.75.8-12.86-11.9-12.7-12.32.16-24.65.43-37,.91-12.15.47-16-3.11-16.22-15.16-.08-5.65-.86-11.31-.71-16.94.08-2.78.82-6.18,2.58-8.08,1.55-1.68,5.27-2.77,7.41-2.1s4.5,3.63,4.93,5.93c1,5.19,1,10.59,1.06,15.92.06,3.13,1.11,4.45,4.4,4.41q20.25-.26,40.49-.15c4.08,0,5.76-1.63,5.65-5.63-.11-3.83-.08-7.67.1-11.49.19-4-1.33-5.86-5.51-5.62-4,.23-8,.07-12,.06-10.77,0-13.29-2.52-13.33-13.13,0-9.16-.22-18.33-.09-27.49.06-4.67-1.62-6.57-6.5-6.3-9.47.53-19,.7-28.46.78-5.06,0-8.8-3.37-8.94-7.55-.15-4.36,3.26-7.38,8.66-7.6,2.33-.09,4.67-.08,7-.08H84Zm57.34,133.19c-1.56-.11-2.54-.26-3.51-.24-33.94.43-67.88.8-101.81,1.37-11.44.19-11.44.42-11.42,12,0,8.32,0,8.32,8.1,8.32H133.08c1.5,0,3-.07,4.49-.07,2.72,0,3.87-1.32,3.83-4C141.33,900.6,141.38,895,141.38,888.83ZM84.24,804.44c7,0,14-.18,20.94.07,3.81.13,5-1.44,4.87-5-.3-7.64-.6-15.28-.6-22.92,0-3.64-1.35-5.09-5-5q-20.94.58-41.88.91c-3,.05-4.09,1.29-4,4.22.16,7.81.21,15.62.21,23.44,0,3.15,1.29,4.38,4.52,4.3C70.27,804.31,77.25,804.44,84.24,804.44Z" transform="translate(93 214)"/><path class="cls-1" d="M229.29,164c16,0,32,0,48,0,9.53,0,13.57,3.31,14.3,12.71.63,8.12,1,16.27,1.09,24.42.11,7.08-2.6,11.29-9.6,12.61A129.91,129.91,0,0,1,258.3,216c-28.81-.18-57.61-.91-86.42-1.32-9.88-.15-10,.06-10.12,10-.1,8,0,16-.12,24,0,3.4,1,5.43,4.49,6.64C191.84,264.08,218,271,245,274.4c13.35,1.67,26.79,2.74,40.18,4.1a20,20,0,0,1,2.45.46c5.28,1.26,7.37,3.73,6.91,8.11-.43,4.1-3.56,6.8-8.52,6.51-10.78-.62-21.58-1.28-32.31-2.48-32.87-3.68-64.73-11.75-96-22.43a13.62,13.62,0,0,0-8.14.07c-26.37,8.94-53.14,16.37-80.7,20.34-15.45,2.22-31.08,3.23-46.65,4.46-6,.48-8.77-2.08-8.93-6.88-.16-5.06,2.76-7.93,8.54-8.21a422.83,422.83,0,0,0,116.27-22c8-2.7,7.94-2.67,8.17-11.19.28-10.31.22-20.65,1.1-30.91.86-9.95,5.09-14,15-14.65,4.42-.3,5.18-2.07,5-5.86-.24-5.48-.16-11,0-16.47.24-8.87,4.44-12.92,13.47-13,16.15-.06,32.31,0,48.47,0Zm-7,15.5v.07c-11.65,0-23.32.08-35-.05-3.29,0-5,.78-4.75,4.44a87.61,87.61,0,0,1,0,11c-.2,3.57,1.35,4.58,4.72,4.56,6.66,0,13.31.37,20,.5,18.65.36,37.3,1.09,55.93.87,15-.18,15.85-1.71,14-16.27l-.06-.5c-.3-3.28-1.64-4.76-5.39-4.71C255.24,179.65,238.76,179.51,222.28,179.51Z" transform="translate(93 214)"/><path class="cls-1" d="M233.49,726.33c14.33,0,28.66-.06,43,0,7.59,0,11.13,3.25,11.23,10.88.29,20.66.3,41.32.32,62,0,3.94-2,6.63-6.07,7.4a36.09,36.09,0,0,1-4.91.87q-24.21,1.1-48.41,2.09c-8.82.38-17.63.85-26.45,1.14-3.74.12-5.47,1.89-5.48,5.56-.07,22.13-.23,44.26-.18,66.4,0,7.81.61,15.63.86,23.45.1,3.14,1.59,4.25,4.7,4.3,17.48.27,35,.77,52.43,1a45.53,45.53,0,0,0,10.37-1.31c5.32-1.2,8.08-5.84,7.85-12.34-.47-13.31-1.06-26.61-1.28-39.93-.06-4.12-1.36-5.4-5.51-5.4-12,0-24-.46-36-.77-6-.16-9.63-3.2-9.57-7.89.05-4.34,3.76-7.37,9.61-7.28,15.49.22,31,.59,46.46,1,6,.17,9.91,4.3,10.11,10.77.55,17.32,1.14,34.64,1.26,52,.1,15.3-10.76,25.9-28.1,26.15-23,.34-45.94-.45-68.92-.92-5.09-.11-7.8-3.37-8.36-9.41-.46-5-.89-10-1-14.95-.43-24.65-.89-49.3-1-74a90,90,0,0,1,1.94-17.82c1.79-9,7.39-13.41,16.5-13.83,22.77-1.07,45.55-2.15,68.34-3,3.83-.14,5.27-1.38,5.22-5.29q-.24-20.24,0-40.49c0-3.82-1.07-5.2-5.08-5.23-25.66-.16-51.31-.57-77-.92-1.83,0-4.18.39-5.35-.56-2.25-1.81-5.2-4.42-5.28-6.78s2.88-4.91,4.87-7c.73-.77,2.53-.72,3.83-.72,15-.05,30,0,45,0Z" transform="translate(93 214)"/><path class="cls-1" d="M439.08-45.55c32.66,0,65.31-.1,98,0,14.15.06,28.3.6,42.46,1,8.23.23,11,3.22,11.13,11.27q.14,13.74.45,27.48c.14,6.25-2.6,9.35-9,9.3-47.65-.31-95.31-.22-143-1.28-29.43-.65-58.83-3.08-88.24-4.77-3.65-.2-7.29-.63-10.91-1.16-6.24-.9-8.57-3.69-8.59-10.09,0-8.67,0-17.34,0-26,0-7.43,1.43-8.9,8.72-8.77q49.47.89,98.94,1.88ZM504.25-6.63h28.6q21.48,0,43-.06c2.6,0,4.47-.57,4.53-3.86s-1.5-4-4.25-4-5.64-.61-8.46-.68q-38.21-1.05-76.41-2c-22.14-.53-44.29-.84-66.43-1.44-26-.7-51.92-1.62-77.88-2.41-2.28-.07-4.28.17-4.32,3.39s1.3,4,4.17,4.16C373.33-12,399.88-10,426.46-8.76,450.9-7.65,475.39-7.39,504.25-6.63ZM466.6-36.07v-1H396.67c-1.5,0-3.22-.33-4.42.29a5.11,5.11,0,0,0-2.42,3.44c-.09.86,1.45,2.57,2.45,2.74a73.33,73.33,0,0,0,10,.78q33.94.93,67.89,1.78,33.47.81,66.92,1.53c2.65.06,5,0,5.07-3.73s-2.06-4.15-5.1-4.21C513.54-34.94,490.07-35.52,466.6-36.07Zm100.08,10.3v.21c2.65,0,5.3,0,8,0,2.37-.06,5.2.68,5.21-3.35,0-3.42-1.18-5.26-4.87-5.25-6,0-11.92-.1-17.88-.23-2.69-.06-4.41.65-4.49,3.83s.94,4.78,4.15,4.79S563.37-25.77,566.68-25.77ZM343.23-37.29,342-36.12c1.07,1.49,2.05,4.2,3.21,4.28,10.09.65,20.22.91,30.33,1,1,0,2.76-1.89,2.81-3s-1.52-3.32-2.41-3.34C365.06-37.37,354.14-37.29,343.23-37.29Z" transform="translate(93 214)"/><path class="cls-1" d="M93.72-1.56c21.15,0,42.31-.24,63.46.06,33.14.46,66.27,1.26,99.4,2,7.33.16,14.64.6,22,.9,5.4.23,8.92,3.12,9,7.4.06,4.43-3.64,7.72-9.3,7.67-9.66-.1-19.31-.6-29-.76-25.47-.43-50.94-.66-76.4-1.24-4.61-.11-6.23,1.31-6.16,5.85.23,15.5-2.23,13.17,12.47,17.29C200.9,43.7,222.87,49.24,245,53.54c15.11,2.94,30.71,3.45,46.11,4.82,3.87.35,7.26,1.56,8.27,5.18a9.53,9.53,0,0,1-1.46,7.6c-1.38,1.65-4.74,2.57-7.09,2.34-19.34-1.92-38.92-2.85-57.9-6.66C209.7,62.15,187,54.88,164,49a18.7,18.7,0,0,0-10,0C127.53,57.9,100.74,65.2,73.19,69.19c-15.12,2.19-30.42,3.15-45.67,4.35C21.27,74,17.7,71,17.66,66.28c0-4.4,4-7.57,9.77-7.88A428.4,428.4,0,0,0,146.1,35.46c4-1.4,5.71-3.54,5.27-7.64-.15-1.32,0-2.67,0-4-.26-9.64,2.58-10-10.36-10.21q-57.2-.94-114.4-2c-6-.11-9.2-2.74-9.28-7.45-.09-5,3.14-7.71,9.47-7.72q33.47,0,66.94,0Z" transform="translate(93 214)"/><path class="cls-1" d="M109.8-67.93c.88-14.61,1.34-29.25,2.78-43.79.91-9.19,6-13.65,15.39-13.84,14.11-.29,28.23.21,42.34.59,7.32.19,14.63.75,21.93,1.33,9.19.74,13.64,5,14.38,14,.49,5.94.35,11.94.43,17.91.21,15,.51,30,.49,44.93a79.91,79.91,0,0,1-1.36,16.37c-3,14.3-11.44,20.6-26.35,20.45s-29.64-.3-44.46-.49a29.14,29.14,0,0,1-5.45-.47c-15.12-3.15-20.06-9.59-19.77-25,.21-10.66,0-21.32,0-32Zm23,41.85h50.69l-25-31.73ZM191.52-96.3l-1.47-.51c-6.83,8.46-13.72,16.88-20.39,25.47-.52.67.15,2.83.9,3.84q7,9.38,14.31,18.53c1.86,2.32,4,4.39,6.65,7.21Zm-65,52.66c1.87-2,3.12-3.21,4.23-4.55,3.9-4.74,7.73-9.54,11.62-14.29,6.34-7.73,6.35-7.72,0-15.73-1.33-1.7-2.61-3.44-4-5.12-3.48-4.33-7-8.62-10.48-12.93l-1.45.46Zm32.15-39L179.06-108l-.92-1.33L138-110.92l-.49,1.57C144.4-100.67,151.27-92,158.69-82.63Z" transform="translate(93 214)"/><path class="cls-1" d="M85.79,675.21h28.57c.19-2.6.5-5,.52-7.47.09-12.66,0-25.33.18-38,.08-5.5,2.69-8.24,7.21-8.37,5.24-.16,8.27,3.2,8.3,9.57.08,12.67,0,25.33,0,38,0,6.51,0,6.46,6.54,6.56a48.34,48.34,0,0,1,8.94.6c3.91.79,5.89,3.53,5.76,7.61s-2.54,6.36-6.49,6.94a34.54,34.54,0,0,1-5,.24q-60,0-120,0c-1.66,0-3.33,0-5-.12-4.73-.39-7.93-3.33-8-7.3-.08-3.69,3.32-7.25,7.69-7.83a43.62,43.62,0,0,1,5.49-.15c1.8,0,3.59,0,5.85,0,.19-3,.47-5.46.49-7.91.05-11.16,0-22.33,0-33.49,0-7.38,2.75-11.49,7.45-11.57,4.92-.09,8.18,4.49,8.19,11.57,0,12.16.12,24.32-.06,36.48-.05,3.6.93,5.13,4.76,5,5.82-.26,11.67-.27,17.49,0,3.87.2,5.34-1.12,5.42-5,.26-12.65.74-25.3,1.19-37.95.16-4.48.38-9,.78-13.43.55-6.16,0-7.16-6.18-7.27-12.82-.22-25.65-.2-38.48-.28-1.34,0-2.67,0-4,0-4.71-.27-8-3.18-8.11-7.14-.11-4.2,3.2-7.76,7.94-7.93,6.33-.22,12.66-.1,19-.06,8.66.07,17.32.1,26,.36,3.6.11,4.94-1.11,5.13-4.83a112.82,112.82,0,0,1,2-17.3c1.55-7.47,5.57-10.62,13.06-10.34,14,.52,27.93,1.32,41.89,2.17,4.42.27,7.87,3.91,7.84,7.67,0,4-3.68,7.48-8.53,7.32-9.64-.3-19.26-1-28.9-1.55-12.26-.64-10.71-2.05-12,10.12-.76,6.9-.16,7.19,7,7.24,10.17.06,20.33,0,30.49.11,6.06.05,9.69,3,9.71,7.68s-3.59,7.43-9.87,7.44c-11,0-22,.1-33-.1-3.89-.07-5.58.86-5.68,5.21-.43,17.63-1.27,35.26-1.92,52.89C85.54,672,85.71,673.48,85.79,675.21Z" transform="translate(93 214)"/><path class="cls-1" d="M348.93,673c-8.95-2.75-17.77-5.49-26.61-8.18-4.8-1.45-6-4.43-5.74-9.46.68-12.62.58-25.29.74-37.94.08-6.66,0-13.33.05-20,0-7.07,3-10.43,10.07-10.88a57.52,57.52,0,0,1,11,.05c23.34,3.06,46.46.27,69.67-1.73a115.57,115.57,0,0,1,27.72,1.37c7.63,1.19,11.94,7.45,11.7,15.24-.17,5.4-1.88,10.75-2.24,16.17a142.3,142.3,0,0,0,0,18.7c.4,5.95,2,11.82,2.28,17.76.39,7.91-2.73,11.26-10.64,12.21-10.23,1.22-20.49,2.21-30.73,3.34a22,22,0,0,0-2.81.65c1.88,12,5,14.1,16.68,12.8,6.08-.67,12.08-2.27,18-3.75,3.72-.91,6.85-.63,8.16,3.32,1.41,4.23-1.91,5.72-5,6.56-11.4,3.06-22.76,6.34-34.81,3.16-5.31-1.41-8.75-4.17-10.55-9.43-1.33-3.9-2.38-8.89-5.29-11-2.61-1.86-7.59-.43-11.52-.42-4.66,0-9.36-.28-14,.24-1.8.2-3.48,2.12-5,3.47-.54.46-.55,1.53-.82,2.32-5.88,17.1-21.07,24.28-38.13,18.09-3.17-1.16-5.52-3-4.48-6.6,1-3.3,3.73-3.67,6.89-3.33,4.25.46,8.6,1.06,12.82.65C344.39,685.62,348.22,681.05,348.93,673Zm31.78-49.89v.52q-23.25,0-46.48,0c-6.54,0-6.59.09-6.62,6.78v.5c0,7.34,0,7.4,7.59,7.25,10-.2,20-.51,30-.71q26.73-.53,53.45-1c3.42-.05,6.55.94,6.86,5,.34,4.29-2.89,5.21-6.27,5.42-5.48.33-11,.6-16.47.69-23.15.37-46.3.6-69.45,1.09-1.89,0-4.81,1.12-5.42,2.52-1.35,3.13.7,5.54,3.89,6.18,7.46,1.5,15,3.62,22.48,3.83,13.13.37,26.31-.12,39.42-1,12.43-.8,24.81-2.45,37.2-3.88,6.7-.78,6.68-.95,5.65-7.35-1.08-6.73-2.64-13.44-2.95-20.21-.21-4.91-2.2-5.75-6.38-5.71C411.69,623.18,396.2,623.09,380.71,623.09Zm1.72-9.68v-1h45.95c7.82,0,8.75-.9,8.86-8.78.06-4.57-1.63-7.89-6.74-8.11-6-.26-11.95-.69-17.89-.37-8.95.49-17.86,2.05-26.82,2.27-15.77.39-31.56.19-47.34.08-11-.08-10.87-.2-10.8,10.86,0,4,1.49,5.12,5.32,5.09C349.45,613.32,365.94,613.41,382.43,613.41Z" transform="translate(93 214)"/><path class="cls-1" d="M24.25,141.27c0-13.3-.48-26.62.16-39.88.46-9.37,5.21-13,14.81-12.94,22.46.2,44.93.59,67.39.87,6,.08,12-.1,18,.1,13.11.44,19.89,6.8,19.88,19.88,0,17-.85,33.93-1.35,50.9-.15,5-.28,10-.52,15-.44,9.08-5.45,14.83-14.41,16.5a44.38,44.38,0,0,1-7.42.84q-38.94.6-77.88,1c-14.81.15-19.26-4.3-19.46-19.3-.14-11,0-22,0-33Zm60-7v.15c13.15,0,26.3.08,39.44-.11,1.55,0,4.33-1.39,4.41-2.31.64-7.61.86-15.26,1-22.9.07-3-1.76-4.51-4.76-4.55l-17.45-.24c-21-.26-41.94-.45-62.9-.8-3.48-.06-4.77,1.29-4.8,4.61,0,6.66-.08,13.32-.44,20-.26,4.9,1.92,6.33,6.52,6.26C58.25,134.17,71.24,134.29,84.22,134.29Zm-2,16v-.69c-12.65,0-25.3.17-37.93-.1-4.47-.09-5.9,1.5-5.71,5.76.25,5.32,0,10.65,0,16,0,6.94.32,7.18,7.44,7.08q31.44-.42,62.88-.84c4.49-.06,9,0,13.47-.09,3.3-.07,5.3-1.57,5.26-5.17-.06-5.47-.41-11,0-16.41.33-3.86-.53-5.57-4.58-5.55C109.51,150.3,95.88,150.25,82.24,150.25Z" transform="translate(93 214)"/><path class="cls-1" d="M581.15,255.5c0-5.68-2.76-8-6.85-8.88a48.66,48.66,0,0,0-8.44-.92q-58.43-2.12-116.84-4.14c-5.16-.18-7.91-2.25-7.69-5.81s3.58-5.34,8.33-5.05c9.8.62,19.61,1.23,29.43,1.56,24.31.82,48.62,1.44,72.92,2.22,6.82.21,13.64.6,20.45,1.05,11.84.79,19.75,8.82,19.22,19.39-.3,6-3.84,10.17-9.83,10.62s-12.32.37-18.48.35q-17.5-.06-35-.33-36-.54-72-1.18c-2.26,0-5-.79-5.18,2.84s2.53,3.18,4.85,3.22q62,1,124,2c8.87.13,11.71,2.84,11.76,11.59,0,3.5-.08,7,0,10.5.12,4.75-2.18,7.22-6.85,7.32-12.32.24-24.65.55-37,.56-31.83,0-63.65-.18-95.48-.09-9.61,0-13.62-4.27-12.73-13.79.62-6.62.52-13.31.61-20,.16-10.69,3.78-14.4,14.52-14.29q59,.56,118,1.23C575.49,255.52,578.12,255.5,581.15,255.5Zm-65.69,36q30.46,0,60.92,0c4.48,0,6.46-2.36,4.61-6.12-.7-1.44-3.67-2.48-5.62-2.51-39.78-.53-79.55-.84-119.33-1.34-4.06-.05-5.45,1.17-5.56,5.34-.11,4.52,2.22,4.69,5.56,4.68C475.85,291.45,495.65,291.48,515.46,291.47Z" transform="translate(93 214)"/><path class="cls-1" d="M580.17,401.56H463.79c-6.78,0-9.5-1.56-9.52-5.41s3-5.65,9.43-5.69c3.31,0,6.63,0,10.74,0,.17-3.66.4-7.05.46-10.44.1-5.67,0-11.34.15-17,.08-3.07.48-6.36,4.59-6.48s5.71,2.69,6,6.47c.06,1,.26,1.94.6,4.31q15.12,0,30.31,0c20.5,0,41,0,61.49.22,4,0,5.89-1.07,5.41-5.31a27.1,27.1,0,0,1,.07-6.49c.42-3.06,1.93-5.36,5.42-5.45s5.34,2.24,5.51,5.27a113.16,113.16,0,0,1-.08,16.47c-.47,5.23-4.56,6.54-9.12,6.45-10.49-.19-21-.64-31.47-.72-20.33-.16-40.66-.16-61-.2-7.19,0-7.19,0-7.15,7.44v5.44h6q44.75,0,89.48,0a20.76,20.76,0,0,1,5.9.65c7.7,2.32,8.87,4.7,5.49,11.91s-7.14,14.2-10.9,21.6c3.64,2.62,7.41,5.3,11.15,8a39.54,39.54,0,0,1,3.14,2.46c2.48,2.2,4.88,4.72,2.35,8.09s-5.75,2.43-8.77.21c-4.29-3.15-8.5-6.45-13-9.22-1.47-.89-4.39-1.15-5.71-.27-14.77,9.84-31.46,14.64-48.58,17.27-16.22,2.49-32.74,3-49.13,4.42a14.83,14.83,0,0,1-2,0c-3.14-.19-5.6-1.25-5.69-4.92s2.37-5,5.47-5.16c7.3-.46,14.63-.67,21.94-1.1,20-1.18,39.62-4.7,58.39-12.08a13,13,0,0,0,5.61-4,19.87,19.87,0,0,0-3.82-.71q-40.44.28-80.88.69c-1.17,0-2.34.2-3.5.16-3.23-.11-6.1-.85-6.27-4.85s2.52-5.09,5.82-5.31c4.65-.32,9.31-.63,14-.75,17.82-.43,35.64-1.18,53.45-1,10.43.09,20.85,1.76,31.29,2.49,1.76.13,4.39-.3,5.25-1.48,3.38-4.61,6.22-9.63,9.25-14.5Z" transform="translate(93 214)"/><path class="cls-1" d="M581.25,753.81c-6.22-.34-12.44-.87-18.67-1-27.31-.46-54.63-.8-82-1.18-1.83,0-4,.48-5.42-.27-1.91-1-4.2-2.72-4.7-4.58-.83-3.06,1.48-5,4.56-5.2,4.49-.23,9-.11,13.49-.11,8.79,0,8.87,0,8.69-8.57-.17-8.16-.56-16.31-.77-24.46,0-1.65-.29-3.7.54-4.86,1.2-1.66,3.34-3.75,5-3.68s4,2.36,4.53,4.12c1,3.43.92,7.18,1.27,10.71H589.4c0-4.56,0-8.2,0-11.85,0-3.09,1.34-5.18,4.63-5.36s5.44,1.36,5.67,4.87c.34,5.15.77,10.3.89,15.45.14,6.09-1.49,7.66-7.66,7.69q-31,.16-62,.25c-7.46,0-14.93,0-23,0,0,5.21-.38,9.34.24,13.31.18,1.17,3.18,2.66,4.92,2.71,11.49.39,23,.49,34.48.57,14.33.09,28.66-.15,43,.25,3.29.09,8.08,1.29,9.44,3.59,2.37,4-1,7.67-4.28,10.58-6.85,6-13.58,12.14-21,18.75,6.76,3,12.9,5.79,19,8.57,2.12,1,4.26,1.9,6.31,3,3.08,1.63,4.51,4.18,2.84,7.44-1.54,3-4.22,3.38-7.27,2-8.83-3.86-17.74-7.57-26.53-11.54-3.63-1.64-6.5-1.06-9.64,1.24-23.74,17.35-50.38,22.27-79.08,18.2-3.08-.43-5.82-1.65-5.74-5.07.08-3.62,2.81-5,6.24-5,10.63,0,21.28.42,31.89-.09,13.3-.63,24.7-6.64,35.62-13.54V779.1c-6.4-1.17-12.75-2.82-19.2-3.39-11.92-1.05-23.89-1.47-35.84-2.16-3.51-.2-7-.77-7.08-5.26s3.48-5.19,7-5.22a250.43,250.43,0,0,1,64.27,7.4,10.31,10.31,0,0,0,7.6-1.58c5.82-4.22,11.18-9.07,16.72-13.68Z" transform="translate(93 214)"/><path class="cls-1" d="M581.78,533.12c-10.42,2.61-20.21,5.87-30.25,7.38a291.52,291.52,0,0,1-36.28,2.94c-19.48.48-39,.17-58.47.2-1,0-2,0-3,0-3.24-.2-6.25-1.17-6.3-5,0-4.07,3-5.16,6.52-5.19,16.5-.11,33,.1,49.48-.37,19.26-.56,38.64-.27,57.58-4.75,3.74-.88,7.32-2.45,11-3.7l-.34-2c-4.18,0-8.35-.07-12.53,0-16.48.31-32.95.82-49.43,1-16.66.15-33.32,0-50-.09-3.32,0-6.79,0-9.88-1-1.85-.59-4.34-3.13-4.28-4.7.08-1.75,2.54-4.58,4.29-4.85,4.71-.72,9.6-.37,14.42-.38,27.47,0,54.94-.12,82.41,0,10.79,0,21.6.25,32.37.86,5.29.3,5-3.81,5.71-6.53,1-3.79-2.67-3.13-4.67-3.14-23.49-.1-47,0-70.47,0q-27.24,0-54.47-.11c-1.65,0-3.67.23-4.85-.6-1.56-1.1-3.43-3.18-3.36-4.76s2.18-3.3,3.78-4.44c.92-.66,2.57-.37,3.9-.37,43.64,0,87.28-.07,130.92.14,6.78,0,13.56,1.23,20.31,2.13,3.5.47,6.07,2.36,5.22,6.4-.79,3.76-3.62,4.18-7,3.77-7.31-.88-6.23-.16-9.86,6-5.41,9.21-1.18,18.05-1.33,27.05-.2,12.12-.68,24.25-1.59,36.34-.13,1.72-3.21,4.27-5.21,4.58-3.39.51-4.84-2.27-4.75-5.57.34-11.81.75-23.62,1-35.44A38.5,38.5,0,0,0,581.78,533.12Z" transform="translate(93 214)"/><path class="cls-1" d="M421.1,906.64c-2.92-6.24-6.31-8.46-12-6.59-5.92,2-11.93,4.59-16.77,8.37-1.93,1.51-1.24,6.93-.89,10.48.1,1,3.19,2.39,4.94,2.44,9,.27,18,.17,27,.19a12.53,12.53,0,0,1,1.5,0c3.09.34,7.23,0,7.33,4.21.1,4.66-4.13,3.88-7.17,3.86q-40-.32-79.95-.73c-1,0-2.2.23-3-.23a45.73,45.73,0,0,1-4.59-3.66c1.52-1.25,3-3.5,4.57-3.56,8-.33,16-.08,24,0,4.17,0,8.35.23,12.49-.09,1.35-.11,3.5-1.46,3.71-2.55.44-2.32.49-5.26-3.12-5.65-2.14-.24-4.31-.37-6.47-.41-9-.16-18-.06-27-.55-2.42-.14-5.79-1.43-6.86-3.27-1.82-3.12.39-5.85,3.36-7.79,6.07-4,12-8.11,18.9-12.77a23.94,23.94,0,0,0-3.28-.71c-7.89-.27-8.1-.3-8.58-8.13-.22-3.52-1.38-5.33-5.1-4.91-1,.11-2.2.37-2.95-.06a53,53,0,0,1-5.16-3.71,45.15,45.15,0,0,1,5.19-4.22c.85-.52,2.28-.18,3.44-.12,3.32.18,4.29-1.31,4-4.57-.62-7.79-1-15.6-1.3-23.41-.21-5.82,1.32-7.56,7-8,15.27-1.1,30.55-2,45.82-3.07,3.65-.24,7.35-1.15,10.91-.76,2.2.23,5.59,2,6,3.67.73,3.24-2.36,4.08-5.28,4.29q-25.36,1.78-50.74,3.68a5.29,5.29,0,0,0-2,.28,27.87,27.87,0,0,0-2.92,2c1,.61,2.05,1.74,3.07,1.74,6.83,0,13.65-.21,20.48-.38,8.66-.21,17.32-.66,26-.5,1.93,0,3.82,2.18,5.74,3.36-1.74,1.4-3.31,3.65-5.25,4-3.87.79-7.94.61-11.92.74-11.15.35-22.31.59-33.45,1.05-1.34.06-2.63,1.21-3.94,1.85,1.31.65,2.63,1.88,3.93,1.85,13.83-.21,27.65-.63,41.47-1,1.33,0,2.91-.49,3.94,0,1.66.89,2.95,2.45,4.4,3.72-1.32,1.2-2.47,3-4,3.47a34.45,34.45,0,0,1-8.39,1c-12.31.4-24.62.68-36.93,1.06a22.11,22.11,0,0,0-3.64.72l-.22,1.79c2.1.36,4.22,1.07,6.32,1,18.8-.48,37.61-1.17,56.42-1.66,8.9-.23,9.6.64,9.43,9.69-.18,10.5-.91,11.18-11.42,11.42-12.33.28-24.65.64-37,1-1,0-2.22-.23-2.95.25-8,5.24-15.83,10.61-23.73,15.94.17.57.34,1.15.5,1.73,4.53,0,9.12-.42,13.59.09a33.62,33.62,0,0,0,24.63-6.6c7-5,15.15-7.75,24.05-5.56C423.89,894,430,901,430.84,907.64c.51,3.87-.6,6.62-5,6.9-6.81.44-13.61,1.13-20.41,1.14-1.76,0-4.71-1.84-5-3.29-.7-3.21,2.18-3.86,4.87-4.11C410.42,907.79,415.61,907.21,421.1,906.64Zm-13.35-34.12v1.06c-10.48,0-21-.05-31.44,0-5,0-10,.09-15,.54-1.43.13-2.73,1.7-4.08,2.61,1.54.82,3.09,2.36,4.63,2.34,10.48-.1,21-.5,31.44-.85,8-.26,16-.47,23.94-1,1.35-.09,2.59-1.78,3.88-2.74-1.3-.65-2.57-1.75-3.91-1.87C414.1,872.33,410.91,872.52,407.75,872.52Z" transform="translate(93 214)"/><path class="cls-1" d="M546.83,926.56q-23.73,0-47.45,0c-5.34,0-9.48-1-11.64-7.13-.71-2-5.73-3.14-8.9-3.43-3.55-.32-7.22,1-10.86,1.16a41.59,41.59,0,0,1-9.85-.63c-5-1-7.89-4.46-7.72-9.6.47-14.94,1.22-29.87,1.82-44.8.19-4.66,3.12-6.53,7.2-6.6q14.24-.25,28.47,0c4.06.09,7.3,1.38,6,6.73-.71,2.92.82,4.11,3.84,4.24,9.8.45,19.59,1.07,29.38,1.74,3.33.23,4.63-1.18,4.19-4.37-.59-4.39,1.69-6.09,5.73-6.19,18.63-.44,37.26-.94,55.89-1.3,4.07-.08,6.66,1.9,6.76,6.28.3,13.64.71,27.28.69,40.93,0,1.66-2,4.17-3.67,4.8-2.69,1-5.84,1-8.8,1.09s-5.45.16-5.43,4.44,1.64,5.66,5.62,5.51a44.63,44.63,0,0,1,10,.34c1.49.28,3.76,2.38,3.68,3.51-.1,1.43-2,3.08-3.56,3.95-1.16.66-2.92.28-4.42.28H546.83Zm-34.7-8.12h0c4.16,0,8.32.09,12.47-.05,1.19,0,3.08-.45,3.4-1.21,1.84-4.37,4.28-8.81,4.66-13.39.61-7.24-.33-14.59-.44-21.9-.06-4-1.53-6-5.88-6-8.48,0-17-.38-25.41-.85-6.58-.38-7.24.09-7.22,6.56,0,7.93.58,15.91-.18,23.76-.88,9.15,2,13.08,11.12,13.1Zm39.41-15c9.55-.54,20.36-1,31.15-1.82,9.94-.79,9.76-1,9.72-11.1,0-3.95-1.32-5.18-5.25-5-13,.4-26,.5-38.95.68-7.6.11-7.6.08-7.54,7.91C540.74,903.51,540.74,903.51,551.54,903.44Zm4.52-25v-1.06c10.31,0,20.62-.1,30.93,0,4.65.06,5.62-2.42,5.31-6.36-.28-3.6-.17-6.91-5.57-6.67-14.12.64-28.26,1-42.39,1.14-4.38.06-5,2.38-4.64,5.77s-.89,7.49,4.88,7.18C548.4,878.26,552.23,878.42,556.06,878.42Zm-97.47,19.86c0,1.16.09,2.33,0,3.49-.62,7.56,1.29,7.89,8.49,7.35,5-.38,9.94-.72,14.89-1.22,5.41-.55,3.87-5.25,4.08-8.17.26-3.38,2.2-7.81-2.65-10a4.77,4.77,0,0,0-1.48-.11c-4.13-.4-8.26-.78-12.39-1.22C458.43,887.18,458.43,887.17,458.59,898.28Zm1.31-19,19.41,2c.66.07,1.48.34,2,.06,1.45-.84,3.86-1.8,4-2.89.44-4.72.18-9.5.18-14.85H472.94C458.52,863.56,458.52,863.56,459.9,879.26Zm78.33,39.89c11,0,22.09.05,33.15,0,3.13,0,3-2.39,2.9-4.66-.14-2.51-1-4.06-3.91-3.89-9.26.52-18.54.9-27.8,1.39C539,912.15,537,913.77,538.23,919.15Z" transform="translate(93 214)"/><path class="cls-1" d="M432.79,62.7c-6.84-4.85-13-9.49-19.47-13.72-4.16-2.73-8.82-4.67-13.06-7.31s-7.43-1.69-11.46.57c-17.11,9.61-34.42,18.84-51.68,28.16-1.75.94-3.67,1.58-5.5,2.37-4.13,1.8-7.31.23-9.36-3.26s-1.37-7.34,2.18-9.62,7.45-3.66,11.11-5.61q17.64-9.36,35.18-18.87C372,34.73,373,33.61,375,32c-4.54-1.6-8.16-3.13-11.91-4.15-10.76-2.91-21.59-5.53-32.33-8.47-2.48-.68-5.69-1.61-6.82-3.48-1.33-2.2-1.89-6.28-.67-8.19C324.63,5.59,328.73,3.52,331,4c37.41,8.55,74.51,18.07,105.59,42.42,5.11,4,10.23,8,15,12.37,5,4.51,4.2,10.64-1.67,13.47C422.08,85.72,394,98.84,364,107c-12,3.28-24.29,5.68-36.48,8.33-5,1.08-9.07-1.15-10.05-5-1.23-4.92.86-8.2,6.75-9.66,14.2-3.54,28.85-5.72,42.58-10.54,21.3-7.49,42-16.72,62.92-25.24A23.41,23.41,0,0,0,432.79,62.7Z" transform="translate(93 214)"/><path class="cls-1" d="M379.17,410.54c14.71.62,28.65,1.17,42.58,1.81,3.35.16,4.45-1.54,4.34-4.55l-.75-21c-.13-3.66.59-6.91,5-7.11s5.29,3.06,5.39,6.71c.27,9.66.67,19.3.89,29,.13,5.94-1.25,7.42-7.28,7.3-10.65-.2-21.3-.73-31.95-1-5.79-.15-11.59,0-18.06,0,0,6.95-.06,13.4,0,19.85,0,3.29,2.61,2.86,4.73,2.86,13.82,0,27.65,0,41.47,0,1.83,0,4.06-.43,5.38.43,1.83,1.2,3.92,3.37,4.07,5.27.11,1.35-2.57,3.37-4.42,4.29-1.49.75-3.59.37-5.42.37q-50.22,0-100.45,0a31.79,31.79,0,0,1-5-.27c-3.43-.55-5.16-2.46-5.12-6.15.16-15.66.17-31.31.26-47,0-6.62,1.51-9.08,5.29-9s5.39,2.83,5.39,9.07c0,12.66.09,25.32-.06,38,0,3.61,1.07,5,4.83,5,11.16-.19,22.32-.17,33.48,0,3.49,0,4.65-1.22,4.63-4.66q-.17-31,0-62c0-3.58-1.24-4.46-4.67-4.39-10.83.23-21.66.12-32.49.08-1.64,0-3.65.2-4.83-.63-1.57-1.09-3.42-3.1-3.42-4.72s1.85-3.69,3.44-4.66,3.83-1,5.78-1q51-.15,101.95-.17c1.49,0,3.34-.34,4.39.39,1.6,1.11,3.44,2.91,3.65,4.61.17,1.32-1.69,3.59-3.18,4.26-2,.91-4.54.9-6.84.92-15.66.13-31.32.32-47,.15-4.54,0-6.23,1.48-6.16,6C379.28,389.06,379.17,399.51,379.17,410.54Z" transform="translate(93 214)"/><path class="cls-1" d="M382.37,799.56c-17.31,0-34.63.05-51.94,0-10.28,0-12.93-2.86-13.09-12.95-.12-7.65-.62-15.3-.85-23-.07-2.13-.42-4.64.52-6.32s3.41-3.59,5.13-3.52,4.35,2.37,4.57,4c.77,5.74.62,11.6.92,17.41.76,14.68-3,14.2,14.4,14.11,10.82,0,21.63-.65,32.45-.84,2.91,0,4.34-1,4.31-4q-.29-32.24-.51-64.46c0-3.29-1.83-4.22-4.86-4.08q-26.19,1.19-52.38,2.21c-1.8.07-3.93.17-5.33-.68a6.85,6.85,0,0,1-3.06-4.46c-.14-1.36,1.26-3.31,2.53-4.25s3.13-1.11,4.75-1.17c18.63-.75,37.26-1.4,55.89-2.11q32.94-1.25,65.87-2.56c3.78-.15,7.45.31,7.77,4.93s-3.3,5.56-7.08,5.71c-16.47.68-32.93,1.43-49.4,1.94-3.32.11-4.35,1.4-4.31,4.5q.21,15.48.16,31c0,3.41,1.25,4.68,4.75,4.55,14-.5,28-.82,41.94-1.13,3-.07,4.54-1.29,4.9-4.38.42-3.63,1.21-7.21,1.83-10.81s2.57-5.41,6.25-4.75c3.87.69,4.52,3.58,4,6.82-.84,5.76-2,11.47-2.78,17.23-.6,4.52-3,6.07-7.42,6.13-15.31.22-30.62.68-45.93,1.14-6.84.21-6.84.32-6.84,7.11,0,3.34.19,6.68,0,10-.23,3.8,1.09,5.43,5.12,5.27,12.81-.49,25.63-.72,38.44-1.06.84,0,1.67-.1,2.5-.13,5.5-.18,8.14,1.42,8,5.14-.17,5.15-3.91,5.46-7.81,5.46H382.37Z" transform="translate(93 214)"/><path class="cls-1" d="M293.6-65.7c0,11.5,0,23,0,34.5,0,12.55-7,20.51-19.45,20.63-14.8.15-29.61-.58-44.41-1.12-4.47-.17-7.45-3.42-7.43-7.28,0-4.35,3.21-7.71,8.11-7.64,11.65.16,23.3.82,35,1,12.41.21,12.47.08,12.82-12.26.3-10.7,1.44-9.57-9.31-10.2-11.3-.67-22.63-.74-33.95-1.21-6.12-.25-9.21-3.06-9-7.74s3.95-7.53,10-7.32c12.32.43,24.64.77,36.95,1.39,4.11.2,5.87-1.16,5.58-5.35-.23-3.16-.06-6.33-.06-9.5,0-7.49,0-7.51-7.28-7.52-11,0-22,0-33,0-8.06,0-11.83-2.55-11.62-7.76.2-4.72,4.43-7.44,11.69-7.45,11.5,0,23,0,34.5,0,2.3,0,5.73.85,5.19-3.27-1.06-8.14.35-9.3-5.61-9.34-10.16-.08-20.33,0-30.5,0-2.16,0-4.33,0-6.49-.21-4.92-.37-7.89-3.15-7.89-7.25,0-4.43,3-7.41,8.25-7.49,13.16-.22,26.32-.34,39.48-.29,11.45,0,17.12,5.55,17.44,17.81.39,15,.09,29.95.09,44.93Z" transform="translate(93 214)"/><path class="cls-1" d="M38.94-104.15c11.39,0,22.35,0,33.3,0,3.5,0,7,0,10.49.22,4.22.32,6.76,2.6,6.87,7a7.07,7.07,0,0,1-7.13,7.43c-7.32.28-14.65.16-22,.18-6,0-12,0-18,0-3.28,0-4.93,1.33-4.83,4.78.12,4.16.13,8.33,0,12.49-.13,3.89,1.59,5.35,5.43,5.17,12.3-.6,24.61-1,36.92-1.51a23,23,0,0,1,2.49-.05c4.54.34,8,3.49,8.1,7.28.08,4.45-2.85,7.51-7.93,7.77-13.29.69-26.59,1.31-39.9,1.74-3.64.11-5,1.12-4.46,5a50.8,50.8,0,0,1,.2,11c-.31,4.46,1.91,6.09,5.89,6,6.82-.12,13.64-.39,20.46-.55,7.15-.17,14.31-.47,21.46-.35,4.63.08,8.08,3.51,8.11,7.32,0,3.63-3.69,7.42-8,7.57-14.29.51-28.59,1.11-42.89,1.15-13.4,0-20.77-7.54-20.89-20.82-.18-18.32-.4-36.64-.16-54.95a225.54,225.54,0,0,1,2-28.82c1.36-9.62,6.45-13.39,16.18-13.43,13.15-.05,26.31,0,39.46.13,5.51,0,8.53,2.86,8.51,7.65,0,4.58-2.77,7.27-8.19,7.36-11.33.17-22.65.17-34,.13-7.1,0-7.85.61-7.88,7.87C38.62-108.06,38.78-106.75,38.94-104.15Z" transform="translate(93 214)"/><path class="cls-1" d="M497.51,67.45c10.29,5.7,20.34,11.46,30.58,16.86,17.17,9.06,35.45,15.18,54.22,19.93a24.43,24.43,0,0,1,2.41.65c4.62,1.67,6.81,5.17,5.75,9.13a7.86,7.86,0,0,1-10,5.28c-13.22-3.92-26.93-6.85-39.36-12.54C521.7,97.84,503,87.19,484.25,76.85c-8.1-4.46-8.46-12.68-1.33-18.79,26.16-22.39,55.17-39.49,89-47.41,2.27-.53,4.84-1.61,6.82-1,2.71.85,5.77,2.56,7.24,4.84,1.92,3,.32,6.29-2.74,8.07a42.94,42.94,0,0,1-7.81,3.06c-10.24,3.45-20.53,6.77-30.75,10.3-2.27.78-4.31,2.23-7.7,4,4.81,3.21,8.46,6.35,12.67,8.28,6.78,3.12,14,5.18,20.89,8.16,7.92,3.45,15.74,7.19,23.37,11.24,4.51,2.4,5.7,6.45,3.86,10-2.18,4.19-6,5.59-10.52,3.67-13-5.52-26.15-10.67-38.83-16.82-8-3.89-15.24-9.4-22.93-14-1.45-.86-4-1.75-5.06-1.06-7.3,4.92-14.34,10.24-21.42,15.47C498.57,65.25,498.38,66,497.51,67.45Z" transform="translate(93 214)"/><path class="cls-1" d="M278.53,106.52h-7.81c-14.5,0-29,.21-43.5,0-4.29-.08-6.34,1.3-8.3,5.17-5.33,10.51-10.61,21.16-17.26,30.84-7.82,11.39-20.71,15.8-33.23,20a7.21,7.21,0,0,1-9.47-5.14c-1.21-4.51,1.17-7.27,5-9.1a22.22,22.22,0,0,1,3.66-1.58c19.41-5.18,28.29-20.34,35.37-37.22a15.82,15.82,0,0,0,.41-2.9c-2.19,0-4.08,0-6,0q-11.75-.32-23.48-.67c-4.43-.13-7.33-2.13-7.81-6.74-.44-4.17,2.25-7.52,6.92-8.37a37.6,37.6,0,0,1,7-.23q43.73.39,87.46.83c6.27.06,12.59-.31,18.8.36a8.9,8.9,0,0,1,8.07,8.94c.23,10.64-.05,21.54-6.16,30.75a41.9,41.9,0,0,1-11.81,11.19c-15.07,10-31.82,15.83-49.6,18.81-1.92.32-4.54.69-5.82-.29-2.28-1.74-4.94-4.32-5.34-6.87-.64-4.12,2.74-6.57,6.57-7.55,6-1.52,12.26-2.07,17.93-4.28a296.16,296.16,0,0,0,28.48-13.06C277.62,124.67,278.32,115.91,278.53,106.52Z" transform="translate(93 214)"/><path class="cls-1" d="M393.64,282.39c5.65-1.26,10.56-2.11,15.28-3.56,1.25-.39,2.47-2.53,2.8-4.05,2.45-11.64-.69-21.71-9.05-30.16a31.48,31.48,0,0,1-3.73-4c-2.23-3.23-2.35-6.66.39-9.62s6.8-3.85,9.9-1.13c9.71,8.53,18.2,18.52,18.12,32-.07,12-1.87,24.17-4.11,36-2.61,13.76-1.47,26.4,6.61,38.12,2.32,3.36,3.44,7.47.43,10.58-1.7,1.76-5.38,2.74-7.86,2.3-2.16-.39-4.34-3-5.73-5.07-8.33-12.69-12.34-26.44-9.51-41.73a45.19,45.19,0,0,0,.48-5.46c0-.29-.24-.59-.85-2-3.32,1.49-6.78,2.75-9.95,4.52-7.66,4.27-9.07,7.12-7.67,16,1.49,9.34,3.28,18.63,5,27.93.88,4.71-1.86,9-6.42,9.43s-7.43-1.82-8.59-6c-5.11-18.31-7.36-36.79-3.44-55.71,1.72-8.29,3.17-16.66,4.29-25.05.89-6.65-1.72-12.14-7.39-15.84-3.47-2.27-7.23-4.1-10.81-6.22-4.17-2.47-5.59-6.34-3.81-10.07a7.37,7.37,0,0,1,10.18-3.53,96.77,96.77,0,0,1,15.84,9.37c10,7.61,12.74,18.22,11.1,30.29C394.62,273.84,394.18,277.89,393.64,282.39Z" transform="translate(93 214)"/><path class="cls-1" d="M184.6,650.4c6,5.34,10.87,10.22,16.26,14.46a145.39,145.39,0,0,0,72.74,30.57c2.64.34,5.29.63,7.9,1.1,5.11.91,7.55,3.87,7.17,8.54-.34,4.18-3.31,6.89-8.45,6.44a171.21,171.21,0,0,1-47.06-10.63c-26.19-10.14-47.86-26.62-66.69-47.15-2-2.21-4.68-4.09-6-6.66s-2.35-6.24-1.42-8.6c.8-2,4.55-4.05,7-4.06,39.83-.17,79.66,0,119.49.09a17.36,17.36,0,0,1,4.89.84c3.61,1.07,5.72,3.61,5.65,7.34s-2.3,6.57-5.92,7.08a98.86,98.86,0,0,1-14.41.62c-29-.22-58-.53-87-.78A32.05,32.05,0,0,0,184.6,650.4Z" transform="translate(93 214)"/><path class="cls-1" d="M571.58,639.33c6.14,0,11.44,0,16.75,0,2.66,0,5.33-.35,8-.3,3.29.07,6.11,1.2,6.18,5s-2.74,5.19-6,5.41c-4.15.28-8.33.11-12.49.21-12.44.29-12.44.3-12.43,12.55q0,12.24.08,24.49c0,3.69-.08,7.53-5.05,7.51-5.14,0-5.33-4-5.34-7.87,0-10.17-.12-20.33-.07-30.5,0-3.4-1-5.36-4.84-5.19-22.29,1-44.59,2-66.89,2.68-4.25.14-5,2.12-4.77,5.64q.56,9.22.8,18.46c0,1.62.09,3.7-.81,4.77-1.23,1.47-3.45,3.1-5.08,2.94s-4.12-2.41-4.2-3.86q-.93-16.71-.81-33.44c0-1.46,2.3-3.48,4-4.19a20.58,20.58,0,0,1,7.33-1.18c23.31-.74,46.61-1.47,69.92-2,3.93-.09,5.2-1.6,5.25-5.36.14-10.43.25-10.51-10.27-10.41q-37.74.38-75.46.86c-1.34,0-2.95.47-3.94-.12-2.19-1.3-5.19-2.78-5.82-4.82-1.12-3.57,2-5.22,5.2-5.87a24.92,24.92,0,0,1,5-.27c26.16,0,52.33-.15,78.49,0,4.69,0,6.72-1.1,6.22-6.08a88.83,88.83,0,0,1,0-12c.11-3.25,1.13-6.08,5.08-6.1,3.77,0,5.27,2.36,5.42,5.81a128,128,0,0,1,.43,13c-.24,4.3,1.46,5.54,5.49,5.33,5.32-.28,10.66-.15,16-.14,3.58,0,7.05.62,7,5.15s-3.69,5-7.14,5c-5.5.11-11,.17-16.5,0-3.35-.07-5,1.13-4.75,4.66C571.73,632.35,571.58,635.5,571.58,639.33Z" transform="translate(93 214)"/><path class="cls-1" d="M543.84-51.45H468.41c-1.33,0-2.67.05-4-.08-3.2-.3-6.07-1.17-6.09-5.15s2.76-5.06,6.05-5c16.82.14,33.64.37,50.46.57,2.4,0,5,.84,5.83-2.88,1.15-5,.38-6.3-4.76-6.42q-22.23-.5-44.45-1c-7.48-.17-8.46-1.3-8.67-8.71-.26-9.48-.82-19-1.21-28.44-.12-3-.11-6-.18-9-.09-3.55.91-6.53,5-6.73,4.49-.23,5.39,3,5.52,6.68.26,7.49.65,15,.79,22.47.24,13.53.18,13.37,13.69,13.62,30.3.55,60.6,1.31,90.9,1.92,7.22.15,7.25,0,7-7.17-.31-10-.67-20-1-29.93,0-.84,0-1.67-.07-2.5-.1-3.52.78-6.53,4.91-6.74s5.31,2.85,5.49,6.27q.61,11.72,1,23.44c.19,6.33.18,12.66.32,19,.15,6.93-1.22,8.24-8,8.07-16.49-.42-33-.65-49.46-1.15-4.24-.13-6,1.21-6,5.64,0,3.5,1.37,4.15,4.43,4.19,16.82.23,33.64.62,50.46,1,1.33,0,2.67,0,4,0,3.43.24,6.48,1.17,6.3,5.42-.17,3.9-3,4.85-6.31,4.83-10.32-.08-20.65-.23-31-.31-5.16,0-10.32,0-15.48,0Z" transform="translate(93 214)"/><path class="cls-1" d="M396.65-55.47H324.2a16.52,16.52,0,0,1-3-.12c-2.94-.53-5.81-1.52-5.67-5.13s2.8-5.06,6.2-5c16,.09,32,.26,48,.31,2,0,5.26,1.76,5.45-2.1.21-4.2-3.44-2.78-5.55-2.8-13.67-.15-27.33-.07-41-.1-7.73,0-9.11-1.59-9.27-9.43-.26-12.65-.78-25.3-1-37.95-.11-5.35,3.7-8.43,7.31-5.87,1.65,1.17,2.73,4.07,2.87,6.26.65,9.63.83,19.29,1.23,28.93.28,6.8.47,6.9,7.15,7,31.31.31,62.63.55,93.94,1.09,4.91.09,6.4-1.62,6.45-6.23.1-9.16.64-18.31.9-27.46.11-3.71,1.48-6.34,5.5-6.16,3.71.16,5,2.77,4.94,6.23-.36,12.65-.69,25.3-1.12,37.95-.17,4.77-3.32,6.08-7.5,6q-21.5-.18-43-.3c-2,0-4.09-.35-6,.13-1.58.4-2.91,1.77-4.35,2.72,1.39,1,2.74,2.78,4.16,2.84,13.32.52,26.65.76,40,1.06,3,.07,6,0,9,.05,3.76,0,7.94,0,7.87,5.26s-4.48,5-8.09,5c-14.32.08-28.64,0-43,0Z" transform="translate(93 214)"/><path class="cls-1" d="M516.23,310.46c21.8,0,43.6,0,65.4,0a47.46,47.46,0,0,1,7.39.81c3.68.61,5.42,3.05,5.53,6.63.19,6.32.28,12.64.36,19,.06,4.41-2.41,6.74-6.53,7.46a25.69,25.69,0,0,1-4.48.16q-65.17,0-130.34,0c-2.15,0-4.67.35-6.35-.63-2-1.15-4.38-3.41-4.66-5.45a186,186,0,0,1-1.19-19.91c-.13-5,1.92-6.83,7-6.83h67.9Zm-63.17,11.3c-2,10.17-.88,12.45,5.54,12.46q59.91.06,119.84.07c4,0,6.36-.91,5.94-5.6-.34-3.92.19-7.34-5.9-7.27-32.12.36-64.25.28-96.37.34C472.34,321.78,462.56,321.76,453.06,321.76Z" transform="translate(93 214)"/><path class="cls-1" d="M296.62,586.16c.06,8.1-5.55,11.55-11.28,8.38-7.7-4.26-15-9.17-22.5-13.88-13.23-8.35-26.5-16.63-39.58-25.21-3.51-2.3-6-2.31-9.22.41-17.37,14.51-34.88,28.84-52.35,43.23-1,.84-2.11,1.63-3.19,2.4-4.51,3.2-9.2,2.87-11.93-.84-2.59-3.53-1.65-7.81,2.61-11.35,5.51-4.58,11.08-9.08,16.62-13.6,12-9.8,23.85-19.73,36-29.3,4.3-3.39,5.75-7.5,5.52-12.58-.3-7-.8-14-1-20.94-.16-5.9,2.52-9.1,7.33-9.32,4.63-.21,7.63,3.14,8,8.93.35,6.14,1,12.3.87,18.42-.11,4.4,1.4,7,5.09,9.27q31.95,20,63.63,40.4C293.75,582.2,295.52,585,296.62,586.16Z" transform="translate(93 214)"/><path class="cls-1" d="M216.58,236.57c11,4.55,21.78,9.72,33,13.47,12.58,4.2,25.6,7.09,38.42,10.55,1.13.3,2.26.61,3.36,1,4.85,1.67,7.19,5.27,6.11,9.39-1,3.89-4.75,6.08-9.53,5.16-27.92-5.36-54.8-13.84-79.85-27.49a51.85,51.85,0,0,1-10.55-7.46c-7.57-7.06-5.48-16.73,4.33-19.82a50.26,50.26,0,0,1,15.14-2.73c20.45.18,40.89.9,61.34,1.44,3.66.09,7.32.14,11,.4,5.39.37,8.47,3.44,8.28,8-.18,4.22-3.41,7.18-8.62,7.06-11.31-.25-22.61-.94-33.92-1.27-10.81-.31-21.63-.43-32.44-.54a42.13,42.13,0,0,0-5.67.67Z" transform="translate(93 214)"/><path class="cls-1" d="M100,221c-7.74,0-15.49-.17-23.22,0-16,.43-31.93,1.15-47.89,1.59-5.83.17-9.11-2.36-9.44-6.65s3.07-8.21,8.68-8.33q39.17-.84,78.35-1.06c3.53,0,7.23,1.26,10.58,2.61,7.59,3.08,9.84,11.89,3.82,17.42a83.45,83.45,0,0,1-18.36,12.65c-22.83,11.63-47.23,18.81-72.23,24.06-5.47,1.15-9.79-1.23-10.75-5.54s1.91-8.14,7.51-9.34c21.69-4.67,42.92-10.73,63.1-20.09,2.87-1.33,5.67-2.8,8.47-4.26a8.69,8.69,0,0,0,1.47-1.26Z" transform="translate(93 214)"/><path class="cls-1" d="M315.4,871q0-25.25,0-50.5c0-6.83,1-8,7.72-9.18a54,54,0,0,1,8.41-.84c30.82-.44,61.65-.78,92.48-1.24,8-.11,16-.57,24-.78,3.67-.1,7.5.27,7.84,4.95.37,4.94-3.61,5.38-7.19,5.58-5.66.31-11.32.45-17,.56-33.48.69-67,1.43-100.44,1.91-4.51.06-4.63,2.23-4.62,5.56q.09,47,0,94c0,6.77-1.77,10.17-5.37,10.34-3.92.18-5.84-3.19-5.85-10.36Q315.39,896,315.4,871Z" transform="translate(93 214)"/><path class="cls-1" d="M14.18,547.45c0-4.42,3-6.37,6.42-8q23.84-11.52,47.64-23.08c10-4.86,20.11-9.61,30.06-14.63,5.31-2.69,9.8-2.41,14.78,1.19C129.25,514.63,145.69,526,162,537.52a21.44,21.44,0,0,1,4.08,3.64c2.45,2.88,2.65,6.11.36,9.15s-5.64,4.44-9.2,2.19c-6-3.83-11.91-7.89-17.76-12-10.23-7.16-20.47-14.3-30.53-21.69-3.29-2.42-6-2.41-9.55-.64q-35.15,17.36-70.49,34.3a20.88,20.88,0,0,1-7.57,2.18C17,554.92,14.15,551.74,14.18,547.45Z" transform="translate(93 214)"/><path class="cls-1" d="M382.5,497.39c11.66,0,23.33.12,35-.06,5-.07,7.41,1.74,8.45,6.89,4.71,23.15,5.22,46.22-.26,69.28-.44,1.84-1.28,4-2.66,5.08a5.39,5.39,0,0,1-5,.31,6.24,6.24,0,0,1-2.52-4.8c.84-8.09,2.19-16.12,3.29-24.18,1.8-13.22-.32-26.23-2.67-39.16-.23-1.24-2.75-2.92-4.23-2.95-11.82-.25-23.65-.1-35.48-.17-3.1,0-4.27,1.42-4.87,4.38-3.6,17.58-3,35.43-3.66,53.2-.09,2.33,0,4.66-.1,7-.09,3.39-1.4,6.09-5.16,6s-5.19-2.63-5.18-6.07c0-9-.2-18,.35-27,.69-11.27,2-22.5,3.18-33.74.29-2.67-.62-3.76-3.14-3.78q-6.26-.06-12.5-.08c-3.55,0-6.56-1.13-6.47-5.2s3.09-5,6.68-5c12.33.06,24.65,0,37,0Z" transform="translate(93 214)"/><path class="cls-1" d="M326.57,482.77c-.32,8.56-.76,16.83-.91,25.11q-.6,32-1,63.94c-.05,3.87-.93,7.45-5.49,7.3-4.29-.14-4.93-3.69-4.89-7.33q.57-45.46,1.11-90.95c.08-6,3.66-9,10.66-9.09,15.82-.14,31.65-.13,47.47-.32,19-.23,38-.63,57-.89,1.8,0,4-.1,5.31.82,1.68,1.16,3.76,3.37,3.68,5s-2.34,3.68-4.12,4.7c-1.43.81-3.57.44-5.39.45q-49,.46-98,.89C330.4,482.44,328.78,482.63,326.57,482.77Z" transform="translate(93 214)"/><path class="cls-1" d="M48.28,742.08c-6,0-12,.09-18,0-5.77-.12-8.53-2.27-8.94-6.64-.43-4.78,1.95-7.49,7.81-8.33a86.69,86.69,0,0,1,9.94-.63q49.65-1.34,99.29-2.57c2.43-.06,5.53-.18,7.14,1.15,2,1.64,3.81,4.84,3.66,7.25-.13,2.14-2.68,4.78-4.83,6s-5.16,1.17-7.8,1.24q-44.15,1.08-88.31,2Z" transform="translate(93 214)"/><path class="cls-1" d="M352.33,313.17c-.57,8.62-1.18,17.24-1.72,25.86-.34,5.5-3.43,8.75-8.25,8.55-4.33-.18-7.07-3.31-6.94-8.58.18-7,.34-14,1.13-20.87,1.5-13.12-.84-25.8-3.52-38.5q-4.69-22.15-9.13-44.36c-.9-4.46,1.66-8.26,5.72-9,4.75-.85,8.21,1.19,9.25,6,3.69,17.19,7.48,34.37,10.67,51.66,1.77,9.59,2.43,19.38,3.58,29.07Z" transform="translate(93 214)"/><path class="cls-1" d="M542.43-103.52l19.17,7.68c1.08.43,2.19.8,3.26,1.26,3.3,1.39,4.7,4,3.35,7.23S563.87-84,561-85c-10.43-3.94-20.72-8.27-31.28-11.83a20,20,0,0,0-11-.16c-8.33,2.25-16.44,5.34-24.64,8.08-.79.27-1.6.44-2.38.73-3.48,1.29-6.6.67-7.89-2.9-1.41-3.9,1.57-5.77,4.71-6.93,4.37-1.62,8.82-3,13.22-4.53,1.64-.57,3.24-1.25,4.85-1.88l.1-1.38c-5.26-2.18-10.53-4.31-15.77-6.54-3.49-1.48-8.22-2.77-6.09-7.84s6.38-3.27,10.29-1.68c8.17,3.31,16.32,6.71,24.68,9.49a17.83,17.83,0,0,0,10,.29c9.11-2.61,18-5.93,27-9,1.41-.48,3-1.47,4.27-1.13,2.32.65,5.44,1.55,6.38,3.32,1.53,2.9-.54,5.34-3.66,6.42-5.81,2-11.63,4-17.44,6-1.23.44-2.41,1-3.62,1.49Z" transform="translate(93 214)"/><path class="cls-1" d="M209,597.43c18.94-.57,37.88-1.23,56.82-1.6a13,13,0,0,1,7.8,2.24c4.49,3.54,2.79,10.58-2.68,12.25a24.72,24.72,0,0,1-6.36,1.14q-40.63,1.13-81.26,2.1c-4,.1-7.29-1.27-8.76-5.2-1.92-5.1,1.28-9.8,7-10,9.13-.25,18.28-.07,27.42-.07Z" transform="translate(93 214)"/><path class="cls-1" d="M399.29-103.33c4.82,2.11,9.81,3.92,14.37,6.49a8.92,8.92,0,0,1,3.69,5.7c.2,1.2-2,3.47-3.52,4.11-1.39.57-3.56-.13-5.17-.8-7.37-3.06-14.56-6.6-22-9.35a16.36,16.36,0,0,0-9.44-.51C368.05-95.17,359.11-92,350.1-89c-1.27.41-2.71,1.37-3.77,1.06a44.31,44.31,0,0,1-6.64-3.09c1.14-2.13,1.76-5.37,3.51-6.18,5.4-2.51,11.24-4.08,16.9-6l5.85-2a27.49,27.49,0,0,0-3.69-2.63c-3.63-1.66-7.39-3-11-4.79-2.71-1.33-4.88-3.43-3.34-6.76s4.65-3.76,7.69-2.55c7.11,2.84,14.23,5.7,21.09,9.07a14.28,14.28,0,0,0,11.93.45c7.84-2.79,15.79-5.25,23.64-8,3.47-1.22,6.54-1,8,2.59,1.65,4.08-1.2,6.21-4.6,7.43-5.42,1.94-10.91,3.67-16.38,5.49C399.31-104.44,399.3-103.89,399.29-103.33Z" transform="translate(93 214)"/><path class="cls-1" d="M32,48.49c-2.74-1.22-6.23-1.8-8-3.86-1.46-1.7-2.06-5.88-.95-7.63,1.41-2.23,4.8-4,7.58-4.43,17.51-3,35.15-5.22,52.63-8.39,7.47-1.35,14.64-4.4,22-6.6,5.21-1.57,10,.36,11.22,4.37,1.33,4.43-1,8.18-6.49,10.09A311.61,311.61,0,0,1,32,48.49Z" transform="translate(93 214)"/><path class="cls-1" d="M286.82,47.59c-28.85-1.33-54.88-7.12-80.25-16.07-4.12-1.46-6-4.75-5.07-9.1s4.65-5.78,8.49-5c6.8,1.47,13.49,3.5,20.16,5.52,18.41,5.6,37.32,8.08,56.42,9.4,6.1.42,9.17,2.78,9.28,7.51C296,45.27,292.58,47.65,286.82,47.59Z" transform="translate(93 214)"/><path class="cls-1" d="M532.53,472.42c19.33,0,38.65,0,58,.05a9.91,9.91,0,0,1,5.23,1.15c1.31.86,2.78,2.91,2.6,4.22A6.35,6.35,0,0,1,595,482.1c-2,.85-4.56.72-6.88.7q-57.23-.58-114.45-1.27c-1.63,0-3.57.05-4.82-.77-1.48-1-3.33-2.89-3.27-4.33.07-1.73,1.7-3.7,3.18-5,1-.83,2.83-.78,4.29-.79q29.73-.06,59.46,0Z" transform="translate(93 214)"/><path class="cls-1" d="M504.07,836H450.6c-.67,0-1.34,0-2,0-3-.17-6.91.17-6.88-3.89s4-3.71,6.94-3.72c25.33,0,50.66.25,76-.15,24.14-.38,48.27-1.47,72.4-2.25,1.16,0,2.59-.44,3.43.08a26.77,26.77,0,0,1,4,3.74c-1.35,1.25-2.56,3.31-4.08,3.57a91.23,91.23,0,0,1-13.43,1.1q-41.46,1-82.92,1.93Z" transform="translate(93 214)"/><path class="cls-1" d="M479.5,566.21c-6.66,0-13.32,0-20,0-1.81,0-4,.36-5.34-.51-1.66-1.09-3.48-3.23-3.57-5-.06-1.41,2.15-3.27,3.76-4.31,1.11-.72,2.9-.47,4.4-.51l59.94-1.47,37.47-.94c1.34,0,2.67-.06,4,0,3.58.1,7.58,0,7.68,5s-3.73,5.2-7.42,5.27c-4.66.09-9.33.17-14,.3l-66.94,1.86Z" transform="translate(93 214)"/><path class="cls-1" d="M495.77,822.48c-6.49,0-13,.08-19.46,0-2.65,0-5.82-.08-5.75-3.9.06-3.54,2.84-4,5.71-4.1,20.12-.67,40.25-1.22,60.37-2.08,19.94-.84,39.87-2,59.81-3,3.2-.15,7.77-1,7.82,3.66.05,4.23-4.58,4.28-7.76,4.44-22.43,1.16-44.86,2.29-67.31,3.08-11.13.4-22.29.07-33.43.07Z" transform="translate(93 214)"/><path class="cls-1" d="M97.94,536.44c6.65,0,13.29-.08,19.94,0,5.69.08,9.72,3.51,9.63,8s-3.74,7.23-9.57,7.16c-13.11-.15-26.23-.43-39.34-.67a24.6,24.6,0,0,1-3-.24c-4.28-.64-7.16-2.79-7.22-7.41s3-6.88,7.16-7.46c2.75-.39,5.62.1,8.43.13,4.65,0,9.3,0,14,0Z" transform="translate(93 214)"/><path class="cls-1" d="M543.58,841.25q21.38,1.62,42.75,3.24a5.53,5.53,0,0,1,2.88.66,48,48,0,0,1,4.14,4.29c-1.7,1.06-3.44,3.08-5.09,3-6.79-.29-13.55-1.62-20.35-1.84-16.47-.52-32.95-.59-49.43-1-3.11-.07-7.79,1-7.78-3.81s4.76-3.58,7.81-3.64c8.32-.17,16.66-.06,25-.06Z" transform="translate(93 214)"/><path class="cls-1" d="M468.86,849.78a80.09,80.09,0,0,1-8.49,0c-7.54-.81-14.11.16-18.8,7.2-.92,1.37-4.67,2.23-6.26,1.49-3.07-1.44-1.66-4.32,0-6.31,1.81-2.2,1.39-3.85-.48-5.57a12.7,12.7,0,0,1-1.72-1.8c-1.6-2.23-4.37-4.53-1.27-7.29,2.87-2.57,5.29-.52,7.21,1.75,2.29,2.7,4.71,3.43,8.5,3.3,13.31-.49,26.64-.25,40,.07,1.57,0,3.08,2.28,4.62,3.5-1.76,1.45-3.42,4-5.29,4.15-5.94.54-12,.2-18,.2C468.85,850.21,468.85,850,468.86,849.78Z" transform="translate(93 214)"/></svg>