<?xml version="1.0" encoding="UTF-8"?><svg id="a" xmlns="http://www.w3.org/2000/svg" width="164.12" height="177.45" viewBox="0 0 164.12 177.45"><path d="M89.12,64.68c3-11,2-37-1-46.5,1.5-1,6.3-3.1,13.5-3.5,9-.5,12.5,4,23,5,10.5,1,16-5.5,24.5-5.5,6.8,0,10.17,3.67,11,5.5-.67,.83-2,3.9-2,9.5,0,7,5.5,13.5,5.5,21,0,6-3,13.83-4.5,17-.83-.83-4.4-2.6-12-3-9.5-.5-13.5,4-21,4s-15.5-3.5-22.5-5c-5.6-1.2-12,.5-14.5,1.5Z" fill="#00833d" stroke="#000"/><path d="M86.12,10.68c-.22-1.73,2-4,2-4,0,0,2.22,2.27,2,4-.17,1.4-.59,2-2,2s-1.83-.6-2-2Z" fill="#fff" stroke="#000"/><path d="M89,12.96h-2V105.96h2V12.96Z" fill="#fff" stroke="#000"/><path d="M25.12,145.46c2.4,.4,4-.83,4.5-1.5l.5,4c-5.83,1.33-14.25-1.26-12.5-8,3.5-13.5,2.5-20.5-2.18-20.5s-4.32,4-6.82,7.5c-2,2.8-6.5,2.5-8.5,2,3-.5,6-5.5,5-4.5-.8,.8-2.67,1-3.5,1l2-2c1-1,0-3,1-4,1.81-1.81,4-1,5-.5,.67-1,2.7-3,5.5-3,3.5,0,10,5.5,7,17-3.07,11.78,0,12,3,12.5Z" fill="#ffe700" stroke="#000"/><path d="M44.49,163.07c0-3.62-1.31-5.43-3.49-7.25l-.87-2.26,11.36-8.6c.29,2.11,.87,6.79,.87,8.6,0,2.26-3.06,6.79-1.31,9.06,1.75,2.26,5.24,.45,7.86,.91,2.1,.36,2.33,1.96,2.18,2.72,0,0-.87,.91-2.62,1.81-1.75,.91-4.8,.91-4.8,.91,0,0-6.99-5.13-9.17-5.89h0Z" fill="#f9c800" stroke="#000"/><path d="M40.92,155.39c-.7,1.02-3.49,.42-4.8,0l3.06-11.44c6.11,.14,17.55,.68,14.41,1.7-3.93,1.27-11.79,8.47-12.66,9.74h-.01Z" fill="#f9c800" stroke="#000"/><path d="M85.48,139.06c-.71-2.5-.59-6.41-.44-8.05l-4.86-8.05-11.06,4.03,13.71,19.68,13.71,9.84,6.19,.45c.29-.45,.71-1.79,0-3.58-.88-2.24-6.63-1.34-7.96-1.79-1.33-.45-8.4-9.4-9.29-12.53h0Z" fill="#f9c800" stroke="#000"/><path d="M45.3,135.07c2.84-.71,8.57-6.76,11.09-9.7,1.48-1.47,5.5-4.41,9.76-4.41,5.32,0,7.98,8.38,8.87,11.02,.89,2.65,15.96,18.96,17.29,20.28,1.33,1.32,5.32,0,7.54,1.32,1.77,1.06,1.33,2.5,.89,3.09l-4.88,.44c-.74-.44-2.57-1.59-3.99-2.65-1.77-1.32-3.99-.44-4.88-.88s-3.1-3.53-5.76-4.85c-2.66-1.32-.89-2.65-5.32-2.65s-5.31,3.09-15.08,3.09c-5.76,0-9.31-3.09-19.51,.88-4.88,3.09-2.66,6.76-7.09,9.7-6.65,4.41-6.21,6.61-6.21,10.14s6.21,3.09,7.98,3.53c1.42,.35,.89,2.5,.44,3.53h-7.09c-1.33,0-6.02-4.85-6.21-7.05-.15-1.76,2.51-9.11,3.99-11.02-.89-9.26,1.77-15.43,5.76-19.84,3.99-4.41,8.87-3.09,12.42-3.97h-.01Z" fill="#ffe700" stroke="#000"/><path d="M66.79,99.21c1.42-.35,2.37-.44,2.67-.44,1.07-1.41,.44-2.35,0-2.64,1.42-.71,3.26-.88,4-.88,2.67-1.32,5.78-1.76,8-2.2s4,.88,5.33,1.76c1.33,.88,3.56,0,4,.88,.44,.88,0,.88-.44,1.32s.44,1.76,0,2.64c-.44,.88-6.67,1.76-6.67,2.64s1.78,2.2,3.56,2.2c1.42,0,2.96-.88,3.56-1.32,.44,.44,1.33,1.59,1.33,2.64,0,1.32-1.78,2.2-3.56,1.76-1.42-.35-2.96,.44-3.56,.88,.89,1.03,2.67,3.61,2.67,5.72,0,2.64-.44,1.32-.44,4.4s1.78,4.84,2.22,8.37c.36,2.82-1.33,7.93-2.22,10.13-.44-1.32-1.42-4.14-1.78-4.84-.36-.71-1.33-1.47-1.78-1.76l-3.56,7.04c0-.59-.18-2.2-.89-3.96-.71-1.76-2.37-3.38-3.11-3.96,.36,2.47-1.63,5.43-2.67,6.6l-3.56-8.81c0,6.34-3.85,9.1-5.78,9.69,0-.44-.09-1.5-.44-2.2-.36-.71-1.04-1.47-1.33-1.76-.71,2.11-7.11,4.11-10.22,4.84,.74-1.47,2.49-5.11,3.56-7.93,1.33-3.52-.44-7.93,4.44-17.61,1.36-2.69,4.89-7.34,6.67-9.25l-3.11-2.64c.44-.29,1.69-.97,3.11-1.32h0Z" fill="#f3c30d" stroke="#000"/><path d="M82,98.13l-.88-1.18h4l-1.69,1.36c-.44,.35-1.09,.27-1.42-.18h-.01Z"/><path d="M59.52,124.96c.13,1.25,.24,4-.4,5,1.47-.14,4.72-1.17,6-4.17" fill="none" stroke="#000"/><path d="M76.12,95.96c-3.46,.43-4.04,2.14-1.15,3" fill="none" stroke="#000"/><path d="M65.06,109.96c.16,1.4-.19,5.88-.94,7,4.24,0,6.49-3.64,8-7" fill="none" stroke="#000"/><path d="M74.12,111.02c.77,.7,1.28,2.92,1.43,3.94,1.12-1.6,3.35-5.16,3.35-6.56,.64,.87,1.82,2.97,1.43,4.37,1.75-1.31,4.78-3.32,4.78-4.37" fill="none" stroke="#000"/><path d="M42.62,153.96c2.91,2.13,4.05,6.22,4.5,8" fill="none" stroke="#000" stroke-linecap="round" stroke-linejoin="round"/><path d="M115.62,76.46h-6v6h6v-6Z" fill="#fff" stroke="#000"/><path d="M115.62,82.96c0,.3-.21,.66-.77,.98-.54,.31-1.33,.52-2.23,.52s-1.68-.21-2.23-.52c-.56-.32-.77-.68-.77-.98s.21-.66,.77-.98c.54-.31,1.33-.52,2.23-.52s1.68,.21,2.23,.52c.56,.32,.77,.68,.77,.98Z" fill="#fff" stroke="#000"/><path d="M61.12,72.46c0-2,2.33-3.17,3.5-3.5v7.27c1.86,.75,4.5,1.23,8,1.23,8,0,17.5-7,29.5-7,8.5,0,11.5,1,13.5,3v9.5c0-3.5-7.1-3-13.5-3-8,0-21.5,6.5-29.5,6.5-6.4,0-10.33-2-11.5-4v-10h0Z" fill="#fff"/><path d="M61.12,72.46c0-2,2.33-3.17,3.5-3.5v7.27m-3.5-3.77,0,0v10c1.17,2,5.1,4,11.5,4,8,0,21.5-6.5,29.5-6.5,6.4,0,13.5-.5,13.5,3v-9.5c-2-2-5-3-13.5-3-12,0-21.5,7-29.5,7-3.5,0-6.14-.48-8-1.23m-3.5-3.77c0,1.41,1.11,2.81,3.5,3.77" fill="none" stroke="#000"/><path d="M63.84,78.95l-.44-.08v-.37h1.82v.37l-.5,.08v1.51h1.82v-1.51l-.46-.08v-.37h1.8v.37l-.46,.08v3.59l.46,.06v.36h-1.81v-.36l.47-.06v-1.63h-1.82v1.63l.5,.06v.36h-1.84v-.36l.46-.06v-3.59h0Z"/><path d="M91.9,79.52c-.22,0-.41-.02-.58-.05-.17-.04-.36-.08-.58-.14-.14-.04-.23-.06-.28-.07l.05-1.11h.49l.13,.77c.05,.06,.14,.11,.28,.15,.14,.04,.29,.07,.46,.07,.27,0,.47-.06,.6-.17,.14-.12,.2-.29,.2-.5,0-.14-.04-.26-.12-.36-.08-.1-.19-.2-.33-.28s-.33-.18-.58-.29c-.33-.15-.61-.33-.83-.54s-.32-.5-.32-.86c0-.22,.06-.43,.17-.61,.12-.18,.29-.33,.52-.43,.23-.11,.51-.16,.85-.16,.2,0,.37,.01,.52,.04,.15,.03,.32,.07,.49,.11,.1,.03,.18,.05,.23,.05l-.04,1.05h-.48l-.13-.74s-.11-.07-.22-.1c-.11-.04-.23-.05-.36-.05-.24,0-.42,.06-.55,.17-.12,.11-.18,.25-.18,.44,0,.15,.04,.28,.13,.38,.09,.11,.2,.2,.33,.28,.13,.07,.33,.18,.61,.31,.22,.11,.42,.21,.58,.32,.16,.1,.3,.24,.41,.41,.12,.16,.17,.36,.17,.58s-.06,.43-.17,.63c-.11,.2-.29,.37-.54,.5-.25,.13-.57,.2-.95,.2h.02Z"/><path d="M95.81,73.89l-.86,.03-.23,1.31h-.5l.1-1.73h3.87l.07,1.73h-.47l-.23-1.31-.85-.03v3.64l.84,.06v.36h-2.5v-.36l.77-.06v-3.64h-.01Z"/><path d="M100.76,72.97h.92l1.39,4.06,.35,.06v.36h-1.77v-.36l.45-.06-.23-.78h-1.55l-.23,.79,.49,.05v.36h-1.53v-.36l.35-.06,1.38-4.06h-.02Zm.41,1.01l-.11-.47-.11,.47-.53,1.84h1.32l-.56-1.85h-.01Z"/><path d="M105.81,73.89l-.86,.03-.23,1.31h-.5l.1-1.73h3.87l.07,1.73h-.47l-.23-1.31-.85-.03v3.64l.84,.06v.36h-2.5v-.36l.77-.06v-3.64h-.01Z"/><path d="M109.83,74.45l-.48-.08v-.37h3.2l.08,1.01h-.42l-.2-.59-1.3-.05v1.61l.83-.02,.1-.49h.38v1.45h-.38l-.1-.52-.83-.02v1.69l1.45-.07,.35-.77,.45,.13-.16,1.1h-3.45v-.36l.47-.06v-3.59h.01Z"/><path d="M70.43,84c-.61,0-1.06-.15-1.36-.46-.3-.3-.44-.78-.44-1.43v-2.17l-.4-.08v-.37h1.81v.37l-.51,.08v2.24c0,.95,.34,1.43,1.01,1.43,.33,0,.58-.12,.74-.37,.16-.25,.24-.59,.24-1.04v-2.26l-.52-.08v-.37h1.5v.37l-.41,.08v2.22c0,.62-.15,1.09-.46,1.39-.3,.3-.71,.45-1.22,.45h.02Z"/><path d="M73.84,79.95l-.47-.08v-.37h1.36l1.79,2.7,.34,.68v-2.93l-.52-.08v-.37h1.49v.37l-.46,.08v4.01h-.73l-1.87-2.84-.42-.79v3.21l.61,.06v.36h-1.59v-.36l.47-.06v-3.59h0Z"/><path d="M80.83,79.33l-1.56,.08-.32,.81-.44-.06,.14-1.18h3.04l.14,.32-2.17,3.37-.41,.41,1.85-.12,.34-.93,.46,.09-.14,1.33h-3.3l-.19-.32,2.22-3.39,.35-.41h0Z"/><path d="M83.76,77.47h.92l1.39,4.06,.35,.06v.36h-1.77v-.36l.45-.06-.23-.78h-1.55l-.23,.79,.49,.05v.36h-1.53v-.36l.35-.06,1.38-4.06h-.02Zm.41,1.01l-.11-.47-.11,.47-.53,1.84h1.32l-.56-1.85h-.01Z"/><path d="M160.12,63.4l-.43-.18c-.24-.1-.69-.37-1.02-.59-.32-.23-.6-.41-.62-.41l.02-.1-.83-.65c-.46-.36-1.19-.97-1.63-1.36s-.82-.67-.85-.62c0,0,0,0-.02,.02,0-.07-.14-.27-.34-.49l-.42-.46-.52,.03s.07,0,.1,0l.46-.07-.72-.78c-.56-.6-.71-.74-.95-.76,0,0,.02-.02,.02-.03,0-.02-.58-.56-1.28-1.19-1.41-1.26-2.75-2.72-3.26-3.53-.72-1.16-1.31-1.94-1.71-2.25-.38-.3-2.08-1.02-2.24-.97-.07-.16-.16-.28-.2-.28-.16,0-1.51-1.02-2.12-1.6-.37-.35-.63-.54-.87-.62,.02,0,.04,0,.05-.02,.07-.07-1.83-1.97-2.54-2.54-.42-.34-1.55-1.04-2.51-1.56-1.93-1.05-2.24-1.32-3.43-2.99-1.03-1.45-3.07-3.04-3.9-3.03-.49,0-1.05,.35-1.86,1.15-.42,.42-.95,.85-1.17,.98l-.41,.22-.48-.59c-.66-.8-1.42-1.3-3.19-2.06-.82-.36-1.61-.73-1.76-.82-.14-.09-.42-.44-.61-.77-.34-.58-.57-.79-1.02-.79-.15,0-.33,.03-.54,.07-1.06,.2-1.61,.58-3.31,2.3-1.51,1.53-1.59,1.58-2.84,2.25-.87,.46-1.75,1.05-2.73,1.82-.8,.63-1.67,1.22-1.93,1.33-.27,.1-.79,.39-1.16,.63-1.06,.7-1.39,.86-2.77,1.31-2.12,.69-2.98,1.28-3.89,2.66-.77,1.17-1.34,1.59-2.58,1.91-1.33,.34-1.89,.7-3.82,2.45-.49,.45-1.15,.95-1.51,1.15-.23,5.16-.77,9.83-1.67,13.14,2.5-1,8.9-2.7,14.5-1.5,7,1.5,15,5,22.5,5s11.5-4.5,21-4c7.6,.4,11.17,2.17,12,3,.17-.35,.35-.77,.55-1.22l.45-1.41v-1.17Zm-15.35-13.19c-.13-.14-.25-.3-.36-.44,.1,.12,.2,.24,.34,.41,.16,.19,.29,.33,.4,.45-.11-.11-.23-.25-.38-.42Zm2.03,4.87c.22,.17,.45,.36,.75,.62-.25-.22-.52-.44-.75-.62Zm1.09,.94c.26,.24,.59,.54,.98,.91-.28-.26-.59-.55-.98-.91Zm3.45,2.5c-.43-.12-.74-.24-1.12-.48,.61,.38,1.31,.58,2.12,.62-.39,0-.67-.04-1-.13h0Zm2.82,1.13c-.08,.01-.15,.02-.21,.03l.18-.03c.11-.02,.21-.03,.31-.05-.09,.02-.18,.04-.28,.05Zm.55,4.76h0Zm2.18-.97c.25,.06,.54-.02,.74-.19-.2,.18-.46,.27-.74,.19Zm.79-.25c.1-.11,.2-.29,.26-.48-.04,.2-.14,.35-.26,.48Z"/><path d="M154.91,64.3c-.46-.75-.54-.83-1.12-1.15-.45-.25-.67-.46-.96-.91-.53-.82-.78-1-1.4-1-.66,0-.81-.07-.81-.36,0-.4-.37-.71-1.78-1.52-1.96-1.12-2.51-1.6-3.74-3.23-.62-.83-1.05-1.24-1.69-1.63-.25-.15-.48-.29-.5-.31-.02-.02,.04-.1,.15-.18,.13-.1,.43-.15,.96-.15,.87,0,1.11,.11,1.61,.75,.16,.2,.58,.57,.93,.82,.63,.44,.97,.73,2.48,2.1,.41,.38,.97,.82,1.25,.98,.9,.54,2.02,.71,3.35,.52l.46-.07-.72-.75c-.67-.7-.75-.75-1.09-.73-.56,.03-1.15-.23-1.96-.89-.4-.33-.99-.73-1.3-.9-.76-.4-.88-.56-1.05-1.42-.08-.4-.22-.87-.3-1.04-.28-.57-.85-1.06-1.5-1.29-.53-.19-.71-.32-1.32-1-.39-.43-.77-.93-.85-1.11s-.18-.33-.22-.33c-.16,0-1.51-.99-2.12-1.55-.44-.4-.72-.58-1-.63-.21-.04-.67-.27-1.03-.52-.79-.56-1.18-.77-1.18-.66,0,.17,.57,.91,.96,1.24,.22,.18,.39,.37,.39,.41s-.14,.08-.3,.08c-.31,0-.65-.31-1.58-1.46-.34-.42-.45-.49-.91-.58-.76-.14-1.01-.31-1.44-.98-.39-.6-.72-.84-1.36-.97-.48-.1-.75-.41-.83-.93-.12-.86-.76-1.31-1.99-1.42-.56-.05-.65-.09-.65-.25,0-.1,.11-.24,.24-.3,.54-.26,.4-.72-.38-1.24-.28-.19-.63-.51-.77-.7-.34-.47-.84-.71-1.29-.63-.25,.05-.51,.24-.95,.72-.33,.36-.66,.65-.71,.65-.06,0-.1,.14-.08,.33,.03,.28,.1,.37,.54,.61,.28,.16,.95,.72,1.49,1.25,.54,.53,1.3,1.19,1.69,1.46,.38,.27,1.06,.85,1.51,1.29,.92,.91,1.54,1.28,2.29,1.37,.88,.11,1.11,.24,1.98,1.06,.63,.61,1.06,.91,1.76,1.27,1.97,1,3.53,1.93,3.99,2.36,.54,.51,.83,1.08,.84,1.65,0,.34-.03,.4-.33,.53-.77,.34-1.18,.08-2.6-1.63-1.13-1.36-1.93-2.05-2.64-2.28-.19-.06-1.01-.14-1.8-.18-1.83-.09-2.03-.18-3.32-1.46-2.48-2.46-4.21-3.81-5.77-4.5-.85-.38-1.3-.7-2.39-1.69-1.07-.98-1.38-1.18-2.45-1.57-1.08-.4-1.29-.56-1.64-1.3-.34-.71-.68-1.14-1.09-1.4-.3-.19-1.03-.39-1.03-.28,0,.12,.6,1.6,1.05,2.61,.27,.6,.49,1.11,.49,1.14,0,.21-1.04-.34-1.12-.58-.06-.19-.12-.2-.7-.14-1.02,.1-1.04,.32-.06,.79,.71,.34,1.19,.75,1.61,1.39,.17,.26,.53,.72,.8,1.03,.27,.31,.66,.89,.86,1.29,.39,.79,.76,1.1,1.56,1.32,.41,.11,.6,.33,.6,.7,0,.11,.15,.39,.34,.62,.18,.23,.34,.52,.34,.65,0,.16,.12,.29,.41,.46,.22,.13,.64,.45,.93,.7,.28,.26,1.11,.93,1.83,1.5,1.31,1.03,1.47,1.12,4.4,2.5,.92,.43,.88,.38,.95,1.08,.08,.75,.33,1.36,.72,1.75,.57,.56,1.45,.31,1.61-.46,.05-.26,.1-.29,.43-.29,.64,0,.69,.24,.36,1.75-.09,.43-.2,.65-.4,.81-.17,.15-.26,.3-.23,.43,.03,.17,.1,.19,.58,.16,1.11-.07,1.8,.75,1.41,1.65-.14,.32-.21,.32-1.07-.03-.39-.16-.99-.39-1.34-.51-.82-.28-1.43-.69-1.78-1.19-.56-.8-.74-.94-1.44-1.16-.37-.12-1.15-.41-1.72-.66-.57-.25-1.42-.54-1.88-.66-1.02-.25-1.41-.46-1.9-.99-.47-.51-.87-.66-1.55-.57-.75,.1-1.1-.1-1.48-.86-.17-.33-.47-.73-.67-.9-.2-.17-.42-.43-.48-.59-.07-.17-.29-.38-.57-.53-.29-.16-.55-.41-.73-.71-1.01-1.67-2.13-3.59-2.79-4.8-1.08-1.99-1.39-2.44-2.26-3.3-.42-.42-.87-.96-.99-1.21-.35-.72-.61-.78-1.25-.27-.74,.59-.88,.66-1.52,.79-.7,.14-.99,.36-.99,.78,0,.39,.44,.79,1.5,1.38,.48,.27,1.06,.63,1.3,.8,.24,.18,.81,.56,1.27,.85,.96,.61,1.05,.72,1.34,1.62,.17,.55,.34,.8,1.03,1.57,.74,.82,.89,1.07,1.49,2.39,.37,.81,.8,1.75,.96,2.09,.35,.74,.83,1.29,1.64,1.87,.33,.23,.9,.69,1.26,1.01,.87,.78,1.31,1.04,2.48,1.45,1.14,.4,1.52,.62,2.84,1.62,.53,.4,1.12,.82,1.31,.95,.49,.31,1.05,.97,1.51,1.8,.47,.84,1.1,1.48,1.8,1.82,.5,.24,.55,.24,2.49,.2,1.82-.04,2.03-.07,2.55-.29,1.56-.68,2.19-.72,3.32-.22,1.67,.75,2.61,.93,3.22,.64,.27-.13,.33-.29,.1-.29-.27,0-.86-.38-1.46-.94-.99-.93-2.08-1.52-3.74-2.04-.48-.15-.92-.29-.99-.31-.17-.06,.06-.69,.64-1.75,.72-1.33,.76-1.94,.15-2.34-.48-.31-.59-.54-.71-1.39-.05-.41-.16-.84-.24-.97-.1-.16-.52-.37-1.43-.71-.71-.27-1.42-.55-1.57-.63-.49-.25-1.31-.94-1.25-1.04,.09-.14,1.35-.11,2.1,.05,1.36,.3,2.78,1.36,3.41,2.55,.2,.38,.71,1.04,1.19,1.55,.59,.63,.96,1.14,1.26,1.71,.37,.72,.5,.87,1.06,1.26,.35,.24,.85,.7,1.1,1.01,.46,.56,.47,.57,.97,.57,.42,0,.57,.05,.87,.3,.2,.17,.46,.3,.58,.3s.44,.07,.72,.16c.42,.13,.69,.33,1.5,1.14,1.17,1.16,1.78,1.69,2.15,1.89,.19,.11,.63,.15,1.57,.15,1.26,0,1.32,0,2.07,.35,.45,.2,.94,.35,1.18,.35h.41l-.23-.37v.03Zm2.78-.76c.14-.13,.28-.41,.33-.66l.09-.43-.83-.62c-.46-.34-1.19-.93-1.62-1.31-.43-.38-.81-.65-.84-.6-.03,.05-.3,.12-.61,.16-.66,.09-.8,.18-.8,.58,0,.72,.46,1.11,1.86,1.6,.6,.21,.68,.27,1.03,.81,.21,.32,.44,.61,.5,.64,.29,.12,.66,.05,.89-.16h0Zm-43.23-.76c.37-.23,.53-.66,.53-1.43v-.64l.3,.06c.17,.03,.66,.23,1.11,.43,.74,.34,.88,.37,1.68,.37,.89,0,1.77-.21,2.26-.52,.48-.31,1.07-.97,1.07-1.21,0-.3-.17-.39-1.58-.81-2.74-.82-4.68-2.2-5.9-4.18-.22-.36-.95-1.79-1.61-3.19-1.52-3.16-2.35-4.64-3.15-5.54-.94-1.07-.97-1.08-3.7-1.08h-2.3l.07,.31c.12,.57-.03,.96-.63,1.65-.41,.47-.59,.77-.63,1.04-.03,.21-.11,.51-.17,.67-.12,.33,.03,.51,.36,.4,.47-.15,.63-.24,.58-.33-.03-.05,.04-.17,.17-.25,.18-.13,.33-.14,.84-.05,.7,.12,.83,.18,1.14,.52,.33,.37,.52,1.05,.58,2.09l.06,.94,.25-.06c.14-.04,.54-.06,.89-.06,1.52,0,3.1,1.09,3.82,2.63,.23,.49,.27,.7,.28,1.56,.01,.66,.06,1.06,.15,1.21,.13,.2,.16,.21,.55,.09,.23-.07,.44-.1,.47-.07s.06,.66,.06,1.4c0,1.64-.13,2.1-.78,2.66-.44,.38-.98,1.12-.88,1.21,.12,.12,1.18-.41,1.54-.77,.45-.45,.46-.45,.46-.24,0,.26,.37,.93,.64,1.15,.32,.27,1.09,.29,1.49,.04h-.02Zm-9.45-3.7c.33-.18,.38-.85,.1-1.33-.33-.56-1.56-1.71-2.52-2.36-1.79-1.22-1.49-.83-2.59-3.29-.27-.61-.36-.72-.74-.89-.4-.18-.56-.19-2.23-.13-1.26,.05-1.89,.11-2.11,.22-.37,.18-.8,.74-.8,1.04,0,.42,.32,.92,.88,1.38,.63,.52,.94,.98,1.53,2.29,.46,1.03,.97,1.65,1.78,2.21,.95,.65,1.58,.8,3.62,.89,2.74,.11,2.83,.11,3.08-.02h0Z" fill="#fff"/><path d="M128.25,22.68c-1.85,.96-3.12,2.92-3.12,5.19,0,3.21,2.55,5.81,5.69,5.81,2.43,0,4.5-1.56,5.31-3.75-.95,.92-2.24,1.48-3.65,1.48-2.94,0-5.32-2.43-5.32-5.43,0-1.24,.4-2.38,1.09-3.3Z" fill="#fff"/><path d="M130.12,26.18l1.53-.59v-1.91l.94,1.55,1.53-.6-.95,1.55,.95,1.55-1.53-.6-.94,1.55v-1.91l-1.53-.59Z" fill="#fff"/><path d="M144.06,44.53c-.34-.39-.2-.62,2.26-3.85,1.04-1.36,1.89-2.5,1.91-2.53,.02-.06-2.88-2.45-3.16-2.61-.04-.02-.27-.02-.51,0l-.43,.06-1-.8c-.55-.44-1-.83-1-.87s.17-.09,.37-.12c.21-.03,.43-.06,.49-.07,.09,0,.11-.13,.09-.61,0-.33,0-.58,.04-.56,.04,.02,.52,.39,1.06,.83l1,.8,.05,.47,.05,.47,1.55,1.25c.85,.69,1.6,1.27,1.66,1.29,.06,.02,.86-.97,2.03-2.52,1.06-1.41,2.11-2.77,2.35-3.02,.37-.41,.46-.47,.72-.47,.22,0,.33,.05,.42,.18,.21,.31,.15,.54-.26,.99-.65,.71-.7,1.3-.24,3.19,.42,1.75,.4,2.61-.08,3.07-.12,.12-.47,.29-.77,.39-.57,.19-1.07,.48-1.07,.63,0,.05,.25,.29,.56,.54l.56,.45,.02-.33,.02-.33,.69,.97c.69,.97,.8,1.2,.55,1.11-.8-.29-2.13-.9-2.08-.95,.03-.03,.18-.07,.33-.08l.27-.03-.6-.47c-.33-.26-.62-.46-.65-.43-.02,.02-.07,.36-.11,.76-.08,.82-.15,1.05-.4,1.29-.45,.41-.96,.52-2.89,.59-1.58,.06-1.62,.06-2.04,.3-.34,.19-.49,.33-.7,.7-.26,.45-.28,.46-.6,.46-.22,0-.37-.05-.46-.15h0Zm1.95-2.34c.26-.08,.97-.14,2.1-.17,1.22-.04,1.73-.08,1.8-.16,.06-.06,.12-.41,.15-.82,.03-.4,.1-.83,.18-.98,.07-.15,.1-.3,.07-.33-.24-.24-1.79-1.44-1.83-1.43-.04,.02-1.85,2.37-3.08,4.01-.07,.1-.06,.1,.07,.05,.09-.04,.33-.12,.55-.19v.02Zm4.75-2.91c.23-.32,.63-.58,1.18-.74,.31-.1,.62-.22,.67-.26,.17-.14,.11-.79-.18-1.88-.2-.77-.29-1.29-.33-1.95l-.05-.9-1.57,2.07c-.86,1.14-1.61,2.13-1.66,2.2-.07,.11,.06,.25,.82,.87,.5,.41,.94,.74,.97,.75,.03,0,.1-.06,.16-.14v-.02Z" fill="#fff519"/><path d="M130.58,5.66l.11,.06h.02l-.13-.06Zm-8.74,3.23c-.86,.64-.03,.57,.76,1.22,.16-.16,.78-.76,.81-.84-.41-.21-1.12-1.15-1.57-.38Zm17.72-3.86c-.62-1.41-.47-1.05,.17-.7,.12-.54-1.32-1.85-1.39-2.06-.02,0-.09,.21-.16,.48-.24,1.73,2.38,7,1.18,8.76-.82,1.21-2.23-4.6-3.1-3.53,.11,1.08,.84,2.75,.51,3.77-1.86,2.78-4.77,1.48-3.48-2.31,.28-1.57,.15-1.91-.97-.78-.42,.01-1.59,4.37-1.94,4.46-1.57,.65-1.54-2.11-1.17-3.14,.14-.33-.01-.31-.2,.03-1.06,1.53-.54,5.17,1.6,4.2,.78-.23,.94-4.01,1.88-4.7-.1,1.89-.45,5.26,1.83,4.99,1.59,.03,2.81-1.74,3.01-3.17,0-.16,.43,.47,.71,.95,2.13,3.64,3.37-3.05,1.52-7.25Zm-2.59-.98l-.15,.24-.15,.25c.12,.39,.53,1.27-.03,1.14-.73,.28-.37-2.09-1.08-1.07,.75,1.88-1.14,1.74-.67-.07-.34,.23-.85,.79-.76,1.09,.61-.99,.15,.89,.61,.93,.3,.23,.86,.11,1.06-.23q.11-.18,.3-.07c1.23,.75,1.56-.76,.87-2.21Zm-2.04-2.01s-.06,.29-.08,.37c.53,.27,.85,.56,.82,1.2,0,.42,.05,.41,.23-.03,.34-.58-.32-1.52-.97-1.54Z" fill-rule="evenodd"/><path d="M126.13,10.47c.1,.58-1.69,.66-.91,1.48-.84,1.09-4.23,.71-6.56,.56,1.85,.83,5.37,.93,6.61,.01,.38-.21,.26-.26,.64-.02,1.98,1.27,1.33-1.79,.22-2.03Zm-.66,.85c.25-.11,.69-.1,.79,.06,.09,.6-.55,.47-.79-.06Zm.87,.84c-.33-.07,.2-.51,.19-.48,0,.01,.09,.16,.18,.34,.36,.54,0,.32-.37,.14Z" fill-rule="evenodd"/><path d="M126.68,3.78c-.04,.23-1.21,.04-1.24,.13-.16-.02,1.74,.96,2.84,1.5,3.71,2.02-1.91,4.73-3.9,3.87-.97,.33-1.3-3.95-1.69-3.18-.09,1.06-1.05,1.57-2.18,1.6,0,.48-.03,1.46-.03,1.94-1.43,2.26-7.22,4.65-10.52,4.08,3.12-.91,8.26-2.46,10.27-4.5-.03-.42-.72-1.92-1.16-2.37,.1-.29,.28-.78,.37-.99,1.41,1.79,2.84,.48,3.35-1.29,.92,.54,.8,3.69,1.89,3.68,1.25,.36,3.75-.34,4.51-1.22-.22-.28-1.13-.7-1.75-.9-1.22-.54-2.32-1.4-3.26-2.04-2.01-3.13,6.5-3.55,8.33-4.09,3.1,.14-1.34,3.29-1.48,4.45-.81,.86-.16-1.23,1.48-2.68,2.97-2.99-8.63,.93-8.12,1.11,0,.02,.54,.21,1.16,.42,1.12,.39,1.14,.39,1.15,.48" fill-rule="evenodd"/></svg>