<?xml version="1.0" encoding="utf-8"?>
<!-- Generator: Adobe Illustrator 22.0.1, SVG Export Plug-In . SVG Version: 6.00 Build 0)  -->
<svg version="1.1" id="레이어_1" xmlns="http://www.w3.org/2000/svg" xmlns:xlink="http://www.w3.org/1999/xlink" x="0px"
	 y="0px" viewBox="0 0 210 255" style="enable-background:new 0 0 210 255;" xml:space="preserve">
<style type="text/css">
	.st0{fill:#FFDD00;}
	.st1{fill:none;stroke:#6F6E63;stroke-miterlimit:10;}
	.st2{fill:none;stroke:#706E63;stroke-width:2;stroke-miterlimit:10;}
	.st3{fill:#E30613;stroke:#6F6E63;stroke-miterlimit:10;}
	.st4{fill:#282721;stroke:#6F6E63;stroke-miterlimit:10;}
	.st5{fill:#EDE1D9;stroke:#6F6E63;stroke-width:0.25;stroke-miterlimit:10;}
	.st6{fill:#E30613;stroke:#6F6E63;stroke-width:0.25;stroke-miterlimit:10;}
	.st7{fill:#EDE1D9;}
	.st8{fill:#282721;}
</style>
<g>
	<path class="st0" d="M105.3,9.4H2.8v179.7c8.1,49.4,75,54.8,86.8,56.5s15.7,3.4,15.7,3.4s4-1.7,15.7-3.4s78.6-7,86.8-56.5V9.4
		H105.3z"/>
	<path class="st1" d="M105.3,9.4H2.8v179.7c8.1,49.4,75,54.8,86.8,56.5s15.7,3.4,15.7,3.4s4-1.7,15.7-3.4s78.6-7,86.8-56.5V9.4
		H105.3z"/>
	<path class="st2" d="M105.3,9.4H2.8v179.7c8.1,49.4,75,54.8,86.8,56.5s15.7,3.4,15.7,3.4s4-1.7,15.7-3.4s78.6-7,86.8-56.5V9.4
		H105.3z"/>
	<path class="st3" d="M165,140.4c0,0,5.9-0.1,8.1,6.1l2-1c0,0,1.1,2.1,3.1,1c0,0,3-1.8,4-1s1-0.4,3.9-0.5s4.8-0.3,5.6-1.8
		s2.1,1.8,3.9,0s1,2.5,3.3,2.6s0.8,3.1,0.8,3.1s3.6-1.6,1.1-5.8c0,0-0.5-4.5-2.4-2.9s-1.8-2.2-3.8-0.4c-2,1.9-0.3-2-3.3-0.5
		c0,0-1.5-2-0.1-2.8s3.5-0.6,3.8-2.1s2.4,0.5,4.3-1.5s2.8-0.3,2.8-0.3s0.6-3.9-3.3-1.6s-3-3.8-4.9-0.1c-1.9,3.6-3.4-3.3-4.8,3.3
		c0,0-2.9,1.9-1.9,3.4c0,0-2.8,0-1.7-2.3s-0.9-4.3,0.7-5.6s4-2.7,4-2.7s-2.4-2.4-4.1,0c-1.8,2.4-3.5,1-3.3,4.8s1.8,7.1-0.5,7.3
		s-1.9,0.9-1.8,2.4s-3.3-0.8-6.3,0.5c-2.9,1.3-4-7.8-12.5-6.4L165,140.4z"/>
	<path class="st3" d="M143,168.1c0,0-4.6,3.1-4,6.9c0,0-3.3,2.4-0.9,4.6c0,0-0.5,1.8,2,3.5c0,0-0.5,3.3,1.2,4.4c0,0-2.2,1.5-1.2,3.7
		c0,0-5.6-0.6-4.2,0.9s2,3.2,4.4,2.3s3.6-0.3,4.9-2.3s1.9-1.4,2.3-3.9c0.4-2.5,2.4-2.3,0.5-5.9l1-12L143,168.1z"/>
	<path class="st1" d="M140.1,191.3c0,0,1.2,0,2.9,0.8"/>
	<path class="st3" d="M112.8,155.9c0,0-5.6-0.3-7.3,3.1c0,0-4-0.1-3.5,3.2c0,0-1.4,1.1-0.5,4c0,0-2.4,2.3-1.7,4.2
		c0,0-2.6-0.1-3.2,2.3c0,0-4.1-3.9-4-1.8c0.2,2.1-0.3,3.8,2.1,4.5s3,2,5.3,1.1c2.2-0.9,2.4,0,4.2-1.8c1.9-1.7,3.2-0.4,3.9-4.4l8-9
		L112.8,155.9z"/>
	<path class="st1" d="M96.7,172.7c0,0,0.9,0.7,1.9,2.3"/>
	<path class="st3" d="M124,142.6c0,0-0.9,5.9-9,10.4s-9.4,17-7.8,22.3s2.2,6.8-1.2,8.9s-17.6,10.5-21.4,6.4s-9.1-7.4-10.8-1.3
		c0,0-8.5,3.8-1.5,9.4c0,0-2,5.3,5.1,6.8c0,0,4.6,7.3,9.8,2.3c5.2-5-0.2-6.9,8.2-8.5s26.3-7.2,27.1-10.9c0.9-3.7,2.1-9.5,4.1-11.3
		s5.4-7.9,5.9-13.6s12.6-12.5,12.6-12.5L124,142.6z"/>
	<path class="st4" d="M67.1,193.7c0,0,2.7-0.5,3.8,0.4s3.1-2.6,0.8-3.1C69.5,190.5,67.1,193.7,67.1,193.7z"/>
	<path class="st4" d="M71.2,205.8c0,0,2-1.9,3.4-1.8c1.4,0.1,1.1-3.8-1-3S71.2,205.8,71.2,205.8z"/>
	<path class="st4" d="M80.7,212.5c0,0,0.6-2.7,1.9-3.4s-1.2-3.8-2.5-2C78.7,209,80.7,212.5,80.7,212.5z"/>
	<path class="st4" d="M71.5,187c0,0,2.7,0.1,3.7,1.2c0.9,1.1,3.6-1.8,1.5-2.8S71.5,187,71.5,187z"/>
	<path class="st1" d="M77.4,205.5c0,0,0-3.5,3.9-5.3"/>
	<path class="st1" d="M72.3,198.7c0,0,1.9-1.7,6.2-1.3"/>
	<path class="st1" d="M73.8,189.3c0,0,2.1,0.6,4.6,3.3"/>
	<path class="st1" d="M143,149.9c0,0-5.4,2.8-8,6"/>
	<path class="st1" d="M141.6,148.3c0,0-3.2,1.9-5.1,3.8"/>
	<path class="st1" d="M139.7,147.1c0,0-2.7,1.8-3.2,2.8"/>
	<path class="st1" d="M129.6,164.8c0,0-0.2,6.5-4.2,9.6"/>
	<path class="st1" d="M121.6,185.2c0,0-0.3,4-4,4.7"/>
	<path class="st1" d="M119.6,185.2c0,0,0,2-2.6,2.4"/>
	<path class="st3" d="M97.8,110.3l-26.8,18c0,0,12.8,17.8,43.5,16.5s28,10.5,28,15.5s-6,23.8,20.7,32.2c0,0,5.5,0.8,2,6.8
		s-7.3,14.7-13.8,14.7c0,0-7.2-4.2-10.7,0s0.7,4.5,0.7,4.5s-2.3,2-1.8,5.2s5.8,3.5,5.8,3.5s0.8,3.3,3.5,3.3s4.8-1,4.8-1
		s1.7,1.3,4.7,1s4.5-3.3,3-8s3.8-3,5-6.7s13.7-15.8,13.7-23.3s-16-13.3-15.3-26s12-25.3-9.3-35.3S112.9,119.9,97.8,110.3z"/>
	<path class="st4" d="M137.2,225.6c0,0,2-1.9,3.4-1.8s1.2-3.8-1-3C137.6,221.6,137.2,225.6,137.2,225.6z"/>
	<path class="st4" d="M147.3,233.4c0,0,0.6-2.7,1.9-3.4c1.3-0.7-1.2-3.8-2.5-2C145.4,229.9,147.3,233.4,147.3,233.4z"/>
	<path class="st4" d="M158.9,233.8c0,0-1-2.6-0.3-3.8s-3.1-2.6-3.2-0.3C155.4,232,158.9,233.8,158.9,233.8z"/>
	<path class="st4" d="M137.2,217.6c0,0,2.4-1.4,3.7-1s2-3.5-0.3-3.2C138.4,213.7,137.2,217.6,137.2,217.6z"/>
	<path class="st1" d="M153.6,229.4c0,0-0.9-1.9,0-6.5"/>
	<path class="st1" d="M145.3,227.1c0,0-0.2-2.7,4.3-5.5"/>
	<path class="st1" d="M141.3,218.4c0,0,1.9-1.1,7.6-0.5"/>
	<path class="st1" d="M175.1,188.3c0,0,4.1,2.9,1.5,7.9"/>
	<path class="st1" d="M160.7,138.3c0,0,4.9,3.3,4.3,10"/>
	<path class="st1" d="M160.7,140.9c0,0,2.7,2.4,2.2,6.3"/>
	<path class="st1" d="M101.6,128.4c0,0,9.9,5.6,22.1,5.4"/>
	<path class="st1" d="M125.4,133.8c0,0,1.5,0.2,3.9-0.6"/>
	<path class="st3" d="M60.4,128.4l8,5.4c0,0-14.8,19.2-29.7,24.3c0,0,2.6,1.3,2.8,3c0,0,3.9,1.1,4.3,2.7c0,0,4.2,2.6,2.3,4.8
		s-4.2,0.3-5.3-1.5c0,0-3.3-0.5-3.7-2.6c0,0-3.8-0.6-3.9-3.3c0,0-4.3-0.1-6-0.8c0,0-3.2,2.6-6.3,0.6c0,0-2.7,1.4-5,0.1
		c0,0-4.2,0.5-4.2-2s2.8-3.7,4.5-2.7c0,0,1.5-1.1,4.3,0.8c0,0,1.6-1.3,0.3-2.1s-3.1,0.8-3.3-1.9c0,0-3.7,0.1-4.3-2.2s2-5.3,6.1-1.2
		c0,0,2.4,1.3,3.3,2.8l2.5,0.6l-1.4-2.3c0,0-2.3-0.8-2.3-2.7c0,0-4.3-3.4-1-5.5s4.3,3.1,4.3,3.1s2.3,1.3,2.4,3.6
		c0,0,2.3,0.4,3.7,2.8c1.4,2.3,5.1,0.2,6.3-1.5C40.6,149,60.4,128.4,60.4,128.4z"/>
	<path class="st4" d="M12,162.6c0,0,1.7-2.2,3.1-2.3s0.6-4-1.4-2.8S12,162.6,12,162.6z"/>
	<path class="st4" d="M45.2,172.8c0,0,0.6-2.7-0.2-3.9s2.7-2.9,3.1-0.6C48.5,170.5,45.2,172.8,45.2,172.8z"/>
	<path class="st4" d="M12.2,151.6c0,0,2.5-1.1,3.8-0.5s2.4-3.2,0.1-3.2C13.9,148,12.2,151.6,12.2,151.6z"/>
	<path class="st4" d="M18.3,143.9c0,0,2.7,0,3.7,1c1,1.1,3.4-2,1.3-2.9S18.3,143.9,18.3,143.9z"/>
	<path class="st1" d="M63.7,135.3c0,0-5.9,7.3-10.3,9.9"/>
	<path class="st1" d="M52,145.9c0,0-1.6,1-2.3,1.5"/>
	<path class="st1" d="M38.8,158.1c0,0-2.9,0.2-4.8-0.4"/>
	<path class="st3" d="M57.4,90.2l-6.5,7.1c0,0-16.7-17.5-19.7-32.9c0,0-1.6,2.4-3.4,2.4c0,0-1.7,3.7-3.3,3.8c0,0-3.2,3.7-5,1.5
		c-1.9-2.2,0.4-4.2,2.3-5c0,0,1-3.2,3.1-3.2c0,0,1.1-3.7,3.8-3.4c0,0,0.7-4.2,1.6-5.8c0,0-2.1-3.5,0.3-6.3c0,0-1-2.8,0.7-5
		c0,0,0.1-4.2,2.6-3.8s3.2,3.3,2,4.8c0,0,0.8,1.6-1.4,4.2c0,0,1.1,1.8,2,0.6s-0.3-3.2,2.4-2.9c0,0,0.5-3.6,2.8-3.9
		c2.3-0.2,4.9,2.8,0.3,6.2c0,0-1.6,2.2-3.2,2.8l-0.9,2.4l2.4-1.1c0,0,1.2-2.2,3-1.8c0,0,4-3.8,5.6-0.2s-3.7,3.8-3.7,3.8
		s-1.7,2-3.9,1.9c0,0-0.7,2.2-3.3,3.2c-2.5,1.1-0.9,5,0.5,6.5C39.9,67.5,57.4,90.2,57.4,90.2z"/>
	<path class="st4" d="M30.7,37.2c0,0,1.9,2,1.8,3.4c-0.1,1.4,3.8,1.1,3-1C34.7,37.5,30.7,37.2,30.7,37.2z"/>
	<path class="st4" d="M15.7,68.6c0,0,2.5,1,3.8,0.4s2.5,3.1,0.2,3.2S15.7,68.6,15.7,68.6z"/>
	<path class="st4" d="M41.5,39.1c0,0,0.7,2.6-0.1,3.9c-0.8,1.2,2.8,2.8,3.1,0.6C44.9,41.2,41.5,39.1,41.5,39.1z"/>
	<path class="st4" d="M48.3,46.3c0,0-0.4,2.7-1.6,3.5c-1.2,0.8,1.5,3.7,2.7,1.7S48.3,46.3,48.3,46.3z"/>
	<path class="st1" d="M50.1,92.4c0,0-6.3-6.9-8.3-11.6"/>
	<path class="st1" d="M41.3,79.3c0,0-0.7-1.8-1.1-2.4"/>
	<path class="st1" d="M31.2,64.4c0,0,0.3-2.9,1.1-4.6"/>
	<path class="st5" d="M145.6,51.7c0,0,15.8-4.2,21.6-7.5c0,0-3.2,3.5-23.9,9.5l0.7-2H145.6z"/>
	<path class="st5" d="M146.6,59.5c0,0,16-3.3,22-6.3c0,0-3.4,3.3-24.4,8.1l0.8-1.9L146.6,59.5z"/>
	<path class="st5" d="M149.7,67.6c0,0,16-3.3,22-6.2c0,0-3.4,3.3-24.4,8.1l0.8-1.9H149.7z"/>
	<path class="st5" d="M145,77.6c0,0,16.3-1.3,22.6-3.5c0,0-3.8,2.9-25.2,5l1-1.8L145,77.6z"/>
	<path class="st5" d="M138.3,89c0,0,16.4,0.3,22.9-1.3c0,0-4,2.5-25.6,2.6l1.2-1.7L138.3,89z"/>
	<path class="st5" d="M132.4,98.3c0,0,16.2,2.1,22.9,1.2c0,0-4.3,2-25.7-0.2l1.4-1.6L132.4,98.3z"/>
	<path class="st5" d="M120.6,107.4c0,0,15.9,3.9,22.6,3.8c0,0-4.5,1.5-25.5-3.2l1.6-1.4L120.6,107.4z"/>
	<path class="st3" d="M145.1,46.2c0,0,19.8-5.2,32.5-18c0,0,1.5-1.6,1.7-2.5s2.3-1.9,3.3,0s0.6,6-3.4,9s-10.5,7.3-32.3,15.1
		l-8.7,3.6V49L145.1,46.2z"/>
	<path class="st1" d="M138.2,51.1c0,0,24.1-9.3,28.4-11.6"/>
	<path class="st3" d="M144.7,54.5c0,0,20.1-3.6,33.8-15.5c0,0,1.6-1.5,1.9-2.4c0.3-0.9,2.4-1.7,3.3,0.3c0.9,1.9,0.2,6-4,8.7
		s-11,6.4-33.4,12.6l-9,3l0.3-4.4L144.7,54.5z"/>
	<path class="st1" d="M137.5,58.9c0,0,24.8-7.4,29.2-9.4"/>
	<path class="st3" d="M143.2,61.5c0,0,20.4-1.2,35.4-11.3c0,0,1.8-1.3,2.1-2.1c0.4-0.8,2.6-1.4,3.2,0.7c0.6,2-0.6,6-5.1,8.2
		s-11.7,5-34.7,8.5l-9.2,1.8l0.9-4.3L143.2,61.5z"/>
	<path class="st1" d="M135.5,65c0,0,25.5-4.3,30.1-5.8"/>
	<path class="st3" d="M138.4,70.6c0,0,20.4,1.2,36.5-7.1c0,0,1.9-1.1,2.4-1.9c0.4-0.8,2.8-1.1,3.1,1c0.4,2.1-1.3,5.9-6,7.5
		s-12.2,3.6-35.4,4.4l-9.4,0.8l1.4-4.2L138.4,70.6z"/>
	<path class="st1" d="M130.3,73.1c0,0,25.8-1.3,30.6-2.2"/>
	<path class="st3" d="M132.1,81.1c0,0,20.2,3.1,37-3.6c0,0,2-0.9,2.5-1.6s2.9-0.8,3,1.3c0.2,2.1-1.8,5.8-6.7,6.9
		c-4.9,1.2-12.5,2.5-35.7,1l-9.4-0.1l1.7-4L132.1,81.1z"/>
	<path class="st1" d="M123.8,82.9c0,0,25.8,1.1,30.7,0.7"/>
	<path class="st3" d="M130.4,91.2c0,0,18.3,3.7,34.6-2.3c0,0,2-0.8,2.5-1.5c0.6-0.7,2.7-0.7,2.7,1.4c-0.1,2.1-2.3,5.6-6.9,6.6
		s-11.8,2-33.1-0.2l-8.7-0.4l2-3.9L130.4,91.2z"/>
	<path class="st1" d="M122.5,92.7c0,0,23.8,1.9,28.3,1.7"/>
	<path class="st3" d="M125.5,103.4c0,0,14.1,3.9,28.8-1.3c0,0,1.8-0.7,2.4-1.3c0.6-0.6,2.4-0.6,1.8,1.4c-0.6,1.9-3.2,5.1-7.2,5.9
		s-10.1,1.6-26.9-1l-7-0.6l2.6-3.5L125.5,103.4z"/>
	<path class="st1" d="M118.8,104.6c0,0,18.9,2.4,22.7,2.2"/>
	<path class="st3" d="M121.4,109.5c0,0,10.2,5.4,22.8,3.9c0,0,1.6-0.2,2.2-0.6s2,0,1.2,1.4s-3.5,3.5-6.8,3.4s-8.3-0.5-20.9-5.3
		l-5.4-1.7l2.7-2.3L121.4,109.5z"/>
	<path class="st1" d="M115.8,109.3c0,0,14.4,5.1,17.3,5.6"/>
	<path class="st3" d="M128.8,53.4c0,0,15.2-11.6,18.5-9.7c3.3,1.9-16.7,15-16.7,15L128.8,53.4z"/>
	<line class="st1" x1="129.7" y1="56.1" x2="142.6" y2="46.8"/>
	<path class="st3" d="M129.5,58.4c0,0,15.2-11.6,18.5-9.7c3.3,1.9-16.7,15-16.7,15L129.5,58.4z"/>
	<line class="st1" x1="130.4" y1="61" x2="143.4" y2="51.7"/>
	<path class="st3" d="M128.3,65.2c0,0,18.5-13.2,22.5-11s-20.3,17-20.3,17L128.3,65.2z"/>
	<line class="st1" x1="129.4" y1="68.2" x2="145.1" y2="57.6"/>
	<path class="st3" d="M130.1,71.1c0,0,18.5-13.2,22.5-11s-20.3,17-20.3,17L130.1,71.1z"/>
	<line class="st1" x1="131.2" y1="74.1" x2="146.9" y2="63.6"/>
	<path class="st3" d="M129.6,78.5c0,0,18.5-13.2,22.5-11s-20.3,17-20.3,17L129.6,78.5z"/>
	<line class="st1" x1="130.7" y1="81.5" x2="146.4" y2="70.9"/>
	<path class="st3" d="M127,85.9c0,0,18.9-12.5,22.9-10.2C153.8,78,129,92,129,92L127,85.9z"/>
	<line class="st1" x1="128" y1="89" x2="144.1" y2="79"/>
	<path class="st3" d="M125.6,92.9c0,0,18.9-12.5,22.9-10.2C152.4,85,127.6,99,127.6,99L125.6,92.9z"/>
	<line class="st1" x1="126.6" y1="96" x2="142.7" y2="86"/>
	<path class="st3" d="M124.3,99c0,0,19.6-11.5,23.4-9S126,105.2,126,105.2L124.3,99z"/>
	<line class="st1" x1="125.1" y1="102.1" x2="141.7" y2="92.9"/>
	<path class="st3" d="M122.2,104.7c0,0,17.3-8.1,20.2-5.6c2.8,2.6-19.5,11.1-19.5,11.1L122.2,104.7z"/>
	<line class="st1" x1="122.5" y1="107.5" x2="137.2" y2="101.1"/>
	<path class="st3" d="M123.4,107.1c0,0,14.1-3.9,15.4-1.4s-16.3,5.9-16.3,5.9L123.4,107.1z"/>
	<line class="st1" x1="123" y1="109.3" x2="134.7" y2="106.5"/>
	<path class="st3" d="M119.3,109.1c0,0,14.6,0.9,15,3.7c0.4,2.8-17.4,0.3-17.4,0.3L119.3,109.1z"/>
	<line class="st1" x1="118.1" y1="111.1" x2="130.1" y2="112.2"/>
	<path class="st3" d="M105.4,106.1c0,0,8.7,0.5,11.7-2.2s-0.2-11.8,1.8-17.5s5.9-9.3,4.8-16.1s1.5-14.9,3.7-16.4
		c2.2-1.5,7.3-11.2,7.6-6.7s-3.7,8.7-2,13.2s-0.7,10.7-0.7,10.7s3,1,2,5c0,0,2.4,2.2,0.7,6.3c0,0,2.7,2.5,0,6.7c0,0,2.5,3.5-2,7.2
		c0,0,1.8,5-3.6,6.7c0,0,3.5,3.3-2,5.3c0,0,2,4.2-3.7,5.3c0,0,2.2,5-9.6,0C114.1,113.6,102.4,111.9,105.4,106.1z"/>
	<path class="st1" d="M123,84c0,0-2.7,4.8-1.5,9.6"/>
	<path class="st1" d="M128.8,56.1c0,0-2.4,0.3-2.2,5.1"/>
	<path class="st1" d="M104.9,107.9c0,0,10.2,2,13.8-2.8"/>
	<path class="st3" d="M113.2,114.2c0,0,7.7,7.1,0,7c0,0-4.2,6.7-12.9,1.7c0,0,3.2,9.8-1.8,8.1c0,0-2,7.4-9.5,2.2
		c0,0-9.7,12.8-15.4,4.2c0,0-11.4,8-9.9,0.5c0,0-7.3,0.3-4.1-6.9c0,0-9.1,7.6-6.1-2.7c0,0-7.8,0.7-1.5-5.3c0,0-9.2,1.1-2.5-7.3
		c0,0-11.2,0.4-3.6-5.6c0,0-6.6-4,0.6-7.5c0,0-9.3-1.6-7.1-6.8c2.2-5.2,8,4.3,13.3-3.3l21,2.4l29.8,13.7L113.2,114.2z"/>
	<path class="st3" d="M107.3,98.7c0,0,1.5,12.2,9.6,17.2c0,0-3.3,1.2-8.7,0.6c0,0-1.4,3-6,3.1c0,0-6,2.5-8.5,0c0,0-3.8,3.5-6.4,0.4
		c0,0-5.3,2.6-5.9-2.4c0,0-7.1,4.1-7.6-1.7c0,0-6,6.1-5.4-1c0,0-6.2,3.2-3.7-2.8c0,0-8.4,3.6-5.4-2.1c0,0-4.6,0.8-3.1-2.4
		c0,0-4.1,0.5-1.5-3.2c0,0-7.4,0.6-3.9-3.3c0,0-9.8-0.5-1.1-5.5c0,0-10.1-2-1.4-6.3c0,0-15.4-10.4-2.4-6.9c0,0-4.9-8.1,4.1-3.1
		l5.5,5L76.3,84l28.2,10.8L107.3,98.7z"/>
	<path class="st1" d="M108.2,116.4c0,0-3.5-3.7-3.8-11.9"/>
	<path class="st1" d="M93.7,119.5c0,0,0.3-8.1,1.8-13.8"/>
	<path class="st1" d="M87.4,119.9c0,0,0.7-7.2,2.5-11.6"/>
	<path class="st1" d="M81.5,117.5c0,0,1.3-6.4,4-10"/>
	<path class="st1" d="M73.9,115.8c0,0,0.9-6.4,5-9.6"/>
	<path class="st1" d="M68.4,114.8c0,0,1.4-7.3,4.7-10.4"/>
	<path class="st1" d="M64.7,112.1c0,0,2.4-2.2,3.3-4.6"/>
	<path class="st1" d="M59.4,109.9c0,0,3-3.7,6.1-3.2"/>
	<path class="st1" d="M56.2,107.5c0,0,0.4-1.6,4.1-2.3"/>
	<path class="st1" d="M50.9,101c0,0,2,0.2,5.4-1.6"/>
	<path class="st1" d="M54.7,104.3c0,0,1.8-1.9,4.6-1.9"/>
	<path class="st1" d="M49.7,95.5c0,0,3,0.3,6.5-1.1"/>
	<line class="st1" x1="46" y1="82.3" x2="50.9" y2="85.8"/>
	<path class="st1" d="M48.4,89.3c0,0,0.9,0.8,4.6,1"/>
	<path class="st3" d="M107.2,77.1c0,0,1.9,19.3,4.7,23.3c0,0-4.4,2-7.4-1.8c0,0-3.8,3.9-6.3,0.3c0,0-5.3,2.3-6.8-2.5
		c0,0-6.3,4.6-9.1-0.5c0,0-6.5,3.1-7.3-2.8c0,0-4.1,3.6-5.1-1.3c0,0-14,9.4-3-4.8c0,0-24.2,5.2-14.8-3.7c0,0-5.7-3.6-4.6-7.8
		c0,0,5,10.9,20-5.3l13.6-6.1l19.1-0.4l4.7,8.3L107.2,77.1z"/>
	<path class="st1" d="M104.4,98.7c0,0-1.1-8.4-1.2-15.7"/>
	<path class="st1" d="M98.1,99c0,0,0.5-8.5,1.3-12"/>
	<path class="st1" d="M91.4,96.5c0,0,0.8-5.5,2.7-9.5"/>
	<path class="st1" d="M82.3,95.9c0,0,0.5-4.7,3.2-8.3"/>
	<path class="st1" d="M74.9,93.2c0,0,0.3-3.8,3.3-8.1"/>
	<path class="st1" d="M69.9,91.8c0,0,0.6-4,3.3-7.6"/>
	<path class="st1" d="M66.9,87c0,0,1.1-0.1,3-1.2"/>
	<path class="st1" d="M52,83.3c0,0,0.7,0.7,3.6,1"/>
	<path class="st1" d="M76.6,71.6c0,0-7.8,8.8-13.5,10.8"/>
	<path class="st1" d="M82.3,77.5c0,0-1.9,2.9-2.7,4.8"/>
	<line class="st1" x1="102.8" y1="75.1" x2="102.8" y2="78.2"/>
	<path class="st3" d="M94.1,30.8c0,0,2.3,1.4,2.6,6.9l3.6,2.7C100.2,40.4,102,27.3,94.1,30.8z"/>
	<path class="st1" d="M97.9,34.2c0,0,1.2,2.2,0.3,4"/>
	<path class="st6" d="M83.9,46.4c0,0-9.8-1.6-13.1,2.1s-3.6,8.3-8.4,7.8s-4.2-4.2-3.2-5.1s2.2-0.1,3.2,2.2s3.3,0.1,3.8-0.9
		s2.3-4.8,5.4-5.9s8.8-1.3,12.5-0.4L83.9,46.4z"/>
	<path class="st3" d="M104.8,44.8c0,0,1.8,6.8,0.7,15.5c-1.2,8.7,2.7,11.7,2.7,11.7s5.7,1.5,5,5.7s-10,1-11.7-5.3c0,0-3,5.3-5.3,1.2
		c0,0,2,13-5.7,8.2c0,0-1,5-4.2,3.7s-3.3-5-1.8-7.7c0,0-5.2,1-5-4.7c0,0-3.3,0.7-3.2-3.5c0,0-3.8,1.8-5.7,1.8c-1.8,0-4,2-4,2
		l-1.7-3.8c0,0,9.3-3.5,10.7-5.7c1.3-2.2,4-10.7-4.7-12.2c0,0,1-4.2,5.3-4.3c4.3-0.2,7.3,3,8,6.7s4.5,0.3,2-3s-3.2-4.7-6-6.2
		s-7.2,1-11,0s-1.2,5-5.3,5c-4.2,0,0.3-15,11.5-13.5c0,0,2-1.9,4.8-0.1c0,0,2.5-3.3,6-0.8c0,0,7.3-5.1,15.3,5.2c0,0,3.2-2.3,1.5-8.7
		C103.1,31.9,112.4,34.8,104.8,44.8z"/>
	<g>
		<ellipse transform="matrix(0.6098 -0.7926 0.7926 0.6098 3.0492 88.7747)" class="st7" cx="91.7" cy="41.3" rx="1.8" ry="3"/>
		<path class="st8" d="M92.5,39.7c-1.2-0.8-2.6-0.9-3.1-0.2s-0.1,2,1,3L92.5,39.7z"/>
		<ellipse transform="matrix(0.6098 -0.7926 0.7926 0.6098 3.0492 88.7747)" class="st1" cx="91.7" cy="41.3" rx="1.8" ry="3"/>
		<circle class="st7" cx="91.3" cy="40.4" r="0.3"/>
	</g>
	<path class="st1" d="M101.4,72.3c0,0,0.1-3,0.6-5"/>
	<path class="st1" d="M96.1,73.4c0,0-1.3-2.9-1.3-6.2"/>
	<path class="st1" d="M90.4,81.6c0,0-1-3.1-0.3-6.8"/>
	<path class="st1" d="M84.4,77.6c0,0,1.6-1.6,2.9-2.5"/>
	<path class="st1" d="M76.3,69.4c0,0,2.3-1,4-2.5"/>
	<path class="st1" d="M79.4,72.9c0,0,1.7-0.7,3.3-4.3"/>
	<path class="st1" d="M63.9,49.8c0,0,0-6.3,5.3-7.8s14-1.2,18.2,7.3c4.2,8.5-2.3,8.9-3.7,7.6c-1.3-1.3-6-13.2-12.8-5.3"/>
	<path class="st1" d="M103.3,53.9c0,0,0.8,3.8,0,6.5"/>
	<path class="st1" d="M101.7,55.3c0,0,0.4,2.1-0.3,3.4"/>
	<path class="st1" d="M105.4,33.1c0,0,0.4,3.9-2.2,5"/>
	<path class="st1" d="M90.4,53.9c0,0,0.7,2.6-1.3,3.6"/>
	<path class="st1" d="M95.5,43.5c0,0-2-5.6-7.1-4.8"/>
	<path class="st1" d="M98.5,131.1c0,0-2.5-1.9-3-7.4"/>
	<path class="st1" d="M89,133.3c0,0-1.9-3.3-1.7-9.1"/>
	<path class="st1" d="M73.6,137.4c0,0,2.3-1.5,3-9"/>
	<path class="st1" d="M63.7,137.9c0,0,2.9-0.3,4.3-7.3"/>
	<path class="st1" d="M59.6,131.1c0,0,0.8-1.3,3.5-3.7"/>
	<path class="st1" d="M53.5,128.4c0,0,0.3-1.6,2.8-4.3"/>
	<path class="st1" d="M52,123.1c0,0,4.1-2.5,6.3-1.9"/>
	<path class="st1" d="M49.5,115.8c0,0,1.2-1.6,6.1,0"/>
	<path class="st1" d="M46,110.3c0,0,1.9,1.2,5.4,0.8"/>
	<line class="st1" x1="46.5" y1="102.8" x2="49.9" y2="102.8"/>
</g>
</svg>
