<?xml version="1.0" encoding="UTF-8"?>
<svg width="400" height="400" version="1.1" xmlns="http://www.w3.org/2000/svg">
 <path d="m198.32 56.8c-77.968 0-141.15 63.417-141.15 141.64 0 71.159 52.326 130.05 120.47 140.11 1.4076 0.3063 2.7258 0.4857 3.895 0.4782 6.956-0.068 10.158-5.6939 10.158-10.484v-69.343l-0.067-0.1942-59.975-60.189 67.482-67.707 67.497 67.707-59.915 60.115 0.28301-0.239v69.365c0 7.562 4.4983 12.187 10.896 10.686 68.234-9.983 121.57-69.096 121.57-140.3 0-78.22-63.207-141.64-141.15-141.64m30.162 256.98v-0.09l-0.0522-44.595-0.38727-0.1645 69.359-69.575-98.948-99.277-98.955 99.277 70.781 71.024-0.0596 43.235c-51.604-13.144-89.81-60.055-89.81-115.93 0-66.078 53.391-119.65 119.26-119.65 65.881 0 119.26 53.576 119.26 119.65 0 58.202-39.546 103.42-90.45 116.1"/>
 <path d="m365.45 134.61c-0.38728 0.15692-0.75965 0.22417-1.1544 0.21669-0.40217-7e-3 -0.7671-0.0822-1.1171-0.23163-0.35004-0.14198-0.67028-0.35867-0.93839-0.62768-0.29045-0.27647-0.51388-0.60525-0.66283-0.97887-0.1564-0.38109-0.22343-0.76217-0.21598-1.1582 0-0.39603 0.0819-0.76217 0.23087-1.1134 0.14896-0.3512 0.35004-0.67251 0.62559-0.95646 0.28302-0.27647 0.59581-0.50064 0.97563-0.65756 0.37238-0.14945 0.75965-0.22416 1.1544-0.21669 0.40217 7e-3 0.75965 0.0822 1.1171 0.23164 0.35003 0.14944 0.65538 0.35867 0.93839 0.63514 0.28301 0.269 0.49899 0.59779 0.65538 0.97887 0.16385 0.37362 0.23087 0.76218 0.21598 1.1582 0 0.38856-0.0745 0.76218-0.22343 1.1134-0.14894 0.35119-0.35003 0.66503-0.63304 0.94897-0.27556 0.28396-0.5958 0.50065-0.96817 0.65757m2.4063 25.819c-1.3257 0.39605-2.6662 0.81451-3.9993 1.2553-0.0448-0.36605-0.11172-0.76216-0.18619-1.188-0.0819-0.42592-0.18619-0.89666-0.32024-1.4198-0.13406-0.52303-0.28301-0.98637-0.42452-1.3974-0.13405-0.41092-0.2681-0.7845-0.40216-1.1283 1.3704-0.27648 2.7332-0.5679 4.0812-0.88173 1.3554-0.30636 2.8971-0.69494 4.6249-1.1507l4.2302-1.1209c1.1916-0.31383 2.3385-0.62019 3.4333-0.91908 1.1022-0.29889 2.0555-0.5679 2.8598-0.80697-0.30535-1.1882-0.66284-2.3688-1.0352-3.5419-0.37238-1.1731-0.78199-2.3463-1.2512-3.5194 0.23832-0.0149 0.45429-0.0373 0.64793-0.0673 0.19364-0.0299 0.4543-0.0897 0.78199-0.17933 0.34259-0.0822 0.5958-0.16439 0.77455-0.23164 0.18619-0.0673 0.32769-0.14197 0.44685-0.2167 0.13405 0.56789 0.29045 1.2628 0.49898 2.0922 0.20109 0.82943 0.49899 1.9577 0.87136 3.3999 0.34258 1.2703 0.6107 2.309 0.81923 3.0935 0.20108 0.7771 0.36492 1.3974 0.48409 1.8681 0.12661 0.47074 0.21597 0.82198 0.2979 1.061 0.067 0.23167 0.13406 0.4334 0.20108 0.59778-1.3033 0.25408-2.6439 0.53803-3.9919 0.85186-1.3554 0.31382-2.8822 0.69494-4.6249 1.1507l-4.2302 1.1208c-1.7278 0.4558-3.262 0.88179-4.5877 1.2778m18.584-0.15397c0.0372 0.51562 0.0894 1.0013 0.15641 1.4646 0.067 0.46321 0.1415 0.91161 0.20853 1.3599 0.067 0.4484 0.13406 0.89673 0.20108 1.36 0.067 0.46327 0.16385 0.91161 0.27555 1.3525-0.99051 0.49315-1.9959 1.0088-3.0311 1.5393-1.0352 0.53062-2.0555 1.076-3.0758 1.6514 0.0745 0.67994 0.1713 1.3674 0.26067 2.0549 0.0894 0.67993 0.19363 1.3674 0.29045 2.0474 0.0819 0.55296 0.17129 1.1059 0.27556 1.6589 0.0894 0.56037 0.19364 1.1133 0.2979 1.6588 1.1469 0.26147 2.2938 0.49314 3.4259 0.68747 1.1469 0.20173 2.2566 0.36604 3.3365 0.50808 0 0.26148 0.0223 0.51556 0.0596 0.76217 0.0297 0.24654 0.0745 0.49314 0.11171 0.75475 0.0372 0.25401 0.0819 0.50809 0.11171 0.76217 0.0446 0.25401 0.10427 0.53049 0.19364 0.82184-0.58836-0.17185-1.4076-0.39598-2.4502-0.6724-1.0426-0.27655-2.2268-0.57537-3.5301-0.9042-1.3033-0.3213-2.7184-0.67254-4.2228-1.0386-1.497-0.37364-3.0237-0.73975-4.5504-1.1059-1.5342-0.36618-3.046-0.72482-4.543-1.0761-1.4895-0.35124-2.8748-0.67253-4.1557-0.95642 7e-3 -0.21666 0.0223-0.42599 0.0223-0.62018 0-0.2018-0.0149-0.40352-0.0446-0.62026-0.0372-0.20919-0.0819-0.41092-0.14151-0.59771-0.067-0.18685-0.13406-0.38858-0.20108-0.59037 1.7055-0.95643 3.5227-1.9876 5.4739-3.0786 1.9438-1.0909 3.8504-2.1894 5.7197-3.2803 1.8619-1.091 3.6344-2.1446 5.3026-3.1683 1.6831-1.0162 3.0907-1.9278 4.2228-2.7349m-14.202 13.757c1.3629 0.35864 2.7035 0.68748 4.0217 0.98636 1.3108 0.30636 2.6662 0.59032 4.0291 0.85933l-0.88626-5.8584c-1.2288 0.67253-2.4279 1.3301-3.5972 1.9727-1.1842 0.65013-2.3609 1.3301-3.5674 2.0399m-0.23761 17.373c-1.3852 0.1271-2.7705 0.27648-4.1557 0.44087 0.0223-0.36618 0.0372-0.76957 0.0446-1.203 0-0.4334-7e-3 -0.91161-0.0446-1.4496-0.0298-0.54543-0.0819-1.0237-0.13406-1.457-0.0596-0.426-0.11171-0.82198-0.18619-1.1882 1.4076 8e-3 2.7928-0.0151 4.193-0.0524 1.3852-0.0373 2.9641-0.1121 4.7441-0.21667l4.3792-0.26148c1.7874-0.11216 3.3663-0.22426 4.7515-0.35123 1.3778-0.12704 2.7332-0.26902 4.0589-0.44087-0.0223 0.37358-0.0223 0.76963 0.0149 1.203 0.0223 0.43339 0.0447 0.91914 0.0819 1.4571 0.0297 0.53796 0.0522 1.0237 0.0894 1.4496 0.0223 0.4334 0.067 0.82939 0.13405 1.1956-1.3406-8e-3 -2.7034 8e-3 -4.0887 0.0452-1.3852 0.0373-2.9716 0.11203-4.7515 0.21667l-4.3866 0.26154c-1.78 0.1121-3.3588 0.22413-4.7441 0.35117m4.3933 24.967c-1.78-0.075-3.3737-0.1121-4.759-0.1271-1.3852-0.015-2.7779-0.01-4.1781 0.022 0.0596-0.3662 0.10427-0.7621 0.16384-1.1881 0.0447-0.4334 0.0745-0.919 0.0968-1.4571 0.0372-0.7099 0.0372-1.5094 0.0223-2.3986-0.0223-0.8817 0-2.0325 0.0596-3.4597 0.067-1.8532 0.30535-3.5344 0.70752-5.0438 0.37983-1.502 1.0054-2.7872 1.847-3.8557 0.84157-1.0686 1.9438-1.8756 3.3067-2.4285 1.3703-0.5455 3.0758-0.78463 5.1164-0.69501 1.78 0.0676 3.3812 0.43347 4.7888 1.0836 1.4225 0.65006 2.629 1.5094 3.6046 2.5704 0.97561 1.0685 1.7129 2.2865 2.1896 3.654 0.48408 1.3675 0.69262 2.8245 0.63303 4.3488-0.067 1.6215-0.13405 2.9964-0.20107 4.1397-0.067 1.1432-0.11172 2.137-0.14896 2.9739-0.0223 0.5381-0.0447 1.0237-0.0596 1.4571-0.0223 0.426-7e-3 0.8294 0.0149 1.1956-1.3331-0.1345-2.6811-0.254-4.0663-0.3587-1.3852-0.097-2.9716-0.1793-4.759-0.254zm6.9262-4.5133 1.9438 0.082c0.61816 0.022 1.1916 0.037 1.698 0.045 0.52133 0.015 0.85647 0.022 0.99797 0.03 0.0372-0.3213 0.0819-0.7098 0.11916-1.1656 0.0447-0.4484 0.0745-1.0088 0.0968-1.6738 0.10426-2.4435-0.64794-4.4012-2.2492-5.8957-1.5938-1.487-4.0738-2.3014-7.4177-2.4359-1.3331-0.0524-2.5322 0.0747-3.6046 0.38858-1.065 0.31383-1.981 0.7771-2.7556 1.3973-0.75966 0.61272-1.3629 1.3675-1.7949 2.2566-0.4394 0.88926-0.67772 1.898-0.72241 3.0188-0.0223 0.76969-0.0372 1.4048-0.0223 1.8905 7e-3 0.48558 0.0297 0.97878 0.0521 1.4721 0.14895 0.01 0.47664 0.03 0.99797 0.06 0.51388 0.03 1.0948 0.06 1.7353 0.09l1.9364 0.075 1.6087 0.067 5.742 0.2316zm-13.34 28.026c-1.4672-0.2615-2.6886-0.4633-3.6865-0.6053-1.0129-0.1345-1.8991-0.2615-2.6588-0.381 0.21598-0.5755 0.35003-1.0388 0.41706-1.4049 0.0596-0.3587 0.0894-0.8444 0.0894-1.4571 2.9865-1.8531 5.9208-3.6838 8.803-5.4996s5.8091-3.6764 8.7955-5.5968l-2.7556-0.5006-3.0758-0.5529c-1.0501-0.1868-2.0704-0.3662-3.0684-0.5381-1.0129-0.1718-1.9438-0.3287-2.7928-0.4707-0.84157-0.142-1.5789-0.2541-2.2045-0.3288-0.6107-0.082-1.0278-0.1195-1.2437-0.1195 0.20109-0.5754 0.35004-1.0387 0.40962-1.4049 0.067-0.3586 0.0968-0.8444 0.0968-1.4571 1.9066 0.4558 3.6344 0.852 5.176 1.1957 1.5491 0.3511 3.0014 0.665 4.3717 0.9564 1.3629 0.2914 2.7258 0.5679 4.0664 0.8145 1.3405 0.254 2.7705 0.523 4.3047 0.7995l3.7982 0.6875c-0.11171 0.4184-0.21598 0.8518-0.29046 1.2927-0.0819 0.4707-0.1415 0.8891-0.16384 1.2553-5.8686 3.4522-11.812 7.1734-17.829 11.149 0.61069 0.127 1.2139 0.254 1.8246 0.3811 0.61069 0.1195 1.2363 0.2391 1.8768 0.3512l3.6716 0.665c1.2735 0.2316 2.3534 0.4259 3.2471 0.5679 0.88626 0.1569 1.6459 0.2764 2.264 0.3661 0.6256 0.09 1.1246 0.1569 1.5193 0.2092 0.39471 0.045 0.71495 0.082 0.95328 0.1047-0.0894 0.2466-0.1564 0.4932-0.20109 0.7547-0.0447 0.254-0.0968 0.4931-0.1415 0.7322-0.0745 0.4857-0.1415 0.9789-0.19364 1.4721-0.16384-0.075-0.75964-0.2316-1.78-0.4857-1.0352-0.254-2.2789-0.5454-3.7535-0.8892-1.4821-0.3512-3.0907-0.7023-4.826-1.0761-1.7353-0.366-3.411-0.6948-5.0196-0.9862m-3.9963 28.274c-1.5118-0.5081-2.8301-1.2628-3.9621-2.2716-1.1469-1.0087-2.0406-2.1893-2.7035-3.5493-0.65537-1.36-1.0203-2.862-1.1097-4.5058-0.0894-1.6439 0.17129-3.3551 0.75965-5.141 0.54367-1.6365 1.281-3.0786 2.2045-4.3414 0.91605-1.2629 1.9959-2.2641 3.2471-3.0039 1.2437-0.7472 2.6513-1.188 4.2302-1.3226 1.5789-0.1494 3.2844 0.097 5.1239 0.7099 1.5267 0.5156 2.8598 1.2852 3.9919 2.3164 1.1246 1.0238 2.0108 2.2268 2.6588 3.5867 0.64792 1.3675 0.99796 2.8545 1.0799 4.476 0.067 1.614-0.18618 3.2878-0.7522 5.0064-0.54366 1.614-1.2512 3.0637-2.1225 4.3564-0.87136 1.2852-1.9289 2.3089-3.1652 3.0636s-2.6439 1.2105-4.2376 1.36c-1.5789 0.1494-3.3216-0.097-5.2431-0.7398m5.4739-18.606c-1.3331-0.4483-2.5768-0.6799-3.7387-0.7099-1.1544-0.022-2.197 0.1271-3.128 0.4708-0.93094 0.3363-1.7278 0.8519-2.413 1.5468-0.67028 0.6875-1.1693 1.5318-1.497 2.5107-0.35003 1.0461-0.40961 2.0624-0.19363 3.0636 0.23087 0.9938 0.67028 1.9204 1.3406 2.7798 0.65538 0.8667 1.5193 1.6364 2.5768 2.3239 1.0576 0.6799 2.2343 1.2403 3.5301 1.6812 1.6384 0.5455 3.0758 0.8369 4.3121 0.8668 1.2437 0.03 2.2938-0.142 3.1801-0.5007 0.87881-0.3661 1.6012-0.8892 2.1672-1.5617 0.57346-0.6724 0.99052-1.4421 1.2735-2.3014 0.30534-0.9191 0.40961-1.8606 0.30534-2.8321-0.1117-0.9714-0.45429-1.8979-1.0426-2.7871-0.58835-0.8967-1.4299-1.7336-2.5322-2.5257-1.0873-0.792-2.4726-1.4645-4.1408-2.025m-13.273 42.537c2.063 1.2628 4.1185 2.5257 6.1889 3.7884-0.16384 0.2092-0.2979 0.4334-0.42451 0.665-0.11171 0.2242-0.22343 0.4484-0.33514 0.6576-0.11916 0.2317-0.23087 0.4558-0.34258 0.6726-0.11171 0.2241-0.21598 0.4558-0.2979 0.7098-2.9716-2.3164-5.958-4.5581-8.9519-6.7251-3.0014-2.1595-6.0772-4.3115-9.2126-6.4486 0.14895-0.1943 0.28301-0.3736 0.40961-0.538 0.12661-0.1643 0.23832-0.3587 0.34258-0.5679 0.0894-0.1719 0.17131-0.3587 0.23833-0.5679 0.0819-0.2092 0.14895-0.4259 0.21598-0.6576 1.4076 0.082 2.8598 0.142 4.3345 0.1869 1.4746 0.052 2.9418 0.097 4.4089 0.1419 1.4746 0.045 2.912 0.075 4.3344 0.097 1.4076 0.022 2.7556 0.03 4.044 0.037-1.5491-2.2565-3.2024-4.5655-4.9526-6.9193s-3.5227-4.6478-5.3026-6.882c0.35004-0.4334 0.6107-0.8219 0.782-1.1656 0.17129-0.3213 0.33513-0.7473 0.47664-1.2778 1.7502 0.6575 3.627 1.3674 5.6229 2.1295 2.0108 0.7622 3.9695 1.5094 5.8761 2.2268 1.9215 0.7323 3.7163 1.3899 5.3846 1.9951 1.6831 0.5979 3.046 1.0611 4.0887 1.3899-0.23832 0.3586-0.4543 0.7397-0.66283 1.1283-0.20108 0.396-0.40217 0.7846-0.59581 1.1657-0.19363 0.3885-0.40217 0.7771-0.61814 1.1806-0.20108 0.4035-0.38727 0.8145-0.55111 1.2404-2.0257-0.9266-4.2376-1.8756-6.6432-2.847-2.4056-0.9639-4.7888-1.9204-7.1645-2.8618l-0.0372 0.06c1.698 2.2641 3.3663 4.4834 4.9973 6.6728 1.6385 2.1819 3.2844 4.3564 4.9526 6.5382-0.0819 0.082-0.14151 0.1645-0.19364 0.2466-0.0447 0.082-0.10427 0.1719-0.14895 0.2616-0.0596 0.097-0.0894 0.1942-0.12661 0.2839-0.0448 0.09-0.067 0.1943-0.0968 0.2989-2.6737-0.075-5.3473-0.157-8.021-0.2391-2.6662-0.09-5.3771-0.1495-8.1402-0.1943l-0.0298 0.052c2.0406 1.4497 4.0962 2.8021 6.1517 4.065m-24.964 16.815c-1.1246-0.8145-2.2715-1.6141-3.4259-2.3986 0.61069-0.7622 1.2139-1.502 1.8246-2.2268s1.2139-1.472 1.8023-2.2492c0.96818-1.2628 1.8172-2.3911 2.5471-3.3998 0.7224-1.0013 1.2065-1.6888 1.4299-2.055 0.22343 0.2766 0.55856 0.5903 0.99797 0.9266 0.27556 0.2167 0.49899 0.3736 0.66283 0.4708 0.16385 0.1046 0.35749 0.2092 0.56602 0.3213-0.40962 0.4707-0.86392 0.9863-1.3555 1.5468-0.47664 0.5604-0.95329 1.1134-1.415 1.6438-0.4543 0.5231-0.86391 1.0088-1.2288 1.4347-0.35004 0.4334-0.60325 0.7473-0.74475 0.9341 0.8788 0.7921 1.78 1.5468 2.696 2.2641 0.9086 0.7173 1.8396 1.4421 2.7705 2.1669 0.84158-1.1283 1.5789-2.152 2.2417-3.0785 0.65538-0.9266 1.3257-1.8905 2.0257-2.9067 0.25322 0.2764 0.44686 0.4782 0.58091 0.6201 0.13406 0.1345 0.2979 0.2616 0.4692 0.3961 0.13405 0.1046 0.28301 0.2017 0.45429 0.2839 0.15641 0.09 0.39473 0.2242 0.69263 0.396-1.6459 1.8308-3.2173 3.7138-4.692 5.6491 0.54368 0.4185 1.0874 0.8444 1.6236 1.2778 0.53622 0.4259 1.0799 0.8518 1.6236 1.2777 1.1097 0.8519 2.1896 1.6514 3.262 2.3837 0.74475-0.9789 1.4597-1.9652 2.1672-2.9815 0.69261-1.0161 1.3629-2.0622 1.9959-3.1532 0.17129 0.1793 0.32024 0.3362 0.45431 0.4782 0.14894 0.1345 0.35002 0.3063 0.62559 0.5156 0.26811 0.2092 0.48408 0.3661 0.65538 0.4707 0.17129 0.097 0.32023 0.1719 0.44685 0.2168-0.37983 0.4482-0.81923 1.0087-1.3554 1.6737-0.52133 0.6726-1.2363 1.5991-2.1449 2.7722-0.79689 1.0462-1.4374 1.898-1.9438 2.5406-0.48409 0.6352-0.87135 1.1432-1.1618 1.5318-0.2979 0.3811-0.52877 0.68-0.66283 0.8818-0.14896 0.2017-0.26066 0.3736-0.35004 0.5305-0.99796-0.8817-2.0481-1.7709-3.1131-2.6527-1.0799-0.8817-2.3162-1.868-3.7312-2.959l-3.478-2.6825c-1.415-1.091-2.6886-2.0475-3.8131-2.8619m-14.554 18.996c-1.065-1.0387-1.9736-1.8905-2.7258-2.5704-0.75965-0.6725-1.415-1.2778-1.9885-1.8009 0.49154-0.3586 0.86391-0.665 1.1246-0.934 0.25321-0.2615 0.55856-0.6501 0.90115-1.1582 3.4929 0.1345 6.9485 0.254 10.337 0.3586 3.411 0.1121 6.8815 0.2093 10.427 0.2915l-2.0108-1.9578-2.2492-2.1894c-0.75966-0.7323-1.497-1.4571-2.2492-2.1595-0.7373-0.7098-1.415-1.3599-2.0406-1.9502-0.6256-0.5978-1.1693-1.0985-1.6459-1.5094-0.46919-0.4185-0.79688-0.68-0.97563-0.7996 0.49899-0.3587 0.87137-0.6724 1.1246-0.934 0.24577-0.2615 0.55112-0.65 0.89371-1.1583 1.3257 1.4497 2.547 2.7425 3.6195 3.8931 1.0948 1.1582 2.1226 2.2343 3.1056 3.243 0.97562 1.0088 1.9364 1.9877 2.912 2.9516 0.97563 0.9639 2.0257 1.9876 3.1205 3.0711l2.7854 2.705c-0.32769 0.2765-0.64794 0.5754-0.96818 0.9041-0.32769 0.3363-0.6107 0.6576-0.82668 0.949-6.7847-0.4185-13.793-0.665-21.002-0.7398 0.43195 0.4558 0.87135 0.9042 1.3033 1.3451 0.44684 0.4483 0.90114 0.8892 1.3629 1.345l2.6811 2.6078c0.93095 0.9042 1.7129 1.6663 2.3758 2.294 0.65538 0.6202 1.2139 1.1433 1.6757 1.5617 0.46919 0.426 0.84156 0.7622 1.1469 1.0238 0.2979 0.2615 0.53622 0.4782 0.72986 0.6201-0.21598 0.157-0.40961 0.3289-0.5958 0.5156-0.17874 0.1794-0.35003 0.3662-0.50643 0.5381-0.35004 0.3511-0.68518 0.7173-0.99052 1.1058-0.0968-0.1494-0.49899-0.6202-1.2139-1.3973-0.70008-0.7846-1.5789-1.7335-2.6066-2.8469-1.0501-1.1134-2.1821-2.309-3.4184-3.5868-1.2288-1.2852-2.4279-2.4957-3.612-3.6315m-9.6721 5.1537c-0.93094-1.0387-1.8693-2.0698-2.8375-3.0785 0.30534-0.2093 0.63304-0.4335 0.97562-0.6875 0.35004-0.2466 0.73731-0.553 1.1469-0.8967 0.40962-0.3512 0.77455-0.6725 1.0799-0.9789 0.30535-0.2989 0.58835-0.5903 0.84156-0.8593 0.83413 1.1283 1.6757 2.2417 2.5396 3.3326 0.86391 1.091 1.8619 2.3239 3.0237 3.6988l2.8152 3.3626c1.1544 1.3749 2.1896 2.5779 3.1205 3.6165 0.91604 1.0312 1.847 2.0325 2.7705 3.0039-0.30535 0.2018-0.62559 0.4409-0.95329 0.7248-0.33513 0.2691-0.69262 0.5904-1.1171 0.9341-0.40962 0.3512-0.78199 0.6576-1.1097 0.9415-0.32769 0.2764-0.6107 0.5454-0.86392 0.8145-0.79688-1.076-1.6236-2.1596-2.4875-3.258-0.8639-1.0834-1.8619-2.3238-3.0088-3.6913l-2.8226-3.37c-1.1469-1.3674-2.197-2.5704-3.1131-3.6091m-18.982 22.138c-0.89371-1.3226-1.4895-2.7274-1.78-4.2218-0.283-1.4945-0.283-2.9815 0.0223-4.461 0.29045-1.4795 0.90859-2.8992 1.8395-4.2592 0.93094-1.36 2.1672-2.5631 3.7089-3.6166 1.4299-0.9639 2.8971-1.6664 4.3791-2.1072 1.5044-0.4409 2.9641-0.5754 4.4089-0.4035 1.4448 0.1718 2.8301 0.68 4.1632 1.5318 1.3406 0.8518 2.5471 2.0773 3.6344 3.6839 0.90116 1.345 1.4895 2.7722 1.7576 4.2741 0.283 1.5094 0.2681 2.9964-0.0522 4.4759-0.32025 1.4795-0.94584 2.8843-1.8619 4.207-0.92349 1.33-2.1374 2.5031-3.6195 3.5194-1.4076 0.9564-2.8524 1.6738-4.327 2.1595-1.4746 0.5006-2.9269 0.665-4.3717 0.5081-1.4448-0.157-2.8375-0.6575-4.193-1.4944-1.3331-0.8444-2.5843-2.1073-3.7089-3.796m15.61-11.44c-0.78199-1.1657-1.6236-2.0997-2.5322-2.832s-1.8246-1.2404-2.7705-1.5467c-0.93839-0.2989-1.8842-0.3812-2.8524-0.2392-0.95328 0.1495-1.8544 0.5082-2.7109 1.0835-0.9086 0.6202-1.5789 1.3824-1.9959 2.3164-0.43197 0.9266-0.64794 1.9428-0.63304 3.0188 7e-3 1.0984 0.22342 2.2342 0.64048 3.4224 0.42451 1.1806 1.0129 2.3463 1.7874 3.4895 0.96073 1.4272 1.9289 2.5331 2.8896 3.3177 0.96818 0.7771 1.914 1.2928 2.8301 1.5318 0.91605 0.2541 1.8023 0.284 2.6662 0.09 0.86391-0.1868 1.6608-0.538 2.4056-1.0536 0.81178-0.538 1.4597-1.2255 1.9661-2.0548 0.49899-0.837 0.78199-1.7934 0.86392-2.8545 0.067-1.0686-0.0894-2.2492-0.47664-3.5494-0.39472-1.2926-1.0874-2.675-2.0779-4.1396m-36.226 25.667c0.87135 2.2641 1.7502 4.5208 2.6215 6.7774-0.24577 0.075-0.48409 0.1644-0.72241 0.2765s-0.4543 0.2167-0.67028 0.3138c-0.23832 0.1121-0.4692 0.2242-0.68518 0.3288-0.22342 0.1046-0.43939 0.2317-0.65537 0.3811-0.96818-3.6465-1.981-7.2481-3.0535-10.798-1.0799-3.5419-2.2194-7.1211-3.4184-10.73 0.23832-0.06 0.4543-0.1195 0.64793-0.1793 0.20108-0.06 0.40961-0.1419 0.6256-0.2465 0.17128-0.075 0.35003-0.1794 0.52877-0.299 0.18618-0.1195 0.36492-0.254 0.55856-0.396 1.0799 0.9266 2.1896 1.8531 3.3365 2.7947 1.1395 0.9341 2.2789 1.8681 3.4184 2.7946 1.132 0.9266 2.2715 1.8307 3.3812 2.7125 1.1171 0.8817 2.1821 1.7111 3.195 2.4957 0.13406-2.7423 0.22343-5.5744 0.26067-8.5184 0.0223-2.9366 7e-3 -5.8285-0.0522-8.6903 0.52878-0.1345 0.96818-0.284 1.3182-0.4558 0.32769-0.1495 0.71496-0.3961 1.1618-0.7248 0.98307 1.5916 2.0406 3.2952 3.1801 5.1259 1.132 1.8158 2.2343 3.6092 3.3142 5.3427 1.0873 1.7411 2.1076 3.3701 3.0758 4.8571 0.96074 1.5093 1.7725 2.7049 2.4056 3.5941-0.40961 0.142-0.81922 0.3139-1.2139 0.5007-0.40217 0.1943-0.782 0.3736-1.1842 0.5605-0.38727 0.1792-0.782 0.3735-1.1916 0.5678-0.40961 0.1868-0.80433 0.4035-1.199 0.6351-1.0352-1.9577-2.2268-4.0574-3.5525-6.2917-1.3182-2.2416-2.6513-4.4534-3.9621-6.6428l-0.0596 0.03c-0.0223 2.8246-0.0448 5.6042-0.067 8.3391-0.0223 2.7274-0.0372 5.4623-0.0223 8.2046-0.11171 0.03-0.20853 0.06-0.2979 0.082-0.10426 0.037-0.19363 0.075-0.283 0.1195-0.10426 0.045-0.19364 0.097-0.27556 0.1419-0.0894 0.06-0.16384 0.1196-0.26067 0.1868-2.0779-1.6961-4.1557-3.385-6.2187-5.0737-2.063-1.6962-4.1855-3.3999-6.3453-5.1185l-0.067 0.03c0.74475 2.3912 1.5565 4.715 2.4279 6.9716m-15.746-5.9348c-0.49899-1.3076-1.0129-2.6079-1.5416-3.9081 0.35748-0.082 0.74476-0.1718 1.1693-0.2764 0.41707-0.1121 0.87136-0.2541 1.3852-0.4259 0.50643-0.1719 0.96073-0.3513 1.3629-0.5231 0.39472-0.1719 0.75965-0.3362 1.0873-0.4932 0.37238 1.3525 0.75966 2.6975 1.1693 4.0351 0.40961 1.3225 0.9086 2.832 1.4895 4.5282l1.415 4.1621c0.5809 1.6962 1.1171 3.1981 1.6012 4.4983 0.49153 1.3002 0.99796 2.5705 1.5118 3.8108-0.36492 0.075-0.7522 0.1869-1.1469 0.3288-0.40961 0.142-0.87136 0.2915-1.3778 0.4708-0.50643 0.1719-0.96073 0.3288-1.3704 0.4708-0.40961 0.1419-0.78198 0.2914-1.1097 0.4558-0.35748-1.3002-0.72985-2.6154-1.1395-3.9454-0.40962-1.3226-0.90859-2.832-1.482-4.5282l-1.4225-4.1696c-0.58091-1.6961-1.1097-3.1907-1.6012-4.4908m-12.306 11.596 0.32024 1.2852c0.43196 1.7411 0.82668 3.2804 1.1991 4.6179 0.37982 1.3376 0.75964 2.6527 1.1693 3.9305-0.36494 0.045-0.75965 0.1195-1.1693 0.2241-0.41707 0.1046-0.89371 0.2241-1.415 0.3512-0.52133 0.127-0.99051 0.2466-1.4076 0.3512-0.4245 0.097-0.79688 0.2167-1.1395 0.3437-0.23832-1.3151-0.50643-2.6526-0.78944-4.0201-0.2979-1.3524-0.66283-2.9067-1.0799-4.6477l-1.0576-4.2667c-0.43196-1.7485-0.82668-3.2804-1.2065-4.6254-0.37238-1.3375-0.76711-2.6826-1.1916-4.0201 0.36492-0.052 0.76709-0.1046 1.1842-0.1793 0.43195-0.075 0.90859-0.1719 1.4225-0.2989 0.56601-0.142 1.199-0.3288 1.9066-0.5604 0.71496-0.2317 1.6012-0.4783 2.6662-0.7398 0.78199-0.1943 1.4746-0.3438 2.0406-0.4484 0.5809-0.097 1.0799-0.1494 1.5118-0.1718 0.41707-0.015 0.80434 0.01 1.1469 0.075 0.32769 0.052 0.65538 0.142 0.97563 0.269 0.73731 0.3064 1.3703 0.7547 1.9066 1.345 0.53622 0.5903 0.91604 1.3525 1.1469 2.2941 0.38727 1.5318 0.27556 2.8768-0.3277 4.0499-0.5958 1.1732-1.6236 2.1521-3.0982 2.9366 1.4374 1.5319 2.9492 3.0413 4.5355 4.5282 1.5938 1.4871 3.1726 2.9516 4.7515 4.4012-0.49155 0.082-0.96819 0.1719-1.4374 0.2914-0.45429 0.1121-0.93093 0.2317-1.4076 0.3512-0.47664 0.1196-0.95328 0.2392-1.415 0.3513-0.47664 0.1121-0.94584 0.254-1.4225 0.4184l-8.0359-8.5035zm3.5227-7.009c-0.23087-0.9192-0.49898-1.6364-0.81923-2.1297-0.32769-0.5006-0.71497-0.8369-1.1693-1.0311-0.4543-0.1869-0.99797-0.2392-1.6385-0.1719-0.64794 0.068-1.3852 0.2018-2.2417 0.4185 0.64048 2.8693 1.3108 5.7237 2.0183 8.5707 0.1266-0.01 0.24576-0.03 0.36493-0.045 0.11916-0.015 0.22342-0.037 0.33514-0.06 1.3778-0.3438 2.3385-0.9788 2.8896-1.9054 0.54367-0.9192 0.63305-2.1371 0.26067-3.6465m-23.537 1.9859c-0.0819-0.5156-0.1564-0.8742-0.23832-1.1133-0.32024 0.045-0.71497 0.1121-1.1842 0.2017-0.46175 0.082-0.95328 0.1794-1.482 0.284-0.52133 0.1046-1.0724 0.2167-1.6161 0.3512-0.54367 0.127-1.0427 0.254-1.5044 0.3885 7e-3 -0.2391 7e-3 -0.4782 7e-3 -0.7248 0-0.2391-7e-3 -0.4783-0.0447-0.7098-0.0372-0.2392-0.0819-0.4633-0.14895-0.7025-0.0521-0.2316-0.12661-0.4558-0.20109-0.6874 0.72242-0.075 1.3852-0.1495 1.9736-0.2018 0.58835-0.06 1.1916-0.1269 1.7948-0.2017 0.6107-0.075 1.2735-0.1494 1.9885-0.2391 0.71496-0.082 1.5714-0.2018 2.5768-0.3363 0.99797-0.1345 1.8619-0.2615 2.5768-0.3661 0.70007-0.1121 1.3555-0.2167 1.9513-0.3064 0.60325-0.09 1.1767-0.1868 1.7353-0.2839 0.56601-0.1047 1.1693-0.2018 1.8246-0.3213-7e-3 0.2391-7e-3 0.4782-7e-3 0.7173s7e-3 0.4857 0.0447 0.7248c0.0372 0.2317 0.0819 0.4633 0.14895 0.6875 0.0521 0.2391 0.13406 0.4707 0.20109 0.7023-0.43196-0.015-0.91604 0-1.4597 0.015-0.53622 0.015-1.0724 0.052-1.6012 0.09-0.52133 0.037-1.0278 0.082-1.4895 0.1196-0.47664 0.045-0.87136 0.09-1.1916 0.1345-0.0149 0.1045 0 0.2614 7e-3 0.4558 0.0297 0.1942 0.0522 0.4184 0.0819 0.6724l0.23088 1.6962 1.0948 8.0178c0.23832 1.7784 0.47664 3.3551 0.70752 4.7225 0.23087 1.3749 0.47664 2.7199 0.7522 4.0351-0.37982 0.01-0.77455 0.037-1.1916 0.097-0.43196 0.052-0.9086 0.127-1.4448 0.1943-0.53623 0.075-1.0129 0.142-1.4448 0.2017-0.41707 0.06-0.81179 0.1345-1.1693 0.2242-0.0968-1.3376-0.21598-2.6975-0.35748-4.0873-0.14895-1.3825-0.34259-2.9591-0.5809-4.7375l-1.0874-8.0178c-0.0968-0.6127-0.17128-1.1806-0.25321-1.6962m-5.8239 19.62c-0.51388-0.03-0.99797-0.037-1.4672-0.03-0.46175 0.015-0.91606 0.022-1.3704 0.037-0.4543 0.01-0.9086 0.03-1.3703 0.037-0.45431 0.015-0.90861 0.045-1.3629 0.097-0.37983-1.0461-0.7671-2.1146-1.1469-3.1981-0.40217-1.0984-0.81923-2.1894-1.2512-3.2803-0.69262 0-1.3778 0-2.063 0.01-0.69262 0.015-1.3778 0.022-2.0704 0.045-0.55856 0.015-1.1097 0.03-1.6831 0.06-0.55111 0.022-1.1097 0.06-1.6682 0.09-0.40217 1.1134-0.7671 2.2193-1.1097 3.3252-0.32769 1.1208-0.63304 2.1969-0.90861 3.2728-0.26066-0.045-0.50642-0.06-0.75964-0.045-0.25321 0-0.49899 0.01-0.75965 0.015-0.26067 0.01-0.51388 0.015-0.77454 0.015-0.26067 0.015-0.53622 0.045-0.84157 0.09 0.25321-0.5679 0.57345-1.3525 0.98306-2.3538 0.39473-1.0013 0.83414-2.1446 1.3257-3.4074 0.48409-1.2627 0.99798-2.6153 1.5565-4.0649 0.55111-1.4496 1.1097-2.9142 1.6534-4.4012 0.55856-1.4795 1.1022-2.9441 1.6384-4.3788 0.52877-1.4347 1.0203-2.7796 1.4523-4.02 0.21597 0.03 0.41706 0.067 0.62559 0.09 0.19364 0.03 0.39472 0.045 0.6107 0.037 0.21598-0.01 0.41707-0.03 0.61069-0.06 0.19364-0.045 0.38728-0.082 0.60325-0.142 0.73731 1.8233 1.5193 3.766 2.3609 5.8359 0.84158 2.0698 1.6906 4.1097 2.5322 6.1048 0.84902 1.9951 1.6831 3.8857 2.4726 5.6864 0.79688 1.786 1.5342 3.3028 2.1821 4.5357m-11.827-15.849c-0.53623 1.3076-1.0203 2.6004-1.4895 3.8781-0.4543 1.2778-0.90861 2.5779-1.348 3.9006l5.8984-0.1495c-0.50643-1.3077-1.0054-2.5854-1.497-3.8333-0.49898-1.2478-1.0203-2.5107-1.564-3.7959m-24.774 1.7644c0.14895-1.7859 0.26066-3.3701 0.32768-4.7599 0.067-1.3898 0.12661-2.7946 0.15641-4.1919 0.35748 0.068 0.7522 0.1345 1.1842 0.2017 0.41707 0.067 0.8937 0.1271 1.4448 0.1719 0.74476 0.067 1.5193 0.1046 2.3385 0.112 0.80433 0.022 1.5863 0.06 2.3609 0.1196 1.5193 0.127 2.7034 0.3362 3.5376 0.6352 0.84156 0.2989 1.4895 0.6799 1.9438 1.1582 0.64793 0.6202 1.0873 1.2777 1.3629 1.9951 0.26066 0.7173 0.35003 1.5542 0.26811 2.5256-0.0968 1.2255-0.39472 2.2567-0.87136 3.1085s-1.1097 1.5169-1.8917 2.0025c-0.78943 0.4858-1.698 0.8146-2.7258 0.9864-1.0203 0.1793-2.1374 0.2167-3.3365 0.1121l-1.6459-0.1344c-0.12661 1.6139-0.25322 3.2279-0.35748 4.827-0.0894 1.6066-0.1564 3.1907-0.17875 4.7748-0.36492-0.082-0.7522-0.127-1.1842-0.1643-0.43196-0.037-0.9086-0.075-1.4523-0.1196-0.52877-0.045-1.0054-0.09-1.4374-0.1271-0.43196-0.03-0.83412-0.045-1.1916-0.03 0.18619-1.3226 0.37238-2.6751 0.52133-4.0649 0.1564-1.3823 0.31279-2.9665 0.46175-4.7524zm9.8084-1.9428c0.0671-0.8145 0.0372-1.5095-0.10426-2.0923-0.13406-0.5679-0.35004-1.0311-0.62559-1.3973-0.28302-0.3512-0.63304-0.6277-1.0278-0.8145-0.40962-0.1867-0.84157-0.2988-1.2884-0.3362l-0.74475-0.06c-0.10427-0.01-0.20853-0.022-0.32024-0.03-0.10427 0-0.20109 0-0.29046 0.01-0.14895 1.5542-0.29045 3.0711-0.42451 4.5656-0.13405 1.4944-0.26811 2.9889-0.39472 4.4983 0.54367 0.037 1.1022 0.037 1.6682-0.022 0.58091-0.067 1.1246-0.2317 1.6236-0.5306 0.49899-0.2989 0.91604-0.7397 1.2735-1.345 0.35003-0.5903 0.56601-1.4123 0.65538-2.4434m-29.652-1.0695c0.0819-0.396 0.23831-0.7547 0.47663-1.076 0.23088-0.3213 0.49899-0.5829 0.81923-0.7846 0.3128-0.2093 0.67028-0.3512 1.0576-0.4259 0.37983-0.075 0.78199-0.067 1.1767 0.015 0.39472 0.09 0.7522 0.2466 1.065 0.4783 0.32024 0.2315 0.58091 0.5081 0.78943 0.8294 0.20109 0.3213 0.35004 0.6725 0.41707 1.061 0.0819 0.3886 0.067 0.7772-0.0149 1.1732-0.0894 0.396-0.24578 0.7622-0.47666 1.0835-0.22341 0.3138-0.50642 0.5754-0.82667 0.7846-0.32024 0.2017-0.67027 0.3437-1.0576 0.4184-0.37982 0.075-0.76709 0.068-1.1693-0.015-0.39471-0.082-0.75964-0.2466-1.0724-0.4782-0.32024-0.2317-0.58091-0.5083-0.78944-0.822-0.20108-0.3213-0.33514-0.6725-0.41706-1.0611-0.067-0.3885-0.067-0.7846 0.0223-1.1806m-22.784-12.797c0.43195-1.3225 0.84157-2.6601 1.2363-4.0126 0.9086 0.3586 1.7949 0.7173 2.6662 1.076 0.8788 0.3662 1.7725 0.7173 2.6811 1.0461 1.497 0.5455 2.8301 1.0162 4.0068 1.3973 1.1692 0.4036 1.9662 0.6501 2.3832 0.7547-0.19363 0.2989-0.39472 0.7099-0.57346 1.2405-0.12661 0.3213-0.20853 0.5753-0.25321 0.7621-0.0447 0.1943-0.0894 0.4035-0.12661 0.6426-0.58091-0.254-1.199-0.5231-1.8842-0.8219-0.67772-0.2915-1.348-0.5828-1.9885-0.8518-0.64048-0.284-1.2214-0.5305-1.7353-0.7399-0.52133-0.2166-0.89371-0.3586-1.1097-0.4408-0.49154 1.0835-0.93094 2.1745-1.3406 3.2654-0.40962 1.091-0.80433 2.1969-1.214 3.3103 1.3182 0.4558 2.5173 0.8593 3.5972 1.2104 1.0799 0.3438 2.2045 0.695 3.3737 1.0537-0.18619 0.3213-0.32024 0.5753-0.40961 0.7472-0.0819 0.1718-0.15639 0.3586-0.23832 0.5679-0.0596 0.1569-0.10426 0.3288-0.13406 0.5155-0.0372 0.1868-0.0819 0.4484-0.16384 0.7847-2.2343-1.0237-4.5058-1.9503-6.7847-2.7797-0.23088 0.6501-0.47664 1.2927-0.71496 1.9428-0.25322 0.6426-0.49154 1.2927-0.71497 1.9353-0.47663 1.3226-0.9086 2.6004-1.2959 3.8408 1.1544 0.4259 2.3162 0.807 3.4929 1.1657 1.1693 0.3586 2.3758 0.6799 3.6046 0.9639-0.12661 0.2092-0.23088 0.4035-0.32024 0.5828-0.0819 0.1719-0.17874 0.4185-0.29791 0.7473-0.11916 0.3213-0.20108 0.5828-0.24577 0.7696-0.0447 0.1943-0.067 0.3512-0.0819 0.4857-0.53622-0.2167-1.199-0.4782-1.9959-0.7697-0.79689-0.3064-1.8842-0.7099-3.2844-1.218-1.2363-0.4482-2.2342-0.8144-3.0088-1.0909-0.73731-0.2765-1.3331-0.4932-1.7949-0.6575-0.46174-0.1719-0.80433-0.284-1.0427-0.3662-0.23831-0.067-0.43195-0.1196-0.60324-0.1644 0.53622-1.2254 1.0575-2.4883 1.5714-3.781 0.50644-1.2927 1.0799-2.7797 1.6757-4.4684l1.5044-4.1322c0.61069-1.6888 1.132-3.1907 1.564-4.5133m-6.7661-4.7441c-0.65538-0.9938-1.6459-1.8307-2.9716-2.4883-0.88625-0.4409-1.8619-0.7024-2.9194-0.7622-1.065-0.068-2.1374 0.1047-3.1875 0.5156-1.0575 0.4109-2.0779 1.0761-3.0684 1.9877-0.99052 0.919-1.8619 2.1445-2.6215 3.6614-0.5809 1.1581-0.95328 2.309-1.1246 3.4522-0.1713 1.1432-0.14896 2.2267 0.0894 3.2504 0.23833 1.0238 0.68518 1.9578 1.3555 2.7946 0.65538 0.8444 1.5491 1.5394 2.6662 2.0998 0.24577 0.127 0.52877 0.254 0.87136 0.3811 0.32769 0.1345 0.64793 0.2541 0.96818 0.3661 0.3128 0.1121 0.62559 0.1943 0.9086 0.2466 0.283 0.068 0.49898 0.082 0.65538 0.068 0.14894-0.2093 0.32025-0.4932 0.49898-0.8294 0.17874-0.3512 0.38728-0.7248 0.58836-1.1508 0.78944-1.5692 1.3331-2.7274 1.6459-3.5045 0.31279-0.7771 0.52877-1.3001 0.64048-1.5766 0.17874 0.1345 0.41706 0.2914 0.71496 0.4782 0.30535 0.1942 0.75965 0.4334 1.348 0.7323 0.69262 0.3512 1.2139 0.5903 1.5714 0.7323 0.35003 0.1419 0.63304 0.2466 0.83412 0.3064-0.11171 0.127-0.26811 0.366-0.47665 0.6949-0.20108 0.3363-0.41706 0.7248-0.67027 1.1656-0.24577 0.4409-0.49899 0.9191-0.75965 1.4272-0.26811 0.5007-0.52133 0.9938-0.74475 1.4572l-0.47665 0.9489c-0.23832 0.4858-0.45429 0.934-0.66282 1.3525-0.19364 0.4259-0.31281 0.7323-0.36493 0.9266-1.4523-0.2765-2.8822-0.6277-4.2898-1.0685-1.3927-0.4409-2.7332-0.9864-4.0068-1.6215-1.6459-0.8295-3.0609-1.8084-4.2451-2.9442-1.1767-1.1357-2.0555-2.3761-2.6588-3.7211-0.58835-1.345-0.85646-2.7573-0.83412-4.2294 0.0223-1.472 0.40216-2.9515 1.1469-4.4385 0.91604-1.8307 2.0183-3.2878 3.3142-4.3564 1.2884-1.076 2.696-1.8008 4.2228-2.1819 1.5267-0.3885 3.128-0.4408 4.826-0.1719 1.6906 0.2765 3.3886 0.837 5.0792 1.6888 1.4597 0.7323 2.6513 1.5168 3.5674 2.3537 0.92349 0.837 1.7576 1.7934 2.5173 2.8769-0.40217 0.4185-0.80433 0.8443-1.1916 1.2478-0.37983 0.4111-0.74475 0.837-1.0873 1.2928l-0.40962-0.2018c-0.17874-1.1806-0.60325-2.264-1.2586-3.2579m-26.929 8.2745c-0.40962-0.3213-0.79689-0.6127-1.1842-0.8742-0.37983-0.2616-0.75964-0.5156-1.132-0.7697-0.37238-0.254-0.75965-0.5081-1.132-0.7697-0.38727-0.254-0.78943-0.4931-1.1842-0.7098 0.30536-1.076 0.61071-2.167 0.93095-3.2803 0.30535-1.1283 0.60325-2.2567 0.87135-3.3925-0.55111-0.4034-1.1171-0.7996-1.6906-1.1955-0.55111-0.3961-1.1246-0.7847-1.698-1.1732-0.4543-0.3214-0.93094-0.6277-1.4001-0.934-0.46175-0.299-0.93839-0.6053-1.415-0.8967-0.96818 0.6725-1.9066 1.3674-2.83 2.0698-0.91605 0.7099-1.7949 1.4123-2.6364 2.1222-0.18619-0.1868-0.37983-0.3438-0.58836-0.4783-0.20108-0.142-0.41706-0.2839-0.62559-0.426-0.21597-0.1493-0.43196-0.2914-0.64794-0.4408-0.21597-0.1419-0.45429-0.2839-0.7224-0.4109 0.52132-0.3213 1.2363-0.7771 2.1449-1.36 0.90859-0.5754 1.9289-1.2404 3.0535-1.9876 1.1246-0.7473 2.3385-1.5542 3.6195-2.4062 1.2959-0.8667 2.5917-1.7336 3.91-2.6227 1.3033-0.8818 2.5843-1.7485 3.8578-2.6153 1.2586-0.8593 2.4428-1.6664 3.5152-2.4211 0.14896 0.1495 0.2979 0.2989 0.44686 0.4409 0.13406 0.1345 0.2979 0.2616 0.47664 0.3811 0.17874 0.1196 0.36493 0.2168 0.53622 0.3064 0.17874 0.082 0.37238 0.1644 0.57347 0.2466-0.45431 1.9129-0.93839 3.9528-1.4523 6.1273-0.52134 2.1744-1.0054 4.3189-1.4746 6.4411-0.46175 2.1147-0.88626 4.1397-1.2735 6.06-0.38727 1.9279-0.67028 3.5867-0.84902 4.9691m-0.46175-19.794c-1.199 0.7622-2.3385 1.5243-3.4556 2.2939-1.1097 0.7697-2.2343 1.5618-3.3588 2.3912l4.893 3.3177c0.34259-1.3674 0.67773-2.69 0.99798-3.9977 0.32024-1.3076 0.62559-2.6377 0.92349-4.0051m-14.523-14.428c0.32769-0.4035 0.54367-0.7098 0.67028-0.919-0.25322-0.2093-0.55857-0.4558-0.93095-0.7473-0.37237-0.2914-0.78199-0.5977-1.2065-0.9266-0.43196-0.3138-0.88626-0.6426-1.3331-0.9639-0.4692-0.3213-0.90115-0.6127-1.2959-0.8743 0.17874-0.1494 0.36492-0.3063 0.54366-0.4632 0.1713-0.1644 0.34259-0.3363 0.4841-0.5156 0.16384-0.1793 0.2979-0.3737 0.4245-0.5754 0.13406-0.2018 0.26066-0.4035 0.37238-0.6127 0.54367 0.4931 1.0352 0.934 1.4746 1.3375 0.43196 0.3961 0.88626 0.7996 1.3406 1.2105 0.46919 0.4036 0.96818 0.8444 1.5118 1.3226 0.54367 0.4708 1.1991 1.0387 1.9736 1.6963 0.75965 0.65 1.4299 1.2105 1.9885 1.6737 0.55856 0.4558 1.065 0.8818 1.5342 1.2629 0.46174 0.381 0.91605 0.7472 1.3703 1.0984 0.44686 0.3587 0.93095 0.7398 1.4523 1.1583-0.17875 0.1493-0.36494 0.3063-0.54368 0.4707-0.17874 0.1569-0.34258 0.3288-0.49898 0.5081-0.14895 0.1868-0.28301 0.381-0.41707 0.5754-0.1266 0.2017-0.25321 0.4035-0.37982 0.6201-0.283-0.3287-0.61069-0.6949-0.98307-1.0759-0.37982-0.3886-0.75221-0.7697-1.1395-1.1433-0.37237-0.3662-0.74475-0.7024-1.0873-1.0387-0.35003-0.3138-0.64793-0.5828-0.88626-0.7921-0.0894 0.068-0.20108 0.1644-0.32769 0.3139-0.13405 0.142-0.283 0.3138-0.4543 0.5006l-1.1022 1.3152-5.2207 6.1721c-1.1618 1.3674-2.1672 2.5929-3.0311 3.6764-0.86392 1.0984-1.6906 2.1744-2.4875 3.2505-0.25321-0.2617-0.54367-0.5381-0.87135-0.822-0.33514-0.2765-0.69262-0.5903-1.1022-0.9416-0.40961-0.3437-0.78199-0.665-1.1171-0.9414-0.32769-0.284-0.64794-0.5231-0.95328-0.7248 0.93094-0.964 1.8619-1.9578 2.7928-2.9964 0.93094-1.0387 1.981-2.2342 3.1205-3.6017l5.2282-6.1721c0.39473-0.4782 0.75966-0.9116 1.0874-1.3152m-10.807-9.4031c0.95328-1.0163 1.8991-2.0474 2.8152-3.101 0.22342 0.2914 0.49153 0.5978 0.77454 0.9265 0.26811 0.3289 0.61069 0.6875 0.98307 1.0685 0.38728 0.3737 0.7373 0.71 1.0724 0.9939 0.3128 0.2765 0.61815 0.538 0.91605 0.7622-1.0576 0.934-2.0779 1.8756-3.0907 2.8319-1.0054 0.9491-2.1523 2.0624-3.411 3.3328l-3.0982 3.1084c-1.2661 1.2703-2.3758 2.4061-3.3216 3.4223-0.95328 1.0162-1.8693 2.025-2.7481 3.0338-0.23832-0.2989-0.49898-0.5903-0.80433-0.8967-0.30535-0.2989-0.64794-0.6426-1.0203-1.0312-0.38727-0.3811-0.72986-0.7173-1.0352-1.0237-0.29789-0.3063-0.59579-0.5828-0.87881-0.807 0.99797-0.8817 2.0034-1.8008 3.0163-2.7573 1.0128-0.9489 2.1449-2.0623 3.4184-3.3252l3.0982-3.1159c1.2586-1.2628 2.3758-2.4061 3.3142-3.4223m-15.806-5.9846-1.0129 0.8518c-1.3629 1.1582-2.562 2.1969-3.5972 3.1235-1.0352 0.9265-2.0406 1.8531-3.0014 2.7796-0.2011-0.3063-0.44686-0.6276-0.71497-0.9564-0.27556-0.3288-0.58835-0.7024-0.93839-1.1133-0.34259-0.4111-0.65539-0.7847-0.93839-1.1134-0.26811-0.3289-0.54367-0.6277-0.81178-0.8818 1.0724-0.7921 2.1598-1.6215 3.2471-2.4808 1.0948-0.8594 2.3162-1.8681 3.6865-3.0263l3.3514-2.8245c1.3703-1.1582 2.5768-2.1968 3.6046-3.1234 1.0352-0.9341 2.063-1.8756 3.0758-2.847 0.20853 0.3064 0.43195 0.6352 0.68518 0.9939 0.24576 0.3437 0.54367 0.7248 0.89369 1.1432 0.37238 0.4483 0.81923 0.934 1.3406 1.4721 0.52133 0.5305 1.1246 1.2254 1.8395 2.0623 0.52132 0.6277 0.95328 1.1806 1.2959 1.6514 0.33514 0.4782 0.6107 0.9041 0.81178 1.2852 0.20853 0.3736 0.35748 0.7249 0.44685 1.0536 0.0968 0.3288 0.1564 0.6651 0.19364 1.0088 0.0521 0.7996-0.0671 1.5691-0.36493 2.3089-0.29791 0.7398-0.80433 1.4197-1.5416 2.0474-1.2065 1.0163-2.4651 1.5094-3.7759 1.487-1.3108-0.022-2.6439-0.523-3.9919-1.4944-0.7373 1.9727-1.415 3.9977-2.0481 6.0824-0.62559 2.0848-1.2512 4.1471-1.8544 6.2095-0.28301-0.4109-0.58091-0.7921-0.88626-1.1508-0.2979-0.3586-0.6107-0.7397-0.93094-1.1133-0.32024-0.3886-0.63304-0.7622-0.94584-1.1283-0.30535-0.3736-0.64049-0.7398-0.99797-1.091l4.0664-10.992zm7.8274 0.082c0.72242-0.6127 1.2363-1.1732 1.5416-1.6813s0.43195-1.0088 0.40961-1.5019c-0.0372-0.4932-0.23087-1.0088-0.56601-1.5543-0.34259-0.5454-0.79688-1.1507-1.3629-1.8307-2.2864 1.8382-4.543 3.7063-6.7847 5.5893 0.067 0.1121 0.13406 0.2167 0.20108 0.3213 0.067 0.097 0.13406 0.1869 0.20109 0.269 0.91605 1.0909 1.9066 1.6738 2.9716 1.7635 1.0724 0.082 2.2045-0.3737 3.3886-1.3749m-14.077-21.986c1.1246-0.8219 2.2343-1.6588 3.3439-2.5181 0.52877 0.8144 1.0352 1.6215 1.5342 2.4359 0.49898 0.807 1.0203 1.614 1.564 2.4135 0.8937 1.3227 1.7055 2.4808 2.4279 3.4897 0.72241 1.0087 1.2214 1.6812 1.5044 2.01-0.34259 0.127-0.73731 0.3437-1.1991 0.6576-0.283 0.1942-0.49899 0.3586-0.64793 0.4857-0.14151 0.127-0.30535 0.269-0.47665 0.4408-0.31279-0.538-0.66283-1.1283-1.0501-1.7709-0.37982-0.6426-0.7522-1.2629-1.1097-1.8606-0.35748-0.6053-0.67772-1.1507-0.98307-1.6215-0.29046-0.4782-0.50644-0.8145-0.64049-1.0088-1.0278 0.5978-2.0257 1.218-2.9939 1.8681-0.96074 0.6427-1.9289 1.3002-2.912 1.9727 0.80434 1.1432 1.5416 2.1744 2.2194 3.086 0.67028 0.9116 1.3778 1.8607 2.1226 2.8395-0.34259 0.1494-0.5958 0.2765-0.76709 0.3661-0.17875 0.09-0.35004 0.1944-0.52878 0.3139-0.1415 0.097-0.27556 0.2167-0.41706 0.3437-0.12661 0.1345-0.32769 0.3139-0.58091 0.538-1.2214-2.1371-2.5173-4.2218-3.8802-6.2319-0.57347 0.3886-1.1469 0.7697-1.7204 1.1508s-1.1469 0.7621-1.7204 1.1507c-1.1469 0.7921-2.2417 1.5767-3.2695 2.3613 0.68518 1.0161 1.4001 2.01 2.1449 2.9964 0.74475 0.9788 1.5342 1.9428 2.3534 2.8917-0.22343 0.097-0.41707 0.1944-0.58092 0.284-0.17874 0.09-0.40961 0.2317-0.69261 0.4259-0.28301 0.1943-0.49898 0.3587-0.64794 0.4857-0.14151 0.127-0.26066 0.2465-0.34259 0.3512-0.30535-0.4932-0.70006-1.091-1.1693-1.8008-0.46919-0.7174-1.1171-1.6888-1.9512-2.9143-0.74475-1.0909-1.3406-1.9726-1.8023-2.6526-0.44685-0.6575-0.81178-1.188-1.0799-1.5916-0.26811-0.3961-0.48409-0.6949-0.63305-0.8966-0.14895-0.2018-0.27555-0.3662-0.39471-0.4933 1.1544-0.6799 2.3162-1.3972 3.4854-2.1445 1.1693-0.7472 2.4949-1.629 3.9695-2.6377l3.6195-2.4733c1.4821-1.0088 2.7779-1.9279 3.9025-2.7424m-12.347-6.9253c-0.35004-0.7398-0.71496-1.4721-1.0948-2.2044-0.37983-0.7248-0.7671-1.4497-1.1618-2.1595-0.40216-0.7173-0.80433-1.4347-1.2288-2.137l-1.631 0.8593c-1.5789 0.8294-2.9716 1.5841-4.1781 2.2715-1.2139 0.6801-2.3832 1.3749-3.5301 2.0699-0.12662-0.3437-0.29047-0.7099-0.499-1.091-0.19363-0.3811-0.41706-0.8145-0.67027-1.2927-0.24577-0.4782-0.47664-0.9042-0.67028-1.2852-0.20108-0.3811-0.40216-0.7323-0.61069-1.0313 1.2214-0.5454 2.4502-1.1208 3.7014-1.7335 1.2512-0.6052 2.6588-1.3226 4.2451-2.152l3.8876-2.04c1.5789-0.8368 2.979-1.5916 4.1855-2.2715 1.2065-0.6875 2.413-1.3899 3.612-2.1222 0.12661 0.3437 0.28301 0.7174 0.4543 1.1134 0.16385 0.396 0.37982 0.8369 0.62559 1.3151 0.25321 0.4782 0.49154 0.8967 0.71496 1.2629 0.23087 0.3661 0.44686 0.7023 0.66284 1.0162-1.2884 0.5454-2.5545 1.1358-3.7685 1.741-1.2288 0.6053-2.629 1.3226-4.2153 2.1521 0.23832 0.5081 0.53622 1.1134 0.8937 1.8157 0.35749 0.7024 0.79689 1.5692 1.3406 2.6004 0.53623 1.0386 0.97563 1.8755 1.3331 2.5182 0.34259 0.6426 0.67029 1.2404 0.98308 1.7858 1.5789-0.8369 2.9641-1.5841 4.1557-2.2565 1.1842-0.6726 2.3832-1.375 3.5823-2.1073 0.13406 0.3513 0.28301 0.7173 0.4543 1.1134 0.1713 0.4035 0.37983 0.8369 0.63304 1.3152 0.24577 0.4782 0.48409 0.904 0.71497 1.2702 0.22343 0.3662 0.44685 0.7024 0.64793 1.0088-1.2735 0.5678-2.5322 1.1656-3.7834 1.7709s-2.6662 1.3226-4.2451 2.1595l-3.8876 2.0399c-1.5789 0.8295-2.979 1.5917-4.1855 2.2716-1.2065 0.6875-2.3832 1.3749-3.5227 2.0773-0.13405-0.3512-0.30535-0.7099-0.49898-1.0909-0.20108-0.3886-0.42451-0.8145-0.67028-1.2928-0.25321-0.4782-0.47664-0.9116-0.67772-1.2927-0.20108-0.381-0.40217-0.7248-0.6107-1.0312 1.2214-0.5454 2.4577-1.1208 3.7014-1.726 1.2512-0.6127 2.6662-1.3301 4.2525-2.1595l1.6236-0.8593c-0.35748-0.7323-0.71496-1.4721-1.065-2.2118m-14.497-44.272c1.7055-0.5081 3.2248-0.9863 4.543-1.4198 1.3182-0.4408 2.629-0.8966 3.9472-1.3823 0.067 0.3661 0.1415 0.7621 0.23087 1.1881 0.0968 0.4184 0.21597 0.8892 0.36492 1.4048 0.20854 0.6874 0.4543 1.4421 0.75965 2.2715 0.30535 0.8369 0.65539 1.9353 1.0576 3.3028 0.52878 1.7784 0.84902 3.4447 0.96073 4.999 0.10427 1.5468-0.0596 2.9665-0.51388 4.2517-0.44685 1.2852-1.2363 2.4061-2.346 3.37-1.1171 0.9565-2.6588 1.7336-4.6175 2.3165-1.7129 0.508-3.3439 0.6874-4.893 0.523-1.5491-0.1569-2.9567-0.5829-4.2302-1.2703-1.2661-0.6949-2.3534-1.6065-3.2471-2.7498-0.90115-1.1358-1.564-2.436-2.0034-3.908-0.4543-1.5543-0.83413-2.8768-1.1395-3.9828-0.30535-1.0984-0.58091-2.0549-0.81922-2.8618-0.1415-0.5156-0.28301-0.9864-0.40217-1.3974-0.12661-0.4184-0.26067-0.7921-0.40961-1.1283 1.3033-0.2989 2.629-0.6277 3.9695-0.9789 1.3406-0.3586 2.8673-0.7846 4.5802-1.2927zm-5.109 6.5158-1.8544 0.553c-0.5958 0.1793-1.1395 0.3437-1.6384 0.5006-0.48409 0.157-0.80434 0.2615-0.95329 0.3064 0.0745 0.3138 0.16385 0.6949 0.27556 1.1283 0.10427 0.4409 0.25322 0.9863 0.43941 1.6289 0.69261 2.3314 2.0332 3.9529 4.0291 4.8421 1.9885 0.8892 4.5951 0.8594 7.805-0.097 1.281-0.3811 2.3758-0.8892 3.2844-1.5319 0.91605-0.6426 1.631-1.3823 2.1598-2.2118 0.52133-0.8368 0.85647-1.741 0.97563-2.7199 0.1266-0.9863 0.0223-2.0175-0.29046-3.0861-0.21598-0.7471-0.41705-1.3524-0.58091-1.8083-0.17129-0.4558-0.34259-0.9116-0.52877-1.3748-0.1415 0.045-0.46174 0.1345-0.96073 0.269-0.49898 0.1345-1.0576 0.2989-1.6757 0.4782l-1.8544 0.553-1.5491 0.4632-5.5037 1.6365zm6.9992-23.16c1.3629-0.2765 2.7184-0.5829 4.0812-0.9116 0.0223 0.3735 0.0521 0.7696 0.0968 1.203 0.0372 0.4334 0.10426 0.9116 0.20109 1.4421 0.0894 0.5305 0.19363 1.0088 0.29045 1.4272 0.11171 0.4185 0.20853 0.807 0.32024 1.1583-1.3927 0.1569-2.7779 0.3362-4.1483 0.5305-1.3778 0.1943-2.9418 0.4483-4.6994 0.7547l-4.3196 0.7547c-1.2139 0.2092-2.3758 0.4185-3.5003 0.6202-1.1171 0.2092-2.0928 0.3961-2.9194 0.5604 0.21597 1.2105 0.45429 2.4136 0.72985 3.6166s0.58836 2.4061 0.95328 3.6091c-0.23832 0-0.46174 0.01-0.65538 0.022-0.19363 0.01-0.45429 0.045-0.79688 0.1046-0.34259 0.06-0.60325 0.1122-0.78944 0.1719-0.18619 0.052-0.34258 0.1121-0.46175 0.1793-0.0745-0.5827-0.17873-1.2926-0.31279-2.137-0.14151-0.8369-0.33514-1.9951-0.58836-3.4597-0.22342-1.2927-0.40961-2.3463-0.54367-3.1533-0.13405-0.7921-0.25321-1.4198-0.32769-1.898-0.0894-0.4782-0.1564-0.8369-0.20852-1.0835-0.0522-0.2466-0.0968-0.4483-0.14896-0.6127 1.3257-0.142 2.6737-0.3138 4.0515-0.5081 1.3703-0.2018 2.9418-0.4484 4.6994-0.7547l4.3196-0.7547c1.7576-0.3064 3.3216-0.5978 4.677-0.8818m-9.1724-13.751-1.3182 0.097c-1.78 0.127-3.3588 0.2615-4.7441 0.4035-1.3778 0.1419-2.7332 0.2988-4.0515 0.4782 0.0149-0.3661 7e-3 -0.7621-0.0223-1.1956-0.0297-0.43334-0.067-0.91155-0.10426-1.4496-0.0372-0.53796-0.0745-1.0236-0.10426-1.457-0.0297-0.42592-0.0745-0.82944-0.14895-1.1881 1.3406-7e-3 2.7034-0.0452 4.0812-0.0972 1.3852-0.0603 2.9716-0.14944 4.7515-0.27648l4.3792-0.31383c1.78-0.12704 3.3588-0.26154 4.7366-0.40352 1.3852-0.14197 2.7705-0.30636 4.1557-0.48568-0.0149 0.36618-0.0223 0.76216-0.0223 1.1956s0.0149 0.91908 0.0522 1.4571c0.0372 0.58285 0.11171 1.2404 0.22342 1.9802 0.10427 0.73969 0.20109 1.6588 0.27557 2.7572 0.0596 0.8145 0.0894 1.5169 0.0819 2.0997 0 0.5903-0.0298 1.091-0.0819 1.5169-0.0596 0.426-0.14896 0.7996-0.26812 1.1209-0.11171 0.3213-0.26066 0.6351-0.43195 0.9265-0.42452 0.6725-0.97563 1.233-1.6459 1.6589-0.66283 0.4259-1.4821 0.6725-2.4502 0.7398-1.564 0.1121-2.8748-0.2243-3.9174-1.0162-1.0501-0.7921-1.8395-1.9802-2.3609-3.5644-1.7427 1.1657-3.4854 2.4061-5.2133 3.7213-1.7353 1.3076-3.4482 2.6227-5.1388 3.9305 7e-3 -0.4933-7e-3 -0.9789-0.0372-1.4572-0.0372-0.4707-0.067-0.9564-0.10427-1.4496-0.0372-0.5007-0.0745-0.9864-0.10426-1.4721-0.0372-0.4857-0.0968-0.9714-0.1713-1.4646l9.7265-6.5009zm6.2857 4.6777c0.93839-0.068 1.6831-0.2168 2.2268-0.4484 0.54367-0.2391 0.95328-0.5679 1.2139-0.9863 0.26067-0.4185 0.40961-0.9416 0.4543-1.5842 0.0372-0.6426 0.0223-1.4047-0.0372-2.2864-2.9194 0.14198-5.8389 0.3213-8.7583 0.53046-0.0149 0.1271-0.0223 0.2541-0.0223 0.3737 0 0.1195 0 0.2316 7e-3 0.3362 0.0968 1.4198 0.55856 2.4808 1.3703 3.1832 0.81923 0.695 1.9959 0.9939 3.545 0.8818m-4.7419-38.082c1.5863 0.0897 3.0684 0.4708 4.4238 1.1433 1.3629 0.67247 2.5396 1.5766 3.5376 2.7124 0.99052 1.1359 1.7427 2.4808 2.2566 4.05 0.51388 1.5617 0.72241 3.2804 0.61815 5.1559-0.0968 1.726-0.42451 3.3177-0.97563 4.7748-0.55856 1.4571-1.3406 2.7125-2.346 3.7586-1.0129 1.0461-2.2492 1.8456-3.7387 2.3986-1.4821 0.55297-3.1875 0.7771-5.1239 0.665-1.6087-0.0897-3.0982-0.48575-4.4611-1.1732-1.3629-0.69494-2.5322-1.614-3.5078-2.7648-0.98308-1.1433-1.7204-2.4883-2.2194-4.0276-0.49155-1.5393-0.69263-3.213-0.58836-5.0288 0.0968-1.6962 0.39472-3.2878 0.89371-4.7599 0.50642-1.472 1.2586-2.7423 2.2492-3.7959 0.99796-1.061 2.2417-1.868 3.7238-2.4285 1.4895-0.56784 3.2397-0.7921 5.258-0.68m-0.37238 19.398c1.3927 0.0822 2.6513-0.0223 3.7759-0.30636 1.1246-0.28396 2.0928-0.70982 2.9045-1.2776 0.80433-0.57544 1.4374-1.2853 1.914-2.1297 0.46174-0.85179 0.7224-1.7933 0.78199-2.8245 0.0596-1.0984-0.14151-2.0997-0.61815-3.0038-0.48409-0.90421-1.1544-1.6813-2.0257-2.3314-0.86392-0.6576-1.8991-1.1732-3.0907-1.5543-1.199-0.38112-2.48-0.60525-3.8578-0.68748-1.7129-0.0971-3.1726 8e-3 -4.3792 0.30636-1.199 0.29896-2.1821 0.73982-2.9343 1.3227-0.75221 0.58284-1.3108 1.2777-1.6757 2.0773-0.37237 0.79951-0.5809 1.6514-0.63304 2.563-0.0521 0.96389 0.0968 1.9054 0.46175 2.8095 0.35748 0.9042 0.93094 1.7112 1.7353 2.4136 0.79689 0.70241 1.8321 1.2927 3.0982 1.7635 1.2661 0.47068 2.7779 0.76216 4.543 0.8592m4.9466-37.09c-1.2288-0.77716-2.4726-1.5692-3.7536-2.3762-1.2735-0.80704-2.5322-1.5841-3.7759-2.3463-1.2437-0.76216-2.346-1.4346-3.3216-2.0025 0.14895-0.47081 0.29045-1.0088 0.41706-1.5991 0.067-0.27648 0.11916-0.54549 0.18619-0.82198 0.0596-0.26901 0.0968-0.55296 0.11916-0.82938 0.9086-0.0452 2.0853-0.10463 3.5376-0.17939 1.4448-0.0747 2.9864-0.16438 4.6175-0.26148 1.6236-0.10463 3.2769-0.20926 4.9452-0.32883 1.6682-0.1121 3.195-0.22413 4.5802-0.33623 1.3927-0.1121 2.5843-0.20173 3.5525-0.26901 0.97562-0.0747 1.5789-0.12704 1.8023-0.16439-0.14895 0.44834-0.283 0.89667-0.40961 1.3301-0.12661 0.44086-0.23832 0.86679-0.33514 1.2852-0.0968 0.42593-0.17129 0.85185-0.23832 1.2927-0.0596 0.44087-0.11916 0.87426-0.1713 1.3077-1.4076 0.0151-2.8673 0.0445-4.3642 0.0822-1.4969 0.0446-2.9716 0.0972-4.4313 0.16438-1.4523 0.0596-2.8673 0.11957-4.2302 0.17939-1.3704 0.0675-2.6364 0.1195-3.7908 0.17185l-0.0149 0.0603c1.2214 0.76216 2.5396 1.5841 3.9695 2.4583 1.4225 0.88173 2.8152 1.7411 4.1855 2.5705 1.3704 0.83685 2.6364 1.6066 3.7908 2.309 1.1544 0.69488 2.0704 1.2404 2.763 1.6364-0.11172 0.26901-0.20109 0.52309-0.29045 0.7697-0.0894 0.2466-0.16385 0.50061-0.22343 0.7771-0.0596 0.27648-0.10427 0.54543-0.12661 0.79957-0.0223 0.26148-0.0447 0.53049-0.0596 0.81444-0.4841-0.0151-1.1395 0-1.9662 0.0596-0.82668 0.0603-1.7502 0.14204-2.763 0.23167-1.0129 0.0972-2.0779 0.20173-3.2099 0.31383-1.1246 0.11957-2.2417 0.2316-3.3439 0.35117-1.1097 0.11964-2.1523 0.2242-3.1429 0.31383-0.99052 0.0897-1.847 0.14951-2.5843 0.18685l-0.0149 0.0603c1.2288 0.71728 2.5917 1.487 4.0812 2.3164 1.4895 0.82945 2.9269 1.6364 4.327 2.4061 1.3927 0.77716 2.6662 1.4796 3.828 2.1147 1.1618 0.63512 2.0332 1.0909 2.6364 1.3824-0.22343 0.50062-0.37238 0.93401-0.4543 1.2852-0.0521 0.23913-0.0819 0.47821-0.10427 0.72481-0.0223 0.24654-0.0447 0.50815-0.0596 0.76963-0.36494-0.23907-0.96818-0.61271-1.8023-1.1283-0.82667-0.52302-1.8172-1.1283-2.9492-1.8232-1.132-0.69501-2.3758-1.4422-3.7089-2.2492-1.348-0.80704-2.696-1.614-4.0589-2.4285-1.3629-0.80697-2.696-1.599-4.0068-2.3612-1.3033-0.76963-2.48-1.4422-3.5152-2.025 0.14895-0.47821 0.29045-1.0087 0.41706-1.599 0.067-0.27654 0.11916-0.55296 0.18619-0.82198 0.0596-0.27648 0.0968-0.55296 0.11916-0.83691 2.7034-0.10463 5.4144-0.29883 8.1327-0.59031 2.7258-0.29142 5.4963-0.62019 8.3338-0.98636l0.0149-0.0603c-0.99052-0.62012-2.0928-1.3225-3.3216-2.0996m10.428-30.13c0.37238 0.15692 0.70006 0.37362 0.96818 0.65757 0.27555 0.28394 0.48409 0.59778 0.63304 0.94897 0.14895 0.3512 0.22343 0.72482 0.23087 1.1208 7e-3 0.38856-0.067 0.77712-0.22342 1.1507-0.14895 0.38109-0.37238 0.70987-0.65539 0.98634-0.27555 0.269-0.5958 0.47823-0.94583 0.62767-0.35004 0.14945-0.71497 0.22418-1.1097 0.23165-0.39473 7e-3 -0.77455-0.0672-1.1544-0.22417-0.37983-0.14945-0.70007-0.37362-0.97563-0.65757-0.27556-0.28394-0.48409-0.59778-0.62559-0.94897-0.14895-0.3512-0.22343-0.72483-0.23832-1.1134 0-0.39604 0.0745-0.78459 0.22343-1.1582 0.15639-0.38109 0.37237-0.70239 0.65538-0.97887 0.283-0.27647 0.60325-0.4857 0.94583-0.63515 0.35004-0.14197 0.72242-0.2167 1.1097-0.22416 0.40217-0.0149 0.782 0.0598 1.1618 0.21669m318.9-27.767c1.1767-0.73976 2.3385-1.5094 3.5003-2.2865 0.14895 0.33625 0.32025 0.69493 0.51388 1.091 0.18619 0.38109 0.41706 0.81448 0.69262 1.2778 0.26812 0.46328 0.52877 0.87426 0.77455 1.2329 0.24576 0.3512 0.47664 0.67999 0.70007 0.97141-1.2512 0.63514-2.48 1.2852-3.7014 1.9577-1.214 0.66504-2.5918 1.4571-4.1334 2.3612l-3.7834 2.2268c-1.0575 0.6202-2.0779 1.2254-3.0535 1.8158-0.97562 0.5903-1.8246 1.1059-2.5322 1.5542 0.61815 1.0536 1.2661 2.0997 1.9438 3.1309 0.67773 1.0237 1.3927 2.0399 2.1523 3.0487-0.22343 0.0822-0.42451 0.15692-0.60325 0.23912-0.17875 0.0822-0.40962 0.20922-0.71497 0.38108-0.29045 0.17934-0.52132 0.32131-0.67028 0.44087-0.16384 0.11209-0.283 0.22417-0.37237 0.32878-0.27556-0.51559-0.62559-1.1433-1.0427-1.883-0.41706-0.73975-1.0129-1.7485-1.7576-3.0338-0.67028-1.1358-1.2065-2.0549-1.6236-2.7648-0.40217-0.68745-0.72241-1.2404-0.96818-1.6588-0.24577-0.42592-0.4394-0.73229-0.56602-0.94151-0.13404-0.20923-0.25321-0.38109-0.36492-0.52307 1.1916-0.59778 2.3981-1.2329 3.6195-1.9054 1.2139-0.66503 2.5992-1.4496 4.1334-2.3612l3.7908-2.2267c1.5342-0.90415 2.8896-1.7336 4.0664-2.4733m-17.069 6.2558c-0.27556-0.44087-0.55112-0.84437-0.82668-1.218-0.283-0.37361-0.55112-0.73228-0.82667-1.0984-0.26811-0.36615-0.54368-0.73229-0.81923-1.0984-0.28301-0.37362-0.57346-0.73228-0.87881-1.0611 0.64049-0.91162 1.2884-1.8457 1.9438-2.8021 0.65538-0.94899 1.3033-1.9204 1.9364-2.9142-0.39472-0.56043-0.79688-1.1208-1.2065-1.6813-0.40216-0.56042-0.81178-1.1208-1.2214-1.6663-0.33513-0.44834-0.67771-0.89668-1.0203-1.3376-0.34259-0.44086-0.69262-0.88173-1.0427-1.3226-1.132 0.32131-2.2566 0.65756-3.3514 1.0312-1.0948 0.35867-2.1523 0.73975-3.1801 1.1358-0.11917-0.23165-0.25323-0.44835-0.40217-0.64262-0.14895-0.20176-0.29791-0.4035-0.4543-0.61273-0.1564-0.20923-0.30535-0.41845-0.4692-0.6202-0.14895-0.20923-0.33513-0.41846-0.55111-0.63515 0.60325-0.1345 1.4299-0.32131 2.48-0.5679 1.0501-0.25405 2.2268-0.54548 3.5301-0.88172 1.3108-0.33626 2.7109-0.7024 4.2153-1.0835 1.497-0.38856 3.0088-0.78459 4.5355-1.1956 1.5193-0.40351 3.0237-0.79953 4.4983-1.203 1.4746-0.39603 2.8524-0.76965 4.1185-1.1283 0.0894 0.19428 0.18619 0.38109 0.26812 0.56042 0.0968 0.17187 0.20853 0.34373 0.33513 0.5156 0.12661 0.17186 0.26067 0.32877 0.40962 0.46328 0.1415 0.1345 0.29045 0.27647 0.4543 0.42592-1.0501 1.6514-2.1747 3.4223-3.3663 5.3128-1.199 1.883-2.3683 3.7511-3.4929 5.5968-1.1395 1.8531-2.197 3.6241-3.1875 5.3128-0.99797 1.6962-1.8023 3.1608-2.4279 4.4161m6.025-18.86c-1.3703 0.32879-2.7034 0.67252-4.0068 1.0312-1.3033 0.36615-2.629 0.74724-3.9546 1.1582l3.545 4.7374c0.75964-1.1657 1.5044-2.3164 2.2417-3.4447 0.72241-1.1283 1.4523-2.2865 2.1747-3.4821m-10.765-15.729c0.99052-0.9714 1.981-1.9577 2.9567-2.9665 0.20853 0.29889 0.4543 0.6202 0.71496 0.96392 0.26811 0.33626 0.58835 0.70988 0.94584 1.1059 0.35748 0.39602 0.70006 0.74722 1.0129 1.0461 0.31279 0.29888 0.6107 0.56789 0.88626 0.807-1.0874 0.88173-2.1598 1.7784-3.2099 2.6826-1.0576 0.90416-2.2417 1.9578-3.5674 3.1608l-3.2397 2.974c-1.3182 1.203-2.48 2.2865-3.478 3.2579-0.99053 0.97141-1.9587 1.9353-2.8822 2.9067-0.21599-0.30636-0.46176-0.61273-0.75221-0.93404-0.29045-0.31383-0.61814-0.6725-0.98308-1.076-0.35747-0.39603-0.68516-0.7547-0.97561-1.076-0.29046-0.31384-0.57347-0.59778-0.84902-0.84438 1.0426-0.83689 2.0928-1.7037 3.1428-2.6078 1.0501-0.91162 2.2417-1.9652 3.5599-3.1757l3.2471-2.959c1.3108-1.2105 2.4726-2.294 3.4705-3.2654m-22.943-15.069c1.1842-1.345 2.2194-2.548 3.1056-3.6166 0.88626-1.076 1.7576-2.1595 2.6215-3.2729 0.25322 0.28395 0.52133 0.5679 0.82668 0.88173 0.2979 0.30636 0.64793 0.64262 1.0501 1.0013 0.52878 0.47075 1.1395 0.97887 1.8396 1.5244 0.70007 0.54548 1.5789 1.2927 2.6439 2.2342 1.3852 1.2329 2.5322 2.4733 3.4482 3.7361 0.91604 1.2553 1.5193 2.5481 1.8097 3.8781 0.29791 1.3301 0.22343 2.6975-0.21597 4.1023-0.43941 1.4123-1.3406 2.8843-2.6886 4.4236-1.1842 1.3375-2.4726 2.3538-3.8727 3.0412-1.4001 0.69492-2.8226 1.0835-4.26 1.1732-1.4448 0.0822-2.845-0.11956-4.2078-0.60526-1.3629-0.49317-2.6141-1.2404-3.761-2.2566-1.2065-1.076-2.2268-1.9951-3.0684-2.7722-0.84156-0.76965-1.5789-1.4347-2.2045-1.9951-0.40216-0.35867-0.75964-0.67999-1.0873-0.96393-0.32025-0.29142-0.63304-0.53801-0.93839-0.74723 0.95328-0.94899 1.9066-1.9278 2.8524-2.9366 0.95328-1.0162 2.0183-2.1894 3.2024-3.5344zm-0.8937 8.242-1.281 1.4496c-0.41706 0.47075-0.782 0.90415-1.1171 1.3002-0.33514 0.38857-0.55112 0.6501-0.65538 0.76218 0.23087 0.22417 0.50643 0.50812 0.83412 0.82196 0.32024 0.31383 0.72985 0.69492 1.2288 1.1358 1.8246 1.614 3.8131 2.2716 5.9729 1.9727 2.1598-0.29889 4.3494-1.7112 6.5762-4.2293 0.8788-1.0088 1.5416-2.0175 1.9736-3.0487 0.43196-1.0237 0.64794-2.0325 0.66283-3.0188 0-0.98635-0.19364-1.9279-0.6107-2.832-0.40961-0.89667-1.0352-1.7186-1.8693-2.4584-0.58091-0.51558-1.065-0.92656-1.4523-1.2255-0.38728-0.29141-0.77455-0.59031-1.1693-0.8892-0.0968 0.11208-0.32769 0.36614-0.67772 0.73976-0.35003 0.38109-0.73731 0.81448-1.1618 1.3002l-1.2884 1.4571-1.065 1.2105-3.8057 4.3115zm-19.842-25.419c0.80434-1.2479 1.4672-2.3089 1.981-3.1832 0.51389-0.88174 0.96819-1.6514 1.3704-2.3089 0.44685 0.41845 0.82668 0.72481 1.132 0.92657 0.30535 0.19427 0.74475 0.41845 1.3033 0.65008 0.55111 3.4746 1.1097 6.8895 1.6682 10.259 0.55112 3.37 1.132 6.8073 1.7427 10.312l1.5268-2.3613 1.698-2.6377c0.57346-0.88921 1.132-1.7635 1.6757-2.6302 0.54367-0.86679 1.0501-1.6663 1.5118-2.3986 0.4543-0.72481 0.84157-1.36 1.1544-1.9054 0.31279-0.54547 0.50643-0.91908 0.58835-1.1208 0.44686 0.41845 0.81923 0.72482 1.132 0.92657 0.30536 0.20175 0.73731 0.41845 1.3033 0.65756-1.1544 1.5841-2.1896 3.0263-3.0982 4.3265-0.91604 1.2927-1.7725 2.5182-2.5694 3.6764-0.78943 1.1507-1.564 2.3015-2.3162 3.4447-0.75221 1.1433-1.5491 2.3687-2.3907 3.6764l-2.1002 3.2579c-0.34258-0.269-0.70006-0.53053-1.0799-0.77712-0.40217-0.25406-0.75964-0.47075-1.0873-0.62767-0.91605-6.7624-2.0332-13.704-3.3663-20.81-0.35749 0.50812-0.71497 1.0237-1.0576 1.5468-0.35003 0.51559-0.70007 1.0536-1.0501 1.5916l-2.0332 3.1533c-0.70007 1.0835-1.2959 2.0101-1.78 2.7797-0.47664 0.76964-0.87881 1.4197-1.1991 1.9578-0.32024 0.538-0.5809 0.97886-0.78199 1.3226-0.19363 0.3512-0.35003 0.62768-0.45429 0.83689-0.19364-0.17933-0.40217-0.33624-0.61815-0.47822-0.21598-0.1345-0.43195-0.27648-0.61815-0.4035-0.4245-0.269-0.84902-0.52306-1.2884-0.75471 0.13404-0.11955 0.50643-0.60525 1.1395-1.4571 0.61814-0.85184 1.3852-1.898 2.2715-3.1384 0.87881-1.2329 1.8321-2.5854 2.8375-4.05 1.0129-1.4646 1.9587-2.8843 2.8524-4.2592m-22.796 6.746c-1.2512-0.5679-2.3683-1.2255-3.3365-1.9876-0.96818-0.7547-1.7129-1.629-2.2417-2.6078-0.52878-0.98635-0.80434-2.0698-0.82668-3.2504-0.0224-1.1806 0.283-2.4733 0.90115-3.8632 0.35748-0.79207 0.67773-1.4945 0.96818-2.1072 0.283-0.61272 0.55112-1.1881 0.78943-1.7186 0.23833-0.53053 0.4692-1.0386 0.70752-1.5244 0.22343-0.49317 0.4543-1.0013 0.69262-1.5318 0.71496-1.5916 1.2884-2.8843 1.7129-3.8781 0.41707-0.99382 0.71497-1.7485 0.90115-2.2566 0.37238 0.21671 0.7671 0.4334 1.1618 0.6501 0.39473 0.2167 0.7969 0.41097 1.1842 0.59031 0.39472 0.17186 0.80434 0.34373 1.2288 0.50064 0.42452 0.15692 0.84157 0.2989 1.2512 0.44087-1.0501 1.8232-1.9662 3.5419-2.7407 5.1634-0.78199 1.629-1.5491 3.2878-2.3087 4.9766-0.80433 1.7934-1.3182 3.2953-1.564 4.5133-0.23832 1.218-0.24577 2.2342-0.0149 3.0636 0.23833 0.82942 0.66284 1.5019 1.3033 2.025 0.64049 0.52305 1.4374 1.0088 2.3981 1.4422 1.1767 0.53053 2.2343 0.65009 3.1652 0.35867 0.93095-0.28395 1.7874-0.84438 2.5694-1.6738 0.78945-0.82943 1.5044-1.8606 2.1523-3.0935 0.64794-1.2329 1.281-2.5406 1.8991-3.9155 0.6107-1.36 1.1916-2.7199 1.7576-4.0874 0.57346-1.36 1.1171-2.7423 1.6459-4.1397 0.26066 0.16439 0.50642 0.32131 0.75219 0.47076 0.23832 0.14197 0.4692 0.26152 0.68518 0.35866 0.25321 0.11957 0.50642 0.20923 0.7522 0.28395 0.24577 0.0822 0.50643 0.15692 0.78199 0.23165-0.23087 0.41845-0.53622 0.97887-0.89371 1.6887-0.37238 0.70986-0.78944 1.5318-1.2512 2.4733-0.4692 0.93403-0.97563 1.9727-1.5193 3.1085s-1.1097 2.3463-1.6831 3.6241c-1.5342 3.4223-3.3737 5.5445-5.5112 6.3664s-4.6249 0.59032-7.4699-0.69492m-32.644-18.956c-0.78944 2.2865-1.5789 4.5805-2.3683 6.8745-0.23833-0.11209-0.48409-0.20176-0.72241-0.269-0.25322-0.0673-0.49898-0.12703-0.72241-0.18681-0.25322-0.0747-0.49154-0.1345-0.72986-0.20176-0.23832-0.0598-0.49154-0.11208-0.7522-0.1345 1.6236-3.4074 3.1578-6.8147 4.6249-10.215 1.4672-3.4074 2.9045-6.8745 4.3121-10.401 0.21598 0.0971 0.41706 0.19428 0.60325 0.27648 0.19364 0.0822 0.39473 0.15692 0.63304 0.21669 0.18619 0.0523 0.38728 0.0897 0.60325 0.11956 0.20853 0.0224 0.43941 0.0449 0.68517 0.0598 0.22343 1.4048 0.4692 2.832 0.74475 4.2891 0.26067 1.4571 0.53623 2.9067 0.80433 4.3564 0.26812 1.4422 0.55113 2.8619 0.84159 4.2592 0.283 1.3973 0.55111 2.7199 0.81922 3.9753 1.8768-2.0026 3.761-4.1098 5.6825-6.3365 1.914-2.2193 3.7684-4.4386 5.5633-6.6653 0.49153 0.24658 0.92349 0.41844 1.2959 0.51558 0.35748 0.0972 0.80433 0.16439 1.3554 0.19429-0.27555 1.8457-0.56601 3.8408-0.87136 5.9629-0.31279 2.1296-0.61814 4.2069-0.90859 6.2394-0.2979 2.0325-0.55857 3.9304-0.78944 5.7014-0.22343 1.7709-0.37982 3.2056-0.47665 4.2966-0.40216-0.14944-0.81177-0.28394-1.2437-0.4035-0.42451-0.11208-0.84902-0.22417-1.2661-0.33625-0.40961-0.11209-0.83412-0.22417-1.2735-0.34373-0.43941-0.11208-0.87882-0.20922-1.3257-0.28394 0.4692-2.1744 0.91605-4.5432 1.3406-7.1136 0.42451-2.563 0.84902-5.1111 1.2512-7.6367l-0.0596-0.0149c-1.8395 2.1446-3.6493 4.2443-5.4218 6.3141-1.78 2.0698-3.545 4.1546-5.3026 6.2543-0.10426-0.0523-0.19363-0.0971-0.28301-0.12703-0.0894-0.0374-0.19363-0.0673-0.2979-0.0971-0.10427-0.0299-0.20108-0.0523-0.29789-0.0672-0.0968-7e-3 -0.20109-0.0224-0.30535-0.0299-0.50644-2.6377-0.99798-5.268-1.4895-7.9057-0.49154-2.6303-1.0054-5.3053-1.5491-8.0178l-0.0671-0.0149c-0.96818 2.3089-1.847 4.6104-2.6364 6.8969m-40.652-7.5694c0.0596-1.5991 0.41707-3.0861 1.065-4.461 0.64794-1.3749 1.5268-2.5705 2.6439-3.5867 1.1246-1.0088 2.4577-1.7859 4.0068-2.3314 1.5491-0.53801 3.2546-0.77712 5.1239-0.69493 1.7204 0.0673 3.3142 0.37362 4.7813 0.90415 1.4597 0.53054 2.7183 1.3002 3.7759 2.294 1.0575 0.99382 1.8768 2.2268 2.4502 3.7063 0.58091 1.4795 0.81923 3.1907 0.74475 5.1335-0.067 1.614-0.4245 3.116-1.0948 4.4908-0.67028 1.3749-1.5714 2.563-2.696 3.5643-1.132 1.0013-2.4577 1.7635-3.9844 2.2865-1.5342 0.52306-3.195 0.74723-4.9973 0.67251-1.698-0.0672-3.2918-0.34372-4.7664-0.82195-1.4746-0.4857-2.7481-1.218-3.8206-2.1969-1.065-0.98635-1.8917-2.2193-2.48-3.6988-0.58091-1.4795-0.83413-3.2355-0.75221-5.2605m19.334 0.0747c0.0596-1.4048-0.0596-2.6676-0.36492-3.7959-0.2979-1.1208-0.73731-2.0848-1.3182-2.8843-0.5809-0.79954-1.2959-1.4272-2.1523-1.883s-1.7948-0.70239-2.8301-0.74723c-1.0948-0.0449-2.0853 0.17934-2.979 0.67251-0.89371 0.49318-1.6608 1.1806-2.2938 2.0624-0.64049 0.87426-1.1395 1.9204-1.497 3.1234-0.36493 1.2105-0.56601 2.5032-0.6256 3.8856-0.067 1.7186 0.0596 3.1832 0.37238 4.3862 0.3128 1.203 0.77454 2.1744 1.3629 2.9217 0.5958 0.74724 1.2959 1.3002 2.1002 1.6589 0.80434 0.3512 1.6608 0.54548 2.562 0.58284 0.96818 0.0449 1.8991-0.12703 2.7928-0.50065 0.89371-0.37361 1.6906-0.96392 2.3832-1.7784 0.68516-0.81448 1.2512-1.8606 1.7129-3.1384 0.44685-1.2778 0.70752-2.8021 0.77454-4.5656m-30.062-6.0488c-0.1415-1.3824-0.30535-2.7722-0.49154-4.1621 0.37238 0.0149 0.7671 0.0224 1.199 0.0224 0.43196 0 0.91605-0.0149 1.4523-0.0523 0.53622-0.0373 1.0203-0.0897 1.4448-0.15692 0.4245-0.0598 0.81922-0.12703 1.1842-0.19428 0.0149 1.4048 0.0447 2.8021 0.10427 4.192 0.0596 1.3898 0.14894 2.9814 0.2681 4.7673l0.3128 4.3937c0.13405 1.7859 0.26812 3.37 0.40961 4.7524 0.14151 1.3898 0.29791 2.7423 0.47665 4.0724-0.36493-0.0149-0.7671-7e-3 -1.1916 0.0224-0.43196 0.0299-0.90859 0.0672-1.4448 0.10461-0.54367 0.0373-1.0203 0.0747-1.4448 0.10461-0.43195 0.0299-0.83412 0.0822-1.1916 0.14944-7e-3 -1.345-0.0447-2.7124-0.0968-4.1023s-0.1415-2.9815-0.27556-4.7673l-0.3128-4.3862c-0.1266-1.7859-0.26066-3.37-0.40216-4.7599m-26.043 6.1766c-0.26066-1.4646-0.50642-2.6975-0.72985-3.6838-0.21598-0.98634-0.40962-1.8681-0.56602-2.6228 0.6107 0 1.0948-0.0373 1.4523-0.10461 0.36493-0.0673 0.83413-0.20176 1.4076-0.41098 2.763 2.1446 5.4963 4.2592 8.1997 6.3365 2.7035 2.0773 5.4665 4.1845 8.2966 6.329l-0.49154-2.7722-0.55856-3.0861c-0.18619-1.0386-0.37983-2.0698-0.56601-3.0711-0.19364-1.0088-0.37238-1.9353-0.53623-2.7797-0.16385-0.85185-0.3128-1.5767-0.4543-2.1894s-0.26066-1.0162-0.33514-1.2255c0.6107 0 1.0948-0.0299 1.4597-0.0971 0.35003-0.0673 0.82668-0.20175 1.4001-0.41845 0.23832 1.9578 0.46174 3.7137 0.68517 5.2829 0.21598 1.5767 0.42451 3.0562 0.63303 4.446 0.20854 1.3824 0.42452 2.7573 0.65539 4.1023 0.23087 1.3525 0.48409 2.7946 0.75965 4.319l0.68517 3.8258c-0.43196 0.0299-0.86391 0.0897-1.3108 0.17186-0.4692 0.0822-0.87881 0.17934-1.2288 0.29143-5.2728-4.3115-10.821-8.6081-16.638-12.882 0.0894 0.6202 0.18618 1.2404 0.283 1.8606 0.10427 0.6202 0.20853 1.2404 0.3277 1.883l0.66283 3.6913c0.22342 1.2778 0.4245 2.3612 0.59579 3.243 0.1713 0.89667 0.32025 1.6439 0.4543 2.2566 0.13407 0.61273 0.23833 1.1134 0.33514 1.5019 0.0968 0.38856 0.1713 0.69492 0.23088 0.92657-0.26067 7e-3 -0.51388 0.0299-0.77454 0.0747-0.25322 0.0449-0.49154 0.0897-0.72242 0.1345-0.49153 0.0897-0.97562 0.19428-1.4523 0.32878 7e-3 -0.17934-0.0447-0.79207-0.16385-1.8457-0.12661-1.0536-0.29045-2.3314-0.48409-3.8408-0.19364-1.5169-0.4245-3.1533-0.68517-4.9093-0.26066-1.7635-0.53623-3.4522-0.82668-5.0662m-28.348 14.113c-0.52133-1.5094-0.72986-3.0188-0.63304-4.5432 0.0968-1.5169 0.47664-2.9516 1.1469-4.304 0.67028-1.36 1.6236-2.5705 2.8673-3.6465s2.7481-1.9204 4.5132-2.5406c1.6236-0.56789 3.2173-0.87425 4.7739-0.91162 1.5565-0.0449 3.0088 0.20176 4.3568 0.73229 1.348 0.53801 2.562 1.3824 3.6344 2.548 1.0799 1.1732 1.9364 2.6676 2.5768 4.4983 0.52877 1.5318 0.7373 3.0562 0.61814 4.588-0.11917 1.5244-0.52133 2.959-1.199 4.3115-0.68518 1.345-1.6385 2.5406-2.8748 3.5867-1.2214 1.0536-2.696 1.8756-4.4015 2.4733-1.6012 0.56042-3.1801 0.88921-4.7292 0.97887-1.5491 0.0971-3.0014-0.11209-4.3568-0.63514-1.3554-0.51559-2.5768-1.36-3.6567-2.5182-1.0948-1.1657-1.9662-2.705-2.6364-4.6179m18.016-7.0539c-0.46174-1.3301-1.0352-2.4584-1.7204-3.3924-0.70007-0.93404-1.4597-1.6663-2.2938-2.1969-0.83412-0.538-1.7278-0.85184-2.6886-0.96392s-1.9289 7e-3 -2.8971 0.34373c-1.0427 0.36614-1.8842 0.9415-2.5322 1.7261s-1.1097 1.7112-1.3852 2.7648c-0.26066 1.0536-0.35003 2.2118-0.23831 3.4597 0.0968 1.2554 0.38726 2.5331 0.83412 3.8408 0.56601 1.629 1.2214 2.9441 1.9512 3.9454 0.73731 1.0013 1.5118 1.7336 2.346 2.2118 0.81923 0.47823 1.6757 0.73229 2.5545 0.76965 0.87881 0.0373 1.7427-0.0971 2.5917-0.39603 0.91605-0.32132 1.7204-0.82195 2.4204-1.4945 0.69262-0.67997 1.214-1.5244 1.5565-2.5331 0.35002-1.0162 0.49898-2.1969 0.44684-3.5493-0.0521-1.3525-0.36493-2.8694-0.94583-4.5357m-39.999 23.074c1.0129 2.2043 2.0183 4.4012 3.0311 6.598-0.25321 0.0897-0.48409 0.19428-0.70751 0.32131-0.23088 0.12702-0.44686 0.24658-0.65539 0.35867-0.22342 0.12703-0.44685 0.24659-0.66283 0.36614-0.21597 0.11955-0.42451 0.26154-0.63304 0.42593-1.1767-3.5867-2.413-7.1136-3.7014-10.588-1.2959-3.4746-2.6439-6.9791-4.0664-10.506 0.22343-0.0747 0.43941-0.14944 0.63304-0.21669 0.19364-0.0747 0.39472-0.16439 0.60325-0.27648 0.16385-0.0971 0.34259-0.20923 0.51388-0.34373 0.1713-0.12702 0.35003-0.269 0.53622-0.42592 1.132 0.85185 2.2938 1.7112 3.5003 2.578 1.1916 0.86678 2.3832 1.7261 3.5823 2.5854 1.1916 0.85184 2.3758 1.6887 3.545 2.4958 1.1618 0.80701 2.2715 1.5766 3.3365 2.294-0.0372-2.7423-0.11916-5.5818-0.27556-8.511-0.1415-2.9366-0.33514-5.8284-0.57346-8.6828 0.52877-0.1644 0.95328-0.33627 1.2884-0.52307 0.3277-0.17934 0.69262-0.44834 1.1171-0.79954 1.0799 1.5244 2.2417 3.1608 3.4854 4.9093 1.2438 1.756 2.4577 3.4671 3.6418 5.1409 1.1842 1.6663 2.3087 3.2206 3.3663 4.6552 1.0576 1.4422 1.9289 2.5854 2.6141 3.4373-0.39472 0.17186-0.78199 0.35867-1.1693 0.57536-0.38727 0.20923-0.77454 0.41846-1.1469 0.62768-0.37982 0.20922-0.75965 0.42593-1.1618 0.64262-0.39471 0.2167-0.78199 0.45581-1.1544 0.70987-1.1618-1.8905-2.4726-3.9155-3.9323-6.0675-1.4597-2.1446-2.912-4.2742-4.3717-6.3813l-0.0521 0.0299c0.14895 2.8245 0.29045 5.6042 0.4394 8.3316s0.30535 5.4548 0.48409 8.1896c-0.10427 0.0374-0.20108 0.0673-0.2979 0.11208-0.0894 0.0299-0.17874 0.0747-0.26811 0.12703-0.0968 0.0523-0.18619 0.10462-0.26066 0.1644-0.0819 0.0523-0.16385 0.11956-0.25321 0.19428-2.1747-1.5617-4.3494-3.116-6.5166-4.6777-2.1747-1.5617-4.3866-3.1309-6.6506-4.715l-0.0596 0.0299c0.88625 2.3463 1.8395 4.6104 2.8524 6.8147m-17.165-1.0447c-0.84157-1.1059-1.7055-2.2043-2.5917-3.2953 0.32769-0.17933 0.67028-0.38108 1.0427-0.60525 0.36492-0.22417 0.77454-0.49318 1.2065-0.80702 0.43941-0.31383 0.81923-0.60525 1.1544-0.88919 0.32769-0.27648 0.63304-0.53801 0.90116-0.7846 0.74475 1.1881 1.5044 2.3612 2.2789 3.5195 0.7671 1.1582 1.6757 2.4659 2.7109 3.923l2.5545 3.5792c1.0426 1.4496 1.981 2.7349 2.8226 3.8408 0.84158 1.1059 1.6832 2.1819 2.5322 3.2206-0.32024 0.17187-0.66283 0.38856-1.0054 0.64262-0.35003 0.25406-0.74475 0.53053-1.1842 0.84437-0.43195 0.31384-0.83412 0.59778-1.1767 0.85184-0.35003 0.24659-0.66282 0.50064-0.93839 0.74723-0.70006-1.1358-1.4448-2.2865-2.2119-3.4447-0.77454-1.1507-1.6831-2.4584-2.7183-3.9155l-2.5545-3.5792c-1.0426-1.4571-1.9736-2.7423-2.8226-3.8482m-7.8445 16.45 0.86392 1.0013c1.1693 1.36 2.2194 2.5481 3.1578 3.5718 0.93839 1.0237 1.8768 2.0175 2.8152 2.974-0.3128 0.20923-0.61815 0.44834-0.94584 0.73229-0.32769 0.28394-0.69263 0.59778-1.1022 0.94898-0.40962 0.35867-0.7671 0.67251-1.0948 0.95646-0.32769 0.27647-0.61069 0.56042-0.8639 0.82942-0.80434-1.0685-1.6459-2.1446-2.5173-3.2206-0.87136-1.0835-1.8991-2.3015-3.0684-3.6614l-2.8673-3.3326c-1.1618-1.3525-2.2194-2.5406-3.1503-3.5643-0.94583-1.0312-1.9066-2.0399-2.8822-3.0487 0.30535-0.20923 0.63305-0.44086 0.97563-0.69493 0.35003-0.26153 0.72241-0.56789 1.132-0.91909 0.4394-0.38108 0.9235-0.82942 1.4448-1.36 0.52878-0.53053 1.214-1.1507 2.0406-1.8681 0.61814-0.538 1.1544-0.97886 1.631-1.3301 0.46175-0.34373 0.88626-0.62021 1.2586-0.8369 0.37238-0.20923 0.72985-0.35867 1.0501-0.46329 0.3277-0.0971 0.66283-0.16438 0.99797-0.19428 0.80434-0.0672 1.564 0.0449 2.3087 0.32132 0.74475 0.29141 1.4299 0.79953 2.063 1.5318 1.0278 1.1956 1.5342 2.4434 1.5342 3.7586-7e-3 1.3226-0.48409 2.6601-1.4374 4.0276 1.9736 0.70987 4.0068 1.3674 6.0921 1.9727 2.0779 0.60526 4.1557 1.1956 6.2112 1.7784-0.40217 0.29142-0.78199 0.59031-1.1395 0.90415-0.35748 0.30636-0.72241 0.62767-1.1022 0.94898-0.37237 0.32131-0.74475 0.64262-1.1022 0.96393-0.37238 0.31383-0.72986 0.65008-1.0724 1.0088l-11.015-3.9304zm-0.0223-7.8534c-0.61815-0.71735-1.1842-1.2255-1.698-1.5244-0.51389-0.29889-1.0129-0.42592-1.5044-0.38109-0.49154 0.0373-1.0054 0.23165-1.5342 0.58285-0.54367 0.3512-1.1469 0.82195-1.8172 1.3973 1.8693 2.2641 3.7536 4.5058 5.6676 6.7251 0.11172-0.0673 0.21598-0.1345 0.31279-0.20922 0.0968-0.0673 0.18619-0.13451 0.26811-0.20923 1.0724-0.92657 1.6459-1.9279 1.7204-3.0039 0.067-1.076-0.40216-2.1969-1.415-3.3775m-20.356 16.185c-0.38727-0.34372-0.67773-0.57536-0.88626-0.70987-0.22342 0.23912-0.48408 0.53801-0.78943 0.90415-0.30535 0.35867-0.62559 0.74724-0.96818 1.1732-0.34259 0.41845-0.68518 0.84438-1.0203 1.2927-0.34259 0.45581-0.64793 0.87425-0.9235 1.2628-0.14895-0.19429-0.29045-0.38109-0.4394-0.5679-0.1564-0.17934-0.32024-0.35867-0.49154-0.51558-0.17129-0.1644-0.35747-0.31384-0.55857-0.44834-0.18618-0.14198-0.38726-0.26901-0.5958-0.40351 0.51388-0.52307 0.98308-0.99382 1.3927-1.4123 0.4245-0.42592 0.84156-0.85931 1.2661-1.3002 0.4245-0.44087 0.88625-0.92657 1.3778-1.4496 0.49899-0.52305 1.0948-1.1582 1.78-1.9054 0.68518-0.73975 1.2735-1.3824 1.7502-1.9204 0.4841-0.538 0.9235-1.0312 1.3257-1.4795 0.40217-0.45581 0.78944-0.89668 1.1544-1.3301 0.37983-0.4334 0.782-0.90415 1.2214-1.4123 0.14151 0.19428 0.29046 0.38109 0.43941 0.56789 0.1564 0.18681 0.31279 0.35868 0.49154 0.5156 0.17129 0.16438 0.35748 0.31383 0.55111 0.44833 0.19365 0.14198 0.39472 0.27648 0.59581 0.40351-0.33514 0.27647-0.71497 0.59031-1.1171 0.94898-0.40217 0.35866-0.79689 0.71734-1.1767 1.091-0.37983 0.36615-0.73731 0.71734-1.0724 1.0461-0.34259 0.33626-0.62559 0.6202-0.83413 0.85931 0.0596 0.0897 0.1564 0.20176 0.29045 0.34373 0.13406 0.1345 0.2979 0.29889 0.49154 0.47075l1.2512 1.1657 5.9208 5.4996c1.3108 1.2105 2.4875 2.279 3.5376 3.1907 1.0426 0.91163 2.0853 1.7934 3.128 2.6377-0.28301 0.23912-0.56602 0.51559-0.86392 0.8369-0.29045 0.31384-0.61814 0.67251-0.98307 1.0685s-0.70007 0.7547-0.98307 1.0685c-0.2979 0.31384-0.55112 0.6202-0.7671 0.91909-0.92349-0.9714-1.8768-1.9428-2.8598-2.9217-0.99052-0.9714-2.1449-2.0698-3.4556-3.2878l-5.9133-5.4996c-0.46175-0.41845-0.87881-0.80701-1.2661-1.1507m10.286 16.098c-0.35003 0.38856-0.65538 0.76965-0.93094 1.1358-0.27555 0.37362-0.55112 0.73976-0.82667 1.1059-0.26812 0.35868-0.54368 0.72482-0.81923 1.0984-0.27556 0.37362-0.53622 0.75471-0.77454 1.1433-1.0427-0.35867-2.1226-0.72482-3.2173-1.0835-1.0948-0.37362-2.2045-0.71735-3.329-1.0536-0.42451 0.54549-0.85647 1.0835-1.2735 1.629-0.42451 0.54548-0.84157 1.0984-1.2512 1.6514-0.33514 0.44834-0.67028 0.90415-0.99797 1.3525-0.32025 0.46328-0.64794 0.91909-0.96074 1.3824 0.61815 1.0013 1.2586 1.9802 1.914 2.9366 0.66283 0.94898 1.3257 1.8681 1.981 2.7423-0.18619 0.17933-0.35748 0.37361-0.50643 0.56789-0.1415 0.20176-0.2979 0.4035-0.4543 0.61273-0.14895 0.20922-0.30534 0.41098-0.46175 0.6202-0.1564 0.20923-0.30534 0.44087-0.44685 0.70988-0.2979-0.54549-0.71496-1.2852-1.2437-2.2193-0.53623-0.94899-1.1395-1.9951-1.8321-3.1608-0.69261-1.1657-1.4299-2.4136-2.2194-3.7511s-1.5938-2.6826-2.413-4.035c-0.81178-1.3525-1.6161-2.69-2.413-3.9977-0.79689-1.3151-1.5416-2.5256-2.2417-3.6465 0.1713-0.14197 0.32025-0.28395 0.46176-0.42592 0.1415-0.13451 0.27555-0.28394 0.40216-0.45581 0.13406-0.17934 0.23832-0.3512 0.33514-0.52306 0.0894-0.17934 0.17874-0.35868 0.27555-0.56042 1.8693 0.54547 3.8802 1.1358 6.025 1.756 2.1374 0.62768 4.2525 1.2255 6.3378 1.7934 2.0853 0.56789 4.0812 1.091 5.9729 1.5766 1.8991 0.48571 3.5376 0.84438 4.9079 1.0984m-19.728-0.51559c0.69262 1.2329 1.4001 2.421 2.1076 3.5718 0.70751 1.1582 1.4523 2.3164 2.2119 3.4821l3.545-4.7374c-1.3331-0.41097-2.6439-0.80701-3.9248-1.1881-1.2884-0.38856-2.5992-0.76217-3.9398-1.1283m-11.037 22.476c-1.5416-0.91162-2.912-1.7112-4.1259-2.3837-1.214-0.67252-2.4502-1.3301-3.6865-1.9652 0.21597-0.29889 0.44685-0.6202 0.70006-0.97888 0.25322-0.3512 0.50644-0.76217 0.782-1.2254 0.37982-0.65009 0.75965-1.3376 1.1246-2.0549 0.36493-0.72481 0.74476-1.4272 1.1395-2.0922 0.782-1.3151 1.4821-2.2865 2.1226-2.9142 0.62559-0.62767 1.2586-1.0461 1.8842-1.2479 0.82668-0.30636 1.6236-0.42591 2.3758-0.3512 0.75965 0.0747 1.5565 0.3512 2.3832 0.85185 1.0576 0.62767 1.8544 1.345 2.4056 2.1446 0.55111 0.80701 0.8788 1.6663 0.96818 2.5929 0.0968 0.91909-7e-3 1.883-0.30536 2.8843-0.29045 1.0088-0.74475 2.025-1.3629 3.0636l-0.83413 1.4197c1.3852 0.82942 2.7779 1.6364 4.1706 2.4285s2.8003 1.5468 4.2004 2.2566c-0.22342 0.29142-0.44685 0.62767-0.66283 0.99382-0.22342 0.37361-0.46918 0.79206-0.7373 1.2553-0.283 0.46329-0.52133 0.88173-0.74476 1.2479-0.22342 0.37362-0.40216 0.73229-0.55111 1.0685-1.1097-0.7547-2.2417-1.5094-3.411-2.2566-1.1767-0.74723-2.5247-1.5766-4.0664-2.4883zm2.5396-9.699c-0.69262-0.41846-1.3331-0.69493-1.9066-0.82196s-1.0873-0.14197-1.5342-0.0449c-0.44685 0.10462-0.84157 0.29143-1.1842 0.57538-0.34259 0.28394-0.6256 0.6202-0.86391 1.0088l-0.37983 0.64262c-0.0447 0.0971-0.10427 0.1868-0.16385 0.28394-0.0521 0.0897-0.0894 0.17934-0.11916 0.26154 1.3257 0.81447 2.6215 1.6065 3.91 2.3837 1.2735 0.76965 2.562 1.5393 3.8578 2.3164 0.2681-0.46329 0.50643-0.97141 0.70751-1.5169 0.20108-0.55296 0.27556-1.1134 0.23087-1.6888-0.0447-0.58284-0.26066-1.1582-0.64048-1.741-0.38728-0.57537-1.0203-1.1283-1.914-1.6588"/>
</svg>
