<?xml version="1.0" encoding="UTF-8"?>
<svg width="200" height="256" version="1.1" viewBox="0 0 200 256" xmlns="http://www.w3.org/2000/svg">
 <path d="m-6.3437e-8 0 0.79883 156.24c3.728e-4 54.354 44.594 98.417 99.602 98.416 55.007-2.7e-4 99.599-44.062 99.6-98.416v-156.24z" style="fill:#00aeef;stroke-dashoffset:91.011;stroke-linejoin:round;stroke-width:.5;stroke:#f00"/>
 <path d="m22.291 0.099609s0.5676 208.19 0.25 156.14c1.19e-4 -10.731 2.2839-21.342 6.7031-31.145v-125z" style="fill:#fff"/>
 <path d="m52.613 0.099609v95.6a77.459 76.539 0 0 1 6.9531-4.7363v-90.863h-6.9531z" style="fill:#fff"/>
 <path d="m140.43 0.099609v90.861a77.459 76.539 0 0 1 6.9531 4.7383v-95.6h-6.9531z" style="fill:#fff"/>
 <path d="m170.76 0.099609v125a77.459 76.539 0 0 1 6.7031 31.143 77.459 76.539 0 0 1-0.00195 0.25h0.25195v-156.39h-6.9531z" style="fill:#fff"/>
 <path d="m81.363 0.099609v81.855a77.459 76.539 0 0 1 6.9512-1.373v-80.482h-6.9512z" style="fill:#fff"/>
 <path d="m111.69 0.099609v80.482a77.459 76.539 0 0 1 6.9512 1.3711v-81.854h-6.9512z" style="fill:#fff"/>
 <path d="m100 23.213-6.832 56.791a77.459 76.539 0 0 1 6.832-0.29883 77.459 76.539 0 0 1 6.832 0.29883l-6.832-56.791z" style="fill:#fff"/>
 <path d="m177.46 156.24h-154.92a77.459 76.539 0 0 0 77.459 76.539 77.459 76.539 0 0 0 77.459-76.539z" style="fill:#fff"/>
 <path d="m25.004 162.84c-0.73646 0-1.4512 0.11171-2.1484 0.28516a77.459 76.539 0 0 0 0.53711 4.4336c0.66227-0.25849 1.234-0.41992 1.6113-0.41992 1.1459 0 2.5219 1.1016 4.2949 2.8008s3.9446 3.9961 7.2695 3.9961 5.4946-2.2969 7.2676-3.9961c1.773-1.6992 3.149-2.8008 4.2949-2.8008s2.52 1.1016 4.293 2.8008 3.9446 3.9961 7.2695 3.9961 5.4965-2.2969 7.2695-3.9961c1.773-1.6992 3.1471-2.8008 4.293-2.8008s2.52 1.1016 4.293 2.8008 3.9446 3.9961 7.2695 3.9961 5.4965-2.2969 7.2695-3.9961c1.773-1.6992 3.1471-2.8008 4.293-2.8008s2.5219 1.1016 4.2949 2.8008c1.773 1.6992 3.9446 3.9961 7.2695 3.9961 3.3249 0 5.4946-2.2969 7.2676-3.9961s3.149-2.8008 4.2949-2.8008c1.1459 0 2.52 1.1016 4.293 2.8008s3.9446 3.9961 7.2695 3.9961c3.3249 0 5.4965-2.2969 7.2695-3.9961 1.773-1.6992 3.1471-2.8008 4.293-2.8008 1.1459 0 2.52 1.1016 4.293 2.8008s3.9446 3.9961 7.2695 3.9961c3.3249 0 5.4965-2.2969 7.2695-3.9961 1.773-1.6992 3.1471-2.8008 4.293-2.8008 1.1747 0 2.5728 1.0814 4.3477 2.748 1.7748 1.6667 3.8776 3.9132 7.127 4.0469 0.04337 0.00178 0.08562-0.00503 0.12891-0.00391a77.459 76.539 0 0 0 0.91992-4.4004c-0.33544 0.07104-0.64025 0.11693-0.87109 0.10742-1.1217-0.04615-2.5652-1.1981-4.3613-2.8848-1.7961-1.6866-3.995-3.9121-7.291-3.9121-3.3249 0-5.4946 2.297-7.2676 3.9961-1.773 1.6992-3.149 2.7988-4.2949 2.7988s-2.52-1.0997-4.293-2.7988c-1.773-1.6991-3.9446-3.9961-7.2695-3.9961-3.3249 0-5.4965 2.297-7.2695 3.9961-1.773 1.6992-3.1471 2.7988-4.293 2.7988s-2.5219-1.0997-4.2949-2.7988c-1.773-1.6991-3.9427-3.9961-7.2676-3.9961-3.3249 0-5.4965 2.297-7.2695 3.9961-1.773 1.6992-3.1471 2.7988-4.293 2.7988s-2.5219-1.0997-4.2949-2.7988c-1.773-1.6991-3.9446-3.9961-7.2695-3.9961s-5.4946 2.297-7.2676 3.9961c-1.773 1.6992-3.149 2.7988-4.2949 2.7988s-2.52-1.0997-4.293-2.7988c-1.773-1.6991-3.9446-3.9961-7.2695-3.9961s-5.4965 2.297-7.2695 3.9961c-1.773 1.6992-3.1471 2.7988-4.293 2.7988s-2.52-1.0997-4.293-2.7988c-1.773-1.6991-3.9446-3.9961-7.2695-3.9961s-5.4965 2.297-7.2695 3.9961c-1.773 1.6992-3.1471 2.7988-4.293 2.7988s-2.5219-1.0997-4.2949-2.7988c-1.773-1.6991-3.9446-3.9961-7.2695-3.9961zm12.373 22.887c-3.2301 0-5.3604 2.1622-7.1055 3.8438a77.459 76.539 0 0 0 2.0801 3.9531c0.24446-0.23366 0.50296-0.4754 0.73242-0.69531 1.773-1.6992 3.1471-2.8008 4.293-2.8008 1.1459 0 2.5219 1.1016 4.2949 2.8008s3.9446 3.9961 7.2695 3.9961c3.3249 0 5.4946-2.2969 7.2676-3.9961 1.773-1.6992 3.149-2.8008 4.2949-2.8008s2.52 1.1016 4.293 2.8008 3.9446 3.9961 7.2695 3.9961c3.3249 0 5.4965-2.2969 7.2695-3.9961 1.773-1.6992 3.1471-2.8008 4.293-2.8008s2.52 1.1016 4.293 2.8008 3.9446 3.9961 7.2695 3.9961c3.3249 0 5.4965-2.2969 7.2695-3.9961s3.1471-2.8008 4.293-2.8008c1.1459 0 2.5219 1.1016 4.2949 2.8008s3.9427 3.9961 7.2676 3.9961c3.3249 0 5.4965-2.2969 7.2695-3.9961s3.149-2.8008 4.2949-2.8008 2.52 1.1016 4.293 2.8008 3.9446 3.9961 7.2695 3.9961c3.3249 0 5.4946-2.2969 7.2676-3.9961s3.149-2.8008 4.2949-2.8008c1.1747 0 2.5728 1.0814 4.3477 2.748 1.7748 1.6667 3.8776 3.9132 7.127 4.0469 0.40958 0.01685 0.8148 0.00146 1.2168-0.03711a77.459 76.539 0 0 0 3.2344-5.6309c-1.7098 0.8227-3.4139 1.4065-4.2754 1.3711-1.1217-0.04616-2.5633-1.1981-4.3594-2.8848-1.7961-1.6866-3.995-3.9141-7.291-3.9141-3.3249 0-5.4965 2.2969-7.2695 3.9961s-3.1471 2.8008-4.293 2.8008c-1.1459 0-2.5219-1.1016-4.2949-2.8008s-3.9427-3.9961-7.2676-3.9961-5.4965 2.2969-7.2695 3.9961-3.149 2.8008-4.2949 2.8008c-1.1459 0-2.52-1.1016-4.293-2.8008s-3.9446-3.9961-7.2695-3.9961c-3.3249 0-5.4946 2.2969-7.2676 3.9961-1.773 1.6992-3.149 2.8008-4.2949 2.8008-1.1459 0-2.52-1.1016-4.293-2.8008-1.773-1.6991-3.9446-3.9961-7.2695-3.9961s-5.4965 2.2969-7.2695 3.9961-3.1471 2.8008-4.293 2.8008-2.5219-1.1016-4.2949-2.8008c-1.773-1.6991-3.9427-3.9961-7.2676-3.9961s-5.4965 2.2969-7.2695 3.9961-3.1471 2.8008-4.293 2.8008-2.5219-1.1016-4.2949-2.8008c-1.773-1.6991-3.9446-3.9961-7.2695-3.9961zm10.672 22.953c-1.3576 0-2.515 0.3921-3.5391 0.96094a77.459 76.539 0 0 0 3.5059 3.3418c0.010818-2e-4 0.022425-0.00391 0.033203-0.00391 1.1459 0 2.5219 1.1016 4.2949 2.8008 1.773 1.6992 3.9446 3.9961 7.2695 3.9961s5.4946-2.297 7.2676-3.9961c1.773-1.6991 3.149-2.8008 4.2949-2.8008s2.52 1.1016 4.293 2.8008c1.773 1.6992 3.9446 3.9961 7.2695 3.9961s5.4965-2.297 7.2695-3.9961c1.773-1.6991 3.1471-2.8008 4.293-2.8008s2.52 1.1016 4.293 2.8008c1.773 1.6992 3.9446 3.9961 7.2695 3.9961s5.4965-2.297 7.2695-3.9961c1.773-1.6991 3.1471-2.8008 4.293-2.8008s2.5219 1.1016 4.2949 2.8008c1.773 1.6992 3.9446 3.9961 7.2695 3.9961 3.3249 0 5.4946-2.297 7.2676-3.9961 1.773-1.6991 3.149-2.8008 4.2949-2.8008 1.1459 0 2.52 1.1016 4.293 2.8008 0.53297 0.51077 1.1089 1.0731 1.7344 1.6133a77.459 76.539 0 0 0 3.5078-2.7695c-0.6803-0.48285-1.4264-1.1411-2.2676-1.9473-1.773-1.6992-3.9427-3.9961-7.2676-3.9961-3.3249 0-5.4965 2.297-7.2695 3.9961s-3.1471 2.7988-4.293 2.7988-2.5219-1.0997-4.2949-2.7988c-1.773-1.6992-3.9446-3.9961-7.2695-3.9961s-5.4946 2.297-7.2676 3.9961c-1.773 1.6992-3.149 2.7988-4.2949 2.7988s-2.52-1.0997-4.293-2.7988c-1.773-1.6992-3.9446-3.9961-7.2695-3.9961s-5.4965 2.297-7.2695 3.9961-3.1471 2.7988-4.293 2.7988-2.52-1.0997-4.293-2.7988c-1.773-1.6992-3.9446-3.9961-7.2695-3.9961s-5.4965 2.297-7.2695 3.9961-3.1471 2.7988-4.293 2.7988-2.5219-1.0997-4.2949-2.7988c-1.773-1.6992-3.9446-3.9961-7.2695-3.9961z" style="color-rendering:auto;color:#000000;dominant-baseline:auto;fill:#00aeef;font-feature-settings:normal;font-variant-alternates:normal;font-variant-caps:normal;font-variant-east-asian:normal;font-variant-ligatures:normal;font-variant-numeric:normal;font-variant-position:normal;font-variation-settings:normal;image-rendering:auto;inline-size:0;isolation:auto;mix-blend-mode:normal;shape-margin:0;shape-padding:0;shape-rendering:auto;solid-color:#000000;stop-color:#000000;text-decoration-color:#000000;text-decoration-line:none;text-decoration-style:solid;text-indent:0;text-orientation:mixed;text-transform:none;white-space:normal"/>
 <path d="m100 79.705a77.459 76.539 0 0 0-77.459 76.539h154.92a77.459 76.539 0 0 0-77.459-76.539z" style="fill:#a6ce39"/>
</svg>
