<?xml version="1.0" encoding="UTF-8" standalone="no"?>
<!-- Generator: Adobe Illustrator 27.6.1, SVG Export Plug-In . SVG Version: 6.00 Build 0)  -->

<svg
   version="1.1"
   id="Layer_1"
   x="0px"
   y="0px"
   viewBox="0 0 424 601.8"
   style="enable-background:new 0 0 424 601.8;"
   xml:space="preserve"
   sodipodi:docname="Coat_of_arms_of_South_Yemen_(1970-1990) (3).svg"
   inkscape:export-filename="Coat_of_arms_of_South_Yemen_(1970-1990) (4).svg"
   inkscape:export-xdpi="96"
   inkscape:export-ydpi="96"
   inkscape:version="1.3 (0e150ed6c4, 2023-07-21)"
   xmlns:inkscape="http://www.inkscape.org/namespaces/inkscape"
   xmlns:sodipodi="http://sodipodi.sourceforge.net/DTD/sodipodi-0.dtd"
   xmlns="http://www.w3.org/2000/svg"
   xmlns:svg="http://www.w3.org/2000/svg"><defs
   id="defs53"><inkscape:path-effect
     effect="fillet_chamfer"
     id="path-effect53"
     is_visible="true"
     lpeversion="1"
     nodesatellites_param="F,0,0,1,0,0,0,1 @ F,0,0,1,0,0,0,1 @ F,0,0,1,0,0,0,1 @ F,0,0,1,0,0,0,1 @ F,0,0,1,0,0,0,1 | F,0,0,1,0,0,0,1 @ F,0,0,1,0,0,0,1 @ F,0,0,1,0,0,0,1 @ F,0,0,1,0,0,0,1 | F,0,0,1,0,0,0,1 @ F,0,0,1,0,0,0,1 @ F,0,0,1,0,0,0,1 @ F,0,0,1,0,0,0,1 @ F,0,0,1,0,0,0,1 @ F,0,0,1,0,0,0,1 | F,0,0,1,0,0,0,1 @ F,0,0,1,0,0,0,1 @ F,0,0,1,0,0,0,1 @ F,0,0,1,0,0,0,1 @ F,0,0,1,0,0,0,1 @ F,0,0,1,0,0,0,1 | F,0,0,1,0,0,0,1 @ F,0,0,1,0,0,0,1 @ F,0,0,1,0,0,0,1 @ F,0,0,1,0,0,0,1 @ F,0,0,1,0,0,0,1"
     radius="0"
     unit="px"
     method="auto"
     mode="F"
     chamfer_steps="1"
     flexible="false"
     use_knot_distance="true"
     apply_no_radius="true"
     apply_with_radius="true"
     only_selected="false"
     hide_knots="false" /></defs><sodipodi:namedview
   id="namedview53"
   pagecolor="#ffffff"
   bordercolor="#000000"
   borderopacity="0.25"
   inkscape:showpageshadow="2"
   inkscape:pageopacity="0.0"
   inkscape:pagecheckerboard="0"
   inkscape:deskcolor="#d1d1d1"
   inkscape:zoom="1.889332"
   inkscape:cx="305.1343"
   inkscape:cy="303.54644"
   inkscape:window-width="2560"
   inkscape:window-height="1351"
   inkscape:window-x="-9"
   inkscape:window-y="-9"
   inkscape:window-maximized="1"
   inkscape:current-layer="Layer_1"
   inkscape:export-bgcolor="#ffffff00" />&#10;<style
   type="text/css"
   id="style1">&#10;	.st0{fill:#CC9933;stroke:#1F1A17;stroke-width:1.3208;}&#10;	.st1{fill:#1F1A17;stroke:#1F1A17;stroke-width:1.3208;}&#10;	.st2{fill:none;stroke:#1F1A17;stroke-width:1.3208;}&#10;	.st3{fill:#AE710B;stroke:#1F1A17;stroke-width:1.3208;}&#10;	.st4{fill:#FFFFFF;stroke:#1F1A17;stroke-width:1.3208;}&#10;	.st5{fill:#FFFFFF;}&#10;	.st6{fill-rule:evenodd;clip-rule:evenodd;fill:#CE1126;}&#10;	.st7{fill-rule:evenodd;clip-rule:evenodd;}&#10;	.st8{fill-rule:evenodd;clip-rule:evenodd;fill:#80C3E6;}&#10;	.st9{fill:none;stroke:#1F1A17;stroke-width:1.0618;}&#10;	.st10{fill:#CE1126;}&#10;	.st11{fill:none;}&#10;	.st12{fill:#CA9731;stroke:#1E1917;stroke-width:1.3208;}&#10;	.st13{fill:#1E1917;stroke:#1E1917;stroke-width:1.3208;}&#10;</style>&#10;<g
   id="g29"
   transform="matrix(0.97607506,0,0,0.97788722,6.9375671,13.227534)"
   inkscape:label="g29">&#10;	&#10;	<path
   class="st0"
   d="m 279.2,349.9 c 4.4,7.4 28.53557,35.62343 28.53557,35.62343 5.7,15.8 26.8933,29.42937 26.8933,29.42937 2.2,11 27.22678,28.1472 27.22678,28.1472 5.8,15.3 26.63304,24.82869 26.63304,24.82869 14,20.1 30.8,30.14092 30.8,30.14092 l -9.28761,-334.78543 c -0.0616,-1.95844 0.39239,-11.35206 -15.99463,-20.42577 -19.54653,-10.32069 -38.16124,-2.98952 -50.31739,2.12147 -11.7,4.4 -25.71674,9.62026 -40.02088,14.09901 -8.12854,2.30237 -15.48085,3.15211 -23.62182,2.84339 -5.10709,-0.19366 -14.87151,-4.42864 -17.267,-8.57803 -10.07554,-0.54943 -18.98253,-1.02823 -42.48384,-1.9505 -22.6691,-0.052 -40.07147,-0.55199 -46.40696,-1.12672 -3.07279,5.55411 -6.49341,7.91996 -12.14691,10.74934 -5.75909,0.15298 -10.39368,0.28848 -16.23373,-0.43774 C 130.62863,158.30056 111.16533,149.55366 99.365333,145.15366 87.233967,141.13639 62.1,129.93219 41.7,138.73219 c -20.6,8.8 -22.5,23.6 -22.5,23.6 L -5.9107587,502.58637 c 0,0 26.2214457,-10.19944 37.4101397,-31.51727 0,0 19.934744,-19.10996 29.937268,-28.45614 0,0 23.131691,-14.6963 29.626083,-26.53023 0,0 21.761648,-16.73762 28.446168,-31.99636 0,0 21.9911,-26.98637 26.3911,-34.38637 z"
   id="path2"
   sodipodi:nodetypes="ccccccccccsccccccccccccccc"
   style="stroke-width:8e-08;stroke-dasharray:none" />&#10;	<path
   class="st1"
   d="m 401.77347,482.66061 c 15.20958,16.12789 17.23045,14.7503 17.23045,14.7503 l -9.61324,-339.88993 c 0,0 0.34544,1.75944 -11.85875,1.19565 l -0.0479,0.18968 4.01834,323.4668 z M 368.79,172.74477 c 9.35185,-7.44947 8.89214,-7.5051 16.84625,-10.06097 l 2.72499,304.77669 c 0,0 -10.95405,-3.16461 -19.75707,-19.60846 z m -24.81013,254.82607 0.84946,-239.54892 1.16652,-0.62576 c 6.70885,-4.03295 8.05778,-4.97109 13.78999,-9.14881 l 1.14603,-1.27187 c 2.80096,87.19938 -2.76406,177.9603 0.0369,265.15968 -8.76475,-5.11917 -10.31557,-5.64149 -16.9889,-14.56432 z m -26.80399,-28.07179 3.1496,-197.53835 0.40014,-0.75172 c 6.96031,-2.9919 7.71249,-3.3264 14.21472,-7.64879 l 1.00034,-0.46982 c -0.75678,73.68979 -1.89675,147.4708 -1.68052,221.21235 0.14404,0.10051 -10.52137,-3.12973 -17.08428,-14.80367 z m -9.93461,-14.95658 2.86708,-155.09821 -0.40014,-0.75172 c -11.70401,5.63789 -29.19349,3.59813 -29.19349,3.59813 l -1.33683,126.99757 c 4.40151,8.26891 28.06338,25.25423 28.06338,25.25423 z"
   id="path3"
   sodipodi:nodetypes="scccccsccccccccccccccccccccccccc" />&#10;	<g
   id="g4"
   transform="matrix(1.0002799,0,0,0.94860119,-7.6915351,25.597926)">&#10;		<path
   class="st1"
   d="M 25.845918,486.51863 C 13.870104,500.02328 4.3163023,502.19997 2.4291738,502.38095 L 27.633243,143.95497 c 0,0 1.880003,-4.56351 13.980003,-5.16351 l 0.09583,0.50346 z M 70.381805,149.83442 C 64.268833,145.42105 61.106125,142.0142 54.760869,141.11927 51.527205,251.61818 42.6,358.3 39.4,468.8 c 9.9,-7.2 15.437558,-11.95584 19.637558,-20.65584 z m 18.658575,273.84152 5.665806,-259.39482 -0.0049,-0.0129 C 88.314207,160.68356 87.7575,159.87457 81.032983,157.06787 L 79.67551,156.62737 69.5,439 c 7.428945,-1.16475 11.291689,-7.07402 19.54038,-15.32406 z m 27.10417,-30.14315 4.32442,-211.23595 -1.09371,-0.0677 c -6.25418,-1.9026 -8.44899,-2.03552 -13.51567,-5.92946 l -0.86772,-0.67433 -5.650242,235.07725 c 0,0 6.005542,-0.39334 16.802922,-17.16981 z M 127.42912,376.28441 128.3,210.8 128.7,210 c 11.7,6 31.1,2.2 31.1,2.2 l -13.9,137.7 c -4.4,8.8 -18.47088,26.38441 -18.47088,26.38441 z"
   id="path4"
   sodipodi:nodetypes="ccccccccccccccccccccccccccccccc" />&#10;	</g>&#10;	<path
   class="st0"
   d="m 212.5,597.5 c 110.6,0 164.1,-24.9 164.1,-24.9 l -1.4,-11 c 0,0 0.9,-0.6 6.6,-2.2 5.2,-1.4 7,-11.7 6.6,-16.2 -0.4,-4 3.6,-14.2 5.8,-16.1 0,0 -9.2,-3.2 -12.4,-7 -5.3,-5.8 -10.6,-11.7 -19,-7.3 -3.2,1.7 -1.4,-13.6 -1.4,-13.6 0,0 -50.4,24.9 -148.6,23.4 -98.2,-1.2 -149,-23.2 -149,-23.2 0,0 1.8,15.3 -1.4,13.6 -8.4,-4.4 -13.7,1.4 -19,7.3 -3.4,3.8 -12.4,7 -12.4,7 2.2,1.8 6.2,12 5.8,16.1 -0.4,4.5 1.4,14.8 6.6,16.2 5.7,1.6 6.6,2.2 6.6,2.2 l -1.6,11 c 0,-0.1 53.5,24.7 164.1,24.7 z"
   id="path5" />&#10;	<path
   class="st0"
   d="m 213.3,591.2 c 105.4,0 157.7,-22.5 157.7,-22.5 l -1.4,-10.2 c 0,0 1.7,-1.8 7.1,-3 4.8,-1.2 6.6,-8.5 6.2,-11.8 -0.4,-3 3.2,-13.5 6.3,-14.6 0,0 -7.5,-1 -9.7,-3 -4.1,-3.5 -8.8,-12.7 -21.1,-7.5 -1.6,0.8 -2.1,-10.6 -2.1,-10.6 0,0 -49.5,24.1 -143,22.9 -93.5,-1 -143.2,-21.4 -143.2,-21.4 0,0 1.8,9.5 -1.4,8.4 -11.5,-3.9 -14.4,1.9 -20.3,6.7 -1.9,1.6 -9.7,5.1 -9.7,5.1 2.2,1.4 2.6,5.3 3.5,8.2 1.2,4 -0.9,12.7 3.2,15.4 3,1.8 10,3.8 10,3.8 L 54,568.6 c 0,0 53.9,22.6 159.3,22.6 z m 62.9,-299.8 55.7,199.2 c 0,0 -43.9,16.2 -77.6,13.2 L 226.5,360.2 Z"
   id="path6" />&#10;	<path
   class="st2"
   d="m 293.8,360.1 c 0,0 1.4,11.8 -1.4,17.6 0,0 -13.2,-16.1 -13.2,-27.8"
   id="path7" />&#10;	<path
   class="st2"
   d="m 293.8,360.1 c 0,0 1.4,11.8 -1.4,17.6 0,0 -13.2,-16.1 -13.2,-27.8 M 269,361.7 c 0,0 2.8,21.9 -5.8,29.3 0,0 -19,-17.6 -16.2,-26.4"
   id="path8" />&#10;	<path
   class="st2"
   d="m 269,361.7 c 0,0 2.8,21.9 -5.8,29.3 0,0 -19,-17.6 -16.2,-26.4 m -1.5,11.7 c 0,0 -1.4,29.3 -7.4,30.7 0,0 -2.9,-7.3 -2.9,-11.7 m 74.1,16.1 -0.8,6 c 0,0 -13.2,-6 -17.5,-29.4"
   id="path9" />&#10;	<path
   class="st2"
   d="m 309.3,411.4 -0.8,6 c 0,0 -13.2,-6 -17.5,-29.4 m -22.8,10.3 c 3.6,16.1 14.6,24.1 16.8,23.4 6.6,-2.2 5.2,-38.2 5.2,-38.2"
   id="path10" />&#10;	<path
   class="st2"
   d="m 268.2,398.3 c 3.6,16.1 14.6,24.1 16.8,23.4 6.6,-2.2 5.2,-38.2 5.2,-38.2 m -27.1,17.7 c 0,0 -3,32.2 -8.8,35.2 -6,2.9 -16.2,-29.4 -16.2,-29.4"
   id="path11" />&#10;	<path
   class="st2"
   d="m 263.1,401.2 c 0,0 -3,32.2 -8.8,35.2 -6,2.9 -16.2,-29.4 -16.2,-29.4 m 46.9,22 c 0,0 -1.4,36.7 -5.8,38.1 -4.4,1.6 -13.2,-13.2 -14.6,-17.6"
   id="path12" />&#10;	<path
   class="st2"
   d="m 285,429 c 0,0 -1.4,36.7 -5.8,38.1 -4.4,1.6 -13.2,-13.2 -14.6,-17.6 m -5.9,-4.3 c 0,0 0,27.7 -6,30.7 l -5.8,-11.7"
   id="path13" />&#10;	<path
   class="st2"
   d="m 258.7,445.2 c 0,0 0,27.7 -6,30.7 l -5.8,-11.7 m 76.2,7.3 c 0,0 0,17.6 -4.4,19 -4.3,1.6 -11.7,-24.9 -11.7,-24.9"
   id="path14" />&#10;	<path
   class="st2"
   d="m 323.1,471.5 c 0,0 0,17.6 -4.4,19 -4.3,1.6 -11.7,-24.9 -11.7,-24.9 m -4.3,3.1 c 0,0 -3,27.7 -8.8,29.3 -5.8,1.4 -17.6,-22 -16.1,-26.4"
   id="path15" />&#10;	<path
   class="st2"
   d="m 302.7,468.7 c 0,0 -3,27.7 -8.8,29.3 -5.8,1.4 -17.6,-22 -16.1,-26.4 m -1.6,13.1 c 0,0 -1.3,15 -5.8,16.1 -5.8,1.6 -14.6,-7.3 -16.1,-16.1"
   id="path16" />&#10;	<path
   class="st2"
   d="m 276.2,484.7 c 0,0 -1.3,15 -5.8,16.1 -5.8,1.6 -14.6,-7.3 -16.1,-16.1 m 58.6,-57.1 c 0,0 1.6,30.7 -4.4,32.2 -5.8,1.4 -17.5,-10.4 -20.5,-20.6"
   id="path17" />&#10;	<path
   class="st2"
   d="m 312.9,427.6 c 0,0 1.6,30.7 -4.4,32.2 -5.8,1.4 -17.5,-10.4 -20.5,-20.6"
   id="path18" />&#10;	<path
   class="st0"
   d="m 364.9,486.1 c 3,4.3 -1.4,10.2 -3.6,13.2 -2.2,3 -40.4,12.4 -62.3,16.2 -26.5,4.4 -61.6,6.7 -71.9,8 -5.8,0.6 -9.5,-4.4 -9.5,-10.2 0,-8.2 6.6,-9.6 10.2,-9.6 0,0 4.4,-0.8 4.4,2.2 0,0 3.6,-3.6 7.4,-3.6 3.6,0 6.6,1.4 6.6,4.4 0,0 2.9,-5.2 6.5,-6 3.8,-0.6 8.8,0 9.6,3 0,0 4.4,-0.8 8,-3 3.6,-2.2 8.8,-2.2 11.8,0.8 0,0 8,-3 11.7,-3.6 3.6,-0.8 11,-2.2 11.8,0.6 0,0 2.2,-5.8 5.8,-6.5 3.6,-0.8 12.4,-4.4 16.1,-0.8 0,0 3,-4.4 5.2,-4.4 2.2,0 7.4,-1.4 8,0.8 0,0 3,-5.2 9.6,-6 6.6,-0.5 11,-0.5 14.6,4.5 z"
   id="path19" />&#10;	<path
   class="st3"
   d="m 361.3,491.3 c -1.4,2.2 -3.8,7.3 -0.8,11.7 3,4.4 3.6,7.4 0,10.4 0,0 11,-2.2 10.2,-14.8 -0.7,-12.5 -7.2,-10.9 -9.4,-7.3 z m -66.7,9.5 c -4.4,0.8 -4.4,4.4 -2.2,10.4 2.2,5.8 5.8,10.9 3.6,15.3 0,0 12.4,-6.6 8.8,-17.5 -3.6,-11.1 -5.8,-8.9 -10.2,-8.2 z m -66.7,9.6 c -3.4,-1.4 -10.2,5.6 -10.2,9.5 0,6.6 3.6,13.2 10.2,15.4 0,0 -3,-13.2 0,-13.9 3,-0.8 7.4,-8.1 0,-11 z"
   id="path20" />&#10;	<g
   id="g21">&#10;		<path
   class="st2"
   d="m 350.3,481.7 c 0,0 -6.6,6 -0.8,8.2 0,0 3,-1.6 6.6,-1.6 m -21.2,8.1 c 0,0 -5.8,-1.4 -7.4,1.6 0,0 3,-5.8 0,-6.6 m -13.8,0.7 c 0,0 -4.4,4.3 -0.8,6.5 0,0 4.4,-2.9 6.6,-0.6 m -39.5,9.4 c 0,0 -12.4,0 -12.4,3 0,0 5.8,-10.2 2.9,-9.6 m -15.5,0.8 c 0,0 -4.4,3.6 -2.2,7.4"
   id="path21" />&#10;	</g>&#10;	<path
   class="st0"
   d="M 148.8,291.4 93.1,490.5 c 0,0 44,16.2 77.7,13.2 l 27.8,-143.6 z"
   id="path22" />&#10;	<path
   class="st2"
   d="m 140,339.7 c 0,0 8.8,-8.8 11.8,-14.6 0,0 -3,24.9 2.8,26.4 6,1.4 7.4,-6 7.4,-6 m -30.8,14.6 c 0,0 -1.4,11.8 1.6,17.6 0,0 13.2,-16.1 13.2,-27.8 m 10.2,11.8 c 0,0 -3,21.9 5.8,29.3 0,0 19,-17.6 16.1,-26.4 m 1.5,11.7 c 0,0 1.4,29.3 7.3,30.7 0,0 3,-7.3 3,-11.7 m -74,16.1 0.6,6 c 0,0 13.2,-6 17.6,-29.4 m 22.7,10.3 c -3.6,16.1 -14.6,24.1 -16.8,23.4 -6.6,-2.2 -5.1,-38.2 -5.1,-38.2"
   id="path23" />&#10;	<path
   class="st2"
   d="m 162,401.2 c 0,0 3,32.2 8.8,35.2 5.8,2.9 16.1,-29.4 16.1,-29.4 M 140,429 c 0,0 1.6,36.7 6,38.1 4.4,1.6 13.1,-13.2 14.6,-17.6 m 5.8,-4.3 c 0,0 0,27.7 5.8,30.7 l 5.8,-11.7 m -76.1,7.3 c 0,0 0,17.6 4.4,19 4.4,1.6 11.8,-24.9 11.8,-24.9 m 4.4,3.1 c 0,0 2.8,27.7 8.7,29.3 6,1.4 17.6,-22 16.2,-26.4 m 1.4,13.1 c 0,0 1.4,15 5.8,16.1 6,1.6 14.8,-7.3 16.2,-16.1 m -58.7,-57.1 c 0,0 -1.4,30.7 4.4,32.2 6,1.4 17.6,-10.4 20.6,-20.6"
   id="path24" />&#10;	<path
   class="st0"
   d="m 60.2,486.1 c -3,4.3 1.4,10.2 3.6,13.2 2.2,3 40.3,12.4 62.3,16.2 26.5,4.4 61.6,6.7 71.8,8 5.8,0.6 9.6,-4.4 9.6,-10.2 0,-8.2 -6.6,-9.6 -10.2,-9.6 0,0 -4.4,-0.8 -4.4,2.2 0,0 -3.8,-3.6 -7.4,-3.6 -3.6,0 -6.6,1.4 -6.6,4.4 0,0 -2.8,-5.2 -6.6,-6 -3.6,-0.6 -8.8,0 -9.5,3 0,0 -4.4,-0.8 -8.2,-3 -3.6,-2.2 -8.7,-2.2 -11.7,0.8 0,0 -8,-3 -11.8,-3.6 -3.6,-0.8 -10.9,-2.2 -11.7,0.6 0,0 -2.2,-5.8 -5.8,-6.5 -3.8,-0.8 -12.4,-4.4 -16.2,-0.8 0,0 -2.8,-4.4 -5.1,-4.4 -2.2,0 -7.4,-1.4 -8.2,0.8 0,0 -2.8,-5.2 -9.5,-6 -6.4,-0.5 -10.8,-0.5 -14.4,4.5 z"
   id="path25" />&#10;	<path
   class="st3"
   d="m 63.8,491.3 c 1.4,2.2 3.6,7.3 0.8,11.7 -3,4.4 -3.8,7.4 0,10.4 0,0 -11,-2.2 -10.2,-14.8 0.6,-12.5 7.2,-10.9 9.4,-7.3 z m 66.7,9.5 c 4.4,0.8 4.4,4.4 2.2,10.4 -2.2,5.8 -5.8,10.9 -3.6,15.3 0,0 -12.6,-6.6 -8.8,-17.5 3.6,-11.1 5.8,-8.9 10.2,-8.2 z m 66.7,9.6 c 3.4,-1.4 10.2,5.6 10.2,9.5 0,6.6 -3.8,13.2 -10.2,15.4 0,0 2.9,-13.2 0,-13.9 -3,-0.8 -7.4,-8.1 0,-11 z"
   id="path26" />&#10;	<g
   id="g27">&#10;		<path
   class="st2"
   d="m 74.8,481.7 c 0,0 6.6,6 0.8,8.2 0,0 -3,-1.6 -6.6,-1.6 m 21.2,8.1 c 0,0 5.8,-1.4 7.3,1.6 0,0 -2.8,-5.8 0,-6.6 m 14,0.7 c 0,0 4.4,4.3 0.6,6.5 0,0 -4.4,-2.9 -6.5,-0.6 m 39.6,9.4 c 0,0 12.4,0 12.4,3 0,0 -5.8,-10.2 -3,-9.6 m 15.4,0.8 c 0,0 4.4,3.6 2.2,7.4"
   id="path27" />&#10;	</g>&#10;	<g
   id="g28">&#10;		<path
   class="st1"
   d="m 181.83205,483.92374 30.69109,20.77231 30.40653,-21.29546 -28.80018,-232.07697 z"
   id="path28"
   sodipodi:nodetypes="ccccc" />&#10;	</g>&#10;	<path
   class="st2"
   d="m 284.2,342.6 c 0,0 -8.8,-8.8 -11.8,-14.6 0,0 3,24.9 -2.9,26.4 -6,1.4 -7.4,-6 -7.4,-6"
   id="path29" />&#10;</g>&#10;<g
   id="g31"
   transform="matrix(1.0852251,0,0,0.81255256,-9.7004589,68.575791)">&#10;	<path
   class="st4"
   d="m 208.81289,386.72305 c 101.3,-77.9 95.49718,-208.21962 95.49718,-208.21962 -2.7,0.5 -4.12272,1.28659 -8.0197,1.77318 -21.11056,2.63593 -75.45305,3.37083 -87.25305,-12.02917 -12.7,14 -61.66514,10.89379 -82.76514,8.62305 -2.69152,-0.28966 -6.00897,-1.0727 -8.44182,-2.68732 0,0 -10.21747,134.63988 90.98253,212.53988 z"
   id="path30"
   sodipodi:nodetypes="ccscssc" />&#10;	<path
   class="st5"
   d="m 296.33732,201.14744 c -0.9,0.1 -1.8,0.1 -2.7,0.1 -19.9,0 -66.2,-10.2 -84,-25.5 -18.7,14.1 -65.7,25.5 -85.3,25.5 -0.9,0 -1.8,-0.1 -2.7,-0.3 0,4.5 0.2,9.1 0.5,13.3 1,15.7 3.8,31.5 8,46.7 13.2,47.8 40.2,88.4 78.8,119.2 38.7,-30.8 65.7,-71.5 78.9,-119.3 4.2,-15.2 7,-31 8,-46.7 0.3,-4.1 0.5,-8.6 0.5,-13 z"
   id="path31" />&#10;</g>&#10;<path
   class="st6"
   d="m 122.33777,215.84436 c 0,0 1.90956,19.01356 1.90956,19.90572 0.10854,0.89216 0.21705,3.97416 0.4341,5.35295 0.10855,1.4599 0.75971,6.73172 0.86823,7.78611 0.21704,1.05439 0.97676,6.0018 1.19382,7.13728 0.21703,1.13549 1.19378,5.75851 1.41084,6.48845 0.21707,0.72994 1.0853,4.37969 1.51938,5.67736 0.43412,1.29769 2.2791,7.3806 2.6047,8.35386 0.32557,0.97327 1.95348,5.27188 2.49612,6.48844 0.54264,1.21661 2.93023,6.89396 3.36436,8.02945 0.54264,1.13546 3.03877,6.40732 3.79845,7.70499 0.65119,1.2977 2.72498,5.68574 3.4847,6.82122 0.75968,1.1355 3.8001,7.34993 4.55979,8.3232 0.75969,0.97328 4.77521,6.56954 5.64345,7.70503 0.86822,1.13547 5.75197,7.46169 6.29458,8.02945 0.54266,0.56772 4.71673,5.90989 5.69346,6.96428 0.97678,1.05437 5.86051,6.0018 7.16284,7.21835 1.30236,1.29769 5.42639,5.10967 6.94578,6.48846 1.62792,1.29768 1.95349,1.62211 2.60465,2.18985 0.65119,0.48662 1.19383,0.97327 1.19383,0.97327 L 185.11495,219.3578 c -20.92573,2.11468 -41.98136,0.66546 -62.77718,-3.51344 z"
   id="path32"
   style="stroke-width:0.938196"
   sodipodi:nodetypes="ccccsssssccssssscccccc" />&#10;<path
   class="st7"
   d="m 315.72894,219.52747 c 0,0 -1.85115,15.12237 -1.95969,16.66375 -0.10853,2.02811 -0.94262,4.30408 -1.05115,6.33219 -0.10853,1.78473 -0.65119,6.08433 -0.86822,7.30121 -0.21706,1.21685 -0.86823,5.59759 -1.08531,6.73333 -0.21702,1.13574 -2.46121,6.66311 -2.67822,7.3932 -0.21707,0.73014 -2.05012,5.95276 -2.3757,6.92628 -0.3256,0.97348 -2.17055,6.81447 -2.82174,8.43695 -0.65116,1.70361 -2.82171,7.22009 -3.47288,8.76146 -0.65116,1.54136 -4.01554,8.5992 -4.44964,9.41042 -0.43411,0.81127 -3.68993,6.65223 -4.55818,8.27474 -0.97675,1.70361 -4.66668,7.46345 -5.42637,8.59921 -0.75971,1.13573 -5.4264,7.70683 -5.96905,8.43696 -0.54263,0.64899 -6.51165,8.19358 -7.27133,9.08596 -0.86823,0.89236 -6.9458,7.54456 -8.24811,8.84257 -1.19385,1.29798 -7.16285,7.13896 -8.68224,8.51808 -1.62792,1.37911 -4.66671,4.05622 -5.10079,4.46182 l -0.86824,0.73012 0.64953,-134.6451 c 22.48788,1.15445 45.24075,3.11408 66.23733,-0.26315 z"
   id="path33"
   style="stroke-width:0.938307"
   sodipodi:nodetypes="cccsssscsscscccccccc" />&#10;<path
   class="st8"
   d="m 217.15199,278.31943 -95.10267,-63.0385 c 0,0 0.0872,-0.44917 2.1944,0.0135 2.41685,0.53071 2.82362,1.01136 6.09664,1.7075 3.80821,0.80996 5.76082,0.63953 10.53961,1.35479 2.50717,0.37525 5.28788,0.47421 7.8222,0.50835 2.42068,0.0326 6.41409,0.30608 10.33235,0.33902 4.39426,0.0369 7.99897,-0.19693 11.47846,-0.26521 3.06939,-0.0602 5.47417,-0.14613 8.59671,-0.33642 3.12253,-0.19025 7.47483,-0.14248 11.17345,-0.57686 3.57465,-0.41982 6.81109,-1.43088 10.59133,-1.95465 3.52978,-0.48908 5.31949,-1.31787 8.59588,-2.05276 2.82172,-1.06785 4.10022,-0.90811 6.05372,-1.83355 1.95349,-0.92547 2.06201,-0.99668 2.06201,-0.99668 0,0 0.43413,0.21358 1.0853,0.5695 0.65116,0.28478 3.79845,1.92211 5.42637,2.56285 1.62791,0.64068 4.12326,1.25057 7.20395,1.70071 2.99441,0.62334 8.24646,1.15031 10.41703,1.64865 2.17055,0.56949 8.03269,0.67887 11.15699,1.03092 3.18922,0.22311 8.42531,0.72465 11.39949,0.93284 2.99523,0.20965 9.85795,0.1189 11.26879,0.26129 1.41088,0.21357 9.36051,-0.0773 10.66283,0.0651 1.19383,0.0712 5.60235,-0.2965 8.74966,-0.0829 3.14731,0.14236 6.81428,-0.49494 9.20184,-0.51005 l 9.12133,-0.0577 2.21943,-0.37381 -98.3471,59.38412 z"
   id="path34"
   style="stroke-width:0.878974"
   sodipodi:nodetypes="ccsssssszascsccscccscccscccc" />&#10;<path
   class="st9"
   d="m 315.88836,219.32853 c -0.97671,0.37708 -2.14829,0.73869 -3.38482,0.83729 -21.52963,1.71718 -75.92563,3.26944 -95.24298,-9.13468 -20.29408,11.43126 -71.42055,11.00583 -91.85356,5.54001 -1.2879,-0.3445 -2.28054,-0.53399 -3.2169,-0.85559 0,3.64826 2.01733,22.99204 2.34293,26.39708 1.08524,12.72842 4.12392,25.53792 8.68194,37.86097 14.32522,38.75277 42.15516,71.79976 84.04559,96.77016 41.99896,-24.9704 71.08352,-57.96703 85.40875,-96.71975 4.55803,-12.32304 9.41534,-25.00105 10.50058,-37.72944 0.32558,-3.32399 2.71847,-19.39872 2.71847,-22.96593 z"
   id="path35"
   sodipodi:nodetypes="cscsccccccsc" />&#10;<path
   class="st10"
   d="m 217.85153,269.7509 -13.02333,-43.54855 34.09583,26.93523 h -42.14499 l 34.09585,-26.93523 z"
   id="path36"
   style="stroke-width:0.942898" />&#10;&#10;<path
   d="m 87.6,562.23595 c 0,0 -2.1,2.25984 -1.4,3.24238 0.8,1.0808 5.1,3.34064 7.3,1.67032 2.5,-1.86683 2.2,-2.5546 -1.4,-4.51968 -2.6,-1.57207 -2.6,-1.57207 -4.5,-0.39302 z m -33.1,-12.38 c -0.4,1.08079 0.3,1.08079 2.9,-0.68778 2.9,-1.96508 5.9,-2.94762 8.3,-2.94762 2.4,0 4.1,1.08079 4.5,3.24238 0.5,3.53714 3.8,5.10921 8,3.73365 2.3,-0.78603 2.3,-0.78603 4.2,1.17905 1.8,1.96508 1.9,1.96508 3.4,1.57206 4.7,-1.37555 4.5,-1.37555 5.7,0.0983 1.4,1.76857 1.5,1.86682 5.1,0.78603 2.9,-0.78603 3.1,-0.78603 3.9,0.0983 1.4,1.76858 3.1,1.86683 6,0.39302 2.7,-1.37556 2.6,-1.37556 3.7,0 1.4,1.86683 2.7,2.16159 4.8,0.88429 1.1,-0.68778 2.3,-0.98254 3.1,-0.78604 0.8,0.19651 1.7,0 2.4,-0.68777 0.8,-0.68778 1.6,-0.88429 2.5,-0.68778 3.5,0.88428 7.6,-4.81445 9.8,-13.65731 2,-7.95857 2.9,-13.26429 2.4,-13.36254 -0.2,-0.0983 -1.2,0.98254 -2.2,2.25984 -1.7,2.25984 -1.8,2.5546 -3.1,9.33413 -1.2,6.28826 -2.5,10.51318 -3.6,11.59397 -0.6,0.58953 -1.9,0.0983 -2.3,-0.98254 -0.5,-1.2773 -1,-0.98254 -2,0.98254 -0.9,1.86683 -3.2,2.06334 -2.7,0.19651 0.4,-1.67032 -1.3,-1.37556 -2.2,0.29476 -1.3,2.55461 -3.5,2.94762 -4.4,0.88429 -0.7,-1.47381 -2.4,-1.57207 -5,-0.0983 -3.9,2.16159 -5.3,0.98254 -2.1,-1.57206 2.5,-2.16159 2.6,-3.73365 0.2,-5.79699 -1,-0.88428 -2.4,-1.67031 -3.1,-1.96508 -1.9,-0.58952 -6.5,0.49127 -7.6,1.67032 -1.4,1.47381 -1.4,1.86683 0.4,2.45635 1.8,0.58953 3.4,2.25984 3,3.34064 -0.4,1.17905 -3,1.37555 -4.8,0.0983 -1.5,-0.98254 -2,-0.98254 -4.3,-0.49127 -1.5,0.29476 -3,0.39302 -3.4,0.29476 -1.1,-0.39301 -1.3,-2.45635 -0.3,-4.12666 1.4,-2.65286 0.1,-2.84937 -3,-0.49127 -3.5,2.75111 -6.1,2.25984 -6.8,-1.27731 -0.4,-1.96508 -1.8,-3.24238 -4,-3.63539 -1.1,-0.19651 -2.3,-0.19651 -3.7,0 -1.4,0.1965 -2.8,0.58952 -4.4,1.2773 -4,1.47381 -8.8,5.40397 -9.3,6.58302 z m 206,36.35397 c 3.4,1.17905 7,0.49127 10,-2.06333 3,-2.5546 5.5,-6.68127 6.9,-11.98699 0.8,-2.84936 1.1,-3.24238 3.6,-5.01095 2.7,-1.96508 4.8,-2.5546 5.5,-1.67032 1.3,1.67032 4.2,-1.67032 3.8,-4.42143 -0.2,-1.17905 -0.5,-1.67032 -1.8,-2.06333 -1.9,-0.68778 -2.2,-2.06334 -1,-3.6354 1.1,-1.47381 2.1,-1.57206 4.3,-0.29476 2.3,1.2773 2.5,1.2773 4.3,-0.78603 1.6,-1.86683 2.3,-4.81445 2.2,-8.94112 0,-2.94762 -2.1,-17.39096 -2.4,-17.09619 -0.1,0.0983 -0.6,1.57206 -1.1,3.14412 -0.9,2.84937 -0.9,3.34064 0,10.02191 1.2,9.13762 0.8,10.41493 -2.8,9.03937 -0.8,-0.29476 -1.9,-0.49127 -2.3,-0.49127 -0.7,0.0983 -2,1.57206 -3.2,3.34064 -1.2,1.76857 -2.4,3.73365 -2.6,4.9127 -0.8,3.8319 -2.4,5.40397 -5.8,6.09174 -3.4,0.58953 -4.2,1.37556 -3.4,3.43889 0.9,2.3581 -0.5,7.76207 -2.8,10.02191 -1.3,1.2773 -3,2.16159 -5,2.45635 -1.9,0.29476 -4,0.0983 -5.8,-0.68778 -2.4,-0.98254 -2.4,-0.98254 -2.5,-4.22492 -0.1,-2.65286 0.1,-3.8319 1.3,-6.48476 1.7,-3.83191 1.9,-5.30572 0.4,-3.93016 -1.6,1.57206 -3.6,6.68127 -4.2,10.31667 -1,5.99349 0.3,9.62889 4.4,11.00444 z M 291,574.91071 c 1.2,-1.76857 1.2,-1.76857 4,-1.2773 3.6,0.68778 3.4,0.68778 4.7,-1.67031 1.3,-2.55461 1.2,-3.6354 -0.4,-3.83191 -0.7,-0.0982 -2.1,-0.29476 -3.2,-0.49127 -1.9,-0.29476 -2.1,-0.19651 -3.3,1.2773 -1.3,1.47381 -1.4,1.57207 -3.8,1.2773 -2.8,-0.39301 -3.2,-0.0983 -4.6,2.75112 -1.2,2.35809 -0.8,2.94761 2,3.34063 3.4,0.58952 3.3,0.58952 4.6,-1.37556 z M 132.2,563.31674 c -1,-0.1965 0.5,0.78604 3,-2.06333 2.3,-2.75111 2.3,-2.75111 3.7,-9.33413 2.7,-12.96953 2.7,-14.63985 -0.1,-11.49572 -1.3,1.47381 -1.6,2.16159 -3.4,10.70969 -1.1,5.01095 -2.3,9.72714 -2.7,10.41492 -0.4,0.68778 -0.1,1.86683 -0.5,1.76857 z m 194.9,5.01096 c 0.2,0.19651 1.2,0.0982 2.2,-0.29476 1,-0.39302 2.4,-0.98254 3.2,-1.27731 2.5,-1.08079 4.6,-2.94762 5.4,-4.9127 0.5,-1.17904 0.9,-3.93016 1.1,-6.68127 0.2,-2.75111 0.3,-5.50222 0,-6.48476 -0.6,-2.25984 -1.8,-1.47381 -1.8,1.08079 0,1.17905 -0.2,2.94762 -0.4,3.93016 -0.2,0.88429 -0.3,1.96508 -0.2,2.25984 0.4,1.76858 -1.7,4.9127 -5.4,7.95858 -4.1,3.14413 -4.8,3.8319 -4.1,4.42143 z m -14.3,0.78603 c 0.3,0.49127 1.2,0.58952 3.4,0.19651 2.9,-0.49127 3,-0.58953 4,-2.75111 0.9,-2.06334 1.1,-2.25985 3.4,-2.75112 2.3,-0.49127 2.6,-0.68777 3.4,-2.5546 1.5,-3.6354 0.9,-4.42143 -2.6,-3.6354 -3.1,0.78603 -3.9,1.47381 -4.1,3.6354 -0.1,0.88429 -0.5,1.2773 -1.7,1.47381 -2.4,0.49127 -4.5,1.2773 -5,1.86683 -0.8,0.98254 -1.3,3.73365 -0.8,4.51968 z m 26.6,-4.9127 c 0.7,0.39302 2,-0.0982 5.9,-2.45635 2.3,-1.37556 3.9,-2.75111 5,-4.22492 1.1,-1.57207 1.6,-3.24238 1.7,-5.40397 0.3,-4.61794 2.2,-8.94112 3.6,-8.15508 0.1,0.0983 0.5,2.45635 0.7,5.30571 0.5,6.87778 1.5,7.76207 3.1,3.04588 0.5,-1.47381 1.7,-4.12667 2.8,-5.69874 1.8,-2.84936 1.9,-2.94762 3.8,-3.04587 5.1,-0.29476 4.7,-0.19651 5.1,-2.84937 0.4,-2.84936 -0.1,-3.73365 -2.5,-4.22492 -2.4,-0.49127 -2.2,-1.47381 0.8,-4.71619 2.8,-2.94762 3.1,-3.73365 2.7,-5.10921 -0.6,-1.86682 -7,-0.68778 -8.8,1.67032 -1.7,2.16159 0.1,4.12667 1.7,1.86683 0.4,-0.58953 3.2,-1.86683 3.1,-1.37556 0.2,0.39302 -1.4,2.06333 -2.8,3.53714 -1.3,1.57207 -1.9,3.24239 -2,4.81445 -0.1,1.37556 -1,3.43889 -2,5.01095 -1.8,2.75112 -1.8,2.75112 -2.4,0.68778 -0.8,-2.84936 -1.5,-3.6354 -3.1,-3.14413 -1.5,0.39302 -2.5,1.47381 -4,4.22493 -1,1.86682 -1,1.86682 -2.9,1.2773 -3.7,-1.0808 -5.1,0.19651 -6,5.79698 -0.4,2.25985 1.5,3.43889 4.2,2.65286 4.1,-1.17905 1.4,3.14413 -4.9,7.46731 -3.2,1.96508 -3.7,2.45635 -2.8,3.04587 z m 37.7,-13.55905 c 0.6,-2.75111 0.3,-3.34064 -1.9,-3.34064 -2.5,0 -3.8,0.68778 -4.4,2.45635 -0.9,2.75111 -0.6,3.6354 1.3,3.6354 3.5,0 4.5,-0.49127 5,-2.75111 z m -70.9,10.31667 c 1,6.87778 1.1,6.87778 1.8,5.60048 1.9,-3.24239 1.5,-9.23588 -1.5,-21.51763 -1.3,-5.40397 -1.7,-5.79699 -2.8,-2.75111 -0.5,1.47381 -0.5,2.45635 0.4,6.77952 0.6,2.75112 1.5,8.15509 2.1,11.88874 z m 6.5,-0.29476 c 0.3,1.67031 1.3,0.78603 2.5,-2.45635 2.2,-5.79699 5.6,-8.35159 9,-6.48477 2.1,1.17905 3.5,0.49127 5.7,-2.94762 1.9,-2.84936 3.1,-8.7446 2.2,-10.12016 -0.9,-1.37556 -1.8,-0.29476 -2.4,2.75111 -0.8,3.93016 -2.1,4.9127 -4.8,3.73365 -2.7,-1.17904 -5.9,0.78604 -8.5,5.01096 -2,3.24238 -4,8.84286 -3.7,10.51318 z M 78.6,530.59816 c 1.7,-0.78603 1.8,-0.68778 4.3,0.88429 3.1,1.86682 3.6,1.96508 5.5,0.0983 1.9,-1.96508 1.8,-2.5546 -1,-4.32317 -2.4,-1.47381 -2.4,-1.47381 -4.2,-0.68778 -1.7,0.78603 -1.9,0.78603 -4.4,-0.68778 -2.9,-1.67032 -2.8,-1.67032 -5.1,-0.0983 -2.3,1.57206 -2.4,2.25984 -0.4,3.63539 2.8,1.76858 3.4,1.96508 5.3,1.17905 z m 31.2,8.35159 c 3.3,1.76857 3.8,1.76857 5.6,0.49127 1.7,-1.17905 1.7,-1.17905 4.1,0.29476 2.7,1.67032 2.9,1.57207 5,-0.49127 1.9,-1.96508 1.9,-2.45635 -0.2,-3.8319 -2.6,-1.76857 -3.7,-1.86683 -5.5,-0.58953 -1.6,1.17905 -1.6,1.17905 -3.5,-0.1965 -2.6,-1.86683 -2.7,-1.86683 -5.1,0.0983 -2.9,2.25984 -2.9,2.84937 -0.4,4.22492 z m 156.6,18.86477 c 3,1.08079 3.5,0.98254 4.7,-1.17905 1.5,-2.75111 1.3,-3.34063 -1.4,-4.22492 -2.7,-0.98254 -3.6,-0.49127 -4.9,2.5546 -0.9,1.86683 -0.9,1.86683 1.6,2.84937 z m 9.9,-4.81445 c 0.2,1.67032 9,-3.34063 10.5,-6.19 1.5,-2.65286 0.6,-3.93016 -1.2,-1.67032 -1.8,2.16159 -4.5,4.32318 -6.6,5.40397 -1.9,1.0808 -2.8,1.86683 -2.7,2.45635 z M 119.7,532.17023 c 2.2,-2.25985 2.1,-2.55461 -0.7,-4.42143 -2.6,-1.76858 -3.4,-1.76858 -5.2,0 -2,1.86682 -1.9,2.5546 0.7,4.32317 3.2,2.16159 3.2,2.16159 5.2,0.0983 z m 222.7,3.53714 c 0.2,0.19651 0.8,0.0983 1.7,-0.39302 0.9,-0.39301 2,-1.17904 3.1,-2.16158 2.1,-1.86683 2.1,-5.01096 -0.2,-5.20747 -1.5,-0.1965 -3.2,0.29477 -4.5,1.0808 -1.3,0.78603 -2.3,1.76857 -2.4,2.75111 -0.1,1.37556 0.4,1.2773 2.8,0.29476 3.3,-1.57206 4.6,-1.96508 0.6,1.96508 -1,0.98254 -1.3,1.37556 -1.1,1.67032 z m -78.4,11.1027 c 0.1,0.98254 1.5,0.49127 5.8,-2.16159 1.6,-0.98254 3.2,-2.16158 4.6,-3.24238 1.4,-1.17905 2.6,-2.35809 3.6,-3.43889 2,-2.16159 2.9,-4.02841 2.1,-4.61794 -0.4,-0.39301 -1,0.0983 -2.2,1.76858 -0.7,0.88428 -2.3,2.5546 -4.6,4.42143 -2.2,1.86682 -5.1,3.93016 -8,5.89524 -0.7,0.49127 -1.3,1.08079 -1.3,1.37555 z m 52.3,-8.5481 c 2.9,0.0983 3.8,-0.29476 5,-2.06333 1.1,-1.76857 1.2,-1.76857 3.6,-1.67032 2.4,0.0983 2.4,0.0983 3.7,-2.45635 1.7,-3.43889 1.4,-4.02841 -2.1,-3.73365 -2.7,0.19651 -2.8,0.29476 -3.9,2.06333 -1,1.57207 -1.5,1.86683 -3.6,2.25985 -2.2,0.39301 -2.5,0.68777 -3.5,2.5546 -1.3,2.3581 -1.2,2.94762 0.8,3.04587 z M 58.5,559.97611 c 2.3,2.16159 3.5,1.76857 5.5,1.08079 1.2,-0.39301 1.7,-0.29476 3.4,0.78603 3.5,2.25985 4.5,2.3581 6.3,1.0808 2.3,-1.67032 2.4,-2.55461 0.7,-3.73365 -3.4,-2.45635 -3.8,-2.65286 -5.5,-1.76858 -1.5,0.78604 -1.7,0.78604 -5.2,-0.88428 -3.6,-1.76857 -3.6,-1.76857 -5.6,-0.58953 -2.7,1.37556 -0.9,2.75112 0.4,4.02842 z m 20.7,-21.32112 c 0.4,1.17905 2.1,1.67032 3.2,1.17905 1.3,1.67032 2.9,0.98254 3.8,-0.88429 0.6,-1.2773 -0.3,-1.86682 -1,-0.78603 -0.8,1.37556 -1.1,0.78603 -1,-0.0983 0.1,-0.68778 -0.4,-0.78604 -1,-0.29477 -1.3,0.98254 -3.2,0.88429 -1.7,-0.78603 0.8,-0.88428 0.2,-1.08079 -1,-0.19651 -0.8,0.58953 -1.5,1.37556 -1.3,1.86683 z m 72,40.87366 c 1.1,-1.17905 1.7,-1.57206 2.8,-1.2773 2.2,0.49127 2.5,0.39302 3.7,-1.17905 2.3,-2.94762 -0.9,-4.9127 -3.8,-2.25984 -1.4,1.2773 -1.6,1.37556 -2.9,0.49127 -1.3,-0.78603 -1.4,-0.78603 -3.3,0.68778 -1.1,0.88428 -2.1,1.86682 -2.1,2.25984 -0.1,0.39302 0.6,1.08079 1.4,1.67032 2.3,1.37555 2.6,1.37555 4.2,-0.39302 z m 77.1,5.50223 c 3.8,-1.96508 6.7,-4.22493 6.7,-5.20747 0,-1.08079 -0.5,-0.88428 -5.5,2.16159 -4.8,2.94762 -5.6,3.6354 -5.2,4.32318 0.5,0.58952 0.6,0.49127 4,-1.2773 z m -58.4,-2.55461 c -0.1,0.98254 3.9,0.58953 7.6,-0.68778 3.6,-1.2773 4.4,-1.86682 6.7,-4.61793 1.5,-1.76858 3.2,-3.53715 3.8,-3.83191 0.4,-0.19651 1.6,-0.68778 3.2,-1.17905 1.6,-0.58952 3.6,-1.17904 5.6,-1.86682 2,-0.68778 4,-1.2773 5.5,-1.76857 1.5,-0.49127 2.6,-0.78604 2.9,-0.78604 0.5,0 2.1,-0.49127 3.6,-1.08079 2.7,-1.08079 2.7,-1.08079 3.9,0.19651 1.6,1.67032 2.4,1.57206 3.9,-0.29476 0.9,-1.17905 1.4,-2.65286 1.8,-5.30572 0.3,-2.06333 0.1,-2.84937 1.3,-3.93016 1.1,-1.17905 3.6,-2.65286 8.9,-6.48476 2.8,-2.06334 4.4,-4.22493 3.6,-5.01096 -0.4,-0.39301 -3.5,1.57207 -6.8,3.93016 -3.3,2.3581 -6.7,5.01096 -7.6,6.19 -0.8,1.17905 -2.7,3.04588 -4.4,4.7162 -1.8,1.57206 -3.5,2.94762 -3.9,2.84936 -0.3,0 -0.3,-0.58952 -0.1,-1.67032 1.2,-4.22492 0,-6.38651 -3.6,-6.58301 -2.1,-0.0983 -4.7,1.2773 -6.9,3.14412 -2.2,1.86683 -3.9,4.32318 -4.1,6.38651 -0.1,1.47381 -0.4,1.76858 -1.9,2.16159 -1.8,0.49127 -5.5,3.34064 -11,8.25334 -1.6,1.37555 -4.9,3.53714 -7.4,4.71619 -2.4,1.17905 -4.5,2.35809 -4.6,2.5546 z m 29.9,-21.81238 c 0.1,-1.17905 1.5,-2.25985 2.8,-2.16159 2.1,0.0983 3.5,3.14413 2,4.51968 -1.6,1.37556 -5,-0.29476 -4.8,-2.35809 z m -2,23.67921 c 0.7,0.19651 1.4,0.49127 1.5,0.49127 0.2,0 1,-0.58953 1.8,-1.2773 1.4,-1.27731 1.7,-1.37556 3.1,-0.78604 1.4,0.58953 1.7,0.49127 3.1,-0.88428 1.9,-1.86683 2,-2.84937 0.3,-3.53715 -1.9,-0.78603 -2.1,-0.68777 -3.6,0.68778 -1.3,1.17905 -1.5,1.2773 -3,0.58953 -1.6,-0.68778 -1.7,-0.58953 -3.6,0.88428 -2,1.86683 -1.9,3.04588 0.4,3.83191 z m -64.1,-15.62239 c 0.2,1.0808 0.4,1.0808 3.1,-0.68777 2.7,-1.76858 4.4,-1.67032 7.9,0.1965 3.3,1.76858 4.6,1.76858 7.8,-0.1965 3.6,-2.25985 4.4,-2.3581 7,-1.0808 6,3.04588 14.1,1.0808 19,-4.71619 2.3,-2.75111 2.6,-3.73365 1.4,-5.10921 -2,-2.25984 -7.2,-2.35809 -11.4,-0.39301 -1.3,0.58952 -1.3,0.58952 -0.8,-0.29477 0.7,-1.17904 3.6,-18.57 3.2,-19.25778 -0.4,-0.78603 -1.5,0.39302 -3.1,3.24238 -1.2,2.06334 -1.5,3.43889 -2.4,9.33413 -1.2,8.44985 -2.3,11.29921 -4,10.80794 -0.9,-0.29476 -2.1,0.39302 -5,2.3581 -4.3,3.04587 -3.8,3.04587 -8.8,0.19651 -3.6,-1.96508 -5.1,-1.96508 -8.4,0 -3.3,2.25984 -5.7,4.51968 -5.5,5.60047 z m 40.6,-6.28825 c -1.2,1.08079 -1.8,1.17905 -5.1,0.98254 -5.7,-0.39302 -5.7,-1.76857 -0.3,-3.6354 4.9,-1.76857 8.4,-0.0983 5.4,2.65286 z m 59.2,11.69222 c 1.2,0 1.8,0.98254 4.1,0.98254 2.9,-0.0983 3,-0.0983 5,-2.5546 4,-4.71619 5.2,-8.84286 5.3,-18.07874 0,-3.8319 -0.1,-7.27079 -0.3,-7.4673 -0.2,-0.19651 -1,0.98254 -1.7,2.5546 -1.1,2.65286 -1.3,3.83191 -1.4,8.74461 -0.2,9.62889 -0.8,10.90619 -5.7,11.59397 -4.9,0.68778 -6.3,-4.02841 -3.5,-10.61143 0.8,-1.86683 1.4,-3.53714 1.4,-3.83191 0,-0.78603 -1,-0.39301 -1.4,0.49127 -2,5.20747 -5.3,9.03937 -11.3,13.26429 -7,4.7162 -7.3,6.19 -0.5,3.93016 2,-0.78603 3.7,-1.86682 5.4,-3.53714 2.4,-2.45635 2.4,-2.45635 2.4,-0.68778 0,2.16159 0.2,5.20746 2.2,5.20746 z m 19.3,-5.30571 c -0.3,2.06333 1.2,2.25984 1.9,0.19651 1.6,-4.9127 2,-23.77747 0.7,-23.48271 -0.2,0 -0.9,1.17905 -1.6,2.65286 -1.1,2.35809 -1.1,3.04587 -1,10.80794 0.2,4.42143 0.2,8.94111 0,9.8254 z m -65.2,-10.02191 c 1.9,-3.34064 3.1,-9.13762 3.5,-15.91715 0.3,-6.28825 0,-6.68127 -2.1,-2.94762 -1.4,2.45635 -1.6,3.14413 -2.6,11.88874 -1.3,10.21841 -1.1,11.1027 1.2,6.97603 z M 151,549.65944 c 1.6,1.76857 2.2,1.67032 4,-0.29476 1.6,-1.86683 1.6,-1.86683 0.6,-3.24239 -1,-1.47381 -1,-1.47381 0.6,-3.24238 1.6,-1.76857 1.6,-1.76857 0.5,-3.14413 -1.6,-1.96508 -2.2,-1.86682 -4,0.29477 -1.6,1.86682 -1.6,1.86682 -0.5,3.14412 1.1,1.27731 1.1,1.27731 -0.5,2.75112 -2.1,1.86682 -2.2,2.25984 -0.7,3.73365 z m 51.8,0 c 1.8,1.08079 2,1.08079 3.7,-0.39302 1.4,-1.2773 1.4,-1.2773 3.2,-0.29476 1.7,0.98254 1.8,0.98254 2.9,-0.39302 1.5,-1.76857 1.5,-2.84936 0.2,-3.8319 -1.4,-1.0808 -1.5,-1.0808 -3.2,0.68778 -1.5,1.47381 -1.5,1.47381 -2.7,0.68777 -1.6,-1.2773 -2.3,-1.17904 -3.9,0.39302 -1.8,1.47381 -1.9,2.16159 -0.2,3.14413 z m 32.9,-0.0983 c 0.7,0.78604 2.3,0.98254 3.1,0.19651 1.8,1.17905 3,-0.58952 3.2,-2.65286 0.1,-1.37555 -1,-1.67031 -1.2,-0.39301 -0.3,2.25984 -1,1.37555 -1,0.29476 0,-0.68778 -0.7,-0.58952 -1,0 -1,1.76857 -2.6,1.96508 -1.8,-0.19651 0.4,-1.08079 -0.2,-1.08079 -1,0.19651 -0.5,0.78603 -0.9,1.86683 -0.3,2.5546 z"
   id="path53"
   style="stroke-width:0.991232" />&#10;<circle
   id="path54"
   style="fill:#ffffff;stroke:#ffffff"
   cx="25.075609"
   cy="173.28371"
   r="3.7683259e-12" /><path
   style="fill:#ffffff;stroke:#ffffff;stroke-width:8e-08;stroke-linejoin:bevel;stroke-dasharray:none;stroke-opacity:0.956863;paint-order:markers fill stroke"
   id="path55"
   d="m 25.596231,172.93548 c 0.454458,-2.56445 1.259939,-5.03096 2.304383,-7.41079 0.327228,-0.96755 1.074044,-1.61355 1.719955,-2.35577 0.316874,-0.36412 0.610069,-0.74819 0.914863,-1.12248 1.322714,-1.60326 2.797568,-3.07603 4.322647,-4.48516 1.078064,-1.04046 2.233481,-1.98869 3.414305,-2.90793 0,0 -0.0036,-3.4e-4 -0.0036,-3.4e-4 v 0 c -1.180811,0.91928 -2.336224,1.86752 -3.41431,2.90797 -1.525092,1.40915 -2.999984,2.88192 -4.322704,4.4852 -0.304795,0.37429 -0.597996,0.75835 -0.914871,1.12246 -0.645939,0.74224 -1.392696,1.38833 -1.719932,2.35589 -1.04439,2.37989 -1.849848,4.84643 -2.304409,7.41088 z" /><circle
   id="path56"
   style="fill:#ffffff;stroke:#ffffff"
   cx="26.572662"
   cy="171.41238"
   r="3.7683259e-12" /><circle
   id="path57"
   style="fill:#ffffff;stroke:#ffffff"
   cx="23.57856"
   cy="175.15501"
   r="3.7683259e-12" /><circle
   id="path58"
   style="fill:#ffffff;stroke:#000000;stroke-opacity:1"
   cx="23.952822"
   cy="175.15501"
   r="3.7683259e-12" /><circle
   id="path59"
   style="fill:#ffffff;stroke:#000000"
   cx="25.449873"
   cy="171.41238"
   r="3.7683259e-12" /><circle
   id="path60"
   style="fill:#ffffff;stroke:#000000"
   cx="40.046124"
   cy="157.19038"
   r="3.7683259e-12" /><path
   style="fill:#ffffff;stroke:#000000;stroke-width:8e-08;stroke-linejoin:bevel;stroke-dasharray:none;stroke-opacity:1;paint-order:markers fill stroke"
   id="path61"
   d="m 63.961751,148.36585 c 4.077062,-0.81631 8.172016,-1.54729 12.308425,-1.98256 0,0 -0.0036,-5.3e-4 -0.0036,-5.3e-4 v 0 c -4.136427,0.43532 -8.231395,1.16633 -12.308488,1.98258 z" /><path
   style="fill:#ffffff;fill-opacity:0;stroke:#000000;stroke-width:1;stroke-linejoin:bevel;stroke-dasharray:none;stroke-opacity:1;paint-order:markers fill stroke"
   d="m 26.011268,170.19603 c 5.104059,-13.58808 15.717802,-20.88429 30.034592,-23.76569 13.894657,-2.32696 28.121945,1.77719 41.168913,6.36246 l 36.022797,13.75417 c 9.00261,4.0357 19.4729,4.25911 29.4732,4.30401 8.21509,-0.64411 11.51737,-6.15545 15.03863,-10.25817 l 85.63498,2.3051 c 2.60693,3.70038 9.27878,9.74267 24.79801,8.51447 6.36247,-0.74852 11.7269,-1.74656 16.0933,-2.9941 20.27002,-6.51748 34.63372,-12.93117 50.99331,-17.96462 9.28226,-2.84613 16.95796,-3.02176 25.07561,-1.49705 14.79399,2.77871 21.99271,11.48781 26.4603,18.60823"
   id="path62"
   sodipodi:nodetypes="ccccccccccsc" /><g
   id="g52"
   transform="rotate(-1.5439056,1179.9635,-109.3828)">&#10;	<g
   id="g51">&#10;		<path
   class="st11"
   d="m 182.9,55.1 v 0 0.4 z"
   id="path37"
   sodipodi:nodetypes="cccc" />&#10;		<path
   class="st12"
   d="m 153.18713,22.703198 c 4.2,-2.4 8,-3 11.3,-2.4 -3.3,-0.7 -7.1,0 -11.3,2.4 z"
   id="path38"
   sodipodi:nodetypes="ccc" />&#10;		<path
   class="st12"
   d="m 156.9,10.2 0.8,-0.8 z"
   id="path39"
   sodipodi:nodetypes="ccc" />&#10;		<path
   class="st12"
   d="m 158.4,8.8 c 0.5,-0.4 1,-0.7 1.4,-0.9 -0.5,0.2 -1,0.5 -1.4,0.9 z"
   id="path40"
   sodipodi:nodetypes="ccc" />&#10;		<path
   class="st12"
   d="m 155.6,12.1 c 0.3,-0.4 0.5,-0.8 0.8,-1.2 -0.3,0.4 -0.6,0.8 -0.8,1.2 z"
   id="path41"
   sodipodi:nodetypes="ccc" />&#10;		<path
   class="st12"
   d="m 155.2,12.6 c -0.4,0.7 -0.8,1.3 -1.1,2 l 0.1,-0.1 c 0.3,-0.6 0.6,-1.2 1,-1.9 z"
   id="path42"
   sodipodi:nodetypes="cccc" />&#10;		<path
   class="st12"
   d="m 254.59393,81.746438 c 9.81003,-22.659631 17.66359,-31.496042 11.46359,-43.196042 -1.1,-2 -3.3819,-8.215817 -9.4819,-8.315817 L 253.24291,28.94805 C 251.34291,29.24805 244,19.9 232.7,27.9 c -2.5,1.7 -3.3,2.3 -4.9,3.5 -4,2.9 -4.6,3.6 -7,5.1 -4.3,2.8 -3.99712,5.241488 -5.67373,6.615148 -2.03331,1.356703 -2.75052,0.965853 -3.74581,-0.229718 -4.64768,-5.582899 -5.63899,-6.835911 -7.20216,-8.399084 -2.82931,-2.829311 -6.55888,-7.109565 -15.08058,-13.783312 C 186.29772,17.603034 185.9,18.3 179.4,13.1 174.6,9.2 171.2,9.6 171,7.6 170.8,6 172.7,5.1 172.4,4.4 171.8,3.2 164.9,4 159.9,7.6 c -10.1,7.4 -9.74519,19.535788 -8.54519,19.935788 0.4,0.1 1.08963,-1.895987 3.18963,-4.295987 0,0 4.32075,-4.288853 9.65004,-2.78597 7.27906,2.340369 15.846,11.2333 22.746,28.5333 -0.5,-0.1 1.95952,-1.187131 -0.24048,1.812869 -0.2,0.3 -0.63232,0.567678 -0.73232,1.167678 0.2,1.6 0.53232,4.132322 0.73232,7.032322 0.4,4.1 0.7,7.4 0.7,8 0.2,9.2 0,21.6 0,23.4 22.1,2.7 43.0134,7.192021 65.0134,9.79202 0.75289,-4.294324 0.9127,-10.145582 2.18053,-18.445582 z"
   id="path43"
   sodipodi:nodetypes="ccccccccsscccccccccccccccc" />&#10;		<path
   class="st13"
   d="m 164.48713,20.203198 c 0,-0.1 9.51287,3.443834 15.81287,11.543834 5.2,6.7 5.7,20.652968 5.7,20.652968 0,0 -0.4,-12.952968 -4.8,-19.252968 -6.3,-9 -16.71287,-12.843834 -16.71287,-12.943834 z"
   id="path44"
   sodipodi:nodetypes="scccs" />&#10;		<path
   class="st13"
   d="m 186.8654,54.569657 c 1.3,-0.7 -2.17459,9.507645 2.79382,7.523486 3.87494,-1.547477 13.04468,-5.488723 11.49923,-10.141669 -4.83839,-14.567079 -29.01323,-35.875813 -39.0538,-36.170539 -2.33251,-0.06847 -4.49933,-0.643963 -9.64377,5.543771 -0.8,1.3 -0.6739,4.399908 -1.0739,5.299908 0.8,-1.2 1.60698,-3.57593 3.80698,-4.77593 0.3,-0.1 1.37661,-1.659049 2.87661,-1.959049 0,0 3.8466,-0.467204 6.7466,-0.0672 7.7,1 12.58738,10.483176 13.38738,11.383176 5.1,5.7 7.18503,16.972677 7.89317,19.828991 0.26337,1.062267 0.1692,0.460092 0.76768,3.535059 z"
   id="path45"
   sodipodi:nodetypes="csssccccccscc" />&#10;		<path
   class="st13"
   d="m 157.7,9.4 0.6,-0.6 c -0.2,0.1 -0.4,0.4 -0.6,0.6 z"
   id="path46"
   sodipodi:nodetypes="ccc" />&#10;		<path
   class="st13"
   d="m 153.8,15.2 0.1,-0.1 c 0.1,-0.2 0.2,-0.3 0.2,-0.4 z"
   id="path47"
   sodipodi:nodetypes="cccc" />&#10;		<path
   class="st13"
   d="m 156.4,10.9 c 0.2,-0.2 0.4,-0.5 0.6,-0.7 -0.2,0.2 -0.4,0.4 -0.6,0.7 z"
   id="path48"
   sodipodi:nodetypes="ccc" />&#10;		<path
   class="st13"
   d="m 155.2,12.6 0.3,-0.6 c -0.1,0.3 -0.2,0.4 -0.3,0.6 z"
   id="path49"
   sodipodi:nodetypes="ccc" />&#10;		<path
   class="st13"
   d="m 205.77071,35.051748 c 0.8678,0.958142 1.67022,3.013156 2.63536,3.978298 1.1,1.1 1.34273,2.249408 4.29144,5.392053 1.942,2.129886 4.22327,2.311418 7.20745,0.902869 2.70562,-1.277064 3.84985,-2.237775 0.79504,-8.724968 7.62184,4.573421 10.77664,4.433604 16.0953,6.081559 4.96435,0.859333 6.16031,0.238953 7.96376,-1.253551 5.78795,-4.790009 9.11025,-5.181796 14.04453,-4.104622 5.33394,1.042061 7.3966,2.064839 7.3966,2.064839 C 265.75245,30.629804 240.39032,14.039636 223.57247,18.489456 215.76337,12.358189 216.7,11.1 206.9,9.3 c -0.9,-0.2 -4.5,-0.7 -6.4,1 -1.1,1 -1.5,2.3 -1.7,3.3 -0.1,0.3 -0.1,0.6 -0.1,0.8 v 0.3 C 197.56681,12.599967 195.5445,11.370791 192.37071,9.191194 189.47467,7.2023354 178.38772,3.5836546 171.09545,3.9676781 166.74483,4.1967893 159.5,7.8 158.8,8.4 c -3.5,3 -5.2,6.9 -5.6,7.9 -1.1,2.6 -1.7,5.5 -1.9,6.2 -0.3,1.2 -0.4,2.3 -0.5,3.1 0.1,-0.7 0.2,-1.8 0.5,-3.1 0,0 0.2,-0.9 0.4,-1.7 0.4,-1.4 1.8,-5.3 4.4,-7.3 1.3,-1.1 3.5,-1.8 9,-1.7 3.5,0.1 12.8,0.2 20.6,6.5 3.9346,3.134598 7.53883,6.443369 11.31214,9.452045 6.13477,4.891595 6.68888,5.01454 8.75857,7.299703 z M 212.8,24.6 c 2.4,0.4 3.9,2.5 3.6,4.9 -0.4,2.4 -2.5,3.9 -4.9,3.6 v 0 c -2.3,-0.4 -3.9,-2.5 -3.6,-4.9 0.4,-2.4 2.7,-4 4.9,-3.6 z"
   id="path50"
   sodipodi:nodetypes="sscsccscsccccscsasccccccccssccsscc" />&#10;		<path
   class="st12"
   d="m 211.5,33 v 0 c 2.4,0.4 4.5,-1.2 4.9,-3.6 0.4,-2.4 -1.2,-4.5 -3.6,-4.9 -2.3,-0.4 -4.5,1.2 -4.9,3.6 -0.3,2.4 1.3,4.6 3.6,4.9 z"
   id="path51"
   sodipodi:nodetypes="sssccs" />&#10;	</g>&#10;	<path
   class="st12"
   d="m 187.23232,65.01715 c 0.2,2 0.0354,3.841425 0.13535,7.141425 0.1,4.7 -0.59393,9.6 -1.19393,14.7 -0.6,5.3 -3.27077,11.832473 -7.27077,23.532475 -1.2,3.6 -2.16879,6.68668 -3.44035,9.96139 -2.10502,5.42113 -3.82574,9.81287 -6.92574,16.01287 0,0 4.18698,-6.35459 -14.01302,19.04541 13.1,0 24.57614,0.0893 24.57614,0.0893 13.9,-15.4 18.71409,-50.78643 18.71409,-50.78643 0,0 -4.91409,35.38643 -18.71409,50.78643 l 0.0911,10.25335 C 193.09115,159.15335 199.6,157 199.6,157 c 9.6,-17.6 11.78541,-45.91404 11.78541,-45.91404 0,0 -2.18541,28.31404 -11.78541,45.91404 l 11.89056,13.86471 C 215.89056,165.06471 226,157 226,157 c 0,0 8.19303,2.71769 20.31474,8.14745 C 249.63753,161.13056 250.8,158.4 250.8,158.4 c 9.03557,0.7422 20.62777,0.71598 20.31474,1.22466 -11.9,-17.9 -14.80762,-25.80144 -17.20762,-35.50144 -0.7,-2.6 -2.28989,-9.34043 -0.97024,-27.618767 0.44071,-6.007859 1.82002,-13.402489 2.41839,-15.387503 1.1863,-3.708393 2.8985,-8.376839 5.31485,-12.581531 M 250.9,158.3 c -12.4,-18.3 -13.02049,-51.94487 -13.02049,-51.94487 0,0 0.52049,33.64487 13.02049,51.94487 z M 226,156.9 c -3.6,-10.2 -1.78189,-46.14675 -1.78189,-46.14675 0,0 -1.81811,35.84675 1.78189,46.14675 z"
   id="path52"
   sodipodi:nodetypes="ccccacccccccccccccccccccccccc" />&#10;</g></svg>
