<?xml version="1.0" encoding="UTF-8" standalone="no"?>
<!-- Created with Inkscape (http://www.inkscape.org/) -->
<svg
   xmlns:svg="http://www.w3.org/2000/svg"
   xmlns="http://www.w3.org/2000/svg"
   version="1.0"
   width="450"
   height="390"
   id="svg8910"
   xml:space="preserve"><defs
     id="defs8912" /><g
     transform="matrix(3,0,0,3,13.063665,7.5)"
     id="g41664"><path
       d="M 21.49217,17.51585 C 21.89017,17.51585 22.08917,17.11777 22.08917,16.91872 C 22.08917,16.52063 21.69117,16.12254 21.49217,16.32159 C 21.09417,16.32159 20.89516,16.52063 20.89516,16.71968 L 18.10915,16.71968 L 18.10915,17.31681 L 20.89516,17.11777 C 20.89516,17.31681 21.29317,17.51585 21.49217,17.51585 z"
       id="path3099"
       style="fill:#319400;fill-opacity:1" /><path
       d="M 20.09916,19.5063 C 20.49716,19.5063 20.69616,19.10821 20.69616,18.90917 C 20.69616,18.51108 20.49716,18.31203 20.09916,18.31203 C 19.70116,18.31203 19.50216,18.51108 19.50216,18.71012 L 16.71614,18.90917 L 16.71614,19.5063 L 19.50216,19.10821 C 19.70116,19.5063 19.90016,19.5063 20.09916,19.5063 z"
       id="path3101"
       style="fill:#319400;fill-opacity:1" /><path
       d="M 18.90515,21.49674 C 19.30316,21.49674 19.50216,21.09865 19.50216,20.89961 C 19.50216,20.50152 19.10416,20.30248 18.70615,20.30248 C 18.50715,20.30248 18.30815,20.50152 18.30815,20.70056 L 15.32313,21.09865 L 15.52214,21.49674 L 18.30815,21.09865 C 18.30815,21.49674 18.70615,21.49674 18.90515,21.49674 z"
       id="path3103"
       style="fill:#319400;fill-opacity:1" /><path
       d="M 17.51215,23.68623 C 17.91015,23.68623 18.10915,23.48719 18.10915,23.0891 C 17.91015,22.69101 17.71115,22.49196 17.31315,22.49196 C 17.11414,22.49196 16.91514,22.69101 16.71614,23.0891 L 13.93013,23.48719 L 14.12913,23.88528 L 16.91514,23.48719 C 16.91514,23.68623 17.31315,23.88528 17.51215,23.68623 z"
       id="path3105"
       style="fill:#319400;fill-opacity:1" /><path
       d="M 16.31814,25.87572 C 16.51714,25.87572 16.71614,25.47763 16.71614,25.07954 C 16.71614,24.8805 16.31814,24.68145 15.92014,24.68145 C 15.72114,24.68145 15.52214,25.07954 15.52214,25.27859 L 12.73612,26.07476 L 12.93512,26.47285 L 15.52214,25.67667 C 15.72114,25.87572 15.92014,26.07476 16.31814,25.87572 z"
       id="path3107"
       style="fill:#319400;fill-opacity:1" /><path
       d="M 14.72613,28.4633 C 14.92513,28.4633 15.12413,28.06521 15.12413,27.86616 C 15.12413,27.46807 14.72613,27.26903 14.32813,27.26903 C 14.12913,27.46807 13.93013,27.66712 13.93013,27.86616 L 11.14411,28.66234 L 11.34311,29.06043 L 13.93013,28.26425 C 14.12913,28.4633 14.32813,28.66234 14.72613,28.4633 z"
       id="path3109"
       style="fill:#319400;fill-opacity:1" /><path
       d="M 13.73113,30.85183 C 14.12913,30.85183 14.32813,30.45374 14.12913,30.05565 C 14.12913,29.85661 13.73113,29.65756 13.33312,29.65756 C 13.13412,29.65756 12.93512,29.85661 12.93512,30.2547 L 10.14911,30.85183 L 10.34811,31.44896 L 12.93512,30.65278 C 13.13412,30.85183 13.53212,31.05087 13.73113,30.85183 z"
       id="path3111"
       style="fill:#319400;fill-opacity:1" /><path
       d="M 12.93512,33.24036 C 13.33312,33.04132 13.53212,32.84227 13.33312,32.44418 C 13.33312,32.0461 12.93512,31.84705 12.53712,32.0461 C 12.33812,32.0461 12.13912,32.24514 12.13912,32.44418 L 9.3531,33.24036 L 9.5521,33.63845 L 12.13912,33.04132 C 12.33812,33.24036 12.73612,33.24036 12.93512,33.24036 z"
       id="path3113"
       style="fill:#319400;fill-opacity:1" /><path
       d="M 12.13912,35.42985 C 12.33812,35.23081 12.53712,34.83272 12.33812,34.43463 C 12.33812,34.23558 11.94012,34.03654 11.54211,34.03654 C 11.34311,34.23558 11.14411,34.43463 11.14411,34.63367 L 8.5571,35.62889 L 8.7561,36.02698 L 11.34311,35.23081 C 11.54211,35.42985 11.74111,35.42985 12.13912,35.42985 z"
       id="path3115"
       style="fill:#319400;fill-opacity:1" /><path
       d="M 11.14411,38.01743 C 11.54211,38.01743 11.74111,37.61934 11.54211,37.22125 C 11.54211,37.02221 11.14411,36.82316 10.74611,37.02221 C 10.54711,37.02221 10.34811,37.22125 10.34811,37.61934 L 7.76109,38.61456 L 7.96009,39.01265 L 10.54711,38.01743 C 10.74611,38.21647 10.94511,38.21647 11.14411,38.01743 z"
       id="path3117"
       style="fill:#319400;fill-opacity:1" /><path
       d="M 10.34811,40.80405 C 10.74611,40.80405 10.94511,40.40596 10.74611,40.00787 C 10.54711,39.80883 10.34811,39.60978 9.9501,39.60978 C 9.7511,39.80883 9.5521,40.00787 9.5521,40.20692 L 6.96509,41.40118 L 7.16409,41.79927 L 9.7511,40.80405 C 9.9501,41.00309 10.14911,41.00309 10.34811,40.80405 z"
       id="path3119"
       style="fill:#319400;fill-opacity:1" /><path
       d="M 23.28318,15.52541 C 23.48218,15.52541 23.88018,15.32637 23.88018,14.92828 C 23.88018,14.53019 23.48218,14.33114 23.08418,14.33114 C 22.88518,14.33114 22.68617,14.53019 22.48717,14.72923 L 19.70116,14.92828 L 19.70116,15.32637 L 22.68617,15.12732 C 22.68617,15.52541 22.88518,15.52541 23.28318,15.52541 z"
       id="path3121"
       style="fill:#319400;fill-opacity:1" /><path
       d="M 24.87519,13.53497 C 25.07419,13.53497 25.47219,13.33592 25.47219,12.93783 C 25.27319,12.53974 25.07419,12.3407 24.67619,12.3407 C 24.47718,12.3407 24.27818,12.53974 24.07918,12.73879 L 21.29317,12.93783 L 21.29317,13.33592 L 24.07918,13.13688 C 24.27818,13.53497 24.47718,13.53497 24.87519,13.53497 z"
       id="path3123"
       style="fill:#319400;fill-opacity:1" /><path
       d="M 26.6662,11.74357 C 27.0642,11.74357 27.2632,11.34548 27.2632,10.94739 C 27.2632,10.74834 27.0642,10.35026 26.6662,10.35026 C 26.4672,10.35026 26.26819,10.5493 26.06919,10.74834 L 23.28318,10.94739 L 23.28318,11.34548 L 26.06919,11.34548 C 26.26819,11.54452 26.4672,11.74357 26.6662,11.74357 z"
       id="path3125"
       style="fill:#319400;fill-opacity:1" /><path
       d="M 28.0592,9.55408 C 28.45721,9.35503 28.65621,9.15599 28.65621,8.7579 C 28.65621,8.35981 28.25821,8.16077 27.8602,8.16077 C 27.6612,8.35981 27.4622,8.55886 27.4622,8.7579 L 24.67619,9.15599 L 24.67619,9.75312 L 27.4622,9.15599 C 27.6612,9.35503 27.8602,9.55408 28.0592,9.55408 z"
       id="path3127"
       style="fill:#319400;fill-opacity:1" /><path
       d="M 23.68118,6.76746 C 23.68118,6.36937 23.28318,6.17032 22.88518,6.36937 C 22.48717,6.36937 22.28817,6.76746 22.48717,7.16555 C 22.48717,7.36459 22.68617,7.56363 22.88518,7.56363 L 23.68118,10.35026 L 24.07918,10.15121 L 23.48218,7.36459 C 23.68118,7.36459 23.68118,6.9665 23.68118,6.76746 z"
       id="path3129"
       style="fill:#319400;fill-opacity:1" /><path
       d="M 21.89017,8.16077 C 21.89017,7.96172 21.49217,7.76268 21.09417,7.76268 C 20.89516,7.76268 20.69616,8.16077 20.69616,8.55886 C 20.69616,8.7579 20.89516,8.95695 21.29317,8.95695 L 21.89017,11.74357 L 22.28817,11.74357 L 21.69117,8.95695 C 21.89017,8.7579 22.08917,8.55886 21.89017,8.16077 z"
       id="path3131"
       style="fill:#319400;fill-opacity:1" /><path
       d="M 20.09916,9.95217 C 20.09916,9.55408 19.70116,9.35503 19.30316,9.55408 C 18.90515,9.55408 18.70615,9.95217 18.90515,10.35026 C 18.90515,10.5493 19.10416,10.74834 19.50216,10.74834 L 20.49716,14.1321 L 20.89516,14.1321 L 19.90016,10.5493 C 20.09916,10.5493 20.09916,10.15121 20.09916,9.95217 z"
       id="path3133"
       style="fill:#319400;fill-opacity:1" /><path
       d="M 18.50715,11.74357 C 18.30815,11.34548 17.91015,11.14643 17.71115,11.14643 C 17.31315,11.34548 17.11414,11.54452 17.11414,11.94261 C 17.31315,12.3407 17.51215,12.3407 17.71115,12.53974 L 18.70615,15.9235 L 19.10416,15.72445 L 18.10915,12.3407 C 18.30815,12.14166 18.50715,11.94261 18.50715,11.74357 z"
       id="path3135"
       style="fill:#319400;fill-opacity:1" /><path
       d="M 16.91514,13.33592 C 16.91514,12.93783 16.51714,12.93783 16.11914,12.93783 C 15.92014,13.13688 15.72114,13.33592 15.72114,13.73401 C 15.92014,13.93306 16.11914,14.1321 16.31814,14.1321 L 17.51215,17.51585 L 17.91015,17.51585 L 16.71614,14.1321 C 16.91514,13.93306 17.11414,13.53497 16.91514,13.33592 z"
       id="path3137"
       style="fill:#319400;fill-opacity:1" /><path
       d="M 15.12413,15.52541 C 14.92513,15.32637 14.72613,15.12732 14.32813,15.12732 C 13.93013,15.32637 13.73113,15.72445 13.93013,16.12254 C 13.93013,16.32159 14.32813,16.52063 14.52713,16.52063 L 15.72114,19.90439 L 16.11914,19.70534 L 14.92513,16.32159 C 15.12413,16.12254 15.12413,15.9235 15.12413,15.52541 z"
       id="path3139"
       style="fill:#319400;fill-opacity:1" /><path
       d="M 13.53212,17.91394 C 13.53212,17.51585 13.13412,17.51585 12.73612,17.51585 C 12.53712,17.7149 12.33812,18.11299 12.33812,18.31203 C 12.53712,18.51108 12.73612,18.71012 12.93512,18.71012 L 14.12913,22.09388 L 14.52713,21.89483 L 13.33312,18.71012 C 13.53212,18.51108 13.73113,18.11299 13.53212,17.91394 z"
       id="path3141"
       style="fill:#319400;fill-opacity:1" /><path
       d="M 12.13912,19.90439 C 12.13912,19.70534 11.74111,19.5063 11.34311,19.70534 C 11.14411,19.70534 10.94511,20.10343 11.14411,20.50152 C 11.14411,20.70056 11.34311,20.89961 11.74111,20.89961 L 13.13412,24.08432 L 13.53212,23.88528 L 12.13912,20.70056 C 12.33812,20.50152 12.33812,20.30248 12.13912,19.90439 z"
       id="path3143"
       style="fill:#319400;fill-opacity:1" /><path
       d="M 10.74611,22.49196 C 10.54711,22.09388 10.14911,22.09388 9.9501,22.09388 C 9.5521,22.29292 9.3531,22.69101 9.5521,23.0891 C 9.7511,23.28814 9.9501,23.48719 10.14911,23.28814 L 11.54211,26.6719 L 12.13912,26.47285 L 10.54711,23.28814 C 10.74611,23.0891 10.94511,22.69101 10.74611,22.49196 z"
       id="path3145"
       style="fill:#319400;fill-opacity:1" /><path
       d="M 9.5521,24.28336 C 9.3531,24.08432 8.9551,23.88528 8.7561,24.08432 C 8.3581,24.28336 8.3581,24.68145 8.5571,25.07954 C 8.5571,25.27859 8.9551,25.27859 9.1541,25.27859 L 10.94511,28.4633 L 11.34311,28.26425 L 9.5521,25.07954 C 9.7511,24.8805 9.7511,24.68145 9.5521,24.28336 z"
       id="path3147"
       style="fill:#319400;fill-opacity:1" /><path
       d="M 8.5571,26.6719 C 8.3581,26.47285 7.96009,26.27381 7.76109,26.47285 C 7.36309,26.6719 7.16409,27.06999 7.36309,27.26903 C 7.56209,27.46807 7.76109,27.66712 8.15909,27.66712 L 9.7511,30.85183 L 10.14911,30.65278 L 8.5571,27.46807 C 8.5571,27.26903 8.7561,26.87094 8.5571,26.6719 z"
       id="path3149"
       style="fill:#319400;fill-opacity:1" /><path
       d="M 7.56209,28.4633 C 7.36309,28.26425 6.96509,28.06521 6.76609,28.26425 C 6.36808,28.4633 6.36808,28.86139 6.56709,29.25947 C 6.76609,29.45852 6.96509,29.45852 7.16409,29.45852 L 9.1541,32.44418 L 9.5521,32.24514 L 7.56209,29.25947 C 7.76109,29.06043 7.76109,28.66234 7.56209,28.4633 z"
       id="path3151"
       style="fill:#319400;fill-opacity:1" /><path
       d="M 6.56709,30.45374 C 6.36808,30.05565 5.97008,30.05565 5.77108,30.2547 C 5.37308,30.45374 5.37308,30.85183 5.57208,31.05087 C 5.77108,31.24992 5.97008,31.44896 6.36808,31.44896 L 8.3581,34.23558 L 8.7561,34.03654 L 6.56709,31.05087 C 6.76609,30.85183 6.76609,30.65278 6.56709,30.45374 z"
       id="path3153"
       style="fill:#319400;fill-opacity:1" /><path
       d="M 5.97008,32.44418 C 5.77108,32.24514 5.37308,32.24514 5.17408,32.44418 C 4.77608,32.64323 4.77608,33.04132 4.97508,33.24036 C 4.97508,33.43941 5.37308,33.63845 5.57208,33.43941 L 7.56209,36.42507 L 7.96009,36.22603 L 5.97008,33.24036 C 6.16908,33.04132 6.16908,32.84227 5.97008,32.44418 z"
       id="path3155"
       style="fill:#319400;fill-opacity:1" /><path
       d="M 4.97508,35.23081 C 4.77608,34.83272 4.37807,34.83272 3.98007,35.03176 C 3.78107,35.23081 3.78107,35.62889 3.98007,36.02698 C 3.98007,36.22603 4.37807,36.22603 4.57707,36.22603 L 6.76609,39.01265 L 7.16409,38.61456 L 4.97508,35.82794 C 5.17408,35.62889 5.17408,35.42985 4.97508,35.23081 z"
       id="path3157"
       style="fill:#319400;fill-opacity:1" /><path
       d="M 4.17907,37.61934 C 3.98007,37.42029 3.58207,37.42029 3.38307,37.61934 C 3.18407,37.81838 2.98507,38.21647 3.18407,38.41552 C 3.38307,38.81361 3.78107,38.81361 3.98007,38.81361 L 6.16908,41.60023 L 6.56709,41.20214 L 4.37807,38.41552 C 4.37807,38.21647 4.37807,38.01743 4.17907,37.61934 z"
       id="path3159"
       style="fill:#319400;fill-opacity:1" /><path
       d="M 3.58207,40.80405 C 3.18407,40.605 2.78606,40.40596 2.58706,40.80405 C 2.38806,41.00309 2.38806,41.40118 2.58706,41.60023 C 2.78606,41.79927 2.98507,41.79927 3.18407,41.79927 L 5.57208,44.58589 L 5.97008,44.1878 L 3.58207,41.60023 C 3.78107,41.20214 3.78107,41.00309 3.58207,40.80405 z"
       id="path3161"
       style="fill:#319400;fill-opacity:1" /><path
       d="M 3.18407,44.1878 C 2.98507,43.98876 2.58706,43.78972 2.18906,44.1878 C 1.99006,44.38685 1.99006,44.78494 2.18906,44.98398 C 2.38806,45.18303 2.58706,45.18303 2.78606,45.18303 L 5.17408,47.96965 L 5.57208,47.57156 L 3.18407,44.78494 C 3.38307,44.58589 3.38307,44.38685 3.18407,44.1878 z"
       id="path3163"
       style="fill:#319400;fill-opacity:1" /><path
       d="M 2.58706,47.96965 C 2.38806,47.7706 1.99006,47.7706 1.59206,47.96965 C 1.39306,48.16869 1.39306,48.56678 1.59206,48.76583 C 1.79106,49.16391 1.99006,49.16391 2.18906,48.96487 L 4.57707,51.75149 L 4.97508,51.55245 L 2.58706,48.76583 C 2.78606,48.56678 2.78606,48.16869 2.58706,47.96965 z"
       id="path3165"
       style="fill:#319400;fill-opacity:1" /><path
       d="M 2.18906,51.75149 C 1.99006,51.55245 1.59206,51.3534 1.39306,51.75149 C 1.19406,51.95054 0.99506,52.34862 1.39306,52.54767 C 1.39306,52.74671 1.79106,52.94576 1.99006,52.74671 L 4.37807,55.33429 L 4.77608,55.13525 L 2.38806,52.54767 C 2.38806,52.14958 2.38806,51.95054 2.18906,51.75149 z"
       id="path3167"
       style="fill:#319400;fill-opacity:1" /><path
       d="M 2.18906,55.53333 C 1.79106,55.13525 1.39306,55.13525 1.19406,55.33429 C 0.99506,55.73238 0.99506,56.13047 1.19406,56.32951 C 1.39306,56.52856 1.59206,56.52856 1.99006,56.52856 L 4.37807,58.91709 L 4.77608,58.71805 L 2.18906,56.13047 C 2.38806,55.93142 2.18906,55.53333 2.18906,55.53333 z"
       id="path3169"
       style="fill:#319400;fill-opacity:1" /><path
       d="M 1.99006,58.91709 C 1.59206,58.71805 1.19406,58.71805 0.99506,58.91709 C 0.79605,59.31518 0.79605,59.71327 1.19406,59.91231 C 1.39306,60.11136 1.59206,60.11136 1.99006,59.91231 L 4.77608,62.1018 L 4.97508,61.70371 L 2.18906,59.51422 C 2.18906,59.31518 2.18906,59.11613 1.99006,58.91709 z"
       id="path3171"
       style="fill:#319400;fill-opacity:1" /><path
       d="M 2.18906,62.49989 C 1.79106,62.30084 1.39306,62.49989 1.19406,62.69893 C 0.99506,63.09702 1.19406,63.49511 1.39306,63.69416 C 1.59206,63.69416 1.99006,63.69416 2.18906,63.69416 L 5.17408,65.48555 L 5.37308,65.08747 L 2.38806,63.29607 C 2.38806,62.89798 2.38806,62.69893 2.18906,62.49989 z"
       id="path3173"
       style="fill:#319400;fill-opacity:1" /><path
       d="M 2.58706,66.08269 C 2.18906,65.88364 1.79106,66.08269 1.59206,66.28173 C 1.39306,66.67982 1.59206,67.07791 1.79106,67.27695 C 2.18906,67.27695 2.38806,67.27695 2.58706,67.27695 L 5.57208,69.06835 L 5.77108,68.67027 L 2.78606,66.87887 C 2.78606,66.48078 2.78606,66.28173 2.58706,66.08269 z"
       id="path3175"
       style="fill:#319400;fill-opacity:1" /><path
       d="M 2.98507,69.66549 C 2.58706,69.46644 2.18906,69.66549 1.99006,69.86453 C 1.99006,70.26262 1.99006,70.66071 2.38806,70.66071 C 2.58706,70.85975 2.98507,70.85975 3.18407,70.66071 L 6.36808,72.05402 L 6.56709,71.65593 L 3.38307,70.26262 C 3.38307,69.86453 3.18407,69.66549 2.98507,69.66549 z"
       id="path3177"
       style="fill:#319400;fill-opacity:1" /><path
       d="M 3.38307,72.45211 C 2.98507,72.25306 2.58706,72.45211 2.58706,72.8502 C 2.38806,73.04924 2.58706,73.44733 2.78606,73.64638 C 2.98507,73.64638 3.38307,73.64638 3.58207,73.44733 L 6.76609,75.03969 L 6.96509,74.6416 L 3.78107,73.04924 C 3.78107,72.8502 3.58207,72.65115 3.38307,72.45211 z"
       id="path3179"
       style="fill:#319400;fill-opacity:1" /><path
       d="M 3.98007,75.03969 C 3.58207,74.84064 3.38307,75.03969 3.18407,75.43777 C 2.98507,75.63682 3.18407,76.03491 3.38307,76.23395 C 3.78107,76.23395 3.98007,76.23395 4.17907,76.03491 L 7.36309,77.62726 L 7.56209,77.22917 L 4.37807,75.63682 C 4.37807,75.43777 4.17907,75.23873 3.98007,75.03969 z"
       id="path3181"
       style="fill:#319400;fill-opacity:1" /><path
       d="M 4.57707,77.22917 C 4.17907,77.03013 3.78107,77.22917 3.58207,77.42822 C 3.58207,77.82631 3.58207,78.2244 3.78107,78.42344 C 4.17907,78.42344 4.37807,78.42344 4.57707,78.2244 L 8.3581,80.81197 L 8.7561,80.41388 L 4.77608,77.82631 C 4.97508,77.62726 4.77608,77.42822 4.57707,77.22917 z"
       id="path3183"
       style="fill:#319400;fill-opacity:1" /><path
       d="M 9.7511,43.78972 C 10.14911,43.59067 10.14911,43.19258 10.14911,42.79449 C 9.9501,42.59545 9.5521,42.3964 9.1541,42.59545 C 8.9551,42.59545 8.9551,42.99354 8.9551,43.19258 L 5.57208,44.78494 L 5.77108,45.18303 L 9.1541,43.59067 C 9.1541,43.78972 9.5521,43.78972 9.7511,43.78972 z"
       id="path3185"
       style="fill:#319400;fill-opacity:1" /><path
       d="M 9.1541,46.77538 C 9.3531,46.57634 9.5521,46.17825 9.3531,45.9792 C 9.1541,45.58111 8.7561,45.58111 8.5571,45.78016 C 8.15909,45.9792 8.15909,46.17825 8.15909,46.37729 L 5.17408,48.36774 L 5.37308,48.76583 L 8.3581,46.77538 C 8.5571,46.97443 8.9551,46.97443 9.1541,46.77538 z"
       id="path3187"
       style="fill:#319400;fill-opacity:1" /><path
       d="M 8.9551,50.15914 C 9.3531,49.96009 9.3531,49.562 9.1541,49.36296 C 8.9551,48.96487 8.5571,48.96487 8.3581,49.16391 C 8.15909,49.36296 7.96009,49.562 7.96009,49.76105 L 4.97508,51.75149 L 5.17408,52.14958 L 8.15909,50.15914 C 8.3581,50.35818 8.7561,50.35818 8.9551,50.15914 z"
       id="path3189"
       style="fill:#319400;fill-opacity:1" /><path
       d="M 8.5571,53.54289 C 8.9551,53.34385 8.9551,52.94576 8.7561,52.54767 C 8.5571,52.34862 8.15909,52.34862 7.76109,52.54767 C 7.56209,52.74671 7.56209,52.94576 7.56209,53.1448 L 4.77608,55.33429 L 4.97508,55.73238 L 7.96009,53.54289 C 8.15909,53.74194 8.3581,53.74194 8.5571,53.54289 z"
       id="path3191"
       style="fill:#319400;fill-opacity:1" /><path
       d="M 8.3581,56.92665 C 8.7561,56.7276 8.7561,56.32951 8.5571,56.13047 C 8.3581,55.73238 7.96009,55.73238 7.76109,55.93142 C 7.36309,56.13047 7.36309,56.32951 7.36309,56.7276 L 4.57707,58.91709 L 4.97508,59.31518 L 7.76109,57.12569 C 7.96009,57.12569 8.15909,57.12569 8.3581,56.92665 z"
       id="path3193"
       style="fill:#319400;fill-opacity:1" /><path
       d="M 8.5571,59.91231 C 8.9551,59.71327 8.9551,59.31518 8.5571,58.91709 C 8.3581,58.71805 7.96009,58.71805 7.76109,58.91709 C 7.56209,59.11613 7.56209,59.51422 7.56209,59.71327 L 4.97508,62.1018 L 5.37308,62.49989 L 7.96009,59.91231 C 8.15909,60.11136 8.3581,60.11136 8.5571,59.91231 z"
       id="path3195"
       style="fill:#319400;fill-opacity:1" /><path
       d="M 8.7561,62.69893 C 8.9551,62.49989 8.9551,62.1018 8.7561,61.70371 C 8.5571,61.50467 8.15909,61.50467 7.96009,61.70371 C 7.76109,61.90276 7.56209,62.30084 7.76109,62.49989 L 5.17408,64.88842 L 5.37308,65.28651 L 7.96009,62.69893 C 8.15909,62.89798 8.5571,62.89798 8.7561,62.69893 z"
       id="path3197"
       style="fill:#319400;fill-opacity:1" /><path
       d="M 8.9551,65.88364 C 9.1541,65.6846 9.1541,65.28651 8.9551,65.08747 C 8.7561,64.68938 8.3581,64.88842 7.96009,65.08747 C 7.96009,65.28651 7.76109,65.48555 7.96009,65.6846 L 5.57208,68.47122 L 5.97008,68.67027 L 8.3581,66.08269 C 8.5571,66.08269 8.7561,66.08269 8.9551,65.88364 z"
       id="path3199"
       style="fill:#319400;fill-opacity:1" /><path
       d="M 9.5521,68.67027 C 9.7511,68.27218 9.7511,67.87409 9.5521,67.67504 C 9.1541,67.476 8.7561,67.476 8.5571,67.87409 C 8.3581,68.07313 8.3581,68.27218 8.5571,68.47122 L 6.36808,71.45689 L 6.76609,71.65593 L 8.9551,68.86931 C 9.1541,68.86931 9.5521,68.86931 9.5521,68.67027 z"
       id="path3201"
       style="fill:#319400;fill-opacity:1" /><path
       d="M 11.14411,75.03969 C 11.34311,74.6416 11.34311,74.24351 10.94511,74.04446 C 10.74611,73.84542 10.34811,73.84542 10.14911,74.24351 C 9.9501,74.44255 9.9501,74.6416 10.14911,74.84064 L 7.96009,77.82631 L 8.3581,78.02535 L 10.34811,75.23873 C 10.74611,75.23873 10.94511,75.23873 11.14411,75.03969 z"
       id="path3203"
       style="fill:#319400;fill-opacity:1" /><path
       d="M 12.53712,78.02535 C 12.73612,77.62726 12.53712,77.22917 12.33812,77.03013 C 11.94012,76.83109 11.54211,77.03013 11.34311,77.22917 C 11.34311,77.62726 11.34311,77.82631 11.34311,78.02535 L 9.3531,81.40911 L 9.7511,81.60815 L 11.74111,78.2244 C 12.13912,78.2244 12.33812,78.2244 12.53712,78.02535 z"
       id="path3205"
       style="fill:#319400;fill-opacity:1" /><path
       d="M 10.34811,71.45689 C 10.54711,71.0588 10.34811,70.66071 10.14911,70.46166 C 9.7511,70.26262 9.3531,70.46166 9.3531,70.66071 C 9.1541,70.85975 9.1541,71.25784 9.3531,71.45689 L 7.16409,74.84064 L 7.56209,75.03969 L 9.7511,71.65593 C 9.9501,71.65593 10.14911,71.65593 10.34811,71.45689 z"
       id="path3207"
       style="fill:#319400;fill-opacity:1" /><path
       d="M 26.26819,6.9665 C 14.32813,18.71012 6.76609,32.84227 4.57707,48.16869 C 2.38806,63.69416 5.77108,79.41866 14.32813,93.55082 C 14.52713,93.9489 14.92513,93.9489 15.32313,93.74986 C 15.72114,93.55082 15.72114,93.15273 15.52214,92.95368 C 7.16409,79.02057 3.78107,63.69416 5.97008,48.36774 C 8.15909,33.43941 15.32313,19.30725 27.0642,7.96172 C 27.4622,7.76268 27.4622,7.36459 27.0642,6.9665 C 26.8652,6.76746 26.4672,6.76746 26.26819,6.9665 z"
       id="path3209"
       style="fill:#319400;fill-opacity:1" /><path
       d="M 70.64544,114.4506 C 102.28664,114.4506 127.9578,88.9729 127.9578,57.32485 C 127.9578,25.67675 102.28664,-2.8421709e-14 70.64544,-2.8421709e-14 C 39.00424,-2.8421709e-14 13.33308,25.67675 13.33308,57.32485 C 13.33308,88.9729 39.00424,114.4506 70.64544,114.4506 z"
       id="path3211"
       style="fill:#facf00;stroke:none;stroke-width:2.69200516" /><path
       d="M 70.64544,112.0621 C 100.89363,112.0621 125.37078,87.5796 125.37078,57.32485 C 125.37078,27.07005 100.89363,2.58755 70.64544,2.58755 C 40.39725,2.58755 15.9201,27.07005 15.9201,57.32485 C 15.9201,87.5796 40.39725,112.0621 70.64544,112.0621 z"
       id="path3213"
       style="fill:#ffffff;stroke:none;stroke-width:2.69200516" /><path
       d="M 70.64544,110.4697 C 100.09763,110.4697 123.97777,86.78345 123.97777,57.32485 C 123.97777,27.86625 100.09763,3.9809 70.64544,3.9809 C 41.19326,3.9809 17.3131,27.86625 17.3131,57.32485 C 17.3131,86.78345 41.19326,110.4697 70.64544,110.4697 z"
       id="path3215"
       style="fill:#319400;fill-opacity:1;stroke:none;stroke-width:2.69200516" /><path
       d="M 70.64544,107.6831 C 98.50562,107.6831 121.19176,85.1911 121.19176,57.32485 C 121.19176,29.4586 98.50562,6.7675 70.64544,6.7675 C 42.78527,6.7675 20.09912,29.4586 20.09912,57.32485 C 20.09912,85.1911 42.78527,107.6831 70.64544,107.6831 z"
       id="path3217"
       style="fill:#ffffff;stroke:none;stroke-width:2.69200516" /><path
       d="M 16.91511,76.8312 C 23.08415,93.55095 36.61623,106.6879 53.73033,112.0621 L 43.58127,111.86305 L 43.58127,125 C 22.28814,116.6401 5.97004,98.52705 0,76.035 L 12.73608,86.38535 L 16.91511,76.8312 z"
       id="path3219"
       style="fill:#f7c608;fill-opacity:1;stroke:none;stroke-width:2.69200516" /><path
       d="M 119.79871,17.51585 C 119.40071,17.51585 119.20171,17.11777 119.20171,16.91872 C 119.20171,16.52063 119.40071,16.12254 119.79871,16.32159 C 120.19671,16.32159 120.39571,16.52063 120.39571,16.71968 L 123.18173,16.71968 L 123.18173,17.31681 L 120.39571,17.11777 C 120.39571,17.31681 119.99771,17.51585 119.79871,17.51585 z"
       id="path3223"
       style="fill:#319400;fill-opacity:1" /><path
       d="M 121.19172,19.5063 C 120.79372,19.5063 120.59472,19.10821 120.59472,18.90917 C 120.59472,18.51108 120.79372,18.31203 121.19172,18.31203 C 121.58972,18.31203 121.78872,18.51108 121.78872,18.71012 L 124.57474,18.90917 L 124.57474,19.5063 L 121.78872,19.10821 C 121.58972,19.5063 121.39072,19.5063 121.19172,19.5063 z"
       id="path3225"
       style="fill:#319400;fill-opacity:1" /><path
       d="M 122.38573,21.49674 C 121.98772,21.49674 121.78872,21.09865 121.78872,20.89961 C 121.78872,20.50152 122.18672,20.30248 122.58473,20.30248 C 122.78373,20.30248 122.98273,20.50152 122.98273,20.70056 L 125.96775,21.09865 L 125.76874,21.49674 L 122.98273,21.09865 C 122.98273,21.49674 122.58473,21.49674 122.38573,21.49674 z"
       id="path3227"
       style="fill:#319400;fill-opacity:1" /><path
       d="M 123.77873,23.68623 C 123.38073,23.68623 123.18173,23.48719 123.18173,23.0891 C 123.38073,22.69101 123.57973,22.49196 123.97773,22.49196 C 124.17674,22.49196 124.37574,22.69101 124.57474,23.0891 L 127.36075,23.48719 L 127.16175,23.88528 L 124.37574,23.48719 C 124.37574,23.68623 123.97773,23.88528 123.77873,23.68623 z"
       id="path3229"
       style="fill:#319400;fill-opacity:1" /><path
       d="M 124.97274,25.87572 C 124.77374,25.87572 124.37574,25.47763 124.57474,25.07954 C 124.57474,24.8805 124.97274,24.68145 125.37074,24.68145 C 125.56974,24.68145 125.76874,25.07954 125.76874,25.27859 L 128.55476,26.07476 L 128.35576,26.47285 L 125.76874,25.67667 C 125.56974,25.87572 125.37074,26.07476 124.97274,25.87572 z"
       id="path3231"
       style="fill:#319400;fill-opacity:1" /><path
       d="M 126.56475,28.4633 C 126.36575,28.4633 125.96775,28.06521 126.16675,27.86616 C 126.16675,27.46807 126.56475,27.26903 126.96275,27.26903 C 127.16175,27.46807 127.36075,27.66712 127.36075,27.86616 L 130.14677,28.66234 L 129.94777,29.06043 L 127.36075,28.26425 C 127.16175,28.4633 126.96275,28.66234 126.56475,28.4633 z"
       id="path3233"
       style="fill:#319400;fill-opacity:1" /><path
       d="M 127.55975,30.85183 C 127.16175,30.85183 126.96275,30.45374 127.16175,30.05565 C 127.16175,29.85661 127.55975,29.65756 127.95776,29.65756 C 128.15676,29.65756 128.35576,29.85661 128.35576,30.2547 L 131.14177,30.85183 L 130.94277,31.44896 L 128.35576,30.65278 C 128.15676,30.85183 127.75876,31.05087 127.55975,30.85183 z"
       id="path3235"
       style="fill:#319400;fill-opacity:1" /><path
       d="M 128.35576,33.24036 C 127.95776,33.04132 127.75876,32.84227 127.95776,32.44418 C 127.95776,32.0461 128.35576,31.84705 128.75376,32.0461 C 128.95276,32.0461 129.15176,32.24514 129.15176,32.44418 L 131.93778,33.24036 L 131.73878,33.63845 L 129.15176,33.04132 C 128.95276,33.24036 128.55476,33.24036 128.35576,33.24036 z"
       id="path3237"
       style="fill:#319400;fill-opacity:1" /><path
       d="M 129.15176,35.42985 C 128.95276,35.23081 128.75376,34.83272 128.95276,34.43463 C 128.95276,34.23558 129.35076,34.03654 129.74877,34.03654 C 129.94777,34.23558 130.14677,34.43463 130.14677,34.63367 L 132.73378,35.62889 L 132.53478,36.02698 L 129.94777,35.23081 C 129.74877,35.42985 129.54977,35.42985 129.15176,35.42985 z"
       id="path3239"
       style="fill:#319400;fill-opacity:1" /><path
       d="M 129.94777,38.01743 C 129.74877,38.01743 129.54977,37.61934 129.74877,37.22125 C 129.74877,37.02221 130.14677,36.82316 130.54477,37.02221 C 130.74377,37.02221 130.94277,37.22125 130.94277,37.61934 L 133.52979,38.61456 L 133.33079,39.01265 L 130.74377,38.01743 C 130.54477,38.21647 130.34577,38.21647 129.94777,38.01743 z"
       id="path3241"
       style="fill:#319400;fill-opacity:1" /><path
       d="M 130.94277,40.80405 C 130.54477,40.80405 130.34577,40.40596 130.54477,40.00787 C 130.74377,39.80883 130.94277,39.60978 131.34078,39.60978 C 131.53978,39.80883 131.73878,40.00787 131.73878,40.20692 L 134.32579,41.40118 L 134.12679,41.79927 L 131.53978,40.80405 C 131.34078,41.00309 131.14177,41.00309 130.94277,40.80405 z"
       id="path3243"
       style="fill:#319400;fill-opacity:1" /><path
       d="M 118.0077,15.52541 C 117.8087,15.52541 117.4107,15.32637 117.4107,14.92828 C 117.4107,14.53019 117.8087,14.33114 118.2067,14.33114 C 118.4057,14.33114 118.60471,14.53019 118.80371,14.72923 L 121.58972,14.92828 L 121.58972,15.32637 L 118.60471,15.12732 C 118.60471,15.52541 118.4057,15.52541 118.0077,15.52541 z"
       id="path3245"
       style="fill:#319400;fill-opacity:1" /><path
       d="M 116.41569,13.53497 C 116.21669,13.53497 115.81869,13.33592 115.81869,12.93783 C 115.81869,12.53974 116.21669,12.3407 116.61469,12.3407 C 116.8137,12.3407 117.0127,12.53974 117.2117,12.73879 L 119.99771,12.93783 L 119.99771,13.33592 L 117.0127,13.13688 C 117.0127,13.53497 116.8137,13.53497 116.41569,13.53497 z"
       id="path3247"
       style="fill:#319400;fill-opacity:1" /><path
       d="M 114.62468,11.74357 C 114.22668,11.74357 113.82868,11.34548 114.02768,10.94739 C 114.02768,10.74834 114.22668,10.35026 114.62468,10.35026 C 114.82368,10.35026 115.02269,10.5493 115.22169,10.74834 L 118.0077,10.94739 L 118.0077,11.34548 L 115.22169,11.34548 C 115.02269,11.54452 114.82368,11.74357 114.62468,11.74357 z"
       id="path3249"
       style="fill:#319400;fill-opacity:1" /><path
       d="M 113.23168,9.55408 C 112.83367,9.35503 112.63467,9.15599 112.63467,8.7579 C 112.63467,8.35981 113.03267,8.16077 113.43068,8.16077 C 113.62968,8.35981 113.82868,8.55886 113.82868,8.7579 L 116.61469,9.15599 L 116.61469,9.75312 L 113.82868,9.15599 C 113.62968,9.35503 113.43068,9.55408 113.23168,9.55408 z"
       id="path3251"
       style="fill:#319400;fill-opacity:1" /><path
       d="M 117.6097,6.76746 C 117.6097,6.36937 118.0077,6.17032 118.4057,6.36937 C 118.80371,6.36937 119.00271,6.76746 118.80371,7.16555 C 118.80371,7.36459 118.60471,7.56363 118.4057,7.56363 L 117.6097,10.35026 L 117.2117,10.15121 L 117.8087,7.36459 C 117.6097,7.36459 117.6097,6.9665 117.6097,6.76746 z"
       id="path3253"
       style="fill:#319400;fill-opacity:1" /><path
       d="M 119.40071,8.16077 C 119.40071,7.96172 119.79871,7.76268 120.19671,7.76268 C 120.39571,7.76268 120.59472,8.16077 120.59472,8.55886 C 120.59472,8.7579 120.39571,8.95695 119.99771,8.95695 L 119.40071,11.74357 L 119.00271,11.74357 L 119.59971,8.95695 C 119.40071,8.7579 119.20171,8.55886 119.40071,8.16077 z"
       id="path3255"
       style="fill:#319400;fill-opacity:1" /><path
       d="M 121.19172,9.95217 C 121.19172,9.55408 121.58972,9.35503 121.98772,9.55408 C 122.38573,9.55408 122.38573,9.95217 122.38573,10.35026 C 122.38573,10.5493 121.98772,10.74834 121.78872,10.74834 L 120.79372,14.1321 L 120.39571,14.1321 L 121.39072,10.5493 C 121.19172,10.5493 120.99272,10.15121 121.19172,9.95217 z"
       id="path3257"
       style="fill:#319400;fill-opacity:1" /><path
       d="M 122.78373,11.74357 C 122.98273,11.34548 123.18173,11.14643 123.57973,11.14643 C 123.97773,11.34548 124.17674,11.54452 124.17674,11.94261 C 123.97773,12.3407 123.77873,12.3407 123.57973,12.53974 L 122.58473,15.9235 L 122.18672,15.72445 L 123.18173,12.3407 C 122.78373,12.14166 122.78373,11.94261 122.78373,11.74357 z"
       id="path3259"
       style="fill:#319400;fill-opacity:1" /><path
       d="M 124.37574,13.33592 C 124.37574,12.93783 124.77374,12.93783 125.17174,12.93783 C 125.37074,13.13688 125.56974,13.33592 125.56974,13.73401 C 125.37074,13.93306 125.17174,14.1321 124.97274,14.1321 L 123.77873,17.51585 L 123.38073,17.51585 L 124.57474,14.1321 C 124.37574,13.93306 124.17674,13.53497 124.37574,13.33592 z"
       id="path3261"
       style="fill:#319400;fill-opacity:1" /><path
       d="M 126.16675,15.52541 C 126.36575,15.32637 126.56475,15.12732 126.96275,15.12732 C 127.36075,15.32637 127.55975,15.72445 127.36075,16.12254 C 127.16175,16.32159 126.96275,16.52063 126.76375,16.52063 L 125.56974,19.90439 L 125.17174,19.70534 L 126.36575,16.32159 C 126.16675,16.12254 125.96775,15.9235 126.16675,15.52541 z"
       id="path3263"
       style="fill:#319400;fill-opacity:1" /><path
       d="M 127.75876,17.91394 C 127.75876,17.51585 128.15676,17.51585 128.55476,17.51585 C 128.75376,17.7149 128.95276,18.11299 128.95276,18.31203 C 128.75376,18.51108 128.55476,18.71012 128.35576,18.71012 L 127.16175,22.09388 L 126.56475,21.89483 L 127.95776,18.71012 C 127.75876,18.51108 127.55975,18.11299 127.75876,17.91394 z"
       id="path3265"
       style="fill:#319400;fill-opacity:1" /><path
       d="M 129.15176,19.90439 C 129.15176,19.70534 129.54977,19.5063 129.94777,19.70534 C 130.14677,19.70534 130.34577,20.10343 130.14677,20.50152 C 130.14677,20.70056 129.94777,20.89961 129.54977,20.89961 L 128.15676,24.08432 L 127.75876,23.88528 L 129.15176,20.70056 C 128.95276,20.50152 128.95276,20.30248 129.15176,19.90439 z"
       id="path3267"
       style="fill:#319400;fill-opacity:1" /><path
       d="M 130.54477,22.49196 C 130.74377,22.09388 131.14177,22.09388 131.34078,22.09388 C 131.73878,22.29292 131.93778,22.69101 131.73878,23.0891 C 131.53978,23.28814 131.34078,23.48719 131.14177,23.28814 L 129.74877,26.6719 L 129.15176,26.47285 L 130.74377,23.28814 C 130.54477,23.0891 130.34577,22.69101 130.54477,22.49196 z"
       id="path3269"
       style="fill:#319400;fill-opacity:1" /><path
       d="M 131.73878,24.28336 C 131.93778,24.08432 132.33578,23.88528 132.53478,24.08432 C 132.93278,24.28336 132.93278,24.68145 132.73378,25.07954 C 132.73378,25.27859 132.33578,25.27859 132.13678,25.27859 L 130.34577,28.4633 L 129.94777,28.26425 L 131.73878,25.07954 C 131.53978,24.8805 131.53978,24.68145 131.73878,24.28336 z"
       id="path3271"
       style="fill:#319400;fill-opacity:1" /><path
       d="M 132.73378,26.6719 C 132.93278,26.47285 133.33079,26.27381 133.52979,26.47285 C 133.92779,26.6719 133.92779,27.06999 133.92779,27.26903 C 133.72879,27.46807 133.52979,27.66712 133.13179,27.66712 L 131.53978,30.85183 L 131.14177,30.65278 L 132.73378,27.46807 C 132.73378,27.26903 132.53478,26.87094 132.73378,26.6719 z"
       id="path3273"
       style="fill:#319400;fill-opacity:1" /><path
       d="M 133.72879,28.4633 C 133.92779,28.26425 134.32579,28.06521 134.52479,28.26425 C 134.9228,28.4633 134.9228,28.86139 134.72379,29.25947 C 134.52479,29.45852 134.32579,29.45852 134.12679,29.45852 L 132.13678,32.44418 L 131.73878,32.24514 L 133.72879,29.25947 C 133.52979,29.06043 133.52979,28.66234 133.72879,28.4633 z"
       id="path3275"
       style="fill:#319400;fill-opacity:1" /><path
       d="M 134.72379,30.45374 C 134.9228,30.05565 135.3208,30.05565 135.5198,30.2547 C 135.9178,30.45374 135.9178,30.85183 135.7188,31.05087 C 135.5198,31.24992 135.3208,31.44896 134.9228,31.44896 L 132.93278,34.23558 L 132.53478,34.03654 L 134.72379,31.05087 C 134.52479,30.85183 134.52479,30.65278 134.72379,30.45374 z"
       id="path3277"
       style="fill:#319400;fill-opacity:1" /><path
       d="M 135.3208,32.44418 C 135.5198,32.24514 135.9178,32.24514 136.1168,32.44418 C 136.5148,32.64323 136.5148,33.04132 136.3158,33.24036 C 136.1168,33.43941 135.9178,33.63845 135.7188,33.43941 L 133.72879,36.42507 L 133.33079,36.22603 L 135.3208,33.24036 C 135.1218,33.04132 135.1218,32.84227 135.3208,32.44418 z"
       id="path3279"
       style="fill:#319400;fill-opacity:1" /><path
       d="M 136.3158,35.23081 C 136.5148,34.83272 136.91281,34.83272 137.31081,35.03176 C 137.50981,35.23081 137.50981,35.62889 137.31081,36.02698 C 137.11181,36.22603 136.91281,36.22603 136.71381,36.22603 L 134.52479,39.01265 L 134.12679,38.61456 L 136.3158,35.82794 C 136.1168,35.62889 136.1168,35.42985 136.3158,35.23081 z"
       id="path3281"
       style="fill:#319400;fill-opacity:1" /><path
       d="M 137.11181,37.61934 C 137.31081,37.42029 137.70881,37.42029 137.90781,37.61934 C 138.10681,37.81838 138.30581,38.21647 138.10681,38.41552 C 137.90781,38.81361 137.50981,38.81361 137.31081,38.81361 L 135.1218,41.60023 L 134.72379,41.20214 L 136.91281,38.41552 C 136.91281,38.21647 136.91281,38.01743 137.11181,37.61934 z"
       id="path3283"
       style="fill:#319400;fill-opacity:1" /><path
       d="M 137.70881,40.80405 C 137.90781,40.605 138.30581,40.40596 138.70382,40.80405 C 138.90282,41.00309 138.90282,41.40118 138.70382,41.60023 C 138.50482,41.79927 138.30581,41.79927 138.10681,41.79927 L 135.7188,44.58589 L 135.3208,44.1878 L 137.70881,41.60023 C 137.50981,41.20214 137.50981,41.00309 137.70881,40.80405 z"
       id="path3285"
       style="fill:#319400;fill-opacity:1" /><path
       d="M 138.10681,44.1878 C 138.30581,43.98876 138.70382,43.78972 139.10182,44.1878 C 139.30082,44.38685 139.30082,44.78494 139.10182,44.98398 C 138.90282,45.18303 138.70382,45.18303 138.50482,45.18303 L 136.1168,47.96965 L 135.7188,47.57156 L 138.10681,44.78494 C 137.90781,44.58589 137.90781,44.38685 138.10681,44.1878 z"
       id="path3287"
       style="fill:#319400;fill-opacity:1" /><path
       d="M 138.70382,47.96965 C 138.90282,47.7706 139.30082,47.7706 139.69882,47.96965 C 139.89782,48.16869 139.89782,48.56678 139.69882,48.76583 C 139.49982,49.16391 139.30082,49.16391 139.10182,48.96487 L 136.71381,51.75149 L 136.3158,51.55245 L 138.70382,48.76583 C 138.50482,48.56678 138.50482,48.16869 138.70382,47.96965 z"
       id="path3289"
       style="fill:#319400;fill-opacity:1" /><path
       d="M 139.10182,51.75149 C 139.30082,51.55245 139.69882,51.3534 139.89782,51.75149 C 140.09682,51.95054 140.29582,52.34862 139.89782,52.54767 C 139.69882,52.74671 139.49982,52.94576 139.30082,52.74671 L 136.91281,55.33429 L 136.5148,55.13525 L 138.90282,52.54767 C 138.90282,52.14958 138.90282,51.95054 139.10182,51.75149 z"
       id="path3291"
       style="fill:#319400;fill-opacity:1" /><path
       d="M 139.10182,55.53333 C 139.49982,55.13525 139.89782,55.13525 140.09682,55.33429 C 140.29582,55.73238 140.29582,56.13047 140.09682,56.32951 C 139.89782,56.52856 139.69882,56.52856 139.30082,56.52856 L 136.91281,58.91709 L 136.5148,58.71805 L 139.10182,56.13047 C 138.90282,55.93142 138.90282,55.53333 139.10182,55.53333 z"
       id="path3293"
       style="fill:#319400;fill-opacity:1" /><path
       d="M 139.30082,58.91709 C 139.69882,58.71805 140.09682,58.71805 140.29582,58.91709 C 140.49483,59.31518 140.29582,59.71327 140.09682,59.91231 C 139.89782,60.11136 139.49982,60.11136 139.30082,59.91231 L 136.5148,62.1018 L 136.1168,61.70371 L 139.10182,59.51422 C 139.10182,59.31518 139.10182,59.11613 139.30082,58.91709 z"
       id="path3295"
       style="fill:#319400;fill-opacity:1" /><path
       d="M 139.10182,62.49989 C 139.49982,62.30084 139.89782,62.49989 140.09682,62.69893 C 140.29582,63.09702 140.09682,63.49511 139.89782,63.69416 C 139.49982,63.69416 139.30082,63.69416 139.10182,63.69416 L 136.1168,65.48555 L 135.9178,65.08747 L 138.90282,63.29607 C 138.90282,62.89798 138.90282,62.69893 139.10182,62.49989 z"
       id="path3297"
       style="fill:#319400;fill-opacity:1" /><path
       d="M 138.70382,66.08269 C 139.10182,65.88364 139.49982,66.08269 139.69882,66.28173 C 139.69882,66.67982 139.69882,67.07791 139.49982,67.27695 C 139.10182,67.27695 138.90282,67.27695 138.70382,67.27695 L 135.7188,69.06835 L 135.3208,68.67027 L 138.50482,66.87887 C 138.30581,66.48078 138.50482,66.28173 138.70382,66.08269 z"
       id="path3299"
       style="fill:#319400;fill-opacity:1" /><path
       d="M 138.30581,69.66549 C 138.70382,69.46644 139.10182,69.66549 139.30082,69.86453 C 139.30082,70.26262 139.30082,70.66071 138.90282,70.66071 C 138.70382,70.85975 138.30581,70.85975 138.10681,70.66071 L 134.9228,72.05402 L 134.72379,71.65593 L 137.90781,70.26262 C 137.90781,69.86453 138.10681,69.66549 138.30581,69.66549 z"
       id="path3301"
       style="fill:#319400;fill-opacity:1" /><path
       d="M 137.90781,72.45211 C 138.30581,72.25306 138.70382,72.45211 138.70382,72.8502 C 138.90282,73.04924 138.70382,73.44733 138.50482,73.64638 C 138.10681,73.64638 137.90781,73.64638 137.70881,73.44733 L 134.52479,75.03969 L 134.32579,74.6416 L 137.50981,73.04924 C 137.50981,72.8502 137.70881,72.65115 137.90781,72.45211 z"
       id="path3303"
       style="fill:#319400;fill-opacity:1" /><path
       d="M 137.31081,75.03969 C 137.50981,74.84064 137.90781,75.03969 138.10681,75.43777 C 138.30581,75.63682 138.10681,76.03491 137.90781,76.23395 C 137.50981,76.23395 137.31081,76.23395 137.11181,76.03491 L 133.92779,77.62726 L 133.72879,77.22917 L 136.91281,75.63682 C 136.91281,75.43777 137.11181,75.23873 137.31081,75.03969 z"
       id="path3305"
       style="fill:#319400;fill-opacity:1" /><path
       d="M 136.71381,77.22917 C 137.11181,77.03013 137.50981,77.22917 137.50981,77.42822 C 137.70881,77.82631 137.70881,78.2244 137.50981,78.42344 C 137.11181,78.42344 136.91281,78.42344 136.71381,78.2244 L 132.93278,80.81197 L 132.53478,80.41388 L 136.5148,77.82631 C 136.3158,77.62726 136.5148,77.42822 136.71381,77.22917 z"
       id="path3307"
       style="fill:#319400;fill-opacity:1" /><path
       d="M 131.53978,43.78972 C 131.14177,43.59067 131.14177,43.19258 131.14177,42.79449 C 131.34078,42.59545 131.73878,42.3964 132.13678,42.59545 C 132.33578,42.59545 132.33578,42.99354 132.33578,43.19258 L 135.7188,44.78494 L 135.5198,45.18303 L 132.13678,43.59067 C 131.93778,43.78972 131.73878,43.78972 131.53978,43.78972 z"
       id="path3309"
       style="fill:#319400;fill-opacity:1" /><path
       d="M 132.13678,46.77538 C 131.93778,46.57634 131.73878,46.17825 131.93778,45.9792 C 132.13678,45.58111 132.53478,45.58111 132.73378,45.78016 C 133.13179,45.9792 133.13179,46.17825 133.13179,46.37729 L 136.1168,48.36774 L 135.9178,48.76583 L 132.93278,46.77538 C 132.73378,46.97443 132.33578,46.97443 132.13678,46.77538 z"
       id="path3311"
       style="fill:#319400;fill-opacity:1" /><path
       d="M 132.33578,50.15914 C 131.93778,49.96009 131.93778,49.562 132.13678,49.36296 C 132.33578,48.96487 132.73378,48.96487 132.93278,49.16391 C 133.13179,49.36296 133.33079,49.562 133.33079,49.76105 L 136.3158,51.75149 L 136.1168,52.14958 L 132.93278,50.15914 C 132.73378,50.35818 132.53478,50.35818 132.33578,50.15914 z"
       id="path3313"
       style="fill:#319400;fill-opacity:1" /><path
       d="M 132.73378,53.54289 C 132.33578,53.34385 132.33578,52.94576 132.53478,52.54767 C 132.73378,52.34862 133.13179,52.34862 133.52979,52.54767 C 133.72879,52.74671 133.72879,52.94576 133.72879,53.1448 L 136.5148,55.33429 L 136.3158,55.73238 L 133.33079,53.54289 C 133.13179,53.74194 132.93278,53.74194 132.73378,53.54289 z"
       id="path3315"
       style="fill:#319400;fill-opacity:1" /><path
       d="M 132.73378,56.92665 C 132.53478,56.7276 132.53478,56.32951 132.73378,56.13047 C 132.93278,55.73238 133.33079,55.73238 133.52979,55.93142 C 133.72879,56.13047 133.92779,56.32951 133.72879,56.7276 L 136.71381,58.91709 L 136.3158,59.31518 L 133.52979,57.12569 C 133.33079,57.12569 133.13179,57.12569 132.73378,56.92665 z"
       id="path3317"
       style="fill:#319400;fill-opacity:1" /><path
       d="M 132.73378,59.91231 C 132.33578,59.71327 132.33578,59.31518 132.73378,58.91709 C 132.93278,58.71805 133.33079,58.71805 133.52979,58.91709 C 133.72879,59.11613 133.72879,59.51422 133.72879,59.71327 L 136.3158,62.1018 L 135.9178,62.49989 L 133.33079,59.91231 C 133.13179,60.11136 132.93278,60.11136 132.73378,59.91231 z"
       id="path3319"
       style="fill:#319400;fill-opacity:1" /><path
       d="M 132.53478,62.69893 C 132.33578,62.49989 132.33578,62.1018 132.53478,61.70371 C 132.73378,61.50467 133.13179,61.50467 133.33079,61.70371 C 133.52979,61.90276 133.72879,62.30084 133.52979,62.49989 L 136.1168,64.88842 L 135.9178,65.28651 L 133.33079,62.69893 C 132.93278,62.89798 132.73378,62.89798 132.53478,62.69893 z"
       id="path3321"
       style="fill:#319400;fill-opacity:1" /><path
       d="M 132.33578,65.88364 C 132.13678,65.6846 132.13678,65.28651 132.33578,65.08747 C 132.53478,64.68938 132.93278,64.88842 133.13179,65.08747 C 133.33079,65.28651 133.52979,65.48555 133.33079,65.6846 L 135.7188,68.47122 L 135.3208,68.67027 L 132.93278,66.08269 C 132.73378,66.08269 132.53478,66.08269 132.33578,65.88364 z"
       id="path3323"
       style="fill:#319400;fill-opacity:1" /><path
       d="M 131.73878,68.67027 C 131.53978,68.27218 131.53978,67.87409 131.73878,67.67504 C 132.13678,67.476 132.53478,67.476 132.73378,67.87409 C 132.73378,68.07313 132.93278,68.27218 132.73378,68.47122 L 134.9228,71.45689 L 134.52479,71.65593 L 132.33578,68.86931 C 132.13678,68.86931 131.73878,68.86931 131.73878,68.67027 z"
       id="path3325"
       style="fill:#319400;fill-opacity:1" /><path
       d="M 130.14677,75.03969 C 129.94777,74.6416 129.94777,74.24351 130.34577,74.04446 C 130.54477,73.84542 130.94277,73.84542 131.14177,74.24351 C 131.34078,74.44255 131.34078,74.6416 131.14177,74.84064 L 133.33079,77.82631 L 132.93278,78.02535 L 130.74377,75.23873 C 130.54477,75.23873 130.34577,75.23873 130.14677,75.03969 z"
       id="path3327"
       style="fill:#319400;fill-opacity:1" /><path
       d="M 128.75376,78.02535 C 128.55476,77.62726 128.75376,77.22917 128.95276,77.03013 C 129.35076,76.83109 129.74877,77.03013 129.94777,77.22917 C 129.94777,77.62726 129.94777,77.82631 129.94777,78.02535 L 131.93778,81.40911 L 131.53978,81.60815 L 129.54977,78.2244 C 129.15176,78.2244 128.95276,78.2244 128.75376,78.02535 z"
       id="path3329"
       style="fill:#319400;fill-opacity:1" /><path
       d="M 130.94277,71.45689 C 130.74377,71.0588 130.74377,70.66071 131.14177,70.46166 C 131.34078,70.26262 131.73878,70.46166 131.93778,70.66071 C 132.13678,70.85975 132.13678,71.25784 131.93778,71.45689 L 134.12679,74.84064 L 133.72879,75.03969 L 131.53978,71.65593 C 131.34078,71.65593 131.14177,71.65593 130.94277,71.45689 z"
       id="path3331"
       style="fill:#319400;fill-opacity:1" /><path
       d="M 115.02269,6.9665 C 126.96275,18.71012 134.52479,32.84227 136.71381,48.16869 C 138.90282,63.69416 135.5198,79.41866 126.96275,93.55082 C 126.76375,93.9489 126.16675,93.9489 125.96775,93.74986 C 125.56974,93.55082 125.56974,93.15273 125.76874,92.95368 C 134.12679,79.02057 137.50981,63.69416 135.3208,48.36774 C 133.13179,33.43941 125.96775,19.30725 114.22668,7.96172 C 113.82868,7.76268 113.82868,7.36459 114.22668,6.9665 C 114.42568,6.76746 114.82368,6.76746 115.02269,6.9665 z"
       id="path3333"
       style="fill:#319400;fill-opacity:1" /><path
       d="M 124.37578,76.8312 C 118.20674,93.55095 104.67466,106.6879 87.56055,112.0621 L 97.70962,111.86305 L 97.70962,125 C 119.00275,116.6401 135.32085,98.52705 141.29089,76.035 L 128.55481,86.38535 L 124.37578,76.8312 z"
       id="path3335"
       style="fill:#f7c608;fill-opacity:1;stroke:none;stroke-width:2.69200516" /><path
       d="M 99.10262,122.4124 L 99.10262,109.0764 L 42.18826,109.0764 L 42.18826,122.4124 L 99.10262,122.4124 z"
       id="path3337"
       style="fill:#ffffff;fill-opacity:1;stroke:#952038;stroke-width:0.59706867" /><path
       d="M 70.64544,119.8248 C 68.25742,119.8248 66.46642,118.03345 66.46642,115.6449 C 66.46642,113.25635 68.25742,111.46495 70.64544,111.46495 C 73.03346,111.46495 74.82447,113.25635 74.82447,115.6449 C 74.82447,118.03345 73.03346,119.8248 70.64544,119.8248 L 70.64544,120.82005 C 73.43146,120.82005 75.81947,118.4315 75.81947,115.6449 C 75.81947,112.85825 73.43146,110.4697 70.64544,110.4697 C 67.85943,110.4697 65.47141,112.85825 65.47141,115.6449 C 65.47141,118.4315 67.85943,120.82005 70.64544,120.82005 L 70.64544,119.8248 z"
       id="path3339"
       style="fill:#952038" /><path
       d="M 63.28239,119.8248 C 61.09338,119.8248 59.10337,118.03345 59.10337,115.6449 C 59.10337,113.25635 61.09338,111.46495 63.28239,111.46495 C 65.67041,111.46495 67.66042,113.25635 67.66042,115.6449 C 67.66042,118.03345 65.67041,119.8248 63.28239,119.8248 L 63.28239,120.82005 C 66.26741,120.82005 68.45643,118.4315 68.45643,115.6449 C 68.45643,112.85825 66.26741,110.4697 63.28239,110.4697 C 60.49638,110.4697 58.30737,112.85825 58.30737,115.6449 C 58.30737,118.4315 60.49638,120.82005 63.28239,120.82005 L 63.28239,119.8248 z"
       id="path3341"
       style="fill:#952038" /><path
       d="M 56.11835,119.8248 C 53.73033,119.8248 51.93933,118.03345 51.93933,115.6449 C 51.93933,113.25635 53.73033,111.46495 56.11835,111.46495 C 58.50636,111.46495 60.29738,113.25635 60.29738,115.6449 C 60.29738,118.03345 58.50636,119.8248 56.11835,119.8248 L 56.11835,120.82005 C 58.90437,120.82005 61.29238,118.4315 61.29238,115.6449 C 61.29238,112.85825 58.90437,110.4697 56.11835,110.4697 C 53.33234,110.4697 50.94431,112.85825 50.94431,115.6449 C 50.94431,118.4315 53.33234,120.82005 56.11835,120.82005 L 56.11835,119.8248 z"
       id="path3343"
       style="fill:#952038" /><path
       d="M 48.7553,119.8248 C 46.56629,119.8248 44.57628,118.03345 44.57628,115.6449 C 44.57628,113.25635 46.56629,111.46495 48.7553,111.46495 C 51.14332,111.46495 53.13333,113.25635 53.13333,115.6449 C 53.13333,118.03345 51.14332,119.8248 48.7553,119.8248 L 48.7553,120.82005 C 51.74033,120.82005 53.92934,118.4315 53.92934,115.6449 C 53.92934,112.85825 51.74033,110.4697 48.7553,110.4697 C 45.96928,110.4697 43.78027,112.85825 43.78027,115.6449 C 43.78027,118.4315 45.96928,120.82005 48.7553,120.82005 L 48.7553,119.8248 z"
       id="path3345"
       style="fill:#952038" /><path
       d="M 77.80949,119.8248 C 80.1975,119.8248 82.18751,118.03345 82.18751,115.6449 C 82.18751,113.25635 80.1975,111.46495 77.80949,111.46495 C 75.62048,111.46495 73.63046,113.25635 73.63046,115.6449 C 73.63046,118.03345 75.62048,119.8248 77.80949,119.8248 L 77.80949,120.82005 C 75.02347,120.82005 72.83446,118.4315 72.83446,115.6449 C 72.83446,112.85825 75.02347,110.4697 77.80949,110.4697 C 80.7945,110.4697 82.98352,112.85825 82.98352,115.6449 C 82.98352,118.4315 80.7945,120.82005 77.80949,120.82005 L 77.80949,119.8248 z"
       id="path3347"
       style="fill:#952038" /><path
       d="M 85.17254,119.8248 C 87.56055,119.8248 89.35156,118.03345 89.35156,115.6449 C 89.35156,113.25635 87.56055,111.46495 85.17254,111.46495 C 82.78452,111.46495 80.99351,113.25635 80.99351,115.6449 C 80.99351,118.03345 82.78452,119.8248 85.17254,119.8248 L 85.17254,120.82005 C 82.38651,120.82005 79.9985,118.4315 79.9985,115.6449 C 79.9985,112.85825 82.38651,110.4697 85.17254,110.4697 C 87.95855,110.4697 90.34657,112.85825 90.34657,115.6449 C 90.34657,118.4315 87.95855,120.82005 85.17254,120.82005 L 85.17254,119.8248 z"
       id="path3349"
       style="fill:#952038" /><path
       d="M 92.33658,119.8248 C 94.72459,119.8248 96.7146,118.03345 96.7146,115.6449 C 96.7146,113.25635 94.72459,111.46495 92.33658,111.46495 C 90.14757,111.46495 88.15755,113.25635 88.15755,115.6449 C 88.15755,118.03345 90.14757,119.8248 92.33658,119.8248 L 92.33658,120.82005 C 89.55056,120.82005 87.36155,118.4315 87.36155,115.6449 C 87.36155,112.85825 89.55056,110.4697 92.33658,110.4697 C 95.3216,110.4697 97.51061,112.85825 97.51061,115.6449 C 97.51061,118.4315 95.3216,120.82005 92.33658,120.82005 L 92.33658,119.8248 z"
       id="path3351"
       style="fill:#952038" /><path
       d="M 66.66542,21.89483 C 66.86442,21.2977 67.46142,20.70056 67.66042,20.10343 C 67.85942,19.5063 67.46142,19.30725 67.06342,18.90917 C 66.66542,18.51108 66.06841,18.51108 65.67041,18.51108 C 65.07341,18.71012 63.8794,18.90917 63.0834,18.71012 C 61.69039,18.11299 59.70038,19.30725 58.50637,18.71012 C 56.31736,17.91394 54.12835,20.10343 52.93434,19.5063 C 51.93934,18.90917 51.74034,18.90917 51.14333,19.10821 C 49.15332,19.70534 47.36231,18.90917 45.9693,21.89483 C 43.38229,26.87094 40.19827,27.66712 36.81525,30.45374 C 34.42724,32.44418 34.42724,33.63845 34.42724,35.62889 C 34.62624,37.81838 34.22824,39.01265 33.23323,40.20692 C 31.84023,41.79927 32.43723,43.39163 32.03923,44.1878 C 31.64122,44.98398 32.03923,45.58111 32.83523,45.9792 C 34.42724,46.57634 33.23323,46.97443 34.42724,47.7706 C 35.82025,48.56678 34.82524,49.96009 36.21825,51.15436 C 37.61126,52.34862 38.20826,53.74194 39.80027,54.53811 C 41.39228,55.33429 42.18828,54.9362 44.17829,54.33907 C 45.9693,53.94098 46.56631,54.14002 47.36231,54.53811 C 48.15832,54.9362 49.15332,54.9362 49.55132,54.53811 C 50.14833,54.14002 50.14833,53.94098 50.34733,54.14002 C 50.74533,54.33907 50.94433,54.53811 52.13834,53.94098 C 53.33234,53.34385 54.32735,52.94576 55.32236,53.34385 C 56.31736,53.94098 56.31736,54.14002 56.31736,54.9362 C 56.51636,55.73238 57.51137,56.13047 58.90438,55.93142 C 60.49638,55.93142 61.09339,56.52856 61.09339,57.52378 C 61.09339,58.519 60.49638,58.71805 60.09838,58.519 C 59.70038,58.519 59.50138,58.71805 59.70038,59.11613 C 59.89938,59.51422 60.09838,60.11136 59.30238,60.70849 C 58.70537,61.30562 59.10338,61.70371 59.89938,62.1018 C 60.89439,62.69893 61.29239,62.89798 61.09339,63.69416 C 60.89439,65.08747 62.48639,65.48555 62.48639,66.08269 C 62.28739,66.67982 62.8844,67.476 63.2824,67.87409 C 63.6804,68.07313 64.47641,72.05402 63.6804,74.04446 C 62.6854,76.83109 61.69039,78.02535 61.69039,79.02057 C 61.88939,81.40911 63.0834,81.01102 63.2824,82.80242 C 63.2824,83.5986 63.0834,84.39477 64.2774,84.99191 C 65.27241,85.78808 65.27241,85.78808 65.07341,86.38522 C 64.87441,86.98235 64.87441,89.96802 65.27241,90.56515 C 65.47141,91.16228 65.67041,91.36133 65.67041,91.95846 C 65.67041,92.75464 65.67041,93.35177 66.66542,93.74986 C 67.66042,94.14795 67.85942,94.74508 67.85942,95.54126 C 67.66042,96.93457 68.65543,97.33266 68.65543,98.52693 C 68.45643,99.3231 69.25243,99.72119 70.04844,99.3231 C 70.64544,99.12406 71.44144,100.11928 72.83445,99.12406 C 74.22746,98.12884 75.62047,100.11928 77.01348,98.92501 C 78.00848,97.73075 79.60049,98.92501 80.9935,96.13839 C 81.3915,95.14317 82.58551,94.54604 83.18251,94.14795 C 83.97851,93.55082 84.57552,92.55559 84.57552,91.36133 C 84.37652,90.56515 85.17252,90.56515 85.96852,90.56515 C 86.96353,90.3661 87.36153,89.37088 87.36153,88.37566 C 87.36153,87.38044 87.16253,84.59382 87.75953,83.79764 C 88.55554,82.80242 89.35154,83.20051 90.14755,82.40433 C 90.34655,82.20528 90.34655,81.8072 90.94355,81.8072 C 91.54056,82.00624 93.13256,81.21006 93.53057,80.81197 C 94.12757,80.21484 94.52557,79.81675 94.32657,79.02057 C 94.32657,77.03013 95.71958,78.62249 94.72457,75.83586 C 93.92857,73.04924 94.52557,72.45211 94.12757,71.0588 C 93.72957,69.66549 92.93356,68.47122 94.32657,66.67982 C 98.7046,60.50944 102.48562,59.71327 104.27663,56.52856 C 106.26664,53.34385 107.06264,50.95531 107.85865,49.562 C 108.45565,48.16869 108.85365,47.57156 106.86364,47.96965 C 105.07263,48.16869 103.08262,48.56678 101.88861,48.76583 C 100.4956,48.96487 100.0976,49.36296 99.3016,47.17347 C 98.30659,44.78494 97.51059,46.37729 96.51558,43.98876 C 95.32158,41.60023 95.12258,45.78016 93.33157,40.605 C 92.33656,37.81838 92.53556,37.02221 91.54056,36.42507 C 90.34655,35.23081 91.14255,33.8375 89.35154,32.64323 C 89.55054,31.64801 88.95354,30.2547 87.95854,29.25947 C 89.35154,29.65756 90.14755,29.45852 90.14755,27.46807 C 90.14755,25.87572 89.74955,26.07476 89.35154,26.27381 C 89.15254,25.87572 88.35654,25.87572 88.15754,26.07476 C 87.75953,25.67667 86.76453,25.47763 86.16753,25.87572 C 84.77452,25.47763 83.38151,25.87572 83.18251,26.07476 C 82.78451,26.47285 82.3865,26.6719 81.7895,25.67667 C 81.1925,24.68145 80.39649,25.87572 79.00349,24.48241 C 78.40648,23.88528 77.61048,24.08432 77.21248,24.28336 C 76.61547,24.48241 76.01847,24.8805 75.22247,24.68145 C 74.42646,24.48241 74.42646,24.8805 74.62546,25.67667 C 75.02346,26.47285 75.02346,26.87094 73.23245,26.47285 C 71.24244,26.07476 71.04344,25.27859 70.44644,24.68145 C 70.04844,24.08432 68.65543,23.68623 68.05843,23.88528 C 67.26242,24.08432 67.26242,23.88528 67.26242,23.48719 C 67.06342,23.0891 67.06342,22.89005 66.66542,22.69101 C 66.26742,22.49196 66.26742,22.29292 66.66542,21.89483 z"
       id="path3355"
       style="fill:#f7c608;fill-opacity:1;stroke:none;stroke-width:3" /><path
       d="M 36.61625,21.69579 C 36.61625,21.2977 37.01425,20.89961 37.21326,21.09865 C 37.61126,21.2977 37.61126,21.69579 37.01425,21.89483 C 36.61625,22.09388 36.61625,21.89483 36.61625,21.69579 z"
       id="path3357"
       style="fill:#f7c608;fill-opacity:1;stroke:none;stroke-width:3" /><path
       d="M 36.41725,23.68623 C 36.41725,23.0891 36.81525,22.89005 37.21326,23.0891 C 37.61126,23.0891 37.41226,23.48719 37.21326,23.68623 C 37.01425,23.88528 36.41725,24.08432 36.41725,23.68623 z"
       id="path3359"
       style="fill:#f7c608;fill-opacity:1;stroke:none;stroke-width:3" /><path
       d="M 37.61126,21.89483 C 37.41226,22.29292 37.61126,22.49196 37.81026,22.69101 C 38.00926,22.89005 38.20826,22.69101 38.20826,22.29292 C 38.40726,22.09388 38.00926,21.69579 37.61126,21.89483 z"
       id="path3361"
       style="fill:#f7c608;fill-opacity:1;stroke:none;stroke-width:3" /><path
       d="M 38.40726,22.89005 C 38.20826,23.0891 38.20826,23.48719 38.40726,23.48719 C 38.60626,23.48719 38.80526,23.48719 38.80526,23.28814 C 39.00427,23.0891 39.00427,23.0891 38.80526,22.89005 C 38.60626,22.69101 38.40726,22.69101 38.40726,22.89005 z"
       id="path3363"
       style="fill:#f7c608;fill-opacity:1;stroke:none;stroke-width:3" /><path
       d="M 39.80027,23.0891 C 39.60127,22.89005 39.40227,23.28814 39.40227,23.48719 C 39.20327,23.68623 39.20327,23.88528 39.40227,23.88528 C 39.60127,23.88528 39.80027,23.88528 39.80027,23.68623 C 39.99927,23.28814 39.99927,23.0891 39.80027,23.0891 z"
       id="path3365"
       style="fill:#f7c608;fill-opacity:1;stroke:none;stroke-width:3" /><path
       d="M 41.19328,23.48719 C 40.99428,23.28814 40.79527,23.28814 40.59627,23.48719 C 40.39727,23.68623 40.39727,23.68623 40.59627,23.88528 C 40.59627,24.08432 40.79527,24.08432 40.99428,23.88528 C 41.39228,23.68623 41.39228,23.48719 41.19328,23.48719 z"
       id="path3367"
       style="fill:#f7c608;fill-opacity:1;stroke:none;stroke-width:3" /><path
       d="M 41.79028,22.09388 C 41.59128,22.09388 41.19328,22.29292 41.19328,22.49196 C 41.19328,22.89005 41.19328,23.0891 41.59128,22.89005 C 41.98928,22.89005 42.18828,22.89005 42.18828,22.49196 C 42.18828,22.09388 41.98928,21.89483 41.79028,22.09388 z"
       id="path3369"
       style="fill:#f7c608;fill-opacity:1;stroke:none;stroke-width:3" /><path
       d="M 25.67119,43.19258 C 25.67119,43.59067 26.06919,43.59067 26.06919,43.39163 C 26.06919,43.19258 26.26819,42.99354 26.06919,42.99354 C 25.67119,42.79449 25.67119,42.99354 25.67119,43.19258 z"
       id="path3371"
       style="fill:#f7c608;fill-opacity:1;stroke:none;stroke-width:3" /><path
       d="M 25.67119,44.1878 C 25.67119,44.38685 25.87019,44.78494 26.06919,44.58589 C 26.26819,44.38685 26.26819,44.1878 26.06919,43.98876 C 26.06919,43.98876 25.67119,43.98876 25.67119,44.1878 z"
       id="path3373"
       style="fill:#f7c608;fill-opacity:1;stroke:none;stroke-width:3" /><path
       d="M 26.8652,43.39163 C 26.6662,43.59067 26.8652,43.78972 26.8652,43.78972 C 27.0642,43.98876 27.0642,43.78972 27.2632,43.78972 C 27.4622,43.59067 27.4622,43.59067 27.2632,43.39163 C 27.2632,43.39163 27.0642,43.19258 26.8652,43.39163 z"
       id="path3375"
       style="fill:#f7c608;fill-opacity:1;stroke:none;stroke-width:3" /><path
       d="M 27.0642,44.38685 C 27.0642,44.38685 27.0642,44.78494 27.0642,44.98398 C 27.2632,44.98398 27.2632,44.98398 27.4622,44.78494 C 27.4622,44.58589 27.6612,44.78494 27.6612,44.38685 C 27.4622,44.1878 27.4622,44.1878 27.0642,44.38685 z"
       id="path3377"
       style="fill:#f7c608;fill-opacity:1;stroke:none;stroke-width:3" /><path
       d="M 28.0592,44.38685 C 27.8602,44.58589 28.0592,44.78494 28.0592,44.78494 C 28.25821,44.98398 28.25821,44.98398 28.45721,44.78494 C 28.45721,44.58589 28.45721,44.38685 28.25821,44.38685 C 28.25821,44.1878 28.0592,44.38685 28.0592,44.38685 z"
       id="path3379"
       style="fill:#f7c608;fill-opacity:1;stroke:none;stroke-width:3" /><path
       d="M 56.91436,57.12569 C 56.31736,57.32473 56.31736,57.72282 56.51636,58.31996 C 56.91436,58.91709 57.11337,59.31518 57.51137,58.31996 C 57.71037,57.92187 57.71037,57.32473 57.51137,57.12569 C 57.31237,56.7276 57.11337,56.92665 56.91436,57.12569 z"
       id="path3381"
       style="fill:#f7c608;fill-opacity:1;stroke:none;stroke-width:3" /><path
       d="M 93.92857,68.07313 C 93.72957,68.47122 93.72957,68.86931 93.92857,69.06835 C 94.32657,69.2674 94.52557,69.2674 94.52557,69.06835 C 94.52557,68.86931 94.92357,68.67027 94.92357,68.27218 C 94.92357,68.07313 94.72457,68.27218 94.52557,68.07313 C 94.52557,67.87409 93.92857,68.07313 93.92857,68.07313 z"
       id="path3383"
       style="fill:#f7c608;fill-opacity:1;stroke:none;stroke-width:3" /><path
       d="M 94.32657,70.46166 C 94.32657,70.66071 94.32657,71.0588 94.52557,71.25784 C 94.72457,71.25784 94.92357,71.25784 95.12258,70.85975 C 95.12258,70.66071 94.92357,70.46166 94.92357,70.46166 C 94.72457,70.26262 94.52557,70.26262 94.32657,70.46166 z"
       id="path3385"
       style="fill:#f7c608;fill-opacity:1;stroke:none;stroke-width:3" /><path
       d="M 102.48562,77.03013 C 102.08761,77.62726 101.68961,78.02535 101.09261,78.2244 C 100.4956,78.62249 100.2966,78.82153 100.2966,79.21962 C 100.0976,79.81675 99.8986,80.0158 99.1026,80.21484 C 98.50559,80.41388 96.91359,81.21006 96.71458,81.60815 C 96.31658,82.20528 95.91858,82.40433 96.51558,82.80242 C 97.11259,83.39955 97.51059,83.5986 96.71458,84.19573 C 96.51558,84.39477 96.51558,84.79286 96.31658,84.99191 C 96.31658,85.38999 95.91858,86.18617 95.52058,86.38522 C 95.12258,86.78331 94.92357,86.98235 95.12258,87.38044 C 95.32158,88.17662 94.72457,88.77375 95.32158,89.17184 C 95.71958,89.76897 95.71958,89.76897 95.91858,90.56515 C 95.91858,91.16228 97.11259,91.56037 97.51059,91.16228 C 97.90859,90.76419 98.10759,90.76419 98.7046,90.76419 C 99.1026,90.96324 99.5006,90.76419 99.5006,89.76897 C 99.6996,88.77375 100.2966,87.38044 101.29161,86.18617 C 102.28661,84.79286 102.48562,83.99668 102.48562,83.20051 C 102.68462,82.20528 103.28162,82.20528 103.28162,81.60815 C 103.28162,80.81197 104.47563,81.21006 104.47563,79.61771 C 104.47563,78.02535 103.87862,78.02535 103.87862,77.03013 C 103.87862,76.03491 102.68462,76.63204 102.48562,77.03013 z"
       id="path3387"
       style="fill:#f7c608;fill-opacity:1;stroke:none;stroke-width:3" /><path
       d="M 109.84866,82.80242 C 109.25165,83.00146 109.25165,82.60337 108.85365,83.00146 C 108.65465,83.39955 108.65465,83.39955 109.05265,83.5986 C 109.25165,83.79764 109.45065,83.79764 109.84866,83.5986 C 110.04766,83.20051 110.04766,82.60337 109.84866,82.80242 z"
       id="path3389"
       style="fill:#f7c608;fill-opacity:1;stroke:none;stroke-width:3" /><path
       d="M 111.63967,83.00146 C 111.24166,82.80242 110.84366,83.20051 110.84366,83.39955 C 110.84366,83.79764 111.24166,83.79764 111.44067,83.79764 C 111.83867,83.5986 112.03767,83.20051 111.63967,83.00146 z"
       id="path3391"
       style="fill:#f7c608;fill-opacity:1;stroke:none;stroke-width:3" /></g></svg>