<svg xmlns="http://www.w3.org/2000/svg" viewBox="0 0 736 864"><path d="m272 704-32 32 80 80 32-32-80-80zm-48-48-32 32 32 32 32-32-32-32zm-48-48-32 32 32 32 32-32-32-32zm288-96-32 32 48 48-16 16-48-48-32 32 48 48-16 16-48-48-32 32 48 48-16 16-48-48-32 32 96 96-48 48 32 32 80-80-48-48 144-144-80-80zm-192 96-16-16 16-16 16 16-16 16zM80 512l-16-16 16-16 16 16-16 16zm0-96L0 496l128 128 48-48 96 96 80-80-80-80-48 48-16-16 48-48-32-32-96 96-16-16 48-48-80-80zm96 0-32 32 32 32 32-32-32-32zm384 0-32 32 96 96-16 16-96-96-32 32 96 96-144 144 32 32 224-224-128-128zm-432-48-32 32 32 32 32-32-32-32zm480 0-32 32 128 128 32-32-128-128zm-288 64-16-16 16-16 16 16-16 16zm0-96-80 80 80 80 48-48 16 16-48 48 32 32 80-80-128-128zm-96-192L96 272l32 32 96-96 16 16-96 96 80 80 176-176-32-32-144 144-16-16 96-96-80-80zm96 0-32 32 32 32 32-32-32-32zm-48-48-32 32 32 32 32-32-32-32zm48-48-32 32 240 240-16 16-96-96-80 80 80 80 32-32-48-48 16-16 64 64-48 48 32 32 128-128L320 48zm320 224L368 0l-32 32 272 272 32-32z"/></svg>