<?xml version="1.0" encoding="UTF-8"?>
<svg id="a" data-name="Layer 1" xmlns="http://www.w3.org/2000/svg" width="913.2" height="1244.28" viewBox="0 0 913.2 1244.28">
  <g>
    <g>
      <g>
        <path d="M170.38,407.28c-7,.62-13.44,4.38-17.4,10.4l-1.9,2.89-15.49,23.62-7.86,11.97-43.91,66.92-11.95-7.85c23.35-35.58,46.7-71.17,70.05-106.75,4.71-7.17,14.2-9.43,21.63-5.14,2.28,1.31,4.55,2.63,6.83,3.94Z" fill="#eac102" stroke="#000" stroke-width="3"/>
        <path d="M83.83,523.08l29.58,19.41c15.01-22.87,30.02-45.74,45.03-68.61,2.61-3.99,5.23-7.98,7.85-11.97,6.42-9.78,12.84-19.57,19.27-29.35,2.61-3.99,5.24-7.99,7.86-11.98.71-1.08,1.42-2.17,2.13-3.25,1.82-2.78,4.18-5.01,6.85-6.65l-27.15-3.32c-1.63-.2-3.26-.22-4.86-.08-7,.62-13.44,4.38-17.4,10.4l-1.9,2.89-15.49,23.62-7.86,11.97-43.91,66.92Z" fill="#eac102" stroke="#000" stroke-width="3"/>
        <path d="M192.11,448.63l178.29,102.94c5.84-10.12,11.69-20.24,17.53-30.36-39.52-22.81-123.34-71.21-162.86-94.02-5.94-3.44-13.15-2.82-18.37,1.06-1.54,1.13-2.91,2.56-4.02,4.26-1.58,2.4-3.15,4.81-4.73,7.21-1.95,2.97-3.9,5.94-5.85,8.91Z" fill="#eac102" stroke="#000" stroke-width="3"/>
        <path d="M370.4,551.57l-7.15,12.38c-42.09-24.3-84.19-48.61-126.28-72.91-17.57-10.14-35.15-20.29-52.73-30.44,2.62-3.99,5.24-7.98,7.86-11.97,16.89,9.75,33.77,19.5,50.66,29.25,42.54,24.56,85.1,49.13,127.64,73.69Z" fill="#eac102" stroke="#000" stroke-width="3"/>
        <path d="M113.41,542.49l11.95,7.85c15.16-23.1,30.32-46.2,45.48-69.3,2.62-3.99,5.24-7.98,7.86-11.97,1.85-2.82,3.7-5.65,5.55-8.47,2.62-3.99,5.24-7.98,7.86-11.97,1.95-2.97,3.9-5.94,5.85-8.91,1.58-2.4,3.15-4.81,4.73-7.21,1.11-1.7,2.48-3.13,4.02-4.26,5.22-3.88,12.43-4.5,18.37-1.06l31.91,18.42,130.95,75.6,7.15-12.38c-44.1-25.46-88.2-50.92-132.3-76.39-10.53-6.07-21.06-12.15-31.59-18.23-2.19-1.27-4.37-2.53-6.56-3.79-7.12-4.11-15.64-3.76-22.24.26-2.67,1.64-5.03,3.87-6.85,6.65-.71,1.08-1.42,2.17-2.13,3.25-2.62,3.99-5.25,7.99-7.86,11.98-6.43,9.78-12.85,19.57-19.27,29.35-2.62,3.99-5.24,7.98-7.85,11.97-15.01,22.87-30.02,45.74-45.03,68.61Z" fill="#eac102" stroke="#000" stroke-width="3"/>
      </g>
      <g>
        <path d="M64.43,533.39c.07-.21,1.53-5.1-1.45-8.08-1.71-1.7-3.96-1.88-4.83-1.93-4.92-.31-8.83,3.34-10.38,4.83-13.09,12.56-18.26,23-28.54,28.86-3.16,1.8-8.51,4.15-16.68,4.55.9,1.67,3.48,5.92,8.75,8.68,1.19.62,6.63,3.33,13.22,2.04,1.09-.21,3.93-.87,7.29-3.14,10.81-7.29,31.47-34.3,32.61-35.81Z" fill="#eac102" stroke="#000" stroke-width="3"/>
        <path d="M76.84,541.07c.06-.22,1.41-5.24-1.67-8.12-1.76-1.65-4.04-1.72-4.91-1.73-4.96-.08-8.81,3.79-10.33,5.37-12.87,13.33-17.81,24.14-28.02,30.56-3.14,1.97-8.47,4.59-16.69,5.38.95,1.65,3.65,5.83,9.04,8.39,1.21.57,6.77,3.06,13.37,1.45,1.09-.27,3.94-1.07,7.27-3.51,10.7-7.88,30.83-36.21,31.95-37.79Z" fill="#eac102" stroke="#000" stroke-width="3"/>
        <path d="M89.55,548.3c.05-.22.99-5.39-2.24-8.09-1.85-1.54-4.13-1.48-5-1.45-4.96.2-8.58,4.29-10.01,5.96-12.08,14.04-16.41,25.12-26.24,32.11-3.02,2.15-8.2,5.07-16.36,6.32,1.75,2.24,4.8,5.49,9.5,7.86,3.7,1.87,7.5,3.14,11.72,2.7,7.39-.77,12.61-6.27,16.73-11.99.06-.08.67-.95,1.44-2.13.68-1.04,1.15-1.83,1.23-1.94.73-1.19,1.7-2.7,19.23-29.34Z" fill="#eac102" stroke="#000" stroke-width="3"/>
        <path d="M113.3,565.43c.17-.14,4.07-3.44,7.99-1.89,2.24.88,3.3,2.89,3.7,3.66,2.24,4.39.46,9.43-.29,11.44-6.29,17.01-13.8,25.92-15.08,37.69-.39,3.62-.41,9.46,2.48,17.11-1.89-.16-6.81-.83-11.45-4.57-1.04-.84-5.7-4.76-7.15-11.31-.24-1.08-.77-3.96-.03-7.94,2.37-12.82,18.9-42.54,19.83-44.19Z" fill="#eac102" stroke="#000" stroke-width="3"/>
        <path d="M101.31,557.12c.17-.14,4.24-3.38,8.11-1.71,2.21.96,3.19,3.02,3.55,3.81,2.05,4.52.03,9.59-.81,11.62-7.09,17.11-15.03,25.96-16.84,37.89-.56,3.66-.83,9.6,1.72,17.45-1.89-.21-6.81-1.03-11.3-4.94-1.01-.88-5.51-4.98-6.67-11.68-.19-1.1-.59-4.04.32-8.07,2.96-12.96,20.9-42.72,21.91-44.37Z" fill="#eac102" stroke="#000" stroke-width="3"/>
        <path d="M89.61,548.34c.18-.13,4.55-3.06,8.31-1.17,2.15,1.08,3.01,3.2,3.32,4.01,1.79,4.63-.51,9.58-1.47,11.55-8.05,16.68-16.49,25.06-18.98,36.86-.76,3.63-1.38,9.54.73,17.52-2.76-.71-6.94-2.21-11-5.58-3.19-2.65-5.87-5.63-7.15-9.67-2.24-7.08.72-14.06,4.32-20.12.05-.09.6-.99,1.38-2.17.68-1.04,1.21-1.79,1.29-1.9.8-1.14,1.8-2.63,19.23-29.34Z" fill="#eac102" stroke="#000" stroke-width="3"/>
      </g>
      <path d="M137.4,538.11l-57.54-37.72c-3.3-2.16-7.99-.86-10.46,2.92-2.48,3.78-1.81,8.6,1.49,10.76l57.54,37.72c3.3,2.16,7.99.86,10.46-2.92,2.48-3.78,1.81-8.6-1.49-10.76Z" fill="#eac102" stroke="#000" stroke-width="3"/>
      <rect x="49.84" y="530.05" width="92.71" height="16.36" rx="8.18" ry="8.18" transform="translate(310.81 35.35) rotate(33.25)" fill="#eac102" stroke="#000" stroke-width="3"/>
    </g>
    <g>
      <g>
        <path d="M742.82,407.28c7,.62,13.44,4.38,17.4,10.4l1.9,2.89,15.49,23.62,7.86,11.97,43.91,66.92,11.95-7.85c-23.35-35.58-46.7-71.17-70.05-106.75-4.71-7.17-14.2-9.43-21.63-5.14-2.28,1.31-4.55,2.63-6.83,3.94Z" fill="#eac102" stroke="#000" stroke-width="3"/>
        <path d="M829.37,523.08l-29.58,19.41c-15.01-22.87-30.02-45.74-45.03-68.61-2.61-3.99-5.23-7.98-7.85-11.97-6.42-9.78-12.84-19.57-19.27-29.35-2.61-3.99-5.24-7.99-7.86-11.98-.71-1.08-1.42-2.17-2.13-3.25-1.82-2.78-4.18-5.01-6.85-6.65l27.15-3.32c1.63-.2,3.26-.22,4.86-.08,7,.62,13.44,4.38,17.4,10.4l1.9,2.89,15.49,23.62,7.86,11.97,43.91,66.92Z" fill="#eac102" stroke="#000" stroke-width="3"/>
        <path d="M721.09,448.63c-59.43,34.31-118.86,68.63-178.29,102.94-5.84-10.12-11.69-20.24-17.53-30.36,39.52-22.81,123.34-71.21,162.86-94.02,5.94-3.44,13.15-2.82,18.37,1.06,1.54,1.13,2.91,2.56,4.02,4.26,1.58,2.4,3.15,4.81,4.73,7.21,1.95,2.97,3.9,5.94,5.85,8.91Z" fill="#eac102" stroke="#000" stroke-width="3"/>
        <path d="M542.8,551.57l7.15,12.38c42.09-24.3,84.19-48.61,126.28-72.91,17.57-10.14,35.15-20.29,52.73-30.44-2.62-3.99-5.24-7.98-7.86-11.97-16.89,9.75-33.77,19.5-50.66,29.25-42.54,24.56-85.1,49.13-127.64,73.69Z" fill="#eac102" stroke="#000" stroke-width="3"/>
        <path d="M799.79,542.49l-11.95,7.85c-15.16-23.1-30.32-46.2-45.48-69.3-2.62-3.99-5.24-7.98-7.86-11.97-1.85-2.82-3.7-5.65-5.55-8.47-2.62-3.99-5.24-7.98-7.86-11.97-1.95-2.97-3.9-5.94-5.85-8.91-1.58-2.4-3.15-4.81-4.73-7.21-1.11-1.7-2.48-3.13-4.02-4.26-5.22-3.88-12.43-4.5-18.37-1.06l-31.91,18.42-130.95,75.6-7.15-12.38c44.1-25.46,88.2-50.92,132.3-76.39,10.53-6.07,21.06-12.15,31.59-18.23,2.19-1.27,4.37-2.53,6.56-3.79,7.12-4.11,15.64-3.76,22.24.26,2.67,1.64,5.03,3.87,6.85,6.65.71,1.08,1.42,2.17,2.13,3.25,2.62,3.99,5.25,7.99,7.86,11.98,6.43,9.78,12.85,19.57,19.27,29.35,2.62,3.99,5.24,7.98,7.85,11.97,15.01,22.87,30.02,45.74,45.03,68.61Z" fill="#eac102" stroke="#000" stroke-width="3"/>
      </g>
      <g>
        <path d="M848.77,533.39c-.07-.21-1.53-5.1,1.45-8.08,1.71-1.7,3.96-1.88,4.83-1.93,4.92-.31,8.83,3.34,10.38,4.83,13.09,12.56,18.26,23,28.54,28.86,3.16,1.8,8.51,4.15,16.68,4.55-.9,1.67-3.48,5.92-8.75,8.68-1.19.62-6.63,3.33-13.22,2.04-1.09-.21-3.93-.87-7.29-3.14-10.81-7.29-31.47-34.3-32.61-35.81Z" fill="#eac102" stroke="#000" stroke-width="3"/>
        <path d="M836.36,541.07c-.06-.22-1.41-5.24,1.67-8.12,1.76-1.65,4.04-1.72,4.91-1.73,4.96-.08,8.81,3.79,10.33,5.37,12.87,13.33,17.81,24.14,28.02,30.56,3.14,1.97,8.47,4.59,16.69,5.38-.95,1.65-3.65,5.83-9.04,8.39-1.21.57-6.77,3.06-13.37,1.45-1.09-.27-3.94-1.07-7.27-3.51-10.7-7.88-30.83-36.21-31.95-37.79Z" fill="#eac102" stroke="#000" stroke-width="3"/>
        <path d="M823.65,548.3c-.05-.22-.99-5.39,2.24-8.09,1.85-1.54,4.13-1.48,5-1.45,4.96.2,8.58,4.29,10.01,5.96,12.08,14.04,16.41,25.12,26.24,32.11,3.02,2.15,8.2,5.07,16.36,6.32-1.75,2.24-4.8,5.49-9.5,7.86-3.7,1.87-7.5,3.14-11.72,2.7-7.39-.77-12.61-6.27-16.73-11.99-.06-.08-.67-.95-1.44-2.13-.68-1.04-1.15-1.83-1.23-1.94-.73-1.19-1.7-2.7-19.23-29.34Z" fill="#eac102" stroke="#000" stroke-width="3"/>
        <path d="M799.9,565.43c-.17-.14-4.07-3.44-7.99-1.89-2.24.88-3.3,2.89-3.7,3.66-2.24,4.39-.46,9.43.29,11.44,6.29,17.01,13.8,25.92,15.08,37.69.39,3.62.41,9.46-2.48,17.11,1.89-.16,6.81-.83,11.45-4.57,1.04-.84,5.7-4.76,7.15-11.31.24-1.08.77-3.96.03-7.94-2.37-12.82-18.9-42.54-19.83-44.19Z" fill="#eac102" stroke="#000" stroke-width="3"/>
        <path d="M811.89,557.12c-.17-.14-4.24-3.38-8.11-1.71-2.21.96-3.19,3.02-3.55,3.81-2.05,4.52-.03,9.59.81,11.62,7.09,17.11,15.03,25.96,16.84,37.89.56,3.66.83,9.6-1.72,17.45,1.89-.21,6.81-1.03,11.3-4.94,1.01-.88,5.51-4.98,6.67-11.68.19-1.1.59-4.04-.32-8.07-2.96-12.96-20.9-42.72-21.91-44.37Z" fill="#eac102" stroke="#000" stroke-width="3"/>
        <path d="M823.59,548.34c-.18-.13-4.55-3.06-8.31-1.17-2.15,1.08-3.01,3.2-3.32,4.01-1.79,4.63.51,9.58,1.47,11.55,8.05,16.68,16.49,25.06,18.98,36.86.76,3.63,1.38,9.54-.73,17.52,2.76-.71,6.94-2.21,11-5.58,3.19-2.65,5.87-5.63,7.15-9.67,2.24-7.08-.72-14.06-4.32-20.12-.05-.09-.6-.99-1.38-2.17-.68-1.04-1.21-1.79-1.29-1.9-.8-1.14-1.8-2.63-19.23-29.34Z" fill="#eac102" stroke="#000" stroke-width="3"/>
      </g>
      <path d="M775.8,538.11l57.54-37.72c3.3-2.16,7.99-.86,10.46,2.92,2.48,3.78,1.81,8.6-1.49,10.76l-57.54,37.72c-3.3,2.16-7.99.86-10.46-2.92s-1.81-8.6,1.49-10.76Z" fill="#eac102" stroke="#000" stroke-width="3"/>
      <rect x="770.65" y="530.05" width="92.71" height="16.36" rx="8.18" ry="8.18" transform="translate(1795.36 540.46) rotate(146.75)" fill="#eac102" stroke="#000" stroke-width="3"/>
    </g>
    <g>
      <path d="M456.58,59.04c-80.74,84.76-161.48,169.52-242.22,254.27,13.27,54.6,27.94,114.98,41.2,169.58h402.04c13.26-54.6,27.93-114.98,41.2-169.58-80.74-84.76-161.48-169.52-242.22-254.27Z" fill="#eac102" stroke="#000" stroke-width="3"/>
      <path d="M667.99,475.74c0,1.97-.8,3.76-2.09,5.06-1.3,1.29-3.09,2.09-5.06,2.09H252.33c-1.98,0-3.76-.8-5.06-2.09-1.29-1.3-2.09-3.09-2.09-5.06,0-3.95,3.2-7.15,7.15-7.15h408.51c3.95,0,7.15,3.2,7.15,7.15Z" fill="#eac102" stroke="#000" stroke-width="3"/>
      <path d="M435.1,131.77s.03-.03.04-.04v289.63h-198.39c-1.98,0-3.76-.8-5.06-2.09-1.29-1.3-2.09-3.08-2.09-5.06,0-3.95,3.2-7.15,7.15-7.15h184.09v-240.77l-192.38,201.31c-1.4,1.47-3.28,2.2-5.16,2.2-1.78,0-3.56-.65-4.95-1.98-2.85-2.72-2.95-7.25-.23-10.1l217.02-227.09-.04,1.14Z" fill="#eac102" stroke="#000" stroke-width="3"/>
      <g>
        <path d="M341.63,181.95c3.59,2.84,5.52,6.97,5.43,10.97-.03,1.14-.21,2.28-.58,3.37-1.58,4.65-5.76,6.69-6.68,7.12.48,1.31,1.82,5.59.04,10.37-2.81,7.56-10.87,9.44-11.49,9.57.2-.36,2.56-4.87.14-9.43-.13-.25-.28-.5-.44-.75-1.48-2.28-4.13-4.44-7.44-4.36-4.6.11-8.52,4.49-8.45,9.1.06,4.4,3.79,7.1,4.39,7.51l-.04.04-40.35,42.98c.07-3.99-1.87-8.09-5.43-10.92,1.33-.94,3.47-2.73,4.85-5.65.74-1.58,1.17-3.32,1.3-5.09l19.21-20.45c-1.06-1.15-2.58-3.11-3.38-5.88-1.5-5.2.51-9.76,1.52-11.94,2.45-5.33,5.64-7.54,15.06-14.81,10.04-7.74,15.13-11.72,18.72-17.2,4.43-6.76,5.35-12.29,5.62-15.01.27-2.72.11-5.02-.09-6.64,1.89.07,5.54.52,8.78,3.11,3.97,3.17,5.86,8.39,5.46,13.3-.14,1.76-.56,3.47-1.3,5.03-1.38,2.93-3.52,4.72-4.85,5.66Z" fill="#eac102" stroke="#000" stroke-width="3"/>
        <path d="M270.72,257.51c3.55,2.82,5.49,6.9,5.44,10.86-.02,1.19-.21,2.36-.59,3.48-1.58,4.66-5.76,6.7-6.68,7.13.48,1.31,1.82,5.58.04,10.36-2.81,7.57-10.87,9.45-11.48,9.58.19-.36,2.55-4.87.13-9.43-.14-.28-.3-.55-.48-.82-1.49-2.25-4.12-4.37-7.4-4.29-4.6.11-8.52,4.49-8.45,9.1.06,4.44,3.78,7.1,4.32,7.47l-.03.03-28.59,30.45c-2.7,2.88-7.23,3.02-10.1.32-2.88-2.7-3.02-7.23-.32-10.11l18.6-19.8c-1.06-1.16-2.54-3.09-3.33-5.82-1.5-5.2.52-9.76,1.52-11.94,2.45-5.33,5.64-7.55,15.06-14.81,10.04-7.74,15.13-11.72,18.72-17.2,4.43-6.76,5.35-12.29,5.62-15.01s.11-5.02-.08-6.64c1.89.07,5.53.52,8.77,3.11,3.94,3.14,5.83,8.31,5.47,13.18-.13,1.8-.56,3.55-1.31,5.15-1.37,2.93-3.52,4.72-4.85,5.65Z" fill="#eac102" stroke="#000" stroke-width="3"/>
        <path d="M468.7,63.3l-50.74,54.04c.09-4-1.84-8.13-5.43-10.97,1.33-.94,3.47-2.73,4.85-5.66.74-1.56,1.16-3.27,1.3-5.03l39.6-42.17,10.42,9.79Z" fill="#eac102" stroke="#000" stroke-width="3"/>
        <path d="M412.53,106.37c3.59,2.84,5.52,6.97,5.43,10.97-.03,1.14-.21,2.28-.58,3.37-1.58,4.65-5.76,6.69-6.68,7.12.48,1.31,1.82,5.59.04,10.37-2.81,7.56-10.87,9.44-11.49,9.57.2-.36,2.56-4.87.14-9.43-.13-.25-.28-.5-.44-.75-1.48-2.28-4.13-4.44-7.44-4.36-4.6.11-8.52,4.49-8.45,9.1.06,4.4,3.79,7.1,4.39,7.51l-.04.04-40.35,42.98c.07-3.99-1.87-8.09-5.43-10.92,1.33-.94,3.47-2.73,4.85-5.65.74-1.58,1.17-3.32,1.3-5.09l19.21-20.45c-1.06-1.15-2.58-3.11-3.38-5.88-1.5-5.2.51-9.76,1.52-11.94,2.45-5.33,5.64-7.54,15.06-14.81,10.04-7.74,15.13-11.72,18.72-17.2,4.43-6.76,5.35-12.29,5.62-15.01.27-2.72.11-5.02-.09-6.64,1.89.07,5.54.52,8.78,3.11,3.97,3.17,5.86,8.39,5.46,13.3-.14,1.76-.56,3.47-1.3,5.03-1.38,2.93-3.52,4.72-4.85,5.66Z" fill="#eac102" stroke="#000" stroke-width="3"/>
      </g>
      <path d="M456.58,90.42c5.56,10.74,11.12,21.49,16.68,32.23-5.56,10.74-11.12,21.49-16.68,32.23-5.56-10.74-11.12-21.49-16.68-32.23,5.56-10.74,11.12-21.49,16.68-32.23Z" fill="#ed1c24" stroke="#000" stroke-width="3"/>
      <path d="M456.58,324.38c-5.56-10.74-11.12-21.49-16.68-32.23,5.56-10.74,11.12-21.49,16.68-32.23,5.56,10.74,11.12,21.49,16.68,32.23-5.56,10.74-11.12,21.49-16.68,32.23Z" fill="#ed1c24" stroke="#000" stroke-width="3"/>
      <path d="M376.03,444.94c10.74-5.56,21.49-11.12,32.23-16.68,10.74,5.56,21.49,11.12,32.23,16.68-10.74,5.56-21.49,11.12-32.23,16.68-10.74-5.56-21.49-11.12-32.23-16.68Z" fill="#ed1c24" stroke="#000" stroke-width="3"/>
      <circle cx="456.58" cy="434.77" r="7.45" fill="#e7e7e7" stroke="#000" stroke-width="3"/>
      <circle cx="456.58" cy="455.1" r="7.45" fill="#e7e7e7" stroke="#000" stroke-width="3"/>
      <circle cx="359.95" cy="434.77" r="7.45" fill="#e7e7e7" stroke="#000" stroke-width="3"/>
      <circle cx="359.95" cy="455.1" r="7.45" fill="#e7e7e7" stroke="#000" stroke-width="3"/>
      <circle cx="263.32" cy="434.77" r="7.45" fill="#e7e7e7" stroke="#000" stroke-width="3"/>
      <circle cx="268.26" cy="455.15" r="7.45" fill="#e7e7e7" stroke="#000" stroke-width="3"/>
      <path d="M537.13,444.94c-10.74,5.56-21.49,11.12-32.23,16.68-10.74-5.56-21.49-11.12-32.23-16.68,10.74-5.56,21.49-11.12,32.23-16.68,10.74,5.56,21.49,11.12,32.23,16.68Z" fill="#ed1c24" stroke="#000" stroke-width="3"/>
      <circle cx="553.21" cy="455.1" r="7.45" fill="#e7e7e7" stroke="#000" stroke-width="3"/>
      <circle cx="553.21" cy="434.77" r="7.45" fill="#e7e7e7" stroke="#000" stroke-width="3"/>
      <circle cx="649.83" cy="434.73" r="7.45" fill="#e7e7e7" stroke="#000" stroke-width="3"/>
      <circle cx="644.9" cy="455.1" r="7.45" fill="#e7e7e7" stroke="#000" stroke-width="3"/>
      <g>
        <path d="M401.17,243c-.73-1.63-1.47-3.8-1.78-6.41-.76-6.42,1.54-11.49,2.72-13.7.88.28,4.73,1.38,8.5-.65,5.72-3.07,5.58-10.3,5.56-10.74-.02-.48-.3-5.88-4.79-9.32-5.39-4.12-12.17-1.8-13.38-1.39-6.51,2.23-14.53,13.54-15.67,21.47-1.21-.18-3.23-.3-5.44.52-3.52,1.31-5.25,4.18-6.28,5.87-4.9,8.09-1.82,19.7-1.29,21.57-11.03-3.6-21.4-1.51-25.7,4.77-.91,1.33-2.08,3.63-2.25,7.22-2.21.85-7.55,3.24-11.56,8.97-2.82,4.03-3.77,7.99-4.14,10.27l-32.9,37.76c-2.07-.35-4.91-.42-7.72.86-5.74,2.61-9.17,9.87-8.39,18.15-1.11-.11-8.13-.68-12.62,4.08-5.02,5.32-4.99,15.32,1.49,22.84-9.44-4.5-19.66-2.66-24.67,3.62-2.9,3.64-5.29,10.32-2.07,16.22,2.73,5.01,9.13,8.77,15.36,6.82,4.48-1.4,7.86-5.44,8.8-10.44,1.85-.14,5.02-.13,8.6,1.2,4.95,1.83,7.86,5.1,9.06,6.64-.16.18-2.89,3.35-1.66,7.4,1.14,3.77,4.69,5,5.02,5.11,1.37-1.38,3.61-3.31,6.81-4.85,1.16-.56,5.08-2.33,10.89-2.47,6.58-.15,11.59,1.89,13.42,2.59,16.2,6.23,40.28,5.87,51.55,2.67,6.95-1.97,9.29-4.01,18.72-5.91,7.9-1.59,14.61-1.86,19.15-1.81-.42-3.32-.74-8.26.09-14.1,1.2-8.47,4.17-14.34,5.2-16.55,5.99-12.87,6.24-28.28,5.34-42.18-.79-12.25-2.95-24.17-6.68-35.85-1.57-4.94-3.03-10.06-3.5-15.24-.76-8.38,1.91-17.2,8.73-22.49-.14-.42-1.21-3.53-4.38-4.7-2.77-1.03-6.03-.16-8.17,2.2Z" fill="#eac102" stroke="#000" stroke-width="3"/>
        <path d="M265.55,365.14c1.52,1.53,3.32,3.15,5.44,4.74,3.85,2.91,7.59,4.87,10.7,6.21" fill="#eac102" stroke="#000" stroke-width="3"/>
        <path d="M276.68,338.22c.61,2.91,1.44,6.04,2.59,9.32,3.36,9.63,8.15,17.06,12.34,22.34" fill="#eac102" stroke="#000" stroke-width="3"/>
        <path d="M341.38,262.22c2.32-.55,4.85-.9,7.57-.93,15.83-.16,27.25,10.85,30.99,14.82" fill="#eac102" stroke="#000" stroke-width="3"/>
        <path d="M369.33,250.22c1.76,1.32,3.56,2.78,5.37,4.4,6.89,6.18,11.73,12.77,15.14,18.5" fill="#eac102" stroke="#000" stroke-width="3"/>
        <path d="M382.34,222.27c.05,1.62.16,3.28.32,4.98,1.09,11.28,4.49,20.88,8.28,28.53" fill="#eac102" stroke="#000" stroke-width="3"/>
        <circle cx="347.43" cy="332.99" r="56.34" fill="#eac102" stroke="#000" stroke-width="3"/>
        <path d="M370.54,316.6c-4.17,0-7.97,1.57-10.87,4.14,2.57-2.89,4.14-6.69,4.14-10.87,0-9.05-7.34-16.39-16.39-16.39s-16.39,7.34-16.39,16.39c0,4.18,1.57,7.97,4.14,10.87-2.89-2.57-6.69-4.14-10.87-4.14-9.05,0-16.39,7.34-16.39,16.39s7.34,16.39,16.39,16.39c4.17,0,7.97-1.57,10.87-4.14-2.57,2.89-4.14,6.69-4.14,10.87,0,9.05,7.34,16.39,16.39,16.39s16.39-7.34,16.39-16.39c0-4.17-1.57-7.97-4.14-10.87,2.89,2.57,6.69,4.14,10.87,4.14,9.05,0,16.39-7.34,16.39-16.39s-7.34-16.39-16.39-16.39Z" fill="#eac102" stroke="#000" stroke-width="3"/>
        <circle cx="402.2" cy="390.17" r="11.73" fill="#eac102" stroke="#000" stroke-width="3"/>
      </g>
      <g>
        <path d="M511.99,243c.73-1.63,1.47-3.8,1.78-6.41.76-6.42-1.54-11.49-2.72-13.7-.88.28-4.73,1.38-8.5-.65-5.72-3.07-5.58-10.3-5.56-10.74.02-.48.3-5.88,4.79-9.32,5.39-4.12,12.17-1.8,13.38-1.39,6.51,2.23,14.53,13.54,15.67,21.47,1.21-.18,3.23-.3,5.44.52,3.52,1.31,5.25,4.18,6.28,5.87,4.9,8.09,1.82,19.7,1.29,21.57,11.03-3.6,21.4-1.51,25.7,4.77.91,1.33,2.08,3.63,2.25,7.22,2.21.85,7.55,3.24,11.56,8.97,2.82,4.03,3.77,7.99,4.14,10.27,10.97,12.59,21.93,25.17,32.9,37.76,2.07-.35,4.91-.42,7.72.86,5.74,2.61,9.17,9.87,8.39,18.15,1.11-.11,8.13-.68,12.62,4.08,5.02,5.32,4.99,15.32-1.49,22.84,9.44-4.5,19.66-2.66,24.67,3.62,2.9,3.64,5.29,10.32,2.07,16.22-2.73,5.01-9.13,8.77-15.36,6.82-4.48-1.4-7.86-5.44-8.8-10.44-1.85-.14-5.02-.13-8.6,1.2-4.95,1.83-7.86,5.1-9.06,6.64.16.18,2.89,3.35,1.66,7.4-1.14,3.77-4.69,5-5.02,5.11-1.37-1.38-3.61-3.31-6.81-4.85-1.16-.56-5.08-2.33-10.89-2.47-6.58-.15-11.59,1.89-13.42,2.59-16.2,6.23-40.28,5.87-51.55,2.67-6.95-1.97-9.29-4.01-18.72-5.91-7.9-1.59-14.61-1.86-19.15-1.81.42-3.32.74-8.26-.09-14.1-1.2-8.47-4.17-14.34-5.2-16.55-5.99-12.87-6.24-28.28-5.34-42.18.79-12.25,2.95-24.17,6.68-35.85,1.57-4.94,3.03-10.06,3.5-15.24.76-8.38-1.91-17.2-8.73-22.49.14-.42,1.21-3.53,4.38-4.7,2.77-1.03,6.03-.16,8.17,2.2Z" fill="#eac102" stroke="#000" stroke-width="3"/>
        <path d="M647.61,365.14c-1.52,1.53-3.32,3.15-5.44,4.74-3.85,2.91-7.59,4.87-10.7,6.21" fill="#eac102" stroke="#000" stroke-width="3"/>
        <path d="M636.48,338.22c-.61,2.91-1.44,6.04-2.59,9.32-3.36,9.63-8.15,17.06-12.34,22.34" fill="#eac102" stroke="#000" stroke-width="3"/>
        <path d="M571.78,262.22c-2.32-.55-4.85-.9-7.57-.93-15.83-.16-27.25,10.85-30.99,14.82" fill="#eac102" stroke="#000" stroke-width="3"/>
        <path d="M543.83,250.22c-1.76,1.32-3.56,2.78-5.37,4.4-6.89,6.18-11.73,12.77-15.14,18.5" fill="#eac102" stroke="#000" stroke-width="3"/>
        <path d="M530.82,222.27c-.05,1.62-.16,3.28-.32,4.98-1.09,11.28-4.49,20.88-8.28,28.53" fill="#eac102" stroke="#000" stroke-width="3"/>
        <circle cx="565.73" cy="332.99" r="56.34" fill="#eac102" stroke="#000" stroke-width="3"/>
        <path d="M526.22,332.99c0,9.05,7.34,16.39,16.39,16.39,4.17,0,7.97-1.57,10.87-4.14-2.57,2.89-4.14,6.69-4.14,10.87,0,9.05,7.34,16.39,16.39,16.39,9.05,0,16.39-7.34,16.39-16.39,0-4.17-1.57-7.97-4.14-10.87,2.89,2.57,6.69,4.14,10.87,4.14,9.05,0,16.39-7.34,16.39-16.39,0-9.05-7.34-16.39-16.39-16.39-4.17,0-7.97,1.57-10.87,4.14,2.57-2.89,4.14-6.69,4.14-10.87,0-9.05-7.34-16.39-16.39-16.39-9.05,0-16.39,7.34-16.39,16.39,0,4.17,1.57,7.97,4.14,10.87-2.89-2.57-6.69-4.14-10.87-4.14-9.05,0-16.39,7.34-16.39,16.39Z" fill="#eac102" stroke="#000" stroke-width="3"/>
        <circle cx="510.96" cy="390.17" r="11.73" fill="#eac102" stroke="#000" stroke-width="3"/>
      </g>
      <path d="M694.81,367.82c-1.38,1.33-3.16,1.98-4.94,1.98-1.89,0-3.77-.73-5.17-2.2l-192.37-201.31v240.77h184.08c3.95,0,7.15,3.2,7.15,7.15,0,1.98-.8,3.76-2.09,5.06-1.3,1.29-3.08,2.09-5.06,2.09h-198.38V131.73s.03.03.04.04l-.04-1.14,217.01,227.09c2.73,2.85,2.63,7.38-.23,10.1Z" fill="#eac102" stroke="#000" stroke-width="3"/>
      <ellipse cx="456.58" cy="376.89" rx="16.68" ry="28.85" fill="#0071bc" stroke="#000" stroke-width="3"/>
      <ellipse cx="311.64" cy="444.98" rx="28.85" ry="16.68" fill="#0071bc" stroke="#000" stroke-width="3"/>
      <ellipse cx="601.52" cy="444.98" rx="28.85" ry="16.68" fill="#0071bc" stroke="#000" stroke-width="3"/>
      <ellipse cx="456.58" cy="207.4" rx="16.68" ry="28.85" fill="#0071bc" stroke="#000" stroke-width="3"/>
      <g>
        <path d="M571.52,181.95c-3.59,2.84-5.52,6.97-5.43,10.97.03,1.14.21,2.28.58,3.37,1.58,4.65,5.76,6.69,6.68,7.12-.48,1.31-1.82,5.59-.04,10.37,2.81,7.56,10.87,9.44,11.49,9.57-.2-.36-2.56-4.87-.14-9.43.13-.25.28-.5.44-.75,1.48-2.28,4.13-4.44,7.44-4.36,4.6.11,8.52,4.49,8.45,9.1-.06,4.4-3.79,7.1-4.39,7.51l.04.04,40.35,42.98c-.07-3.99,1.87-8.09,5.43-10.92-1.33-.94-3.47-2.73-4.85-5.65-.74-1.58-1.17-3.32-1.3-5.09l-19.21-20.45c1.06-1.15,2.58-3.11,3.38-5.88,1.5-5.2-.51-9.76-1.52-11.94-2.45-5.33-5.64-7.54-15.06-14.81-10.04-7.74-15.13-11.72-18.72-17.2-4.43-6.76-5.35-12.29-5.62-15.01-.27-2.72-.11-5.02.09-6.64-1.89.07-5.54.52-8.78,3.11-3.97,3.17-5.86,8.39-5.46,13.3.14,1.76.56,3.47,1.3,5.03,1.38,2.93,3.52,4.72,4.85,5.66Z" fill="#eac102" stroke="#000" stroke-width="3"/>
        <path d="M642.43,257.51c-3.55,2.82-5.49,6.9-5.44,10.86.02,1.19.21,2.36.59,3.48,1.58,4.66,5.76,6.7,6.68,7.13-.48,1.31-1.82,5.58-.04,10.36,2.81,7.57,10.87,9.45,11.48,9.58-.19-.36-2.55-4.87-.13-9.43.14-.28.3-.55.48-.82,1.49-2.25,4.12-4.37,7.4-4.29,4.6.11,8.52,4.49,8.45,9.1-.06,4.44-3.78,7.1-4.32,7.47l.03.03,28.59,30.45c2.7,2.88,7.23,3.02,10.1.32,2.88-2.7,3.02-7.23.32-10.11l-18.6-19.8c1.06-1.16,2.54-3.09,3.33-5.82,1.5-5.2-.52-9.76-1.52-11.94-2.45-5.33-5.64-7.55-15.06-14.81-10.04-7.74-15.13-11.72-18.72-17.2-4.43-6.76-5.35-12.29-5.62-15.01-.27-2.72-.11-5.02.08-6.64-1.89.07-5.53.52-8.77,3.11-3.94,3.14-5.83,8.31-5.47,13.18.13,1.8.56,3.55,1.31,5.15,1.37,2.93,3.52,4.72,4.85,5.65Z" fill="#eac102" stroke="#000" stroke-width="3"/>
        <path d="M444.45,63.3l50.74,54.04c-.09-4,1.84-8.13,5.43-10.97-1.33-.94-3.47-2.73-4.85-5.66-.74-1.56-1.16-3.27-1.3-5.03l-39.6-42.17-10.42,9.79Z" fill="#eac102" stroke="#000" stroke-width="3"/>
        <path d="M500.62,106.37c-3.59,2.84-5.52,6.97-5.43,10.97.03,1.14.21,2.28.58,3.37,1.58,4.65,5.76,6.69,6.68,7.12-.48,1.31-1.82,5.59-.04,10.37,2.81,7.56,10.87,9.44,11.49,9.57-.2-.36-2.56-4.87-.14-9.43.13-.25.28-.5.44-.75,1.48-2.28,4.13-4.44,7.44-4.36,4.6.11,8.52,4.49,8.45,9.1-.06,4.4-3.79,7.1-4.39,7.51l.04.04,40.35,42.98c-.07-3.99,1.87-8.09,5.43-10.92-1.33-.94-3.47-2.73-4.85-5.65-.74-1.58-1.17-3.32-1.3-5.09l-19.21-20.45c1.06-1.15,2.58-3.11,3.38-5.88,1.5-5.2-.51-9.76-1.52-11.94-2.45-5.33-5.64-7.54-15.06-14.81-10.04-7.74-15.13-11.72-18.72-17.2-4.43-6.76-5.35-12.29-5.62-15.01-.27-2.72-.11-5.02.09-6.64-1.89.07-5.54.52-8.78,3.11-3.97,3.17-5.86,8.39-5.46,13.3.14,1.76.56,3.47,1.3,5.03,1.38,2.93,3.52,4.72,4.85,5.66Z" fill="#eac102" stroke="#000" stroke-width="3"/>
      </g>
      <circle cx="435.66" cy="56.84" r="16.01" fill="#eac102" stroke="#000" stroke-width="3"/>
      <circle cx="477.5" cy="56.84" r="16.01" fill="#eac102" stroke="#000" stroke-width="3"/>
      <path d="M473.17,32.25c.35,14.15-8.17,30.64-16.59,30.64s-16.94-16.49-16.59-30.64c.41-16.87,13.36-28.01,16.59-30.64,3.23,2.63,16.18,13.77,16.59,30.64Z" fill="#eac102" stroke="#000" stroke-width="3"/>
      <circle cx="456.58" cy="59.04" r="18.53" fill="#eac102" stroke="#000" stroke-width="3"/>
    </g>
  </g>
  <path d="M137.28,482.89v190.34c0,125.12,24.73,250.49,121.63,387.93,65.99,93.61,159.89,158.15,197.66,179.45h0c37.77-21.3,131.67-85.85,197.66-179.45,96.9-137.44,121.63-262.81,121.63-387.93v-190.34H137.28Z" fill="#e7e7e7" stroke-width="0"/>
  <path d="M137.28,482.89v190.34c0,125.12,24.73,250.49,121.63,387.93,65.99,93.61,159.89,158.15,197.66,179.45h0c37.77-21.3,131.67-85.85,197.66-179.45,96.9-137.44,121.63-262.81,121.63-387.93v-190.34H137.28Z" fill="none" stroke="#000" stroke-width="5"/>
  <path d="M456.58,1131.37c-28.37,0-51.45-22.43-51.45-50,0-5.37.9-10.68,2.61-15.72-4.34,1.41-8.94,2.15-13.63,2.15-23.69,0-42.96-18.74-42.96-41.77,0-5.99,1.32-11.82,3.78-17.14-2.5.43-5.05.66-7.62.66-23.69,0-42.96-18.74-42.96-41.77,0-8.3,2.47-16.18,6.96-22.85-.28,0-.57,0-.85,0-23.69,0-42.96-18.74-42.96-41.77,0-10.31,3.98-20.11,10.78-27.63-21-2.73-37.24-20.25-37.24-41.4,0-13.05,6.09-24.84,15.96-32.55-17.6-5.22-30.44-21.16-30.44-39.96,0-15.19,8.52-28.7,21.26-36.01-14.69-6.64-24.91-21.13-24.91-37.9s9.31-29.95,22.95-36.95c-13.63-7.01-22.95-20.94-22.95-36.95,0-23.03,19.27-41.77,42.96-41.77,16.57,0,30.98,9.17,38.14,22.57,7.16-13.4,21.57-22.57,38.14-22.57s30.98,9.17,38.14,22.57c7.16-13.4,21.57-22.57,38.14-22.57s30.98,9.17,38.14,22.57c7.16-13.4,21.57-22.57,38.14-22.57s30.98,9.17,38.14,22.57c7.16-13.4,21.57-22.57,38.14-22.57s30.98,9.17,38.14,22.57c7.16-13.4,21.57-22.57,38.14-22.57,23.69,0,42.96,18.74,42.96,41.77,0,16-9.31,29.94-22.94,36.95,13.64,7.01,22.96,20.95,22.96,36.96s-10.21,31.26-24.91,37.9c12.74,7.31,21.26,20.81,21.26,36.01,0,18.8-12.84,34.74-30.44,39.96,9.87,7.71,15.96,19.5,15.96,32.55,0,21.15-16.25,38.68-37.24,41.4,6.8,7.51,10.78,17.31,10.78,27.63,0,23.03-19.27,41.77-42.96,41.77-.28,0-.57,0-.85,0,4.49,6.67,6.96,14.55,6.96,22.85,0,23.03-19.27,41.77-42.96,41.77-2.58,0-5.13-.22-7.62-.66,2.47,5.32,3.78,11.15,3.78,17.14,0,23.03-19.27,41.77-42.96,41.77-4.7,0-9.29-.73-13.63-2.15,1.72,5.04,2.61,10.35,2.61,15.72,0,27.57-23.08,50-51.45,50Z" fill="#0071bc" stroke="#000" stroke-width="4"/>
  <g>
    <g id="b" data-name="g6437">
      <g id="c" data-name="g6437">
        <path d="M457.19,1177.65c1.56.74,3.04,1.45,4.45,2.27,2.87,1.68,4.81,3.59,5.77,5.69.75,1.63-.2,3.39-1.23,4.68-.7.87-.69,2.12.07,2.95h0c.93,1.02,2.56.96,3.42-.11,2.51-3.1,3.18-6.43,1.82-9.39-1.36-2.95-3.91-5.54-7.59-7.7-1.57-.92-3.21-1.7-4.79-2.45-1.85-.88-3.59-1.71-5.21-2.74-.31-.19-.63-.42-.96-.65v5.31c1.4.79,2.84,1.47,4.24,2.14Z" fill="#0071bc" stroke="#000" stroke-linecap="round" stroke-linejoin="round" stroke-width="1.5"/>
        <path d="M447.02,1195.8c1.02-.25,1.97-.13,4.08-.02-3.55-4.03-5.61-10.55-6.66-16.43-3.36,4.47-6.44,13.44-4.55,22.58.75-1.64,1.61-3.09,2.62-4.67,3.04,7.02,8.7,11.66,14.54,12.51v-5.51c-5.21-.6-9.16-3.92-10.02-8.46Z" fill="#0071bc" stroke="#000" stroke-linejoin="round" stroke-width="1.5"/>
        <path id="d" data-name=" 70399240-3-9-7-9" d="M456.61,1154.09l-1.82.08c-.82.03-1.67.27-1.7,1.62l-.28,50.76c-.01,2.28-3.11,5.05-5.63,5.3-7.58.73-13.71-3.43-14.87-9.54,1.14-.28,2.21-.15,4.58-.02-3.98-4.53-6.3-11.85-7.48-18.45-3.78,5.02-7.23,15.09-5.11,25.36.84-1.85,1.8-3.46,2.94-5.25,4.04,9.34,12.21,14.94,19.95,14.16,4.38-.45,7.61-2.84,9.41-4.49,1.8,1.65,5.03,4.04,9.39,4.49,7.73.79,15.9-4.82,19.95-14.16,1.14,1.78,2.1,3.4,2.94,5.25,2.12-10.26-1.33-20.34-5.11-25.36-1.18,6.6-3.5,13.92-7.48,18.45,2.37-.13,3.44-.26,4.58.02-1.16,6.11-7.29,10.27-14.87,9.54-2.52-.24-5.62-3.02-5.63-5.3l-.28-50.76c-.03-1.35-.88-1.59-1.7-1.62l-1.8-.08Z" fill="#0071bc" stroke="#000" stroke-linejoin="round" stroke-width="1.5"/>
        <path d="M471.6,1144.33c-3.1.05-7.27.39-11.45,1.51,1.1,1.17,1.52,2.78,1.21,4.31,3.72-.99,7.5-1.29,10.32-1.33,1.21-.02,2.18-.98,2.22-2.19h0c.03-1.29-1.01-2.33-2.29-2.31Z" fill="#0071bc" stroke="#000" stroke-linecap="round" stroke-linejoin="round" stroke-width="1.5"/>
        <path id="e" data-name=" 70372976-4-6-7" d="M450.05,1157.66c-4.66-3.59-5.51-10.3-1.9-14.98,3.61-4.68,10.31-5.56,14.97-1.97,4.66,3.59,5.51,10.3,1.9,14.98-3.61,4.68-10.31,5.56-14.97,1.97ZM452.72,1146.21c-1.65,2.14-1.26,5.22.87,6.86,2.13,1.65,5.21,1.24,6.86-.9,1.65-2.14,1.26-5.22-.87-6.86-2.13-1.65-5.21-1.24-6.86.9Z" fill="#0071bc" stroke="#000" stroke-linejoin="round" stroke-width="1.5"/>
        <path id="f" data-name="rect6435" d="M440.97,1159.66h31.26c.92,0,1.66.74,1.66,1.66v4.27c0,.92-.74,1.66-1.66,1.66h-31.26c-.92,0-1.66-.74-1.66-1.66v-4.27c0-.92.74-1.66,1.66-1.66Z" fill="#0071bc" fill-rule="evenodd" stroke="#000" stroke-linecap="round" stroke-linejoin="round" stroke-width="1.5"/>
        <path d="M460.15,1145.85c-5.28,1.42-10.59,4.11-13.82,9.1-1.78,2.76-3.36,7.41-1.95,11.46,1.1,3.13,3.56,5.98,7.12,8.24.48.3.96.59,1.45.86v-5.31c-1.68-1.22-3.52-2.98-4.33-5.28-.78-2.24.15-5.48,1.48-7.53,2.53-3.91,6.85-6.06,11.25-7.23.31-1.53-.11-3.14-1.21-4.31Z" fill="#0071bc" stroke="#000" stroke-linecap="round" stroke-linejoin="round" stroke-width="1.5"/>
      </g>
    </g>
    <g id="g" data-name="g6437">
      <g id="h" data-name="g6437">
        <path d="M197.53,795.38c1.56.74,3.04,1.45,4.45,2.27,2.87,1.68,4.81,3.59,5.77,5.69.75,1.63-.2,3.39-1.23,4.68-.7.87-.69,2.12.07,2.95h0c.93,1.02,2.56.96,3.42-.11,2.51-3.1,3.18-6.43,1.82-9.39-1.36-2.95-3.91-5.54-7.59-7.7-1.57-.92-3.21-1.7-4.79-2.45-1.85-.88-3.59-1.71-5.21-2.74-.31-.19-.63-.42-.96-.65v5.31c1.4.79,2.84,1.47,4.24,2.14Z" fill="#0071bc" stroke="#000" stroke-linecap="round" stroke-linejoin="round" stroke-width="1.5"/>
        <path d="M187.36,813.54c1.02-.25,1.97-.13,4.08-.02-3.55-4.03-5.61-10.55-6.66-16.43-3.36,4.47-6.44,13.44-4.55,22.58.75-1.64,1.61-3.09,2.62-4.67,3.04,7.02,8.7,11.66,14.54,12.51v-5.51c-5.21-.6-9.16-3.92-10.02-8.46Z" fill="#0071bc" stroke="#000" stroke-linejoin="round" stroke-width="1.5"/>
        <path id="i" data-name=" 70399240-3-9-7-9" d="M196.95,771.82l-1.82.08c-.82.03-1.67.27-1.7,1.62l-.28,50.76c-.01,2.28-3.11,5.05-5.63,5.3-7.58.73-13.71-3.43-14.87-9.54,1.14-.28,2.21-.15,4.58-.02-3.98-4.53-6.3-11.85-7.48-18.45-3.78,5.02-7.23,15.09-5.11,25.36.84-1.85,1.8-3.46,2.94-5.25,4.04,9.34,12.21,14.94,19.95,14.16,4.38-.45,7.61-2.84,9.41-4.49,1.8,1.65,5.03,4.04,9.39,4.49,7.73.79,15.9-4.82,19.95-14.16,1.14,1.78,2.1,3.4,2.94,5.25,2.12-10.26-1.33-20.34-5.11-25.36-1.18,6.6-3.5,13.92-7.48,18.45,2.37-.13,3.44-.26,4.58.02-1.16,6.11-7.29,10.27-14.87,9.54-2.52-.24-5.62-3.02-5.63-5.3l-.28-50.76c-.03-1.35-.88-1.59-1.7-1.62l-1.8-.08Z" fill="#0071bc" stroke="#000" stroke-linejoin="round" stroke-width="1.5"/>
        <path d="M211.94,762.07c-3.1.05-7.27.39-11.45,1.51,1.1,1.17,1.52,2.78,1.21,4.31,3.72-.99,7.5-1.29,10.32-1.33,1.21-.02,2.18-.98,2.22-2.19h0c.03-1.29-1.01-2.33-2.29-2.31Z" fill="#0071bc" stroke="#000" stroke-linecap="round" stroke-linejoin="round" stroke-width="1.5"/>
        <path id="j" data-name=" 70372976-4-6-7" d="M190.39,775.4c-4.66-3.59-5.51-10.3-1.9-14.98,3.61-4.68,10.31-5.56,14.97-1.97,4.66,3.59,5.51,10.3,1.9,14.98-3.61,4.68-10.31,5.56-14.97,1.97ZM193.06,763.95c-1.65,2.14-1.26,5.22.87,6.86,2.13,1.65,5.21,1.24,6.86-.9,1.65-2.14,1.26-5.22-.87-6.86-2.13-1.65-5.21-1.24-6.86.9Z" fill="#0071bc" stroke="#000" stroke-linejoin="round" stroke-width="1.5"/>
        <path id="k" data-name="rect6435" d="M181.31,777.4h31.26c.92,0,1.66.74,1.66,1.66v4.27c0,.92-.74,1.66-1.66,1.66h-31.26c-.92,0-1.66-.74-1.66-1.66v-4.27c0-.92.74-1.66,1.66-1.66Z" fill="#0071bc" fill-rule="evenodd" stroke="#000" stroke-linecap="round" stroke-linejoin="round" stroke-width="1.5"/>
        <path d="M200.49,763.58c-5.28,1.42-10.59,4.11-13.82,9.1-1.78,2.76-3.36,7.41-1.95,11.46,1.1,3.13,3.56,5.98,7.12,8.24.48.3.96.59,1.45.86v-5.31c-1.68-1.22-3.52-2.98-4.33-5.28-.78-2.24.15-5.48,1.48-7.53,2.53-3.91,6.85-6.06,11.25-7.23.31-1.53-.11-3.14-1.21-4.31Z" fill="#0071bc" stroke="#000" stroke-linecap="round" stroke-linejoin="round" stroke-width="1.5"/>
      </g>
    </g>
    <g id="l" data-name="g6437">
      <g id="m" data-name="g6437">
        <path d="M716.81,795.38c1.56.74,3.04,1.45,4.45,2.27,2.87,1.68,4.81,3.59,5.77,5.69.75,1.63-.2,3.39-1.23,4.68-.7.87-.69,2.12.07,2.95h0c.93,1.02,2.56.96,3.42-.11,2.51-3.1,3.18-6.43,1.82-9.39-1.36-2.95-3.91-5.54-7.59-7.7-1.57-.92-3.21-1.7-4.79-2.45-1.85-.88-3.59-1.71-5.21-2.74-.31-.19-.63-.42-.96-.65v5.31c1.4.79,2.84,1.47,4.24,2.14Z" fill="#0071bc" stroke="#000" stroke-linecap="round" stroke-linejoin="round" stroke-width="1.5"/>
        <path d="M706.64,813.54c1.02-.25,1.97-.13,4.08-.02-3.55-4.03-5.61-10.55-6.66-16.43-3.36,4.47-6.44,13.44-4.55,22.58.75-1.64,1.61-3.09,2.62-4.67,3.04,7.02,8.7,11.66,14.54,12.51v-5.51c-5.21-.6-9.16-3.92-10.02-8.46Z" fill="#0071bc" stroke="#000" stroke-linejoin="round" stroke-width="1.5"/>
        <path id="n" data-name=" 70399240-3-9-7-9" d="M716.23,771.82l-1.82.08c-.82.03-1.67.27-1.7,1.62l-.28,50.76c-.01,2.28-3.11,5.05-5.63,5.3-7.58.73-13.71-3.43-14.87-9.54,1.14-.28,2.21-.15,4.58-.02-3.98-4.53-6.3-11.85-7.48-18.45-3.78,5.02-7.23,15.09-5.11,25.36.84-1.85,1.8-3.46,2.94-5.25,4.04,9.34,12.21,14.94,19.95,14.16,4.38-.45,7.61-2.84,9.41-4.49,1.8,1.65,5.03,4.04,9.39,4.49,7.73.79,15.9-4.82,19.95-14.16,1.14,1.78,2.1,3.4,2.94,5.25,2.12-10.26-1.33-20.34-5.11-25.36-1.18,6.6-3.5,13.92-7.48,18.45,2.37-.13,3.44-.26,4.58.02-1.16,6.11-7.29,10.27-14.87,9.54-2.52-.24-5.62-3.02-5.63-5.3l-.28-50.76c-.03-1.35-.88-1.59-1.7-1.62l-1.8-.08Z" fill="#0071bc" stroke="#000" stroke-linejoin="round" stroke-width="1.5"/>
        <path d="M731.22,762.07c-3.1.05-7.27.39-11.45,1.51,1.1,1.17,1.52,2.78,1.21,4.31,3.72-.99,7.5-1.29,10.32-1.33,1.21-.02,2.18-.98,2.22-2.19h0c.03-1.29-1.01-2.33-2.29-2.31Z" fill="#0071bc" stroke="#000" stroke-linecap="round" stroke-linejoin="round" stroke-width="1.5"/>
        <path id="o" data-name=" 70372976-4-6-7" d="M709.67,775.4c-4.66-3.59-5.51-10.3-1.9-14.98,3.61-4.68,10.31-5.56,14.97-1.97,4.66,3.59,5.51,10.3,1.9,14.98-3.61,4.68-10.31,5.56-14.97,1.97ZM712.34,763.95c-1.65,2.14-1.26,5.22.87,6.86,2.13,1.65,5.21,1.24,6.86-.9,1.65-2.14,1.26-5.22-.87-6.86-2.13-1.65-5.21-1.24-6.86.9Z" fill="#0071bc" stroke="#000" stroke-linejoin="round" stroke-width="1.5"/>
        <path id="p" data-name="rect6435" d="M700.59,777.4h31.26c.92,0,1.66.74,1.66,1.66v4.27c0,.92-.74,1.66-1.66,1.66h-31.26c-.92,0-1.66-.74-1.66-1.66v-4.27c0-.92.74-1.66,1.66-1.66Z" fill="#0071bc" fill-rule="evenodd" stroke="#000" stroke-linecap="round" stroke-linejoin="round" stroke-width="1.5"/>
        <path d="M719.77,763.58c-5.28,1.42-10.59,4.11-13.82,9.1-1.78,2.76-3.36,7.41-1.95,11.46,1.1,3.13,3.56,5.98,7.12,8.24.48.3.96.59,1.45.86v-5.31c-1.68-1.22-3.52-2.98-4.33-5.28-.78-2.24.15-5.48,1.48-7.53,2.53-3.91,6.85-6.06,11.25-7.23.31-1.53-.11-3.14-1.21-4.31Z" fill="#0071bc" stroke="#000" stroke-linecap="round" stroke-linejoin="round" stroke-width="1.5"/>
      </g>
    </g>
    <g id="q" data-name="g6437">
      <g id="r" data-name="g6437">
        <path d="M457.17,527.08c1.56.74,3.04,1.45,4.45,2.27,2.87,1.68,4.81,3.59,5.77,5.69.75,1.63-.2,3.39-1.23,4.68-.7.87-.69,2.12.07,2.95h0c.93,1.02,2.56.96,3.42-.11,2.51-3.1,3.18-6.43,1.82-9.39-1.36-2.95-3.91-5.54-7.59-7.7-1.57-.92-3.21-1.7-4.79-2.45-1.85-.88-3.59-1.71-5.21-2.74-.31-.19-.63-.42-.96-.65v5.31c1.4.79,2.84,1.47,4.24,2.14Z" fill="#0071bc" stroke="#000" stroke-linecap="round" stroke-linejoin="round" stroke-width="1.5"/>
        <path d="M447,545.23c1.02-.25,1.97-.13,4.08-.02-3.55-4.03-5.61-10.55-6.66-16.43-3.36,4.47-6.44,13.44-4.55,22.58.75-1.64,1.61-3.09,2.62-4.67,3.04,7.02,8.7,11.66,14.54,12.51v-5.51c-5.21-.6-9.16-3.92-10.02-8.46Z" fill="#0071bc" stroke="#000" stroke-linejoin="round" stroke-width="1.5"/>
        <path id="s" data-name=" 70399240-3-9-7-9" d="M456.59,503.52l-1.82.08c-.82.03-1.67.27-1.7,1.62l-.28,50.76c-.01,2.28-3.11,5.05-5.63,5.3-7.58.73-13.71-3.43-14.87-9.54,1.14-.28,2.21-.15,4.58-.02-3.98-4.53-6.3-11.85-7.48-18.45-3.78,5.02-7.23,15.09-5.11,25.36.84-1.85,1.8-3.46,2.94-5.25,4.04,9.34,12.21,14.94,19.95,14.16,4.38-.45,7.61-2.84,9.41-4.49,1.8,1.65,5.03,4.04,9.39,4.49,7.73.79,15.9-4.82,19.95-14.16,1.14,1.78,2.1,3.4,2.94,5.25,2.12-10.26-1.33-20.34-5.11-25.36-1.18,6.6-3.5,13.92-7.48,18.45,2.37-.13,3.44-.26,4.58.02-1.16,6.11-7.29,10.27-14.87,9.54-2.52-.24-5.62-3.02-5.63-5.3l-.28-50.76c-.03-1.35-.88-1.59-1.7-1.62l-1.8-.08Z" fill="#0071bc" stroke="#000" stroke-linejoin="round" stroke-width="1.5"/>
        <path d="M471.58,493.77c-3.1.05-7.27.39-11.45,1.51,1.1,1.17,1.52,2.78,1.21,4.31,3.72-.99,7.5-1.29,10.32-1.33,1.21-.02,2.18-.98,2.22-2.19h0c.03-1.29-1.01-2.33-2.29-2.31Z" fill="#0071bc" stroke="#000" stroke-linecap="round" stroke-linejoin="round" stroke-width="1.5"/>
        <path id="t" data-name=" 70372976-4-6-7" d="M450.03,507.1c-4.66-3.59-5.51-10.3-1.9-14.98,3.61-4.68,10.31-5.56,14.97-1.97,4.66,3.59,5.51,10.3,1.9,14.98-3.61,4.68-10.31,5.56-14.97,1.97ZM452.7,495.64c-1.65,2.14-1.26,5.22.87,6.86,2.13,1.65,5.21,1.24,6.86-.9,1.65-2.14,1.26-5.22-.87-6.86-2.13-1.65-5.21-1.24-6.86.9Z" fill="#0071bc" stroke="#000" stroke-linejoin="round" stroke-width="1.5"/>
        <path id="u" data-name="rect6435" d="M440.95,509.09h31.26c.92,0,1.66.74,1.66,1.66v4.27c0,.92-.74,1.66-1.66,1.66h-31.26c-.92,0-1.66-.74-1.66-1.66v-4.27c0-.92.74-1.66,1.66-1.66Z" fill="#0071bc" fill-rule="evenodd" stroke="#000" stroke-linecap="round" stroke-linejoin="round" stroke-width="1.5"/>
        <path d="M460.13,495.28c-5.28,1.42-10.59,4.11-13.82,9.1-1.78,2.76-3.36,7.41-1.95,11.46,1.1,3.13,3.56,5.98,7.12,8.24.48.3.96.59,1.45.86v-5.31c-1.68-1.22-3.52-2.98-4.33-5.28-.78-2.24.15-5.48,1.48-7.53,2.53-3.91,6.85-6.06,11.25-7.23.31-1.53-.11-3.14-1.21-4.31Z" fill="#0071bc" stroke="#000" stroke-linecap="round" stroke-linejoin="round" stroke-width="1.5"/>
      </g>
    </g>
  </g>
  <g>
    <polygon points="506.64 918.93 493.68 918.93 493.68 905.94 481.38 905.94 481.38 918.93 462.75 918.93 462.75 900.31 475.75 900.31 475.75 888 462.75 888 462.75 875.04 450.45 875.04 450.45 888 437.45 888 437.45 900.31 450.45 900.31 450.45 918.93 431.48 918.93 431.48 905.94 419.18 905.94 419.18 918.93 406.56 918.93 406.56 931.24 419.18 931.24 419.18 944.23 431.48 944.23 431.48 931.24 450.45 931.24 450.45 950.2 437.45 950.2 437.45 962.5 450.45 962.5 450.45 975.13 462.75 975.13 462.75 962.5 475.75 962.5 475.75 950.2 462.75 950.2 462.75 931.24 481.38 931.24 481.38 944.23 493.68 944.23 493.68 931.24 506.64 931.24 506.64 918.93" fill="#e7e7e7" stroke="#000" stroke-width="2"/>
    <polygon points="392.19 859.28 379.22 859.28 379.22 846.28 366.92 846.28 366.92 859.28 348.29 859.28 348.29 840.65 361.29 840.65 361.29 828.35 348.29 828.35 348.29 815.39 335.99 815.39 335.99 828.35 323 828.35 323 840.65 335.99 840.65 335.99 859.28 317.03 859.28 317.03 846.28 304.72 846.28 304.72 859.28 292.1 859.28 292.1 871.58 304.72 871.58 304.72 884.58 317.03 884.58 317.03 871.58 335.99 871.58 335.99 890.55 323 890.55 323 902.85 335.99 902.85 335.99 915.47 348.29 915.47 348.29 902.85 361.29 902.85 361.29 890.55 348.29 890.55 348.29 871.58 366.92 871.58 366.92 884.58 379.22 884.58 379.22 871.58 392.19 871.58 392.19 859.28" fill="#e7e7e7" stroke="#000" stroke-width="2"/>
    <polygon points="621.04 859.28 608.08 859.28 608.08 846.28 595.78 846.28 595.78 859.28 577.15 859.28 577.15 840.65 590.15 840.65 590.15 828.35 577.15 828.35 577.15 815.39 564.85 815.39 564.85 828.35 551.85 828.35 551.85 840.65 564.85 840.65 564.85 859.28 545.88 859.28 545.88 846.28 533.58 846.28 533.58 859.28 520.96 859.28 520.96 871.58 533.58 871.58 533.58 884.58 545.88 884.58 545.88 871.58 564.85 871.58 564.85 890.55 551.85 890.55 551.85 902.85 564.85 902.85 564.85 915.47 577.15 915.47 577.15 902.85 590.15 902.85 590.15 890.55 577.15 890.55 577.15 871.58 595.78 871.58 595.78 884.58 608.08 884.58 608.08 871.58 621.04 871.58 621.04 859.28" fill="#e7e7e7" stroke="#000" stroke-width="2"/>
    <polygon points="579.7 974.81 566.73 974.81 566.73 961.82 554.43 961.82 554.43 974.81 535.8 974.81 535.8 956.18 548.8 956.18 548.8 943.88 535.8 943.88 535.8 930.92 523.5 930.92 523.5 943.88 510.5 943.88 510.5 956.18 523.5 956.18 523.5 974.81 504.53 974.81 504.53 961.82 492.23 961.82 492.23 974.81 479.61 974.81 479.61 987.12 492.23 987.12 492.23 1000.11 504.53 1000.11 504.53 987.12 523.5 987.12 523.5 1006.08 510.5 1006.08 510.5 1018.38 523.5 1018.38 523.5 1031.01 535.8 1031.01 535.8 1018.38 548.8 1018.38 548.8 1006.08 535.8 1006.08 535.8 987.12 554.43 987.12 554.43 1000.11 566.73 1000.11 566.73 987.12 579.7 987.12 579.7 974.81" fill="#e7e7e7" stroke="#000" stroke-width="2"/>
    <polygon points="433.55 974.81 420.59 974.81 420.59 961.82 408.29 961.82 408.29 974.81 389.66 974.81 389.66 956.18 402.66 956.18 402.66 943.88 389.66 943.88 389.66 930.92 377.36 930.92 377.36 943.88 364.36 943.88 364.36 956.18 377.36 956.18 377.36 974.81 358.39 974.81 358.39 961.82 346.09 961.82 346.09 974.81 333.46 974.81 333.46 987.12 346.09 987.12 346.09 1000.11 358.39 1000.11 358.39 987.12 377.36 987.12 377.36 1006.08 364.36 1006.08 364.36 1018.38 377.36 1018.38 377.36 1031.01 389.66 1031.01 389.66 1018.38 402.66 1018.38 402.66 1006.08 389.66 1006.08 389.66 987.12 408.29 987.12 408.29 1000.11 420.59 1000.11 420.59 987.12 433.55 987.12 433.55 974.81" fill="#e7e7e7" stroke="#000" stroke-width="2"/>
    <polygon points="506.62 759.19 493.66 759.19 493.66 746.19 481.36 746.19 481.36 759.19 462.73 759.19 462.73 740.56 475.73 740.56 475.73 728.26 462.73 728.26 462.73 715.3 450.43 715.3 450.43 728.26 437.43 728.26 437.43 740.56 450.43 740.56 450.43 759.19 431.46 759.19 431.46 746.19 419.16 746.19 419.16 759.19 406.54 759.19 406.54 771.49 419.16 771.49 419.16 784.49 431.46 784.49 431.46 771.49 450.43 771.49 450.43 790.46 437.43 790.46 437.43 802.76 450.43 802.76 450.43 815.39 462.73 815.39 462.73 802.76 475.73 802.76 475.73 790.46 462.73 790.46 462.73 771.49 481.36 771.49 481.36 784.49 493.66 784.49 493.66 771.49 506.62 771.49 506.62 759.19" fill="#e7e7e7" stroke="#000" stroke-width="2"/>
    <polygon points="506.62 647.77 493.66 647.77 493.66 634.77 481.36 634.77 481.36 647.77 462.73 647.77 462.73 629.14 475.73 629.14 475.73 616.84 462.73 616.84 462.73 603.87 450.43 603.87 450.43 616.84 437.43 616.84 437.43 629.14 450.43 629.14 450.43 647.77 431.46 647.77 431.46 634.77 419.16 634.77 419.16 647.77 406.54 647.77 406.54 660.07 419.16 660.07 419.16 673.06 431.46 673.06 431.46 660.07 450.43 660.07 450.43 679.03 437.43 679.03 437.43 691.34 450.43 691.34 450.43 703.96 462.73 703.96 462.73 691.34 475.73 691.34 475.73 679.03 462.73 679.03 462.73 660.07 481.36 660.07 481.36 673.06 493.66 673.06 493.66 660.07 506.62 660.07 506.62 647.77" fill="#e7e7e7" stroke="#000" stroke-width="2"/>
    <polygon points="392.19 632.05 379.22 632.05 379.22 619.05 366.92 619.05 366.92 632.05 348.29 632.05 348.29 613.42 361.29 613.42 361.29 601.12 348.29 601.12 348.29 588.16 335.99 588.16 335.99 601.12 323 601.12 323 613.42 335.99 613.42 335.99 632.05 317.03 632.05 317.03 619.05 304.72 619.05 304.72 632.05 292.1 632.05 292.1 644.35 304.72 644.35 304.72 657.35 317.03 657.35 317.03 644.35 335.99 644.35 335.99 663.32 323 663.32 323 675.62 335.99 675.62 335.99 688.24 348.29 688.24 348.29 675.62 361.29 675.62 361.29 663.32 348.29 663.32 348.29 644.35 366.92 644.35 366.92 657.35 379.22 657.35 379.22 644.35 392.19 644.35 392.19 632.05" fill="#e7e7e7" stroke="#000" stroke-width="2"/>
    <polygon points="621.04 632.05 608.08 632.05 608.08 619.05 595.78 619.05 595.78 632.05 577.15 632.05 577.15 613.42 590.15 613.42 590.15 601.12 577.15 601.12 577.15 588.16 564.85 588.16 564.85 601.12 551.85 601.12 551.85 613.42 564.85 613.42 564.85 632.05 545.88 632.05 545.88 619.05 533.58 619.05 533.58 632.05 520.96 632.05 520.96 644.35 533.58 644.35 533.58 657.35 545.88 657.35 545.88 644.35 564.85 644.35 564.85 663.32 551.85 663.32 551.85 675.62 564.85 675.62 564.85 688.24 577.15 688.24 577.15 675.62 590.15 675.62 590.15 663.32 577.15 663.32 577.15 644.35 595.78 644.35 595.78 657.35 608.08 657.35 608.08 644.35 621.04 644.35 621.04 632.05" fill="#e7e7e7" stroke="#000" stroke-width="2"/>
    <polygon points="647.15 740.9 634.18 740.9 634.18 727.9 621.88 727.9 621.88 740.9 603.25 740.9 603.25 722.27 616.25 722.27 616.25 709.97 603.25 709.97 603.25 697 590.95 697 590.95 709.97 577.96 709.97 577.96 722.27 590.95 722.27 590.95 740.9 571.99 740.9 571.99 727.9 559.68 727.9 559.68 740.9 547.06 740.9 547.06 753.2 559.68 753.2 559.68 766.2 571.99 766.2 571.99 753.2 590.95 753.2 590.95 772.17 577.96 772.17 577.96 784.47 590.95 784.47 590.95 797.09 603.25 797.09 603.25 784.47 616.25 784.47 616.25 772.17 603.25 772.17 603.25 753.2 621.88 753.2 621.88 766.2 634.18 766.2 634.18 753.2 647.15 753.2 647.15 740.9" fill="#e7e7e7" stroke="#000" stroke-width="2"/>
    <polygon points="366.1 740.9 353.14 740.9 353.14 727.9 340.83 727.9 340.83 740.9 322.21 740.9 322.21 722.27 335.2 722.27 335.2 709.97 322.21 709.97 322.21 697 309.9 697 309.9 709.97 296.91 709.97 296.91 722.27 309.9 722.27 309.9 740.9 290.94 740.9 290.94 727.9 278.64 727.9 278.64 740.9 266.01 740.9 266.01 753.2 278.64 753.2 278.64 766.2 290.94 766.2 290.94 753.2 309.9 753.2 309.9 772.17 296.91 772.17 296.91 784.47 309.9 784.47 309.9 797.09 322.21 797.09 322.21 784.47 335.2 784.47 335.2 772.17 322.21 772.17 322.21 753.2 340.83 753.2 340.83 766.2 353.14 766.2 353.14 753.2 366.1 753.2 366.1 740.9" fill="#e7e7e7" stroke="#000" stroke-width="2"/>
    <polygon points="506.62 1045.94 493.66 1045.94 493.66 1032.94 481.36 1032.94 481.36 1045.94 462.73 1045.94 462.73 1027.31 475.73 1027.31 475.73 1015.01 462.73 1015.01 462.73 1002.05 450.43 1002.05 450.43 1015.01 437.43 1015.01 437.43 1027.31 450.43 1027.31 450.43 1045.94 431.46 1045.94 431.46 1032.94 419.16 1032.94 419.16 1045.94 406.54 1045.94 406.54 1058.24 419.16 1058.24 419.16 1071.24 431.46 1071.24 431.46 1058.24 450.43 1058.24 450.43 1077.21 437.43 1077.21 437.43 1089.51 450.43 1089.51 450.43 1102.14 462.73 1102.14 462.73 1089.51 475.73 1089.51 475.73 1077.21 462.73 1077.21 462.73 1058.24 481.36 1058.24 481.36 1071.24 493.66 1071.24 493.66 1058.24 506.62 1058.24 506.62 1045.94" fill="#e7e7e7" stroke="#000" stroke-width="2"/>
  </g>
  <path id="v" data-name="rect8058-3" d="M416.7,719.45c-24.32,13.85-40.7,39.99-40.7,70.08,0,44.65,35.97,80.58,80.62,80.58s80.58-35.93,80.58-80.58c0-30.09-16.3-56.23-40.61-70.08,11.56,10.72,18.8,26.03,18.8,43.12,0,32.55-26.22,58.77-58.77,58.77s-58.77-26.22-58.77-58.77c0-17.08,7.27-32.4,18.84-43.12Z" fill="#e7e7e7" stroke="#000" stroke-width="2"/>
</svg>