<svg width="665" height="664" xmlns="http://www.w3.org/2000/svg" xmlns:xlink="http://www.w3.org/1999/xlink" xml:space="preserve" overflow="hidden"><g transform="translate(-1868 -906)"><path d="M2526.5 1238C2526.5 1417.77 2380.54 1563.5 2200.5 1563.5 2020.46 1563.5 1874.5 1417.77 1874.5 1238 1874.5 1058.23 2020.46 912.5 2200.5 912.5 2380.54 912.5 2526.5 1058.23 2526.5 1238Z" stroke="#222222" stroke-width="13.0953" stroke-miterlimit="8" fill="#FFFFFF" fill-rule="evenodd"/><path d="M2500.5 1238C2500.5 1403.41 2366.19 1537.5 2200.5 1537.5 2034.81 1537.5 1900.5 1403.41 1900.5 1238 1900.5 1072.59 2034.81 938.5 2200.5 938.5 2366.19 938.5 2500.5 1072.59 2500.5 1238Z" stroke="#222222" stroke-width="6.54767" stroke-miterlimit="8" fill="#FFFFFF" fill-rule="evenodd"/><path d="M2475.5 1238C2475.5 1389.6 2352.38 1512.5 2200.5 1512.5 2048.62 1512.5 1925.5 1389.6 1925.5 1238 1925.5 1086.4 2048.62 963.5 2200.5 963.5 2352.38 963.5 2475.5 1086.4 2475.5 1238Z" stroke="#222222" stroke-width="6.54767" stroke-miterlimit="8" fill="#333333" fill-rule="evenodd"/><path d="M2264.8 1046.53C2262.73 1046.58 2260.68 1046.66 2258.62 1046.81 2219.69 1049.52 2182.86 1069.63 2157.25 1098.97 2127.57 1133.03 2112.65 1178.55 2111.56 1223.68 2110.81 1255.25 2116.6 1287.3 2131.08 1315.38 2139.38 1331.47 2150.51 1346.04 2163.68 1358.5 2168.51 1352.63 2172.42 1346.01 2175.02 1338.89 2177.93 1330.93 2179.25 1322.54 2179.89 1314.02 2179.75 1313.73 2179.58 1313.45 2179.43 1313.17 2165.27 1285.06 2161.4 1253.06 2161.02 1221.67 2160.61 1186.22 2164.94 1149.26 2183.98 1119.35 2198.01 1097.33 2220.05 1080.12 2245.43 1073.58 2270.78 1067.05 2299.19 1071.77 2320.04 1087.58 2337.42 1100.82 2348.97 1121.31 2351.2 1142.97L2381.5 1142.97 2381.5 1048.72 2351.2 1049.29 2351.2 1075.2C2326.86 1056.11 2295.73 1045.85 2264.78 1046.53Z" stroke="#222222" stroke-width="6.54767" stroke-miterlimit="8" fill="#FFFFFF" fill-rule="evenodd"/><path d="M2254.19 1059.38C2233.72 1127.52 2254.65 1191.72 2265.65 1251.02 2273.78 1292.44 2275.37 1336.85 2258.26 1376.49 2273.49 1378.89 2292.81 1380.68 2305.57 1372.41 2325.76 1326.55 2323.5 1274.26 2310.49 1226.79 2298.86 1177.8 2270.2 1112.35 2271.23 1060.87M2271.95 1042.69C2282.31 1044.29 2281.89 1038.44 2281.77 1040.46 2281.69 1042.64 2276.04 1043.9 2272.41 1042.95 2247.2 1036.4 2207.07 1008.67 2182.2 1002.51 2171.09 999.263 2159.51 997.429 2147.92 997.511 2112.25 996.954 2075.73 1018.41 2064.73 1053.53 2055.99 1077.03 2060 1109.55 2084.37 1121.95 2100.48 1131.5 2126 1121.83 2126.36 1101.59 2128.56 1081.31 2102.31 1078.49 2092.93 1083.57 2081.85 1061.23 2087.53 1030.07 2110.86 1023.47 2144.83 1012.48 2186.05 1036.84 2217.19 1048.04 2248.46 1059.34 2284.03 1073.58 2301.5 1056.08 2318.03 1039.54 2313.96 1026.44 2296.05 1019.21 2280.81 1013.07 2264.11 1025.37 2260.57 1038.21" stroke="#222222" stroke-width="6.54767" stroke-miterlimit="8" fill="#FFFFFF" fill-rule="evenodd"/><path d="M2082.31 1323.5C2056.91 1323.26 2036.94 1346.57 2034.26 1370.58 2028.79 1408.37 2053.5 1445.38 2086.72 1462.02 2139.69 1489.74 2207.42 1478.54 2253.18 1441.89 2266.46 1431.44 2277.94 1418.83 2287.5 1404.92 2273.09 1405.58 2258.59 1404.15 2244.53 1401.16 2220.39 1437.64 2174.51 1461.57 2130.56 1452.36 2099.88 1446.74 2072.46 1421.66 2068.88 1390.03 2067.59 1381.46 2069.29 1365.33 2072.85 1362.06 2076.52 1375.79 2095.33 1380.84 2105.81 1371.43 2119.1 1361.18 2116.31 1339.44 2103.04 1330.37 2097.19 1325.84 2089.77 1323.58 2082.39 1323.53Z" stroke="#222222" stroke-width="6.54767" stroke-miterlimit="8" fill="#FFFFFF" fill-rule="evenodd"/><path d="M2070.74 1257.93 2113.7 1257.93C2112.21 1246.87 2111.62 1235.67 2111.85 1224.55L2070.69 1224.55ZM2099.44 1048.66C2048.7 1047.42 2005.16 1084.21 1983.07 1127.49 1957.21 1178.04 1951.59 1237.93 1963.39 1293.16 1975.76 1351.35 2022.75 1402.3 2082.27 1412.95 2129.82 1422.91 2184.91 1403.41 2208.69 1359.48 2225.89 1328.42 2222.41 1291.96 2222.85 1257.71L2238.68 1257.71 2238.68 1224.32 2161.28 1224.32C2161.28 1234.54 2161.86 1249.36 2164.09 1257.71L2180.7 1257.71C2179.6 1287.54 2185.27 1322.44 2170.15 1349.65 2150.05 1385.27 2100.47 1394.86 2065.71 1375.72 2028 1356.92 2009.12 1314.59 2005.45 1274.38 2002.4 1235.23 1999.76 1195.07 2008.73 1156.44 2017.49 1115.98 2052.36 1079.59 2095.24 1078.23 2129.67 1075.83 2163.6 1100.91 2169.89 1135.11 2170.76 1139.45 2170.83 1149.36 2170.83 1149.36L2200.67 1149.36 2200.67 1053.66 2171.33 1053.66 2171.33 1080.29C2152.64 1060.79 2125.92 1049.22 2099.19 1048.5ZM2366.54 1249.57C2366.36 1280.18 2368.62 1313.46 2350.83 1340.19 2330.68 1371.15 2289.83 1384.32 2254.65 1375.23 2238.97 1371.41 2224.18 1363.95 2211.69 1353.64 2208 1363.85 2197.88 1373.72 2193.85 1381.37 2240.25 1408.39 2300.43 1413.78 2349.12 1389.55 2380.69 1373.8 2404.41 1342.11 2407.23 1306.55 2409.28 1287.64 2408.41 1268.53 2408.59 1249.59L2427.5 1249.59 2427.5 1216.65 2285.01 1216.65 2285.01 1249.59Z" stroke="#222222" stroke-width="6.54767" stroke-miterlimit="8" fill="#FFFFFF" fill-rule="evenodd"/></g></svg>