<?xml version="1.0" encoding="UTF-8" standalone="no"?>
<!-- Created with Inkscape (http://www.inkscape.org/) -->
<svg id="svg1" xmlns:rdf="http://www.w3.org/1999/02/22-rdf-syntax-ns#" xmlns="http://www.w3.org/2000/svg" height="48" width="48" version="1.0" xmlns:cc="http://creativecommons.org/ns#" xmlns:xlink="http://www.w3.org/1999/xlink" xmlns:dc="http://purl.org/dc/elements/1.1/">
 <defs id="defs3">
  <radialGradient id="radialGradient2784" gradientUnits="userSpaceOnUse" cy="13.38" cx="30.324" gradientTransform="matrix(1.5319 0 0 1.5319 -16.13 -7.1173)" r="29.756">
   <stop id="stop2780" stop-color="#ff7802" offset="0"/>
   <stop id="stop2782" stop-color="#ff8700" offset="1"/>
  </radialGradient>
  <linearGradient id="linearGradient2794" y2="29.208" gradientUnits="userSpaceOnUse" x2="59.148" y1="29.208" x1="-.36309">
   <stop id="stop2790" stop-color="#fff" offset="0"/>
   <stop id="stop2792" stop-color="#fff" stop-opacity="0" offset="1"/>
  </linearGradient>
  <radialGradient id="radialGradient2802" gradientUnits="userSpaceOnUse" cy="22.226" cx="31.76" gradientTransform="matrix(1.3165 0 0 1.3165 -10.053 -9.2803)" r="18.624">
   <stop id="stop2798" stop-color="#fff" offset="0"/>
   <stop id="stop2800" stop-color="#dfdfdf" offset="1"/>
  </radialGradient>
  <radialGradient id="radialGradient2812" gradientUnits="userSpaceOnUse" cy="39.75" cx="25.25" gradientTransform="matrix(1 0 0 .33333 0 26.5)" r="17.25">
   <stop id="stop2808" offset="0"/>
   <stop id="stop2810" stop-opacity="0" offset="1"/>
  </radialGradient>
 </defs>
 <metadata id="metadata4">
  <rdf:RDF>
   <cc:Work rdf:about="">
    <dc:format>image/svg+xml</dc:format>
    <dc:type rdf:resource="http://purl.org/dc/dcmitype/StillImage"/>
    <dc:title/>
    <dc:creator>
     <cc:Agent>
      <dc:title>Jakub Steiner</dc:title>
     </cc:Agent>
    </dc:creator>
    <dc:contributor>
     <cc:Agent>
      <dc:title>Andreas Nilsson</dc:title>
     </cc:Agent>
    </dc:contributor>
    <cc:license rdf:resource="http://creativecommons.org/licenses/GPL/2.0/"/>
   </cc:Work>
   <cc:License rdf:about="http://creativecommons.org/licenses/GPL/2.0/">
    <cc:permits rdf:resource="http://web.resource.org/cc/Reproduction"/>
    <cc:permits rdf:resource="http://web.resource.org/cc/Distribution"/>
    <cc:requires rdf:resource="http://web.resource.org/cc/Notice"/>
    <cc:permits rdf:resource="http://web.resource.org/cc/DerivativeWorks"/>
    <cc:requires rdf:resource="http://web.resource.org/cc/ShareAlike"/>
    <cc:requires rdf:resource="http://web.resource.org/cc/SourceCode"/>
   </cc:License>
  </rdf:RDF>
 </metadata>
 <path id="path2804" opacity=".64433" style="color:black" d="m42.5 39.75a17.25 5.75 0 1 1 -34.5 0 17.25 5.75 0 1 1 34.5 0z" transform="matrix(1.1594 0 0 1.5072 -3.7754 -22.163)" fill="url(#radialGradient2812)"/>
 <path id="path907" d="m58.404 29.208a29.011 29.011 0 1 1 -58.022 0 29.011 29.011 0 1 1 58.022 0z" fill-rule="evenodd" transform="matrix(.67131 0 0 .67131 5.2224 3.4184)" stroke="#d65d19" stroke-width="1.4896" fill="url(#radialGradient2784)"/>
 <path id="path2159" d="m50.385 29.319a18.624 18.624 0 1 1 -37.249 0 18.624 18.624 0 1 1 37.249 0z" fill-rule="evenodd" transform="matrix(.78096 0 0 .78096 .17289 -.14768)" fill="url(#radialGradient2802)"/>
 <path id="path2786" opacity=".37629" d="m58.404 29.208a29.011 29.011 0 1 1 -58.022 0 29.011 29.011 0 1 1 58.022 0z" transform="matrix(.62930 0 0 .62930 6.4571 4.6454)" stroke="url(#linearGradient2794)" stroke-width="1.5891" fill="none"/>
 <g id="g3" transform="matrix(.10781 0 0 0.0998 -3.0334 -21.652)">
  <path id="path2176" fill="#ff8001" d="m187.55 541.8c-0.56958-0.69355-3.1409-6.299-5.7141-12.456-9.8909-23.668-18.244-43.802-29.879-72.016l-12.07-29.27 1.6523-3.4527c0.90879-1.899 1.6524-4.5599 1.6524-5.9131s0.70694-4.8208 1.571-7.7058c1.1715-3.9118 2.5416-5.9607 5.3887-8.0583 2.0997-1.5471 8.2056-6.8806 13.569-11.852 17.191-15.937 28.64-22.031 41.39-22.031 5.5763 0 7.135 0.42924 10.546 2.9043 2.2017 1.5974 4.883 3.8874 5.9584 5.0888 2.8179 3.1483 4.1941 2.7333 7.1006-2.141 3.6331-6.0928 9.5807-11.48 15.567-14.099 4.4301-1.9387 7.8924-2.3554 25.66-3.088 11.297-0.46577 22.266-1.1323 24.376-1.4812 4.5084-0.74546 0.29833-4.5721 46.861 42.592l30.903 31.303v4.5151c0 4.0664 0.61022 5.2036 6.1407 11.444 6.0662 6.8445 6.1409 7.0042 6.1585 13.165 0.0108 3.783-0.48691 6.6402-1.2652 7.2628-0.70566 0.56452-6.1328 1.8077-12.06 2.7627-5.9276 0.95495-23.347 4.2131-38.711 7.2404-15.363 3.0273-28.176 5.5041-28.472 5.5041-0.29631 0-3.0649 2.2684-6.1524 5.0409-8.5331 7.6625-10.932 8.6356-21.678 8.7921l-9.3079 0.1356-14.704 7.8574c-17.23 9.2068-31.711 17.974-48.793 29.541-15.367 10.406-14.454 9.9158-15.686 8.4154zm14.66-19.206c10.729-9.0091 29.991-23.015 36.988-26.895 10.201-5.6569 16.579-7.764 25.623-8.4651l8.2113-0.63657 1.1594-5.822c0.63767-3.2021 1.9316-7.7356 2.8754-10.075 1.0994-2.7245 1.361-4.6045 0.72807-5.2321-0.54334-0.53877-4.3776-0.96507-8.5206-0.94732-14.168 0.0606-27.768 6.2067-45.51 20.565-5.6453 4.5688-14.537 11.495-19.758 15.391-9.0589 6.7593-9.4944 7.2618-9.4944 10.956 0 2.1294-0.29674 6.6869-0.65943 10.128-0.83103 7.884 0.0665 7.9949 8.3576 1.033zm-12.589-8.7714 0.48014-6.87-19.445-45.8c-10.695-25.19-19.856-46.227-20.359-46.75-1.5425-1.6032-2.341 0.22426-2.7905 6.3863-0.40608 5.5667 0.0947 7.1429 8.8062 27.713 17.005 40.153 29.188 68.612 30.141 70.409 1.754 3.3069 2.684 1.8122 3.1663-5.0888zm11.478-17.493c3.6824-2.7637 10.058-7.9291 14.168-11.479 20.21-17.455 36.242-25.225 52.045-25.225 4.5787 0 6.4564-0.40627 6.8748-1.4875 0.327-0.84499-1.8286-4.9114-4.9906-9.4144-3.0614-4.3598-10.586-15.026-16.721-23.702-6.1349-8.6765-14.477-20.584-18.537-26.462-7.6767-11.112-18.756-22.632-23.48-24.413-6.667-2.5134-18.084 0.50721-28.076 7.4279-8.2185 5.6927-28.333 24.063-28.727 26.236-0.17255 0.95082 7.2898 19.525 16.583 41.275 22.022 51.542 22.346 52.269 23.328 52.269 0.46085 0 3.8508-2.2612 7.5332-5.025zm101.38-25.799c9.4159-9.2846 13.747-10.375 46.79-11.779 10.993-0.46709 19.213-1.2528 19.865-1.8987 0.79737-0.79066 0.79132-2.5811-0.0215-6.339-0.62298-2.8804-1.1327-6.9905-1.1327-9.1335 0-6.1366-0.82411-6.3736-18.101-5.205-30.248 2.0458-45.761 6.343-54.312 15.045-3.9243 3.9938-11.324 17.312-10.224 18.402 0.34878 0.34583 2.2519 0.4906 4.2292 0.32168 3.1921-0.27271 3.7288 0.0443 4.7888 2.8291 0.65662 1.7249 1.5243 3.1362 1.9283 3.1362 0.40395 0 3.1895-2.4208 6.1901-5.3795zm-15.81-16.84c2.5587-4.5143 10.79-12.45 15.327-14.776 6.4312-3.2977 18.636-5.7593 36.13-7.287 23.088-2.0163 24.919-2.3167 24.522-4.0229-0.17633-0.75806-15.254-16.339-33.505-34.624-25.522-25.569-33.58-33.075-34.898-32.509-0.94242 0.4048-10.72 1.0741-21.729 1.4873-23.921 0.89794-28.847 2.1335-35.012 8.7817-3.4839 3.7574-8.098 10.678-8.098 12.147 0 0.63322 2.194 4.1373 4.8755 7.7869s7.8777 10.901 11.547 16.114c26.37 37.462 36.227 50.808 37.527 50.808 0.60421 0 2.0948-1.7576 3.3124-3.9059zm14.245-25.27c-2.2442-2.2253 3.1964-9.4992 7.1051-9.4992 3.5207 0 3.2119 3.1836-0.6834 7.0461-3.0908 3.0647-5.05 3.8132-6.4217 2.4531zm-7.2239-13.6c-4.1893-4.9368-4.3332-8.6412-0.73334-18.876 1.742-4.953 3.1673-10.66 3.1673-12.683 0-9.0212-11.023-11.523-23.629-5.363-7.7434 3.7838-15.044 10.517-16.255 14.99-1.4253 5.2659-0.64178 5.8923 6.4306 5.1413 5.3331-0.5663 6.6812-0.36767 8.7437 1.2883 4.8729 3.9126-0.50589 10.443-8.6012 10.443-7.4478 0-12.877-5.1454-12.877-12.203 0-7.5772 8.653-17.25 20.344-22.742 5.9361-2.7886 7.9681-3.2208 15.144-3.2208 7.131 0 8.8239 0.3551 12.131 2.5444 2.1136 1.3994 4.7351 4.2437 5.8256 6.3205 2.9713 5.6589 2.5177 10.986-1.7443 20.486-2.3309 5.1953-3.7407 9.9273-3.7635 12.633-0.0201 2.379-0.38037 4.3255-0.80063 4.3255-0.42025 0-1.9415-1.3875-3.3806-3.0833z"/>
 </g>
</svg>
